<svg width="296" height="280" viewBox="0 0 296 280" fill="none" xmlns="http://www.w3.org/2000/svg">
<mask id="mask0_8985_215856" style="mask-type:alpha" maskUnits="userSpaceOnUse" x="-11" y="50" width="318" height="230">
<path opacity="0.8" d="M306.108 279.61L270.104 279.61L-10.8654 279.61L0.00019024 50.1079L306.108 50.1079L306.108 100.923L306.108 226.752L306.108 235.619L306.108 279.61Z" fill="url(#paint0_radial_8985_215856)"/>
</mask>
<g mask="url(#mask0_8985_215856)">
<path d="M-112.21 278.075L583.54 278.075" stroke="#E2E2E2" stroke-width="0.295"/>
<path d="M-112.21 275.715L583.54 275.715" stroke="#E2E2E2" stroke-width="0.295"/>
<path d="M-112.21 273.355L583.54 273.355" stroke="#E2E2E2" stroke-width="0.295"/>
<path d="M-112.21 270.995L583.54 270.995" stroke="#E2E2E2" stroke-width="0.295"/>
<path d="M-112.21 268.635L583.54 268.635" stroke="#E2E2E2" stroke-width="0.295"/>
<path d="M-112.21 266.275L583.54 266.275" stroke="#E2E2E2" stroke-width="0.295"/>
<path d="M-112.21 263.915L583.54 263.915" stroke="#E2E2E2" stroke-width="0.295"/>
<path d="M-112.21 261.555L583.54 261.555" stroke="#E2E2E2" stroke-width="0.295"/>
<path d="M-112.21 259.195L583.54 259.195" stroke="#E2E2E2" stroke-width="0.295"/>
<path d="M-112.21 256.835L583.54 256.835" stroke="#E2E2E2" stroke-width="0.295"/>
<path d="M-112.21 254.475L583.54 254.475" stroke="#E2E2E2" stroke-width="0.295"/>
<path d="M-112.21 252.115L583.54 252.115" stroke="#E2E2E2" stroke-width="0.295"/>
<path d="M-112.21 249.755L583.54 249.755" stroke="#E2E2E2" stroke-width="0.295"/>
<path d="M-112.21 247.395L583.54 247.395" stroke="#E2E2E2" stroke-width="0.295"/>
<path d="M-112.21 245.035L583.54 245.035" stroke="#E2E2E2" stroke-width="0.295"/>
<path d="M-112.21 242.675L583.54 242.675" stroke="#E2E2E2" stroke-width="0.295"/>
<path d="M-112.21 240.315L583.54 240.315" stroke="#E2E2E2" stroke-width="0.295"/>
<path d="M-112.21 237.955L583.54 237.955" stroke="#E2E2E2" stroke-width="0.295"/>
<path d="M-112.21 235.595L583.54 235.595" stroke="#E2E2E2" stroke-width="0.295"/>
<path d="M-112.21 233.235L583.54 233.235" stroke="#E2E2E2" stroke-width="0.295"/>
<path d="M-112.21 230.875L583.54 230.875" stroke="#E2E2E2" stroke-width="0.295"/>
<path d="M-112.21 228.515L583.54 228.515" stroke="#E2E2E2" stroke-width="0.295"/>
<path d="M-112.21 226.155L583.54 226.155" stroke="#E2E2E2" stroke-width="0.295"/>
<path d="M-112.21 223.795L583.54 223.795" stroke="#E2E2E2" stroke-width="0.295"/>
<path d="M-112.21 221.435L583.54 221.435" stroke="#E2E2E2" stroke-width="0.295"/>
<path d="M-112.21 219.075L583.54 219.075" stroke="#E2E2E2" stroke-width="0.295"/>
<path d="M-112.21 216.715L583.54 216.715" stroke="#E2E2E2" stroke-width="0.295"/>
<path d="M-112.21 214.355L583.54 214.355" stroke="#E2E2E2" stroke-width="0.295"/>
<path d="M-112.21 211.995L583.54 211.995" stroke="#E2E2E2" stroke-width="0.295"/>
<path d="M-112.21 209.635L583.54 209.635" stroke="#E2E2E2" stroke-width="0.295"/>
<path d="M-112.21 207.275L583.54 207.275" stroke="#E2E2E2" stroke-width="0.295"/>
<path d="M-112.21 204.915L583.54 204.915" stroke="#E2E2E2" stroke-width="0.295"/>
<path d="M-112.21 202.555L583.54 202.555" stroke="#E2E2E2" stroke-width="0.295"/>
<path d="M-112.21 200.195L583.54 200.195" stroke="#E2E2E2" stroke-width="0.295"/>
<path d="M-112.21 197.835L583.54 197.835" stroke="#E2E2E2" stroke-width="0.295"/>
<path d="M-112.21 195.475L583.54 195.475" stroke="#E2E2E2" stroke-width="0.295"/>
<path d="M-112.21 193.115L583.54 193.115" stroke="#E2E2E2" stroke-width="0.295"/>
<path d="M-112.21 190.755L583.54 190.755" stroke="#E2E2E2" stroke-width="0.295"/>
<path d="M-112.21 188.395L583.54 188.395" stroke="#E2E2E2" stroke-width="0.295"/>
<path d="M-112.21 186.035L583.54 186.035" stroke="#E2E2E2" stroke-width="0.295"/>
<path d="M-112.21 183.675L583.54 183.675" stroke="#E2E2E2" stroke-width="0.295"/>
<path d="M-112.21 181.315L583.54 181.315" stroke="#E2E2E2" stroke-width="0.295"/>
<path d="M-112.21 178.955L583.54 178.955" stroke="#E2E2E2" stroke-width="0.295"/>
<path d="M-112.21 176.595L583.54 176.595" stroke="#E2E2E2" stroke-width="0.295"/>
<path d="M-112.21 174.235L583.54 174.235" stroke="#E2E2E2" stroke-width="0.295"/>
<path d="M-112.21 171.875L583.54 171.875" stroke="#E2E2E2" stroke-width="0.295"/>
<path d="M-112.21 169.515L583.54 169.515" stroke="#E2E2E2" stroke-width="0.295"/>
<path d="M-112.21 167.155L583.54 167.155" stroke="#E2E2E2" stroke-width="0.295"/>
<path d="M-112.21 164.795L583.54 164.795" stroke="#E2E2E2" stroke-width="0.295"/>
<path d="M-112.21 162.435L583.54 162.435" stroke="#E2E2E2" stroke-width="0.295"/>
<path d="M-112.21 160.075L583.54 160.075" stroke="#E2E2E2" stroke-width="0.295"/>
<path d="M-112.21 157.715L583.54 157.715" stroke="#E2E2E2" stroke-width="0.295"/>
<path d="M-112.21 155.355L583.54 155.355" stroke="#E2E2E2" stroke-width="0.295"/>
<path d="M-112.21 152.995L583.54 152.995" stroke="#E2E2E2" stroke-width="0.295"/>
<path d="M-112.21 150.635L583.54 150.635" stroke="#E2E2E2" stroke-width="0.295"/>
<path d="M-112.21 148.275L583.54 148.275" stroke="#E2E2E2" stroke-width="0.295"/>
<path d="M-112.21 145.915L583.54 145.915" stroke="#E2E2E2" stroke-width="0.295"/>
<path d="M-112.21 143.555L583.54 143.555" stroke="#E2E2E2" stroke-width="0.295"/>
<path d="M-112.21 141.195L583.54 141.195" stroke="#E2E2E2" stroke-width="0.295"/>
<path d="M-112.21 138.835L583.54 138.835" stroke="#E2E2E2" stroke-width="0.295"/>
<path d="M-112.21 136.475L583.54 136.475" stroke="#E2E2E2" stroke-width="0.295"/>
<path d="M-112.21 134.115L583.54 134.115" stroke="#E2E2E2" stroke-width="0.295"/>
<path d="M-112.21 131.755L583.54 131.755" stroke="#E2E2E2" stroke-width="0.295"/>
<path d="M-112.21 129.395L583.54 129.395" stroke="#E2E2E2" stroke-width="0.295"/>
<path d="M-112.21 127.035L583.54 127.035" stroke="#E2E2E2" stroke-width="0.295"/>
<path d="M-112.21 124.675L583.54 124.675" stroke="#E2E2E2" stroke-width="0.295"/>
<path d="M-112.21 122.315L583.54 122.315" stroke="#E2E2E2" stroke-width="0.295"/>
<path d="M-112.21 119.955L583.54 119.955" stroke="#E2E2E2" stroke-width="0.295"/>
<path d="M-112.21 117.595L583.54 117.595" stroke="#E2E2E2" stroke-width="0.295"/>
<path d="M-112.21 115.235L583.54 115.235" stroke="#E2E2E2" stroke-width="0.295"/>
<path d="M-112.21 112.875L583.54 112.875" stroke="#E2E2E2" stroke-width="0.295"/>
<path d="M-112.21 110.515L583.54 110.515" stroke="#E2E2E2" stroke-width="0.295"/>
<path d="M-112.21 108.155L583.54 108.155" stroke="#E2E2E2" stroke-width="0.295"/>
<path d="M-112.21 105.795L583.54 105.795" stroke="#E2E2E2" stroke-width="0.295"/>
<path d="M-112.21 103.435L583.54 103.435" stroke="#E2E2E2" stroke-width="0.295"/>
<path d="M-112.21 101.075L583.54 101.075" stroke="#E2E2E2" stroke-width="0.295"/>
<path d="M-112.21 98.7151L583.54 98.7151" stroke="#E2E2E2" stroke-width="0.295"/>
<path d="M-112.21 96.3551L583.54 96.355" stroke="#E2E2E2" stroke-width="0.295"/>
<path d="M-112.21 93.9951L583.54 93.9951" stroke="#E2E2E2" stroke-width="0.295"/>
<path d="M-112.21 91.635L583.54 91.635" stroke="#E2E2E2" stroke-width="0.295"/>
<path d="M-112.21 89.275L583.54 89.275" stroke="#E2E2E2" stroke-width="0.295"/>
<path d="M-112.21 86.9151L583.54 86.9151" stroke="#E2E2E2" stroke-width="0.295"/>
<path d="M-112.21 84.5551L583.54 84.5551" stroke="#E2E2E2" stroke-width="0.295"/>
<path d="M-112.21 82.195L583.54 82.195" stroke="#E2E2E2" stroke-width="0.295"/>
<path d="M-112.21 79.835L583.54 79.835" stroke="#E2E2E2" stroke-width="0.295"/>
<path d="M-112.21 77.475L583.54 77.475" stroke="#E2E2E2" stroke-width="0.295"/>
<path d="M-112.21 75.115L583.54 75.115" stroke="#E2E2E2" stroke-width="0.295"/>
<path d="M-112.21 72.755L583.54 72.755" stroke="#E2E2E2" stroke-width="0.295"/>
<path d="M-112.21 70.395L583.54 70.395" stroke="#E2E2E2" stroke-width="0.295"/>
<path d="M-112.21 68.035L583.54 68.035" stroke="#E2E2E2" stroke-width="0.295"/>
<path d="M-112.21 65.675L583.54 65.675" stroke="#E2E2E2" stroke-width="0.295"/>
<path d="M-112.21 63.315L583.54 63.315" stroke="#E2E2E2" stroke-width="0.295"/>
<path d="M-112.21 60.955L583.54 60.955" stroke="#E2E2E2" stroke-width="0.295"/>
<path d="M-112.21 58.595L583.54 58.595" stroke="#E2E2E2" stroke-width="0.295"/>
<path d="M-112.21 56.235L583.54 56.235" stroke="#E2E2E2" stroke-width="0.295"/>
<path d="M-112.21 53.875L583.54 53.875" stroke="#E2E2E2" stroke-width="0.295"/>
<path d="M-112.21 51.515L583.54 51.515" stroke="#E2E2E2" stroke-width="0.295"/>
</g>
<path d="M105.546 170.607L2.00172 170.607" stroke="url(#paint1_linear_8985_215856)" stroke-width="0.59"/>
<path d="M105.279 170.312C72.7543 170.312 84.8468 111.017 51.0713 111.017L-13.8107 111.017" stroke="#E2E2E2" stroke-width="0.59"/>
<path d="M105.279 170.607C72.7543 170.607 84.8468 229.902 51.0713 229.902L-9.875 229.902" stroke="url(#paint2_linear_8985_215856)" stroke-width="0.59"/>
<path d="M194.174 170.607H249.391H291.358" stroke="url(#paint3_linear_8985_215856)" stroke-width="0.59"/>
<path d="M194.438 170.607C225.367 170.607 213.867 229.902 245.986 229.902L301.79 229.902" stroke="#E2E2E2" stroke-width="0.59"/>
<path d="M194.438 170.312C225.367 170.312 213.867 111.017 245.986 111.017L301.79 111.017" stroke="url(#paint4_linear_8985_215856)" stroke-width="0.59"/>
<rect x="105.315" y="126.505" width="87.91" height="87.91" rx="11.505" fill="#FBFBFB" stroke="#3B3D3F" stroke-width="0.59" stroke-dasharray="0.59 2.95"/>
<g filter="url(#filter0_d_8985_215856)">
<rect x="113.388" y="134.573" width="71.7691" height="71.7738" rx="3.50116" fill="url(#paint5_linear_8985_215856)"/>
</g>
<path d="M113.388 140.205C113.388 138.224 113.388 137.234 113.77 136.485C114.105 135.826 114.641 135.29 115.3 134.955C116.049 134.573 117.029 134.573 118.99 134.573H179.555C181.516 134.573 182.496 134.573 183.245 134.955C183.904 135.29 184.44 135.826 184.775 136.485C185.157 137.234 185.157 138.224 185.157 140.205H113.388Z" fill="#E3E3E3"/>
<path fill-rule="evenodd" clip-rule="evenodd" d="M121.91 137.389C121.91 137.868 121.509 138.256 121.013 138.256C120.518 138.256 120.116 137.868 120.116 137.389C120.116 136.911 120.518 136.523 121.013 136.523C121.509 136.523 121.91 136.911 121.91 137.389ZM118.77 137.389C118.77 137.868 118.369 138.256 117.873 138.256C117.378 138.256 116.976 137.868 116.976 137.389C116.976 136.911 117.378 136.523 117.873 136.523C118.369 136.523 118.77 136.911 118.77 137.389ZM124.153 138.256C124.648 138.256 125.05 137.868 125.05 137.389C125.05 136.911 124.648 136.523 124.153 136.523C123.657 136.523 123.256 136.911 123.256 137.389C123.256 137.868 123.657 138.256 124.153 138.256Z" fill="#9D9E9F"/>
<rect x="110.376" y="131.566" width="77.788" height="77.788" rx="6.86118" stroke="#CECFCF" stroke-width="0.437645"/>
<mask id="path-110-inside-1_8985_215856" fill="white">
<path d="M149.452 193.569C149.191 193.569 148.93 193.511 148.695 193.392L141.107 189.574C138.954 188.489 137.27 187.272 135.955 185.854C133.077 182.753 131.475 178.772 131.45 174.642L131.361 161.051C131.35 159.482 132.392 158.074 133.948 157.544L147.88 152.822C148.708 152.534 149.63 152.53 150.472 152.808L164.457 157.369C166.023 157.877 167.081 159.275 167.09 160.842L167.179 174.444C167.207 178.567 165.66 182.564 162.826 185.699C161.526 187.137 159.857 188.373 157.725 189.477L150.205 193.382C149.972 193.505 149.713 193.567 149.452 193.569Z"/>
</mask>
<path d="M149.452 193.569C149.191 193.569 148.93 193.511 148.695 193.392L141.107 189.574C138.954 188.489 137.27 187.272 135.955 185.854C133.077 182.753 131.475 178.772 131.45 174.642L131.361 161.051C131.35 159.482 132.392 158.074 133.948 157.544L147.88 152.822C148.708 152.534 149.63 152.53 150.472 152.808L164.457 157.369C166.023 157.877 167.081 159.275 167.09 160.842L167.179 174.444C167.207 178.567 165.66 182.564 162.826 185.699C161.526 187.137 159.857 188.373 157.725 189.477L150.205 193.382C149.972 193.505 149.713 193.567 149.452 193.569Z" fill="url(#paint6_linear_8985_215856)"/>
<path d="M148.695 193.392L148.734 193.314L148.734 193.314L148.695 193.392ZM141.107 189.574L141.068 189.652L141.068 189.652L141.107 189.574ZM135.955 185.854L136.019 185.795L136.019 185.794L135.955 185.854ZM131.45 174.642L131.537 174.642L131.537 174.642L131.45 174.642ZM131.361 161.051L131.448 161.05L131.448 161.05L131.361 161.051ZM133.948 157.544L133.92 157.461L133.92 157.461L133.948 157.544ZM147.88 152.822L147.909 152.905L147.909 152.904L147.88 152.822ZM150.472 152.808L150.445 152.891L150.445 152.891L150.472 152.808ZM164.457 157.369L164.43 157.452L164.43 157.452L164.457 157.369ZM167.09 160.842L167.002 160.842L167.002 160.842L167.09 160.842ZM167.179 174.444L167.091 174.444V174.444L167.179 174.444ZM162.826 185.699L162.891 185.758L162.891 185.758L162.826 185.699ZM157.725 189.477L157.685 189.4L157.684 189.4L157.725 189.477ZM150.205 193.382L150.165 193.304L150.165 193.305L150.205 193.382ZM149.452 193.481C149.204 193.481 148.957 193.426 148.734 193.314L148.656 193.47C148.904 193.595 149.178 193.656 149.452 193.656V193.481ZM148.734 193.314L141.147 189.496L141.068 189.652L148.656 193.47L148.734 193.314ZM141.147 189.496C139.001 188.415 137.326 187.203 136.019 185.795L135.891 185.914C137.215 187.341 138.908 188.564 141.068 189.652L141.147 189.496ZM136.019 185.794C133.155 182.709 131.563 178.749 131.537 174.642L131.362 174.643C131.388 178.795 132.998 182.797 135.891 185.914L136.019 185.794ZM131.537 174.642L131.448 161.05L131.273 161.051L131.362 174.643L131.537 174.642ZM131.448 161.05C131.438 159.522 132.453 158.145 133.977 157.627L133.92 157.461C132.33 158.002 131.262 159.442 131.273 161.051L131.448 161.05ZM133.977 157.627L147.909 152.905L147.852 152.739L133.92 157.461L133.977 157.627ZM147.909 152.904C148.718 152.623 149.621 152.619 150.445 152.891L150.5 152.724C149.64 152.441 148.697 152.445 147.852 152.739L147.909 152.904ZM150.445 152.891L164.43 157.452L164.485 157.286L150.5 152.724L150.445 152.891ZM164.43 157.452C165.962 157.949 166.994 159.316 167.002 160.842L167.177 160.841C167.169 159.234 166.083 157.805 164.484 157.286L164.43 157.452ZM167.002 160.842L167.091 174.444L167.266 174.443L167.177 160.841L167.002 160.842ZM167.091 174.444C167.119 178.545 165.581 182.521 162.761 185.641L162.891 185.758C165.739 182.607 167.294 178.589 167.266 174.443L167.091 174.444ZM162.761 185.641C161.47 187.069 159.809 188.299 157.685 189.4L157.765 189.555C159.904 188.447 161.582 187.206 162.891 185.758L162.761 185.641ZM157.684 189.4L150.165 193.304L150.246 193.46L157.765 189.555L157.684 189.4ZM150.165 193.305C149.944 193.42 149.699 193.479 149.452 193.481L149.453 193.656C149.727 193.654 150 193.589 150.246 193.46L150.165 193.305Z" fill="url(#paint7_linear_8985_215856)" mask="url(#path-110-inside-1_8985_215856)"/>
<g filter="url(#filter1_ii_8985_215856)">
<path fill-rule="evenodd" clip-rule="evenodd" d="M155.76 168.655C155.76 170.917 153.921 172.751 151.653 172.751C151.101 172.751 150.575 172.642 150.094 172.446C150.036 172.422 149.967 172.438 149.924 172.483L149.286 173.151C149.253 173.186 149.236 173.203 149.216 173.214C149.199 173.223 149.179 173.229 149.159 173.23C149.137 173.231 149.114 173.226 149.067 173.214L148.444 173.057C148.349 173.033 148.301 173.021 148.263 173.033C148.23 173.043 148.202 173.065 148.184 173.094C148.164 173.128 148.164 173.177 148.164 173.275V174.061C148.164 174.095 148.164 174.112 148.16 174.128C148.157 174.142 148.151 174.156 148.143 174.168C148.135 174.182 148.123 174.194 148.099 174.218L147.374 174.953C147.343 174.984 147.328 175 147.309 175.01C147.293 175.018 147.275 175.024 147.257 175.026C147.236 175.028 147.215 175.024 147.172 175.016L146.517 174.894C146.426 174.877 146.38 174.868 146.344 174.881C146.313 174.892 146.286 174.914 146.269 174.942C146.25 174.975 146.25 175.022 146.25 175.115V175.85C146.25 175.928 146.25 175.968 146.235 175.998C146.221 176.024 146.2 176.046 146.173 176.059C146.143 176.074 146.104 176.074 146.025 176.074H145.545C145.466 176.074 145.426 176.074 145.396 176.09C145.37 176.103 145.348 176.125 145.335 176.151C145.319 176.181 145.319 176.221 145.319 176.299V177.037C145.319 177.072 145.319 177.09 145.315 177.106C145.312 177.121 145.306 177.135 145.298 177.148C145.289 177.162 145.276 177.174 145.251 177.199L143.756 178.651C143.726 178.68 143.711 178.694 143.693 178.704C143.677 178.712 143.66 178.717 143.643 178.719C143.623 178.722 143.602 178.718 143.561 178.711L142.378 178.512C142.311 178.501 142.278 178.495 142.253 178.479C142.231 178.464 142.213 178.443 142.202 178.419C142.19 178.392 142.19 178.358 142.19 178.29V176.553C142.19 176.518 142.19 176.501 142.194 176.485C142.198 176.47 142.203 176.457 142.211 176.444C142.22 176.43 142.232 176.418 142.257 176.393L148.011 170.707C148.043 170.675 148.051 170.625 148.03 170.585C147.721 170.01 147.546 169.353 147.546 168.655C147.546 166.394 149.385 164.56 151.653 164.56C153.921 164.56 155.76 166.394 155.76 168.655ZM153.787 167.592C153.787 168.179 153.309 168.655 152.72 168.655C152.131 168.655 151.653 168.179 151.653 167.592C151.653 167.004 152.131 166.528 152.72 166.528C153.309 166.528 153.787 167.004 153.787 167.592Z" fill="#3B3D3F"/>
</g>
<g filter="url(#filter2_dd_8985_215856)">
<circle cx="105.61" cy="170.46" r="2.36" fill="white"/>
</g>
<circle cx="105.61" cy="170.46" r="0.786667" fill="#1C76FD"/>
<g filter="url(#filter3_dd_8985_215856)">
<circle cx="193.848" cy="170.46" r="2.36" fill="white"/>
</g>
<circle cx="193.848" cy="170.46" r="0.786667" fill="#FF5500"/>
<g filter="url(#filter4_d_8985_215856)">
<rect x="13.997" y="212.94" width="38.94" height="33.04" rx="8.26" fill="#FCFCFC" shape-rendering="crispEdges"/>
<rect x="14.292" y="213.235" width="38.35" height="32.45" rx="7.965" stroke="url(#paint8_linear_8985_215856)" stroke-width="0.59" shape-rendering="crispEdges"/>
<g filter="url(#filter5_i_8985_215856)">
<rect x="18.7172" y="217.66" width="29.5" height="23.6" rx="4.72" fill="url(#paint9_linear_8985_215856)"/>
<g clip-path="url(#clip0_8985_215856)">
<g filter="url(#filter6_ii_8985_215856)">
<path d="M37.9812 226.946L37.3019 226.454L33.5333 227.8L33.4571 223.889L32.7795 224.382L32.8578 228.763L37.9812 226.946Z" fill="#1C76FD"/>
</g>
<g filter="url(#filter7_ii_8985_215856)">
<path d="M32.3899 224.665L31.7161 225.154L31.7728 228.831L28.1202 227.773L28.3717 228.546L32.4762 229.75L32.3899 224.665Z" fill="#1C76FD"/>
</g>
<g filter="url(#filter8_ii_8985_215856)">
<path d="M28.5187 228.997L28.7722 229.777L32.4796 230.887L30.1914 234.145L30.2187 234.229H30.9752L33.5991 230.498L28.5187 228.997Z" fill="#1C76FD"/>
</g>
<g filter="url(#filter9_ii_8985_215856)">
<path d="M31.4641 234.229H32.3178L34.5279 231.093L36.9441 234.229H37.0122L37.2596 233.468L34.502 229.913L31.4641 234.229Z" fill="#1C76FD"/>
</g>
<g filter="url(#filter10_ii_8985_215856)">
<path d="M35.2625 229.093L39.0894 227.752L38.3799 227.237L34.1154 228.742L37.4133 232.994L37.679 232.177L35.2625 229.093Z" fill="#1C76FD"/>
</g>
</g>
</g>
</g>
<g filter="url(#filter11_d_8985_215856)">
<rect x="14.1602" y="94.35" width="38.94" height="33.04" rx="8.26" fill="#FCFCFC" shape-rendering="crispEdges"/>
<rect x="14.4552" y="94.645" width="38.35" height="32.45" rx="7.965" stroke="url(#paint10_linear_8985_215856)" stroke-width="0.59" shape-rendering="crispEdges"/>
<g filter="url(#filter12_i_8985_215856)">
<rect x="18.88" y="99.07" width="29.5" height="23.6" rx="4.72" fill="url(#paint11_linear_8985_215856)"/>
<path fill-rule="evenodd" clip-rule="evenodd" d="M37.7198 104.029C37.7465 104.603 37.2919 104.958 36.9472 105.294L33.4198 108.264C33.1027 108.559 32.6446 108.802 32.4662 109.245C32.2562 109.854 32.1149 110.485 32.0447 111.125C31.9877 111.59 31.5531 111.995 31.1482 112.166C30.8337 112.276 30.456 112.224 30.1122 112.251L28.8831 112.259C28.833 112.269 28.7853 112.288 28.7427 112.316C28.7002 112.344 28.6637 112.381 28.6353 112.423L28.5899 112.545C28.458 112.565 28.5021 112.45 28.4827 112.37C28.4724 112.239 28.4906 112.107 28.5361 111.984C28.5815 111.861 28.6532 111.749 28.7461 111.657C28.8606 111.562 29.0028 111.506 29.1514 111.499L30.944 111.472C31.037 111.46 31.1239 111.419 31.1924 111.354L31.265 111.216C31.4082 110.322 31.4908 109.397 31.9338 108.638C32.3462 108.156 32.8662 107.824 33.3257 107.401C34.3897 106.497 35.4926 105.579 36.5437 104.662C36.884 104.379 37.1246 103.994 37.2301 103.564L37.2689 103.445C37.3921 103.489 37.5001 103.567 37.58 103.671C37.6599 103.774 37.7082 103.899 37.7193 104.029" fill="#6C6E6F"/>
<path fill-rule="evenodd" clip-rule="evenodd" d="M38.7537 105.406C38.8063 105.963 38.3693 106.227 38.0211 106.572L36.5813 107.808L34.0233 109.981C33.6605 110.39 33.6417 110.97 33.5492 111.494C33.5645 111.665 33.7365 111.734 33.703 111.913L33.3473 112.555C33.3667 112.81 33.6789 112.662 33.7796 112.822C33.7829 112.914 33.7214 113.028 33.7941 113.105C33.844 113.193 34.0496 113.075 33.942 113.216C33.9125 113.239 33.9244 113.296 33.9323 113.326C33.975 113.382 34.0552 113.387 34.0619 113.471C34.0405 113.527 34.0317 113.588 34.0361 113.648C34.0405 113.708 34.058 113.767 34.0874 113.82C34.5313 114.304 35.2954 113.704 35.7583 114.159C35.8078 114.219 35.8413 114.291 35.8557 114.368C35.8701 114.445 35.865 114.524 35.8408 114.598C35.5934 115.323 34.1311 115.376 34.6313 116.404C34.6801 116.488 34.7492 116.56 34.8323 116.611C34.9154 116.662 35.01 116.692 35.1075 116.698C35.2552 116.706 35.4024 116.677 35.536 116.614C35.5786 116.614 35.5829 116.655 35.5997 116.678V116.706C35.1767 117.007 34.6315 117.45 34.0696 117.129C33.9284 117.03 33.8194 116.892 33.7562 116.732C33.693 116.572 33.6785 116.396 33.7144 116.228C33.8861 115.659 34.5397 115.514 34.8675 115.037C34.903 114.965 34.9199 114.885 34.9166 114.805C34.9133 114.725 34.89 114.647 34.8487 114.578C34.781 114.495 34.696 114.427 34.5998 114.38C34.5035 114.332 34.3981 114.306 34.2909 114.303C33.9397 114.296 33.4008 114.517 33.2447 114.105C33.1991 113.947 33.359 113.67 33.1074 113.634C33.0723 113.589 32.9931 113.55 33.0345 113.479C33.0465 113.437 33.1181 113.432 33.0814 113.378C33.0315 113.364 32.9643 113.375 32.9248 113.333C32.7822 113.177 33.1754 113.008 32.9092 112.901C32.774 112.883 32.5913 112.983 32.5042 112.829C32.4619 112.685 32.5697 112.581 32.6233 112.463C32.7137 112.261 32.9776 112.127 32.9095 111.866L32.7789 111.645C32.817 111.135 32.9025 110.629 33.0344 110.134C33.2099 109.592 33.7332 109.289 34.1339 108.916L36.2805 107.102L37.7995 105.765C37.9404 105.661 38.0569 105.528 38.1407 105.374C38.2245 105.22 38.2736 105.05 38.2845 104.875C38.3651 104.848 38.419 104.946 38.4889 104.975C38.6183 105.089 38.7107 105.239 38.7542 105.406" fill="#6C6E6F"/>
<path fill-rule="evenodd" clip-rule="evenodd" d="M38.5457 107.925C38.2631 108.376 37.7906 108.715 37.3701 109.073L35.7195 110.455C35.5753 110.598 35.4754 110.779 35.432 110.977C35.3886 111.175 35.4034 111.382 35.4748 111.572C35.4902 111.759 35.3452 111.876 35.2992 112.042C35.3039 112.091 35.3138 112.153 35.3636 112.167C35.4325 112.195 35.5361 112.16 35.5743 112.251C35.5843 112.348 35.5404 112.451 35.6467 112.489C35.6888 112.512 35.752 112.438 35.7566 112.515C35.7276 112.555 35.7142 112.604 35.7187 112.652C35.7727 112.749 35.8904 112.696 35.939 112.775C35.9599 112.887 35.9599 113.031 36.0856 113.077C36.5136 113.149 36.8379 112.859 37.2236 112.775C37.8349 112.584 38.4259 112.823 38.9713 112.986C39.2513 113.026 39.5357 113.026 39.8157 112.986L39.8348 113.004C39.4875 113.428 39.0596 113.84 38.4529 113.798C37.8154 113.775 37.4041 113.18 36.7199 113.295C36.257 113.387 35.7954 113.665 35.2992 113.478C35.2348 113.421 35.1882 113.346 35.1651 113.264C35.1419 113.181 35.1432 113.093 35.1687 113.011C35.1454 112.901 34.8792 112.874 35.0444 112.73C34.9937 112.696 34.9067 112.73 34.8804 112.653C34.8418 112.565 34.9491 112.436 34.8335 112.378C34.7306 112.363 34.5981 112.42 34.5211 112.333C34.5039 112.305 34.4933 112.273 34.49 112.24C34.4867 112.207 34.4909 112.173 34.5022 112.142C34.5754 111.967 34.7736 111.828 34.7304 111.619C34.5977 111.494 34.6416 111.282 34.6581 111.107C34.734 110.703 34.7649 110.275 35.1415 110.006L37.1696 108.291C37.5969 107.883 38.1251 107.619 38.4338 107.082C38.5211 107.202 38.5769 107.342 38.5961 107.489C38.6153 107.636 38.5973 107.786 38.5437 107.925" fill="#6C6E6F"/>
<path fill-rule="evenodd" clip-rule="evenodd" d="M31.9734 114.112C32.5617 114.336 33.1286 114.612 33.6675 114.937C33.7392 114.987 33.7969 115.055 33.8351 115.133C33.8733 115.212 33.8908 115.299 33.8858 115.386C33.7102 116.116 32.6944 116.194 32.8435 117.053C32.8612 117.211 32.9244 117.359 33.0253 117.481C33.1262 117.603 33.2605 117.693 33.4117 117.74C33.567 117.781 33.7304 117.781 33.8858 117.74C33.9091 117.796 34.0087 117.85 33.8965 117.888C33.4824 118.154 32.9472 118.453 32.4391 118.198C32.3205 118.131 32.218 118.039 32.1387 117.928C32.0595 117.817 32.0055 117.691 31.9805 117.557C31.8776 116.777 32.6033 116.532 32.9706 116.01C33.0299 115.904 33.0496 115.781 33.0259 115.662C32.9564 115.526 32.8473 115.414 32.713 115.341C31.3312 114.596 29.8591 114.031 28.3331 113.662C28.0801 113.639 27.6875 113.49 27.5193 113.785V113.799C27.3826 113.828 27.4351 113.663 27.4351 113.59C27.4525 113.47 27.5003 113.356 27.5741 113.26C27.6479 113.163 27.7451 113.088 27.8566 113.039C28.253 112.922 28.6734 113.063 29.0585 113.132C30.0487 113.401 31.022 113.728 31.9733 114.113" fill="#6C6E6F"/>
</g>
</g>
<g filter="url(#filter13_d_8985_215856)">
<rect x="241.45" y="94.35" width="38.94" height="33.04" rx="8.26" fill="#FCFCFC" shape-rendering="crispEdges"/>
<rect x="241.745" y="94.645" width="38.35" height="32.45" rx="7.965" stroke="url(#paint12_linear_8985_215856)" stroke-width="0.59" shape-rendering="crispEdges"/>
<g filter="url(#filter14_i_8985_215856)">
<rect x="246.17" y="99.07" width="29.5" height="23.6" rx="4.72" fill="url(#paint13_linear_8985_215856)"/>
<g filter="url(#filter15_i_8985_215856)">
<path fill-rule="evenodd" clip-rule="evenodd" d="M264.626 113.007H266.206V108.889H264.626V113.007ZM264.461 107.599C264.461 107.877 264.553 108.094 264.737 108.252C264.92 108.41 265.148 108.489 265.418 108.489C265.689 108.489 265.916 108.41 266.1 108.252C266.283 108.094 266.375 107.877 266.375 107.599C266.375 107.316 266.283 107.095 266.1 106.937C265.916 106.779 265.689 106.7 265.418 106.7C265.148 106.7 264.92 106.779 264.737 106.937C264.553 107.095 264.461 107.316 264.461 107.599ZM263.982 112.876L263.98 111.844C263.776 111.92 263.584 111.977 263.404 112.017C263.225 112.057 263.04 112.077 262.852 112.077C262.67 112.077 262.499 112.053 262.341 112.005C262.182 111.957 262.044 111.887 261.926 111.793C261.808 111.7 261.714 111.582 261.643 111.441C261.574 111.3 261.539 111.136 261.539 110.948C261.539 110.587 261.65 110.308 261.873 110.113C262.097 109.918 262.385 109.82 262.739 109.82C262.96 109.82 263.167 109.849 263.36 109.907C263.553 109.965 263.728 110.037 263.883 110.125L263.886 109.02C263.687 108.948 263.682 108.941 263.432 108.886C263.184 108.832 262.901 108.824 262.594 108.824C262.197 108.824 261.833 108.875 261.503 108.976C261.173 109.077 260.888 109.222 260.649 109.409C260.41 109.596 260.225 109.82 260.093 110.083C259.962 110.346 259.896 110.636 259.896 110.955C259.896 111.277 259.958 111.569 260.081 111.832C260.204 112.095 260.384 112.317 260.621 112.5C260.857 112.683 261.146 112.825 261.487 112.924C261.828 113.023 262.216 113.073 262.651 113.073C262.957 113.073 263.231 113.05 263.473 113.004C263.714 112.959 263.734 112.948 263.982 112.876ZM259.588 110.298C259.588 109.825 259.391 109.471 258.998 109.238C258.605 109.006 258.065 108.889 257.376 108.889H255.535V113.007H257.107V111.772H257.353C257.687 111.772 257.991 111.741 258.266 111.68C258.541 111.618 258.776 111.526 258.971 111.402C259.167 111.279 259.318 111.125 259.426 110.939C259.534 110.754 259.588 110.54 259.588 110.298ZM268.73 112.221L256.638 116.022L253.11 106.431L265.805 105.717L268.73 112.221ZM258.077 110.316C258.077 110.511 258.009 110.654 257.87 110.745C257.731 110.837 257.531 110.883 257.269 110.883H257.091V109.779H257.284C257.813 109.779 258.077 109.958 258.077 110.316Z" fill="#FF5500"/>
</g>
</g>
</g>
<g filter="url(#filter16_d_8985_215856)">
<rect x="241.45" y="212.94" width="38.94" height="33.04" rx="8.26" fill="#FCFCFC" shape-rendering="crispEdges"/>
<rect x="241.745" y="213.235" width="38.35" height="32.45" rx="7.965" stroke="url(#paint14_linear_8985_215856)" stroke-width="0.59" shape-rendering="crispEdges"/>
<g filter="url(#filter17_i_8985_215856)">
<rect x="246.17" y="217.66" width="29.5" height="23.6" rx="4.72" fill="url(#paint15_linear_8985_215856)"/>
<g clip-path="url(#clip1_8985_215856)">
<path d="M252.327 232.037H251.272V227.974C251.272 227.974 251.272 227.2 252.046 226.953C252.749 226.725 253.206 227.182 253.206 227.182L256.672 230.929C256.848 231.034 256.918 230.929 256.918 230.823V226.953H257.991V230.982C257.991 231.316 257.71 231.755 257.287 231.914C256.865 232.072 256.425 232.072 255.898 231.615L252.644 228.097C252.556 228.009 252.327 227.991 252.327 228.167V232.037Z" fill="#6C6E6F"/>
<path d="M258.66 226.953H259.733V230.595C259.733 230.982 260.067 230.982 260.366 230.982H265.08C265.274 230.982 265.503 230.753 265.503 230.507C265.503 230.26 265.274 230.014 265.063 230.014H262.002C261.474 230.032 260.384 229.539 260.384 228.519C260.384 227.27 261.422 226.971 261.897 226.936H270.586V228.009H268.423V232.037H267.367V228.009H262.055C261.545 227.974 261.193 228.836 262.02 228.959H265.291C265.784 228.959 266.593 229.381 266.611 230.436C266.611 231.509 265.977 232.019 265.291 232.019H260.419C259.627 232.019 259.328 231.826 259.047 231.58C258.783 231.316 258.748 231.175 258.66 230.647V226.953Z" fill="#6C6E6F"/>
</g>
</g>
</g>
<g filter="url(#filter18_dd_8985_215856)">
<circle cx="53.1001" cy="110.87" r="2.36" fill="white"/>
</g>
<circle cx="53.1" cy="110.87" r="0.786667" fill="#6C6E6F"/>
<g filter="url(#filter19_dd_8985_215856)">
<circle cx="53.1001" cy="230.05" r="2.36" fill="white"/>
</g>
<circle cx="53.1" cy="230.05" r="0.786667" fill="#1C76FD"/>
<g filter="url(#filter20_dd_8985_215856)">
<circle cx="241.9" cy="110.87" r="2.36" fill="white"/>
</g>
<circle cx="241.9" cy="110.87" r="0.786667" fill="#FF5500"/>
<g filter="url(#filter21_dd_8985_215856)">
<circle cx="241.9" cy="230.05" r="2.36" fill="white"/>
</g>
<circle cx="241.9" cy="230.05" r="0.786667" fill="#6C6E6F"/>
<path fill-rule="evenodd" clip-rule="evenodd" d="M153.594 250.072C154.522 250.621 155.602 250.792 156.644 250.603C158.709 250.337 160.206 252.592 159.145 254.392C158.122 256.21 155.413 256.021 154.617 254.107C152.741 249.257 145.808 249.257 143.913 254.107C143.136 256.021 140.408 256.21 139.385 254.392C138.343 252.592 139.84 250.337 141.886 250.603C142.928 250.792 144.008 250.603 144.936 250.072C145.883 249.542 146.565 248.708 146.925 247.704C147.759 245.639 150.771 245.639 151.605 247.704C151.965 248.689 152.666 249.542 153.594 250.072ZM149.275 252.686C151.34 252.686 152.552 255.092 151.283 256.76C150.601 257.555 150.222 258.578 150.222 259.658C150.222 260.719 150.601 261.742 151.283 262.557C152.571 264.224 151.34 266.649 149.275 266.63C147.21 266.63 145.997 264.224 147.266 262.557C147.948 261.761 148.327 260.738 148.327 259.658C148.327 258.597 147.948 257.574 147.266 256.76C145.978 255.092 147.21 252.668 149.275 252.686Z" fill="#EBECEC"/>
<defs>
<filter id="filter0_d_8985_215856" x="110.762" y="132.823" width="77.0208" height="77.0255" filterUnits="userSpaceOnUse" color-interpolation-filters="sRGB">
<feFlood flood-opacity="0" result="BackgroundImageFix"/>
<feColorMatrix in="SourceAlpha" type="matrix" values="0 0 0 0 0 0 0 0 0 0 0 0 0 0 0 0 0 0 127 0" result="hardAlpha"/>
<feOffset dy="0.87529"/>
<feGaussianBlur stdDeviation="1.31293"/>
<feComposite in2="hardAlpha" operator="out"/>
<feColorMatrix type="matrix" values="0 0 0 0 0 0 0 0 0 0 0 0 0 0 0 0 0 0 0.25 0"/>
<feBlend mode="normal" in2="BackgroundImageFix" result="effect1_dropShadow_8985_215856"/>
<feBlend mode="normal" in="SourceGraphic" in2="effect1_dropShadow_8985_215856" result="shape"/>
</filter>
<filter id="filter1_ii_8985_215856" x="142.19" y="164.56" width="13.57" height="15.93" filterUnits="userSpaceOnUse" color-interpolation-filters="sRGB">
<feFlood flood-opacity="0" result="BackgroundImageFix"/>
<feBlend mode="normal" in="SourceGraphic" in2="BackgroundImageFix" result="shape"/>
<feColorMatrix in="SourceAlpha" type="matrix" values="0 0 0 0 0 0 0 0 0 0 0 0 0 0 0 0 0 0 127 0" result="hardAlpha"/>
<feOffset dy="0.59"/>
<feGaussianBlur stdDeviation="0.295"/>
<feComposite in2="hardAlpha" operator="arithmetic" k2="-1" k3="1"/>
<feColorMatrix type="matrix" values="0 0 0 0 0 0 0 0 0 0 0 0 0 0 0 0 0 0 0.6 0"/>
<feBlend mode="normal" in2="shape" result="effect1_innerShadow_8985_215856"/>
<feColorMatrix in="SourceAlpha" type="matrix" values="0 0 0 0 0 0 0 0 0 0 0 0 0 0 0 0 0 0 127 0" result="hardAlpha"/>
<feOffset dy="1.77"/>
<feGaussianBlur stdDeviation="1.18"/>
<feComposite in2="hardAlpha" operator="arithmetic" k2="-1" k3="1"/>
<feColorMatrix type="matrix" values="0 0 0 0 0 0 0 0 0 0 0 0 0 0 0 0 0 0 0.4 0"/>
<feBlend mode="normal" in2="effect1_innerShadow_8985_215856" result="effect2_innerShadow_8985_215856"/>
</filter>
<filter id="filter2_dd_8985_215856" x="99.3671" y="165.511" width="12.4861" height="12.4861" filterUnits="userSpaceOnUse" color-interpolation-filters="sRGB">
<feFlood flood-opacity="0" result="BackgroundImageFix"/>
<feColorMatrix in="SourceAlpha" type="matrix" values="0 0 0 0 0 0 0 0 0 0 0 0 0 0 0 0 0 0 127 0" result="hardAlpha"/>
<feOffset dy="0.129436"/>
<feGaussianBlur stdDeviation="0.161795"/>
<feComposite in2="hardAlpha" operator="out"/>
<feColorMatrix type="matrix" values="0 0 0 0 0 0 0 0 0 0 0 0 0 0 0 0 0 0 0.5 0"/>
<feBlend mode="normal" in2="BackgroundImageFix" result="effect1_dropShadow_8985_215856"/>
<feColorMatrix in="SourceAlpha" type="matrix" values="0 0 0 0 0 0 0 0 0 0 0 0 0 0 0 0 0 0 127 0" result="hardAlpha"/>
<feOffset dy="1.29436"/>
<feGaussianBlur stdDeviation="1.94153"/>
<feComposite in2="hardAlpha" operator="out"/>
<feColorMatrix type="matrix" values="0 0 0 0 0 0 0 0 0 0 0 0 0 0 0 0 0 0 0.12 0"/>
<feBlend mode="normal" in2="effect1_dropShadow_8985_215856" result="effect2_dropShadow_8985_215856"/>
<feBlend mode="normal" in="SourceGraphic" in2="effect2_dropShadow_8985_215856" result="shape"/>
</filter>
<filter id="filter3_dd_8985_215856" x="187.605" y="165.511" width="12.4861" height="12.4861" filterUnits="userSpaceOnUse" color-interpolation-filters="sRGB">
<feFlood flood-opacity="0" result="BackgroundImageFix"/>
<feColorMatrix in="SourceAlpha" type="matrix" values="0 0 0 0 0 0 0 0 0 0 0 0 0 0 0 0 0 0 127 0" result="hardAlpha"/>
<feOffset dy="0.129436"/>
<feGaussianBlur stdDeviation="0.161795"/>
<feComposite in2="hardAlpha" operator="out"/>
<feColorMatrix type="matrix" values="0 0 0 0 0 0 0 0 0 0 0 0 0 0 0 0 0 0 0.5 0"/>
<feBlend mode="normal" in2="BackgroundImageFix" result="effect1_dropShadow_8985_215856"/>
<feColorMatrix in="SourceAlpha" type="matrix" values="0 0 0 0 0 0 0 0 0 0 0 0 0 0 0 0 0 0 127 0" result="hardAlpha"/>
<feOffset dy="1.29436"/>
<feGaussianBlur stdDeviation="1.94153"/>
<feComposite in2="hardAlpha" operator="out"/>
<feColorMatrix type="matrix" values="0 0 0 0 0 0 0 0 0 0 0 0 0 0 0 0 0 0 0.12 0"/>
<feBlend mode="normal" in2="effect1_dropShadow_8985_215856" result="effect2_dropShadow_8985_215856"/>
<feBlend mode="normal" in="SourceGraphic" in2="effect2_dropShadow_8985_215856" result="shape"/>
</filter>
<filter id="filter4_d_8985_215856" x="10.103" y="210.816" width="46.728" height="40.828" filterUnits="userSpaceOnUse" color-interpolation-filters="sRGB">
<feFlood flood-opacity="0" result="BackgroundImageFix"/>
<feColorMatrix in="SourceAlpha" type="matrix" values="0 0 0 0 0 0 0 0 0 0 0 0 0 0 0 0 0 0 127 0" result="hardAlpha"/>
<feOffset dy="1.77"/>
<feGaussianBlur stdDeviation="1.947"/>
<feComposite in2="hardAlpha" operator="out"/>
<feColorMatrix type="matrix" values="0 0 0 0 0 0 0 0 0 0 0 0 0 0 0 0 0 0 0.06 0"/>
<feBlend mode="normal" in2="BackgroundImageFix" result="effect1_dropShadow_8985_215856"/>
<feBlend mode="normal" in="SourceGraphic" in2="effect1_dropShadow_8985_215856" result="shape"/>
</filter>
<filter id="filter5_i_8985_215856" x="18.7172" y="217.66" width="29.5" height="23.6" filterUnits="userSpaceOnUse" color-interpolation-filters="sRGB">
<feFlood flood-opacity="0" result="BackgroundImageFix"/>
<feBlend mode="normal" in="SourceGraphic" in2="BackgroundImageFix" result="shape"/>
<feColorMatrix in="SourceAlpha" type="matrix" values="0 0 0 0 0 0 0 0 0 0 0 0 0 0 0 0 0 0 127 0" result="hardAlpha"/>
<feOffset/>
<feGaussianBlur stdDeviation="1.18"/>
<feComposite in2="hardAlpha" operator="arithmetic" k2="-1" k3="1"/>
<feColorMatrix type="matrix" values="0 0 0 0 0 0 0 0 0 0 0 0 0 0 0 0 0 0 0.2 0"/>
<feBlend mode="normal" in2="shape" result="effect1_innerShadow_8985_215856"/>
</filter>
<filter id="filter6_ii_8985_215856" x="32.7795" y="223.889" width="5.20172" height="5.86763" filterUnits="userSpaceOnUse" color-interpolation-filters="sRGB">
<feFlood flood-opacity="0" result="BackgroundImageFix"/>
<feBlend mode="normal" in="SourceGraphic" in2="BackgroundImageFix" result="shape"/>
<feColorMatrix in="SourceAlpha" type="matrix" values="0 0 0 0 0 0 0 0 0 0 0 0 0 0 0 0 0 0 127 0" result="hardAlpha"/>
<feOffset dy="0.331191"/>
<feGaussianBlur stdDeviation="0.165595"/>
<feComposite in2="hardAlpha" operator="arithmetic" k2="-1" k3="1"/>
<feColorMatrix type="matrix" values="0 0 0 0 0.0235294 0 0 0 0 0.0941176 0 0 0 0 0.2 0 0 0 0.35 0"/>
<feBlend mode="normal" in2="shape" result="effect1_innerShadow_8985_215856"/>
<feColorMatrix in="SourceAlpha" type="matrix" values="0 0 0 0 0 0 0 0 0 0 0 0 0 0 0 0 0 0 127 0" result="hardAlpha"/>
<feOffset dy="0.993573"/>
<feGaussianBlur stdDeviation="0.662382"/>
<feComposite in2="hardAlpha" operator="arithmetic" k2="-1" k3="1"/>
<feColorMatrix type="matrix" values="0 0 0 0 0.0235294 0 0 0 0 0.0941176 0 0 0 0 0.2 0 0 0 0.25 0"/>
<feBlend mode="normal" in2="effect1_innerShadow_8985_215856" result="effect2_innerShadow_8985_215856"/>
</filter>
<filter id="filter7_ii_8985_215856" x="28.1202" y="224.665" width="4.35602" height="6.07881" filterUnits="userSpaceOnUse" color-interpolation-filters="sRGB">
<feFlood flood-opacity="0" result="BackgroundImageFix"/>
<feBlend mode="normal" in="SourceGraphic" in2="BackgroundImageFix" result="shape"/>
<feColorMatrix in="SourceAlpha" type="matrix" values="0 0 0 0 0 0 0 0 0 0 0 0 0 0 0 0 0 0 127 0" result="hardAlpha"/>
<feOffset dy="0.331191"/>
<feGaussianBlur stdDeviation="0.165595"/>
<feComposite in2="hardAlpha" operator="arithmetic" k2="-1" k3="1"/>
<feColorMatrix type="matrix" values="0 0 0 0 0.0235294 0 0 0 0 0.0941176 0 0 0 0 0.2 0 0 0 0.35 0"/>
<feBlend mode="normal" in2="shape" result="effect1_innerShadow_8985_215856"/>
<feColorMatrix in="SourceAlpha" type="matrix" values="0 0 0 0 0 0 0 0 0 0 0 0 0 0 0 0 0 0 127 0" result="hardAlpha"/>
<feOffset dy="0.993573"/>
<feGaussianBlur stdDeviation="0.662382"/>
<feComposite in2="hardAlpha" operator="arithmetic" k2="-1" k3="1"/>
<feColorMatrix type="matrix" values="0 0 0 0 0.0235294 0 0 0 0 0.0941176 0 0 0 0 0.2 0 0 0 0.25 0"/>
<feBlend mode="normal" in2="effect1_innerShadow_8985_215856" result="effect2_innerShadow_8985_215856"/>
</filter>
<filter id="filter8_ii_8985_215856" x="28.5187" y="228.997" width="5.08038" height="6.22593" filterUnits="userSpaceOnUse" color-interpolation-filters="sRGB">
<feFlood flood-opacity="0" result="BackgroundImageFix"/>
<feBlend mode="normal" in="SourceGraphic" in2="BackgroundImageFix" result="shape"/>
<feColorMatrix in="SourceAlpha" type="matrix" values="0 0 0 0 0 0 0 0 0 0 0 0 0 0 0 0 0 0 127 0" result="hardAlpha"/>
<feOffset dy="0.331191"/>
<feGaussianBlur stdDeviation="0.165595"/>
<feComposite in2="hardAlpha" operator="arithmetic" k2="-1" k3="1"/>
<feColorMatrix type="matrix" values="0 0 0 0 0.0235294 0 0 0 0 0.0941176 0 0 0 0 0.2 0 0 0 0.35 0"/>
<feBlend mode="normal" in2="shape" result="effect1_innerShadow_8985_215856"/>
<feColorMatrix in="SourceAlpha" type="matrix" values="0 0 0 0 0 0 0 0 0 0 0 0 0 0 0 0 0 0 127 0" result="hardAlpha"/>
<feOffset dy="0.993573"/>
<feGaussianBlur stdDeviation="0.662382"/>
<feComposite in2="hardAlpha" operator="arithmetic" k2="-1" k3="1"/>
<feColorMatrix type="matrix" values="0 0 0 0 0.0235294 0 0 0 0 0.0941176 0 0 0 0 0.2 0 0 0 0.25 0"/>
<feBlend mode="normal" in2="effect1_innerShadow_8985_215856" result="effect2_innerShadow_8985_215856"/>
</filter>
<filter id="filter9_ii_8985_215856" x="31.4641" y="229.913" width="5.79547" height="5.31022" filterUnits="userSpaceOnUse" color-interpolation-filters="sRGB">
<feFlood flood-opacity="0" result="BackgroundImageFix"/>
<feBlend mode="normal" in="SourceGraphic" in2="BackgroundImageFix" result="shape"/>
<feColorMatrix in="SourceAlpha" type="matrix" values="0 0 0 0 0 0 0 0 0 0 0 0 0 0 0 0 0 0 127 0" result="hardAlpha"/>
<feOffset dy="0.331191"/>
<feGaussianBlur stdDeviation="0.165595"/>
<feComposite in2="hardAlpha" operator="arithmetic" k2="-1" k3="1"/>
<feColorMatrix type="matrix" values="0 0 0 0 0.0235294 0 0 0 0 0.0941176 0 0 0 0 0.2 0 0 0 0.35 0"/>
<feBlend mode="normal" in2="shape" result="effect1_innerShadow_8985_215856"/>
<feColorMatrix in="SourceAlpha" type="matrix" values="0 0 0 0 0 0 0 0 0 0 0 0 0 0 0 0 0 0 127 0" result="hardAlpha"/>
<feOffset dy="0.993573"/>
<feGaussianBlur stdDeviation="0.662382"/>
<feComposite in2="hardAlpha" operator="arithmetic" k2="-1" k3="1"/>
<feColorMatrix type="matrix" values="0 0 0 0 0.0235294 0 0 0 0 0.0941176 0 0 0 0 0.2 0 0 0 0.25 0"/>
<feBlend mode="normal" in2="effect1_innerShadow_8985_215856" result="effect2_innerShadow_8985_215856"/>
</filter>
<filter id="filter10_ii_8985_215856" x="34.1154" y="227.237" width="4.974" height="6.75081" filterUnits="userSpaceOnUse" color-interpolation-filters="sRGB">
<feFlood flood-opacity="0" result="BackgroundImageFix"/>
<feBlend mode="normal" in="SourceGraphic" in2="BackgroundImageFix" result="shape"/>
<feColorMatrix in="SourceAlpha" type="matrix" values="0 0 0 0 0 0 0 0 0 0 0 0 0 0 0 0 0 0 127 0" result="hardAlpha"/>
<feOffset dy="0.331191"/>
<feGaussianBlur stdDeviation="0.165595"/>
<feComposite in2="hardAlpha" operator="arithmetic" k2="-1" k3="1"/>
<feColorMatrix type="matrix" values="0 0 0 0 0.0235294 0 0 0 0 0.0941176 0 0 0 0 0.2 0 0 0 0.35 0"/>
<feBlend mode="normal" in2="shape" result="effect1_innerShadow_8985_215856"/>
<feColorMatrix in="SourceAlpha" type="matrix" values="0 0 0 0 0 0 0 0 0 0 0 0 0 0 0 0 0 0 127 0" result="hardAlpha"/>
<feOffset dy="0.993573"/>
<feGaussianBlur stdDeviation="0.662382"/>
<feComposite in2="hardAlpha" operator="arithmetic" k2="-1" k3="1"/>
<feColorMatrix type="matrix" values="0 0 0 0 0.0235294 0 0 0 0 0.0941176 0 0 0 0 0.2 0 0 0 0.25 0"/>
<feBlend mode="normal" in2="effect1_innerShadow_8985_215856" result="effect2_innerShadow_8985_215856"/>
</filter>
<filter id="filter11_d_8985_215856" x="10.2662" y="92.226" width="46.728" height="40.828" filterUnits="userSpaceOnUse" color-interpolation-filters="sRGB">
<feFlood flood-opacity="0" result="BackgroundImageFix"/>
<feColorMatrix in="SourceAlpha" type="matrix" values="0 0 0 0 0 0 0 0 0 0 0 0 0 0 0 0 0 0 127 0" result="hardAlpha"/>
<feOffset dy="1.77"/>
<feGaussianBlur stdDeviation="1.947"/>
<feComposite in2="hardAlpha" operator="out"/>
<feColorMatrix type="matrix" values="0 0 0 0 0 0 0 0 0 0 0 0 0 0 0 0 0 0 0.06 0"/>
<feBlend mode="normal" in2="BackgroundImageFix" result="effect1_dropShadow_8985_215856"/>
<feBlend mode="normal" in="SourceGraphic" in2="effect1_dropShadow_8985_215856" result="shape"/>
</filter>
<filter id="filter12_i_8985_215856" x="18.88" y="99.07" width="29.5" height="23.6" filterUnits="userSpaceOnUse" color-interpolation-filters="sRGB">
<feFlood flood-opacity="0" result="BackgroundImageFix"/>
<feBlend mode="normal" in="SourceGraphic" in2="BackgroundImageFix" result="shape"/>
<feColorMatrix in="SourceAlpha" type="matrix" values="0 0 0 0 0 0 0 0 0 0 0 0 0 0 0 0 0 0 127 0" result="hardAlpha"/>
<feOffset/>
<feGaussianBlur stdDeviation="1.18"/>
<feComposite in2="hardAlpha" operator="arithmetic" k2="-1" k3="1"/>
<feColorMatrix type="matrix" values="0 0 0 0 0 0 0 0 0 0 0 0 0 0 0 0 0 0 0.2 0"/>
<feBlend mode="normal" in2="shape" result="effect1_innerShadow_8985_215856"/>
</filter>
<filter id="filter13_d_8985_215856" x="237.556" y="92.226" width="46.728" height="40.828" filterUnits="userSpaceOnUse" color-interpolation-filters="sRGB">
<feFlood flood-opacity="0" result="BackgroundImageFix"/>
<feColorMatrix in="SourceAlpha" type="matrix" values="0 0 0 0 0 0 0 0 0 0 0 0 0 0 0 0 0 0 127 0" result="hardAlpha"/>
<feOffset dy="1.77"/>
<feGaussianBlur stdDeviation="1.947"/>
<feComposite in2="hardAlpha" operator="out"/>
<feColorMatrix type="matrix" values="0 0 0 0 0 0 0 0 0 0 0 0 0 0 0 0 0 0 0.06 0"/>
<feBlend mode="normal" in2="BackgroundImageFix" result="effect1_dropShadow_8985_215856"/>
<feBlend mode="normal" in="SourceGraphic" in2="effect1_dropShadow_8985_215856" result="shape"/>
</filter>
<filter id="filter14_i_8985_215856" x="246.17" y="99.07" width="29.5" height="23.6" filterUnits="userSpaceOnUse" color-interpolation-filters="sRGB">
<feFlood flood-opacity="0" result="BackgroundImageFix"/>
<feBlend mode="normal" in="SourceGraphic" in2="BackgroundImageFix" result="shape"/>
<feColorMatrix in="SourceAlpha" type="matrix" values="0 0 0 0 0 0 0 0 0 0 0 0 0 0 0 0 0 0 127 0" result="hardAlpha"/>
<feOffset/>
<feGaussianBlur stdDeviation="1.18"/>
<feComposite in2="hardAlpha" operator="arithmetic" k2="-1" k3="1"/>
<feColorMatrix type="matrix" values="0 0 0 0 0 0 0 0 0 0 0 0 0 0 0 0 0 0 0.2 0"/>
<feBlend mode="normal" in2="shape" result="effect1_innerShadow_8985_215856"/>
</filter>
<filter id="filter15_i_8985_215856" x="253.11" y="105.717" width="15.6193" height="11.9923" filterUnits="userSpaceOnUse" color-interpolation-filters="sRGB">
<feFlood flood-opacity="0" result="BackgroundImageFix"/>
<feBlend mode="normal" in="SourceGraphic" in2="BackgroundImageFix" result="shape"/>
<feColorMatrix in="SourceAlpha" type="matrix" values="0 0 0 0 0 0 0 0 0 0 0 0 0 0 0 0 0 0 127 0" result="hardAlpha"/>
<feOffset dy="1.68739"/>
<feGaussianBlur stdDeviation="1.23794"/>
<feComposite in2="hardAlpha" operator="arithmetic" k2="-1" k3="1"/>
<feColorMatrix type="matrix" values="0 0 0 0 0.6 0 0 0 0 0.2 0 0 0 0 0 0 0 0 0.8 0"/>
<feBlend mode="normal" in2="shape" result="effect1_innerShadow_8985_215856"/>
</filter>
<filter id="filter16_d_8985_215856" x="237.556" y="210.816" width="46.728" height="40.828" filterUnits="userSpaceOnUse" color-interpolation-filters="sRGB">
<feFlood flood-opacity="0" result="BackgroundImageFix"/>
<feColorMatrix in="SourceAlpha" type="matrix" values="0 0 0 0 0 0 0 0 0 0 0 0 0 0 0 0 0 0 127 0" result="hardAlpha"/>
<feOffset dy="1.77"/>
<feGaussianBlur stdDeviation="1.947"/>
<feComposite in2="hardAlpha" operator="out"/>
<feColorMatrix type="matrix" values="0 0 0 0 0 0 0 0 0 0 0 0 0 0 0 0 0 0 0.06 0"/>
<feBlend mode="normal" in2="BackgroundImageFix" result="effect1_dropShadow_8985_215856"/>
<feBlend mode="normal" in="SourceGraphic" in2="effect1_dropShadow_8985_215856" result="shape"/>
</filter>
<filter id="filter17_i_8985_215856" x="246.17" y="217.66" width="29.5" height="23.6" filterUnits="userSpaceOnUse" color-interpolation-filters="sRGB">
<feFlood flood-opacity="0" result="BackgroundImageFix"/>
<feBlend mode="normal" in="SourceGraphic" in2="BackgroundImageFix" result="shape"/>
<feColorMatrix in="SourceAlpha" type="matrix" values="0 0 0 0 0 0 0 0 0 0 0 0 0 0 0 0 0 0 127 0" result="hardAlpha"/>
<feOffset/>
<feGaussianBlur stdDeviation="1.18"/>
<feComposite in2="hardAlpha" operator="arithmetic" k2="-1" k3="1"/>
<feColorMatrix type="matrix" values="0 0 0 0 0 0 0 0 0 0 0 0 0 0 0 0 0 0 0.2 0"/>
<feBlend mode="normal" in2="shape" result="effect1_innerShadow_8985_215856"/>
</filter>
<filter id="filter18_dd_8985_215856" x="46.857" y="105.921" width="12.4861" height="12.4861" filterUnits="userSpaceOnUse" color-interpolation-filters="sRGB">
<feFlood flood-opacity="0" result="BackgroundImageFix"/>
<feColorMatrix in="SourceAlpha" type="matrix" values="0 0 0 0 0 0 0 0 0 0 0 0 0 0 0 0 0 0 127 0" result="hardAlpha"/>
<feOffset dy="0.129436"/>
<feGaussianBlur stdDeviation="0.161795"/>
<feComposite in2="hardAlpha" operator="out"/>
<feColorMatrix type="matrix" values="0 0 0 0 0 0 0 0 0 0 0 0 0 0 0 0 0 0 0.5 0"/>
<feBlend mode="normal" in2="BackgroundImageFix" result="effect1_dropShadow_8985_215856"/>
<feColorMatrix in="SourceAlpha" type="matrix" values="0 0 0 0 0 0 0 0 0 0 0 0 0 0 0 0 0 0 127 0" result="hardAlpha"/>
<feOffset dy="1.29436"/>
<feGaussianBlur stdDeviation="1.94153"/>
<feComposite in2="hardAlpha" operator="out"/>
<feColorMatrix type="matrix" values="0 0 0 0 0 0 0 0 0 0 0 0 0 0 0 0 0 0 0.12 0"/>
<feBlend mode="normal" in2="effect1_dropShadow_8985_215856" result="effect2_dropShadow_8985_215856"/>
<feBlend mode="normal" in="SourceGraphic" in2="effect2_dropShadow_8985_215856" result="shape"/>
</filter>
<filter id="filter19_dd_8985_215856" x="46.857" y="225.101" width="12.4861" height="12.4861" filterUnits="userSpaceOnUse" color-interpolation-filters="sRGB">
<feFlood flood-opacity="0" result="BackgroundImageFix"/>
<feColorMatrix in="SourceAlpha" type="matrix" values="0 0 0 0 0 0 0 0 0 0 0 0 0 0 0 0 0 0 127 0" result="hardAlpha"/>
<feOffset dy="0.129436"/>
<feGaussianBlur stdDeviation="0.161795"/>
<feComposite in2="hardAlpha" operator="out"/>
<feColorMatrix type="matrix" values="0 0 0 0 0 0 0 0 0 0 0 0 0 0 0 0 0 0 0.5 0"/>
<feBlend mode="normal" in2="BackgroundImageFix" result="effect1_dropShadow_8985_215856"/>
<feColorMatrix in="SourceAlpha" type="matrix" values="0 0 0 0 0 0 0 0 0 0 0 0 0 0 0 0 0 0 127 0" result="hardAlpha"/>
<feOffset dy="1.29436"/>
<feGaussianBlur stdDeviation="1.94153"/>
<feComposite in2="hardAlpha" operator="out"/>
<feColorMatrix type="matrix" values="0 0 0 0 0 0 0 0 0 0 0 0 0 0 0 0 0 0 0.12 0"/>
<feBlend mode="normal" in2="effect1_dropShadow_8985_215856" result="effect2_dropShadow_8985_215856"/>
<feBlend mode="normal" in="SourceGraphic" in2="effect2_dropShadow_8985_215856" result="shape"/>
</filter>
<filter id="filter20_dd_8985_215856" x="235.657" y="105.921" width="12.4861" height="12.4861" filterUnits="userSpaceOnUse" color-interpolation-filters="sRGB">
<feFlood flood-opacity="0" result="BackgroundImageFix"/>
<feColorMatrix in="SourceAlpha" type="matrix" values="0 0 0 0 0 0 0 0 0 0 0 0 0 0 0 0 0 0 127 0" result="hardAlpha"/>
<feOffset dy="0.129436"/>
<feGaussianBlur stdDeviation="0.161795"/>
<feComposite in2="hardAlpha" operator="out"/>
<feColorMatrix type="matrix" values="0 0 0 0 0 0 0 0 0 0 0 0 0 0 0 0 0 0 0.5 0"/>
<feBlend mode="normal" in2="BackgroundImageFix" result="effect1_dropShadow_8985_215856"/>
<feColorMatrix in="SourceAlpha" type="matrix" values="0 0 0 0 0 0 0 0 0 0 0 0 0 0 0 0 0 0 127 0" result="hardAlpha"/>
<feOffset dy="1.29436"/>
<feGaussianBlur stdDeviation="1.94153"/>
<feComposite in2="hardAlpha" operator="out"/>
<feColorMatrix type="matrix" values="0 0 0 0 0 0 0 0 0 0 0 0 0 0 0 0 0 0 0.12 0"/>
<feBlend mode="normal" in2="effect1_dropShadow_8985_215856" result="effect2_dropShadow_8985_215856"/>
<feBlend mode="normal" in="SourceGraphic" in2="effect2_dropShadow_8985_215856" result="shape"/>
</filter>
<filter id="filter21_dd_8985_215856" x="235.657" y="225.101" width="12.4861" height="12.4861" filterUnits="userSpaceOnUse" color-interpolation-filters="sRGB">
<feFlood flood-opacity="0" result="BackgroundImageFix"/>
<feColorMatrix in="SourceAlpha" type="matrix" values="0 0 0 0 0 0 0 0 0 0 0 0 0 0 0 0 0 0 127 0" result="hardAlpha"/>
<feOffset dy="0.129436"/>
<feGaussianBlur stdDeviation="0.161795"/>
<feComposite in2="hardAlpha" operator="out"/>
<feColorMatrix type="matrix" values="0 0 0 0 0 0 0 0 0 0 0 0 0 0 0 0 0 0 0.5 0"/>
<feBlend mode="normal" in2="BackgroundImageFix" result="effect1_dropShadow_8985_215856"/>
<feColorMatrix in="SourceAlpha" type="matrix" values="0 0 0 0 0 0 0 0 0 0 0 0 0 0 0 0 0 0 127 0" result="hardAlpha"/>
<feOffset dy="1.29436"/>
<feGaussianBlur stdDeviation="1.94153"/>
<feComposite in2="hardAlpha" operator="out"/>
<feColorMatrix type="matrix" values="0 0 0 0 0 0 0 0 0 0 0 0 0 0 0 0 0 0 0.12 0"/>
<feBlend mode="normal" in2="effect1_dropShadow_8985_215856" result="effect2_dropShadow_8985_215856"/>
<feBlend mode="normal" in="SourceGraphic" in2="effect2_dropShadow_8985_215856" result="shape"/>
</filter>
<radialGradient id="paint0_radial_8985_215856" cx="0" cy="0" r="1" gradientUnits="userSpaceOnUse" gradientTransform="translate(134.535 253.286) rotate(-90) scale(203.178 299.381)">
<stop stop-color="white"/>
<stop offset="1" stop-color="#F5F6F7" stop-opacity="0.1"/>
</radialGradient>
<linearGradient id="paint1_linear_8985_215856" x1="2.00172" y1="170.107" x2="70.8004" y2="170.107" gradientUnits="userSpaceOnUse">
<stop stop-color="#E2E2E2" stop-opacity="0"/>
<stop offset="1" stop-color="#E2E2E2"/>
</linearGradient>
<linearGradient id="paint2_linear_8985_215856" x1="74.3401" y1="200.255" x2="-5.60488" y2="200.255" gradientUnits="userSpaceOnUse">
<stop stop-color="#1C76FD"/>
<stop offset="1" stop-color="#1C76FD" stop-opacity="0"/>
</linearGradient>
<linearGradient id="paint3_linear_8985_215856" x1="291.358" y1="171.107" x2="226.785" y2="171.107" gradientUnits="userSpaceOnUse">
<stop stop-color="#E2E2E2" stop-opacity="0"/>
<stop offset="1" stop-color="#E2E2E2"/>
</linearGradient>
<linearGradient id="paint4_linear_8985_215856" x1="194.438" y1="140.665" x2="301.79" y2="140.665" gradientUnits="userSpaceOnUse">
<stop stop-color="#FF5500"/>
<stop offset="1" stop-color="#FF5500" stop-opacity="0"/>
</linearGradient>
<linearGradient id="paint5_linear_8985_215856" x1="149.273" y1="134.573" x2="149.273" y2="206.347" gradientUnits="userSpaceOnUse">
<stop stop-color="#FFFDFB"/>
<stop offset="1" stop-color="#F4F5F6"/>
</linearGradient>
<linearGradient id="paint6_linear_8985_215856" x1="149.27" y1="152.603" x2="149.27" y2="185.483" gradientUnits="userSpaceOnUse">
<stop stop-color="#E3E3E3"/>
<stop offset="1" stop-color="white"/>
</linearGradient>
<linearGradient id="paint7_linear_8985_215856" x1="149.27" y1="152.603" x2="149.27" y2="193.569" gradientUnits="userSpaceOnUse">
<stop stop-color="#ECECF0"/>
<stop offset="0.51" stop-color="white"/>
<stop offset="1" stop-color="#ECECEC"/>
</linearGradient>
<linearGradient id="paint8_linear_8985_215856" x1="33.467" y1="245.98" x2="33.467" y2="212.94" gradientUnits="userSpaceOnUse">
<stop stop-color="#E2E2E2"/>
<stop offset="1" stop-color="#E2E2E2"/>
</linearGradient>
<linearGradient id="paint9_linear_8985_215856" x1="18.7172" y1="229.46" x2="48.2172" y2="229.46" gradientUnits="userSpaceOnUse">
<stop stop-color="#E5E8EF" stop-opacity="0"/>
<stop offset="1" stop-color="#F5F5F5"/>
</linearGradient>
<linearGradient id="paint10_linear_8985_215856" x1="33.6302" y1="127.39" x2="33.6302" y2="94.35" gradientUnits="userSpaceOnUse">
<stop stop-color="#E2E2E2"/>
<stop offset="1" stop-color="#E2E2E2"/>
</linearGradient>
<linearGradient id="paint11_linear_8985_215856" x1="18.88" y1="110.87" x2="48.38" y2="110.87" gradientUnits="userSpaceOnUse">
<stop stop-color="#E5E8EF" stop-opacity="0"/>
<stop offset="1" stop-color="#F5F5F5"/>
</linearGradient>
<linearGradient id="paint12_linear_8985_215856" x1="260.92" y1="127.39" x2="260.92" y2="94.35" gradientUnits="userSpaceOnUse">
<stop stop-color="#E2E2E2"/>
<stop offset="1" stop-color="#E2E2E2"/>
</linearGradient>
<linearGradient id="paint13_linear_8985_215856" x1="246.17" y1="110.87" x2="275.67" y2="110.87" gradientUnits="userSpaceOnUse">
<stop stop-color="#E5E8EF" stop-opacity="0"/>
<stop offset="1" stop-color="#F5F5F5"/>
</linearGradient>
<linearGradient id="paint14_linear_8985_215856" x1="260.92" y1="245.98" x2="260.92" y2="212.94" gradientUnits="userSpaceOnUse">
<stop stop-color="#E2E2E2"/>
<stop offset="1" stop-color="#E2E2E2"/>
</linearGradient>
<linearGradient id="paint15_linear_8985_215856" x1="246.17" y1="229.46" x2="275.67" y2="229.46" gradientUnits="userSpaceOnUse">
<stop stop-color="#E5E8EF" stop-opacity="0"/>
<stop offset="1" stop-color="#F5F5F5"/>
</linearGradient>
<clipPath id="clip0_8985_215856">
<rect width="11.4071" height="11.4071" fill="white" transform="translate(27.7634 223.756)"/>
</clipPath>
<clipPath id="clip1_8985_215856">
<rect width="19.2965" height="5.15393" fill="white" transform="translate(251.271 226.883)"/>
</clipPath>
</defs>
</svg>
