<svg width="335" height="369" viewBox="0 0 335 369" fill="none" xmlns="http://www.w3.org/2000/svg">
<mask id="mask0_8985_208322" style="mask-type:alpha" maskUnits="userSpaceOnUse" x="-35" y="97" width="404" height="292">
<path opacity="0.8" d="M368.121 388.89L322.353 388.89L-34.812 388.89L-20.9998 97.1504L368.121 97.1504L368.121 161.746L368.121 321.699L368.121 332.97L368.121 388.89Z" fill="url(#paint0_radial_8985_208322)"/>
</mask>
<g mask="url(#mask0_8985_208322)">
<path d="M-163.64 368.939L720.788 368.939" stroke="#E2E2E2" stroke-width="0.375"/>
<path d="M-163.64 365.939L720.788 365.939" stroke="#E2E2E2" stroke-width="0.375"/>
<path d="M-163.64 362.939L720.788 362.939" stroke="#E2E2E2" stroke-width="0.375"/>
<path d="M-163.64 359.939L720.788 359.939" stroke="#E2E2E2" stroke-width="0.375"/>
<path d="M-163.64 356.939L720.788 356.939" stroke="#E2E2E2" stroke-width="0.375"/>
<path d="M-163.64 353.939L720.788 353.939" stroke="#E2E2E2" stroke-width="0.375"/>
<path d="M-163.64 350.939L720.788 350.939" stroke="#E2E2E2" stroke-width="0.375"/>
<path d="M-163.639 347.939L720.788 347.939" stroke="#E2E2E2" stroke-width="0.375"/>
<path d="M-163.639 344.939L720.788 344.939" stroke="#E2E2E2" stroke-width="0.375"/>
<path d="M-163.639 341.939L720.788 341.939" stroke="#E2E2E2" stroke-width="0.375"/>
<path d="M-163.639 338.939L720.788 338.939" stroke="#E2E2E2" stroke-width="0.375"/>
<path d="M-163.639 335.939L720.788 335.939" stroke="#E2E2E2" stroke-width="0.375"/>
<path d="M-163.639 332.939L720.788 332.939" stroke="#E2E2E2" stroke-width="0.375"/>
<path d="M-163.639 329.939L720.788 329.939" stroke="#E2E2E2" stroke-width="0.375"/>
<path d="M-163.639 326.939L720.788 326.939" stroke="#E2E2E2" stroke-width="0.375"/>
<path d="M-163.639 323.939L720.788 323.939" stroke="#E2E2E2" stroke-width="0.375"/>
<path d="M-163.639 320.939L720.788 320.939" stroke="#E2E2E2" stroke-width="0.375"/>
<path d="M-163.64 317.939L720.788 317.939" stroke="#E2E2E2" stroke-width="0.375"/>
<path d="M-163.64 314.939L720.788 314.939" stroke="#E2E2E2" stroke-width="0.375"/>
<path d="M-163.64 311.939L720.788 311.939" stroke="#E2E2E2" stroke-width="0.375"/>
<path d="M-163.64 308.939L720.788 308.939" stroke="#E2E2E2" stroke-width="0.375"/>
<path d="M-163.64 305.939L720.788 305.939" stroke="#E2E2E2" stroke-width="0.375"/>
<path d="M-163.64 302.939L720.788 302.939" stroke="#E2E2E2" stroke-width="0.375"/>
<path d="M-163.64 299.939L720.788 299.939" stroke="#E2E2E2" stroke-width="0.375"/>
<path d="M-163.64 296.939L720.788 296.939" stroke="#E2E2E2" stroke-width="0.375"/>
<path d="M-163.639 293.939L720.788 293.939" stroke="#E2E2E2" stroke-width="0.375"/>
<path d="M-163.639 290.939L720.788 290.939" stroke="#E2E2E2" stroke-width="0.375"/>
<path d="M-163.639 287.939L720.788 287.939" stroke="#E2E2E2" stroke-width="0.375"/>
<path d="M-163.639 284.939L720.788 284.939" stroke="#E2E2E2" stroke-width="0.375"/>
<path d="M-163.639 281.939L720.788 281.939" stroke="#E2E2E2" stroke-width="0.375"/>
<path d="M-163.639 278.939L720.788 278.939" stroke="#E2E2E2" stroke-width="0.375"/>
<path d="M-163.639 275.939L720.788 275.939" stroke="#E2E2E2" stroke-width="0.375"/>
<path d="M-163.639 272.939L720.788 272.939" stroke="#E2E2E2" stroke-width="0.375"/>
<path d="M-163.639 269.939L720.788 269.939" stroke="#E2E2E2" stroke-width="0.375"/>
<path d="M-163.64 266.939L720.788 266.939" stroke="#E2E2E2" stroke-width="0.375"/>
<path d="M-163.64 263.939L720.788 263.939" stroke="#E2E2E2" stroke-width="0.375"/>
<path d="M-163.64 260.939L720.788 260.939" stroke="#E2E2E2" stroke-width="0.375"/>
<path d="M-163.64 257.939L720.788 257.939" stroke="#E2E2E2" stroke-width="0.375"/>
<path d="M-163.64 254.939L720.788 254.939" stroke="#E2E2E2" stroke-width="0.375"/>
<path d="M-163.64 251.939L720.788 251.939" stroke="#E2E2E2" stroke-width="0.375"/>
<path d="M-163.64 248.939L720.788 248.939" stroke="#E2E2E2" stroke-width="0.375"/>
<path d="M-163.64 245.939L720.788 245.939" stroke="#E2E2E2" stroke-width="0.375"/>
<path d="M-163.639 242.939L720.788 242.939" stroke="#E2E2E2" stroke-width="0.375"/>
<path d="M-163.639 239.939L720.788 239.939" stroke="#E2E2E2" stroke-width="0.375"/>
<path d="M-163.639 236.939L720.788 236.939" stroke="#E2E2E2" stroke-width="0.375"/>
<path d="M-163.639 233.939L720.788 233.939" stroke="#E2E2E2" stroke-width="0.375"/>
<path d="M-163.639 230.939L720.788 230.939" stroke="#E2E2E2" stroke-width="0.375"/>
<path d="M-163.639 227.939L720.788 227.939" stroke="#E2E2E2" stroke-width="0.375"/>
<path d="M-163.639 224.939L720.788 224.939" stroke="#E2E2E2" stroke-width="0.375"/>
<path d="M-163.639 221.939L720.788 221.939" stroke="#E2E2E2" stroke-width="0.375"/>
<path d="M-163.639 218.939L720.788 218.939" stroke="#E2E2E2" stroke-width="0.375"/>
<path d="M-163.64 215.939L720.788 215.939" stroke="#E2E2E2" stroke-width="0.375"/>
<path d="M-163.64 212.939L720.788 212.939" stroke="#E2E2E2" stroke-width="0.375"/>
<path d="M-163.64 209.939L720.788 209.939" stroke="#E2E2E2" stroke-width="0.375"/>
<path d="M-163.64 206.939L720.788 206.939" stroke="#E2E2E2" stroke-width="0.375"/>
<path d="M-163.64 203.939L720.788 203.939" stroke="#E2E2E2" stroke-width="0.375"/>
<path d="M-163.64 200.939L720.788 200.939" stroke="#E2E2E2" stroke-width="0.375"/>
<path d="M-163.64 197.939L720.788 197.939" stroke="#E2E2E2" stroke-width="0.375"/>
<path d="M-163.64 194.939L720.788 194.939" stroke="#E2E2E2" stroke-width="0.375"/>
<path d="M-163.639 191.939L720.788 191.939" stroke="#E2E2E2" stroke-width="0.375"/>
<path d="M-163.639 188.939L720.788 188.939" stroke="#E2E2E2" stroke-width="0.375"/>
<path d="M-163.639 185.939L720.788 185.939" stroke="#E2E2E2" stroke-width="0.375"/>
<path d="M-163.639 182.939L720.788 182.939" stroke="#E2E2E2" stroke-width="0.375"/>
<path d="M-163.639 179.939L720.788 179.939" stroke="#E2E2E2" stroke-width="0.375"/>
<path d="M-163.639 176.939L720.788 176.939" stroke="#E2E2E2" stroke-width="0.375"/>
<path d="M-163.639 173.939L720.788 173.939" stroke="#E2E2E2" stroke-width="0.375"/>
<path d="M-163.639 170.939L720.788 170.939" stroke="#E2E2E2" stroke-width="0.375"/>
<path d="M-163.639 167.939L720.788 167.939" stroke="#E2E2E2" stroke-width="0.375"/>
<path d="M-163.64 164.939L720.788 164.939" stroke="#E2E2E2" stroke-width="0.375"/>
<path d="M-163.64 161.939L720.788 161.939" stroke="#E2E2E2" stroke-width="0.375"/>
<path d="M-163.64 158.939L720.788 158.939" stroke="#E2E2E2" stroke-width="0.375"/>
<path d="M-163.64 155.939L720.788 155.939" stroke="#E2E2E2" stroke-width="0.375"/>
<path d="M-163.64 152.939L720.788 152.939" stroke="#E2E2E2" stroke-width="0.375"/>
<path d="M-163.64 149.939L720.788 149.939" stroke="#E2E2E2" stroke-width="0.375"/>
<path d="M-163.64 146.939L720.788 146.939" stroke="#E2E2E2" stroke-width="0.375"/>
<path d="M-163.64 143.939L720.788 143.939" stroke="#E2E2E2" stroke-width="0.375"/>
<path d="M-163.64 140.939L720.788 140.939" stroke="#E2E2E2" stroke-width="0.375"/>
<path d="M-163.639 137.939L720.788 137.939" stroke="#E2E2E2" stroke-width="0.375"/>
<path d="M-163.639 134.939L720.788 134.939" stroke="#E2E2E2" stroke-width="0.375"/>
<path d="M-163.639 131.939L720.788 131.939" stroke="#E2E2E2" stroke-width="0.375"/>
<path d="M-163.639 128.939L720.788 128.939" stroke="#E2E2E2" stroke-width="0.375"/>
<path d="M-163.639 125.939L720.788 125.939" stroke="#E2E2E2" stroke-width="0.375"/>
<path d="M-163.639 122.939L720.788 122.939" stroke="#E2E2E2" stroke-width="0.375"/>
<path d="M-163.639 119.939L720.788 119.939" stroke="#E2E2E2" stroke-width="0.375"/>
<path d="M-163.639 116.939L720.788 116.939" stroke="#E2E2E2" stroke-width="0.375"/>
<path d="M-163.639 113.939L720.788 113.939" stroke="#E2E2E2" stroke-width="0.375"/>
<path d="M-163.64 110.939L720.788 110.939" stroke="#E2E2E2" stroke-width="0.375"/>
<path d="M-163.64 107.939L720.788 107.939" stroke="#E2E2E2" stroke-width="0.375"/>
<path d="M-163.64 104.939L720.788 104.939" stroke="#E2E2E2" stroke-width="0.375"/>
<path d="M-163.64 101.939L720.788 101.939" stroke="#E2E2E2" stroke-width="0.375"/>
<path d="M-163.64 98.9392L720.788 98.9392" stroke="#E2E2E2" stroke-width="0.375"/>
</g>
<path d="M113.168 230.328L-18.4558 230.328" stroke="url(#paint1_linear_8985_208322)"/>
<path d="M113 230C82.4117 230 103.784 155 72.0195 155L1 155" stroke="#E2E2E2"/>
<path d="M113 230C81.3663 230 103.128 306 70.2771 306L1 306" stroke="url(#paint2_linear_8985_208322)"/>
<path d="M225.832 230.328H296.023H349.371" stroke="url(#paint3_linear_8985_208322)"/>
<path d="M226 230C256.588 230 235.216 305 266.98 305L338 305" stroke="#E2E2E2"/>
<path d="M226 230C256.588 230 235.216 155 266.98 155L338 155" stroke="url(#paint4_linear_8985_208322)"/>
<rect x="113" y="174.39" width="111.5" height="111.5" rx="14.5" fill="#FBFBFB" stroke="#3B3D3F" stroke-dasharray="0.75 3.75"/>
<g filter="url(#filter0_d_8985_208322)">
<rect x="123.137" y="184.521" width="91.2319" height="91.2378" rx="4.45063" fill="url(#paint5_linear_8985_208322)"/>
</g>
<path d="M123.137 191.681C123.137 189.163 123.137 187.904 123.622 186.952C124.049 186.114 124.73 185.433 125.567 185.007C126.519 184.521 127.766 184.521 130.258 184.521H207.248C209.741 184.521 210.987 184.521 211.939 185.007C212.776 185.433 213.457 186.114 213.884 186.952C214.369 187.904 214.369 189.163 214.369 191.681H123.137Z" fill="#E3E3E3"/>
<path fill-rule="evenodd" clip-rule="evenodd" d="M133.971 188.101C133.971 188.71 133.46 189.203 132.83 189.203C132.2 189.203 131.69 188.71 131.69 188.101C131.69 187.493 132.2 187 132.83 187C133.46 187 133.971 187.493 133.971 188.101ZM129.979 188.101C129.979 188.71 129.468 189.203 128.839 189.203C128.209 189.203 127.698 188.71 127.698 188.101C127.698 187.493 128.209 187 128.839 187C129.468 187 129.979 187.493 129.979 188.101ZM136.822 189.203C137.451 189.203 137.962 188.71 137.962 188.101C137.962 187.493 137.451 187 136.822 187C136.192 187 135.681 187.493 135.681 188.101C135.681 188.71 136.192 189.203 136.822 189.203Z" fill="#9D9E9F"/>
<rect x="119.53" y="180.921" width="98.4393" height="98.4393" rx="8.5" stroke="#CECFCF"/>
<mask id="path-104-inside-1_8985_208322" fill="white">
<path d="M168.982 259.516C168.65 259.516 168.318 259.442 168.019 259.291L158.374 254.438C155.637 253.059 153.496 251.512 151.824 249.709C148.165 245.767 146.13 240.706 146.097 235.457L145.984 218.179C145.971 216.185 147.294 214.395 149.274 213.721L166.984 207.719C168.035 207.354 169.208 207.349 170.279 207.701L188.056 213.499C190.046 214.145 191.392 215.922 191.403 217.914L191.516 235.204C191.551 240.446 189.585 245.527 185.983 249.513C184.33 251.341 182.208 252.911 179.498 254.315L169.939 259.279C169.642 259.434 169.313 259.513 168.982 259.516Z"/>
</mask>
<path d="M168.982 259.516C168.65 259.516 168.318 259.442 168.019 259.291L158.374 254.438C155.637 253.059 153.496 251.512 151.824 249.709C148.165 245.767 146.13 240.706 146.097 235.457L145.984 218.179C145.971 216.185 147.294 214.395 149.274 213.721L166.984 207.719C168.035 207.354 169.208 207.349 170.279 207.701L188.056 213.499C190.046 214.145 191.392 215.922 191.403 217.914L191.516 235.204C191.551 240.446 189.585 245.527 185.983 249.513C184.33 251.341 182.208 252.911 179.498 254.315L169.939 259.279C169.642 259.434 169.313 259.513 168.982 259.516Z" fill="url(#paint6_linear_8985_208322)"/>
<path d="M168.019 259.291L168.069 259.192H168.069L168.019 259.291ZM158.374 254.438L158.324 254.537L158.324 254.537L158.374 254.438ZM151.824 249.709L151.906 249.633L151.906 249.633L151.824 249.709ZM146.097 235.457L146.209 235.456L146.209 235.456L146.097 235.457ZM145.984 218.179L146.095 218.179L146.095 218.179L145.984 218.179ZM149.274 213.721L149.238 213.616L149.238 213.616L149.274 213.721ZM166.984 207.719L167.019 207.824L167.02 207.824L166.984 207.719ZM170.279 207.701L170.244 207.807L170.244 207.807L170.279 207.701ZM188.056 213.499L188.022 213.605L188.022 213.605L188.056 213.499ZM191.403 217.914L191.291 217.914V217.914L191.403 217.914ZM191.516 235.204L191.404 235.205V235.205L191.516 235.204ZM185.983 249.513L186.065 249.587L186.065 249.587L185.983 249.513ZM179.498 254.315L179.447 254.216L179.447 254.216L179.498 254.315ZM169.939 259.279L169.888 259.18L169.887 259.18L169.939 259.279ZM168.982 259.405C168.667 259.405 168.352 259.334 168.069 259.192L167.969 259.391C168.285 259.55 168.634 259.627 168.982 259.627V259.405ZM168.069 259.192L158.424 254.338L158.324 254.537L167.969 259.391L168.069 259.192ZM158.424 254.338C155.696 252.964 153.567 251.424 151.906 249.633L151.743 249.785C153.426 251.599 155.578 253.154 158.324 254.537L158.424 254.338ZM151.906 249.633C148.265 245.711 146.241 240.677 146.209 235.456L145.986 235.458C146.019 240.736 148.065 245.823 151.743 249.785L151.906 249.633ZM146.209 235.456L146.095 218.179L145.873 218.18L145.986 235.458L146.209 235.456ZM146.095 218.179C146.082 216.236 147.372 214.486 149.309 213.827L149.238 213.616C147.216 214.304 145.859 216.135 145.873 218.18L146.095 218.179ZM149.309 213.827L167.019 207.824L166.948 207.613L149.238 213.616L149.309 213.827ZM167.02 207.824C168.048 207.467 169.196 207.462 170.244 207.807L170.314 207.595C169.22 207.235 168.022 207.24 166.947 207.614L167.02 207.824ZM170.244 207.807L188.022 213.605L188.091 213.393L170.313 207.595L170.244 207.807ZM188.022 213.605C189.969 214.237 191.281 215.974 191.291 217.914L191.514 217.913C191.503 215.871 190.123 214.053 188.091 213.393L188.022 213.605ZM191.291 217.914L191.404 235.205L191.627 235.203L191.514 217.913L191.291 217.914ZM191.404 235.205C191.439 240.418 189.484 245.472 185.9 249.438L186.065 249.587C189.686 245.581 191.662 240.474 191.627 235.203L191.404 235.205ZM185.9 249.438C184.258 251.254 182.147 252.817 179.447 254.216L179.549 254.414C182.268 253.005 184.402 251.427 186.065 249.587L185.9 249.438ZM179.447 254.216L169.888 259.18L169.99 259.377L179.549 254.414L179.447 254.216ZM169.887 259.18C169.607 259.327 169.295 259.402 168.981 259.405L168.983 259.627C169.331 259.625 169.678 259.541 169.991 259.377L169.887 259.18Z" fill="url(#paint7_linear_8985_208322)" mask="url(#path-104-inside-1_8985_208322)"/>
<g filter="url(#filter1_ii_8985_208322)">
<path fill-rule="evenodd" clip-rule="evenodd" d="M177 227.847C177 230.722 174.663 233.053 171.779 233.053C171.078 233.053 170.408 232.915 169.797 232.664C169.724 232.634 169.636 232.655 169.582 232.712L168.77 233.561C168.728 233.605 168.707 233.627 168.681 233.641C168.659 233.653 168.635 233.66 168.609 233.661C168.581 233.663 168.551 233.656 168.492 233.641L167.7 233.442C167.579 233.412 167.518 233.396 167.47 233.411C167.428 233.424 167.392 233.452 167.37 233.489C167.344 233.532 167.344 233.594 167.344 233.719V234.718C167.344 234.761 167.344 234.782 167.339 234.803C167.335 234.821 167.327 234.838 167.318 234.854C167.307 234.872 167.292 234.887 167.261 234.918L166.339 235.852C166.3 235.891 166.281 235.911 166.257 235.924C166.237 235.935 166.214 235.942 166.191 235.944C166.165 235.947 166.137 235.942 166.082 235.932L165.251 235.776C165.134 235.755 165.076 235.744 165.03 235.76C164.99 235.774 164.957 235.802 164.935 235.838C164.911 235.88 164.911 235.939 164.911 236.057V236.992C164.911 237.092 164.911 237.142 164.892 237.18C164.875 237.213 164.847 237.241 164.813 237.258C164.775 237.277 164.725 237.277 164.625 237.277H164.014C163.914 237.277 163.864 237.277 163.826 237.297C163.792 237.314 163.764 237.341 163.747 237.375C163.728 237.413 163.728 237.463 163.728 237.563V238.502C163.728 238.546 163.728 238.568 163.723 238.589C163.718 238.608 163.711 238.625 163.7 238.642C163.689 238.66 163.673 238.675 163.641 238.706L161.74 240.552C161.702 240.589 161.683 240.608 161.66 240.62C161.641 240.63 161.619 240.637 161.597 240.639C161.571 240.642 161.545 240.638 161.493 240.629L159.989 240.376C159.904 240.362 159.862 240.355 159.83 240.334C159.802 240.315 159.779 240.289 159.766 240.258C159.75 240.223 159.75 240.18 159.75 240.094V237.886C159.75 237.842 159.75 237.82 159.755 237.799C159.759 237.781 159.767 237.763 159.777 237.747C159.788 237.729 159.804 237.714 159.835 237.683L167.149 230.454C167.19 230.413 167.2 230.35 167.173 230.299C166.781 229.568 166.559 228.733 166.559 227.847C166.559 224.971 168.896 222.64 171.779 222.64C174.663 222.64 177 224.971 177 227.847ZM174.491 226.494C174.491 227.241 173.884 227.847 173.135 227.847C172.386 227.847 171.779 227.241 171.779 226.494C171.779 225.748 172.386 225.142 173.135 225.142C173.884 225.142 174.491 225.748 174.491 226.494Z" fill="#3B3D3F"/>
</g>
<g filter="url(#filter2_dd_8985_208322)">
<circle cx="113.25" cy="230.14" r="3" fill="white"/>
</g>
<circle cx="113.25" cy="230.14" r="1" fill="#1C76FD"/>
<g filter="url(#filter3_dd_8985_208322)">
<circle cx="225.417" cy="230.14" r="3" fill="white"/>
</g>
<circle cx="225.417" cy="230.14" r="1" fill="#FF5500"/>
<g filter="url(#filter4_d_8985_208322)">
<rect x="19" y="284.14" width="49.5" height="42" rx="10.5" fill="#FCFCFC" shape-rendering="crispEdges"/>
<rect x="19.5" y="284.64" width="48.5" height="41" rx="10" stroke="url(#paint8_linear_8985_208322)" shape-rendering="crispEdges"/>
<g filter="url(#filter5_i_8985_208322)">
<rect x="25" y="290.14" width="37.5" height="30" rx="6" fill="url(#paint9_linear_8985_208322)"/>
<g clip-path="url(#clip0_8985_208322)">
<g filter="url(#filter6_ii_8985_208322)">
<path d="M49.4883 301.945L48.6248 301.319L43.8342 303.031L43.7373 298.059L42.876 298.685L42.9755 304.255L49.4883 301.945Z" fill="#1C76FD"/>
</g>
<g filter="url(#filter7_ii_8985_208322)">
<path d="M42.3812 299.045L41.5247 299.667L41.5968 304.341L36.9536 302.996L37.2733 303.979L42.4909 305.509L42.3812 299.045Z" fill="#1C76FD"/>
</g>
<g filter="url(#filter8_ii_8985_208322)">
<path d="M37.4595 304.552L37.7817 305.543L42.4946 306.954L39.5858 311.096L39.6206 311.203H40.5822L43.9176 306.461L37.4595 304.552Z" fill="#1C76FD"/>
</g>
<g filter="url(#filter9_ii_8985_208322)">
<path d="M41.2041 311.203H42.2893L45.0988 307.216L48.1701 311.203H48.2568L48.5712 310.235L45.0658 305.716L41.2041 311.203Z" fill="#1C76FD"/>
</g>
<g filter="url(#filter10_ii_8985_208322)">
<path d="M46.0324 304.674L50.8971 302.97L49.9952 302.314L44.5742 304.228L48.7665 309.633L49.1042 308.594L46.0324 304.674Z" fill="#1C76FD"/>
</g>
</g>
</g>
</g>
<g filter="url(#filter11_d_8985_208322)">
<rect x="19" y="133.39" width="49.5" height="42" rx="10.5" fill="#FCFCFC" shape-rendering="crispEdges"/>
<rect x="19.5" y="133.89" width="48.5" height="41" rx="10" stroke="url(#paint10_linear_8985_208322)" shape-rendering="crispEdges"/>
<g filter="url(#filter12_i_8985_208322)">
<rect x="25" y="139.39" width="37.5" height="30" rx="6" fill="url(#paint11_linear_8985_208322)"/>
<path fill-rule="evenodd" clip-rule="evenodd" d="M48.9487 145.695C48.9827 146.424 48.4048 146.875 47.9666 147.302L43.4826 151.077C43.0795 151.452 42.4972 151.762 42.2704 152.325C42.0035 153.099 41.8238 153.9 41.7347 154.714C41.6621 155.306 41.1097 155.821 40.595 156.038C40.1952 156.178 39.7151 156.112 39.2781 156.146L37.7156 156.156C37.6519 156.168 37.5913 156.193 37.5372 156.229C37.4831 156.265 37.4367 156.311 37.4007 156.365L37.3429 156.52C37.1752 156.545 37.2313 156.398 37.2067 156.297C37.1936 156.13 37.2167 155.963 37.2745 155.807C37.3323 155.65 37.4234 155.508 37.5415 155.391C37.687 155.27 37.8678 155.199 38.0567 155.19L40.3354 155.155C40.4537 155.14 40.5642 155.088 40.6512 155.006L40.7434 154.83C40.9256 153.694 41.0305 152.518 41.5936 151.553C42.1179 150.941 42.7788 150.519 43.363 149.98C44.7156 148.832 46.1176 147.664 47.4537 146.498C47.8863 146.139 48.1921 145.65 48.3262 145.103L48.3755 144.952C48.5322 145.008 48.6695 145.107 48.771 145.239C48.8726 145.37 48.934 145.528 48.9481 145.694" fill="#6C6E6F"/>
<path fill-rule="evenodd" clip-rule="evenodd" d="M50.263 147.444C50.33 148.153 49.7744 148.489 49.3318 148.927L47.5015 150.498L44.2498 153.26C43.7887 153.781 43.7648 154.517 43.6472 155.183C43.6666 155.4 43.8853 155.489 43.8427 155.717L43.3905 156.532C43.4153 156.856 43.8121 156.668 43.94 156.872C43.9443 156.988 43.8661 157.134 43.9585 157.231C44.0219 157.343 44.2833 157.193 44.1465 157.372C44.109 157.402 44.1242 157.474 44.1342 157.513C44.1885 157.584 44.2905 157.59 44.2989 157.697C44.2717 157.768 44.2605 157.845 44.2661 157.922C44.2717 157.998 44.294 158.073 44.3313 158.14C44.8956 158.755 45.867 157.993 46.4553 158.571C46.5183 158.648 46.5609 158.739 46.5792 158.837C46.5975 158.934 46.591 159.035 46.5602 159.129C46.2457 160.05 44.3869 160.118 45.0228 161.425C45.0848 161.532 45.1726 161.623 45.2783 161.688C45.3839 161.754 45.5041 161.792 45.6281 161.799C45.8158 161.809 46.003 161.772 46.1728 161.692C46.227 161.692 46.2324 161.745 46.2538 161.774V161.809C45.7161 162.192 45.023 162.755 44.3088 162.347C44.1292 162.221 43.9906 162.046 43.9103 161.842C43.83 161.638 43.8115 161.415 43.8572 161.201C44.0755 160.478 44.9063 160.294 45.323 159.687C45.3681 159.596 45.3896 159.495 45.3854 159.393C45.3812 159.291 45.3516 159.191 45.2991 159.104C45.213 158.998 45.105 158.912 44.9827 158.852C44.8603 158.792 44.7264 158.759 44.59 158.755C44.1436 158.745 43.4586 159.027 43.2601 158.502C43.2021 158.302 43.4054 157.95 43.0856 157.903C43.0409 157.847 42.9403 157.797 42.993 157.707C43.0081 157.654 43.0992 157.647 43.0526 157.579C42.9892 157.561 42.9037 157.575 42.8535 157.521C42.6722 157.323 43.172 157.108 42.8336 156.972C42.6617 156.949 42.4296 157.076 42.3189 156.88C42.2651 156.697 42.4021 156.566 42.4702 156.416C42.5852 156.159 42.9206 155.989 42.834 155.657L42.668 155.376C42.7164 154.727 42.8251 154.083 42.9927 153.454C43.2159 152.765 43.8811 152.381 44.3905 151.906L47.1192 149.6L49.0501 147.901C49.2293 147.769 49.3773 147.6 49.4839 147.404C49.5904 147.209 49.6528 146.992 49.6666 146.77C49.7691 146.735 49.8376 146.859 49.9264 146.897C50.091 147.042 50.2085 147.233 50.2637 147.445" fill="#6C6E6F"/>
<path fill-rule="evenodd" clip-rule="evenodd" d="M49.9987 150.647C49.6396 151.22 49.0389 151.652 48.5043 152.106L46.4062 153.863C46.2228 154.044 46.0959 154.275 46.0407 154.527C45.9855 154.779 46.0043 155.041 46.095 155.283C46.1147 155.521 45.9303 155.67 45.8718 155.88C45.8779 155.942 45.8904 156.021 45.9537 156.04C46.0412 156.074 46.1729 156.03 46.2216 156.146C46.2343 156.269 46.1785 156.4 46.3136 156.448C46.3671 156.478 46.4475 156.384 46.4533 156.482C46.4165 156.532 46.3993 156.594 46.4051 156.656C46.4738 156.779 46.6234 156.711 46.6852 156.813C46.7118 156.954 46.7118 157.137 46.8716 157.196C47.4155 157.287 47.8278 156.919 48.3182 156.813C49.0952 156.569 49.8465 156.873 50.5398 157.08C50.8957 157.132 51.2572 157.132 51.6132 157.08L51.6375 157.103C51.196 157.642 50.652 158.166 49.8808 158.113C49.0704 158.083 48.5476 157.327 47.6778 157.473C47.0894 157.59 46.5026 157.943 45.8718 157.706C45.7899 157.633 45.7307 157.539 45.7013 157.433C45.6719 157.328 45.6735 157.216 45.706 157.112C45.6763 156.972 45.3379 156.938 45.548 156.755C45.4834 156.712 45.373 156.755 45.3395 156.657C45.2904 156.546 45.4268 156.381 45.2799 156.308C45.1491 156.288 44.9806 156.361 44.8828 156.25C44.8609 156.214 44.8474 156.174 44.8432 156.132C44.839 156.09 44.8443 156.047 44.8587 156.008C44.9518 155.784 45.2038 155.608 45.1489 155.343C44.9801 155.183 45.0359 154.914 45.0569 154.692C45.1533 154.178 45.1926 153.634 45.6714 153.293L48.2494 151.112C48.7927 150.594 49.4641 150.258 49.8565 149.575C49.9675 149.728 50.0384 149.906 50.0628 150.093C50.0872 150.28 50.0644 150.47 49.9962 150.646" fill="#6C6E6F"/>
<path fill-rule="evenodd" clip-rule="evenodd" d="M41.6442 158.511C42.3919 158.796 43.1126 159.147 43.7977 159.56C43.8888 159.624 43.9621 159.71 44.0107 159.81C44.0593 159.91 44.0814 160.02 44.0751 160.131C43.8519 161.059 42.5606 161.158 42.7501 162.25C42.7727 162.45 42.853 162.639 42.9813 162.795C43.1096 162.95 43.2802 163.064 43.4724 163.124C43.6699 163.176 43.8776 163.176 44.0751 163.124C44.1048 163.195 44.2313 163.263 44.0887 163.311C43.5624 163.65 42.8821 164.03 42.2361 163.705C42.0853 163.62 41.955 163.503 41.8543 163.363C41.7536 163.222 41.6849 163.061 41.6531 162.891C41.5223 161.899 42.4448 161.587 42.9118 160.924C42.9872 160.79 43.0121 160.633 42.9821 160.482C42.8937 160.309 42.755 160.167 42.5843 160.074C40.8277 159.126 38.9564 158.409 37.0166 157.94C36.695 157.91 36.1959 157.721 35.9821 158.096V158.113C35.8084 158.15 35.8752 157.94 35.8752 157.848C35.8972 157.696 35.958 157.551 36.0518 157.428C36.1456 157.306 36.2692 157.209 36.4109 157.148C36.9149 156.999 37.4492 157.178 37.9387 157.265C39.1975 157.607 40.4347 158.024 41.6439 158.513" fill="#6C6E6F"/>
</g>
</g>
<g filter="url(#filter13_d_8985_208322)">
<rect x="265.928" y="133.39" width="49.5" height="42" rx="10.5" fill="#FCFCFC" shape-rendering="crispEdges"/>
<rect x="266.428" y="133.89" width="48.5" height="41" rx="10" stroke="url(#paint12_linear_8985_208322)" shape-rendering="crispEdges"/>
<g filter="url(#filter14_i_8985_208322)">
<rect x="271.928" y="139.39" width="37.5" height="30" rx="6" fill="url(#paint13_linear_8985_208322)"/>
<g filter="url(#filter15_i_8985_208322)">
<path fill-rule="evenodd" clip-rule="evenodd" d="M295.389 157.107H297.397V151.873H295.389V157.107ZM295.179 150.233C295.179 150.585 295.296 150.862 295.53 151.063C295.763 151.263 296.052 151.363 296.396 151.363C296.74 151.363 297.029 151.263 297.262 151.063C297.496 150.862 297.612 150.585 297.612 150.233C297.612 149.873 297.496 149.592 297.262 149.391C297.029 149.191 296.74 149.09 296.396 149.09C296.052 149.09 295.763 149.191 295.53 149.391C295.296 149.592 295.179 149.873 295.179 150.233ZM294.571 156.94L294.568 155.628C294.309 155.725 294.064 155.798 293.836 155.848C293.607 155.899 293.373 155.924 293.134 155.924C292.902 155.924 292.685 155.894 292.484 155.833C292.282 155.773 292.107 155.683 291.956 155.564C291.806 155.445 291.687 155.296 291.598 155.116C291.509 154.937 291.465 154.728 291.465 154.49C291.465 154.03 291.606 153.676 291.89 153.428C292.174 153.18 292.54 153.056 292.991 153.056C293.271 153.056 293.534 153.093 293.78 153.166C294.026 153.239 294.247 153.332 294.445 153.443L294.448 152.038C294.196 151.947 294.189 151.938 293.872 151.869C293.556 151.8 293.196 151.789 292.806 151.789C292.301 151.789 291.839 151.854 291.419 151.982C290.999 152.112 290.637 152.295 290.333 152.533C290.03 152.77 289.794 153.056 289.627 153.39C289.46 153.724 289.376 154.093 289.376 154.498C289.376 154.907 289.455 155.279 289.611 155.613C289.768 155.947 289.997 156.23 290.297 156.463C290.598 156.696 290.965 156.875 291.398 157.002C291.832 157.128 292.325 157.191 292.878 157.191C293.268 157.191 293.616 157.162 293.923 157.104C294.23 157.046 294.255 157.032 294.571 156.94ZM288.984 153.663C288.984 153.062 288.735 152.612 288.235 152.316C287.736 152.021 287.048 151.873 286.173 151.873H283.833V157.107H285.831V155.537H286.144C286.568 155.537 286.955 155.498 287.305 155.419C287.654 155.342 287.953 155.224 288.201 155.067C288.449 154.91 288.642 154.714 288.779 154.479C288.916 154.243 288.984 153.971 288.984 153.663ZM300.605 156.107L285.234 160.94L280.75 148.747L296.887 147.841L300.605 156.107ZM287.065 153.686C287.065 153.934 286.977 154.115 286.8 154.232C286.624 154.348 286.369 154.407 286.036 154.407H285.811V153.003H286.056C286.729 153.003 287.065 153.231 287.065 153.686Z" fill="#FF5500"/>
</g>
</g>
</g>
<g filter="url(#filter16_d_8985_208322)">
<rect x="265.928" y="284.14" width="49.5" height="42" rx="10.5" fill="#FCFCFC" shape-rendering="crispEdges"/>
<rect x="266.428" y="284.64" width="48.5" height="41" rx="10" stroke="url(#paint14_linear_8985_208322)" shape-rendering="crispEdges"/>
<g filter="url(#filter17_i_8985_208322)">
<rect x="271.928" y="290.14" width="37.5" height="30" rx="6" fill="url(#paint15_linear_8985_208322)"/>
<g clip-path="url(#clip1_8985_208322)">
<path d="M279.755 308.416H278.413V303.251C278.413 303.251 278.413 302.267 279.397 301.954C280.291 301.663 280.873 302.245 280.873 302.245L285.278 307.007C285.501 307.142 285.591 307.007 285.591 306.873V301.954H286.955V307.074C286.955 307.499 286.597 308.058 286.06 308.26C285.524 308.461 284.965 308.461 284.294 307.879L280.157 303.407C280.045 303.296 279.755 303.273 279.755 303.497V308.416Z" fill="#6C6E6F"/>
<path d="M287.804 301.954H289.168V306.583C289.168 307.075 289.593 307.075 289.973 307.075H295.966C296.212 307.075 296.503 306.784 296.503 306.471C296.503 306.158 296.212 305.845 295.944 305.845H292.053C291.382 305.867 289.996 305.241 289.996 303.944C289.996 302.357 291.315 301.976 291.919 301.932H302.965V303.296H300.214V308.416H298.873V303.296H292.12C291.472 303.251 291.024 304.347 292.075 304.503H296.234C296.86 304.503 297.889 305.04 297.911 306.381C297.911 307.745 297.106 308.394 296.234 308.394H290.04C289.034 308.394 288.654 308.148 288.296 307.835C287.961 307.5 287.916 307.321 287.804 306.65V301.954Z" fill="#6C6E6F"/>
</g>
</g>
</g>
<g filter="url(#filter18_dd_8985_208322)">
<circle cx="67.5" cy="154.39" r="3" fill="white"/>
</g>
<circle cx="67.5" cy="154.39" r="1" fill="#6C6E6F"/>
<g filter="url(#filter19_dd_8985_208322)">
<circle cx="68.5" cy="305.89" r="3" fill="white"/>
</g>
<circle cx="68.5" cy="305.89" r="1" fill="#1C76FD"/>
<g filter="url(#filter20_dd_8985_208322)">
<circle cx="266.5" cy="154.39" r="3" fill="white"/>
</g>
<circle cx="266.5" cy="154.39" r="1" fill="#FF5500"/>
<g filter="url(#filter21_dd_8985_208322)">
<circle cx="266.5" cy="305.89" r="3" fill="white"/>
</g>
<circle cx="266.5" cy="305.89" r="1" fill="#6C6E6F"/>
<path fill-rule="evenodd" clip-rule="evenodd" d="M174.246 331.342C175.426 332.041 176.799 332.257 178.124 332.016C180.749 331.679 182.651 334.545 181.303 336.833C180.002 339.145 176.558 338.904 175.547 336.472C173.163 330.307 164.348 330.307 161.94 336.472C160.953 338.904 157.485 339.145 156.184 336.833C154.86 334.545 156.762 331.679 159.363 332.016C160.688 332.257 162.061 332.016 163.241 331.342C164.445 330.668 165.312 329.608 165.769 328.332C166.829 325.707 170.658 325.707 171.718 328.332C172.175 329.584 173.066 330.668 174.246 331.342ZM168.756 334.666C171.381 334.666 172.922 337.724 171.308 339.843C170.441 340.855 169.96 342.155 169.96 343.528C169.96 344.876 170.441 346.177 171.308 347.213C172.946 349.332 171.381 352.414 168.756 352.39C166.131 352.39 164.589 349.332 166.203 347.213C167.07 346.201 167.551 344.901 167.551 343.528C167.551 342.179 167.07 340.879 166.203 339.843C164.565 337.724 166.131 334.641 168.756 334.666Z" fill="#EBECEC"/>
<defs>
<filter id="filter0_d_8985_208322" x="119.799" y="182.296" width="97.9079" height="97.9137" filterUnits="userSpaceOnUse" color-interpolation-filters="sRGB">
<feFlood flood-opacity="0" result="BackgroundImageFix"/>
<feColorMatrix in="SourceAlpha" type="matrix" values="0 0 0 0 0 0 0 0 0 0 0 0 0 0 0 0 0 0 127 0" result="hardAlpha"/>
<feOffset dy="1.11266"/>
<feGaussianBlur stdDeviation="1.66898"/>
<feComposite in2="hardAlpha" operator="out"/>
<feColorMatrix type="matrix" values="0 0 0 0 0 0 0 0 0 0 0 0 0 0 0 0 0 0 0.25 0"/>
<feBlend mode="normal" in2="BackgroundImageFix" result="effect1_dropShadow_8985_208322"/>
<feBlend mode="normal" in="SourceGraphic" in2="effect1_dropShadow_8985_208322" result="shape"/>
</filter>
<filter id="filter1_ii_8985_208322" x="159.75" y="222.64" width="17.25" height="20.25" filterUnits="userSpaceOnUse" color-interpolation-filters="sRGB">
<feFlood flood-opacity="0" result="BackgroundImageFix"/>
<feBlend mode="normal" in="SourceGraphic" in2="BackgroundImageFix" result="shape"/>
<feColorMatrix in="SourceAlpha" type="matrix" values="0 0 0 0 0 0 0 0 0 0 0 0 0 0 0 0 0 0 127 0" result="hardAlpha"/>
<feOffset dy="0.75"/>
<feGaussianBlur stdDeviation="0.375"/>
<feComposite in2="hardAlpha" operator="arithmetic" k2="-1" k3="1"/>
<feColorMatrix type="matrix" values="0 0 0 0 0 0 0 0 0 0 0 0 0 0 0 0 0 0 0.6 0"/>
<feBlend mode="normal" in2="shape" result="effect1_innerShadow_8985_208322"/>
<feColorMatrix in="SourceAlpha" type="matrix" values="0 0 0 0 0 0 0 0 0 0 0 0 0 0 0 0 0 0 127 0" result="hardAlpha"/>
<feOffset dy="2.25"/>
<feGaussianBlur stdDeviation="1.5"/>
<feComposite in2="hardAlpha" operator="arithmetic" k2="-1" k3="1"/>
<feColorMatrix type="matrix" values="0 0 0 0 0 0 0 0 0 0 0 0 0 0 0 0 0 0 0.4 0"/>
<feBlend mode="normal" in2="effect1_innerShadow_8985_208322" result="effect2_innerShadow_8985_208322"/>
</filter>
<filter id="filter2_dd_8985_208322" x="105.314" y="223.85" width="15.8722" height="15.8722" filterUnits="userSpaceOnUse" color-interpolation-filters="sRGB">
<feFlood flood-opacity="0" result="BackgroundImageFix"/>
<feColorMatrix in="SourceAlpha" type="matrix" values="0 0 0 0 0 0 0 0 0 0 0 0 0 0 0 0 0 0 127 0" result="hardAlpha"/>
<feOffset dy="0.164537"/>
<feGaussianBlur stdDeviation="0.205671"/>
<feComposite in2="hardAlpha" operator="out"/>
<feColorMatrix type="matrix" values="0 0 0 0 0 0 0 0 0 0 0 0 0 0 0 0 0 0 0.5 0"/>
<feBlend mode="normal" in2="BackgroundImageFix" result="effect1_dropShadow_8985_208322"/>
<feColorMatrix in="SourceAlpha" type="matrix" values="0 0 0 0 0 0 0 0 0 0 0 0 0 0 0 0 0 0 127 0" result="hardAlpha"/>
<feOffset dy="1.64537"/>
<feGaussianBlur stdDeviation="2.46805"/>
<feComposite in2="hardAlpha" operator="out"/>
<feColorMatrix type="matrix" values="0 0 0 0 0 0 0 0 0 0 0 0 0 0 0 0 0 0 0.12 0"/>
<feBlend mode="normal" in2="effect1_dropShadow_8985_208322" result="effect2_dropShadow_8985_208322"/>
<feBlend mode="normal" in="SourceGraphic" in2="effect2_dropShadow_8985_208322" result="shape"/>
</filter>
<filter id="filter3_dd_8985_208322" x="217.481" y="223.85" width="15.8722" height="15.8722" filterUnits="userSpaceOnUse" color-interpolation-filters="sRGB">
<feFlood flood-opacity="0" result="BackgroundImageFix"/>
<feColorMatrix in="SourceAlpha" type="matrix" values="0 0 0 0 0 0 0 0 0 0 0 0 0 0 0 0 0 0 127 0" result="hardAlpha"/>
<feOffset dy="0.164537"/>
<feGaussianBlur stdDeviation="0.205671"/>
<feComposite in2="hardAlpha" operator="out"/>
<feColorMatrix type="matrix" values="0 0 0 0 0 0 0 0 0 0 0 0 0 0 0 0 0 0 0.5 0"/>
<feBlend mode="normal" in2="BackgroundImageFix" result="effect1_dropShadow_8985_208322"/>
<feColorMatrix in="SourceAlpha" type="matrix" values="0 0 0 0 0 0 0 0 0 0 0 0 0 0 0 0 0 0 127 0" result="hardAlpha"/>
<feOffset dy="1.64537"/>
<feGaussianBlur stdDeviation="2.46805"/>
<feComposite in2="hardAlpha" operator="out"/>
<feColorMatrix type="matrix" values="0 0 0 0 0 0 0 0 0 0 0 0 0 0 0 0 0 0 0.12 0"/>
<feBlend mode="normal" in2="effect1_dropShadow_8985_208322" result="effect2_dropShadow_8985_208322"/>
<feBlend mode="normal" in="SourceGraphic" in2="effect2_dropShadow_8985_208322" result="shape"/>
</filter>
<filter id="filter4_d_8985_208322" x="14.05" y="281.44" width="59.4" height="51.9" filterUnits="userSpaceOnUse" color-interpolation-filters="sRGB">
<feFlood flood-opacity="0" result="BackgroundImageFix"/>
<feColorMatrix in="SourceAlpha" type="matrix" values="0 0 0 0 0 0 0 0 0 0 0 0 0 0 0 0 0 0 127 0" result="hardAlpha"/>
<feOffset dy="2.25"/>
<feGaussianBlur stdDeviation="2.475"/>
<feComposite in2="hardAlpha" operator="out"/>
<feColorMatrix type="matrix" values="0 0 0 0 0 0 0 0 0 0 0 0 0 0 0 0 0 0 0.06 0"/>
<feBlend mode="normal" in2="BackgroundImageFix" result="effect1_dropShadow_8985_208322"/>
<feBlend mode="normal" in="SourceGraphic" in2="effect1_dropShadow_8985_208322" result="shape"/>
</filter>
<filter id="filter5_i_8985_208322" x="25" y="290.14" width="37.5" height="30" filterUnits="userSpaceOnUse" color-interpolation-filters="sRGB">
<feFlood flood-opacity="0" result="BackgroundImageFix"/>
<feBlend mode="normal" in="SourceGraphic" in2="BackgroundImageFix" result="shape"/>
<feColorMatrix in="SourceAlpha" type="matrix" values="0 0 0 0 0 0 0 0 0 0 0 0 0 0 0 0 0 0 127 0" result="hardAlpha"/>
<feOffset/>
<feGaussianBlur stdDeviation="1.5"/>
<feComposite in2="hardAlpha" operator="arithmetic" k2="-1" k3="1"/>
<feColorMatrix type="matrix" values="0 0 0 0 0 0 0 0 0 0 0 0 0 0 0 0 0 0 0.2 0"/>
<feBlend mode="normal" in2="shape" result="effect1_innerShadow_8985_208322"/>
</filter>
<filter id="filter6_ii_8985_208322" x="42.876" y="298.059" width="6.6123" height="7.45882" filterUnits="userSpaceOnUse" color-interpolation-filters="sRGB">
<feFlood flood-opacity="0" result="BackgroundImageFix"/>
<feBlend mode="normal" in="SourceGraphic" in2="BackgroundImageFix" result="shape"/>
<feColorMatrix in="SourceAlpha" type="matrix" values="0 0 0 0 0 0 0 0 0 0 0 0 0 0 0 0 0 0 127 0" result="hardAlpha"/>
<feOffset dy="0.421006"/>
<feGaussianBlur stdDeviation="0.210503"/>
<feComposite in2="hardAlpha" operator="arithmetic" k2="-1" k3="1"/>
<feColorMatrix type="matrix" values="0 0 0 0 0.0235294 0 0 0 0 0.0941176 0 0 0 0 0.2 0 0 0 0.35 0"/>
<feBlend mode="normal" in2="shape" result="effect1_innerShadow_8985_208322"/>
<feColorMatrix in="SourceAlpha" type="matrix" values="0 0 0 0 0 0 0 0 0 0 0 0 0 0 0 0 0 0 127 0" result="hardAlpha"/>
<feOffset dy="1.26302"/>
<feGaussianBlur stdDeviation="0.842011"/>
<feComposite in2="hardAlpha" operator="arithmetic" k2="-1" k3="1"/>
<feColorMatrix type="matrix" values="0 0 0 0 0.0235294 0 0 0 0 0.0941176 0 0 0 0 0.2 0 0 0 0.25 0"/>
<feBlend mode="normal" in2="effect1_innerShadow_8985_208322" result="effect2_innerShadow_8985_208322"/>
</filter>
<filter id="filter7_ii_8985_208322" x="36.9536" y="299.045" width="5.53735" height="7.72725" filterUnits="userSpaceOnUse" color-interpolation-filters="sRGB">
<feFlood flood-opacity="0" result="BackgroundImageFix"/>
<feBlend mode="normal" in="SourceGraphic" in2="BackgroundImageFix" result="shape"/>
<feColorMatrix in="SourceAlpha" type="matrix" values="0 0 0 0 0 0 0 0 0 0 0 0 0 0 0 0 0 0 127 0" result="hardAlpha"/>
<feOffset dy="0.421006"/>
<feGaussianBlur stdDeviation="0.210503"/>
<feComposite in2="hardAlpha" operator="arithmetic" k2="-1" k3="1"/>
<feColorMatrix type="matrix" values="0 0 0 0 0.0235294 0 0 0 0 0.0941176 0 0 0 0 0.2 0 0 0 0.35 0"/>
<feBlend mode="normal" in2="shape" result="effect1_innerShadow_8985_208322"/>
<feColorMatrix in="SourceAlpha" type="matrix" values="0 0 0 0 0 0 0 0 0 0 0 0 0 0 0 0 0 0 127 0" result="hardAlpha"/>
<feOffset dy="1.26302"/>
<feGaussianBlur stdDeviation="0.842011"/>
<feComposite in2="hardAlpha" operator="arithmetic" k2="-1" k3="1"/>
<feColorMatrix type="matrix" values="0 0 0 0 0.0235294 0 0 0 0 0.0941176 0 0 0 0 0.2 0 0 0 0.25 0"/>
<feBlend mode="normal" in2="effect1_innerShadow_8985_208322" result="effect2_innerShadow_8985_208322"/>
</filter>
<filter id="filter8_ii_8985_208322" x="37.4595" y="304.552" width="6.45825" height="7.91438" filterUnits="userSpaceOnUse" color-interpolation-filters="sRGB">
<feFlood flood-opacity="0" result="BackgroundImageFix"/>
<feBlend mode="normal" in="SourceGraphic" in2="BackgroundImageFix" result="shape"/>
<feColorMatrix in="SourceAlpha" type="matrix" values="0 0 0 0 0 0 0 0 0 0 0 0 0 0 0 0 0 0 127 0" result="hardAlpha"/>
<feOffset dy="0.421006"/>
<feGaussianBlur stdDeviation="0.210503"/>
<feComposite in2="hardAlpha" operator="arithmetic" k2="-1" k3="1"/>
<feColorMatrix type="matrix" values="0 0 0 0 0.0235294 0 0 0 0 0.0941176 0 0 0 0 0.2 0 0 0 0.35 0"/>
<feBlend mode="normal" in2="shape" result="effect1_innerShadow_8985_208322"/>
<feColorMatrix in="SourceAlpha" type="matrix" values="0 0 0 0 0 0 0 0 0 0 0 0 0 0 0 0 0 0 127 0" result="hardAlpha"/>
<feOffset dy="1.26302"/>
<feGaussianBlur stdDeviation="0.842011"/>
<feComposite in2="hardAlpha" operator="arithmetic" k2="-1" k3="1"/>
<feColorMatrix type="matrix" values="0 0 0 0 0.0235294 0 0 0 0 0.0941176 0 0 0 0 0.2 0 0 0 0.25 0"/>
<feBlend mode="normal" in2="effect1_innerShadow_8985_208322" result="effect2_innerShadow_8985_208322"/>
</filter>
<filter id="filter9_ii_8985_208322" x="41.2041" y="305.716" width="7.36719" height="6.75032" filterUnits="userSpaceOnUse" color-interpolation-filters="sRGB">
<feFlood flood-opacity="0" result="BackgroundImageFix"/>
<feBlend mode="normal" in="SourceGraphic" in2="BackgroundImageFix" result="shape"/>
<feColorMatrix in="SourceAlpha" type="matrix" values="0 0 0 0 0 0 0 0 0 0 0 0 0 0 0 0 0 0 127 0" result="hardAlpha"/>
<feOffset dy="0.421006"/>
<feGaussianBlur stdDeviation="0.210503"/>
<feComposite in2="hardAlpha" operator="arithmetic" k2="-1" k3="1"/>
<feColorMatrix type="matrix" values="0 0 0 0 0.0235294 0 0 0 0 0.0941176 0 0 0 0 0.2 0 0 0 0.35 0"/>
<feBlend mode="normal" in2="shape" result="effect1_innerShadow_8985_208322"/>
<feColorMatrix in="SourceAlpha" type="matrix" values="0 0 0 0 0 0 0 0 0 0 0 0 0 0 0 0 0 0 127 0" result="hardAlpha"/>
<feOffset dy="1.26302"/>
<feGaussianBlur stdDeviation="0.842011"/>
<feComposite in2="hardAlpha" operator="arithmetic" k2="-1" k3="1"/>
<feColorMatrix type="matrix" values="0 0 0 0 0.0235294 0 0 0 0 0.0941176 0 0 0 0 0.2 0 0 0 0.25 0"/>
<feBlend mode="normal" in2="effect1_innerShadow_8985_208322" result="effect2_innerShadow_8985_208322"/>
</filter>
<filter id="filter10_ii_8985_208322" x="44.5742" y="302.314" width="6.32275" height="8.5815" filterUnits="userSpaceOnUse" color-interpolation-filters="sRGB">
<feFlood flood-opacity="0" result="BackgroundImageFix"/>
<feBlend mode="normal" in="SourceGraphic" in2="BackgroundImageFix" result="shape"/>
<feColorMatrix in="SourceAlpha" type="matrix" values="0 0 0 0 0 0 0 0 0 0 0 0 0 0 0 0 0 0 127 0" result="hardAlpha"/>
<feOffset dy="0.421006"/>
<feGaussianBlur stdDeviation="0.210503"/>
<feComposite in2="hardAlpha" operator="arithmetic" k2="-1" k3="1"/>
<feColorMatrix type="matrix" values="0 0 0 0 0.0235294 0 0 0 0 0.0941176 0 0 0 0 0.2 0 0 0 0.35 0"/>
<feBlend mode="normal" in2="shape" result="effect1_innerShadow_8985_208322"/>
<feColorMatrix in="SourceAlpha" type="matrix" values="0 0 0 0 0 0 0 0 0 0 0 0 0 0 0 0 0 0 127 0" result="hardAlpha"/>
<feOffset dy="1.26302"/>
<feGaussianBlur stdDeviation="0.842011"/>
<feComposite in2="hardAlpha" operator="arithmetic" k2="-1" k3="1"/>
<feColorMatrix type="matrix" values="0 0 0 0 0.0235294 0 0 0 0 0.0941176 0 0 0 0 0.2 0 0 0 0.25 0"/>
<feBlend mode="normal" in2="effect1_innerShadow_8985_208322" result="effect2_innerShadow_8985_208322"/>
</filter>
<filter id="filter11_d_8985_208322" x="14.05" y="130.69" width="59.4" height="51.9" filterUnits="userSpaceOnUse" color-interpolation-filters="sRGB">
<feFlood flood-opacity="0" result="BackgroundImageFix"/>
<feColorMatrix in="SourceAlpha" type="matrix" values="0 0 0 0 0 0 0 0 0 0 0 0 0 0 0 0 0 0 127 0" result="hardAlpha"/>
<feOffset dy="2.25"/>
<feGaussianBlur stdDeviation="2.475"/>
<feComposite in2="hardAlpha" operator="out"/>
<feColorMatrix type="matrix" values="0 0 0 0 0 0 0 0 0 0 0 0 0 0 0 0 0 0 0.06 0"/>
<feBlend mode="normal" in2="BackgroundImageFix" result="effect1_dropShadow_8985_208322"/>
<feBlend mode="normal" in="SourceGraphic" in2="effect1_dropShadow_8985_208322" result="shape"/>
</filter>
<filter id="filter12_i_8985_208322" x="25" y="139.39" width="37.5" height="30" filterUnits="userSpaceOnUse" color-interpolation-filters="sRGB">
<feFlood flood-opacity="0" result="BackgroundImageFix"/>
<feBlend mode="normal" in="SourceGraphic" in2="BackgroundImageFix" result="shape"/>
<feColorMatrix in="SourceAlpha" type="matrix" values="0 0 0 0 0 0 0 0 0 0 0 0 0 0 0 0 0 0 127 0" result="hardAlpha"/>
<feOffset/>
<feGaussianBlur stdDeviation="1.5"/>
<feComposite in2="hardAlpha" operator="arithmetic" k2="-1" k3="1"/>
<feColorMatrix type="matrix" values="0 0 0 0 0 0 0 0 0 0 0 0 0 0 0 0 0 0 0.2 0"/>
<feBlend mode="normal" in2="shape" result="effect1_innerShadow_8985_208322"/>
</filter>
<filter id="filter13_d_8985_208322" x="260.978" y="130.69" width="59.4" height="51.9" filterUnits="userSpaceOnUse" color-interpolation-filters="sRGB">
<feFlood flood-opacity="0" result="BackgroundImageFix"/>
<feColorMatrix in="SourceAlpha" type="matrix" values="0 0 0 0 0 0 0 0 0 0 0 0 0 0 0 0 0 0 127 0" result="hardAlpha"/>
<feOffset dy="2.25"/>
<feGaussianBlur stdDeviation="2.475"/>
<feComposite in2="hardAlpha" operator="out"/>
<feColorMatrix type="matrix" values="0 0 0 0 0 0 0 0 0 0 0 0 0 0 0 0 0 0 0.06 0"/>
<feBlend mode="normal" in2="BackgroundImageFix" result="effect1_dropShadow_8985_208322"/>
<feBlend mode="normal" in="SourceGraphic" in2="effect1_dropShadow_8985_208322" result="shape"/>
</filter>
<filter id="filter14_i_8985_208322" x="271.928" y="139.39" width="37.5" height="30" filterUnits="userSpaceOnUse" color-interpolation-filters="sRGB">
<feFlood flood-opacity="0" result="BackgroundImageFix"/>
<feBlend mode="normal" in="SourceGraphic" in2="BackgroundImageFix" result="shape"/>
<feColorMatrix in="SourceAlpha" type="matrix" values="0 0 0 0 0 0 0 0 0 0 0 0 0 0 0 0 0 0 127 0" result="hardAlpha"/>
<feOffset/>
<feGaussianBlur stdDeviation="1.5"/>
<feComposite in2="hardAlpha" operator="arithmetic" k2="-1" k3="1"/>
<feColorMatrix type="matrix" values="0 0 0 0 0 0 0 0 0 0 0 0 0 0 0 0 0 0 0.2 0"/>
<feBlend mode="normal" in2="shape" result="effect1_innerShadow_8985_208322"/>
</filter>
<filter id="filter15_i_8985_208322" x="280.75" y="147.841" width="19.855" height="15.2445" filterUnits="userSpaceOnUse" color-interpolation-filters="sRGB">
<feFlood flood-opacity="0" result="BackgroundImageFix"/>
<feBlend mode="normal" in="SourceGraphic" in2="BackgroundImageFix" result="shape"/>
<feColorMatrix in="SourceAlpha" type="matrix" values="0 0 0 0 0 0 0 0 0 0 0 0 0 0 0 0 0 0 127 0" result="hardAlpha"/>
<feOffset dy="2.14499"/>
<feGaussianBlur stdDeviation="1.57365"/>
<feComposite in2="hardAlpha" operator="arithmetic" k2="-1" k3="1"/>
<feColorMatrix type="matrix" values="0 0 0 0 0.6 0 0 0 0 0.2 0 0 0 0 0 0 0 0 0.8 0"/>
<feBlend mode="normal" in2="shape" result="effect1_innerShadow_8985_208322"/>
</filter>
<filter id="filter16_d_8985_208322" x="260.978" y="281.44" width="59.4" height="51.9" filterUnits="userSpaceOnUse" color-interpolation-filters="sRGB">
<feFlood flood-opacity="0" result="BackgroundImageFix"/>
<feColorMatrix in="SourceAlpha" type="matrix" values="0 0 0 0 0 0 0 0 0 0 0 0 0 0 0 0 0 0 127 0" result="hardAlpha"/>
<feOffset dy="2.25"/>
<feGaussianBlur stdDeviation="2.475"/>
<feComposite in2="hardAlpha" operator="out"/>
<feColorMatrix type="matrix" values="0 0 0 0 0 0 0 0 0 0 0 0 0 0 0 0 0 0 0.06 0"/>
<feBlend mode="normal" in2="BackgroundImageFix" result="effect1_dropShadow_8985_208322"/>
<feBlend mode="normal" in="SourceGraphic" in2="effect1_dropShadow_8985_208322" result="shape"/>
</filter>
<filter id="filter17_i_8985_208322" x="271.928" y="290.14" width="37.5" height="30" filterUnits="userSpaceOnUse" color-interpolation-filters="sRGB">
<feFlood flood-opacity="0" result="BackgroundImageFix"/>
<feBlend mode="normal" in="SourceGraphic" in2="BackgroundImageFix" result="shape"/>
<feColorMatrix in="SourceAlpha" type="matrix" values="0 0 0 0 0 0 0 0 0 0 0 0 0 0 0 0 0 0 127 0" result="hardAlpha"/>
<feOffset/>
<feGaussianBlur stdDeviation="1.5"/>
<feComposite in2="hardAlpha" operator="arithmetic" k2="-1" k3="1"/>
<feColorMatrix type="matrix" values="0 0 0 0 0 0 0 0 0 0 0 0 0 0 0 0 0 0 0.2 0"/>
<feBlend mode="normal" in2="shape" result="effect1_innerShadow_8985_208322"/>
</filter>
<filter id="filter18_dd_8985_208322" x="59.5639" y="148.1" width="15.8722" height="15.8722" filterUnits="userSpaceOnUse" color-interpolation-filters="sRGB">
<feFlood flood-opacity="0" result="BackgroundImageFix"/>
<feColorMatrix in="SourceAlpha" type="matrix" values="0 0 0 0 0 0 0 0 0 0 0 0 0 0 0 0 0 0 127 0" result="hardAlpha"/>
<feOffset dy="0.164537"/>
<feGaussianBlur stdDeviation="0.205671"/>
<feComposite in2="hardAlpha" operator="out"/>
<feColorMatrix type="matrix" values="0 0 0 0 0 0 0 0 0 0 0 0 0 0 0 0 0 0 0.5 0"/>
<feBlend mode="normal" in2="BackgroundImageFix" result="effect1_dropShadow_8985_208322"/>
<feColorMatrix in="SourceAlpha" type="matrix" values="0 0 0 0 0 0 0 0 0 0 0 0 0 0 0 0 0 0 127 0" result="hardAlpha"/>
<feOffset dy="1.64537"/>
<feGaussianBlur stdDeviation="2.46805"/>
<feComposite in2="hardAlpha" operator="out"/>
<feColorMatrix type="matrix" values="0 0 0 0 0 0 0 0 0 0 0 0 0 0 0 0 0 0 0.12 0"/>
<feBlend mode="normal" in2="effect1_dropShadow_8985_208322" result="effect2_dropShadow_8985_208322"/>
<feBlend mode="normal" in="SourceGraphic" in2="effect2_dropShadow_8985_208322" result="shape"/>
</filter>
<filter id="filter19_dd_8985_208322" x="60.5639" y="299.6" width="15.8722" height="15.8722" filterUnits="userSpaceOnUse" color-interpolation-filters="sRGB">
<feFlood flood-opacity="0" result="BackgroundImageFix"/>
<feColorMatrix in="SourceAlpha" type="matrix" values="0 0 0 0 0 0 0 0 0 0 0 0 0 0 0 0 0 0 127 0" result="hardAlpha"/>
<feOffset dy="0.164537"/>
<feGaussianBlur stdDeviation="0.205671"/>
<feComposite in2="hardAlpha" operator="out"/>
<feColorMatrix type="matrix" values="0 0 0 0 0 0 0 0 0 0 0 0 0 0 0 0 0 0 0.5 0"/>
<feBlend mode="normal" in2="BackgroundImageFix" result="effect1_dropShadow_8985_208322"/>
<feColorMatrix in="SourceAlpha" type="matrix" values="0 0 0 0 0 0 0 0 0 0 0 0 0 0 0 0 0 0 127 0" result="hardAlpha"/>
<feOffset dy="1.64537"/>
<feGaussianBlur stdDeviation="2.46805"/>
<feComposite in2="hardAlpha" operator="out"/>
<feColorMatrix type="matrix" values="0 0 0 0 0 0 0 0 0 0 0 0 0 0 0 0 0 0 0.12 0"/>
<feBlend mode="normal" in2="effect1_dropShadow_8985_208322" result="effect2_dropShadow_8985_208322"/>
<feBlend mode="normal" in="SourceGraphic" in2="effect2_dropShadow_8985_208322" result="shape"/>
</filter>
<filter id="filter20_dd_8985_208322" x="258.564" y="148.1" width="15.8722" height="15.8722" filterUnits="userSpaceOnUse" color-interpolation-filters="sRGB">
<feFlood flood-opacity="0" result="BackgroundImageFix"/>
<feColorMatrix in="SourceAlpha" type="matrix" values="0 0 0 0 0 0 0 0 0 0 0 0 0 0 0 0 0 0 127 0" result="hardAlpha"/>
<feOffset dy="0.164537"/>
<feGaussianBlur stdDeviation="0.205671"/>
<feComposite in2="hardAlpha" operator="out"/>
<feColorMatrix type="matrix" values="0 0 0 0 0 0 0 0 0 0 0 0 0 0 0 0 0 0 0.5 0"/>
<feBlend mode="normal" in2="BackgroundImageFix" result="effect1_dropShadow_8985_208322"/>
<feColorMatrix in="SourceAlpha" type="matrix" values="0 0 0 0 0 0 0 0 0 0 0 0 0 0 0 0 0 0 127 0" result="hardAlpha"/>
<feOffset dy="1.64537"/>
<feGaussianBlur stdDeviation="2.46805"/>
<feComposite in2="hardAlpha" operator="out"/>
<feColorMatrix type="matrix" values="0 0 0 0 0 0 0 0 0 0 0 0 0 0 0 0 0 0 0.12 0"/>
<feBlend mode="normal" in2="effect1_dropShadow_8985_208322" result="effect2_dropShadow_8985_208322"/>
<feBlend mode="normal" in="SourceGraphic" in2="effect2_dropShadow_8985_208322" result="shape"/>
</filter>
<filter id="filter21_dd_8985_208322" x="258.564" y="299.6" width="15.8722" height="15.8722" filterUnits="userSpaceOnUse" color-interpolation-filters="sRGB">
<feFlood flood-opacity="0" result="BackgroundImageFix"/>
<feColorMatrix in="SourceAlpha" type="matrix" values="0 0 0 0 0 0 0 0 0 0 0 0 0 0 0 0 0 0 127 0" result="hardAlpha"/>
<feOffset dy="0.164537"/>
<feGaussianBlur stdDeviation="0.205671"/>
<feComposite in2="hardAlpha" operator="out"/>
<feColorMatrix type="matrix" values="0 0 0 0 0 0 0 0 0 0 0 0 0 0 0 0 0 0 0.5 0"/>
<feBlend mode="normal" in2="BackgroundImageFix" result="effect1_dropShadow_8985_208322"/>
<feColorMatrix in="SourceAlpha" type="matrix" values="0 0 0 0 0 0 0 0 0 0 0 0 0 0 0 0 0 0 127 0" result="hardAlpha"/>
<feOffset dy="1.64537"/>
<feGaussianBlur stdDeviation="2.46805"/>
<feComposite in2="hardAlpha" operator="out"/>
<feColorMatrix type="matrix" values="0 0 0 0 0 0 0 0 0 0 0 0 0 0 0 0 0 0 0.12 0"/>
<feBlend mode="normal" in2="effect1_dropShadow_8985_208322" result="effect2_dropShadow_8985_208322"/>
<feBlend mode="normal" in="SourceGraphic" in2="effect2_dropShadow_8985_208322" result="shape"/>
</filter>
<radialGradient id="paint0_radial_8985_208322" cx="0" cy="0" r="1" gradientUnits="userSpaceOnUse" gradientTransform="translate(150.019 355.427) rotate(-90) scale(258.277 380.569)">
<stop stop-color="white"/>
<stop offset="1" stop-color="#F5F6F7" stop-opacity="0.1"/>
</radialGradient>
<linearGradient id="paint1_linear_8985_208322" x1="-18.4558" y1="229.828" x2="69.0001" y2="229.828" gradientUnits="userSpaceOnUse">
<stop stop-color="#E2E2E2" stop-opacity="0"/>
<stop offset="1" stop-color="#E2E2E2"/>
</linearGradient>
<linearGradient id="paint2_linear_8985_208322" x1="82.9086" y1="268" x2="5.15318" y2="268" gradientUnits="userSpaceOnUse">
<stop stop-color="#1C76FD"/>
<stop offset="1" stop-color="#1C76FD" stop-opacity="0"/>
</linearGradient>
<linearGradient id="paint3_linear_8985_208322" x1="349.371" y1="230.828" x2="267.287" y2="230.828" gradientUnits="userSpaceOnUse">
<stop stop-color="#E2E2E2" stop-opacity="0"/>
<stop offset="1" stop-color="#E2E2E2"/>
</linearGradient>
<linearGradient id="paint4_linear_8985_208322" x1="226" y1="192.5" x2="338" y2="192.5" gradientUnits="userSpaceOnUse">
<stop stop-color="#FF5500"/>
<stop offset="1" stop-color="#FF5500" stop-opacity="0"/>
</linearGradient>
<linearGradient id="paint5_linear_8985_208322" x1="168.753" y1="184.521" x2="168.753" y2="275.759" gradientUnits="userSpaceOnUse">
<stop stop-color="#FFFDFB"/>
<stop offset="1" stop-color="#F4F5F6"/>
</linearGradient>
<linearGradient id="paint6_linear_8985_208322" x1="168.75" y1="207.441" x2="168.75" y2="249.238" gradientUnits="userSpaceOnUse">
<stop stop-color="#E3E3E3"/>
<stop offset="1" stop-color="white"/>
</linearGradient>
<linearGradient id="paint7_linear_8985_208322" x1="168.75" y1="207.441" x2="168.75" y2="259.516" gradientUnits="userSpaceOnUse">
<stop stop-color="#ECECF0"/>
<stop offset="0.51" stop-color="white"/>
<stop offset="1" stop-color="#ECECEC"/>
</linearGradient>
<linearGradient id="paint8_linear_8985_208322" x1="43.75" y1="326.14" x2="43.75" y2="284.14" gradientUnits="userSpaceOnUse">
<stop stop-color="#E2E2E2"/>
<stop offset="1" stop-color="#E2E2E2"/>
</linearGradient>
<linearGradient id="paint9_linear_8985_208322" x1="25" y1="305.14" x2="62.5" y2="305.14" gradientUnits="userSpaceOnUse">
<stop stop-color="#E5E8EF" stop-opacity="0"/>
<stop offset="1" stop-color="#F5F5F5"/>
</linearGradient>
<linearGradient id="paint10_linear_8985_208322" x1="43.75" y1="175.39" x2="43.75" y2="133.39" gradientUnits="userSpaceOnUse">
<stop stop-color="#E2E2E2"/>
<stop offset="1" stop-color="#E2E2E2"/>
</linearGradient>
<linearGradient id="paint11_linear_8985_208322" x1="25" y1="154.39" x2="62.5" y2="154.39" gradientUnits="userSpaceOnUse">
<stop stop-color="#E5E8EF" stop-opacity="0"/>
<stop offset="1" stop-color="#F5F5F5"/>
</linearGradient>
<linearGradient id="paint12_linear_8985_208322" x1="290.678" y1="175.39" x2="290.678" y2="133.39" gradientUnits="userSpaceOnUse">
<stop stop-color="#E2E2E2"/>
<stop offset="1" stop-color="#E2E2E2"/>
</linearGradient>
<linearGradient id="paint13_linear_8985_208322" x1="271.928" y1="154.39" x2="309.428" y2="154.39" gradientUnits="userSpaceOnUse">
<stop stop-color="#E5E8EF" stop-opacity="0"/>
<stop offset="1" stop-color="#F5F5F5"/>
</linearGradient>
<linearGradient id="paint14_linear_8985_208322" x1="290.678" y1="326.14" x2="290.678" y2="284.14" gradientUnits="userSpaceOnUse">
<stop stop-color="#E2E2E2"/>
<stop offset="1" stop-color="#E2E2E2"/>
</linearGradient>
<linearGradient id="paint15_linear_8985_208322" x1="271.928" y1="305.14" x2="309.428" y2="305.14" gradientUnits="userSpaceOnUse">
<stop stop-color="#E5E8EF" stop-opacity="0"/>
<stop offset="1" stop-color="#F5F5F5"/>
</linearGradient>
<clipPath id="clip0_8985_208322">
<rect width="14.5005" height="14.5005" fill="white" transform="translate(36.4998 297.89)"/>
</clipPath>
<clipPath id="clip1_8985_208322">
<rect width="24.5294" height="6.55161" fill="white" transform="translate(278.413 301.865)"/>
</clipPath>
</defs>
</svg>
