<svg width="32" height="32" viewBox="0 0 32 32" fill="none" xmlns="http://www.w3.org/2000/svg">
<path class="icon-bg" d="M0 6.4C0 4.15979 0 3.03969 0.435974 2.18404C0.819467 1.43139 1.43139 0.819467 2.18404 0.435974C3.03969 0 4.15979 0 6.4 0H25.6C27.8402 0 28.9603 0 29.816 0.435974C30.5686 0.819467 31.1805 1.43139 31.564 2.18404C32 3.03969 32 4.15979 32 6.4V25.6C32 27.8402 32 28.9603 31.564 29.816C31.1805 30.5686 30.5686 31.1805 29.816 31.564C28.9603 32 27.8402 32 25.6 32H6.4C4.15979 32 3.03969 32 2.18404 31.564C1.43139 31.1805 0.819467 30.5686 0.435974 29.816C0 28.9603 0 27.8402 0 25.6V6.4Z"/>
<path class="icon-fg" fill-rule="evenodd" clip-rule="evenodd" d="M8.63002 8.69597C10.6263 6.62218 13.8763 6.62218 15.8726 8.69597L18.4676 11.3917C20.4457 13.4465 20.4457 16.7632 18.4676 18.818L18.4568 18.8293C18.0383 19.2655 17.5613 19.6115 17.05 19.865C16.6114 20.0825 16.0796 19.9032 15.8622 19.4646C15.6448 19.0261 15.824 18.4943 16.2626 18.2769C16.5912 18.114 16.9016 17.8898 17.1776 17.6022L17.1906 17.5887C18.5079 16.2203 18.5079 13.9894 17.1906 12.621L14.5956 9.92532C13.2965 8.57588 11.2061 8.57588 9.90707 9.92532L9.89514 9.93771C8.57783 11.3061 8.57783 13.537 9.89514 14.9054L11.0059 16.0593C11.3454 16.4119 11.3347 16.973 10.9821 17.3125C10.6294 17.6519 10.0683 17.6413 9.72887 17.2886L8.61808 16.1347C6.64003 14.0799 6.65196 10.7508 8.63002 8.69597ZM16.1323 12.542C16.3497 12.9806 16.1704 13.5123 15.7319 13.7298C15.4033 13.8927 15.0928 14.1168 14.8169 14.4045L14.8039 14.4179C13.4866 15.7864 13.4866 18.0172 14.8039 19.3856L17.3989 22.0813C18.6979 23.4308 20.7884 23.4308 22.0874 22.0813L22.0993 22.0689C23.4166 20.7005 23.4166 18.4697 22.0993 17.1013L20.9886 15.9474C20.6491 15.5947 20.6598 15.0336 21.0124 14.6942C21.3651 14.3547 21.9261 14.3654 22.2656 14.718L23.3764 15.8719C25.3545 17.9267 25.3545 21.2435 23.3764 23.2983L23.3645 23.3107C21.3681 25.3845 18.1182 25.3845 16.1219 23.3107L13.5268 20.615C11.5488 18.5602 11.5488 15.2434 13.5268 13.1886L13.5377 13.1773C13.9561 12.7411 14.4332 12.3951 14.9445 12.1416C15.3831 11.9242 15.9148 12.1034 16.1323 12.542Z"/>
</svg>
