<svg width="20" height="21" viewBox="0 0 20 21" fill="none" xmlns="http://www.w3.org/2000/svg">
<path d="M17.3333 2.75H6.66667C6.48986 2.75 6.32029 2.82024 6.19526 2.94526C6.07024 3.07029 6 3.23986 6 3.41667V6.75H2.66667C2.48986 6.75 2.32029 6.82024 2.19526 6.94526C2.07024 7.07029 2 7.23986 2 7.41667V18.0833C2 18.2601 2.07024 18.4297 2.19526 18.5547C2.32029 18.6798 2.48986 18.75 2.66667 18.75H13.3333C13.5101 18.75 13.6797 18.6798 13.8047 18.5547C13.9298 18.4297 14 18.2601 14 18.0833V14.75H17.3333C17.5101 14.75 17.6797 14.6798 17.8047 14.5547C17.9298 14.4297 18 14.2601 18 14.0833V3.41667C18 3.23986 17.9298 3.07029 17.8047 2.94526C17.6797 2.82024 17.5101 2.75 17.3333 2.75ZM12.6667 17.4167H3.33333V8.08333H12.6667V17.4167ZM16.6667 13.4167H14V7.41667C14 7.23986 13.9298 7.07029 13.8047 6.94526C13.6797 6.82024 13.5101 6.75 13.3333 6.75H7.33333V4.08333H16.6667V13.4167Z" fill="#9D9E9F"/>
</svg>
