 <svg width="55" height="50" viewBox="0 0 55 50" fill="none" xmlns="http://www.w3.org/2000/svg">
<path class="icon-bg" d="M12 24.4C12 22.1598 12 21.0397 12.436 20.184C12.8195 19.4314 13.4314 18.8195 14.184 18.436C15.0397 18 16.1598 18 18.4 18H37.6C39.8402 18 40.9603 18 41.816 18.436C42.5686 18.8195 43.1805 19.4314 43.564 20.184C44 21.0397 44 22.1598 44 24.4V43.6C44 45.8402 44 46.9603 43.564 47.816C43.1805 48.5686 42.5686 49.1805 41.816 49.564C40.9603 50 39.8402 50 37.6 50H18.4C16.1598 50 15.0397 50 14.184 49.564C13.4314 49.1805 12.8195 48.5686 12.436 47.816C12 46.9603 12 45.8402 12 43.6V24.4Z"/>
<path class="icon-fg" fill-rule="evenodd" clip-rule="evenodd" d="M20.63 26.696C22.6263 24.6222 25.8763 24.6222 27.8726 26.696L30.4676 29.3917C32.4457 31.4465 32.4457 34.7632 30.4676 36.818L30.4568 36.8293C30.0383 37.2655 29.5613 37.6115 29.05 37.865C28.6114 38.0825 28.0796 37.9032 27.8622 37.4646C27.6448 37.0261 27.824 36.4943 28.2626 36.2769C28.5912 36.114 28.9016 35.8898 29.1776 35.6022L29.1906 35.5887C30.5079 34.2203 30.5079 31.9894 29.1906 30.621L26.5956 27.9253C25.2965 26.5759 23.2061 26.5759 21.9071 27.9253L21.8951 27.9377C20.5778 29.3061 20.5778 31.537 21.8951 32.9054L23.0059 34.0593C23.3454 34.4119 23.3347 34.973 22.9821 35.3125C22.6294 35.6519 22.0683 35.6413 21.7289 35.2886L20.6181 34.1347C18.64 32.0799 18.652 28.7508 20.63 26.696ZM28.1323 30.542C28.3497 30.9806 28.1704 31.5123 27.7319 31.7298C27.4033 31.8927 27.0928 32.1168 26.8169 32.4045L26.8039 32.4179C25.4866 33.7864 25.4866 36.0172 26.8039 37.3856L29.3989 40.0813C30.6979 41.4308 32.7884 41.4308 34.0874 40.0813L34.0993 40.0689C35.4166 38.7005 35.4166 36.4697 34.0993 35.1013L32.9886 33.9474C32.6491 33.5947 32.6598 33.0336 33.0124 32.6942C33.3651 32.3547 33.9261 32.3654 34.2656 32.718L35.3764 33.8719C37.3545 35.9267 37.3545 39.2435 35.3764 41.2983L35.3645 41.3107C33.3681 43.3845 30.1182 43.3845 28.1219 41.3107L25.5268 38.615C23.5488 36.5602 23.5488 33.2434 25.5268 31.1886L25.5377 31.1773C25.9561 30.7411 26.4332 30.3951 26.9445 30.1416C27.3831 29.9242 27.9148 30.1034 28.1323 30.542Z"/>
<path class="icon-fg" d="M0.518 6.59252C0.518 5.64052 0.737333 4.78652 1.176 4.03052C1.624 3.27452 2.226 2.68652 2.982 2.26651C3.74733 1.83718 4.58267 1.62251 5.488 1.62251C6.524 1.62251 7.44333 1.87918 8.246 2.39251C9.058 2.89652 9.646 3.61518 10.01 4.54852H8.092C7.84 4.03518 7.49 3.65252 7.042 3.40052C6.594 3.14852 6.076 3.02252 5.488 3.02252C4.844 3.02252 4.27 3.16718 3.766 3.45652C3.262 3.74585 2.86533 4.16118 2.576 4.70252C2.296 5.24385 2.156 5.87385 2.156 6.59252C2.156 7.31118 2.296 7.94118 2.576 8.48252C2.86533 9.02385 3.262 9.44385 3.766 9.74252C4.27 10.0318 4.844 10.1765 5.488 10.1765C6.076 10.1765 6.594 10.0505 7.042 9.79852C7.49 9.54652 7.84 9.16385 8.092 8.65052H10.01C9.646 9.58385 9.058 10.3025 8.246 10.8065C7.44333 11.3105 6.524 11.5625 5.488 11.5625C4.57333 11.5625 3.738 11.3525 2.982 10.9325C2.226 10.5032 1.624 9.91052 1.176 9.15452C0.737333 8.39852 0.518 7.54452 0.518 6.59252ZM15.2241 11.6045C14.4961 11.6045 13.8381 11.4412 13.2501 11.1145C12.6621 10.7785 12.2001 10.3118 11.8641 9.71452C11.5281 9.10785 11.3601 8.40785 11.3601 7.61452C11.3601 6.83052 11.5328 6.13518 11.8781 5.52852C12.2235 4.92185 12.6948 4.45518 13.2921 4.12852C13.8895 3.80185 14.5568 3.63852 15.2941 3.63852C16.0315 3.63852 16.6988 3.80185 17.2961 4.12852C17.8935 4.45518 18.3648 4.92185 18.7101 5.52852C19.0555 6.13518 19.2281 6.83052 19.2281 7.61452C19.2281 8.39852 19.0508 9.09385 18.6961 9.70052C18.3415 10.3072 17.8561 10.7785 17.2401 11.1145C16.6335 11.4412 15.9615 11.6045 15.2241 11.6045ZM15.2241 10.2185C15.6348 10.2185 16.0175 10.1205 16.3721 9.92452C16.7361 9.72852 17.0301 9.43452 17.2541 9.04252C17.4781 8.65052 17.5901 8.17452 17.5901 7.61452C17.5901 7.05452 17.4828 6.58318 17.2681 6.20052C17.0535 5.80852 16.7688 5.51452 16.4141 5.31852C16.0595 5.12252 15.6768 5.02452 15.2661 5.02452C14.8555 5.02452 14.4728 5.12252 14.1181 5.31852C13.7728 5.51452 13.4975 5.80852 13.2921 6.20052C13.0868 6.58318 12.9841 7.05452 12.9841 7.61452C12.9841 8.44518 13.1941 9.08918 13.6141 9.54652C14.0435 9.99452 14.5801 10.2185 15.2241 10.2185ZM22.4019 4.89852C22.6725 4.54385 23.0412 4.24518 23.5079 4.00252C23.9745 3.75985 24.5019 3.63852 25.0899 3.63852C25.7619 3.63852 26.3732 3.80652 26.9239 4.14251C27.4839 4.46918 27.9225 4.93118 28.2399 5.52852C28.5572 6.12585 28.7159 6.81185 28.7159 7.58652C28.7159 8.36118 28.5572 9.05652 28.2399 9.67252C27.9225 10.2792 27.4839 10.7552 26.9239 11.1005C26.3732 11.4365 25.7619 11.6045 25.0899 11.6045C24.5019 11.6045 23.9792 11.4878 23.5219 11.2545C23.0645 11.0118 22.6912 10.7132 22.4019 10.3585V15.1465H20.8059V3.76452H22.4019V4.89852ZM27.0919 7.58652C27.0919 7.05452 26.9799 6.59718 26.7559 6.21452C26.5412 5.82252 26.2519 5.52852 25.8879 5.33252C25.5332 5.12718 25.1505 5.02452 24.7399 5.02452C24.3385 5.02452 23.9559 5.12718 23.5919 5.33252C23.2372 5.53785 22.9479 5.83652 22.7239 6.22852C22.5092 6.62052 22.4019 7.08252 22.4019 7.61452C22.4019 8.14652 22.5092 8.61318 22.7239 9.01452C22.9479 9.40652 23.2372 9.70518 23.5919 9.91052C23.9559 10.1158 24.3385 10.2185 24.7399 10.2185C25.1505 10.2185 25.5332 10.1158 25.8879 9.91052C26.2519 9.69585 26.5412 9.38785 26.7559 8.98652C26.9799 8.58518 27.0919 8.11852 27.0919 7.58652ZM31.1061 2.74252C30.8168 2.74252 30.5741 2.64452 30.3781 2.44852C30.1821 2.25252 30.0841 2.00985 30.0841 1.72052C30.0841 1.43118 30.1821 1.18852 30.3781 0.992515C30.5741 0.796515 30.8168 0.698515 31.1061 0.698515C31.3861 0.698515 31.6241 0.796515 31.8201 0.992515C32.0161 1.18852 32.1141 1.43118 32.1141 1.72052C32.1141 2.00985 32.0161 2.25252 31.8201 2.44852C31.6241 2.64452 31.3861 2.74252 31.1061 2.74252ZM31.8901 3.76452V11.4785H30.2941V3.76452H31.8901ZM41.0555 7.43252C41.0555 7.72185 41.0369 7.98318 40.9995 8.21652H35.1055C35.1522 8.83252 35.3809 9.32718 35.7915 9.70052C36.2022 10.0738 36.7062 10.2605 37.3035 10.2605C38.1622 10.2605 38.7689 9.90118 39.1235 9.18252H40.8455C40.6122 9.89185 40.1875 10.4752 39.5715 10.9325C38.9649 11.3805 38.2089 11.6045 37.3035 11.6045C36.5662 11.6045 35.9035 11.4412 35.3155 11.1145C34.7369 10.7785 34.2795 10.3118 33.9435 9.71452C33.6169 9.10785 33.4535 8.40785 33.4535 7.61452C33.4535 6.82118 33.6122 6.12585 33.9295 5.52852C34.2562 4.92185 34.7089 4.45518 35.2875 4.12852C35.8755 3.80185 36.5475 3.63852 37.3035 3.63852C38.0315 3.63852 38.6802 3.79718 39.2495 4.11452C39.8189 4.43185 40.2622 4.87985 40.5795 5.45852C40.8969 6.02785 41.0555 6.68585 41.0555 7.43252ZM39.3895 6.92852C39.3802 6.34052 39.1702 5.86918 38.7595 5.51452C38.3489 5.15985 37.8402 4.98252 37.2335 4.98252C36.6829 4.98252 36.2115 5.15985 35.8195 5.51452C35.4275 5.85985 35.1942 6.33118 35.1195 6.92852H39.3895ZM42.0942 7.58652C42.0942 6.81185 42.2528 6.12585 42.5702 5.52852C42.8968 4.93118 43.3355 4.46918 43.8862 4.14251C44.4462 3.80652 45.0668 3.63852 45.7482 3.63852C46.2522 3.63852 46.7468 3.75052 47.2322 3.97452C47.7268 4.18918 48.1188 4.47852 48.4082 4.84252V1.11852H50.0182V11.4785H48.4082V10.3165C48.1468 10.6898 47.7828 10.9978 47.3162 11.2405C46.8588 11.4832 46.3315 11.6045 45.7342 11.6045C45.0622 11.6045 44.4462 11.4365 43.8862 11.1005C43.3355 10.7552 42.8968 10.2792 42.5702 9.67252C42.2528 9.05652 42.0942 8.36118 42.0942 7.58652ZM48.4082 7.61452C48.4082 7.08252 48.2962 6.62052 48.0722 6.22852C47.8575 5.83652 47.5728 5.53785 47.2182 5.33252C46.8635 5.12718 46.4808 5.02452 46.0702 5.02452C45.6595 5.02452 45.2768 5.12718 44.9222 5.33252C44.5675 5.52852 44.2782 5.82252 44.0542 6.21452C43.8395 6.59718 43.7322 7.05452 43.7322 7.58652C43.7322 8.11852 43.8395 8.58518 44.0542 8.98652C44.2782 9.38785 44.5675 9.69585 44.9222 9.91052C45.2862 10.1158 45.6688 10.2185 46.0702 10.2185C46.4808 10.2185 46.8635 10.1158 47.2182 9.91052C47.5728 9.70518 47.8575 9.40652 48.0722 9.01452C48.2962 8.61318 48.4082 8.14652 48.4082 7.61452ZM54.1165 1.74851L53.9345 8.53852H52.6045L52.4225 1.74851H54.1165ZM53.3185 11.5765C53.0291 11.5765 52.7865 11.4785 52.5905 11.2825C52.3945 11.0865 52.2965 10.8438 52.2965 10.5545C52.2965 10.2652 52.3945 10.0225 52.5905 9.82652C52.7865 9.63052 53.0291 9.53252 53.3185 9.53252C53.5985 9.53252 53.8365 9.63052 54.0325 9.82652C54.2285 10.0225 54.3265 10.2652 54.3265 10.5545C54.3265 10.8438 54.2285 11.0865 54.0325 11.2825C53.8365 11.4785 53.5985 11.5765 53.3185 11.5765Z"/>
</svg>
