<svg width="10" height="3" viewBox="0 0 10 3" fill="none" xmlns="http://www.w3.org/2000/svg">
<path d="M1.71744 2.598C1.4281 2.598 1.18544 2.5 0.989438 2.304C0.793438 2.108 0.695438 1.86533 0.695438 1.576C0.695438 1.28667 0.793438 1.044 0.989438 0.848C1.18544 0.652 1.4281 0.554 1.71744 0.554C1.99744 0.554 2.23544 0.652 2.43144 0.848C2.62744 1.044 2.72544 1.28667 2.72544 1.576C2.72544 1.86533 2.62744 2.108 2.43144 2.304C2.23544 2.5 1.99744 2.598 1.71744 2.598ZM5.09439 2.598C4.80506 2.598 4.56239 2.5 4.36639 2.304C4.17039 2.108 4.07239 1.86533 4.07239 1.576C4.07239 1.28667 4.17039 1.044 4.36639 0.848C4.56239 0.652 4.80506 0.554 5.09439 0.554C5.37439 0.554 5.61239 0.652 5.80839 0.848C6.00439 1.044 6.10239 1.28667 6.10239 1.576C6.10239 1.86533 6.00439 2.108 5.80839 2.304C5.61239 2.5 5.37439 2.598 5.09439 2.598ZM8.47134 2.598C8.18201 2.598 7.93934 2.5 7.74334 2.304C7.54734 2.108 7.44934 1.86533 7.44934 1.576C7.44934 1.28667 7.54734 1.044 7.74334 0.848C7.93934 0.652 8.18201 0.554 8.47134 0.554C8.75134 0.554 8.98934 0.652 9.18534 0.848C9.38134 1.044 9.47934 1.28667 9.47934 1.576C9.47934 1.86533 9.38134 2.108 9.18534 2.304C8.98934 2.5 8.75134 2.598 8.47134 2.598Z" fill="#0A0D0F"/>
</svg>
