<svg width="256" height="60" viewBox="0 0 256 60" fill="none" xmlns="http://www.w3.org/2000/svg">
<g clip-path="url(#clip0_9433_129847)">
<g filter="url(#filter0_dd_9433_129847)">
<path d="M0 2C0 0.895432 0.895431 0 2 0H254C255.105 0 256 0.895431 256 2V58C256 59.1046 255.105 60 254 60H2C0.895431 60 0 59.1046 0 58V2Z" fill="#F9F9F9"/>
</g>
<g filter="url(#filter1_d_9433_129847)">
<path d="M236.514 17.4803C236.324 17.2438 236.129 17.0112 235.929 16.7827C232.72 13.1307 228.293 10.7763 223.478 10.1607C218.662 9.54513 213.787 10.7105 209.767 13.4385L215.523 21.9594C217.474 20.635 219.841 20.0692 222.179 20.3681C224.517 20.667 226.666 21.81 228.224 23.583C228.573 23.9804 228.887 24.4034 229.164 24.8471L224.07 29.9534H241V12.9837L236.514 17.4803Z" fill="#1C3AA9"/>
</g>
<g filter="url(#filter2_d_9433_129847)">
<path d="M220.907 10H203.977L208.411 14.4449C205.098 17.1292 202.715 20.8177 201.639 24.9802C200.42 29.6906 200.957 34.6846 203.148 39.0268L212.309 34.3825C211.245 32.2743 210.985 29.8497 211.576 27.5629C212.168 25.276 213.571 23.2838 215.523 21.9593C215.6 21.9071 215.677 21.856 215.756 21.8062L220.907 26.9696V10Z" fill="#4285F4"/>
</g>
<g filter="url(#filter3_d_9433_129847)">
<path d="M201 30.1406H217.93L212.815 35.2677C213.9 36.9516 215.483 38.2654 217.355 39.0161C219.544 39.8936 221.976 39.9413 224.197 39.1502C226.418 38.3592 228.275 36.7837 229.42 34.7189L236.825 42.122C234.49 45.1936 231.303 47.5396 227.635 48.8463C223.06 50.4756 218.05 50.3774 213.542 48.57C210.371 47.2986 207.602 45.2427 205.476 42.6237L201 47.1103V30.1406Z" fill="#ABABAB"/>
</g>
<path d="M186 0H2C0.895432 0 0 0.895431 0 2V58C0 59.1046 0.895432 60 2 60H186V0Z" fill="#4A90E2"/>
<path d="M22.8066 20.6357C22.8066 21.6979 22.5654 22.5464 22.083 23.1812C21.6006 23.8117 20.9531 24.127 20.1406 24.127C19.3874 24.127 18.7843 23.8794 18.3315 23.3843V26.6406H16.7891V17.1318H18.2109L18.2744 17.8301C18.7272 17.2799 19.3429 17.0049 20.1216 17.0049C20.9595 17.0049 21.6154 17.318 22.0894 17.9443C22.5675 18.5664 22.8066 19.4318 22.8066 20.5405V20.6357ZM21.2705 20.5024C21.2705 19.8169 21.133 19.2731 20.8579 18.8711C20.5871 18.4691 20.1978 18.2681 19.6899 18.2681C19.0594 18.2681 18.6066 18.5283 18.3315 19.0488V22.0957C18.6108 22.6289 19.0679 22.8955 19.7026 22.8955C20.1935 22.8955 20.5765 22.6987 20.8516 22.3052C21.1309 21.9074 21.2705 21.3065 21.2705 20.5024Z" fill="white"/>
<path d="M27.7134 18.541C27.5103 18.5072 27.3008 18.4902 27.085 18.4902C26.3783 18.4902 25.9022 18.7611 25.6567 19.3027V24H24.1143V17.1318H25.5869L25.625 17.8999C25.9974 17.3032 26.5137 17.0049 27.1738 17.0049C27.3939 17.0049 27.5758 17.0345 27.7197 17.0938L27.7134 18.541Z" fill="white"/>
<path d="M28.1704 20.5024C28.1704 19.8296 28.3037 19.2244 28.5703 18.687C28.8369 18.1453 29.2114 17.7306 29.6938 17.4429C30.1763 17.1509 30.7306 17.0049 31.3569 17.0049C32.2837 17.0049 33.0348 17.3032 33.6104 17.8999C34.1901 18.4966 34.5033 19.2879 34.5498 20.2739L34.5562 20.6357C34.5562 21.3128 34.425 21.918 34.1626 22.4512C33.9045 22.9844 33.5321 23.397 33.0454 23.689C32.563 23.981 32.0044 24.127 31.3696 24.127C30.4006 24.127 29.624 23.8053 29.04 23.1621C28.4603 22.5146 28.1704 21.6535 28.1704 20.5786V20.5024ZM29.7129 20.6357C29.7129 21.3424 29.8589 21.8968 30.1509 22.2988C30.4429 22.6966 30.8491 22.8955 31.3696 22.8955C31.8901 22.8955 32.2943 22.6924 32.582 22.2861C32.874 21.8799 33.02 21.2853 33.02 20.5024C33.02 19.8084 32.8698 19.2583 32.5693 18.8521C32.2731 18.4458 31.869 18.2427 31.3569 18.2427C30.8534 18.2427 30.4535 18.4437 30.1572 18.8457C29.861 19.2435 29.7129 19.8402 29.7129 20.6357Z" fill="white"/>
<path d="M37.7935 15.4624V17.1318H39.0059V18.2744H37.7935V22.1084C37.7935 22.3708 37.8442 22.5612 37.9458 22.6797C38.0516 22.7939 38.2378 22.8511 38.5044 22.8511C38.6821 22.8511 38.862 22.8299 39.0439 22.7876V23.981C38.6927 24.0783 38.3542 24.127 38.0283 24.127C36.8434 24.127 36.251 23.4731 36.251 22.1655V18.2744H35.1211V17.1318H36.251V15.4624H37.7935Z" fill="white"/>
<path d="M43.2144 24.127C42.2368 24.127 41.4434 23.8201 40.834 23.2065C40.2288 22.5887 39.9263 21.7677 39.9263 20.7437V20.5532C39.9263 19.8677 40.0575 19.2562 40.3198 18.7188C40.5864 18.1771 40.9588 17.756 41.437 17.4556C41.9152 17.1551 42.4484 17.0049 43.0366 17.0049C43.9718 17.0049 44.6934 17.3032 45.2012 17.8999C45.7132 18.4966 45.9692 19.3408 45.9692 20.4326V21.0547H41.4814C41.528 21.6217 41.7163 22.0703 42.0464 22.4004C42.3807 22.7305 42.7996 22.8955 43.3032 22.8955C44.0099 22.8955 44.5854 22.6099 45.0298 22.0386L45.8613 22.832C45.5863 23.2425 45.2181 23.562 44.7568 23.7905C44.2998 24.0148 43.7856 24.127 43.2144 24.127ZM43.0303 18.2427C42.6071 18.2427 42.2643 18.3908 42.002 18.687C41.7438 18.9832 41.5788 19.3958 41.5068 19.9248H44.4458V19.8105C44.4119 19.2943 44.2744 18.9049 44.0332 18.6426C43.792 18.376 43.4577 18.2427 43.0303 18.2427Z" fill="white"/>
<path d="M49.9937 22.8955C50.3787 22.8955 50.6982 22.7834 50.9521 22.5591C51.2061 22.3348 51.3415 22.0576 51.3584 21.7275H52.812C52.7951 22.1549 52.6618 22.5549 52.4121 22.9272C52.1624 23.2954 51.8239 23.5874 51.3965 23.8032C50.9691 24.019 50.5078 24.127 50.0127 24.127C49.0521 24.127 48.2904 23.8159 47.7275 23.1938C47.1647 22.5718 46.8833 21.7127 46.8833 20.6167V20.458C46.8833 19.4128 47.1626 18.577 47.7212 17.9507C48.2798 17.3201 49.0415 17.0049 50.0063 17.0049C50.8231 17.0049 51.4875 17.244 51.9995 17.7222C52.5158 18.1961 52.7866 18.8203 52.812 19.5947H51.3584C51.3415 19.2012 51.2061 18.8774 50.9521 18.6235C50.7025 18.3696 50.383 18.2427 49.9937 18.2427C49.4943 18.2427 49.1092 18.4246 48.8384 18.7886C48.5675 19.1483 48.43 19.6963 48.4258 20.4326V20.6802C48.4258 21.425 48.5591 21.9814 48.8257 22.3496C49.0965 22.7135 49.4858 22.8955 49.9937 22.8955Z" fill="white"/>
<path d="M55.9097 15.4624V17.1318H57.1221V18.2744H55.9097V22.1084C55.9097 22.3708 55.9604 22.5612 56.062 22.6797C56.1678 22.7939 56.354 22.8511 56.6206 22.8511C56.7983 22.8511 56.9782 22.8299 57.1602 22.7876V23.981C56.8089 24.0783 56.4704 24.127 56.1445 24.127C54.9596 24.127 54.3672 23.4731 54.3672 22.1655V18.2744H53.2373V17.1318H54.3672V15.4624H55.9097Z" fill="white"/>
<path d="M61.3306 24.127C60.353 24.127 59.5596 23.8201 58.9502 23.2065C58.3451 22.5887 58.0425 21.7677 58.0425 20.7437V20.5532C58.0425 19.8677 58.1737 19.2562 58.436 18.7188C58.7026 18.1771 59.075 17.756 59.5532 17.4556C60.0314 17.1551 60.5646 17.0049 61.1528 17.0049C62.0881 17.0049 62.8096 17.3032 63.3174 17.8999C63.8294 18.4966 64.0854 19.3408 64.0854 20.4326V21.0547H59.5977C59.6442 21.6217 59.8325 22.0703 60.1626 22.4004C60.4969 22.7305 60.9159 22.8955 61.4194 22.8955C62.1261 22.8955 62.7017 22.6099 63.146 22.0386L63.9775 22.832C63.7025 23.2425 63.3343 23.562 62.873 23.7905C62.416 24.0148 61.9019 24.127 61.3306 24.127ZM61.1465 18.2427C60.7233 18.2427 60.3805 18.3908 60.1182 18.687C59.86 18.9832 59.695 19.3958 59.623 19.9248H62.562V19.8105C62.5282 19.2943 62.3906 18.9049 62.1494 18.6426C61.9082 18.376 61.5739 18.2427 61.1465 18.2427Z" fill="white"/>
<path d="M64.9995 20.5151C64.9995 19.4572 65.245 18.6087 65.7358 17.9697C66.2267 17.3265 66.8848 17.0049 67.71 17.0049C68.4378 17.0049 69.026 17.2588 69.4746 17.7666V14.25H71.0171V24H69.6206L69.5444 23.2891C69.0832 23.8477 68.4674 24.127 67.6973 24.127C66.8932 24.127 66.2415 23.8032 65.7422 23.1558C65.2471 22.5083 64.9995 21.6281 64.9995 20.5151ZM66.542 20.6484C66.542 21.3467 66.6753 21.8926 66.9419 22.2861C67.2127 22.6755 67.5957 22.8701 68.0908 22.8701C68.7214 22.8701 69.1826 22.5887 69.4746 22.0259V19.0933C69.1911 18.5431 68.7341 18.2681 68.1035 18.2681C67.6042 18.2681 67.2191 18.467 66.9482 18.8647C66.6774 19.2583 66.542 19.8529 66.542 20.6484Z" fill="white"/>
<path d="M81.8906 20.6357C81.8906 21.7021 81.6515 22.5506 81.1733 23.1812C80.6994 23.8117 80.0456 24.127 79.2119 24.127C78.4079 24.127 77.7816 23.8371 77.333 23.2573L77.2568 24H75.8604V14.25H77.4028V17.792C77.8472 17.2673 78.446 17.0049 79.1992 17.0049C80.0371 17.0049 80.6951 17.3159 81.1733 17.938C81.6515 18.5601 81.8906 19.4297 81.8906 20.5469V20.6357ZM80.3481 20.5024C80.3481 19.7576 80.217 19.1991 79.9546 18.8267C79.6922 18.4543 79.3114 18.2681 78.812 18.2681C78.1434 18.2681 77.6737 18.5601 77.4028 19.144V21.9751C77.6779 22.5718 78.1519 22.8701 78.8247 22.8701C79.3071 22.8701 79.6795 22.6903 79.9419 22.3306C80.2043 21.9709 80.3397 21.4271 80.3481 20.6992V20.5024Z" fill="white"/>
<path d="M85.5151 21.791L86.9116 17.1318H88.5557L85.8262 25.041C85.4072 26.1963 84.6963 26.7739 83.6934 26.7739C83.4691 26.7739 83.2215 26.7358 82.9507 26.6597V25.4663L83.2427 25.4854C83.632 25.4854 83.924 25.4134 84.1187 25.2695C84.3175 25.1299 84.4741 24.8929 84.5884 24.5586L84.8105 23.9683L82.3984 17.1318H84.0615L85.5151 21.791Z" fill="white"/>
<path d="M96.4585 18.8521C96.2088 18.8182 95.9888 18.8013 95.7983 18.8013C95.1043 18.8013 94.6494 19.0361 94.4336 19.5059V24H92.5991V17.1318H94.332L94.3828 17.9507C94.751 17.3201 95.2609 17.0049 95.9126 17.0049C96.1157 17.0049 96.3062 17.0324 96.4839 17.0874L96.4585 18.8521Z" fill="white"/>
<path d="M100.381 24.127C99.3742 24.127 98.5532 23.818 97.9185 23.2002C97.2879 22.5824 96.9727 21.7593 96.9727 20.731V20.5532C96.9727 19.8634 97.106 19.2477 97.3726 18.7061C97.6392 18.1602 98.0158 17.7412 98.5024 17.4492C98.9933 17.153 99.5519 17.0049 100.178 17.0049C101.118 17.0049 101.856 17.3011 102.394 17.8936C102.935 18.486 103.206 19.326 103.206 20.4136V21.1626H98.8325C98.8918 21.6112 99.0695 21.9709 99.3657 22.2417C99.6662 22.5125 100.045 22.6479 100.502 22.6479C101.209 22.6479 101.761 22.3919 102.159 21.8799L103.06 22.8892C102.785 23.2785 102.413 23.5832 101.943 23.8032C101.473 24.019 100.953 24.127 100.381 24.127ZM100.172 18.4902C99.8079 18.4902 99.5117 18.613 99.2832 18.8584C99.0589 19.1038 98.915 19.4551 98.8516 19.9121H101.403V19.7661C101.395 19.3599 101.285 19.0467 101.073 18.8267C100.862 18.6024 100.561 18.4902 100.172 18.4902Z" fill="white"/>
<path d="M111.629 20.9214C111.557 21.9159 111.189 22.6987 110.525 23.27C109.865 23.8413 108.993 24.127 107.91 24.127C106.725 24.127 105.792 23.7292 105.11 22.9336C104.433 22.1338 104.095 21.0378 104.095 19.6455V19.0806C104.095 18.1919 104.251 17.409 104.564 16.7319C104.878 16.0549 105.324 15.5365 105.904 15.1768C106.488 14.8128 107.165 14.6309 107.935 14.6309C109.001 14.6309 109.861 14.9165 110.512 15.4878C111.164 16.0591 111.541 16.861 111.642 17.8936H109.738C109.691 17.2969 109.524 16.8652 109.236 16.5986C108.953 16.3278 108.519 16.1924 107.935 16.1924C107.3 16.1924 106.824 16.4209 106.507 16.8779C106.194 17.3307 106.033 18.0353 106.024 18.9917V19.6899C106.024 20.6886 106.175 21.4186 106.475 21.8799C106.78 22.3411 107.258 22.5718 107.91 22.5718C108.498 22.5718 108.936 22.4385 109.224 22.1719C109.516 21.901 109.683 21.4842 109.725 20.9214H111.629Z" fill="white"/>
<path d="M118.098 22.0957H114.759L114.124 24H112.099L115.54 14.7578H117.304L120.764 24H118.739L118.098 22.0957ZM115.273 20.5532H117.583L116.422 17.0938L115.273 20.5532Z" fill="white"/>
<path d="M123.531 20.7437V24H121.627V14.7578H125.232C125.926 14.7578 126.536 14.8848 127.061 15.1387C127.59 15.3926 127.996 15.7544 128.279 16.2241C128.563 16.6896 128.705 17.2207 128.705 17.8174C128.705 18.723 128.394 19.4382 127.771 19.9629C127.154 20.4834 126.297 20.7437 125.201 20.7437H123.531ZM123.531 19.2012H125.232C125.736 19.2012 126.119 19.0827 126.381 18.8457C126.648 18.6087 126.781 18.2702 126.781 17.8301C126.781 17.3773 126.648 17.0112 126.381 16.7319C126.115 16.4526 125.747 16.3088 125.277 16.3003H123.531V19.2012Z" fill="white"/>
<path d="M136.976 16.3003H134.145V24H132.24V16.3003H129.447V14.7578H136.976V16.3003Z" fill="white"/>
<path d="M145.145 20.9214C145.073 21.9159 144.705 22.6987 144.041 23.27C143.38 23.8413 142.509 24.127 141.425 24.127C140.24 24.127 139.307 23.7292 138.626 22.9336C137.949 22.1338 137.61 21.0378 137.61 19.6455V19.0806C137.61 18.1919 137.767 17.409 138.08 16.7319C138.393 16.0549 138.84 15.5365 139.419 15.1768C140.003 14.8128 140.681 14.6309 141.451 14.6309C142.517 14.6309 143.376 14.9165 144.028 15.4878C144.68 16.0591 145.056 16.861 145.158 17.8936H143.253C143.207 17.2969 143.04 16.8652 142.752 16.5986C142.468 16.3278 142.035 16.1924 141.451 16.1924C140.816 16.1924 140.34 16.4209 140.022 16.8779C139.709 17.3307 139.549 18.0353 139.54 18.9917V19.6899C139.54 20.6886 139.69 21.4186 139.991 21.8799C140.295 22.3411 140.774 22.5718 141.425 22.5718C142.014 22.5718 142.451 22.4385 142.739 22.1719C143.031 21.901 143.198 21.4842 143.241 20.9214H145.145Z" fill="white"/>
<path d="M153.917 24H152.013V20.0391H148.3V24H146.396V14.7578H148.3V18.5029H152.013V14.7578H153.917V24Z" fill="white"/>
<path d="M160.919 22.0957H157.58L156.945 24H154.92L158.361 14.7578H160.125L163.585 24H161.56L160.919 22.0957ZM158.094 20.5532H160.405L159.243 17.0938L158.094 20.5532Z" fill="white"/>
<path d="M18.7617 40.2168V43H17.8242V35.8906H20.4463C21.2243 35.8906 21.833 36.0892 22.2725 36.4863C22.7152 36.8835 22.9365 37.4092 22.9365 38.0635C22.9365 38.7536 22.7201 39.2858 22.2871 39.6602C21.8574 40.0312 21.2406 40.2168 20.4365 40.2168H18.7617ZM18.7617 39.4502H20.4463C20.9476 39.4502 21.3317 39.333 21.5986 39.0986C21.8656 38.861 21.999 38.5192 21.999 38.0732C21.999 37.6501 21.8656 37.3115 21.5986 37.0576C21.3317 36.8037 20.9655 36.6719 20.5 36.6621H18.7617V39.4502Z" fill="white"/>
<path d="M26.5449 38.5273C26.4082 38.5046 26.2601 38.4932 26.1006 38.4932C25.5081 38.4932 25.1061 38.7454 24.8945 39.25V43H23.9912V37.7168H24.8701L24.8848 38.3271C25.181 37.8551 25.6009 37.6191 26.1445 37.6191C26.3203 37.6191 26.4538 37.6419 26.5449 37.6875V38.5273Z" fill="white"/>
<path d="M28.3613 43H27.458V37.7168H28.3613V43ZM27.3848 36.3154C27.3848 36.1689 27.4287 36.0452 27.5166 35.9443C27.6077 35.8434 27.7412 35.793 27.917 35.793C28.0928 35.793 28.2262 35.8434 28.3174 35.9443C28.4085 36.0452 28.4541 36.1689 28.4541 36.3154C28.4541 36.4619 28.4085 36.584 28.3174 36.6816C28.2262 36.7793 28.0928 36.8281 27.917 36.8281C27.7412 36.8281 27.6077 36.7793 27.5166 36.6816C27.4287 36.584 27.3848 36.4619 27.3848 36.3154Z" fill="white"/>
<path d="M31.5547 41.7744L32.8633 37.7168H33.7861L31.8916 43H31.2031L29.2891 37.7168H30.2119L31.5547 41.7744Z" fill="white"/>
<path d="M37.8389 43C37.7868 42.8958 37.7445 42.7103 37.7119 42.4434C37.292 42.8796 36.7907 43.0977 36.208 43.0977C35.6872 43.0977 35.2591 42.9512 34.9238 42.6582C34.5918 42.362 34.4258 41.9876 34.4258 41.5352C34.4258 40.985 34.6341 40.5586 35.0508 40.2559C35.4707 39.9499 36.0599 39.7969 36.8184 39.7969H37.6973V39.3818C37.6973 39.0661 37.6029 38.8154 37.4141 38.6299C37.2253 38.4411 36.9469 38.3467 36.5791 38.3467C36.2568 38.3467 35.9867 38.4281 35.7686 38.5908C35.5505 38.7536 35.4414 38.9505 35.4414 39.1816H34.5332C34.5332 38.918 34.626 38.6641 34.8115 38.4199C35.0003 38.1725 35.2542 37.9772 35.5732 37.834C35.8955 37.6908 36.2487 37.6191 36.6328 37.6191C37.2415 37.6191 37.7184 37.7721 38.0635 38.0781C38.4085 38.3809 38.5876 38.7992 38.6006 39.333V41.7646C38.6006 42.2497 38.6624 42.6354 38.7861 42.9219V43H37.8389ZM36.3398 42.3115C36.623 42.3115 36.8916 42.2383 37.1455 42.0918C37.3994 41.9453 37.5833 41.7549 37.6973 41.5205V40.4365H36.9893C35.8825 40.4365 35.3291 40.7604 35.3291 41.4082C35.3291 41.6914 35.4235 41.9128 35.6123 42.0723C35.8011 42.2318 36.0436 42.3115 36.3398 42.3115Z" fill="white"/>
<path d="M42.1357 42.3604C42.458 42.3604 42.7396 42.2627 42.9805 42.0674C43.2214 41.8721 43.3548 41.6279 43.3809 41.335H44.2354C44.2191 41.6377 44.1149 41.9258 43.9229 42.1992C43.7308 42.4727 43.4736 42.6908 43.1514 42.8535C42.8324 43.0163 42.4938 43.0977 42.1357 43.0977C41.4163 43.0977 40.8434 42.8584 40.417 42.3799C39.9938 41.8981 39.7822 41.2406 39.7822 40.4072V40.2559C39.7822 39.7415 39.8766 39.2842 40.0654 38.8838C40.2542 38.4834 40.5244 38.1725 40.876 37.9512C41.2308 37.7298 41.6491 37.6191 42.1309 37.6191C42.7233 37.6191 43.2148 37.7965 43.6055 38.1514C43.9993 38.5062 44.2093 38.9668 44.2354 39.5332H43.3809C43.3548 39.1914 43.2246 38.9115 42.9902 38.6934C42.7591 38.472 42.4727 38.3613 42.1309 38.3613C41.6719 38.3613 41.3154 38.5273 41.0615 38.8594C40.8109 39.1882 40.6855 39.665 40.6855 40.29V40.4609C40.6855 41.0697 40.8109 41.5384 41.0615 41.8672C41.3122 42.196 41.6702 42.3604 42.1357 42.3604Z" fill="white"/>
<path d="M46.9795 41.6768L48.21 37.7168H49.1768L47.0527 43.8154C46.724 44.6943 46.2015 45.1338 45.4854 45.1338L45.3145 45.1191L44.9775 45.0557V44.3232L45.2217 44.3428C45.5277 44.3428 45.7653 44.2809 45.9346 44.1572C46.1071 44.0335 46.2487 43.8073 46.3594 43.4785L46.5596 42.9414L44.6748 37.7168H45.6611L46.9795 41.6768Z" fill="white"/>
<path d="M54.3477 40.3486H51.9648V39.6113H54.3477V40.3486Z" fill="white"/>
<path d="M62.5703 36.6621H60.2852V43H59.3525V36.6621H57.0723V35.8906H62.5703V36.6621Z" fill="white"/>
<path d="M65.1875 43.0977C64.4714 43.0977 63.8887 42.8633 63.4395 42.3945C62.9902 41.9225 62.7656 41.2926 62.7656 40.5049V40.3389C62.7656 39.8148 62.8649 39.3477 63.0635 38.9375C63.2653 38.5241 63.5452 38.2018 63.9033 37.9707C64.2646 37.7363 64.6553 37.6191 65.0752 37.6191C65.762 37.6191 66.2959 37.8454 66.6768 38.2979C67.0576 38.7503 67.248 39.3981 67.248 40.2412V40.6172H63.6689C63.682 41.138 63.8333 41.5596 64.123 41.8818C64.416 42.2008 64.7871 42.3604 65.2363 42.3604C65.5553 42.3604 65.8255 42.2952 66.0469 42.165C66.2682 42.0348 66.4619 41.8623 66.6279 41.6475L67.1797 42.0771C66.737 42.7575 66.0729 43.0977 65.1875 43.0977ZM65.0752 38.3613C64.7106 38.3613 64.4046 38.4948 64.1572 38.7617C63.9098 39.0254 63.7568 39.3965 63.6982 39.875H66.3447V39.8066C66.3187 39.3477 66.195 38.9928 65.9736 38.7422C65.7523 38.4883 65.4528 38.3613 65.0752 38.3613Z" fill="white"/>
<path d="M70.8516 38.5273C70.7148 38.5046 70.5667 38.4932 70.4072 38.4932C69.8148 38.4932 69.4128 38.7454 69.2012 39.25V43H68.2979V37.7168H69.1768L69.1914 38.3271C69.4876 37.8551 69.9076 37.6191 70.4512 37.6191C70.627 37.6191 70.7604 37.6419 70.8516 37.6875V38.5273Z" fill="white"/>
<path d="M72.5361 37.7168L72.5605 38.3027C72.9479 37.847 73.4704 37.6191 74.1279 37.6191C74.8669 37.6191 75.3698 37.9023 75.6367 38.4688C75.8125 38.2148 76.0404 38.0098 76.3203 37.8535C76.6035 37.6973 76.9372 37.6191 77.3213 37.6191C78.4801 37.6191 79.0693 38.2327 79.0889 39.46V43H78.1855V39.5137C78.1855 39.1361 78.0993 38.8545 77.9268 38.6689C77.7542 38.4801 77.4645 38.3857 77.0576 38.3857C76.7223 38.3857 76.444 38.4867 76.2227 38.6885C76.0013 38.887 75.8727 39.1556 75.8369 39.4941V43H74.9287V39.5381C74.9287 38.7699 74.5527 38.3857 73.8008 38.3857C73.2083 38.3857 72.8031 38.638 72.585 39.1426V43H71.6816V37.7168H72.5361Z" fill="white"/>
<path d="M83.5322 41.5986C83.5322 41.3545 83.4395 41.1657 83.2539 41.0322C83.0716 40.8955 82.751 40.7783 82.292 40.6807C81.8363 40.583 81.4733 40.4658 81.2031 40.3291C80.9362 40.1924 80.7376 40.0296 80.6074 39.8408C80.4805 39.652 80.417 39.4274 80.417 39.167C80.417 38.734 80.5993 38.3678 80.9639 38.0684C81.3317 37.7689 81.8005 37.6191 82.3701 37.6191C82.9691 37.6191 83.4541 37.7738 83.8252 38.083C84.1995 38.3923 84.3867 38.7878 84.3867 39.2695H83.4785C83.4785 39.0221 83.3727 38.8089 83.1611 38.6299C82.9528 38.4508 82.6891 38.3613 82.3701 38.3613C82.0413 38.3613 81.7842 38.4329 81.5986 38.5762C81.4131 38.7194 81.3203 38.9066 81.3203 39.1377C81.3203 39.3558 81.4066 39.5202 81.5791 39.6309C81.7516 39.7415 82.0625 39.8473 82.5117 39.9482C82.9642 40.0492 83.3304 40.1696 83.6104 40.3096C83.8903 40.4495 84.097 40.6188 84.2305 40.8174C84.3672 41.0127 84.4355 41.252 84.4355 41.5352C84.4355 42.0072 84.2467 42.3864 83.8691 42.6729C83.4915 42.9561 83.0016 43.0977 82.3994 43.0977C81.9762 43.0977 81.6019 43.0228 81.2764 42.873C80.9508 42.7233 80.6953 42.515 80.5098 42.248C80.3275 41.9779 80.2363 41.6865 80.2363 41.374H81.1396C81.1559 41.6768 81.2764 41.9176 81.501 42.0967C81.7288 42.2725 82.0283 42.3604 82.3994 42.3604C82.7412 42.3604 83.0146 42.292 83.2197 42.1553C83.4281 42.0153 83.5322 41.8298 83.5322 41.5986Z" fill="white"/>
</g>
<defs>
<filter id="filter0_dd_9433_129847" x="-5" y="-5" width="266" height="70" filterUnits="userSpaceOnUse" color-interpolation-filters="sRGB">
<feFlood flood-opacity="0" result="BackgroundImageFix"/>
<feColorMatrix in="SourceAlpha" type="matrix" values="0 0 0 0 0 0 0 0 0 0 0 0 0 0 0 0 0 0 127 0" result="hardAlpha"/>
<feOffset/>
<feGaussianBlur stdDeviation="2"/>
<feColorMatrix type="matrix" values="0 0 0 0 0 0 0 0 0 0 0 0 0 0 0 0 0 0 0.08 0"/>
<feBlend mode="normal" in2="BackgroundImageFix" result="effect1_dropShadow_9433_129847"/>
<feColorMatrix in="SourceAlpha" type="matrix" values="0 0 0 0 0 0 0 0 0 0 0 0 0 0 0 0 0 0 127 0" result="hardAlpha"/>
<feOffset/>
<feGaussianBlur stdDeviation="2.5"/>
<feColorMatrix type="matrix" values="0 0 0 0 0.501961 0 0 0 0 0.501961 0 0 0 0 0.501961 0 0 0 1 0"/>
<feBlend mode="normal" in2="effect1_dropShadow_9433_129847" result="effect2_dropShadow_9433_129847"/>
<feBlend mode="normal" in="SourceGraphic" in2="effect2_dropShadow_9433_129847" result="shape"/>
</filter>
<filter id="filter1_d_9433_129847" x="208.767" y="9" width="33.2327" height="21.9531" filterUnits="userSpaceOnUse" color-interpolation-filters="sRGB">
<feFlood flood-opacity="0" result="BackgroundImageFix"/>
<feColorMatrix in="SourceAlpha" type="matrix" values="0 0 0 0 0 0 0 0 0 0 0 0 0 0 0 0 0 0 127 0" result="hardAlpha"/>
<feOffset/>
<feGaussianBlur stdDeviation="0.5"/>
<feColorMatrix type="matrix" values="0 0 0 0 0 0 0 0 0 0 0 0 0 0 0 0 0 0 0.38 0"/>
<feBlend mode="normal" in2="BackgroundImageFix" result="effect1_dropShadow_9433_129847"/>
<feBlend mode="normal" in="SourceGraphic" in2="effect1_dropShadow_9433_129847" result="shape"/>
</filter>
<filter id="filter2_d_9433_129847" x="200" y="9" width="21.907" height="31.0273" filterUnits="userSpaceOnUse" color-interpolation-filters="sRGB">
<feFlood flood-opacity="0" result="BackgroundImageFix"/>
<feColorMatrix in="SourceAlpha" type="matrix" values="0 0 0 0 0 0 0 0 0 0 0 0 0 0 0 0 0 0 127 0" result="hardAlpha"/>
<feOffset/>
<feGaussianBlur stdDeviation="0.5"/>
<feColorMatrix type="matrix" values="0 0 0 0 0 0 0 0 0 0 0 0 0 0 0 0 0 0 0.38 0"/>
<feBlend mode="normal" in2="BackgroundImageFix" result="effect1_dropShadow_9433_129847"/>
<feBlend mode="normal" in="SourceGraphic" in2="effect1_dropShadow_9433_129847" result="shape"/>
</filter>
<filter id="filter3_d_9433_129847" x="200" y="29.1406" width="37.825" height="21.8594" filterUnits="userSpaceOnUse" color-interpolation-filters="sRGB">
<feFlood flood-opacity="0" result="BackgroundImageFix"/>
<feColorMatrix in="SourceAlpha" type="matrix" values="0 0 0 0 0 0 0 0 0 0 0 0 0 0 0 0 0 0 127 0" result="hardAlpha"/>
<feOffset/>
<feGaussianBlur stdDeviation="0.5"/>
<feColorMatrix type="matrix" values="0 0 0 0 0 0 0 0 0 0 0 0 0 0 0 0 0 0 0.38 0"/>
<feBlend mode="normal" in2="BackgroundImageFix" result="effect1_dropShadow_9433_129847"/>
<feBlend mode="normal" in="SourceGraphic" in2="effect1_dropShadow_9433_129847" result="shape"/>
</filter>
<clipPath id="clip0_9433_129847">
<rect width="256" height="60" fill="white"/>
</clipPath>
</defs>
</svg>
