<svg width="24" height="25" viewBox="0 0 24 25" fill="none" xmlns="http://www.w3.org/2000/svg">
<path fill-rule="evenodd" clip-rule="evenodd" d="M16.6329 5.66176C17.6304 6.25209 18.7907 6.43529 19.9103 6.23173C22.1291 5.94675 23.7372 8.3691 22.5972 10.303C21.498 12.2571 18.5871 12.0536 17.7321 9.99759C15.7169 4.78645 8.26651 4.78645 6.23091 9.99759C5.39631 12.0536 2.46503 12.2571 1.3658 10.303C0.246208 8.3691 1.85434 5.94675 4.0528 6.23173C5.17239 6.43529 6.33269 6.23173 7.33016 5.66176C8.34792 5.09179 9.08075 4.19612 9.46757 3.11724C10.3632 0.89842 13.5998 0.89842 14.4955 3.11724C14.8823 4.17576 15.6355 5.09179 16.6329 5.66176ZM11.9917 8.47092C14.2105 8.47092 15.5134 11.0562 14.1495 12.8475C13.4166 13.7025 13.0095 14.8016 13.0095 15.962C13.0095 17.1019 13.4166 18.2011 14.1495 19.0764C15.5337 20.8678 14.2105 23.4734 11.9917 23.453C9.7729 23.453 8.47008 20.8678 9.83398 19.0764C10.5668 18.2215 10.9739 17.1223 10.9739 15.962C10.9739 14.822 10.5668 13.7228 9.83398 12.8475C8.44974 11.0562 9.7729 8.45058 11.9917 8.47092Z" fill="#FF5500"/>
</svg>
