<svg width="186" height="131" viewBox="0 0 186 131" fill="none" xmlns="http://www.w3.org/2000/svg">
<path fill-rule="evenodd" clip-rule="evenodd" d="M92.8594 25.251C98.7523 28.7385 105.607 29.8208 112.221 28.6182C125.33 26.9346 134.83 41.2453 128.096 52.6703C121.602 64.2151 104.405 63.0124 99.3535 50.8661C87.4478 20.0798 43.4326 20.0798 31.4068 50.8661C26.4761 63.0124 9.15873 64.2151 2.6647 52.6703C-3.94958 41.2453 5.55092 26.9346 18.539 28.6182C25.1533 29.8208 32.0081 28.6182 37.9009 25.251C43.9137 21.8836 48.243 16.5922 50.5283 10.2184C55.8196 -2.88987 74.9407 -2.88987 80.2324 10.2184C82.5173 16.472 86.9668 21.8836 92.8594 25.251ZM65.4404 41.8469C78.5487 41.8469 86.2455 57.1199 78.1879 67.7027C73.8585 72.7537 71.4535 79.2474 71.4535 86.1024C71.4535 92.8368 73.8585 99.3308 78.1879 104.502C86.3657 115.085 78.5487 130.478 65.4404 130.358C52.3321 130.358 44.6353 115.085 52.6929 104.502C57.0223 99.4514 59.4273 92.9573 59.4273 86.1024C59.4273 79.368 57.0223 72.8739 52.6929 67.7027C44.5152 57.1199 52.3321 41.7267 65.4404 41.8469Z" fill="url(#paint0_linear_8985_210925)"/>
<path fill-rule="evenodd" clip-rule="evenodd" d="M131.218 105.495C125.325 102.007 118.47 100.925 111.856 102.127C98.7474 103.811 89.2471 89.5003 95.9815 78.0753C102.476 66.5305 119.673 67.7332 124.724 79.8795C136.629 110.666 180.645 110.666 192.67 79.8795C197.601 67.7332 214.918 66.5305 221.412 78.0753C228.027 89.5003 218.526 103.811 205.538 102.127C198.924 100.925 192.069 102.127 186.176 105.495C180.163 108.862 175.834 114.153 173.549 120.527C168.258 133.635 149.136 133.635 143.845 120.527C141.56 114.274 137.11 108.862 131.218 105.495ZM158.637 88.8988C145.528 88.8988 137.832 73.6258 145.889 63.043C150.219 57.9919 152.624 51.4982 152.624 44.6433C152.624 37.9089 150.219 31.4148 145.889 26.2435C137.711 15.6608 145.528 0.267226 158.637 0.387739C171.745 0.387738 179.442 15.6608 171.384 26.2435C167.055 31.2942 164.65 37.7883 164.65 44.6433C164.65 51.3777 167.055 57.8717 171.384 63.043C179.562 73.6257 171.745 89.0189 158.637 88.8988Z" fill="url(#paint1_linear_8985_210925)"/>
<defs>
<linearGradient id="paint0_linear_8985_210925" x1="135.26" y1="69.2892" x2="-12.3274" y2="40.8832" gradientUnits="userSpaceOnUse">
<stop stop-color="#EBECEC"/>
<stop offset="1" stop-color="#EBECEC" stop-opacity="0"/>
</linearGradient>
<linearGradient id="paint1_linear_8985_210925" x1="158.665" y1="130.358" x2="158.665" y2="0.387037" gradientUnits="userSpaceOnUse">
<stop stop-color="#EBECEC"/>
<stop offset="1" stop-color="#EBECEC"/>
</linearGradient>
</defs>
</svg>
