<svg width="282" height="146" viewBox="0 0 282 146" fill="none" xmlns="http://www.w3.org/2000/svg">
<mask id="mask0_8269_78816" style="mask-type:alpha" maskUnits="userSpaceOnUse" x="145" y="2" width="127" height="142">
<path d="M215.979 4.51459C211.528 1.94515 206.045 1.94515 201.595 4.51459L152.916 32.6194C148.465 35.1888 145.724 39.9374 145.724 45.0763V101.286C145.724 106.425 148.465 111.173 152.916 113.743L201.595 141.848C206.045 144.417 211.528 144.417 215.979 141.848L264.658 113.743C269.108 111.173 271.85 106.425 271.85 101.286V45.0763C271.85 39.9374 269.108 35.1888 264.658 32.6194L215.979 4.51459Z" fill="#EEEFF1"/>
</mask>
<g mask="url(#mask0_8269_78816)">
<path d="M263.408 -88.4736L368.428 93.4263" stroke="#D8D9D9" stroke-width="0.714067"/>
<path d="M258.461 -85.6173L363.481 96.2826" stroke="#D8D9D9" stroke-width="0.714067"/>
<path d="M253.514 -82.7611L358.534 99.1388" stroke="#D8D9D9" stroke-width="0.714067"/>
<path d="M248.566 -79.9048L353.586 101.995" stroke="#D8D9D9" stroke-width="0.714067"/>
<path d="M243.619 -77.0486L348.639 104.851" stroke="#D8D9D9" stroke-width="0.714067"/>
<path d="M238.672 -74.1923L343.692 107.708" stroke="#D8D9D9" stroke-width="0.714067"/>
<path d="M233.725 -71.3361L338.745 110.564" stroke="#D8D9D9" stroke-width="0.714067"/>
<path d="M228.777 -68.4797L333.797 113.42" stroke="#D8D9D9" stroke-width="0.714067"/>
<path d="M223.83 -65.6235L328.85 116.276" stroke="#D8D9D9" stroke-width="0.714067"/>
<path d="M218.883 -62.7672L323.903 119.133" stroke="#D8D9D9" stroke-width="0.714067"/>
<path d="M213.936 -59.911L318.956 121.989" stroke="#D8D9D9" stroke-width="0.714067"/>
<path d="M208.988 -57.0547L314.008 124.845" stroke="#D8D9D9" stroke-width="0.714067"/>
<path d="M204.041 -54.1984L309.061 127.702" stroke="#D8D9D9" stroke-width="0.714067"/>
<path d="M199.094 -51.3422L304.114 130.558" stroke="#D8D9D9" stroke-width="0.714067"/>
<path d="M194.146 -48.4858L299.166 133.414" stroke="#D8D9D9" stroke-width="0.714067"/>
<path d="M189.201 -45.6296L294.221 136.27" stroke="#D8D9D9" stroke-width="0.714067"/>
<path d="M184.254 -42.7734L289.274 139.126" stroke="#D8D9D9" stroke-width="0.714067"/>
<path d="M179.307 -39.917L284.327 141.983" stroke="#D8D9D9" stroke-width="0.714067"/>
<path d="M174.359 -37.0608L279.379 144.839" stroke="#D8D9D9" stroke-width="0.714067"/>
<path d="M169.412 -34.2046L274.432 147.695" stroke="#D8D9D9" stroke-width="0.714067"/>
<path d="M164.465 -31.3484L269.485 150.552" stroke="#D8D9D9" stroke-width="0.714067"/>
<path d="M159.518 -28.4919L264.538 153.408" stroke="#D8D9D9" stroke-width="0.714067"/>
<path d="M154.57 -25.6357L259.59 156.264" stroke="#D8D9D9" stroke-width="0.714067"/>
<path d="M149.623 -22.7795L254.643 159.12" stroke="#D8D9D9" stroke-width="0.714067"/>
<path d="M144.676 -19.9233L249.696 161.977" stroke="#D8D9D9" stroke-width="0.714067"/>
<path d="M139.729 -17.0669L244.748 164.833" stroke="#D8D9D9" stroke-width="0.714067"/>
<path d="M134.781 -14.2107L239.801 167.689" stroke="#D8D9D9" stroke-width="0.714067"/>
<path d="M129.834 -11.3545L234.854 170.545" stroke="#D8D9D9" stroke-width="0.714067"/>
<path d="M124.887 -8.49805L229.907 173.402" stroke="#D8D9D9" stroke-width="0.714067"/>
<path d="M119.939 -5.64185L224.959 176.258" stroke="#D8D9D9" stroke-width="0.714067"/>
<path d="M114.992 -2.78564L220.012 179.114" stroke="#D8D9D9" stroke-width="0.714067"/>
<path d="M110.045 0.0705566L215.065 181.97" stroke="#D8D9D9" stroke-width="0.714067"/>
<path d="M105.098 2.927L210.118 184.827" stroke="#D8D9D9" stroke-width="0.714067"/>
<path d="M100.15 5.7832L205.17 187.683" stroke="#D8D9D9" stroke-width="0.714067"/>
<path d="M95.2031 8.6394L200.223 190.539" stroke="#D8D9D9" stroke-width="0.714067"/>
<path d="M90.2559 11.4958L195.276 193.396" stroke="#D8D9D9" stroke-width="0.714067"/>
<path d="M85.3086 14.3521L190.329 196.252" stroke="#D8D9D9" stroke-width="0.714067"/>
<path d="M80.3613 17.2083L185.381 199.108" stroke="#D8D9D9" stroke-width="0.714067"/>
<path d="M75.4141 20.0645L180.434 201.964" stroke="#D8D9D9" stroke-width="0.714067"/>
<path d="M70.4668 22.9209L175.487 204.821" stroke="#D8D9D9" stroke-width="0.714067"/>
<path d="M65.5195 25.7771L170.539 207.677" stroke="#D8D9D9" stroke-width="0.714067"/>
<path d="M60.5723 28.6333L165.592 210.533" stroke="#D8D9D9" stroke-width="0.714067"/>
<path d="M55.625 31.4897L160.645 213.39" stroke="#D8D9D9" stroke-width="0.714067"/>
<path d="M50.6777 34.3459L155.698 216.246" stroke="#D8D9D9" stroke-width="0.714067"/>
<path d="M45.7305 37.2021L150.75 219.102" stroke="#D8D9D9" stroke-width="0.714067"/>
<path d="M40.7832 40.0583L145.803 221.958" stroke="#D8D9D9" stroke-width="0.714067"/>
</g>
<path d="M80.3009 4.51459C75.8505 1.94515 70.3674 1.94515 65.917 4.51459L17.2381 32.6194C12.7876 35.1888 10.0461 39.9374 10.0461 45.0763V101.286C10.0461 106.425 12.7876 111.173 17.2381 113.743L65.917 141.848C70.3674 144.417 75.8505 144.417 80.301 141.848L128.98 113.743C133.43 111.173 136.172 106.425 136.172 101.286V45.0763C136.172 39.9374 133.43 35.1888 128.98 32.6194L80.3009 4.51459Z" fill="#EBECEC"/>
</svg>
