<svg width="536" height="389" viewBox="0 0 536 389" fill="none" xmlns="http://www.w3.org/2000/svg">
<g clip-path="url(#clip0_9684_112908)">
<rect width="536" height="389" rx="16" fill="url(#paint0_linear_9684_112908)"/>
<mask id="mask0_9684_112908" style="mask-type:alpha" maskUnits="userSpaceOnUse" x="-6" y="-3" width="553" height="430">
<path d="M546.869 426.906L475.218 426.906L-1.00147 426.906L-5.90627 -2.48981L546.869 -2.4898L546.869 426.906Z" fill="url(#paint1_radial_9684_112908)"/>
</mask>
<g mask="url(#mask0_9684_112908)">
<path d="M29 -84V508" stroke="#181E22" stroke-width="0.5"/>
<path d="M74 -84V508" stroke="#181E22" stroke-width="0.5"/>
<path d="M119 -84V508" stroke="#181E22" stroke-width="0.5"/>
<path d="M164 -84V508" stroke="#181E22" stroke-width="0.5"/>
<path d="M209 -84V508" stroke="#181E22" stroke-width="0.5"/>
<path d="M254 -84V508" stroke="#181E22" stroke-width="0.5"/>
<path d="M299 -84V508" stroke="#181E22" stroke-width="0.5"/>
<path d="M344 -84V508" stroke="#181E22" stroke-width="0.5"/>
<path d="M389 -84V508" stroke="#181E22" stroke-width="0.5"/>
<path d="M434 -84V508" stroke="#181E22" stroke-width="0.5"/>
<path d="M479 -84V508" stroke="#181E22" stroke-width="0.5"/>
<path d="M524 -84V508" stroke="#181E22" stroke-width="0.5"/>
</g>
<g opacity="0.4">
<path d="M463.125 91.2802H475.063C479.481 91.2802 483.063 87.6985 483.063 83.2802V65.9922C483.063 61.5739 486.644 57.9922 491.063 57.9922H543.305" stroke="url(#paint2_linear_9684_112908)" stroke-linecap="round"/>
<path d="M526.291 127.055H491.368C486.949 127.055 483.368 123.473 483.368 119.055V99.2734C483.368 94.8552 479.786 91.2734 475.368 91.2734H463.126" stroke="url(#paint3_linear_9684_112908)" stroke-linecap="round"/>
<path d="M519.977 161.891H463.242" stroke="url(#paint4_linear_9684_112908)" stroke-linecap="round"/>
</g>
<g opacity="0.4">
<path d="M463.125 251.28H475.063C479.481 251.28 483.063 247.698 483.063 243.28V225.992C483.063 221.574 486.644 217.992 491.063 217.992H543.305" stroke="url(#paint5_linear_9684_112908)" stroke-linecap="round"/>
<path d="M526.291 287.055H491.368C486.949 287.055 483.368 283.473 483.368 279.055V259.273C483.368 254.855 479.786 251.273 475.368 251.273H463.126" stroke="url(#paint6_linear_9684_112908)" stroke-linecap="round"/>
<path d="M519.859 323H463.125" stroke="url(#paint7_linear_9684_112908)" stroke-linecap="round"/>
</g>
<path d="M112.926 204.998H137.952C142.37 204.998 145.952 201.417 145.952 196.998V133.998C145.952 129.58 149.534 125.998 153.952 125.998H236.483" stroke="#33373A" stroke-linecap="round"/>
<path d="M236.48 284.998H153.373C148.954 284.998 145.373 281.417 145.373 276.998V212.998C145.373 208.58 141.791 204.998 137.373 204.998H105.48" stroke="#33373A" stroke-linecap="round"/>
<rect x="57.9165" y="181.434" width="47.128" height="47.128" rx="7.564" fill="url(#paint8_linear_9684_112908)"/>
<rect x="57.9165" y="181.434" width="47.128" height="47.128" rx="7.564" stroke="url(#paint9_linear_9684_112908)" stroke-width="0.872003"/>
<g clip-path="url(#clip1_9684_112908)">
<mask id="mask1_9684_112908" style="mask-type:luminance" maskUnits="userSpaceOnUse" x="64" y="194" width="35" height="37">
<path d="M64.6035 194.089H98.3062V230.818H64.6035V194.089Z" fill="white"/>
</mask>
<g mask="url(#mask1_9684_112908)">
<path d="M76.2354 205.746L74.4623 204.642L74.4995 206.328L76.2726 207.432L76.2354 205.746ZM78.7898 211.648L78.7526 209.999L77.2026 209.032C77.1778 209.019 77.153 208.994 77.1406 208.982L77.1778 210.644L78.7898 211.648ZM73.2471 213.867L69.1924 211.35L69.0932 207.134L71.0771 206.279L71.0399 204.592L67.8656 205.956C67.6176 206.068 67.4688 206.291 67.4812 206.552L67.6052 211.611C67.6052 211.871 67.7664 212.131 68.0144 212.28L72.8751 215.293C73.0983 215.43 73.3711 215.467 73.6067 215.405C73.6315 215.393 73.6563 215.393 73.6811 215.38L76.6694 214.091L75.0451 213.086L73.2471 213.867Z" fill="#1C76FD"/>
</g>
<mask id="mask2_9684_112908" style="mask-type:luminance" maskUnits="userSpaceOnUse" x="64" y="194" width="35" height="37">
<path d="M64.6035 194.089H98.3062V230.818H64.6035V194.089Z" fill="white"/>
</mask>
<g mask="url(#mask2_9684_112908)">
<path d="M86.3536 204.543C86.3412 204.246 86.1676 203.936 85.87 203.762L79.9677 200.104L79.7817 200.178L79.8189 201.952L84.4936 204.853L84.6052 209.59L86.3908 210.693L86.49 210.656L86.3536 204.543ZM79.2857 212.863L73.7926 209.466L73.6562 203.762L76.161 202.683L76.1114 200.712L72.2302 202.386C71.945 202.51 71.7714 202.77 71.7838 203.08L71.945 209.776C71.945 210.086 72.131 210.383 72.4286 210.557L78.8641 214.55C79.1245 214.711 79.4469 214.761 79.7197 214.674C79.7445 214.661 79.7693 214.649 79.7941 214.649L83.5884 213.012L81.7037 211.847L79.2857 212.863Z" fill="#1C76FD"/>
</g>
<mask id="mask3_9684_112908" style="mask-type:luminance" maskUnits="userSpaceOnUse" x="64" y="194" width="35" height="37">
<path d="M64.6035 194.089H98.3062V230.818H64.6035V194.089Z" fill="white"/>
</mask>
<g mask="url(#mask3_9684_112908)">
<path d="M94.7222 199.856L86.4763 194.747C86.1663 194.561 85.8067 194.512 85.4967 194.611C85.4719 194.623 85.4347 194.636 85.4099 194.648L77.3625 198.12C77.0401 198.256 76.8417 198.554 76.8541 198.914L77.0525 207.494C77.0649 207.841 77.2757 208.189 77.6105 208.387L85.8563 213.496C86.1539 213.682 86.5259 213.731 86.8359 213.632C86.8607 213.62 86.8979 213.607 86.9227 213.595L94.9702 210.123C95.2926 209.987 95.491 209.677 95.4786 209.329L95.2802 200.749C95.2678 200.402 95.057 200.067 94.7222 199.856ZM86.3399 211.574L79.1728 207.135L78.9992 199.682L85.9927 196.669L93.1598 201.108L93.3334 208.561L86.3399 211.574Z" fill="#1C76FD"/>
</g>
</g>
<rect x="236.916" y="100.434" width="47.128" height="47.128" rx="7.564" fill="url(#paint10_linear_9684_112908)"/>
<rect x="236.916" y="100.434" width="47.128" height="47.128" rx="7.564" stroke="url(#paint11_linear_9684_112908)" stroke-width="0.872003"/>
<g clip-path="url(#clip2_9684_112908)">
<mask id="mask4_9684_112908" style="mask-type:luminance" maskUnits="userSpaceOnUse" x="243" y="113" width="35" height="37">
<path d="M243.604 113.09H277.306V149.818H243.604V113.09Z" fill="white"/>
</mask>
<g mask="url(#mask4_9684_112908)">
<path d="M255.235 124.746L253.462 123.642L253.499 125.329L255.273 126.432L255.235 124.746ZM257.79 130.648L257.753 128.999L256.203 128.032C256.178 128.019 256.153 127.994 256.141 127.982L256.178 129.644L257.79 130.648ZM252.247 132.868L248.192 130.35L248.093 126.134L250.077 125.279L250.04 123.593L246.866 124.957C246.618 125.068 246.469 125.291 246.481 125.552L246.605 130.611C246.605 130.871 246.766 131.132 247.014 131.28L251.875 134.294C252.098 134.43 252.371 134.467 252.607 134.405C252.631 134.393 252.656 134.393 252.681 134.38L255.669 133.091L254.045 132.086L252.247 132.868Z" fill="white"/>
</g>
<mask id="mask5_9684_112908" style="mask-type:luminance" maskUnits="userSpaceOnUse" x="243" y="113" width="35" height="37">
<path d="M243.604 113.09H277.306V149.818H243.604V113.09Z" fill="white"/>
</mask>
<g mask="url(#mask5_9684_112908)">
<path d="M265.354 123.543C265.341 123.246 265.168 122.936 264.87 122.762L258.968 119.104L258.782 119.179L258.819 120.952L263.494 123.853L263.605 128.59L265.391 129.694L265.49 129.656L265.354 123.543ZM258.286 131.864L252.793 128.466L252.656 122.762L255.161 121.683L255.111 119.712L251.23 121.386C250.945 121.51 250.771 121.77 250.784 122.08L250.945 128.776C250.945 129.086 251.131 129.384 251.429 129.557L257.864 133.55C258.125 133.711 258.447 133.761 258.72 133.674C258.744 133.661 258.769 133.649 258.794 133.649L262.588 132.012L260.704 130.847L258.286 131.864Z" fill="white"/>
</g>
<mask id="mask6_9684_112908" style="mask-type:luminance" maskUnits="userSpaceOnUse" x="243" y="113" width="35" height="37">
<path d="M243.604 113.09H277.306V149.818H243.604V113.09Z" fill="white"/>
</mask>
<g mask="url(#mask6_9684_112908)">
<path d="M273.722 118.856L265.476 113.747C265.166 113.561 264.807 113.512 264.497 113.611C264.472 113.623 264.435 113.636 264.41 113.648L256.362 117.12C256.04 117.257 255.842 117.554 255.854 117.914L256.052 126.494C256.065 126.842 256.276 127.189 256.61 127.387L264.856 132.496C265.154 132.682 265.526 132.731 265.836 132.632C265.861 132.62 265.898 132.607 265.923 132.595L273.97 129.123C274.293 128.987 274.491 128.677 274.479 128.33L274.28 119.749C274.268 119.402 274.057 119.067 273.722 118.856ZM265.34 130.574L258.173 126.135L257.999 118.682L264.993 115.669L272.16 120.108L272.333 127.561L265.34 130.574Z" fill="white"/>
</g>
</g>
<rect x="236.916" y="262.434" width="47.128" height="47.128" rx="7.564" fill="url(#paint12_linear_9684_112908)"/>
<rect x="236.916" y="262.434" width="47.128" height="47.128" rx="7.564" stroke="url(#paint13_linear_9684_112908)" stroke-width="0.872003"/>
<g clip-path="url(#clip3_9684_112908)">
<mask id="mask7_9684_112908" style="mask-type:luminance" maskUnits="userSpaceOnUse" x="243" y="275" width="35" height="37">
<path d="M243.604 275.09H277.306V311.818H243.604V275.09Z" fill="white"/>
</mask>
<g mask="url(#mask7_9684_112908)">
<path d="M255.235 286.746L253.462 285.642L253.499 287.329L255.273 288.432L255.235 286.746ZM257.79 292.648L257.753 290.999L256.203 290.032C256.178 290.019 256.153 289.994 256.141 289.982L256.178 291.644L257.79 292.648ZM252.247 294.868L248.192 292.35L248.093 288.134L250.077 287.279L250.04 285.593L246.866 286.957C246.618 287.068 246.469 287.291 246.481 287.552L246.605 292.611C246.605 292.871 246.766 293.132 247.014 293.28L251.875 296.294C252.098 296.43 252.371 296.467 252.607 296.405C252.631 296.393 252.656 296.393 252.681 296.38L255.669 295.091L254.045 294.086L252.247 294.868Z" fill="white"/>
</g>
<mask id="mask8_9684_112908" style="mask-type:luminance" maskUnits="userSpaceOnUse" x="243" y="275" width="35" height="37">
<path d="M243.604 275.09H277.306V311.818H243.604V275.09Z" fill="white"/>
</mask>
<g mask="url(#mask8_9684_112908)">
<path d="M265.354 285.543C265.341 285.246 265.168 284.936 264.87 284.762L258.968 281.104L258.782 281.179L258.819 282.952L263.494 285.853L263.605 290.59L265.391 291.694L265.49 291.656L265.354 285.543ZM258.286 293.864L252.793 290.466L252.656 284.762L255.161 283.683L255.111 281.712L251.23 283.386C250.945 283.51 250.771 283.77 250.784 284.08L250.945 290.776C250.945 291.086 251.131 291.384 251.429 291.557L257.864 295.55C258.125 295.711 258.447 295.761 258.72 295.674C258.744 295.661 258.769 295.649 258.794 295.649L262.588 294.012L260.704 292.847L258.286 293.864Z" fill="white"/>
</g>
<mask id="mask9_9684_112908" style="mask-type:luminance" maskUnits="userSpaceOnUse" x="243" y="275" width="35" height="37">
<path d="M243.604 275.09H277.306V311.818H243.604V275.09Z" fill="white"/>
</mask>
<g mask="url(#mask9_9684_112908)">
<path d="M273.722 280.856L265.476 275.747C265.166 275.561 264.807 275.512 264.497 275.611C264.472 275.623 264.435 275.636 264.41 275.648L256.362 279.12C256.04 279.257 255.842 279.554 255.854 279.914L256.052 288.494C256.065 288.842 256.276 289.189 256.61 289.387L264.856 294.496C265.154 294.682 265.526 294.731 265.836 294.632C265.861 294.62 265.898 294.607 265.923 294.595L273.97 291.123C274.293 290.987 274.491 290.677 274.479 290.33L274.28 281.749C274.268 281.402 274.057 281.067 273.722 280.856ZM265.34 292.574L258.173 288.135L257.999 280.682L264.993 277.669L272.16 282.108L272.333 289.561L265.34 292.574Z" fill="white"/>
</g>
</g>
<path d="M415.48 89.889H325.58C321.162 89.889 317.58 93.4707 317.58 97.889V117.889C317.58 122.307 313.999 125.889 309.58 125.889H283.727" stroke="#33373A" stroke-linecap="round"/>
<path d="M415.48 161.889H325.58C321.162 161.889 317.58 158.307 317.58 153.889V133.889C317.58 129.471 313.999 125.889 309.58 125.889H283.727" stroke="#33373A" stroke-linecap="round"/>
<path d="M415.48 322.998H326.151C321.732 322.998 318.151 319.417 318.151 314.998V295.217C318.151 290.799 314.569 287.217 310.151 287.217H284.494" stroke="#33373A" stroke-linecap="round"/>
<path d="M415.467 251.217H326.137C321.719 251.217 318.137 254.799 318.137 259.217V278.998C318.137 283.417 314.555 286.998 310.137 286.998H284.481" stroke="#33373A" stroke-linecap="round"/>
<rect x="415.742" y="66.4984" width="47" height="47" rx="7.5" fill="url(#paint14_linear_9684_112908)"/>
<rect x="415.742" y="66.4984" width="47" height="47" rx="7.5" stroke="url(#paint15_linear_9684_112908)"/>
<path d="M449.242 77.9984H429.242C427.585 77.9984 426.242 79.3415 426.242 80.9984V94.9984C426.242 96.6552 427.585 97.9984 429.242 97.9984H449.242C450.899 97.9984 452.242 96.6552 452.242 94.9984V80.9984C452.242 79.3415 450.899 77.9984 449.242 77.9984Z" fill="white"/>
<path d="M443.985 84.2127L439.242 86.957L434.499 84.2127C434.442 84.1797 434.395 84.1322 434.362 84.0751C434.329 84.0179 434.312 83.9531 434.312 83.8871C434.312 83.8211 434.329 83.7563 434.362 83.6991C434.395 83.642 434.442 83.5945 434.499 83.5616L438.657 81.1554C438.835 81.0525 439.037 80.9984 439.242 80.9984C439.448 80.9984 439.649 81.0525 439.827 81.1554L443.985 83.5616C444.042 83.5945 444.089 83.642 444.122 83.6991C444.155 83.7563 444.173 83.8211 444.173 83.8871C444.173 83.9531 444.155 84.0179 444.122 84.0751C444.089 84.1322 444.042 84.1797 443.985 84.2127ZM433.242 85.8719V90.5272C433.242 90.7406 433.297 90.9503 433.403 91.1356C433.508 91.3209 433.66 91.4752 433.844 91.5832L437.93 93.948C437.987 93.981 438.051 93.9983 438.117 93.9984C438.183 93.9984 438.248 93.981 438.305 93.9481C438.362 93.9152 438.409 93.8678 438.442 93.8107C438.475 93.7536 438.492 93.6889 438.492 93.6229V88.2592L433.805 85.5468C433.748 85.5138 433.683 85.4964 433.617 85.4964C433.551 85.4964 433.487 85.5137 433.43 85.5467C433.373 85.5796 433.326 85.627 433.293 85.6841C433.26 85.7412 433.242 85.8059 433.242 85.8719ZM445.242 90.5272V85.8719C445.242 85.8059 445.225 85.7412 445.192 85.6841C445.159 85.627 445.112 85.5796 445.055 85.5467C444.998 85.5137 444.933 85.4964 444.867 85.4964C444.801 85.4964 444.737 85.5138 444.68 85.5468L439.992 88.2592V93.6229C439.992 93.6889 440.01 93.7536 440.043 93.8107C440.076 93.8678 440.123 93.9152 440.18 93.9481C440.237 93.981 440.301 93.9984 440.367 93.9984C440.433 93.9983 440.498 93.981 440.555 93.948L444.639 91.5832C444.823 91.4753 444.976 91.3211 445.081 91.1358C445.187 90.9505 445.243 90.7407 445.242 90.5272Z" fill="#0A0D0F"/>
<path d="M443.242 99.9984H435.242C434.977 99.9984 434.723 100.104 434.535 100.291C434.348 100.479 434.242 100.733 434.242 100.998C434.242 101.264 434.348 101.518 434.535 101.705C434.723 101.893 434.977 101.998 435.242 101.998H443.242C443.507 101.998 443.762 101.893 443.949 101.705C444.137 101.518 444.242 101.264 444.242 100.998C444.242 100.733 444.137 100.479 443.949 100.291C443.762 100.104 443.507 99.9984 443.242 99.9984Z" fill="white"/>
<rect x="415.678" y="137.434" width="47.128" height="47.128" rx="7.564" fill="url(#paint16_linear_9684_112908)"/>
<rect x="415.678" y="137.434" width="47.128" height="47.128" rx="7.564" stroke="url(#paint17_linear_9684_112908)" stroke-width="0.872003"/>
<path d="M438.252 158.799L438.425 155.874C438.216 155.898 438.009 155.932 437.803 155.977C436.668 156.223 435.683 156.759 434.913 157.484L437.419 159.184L437.424 159.182C437.509 159.241 437.613 159.276 437.726 159.276C438.003 159.276 438.228 159.067 438.239 158.805L438.252 158.799Z" fill="white"/>
<path d="M443.376 157.485C442.436 156.605 441.211 156.03 439.885 155.874L440.058 158.794L440.061 158.795C440.065 158.899 440.104 158.999 440.173 159.08C440.345 159.287 440.656 159.325 440.877 159.171L440.886 159.174L443.376 157.485Z" fill="white"/>
<path d="M436.292 160.535L434.004 158.576C433.325 159.635 433.003 160.905 433.152 162.211L436.085 161.401L436.088 161.392C436.193 161.364 436.286 161.305 436.354 161.224C436.527 161.017 436.496 160.719 436.29 160.547L436.292 160.535Z" fill="white"/>
<path d="M445.039 160.332C444.886 159.694 444.628 159.105 444.288 158.577L442.013 160.527L442.014 160.533C441.932 160.601 441.875 160.692 441.851 160.794C441.789 161.051 441.952 161.308 442.215 161.377L442.218 161.389L445.166 162.202C445.228 161.593 445.19 160.963 445.039 160.332Z" fill="white"/>
<path d="M439.622 160.686H438.685L438.101 161.382L438.31 162.252L439.154 162.64L439.996 162.253L440.205 161.383L439.622 160.686Z" fill="white"/>
<path d="M441.808 163.08C441.77 163.073 441.73 163.07 441.69 163.071C441.624 163.075 441.557 163.091 441.493 163.12C441.245 163.235 441.136 163.517 441.244 163.758L441.241 163.763L442.418 166.485C443.554 165.793 444.403 164.759 444.847 163.565L441.813 163.074L441.808 163.08Z" fill="white"/>
<path d="M437.088 163.466C437.034 163.24 436.826 163.087 436.595 163.083C436.561 163.083 436.527 163.086 436.494 163.092L436.489 163.086L433.481 163.574C433.945 164.803 434.813 165.805 435.902 166.474L437.068 163.779L437.059 163.768C437.101 163.676 437.113 163.571 437.088 163.466Z" fill="white"/>
<path d="M439.376 164.313C439.301 164.278 439.219 164.261 439.135 164.264C439.046 164.267 438.958 164.293 438.882 164.339C438.806 164.384 438.743 164.448 438.701 164.524H438.699L437.22 167.083C438.243 167.417 439.373 167.491 440.507 167.245C440.708 167.202 440.905 167.149 441.1 167.087L439.617 164.523H439.606C439.557 164.434 439.478 164.36 439.376 164.313Z" fill="white"/>
<path fill-rule="evenodd" clip-rule="evenodd" d="M438.342 148.334C438.565 148.231 438.808 148.173 439.055 148.161C439.367 148.146 439.677 148.205 439.958 148.334L449.693 152.782C449.945 152.897 450.167 153.065 450.341 153.272C450.515 153.48 450.638 153.722 450.7 153.981L453.106 163.979C453.168 164.238 453.168 164.507 453.106 164.766C453.043 165.025 452.92 165.267 452.746 165.474L446.011 173.493C445.836 173.7 445.615 173.867 445.363 173.982C445.111 174.097 444.835 174.156 444.555 174.156L433.751 174.159C433.471 174.159 433.195 174.099 432.943 173.984C432.691 173.869 432.47 173.701 432.295 173.494L425.558 165.477C425.52 165.432 425.485 165.385 425.452 165.336C425.316 165.138 425.224 164.916 425.181 164.683C425.137 164.45 425.144 164.212 425.199 163.982L427.601 153.983C427.663 153.724 427.786 153.482 427.96 153.275C428.134 153.067 428.356 152.9 428.608 152.785L438.342 148.334ZM438.572 152.169C438.572 151.827 438.832 151.549 439.154 151.549C439.476 151.549 439.737 151.827 439.737 152.169C439.737 152.186 439.737 152.206 439.738 152.226C439.738 152.262 439.739 152.299 439.738 152.327C439.733 152.458 439.712 152.568 439.69 152.68C439.679 152.737 439.668 152.796 439.658 152.858L439.655 152.888C439.607 153.263 439.568 153.577 439.592 153.869C439.612 153.999 439.683 154.06 439.751 154.12C439.762 154.129 439.772 154.138 439.783 154.148C439.785 154.188 439.791 154.323 439.797 154.397C441.649 154.554 443.37 155.365 444.633 156.633L444.855 156.482C444.864 156.482 444.874 156.483 444.885 156.484C444.968 156.49 445.109 156.5 445.208 156.445C445.463 156.281 445.695 156.055 445.973 155.785L445.994 155.765C446.038 155.72 446.078 155.676 446.117 155.633C446.197 155.546 446.274 155.461 446.379 155.375C446.404 155.354 446.439 155.328 446.472 155.303C446.484 155.294 446.497 155.285 446.508 155.276C446.788 155.063 447.176 155.085 447.377 155.326C447.578 155.567 447.513 155.935 447.234 156.148C447.221 156.158 447.207 156.17 447.192 156.181C447.162 156.205 447.131 156.229 447.106 156.247C446.997 156.324 446.894 156.376 446.789 156.429C446.734 156.457 446.679 156.485 446.621 156.518C446.273 156.724 445.984 156.894 445.755 157.1C445.661 157.196 445.655 157.288 445.648 157.375C445.648 157.389 445.647 157.402 445.645 157.416C445.63 157.43 445.595 157.459 445.557 157.492C445.515 157.527 445.47 157.566 445.439 157.593C445.941 158.309 446.317 159.121 446.53 160.008C446.742 160.888 446.774 161.767 446.652 162.612L446.888 162.677C446.893 162.684 446.898 162.692 446.904 162.7C446.951 162.766 447.031 162.879 447.139 162.919C447.436 163.008 447.769 163.042 448.171 163.082L448.184 163.083C448.249 163.089 448.312 163.091 448.374 163.093C448.493 163.098 448.61 163.102 448.743 163.126C448.773 163.132 448.813 163.141 448.85 163.15C448.872 163.155 448.893 163.16 448.912 163.164C449.255 163.244 449.476 163.546 449.405 163.844C449.334 164.141 448.999 164.322 448.653 164.251C448.651 164.25 448.647 164.25 448.644 164.25C448.64 164.249 448.637 164.247 448.633 164.246C448.616 164.243 448.596 164.239 448.577 164.235C448.543 164.229 448.509 164.222 448.483 164.215C448.351 164.182 448.244 164.137 448.135 164.092C448.078 164.068 448.021 164.045 447.96 164.022L447.942 164.016C447.564 163.887 447.25 163.779 446.944 163.736C446.808 163.726 446.729 163.778 446.654 163.828C446.642 163.836 446.63 163.844 446.618 163.852C446.575 163.844 446.444 163.822 446.369 163.81C445.81 165.489 444.621 166.943 443.01 167.854C443.019 167.874 443.03 167.902 443.041 167.932C443.065 167.994 443.092 168.063 443.107 168.079C443.102 168.092 443.096 168.105 443.091 168.118C443.057 168.199 443.021 168.283 443.062 168.408C443.175 168.688 443.358 168.963 443.579 169.293C443.615 169.345 443.652 169.393 443.688 169.441C443.759 169.532 443.828 169.623 443.891 169.737C443.907 169.766 443.927 169.806 443.945 169.843C443.953 169.859 443.96 169.874 443.967 169.888C444.117 170.194 444.007 170.547 443.719 170.68C443.43 170.813 443.069 170.672 442.914 170.364C442.907 170.351 442.9 170.336 442.892 170.321C442.874 170.287 442.855 170.25 442.842 170.221C442.787 170.101 442.756 169.993 442.724 169.882C442.708 169.826 442.692 169.769 442.672 169.71L442.667 169.694C442.537 169.33 442.429 169.028 442.273 168.772C442.196 168.663 442.104 168.637 442.015 168.611C442.002 168.608 441.988 168.604 441.975 168.6C441.966 168.584 441.942 168.543 441.916 168.498C441.893 168.458 441.868 168.415 441.851 168.385C441.525 168.503 441.191 168.6 440.851 168.674C439.339 169.002 437.826 168.869 436.474 168.372L436.342 168.601C436.244 168.626 436.149 168.652 436.091 168.718C435.942 168.888 435.856 169.131 435.764 169.388C435.725 169.498 435.686 169.609 435.64 169.72C435.62 169.78 435.604 169.837 435.587 169.894C435.556 170.004 435.526 170.112 435.472 170.231C435.459 170.258 435.441 170.293 435.424 170.326C435.415 170.342 435.407 170.358 435.399 170.372C435.399 170.373 435.399 170.372 435.399 170.372C435.399 170.373 435.399 170.373 435.399 170.374C435.399 170.374 435.399 170.374 435.399 170.374C435.398 170.375 435.399 170.374 435.399 170.374C435.243 170.682 434.883 170.823 434.594 170.689C434.306 170.557 434.196 170.204 434.346 169.897C434.354 169.881 434.363 169.862 434.373 169.843C434.389 169.809 434.406 169.773 434.421 169.747C434.485 169.631 434.554 169.541 434.625 169.448C434.661 169.401 434.697 169.353 434.733 169.301C434.954 168.971 435.148 168.675 435.261 168.394C435.289 168.301 435.247 168.173 435.209 168.079L435.315 167.836C433.764 166.956 432.539 165.555 431.955 163.821L431.701 163.863C431.693 163.858 431.685 163.854 431.675 163.849C431.602 163.808 431.481 163.741 431.366 163.749C431.059 163.792 430.745 163.9 430.367 164.029L430.35 164.035C430.29 164.057 430.233 164.081 430.177 164.104C430.067 164.149 429.959 164.193 429.827 164.227C429.797 164.235 429.758 164.243 429.72 164.25C429.705 164.253 429.69 164.256 429.676 164.259C429.675 164.26 429.673 164.26 429.671 164.261C429.669 164.262 429.667 164.262 429.665 164.263C429.664 164.263 429.662 164.263 429.661 164.263C429.659 164.264 429.658 164.264 429.657 164.264C429.311 164.335 428.976 164.154 428.905 163.857C428.834 163.559 429.054 163.257 429.398 163.178C429.4 163.177 429.404 163.176 429.406 163.175L429.411 163.174C429.426 163.171 429.442 163.167 429.459 163.163C429.496 163.154 429.536 163.145 429.567 163.139C429.7 163.115 429.816 163.111 429.935 163.106C429.997 163.104 430.06 163.102 430.126 163.097L430.139 163.095C430.541 163.055 430.874 163.021 431.17 162.932C431.254 162.899 431.335 162.798 431.397 162.72C431.405 162.709 431.413 162.699 431.421 162.69L431.665 162.622C431.391 160.81 431.854 159.032 432.854 157.592L432.667 157.433C432.665 157.425 432.664 157.416 432.663 157.407C432.651 157.329 432.629 157.192 432.55 157.111C432.321 156.905 432.032 156.734 431.684 156.529C431.627 156.497 431.572 156.468 431.517 156.441C431.412 156.387 431.309 156.335 431.2 156.258C431.175 156.24 431.144 156.216 431.114 156.192C431.102 156.183 431.091 156.173 431.079 156.165C431.078 156.164 431.077 156.163 431.075 156.162C431.074 156.161 431.072 156.16 431.071 156.159C430.791 155.946 430.727 155.578 430.928 155.337C431.04 155.201 431.213 155.134 431.392 155.14C431.531 155.145 431.676 155.194 431.798 155.287C431.809 155.295 431.821 155.304 431.833 155.313C431.866 155.338 431.902 155.364 431.927 155.386C432.031 155.471 432.108 155.555 432.186 155.642C432.226 155.686 432.266 155.73 432.311 155.775L432.321 155.785C432.604 156.06 432.839 156.288 433.096 156.454C433.215 156.521 433.31 156.506 433.401 156.493C433.415 156.49 433.429 156.488 433.442 156.487C433.512 156.535 433.582 156.583 433.653 156.63C434.644 155.623 435.947 154.877 437.46 154.548C437.807 154.473 438.159 154.421 438.513 154.393L438.527 154.157C438.604 154.085 438.691 153.982 438.716 153.869C438.741 153.571 438.701 153.251 438.652 152.865L438.651 152.858C438.642 152.796 438.631 152.738 438.62 152.68C438.598 152.568 438.577 152.458 438.572 152.327C438.57 152.3 438.571 152.265 438.572 152.231C438.572 152.215 438.573 152.199 438.573 152.184C438.573 152.182 438.572 152.179 438.572 152.177C438.572 152.174 438.572 152.172 438.572 152.169Z" fill="white"/>
<rect x="415.678" y="298.434" width="47.128" height="47.128" rx="7.564" fill="url(#paint18_linear_9684_112908)"/>
<rect x="415.678" y="298.434" width="47.128" height="47.128" rx="7.564" stroke="url(#paint19_linear_9684_112908)" stroke-width="0.872003"/>
<path d="M438.252 319.799L438.425 316.874C438.216 316.898 438.009 316.932 437.803 316.977C436.668 317.223 435.683 317.759 434.913 318.484L437.419 320.184L437.424 320.182C437.509 320.241 437.613 320.276 437.726 320.276C438.003 320.276 438.228 320.067 438.239 319.805L438.252 319.799Z" fill="white"/>
<path d="M443.376 318.485C442.436 317.605 441.211 317.03 439.885 316.874L440.058 319.794L440.061 319.795C440.065 319.899 440.104 319.999 440.173 320.08C440.345 320.287 440.656 320.325 440.877 320.171L440.886 320.174L443.376 318.485Z" fill="white"/>
<path d="M436.292 321.535L434.004 319.576C433.325 320.635 433.003 321.905 433.152 323.211L436.085 322.401L436.088 322.392C436.193 322.364 436.286 322.305 436.354 322.224C436.527 322.017 436.496 321.719 436.29 321.547L436.292 321.535Z" fill="white"/>
<path d="M445.039 321.332C444.886 320.694 444.628 320.105 444.288 319.577L442.013 321.527L442.014 321.533C441.932 321.601 441.875 321.692 441.851 321.794C441.789 322.051 441.952 322.308 442.215 322.377L442.218 322.389L445.166 323.202C445.228 322.593 445.19 321.963 445.039 321.332Z" fill="white"/>
<path d="M439.622 321.686H438.685L438.101 322.382L438.31 323.252L439.154 323.64L439.996 323.253L440.205 322.383L439.622 321.686Z" fill="white"/>
<path d="M441.808 324.08C441.77 324.073 441.73 324.07 441.69 324.071C441.624 324.075 441.557 324.091 441.493 324.12C441.245 324.235 441.136 324.517 441.244 324.758L441.241 324.763L442.418 327.485C443.554 326.793 444.403 325.759 444.847 324.565L441.813 324.074L441.808 324.08Z" fill="white"/>
<path d="M437.088 324.466C437.034 324.24 436.826 324.087 436.595 324.083C436.561 324.083 436.527 324.086 436.494 324.092L436.489 324.086L433.481 324.574C433.945 325.803 434.813 326.805 435.902 327.474L437.068 324.779L437.059 324.768C437.101 324.676 437.113 324.571 437.088 324.466Z" fill="white"/>
<path d="M439.376 325.313C439.301 325.278 439.219 325.261 439.135 325.264C439.046 325.267 438.958 325.293 438.882 325.339C438.806 325.384 438.743 325.448 438.701 325.524H438.699L437.22 328.083C438.243 328.417 439.373 328.491 440.507 328.245C440.708 328.202 440.905 328.149 441.1 328.087L439.617 325.523H439.606C439.557 325.434 439.478 325.36 439.376 325.313Z" fill="white"/>
<path fill-rule="evenodd" clip-rule="evenodd" d="M438.342 309.334C438.565 309.231 438.808 309.173 439.055 309.161C439.367 309.146 439.677 309.205 439.958 309.334L449.693 313.782C449.945 313.897 450.167 314.065 450.341 314.272C450.515 314.48 450.638 314.722 450.7 314.981L453.106 324.979C453.168 325.238 453.168 325.507 453.106 325.766C453.043 326.025 452.92 326.267 452.746 326.474L446.011 334.493C445.836 334.7 445.615 334.867 445.363 334.982C445.111 335.097 444.835 335.156 444.555 335.156L433.751 335.159C433.471 335.159 433.195 335.099 432.943 334.984C432.691 334.869 432.47 334.701 432.295 334.494L425.558 326.477C425.52 326.432 425.485 326.385 425.452 326.336C425.316 326.138 425.224 325.916 425.181 325.683C425.137 325.45 425.144 325.212 425.199 324.982L427.601 314.983C427.663 314.724 427.786 314.482 427.96 314.275C428.134 314.067 428.356 313.9 428.608 313.785L438.342 309.334ZM438.572 313.169C438.572 312.827 438.832 312.549 439.154 312.549C439.476 312.549 439.737 312.827 439.737 313.169C439.737 313.186 439.737 313.206 439.738 313.226C439.738 313.262 439.739 313.299 439.738 313.327C439.733 313.458 439.712 313.568 439.69 313.68C439.679 313.737 439.668 313.796 439.658 313.858L439.655 313.888C439.607 314.263 439.568 314.577 439.592 314.869C439.612 314.999 439.683 315.06 439.751 315.12C439.762 315.129 439.772 315.138 439.783 315.148C439.785 315.188 439.791 315.323 439.797 315.397C441.649 315.554 443.37 316.365 444.633 317.633L444.855 317.482C444.864 317.482 444.874 317.483 444.885 317.484C444.968 317.49 445.109 317.5 445.208 317.445C445.463 317.281 445.695 317.055 445.973 316.785L445.994 316.765C446.038 316.72 446.078 316.676 446.117 316.633C446.197 316.546 446.274 316.461 446.379 316.375C446.404 316.354 446.439 316.328 446.472 316.303C446.484 316.294 446.497 316.285 446.508 316.276C446.788 316.063 447.176 316.085 447.377 316.326C447.578 316.567 447.513 316.935 447.234 317.148C447.221 317.158 447.207 317.17 447.192 317.181C447.162 317.205 447.131 317.229 447.106 317.247C446.997 317.324 446.894 317.376 446.789 317.429C446.734 317.457 446.679 317.485 446.621 317.518C446.273 317.724 445.984 317.894 445.755 318.1C445.661 318.196 445.655 318.288 445.648 318.375C445.648 318.389 445.647 318.402 445.645 318.416C445.63 318.43 445.595 318.459 445.557 318.492C445.515 318.527 445.47 318.566 445.439 318.593C445.941 319.309 446.317 320.121 446.53 321.008C446.742 321.888 446.774 322.767 446.652 323.612L446.888 323.677C446.893 323.684 446.898 323.692 446.904 323.7C446.951 323.766 447.031 323.879 447.139 323.919C447.436 324.008 447.769 324.042 448.171 324.082L448.184 324.083C448.249 324.089 448.312 324.091 448.374 324.093C448.493 324.098 448.61 324.102 448.743 324.126C448.773 324.132 448.813 324.141 448.85 324.15C448.872 324.155 448.893 324.16 448.912 324.164C449.255 324.244 449.476 324.546 449.405 324.844C449.334 325.141 448.999 325.322 448.653 325.251C448.651 325.25 448.647 325.25 448.644 325.25C448.64 325.249 448.637 325.247 448.633 325.246C448.616 325.243 448.596 325.239 448.577 325.235C448.543 325.229 448.509 325.222 448.483 325.215C448.351 325.182 448.244 325.137 448.135 325.092C448.078 325.068 448.021 325.045 447.96 325.022L447.942 325.016C447.564 324.887 447.25 324.779 446.944 324.736C446.808 324.726 446.729 324.778 446.654 324.828C446.642 324.836 446.63 324.844 446.618 324.852C446.575 324.844 446.444 324.822 446.369 324.81C445.81 326.489 444.621 327.943 443.01 328.854C443.019 328.874 443.03 328.902 443.041 328.932C443.065 328.994 443.092 329.063 443.107 329.079C443.102 329.092 443.096 329.105 443.091 329.118C443.057 329.199 443.021 329.283 443.062 329.408C443.175 329.688 443.358 329.963 443.579 330.293C443.615 330.345 443.652 330.393 443.688 330.441C443.759 330.532 443.828 330.623 443.891 330.737C443.907 330.766 443.927 330.806 443.945 330.843C443.953 330.859 443.96 330.874 443.967 330.888C444.117 331.194 444.007 331.547 443.719 331.68C443.43 331.813 443.069 331.672 442.914 331.364C442.907 331.351 442.9 331.336 442.892 331.321C442.874 331.287 442.855 331.25 442.842 331.221C442.787 331.101 442.756 330.993 442.724 330.882C442.708 330.826 442.692 330.769 442.672 330.71L442.667 330.694C442.537 330.33 442.429 330.028 442.273 329.772C442.196 329.663 442.104 329.637 442.015 329.611C442.002 329.608 441.988 329.604 441.975 329.6C441.966 329.584 441.942 329.543 441.916 329.498C441.893 329.458 441.868 329.415 441.851 329.385C441.525 329.503 441.191 329.6 440.851 329.674C439.339 330.002 437.826 329.869 436.474 329.372L436.342 329.601C436.244 329.626 436.149 329.652 436.091 329.718C435.942 329.888 435.856 330.131 435.764 330.388C435.725 330.498 435.686 330.609 435.64 330.72C435.62 330.78 435.604 330.837 435.587 330.894C435.556 331.004 435.526 331.112 435.472 331.231C435.459 331.258 435.441 331.293 435.424 331.326C435.415 331.342 435.407 331.358 435.399 331.372C435.399 331.373 435.399 331.372 435.399 331.372C435.399 331.373 435.399 331.373 435.399 331.374C435.399 331.374 435.399 331.374 435.399 331.374C435.398 331.375 435.399 331.374 435.399 331.374C435.243 331.682 434.883 331.823 434.594 331.689C434.306 331.557 434.196 331.204 434.346 330.897C434.354 330.881 434.363 330.862 434.373 330.843C434.389 330.809 434.406 330.773 434.421 330.747C434.485 330.631 434.554 330.541 434.625 330.448C434.661 330.401 434.697 330.353 434.733 330.301C434.954 329.971 435.148 329.675 435.261 329.394C435.289 329.301 435.247 329.173 435.209 329.079L435.315 328.836C433.764 327.956 432.539 326.555 431.955 324.821L431.701 324.863C431.693 324.858 431.685 324.854 431.675 324.849C431.602 324.808 431.481 324.741 431.366 324.749C431.059 324.792 430.745 324.9 430.367 325.029L430.35 325.035C430.29 325.057 430.233 325.081 430.177 325.104C430.067 325.149 429.959 325.193 429.827 325.227C429.797 325.235 429.758 325.243 429.72 325.25C429.705 325.253 429.69 325.256 429.676 325.259C429.675 325.26 429.673 325.26 429.671 325.261C429.669 325.262 429.667 325.262 429.665 325.263C429.664 325.263 429.662 325.263 429.661 325.263C429.659 325.264 429.658 325.264 429.657 325.264C429.311 325.335 428.976 325.154 428.905 324.857C428.834 324.559 429.054 324.257 429.398 324.178C429.4 324.177 429.404 324.176 429.406 324.175L429.411 324.174C429.426 324.171 429.442 324.167 429.459 324.163C429.496 324.154 429.536 324.145 429.567 324.139C429.7 324.115 429.816 324.111 429.935 324.106C429.997 324.104 430.06 324.102 430.126 324.097L430.139 324.095C430.541 324.055 430.874 324.021 431.17 323.932C431.254 323.899 431.335 323.798 431.397 323.72C431.405 323.709 431.413 323.699 431.421 323.69L431.665 323.622C431.391 321.81 431.854 320.032 432.854 318.592L432.667 318.433C432.665 318.425 432.664 318.416 432.663 318.407C432.651 318.329 432.629 318.192 432.55 318.111C432.321 317.905 432.032 317.734 431.684 317.529C431.627 317.497 431.572 317.468 431.517 317.441C431.412 317.387 431.309 317.335 431.2 317.258C431.175 317.24 431.144 317.216 431.114 317.192C431.102 317.183 431.091 317.173 431.079 317.165C431.078 317.164 431.077 317.163 431.075 317.162C431.074 317.161 431.072 317.16 431.071 317.159C430.791 316.946 430.727 316.578 430.928 316.337C431.04 316.201 431.213 316.134 431.392 316.14C431.531 316.145 431.676 316.194 431.798 316.287C431.809 316.295 431.821 316.304 431.833 316.313C431.866 316.338 431.902 316.364 431.927 316.386C432.031 316.471 432.108 316.555 432.186 316.642C432.226 316.686 432.266 316.73 432.311 316.775L432.321 316.785C432.604 317.06 432.839 317.288 433.096 317.454C433.215 317.521 433.31 317.506 433.401 317.493C433.415 317.49 433.429 317.488 433.442 317.487C433.512 317.535 433.582 317.583 433.653 317.63C434.644 316.623 435.947 315.877 437.46 315.548C437.807 315.473 438.159 315.421 438.513 315.393L438.527 315.157C438.604 315.085 438.691 314.982 438.716 314.869C438.741 314.571 438.701 314.251 438.652 313.865L438.651 313.858C438.642 313.796 438.631 313.738 438.62 313.68C438.598 313.568 438.577 313.458 438.572 313.327C438.57 313.3 438.571 313.265 438.572 313.231C438.572 313.215 438.573 313.199 438.573 313.184C438.573 313.182 438.572 313.179 438.572 313.177C438.572 313.174 438.572 313.172 438.572 313.169Z" fill="white"/>
<rect x="415.742" y="226.498" width="47" height="47" rx="7.5" fill="url(#paint20_linear_9684_112908)"/>
<rect x="415.742" y="226.498" width="47" height="47" rx="7.5" stroke="url(#paint21_linear_9684_112908)"/>
<path d="M449.242 237.998H429.242C427.585 237.998 426.242 239.341 426.242 240.998V254.998C426.242 256.655 427.585 257.998 429.242 257.998H449.242C450.899 257.998 452.242 256.655 452.242 254.998V240.998C452.242 239.341 450.899 237.998 449.242 237.998Z" fill="white"/>
<path d="M443.985 244.213L439.242 246.957L434.499 244.213C434.442 244.18 434.395 244.132 434.362 244.075C434.329 244.018 434.312 243.953 434.312 243.887C434.312 243.821 434.329 243.756 434.362 243.699C434.395 243.642 434.442 243.595 434.499 243.562L438.657 241.155C438.835 241.053 439.037 240.998 439.242 240.998C439.448 240.998 439.649 241.053 439.827 241.155L443.985 243.562C444.042 243.595 444.089 243.642 444.122 243.699C444.155 243.756 444.173 243.821 444.173 243.887C444.173 243.953 444.155 244.018 444.122 244.075C444.089 244.132 444.042 244.18 443.985 244.213ZM433.242 245.872V250.527C433.242 250.741 433.297 250.95 433.403 251.136C433.508 251.321 433.66 251.475 433.844 251.583L437.93 253.948C437.987 253.981 438.051 253.998 438.117 253.998C438.183 253.998 438.248 253.981 438.305 253.948C438.362 253.915 438.409 253.868 438.442 253.811C438.475 253.754 438.492 253.689 438.492 253.623V248.259L433.805 245.547C433.748 245.514 433.683 245.496 433.617 245.496C433.551 245.496 433.487 245.514 433.43 245.547C433.373 245.58 433.326 245.627 433.293 245.684C433.26 245.741 433.242 245.806 433.242 245.872ZM445.242 250.527V245.872C445.242 245.806 445.225 245.741 445.192 245.684C445.159 245.627 445.112 245.58 445.055 245.547C444.998 245.514 444.933 245.496 444.867 245.496C444.801 245.496 444.737 245.514 444.68 245.547L439.992 248.259V253.623C439.992 253.689 440.01 253.754 440.043 253.811C440.076 253.868 440.123 253.915 440.18 253.948C440.237 253.981 440.301 253.998 440.367 253.998C440.433 253.998 440.498 253.981 440.555 253.948L444.639 251.583C444.823 251.475 444.976 251.321 445.081 251.136C445.187 250.95 445.243 250.741 445.242 250.527Z" fill="#0A0D0F"/>
<path d="M443.242 259.998H435.242C434.977 259.998 434.723 260.104 434.535 260.291C434.348 260.479 434.242 260.733 434.242 260.998C434.242 261.264 434.348 261.518 434.535 261.705C434.723 261.893 434.977 261.998 435.242 261.998H443.242C443.507 261.998 443.762 261.893 443.949 261.705C444.137 261.518 444.242 261.264 444.242 260.998C444.242 260.733 444.137 260.479 443.949 260.291C443.762 260.104 443.507 259.998 443.242 259.998Z" fill="white"/>
<rect x="18" y="15" width="75.7143" height="36" rx="4" fill="#F5F5F5"/>
<path d="M34.0169 30.3333H31C30.4477 30.3333 30 30.7811 30 31.3333V40C30 40.5523 30.4477 41 31 41H42.7143C43.2666 41 43.7143 40.5523 43.7143 40V31.3333C43.7143 30.781 43.2666 30.3333 42.7143 30.3333H39.748M34.0169 30.3333V27.8655C34.0169 26.2829 35.2999 25 36.8825 25V25C38.4651 25 39.748 26.2829 39.748 27.8655V30.3333M34.0169 30.3333H39.748" stroke="#0A0D0F"/>
<circle cx="36.8574" cy="35.6572" r="1.53711" stroke="#0A0D0F"/>
<path d="M58.5468 30.304C59.0588 30.304 59.5148 30.412 59.9148 30.628C60.3148 30.836 60.6308 31.152 60.8628 31.576C61.0948 32 61.2108 32.516 61.2108 33.124V37H60.1308V33.28C60.1308 32.624 59.9668 32.124 59.6388 31.78C59.3188 31.428 58.8828 31.252 58.3308 31.252C57.7628 31.252 57.3108 31.436 56.9748 31.804C56.6388 32.164 56.4708 32.688 56.4708 33.376V37H55.3908V33.28C55.3908 32.624 55.2268 32.124 54.8988 31.78C54.5788 31.428 54.1428 31.252 53.5908 31.252C53.0228 31.252 52.5708 31.436 52.2348 31.804C51.8988 32.164 51.7308 32.688 51.7308 33.376V37H50.6388V30.424H51.7308V31.372C51.9468 31.028 52.2348 30.764 52.5948 30.58C52.9628 30.396 53.3668 30.304 53.8068 30.304C54.3588 30.304 54.8468 30.428 55.2708 30.676C55.6948 30.924 56.0108 31.288 56.2188 31.768C56.4028 31.304 56.7068 30.944 57.1308 30.688C57.5548 30.432 58.0268 30.304 58.5468 30.304ZM68.1501 28.636V29.524H65.8701V37H64.7781V29.524H62.4861V28.636H68.1501ZM70.5863 36.112H73.5143V37H69.4943V28.636H70.5863V36.112ZM77.326 37.084C76.774 37.084 76.278 36.988 75.838 36.796C75.406 36.596 75.066 36.324 74.818 35.98C74.57 35.628 74.442 35.224 74.434 34.768H75.598C75.638 35.16 75.798 35.492 76.078 35.764C76.366 36.028 76.782 36.16 77.326 36.16C77.846 36.16 78.254 36.032 78.55 35.776C78.854 35.512 79.006 35.176 79.006 34.768C79.006 34.448 78.918 34.188 78.742 33.988C78.566 33.788 78.346 33.636 78.082 33.532C77.818 33.428 77.462 33.316 77.014 33.196C76.462 33.052 76.018 32.908 75.682 32.764C75.354 32.62 75.07 32.396 74.83 32.092C74.598 31.78 74.482 31.364 74.482 30.844C74.482 30.388 74.598 29.984 74.83 29.632C75.062 29.28 75.386 29.008 75.802 28.816C76.226 28.624 76.71 28.528 77.254 28.528C78.038 28.528 78.678 28.724 79.174 29.116C79.678 29.508 79.962 30.028 80.026 30.676H78.826C78.786 30.356 78.618 30.076 78.322 29.836C78.026 29.588 77.634 29.464 77.146 29.464C76.69 29.464 76.318 29.584 76.03 29.824C75.742 30.056 75.598 30.384 75.598 30.808C75.598 31.112 75.682 31.36 75.85 31.552C76.026 31.744 76.238 31.892 76.486 31.996C76.742 32.092 77.098 32.204 77.554 32.332C78.106 32.484 78.55 32.636 78.886 32.788C79.222 32.932 79.51 33.16 79.75 33.472C79.99 33.776 80.11 34.192 80.11 34.72C80.11 35.128 80.002 35.512 79.786 35.872C79.57 36.232 79.25 36.524 78.826 36.748C78.402 36.972 77.902 37.084 77.326 37.084Z" fill="#0A0D0F"/>
<rect x="96.7148" y="15" width="88.9856" height="36" rx="4" fill="#F5F5F5"/>
<path d="M115.848 25.4614L116.021 25.5024L116.022 25.5034L121.482 27.2837L121.483 27.2847C121.85 27.4039 122.095 27.6976 122.152 28.0249L122.165 28.1675L122.2 33.479C122.209 34.8738 121.709 36.3213 120.806 37.4272L120.619 37.644C120.217 38.0884 119.708 38.4874 119.057 38.855L118.769 39.0103V39.0112L115.832 40.5356L115.83 40.5366C115.812 40.5459 115.79 40.5509 115.766 40.5513C115.753 40.5511 115.741 40.5499 115.729 40.5474L115.698 40.5366L112.735 39.0454C112.036 38.6929 111.484 38.3109 111.046 37.8853L110.865 37.6997C109.896 36.6554 109.332 35.2356 109.258 33.8306L109.25 33.5503L109.215 28.2427C109.212 27.8603 109.468 27.4926 109.887 27.3501L109.886 27.3491L115.325 25.5063L115.329 25.5054C115.492 25.4488 115.672 25.4341 115.848 25.4614Z" stroke="#0A0D0F" stroke-width="1.00022"/>
<path d="M119.009 30.861L115.314 34.5564C115.265 34.6055 115.206 34.6444 115.142 34.671C115.078 34.6976 115.009 34.7112 114.94 34.7112C114.871 34.7112 114.802 34.6976 114.738 34.671C114.674 34.6444 114.616 34.6055 114.567 34.5564L112.983 32.9727C112.884 32.8736 112.828 32.7393 112.828 32.5992C112.828 32.4591 112.884 32.3247 112.983 32.2257C113.082 32.1266 113.216 32.071 113.356 32.071C113.496 32.071 113.631 32.1266 113.73 32.2257L114.94 33.4359L118.262 30.114C118.311 30.0649 118.369 30.026 118.433 29.9995C118.497 29.973 118.566 29.9593 118.635 29.9593C118.705 29.9593 118.774 29.973 118.838 29.9995C118.902 30.026 118.96 30.0649 119.009 30.114C119.058 30.163 119.097 30.2213 119.123 30.2854C119.15 30.3494 119.164 30.4181 119.164 30.4875C119.164 30.5569 119.15 30.6256 119.123 30.6896C119.097 30.7537 119.058 30.812 119.009 30.861Z" fill="#0A0D0F"/>
<path d="M133.417 37.084C132.641 37.084 131.933 36.904 131.293 36.544C130.653 36.176 130.145 35.668 129.769 35.02C129.401 34.364 129.217 33.628 129.217 32.812C129.217 31.996 129.401 31.264 129.769 30.616C130.145 29.96 130.653 29.452 131.293 29.092C131.933 28.724 132.641 28.54 133.417 28.54C134.201 28.54 134.913 28.724 135.553 29.092C136.193 29.452 136.697 29.956 137.065 30.604C137.433 31.252 137.617 31.988 137.617 32.812C137.617 33.636 137.433 34.372 137.065 35.02C136.697 35.668 136.193 36.176 135.553 36.544C134.913 36.904 134.201 37.084 133.417 37.084ZM133.417 36.136C134.001 36.136 134.525 36 134.989 35.728C135.461 35.456 135.829 35.068 136.093 34.564C136.365 34.06 136.501 33.476 136.501 32.812C136.501 32.14 136.365 31.556 136.093 31.06C135.829 30.556 135.465 30.168 135.001 29.896C134.537 29.624 134.009 29.488 133.417 29.488C132.825 29.488 132.297 29.624 131.833 29.896C131.369 30.168 131.001 30.556 130.729 31.06C130.465 31.556 130.333 32.14 130.333 32.812C130.333 33.476 130.465 34.06 130.729 34.564C131.001 35.068 131.369 35.456 131.833 35.728C132.305 36 132.833 36.136 133.417 36.136ZM144.003 35.14H140.355L139.683 37H138.531L141.555 28.684H142.815L145.827 37H144.675L144.003 35.14ZM143.691 34.252L142.179 30.028L140.667 34.252H143.691ZM152.977 30.424V37H151.885V36.028C151.677 36.364 151.385 36.628 151.009 36.82C150.641 37.004 150.233 37.096 149.785 37.096C149.273 37.096 148.813 36.992 148.405 36.784C147.997 36.568 147.673 36.248 147.433 35.824C147.201 35.4 147.085 34.884 147.085 34.276V30.424H148.165V34.132C148.165 34.78 148.329 35.28 148.657 35.632C148.985 35.976 149.433 36.148 150.001 36.148C150.585 36.148 151.045 35.968 151.381 35.608C151.717 35.248 151.885 34.724 151.885 34.036V30.424H152.977ZM156.152 31.324V35.2C156.152 35.52 156.22 35.748 156.356 35.884C156.492 36.012 156.728 36.076 157.064 36.076H157.868V37H156.884C156.276 37 155.82 36.86 155.516 36.58C155.212 36.3 155.06 35.84 155.06 35.2V31.324H154.208V30.424H155.06V28.768H156.152V30.424H157.868V31.324H156.152ZM162.456 30.304C162.952 30.304 163.4 30.412 163.8 30.628C164.2 30.836 164.512 31.152 164.736 31.576C164.968 32 165.084 32.516 165.084 33.124V37H164.004V33.28C164.004 32.624 163.84 32.124 163.512 31.78C163.184 31.428 162.736 31.252 162.168 31.252C161.592 31.252 161.132 31.432 160.788 31.792C160.452 32.152 160.284 32.676 160.284 33.364V37H159.192V28.12H160.284V31.36C160.5 31.024 160.796 30.764 161.172 30.58C161.556 30.396 161.984 30.304 162.456 30.304ZM166.555 36.124C167.571 35.308 168.367 34.64 168.943 34.12C169.519 33.592 170.003 33.044 170.395 32.476C170.795 31.9 170.995 31.336 170.995 30.784C170.995 30.264 170.867 29.856 170.611 29.56C170.363 29.256 169.959 29.104 169.399 29.104C168.855 29.104 168.431 29.276 168.127 29.62C167.831 29.956 167.671 30.408 167.647 30.976H166.591C166.623 30.08 166.895 29.388 167.407 28.9C167.919 28.412 168.579 28.168 169.387 28.168C170.211 28.168 170.863 28.396 171.343 28.852C171.831 29.308 172.075 29.936 172.075 30.736C172.075 31.4 171.875 32.048 171.475 32.68C171.083 33.304 170.635 33.856 170.131 34.336C169.627 34.808 168.983 35.36 168.199 35.992H172.327V36.904H166.555V36.124Z" fill="#242424"/>
</g>
<rect x="0.5" y="0.5" width="535" height="388" rx="15.5" stroke="url(#paint22_linear_9684_112908)" stroke-opacity="0.47"/>
<defs>
<linearGradient id="paint0_linear_9684_112908" x1="268" y1="0" x2="268" y2="389" gradientUnits="userSpaceOnUse">
<stop stop-color="#161C20"/>
<stop offset="1" stop-color="#0A0D0F"/>
</linearGradient>
<radialGradient id="paint1_radial_9684_112908" cx="0" cy="0" r="1" gradientUnits="userSpaceOnUse" gradientTransform="translate(270.482 212.208) scale(276.388 252.727)">
<stop stop-color="#D9D9D9" stop-opacity="0.8"/>
<stop offset="1" stop-color="#737373"/>
</radialGradient>
<linearGradient id="paint2_linear_9684_112908" x1="466.917" y1="86.6873" x2="542.826" y2="58.2974" gradientUnits="userSpaceOnUse">
<stop stop-color="#33373A"/>
<stop offset="1" stop-color="#33373A" stop-opacity="0"/>
</linearGradient>
<linearGradient id="paint3_linear_9684_112908" x1="526.291" y1="135.775" x2="458.689" y2="109.164" gradientUnits="userSpaceOnUse">
<stop stop-color="#33373A" stop-opacity="0"/>
<stop offset="1" stop-color="#33373A"/>
</linearGradient>
<linearGradient id="paint4_linear_9684_112908" x1="519.976" y1="151.891" x2="433.861" y2="151.891" gradientUnits="userSpaceOnUse">
<stop stop-color="#33373A" stop-opacity="0"/>
<stop offset="1" stop-color="#33373A"/>
</linearGradient>
<linearGradient id="paint5_linear_9684_112908" x1="466.917" y1="246.687" x2="542.826" y2="218.297" gradientUnits="userSpaceOnUse">
<stop stop-color="#33373A"/>
<stop offset="1" stop-color="#33373A" stop-opacity="0"/>
</linearGradient>
<linearGradient id="paint6_linear_9684_112908" x1="526.291" y1="295.775" x2="458.689" y2="269.164" gradientUnits="userSpaceOnUse">
<stop stop-color="#33373A" stop-opacity="0"/>
<stop offset="1" stop-color="#33373A"/>
</linearGradient>
<linearGradient id="paint7_linear_9684_112908" x1="519.859" y1="313" x2="433.744" y2="313" gradientUnits="userSpaceOnUse">
<stop stop-color="#33373A" stop-opacity="0"/>
<stop offset="1" stop-color="#33373A"/>
</linearGradient>
<linearGradient id="paint8_linear_9684_112908" x1="81.4805" y1="180.998" x2="81.4805" y2="228.998" gradientUnits="userSpaceOnUse">
<stop stop-color="#161C20"/>
<stop offset="1" stop-color="#0A0D0F"/>
</linearGradient>
<linearGradient id="paint9_linear_9684_112908" x1="81.4805" y1="204.982" x2="81.4805" y2="228.998" gradientUnits="userSpaceOnUse">
<stop stop-color="#3B3D3F" stop-opacity="0.5"/>
<stop offset="1" stop-color="#3B3D3F" stop-opacity="0.89"/>
</linearGradient>
<linearGradient id="paint10_linear_9684_112908" x1="260.48" y1="99.9984" x2="260.48" y2="147.998" gradientUnits="userSpaceOnUse">
<stop stop-color="#161C20"/>
<stop offset="1" stop-color="#0A0D0F"/>
</linearGradient>
<linearGradient id="paint11_linear_9684_112908" x1="260.48" y1="123.982" x2="260.48" y2="147.998" gradientUnits="userSpaceOnUse">
<stop stop-color="#3B3D3F" stop-opacity="0.5"/>
<stop offset="1" stop-color="#3B3D3F" stop-opacity="0.89"/>
</linearGradient>
<linearGradient id="paint12_linear_9684_112908" x1="260.48" y1="261.998" x2="260.48" y2="309.998" gradientUnits="userSpaceOnUse">
<stop stop-color="#161C20"/>
<stop offset="1" stop-color="#0A0D0F"/>
</linearGradient>
<linearGradient id="paint13_linear_9684_112908" x1="260.48" y1="285.982" x2="260.48" y2="309.998" gradientUnits="userSpaceOnUse">
<stop stop-color="#3B3D3F" stop-opacity="0.5"/>
<stop offset="1" stop-color="#3B3D3F" stop-opacity="0.89"/>
</linearGradient>
<linearGradient id="paint14_linear_9684_112908" x1="439.242" y1="65.9984" x2="439.242" y2="113.998" gradientUnits="userSpaceOnUse">
<stop stop-color="#161C20"/>
<stop offset="1" stop-color="#0A0D0F"/>
</linearGradient>
<linearGradient id="paint15_linear_9684_112908" x1="439.242" y1="89.9823" x2="439.242" y2="113.998" gradientUnits="userSpaceOnUse">
<stop stop-color="#3B3D3F" stop-opacity="0.5"/>
<stop offset="1" stop-color="#3B3D3F" stop-opacity="0.89"/>
</linearGradient>
<linearGradient id="paint16_linear_9684_112908" x1="439.242" y1="136.998" x2="439.242" y2="184.998" gradientUnits="userSpaceOnUse">
<stop stop-color="#161C20"/>
<stop offset="1" stop-color="#0A0D0F"/>
</linearGradient>
<linearGradient id="paint17_linear_9684_112908" x1="439.242" y1="160.982" x2="439.242" y2="184.998" gradientUnits="userSpaceOnUse">
<stop stop-color="#3B3D3F" stop-opacity="0.5"/>
<stop offset="1" stop-color="#3B3D3F" stop-opacity="0.89"/>
</linearGradient>
<linearGradient id="paint18_linear_9684_112908" x1="439.242" y1="297.998" x2="439.242" y2="345.998" gradientUnits="userSpaceOnUse">
<stop stop-color="#161C20"/>
<stop offset="1" stop-color="#0A0D0F"/>
</linearGradient>
<linearGradient id="paint19_linear_9684_112908" x1="439.242" y1="321.982" x2="439.242" y2="345.998" gradientUnits="userSpaceOnUse">
<stop stop-color="#3B3D3F" stop-opacity="0.5"/>
<stop offset="1" stop-color="#3B3D3F" stop-opacity="0.89"/>
</linearGradient>
<linearGradient id="paint20_linear_9684_112908" x1="439.242" y1="225.998" x2="439.242" y2="273.998" gradientUnits="userSpaceOnUse">
<stop stop-color="#161C20"/>
<stop offset="1" stop-color="#0A0D0F"/>
</linearGradient>
<linearGradient id="paint21_linear_9684_112908" x1="439.242" y1="249.982" x2="439.242" y2="273.998" gradientUnits="userSpaceOnUse">
<stop stop-color="#3B3D3F" stop-opacity="0.5"/>
<stop offset="1" stop-color="#3B3D3F" stop-opacity="0.89"/>
</linearGradient>
<linearGradient id="paint22_linear_9684_112908" x1="268" y1="0" x2="268" y2="389" gradientUnits="userSpaceOnUse">
<stop stop-color="#3B3D3F" stop-opacity="0.4"/>
<stop offset="1" stop-color="#3B3D3F"/>
</linearGradient>
<clipPath id="clip0_9684_112908">
<rect width="536" height="389" rx="16" fill="white"/>
</clipPath>
<clipPath id="clip1_9684_112908">
<rect width="28" height="28" fill="white" transform="translate(67.4805 190.998)"/>
</clipPath>
<clipPath id="clip2_9684_112908">
<rect width="28" height="28" fill="white" transform="translate(246.48 109.998)"/>
</clipPath>
<clipPath id="clip3_9684_112908">
<rect width="28" height="28" fill="white" transform="translate(246.48 271.998)"/>
</clipPath>
</defs>
</svg>
