<svg width="708" height="471" viewBox="0 0 708 471" fill="none" xmlns="http://www.w3.org/2000/svg">
<g clip-path="url(#clip0_10672_168974)">
<rect y="0.683472" width="708" height="470" rx="16" fill="url(#paint0_linear_10672_168974)"/>
<mask id="mask0_10672_168974" style="mask-type:alpha" maskUnits="userSpaceOnUse" x="9" y="-33" width="690" height="537">
<path d="M699 503.681L609.562 503.681L15.1224 503.681L8.99998 -32.3105L699 -32.3105L699 503.681Z" fill="url(#paint1_radial_10672_168974)"/>
</mask>
<g mask="url(#mask0_10672_168974)">
<path d="M52.5742 -121.575V617.387" stroke="#181E22" stroke-width="0.624123"/>
<path d="M108.744 -121.575V617.387" stroke="#181E22" stroke-width="0.624123"/>
<path d="M164.916 -121.575V617.387" stroke="#181E22" stroke-width="0.624123"/>
<path d="M221.086 -121.575V617.387" stroke="#181E22" stroke-width="0.624123"/>
<path d="M277.258 -121.575V617.387" stroke="#181E22" stroke-width="0.624123"/>
<path d="M333.43 -121.575V617.387" stroke="#181E22" stroke-width="0.624123"/>
<path d="M389.6 -121.575V617.387" stroke="#181E22" stroke-width="0.624123"/>
<path d="M445.771 -121.575V617.387" stroke="#181E22" stroke-width="0.624123"/>
<path d="M501.941 -121.575V617.387" stroke="#181E22" stroke-width="0.624123"/>
<path d="M558.113 -121.575V617.387" stroke="#181E22" stroke-width="0.624123"/>
<path d="M614.285 -121.575V617.387" stroke="#181E22" stroke-width="0.624123"/>
<path d="M670.455 -121.575V617.387" stroke="#181E22" stroke-width="0.624123"/>
</g>
<path d="M261.68 170.789C261.966 170.789 262.198 170.556 262.198 170.27C262.198 169.983 261.966 169.751 261.68 169.751V170.789ZM205.298 250.445C205.501 250.648 205.829 250.648 206.032 250.445L209.332 247.144C209.535 246.942 209.535 246.613 209.332 246.411C209.13 246.208 208.801 246.208 208.599 246.411L205.665 249.345L202.731 246.411C202.528 246.208 202.2 246.208 201.997 246.411C201.795 246.613 201.795 246.942 201.997 247.144L205.298 250.445ZM261.68 170.27V169.751H213.963V170.27V170.789H261.68V170.27ZM205.665 178.568H205.146V250.078H205.665H206.183V178.568H205.665ZM213.963 170.27V169.751C209.094 169.751 205.146 173.699 205.146 178.568H205.665H206.183C206.183 174.272 209.667 170.789 213.963 170.789V170.27Z" fill="#3B3D3F"/>
<path d="M446.322 170.724C446.036 170.724 445.804 170.492 445.804 170.205C445.804 169.919 446.036 169.686 446.322 169.686V170.724ZM502.704 250.445C502.501 250.648 502.173 250.648 501.97 250.445L498.67 247.144C498.467 246.942 498.467 246.613 498.67 246.411C498.872 246.208 499.201 246.208 499.403 246.411L502.337 249.345L505.271 246.411C505.474 246.208 505.802 246.208 506.005 246.411C506.207 246.613 506.207 246.942 506.005 247.144L502.704 250.445ZM446.322 170.205V169.686H494.039V170.205V170.724H446.322V170.205ZM502.337 178.504H502.856V250.078H502.337H501.819V178.504H502.337ZM494.039 170.205V169.686C498.908 169.686 502.856 173.634 502.856 178.504H502.337H501.819C501.819 174.207 498.335 170.724 494.039 170.724V170.205Z" fill="#3B3D3F"/>
<path d="M301.292 226.739C301.292 226.452 301.06 226.22 300.773 226.22C300.487 226.22 300.255 226.452 300.255 226.739H301.292ZM300.407 250.445C300.609 250.648 300.938 250.648 301.14 250.445L304.441 247.144C304.643 246.942 304.643 246.613 304.441 246.411C304.238 246.208 303.91 246.208 303.707 246.411L300.773 249.345L297.839 246.411C297.637 246.208 297.309 246.208 297.106 246.411C296.903 246.613 296.903 246.942 297.106 247.144L300.407 250.445ZM300.773 226.739H300.255V250.078H300.773H301.292V226.739H300.773Z" fill="#3B3D3F"/>
<path d="M288.119 251.568H312.206C314.537 251.568 316.259 251.569 317.62 251.68C318.807 251.777 319.689 251.956 320.436 252.277L320.747 252.424C322.131 253.129 323.273 254.228 324.03 255.579L324.177 255.853C324.591 256.666 324.809 257.625 324.92 258.981C325.031 260.342 325.031 262.063 325.031 264.394V287.63C325.031 289.961 325.031 291.682 324.92 293.043C324.809 294.399 324.591 295.358 324.177 296.171C323.425 297.647 322.223 298.847 320.747 299.6C319.934 300.014 318.976 300.233 317.62 300.344C316.259 300.455 314.537 300.455 312.206 300.455H288.119C285.788 300.455 284.067 300.455 282.706 300.344C281.52 300.247 280.637 300.067 279.891 299.746L279.578 299.6C278.194 298.894 277.053 297.795 276.296 296.444L276.149 296.171C275.735 295.358 275.516 294.399 275.405 293.043C275.294 291.682 275.294 289.961 275.294 287.63V264.394C275.294 262.063 275.294 260.342 275.405 258.981C275.502 257.794 275.682 256.912 276.003 256.165L276.149 255.853C276.855 254.469 277.954 253.327 279.305 252.57L279.578 252.424C280.391 252.01 281.35 251.791 282.706 251.68C284.067 251.569 285.788 251.568 288.119 251.568Z" fill="url(#paint2_linear_10672_168974)"/>
<path d="M288.119 251.568H312.206C314.537 251.568 316.259 251.569 317.62 251.68C318.807 251.777 319.689 251.956 320.436 252.277L320.747 252.424C322.131 253.129 323.273 254.228 324.03 255.579L324.177 255.853C324.591 256.666 324.809 257.625 324.92 258.981C325.031 260.342 325.031 262.063 325.031 264.394V287.63C325.031 289.961 325.031 291.682 324.92 293.043C324.809 294.399 324.591 295.358 324.177 296.171C323.425 297.647 322.223 298.847 320.747 299.6C319.934 300.014 318.976 300.233 317.62 300.344C316.259 300.455 314.537 300.455 312.206 300.455H288.119C285.788 300.455 284.067 300.455 282.706 300.344C281.52 300.247 280.637 300.067 279.891 299.746L279.578 299.6C278.194 298.894 277.053 297.795 276.296 296.444L276.149 296.171C275.735 295.358 275.516 294.399 275.405 293.043C275.294 291.682 275.294 289.961 275.294 287.63V264.394C275.294 262.063 275.294 260.342 275.405 258.981C275.502 257.794 275.682 256.912 276.003 256.165L276.149 255.853C276.855 254.469 277.954 253.327 279.305 252.57L279.578 252.424C280.391 252.01 281.35 251.791 282.706 251.68C284.067 251.569 285.788 251.568 288.119 251.568Z" stroke="url(#paint3_linear_10672_168974)" stroke-width="0.904541"/>
<path d="M310.273 272.901C310.273 272.489 310.109 272.093 309.817 271.801C309.525 271.509 309.129 271.345 308.717 271.345H305.605V268.233C305.605 267.821 305.441 267.425 305.149 267.133C304.857 266.841 304.461 266.677 304.049 266.677H291.601C291.188 266.677 290.792 266.841 290.501 267.133C290.209 267.425 290.045 267.821 290.045 268.233V280.681C290.045 280.828 290.087 280.971 290.165 281.095C290.244 281.218 290.355 281.317 290.487 281.381C290.619 281.444 290.766 281.468 290.912 281.452C291.057 281.435 291.195 281.378 291.309 281.286L294.713 278.542V281.459C294.713 281.872 294.877 282.268 295.169 282.559C295.46 282.851 295.856 283.015 296.269 283.015H305.37L309.008 285.954C309.146 286.065 309.317 286.126 309.495 286.127C309.701 286.127 309.899 286.045 310.045 285.899C310.191 285.753 310.273 285.555 310.273 285.349V272.901ZM306.135 281.632C305.997 281.521 305.825 281.46 305.648 281.459H296.269V278.347H304.049C304.461 278.347 304.857 278.183 305.149 277.892C305.441 277.6 305.605 277.204 305.605 276.791V272.901H308.717V283.72L306.135 281.632Z" fill="white"/>
<path d="M194.047 251.568H217.283C219.614 251.568 221.335 251.568 222.696 251.679C223.883 251.776 224.765 251.956 225.512 252.277L225.824 252.424C227.208 253.129 228.349 254.228 229.106 255.579L229.253 255.852C229.667 256.665 229.886 257.624 229.997 258.98C230.108 260.341 230.108 262.062 230.108 264.393V287.63C230.108 289.961 230.108 291.682 229.997 293.043C229.9 294.229 229.72 295.111 229.399 295.858L229.253 296.171C228.548 297.555 227.449 298.696 226.098 299.453L225.824 299.599C225.011 300.014 224.052 300.233 222.696 300.344C221.335 300.455 219.614 300.455 217.283 300.455H194.047C191.716 300.455 189.995 300.455 188.634 300.344C187.448 300.247 186.565 300.067 185.818 299.746L185.506 299.599C184.122 298.894 182.981 297.795 182.224 296.444L182.077 296.171C181.663 295.357 181.444 294.399 181.333 293.043C181.222 291.682 181.222 289.961 181.222 287.63V264.393C181.222 262.062 181.222 260.341 181.333 258.98C181.43 257.794 181.61 256.912 181.931 256.165L182.077 255.852C182.782 254.468 183.881 253.327 185.232 252.57L185.506 252.424C186.319 252.009 187.278 251.79 188.634 251.679C189.995 251.568 191.716 251.568 194.047 251.568Z" fill="url(#paint4_linear_10672_168974)"/>
<path d="M194.047 251.568H217.283C219.614 251.568 221.335 251.568 222.696 251.679C223.883 251.776 224.765 251.956 225.512 252.277L225.824 252.424C227.208 253.129 228.349 254.228 229.106 255.579L229.253 255.852C229.667 256.665 229.886 257.624 229.997 258.98C230.108 260.341 230.108 262.062 230.108 264.393V287.63C230.108 289.961 230.108 291.682 229.997 293.043C229.9 294.229 229.72 295.111 229.399 295.858L229.253 296.171C228.548 297.555 227.449 298.696 226.098 299.453L225.824 299.599C225.011 300.014 224.052 300.233 222.696 300.344C221.335 300.455 219.614 300.455 217.283 300.455H194.047C191.716 300.455 189.995 300.455 188.634 300.344C187.448 300.247 186.565 300.067 185.818 299.746L185.506 299.599C184.122 298.894 182.981 297.795 182.224 296.444L182.077 296.171C181.663 295.357 181.444 294.399 181.333 293.043C181.222 291.682 181.222 289.961 181.222 287.63V264.393C181.222 262.062 181.222 260.341 181.333 258.98C181.43 257.794 181.61 256.912 181.931 256.165L182.077 255.852C182.782 254.468 183.881 253.327 185.232 252.57L185.506 252.424C186.319 252.009 187.278 251.79 188.634 251.679C189.995 251.568 191.716 251.568 194.047 251.568Z" stroke="url(#paint5_linear_10672_168974)" stroke-width="0.904541"/>
<path d="M217.075 266.174V273.057C217.075 283.552 208.063 287.033 206.259 287.625C205.873 287.754 205.455 287.754 205.07 287.625C203.263 287.033 194.254 283.552 194.254 273.057V266.174C194.254 265.677 194.454 265.201 194.811 264.849C195.168 264.498 195.651 264.3 196.156 264.3H215.173C215.677 264.3 216.161 264.498 216.518 264.849C216.874 265.201 217.075 265.677 217.075 266.174Z" fill="white"/>
<path d="M197.621 266.783H213.713C213.963 266.783 214.202 266.881 214.376 267.053C214.55 267.224 214.646 267.455 214.646 267.693V273.517C214.646 281.386 208.324 284.34 206.303 285.082L205.959 285.201L205.955 285.203C205.815 285.25 205.666 285.262 205.521 285.238L205.379 285.203L205.374 285.201L205.03 285.082C203.008 284.34 196.688 281.386 196.688 273.517V267.693C196.688 267.455 196.783 267.224 196.957 267.053C197.11 266.903 197.311 266.809 197.527 266.788L197.621 266.783Z" stroke="#0A0D0F" stroke-width="1.35124"/>
<path d="M209.857 276.442C209.561 276.442 209.294 276.391 209.055 276.29C208.82 276.188 208.634 276.043 208.496 275.852C208.358 275.662 208.287 275.437 208.283 275.178H209.195C209.207 275.352 209.268 275.49 209.377 275.591C209.49 275.692 209.644 275.743 209.839 275.743C210.037 275.743 210.193 275.696 210.307 275.603C210.42 275.506 210.477 275.38 210.477 275.226C210.477 275.101 210.438 274.997 210.361 274.916C210.284 274.835 210.187 274.773 210.07 274.728C209.956 274.679 209.798 274.627 209.596 274.57C209.32 274.489 209.095 274.41 208.921 274.333C208.751 274.252 208.603 274.132 208.478 273.974C208.356 273.812 208.295 273.598 208.295 273.33C208.295 273.079 208.358 272.86 208.484 272.674C208.609 272.488 208.786 272.346 209.012 272.249C209.239 272.147 209.499 272.097 209.79 272.097C210.228 272.097 210.582 272.204 210.854 272.419C211.129 272.63 211.281 272.925 211.309 273.306H210.374C210.365 273.16 210.303 273.041 210.185 272.948C210.072 272.85 209.92 272.802 209.729 272.802C209.563 272.802 209.43 272.844 209.328 272.929C209.231 273.014 209.183 273.138 209.183 273.3C209.183 273.413 209.219 273.509 209.292 273.586C209.369 273.658 209.462 273.719 209.571 273.768C209.685 273.812 209.843 273.865 210.045 273.926C210.321 274.007 210.546 274.088 210.72 274.169C210.894 274.25 211.044 274.371 211.17 274.534C211.295 274.696 211.358 274.908 211.358 275.172C211.358 275.398 211.299 275.609 211.182 275.804C211.064 275.998 210.892 276.154 210.665 276.271C210.438 276.385 210.169 276.442 209.857 276.442Z" fill="#0A0D0F"/>
<path d="M207.794 273.476C207.794 273.702 207.739 273.915 207.63 274.114C207.525 274.312 207.357 274.472 207.126 274.594C206.899 274.715 206.611 274.776 206.263 274.776H205.552V276.405H204.701V272.163H206.263C206.591 272.163 206.871 272.22 207.101 272.333C207.332 272.447 207.505 272.603 207.618 272.801C207.735 273 207.794 273.224 207.794 273.476ZM206.226 274.089C206.461 274.089 206.636 274.037 206.749 273.931C206.862 273.822 206.919 273.67 206.919 273.476C206.919 273.062 206.688 272.856 206.226 272.856H205.552V274.089H206.226Z" fill="#0A0D0F"/>
<path d="M203.857 272.163V276.405H203.006V272.163H203.857Z" fill="#0A0D0F"/>
<path d="M202.4 272.163V272.85H200.632V273.937H201.987V274.612H200.632V276.405H199.781V272.163H202.4Z" fill="#0A0D0F"/>
<path d="M401.644 226.739C401.644 226.452 401.411 226.22 401.125 226.22C400.839 226.22 400.606 226.452 400.606 226.739H401.644ZM400.758 250.445C400.961 250.648 401.289 250.648 401.492 250.445L404.792 247.144C404.995 246.942 404.995 246.613 404.792 246.411C404.59 246.208 404.262 246.208 404.059 246.411L401.125 249.345L398.191 246.411C397.988 246.208 397.66 246.208 397.458 246.411C397.255 246.613 397.255 246.942 397.458 247.144L400.758 250.445ZM401.125 226.739H400.606V250.078H401.125H401.644V226.739H401.125Z" fill="#3B3D3F"/>
<path d="M389.32 251.568H413.407C415.738 251.568 417.46 251.569 418.821 251.68C420.008 251.777 420.89 251.956 421.637 252.277L421.948 252.424C423.332 253.129 424.474 254.228 425.231 255.579L425.378 255.853C425.792 256.666 426.01 257.625 426.121 258.981C426.232 260.342 426.232 262.063 426.232 264.394V287.63C426.232 289.961 426.232 291.682 426.121 293.043C426.01 294.399 425.792 295.358 425.378 296.171C424.626 297.647 423.425 298.847 421.948 299.6C421.135 300.014 420.177 300.233 418.821 300.344C417.46 300.455 415.738 300.455 413.407 300.455H389.32C386.989 300.455 385.268 300.455 383.907 300.344C382.721 300.247 381.839 300.067 381.092 299.746L380.779 299.6C379.395 298.894 378.254 297.795 377.497 296.444L377.351 296.171C376.936 295.358 376.717 294.399 376.606 293.043C376.495 291.682 376.495 289.961 376.495 287.63V264.394C376.495 262.063 376.495 260.342 376.606 258.981C376.703 257.794 376.883 256.912 377.204 256.165L377.351 255.853C378.056 254.469 379.155 253.327 380.506 252.57L380.779 252.424C381.592 252.01 382.551 251.791 383.907 251.68C385.268 251.569 386.989 251.568 389.32 251.568Z" fill="url(#paint6_linear_10672_168974)"/>
<path d="M389.32 251.568H413.407C415.738 251.568 417.46 251.569 418.821 251.68C420.008 251.777 420.89 251.956 421.637 252.277L421.948 252.424C423.332 253.129 424.474 254.228 425.231 255.579L425.378 255.853C425.792 256.666 426.01 257.625 426.121 258.981C426.232 260.342 426.232 262.063 426.232 264.394V287.63C426.232 289.961 426.232 291.682 426.121 293.043C426.01 294.399 425.792 295.358 425.378 296.171C424.626 297.647 423.425 298.847 421.948 299.6C421.135 300.014 420.177 300.233 418.821 300.344C417.46 300.455 415.738 300.455 413.407 300.455H389.32C386.989 300.455 385.268 300.455 383.907 300.344C382.721 300.247 381.839 300.067 381.092 299.746L380.779 299.6C379.395 298.894 378.254 297.795 377.497 296.444L377.351 296.171C376.936 295.358 376.717 294.399 376.606 293.043C376.495 291.682 376.495 289.961 376.495 287.63V264.394C376.495 262.063 376.495 260.342 376.606 258.981C376.703 257.794 376.883 256.912 377.204 256.165L377.351 255.853C378.056 254.469 379.155 253.327 380.506 252.57L380.779 252.424C381.592 252.01 382.551 251.791 383.907 251.68C385.268 251.569 386.989 251.568 389.32 251.568Z" stroke="url(#paint7_linear_10672_168974)" stroke-width="0.904541"/>
<path d="M410.696 274.457H409.14V272.901H410.696C410.902 272.901 411.1 272.983 411.246 273.129C411.392 273.275 411.474 273.473 411.474 273.679C411.474 273.886 411.392 274.084 411.246 274.229C411.1 274.375 410.902 274.457 410.696 274.457ZM392.024 272.901C391.818 272.901 391.62 272.983 391.474 273.129C391.328 273.275 391.246 273.473 391.246 273.679C391.246 273.886 391.328 274.084 391.474 274.229C391.62 274.375 391.818 274.457 392.024 274.457H393.58V272.901H392.024ZM409.14 278.347C409.14 278.61 409.126 278.869 409.101 279.125H410.696C410.902 279.125 411.1 279.207 411.246 279.353C411.392 279.499 411.474 279.697 411.474 279.903C411.474 280.11 411.392 280.307 411.246 280.453C411.1 280.599 410.902 280.681 410.696 280.681H408.782C408.285 282.261 407.298 283.641 405.963 284.621C404.628 285.6 403.016 286.129 401.36 286.129C399.704 286.129 398.091 285.6 396.757 284.621C395.422 283.641 394.434 282.261 393.938 280.681H392.024C391.818 280.681 391.62 280.599 391.474 280.453C391.328 280.307 391.246 280.11 391.246 279.903C391.246 279.697 391.328 279.499 391.474 279.353C391.62 279.207 391.818 279.125 392.024 279.125H393.619C393.594 278.869 393.58 278.61 393.58 278.347V277.569H392.024C391.818 277.569 391.62 277.487 391.474 277.341C391.328 277.195 391.246 276.998 391.246 276.791C391.246 276.585 391.328 276.387 391.474 276.241C391.62 276.095 391.818 276.013 392.024 276.013H393.58V274.457H409.14V276.013H410.696C410.902 276.013 411.1 276.095 411.246 276.241C411.392 276.387 411.474 276.585 411.474 276.791C411.474 276.998 411.392 277.195 411.246 277.341C411.1 277.487 410.902 277.569 410.696 277.569H409.14V278.347ZM402.138 276.791C402.138 276.585 402.056 276.387 401.91 276.241C401.764 276.095 401.566 276.013 401.36 276.013C401.154 276.013 400.956 276.095 400.81 276.241C400.664 276.387 400.582 276.585 400.582 276.791V283.015C400.582 283.221 400.664 283.419 400.81 283.565C400.956 283.711 401.154 283.793 401.36 283.793C401.566 283.793 401.764 283.711 401.91 283.565C402.056 283.419 402.138 283.221 402.138 283.015V276.791ZM395.704 268.345C394.524 269.591 393.791 271.194 393.619 272.901H409.101C408.929 271.194 408.196 269.591 407.016 268.345L408.912 266.45C408.984 266.378 409.042 266.292 409.081 266.197C409.12 266.103 409.14 266.002 409.14 265.899C409.14 265.797 409.12 265.696 409.081 265.602C409.042 265.507 408.984 265.421 408.912 265.349C408.84 265.277 408.754 265.219 408.66 265.18C408.565 265.141 408.464 265.121 408.362 265.121C408.26 265.121 408.158 265.141 408.064 265.18C407.969 265.219 407.884 265.277 407.811 265.349L405.838 267.323C404.529 266.397 402.964 265.899 401.36 265.899C399.756 265.899 398.191 266.397 396.882 267.323L394.908 265.349C394.762 265.203 394.564 265.121 394.358 265.121C394.152 265.121 393.954 265.203 393.808 265.349C393.662 265.495 393.58 265.693 393.58 265.899C393.58 266.106 393.662 266.304 393.808 266.45L395.704 268.345Z" fill="white"/>
<path d="M490.719 251.568H514.806C517.137 251.568 518.859 251.569 520.22 251.68C521.406 251.777 522.288 251.956 523.035 252.277L523.347 252.424C524.731 253.129 525.873 254.228 526.63 255.579L526.776 255.853C527.191 256.666 527.409 257.625 527.52 258.981C527.631 260.342 527.631 262.063 527.631 264.394V287.63C527.631 289.961 527.631 291.682 527.52 293.043C527.409 294.399 527.191 295.358 526.776 296.171C526.024 297.647 524.823 298.847 523.347 299.6C522.534 300.014 521.575 300.233 520.22 300.344C518.859 300.455 517.137 300.455 514.806 300.455H490.719C488.388 300.455 486.667 300.455 485.306 300.344C484.119 300.247 483.237 300.067 482.49 299.746L482.178 299.6C480.794 298.894 479.653 297.795 478.896 296.444L478.749 296.171C478.335 295.358 478.116 294.399 478.005 293.043C477.894 291.682 477.894 289.961 477.894 287.63V264.394C477.894 262.063 477.894 260.342 478.005 258.981C478.102 257.794 478.282 256.912 478.603 256.165L478.749 255.853C479.454 254.469 480.553 253.327 481.904 252.57L482.178 252.424C482.991 252.01 483.95 251.791 485.306 251.68C486.667 251.569 488.388 251.568 490.719 251.568Z" fill="url(#paint8_linear_10672_168974)"/>
<path d="M490.719 251.568H514.806C517.137 251.568 518.859 251.569 520.22 251.68C521.406 251.777 522.288 251.956 523.035 252.277L523.347 252.424C524.731 253.129 525.873 254.228 526.63 255.579L526.776 255.853C527.191 256.666 527.409 257.625 527.52 258.981C527.631 260.342 527.631 262.063 527.631 264.394V287.63C527.631 289.961 527.631 291.682 527.52 293.043C527.409 294.399 527.191 295.358 526.776 296.171C526.024 297.647 524.823 298.847 523.347 299.6C522.534 300.014 521.575 300.233 520.22 300.344C518.859 300.455 517.137 300.455 514.806 300.455H490.719C488.388 300.455 486.667 300.455 485.306 300.344C484.119 300.247 483.237 300.067 482.49 299.746L482.178 299.6C480.794 298.894 479.653 297.795 478.896 296.444L478.749 296.171C478.335 295.358 478.116 294.399 478.005 293.043C477.894 291.682 477.894 289.961 477.894 287.63V264.394C477.894 262.063 477.894 260.342 478.005 258.981C478.102 257.794 478.282 256.912 478.603 256.165L478.749 255.853C479.454 254.469 480.553 253.327 481.904 252.57L482.178 252.424C482.991 252.01 483.95 251.791 485.306 251.68C486.667 251.569 488.388 251.568 490.719 251.568Z" stroke="url(#paint9_linear_10672_168974)" stroke-width="0.904541"/>
<path d="M511.316 267.455H497.312C496.9 267.455 496.504 267.619 496.212 267.911C495.92 268.203 495.756 268.599 495.756 269.011V270.567H494.201C493.788 270.567 493.392 270.731 493.1 271.023C492.808 271.315 492.645 271.711 492.645 272.123V283.015C492.645 283.428 492.808 283.824 493.1 284.115C493.392 284.407 493.788 284.571 494.201 284.571H508.204C508.617 284.571 509.013 284.407 509.304 284.115C509.596 283.824 509.76 283.428 509.76 283.015V281.459H511.316C511.729 281.459 512.125 281.295 512.416 281.003C512.708 280.712 512.872 280.316 512.872 279.903V269.011C512.872 268.599 512.708 268.203 512.416 267.911C512.125 267.619 511.729 267.455 511.316 267.455ZM508.204 272.123V273.679H494.201V272.123H508.204ZM511.316 279.903H509.76V272.123C509.76 271.711 509.596 271.315 509.304 271.023C509.013 270.731 508.617 270.567 508.204 270.567H497.312V269.011H511.316V279.903Z" fill="white"/>
<rect x="262.321" y="43.9689" width="183.23" height="183.23" rx="50.6567" stroke="#6C6E6F" stroke-width="1.28245" stroke-dasharray="1.28 5.13"/>
<g filter="url(#filter0_i_10672_168974)">
<rect x="289.898" y="71.5473" width="128.076" height="128.076" rx="30.7787" fill="#060809"/>
</g>
<rect x="290.54" y="72.1886" width="126.794" height="126.794" rx="30.1375" stroke="url(#paint10_linear_10672_168974)" stroke-width="1.28245"/>
<rect x="298.44" y="79.1385" width="111.98" height="113.029" rx="25.0077" fill="#0A0D0F" stroke="url(#paint11_linear_10672_168974)" stroke-width="1.28245"/>
<path d="M376.812 101.522H381.292C385.342 101.522 388.625 104.805 388.625 108.854V117.5" stroke="#FFCB5C" stroke-width="0.950481" stroke-linecap="round"/>
<path d="M331.059 101.522H326.579C322.529 101.522 319.246 104.805 319.246 108.854V117.5" stroke="#FFCB5C" stroke-width="0.950481" stroke-linecap="round"/>
<path d="M319.242 153.68L319.242 162.325C319.242 166.375 322.525 169.658 326.575 169.658L331.054 169.658" stroke="#FFCB5C" stroke-width="0.950481" stroke-linecap="round"/>
<path d="M376.812 169.652H381.292C385.342 169.652 388.625 166.37 388.625 162.32V153.675" stroke="#FFCB5C" stroke-width="0.950481" stroke-linecap="round"/>
<path d="M349.686 150.782C349.686 150.807 349.668 150.829 349.644 150.833L336.91 153.049C336.882 153.053 336.856 153.034 336.852 153.006C336.851 152.996 336.852 152.986 336.856 152.978L349.589 124.111C349.602 124.086 349.632 124.075 349.657 124.087C349.668 124.093 349.676 124.101 349.681 124.111L349.686 124.133L349.686 150.782Z" fill="#FFCB5C"/>
<path d="M351.832 150.839C351.832 150.865 351.851 150.886 351.877 150.89L370.95 153.052C370.978 153.055 371.003 153.034 371.006 153.005L371.006 152.993L371.002 152.979L351.929 109.739C351.916 109.713 351.886 109.703 351.86 109.715C351.849 109.72 351.84 109.73 351.836 109.741L351.832 109.76V150.839Z" fill="#FFCB5C"/>
<path d="M370.804 155.031L349.705 161.456L349.69 161.459L349.668 161.456L336.919 155.031C336.893 155.02 336.882 154.99 336.893 154.964C336.898 154.952 336.908 154.942 336.919 154.938L336.941 154.934H370.79C370.818 154.939 370.836 154.965 370.832 154.993C370.831 155.003 370.825 155.014 370.818 155.021L370.804 155.031Z" fill="#FFCB5C"/>
<rect x="329.556" y="353.81" width="48.8865" height="48.8865" rx="7.84624" fill="url(#paint12_linear_10672_168974)"/>
<rect x="329.556" y="353.81" width="48.8865" height="48.8865" rx="7.84624" stroke="url(#paint13_linear_10672_168974)" stroke-width="0.904541"/>
<path d="M362.558 378.461C362.562 378.321 362.562 378.181 362.558 378.041L364.009 376.228C364.085 376.133 364.138 376.021 364.163 375.902C364.188 375.783 364.185 375.659 364.153 375.542C363.915 374.648 363.559 373.789 363.095 372.989C363.034 372.884 362.95 372.795 362.849 372.729C362.747 372.662 362.632 372.621 362.512 372.607L360.205 372.35C360.109 372.249 360.012 372.152 359.913 372.058L359.641 369.746C359.627 369.625 359.585 369.51 359.518 369.409C359.452 369.307 359.363 369.223 359.258 369.162C358.457 368.699 357.599 368.343 356.705 368.106C356.587 368.075 356.464 368.071 356.344 368.096C356.225 368.121 356.113 368.174 356.018 368.25L354.21 369.693C354.07 369.693 353.93 369.693 353.79 369.693L351.978 368.245C351.882 368.169 351.771 368.116 351.651 368.091C351.532 368.066 351.409 368.07 351.291 368.101C350.397 368.34 349.539 368.695 348.738 369.159C348.634 369.22 348.544 369.305 348.478 369.406C348.412 369.507 348.37 369.622 348.356 369.743L348.099 372.053C347.998 372.15 347.901 372.247 347.808 372.345L345.495 372.611C345.375 372.625 345.259 372.667 345.158 372.733C345.057 372.8 344.972 372.889 344.912 372.994C344.448 373.794 344.093 374.653 343.854 375.547C343.823 375.664 343.82 375.788 343.845 375.907C343.87 376.026 343.923 376.138 343.999 376.233L345.443 378.041C345.443 378.181 345.443 378.321 345.443 378.461L343.995 380.274C343.918 380.369 343.866 380.481 343.841 380.6C343.816 380.719 343.819 380.843 343.851 380.96C344.089 381.854 344.445 382.713 344.909 383.513C344.969 383.618 345.054 383.707 345.155 383.773C345.256 383.84 345.372 383.881 345.492 383.895L347.799 384.152C347.895 384.253 347.993 384.35 348.091 384.444L348.36 386.756C348.374 386.877 348.416 386.992 348.482 387.093C348.549 387.195 348.638 387.279 348.743 387.34C349.544 387.803 350.402 388.159 351.296 388.397C351.414 388.428 351.537 388.431 351.656 388.406C351.776 388.381 351.887 388.328 351.982 388.252L353.79 386.809C353.93 386.813 354.07 386.813 354.21 386.809L356.023 388.26C356.118 388.336 356.23 388.389 356.349 388.414C356.469 388.439 356.592 388.435 356.71 388.404C357.604 388.166 358.462 387.81 359.262 387.346C359.367 387.285 359.456 387.2 359.523 387.099C359.589 386.998 359.631 386.882 359.645 386.762L359.901 384.455C360.003 384.36 360.1 384.262 360.193 384.164L362.506 383.891C362.626 383.877 362.742 383.835 362.843 383.769C362.944 383.702 363.028 383.613 363.089 383.508C363.553 382.708 363.908 381.849 364.146 380.955C364.178 380.838 364.181 380.714 364.156 380.595C364.13 380.476 364.078 380.364 364.001 380.269L362.558 378.461ZM354 382.141C353.231 382.141 352.479 381.913 351.839 381.485C351.2 381.058 350.701 380.45 350.407 379.74C350.112 379.029 350.035 378.247 350.185 377.492C350.335 376.738 350.706 376.044 351.25 375.5C351.794 374.956 352.487 374.586 353.241 374.436C353.996 374.286 354.778 374.363 355.489 374.657C356.2 374.952 356.807 375.45 357.235 376.09C357.662 376.73 357.89 377.482 357.89 378.251C357.89 379.283 357.48 380.272 356.751 381.002C356.021 381.731 355.032 382.141 354 382.141Z" fill="#3B3D3F"/>
<rect x="236.198" y="353.81" width="48.8865" height="48.8865" rx="7.84624" fill="url(#paint14_linear_10672_168974)"/>
<rect x="236.198" y="353.81" width="48.8865" height="48.8865" rx="7.84624" stroke="url(#paint15_linear_10672_168974)" stroke-width="0.904541"/>
<path d="M250.599 377.039C250.829 375.112 251.617 373.295 252.866 371.811C253.004 371.644 253.176 371.508 253.369 371.412C253.563 371.315 253.775 371.26 253.991 371.25C254.208 371.24 254.424 371.275 254.626 371.353C254.827 371.431 255.011 371.551 255.164 371.704L257.855 374.452C258.114 374.711 258.273 375.053 258.303 375.418C258.333 375.783 258.232 376.146 258.019 376.444C257.858 376.673 257.736 376.928 257.659 377.197C257.635 377.277 257.586 377.347 257.519 377.396C257.452 377.446 257.371 377.473 257.288 377.473H250.986C250.931 377.473 250.877 377.461 250.827 377.439C250.777 377.416 250.732 377.384 250.695 377.343C250.659 377.302 250.631 377.253 250.615 377.201C250.598 377.149 250.593 377.093 250.599 377.039ZM261.553 368.143C261.338 368.124 261.122 368.15 260.918 368.219C260.713 368.289 260.526 368.4 260.367 368.546C260.208 368.691 260.081 368.869 259.994 369.066C259.907 369.264 259.862 369.477 259.862 369.693V373.648C259.859 374.015 259.988 374.371 260.224 374.652C260.46 374.933 260.789 375.12 261.151 375.18C261.832 375.293 262.457 375.629 262.927 376.136C263.396 376.643 263.684 377.291 263.744 377.979C263.804 378.668 263.634 379.356 263.26 379.937C262.885 380.518 262.328 380.957 261.677 381.187C261.601 381.214 261.535 381.265 261.489 381.331C261.443 381.397 261.418 381.476 261.418 381.557V387.901C261.418 387.956 261.429 388.01 261.451 388.061C261.474 388.111 261.506 388.156 261.547 388.193C261.588 388.229 261.637 388.257 261.689 388.274C261.742 388.291 261.797 388.296 261.852 388.29C264.279 387.99 266.516 386.824 268.152 385.006C269.788 383.187 270.712 380.84 270.754 378.395C270.827 373.115 266.785 368.611 261.553 368.143ZM259.595 381.184C259.16 381.028 258.765 380.779 258.438 380.452C258.112 380.125 257.863 379.73 257.708 379.295C257.681 379.218 257.632 379.151 257.566 379.103C257.499 379.055 257.42 379.029 257.338 379.029H250.985C250.93 379.028 250.876 379.04 250.826 379.062C250.775 379.084 250.73 379.117 250.693 379.158C250.657 379.198 250.629 379.247 250.612 379.299C250.595 379.351 250.59 379.407 250.596 379.461C250.869 381.709 251.887 383.801 253.488 385.402C255.089 387.003 257.18 388.021 259.428 388.293C259.483 388.3 259.538 388.294 259.591 388.277C259.643 388.261 259.691 388.233 259.732 388.196C259.773 388.159 259.806 388.114 259.828 388.064C259.85 388.014 259.861 387.959 259.861 387.904V381.557C259.861 381.475 259.836 381.394 259.788 381.328C259.74 381.261 259.672 381.21 259.595 381.184Z" fill="#3B3D3F"/>
<rect x="422.915" y="353.81" width="48.8865" height="48.8865" rx="7.84624" fill="url(#paint16_linear_10672_168974)"/>
<rect x="422.915" y="353.81" width="48.8865" height="48.8865" rx="7.84624" stroke="url(#paint17_linear_10672_168974)" stroke-width="0.904541"/>
<path d="M455.916 369.693H438.8C438.387 369.693 437.992 369.857 437.7 370.148C437.408 370.44 437.244 370.836 437.244 371.249V385.252C437.244 385.665 437.408 386.061 437.7 386.353C437.992 386.645 438.387 386.808 438.8 386.808H455.916C456.328 386.808 456.724 386.645 457.016 386.353C457.308 386.061 457.472 385.665 457.472 385.252V371.249C457.472 370.836 457.308 370.44 457.016 370.148C456.724 369.857 456.328 369.693 455.916 369.693ZM447.066 378.858L443.176 381.97C443.096 382.034 443.005 382.082 442.907 382.11C442.808 382.139 442.706 382.147 442.604 382.136C442.502 382.125 442.404 382.094 442.315 382.044C442.225 381.995 442.146 381.929 442.082 381.849C442.018 381.769 441.971 381.677 441.942 381.579C441.914 381.481 441.905 381.378 441.916 381.277C441.928 381.175 441.959 381.077 442.008 380.987C442.058 380.898 442.124 380.819 442.204 380.755L445.334 378.251L442.204 375.746C442.124 375.683 442.058 375.604 442.008 375.514C441.959 375.425 441.928 375.326 441.916 375.225C441.905 375.123 441.914 375.02 441.942 374.922C441.971 374.824 442.018 374.732 442.082 374.652C442.146 374.573 442.225 374.506 442.315 374.457C442.404 374.408 442.502 374.376 442.604 374.365C442.706 374.354 442.808 374.363 442.907 374.391C443.005 374.419 443.096 374.467 443.176 374.531L447.066 377.643C447.157 377.716 447.231 377.808 447.282 377.913C447.332 378.019 447.359 378.134 447.359 378.251C447.359 378.367 447.332 378.483 447.282 378.588C447.231 378.693 447.157 378.786 447.066 378.858ZM452.026 382.141H448.136C447.93 382.141 447.732 382.059 447.586 381.913C447.44 381.767 447.358 381.569 447.358 381.363C447.358 381.156 447.44 380.958 447.586 380.812C447.732 380.667 447.93 380.585 448.136 380.585H452.026C452.232 380.585 452.43 380.667 452.576 380.812C452.722 380.958 452.804 381.156 452.804 381.363C452.804 381.569 452.722 381.767 452.576 381.913C452.43 382.059 452.232 382.141 452.026 382.141Z" fill="#3B3D3F"/>
<path d="M632 327.424L76 327.424" stroke="url(#paint18_linear_10672_168974)" stroke-width="1.55597" stroke-dasharray="1.65 6.6"/>
<path d="M632 428.044L76 428.044" stroke="url(#paint19_linear_10672_168974)" stroke-width="1.55597" stroke-dasharray="1.65 6.6"/>
<path d="M344.004 315.271C344.468 315.354 344.862 315.599 345.186 316.006C345.51 316.412 345.672 316.873 345.672 317.388C345.672 317.827 345.555 318.226 345.323 318.582C345.099 318.931 344.771 319.209 344.34 319.416C343.908 319.616 343.406 319.715 342.834 319.715H339.373V311.064H342.672C343.261 311.064 343.767 311.164 344.19 311.363C344.614 311.562 344.933 311.832 345.149 312.172C345.365 312.504 345.472 312.877 345.472 313.292C345.472 313.79 345.34 314.205 345.074 314.537C344.809 314.869 344.452 315.114 344.004 315.271ZM340.792 314.699H342.547C343.012 314.699 343.373 314.595 343.63 314.388C343.896 314.172 344.028 313.865 344.028 313.466C344.028 313.076 343.896 312.774 343.63 312.558C343.373 312.334 343.012 312.222 342.547 312.222H340.792V314.699ZM342.709 318.558C343.19 318.558 343.568 318.441 343.842 318.209C344.116 317.977 344.253 317.653 344.253 317.238C344.253 316.815 344.107 316.479 343.817 316.23C343.526 315.981 343.141 315.856 342.659 315.856H340.792V318.558H342.709ZM346.741 316.255C346.741 315.566 346.882 314.956 347.164 314.425C347.454 313.894 347.844 313.483 348.334 313.193C348.832 312.894 349.38 312.744 349.977 312.744C350.516 312.744 350.985 312.852 351.384 313.068C351.79 313.276 352.114 313.537 352.355 313.852V312.857H353.786V319.715H352.355V318.695C352.114 319.018 351.786 319.288 351.371 319.504C350.956 319.719 350.483 319.827 349.952 319.827C349.363 319.827 348.824 319.678 348.334 319.379C347.844 319.072 347.454 318.649 347.164 318.109C346.882 317.562 346.741 316.944 346.741 316.255ZM352.355 316.28C352.355 315.807 352.255 315.396 352.056 315.047C351.865 314.699 351.612 314.433 351.297 314.251C350.981 314.068 350.641 313.977 350.276 313.977C349.911 313.977 349.57 314.068 349.255 314.251C348.94 314.425 348.683 314.686 348.483 315.035C348.292 315.375 348.197 315.782 348.197 316.255C348.197 316.728 348.292 317.143 348.483 317.5C348.683 317.856 348.94 318.13 349.255 318.321C349.579 318.504 349.919 318.595 350.276 318.595C350.641 318.595 350.981 318.504 351.297 318.321C351.612 318.139 351.865 317.873 352.056 317.524C352.255 317.168 352.355 316.753 352.355 316.28ZM358.139 319.827C357.6 319.827 357.115 319.732 356.683 319.541C356.26 319.342 355.924 319.076 355.675 318.744C355.426 318.404 355.293 318.026 355.277 317.612H356.745C356.77 317.902 356.907 318.147 357.156 318.346C357.413 318.537 357.733 318.632 358.115 318.632C358.513 318.632 358.82 318.558 359.036 318.408C359.26 318.251 359.372 318.051 359.372 317.811C359.372 317.553 359.247 317.363 358.998 317.238C358.758 317.114 358.372 316.977 357.841 316.827C357.326 316.686 356.907 316.549 356.584 316.417C356.26 316.284 355.978 316.08 355.737 315.807C355.505 315.533 355.389 315.172 355.389 314.724C355.389 314.359 355.496 314.027 355.712 313.728C355.928 313.421 356.235 313.18 356.633 313.006C357.04 312.832 357.505 312.744 358.027 312.744C358.808 312.744 359.434 312.944 359.907 313.342C360.388 313.732 360.646 314.267 360.679 314.948H359.26C359.235 314.641 359.11 314.396 358.886 314.213C358.662 314.031 358.359 313.939 357.978 313.939C357.604 313.939 357.318 314.01 357.119 314.151C356.92 314.292 356.82 314.479 356.82 314.711C356.82 314.894 356.886 315.047 357.019 315.172C357.152 315.296 357.314 315.396 357.505 315.471C357.696 315.537 357.978 315.624 358.351 315.732C358.849 315.865 359.256 316.002 359.571 316.143C359.895 316.276 360.173 316.475 360.405 316.74C360.637 317.006 360.758 317.358 360.766 317.798C360.766 318.188 360.658 318.537 360.442 318.844C360.227 319.151 359.92 319.392 359.521 319.566C359.131 319.74 358.671 319.827 358.139 319.827ZM368.585 316.118C368.585 316.375 368.569 316.607 368.536 316.815H363.295C363.337 317.363 363.54 317.802 363.905 318.134C364.27 318.466 364.718 318.632 365.249 318.632C366.013 318.632 366.552 318.313 366.868 317.674H368.399C368.191 318.304 367.814 318.823 367.266 319.23C366.727 319.628 366.054 319.827 365.249 319.827C364.594 319.827 364.005 319.682 363.482 319.392C362.967 319.093 362.561 318.678 362.262 318.147C361.971 317.607 361.826 316.985 361.826 316.28C361.826 315.574 361.967 314.956 362.249 314.425C362.54 313.886 362.942 313.471 363.457 313.18C363.98 312.89 364.577 312.744 365.249 312.744C365.897 312.744 366.473 312.886 366.98 313.168C367.486 313.45 367.88 313.848 368.162 314.363C368.444 314.869 368.585 315.454 368.585 316.118ZM367.104 315.67C367.096 315.147 366.909 314.728 366.544 314.412C366.179 314.097 365.727 313.939 365.187 313.939C364.698 313.939 364.278 314.097 363.93 314.412C363.581 314.72 363.374 315.139 363.308 315.67H367.104Z" fill="white"/>
<path d="M348.536 415.296C348.536 415.735 348.432 416.15 348.225 416.54C348.017 416.93 347.685 417.25 347.229 417.499C346.772 417.739 346.187 417.86 345.474 417.86H343.905V421.37H342.486V412.719H345.474C346.138 412.719 346.698 412.835 347.154 413.067C347.619 413.291 347.963 413.598 348.187 413.989C348.42 414.379 348.536 414.814 348.536 415.296ZM345.474 416.702C346.013 416.702 346.416 416.582 346.681 416.341C346.947 416.092 347.08 415.744 347.08 415.296C347.08 414.349 346.544 413.876 345.474 413.876H343.905V416.702H345.474ZM351.308 412.159V421.37H349.889V412.159H351.308ZM359.383 414.511V421.37H357.964V420.561C357.74 420.843 357.445 421.067 357.08 421.233C356.723 421.391 356.341 421.47 355.935 421.47C355.395 421.47 354.91 421.358 354.478 421.134C354.055 420.909 353.719 420.578 353.47 420.138C353.23 419.698 353.109 419.167 353.109 418.544V414.511H354.516V418.333C354.516 418.947 354.669 419.42 354.976 419.752C355.283 420.075 355.703 420.237 356.234 420.237C356.765 420.237 357.184 420.075 357.491 419.752C357.806 419.42 357.964 418.947 357.964 418.333V414.511H359.383ZM363.745 421.482C363.205 421.482 362.72 421.387 362.288 421.196C361.865 420.997 361.529 420.731 361.28 420.399C361.031 420.059 360.898 419.681 360.882 419.266H362.351C362.376 419.557 362.512 419.802 362.761 420.001C363.019 420.192 363.338 420.287 363.72 420.287C364.118 420.287 364.425 420.212 364.641 420.063C364.865 419.905 364.977 419.706 364.977 419.466C364.977 419.208 364.853 419.017 364.604 418.893C364.363 418.768 363.977 418.632 363.446 418.482C362.932 418.341 362.512 418.204 362.189 418.071C361.865 417.939 361.583 417.735 361.342 417.461C361.11 417.188 360.994 416.827 360.994 416.378C360.994 416.013 361.102 415.681 361.317 415.383C361.533 415.076 361.84 414.835 362.239 414.661C362.645 414.486 363.11 414.399 363.633 414.399C364.413 414.399 365.039 414.598 365.512 414.997C365.994 415.387 366.251 415.922 366.284 416.603H364.865C364.84 416.295 364.716 416.051 364.492 415.868C364.268 415.686 363.965 415.594 363.583 415.594C363.21 415.594 362.923 415.665 362.724 415.806C362.525 415.947 362.425 416.134 362.425 416.366C362.425 416.549 362.492 416.702 362.624 416.827C362.757 416.951 362.919 417.051 363.11 417.125C363.301 417.192 363.583 417.279 363.956 417.387C364.454 417.52 364.861 417.656 365.176 417.798C365.5 417.93 365.778 418.129 366.01 418.395C366.243 418.661 366.363 419.013 366.371 419.453C366.371 419.843 366.263 420.192 366.048 420.499C365.832 420.806 365.525 421.046 365.126 421.221C364.736 421.395 364.276 421.482 363.745 421.482Z" fill="#9D9E9F"/>
</g>
<rect x="0.5" y="1.18347" width="707" height="469" rx="15.5" stroke="url(#paint20_linear_10672_168974)" stroke-opacity="0.47"/>
<defs>
<filter id="filter0_i_10672_168974" x="289.898" y="71.5473" width="128.076" height="129.359" filterUnits="userSpaceOnUse" color-interpolation-filters="sRGB">
<feFlood flood-opacity="0" result="BackgroundImageFix"/>
<feBlend mode="normal" in="SourceGraphic" in2="BackgroundImageFix" result="shape"/>
<feColorMatrix in="SourceAlpha" type="matrix" values="0 0 0 0 0 0 0 0 0 0 0 0 0 0 0 0 0 0 127 0" result="hardAlpha"/>
<feOffset dy="1.28245"/>
<feGaussianBlur stdDeviation="1.28245"/>
<feComposite in2="hardAlpha" operator="arithmetic" k2="-1" k3="1"/>
<feColorMatrix type="matrix" values="0 0 0 0 0 0 0 0 0 0 0 0 0 0 0 0 0 0 1 0"/>
<feBlend mode="normal" in2="shape" result="effect1_innerShadow_10672_168974"/>
</filter>
<linearGradient id="paint0_linear_10672_168974" x1="354" y1="0.683472" x2="354" y2="470.683" gradientUnits="userSpaceOnUse">
<stop stop-color="#161C20"/>
<stop offset="1" stop-color="#0A0D0F"/>
</linearGradient>
<radialGradient id="paint1_radial_10672_168974" cx="0" cy="0" r="1" gradientUnits="userSpaceOnUse" gradientTransform="translate(354 235.685) scale(345 315.465)">
<stop stop-color="#D9D9D9" stop-opacity="0.8"/>
<stop offset="1" stop-color="#737373"/>
</radialGradient>
<linearGradient id="paint2_linear_10672_168974" x1="300.163" y1="251.116" x2="300.163" y2="300.907" gradientUnits="userSpaceOnUse">
<stop stop-color="#161C20"/>
<stop offset="1" stop-color="#0A0D0F"/>
</linearGradient>
<linearGradient id="paint3_linear_10672_168974" x1="300.163" y1="275.995" x2="300.163" y2="300.907" gradientUnits="userSpaceOnUse">
<stop stop-color="#3B3D3F" stop-opacity="0.5"/>
<stop offset="1" stop-color="#3B3D3F" stop-opacity="0.89"/>
</linearGradient>
<linearGradient id="paint4_linear_10672_168974" x1="205.665" y1="251.116" x2="205.665" y2="300.907" gradientUnits="userSpaceOnUse">
<stop stop-color="#161C20"/>
<stop offset="1" stop-color="#0A0D0F"/>
</linearGradient>
<linearGradient id="paint5_linear_10672_168974" x1="205.665" y1="275.995" x2="205.665" y2="300.907" gradientUnits="userSpaceOnUse">
<stop stop-color="#3B3D3F" stop-opacity="0.5"/>
<stop offset="1" stop-color="#3B3D3F" stop-opacity="0.89"/>
</linearGradient>
<linearGradient id="paint6_linear_10672_168974" x1="401.364" y1="251.116" x2="401.364" y2="300.907" gradientUnits="userSpaceOnUse">
<stop stop-color="#161C20"/>
<stop offset="1" stop-color="#0A0D0F"/>
</linearGradient>
<linearGradient id="paint7_linear_10672_168974" x1="401.364" y1="275.995" x2="401.364" y2="300.907" gradientUnits="userSpaceOnUse">
<stop stop-color="#3B3D3F" stop-opacity="0.5"/>
<stop offset="1" stop-color="#3B3D3F" stop-opacity="0.89"/>
</linearGradient>
<linearGradient id="paint8_linear_10672_168974" x1="502.762" y1="251.116" x2="502.762" y2="300.907" gradientUnits="userSpaceOnUse">
<stop stop-color="#161C20"/>
<stop offset="1" stop-color="#0A0D0F"/>
</linearGradient>
<linearGradient id="paint9_linear_10672_168974" x1="502.762" y1="275.995" x2="502.762" y2="300.907" gradientUnits="userSpaceOnUse">
<stop stop-color="#3B3D3F" stop-opacity="0.5"/>
<stop offset="1" stop-color="#3B3D3F" stop-opacity="0.89"/>
</linearGradient>
<linearGradient id="paint10_linear_10672_168974" x1="353.917" y1="70.941" x2="353.968" y2="199.624" gradientUnits="userSpaceOnUse">
<stop stop-color="#1E1E1F" stop-opacity="0"/>
<stop offset="1" stop-color="#1E1E1F" stop-opacity="0.8"/>
</linearGradient>
<linearGradient id="paint11_linear_10672_168974" x1="354.43" y1="78.4973" x2="354.43" y2="192.809" gradientUnits="userSpaceOnUse">
<stop stop-color="#3B3D3F" stop-opacity="0.2"/>
<stop offset="1" stop-color="#3B3D3F" stop-opacity="0.4"/>
</linearGradient>
<linearGradient id="paint12_linear_10672_168974" x1="353.999" y1="353.358" x2="353.999" y2="403.149" gradientUnits="userSpaceOnUse">
<stop stop-color="#161C20"/>
<stop offset="1" stop-color="#0A0D0F"/>
</linearGradient>
<linearGradient id="paint13_linear_10672_168974" x1="353.999" y1="378.237" x2="353.999" y2="403.149" gradientUnits="userSpaceOnUse">
<stop stop-color="#3B3D3F" stop-opacity="0.5"/>
<stop offset="1" stop-color="#3B3D3F" stop-opacity="0.89"/>
</linearGradient>
<linearGradient id="paint14_linear_10672_168974" x1="260.642" y1="353.357" x2="260.642" y2="403.148" gradientUnits="userSpaceOnUse">
<stop stop-color="#161C20"/>
<stop offset="1" stop-color="#0A0D0F"/>
</linearGradient>
<linearGradient id="paint15_linear_10672_168974" x1="260.642" y1="378.236" x2="260.642" y2="403.148" gradientUnits="userSpaceOnUse">
<stop stop-color="#3B3D3F" stop-opacity="0.5"/>
<stop offset="1" stop-color="#3B3D3F" stop-opacity="0.89"/>
</linearGradient>
<linearGradient id="paint16_linear_10672_168974" x1="447.358" y1="353.357" x2="447.358" y2="403.148" gradientUnits="userSpaceOnUse">
<stop stop-color="#161C20"/>
<stop offset="1" stop-color="#0A0D0F"/>
</linearGradient>
<linearGradient id="paint17_linear_10672_168974" x1="447.358" y1="378.236" x2="447.358" y2="403.148" gradientUnits="userSpaceOnUse">
<stop stop-color="#3B3D3F" stop-opacity="0.5"/>
<stop offset="1" stop-color="#3B3D3F" stop-opacity="0.89"/>
</linearGradient>
<linearGradient id="paint18_linear_10672_168974" x1="615.921" y1="327.924" x2="70.9224" y2="327.924" gradientUnits="userSpaceOnUse">
<stop stop-color="#6C6E6F" stop-opacity="0"/>
<stop offset="0.5" stop-color="white"/>
<stop offset="1" stop-color="#6C6E6F" stop-opacity="0"/>
</linearGradient>
<linearGradient id="paint19_linear_10672_168974" x1="615.921" y1="428.544" x2="70.9224" y2="428.544" gradientUnits="userSpaceOnUse">
<stop stop-color="#6C6E6F" stop-opacity="0"/>
<stop offset="0.5" stop-color="#4B4D4E"/>
<stop offset="1" stop-color="#6C6E6F" stop-opacity="0"/>
</linearGradient>
<linearGradient id="paint20_linear_10672_168974" x1="354" y1="0.683472" x2="354" y2="470.683" gradientUnits="userSpaceOnUse">
<stop stop-color="#3B3D3F" stop-opacity="0.4"/>
<stop offset="1" stop-color="#3B3D3F"/>
</linearGradient>
<clipPath id="clip0_10672_168974">
<rect y="0.683472" width="708" height="470" rx="16" fill="white"/>
</clipPath>
</defs>
</svg>
