<svg width="536" height="470" viewBox="0 0 536 470" fill="none" xmlns="http://www.w3.org/2000/svg">
<g clip-path="url(#clip0_10157_85306)">
<rect width="536" height="470" rx="16" fill="url(#paint0_linear_10157_85306)"/>
<mask id="mask0_10157_85306" style="mask-type:alpha" maskUnits="userSpaceOnUse" x="0" y="-12" width="545" height="490">
<path d="M0.333984 -11.0547H544.81V477.908H0.333984V-11.0547Z" fill="url(#paint1_radial_10157_85306)"/>
</mask>
<g mask="url(#mask0_10157_85306)">
<path d="M39.002 6V477" stroke="#181E22"/>
<path d="M106.002 6V477" stroke="#181E22"/>
<path d="M173.002 6V477" stroke="#181E22"/>
<path d="M240.002 6V477" stroke="#181E22"/>
<path d="M307.002 6V477" stroke="#181E22"/>
<path d="M374.002 6V477" stroke="#181E22"/>
<path d="M441.002 6V477" stroke="#181E22"/>
<path d="M508.002 6V477" stroke="#181E22"/>
<rect x="-70.748" y="16.25" width="621.5" height="0.5" fill="#2E2E38" stroke="#181E22" stroke-width="0.5"/>
<rect x="-70.748" y="57.25" width="621.5" height="0.5" fill="#2E2E38" stroke="#181E22" stroke-width="0.5"/>
<rect x="-70.748" y="98.25" width="621.5" height="0.5" fill="#2E2E38" stroke="#181E22" stroke-width="0.5"/>
<rect x="-70.748" y="139.25" width="621.5" height="0.5" fill="#2E2E38" stroke="#181E22" stroke-width="0.5"/>
<rect x="-70.748" y="180.25" width="621.5" height="0.5" fill="#2E2E38" stroke="#181E22" stroke-width="0.5"/>
<rect x="-70.748" y="221.25" width="621.5" height="0.5" fill="#2E2E38" stroke="#181E22" stroke-width="0.5"/>
<rect x="-70.748" y="262.25" width="621.5" height="0.5" fill="#2E2E38" stroke="#181E22" stroke-width="0.5"/>
<rect x="-70.748" y="303.25" width="621.5" height="0.5" fill="#2E2E38" stroke="#181E22" stroke-width="0.5"/>
<rect x="-70.748" y="344.25" width="621.5" height="0.5" fill="#2E2E38" stroke="#181E22" stroke-width="0.5"/>
<rect x="-70.748" y="385.25" width="621.5" height="0.5" fill="#2E2E38" stroke="#181E22" stroke-width="0.5"/>
<rect x="-70.748" y="426.25" width="621.5" height="0.5" fill="#2E2E38" stroke="#181E22" stroke-width="0.5"/>
<rect x="-70.748" y="467.25" width="621.5" height="0.5" fill="#2E2E38" stroke="#181E22" stroke-width="0.5"/>
</g>
<path d="M257.715 186.008H255.439L248.594 175.65V186.008H246.319V172.118H248.594L255.439 182.456V172.118H257.715V186.008ZM262.778 172.138V186.008H260.503V172.138H262.778ZM270.135 186.148C269.204 186.148 268.365 185.988 267.62 185.669C266.875 185.336 266.29 184.87 265.864 184.272C265.439 183.673 265.226 182.974 265.226 182.176H267.66C267.714 182.775 267.946 183.267 268.359 183.653C268.785 184.039 269.377 184.232 270.135 184.232C270.92 184.232 271.532 184.045 271.971 183.673C272.41 183.287 272.63 182.795 272.63 182.196C272.63 181.73 272.49 181.351 272.21 181.059C271.944 180.766 271.605 180.54 271.193 180.38C270.794 180.22 270.235 180.047 269.516 179.861C268.612 179.622 267.873 179.382 267.301 179.143C266.742 178.89 266.263 178.504 265.864 177.985C265.465 177.466 265.266 176.775 265.266 175.91C265.266 175.112 265.465 174.413 265.864 173.814C266.263 173.216 266.822 172.757 267.541 172.437C268.259 172.118 269.091 171.958 270.035 171.958C271.379 171.958 272.477 172.298 273.328 172.976C274.193 173.641 274.672 174.559 274.765 175.73H272.25C272.21 175.225 271.971 174.792 271.532 174.433C271.093 174.074 270.514 173.894 269.796 173.894C269.144 173.894 268.612 174.061 268.199 174.393C267.787 174.726 267.581 175.205 267.581 175.83C267.581 176.256 267.707 176.608 267.96 176.888C268.226 177.154 268.558 177.367 268.958 177.526C269.357 177.686 269.902 177.859 270.594 178.045C271.512 178.298 272.257 178.551 272.829 178.804C273.414 179.056 273.907 179.449 274.306 179.981C274.718 180.5 274.925 181.198 274.925 182.076C274.925 182.782 274.732 183.447 274.346 184.072C273.973 184.697 273.421 185.203 272.689 185.589C271.971 185.961 271.119 186.148 270.135 186.148ZM286.37 172.138V173.994H282.678V186.008H280.403V173.994H276.691V172.138H286.37Z" fill="white"/>
<path d="M222.016 232.892H238.668V237.996H215.056V233.408L231.657 207.27H215.056V202.166H238.668V206.754L222.016 232.892ZM269.581 223.097C269.581 224.162 269.512 225.125 269.375 225.984H247.67C247.842 228.252 248.684 230.074 250.197 231.449C251.709 232.823 253.565 233.511 255.765 233.511C258.927 233.511 261.161 232.188 262.467 229.541H268.808C267.949 232.153 266.385 234.301 264.116 235.985C261.882 237.635 259.098 238.46 255.765 238.46C253.049 238.46 250.609 237.859 248.444 236.656C246.313 235.418 244.629 233.7 243.391 231.5C242.189 229.266 241.587 226.689 241.587 223.767C241.587 220.846 242.171 218.285 243.34 216.085C244.543 213.851 246.21 212.133 248.341 210.93C250.506 209.727 252.981 209.126 255.765 209.126C258.445 209.126 260.834 209.71 262.931 210.879C265.027 212.047 266.66 213.697 267.828 215.828C268.997 217.924 269.581 220.347 269.581 223.097ZM263.446 221.241C263.412 219.076 262.638 217.34 261.126 216.034C259.614 214.728 257.741 214.075 255.507 214.075C253.479 214.075 251.743 214.728 250.3 216.034C248.856 217.306 247.997 219.041 247.722 221.241H263.446ZM279.695 213.714C280.555 212.27 281.689 211.153 283.098 210.363C284.542 209.538 286.243 209.126 288.202 209.126V215.209H286.707C284.404 215.209 282.651 215.793 281.448 216.962C280.28 218.13 279.695 220.158 279.695 223.045V237.996H273.818V209.59H279.695V213.714ZM304.379 238.46C301.698 238.46 299.275 237.859 297.11 236.656C294.945 235.418 293.243 233.7 292.006 231.5C290.769 229.266 290.15 226.689 290.15 223.767C290.15 220.88 290.786 218.32 292.058 216.085C293.329 213.851 295.065 212.133 297.265 210.93C299.464 209.727 301.922 209.126 304.637 209.126C307.352 209.126 309.809 209.727 312.009 210.93C314.209 212.133 315.944 213.851 317.216 216.085C318.488 218.32 319.124 220.88 319.124 223.767C319.124 226.654 318.471 229.215 317.165 231.449C315.858 233.683 314.071 235.418 311.803 236.656C309.569 237.859 307.094 238.46 304.379 238.46ZM304.379 233.356C305.891 233.356 307.3 232.995 308.607 232.274C309.947 231.552 311.03 230.469 311.854 229.026C312.679 227.582 313.092 225.829 313.092 223.767C313.092 221.705 312.696 219.969 311.906 218.56C311.115 217.117 310.067 216.034 308.761 215.312C307.455 214.59 306.046 214.23 304.534 214.23C303.021 214.23 301.612 214.59 300.306 215.312C299.035 216.034 298.021 217.117 297.265 218.56C296.508 219.969 296.13 221.705 296.13 223.767C296.13 226.826 296.904 229.197 298.45 230.882C300.031 232.531 302.008 233.356 304.379 233.356ZM232.337 250.166V254.96H222.799V285.996H216.922V254.96H207.333V250.166H232.337ZM242.62 261.714C243.479 260.27 244.613 259.153 246.022 258.363C247.466 257.538 249.167 257.126 251.126 257.126V263.209H249.631C247.328 263.209 245.575 263.793 244.372 264.962C243.204 266.13 242.62 268.158 242.62 271.045V285.996H236.742V257.59H242.62V261.714ZM280.707 257.59V285.996H274.83V282.645C273.902 283.814 272.682 284.742 271.17 285.429C269.692 286.082 268.111 286.409 266.427 286.409C264.193 286.409 262.182 285.945 260.395 285.017C258.642 284.089 257.25 282.714 256.219 280.892C255.222 279.071 254.724 276.871 254.724 274.293V257.59H260.55V273.417C260.55 275.96 261.185 277.919 262.457 279.294C263.729 280.634 265.464 281.305 267.664 281.305C269.864 281.305 271.599 280.634 272.871 279.294C274.177 277.919 274.83 275.96 274.83 273.417V257.59H280.707ZM297.226 286.46C294.992 286.46 292.981 286.065 291.194 285.274C289.441 284.449 288.049 283.35 287.018 281.975C285.987 280.566 285.437 279.002 285.369 277.283H291.452C291.555 278.486 292.122 279.5 293.153 280.325C294.219 281.116 295.542 281.511 297.123 281.511C298.773 281.511 300.044 281.202 300.938 280.583C301.866 279.93 302.33 279.105 302.33 278.108C302.33 277.043 301.814 276.252 300.783 275.737C299.787 275.221 298.188 274.654 295.989 274.035C293.858 273.451 292.122 272.884 290.782 272.334C289.441 271.784 288.273 270.942 287.276 269.808C286.314 268.674 285.833 267.179 285.833 265.323C285.833 263.811 286.279 262.436 287.173 261.198C288.067 259.927 289.338 258.93 290.988 258.208C292.672 257.487 294.597 257.126 296.762 257.126C299.993 257.126 302.588 257.951 304.547 259.6C306.54 261.216 307.606 263.432 307.743 266.251H301.866C301.763 264.979 301.247 263.965 300.319 263.209C299.391 262.453 298.137 262.075 296.556 262.075C295.009 262.075 293.824 262.367 292.999 262.951C292.174 263.536 291.761 264.309 291.761 265.271C291.761 266.027 292.036 266.663 292.586 267.179C293.136 267.694 293.806 268.107 294.597 268.416C295.387 268.691 296.556 269.052 298.103 269.499C300.165 270.049 301.849 270.616 303.155 271.2C304.495 271.75 305.647 272.575 306.609 273.675C307.571 274.774 308.07 276.235 308.104 278.057C308.104 279.672 307.657 281.116 306.764 282.387C305.87 283.659 304.598 284.656 302.949 285.377C301.333 286.099 299.426 286.46 297.226 286.46ZM319.765 262.384V278.108C319.765 279.174 320.005 279.947 320.486 280.428C321.002 280.875 321.861 281.098 323.064 281.098H326.673V285.996H322.033C319.387 285.996 317.359 285.377 315.95 284.14C314.54 282.903 313.836 280.892 313.836 278.108V262.384H310.485V257.59H313.836V250.527H319.765V257.59H326.673V262.384H319.765Z" fill="#1C76FD"/>
<path d="M220.251 301.117V302.973H214.364V307.064H218.954V308.92H214.364V314.986H212.089V301.117H220.251ZM224.435 305.587C224.768 305.028 225.207 304.596 225.752 304.29C226.311 303.97 226.97 303.811 227.728 303.811V306.166H227.149C226.258 306.166 225.579 306.392 225.114 306.844C224.661 307.296 224.435 308.081 224.435 309.199V314.986H222.16V303.99H224.435V305.587ZM228.861 309.438C228.861 308.334 229.088 307.356 229.54 306.505C230.006 305.653 230.631 304.995 231.416 304.529C232.214 304.05 233.092 303.811 234.05 303.811C234.915 303.811 235.667 303.984 236.305 304.33C236.957 304.662 237.476 305.081 237.862 305.587V303.99H240.157V314.986H237.862V313.35C237.476 313.869 236.95 314.301 236.285 314.647C235.62 314.993 234.862 315.166 234.01 315.166C233.066 315.166 232.201 314.926 231.416 314.448C230.631 313.955 230.006 313.277 229.54 312.412C229.088 311.534 228.861 310.543 228.861 309.438ZM237.862 309.478C237.862 308.72 237.702 308.061 237.383 307.503C237.077 306.944 236.671 306.518 236.166 306.225C235.66 305.933 235.114 305.786 234.529 305.786C233.944 305.786 233.398 305.933 232.893 306.225C232.387 306.505 231.975 306.924 231.655 307.483C231.349 308.028 231.196 308.68 231.196 309.438C231.196 310.197 231.349 310.862 231.655 311.434C231.975 312.006 232.387 312.445 232.893 312.751C233.412 313.044 233.957 313.19 234.529 313.19C235.114 313.19 235.66 313.044 236.166 312.751C236.671 312.459 237.077 312.033 237.383 311.474C237.702 310.902 237.862 310.237 237.862 309.478ZM256.256 303.811C257.121 303.811 257.893 303.99 258.571 304.35C259.263 304.709 259.802 305.241 260.188 305.946C260.587 306.651 260.787 307.503 260.787 308.5V314.986H258.531V308.84C258.531 307.855 258.285 307.104 257.793 306.585C257.301 306.052 256.629 305.786 255.777 305.786C254.926 305.786 254.247 306.052 253.742 306.585C253.25 307.104 253.004 307.855 253.004 308.84V314.986H250.748V308.84C250.748 307.855 250.502 307.104 250.01 306.585C249.518 306.052 248.846 305.786 247.994 305.786C247.143 305.786 246.464 306.052 245.959 306.585C245.467 307.104 245.22 307.855 245.22 308.84V314.986H242.945V303.99H245.22V305.248C245.593 304.795 246.065 304.443 246.637 304.19C247.209 303.937 247.821 303.811 248.473 303.811C249.351 303.811 250.136 303.997 250.828 304.369C251.52 304.742 252.052 305.281 252.425 305.986C252.757 305.321 253.276 304.795 253.981 304.409C254.687 304.01 255.445 303.811 256.256 303.811ZM273.56 309.219C273.56 309.631 273.533 310.004 273.48 310.336H265.078C265.145 311.215 265.471 311.92 266.056 312.452C266.642 312.984 267.36 313.25 268.212 313.25C269.436 313.25 270.3 312.738 270.806 311.713H273.261C272.928 312.725 272.323 313.556 271.445 314.208C270.58 314.847 269.502 315.166 268.212 315.166C267.161 315.166 266.216 314.933 265.378 314.467C264.553 313.989 263.901 313.323 263.422 312.472C262.956 311.607 262.724 310.609 262.724 309.478C262.724 308.347 262.95 307.356 263.402 306.505C263.868 305.64 264.513 304.975 265.338 304.509C266.176 304.044 267.134 303.811 268.212 303.811C269.249 303.811 270.174 304.037 270.986 304.489C271.797 304.942 272.429 305.58 272.881 306.405C273.334 307.217 273.56 308.155 273.56 309.219ZM271.185 308.5C271.172 307.662 270.873 306.99 270.287 306.485C269.702 305.979 268.977 305.727 268.112 305.727C267.327 305.727 266.655 305.979 266.096 306.485C265.537 306.977 265.205 307.649 265.098 308.5H271.185ZM290.367 303.99L286.955 314.986H284.56L282.345 306.864L280.129 314.986H277.735L274.302 303.99H276.617L278.912 312.831L281.247 303.99H283.622L285.857 312.791L288.132 303.99H290.367ZM296.637 315.166C295.6 315.166 294.662 314.933 293.824 314.467C292.985 313.989 292.327 313.323 291.848 312.472C291.369 311.607 291.129 310.609 291.129 309.478C291.129 308.361 291.376 307.37 291.868 306.505C292.36 305.64 293.032 304.975 293.883 304.509C294.735 304.044 295.686 303.811 296.737 303.811C297.788 303.811 298.739 304.044 299.591 304.509C300.442 304.975 301.114 305.64 301.607 306.505C302.099 307.37 302.345 308.361 302.345 309.478C302.345 310.596 302.092 311.587 301.587 312.452C301.081 313.317 300.389 313.989 299.511 314.467C298.646 314.933 297.688 315.166 296.637 315.166ZM296.637 313.19C297.223 313.19 297.768 313.051 298.274 312.771C298.793 312.492 299.212 312.073 299.531 311.514C299.85 310.955 300.01 310.277 300.01 309.478C300.01 308.68 299.857 308.008 299.551 307.463C299.245 306.904 298.839 306.485 298.334 306.205C297.828 305.926 297.283 305.786 296.697 305.786C296.112 305.786 295.566 305.926 295.061 306.205C294.569 306.485 294.176 306.904 293.883 307.463C293.591 308.008 293.444 308.68 293.444 309.478C293.444 310.662 293.744 311.58 294.342 312.232C294.954 312.871 295.719 313.19 296.637 313.19ZM306.669 305.587C307.002 305.028 307.441 304.596 307.987 304.29C308.545 303.97 309.204 303.811 309.962 303.811V306.166H309.384C308.492 306.166 307.814 306.392 307.348 306.844C306.896 307.296 306.669 308.081 306.669 309.199V314.986H304.394V303.99H306.669V305.587ZM316.204 309.498L321.273 314.986H318.2L314.129 310.257V314.986H311.854V300.219H314.129V308.8L318.12 303.99H321.273L316.204 309.498Z" fill="white"/>
<path d="M433.244 173.647L436.499 176.012L436.206 176.417L436.613 176.712C436.752 176.813 436.888 176.912 437.022 177.01L437.315 176.605C438.587 177.53 439.657 178.313 440.565 179.014L440.262 179.408C440.539 179.622 440.801 179.827 441.048 180.026L441.361 179.638C442.631 180.663 443.532 181.535 444.214 182.486L443.81 182.778C443.903 182.908 443.992 183.04 444.077 183.174C444.185 183.343 444.288 183.515 444.387 183.689L444.819 183.443C445.645 184.902 446.168 186.511 446.357 188.177L445.863 188.233C445.886 188.432 445.903 188.632 445.916 188.832C445.926 188.99 445.931 189.149 445.932 189.31L446.431 189.307C446.438 190.477 446.221 191.712 445.797 193.288L445.314 193.158C445.232 193.464 445.142 193.785 445.043 194.121L445.52 194.262C445.196 195.362 444.791 196.624 444.306 198.119L443.831 197.966L443.675 198.447L443.52 198.926L443.994 199.079L442.751 202.905L442.276 202.752L441.965 203.709L442.44 203.863L441.197 207.689L440.722 207.535L440.411 208.492L440.886 208.646L439.643 212.472L439.168 212.318L438.857 213.275L439.332 213.43L438.089 217.257L437.613 217.102L437.303 218.059L437.778 218.213L436.534 222.039L436.06 221.885L435.749 222.842L436.224 222.995L434.98 226.823L434.505 226.668L434.194 227.625L434.67 227.779L433.426 231.605L432.951 231.451L432.641 232.408L433.115 232.562L431.872 236.39L431.396 236.234L431.086 237.191L431.562 237.346L430.317 241.172L429.843 241.019L429.532 241.975L430.007 242.128L428.764 245.956L428.289 245.802L427.978 246.758L428.453 246.912L427.209 250.738L426.734 250.585L426.424 251.541L426.898 251.694L425.655 255.521L425.181 255.368L424.869 256.324L425.345 256.479L424.102 260.306L423.626 260.151L423.315 261.107L423.79 261.262L422.547 265.088L422.072 264.935L421.761 265.891L422.236 266.046L420.993 269.872L420.518 269.718L420.207 270.674L420.682 270.828L419.438 274.654L418.964 274.501L418.652 275.457L419.128 275.612L417.885 279.438L417.409 279.284L417.099 280.24L417.573 280.395L416.33 284.221L415.855 284.067L415.544 285.024L416.02 285.179L414.776 289.005L414.301 288.851L413.99 289.808L414.466 289.962L413.222 293.787L412.747 293.634L412.437 294.591L412.911 294.745L411.668 298.571L411.192 298.417L410.882 299.374L411.357 299.528L410.114 303.354L409.639 303.2L409.328 304.157L409.803 304.311L408.56 308.138L408.084 307.983L407.773 308.94L408.249 309.095L407.006 312.921L406.53 312.767L406.22 313.724L406.694 313.877L405.451 317.704L404.976 317.55L404.665 318.507L405.141 318.661L403.897 322.487L403.422 322.333L403.111 323.29L403.586 323.443L402.343 327.271L401.868 327.116L401.557 328.073L402.032 328.228L400.789 332.055L400.313 331.899L400.003 332.856L400.479 333.011L399.234 336.837L398.76 336.683L398.448 337.64L398.924 337.794L397.681 341.621L397.205 341.466L396.895 342.423L397.37 342.577L396.126 346.403L395.651 346.25L395.34 347.206L395.815 347.36L394.572 351.188L394.097 351.033L393.786 351.989L394.262 352.144L393.018 355.97L392.543 355.816L392.231 356.772L392.707 356.927L391.464 360.754L390.988 360.6L390.678 361.556L391.153 361.71L389.909 365.536L389.435 365.383L389.123 366.339L389.599 366.494L388.355 370.32L387.88 370.166L387.569 371.122L388.045 371.277L386.802 375.104L386.326 374.949L386.016 375.905L386.49 376.061L385.247 379.887L384.771 379.732L384.461 380.688L384.937 380.844L383.693 384.67L383.218 384.516L383.062 384.994C383.01 385.157 382.957 385.317 382.906 385.475L383.381 385.63C382.895 387.125 382.479 388.384 382.094 389.464L381.626 389.298C381.508 389.628 381.394 389.94 381.28 390.236L381.746 390.414C381.163 391.939 380.612 393.066 379.918 394.009L379.518 393.713L379.224 394.09C379.096 394.244 378.964 394.395 378.829 394.543L379.195 394.879C378.063 396.115 376.695 397.11 375.17 397.805L374.963 397.352C374.872 397.393 374.781 397.433 374.688 397.473L374.41 397.587C374.263 397.645 374.114 397.7 373.962 397.75L374.118 398.223C373.007 398.592 371.765 398.767 370.135 398.851L370.109 398.353C369.793 398.369 369.46 398.381 369.11 398.391L369.123 398.888C367.977 398.92 366.651 398.925 365.079 398.926V398.427H364.07V398.927H360.047V398.427H359.041V398.927H355.018V398.427H354.012V398.927H349.988V398.427H348.982V398.927H344.959V398.427H343.953V398.927H339.93V398.427H338.924V398.927H334.899V398.427H333.894V398.927H329.87V398.427H328.864V398.927H324.841V398.427H323.835V398.927H319.812V398.427H318.806V398.927H314.782V398.427H313.776V398.927H309.753V398.427H308.747V398.927H304.724V398.427H303.718V398.927H299.694V398.427H298.688V398.927H294.665V398.427H293.659V398.927H289.636V398.427H288.629V398.927H284.605V398.427H283.6V398.927H279.576V398.427H278.57V398.927H274.547V398.427H273.541V398.927H269.518V398.427H268.512V398.927H264.488V398.427H263.482V398.927H259.459V398.427H258.453V398.927H254.43V398.427H253.424V398.927H249.4V398.427H248.395V398.927H244.371V398.427H243.365V398.927H239.341V398.427H238.335V398.927H234.312V398.427H233.306V398.927H229.282V398.427H228.276V398.927H224.253V398.427H223.247V398.927H219.224V398.427H218.218V398.927H214.194V398.427H213.188V398.927H209.165V398.427H208.159V398.927H204.136V398.427H203.13V398.927H199.106V398.427H198.101V398.927H194.076V398.427H193.07V398.927H189.047V398.427H188.041V398.927H184.018V398.427H183.012V398.927H178.988V398.427H177.982V398.927H173.959V398.427H172.953V398.927H168.93V398.427H167.921V398.926C166.348 398.925 165.023 398.92 163.876 398.888L163.89 398.391C163.54 398.381 163.207 398.369 162.891 398.353L162.864 398.851C161.234 398.767 159.992 398.592 158.881 398.223L159.038 397.75C158.886 397.7 158.737 397.645 158.59 397.587L158.312 397.473C158.219 397.433 158.128 397.393 158.037 397.352L157.829 397.805C156.304 397.11 154.935 396.115 153.804 394.879L154.171 394.543C154.036 394.395 153.904 394.244 153.776 394.09L153.482 393.713L153.081 394.009C152.387 393.066 151.836 391.939 151.253 390.414L151.72 390.236C151.606 389.94 151.492 389.628 151.374 389.298L150.905 389.464C150.52 388.384 150.104 387.125 149.618 385.63L150.094 385.475C150.043 385.317 149.99 385.157 149.938 384.994L149.782 384.516L149.306 384.67L148.062 380.844L148.539 380.688L148.229 379.732L147.753 379.887H147.752L146.509 376.061H146.51L146.984 375.905L146.674 374.949L146.197 375.104L144.954 371.277L145.431 371.122L145.12 370.166L144.645 370.32H144.644L143.4 366.493H143.401L143.877 366.339L143.565 365.383L143.09 365.536L141.846 361.71L142.322 361.556L142.012 360.6L141.535 360.754L140.292 356.927H140.293L140.769 356.772L140.457 355.816L139.981 355.97L138.737 352.144L139.214 351.989L138.903 351.033L138.427 351.188L137.184 347.36H137.185L137.66 347.206L137.349 346.249L136.873 346.403L135.629 342.577L136.105 342.423L135.795 341.466L135.318 341.621L134.075 337.794H134.076L134.552 337.64L134.24 336.683L133.765 336.837L132.521 333.011L132.997 332.856L132.687 331.899L132.21 332.055L130.967 328.228L131.443 328.073L131.132 327.116L130.657 327.271H130.656L129.413 323.443L129.889 323.29L129.578 322.333L129.102 322.487L127.858 318.661L128.335 318.507L128.024 317.55L127.549 317.704H127.548L126.305 313.877L126.78 313.724L126.47 312.767L125.993 312.921L124.75 309.095L125.227 308.94L124.916 307.983L124.44 308.138H124.439L123.196 304.311L123.672 304.157L123.361 303.2L122.885 303.354L121.642 299.528L122.118 299.374L121.808 298.417L121.332 298.571H121.331L120.088 294.745H120.089L120.563 294.591L120.253 293.634L119.777 293.787L118.533 289.962L119.01 289.808L118.699 288.851L118.223 289.005L116.979 285.179L117.456 285.024L117.145 284.067L116.669 284.221L115.426 280.395L115.901 280.24L115.591 279.284L115.114 279.438L113.871 275.612L114.348 275.457L114.036 274.501L113.561 274.654L112.317 270.828L112.793 270.674L112.482 269.718L112.006 269.872L110.763 266.046L111.239 265.891L110.928 264.935L110.452 265.088L109.209 261.262L109.685 261.107L109.374 260.151L108.897 260.306L107.654 256.479L108.131 256.324L107.819 255.368L107.344 255.521L106.101 251.694L106.576 251.541L106.266 250.585L105.79 250.738L104.546 246.912L105.022 246.758L104.711 245.802L104.235 245.956L102.992 242.128L103.468 241.975L103.157 241.018L102.682 241.172L101.438 237.346L101.914 237.191L101.604 236.234L101.127 236.39L99.8838 232.562L100.359 232.408L100.049 231.451L99.5732 231.605L98.3291 227.779L98.8057 227.625L98.4951 226.668L98.0186 226.823L96.7754 222.995L97.251 222.842L96.9404 221.885L96.4648 222.039L95.2207 218.213L95.6973 218.059L95.3867 217.102L94.9102 217.256L93.667 213.43L94.1426 213.275L93.832 212.318L93.3564 212.472L92.1133 208.646L92.5889 208.492L92.2783 207.535L91.8018 207.689L90.5586 203.863L91.0352 203.709L90.7236 202.752L90.248 202.905L89.0049 199.079L89.4805 198.926L89.3252 198.447L89.1689 197.966L88.6934 198.119C88.2079 196.624 87.8028 195.362 87.4795 194.262L87.957 194.121C87.8583 193.785 87.7681 193.464 87.6855 193.158L87.2021 193.288C86.7777 191.713 86.561 190.477 86.5684 189.307L87.0684 189.31C87.0694 189.149 87.074 188.99 87.084 188.832C87.0966 188.632 87.1141 188.432 87.1367 188.233L86.6416 188.177C86.8308 186.511 87.3539 184.902 88.1797 183.443L88.6133 183.689C88.6626 183.602 88.7131 183.516 88.7646 183.43L88.9229 183.174C89.0077 183.04 89.0971 182.908 89.1904 182.778L88.7852 182.486C89.4673 181.535 90.3683 180.663 91.6377 179.638L91.9521 180.026C92.1989 179.827 92.4608 179.622 92.7383 179.408L92.4336 179.014C93.342 178.313 94.4116 177.53 95.6836 176.605L95.9775 177.01C96.1117 176.912 96.248 176.813 96.3867 176.712L96.7939 176.417L96.5 176.012L99.7549 173.647L100.049 174.052L100.863 173.46L100.569 173.056L103.824 170.69L104.118 171.096L104.932 170.504L104.638 170.1L107.893 167.734L108.187 168.14L109.001 167.548L108.707 167.144L108.706 167.143L111.962 164.778L112.256 165.183L113.069 164.592L112.775 164.188L116.03 161.821L116.031 161.822L116.324 162.227L117.139 161.636L116.845 161.231L116.844 161.23L120.1 158.866L120.394 159.271L121.207 158.68L120.913 158.274L124.168 155.909L124.169 155.91L124.463 156.314L125.276 155.723L124.982 155.318L128.236 152.953L128.237 152.954L128.531 153.358L129.345 152.767L129.051 152.362L132.307 149.997L132.601 150.402L133.414 149.811L133.12 149.406L136.375 147.041L136.669 147.445L137.482 146.854L137.188 146.45L140.444 144.085L140.738 144.489L141.552 143.898L141.258 143.494L141.257 143.493L144.513 141.129L144.807 141.533L145.62 140.942L145.326 140.537L148.581 138.172L148.582 138.173L148.876 138.577L149.689 137.986L149.396 137.581L152.649 135.216L152.65 135.217L152.944 135.621L153.758 135.029L153.465 134.625L156.72 132.26L157.014 132.665L157.827 132.073L157.533 131.669L160.788 129.304L161.082 129.708L161.896 129.117L161.603 128.713L161.602 128.712L164.857 126.348L165.151 126.752L165.965 126.161L165.671 125.757L165.67 125.756L168.926 123.392L169.22 123.796L170.034 123.205L169.74 122.801L169.739 122.8L172.994 120.435L172.995 120.436L173.289 120.84L174.103 120.249L173.809 119.844L177.063 117.479L177.357 117.884L178.172 117.292L177.878 116.888L181.133 114.522L181.427 114.928L182.24 114.336L181.946 113.932L185.201 111.566L185.495 111.972L186.31 111.38L186.016 110.976L186.015 110.975L189.271 108.61L189.564 109.015L190.378 108.424L190.084 108.02L193.339 105.653L193.34 105.654L193.633 106.059L194.447 105.468L194.153 105.063L194.152 105.062L197.407 102.697L197.408 102.698L197.702 103.103L198.516 102.512L198.222 102.106L201.477 99.7412L201.478 99.7422L201.771 100.146L202.585 99.5547L202.291 99.1504L205.545 96.7852L205.546 96.7861L205.84 97.1904L206.653 96.5986L206.359 96.1943L209.615 93.8291L209.909 94.2344L210.723 93.6426L210.429 93.2383L210.428 93.2373L213.684 90.873L213.978 91.2773L214.791 90.6865L214.497 90.2822L217.752 87.916L217.753 87.917L218.047 88.3213L218.86 87.7305L218.566 87.3262L218.565 87.3252L221.821 84.9609L222.115 85.3652L222.929 84.7744L222.636 84.3691L225.89 82.0039L225.891 82.0049L226.185 82.4092L226.998 81.8184L226.704 81.4131L229.958 79.0479L229.959 79.0488L230.253 79.4531L231.067 78.8613L230.773 78.457L230.772 78.4561L234.028 76.0918L234.322 76.4971L235.136 75.9053L234.842 75.501L238.097 73.1357L238.391 73.54L239.205 72.9492L238.911 72.5449L238.91 72.5439L242.166 70.1797L242.46 70.584L243.273 69.9932L242.979 69.5889L242.979 69.5879L246.234 67.2236L246.528 67.6279L247.343 67.0371L247.049 66.6328L247.048 66.6318L250.303 64.2666L250.304 64.2676L250.598 64.6719L251.411 64.0811L251.117 63.6758L254.371 61.3105L254.372 61.3115L254.666 61.7158L255.073 61.4199C255.212 61.3192 255.348 61.2204 255.482 61.123L255.188 60.7178C256.461 59.7937 257.537 59.0187 258.483 58.3711L258.765 58.7822C259.054 58.5845 259.33 58.3996 259.596 58.2266L259.323 57.8076C260.691 56.9168 261.799 56.3294 262.915 55.9746L263.066 56.4492L263.525 56.3174C263.72 56.2675 263.915 56.2226 264.111 56.1826L264.011 55.6943C265.653 55.3595 267.346 55.3596 268.988 55.6943L268.889 56.1826C269.085 56.2226 269.28 56.2675 269.475 56.3174C269.628 56.3568 269.781 56.4007 269.934 56.4492L270.084 55.9746C271.2 56.3293 272.308 56.9168 273.676 57.8076L273.404 58.2266C273.67 58.3996 273.946 58.5845 274.235 58.7822L274.516 58.3711C275.462 59.0187 276.538 59.7937 277.811 60.7178L277.518 61.123C277.652 61.2204 277.788 61.3192 277.927 61.4199L278.334 61.7158L278.628 61.3115V61.3105L281.882 63.6758L281.589 64.0811L282.402 64.6719L282.696 64.2676V64.2666L285.951 66.6318V66.6328L285.657 67.0371L286.472 67.6279L286.765 67.2236L290.021 69.5879V69.5889L289.727 69.9932L290.54 70.584L290.833 70.1797L294.089 72.5439V72.5449L293.795 72.9492L294.609 73.54L294.902 73.1357L298.157 75.501H298.158L297.864 75.9053L298.678 76.4971L298.971 76.0918L302.227 78.4561V78.457L301.933 78.8613L302.747 79.4531L303.041 79.0488V79.0479L306.295 81.4131L306.002 81.8184L306.815 82.4092L307.109 82.0049V82.0039L310.363 84.3691H310.364L310.071 84.7744L310.885 85.3652L311.178 84.9609L314.434 87.3252V87.3262L314.14 87.7305L314.953 88.3213L315.247 87.917V87.916L318.502 90.2822H318.503L318.209 90.6865L319.022 91.2773L319.315 90.873L322.571 93.2373V93.2383L322.277 93.6426L323.091 94.2344L323.384 93.8291L326.64 96.1943L326.347 96.5986L327.16 97.1904L327.454 96.7861V96.7852L330.708 99.1504H330.709L330.415 99.5547L331.229 100.146L331.522 99.7422V99.7412L334.777 102.106L334.484 102.512L335.298 103.103L335.592 102.698V102.697L338.847 105.062V105.063L338.553 105.468L339.367 106.059L339.66 105.654V105.653L342.915 108.02H342.916L342.622 108.424L343.436 109.015L343.729 108.61L346.984 110.975V110.976L346.69 111.38L347.505 111.972L347.798 111.566L351.053 113.932H351.054L350.76 114.336L351.573 114.928L351.866 114.522L355.121 116.888H355.122L354.828 117.292L355.643 117.884L355.936 117.479L359.19 119.844L358.897 120.249L359.711 120.84L360.005 120.436V120.435L363.26 122.8V122.801L362.966 123.205L363.78 123.796L364.073 123.392L367.329 125.756V125.757L367.035 126.161L367.849 126.752L368.142 126.348L371.397 128.712V128.713L371.104 129.117L371.918 129.708L372.211 129.304L375.466 131.669H375.467L375.173 132.073L375.986 132.665L376.279 132.26L379.534 134.625H379.535L379.241 135.029L380.056 135.621L380.35 135.217V135.216L383.604 137.581L383.311 137.986L384.124 138.577L384.418 138.173V138.172L387.672 140.537H387.673L387.38 140.942L388.193 141.533L388.486 141.129L391.742 143.493V143.494L391.448 143.898L392.262 144.489L392.555 144.085L395.811 146.45H395.812L395.518 146.854L396.331 147.445L396.624 147.041L399.879 149.406H399.88L399.586 149.811L400.399 150.402L400.692 149.997L403.948 152.362L403.655 152.767L404.469 153.358L404.763 152.954V152.953L408.017 155.318L407.724 155.723L408.537 156.314L408.831 155.91V155.909L412.086 158.274L411.793 158.68L412.606 159.271L412.899 158.866L416.155 161.23V161.231L415.861 161.636L416.676 162.227L416.969 161.822V161.821L420.224 164.188H420.225L419.931 164.592L420.744 165.183L421.037 164.778L424.293 167.143V167.144L423.999 167.548L424.813 168.14L425.106 167.734L428.361 170.1L428.068 170.504L428.882 171.096L429.175 170.69L432.43 173.056H432.431L432.137 173.46L432.951 174.052L433.244 173.647Z" stroke="#6C6E6F" stroke-dasharray="1 4"/>
<path d="M146.877 139.604C146.654 139.767 146.606 140.08 146.768 140.303C146.931 140.526 147.244 140.575 147.467 140.412L146.877 139.604ZM197.162 103.936C197.205 103.664 197.018 103.408 196.745 103.365L192.299 102.672C192.026 102.63 191.77 102.817 191.728 103.089C191.685 103.362 191.872 103.618 192.145 103.66L196.097 104.276L195.481 108.229C195.438 108.502 195.625 108.757 195.898 108.8C196.171 108.842 196.427 108.656 196.469 108.383L197.162 103.936ZM147.172 140.008L147.467 140.412L196.963 104.263L196.668 103.859L196.373 103.456L146.877 139.604L147.172 140.008Z" fill="#6C6E6F"/>
<path d="M128.947 322.151C129.032 322.413 129.314 322.557 129.576 322.472C129.839 322.387 129.983 322.105 129.898 321.843L128.947 322.151ZM110.766 263.242C110.52 263.117 110.218 263.214 110.093 263.46L108.046 267.468C107.92 267.714 108.018 268.015 108.264 268.14C108.51 268.266 108.811 268.168 108.937 267.922L110.756 264.36L114.318 266.18C114.564 266.305 114.865 266.208 114.991 265.962C115.117 265.716 115.019 265.415 114.773 265.289L110.766 263.242ZM129.422 321.997L129.898 321.843L111.014 263.533L110.538 263.688L110.062 263.842L128.947 322.151L129.422 321.997Z" fill="#6C6E6F"/>
<path d="M298.646 398.914C298.922 398.914 299.146 398.69 299.146 398.414C299.146 398.138 298.922 397.914 298.646 397.914V398.914ZM237.002 398.061C236.807 398.256 236.807 398.572 237.002 398.768L240.184 401.95C240.379 402.145 240.696 402.145 240.891 401.95C241.086 401.754 241.086 401.438 240.891 401.242L238.063 398.414L240.891 395.586C241.086 395.39 241.086 395.074 240.891 394.879C240.696 394.683 240.379 394.683 240.184 394.879L237.002 398.061ZM298.646 398.414V397.914H237.355V398.414V398.914H298.646V398.414Z" fill="#6C6E6F"/>
<path d="M423.994 260.572C424.079 260.309 423.935 260.027 423.672 259.942C423.41 259.857 423.128 260 423.043 260.263L423.994 260.572ZM404.165 318.946C404.29 319.192 404.592 319.29 404.838 319.164L408.846 317.119C409.092 316.993 409.19 316.692 409.064 316.446C408.939 316.2 408.637 316.103 408.392 316.228L404.828 318.046L403.011 314.483C402.885 314.237 402.584 314.139 402.338 314.265C402.092 314.39 401.994 314.692 402.12 314.938L404.165 318.946ZM423.518 260.417L423.043 260.263L404.135 318.565L404.61 318.719L405.086 318.873L423.994 260.572L423.518 260.417Z" fill="#6C6E6F"/>
<path d="M332.919 102.125C332.695 101.963 332.645 101.651 332.807 101.427C332.969 101.203 333.281 101.153 333.505 101.315L332.919 102.125ZM383.356 137.577C383.4 137.85 383.214 138.106 382.941 138.15L378.498 138.862C378.225 138.906 377.969 138.72 377.925 138.447C377.882 138.175 378.067 137.918 378.34 137.875L382.289 137.242L381.657 133.292C381.613 133.019 381.799 132.763 382.071 132.719C382.344 132.676 382.6 132.861 382.644 133.134L383.356 137.577ZM333.212 101.72L333.505 101.315L383.155 137.251L382.862 137.656L382.569 138.061L332.919 102.125L333.212 101.72Z" fill="#6C6E6F"/>
<rect x="56.5995" y="157.1" width="68.801" height="68.801" rx="10.4005" fill="url(#paint2_linear_10157_85306)"/>
<rect x="56.5995" y="157.1" width="68.801" height="68.801" rx="10.4005" stroke="url(#paint3_linear_10157_85306)" stroke-width="1.199"/>
<path d="M90.9995 174C92.0873 174 93.1507 174.323 94.0552 174.927C94.9597 175.531 95.6646 176.39 96.0809 177.395C96.4972 178.4 96.6061 179.506 96.3939 180.573C96.1816 181.64 95.6578 182.62 94.8886 183.389C94.1194 184.158 93.1394 184.682 92.0725 184.894C91.0056 185.107 89.8998 184.998 88.8948 184.581C87.8898 184.165 87.0308 183.46 86.4265 182.556C85.8221 181.651 85.4995 180.588 85.4995 179.5C85.4995 178.041 86.079 176.642 87.1105 175.611C88.1419 174.579 89.5409 174 90.9995 174ZM102.668 177.514C102.407 177.558 102.173 177.703 102.019 177.919C101.865 178.135 101.803 178.403 101.847 178.665C101.949 179.271 102 179.885 102 180.5C102.002 183.193 101.012 185.792 99.2195 187.801C98.4922 186.747 97.5687 185.843 96.4995 185.138C96.4082 185.077 96.2996 185.048 96.1903 185.055C96.081 185.063 95.9771 185.105 95.8945 185.178C94.5359 186.353 92.7993 187 91.0027 187C89.206 187 87.4695 186.353 86.1108 185.178C86.0278 185.104 85.9227 185.06 85.812 185.053C85.7014 185.046 85.5914 185.075 85.4995 185.138C84.4287 185.842 83.5039 186.746 82.7758 187.801C81.369 186.216 80.4501 184.258 80.1297 182.163C79.8093 180.068 80.101 177.925 80.9697 175.991C81.8385 174.058 83.2472 172.417 85.0266 171.265C86.8059 170.114 88.8801 169.501 90.9995 169.5C91.6144 169.5 92.2282 169.551 92.8345 169.653C93.0949 169.694 93.361 169.63 93.5749 169.476C93.7888 169.322 93.9332 169.09 93.9767 168.83C94.0202 168.57 93.9593 168.303 93.8072 168.088C93.6551 167.872 93.4241 167.726 93.1645 167.68C90.4488 167.223 87.6582 167.641 85.1956 168.874C82.733 170.106 80.7257 172.09 79.4638 174.537C78.2018 176.985 77.7504 179.77 78.1746 182.491C78.5989 185.212 79.877 187.728 81.8242 189.675C83.7715 191.623 86.2872 192.901 89.0082 193.325C91.7292 193.749 94.5146 193.298 96.9623 192.036C99.41 190.774 101.393 188.767 102.626 186.304C103.858 183.841 104.276 181.051 103.82 178.335C103.776 178.073 103.63 177.84 103.414 177.686C103.198 177.532 102.93 177.47 102.668 177.514Z" fill="white"/>
<path d="M104.659 169.583L99.6596 174.585C99.5668 174.678 99.4565 174.752 99.3351 174.802C99.2137 174.853 99.0836 174.879 98.9521 174.879C98.8207 174.879 98.6906 174.853 98.5692 174.802C98.4478 174.752 98.3375 174.678 98.2446 174.585L95.5352 171.875C95.4423 171.782 95.3686 171.672 95.3184 171.55C95.2681 171.429 95.2422 171.299 95.2422 171.167C95.2422 171.036 95.2681 170.906 95.3184 170.785C95.3686 170.663 95.4423 170.553 95.5352 170.46C95.6282 170.367 95.7385 170.293 95.8598 170.243C95.9812 170.193 96.1113 170.167 96.2427 170.167C96.3741 170.167 96.5042 170.193 96.6256 170.243C96.747 170.293 96.8573 170.367 96.9502 170.46L98.9521 172.464L103.244 168.168C103.431 167.98 103.686 167.875 103.951 167.875C104.216 167.875 104.471 167.98 104.659 168.168C104.846 168.356 104.952 168.61 104.952 168.876C104.952 169.141 104.846 169.395 104.659 169.583Z" fill="white"/>
<path d="M71.828 214.5L69.836 211.08H68.516V214.5H67.424V206.136H70.124C70.756 206.136 71.288 206.244 71.72 206.46C72.16 206.676 72.488 206.968 72.704 207.336C72.92 207.704 73.028 208.124 73.028 208.596C73.028 209.172 72.86 209.68 72.524 210.12C72.196 210.56 71.7 210.852 71.036 210.996L73.136 214.5H71.828ZM68.516 210.204H70.124C70.716 210.204 71.16 210.06 71.456 209.772C71.752 209.476 71.9 209.084 71.9 208.596C71.9 208.1 71.752 207.716 71.456 207.444C71.168 207.172 70.724 207.036 70.124 207.036H68.516V210.204ZM80.7248 210.96C80.7248 211.168 80.7128 211.388 80.6888 211.62H75.4328C75.4728 212.268 75.6928 212.776 76.0928 213.144C76.5008 213.504 76.9928 213.684 77.5688 213.684C78.0408 213.684 78.4328 213.576 78.7448 213.36C79.0648 213.136 79.2888 212.84 79.4168 212.472H80.5928C80.4168 213.104 80.0648 213.62 79.5368 214.02C79.0088 214.412 78.3528 214.608 77.5688 214.608C76.9448 214.608 76.3848 214.468 75.8888 214.188C75.4008 213.908 75.0168 213.512 74.7368 213C74.4568 212.48 74.3168 211.88 74.3168 211.2C74.3168 210.52 74.4528 209.924 74.7248 209.412C74.9968 208.9 75.3768 208.508 75.8648 208.236C76.3608 207.956 76.9288 207.816 77.5688 207.816C78.1928 207.816 78.7448 207.952 79.2248 208.224C79.7048 208.496 80.0728 208.872 80.3288 209.352C80.5928 209.824 80.7248 210.36 80.7248 210.96ZM79.5968 210.732C79.5968 210.316 79.5048 209.96 79.3208 209.664C79.1368 209.36 78.8848 209.132 78.5648 208.98C78.2528 208.82 77.9048 208.74 77.5208 208.74C76.9688 208.74 76.4968 208.916 76.1048 209.268C75.7208 209.62 75.5008 210.108 75.4448 210.732H79.5968ZM81.7582 211.2C81.7582 210.52 81.8942 209.928 82.1662 209.424C82.4382 208.912 82.8142 208.516 83.2942 208.236C83.7822 207.956 84.3382 207.816 84.9622 207.816C85.7702 207.816 86.4342 208.012 86.9542 208.404C87.4822 208.796 87.8302 209.34 87.9982 210.036H86.8222C86.7102 209.636 86.4902 209.32 86.1622 209.088C85.8422 208.856 85.4422 208.74 84.9622 208.74C84.3382 208.74 83.8342 208.956 83.4502 209.388C83.0662 209.812 82.8742 210.416 82.8742 211.2C82.8742 211.992 83.0662 212.604 83.4502 213.036C83.8342 213.468 84.3382 213.684 84.9622 213.684C85.4422 213.684 85.8422 213.572 86.1622 213.348C86.4822 213.124 86.7022 212.804 86.8222 212.388H87.9982C87.8222 213.06 87.4702 213.6 86.9422 214.008C86.4142 214.408 85.7542 214.608 84.9622 214.608C84.3382 214.608 83.7822 214.468 83.2942 214.188C82.8142 213.908 82.4382 213.512 82.1662 213C81.8942 212.488 81.7582 211.888 81.7582 211.2ZM92.3233 214.608C91.7073 214.608 91.1473 214.468 90.6433 214.188C90.1473 213.908 89.7553 213.512 89.4673 213C89.1873 212.48 89.0473 211.88 89.0473 211.2C89.0473 210.528 89.1913 209.936 89.4793 209.424C89.7753 208.904 90.1753 208.508 90.6793 208.236C91.1833 207.956 91.7473 207.816 92.3713 207.816C92.9953 207.816 93.5593 207.956 94.0633 208.236C94.5673 208.508 94.9633 208.9 95.2513 209.412C95.5473 209.924 95.6953 210.52 95.6953 211.2C95.6953 211.88 95.5433 212.48 95.2393 213C94.9433 213.512 94.5393 213.908 94.0273 214.188C93.5153 214.468 92.9473 214.608 92.3233 214.608ZM92.3233 213.648C92.7153 213.648 93.0833 213.556 93.4273 213.372C93.7713 213.188 94.0473 212.912 94.2553 212.544C94.4713 212.176 94.5793 211.728 94.5793 211.2C94.5793 210.672 94.4753 210.224 94.2673 209.856C94.0593 209.488 93.7873 209.216 93.4513 209.04C93.1153 208.856 92.7513 208.764 92.3593 208.764C91.9593 208.764 91.5913 208.856 91.2553 209.04C90.9273 209.216 90.6633 209.488 90.4633 209.856C90.2633 210.224 90.1633 210.672 90.1633 211.2C90.1633 211.736 90.2593 212.188 90.4513 212.556C90.6513 212.924 90.9153 213.2 91.2433 213.384C91.5713 213.56 91.9313 213.648 92.3233 213.648ZM99.579 213.492L101.619 207.924H102.783L100.203 214.5H98.931L96.351 207.924H97.527L99.579 213.492ZM109.858 210.96C109.858 211.168 109.846 211.388 109.822 211.62H104.566C104.606 212.268 104.826 212.776 105.226 213.144C105.634 213.504 106.126 213.684 106.702 213.684C107.174 213.684 107.566 213.576 107.878 213.36C108.198 213.136 108.422 212.84 108.55 212.472H109.726C109.55 213.104 109.198 213.62 108.67 214.02C108.142 214.412 107.486 214.608 106.702 214.608C106.078 214.608 105.518 214.468 105.022 214.188C104.534 213.908 104.15 213.512 103.87 213C103.59 212.48 103.45 211.88 103.45 211.2C103.45 210.52 103.586 209.924 103.858 209.412C104.13 208.9 104.51 208.508 104.998 208.236C105.494 207.956 106.062 207.816 106.702 207.816C107.326 207.816 107.878 207.952 108.358 208.224C108.838 208.496 109.206 208.872 109.462 209.352C109.726 209.824 109.858 210.36 109.858 210.96ZM108.73 210.732C108.73 210.316 108.638 209.96 108.454 209.664C108.27 209.36 108.018 209.132 107.698 208.98C107.386 208.82 107.038 208.74 106.654 208.74C106.102 208.74 105.63 208.916 105.238 209.268C104.854 209.62 104.634 210.108 104.578 210.732H108.73ZM112.391 208.992C112.583 208.616 112.855 208.324 113.207 208.116C113.567 207.908 114.003 207.804 114.515 207.804V208.932H114.227C113.003 208.932 112.391 209.596 112.391 210.924V214.5H111.299V207.924H112.391V208.992Z" fill="#E2E2E2"/>
<rect x="233.6" y="39.0995" width="68.801" height="68.801" rx="10.4005" fill="url(#paint4_linear_10157_85306)"/>
<rect x="233.6" y="39.0995" width="68.801" height="68.801" rx="10.4005" stroke="url(#paint5_linear_10157_85306)" stroke-width="1.199"/>
<path d="M282.914 62.095C282.87 61.9963 281.811 59.6475 279.457 57.2937C276.321 54.1575 272.36 52.5 268 52.5C263.64 52.5 259.679 54.1575 256.542 57.2937C254.189 59.6475 253.125 62 253.086 62.095C253.029 62.2229 253 62.3613 253 62.5012C253 62.6412 253.029 62.7796 253.086 62.9075C253.13 63.0062 254.189 65.3538 256.542 67.7075C259.679 70.8425 263.64 72.5 268 72.5C272.36 72.5 276.321 70.8425 279.457 67.7075C281.811 65.3538 282.87 63.0062 282.914 62.9075C282.971 62.7796 283 62.6412 283 62.5012C283 62.3613 282.971 62.2229 282.914 62.095ZM268 67.5C267.011 67.5 266.044 67.2068 265.222 66.6573C264.4 66.1079 263.759 65.327 263.381 64.4134C263.002 63.4998 262.903 62.4945 263.096 61.5245C263.289 60.5546 263.765 59.6637 264.464 58.9645C265.164 58.2652 266.055 57.789 267.025 57.5961C267.994 57.4031 269 57.5022 269.913 57.8806C270.827 58.259 271.608 58.8999 272.157 59.7221C272.707 60.5444 273 61.5111 273 62.5C273 63.8261 272.473 65.0979 271.536 66.0355C270.598 66.9732 269.326 67.5 268 67.5Z" fill="white"/>
<path d="M247.516 88.136V96.5H246.424V88.136H247.516ZM248.969 93.188C248.969 92.516 249.105 91.928 249.377 91.424C249.649 90.912 250.021 90.516 250.493 90.236C250.973 89.956 251.509 89.816 252.101 89.816C252.613 89.816 253.089 89.936 253.529 90.176C253.969 90.408 254.305 90.716 254.537 91.1V87.62H255.641V96.5H254.537V95.264C254.321 95.656 254.001 95.98 253.577 96.236C253.153 96.484 252.657 96.608 252.089 96.608C251.505 96.608 250.973 96.464 250.493 96.176C250.021 95.888 249.649 95.484 249.377 94.964C249.105 94.444 248.969 93.852 248.969 93.188ZM254.537 93.2C254.537 92.704 254.437 92.272 254.237 91.904C254.037 91.536 253.765 91.256 253.421 91.064C253.085 90.864 252.713 90.764 252.305 90.764C251.897 90.764 251.525 90.86 251.189 91.052C250.853 91.244 250.585 91.524 250.385 91.892C250.185 92.26 250.085 92.692 250.085 93.188C250.085 93.692 250.185 94.132 250.385 94.508C250.585 94.876 250.853 95.16 251.189 95.36C251.525 95.552 251.897 95.648 252.305 95.648C252.713 95.648 253.085 95.552 253.421 95.36C253.765 95.16 254.037 94.876 254.237 94.508C254.437 94.132 254.537 93.696 254.537 93.2ZM263.487 92.96C263.487 93.168 263.475 93.388 263.451 93.62H258.195C258.235 94.268 258.455 94.776 258.855 95.144C259.263 95.504 259.755 95.684 260.331 95.684C260.803 95.684 261.195 95.576 261.507 95.36C261.827 95.136 262.051 94.84 262.179 94.472H263.355C263.179 95.104 262.827 95.62 262.299 96.02C261.771 96.412 261.115 96.608 260.331 96.608C259.707 96.608 259.147 96.468 258.651 96.188C258.163 95.908 257.779 95.512 257.499 95C257.219 94.48 257.079 93.88 257.079 93.2C257.079 92.52 257.215 91.924 257.487 91.412C257.759 90.9 258.139 90.508 258.627 90.236C259.123 89.956 259.691 89.816 260.331 89.816C260.955 89.816 261.507 89.952 261.987 90.224C262.467 90.496 262.835 90.872 263.091 91.352C263.355 91.824 263.487 92.36 263.487 92.96ZM262.359 92.732C262.359 92.316 262.267 91.96 262.083 91.664C261.899 91.36 261.647 91.132 261.327 90.98C261.015 90.82 260.667 90.74 260.283 90.74C259.731 90.74 259.259 90.916 258.867 91.268C258.483 91.62 258.263 92.108 258.207 92.732H262.359ZM268.132 89.804C268.932 89.804 269.58 90.048 270.076 90.536C270.572 91.016 270.82 91.712 270.82 92.624V96.5H269.74V92.78C269.74 92.124 269.576 91.624 269.248 91.28C268.92 90.928 268.472 90.752 267.904 90.752C267.328 90.752 266.868 90.932 266.524 91.292C266.188 91.652 266.02 92.176 266.02 92.864V96.5H264.928V89.924H266.02V90.86C266.236 90.524 266.528 90.264 266.896 90.08C267.272 89.896 267.684 89.804 268.132 89.804ZM273.936 90.824V94.7C273.936 95.02 274.004 95.248 274.14 95.384C274.276 95.512 274.512 95.576 274.848 95.576H275.652V96.5H274.668C274.06 96.5 273.604 96.36 273.3 96.08C272.996 95.8 272.844 95.34 272.844 94.7V90.824H271.992V89.924H272.844V88.268H273.936V89.924H275.652V90.824H273.936ZM277.539 88.856C277.331 88.856 277.155 88.784 277.011 88.64C276.867 88.496 276.795 88.32 276.795 88.112C276.795 87.904 276.867 87.728 277.011 87.584C277.155 87.44 277.331 87.368 277.539 87.368C277.739 87.368 277.907 87.44 278.043 87.584C278.187 87.728 278.259 87.904 278.259 88.112C278.259 88.32 278.187 88.496 278.043 88.64C277.907 88.784 277.739 88.856 277.539 88.856ZM278.067 89.924V96.5H276.975V89.924H278.067ZM282.604 90.824H281.224V96.5H280.132V90.824H279.28V89.924H280.132V89.456C280.132 88.72 280.32 88.184 280.696 87.848C281.08 87.504 281.692 87.332 282.532 87.332V88.244C282.052 88.244 281.712 88.34 281.512 88.532C281.32 88.716 281.224 89.024 281.224 89.456V89.924H282.604V90.824ZM289.541 89.924L285.581 99.596H284.453L285.749 96.428L283.097 89.924H284.309L286.373 95.252L288.413 89.924H289.541Z" fill="#E2E2E2"/>
<rect x="410.6" y="157.1" width="68.801" height="68.801" rx="10.4005" fill="url(#paint6_linear_10157_85306)"/>
<rect x="410.6" y="157.1" width="68.801" height="68.801" rx="10.4005" stroke="url(#paint7_linear_10157_85306)" stroke-width="1.199"/>
<path d="M455 168.5H435C434.47 168.5 433.961 168.711 433.586 169.086C433.211 169.461 433 169.97 433 170.5V177.846C433 189.048 442.477 192.764 444.375 193.395C444.78 193.533 445.22 193.533 445.625 193.395C447.525 192.764 457 189.048 457 177.846V170.5C457 169.97 456.789 169.461 456.414 169.086C456.039 168.711 455.53 168.5 455 168.5ZM450.708 177.208L443.708 184.208C443.615 184.3 443.504 184.374 443.383 184.425C443.262 184.475 443.131 184.501 443 184.501C442.869 184.501 442.738 184.475 442.617 184.425C442.496 184.374 442.385 184.3 442.292 184.208L439.292 181.208C439.105 181.02 438.999 180.765 438.999 180.5C438.999 180.235 439.105 179.98 439.292 179.792C439.48 179.605 439.735 179.499 440 179.499C440.265 179.499 440.52 179.605 440.708 179.792L443 182.085L449.292 175.792C449.385 175.7 449.496 175.626 449.617 175.576C449.738 175.525 449.869 175.499 450 175.499C450.131 175.499 450.262 175.525 450.383 175.576C450.504 175.626 450.615 175.7 450.708 175.792C450.8 175.885 450.874 175.996 450.924 176.117C450.975 176.238 451.001 176.369 451.001 176.5C451.001 176.631 450.975 176.762 450.924 176.883C450.874 177.004 450.8 177.115 450.708 177.208Z" fill="white"/>
<path d="M430.016 208.584C430.016 209.28 429.776 209.86 429.296 210.324C428.824 210.78 428.1 211.008 427.124 211.008H425.516V214.5H424.424V206.136H427.124C428.068 206.136 428.784 206.364 429.272 206.82C429.768 207.276 430.016 207.864 430.016 208.584ZM427.124 210.108C427.732 210.108 428.18 209.976 428.468 209.712C428.756 209.448 428.9 209.072 428.9 208.584C428.9 207.552 428.308 207.036 427.124 207.036H425.516V210.108H427.124ZM432.465 208.992C432.657 208.616 432.929 208.324 433.281 208.116C433.641 207.908 434.077 207.804 434.589 207.804V208.932H434.301C433.077 208.932 432.465 209.596 432.465 210.924V214.5H431.373V207.924H432.465V208.992ZM438.718 214.608C438.102 214.608 437.542 214.468 437.038 214.188C436.542 213.908 436.15 213.512 435.862 213C435.582 212.48 435.442 211.88 435.442 211.2C435.442 210.528 435.586 209.936 435.874 209.424C436.17 208.904 436.57 208.508 437.074 208.236C437.578 207.956 438.142 207.816 438.766 207.816C439.39 207.816 439.954 207.956 440.458 208.236C440.962 208.508 441.358 208.9 441.646 209.412C441.942 209.924 442.09 210.52 442.09 211.2C442.09 211.88 441.938 212.48 441.634 213C441.338 213.512 440.934 213.908 440.422 214.188C439.91 214.468 439.342 214.608 438.718 214.608ZM438.718 213.648C439.11 213.648 439.478 213.556 439.822 213.372C440.166 213.188 440.442 212.912 440.65 212.544C440.866 212.176 440.974 211.728 440.974 211.2C440.974 210.672 440.87 210.224 440.662 209.856C440.454 209.488 440.182 209.216 439.846 209.04C439.51 208.856 439.146 208.764 438.754 208.764C438.354 208.764 437.986 208.856 437.65 209.04C437.322 209.216 437.058 209.488 436.858 209.856C436.658 210.224 436.558 210.672 436.558 211.2C436.558 211.736 436.654 212.188 436.846 212.556C437.046 212.924 437.31 213.2 437.638 213.384C437.966 213.56 438.326 213.648 438.718 213.648ZM444.858 208.824V212.7C444.858 213.02 444.926 213.248 445.062 213.384C445.198 213.512 445.434 213.576 445.77 213.576H446.574V214.5H445.59C444.982 214.5 444.526 214.36 444.222 214.08C443.918 213.8 443.766 213.34 443.766 212.7V208.824H442.914V207.924H443.766V206.268H444.858V207.924H446.574V208.824H444.858ZM453.897 210.96C453.897 211.168 453.885 211.388 453.861 211.62H448.605C448.645 212.268 448.865 212.776 449.265 213.144C449.673 213.504 450.165 213.684 450.741 213.684C451.213 213.684 451.605 213.576 451.917 213.36C452.237 213.136 452.461 212.84 452.589 212.472H453.765C453.589 213.104 453.237 213.62 452.709 214.02C452.181 214.412 451.525 214.608 450.741 214.608C450.117 214.608 449.557 214.468 449.061 214.188C448.573 213.908 448.189 213.512 447.909 213C447.629 212.48 447.489 211.88 447.489 211.2C447.489 210.52 447.625 209.924 447.897 209.412C448.169 208.9 448.549 208.508 449.037 208.236C449.533 207.956 450.101 207.816 450.741 207.816C451.365 207.816 451.917 207.952 452.397 208.224C452.877 208.496 453.245 208.872 453.501 209.352C453.765 209.824 453.897 210.36 453.897 210.96ZM452.769 210.732C452.769 210.316 452.677 209.96 452.493 209.664C452.309 209.36 452.057 209.132 451.737 208.98C451.425 208.82 451.077 208.74 450.693 208.74C450.141 208.74 449.669 208.916 449.277 209.268C448.893 209.62 448.673 210.108 448.617 210.732H452.769ZM454.93 211.2C454.93 210.52 455.066 209.928 455.338 209.424C455.61 208.912 455.986 208.516 456.466 208.236C456.954 207.956 457.51 207.816 458.134 207.816C458.942 207.816 459.606 208.012 460.126 208.404C460.654 208.796 461.002 209.34 461.17 210.036H459.994C459.882 209.636 459.662 209.32 459.334 209.088C459.014 208.856 458.614 208.74 458.134 208.74C457.51 208.74 457.006 208.956 456.622 209.388C456.238 209.812 456.046 210.416 456.046 211.2C456.046 211.992 456.238 212.604 456.622 213.036C457.006 213.468 457.51 213.684 458.134 213.684C458.614 213.684 459.014 213.572 459.334 213.348C459.654 213.124 459.874 212.804 459.994 212.388H461.17C460.994 213.06 460.642 213.6 460.114 214.008C459.586 214.408 458.926 214.608 458.134 214.608C457.51 214.608 456.954 214.468 456.466 214.188C455.986 213.908 455.61 213.512 455.338 213C455.066 212.488 454.93 211.888 454.93 211.2ZM463.959 208.824V212.7C463.959 213.02 464.027 213.248 464.163 213.384C464.299 213.512 464.535 213.576 464.871 213.576H465.675V214.5H464.691C464.083 214.5 463.627 214.36 463.323 214.08C463.019 213.8 462.867 213.34 462.867 212.7V208.824H462.015V207.924H462.867V206.268H463.959V207.924H465.675V208.824H463.959Z" fill="#E2E2E2"/>
<rect x="343.6" y="359.1" width="68.801" height="68.801" rx="10.4005" fill="url(#paint8_linear_10157_85306)"/>
<rect x="343.6" y="359.1" width="68.801" height="68.801" rx="10.4005" stroke="url(#paint9_linear_10157_85306)" stroke-width="1.199"/>
<path d="M388 370.5C388.796 370.5 389.558 370.816 390.121 371.379C390.684 371.942 391 372.704 391 373.5V387.5C391 388.296 390.684 389.058 390.121 389.621C389.558 390.184 388.796 390.5 388 390.5H379V392.5H382C382.265 392.5 382.519 392.605 382.707 392.793C382.895 392.981 383 393.235 383 393.5C383 393.765 382.895 394.019 382.707 394.207C382.519 394.395 382.265 394.5 382 394.5H374C373.735 394.5 373.481 394.395 373.293 394.207C373.105 394.019 373 393.765 373 393.5C373 393.235 373.105 392.981 373.293 392.793C373.481 392.605 373.735 392.5 374 392.5H377V390.5H368C367.204 390.5 366.442 390.184 365.879 389.621C365.316 389.058 365 388.296 365 387.5V373.5C365 372.704 365.316 371.942 365.879 371.379C366.442 370.816 367.204 370.5 368 370.5H388ZM367 385.5V387.5C367 387.765 367.105 388.019 367.293 388.207C367.481 388.395 367.735 388.5 368 388.5H388C388.265 388.5 388.519 388.395 388.707 388.207C388.895 388.019 389 387.765 389 387.5V385.5H367ZM382.576 374.664C382.311 374.664 382.056 374.769 381.868 374.957L377.577 379.253L375.575 377.249C375.482 377.156 375.372 377.082 375.251 377.032C375.13 376.982 374.999 376.956 374.868 376.956C374.737 376.956 374.606 376.982 374.484 377.032C374.363 377.083 374.253 377.156 374.16 377.249C374.067 377.342 373.994 377.452 373.943 377.573C373.893 377.695 373.867 377.826 373.867 377.957C373.867 378.088 373.893 378.219 373.943 378.34C373.994 378.461 374.067 378.571 374.16 378.664L376.87 381.374C376.963 381.467 377.073 381.541 377.194 381.592C377.316 381.642 377.446 381.668 377.577 381.668C377.708 381.668 377.839 381.642 377.96 381.592C378.081 381.541 378.191 381.467 378.284 381.374L383.283 376.372C383.471 376.185 383.576 375.93 383.576 375.665C383.576 375.4 383.471 375.145 383.283 374.957C383.096 374.77 382.841 374.664 382.576 374.664Z" fill="white"/>
<path d="M361.528 408.136C362.44 408.136 363.228 408.308 363.892 408.652C364.564 408.988 365.076 409.472 365.428 410.104C365.788 410.736 365.968 411.48 365.968 412.336C365.968 413.192 365.788 413.936 365.428 414.568C365.076 415.192 364.564 415.672 363.892 416.008C363.228 416.336 362.44 416.5 361.528 416.5H358.924V408.136H361.528ZM361.528 415.6C362.608 415.6 363.432 415.316 364 414.748C364.568 414.172 364.852 413.368 364.852 412.336C364.852 411.296 364.564 410.484 363.988 409.9C363.42 409.316 362.6 409.024 361.528 409.024H360.016V415.6H361.528ZM373.408 412.96C373.408 413.168 373.396 413.388 373.372 413.62H368.116C368.156 414.268 368.376 414.776 368.776 415.144C369.184 415.504 369.676 415.684 370.252 415.684C370.724 415.684 371.116 415.576 371.428 415.36C371.748 415.136 371.972 414.84 372.1 414.472H373.276C373.1 415.104 372.748 415.62 372.22 416.02C371.692 416.412 371.036 416.608 370.252 416.608C369.628 416.608 369.068 416.468 368.572 416.188C368.084 415.908 367.7 415.512 367.42 415C367.14 414.48 367 413.88 367 413.2C367 412.52 367.136 411.924 367.408 411.412C367.68 410.9 368.06 410.508 368.548 410.236C369.044 409.956 369.612 409.816 370.252 409.816C370.876 409.816 371.428 409.952 371.908 410.224C372.388 410.496 372.756 410.872 373.012 411.352C373.276 411.824 373.408 412.36 373.408 412.96ZM372.28 412.732C372.28 412.316 372.188 411.96 372.004 411.664C371.82 411.36 371.568 411.132 371.248 410.98C370.936 410.82 370.588 410.74 370.204 410.74C369.652 410.74 369.18 410.916 368.788 411.268C368.404 411.62 368.184 412.108 368.128 412.732H372.28ZM376.182 410.824V414.7C376.182 415.02 376.25 415.248 376.386 415.384C376.522 415.512 376.758 415.576 377.094 415.576H377.898V416.5H376.914C376.306 416.5 375.85 416.36 375.546 416.08C375.242 415.8 375.09 415.34 375.09 414.7V410.824H374.238V409.924H375.09V408.268H376.182V409.924H377.898V410.824H376.182ZM385.221 412.96C385.221 413.168 385.209 413.388 385.185 413.62H379.929C379.969 414.268 380.189 414.776 380.589 415.144C380.997 415.504 381.489 415.684 382.065 415.684C382.537 415.684 382.929 415.576 383.241 415.36C383.561 415.136 383.785 414.84 383.913 414.472H385.089C384.913 415.104 384.561 415.62 384.033 416.02C383.505 416.412 382.849 416.608 382.065 416.608C381.441 416.608 380.881 416.468 380.385 416.188C379.897 415.908 379.513 415.512 379.233 415C378.953 414.48 378.813 413.88 378.813 413.2C378.813 412.52 378.949 411.924 379.221 411.412C379.493 410.9 379.873 410.508 380.361 410.236C380.857 409.956 381.425 409.816 382.065 409.816C382.689 409.816 383.241 409.952 383.721 410.224C384.201 410.496 384.569 410.872 384.825 411.352C385.089 411.824 385.221 412.36 385.221 412.96ZM384.093 412.732C384.093 412.316 384.001 411.96 383.817 411.664C383.633 411.36 383.381 411.132 383.061 410.98C382.749 410.82 382.401 410.74 382.017 410.74C381.465 410.74 380.993 410.916 380.601 411.268C380.217 411.62 379.997 412.108 379.941 412.732H384.093ZM386.254 413.2C386.254 412.52 386.39 411.928 386.662 411.424C386.934 410.912 387.31 410.516 387.79 410.236C388.278 409.956 388.834 409.816 389.458 409.816C390.266 409.816 390.93 410.012 391.45 410.404C391.978 410.796 392.326 411.34 392.494 412.036H391.318C391.206 411.636 390.986 411.32 390.658 411.088C390.338 410.856 389.938 410.74 389.458 410.74C388.834 410.74 388.33 410.956 387.946 411.388C387.562 411.812 387.37 412.416 387.37 413.2C387.37 413.992 387.562 414.604 387.946 415.036C388.33 415.468 388.834 415.684 389.458 415.684C389.938 415.684 390.338 415.572 390.658 415.348C390.978 415.124 391.198 414.804 391.318 414.388H392.494C392.318 415.06 391.966 415.6 391.438 416.008C390.91 416.408 390.25 416.608 389.458 416.608C388.834 416.608 388.278 416.468 387.79 416.188C387.31 415.908 386.934 415.512 386.662 415C386.39 414.488 386.254 413.888 386.254 413.2ZM395.283 410.824V414.7C395.283 415.02 395.351 415.248 395.487 415.384C395.623 415.512 395.859 415.576 396.195 415.576H396.999V416.5H396.015C395.407 416.5 394.951 416.36 394.647 416.08C394.343 415.8 394.191 415.34 394.191 414.7V410.824H393.339V409.924H394.191V408.268H395.283V409.924H396.999V410.824H395.283Z" fill="#E2E2E2"/>
<rect x="129.6" y="359.1" width="68.801" height="68.801" rx="10.4005" fill="url(#paint10_linear_10157_85306)"/>
<rect x="129.6" y="359.1" width="68.801" height="68.801" rx="10.4005" stroke="url(#paint11_linear_10157_85306)" stroke-width="1.199"/>
<path d="M177 378.5C177 377.97 176.789 377.461 176.414 377.086C176.039 376.711 175.53 376.5 175 376.5H171V372.5C171 371.97 170.789 371.461 170.414 371.086C170.039 370.711 169.53 370.5 169 370.5H153C152.47 370.5 151.961 370.711 151.586 371.086C151.211 371.461 151 371.97 151 372.5V388.5C151.001 388.688 151.054 388.872 151.155 389.031C151.255 389.19 151.399 389.318 151.568 389.399C151.738 389.48 151.927 389.512 152.114 389.49C152.301 389.469 152.478 389.395 152.625 389.278L157 385.75V389.5C157 390.03 157.211 390.539 157.586 390.914C157.961 391.289 158.47 391.5 159 391.5H170.699L175.375 395.278C175.552 395.421 175.772 395.499 176 395.5C176.265 395.5 176.52 395.395 176.707 395.207C176.895 395.02 177 394.765 177 394.5V378.5ZM171.681 389.722C171.504 389.579 171.284 389.501 171.056 389.5H159V385.5H169C169.53 385.5 170.039 385.289 170.414 384.914C170.789 384.539 171 384.03 171 383.5V378.5H175V392.406L171.681 389.722Z" fill="white"/>
<path d="M142.828 416.5L140.836 413.08H139.516V416.5H138.424V408.136H141.124C141.756 408.136 142.288 408.244 142.72 408.46C143.16 408.676 143.488 408.968 143.704 409.336C143.92 409.704 144.028 410.124 144.028 410.596C144.028 411.172 143.86 411.68 143.524 412.12C143.196 412.56 142.7 412.852 142.036 412.996L144.136 416.5H142.828ZM139.516 412.204H141.124C141.716 412.204 142.16 412.06 142.456 411.772C142.752 411.476 142.9 411.084 142.9 410.596C142.9 410.1 142.752 409.716 142.456 409.444C142.168 409.172 141.724 409.036 141.124 409.036H139.516V412.204ZM151.725 412.96C151.725 413.168 151.713 413.388 151.689 413.62H146.433C146.473 414.268 146.693 414.776 147.093 415.144C147.501 415.504 147.993 415.684 148.569 415.684C149.041 415.684 149.433 415.576 149.745 415.36C150.065 415.136 150.289 414.84 150.417 414.472H151.593C151.417 415.104 151.065 415.62 150.537 416.02C150.009 416.412 149.353 416.608 148.569 416.608C147.945 416.608 147.385 416.468 146.889 416.188C146.401 415.908 146.017 415.512 145.737 415C145.457 414.48 145.317 413.88 145.317 413.2C145.317 412.52 145.453 411.924 145.725 411.412C145.997 410.9 146.377 410.508 146.865 410.236C147.361 409.956 147.929 409.816 148.569 409.816C149.193 409.816 149.745 409.952 150.225 410.224C150.705 410.496 151.073 410.872 151.329 411.352C151.593 411.824 151.725 412.36 151.725 412.96ZM150.597 412.732C150.597 412.316 150.505 411.96 150.321 411.664C150.137 411.36 149.885 411.132 149.565 410.98C149.253 410.82 148.905 410.74 148.521 410.74C147.969 410.74 147.497 410.916 147.105 411.268C146.721 411.62 146.501 412.108 146.445 412.732H150.597ZM155.494 416.608C154.99 416.608 154.538 416.524 154.138 416.356C153.738 416.18 153.422 415.94 153.19 415.636C152.958 415.324 152.83 414.968 152.806 414.568H153.934C153.966 414.896 154.118 415.164 154.39 415.372C154.67 415.58 155.034 415.684 155.482 415.684C155.898 415.684 156.226 415.592 156.466 415.408C156.706 415.224 156.826 414.992 156.826 414.712C156.826 414.424 156.698 414.212 156.442 414.076C156.186 413.932 155.79 413.792 155.254 413.656C154.766 413.528 154.366 413.4 154.054 413.272C153.75 413.136 153.486 412.94 153.262 412.684C153.046 412.42 152.938 412.076 152.938 411.652C152.938 411.316 153.038 411.008 153.238 410.728C153.438 410.448 153.722 410.228 154.09 410.068C154.458 409.9 154.878 409.816 155.35 409.816C156.078 409.816 156.666 410 157.114 410.368C157.562 410.736 157.802 411.24 157.834 411.88H156.742C156.718 411.536 156.578 411.26 156.322 411.052C156.074 410.844 155.738 410.74 155.314 410.74C154.922 410.74 154.61 410.824 154.378 410.992C154.146 411.16 154.03 411.38 154.03 411.652C154.03 411.868 154.098 412.048 154.234 412.192C154.378 412.328 154.554 412.44 154.762 412.528C154.978 412.608 155.274 412.7 155.65 412.804C156.122 412.932 156.506 413.06 156.802 413.188C157.098 413.308 157.35 413.492 157.558 413.74C157.774 413.988 157.886 414.312 157.894 414.712C157.894 415.072 157.794 415.396 157.594 415.684C157.394 415.972 157.11 416.2 156.742 416.368C156.382 416.528 155.966 416.608 155.494 416.608ZM160.528 411.136C160.744 410.76 161.064 410.448 161.488 410.2C161.92 409.944 162.42 409.816 162.988 409.816C163.572 409.816 164.1 409.956 164.572 410.236C165.052 410.516 165.428 410.912 165.7 411.424C165.972 411.928 166.108 412.516 166.108 413.188C166.108 413.852 165.972 414.444 165.7 414.964C165.428 415.484 165.052 415.888 164.572 416.176C164.1 416.464 163.572 416.608 162.988 416.608C162.428 416.608 161.932 416.484 161.5 416.236C161.076 415.98 160.752 415.664 160.528 415.288V419.62H159.436V409.924H160.528V411.136ZM164.992 413.188C164.992 412.692 164.892 412.26 164.692 411.892C164.492 411.524 164.22 411.244 163.876 411.052C163.54 410.86 163.168 410.764 162.76 410.764C162.36 410.764 161.988 410.864 161.644 411.064C161.308 411.256 161.036 411.54 160.828 411.916C160.628 412.284 160.528 412.712 160.528 413.2C160.528 413.696 160.628 414.132 160.828 414.508C161.036 414.876 161.308 415.16 161.644 415.36C161.988 415.552 162.36 415.648 162.76 415.648C163.168 415.648 163.54 415.552 163.876 415.36C164.22 415.16 164.492 414.876 164.692 414.508C164.892 414.132 164.992 413.692 164.992 413.188ZM170.413 416.608C169.797 416.608 169.237 416.468 168.733 416.188C168.237 415.908 167.845 415.512 167.557 415C167.277 414.48 167.137 413.88 167.137 413.2C167.137 412.528 167.281 411.936 167.569 411.424C167.865 410.904 168.265 410.508 168.769 410.236C169.273 409.956 169.837 409.816 170.461 409.816C171.085 409.816 171.649 409.956 172.153 410.236C172.657 410.508 173.053 410.9 173.341 411.412C173.637 411.924 173.785 412.52 173.785 413.2C173.785 413.88 173.633 414.48 173.329 415C173.033 415.512 172.629 415.908 172.117 416.188C171.605 416.468 171.037 416.608 170.413 416.608ZM170.413 415.648C170.805 415.648 171.173 415.556 171.517 415.372C171.861 415.188 172.137 414.912 172.345 414.544C172.561 414.176 172.669 413.728 172.669 413.2C172.669 412.672 172.565 412.224 172.357 411.856C172.149 411.488 171.877 411.216 171.541 411.04C171.205 410.856 170.841 410.764 170.449 410.764C170.049 410.764 169.681 410.856 169.345 411.04C169.017 411.216 168.753 411.488 168.553 411.856C168.353 412.224 168.253 412.672 168.253 413.2C168.253 413.736 168.349 414.188 168.541 414.556C168.741 414.924 169.005 415.2 169.333 415.384C169.661 415.56 170.021 415.648 170.413 415.648ZM178.425 409.804C179.225 409.804 179.873 410.048 180.369 410.536C180.865 411.016 181.113 411.712 181.113 412.624V416.5H180.033V412.78C180.033 412.124 179.869 411.624 179.541 411.28C179.213 410.928 178.765 410.752 178.197 410.752C177.621 410.752 177.161 410.932 176.817 411.292C176.481 411.652 176.313 412.176 176.313 412.864V416.5H175.221V409.924H176.313V410.86C176.529 410.524 176.821 410.264 177.189 410.08C177.565 409.896 177.977 409.804 178.425 409.804ZM182.489 413.188C182.489 412.516 182.625 411.928 182.897 411.424C183.169 410.912 183.541 410.516 184.013 410.236C184.493 409.956 185.029 409.816 185.621 409.816C186.133 409.816 186.609 409.936 187.049 410.176C187.489 410.408 187.825 410.716 188.057 411.1V407.62H189.161V416.5H188.057V415.264C187.841 415.656 187.521 415.98 187.097 416.236C186.673 416.484 186.177 416.608 185.609 416.608C185.025 416.608 184.493 416.464 184.013 416.176C183.541 415.888 183.169 415.484 182.897 414.964C182.625 414.444 182.489 413.852 182.489 413.188ZM188.057 413.2C188.057 412.704 187.957 412.272 187.757 411.904C187.557 411.536 187.285 411.256 186.941 411.064C186.605 410.864 186.233 410.764 185.825 410.764C185.417 410.764 185.045 410.86 184.709 411.052C184.373 411.244 184.105 411.524 183.905 411.892C183.705 412.26 183.605 412.692 183.605 413.188C183.605 413.692 183.705 414.132 183.905 414.508C184.105 414.876 184.373 415.16 184.709 415.36C185.045 415.552 185.417 415.648 185.825 415.648C186.233 415.648 186.605 415.552 186.941 415.36C187.285 415.16 187.557 414.876 187.757 414.508C187.957 414.132 188.057 413.696 188.057 413.2Z" fill="#E2E2E2"/>
</g>
<rect x="0.5" y="0.5" width="535" height="469" rx="15.5" stroke="url(#paint12_linear_10157_85306)" stroke-opacity="0.47"/>
<defs>
<linearGradient id="paint0_linear_10157_85306" x1="268" y1="0" x2="268" y2="470" gradientUnits="userSpaceOnUse">
<stop stop-color="#161C20"/>
<stop offset="1" stop-color="#0A0D0F"/>
</linearGradient>
<radialGradient id="paint1_radial_10157_85306" cx="0" cy="0" r="1" gradientUnits="userSpaceOnUse" gradientTransform="translate(272.572 233.427) rotate(90) scale(244.481 320.459)">
<stop stop-color="#D9D9D9" stop-opacity="0.3"/>
<stop offset="1" stop-color="#737373"/>
</radialGradient>
<linearGradient id="paint2_linear_10157_85306" x1="91" y1="156.5" x2="91" y2="226.5" gradientUnits="userSpaceOnUse">
<stop stop-color="#161C20"/>
<stop offset="1" stop-color="#0A0D0F"/>
</linearGradient>
<linearGradient id="paint3_linear_10157_85306" x1="91" y1="191.477" x2="91" y2="226.5" gradientUnits="userSpaceOnUse">
<stop stop-color="#3B3D3F" stop-opacity="0.5"/>
<stop offset="1" stop-color="#3B3D3F" stop-opacity="0.89"/>
</linearGradient>
<linearGradient id="paint4_linear_10157_85306" x1="268" y1="38.5" x2="268" y2="108.5" gradientUnits="userSpaceOnUse">
<stop stop-color="#161C20"/>
<stop offset="1" stop-color="#0A0D0F"/>
</linearGradient>
<linearGradient id="paint5_linear_10157_85306" x1="268" y1="73.4765" x2="268" y2="108.5" gradientUnits="userSpaceOnUse">
<stop stop-color="#3B3D3F" stop-opacity="0.5"/>
<stop offset="1" stop-color="#3B3D3F" stop-opacity="0.89"/>
</linearGradient>
<linearGradient id="paint6_linear_10157_85306" x1="445" y1="156.5" x2="445" y2="226.5" gradientUnits="userSpaceOnUse">
<stop stop-color="#161C20"/>
<stop offset="1" stop-color="#0A0D0F"/>
</linearGradient>
<linearGradient id="paint7_linear_10157_85306" x1="445" y1="191.477" x2="445" y2="226.5" gradientUnits="userSpaceOnUse">
<stop stop-color="#3B3D3F" stop-opacity="0.5"/>
<stop offset="1" stop-color="#3B3D3F" stop-opacity="0.89"/>
</linearGradient>
<linearGradient id="paint8_linear_10157_85306" x1="378" y1="358.5" x2="378" y2="428.5" gradientUnits="userSpaceOnUse">
<stop stop-color="#161C20"/>
<stop offset="1" stop-color="#0A0D0F"/>
</linearGradient>
<linearGradient id="paint9_linear_10157_85306" x1="378" y1="393.477" x2="378" y2="428.5" gradientUnits="userSpaceOnUse">
<stop stop-color="#3B3D3F" stop-opacity="0.5"/>
<stop offset="1" stop-color="#3B3D3F" stop-opacity="0.89"/>
</linearGradient>
<linearGradient id="paint10_linear_10157_85306" x1="164" y1="358.5" x2="164" y2="428.5" gradientUnits="userSpaceOnUse">
<stop stop-color="#161C20"/>
<stop offset="1" stop-color="#0A0D0F"/>
</linearGradient>
<linearGradient id="paint11_linear_10157_85306" x1="164" y1="393.477" x2="164" y2="428.5" gradientUnits="userSpaceOnUse">
<stop stop-color="#3B3D3F" stop-opacity="0.5"/>
<stop offset="1" stop-color="#3B3D3F" stop-opacity="0.89"/>
</linearGradient>
<linearGradient id="paint12_linear_10157_85306" x1="268" y1="0" x2="268" y2="470" gradientUnits="userSpaceOnUse">
<stop stop-color="#3B3D3F" stop-opacity="0.4"/>
<stop offset="1" stop-color="#3B3D3F"/>
</linearGradient>
<clipPath id="clip0_10157_85306">
<rect width="536" height="470" rx="16" fill="white"/>
</clipPath>
</defs>
</svg>
