<svg width="536" height="410" viewBox="0 0 536 410" fill="none" xmlns="http://www.w3.org/2000/svg">
<g clip-path="url(#clip0_9684_112775)">
<rect width="536" height="410" rx="16" fill="url(#paint0_linear_9684_112775)"/>
<mask id="mask0_9684_112775" style="mask-type:alpha" maskUnits="userSpaceOnUse" x="-7" y="-13" width="546" height="490">
<path d="M-6.30078 -12.2227H538.176V476.74H-6.30078V-12.2227Z" fill="url(#paint1_radial_9684_112775)"/>
</mask>
<g mask="url(#mask0_9684_112775)">
<path d="M32.3672 4.83203V475.832" stroke="#181E22"/>
<path d="M99.3672 4.83203V475.832" stroke="#181E22"/>
<path d="M166.367 4.83203V475.832" stroke="#181E22"/>
<path d="M233.367 4.83203V475.832" stroke="#181E22"/>
<path d="M300.367 4.83203V475.832" stroke="#181E22"/>
<path d="M367.367 4.83203V475.832" stroke="#181E22"/>
<path d="M434.367 4.83203V475.832" stroke="#181E22"/>
<path d="M501.367 4.83203V475.832" stroke="#181E22"/>
<rect x="-77.3828" y="15.082" width="621.5" height="0.5" fill="#2E2E38" stroke="#181E22" stroke-width="0.5"/>
<rect x="-77.3828" y="56.082" width="621.5" height="0.5" fill="#2E2E38" stroke="#181E22" stroke-width="0.5"/>
<rect x="-77.3828" y="97.082" width="621.5" height="0.5" fill="#2E2E38" stroke="#181E22" stroke-width="0.5"/>
<rect x="-77.3828" y="138.082" width="621.5" height="0.5" fill="#2E2E38" stroke="#181E22" stroke-width="0.5"/>
<rect x="-77.3828" y="179.082" width="621.5" height="0.5" fill="#2E2E38" stroke="#181E22" stroke-width="0.5"/>
<rect x="-77.3828" y="220.082" width="621.5" height="0.5" fill="#2E2E38" stroke="#181E22" stroke-width="0.5"/>
<rect x="-77.3828" y="261.082" width="621.5" height="0.5" fill="#2E2E38" stroke="#181E22" stroke-width="0.5"/>
<rect x="-77.3828" y="302.082" width="621.5" height="0.5" fill="#2E2E38" stroke="#181E22" stroke-width="0.5"/>
<rect x="-77.3828" y="343.082" width="621.5" height="0.5" fill="#2E2E38" stroke="#181E22" stroke-width="0.5"/>
<rect x="-77.3828" y="384.082" width="621.5" height="0.5" fill="#2E2E38" stroke="#181E22" stroke-width="0.5"/>
</g>
<path d="M266.646 262.717C266.842 262.521 267.158 262.521 267.354 262.717L270.536 265.899C270.731 266.094 270.731 266.411 270.536 266.606C270.34 266.801 270.024 266.801 269.828 266.606L267 263.777L264.172 266.606C263.976 266.801 263.66 266.801 263.464 266.606C263.269 266.411 263.269 266.094 263.464 265.899L266.646 262.717ZM402.5 324.07C402.5 324.346 402.276 324.57 402 324.57C401.724 324.57 401.5 324.346 401.5 324.07H402.5ZM267.5 263.07V294.85H266.5V263.07H267.5ZM275 302.35H394V303.35H275V302.35ZM402.5 310.85V324.07H401.5V310.85H402.5ZM394 302.35C398.694 302.35 402.5 306.156 402.5 310.85H401.5C401.5 306.708 398.142 303.35 394 303.35V302.35ZM267.5 294.85C267.5 298.992 270.858 302.35 275 302.35V303.35C270.306 303.35 266.5 299.545 266.5 294.85H267.5Z" fill="#33373A"/>
<path d="M267 284.07V295.198C267 299.616 263.418 303.198 259 303.198H140C135.582 303.198 132 306.78 132 311.198V324.07" stroke="#33373A" stroke-linecap="round"/>
<path d="M266.646 150.158C266.842 150.354 267.158 150.354 267.354 150.158L270.536 146.976C270.731 146.781 270.731 146.464 270.536 146.269C270.34 146.074 270.024 146.074 269.828 146.269L267 149.098L264.172 146.269C263.976 146.074 263.66 146.074 263.464 146.269C263.269 146.464 263.269 146.781 263.464 146.976L266.646 150.158ZM267.5 92.8047C267.5 92.5285 267.276 92.3047 267 92.3047C266.724 92.3047 266.5 92.5285 266.5 92.8047L267.5 92.8047ZM267.5 149.805L267.5 92.8047L266.5 92.8047L266.5 149.805L267.5 149.805Z" fill="#33373A"/>
<path d="M210.354 206.451C210.549 206.646 210.549 206.963 210.354 207.158L207.172 210.34C206.976 210.535 206.66 210.535 206.465 210.34C206.269 210.145 206.269 209.828 206.465 209.633L209.293 206.805L206.465 203.976C206.269 203.781 206.269 203.464 206.465 203.269C206.66 203.074 206.976 203.074 207.172 203.269L210.354 206.451ZM132.5 94.8047C132.5 94.5285 132.724 94.3047 133 94.3047C133.276 94.3047 133.5 94.5285 133.5 94.8047H132.5ZM210 207.305H141V206.305H210V207.305ZM132.5 198.805V94.8047H133.5V198.805H132.5ZM141 207.305C136.306 207.305 132.5 203.499 132.5 198.805H133.5C133.5 202.947 136.858 206.305 141 206.305V207.305Z" fill="#33373A"/>
<path d="M322.646 206.451C322.451 206.646 322.451 206.963 322.646 207.158L325.828 210.34C326.024 210.535 326.34 210.535 326.535 210.34C326.731 210.145 326.731 209.828 326.535 209.633L323.707 206.805L326.535 203.976C326.731 203.781 326.731 203.464 326.535 203.269C326.34 203.074 326.024 203.074 325.828 203.269L322.646 206.451ZM403.5 94.8047C403.5 94.5285 403.276 94.3047 403 94.3047C402.724 94.3047 402.5 94.5285 402.5 94.8047H403.5ZM323 207.305H395V206.305H323V207.305ZM403.5 198.805V94.8047H402.5V198.805H403.5ZM395 207.305C399.694 207.305 403.5 203.499 403.5 198.805H402.5C402.5 202.947 399.142 206.305 395 206.305V207.305Z" fill="#33373A"/>
<rect x="211.332" y="151.44" width="110.338" height="110.338" rx="55.1692" fill="#0A0D0F" stroke="url(#paint2_linear_9684_112775)"/>
<rect x="195.062" y="135.167" width="142.875" height="142.875" rx="71.4375" stroke="#3B3D3F" stroke-dasharray="1 4"/>
<g filter="url(#filter0_i_9684_112775)">
<rect x="216.566" y="156.671" width="99.8686" height="99.8686" rx="49.9343" fill="#060809"/>
</g>
<rect x="217.066" y="157.171" width="98.8686" height="98.8686" rx="49.4343" stroke="url(#paint3_linear_9684_112775)"/>
<rect x="222.842" y="162.537" width="87.3178" height="88.1356" rx="43.6589" fill="#0A0D0F" stroke="url(#paint4_linear_9684_112775)"/>
<path d="M266.557 179.581C267.365 179.581 268.02 180.236 268.02 181.043V182.493C268.02 182.583 268.012 182.671 267.996 182.756C268.323 182.833 268.644 182.937 268.955 183.066C269.716 183.381 270.408 183.844 270.99 184.426C271.573 185.009 272.035 185.7 272.351 186.461C272.6 187.063 272.753 187.699 272.807 188.346H273.898C274.735 188.346 275.414 189.025 275.414 189.862C275.414 190.699 274.735 191.377 273.898 191.377H273.068L273.354 195.167H273.898C274.735 195.167 275.414 195.845 275.414 196.682C275.414 197.519 274.735 198.198 273.898 198.198H273.583L275.717 226.487H277.172C278.039 226.487 278.742 227.19 278.742 228.057C278.742 228.924 278.039 229.627 277.172 229.627H255.828C254.961 229.627 254.258 228.924 254.258 228.057C254.258 227.19 254.961 226.487 255.828 226.487H257.44L259.502 198.198H259.258C258.421 198.198 257.742 197.519 257.742 196.682C257.742 195.845 258.421 195.167 259.258 195.167H259.723L259.998 191.377H259.258C258.421 191.377 257.742 190.699 257.742 189.862C257.742 189.025 258.421 188.346 259.258 188.346H260.303C260.356 187.699 260.51 187.063 260.759 186.461C261.074 185.7 261.537 185.009 262.119 184.426C262.702 183.844 263.393 183.381 264.154 183.066C264.467 182.936 264.789 182.833 265.117 182.755C265.102 182.67 265.094 182.582 265.094 182.493V181.043C265.094 180.236 265.749 179.581 266.557 179.581ZM265.562 220.737C265.286 220.737 265.062 220.961 265.062 221.237V226.088C265.062 226.365 265.286 226.588 265.562 226.588H267.602C267.878 226.588 268.102 226.365 268.102 226.088V221.237C268.102 220.961 267.878 220.737 267.602 220.737H265.562ZM263.443 191.307C263.179 191.307 262.961 191.513 262.944 191.776L262.756 194.745C262.738 195.032 262.967 195.276 263.255 195.276H269.907C270.198 195.276 270.427 195.029 270.406 194.74L270.19 191.771C270.171 191.51 269.953 191.307 269.691 191.307H263.443Z" fill="#FFCB5C"/>
<path d="M135.335 45.4355C145.493 45.4356 153.729 53.6895 153.729 63.8721C153.73 65.9568 155.288 67.9492 157.479 67.9492H158.13C165.186 67.9494 170.908 73.6828 170.908 80.7568C170.908 87.8308 165.186 93.5642 158.13 93.5645H113.861C111.702 93.5644 109.669 93.0278 107.887 92.0811L107.874 92.0742L107.861 92.0684L107.31 91.8076C101.663 89.0161 97.7795 83.189 97.7793 76.4531C97.7793 67.002 105.424 59.3419 114.853 59.3418C116.24 59.3418 117.523 58.5386 118.129 57.3027L118.24 57.0498C120.947 50.2438 127.582 45.4355 135.335 45.4355Z" fill="url(#paint5_linear_9684_112775)" stroke="url(#paint6_linear_9684_112775)" stroke-width="0.872003"/>
<g clip-path="url(#clip1_9684_112775)">
<path d="M130.789 64.5119H136.214L130.582 81.1967C130.525 81.3682 130.414 81.5171 130.267 81.6227C130.12 81.7282 129.944 81.785 129.763 81.7851H125.541C125.404 81.7851 125.269 81.7524 125.147 81.6899C125.025 81.6273 124.92 81.5366 124.84 81.4252C124.76 81.3138 124.708 81.185 124.687 81.0494C124.667 80.9139 124.679 80.7754 124.723 80.6455L129.97 65.1003C130.027 64.9287 130.138 64.7797 130.285 64.6741C130.432 64.5685 130.608 64.5119 130.789 64.5119Z" fill="url(#paint7_linear_9684_112775)"/>
<path d="M138.673 75.7051H130.07C129.99 75.705 129.912 75.729 129.846 75.7739C129.78 75.8189 129.729 75.8827 129.7 75.9571C129.67 76.0315 129.664 76.113 129.682 76.191C129.699 76.269 129.74 76.3399 129.799 76.3945L135.326 81.5536C135.487 81.7037 135.699 81.7872 135.919 81.7872H140.79L138.673 75.7051Z" fill="#EBECEC"/>
<path d="M130.79 64.5117C130.607 64.511 130.429 64.5688 130.281 64.6768C130.133 64.7847 130.024 64.937 129.968 65.1115L124.73 80.6311C124.684 80.7615 124.669 80.9012 124.688 81.0385C124.706 81.1757 124.758 81.3065 124.837 81.4196C124.917 81.5328 125.023 81.6251 125.146 81.6887C125.269 81.7522 125.406 81.7852 125.545 81.7849H129.875C130.036 81.756 130.187 81.6849 130.312 81.5788C130.437 81.4726 130.531 81.3353 130.586 81.1807L131.63 78.1021L135.361 81.5824C135.518 81.7117 135.714 81.7832 135.917 81.7849H140.77L138.641 75.7028L132.437 75.7042L136.234 64.5117H130.79Z" fill="url(#paint8_linear_9684_112775)"/>
<path d="M137.717 65.0992C137.66 64.928 137.55 64.7792 137.403 64.6738C137.256 64.5684 137.08 64.5117 136.899 64.5117H130.854C131.034 64.5117 131.21 64.5684 131.357 64.6738C131.504 64.7792 131.614 64.928 131.672 65.0992L136.919 80.6451C136.962 80.775 136.975 80.9135 136.954 81.0491C136.934 81.1847 136.882 81.3136 136.802 81.425C136.722 81.5364 136.616 81.6272 136.494 81.6898C136.372 81.7524 136.237 81.785 136.1 81.7851H142.146C142.283 81.785 142.418 81.7523 142.54 81.6897C142.662 81.6271 142.768 81.5363 142.848 81.4249C142.927 81.3135 142.98 81.1847 143 81.0491C143.02 80.9135 143.008 80.775 142.964 80.6451L137.717 65.0992Z" fill="white"/>
</g>
<path d="M403.991 45.4355C414.149 45.4356 422.386 53.6895 422.386 63.8721C422.386 65.9568 423.945 67.9492 426.136 67.9492H426.786C433.842 67.9494 439.564 73.6828 439.564 80.7568C439.564 87.8308 433.842 93.5642 426.786 93.5645H382.518C380.358 93.5644 378.325 93.0278 376.543 92.0811L376.53 92.0742L376.518 92.0684L375.966 91.8076C370.32 89.0161 366.436 83.189 366.436 76.4531C366.436 67.002 374.081 59.3419 383.509 59.3418C384.896 59.3418 386.179 58.5386 386.785 57.3027L386.896 57.0498C389.603 50.2438 396.238 45.4355 403.991 45.4355Z" fill="url(#paint9_linear_9684_112775)" stroke="url(#paint10_linear_9684_112775)" stroke-width="0.872003"/>
<g clip-path="url(#clip2_9684_112775)">
<path d="M400.386 63.123C401.891 62.7387 403.472 62.705 404.996 63.0264L405.3 63.0957C406.81 63.463 408.21 64.1717 409.382 65.166L409.499 65.2656L409.48 65.4189L409.377 66.2832L409.364 66.3848L409.291 66.4551L407.174 68.4912L407.09 68.5713H406.232V68.3037L406.071 68.5107C405.143 67.7881 403.975 67.41 402.783 67.4424L402.545 67.4541C401.271 67.5473 400.084 68.1057 399.227 69.0107L399.119 69.124L399.066 69.1133C399.057 69.1232 399.047 69.1342 399.036 69.1475C399.009 69.181 398.982 69.2162 398.963 69.2441C398.953 69.2578 398.946 69.2697 398.941 69.2773C398.939 69.281 398.937 69.2834 398.936 69.2852L398.935 69.2871L398.865 69.3975L398.737 69.418L394.503 70.0889L394.442 70.0986L394.384 70.083C394.197 70.0336 393.999 70.045 393.82 70.1152L393.282 70.3271L393.439 69.7715L393.525 69.4824C393.982 68.0457 394.789 66.7341 395.88 65.6572L396.102 65.4453C397.225 64.4045 398.591 63.6362 400.086 63.2051L400.386 63.123Z" fill="white" stroke="#0A0D0F" stroke-width="0.573214"/>
<path d="M409.42 65.1758C410.824 66.3733 411.841 67.9332 412.354 69.6709C413.583 70.4971 414.516 71.6743 415.015 73.041L415.105 73.3057C415.5 74.5432 415.524 75.8628 415.177 77.1133L415.097 77.3799C414.667 78.7083 413.833 79.8773 412.706 80.7373L412.478 80.9053C411.236 81.7774 409.736 82.2406 408.201 82.2295V82.2305H402.797L402.714 82.1504L402.187 81.6426L402.099 81.5586V78.2656L402.185 78.1816L402.712 77.667L402.796 77.5859H408.201C408.512 77.5859 408.821 77.5264 409.107 77.4121C409.394 77.2978 409.655 77.1309 409.873 76.9209C410.091 76.7109 410.264 76.4623 410.382 76.1895C410.499 75.9165 410.56 75.6238 410.56 75.3291C410.56 75.0346 410.499 74.7425 410.382 74.4697C410.264 74.197 410.091 73.9482 409.873 73.7383C409.655 73.5282 409.394 73.3604 409.107 73.2461C408.821 73.1318 408.512 73.0732 408.201 73.0732H407.915V72.2734L407.912 72.0029C407.891 71.4618 407.774 70.9279 407.566 70.4238L407.456 70.1748C407.14 69.5171 406.67 68.9356 406.085 68.4756L405.826 68.2725L406.063 68.0439L409.035 65.1865L409.223 65.0068L409.42 65.1758Z" fill="white" stroke="#0A0D0F" stroke-width="0.573214"/>
<path d="M396.641 77.3486C396.947 77.4831 397.28 77.5536 397.617 77.5537H403.193V82.1982H397.617V82.1973C396.06 82.2035 394.542 81.7185 393.297 80.8145L393.139 80.7002L393.188 80.5107L393.373 79.7959L393.394 79.7178L393.452 79.6611L395.585 77.625L395.635 77.5781L395.701 77.5576L396.443 77.3369L396.544 77.3066L396.641 77.3486Z" fill="white" stroke="#0A0D0F" stroke-width="0.573214"/>
<path d="M397.614 68.4258L398.026 68.4355C398.987 68.4856 399.929 68.7212 400.795 69.1309L401.16 69.3164C401.998 69.7722 402.734 70.3873 403.321 71.126L403.484 71.3311L403.296 71.5117L400.229 74.4609L399.94 74.7383L399.77 74.377C399.633 74.0867 399.434 73.8268 399.186 73.6152L399.076 73.5273C398.813 73.3297 398.509 73.188 398.185 73.1113L398.045 73.083C397.715 73.0251 397.376 73.0343 397.052 73.1113L396.914 73.1484C396.594 73.2444 396.3 73.4044 396.052 73.6162L395.948 73.71C395.713 73.9363 395.531 74.2074 395.414 74.5039L395.367 74.6328C395.255 74.9798 395.232 75.3478 395.3 75.7051C395.368 76.0623 395.524 76.3998 395.758 76.6875L395.85 76.792C396.069 77.0308 396.34 77.224 396.645 77.3564L397.039 77.5273L396.729 77.8262L393.661 80.7754L393.486 80.9434L393.292 80.7998C392.182 79.9793 391.348 78.8639 390.889 77.5928L390.802 77.3369C390.366 75.9594 390.388 74.4845 390.866 73.1201L390.961 72.8672C391.459 71.6098 392.328 70.5189 393.462 69.7305L393.692 69.5771C394.854 68.8344 396.216 68.4338 397.613 68.4258H397.614Z" fill="white" stroke="#0A0D0F" stroke-width="0.573214"/>
</g>
<path d="M134.991 324.436C145.149 324.436 153.386 332.69 153.386 342.872C153.386 344.957 154.945 346.949 157.136 346.949H157.786C164.842 346.949 170.564 352.683 170.564 359.757C170.564 366.831 164.842 372.564 157.786 372.564H113.518C111.358 372.564 109.325 372.028 107.543 371.081L107.53 371.074L107.518 371.068L106.966 370.808C101.32 368.016 97.4357 362.189 97.4355 355.453C97.4355 346.002 105.081 338.342 114.509 338.342C115.896 338.342 117.179 337.539 117.785 336.303L117.896 336.05C120.603 329.244 127.238 324.436 134.991 324.436Z" fill="url(#paint11_linear_9684_112775)" stroke="url(#paint12_linear_9684_112775)" stroke-width="0.872003"/>
<g clip-path="url(#clip3_9684_112775)">
<path d="M126.663 351.35C126.663 351.76 126.706 352.092 126.781 352.335C126.868 352.579 126.976 352.845 127.127 353.132C127.181 353.221 127.202 353.309 127.202 353.387C127.202 353.498 127.138 353.608 126.997 353.719L126.317 354.184C126.22 354.25 126.123 354.283 126.036 354.283C125.928 354.283 125.82 354.228 125.712 354.128C125.561 353.962 125.432 353.785 125.324 353.608C125.216 353.42 125.108 353.21 124.989 352.955C124.147 353.973 123.088 354.483 121.814 354.483C120.907 354.483 120.184 354.217 119.655 353.686C119.125 353.154 118.855 352.446 118.855 351.561C118.855 350.62 119.179 349.856 119.838 349.281C120.497 348.705 121.371 348.417 122.484 348.417C122.851 348.417 123.229 348.451 123.628 348.506C124.028 348.561 124.438 348.65 124.87 348.749V347.941C124.87 347.1 124.697 346.514 124.363 346.171C124.017 345.827 123.434 345.661 122.602 345.661C122.224 345.661 121.836 345.706 121.436 345.805C121.037 345.905 120.648 346.027 120.27 346.182C120.097 346.259 119.968 346.303 119.892 346.326C119.817 346.348 119.763 346.359 119.719 346.359C119.568 346.359 119.493 346.248 119.493 346.016V345.473C119.493 345.296 119.514 345.163 119.568 345.086C119.622 345.008 119.719 344.931 119.87 344.854C120.248 344.654 120.702 344.488 121.231 344.355C121.76 344.212 122.322 344.145 122.916 344.145C124.201 344.145 125.14 344.444 125.745 345.042C126.339 345.639 126.641 346.547 126.641 347.764V351.35H126.663ZM122.278 353.033C122.635 353.033 123.002 352.966 123.391 352.833C123.779 352.701 124.125 352.457 124.417 352.125C124.589 351.915 124.719 351.682 124.784 351.417C124.848 351.151 124.892 350.83 124.892 350.454V349.989C124.578 349.912 124.244 349.845 123.898 349.801C123.553 349.757 123.218 349.734 122.883 349.734C122.16 349.734 121.631 349.878 121.274 350.177C120.918 350.476 120.745 350.897 120.745 351.45C120.745 351.97 120.875 352.358 121.145 352.623C121.404 352.9 121.782 353.033 122.278 353.033ZM130.949 354.228C130.755 354.228 130.625 354.195 130.539 354.117C130.453 354.051 130.377 353.896 130.312 353.686L127.775 345.13C127.71 344.909 127.678 344.765 127.678 344.688C127.678 344.51 127.764 344.411 127.937 344.411H128.995C129.2 344.411 129.34 344.444 129.416 344.521C129.502 344.588 129.567 344.743 129.632 344.953L131.446 352.28L133.131 344.953C133.185 344.732 133.249 344.588 133.336 344.521C133.422 344.455 133.573 344.411 133.768 344.411H134.632C134.837 344.411 134.977 344.444 135.064 344.521C135.15 344.588 135.225 344.743 135.269 344.953L136.975 352.369L138.843 344.953C138.908 344.732 138.983 344.588 139.059 344.521C139.145 344.455 139.286 344.411 139.48 344.411H140.484C140.657 344.411 140.754 344.499 140.754 344.688C140.754 344.743 140.743 344.798 140.733 344.865C140.722 344.931 140.7 345.02 140.657 345.141L138.055 353.697C137.99 353.918 137.914 354.062 137.828 354.128C137.741 354.195 137.601 354.239 137.418 354.239H136.489C136.284 354.239 136.143 354.206 136.057 354.128C135.971 354.051 135.895 353.907 135.852 353.686L134.178 346.547L132.515 353.675C132.461 353.896 132.396 354.04 132.31 354.117C132.224 354.195 132.072 354.228 131.878 354.228H130.949ZM144.825 354.527C144.264 354.527 143.702 354.46 143.162 354.328C142.622 354.195 142.201 354.051 141.92 353.885C141.748 353.785 141.629 353.675 141.586 353.575C141.542 353.475 141.521 353.365 141.521 353.265V352.701C141.521 352.468 141.607 352.358 141.769 352.358C141.834 352.358 141.899 352.369 141.964 352.391C142.028 352.413 142.126 352.457 142.233 352.501C142.601 352.667 143 352.8 143.421 352.889C143.853 352.977 144.274 353.022 144.706 353.022C145.387 353.022 145.916 352.9 146.283 352.656C146.65 352.413 146.844 352.059 146.844 351.605C146.844 351.295 146.747 351.04 146.553 350.83C146.358 350.62 145.991 350.432 145.462 350.255L143.896 349.757C143.108 349.502 142.525 349.126 142.169 348.628C141.812 348.141 141.629 347.598 141.629 347.023C141.629 346.558 141.726 346.148 141.92 345.794C142.115 345.44 142.374 345.13 142.698 344.887C143.022 344.632 143.389 344.444 143.821 344.311C144.253 344.178 144.706 344.123 145.181 344.123C145.419 344.123 145.667 344.134 145.905 344.167C146.153 344.201 146.38 344.245 146.607 344.289C146.823 344.344 147.028 344.4 147.222 344.466C147.417 344.533 147.568 344.599 147.676 344.665C147.827 344.754 147.935 344.842 148 344.942C148.064 345.031 148.097 345.152 148.097 345.307V345.827C148.097 346.06 148.01 346.182 147.849 346.182C147.762 346.182 147.622 346.137 147.438 346.049C146.823 345.761 146.132 345.617 145.365 345.617C144.749 345.617 144.264 345.717 143.929 345.927C143.594 346.137 143.421 346.458 143.421 346.912C143.421 347.222 143.529 347.488 143.745 347.698C143.961 347.908 144.361 348.119 144.933 348.307L146.466 348.805C147.244 349.059 147.805 349.413 148.14 349.867C148.475 350.321 148.637 350.841 148.637 351.417C148.637 351.893 148.54 352.324 148.356 352.701C148.162 353.077 147.903 353.409 147.568 353.675C147.233 353.951 146.833 354.151 146.369 354.294C145.883 354.449 145.376 354.527 144.825 354.527Z" fill="white"/>
<path fill-rule="evenodd" clip-rule="evenodd" d="M146.867 359.93C143.314 362.619 138.152 364.047 133.714 364.047C127.495 364.047 121.89 361.689 117.658 357.771C117.323 357.462 117.625 357.041 118.025 357.284C122.603 360.007 128.251 361.656 134.092 361.656C138.034 361.656 142.364 360.815 146.348 359.089C146.942 358.812 147.45 359.487 146.867 359.93Z" fill="white"/>
<path fill-rule="evenodd" clip-rule="evenodd" d="M148.345 358.197C147.891 357.599 145.343 357.909 144.188 358.053C143.842 358.097 143.788 357.787 144.101 357.555C146.131 356.094 149.468 356.515 149.857 357.002C150.245 357.5 149.749 360.92 147.848 362.558C147.557 362.812 147.276 362.679 147.405 362.347C147.837 361.252 148.798 358.783 148.345 358.197Z" fill="white"/>
</g>
<rect x="380.436" y="324.436" width="47.9483" height="47.128" rx="7.564" fill="url(#paint13_linear_9684_112775)"/>
<rect x="380.436" y="324.436" width="47.9483" height="47.128" rx="7.564" stroke="url(#paint14_linear_9684_112775)" stroke-width="0.872003"/>
<path fill-rule="evenodd" clip-rule="evenodd" d="M392.042 339.734C391.417 339.734 390.91 340.241 390.91 340.866V345.809C390.91 346.434 391.417 346.941 392.042 346.941H415.137C415.762 346.941 416.268 346.434 416.268 345.809V340.866C416.268 340.241 415.762 339.734 415.137 339.734H392.042ZM413.671 343.34C413.671 344.151 413.013 344.809 412.202 344.809C411.391 344.809 410.734 344.151 410.734 343.34C410.734 342.529 411.391 341.872 412.202 341.872C413.013 341.872 413.671 342.529 413.671 343.34ZM392.888 343.34C392.888 343.027 393.141 342.774 393.454 342.774H400.086C400.398 342.774 400.651 343.027 400.651 343.34C400.651 343.652 400.398 343.905 400.086 343.905H393.454C393.141 343.905 392.888 343.652 392.888 343.34Z" fill="white"/>
<path fill-rule="evenodd" clip-rule="evenodd" d="M392.042 349.204C391.417 349.204 390.91 349.71 390.91 350.335V355.279C390.91 355.904 391.417 356.41 392.042 356.41H415.137C415.762 356.41 416.268 355.904 416.268 355.279V350.335C416.268 349.71 415.762 349.204 415.137 349.204H392.042ZM413.671 352.806C413.671 353.617 413.013 354.275 412.202 354.275C411.391 354.275 410.734 353.617 410.734 352.806C410.734 351.995 411.391 351.338 412.202 351.338C413.013 351.338 413.671 351.995 413.671 352.806ZM392.888 352.806C392.888 352.494 393.141 352.24 393.454 352.24H400.086C400.398 352.24 400.651 352.494 400.651 352.806C400.651 353.118 400.398 353.372 400.086 353.372H393.454C393.141 353.372 392.888 353.118 392.888 352.806Z" fill="white"/>
<rect x="243.436" y="46.4516" width="47.128" height="47.128" rx="7.564" fill="url(#paint15_linear_9684_112775)"/>
<rect x="243.436" y="46.4516" width="47.128" height="47.128" rx="7.564" stroke="url(#paint16_linear_9684_112775)" stroke-width="0.872003"/>
<path d="M266.009 67.8164L266.182 64.8915C265.974 64.9154 265.766 64.9496 265.561 64.994C264.426 65.2406 263.441 65.7763 262.67 66.501L265.177 68.2012L265.182 68.1988C265.266 68.2582 265.371 68.2929 265.484 68.2929C265.76 68.2929 265.985 68.084 265.997 67.8223L266.009 67.8164Z" fill="white"/>
<path d="M271.134 66.5023C270.194 65.6219 268.968 65.0475 267.643 64.8915L267.816 67.8116L267.818 67.8128C267.823 67.9167 267.862 68.0165 267.93 68.0976C268.103 68.3042 268.414 68.3426 268.635 68.1881L268.644 68.1917L271.134 66.5023Z" fill="white"/>
<path d="M264.05 69.5523L261.762 67.5936C261.083 68.6523 260.761 69.9222 260.91 71.2285L263.843 70.4184L263.846 70.4089C263.951 70.3814 264.044 70.3225 264.112 70.2409C264.284 70.0342 264.254 69.736 264.047 69.5642L264.05 69.5523Z" fill="white"/>
<path d="M272.797 69.3497C272.644 68.7112 272.386 68.1221 272.046 67.5947L269.77 69.5439L269.772 69.5499C269.69 69.618 269.632 69.7094 269.609 69.8108C269.547 70.0686 269.709 70.3256 269.973 70.3946L269.976 70.4065L272.924 71.219C272.986 70.6104 272.948 69.9806 272.797 69.3497Z" fill="white"/>
<path d="M267.38 69.7035H266.443L265.859 70.3993L266.068 71.2691L266.912 71.6575L267.754 71.2703L267.963 70.4005L267.38 69.7035Z" fill="white"/>
<path d="M269.566 72.0971C269.527 72.0903 269.488 72.0869 269.448 72.0888C269.382 72.092 269.315 72.1082 269.251 72.1376C269.002 72.2523 268.894 72.5344 269.002 72.775L268.999 72.7798L270.176 75.5021C271.311 74.81 272.161 73.7758 272.605 72.582L269.571 72.0911L269.566 72.0971Z" fill="white"/>
<path d="M264.845 72.4831C264.792 72.2576 264.584 72.1038 264.352 72.1007C264.319 72.1002 264.285 72.1031 264.252 72.109L264.247 72.1031L261.239 72.5915C261.703 73.8206 262.571 74.8224 263.66 75.4914L264.825 72.7964L264.817 72.7857C264.858 72.6933 264.871 72.5887 264.845 72.4831Z" fill="white"/>
<path d="M267.134 73.3302C267.059 73.2954 266.976 73.2786 266.893 73.2814C266.803 73.2846 266.716 73.3102 266.64 73.3558C266.564 73.4014 266.501 73.4652 266.459 73.5411H266.456L264.977 76.1002C266.001 76.434 267.131 76.5087 268.265 76.2623C268.465 76.219 268.663 76.1661 268.858 76.1038L267.375 73.5399H267.364C267.314 73.4512 267.236 73.3772 267.134 73.3302Z" fill="white"/>
<path fill-rule="evenodd" clip-rule="evenodd" d="M266.1 57.3508C266.323 57.2487 266.566 57.19 266.813 57.1781C267.124 57.163 267.435 57.2224 267.716 57.3508L277.451 61.7996C277.703 61.9147 277.924 62.0822 278.099 62.2897C278.273 62.4972 278.396 62.7393 278.458 62.9981L280.863 72.9964C280.926 73.2553 280.926 73.5241 280.863 73.783C280.801 74.0419 280.678 74.2841 280.504 74.4916L273.769 82.5098C273.594 82.717 273.373 82.8843 273.121 82.9992C272.869 83.1141 272.593 83.1736 272.313 83.1734L261.508 83.1758C261.229 83.1758 260.953 83.1161 260.701 83.001C260.449 82.8859 260.227 82.7184 260.053 82.511L253.315 74.494C253.278 74.4488 253.242 74.4019 253.21 74.3534C253.074 74.1551 252.982 73.9331 252.939 73.7004C252.895 73.4677 252.901 73.2292 252.957 72.9988L255.358 63.0005C255.421 62.7417 255.544 62.4996 255.718 62.2921C255.892 62.0846 256.114 61.9171 256.366 61.8019L266.1 57.3508ZM266.329 61.1862C266.329 60.844 266.59 60.5667 266.912 60.5666C267.234 60.5666 267.495 60.844 267.495 61.1862C267.495 61.2036 267.495 61.2231 267.496 61.2431C267.496 61.2788 267.497 61.3159 267.496 61.3446C267.491 61.4748 267.47 61.5849 267.448 61.6969C267.437 61.7546 267.425 61.813 267.416 61.8748L267.412 61.9051C267.365 62.2807 267.326 62.5943 267.35 62.8863C267.37 63.0158 267.441 63.0777 267.509 63.1369C267.52 63.1463 267.53 63.1556 267.541 63.1651C267.542 63.2056 267.549 63.3398 267.554 63.4141C269.407 63.5716 271.127 64.3824 272.391 65.6504L272.613 65.4991C272.621 65.4996 272.632 65.5003 272.643 65.5011C272.726 65.5073 272.866 65.5177 272.966 65.4622C273.22 65.2983 273.453 65.0726 273.731 64.8024L273.752 64.7819C273.796 64.7373 273.836 64.6935 273.875 64.6501C273.954 64.5633 274.032 64.4781 274.136 64.3923C274.162 64.3712 274.197 64.3449 274.23 64.3206C274.242 64.3111 274.255 64.3019 274.266 64.2934C274.545 64.08 274.934 64.1027 275.135 64.3434C275.335 64.5842 275.271 64.9521 274.992 65.1655C274.979 65.1755 274.964 65.1868 274.95 65.1984C274.92 65.2219 274.889 65.2466 274.863 65.2644C274.755 65.3411 274.652 65.3933 274.547 65.4464C274.492 65.4744 274.436 65.5026 274.379 65.5348C274.031 65.7408 273.742 65.9116 273.513 66.1174C273.419 66.2134 273.412 66.3049 273.406 66.3927C273.405 66.4063 273.404 66.4198 273.403 66.4331C273.388 66.4469 273.353 66.4765 273.314 66.5094C273.273 66.5446 273.228 66.5835 273.196 66.6107C273.699 67.326 274.075 68.1379 274.288 69.0256C274.499 69.9052 274.532 70.7842 274.41 71.6289L274.646 71.6944C274.65 71.7011 274.656 71.709 274.662 71.7176C274.709 71.783 274.789 71.8962 274.897 71.9363C275.194 72.0257 275.527 72.0591 275.929 72.0994L275.942 72.1007C276.007 72.1059 276.07 72.1083 276.132 72.1106C276.251 72.1151 276.367 72.1195 276.501 72.1436C276.531 72.1491 276.57 72.1584 276.608 72.1673C276.63 72.1726 276.651 72.1777 276.67 72.1817C277.013 72.261 277.234 72.5632 277.163 72.8608C277.092 73.1585 276.756 73.3394 276.411 73.2683C276.408 73.2677 276.405 73.2676 276.402 73.2671C276.398 73.2662 276.395 73.2644 276.391 73.2635C276.373 73.2598 276.354 73.2561 276.335 73.2524C276.301 73.246 276.267 73.2394 276.24 73.2325C276.109 73.199 276.002 73.1545 275.893 73.1093C275.836 73.0858 275.779 73.062 275.717 73.0395L275.699 73.0333C275.322 72.9038 275.008 72.796 274.702 72.7536C274.565 72.7433 274.487 72.7956 274.411 72.8456C274.399 72.8536 274.387 72.8615 274.375 72.8691C274.333 72.861 274.202 72.8388 274.126 72.8274C273.568 74.5065 272.379 75.9603 270.768 76.8711C270.776 76.8917 270.787 76.9197 270.799 76.949C270.823 77.0113 270.85 77.0798 270.865 77.0963C270.86 77.1092 270.854 77.1221 270.849 77.1351C270.815 77.2162 270.779 77.3003 270.82 77.4251C270.933 77.7057 271.116 77.9801 271.337 78.3103C271.373 78.3625 271.41 78.4105 271.446 78.4581C271.517 78.5497 271.586 78.6398 271.649 78.7547C271.665 78.7837 271.685 78.8234 271.703 78.8598C271.711 78.8759 271.718 78.8913 271.725 78.9048C271.875 79.2114 271.765 79.5645 271.477 79.6971C271.187 79.8307 270.827 79.6896 270.672 79.3814C270.665 79.3682 270.657 79.3536 270.65 79.3386C270.632 79.3041 270.613 79.2672 270.6 79.2384C270.545 79.1185 270.514 79.0099 270.482 78.8993C270.466 78.8431 270.45 78.7863 270.43 78.7273L270.424 78.7113C270.295 78.3475 270.187 78.0455 270.031 77.7896C269.954 77.6807 269.861 77.6542 269.773 77.6288C269.76 77.6249 269.746 77.621 269.733 77.6169C269.723 77.6009 269.7 77.56 269.674 77.5156C269.651 77.4754 269.626 77.4324 269.609 77.4024C269.283 77.5205 268.949 77.6168 268.609 77.6908C267.097 78.0193 265.584 77.886 264.232 77.3893L264.1 77.6181C264.001 77.6432 263.907 77.6688 263.849 77.7351C263.699 77.9054 263.613 78.148 263.522 78.4057C263.483 78.5148 263.443 78.6266 263.398 78.7368C263.378 78.7969 263.361 78.8545 263.345 78.9117C263.314 79.0213 263.284 79.129 263.229 79.2479C263.217 79.2753 263.199 79.31 263.182 79.343C263.173 79.3594 263.165 79.3753 263.157 79.3898C263.157 79.3899 263.157 79.3896 263.157 79.3898C263.157 79.39 263.157 79.3907 263.157 79.3909C263.157 79.3912 263.157 79.3914 263.156 79.3917C263.156 79.3918 263.156 79.3915 263.156 79.3917C263.001 79.6989 262.641 79.84 262.352 79.7066C262.064 79.5741 261.954 79.221 262.104 78.9143C262.112 78.8982 262.121 78.8794 262.131 78.8599C262.147 78.8262 262.164 78.7907 262.179 78.7642C262.242 78.6487 262.312 78.5578 262.382 78.4654C262.419 78.418 262.455 78.3703 262.491 78.3186C262.712 77.9884 262.905 77.6922 263.019 77.4116C263.047 77.3183 263.005 77.1906 262.967 77.0963L263.073 76.8532C261.522 75.9737 260.297 74.5722 259.713 72.8382L259.459 72.8799C259.451 72.8757 259.442 72.871 259.433 72.8658C259.36 72.8251 259.239 72.758 259.124 72.7667C258.817 72.8091 258.503 72.917 258.125 73.0467L258.108 73.0526C258.047 73.0748 257.991 73.098 257.935 73.1209C257.825 73.1662 257.717 73.2106 257.585 73.2444C257.555 73.2521 257.516 73.26 257.478 73.2676C257.463 73.2707 257.448 73.2737 257.434 73.2766C257.432 73.277 257.431 73.2777 257.429 73.2783C257.427 73.279 257.425 73.2797 257.423 73.2802C257.422 73.2804 257.42 73.2806 257.419 73.2808C257.417 73.2809 257.416 73.2811 257.414 73.2814C257.069 73.3526 256.733 73.1716 256.662 72.8739C256.591 72.5763 256.812 72.2742 257.155 72.1948C257.158 72.1943 257.161 72.193 257.164 72.1924L257.169 72.1912C257.184 72.1879 257.2 72.1841 257.217 72.1802C257.254 72.1715 257.294 72.1623 257.325 72.1567C257.458 72.1326 257.574 72.1282 257.693 72.1237C257.755 72.1214 257.818 72.119 257.884 72.1138L257.897 72.1124C258.299 72.0722 258.632 72.0387 258.928 71.9494C259.012 71.9164 259.093 71.8148 259.155 71.7368C259.163 71.7266 259.171 71.7167 259.178 71.7075L259.422 71.6396C259.149 69.8276 259.612 68.0492 260.611 66.6095L260.425 66.4498C260.423 66.4422 260.422 66.4335 260.42 66.4239C260.408 66.3459 260.387 66.2094 260.308 66.1281C260.079 65.9223 259.79 65.7516 259.441 65.5458C259.385 65.5139 259.329 65.4856 259.275 65.4578C259.17 65.4046 259.067 65.3522 258.958 65.2751C258.933 65.2573 258.902 65.2328 258.872 65.2094C258.86 65.2 258.848 65.1907 258.837 65.1822C258.836 65.1812 258.835 65.1803 258.833 65.1794C258.832 65.1783 258.83 65.1773 258.829 65.1762C258.549 64.9629 258.485 64.5949 258.685 64.3541C258.798 64.2187 258.971 64.1517 259.15 64.1576C259.289 64.1621 259.433 64.2108 259.556 64.3041C259.567 64.3123 259.578 64.3213 259.591 64.3305C259.624 64.3551 259.659 64.3817 259.685 64.403C259.789 64.4882 259.865 64.5727 259.944 64.6588C259.984 64.7029 260.024 64.7474 260.069 64.7926L260.079 64.8023C260.361 65.0773 260.596 65.3057 260.854 65.4717C260.973 65.5379 261.068 65.5236 261.159 65.5098C261.173 65.5077 261.186 65.5056 261.2 65.5038C261.27 65.5524 261.34 65.6 261.411 65.6468C262.402 64.6399 263.705 63.8942 265.218 63.5654C265.564 63.4902 265.916 63.4385 266.271 63.4106L266.285 63.1746C266.362 63.1028 266.449 62.9994 266.474 62.8863C266.499 62.5884 266.459 62.2681 266.41 61.8823L266.409 61.8748C266.4 61.8131 266.389 61.7548 266.377 61.6971C266.356 61.585 266.334 61.4749 266.329 61.3446C266.328 61.3172 266.329 61.2825 266.33 61.2486C266.33 61.2325 266.33 61.2166 266.331 61.2017C266.331 61.1992 266.33 61.1967 266.33 61.1943C266.33 61.1916 266.329 61.1889 266.329 61.1862Z" fill="white"/>
<g clip-path="url(#clip4_9684_112775)">
<rect width="31.9375" height="22.8125" transform="translate(184.703 289.594)" fill="#0E1214"/>
<mask id="mask1_9684_112775" style="mask-type:luminance" maskUnits="userSpaceOnUse" x="186" y="292" width="29" height="31">
<path d="M186.877 292.106H214.336V322.029H186.877V292.106Z" fill="white"/>
</mask>
<g mask="url(#mask1_9684_112775)">
<path d="M196.354 301.608L194.909 300.709L194.939 302.083L196.384 302.982L196.354 301.608ZM198.435 306.417L198.404 305.073L197.142 304.285C197.121 304.275 197.101 304.255 197.091 304.245L197.121 305.599L198.435 306.417ZM193.919 308.225L190.615 306.175L190.535 302.74L192.151 302.043L192.121 300.669L189.534 301.78C189.332 301.871 189.211 302.053 189.221 302.265L189.322 306.387C189.322 306.599 189.454 306.811 189.656 306.932L193.616 309.387C193.798 309.498 194.02 309.529 194.212 309.478C194.232 309.468 194.252 309.468 194.273 309.458L196.707 308.407L195.384 307.589L193.919 308.225Z" fill="#33373A"/>
</g>
<mask id="mask2_9684_112775" style="mask-type:luminance" maskUnits="userSpaceOnUse" x="186" y="292" width="29" height="31">
<path d="M186.877 292.106H214.336V322.029H186.877V292.106Z" fill="white"/>
</mask>
<g mask="url(#mask2_9684_112775)">
<path d="M204.594 300.629C204.584 300.387 204.442 300.134 204.2 299.993L199.391 297.012L199.239 297.073L199.27 298.518L203.078 300.882L203.169 304.741L204.624 305.64L204.705 305.61L204.594 300.629ZM198.835 307.408L194.36 304.64L194.249 299.993L196.289 299.114L196.249 297.507L193.087 298.871C192.854 298.972 192.713 299.184 192.723 299.437L192.854 304.892C192.854 305.145 193.006 305.387 193.248 305.529L198.492 308.782C198.704 308.913 198.967 308.954 199.189 308.883C199.209 308.873 199.229 308.863 199.249 308.863L202.341 307.529L200.805 306.58L198.835 307.408Z" fill="#33373A"/>
</g>
<mask id="mask3_9684_112775" style="mask-type:luminance" maskUnits="userSpaceOnUse" x="186" y="292" width="29" height="31">
<path d="M186.877 292.106H214.336V322.029H186.877V292.106Z" fill="white"/>
</mask>
<g mask="url(#mask3_9684_112775)">
<path d="M211.418 296.807L204.699 292.644C204.447 292.493 204.154 292.452 203.901 292.533C203.881 292.543 203.851 292.553 203.831 292.564L197.274 295.392C197.011 295.503 196.85 295.746 196.86 296.039L197.021 303.03C197.032 303.313 197.203 303.595 197.476 303.757L204.194 307.919C204.437 308.071 204.74 308.111 204.992 308.03C205.013 308.02 205.043 308.01 205.063 308L211.62 305.171C211.882 305.06 212.044 304.808 212.034 304.525L211.872 297.534C211.862 297.251 211.69 296.978 211.418 296.807ZM204.588 306.353L198.749 302.737L198.608 296.665L204.305 294.21L210.145 297.827L210.286 303.899L204.588 306.353Z" fill="#33373A"/>
</g>
</g>
<g clip-path="url(#clip5_9684_112775)">
<rect width="31.9375" height="22.8125" transform="translate(319.359 289.594)" fill="#0E1214"/>
<mask id="mask4_9684_112775" style="mask-type:luminance" maskUnits="userSpaceOnUse" x="321" y="292" width="28" height="31">
<path d="M321.533 292.106H348.992V322.029H321.533V292.106Z" fill="white"/>
</mask>
<g mask="url(#mask4_9684_112775)">
<path d="M331.01 301.608L329.565 300.709L329.596 302.083L331.04 302.982L331.01 301.608ZM333.091 306.417L333.061 305.073L331.798 304.285C331.778 304.275 331.758 304.255 331.747 304.245L331.778 305.599L333.091 306.417ZM328.575 308.225L325.272 306.175L325.191 302.74L326.807 302.043L326.777 300.669L324.191 301.78C323.989 301.871 323.867 302.053 323.878 302.265L323.979 306.387C323.979 306.599 324.11 306.811 324.312 306.932L328.272 309.387C328.454 309.498 328.676 309.529 328.868 309.478C328.888 309.468 328.909 309.468 328.929 309.458L331.364 308.407L330.04 307.589L328.575 308.225Z" fill="#33373A"/>
</g>
<mask id="mask5_9684_112775" style="mask-type:luminance" maskUnits="userSpaceOnUse" x="321" y="292" width="28" height="31">
<path d="M321.533 292.106H348.992V322.029H321.533V292.106Z" fill="white"/>
</mask>
<g mask="url(#mask5_9684_112775)">
<path d="M339.25 300.629C339.24 300.387 339.098 300.134 338.856 299.993L334.047 297.012L333.896 297.073L333.926 298.518L337.734 300.882L337.825 304.741L339.28 305.64L339.361 305.61L339.25 300.629ZM333.491 307.408L329.016 304.64L328.905 299.993L330.946 299.114L330.905 297.507L327.743 298.871C327.511 298.972 327.369 299.184 327.379 299.437L327.511 304.892C327.511 305.145 327.662 305.387 327.905 305.529L333.148 308.782C333.36 308.913 333.623 308.954 333.845 308.883C333.865 308.873 333.885 308.863 333.906 308.863L336.997 307.529L335.461 306.58L333.491 307.408Z" fill="#33373A"/>
</g>
<mask id="mask6_9684_112775" style="mask-type:luminance" maskUnits="userSpaceOnUse" x="321" y="292" width="28" height="31">
<path d="M321.533 292.106H348.992V322.029H321.533V292.106Z" fill="white"/>
</mask>
<g mask="url(#mask6_9684_112775)">
<path d="M346.074 296.807L339.356 292.644C339.103 292.493 338.81 292.452 338.558 292.533C338.537 292.543 338.507 292.553 338.487 292.564L331.93 295.392C331.668 295.503 331.506 295.746 331.516 296.039L331.678 303.03C331.688 303.313 331.86 303.595 332.132 303.757L338.85 307.919C339.093 308.071 339.396 308.111 339.649 308.03C339.669 308.02 339.699 308.01 339.719 308L346.276 305.171C346.539 305.06 346.7 304.808 346.69 304.525L346.528 297.534C346.518 297.251 346.347 296.978 346.074 296.807ZM339.244 306.353L333.405 302.737L333.264 296.665L338.962 294.21L344.801 297.827L344.942 303.899L339.244 306.353Z" fill="#33373A"/>
</g>
</g>
</g>
<rect x="0.5" y="0.5" width="535" height="409" rx="15.5" stroke="url(#paint17_linear_9684_112775)" stroke-opacity="0.47"/>
<defs>
<filter id="filter0_i_9684_112775" x="216.566" y="156.671" width="99.8691" height="100.869" filterUnits="userSpaceOnUse" color-interpolation-filters="sRGB">
<feFlood flood-opacity="0" result="BackgroundImageFix"/>
<feBlend mode="normal" in="SourceGraphic" in2="BackgroundImageFix" result="shape"/>
<feColorMatrix in="SourceAlpha" type="matrix" values="0 0 0 0 0 0 0 0 0 0 0 0 0 0 0 0 0 0 127 0" result="hardAlpha"/>
<feOffset dy="1"/>
<feGaussianBlur stdDeviation="1"/>
<feComposite in2="hardAlpha" operator="arithmetic" k2="-1" k3="1"/>
<feColorMatrix type="matrix" values="0 0 0 0 0 0 0 0 0 0 0 0 0 0 0 0 0 0 1 0"/>
<feBlend mode="normal" in2="shape" result="effect1_innerShadow_9684_112775"/>
</filter>
<linearGradient id="paint0_linear_9684_112775" x1="268" y1="0" x2="268" y2="410" gradientUnits="userSpaceOnUse">
<stop stop-color="#161C20"/>
<stop offset="1" stop-color="#0A0D0F"/>
</linearGradient>
<radialGradient id="paint1_radial_9684_112775" cx="0" cy="0" r="1" gradientUnits="userSpaceOnUse" gradientTransform="translate(265.937 232.259) rotate(90) scale(244.481 320.459)">
<stop stop-color="#D9D9D9" stop-opacity="0.3"/>
<stop offset="1" stop-color="#737373"/>
</radialGradient>
<linearGradient id="paint2_linear_9684_112775" x1="266.501" y1="206.572" x2="266.501" y2="262.278" gradientUnits="userSpaceOnUse">
<stop stop-color="#3B3D3F" stop-opacity="0.5"/>
<stop offset="1" stop-color="#3B3D3F" stop-opacity="0.89"/>
</linearGradient>
<linearGradient id="paint3_linear_9684_112775" x1="266.486" y1="156.198" x2="266.525" y2="256.539" gradientUnits="userSpaceOnUse">
<stop stop-color="#1E1E1F" stop-opacity="0"/>
<stop offset="1" stop-color="#1E1E1F" stop-opacity="0.8"/>
</linearGradient>
<linearGradient id="paint4_linear_9684_112775" x1="266.501" y1="162.037" x2="266.501" y2="251.173" gradientUnits="userSpaceOnUse">
<stop stop-color="#3B3D3F" stop-opacity="0.2"/>
<stop offset="1" stop-color="#3B3D3F" stop-opacity="0.4"/>
</linearGradient>
<linearGradient id="paint5_linear_9684_112775" x1="134.344" y1="45" x2="134.344" y2="94" gradientUnits="userSpaceOnUse">
<stop stop-color="#161C20"/>
<stop offset="1" stop-color="#0A0D0F"/>
</linearGradient>
<linearGradient id="paint6_linear_9684_112775" x1="134.344" y1="69.4836" x2="134.344" y2="94" gradientUnits="userSpaceOnUse">
<stop stop-color="#3B3D3F" stop-opacity="0.5"/>
<stop offset="1" stop-color="#3B3D3F" stop-opacity="0.89"/>
</linearGradient>
<linearGradient id="paint7_linear_9684_112775" x1="132.766" y1="65.7919" x2="127.133" y2="82.4348" gradientUnits="userSpaceOnUse">
<stop stop-color="#C5C5C5"/>
<stop offset="1" stop-color="#EBECEC"/>
</linearGradient>
<linearGradient id="paint8_linear_9684_112775" x1="134.527" y1="73.5478" x2="133.224" y2="73.9884" gradientUnits="userSpaceOnUse">
<stop stop-opacity="0.3"/>
<stop offset="0.071" stop-opacity="0.2"/>
<stop offset="0.321" stop-opacity="0.1"/>
<stop offset="0.623" stop-opacity="0.05"/>
<stop offset="1" stop-opacity="0"/>
</linearGradient>
<linearGradient id="paint9_linear_9684_112775" x1="403" y1="45" x2="403" y2="94" gradientUnits="userSpaceOnUse">
<stop stop-color="#161C20"/>
<stop offset="1" stop-color="#0A0D0F"/>
</linearGradient>
<linearGradient id="paint10_linear_9684_112775" x1="403" y1="69.4836" x2="403" y2="94" gradientUnits="userSpaceOnUse">
<stop stop-color="#3B3D3F" stop-opacity="0.5"/>
<stop offset="1" stop-color="#3B3D3F" stop-opacity="0.89"/>
</linearGradient>
<linearGradient id="paint11_linear_9684_112775" x1="134" y1="324" x2="134" y2="373" gradientUnits="userSpaceOnUse">
<stop stop-color="#161C20"/>
<stop offset="1" stop-color="#0A0D0F"/>
</linearGradient>
<linearGradient id="paint12_linear_9684_112775" x1="134" y1="348.484" x2="134" y2="373" gradientUnits="userSpaceOnUse">
<stop stop-color="#3B3D3F" stop-opacity="0.5"/>
<stop offset="1" stop-color="#3B3D3F" stop-opacity="0.89"/>
</linearGradient>
<linearGradient id="paint13_linear_9684_112775" x1="404.41" y1="324" x2="404.41" y2="372" gradientUnits="userSpaceOnUse">
<stop stop-color="#161C20"/>
<stop offset="1" stop-color="#0A0D0F"/>
</linearGradient>
<linearGradient id="paint14_linear_9684_112775" x1="404.41" y1="347.984" x2="404.41" y2="372" gradientUnits="userSpaceOnUse">
<stop stop-color="#3B3D3F" stop-opacity="0.5"/>
<stop offset="1" stop-color="#3B3D3F" stop-opacity="0.89"/>
</linearGradient>
<linearGradient id="paint15_linear_9684_112775" x1="267" y1="46.0156" x2="267" y2="94.0156" gradientUnits="userSpaceOnUse">
<stop stop-color="#161C20"/>
<stop offset="1" stop-color="#0A0D0F"/>
</linearGradient>
<linearGradient id="paint16_linear_9684_112775" x1="267" y1="69.9995" x2="267" y2="94.0156" gradientUnits="userSpaceOnUse">
<stop stop-color="#3B3D3F" stop-opacity="0.5"/>
<stop offset="1" stop-color="#3B3D3F" stop-opacity="0.89"/>
</linearGradient>
<linearGradient id="paint17_linear_9684_112775" x1="268" y1="0" x2="268" y2="410" gradientUnits="userSpaceOnUse">
<stop stop-color="#3B3D3F" stop-opacity="0.4"/>
<stop offset="1" stop-color="#3B3D3F"/>
</linearGradient>
<clipPath id="clip0_9684_112775">
<rect width="536" height="410" rx="16" fill="white"/>
</clipPath>
<clipPath id="clip1_9684_112775">
<rect width="20" height="20" fill="white" transform="translate(123.844 63.1484)"/>
</clipPath>
<clipPath id="clip2_9684_112775">
<rect width="26" height="20" fill="white" transform="translate(390 63)"/>
</clipPath>
<clipPath id="clip3_9684_112775">
<rect width="32.8264" height="20.1435" fill="white" transform="translate(117.332 344)"/>
</clipPath>
<clipPath id="clip4_9684_112775">
<rect width="31.9375" height="22.8125" fill="white" transform="translate(184.703 289.594)"/>
</clipPath>
<clipPath id="clip5_9684_112775">
<rect width="31.9375" height="22.8125" fill="white" transform="translate(319.359 289.594)"/>
</clipPath>
</defs>
</svg>
