<svg width="674" height="456" viewBox="0 0 674 456" fill="none" xmlns="http://www.w3.org/2000/svg">
<g opacity="0.3">
<path fill-rule="evenodd" clip-rule="evenodd" d="M246.033 42.9124C256.882 49.3523 269.503 51.3509 281.68 49.1302C305.813 46.0213 323.304 72.447 310.905 93.5439C298.949 114.862 267.288 112.641 257.989 90.2124C236.07 33.3635 155.035 33.3635 132.895 90.2124C123.817 112.641 91.9346 114.862 79.9786 93.5439C67.8013 72.447 85.2923 46.0213 109.204 49.1302C121.382 51.3509 134.002 49.1303 144.851 42.9124C155.921 36.6945 163.891 26.9236 168.099 15.154C177.84 -9.0513 213.043 -9.0513 222.786 15.154C226.992 26.7015 235.184 36.6945 246.033 42.9124ZM195.553 73.5578C219.686 73.5578 233.856 101.76 219.022 121.302C211.051 130.629 206.623 142.62 206.623 155.278C206.623 167.714 211.051 179.705 219.022 189.254C234.078 208.796 219.686 237.221 195.553 236.999C171.42 236.999 157.249 208.796 172.084 189.254C180.055 179.928 184.482 167.936 184.482 155.278C184.482 142.843 180.055 130.851 172.084 121.302C157.028 101.76 171.42 73.3359 195.553 73.5578Z" fill="url(#paint0_linear_8985_202067)"/>
<path fill-rule="evenodd" clip-rule="evenodd" d="M327.913 200.349C315.656 193.104 301.399 190.855 287.642 193.354C260.379 196.851 240.619 167.122 254.626 143.388C268.133 119.405 303.9 121.904 314.406 147.136C339.168 211.091 430.714 211.091 455.726 147.136C465.981 121.904 501.999 119.405 515.505 143.388C529.262 167.122 509.502 196.851 482.489 193.354C468.732 190.855 454.475 193.353 442.219 200.349C429.713 207.344 420.709 218.336 415.956 231.577C404.95 258.808 365.181 258.808 354.175 231.577C349.423 218.586 340.168 207.344 327.913 200.349ZM384.94 165.873C357.677 165.873 341.669 134.145 358.427 112.16C367.432 101.667 372.434 88.1773 372.434 73.937C372.434 59.9471 367.432 46.4564 358.427 35.7138C341.419 13.7294 357.677 -18.2489 384.94 -17.9985C412.204 -17.9985 428.212 13.7293 411.453 35.7138C402.449 46.2061 397.447 59.6967 397.447 73.937C397.447 87.9269 402.449 101.418 411.453 112.16C428.462 134.145 412.204 166.122 384.94 165.873Z" fill="#EBECEC"/>
<path fill-rule="evenodd" clip-rule="evenodd" d="M625.033 42.9124C635.882 49.3523 648.503 51.3509 660.68 49.1302C684.813 46.0213 702.304 72.447 689.905 93.5439C677.949 114.862 646.288 112.641 636.989 90.2124C615.07 33.3635 534.035 33.3635 511.895 90.2124C502.817 112.641 470.935 114.862 458.979 93.5439C446.801 72.447 464.292 46.0213 488.204 49.1302C500.382 51.3509 513.002 49.1303 523.851 42.9124C534.921 36.6945 542.891 26.9236 547.099 15.154C556.84 -9.0513 592.043 -9.0513 601.786 15.154C605.992 26.7015 614.184 36.6945 625.033 42.9124ZM574.553 73.5578C598.686 73.5578 612.856 101.76 598.022 121.302C590.051 130.629 585.623 142.62 585.623 155.278C585.623 167.714 590.051 179.705 598.022 189.254C613.078 208.796 598.686 237.221 574.553 236.999C550.42 236.999 536.249 208.796 551.084 189.254C559.055 179.928 563.482 167.936 563.482 155.278C563.482 142.843 559.055 130.851 551.084 121.302C536.028 101.76 550.42 73.3359 574.553 73.5578Z" fill="#EBECEC"/>
</g>
<circle cx="337" cy="747.874" r="390.885" stroke="url(#paint1_radial_8985_202067)" stroke-opacity="0.6" stroke-width="296" stroke-dasharray="0.5 4"/>
<g filter="url(#filter0_d_8985_202067)">
<circle cx="337" cy="747.874" r="533.885" stroke="url(#paint2_linear_8985_202067)" stroke-width="10" shape-rendering="crispEdges"/>
</g>
<circle cx="336.999" cy="748.156" r="534.642" stroke="#CECFCF" stroke-dasharray="1 2"/>
<rect x="147.457" y="169.865" width="379.009" height="248.217" rx="37.391" fill="#FDFDFD" stroke="#9D9E9F" stroke-dasharray="0.92 4.62"/>
<rect x="156.281" y="178.841" width="361.359" height="230.263" rx="29.1114" fill="#FEFEFE" stroke="#EBECEC" stroke-width="0.924172"/>
<g filter="url(#filter1_i_8985_202067)">
<rect x="165.062" y="188.006" width="343.981" height="212.471" rx="20.3318" fill="#F3F3F5"/>
</g>
<rect x="165.293" y="188.237" width="343.519" height="212.009" rx="20.1007" stroke="url(#paint3_linear_8985_202067)" stroke-width="0.462086"/>
<g clip-path="url(#clip0_8985_202067)">
<rect x="170.593" y="193.645" width="332.256" height="200.707" rx="14.7867" fill="#FEFEFE"/>
<path d="M187 263H484" stroke="#F5F5F5" stroke-width="0.924172"/>
<path d="M187 281.6H484" stroke="#F5F5F5" stroke-width="0.924172"/>
<path d="M187 300.2H484" stroke="#F5F5F5" stroke-width="0.924172"/>
<path d="M187 318.8H484" stroke="#F5F5F5" stroke-width="0.924172"/>
<path d="M187 337.4H484" stroke="#F5F5F5" stroke-width="0.924172"/>
<path d="M187 356H484" stroke="#F5F5F5" stroke-width="0.924172"/>
<g filter="url(#filter2_d_8985_202067)">
<path d="M484.807 333.6L443.967 328.67C443.296 328.589 442.635 328.439 441.995 328.221L416.878 319.688C415.637 319.267 414.324 319.099 413.017 319.195L397.638 320.327C396.063 320.443 394.484 320.176 393.035 319.548L383.43 315.385C381.688 314.63 379.764 314.398 377.893 314.719L364.417 317.028C362.58 317.343 360.692 317.126 358.974 316.403L348.921 312.17C346.987 311.356 344.842 311.186 342.804 311.685L337.355 313.02L331.032 314.826C329.202 315.349 327.24 315.14 325.562 314.242V314.242C324.082 313.452 322.375 313.192 320.727 313.507L317.859 314.056C315.087 314.587 312.221 313.893 309.999 312.153L297.581 302.434C296.724 301.763 295.761 301.24 294.732 300.886L279.491 295.651C277.24 294.878 274.784 294.953 272.584 295.863L266.224 298.491C263.361 299.675 260.077 299.165 257.708 297.169L257.493 296.989C255.843 295.599 253.684 294.969 251.545 295.253V295.253C249.438 295.534 247.309 294.926 245.667 293.576L240.565 289.38C238.388 287.59 235.544 286.827 232.763 287.287L229.633 287.805C228.002 288.074 226.33 287.926 224.772 287.373L218.55 285.167C217.625 284.839 216.656 284.652 215.675 284.613L207.497 284.285C206.534 284.246 205.588 284.017 204.715 283.61L204.293 283.414C202.586 282.62 200.613 282.63 198.915 283.443V283.443C197.111 284.307 195.003 284.262 193.237 283.323L187.164 280.092" stroke="#1C76FD" stroke-width="1.38626" stroke-linecap="round" stroke-linejoin="round"/>
</g>
<path opacity="0.8" d="M192.899 217.031C193.41 217.126 193.83 217.382 194.16 217.798C194.489 218.214 194.654 218.691 194.654 219.228C194.654 219.713 194.532 220.142 194.29 220.515C194.056 220.879 193.713 221.165 193.263 221.373C192.812 221.581 192.279 221.685 191.664 221.685H187.751V212.611H191.495C192.11 212.611 192.639 212.711 193.081 212.91C193.531 213.109 193.869 213.387 194.095 213.742C194.329 214.097 194.446 214.5 194.446 214.951C194.446 215.48 194.303 215.922 194.017 216.277C193.739 216.632 193.367 216.884 192.899 217.031ZM189.571 216.355H191.235C191.668 216.355 192.002 216.26 192.236 216.069C192.47 215.87 192.587 215.588 192.587 215.224C192.587 214.86 192.47 214.578 192.236 214.379C192.002 214.18 191.668 214.08 191.235 214.08H189.571V216.355ZM191.404 220.203C191.846 220.203 192.188 220.099 192.431 219.891C192.682 219.683 192.808 219.388 192.808 219.007C192.808 218.617 192.678 218.314 192.418 218.097C192.158 217.872 191.807 217.759 191.365 217.759H189.571V220.203H191.404ZM202.903 214.483V221.685H201.07V220.775C200.836 221.087 200.528 221.334 200.147 221.516C199.774 221.689 199.367 221.776 198.925 221.776C198.362 221.776 197.863 221.659 197.43 221.425C196.997 221.182 196.654 220.831 196.403 220.372C196.16 219.904 196.039 219.349 196.039 218.708V214.483H197.859V218.448C197.859 219.02 198.002 219.462 198.288 219.774C198.574 220.077 198.964 220.229 199.458 220.229C199.961 220.229 200.355 220.077 200.641 219.774C200.927 219.462 201.07 219.02 201.07 218.448V214.483H202.903ZM204.231 218.058C204.231 217.33 204.374 216.684 204.66 216.121C204.954 215.558 205.353 215.124 205.856 214.821C206.358 214.518 206.917 214.366 207.533 214.366C208.001 214.366 208.447 214.47 208.872 214.678C209.296 214.877 209.634 215.146 209.886 215.484V212.065H211.732V221.685H209.886V220.619C209.66 220.974 209.344 221.26 208.937 221.477C208.529 221.694 208.057 221.802 207.52 221.802C206.913 221.802 206.358 221.646 205.856 221.334C205.353 221.022 204.954 220.584 204.66 220.021C204.374 219.449 204.231 218.795 204.231 218.058ZM209.899 218.084C209.899 217.642 209.812 217.265 209.639 216.953C209.465 216.632 209.231 216.39 208.937 216.225C208.642 216.052 208.326 215.965 207.988 215.965C207.65 215.965 207.338 216.047 207.052 216.212C206.766 216.377 206.532 216.619 206.35 216.94C206.176 217.252 206.09 217.625 206.09 218.058C206.09 218.491 206.176 218.873 206.35 219.202C206.532 219.523 206.766 219.77 207.052 219.943C207.346 220.116 207.658 220.203 207.988 220.203C208.326 220.203 208.642 220.121 208.937 219.956C209.231 219.783 209.465 219.54 209.639 219.228C209.812 218.907 209.899 218.526 209.899 218.084ZM216.33 214.366C216.868 214.366 217.34 214.474 217.747 214.691C218.155 214.899 218.475 215.172 218.709 215.51V214.483H220.542V221.737C220.542 222.404 220.408 222.998 220.139 223.518C219.871 224.047 219.468 224.463 218.93 224.766C218.393 225.078 217.743 225.234 216.98 225.234C215.958 225.234 215.117 224.996 214.458 224.519C213.808 224.042 213.44 223.392 213.353 222.569H215.16C215.256 222.898 215.459 223.158 215.771 223.349C216.092 223.548 216.478 223.648 216.928 223.648C217.457 223.648 217.886 223.488 218.215 223.167C218.545 222.855 218.709 222.378 218.709 221.737V220.619C218.475 220.957 218.15 221.239 217.734 221.464C217.327 221.689 216.859 221.802 216.33 221.802C215.724 221.802 215.169 221.646 214.666 221.334C214.164 221.022 213.765 220.584 213.47 220.021C213.184 219.449 213.041 218.795 213.041 218.058C213.041 217.33 213.184 216.684 213.47 216.121C213.765 215.558 214.159 215.124 214.653 214.821C215.156 214.518 215.715 214.366 216.33 214.366ZM218.709 218.084C218.709 217.642 218.623 217.265 218.449 216.953C218.276 216.632 218.042 216.39 217.747 216.225C217.453 216.052 217.136 215.965 216.798 215.965C216.46 215.965 216.148 216.047 215.862 216.212C215.576 216.377 215.342 216.619 215.16 216.94C214.987 217.252 214.9 217.625 214.9 218.058C214.9 218.491 214.987 218.873 215.16 219.202C215.342 219.523 215.576 219.77 215.862 219.943C216.157 220.116 216.469 220.203 216.798 220.203C217.136 220.203 217.453 220.121 217.747 219.956C218.042 219.783 218.276 219.54 218.449 219.228C218.623 218.907 218.709 218.526 218.709 218.084ZM229.015 217.928C229.015 218.188 228.998 218.422 228.963 218.63H223.698C223.741 219.15 223.923 219.557 224.244 219.852C224.565 220.147 224.959 220.294 225.427 220.294C226.103 220.294 226.584 220.004 226.87 219.423H228.833C228.625 220.116 228.226 220.688 227.637 221.139C227.048 221.581 226.324 221.802 225.466 221.802C224.773 221.802 224.149 221.65 223.594 221.347C223.048 221.035 222.619 220.597 222.307 220.034C222.004 219.471 221.852 218.821 221.852 218.084C221.852 217.339 222.004 216.684 222.307 216.121C222.61 215.558 223.035 215.124 223.581 214.821C224.127 214.518 224.755 214.366 225.466 214.366C226.151 214.366 226.762 214.513 227.299 214.808C227.845 215.103 228.265 215.523 228.56 216.069C228.863 216.606 229.015 217.226 229.015 217.928ZM227.13 217.408C227.121 216.94 226.952 216.567 226.623 216.29C226.294 216.004 225.891 215.861 225.414 215.861C224.963 215.861 224.582 216 224.27 216.277C223.967 216.546 223.78 216.923 223.711 217.408H227.13ZM232.462 215.978V219.462C232.462 219.705 232.519 219.882 232.631 219.995C232.753 220.099 232.952 220.151 233.229 220.151H234.074V221.685H232.93C231.396 221.685 230.629 220.94 230.629 219.449V215.978H229.771V214.483H230.629V212.702H232.462V214.483H234.074V215.978H232.462ZM242.693 221.776C241.844 221.776 241.064 221.577 240.353 221.178C239.642 220.779 239.079 220.229 238.663 219.527C238.247 218.816 238.039 218.015 238.039 217.122C238.039 216.238 238.247 215.445 238.663 214.743C239.079 214.032 239.642 213.478 240.353 213.079C241.064 212.68 241.844 212.481 242.693 212.481C243.551 212.481 244.331 212.68 245.033 213.079C245.744 213.478 246.303 214.032 246.71 214.743C247.126 215.445 247.334 216.238 247.334 217.122C247.334 218.015 247.126 218.816 246.71 219.527C246.303 220.229 245.744 220.779 245.033 221.178C244.322 221.577 243.542 221.776 242.693 221.776ZM242.693 220.151C243.239 220.151 243.72 220.03 244.136 219.787C244.552 219.536 244.877 219.18 245.111 218.721C245.345 218.262 245.462 217.729 245.462 217.122C245.462 216.515 245.345 215.987 245.111 215.536C244.877 215.077 244.552 214.726 244.136 214.483C243.72 214.24 243.239 214.119 242.693 214.119C242.147 214.119 241.662 214.24 241.237 214.483C240.821 214.726 240.496 215.077 240.262 215.536C240.028 215.987 239.911 216.515 239.911 217.122C239.911 217.729 240.028 218.262 240.262 218.721C240.496 219.18 240.821 219.536 241.237 219.787C241.662 220.03 242.147 220.151 242.693 220.151ZM250.508 215.523C250.742 215.194 251.063 214.921 251.47 214.704C251.886 214.479 252.358 214.366 252.887 214.366C253.502 214.366 254.057 214.518 254.551 214.821C255.054 215.124 255.448 215.558 255.734 216.121C256.029 216.676 256.176 217.321 256.176 218.058C256.176 218.795 256.029 219.449 255.734 220.021C255.448 220.584 255.054 221.022 254.551 221.334C254.057 221.646 253.502 221.802 252.887 221.802C252.358 221.802 251.89 221.694 251.483 221.477C251.084 221.26 250.759 220.987 250.508 220.658V225.117H248.688V214.483H250.508V215.523ZM254.317 218.058C254.317 217.625 254.226 217.252 254.044 216.94C253.871 216.619 253.637 216.377 253.342 216.212C253.056 216.047 252.744 215.965 252.406 215.965C252.077 215.965 251.765 216.052 251.47 216.225C251.184 216.39 250.95 216.632 250.768 216.953C250.595 217.274 250.508 217.651 250.508 218.084C250.508 218.517 250.595 218.894 250.768 219.215C250.95 219.536 251.184 219.783 251.47 219.956C251.765 220.121 252.077 220.203 252.406 220.203C252.744 220.203 253.056 220.116 253.342 219.943C253.637 219.77 253.871 219.523 254.044 219.202C254.226 218.881 254.317 218.5 254.317 218.058ZM259.618 215.978V219.462C259.618 219.705 259.674 219.882 259.787 219.995C259.908 220.099 260.107 220.151 260.385 220.151H261.23V221.685H260.086C258.552 221.685 257.785 220.94 257.785 219.449V215.978H256.927V214.483H257.785V212.702H259.618V214.483H261.23V215.978H259.618ZM263.462 213.625C263.141 213.625 262.872 213.525 262.656 213.326C262.448 213.118 262.344 212.862 262.344 212.559C262.344 212.256 262.448 212.004 262.656 211.805C262.872 211.597 263.141 211.493 263.462 211.493C263.782 211.493 264.047 211.597 264.255 211.805C264.471 212.004 264.58 212.256 264.58 212.559C264.58 212.862 264.471 213.118 264.255 213.326C264.047 213.525 263.782 213.625 263.462 213.625ZM264.359 214.483V221.685H262.539V214.483H264.359ZM275.101 214.379C275.985 214.379 276.695 214.652 277.233 215.198C277.779 215.735 278.052 216.489 278.052 217.46V221.685H276.232V217.707C276.232 217.144 276.089 216.715 275.803 216.42C275.517 216.117 275.127 215.965 274.633 215.965C274.139 215.965 273.744 216.117 273.45 216.42C273.164 216.715 273.021 217.144 273.021 217.707V221.685H271.201V217.707C271.201 217.144 271.058 216.715 270.772 216.42C270.486 216.117 270.096 215.965 269.602 215.965C269.099 215.965 268.7 216.117 268.406 216.42C268.12 216.715 267.977 217.144 267.977 217.707V221.685H266.157V214.483H267.977V215.354C268.211 215.051 268.51 214.812 268.874 214.639C269.246 214.466 269.654 214.379 270.096 214.379C270.659 214.379 271.162 214.5 271.604 214.743C272.046 214.977 272.388 215.315 272.631 215.757C272.865 215.341 273.203 215.007 273.645 214.756C274.095 214.505 274.581 214.379 275.101 214.379ZM280.702 213.625C280.381 213.625 280.113 213.525 279.896 213.326C279.688 213.118 279.584 212.862 279.584 212.559C279.584 212.256 279.688 212.004 279.896 211.805C280.113 211.597 280.381 211.493 280.702 211.493C281.023 211.493 281.287 211.597 281.495 211.805C281.712 212.004 281.82 212.256 281.82 212.559C281.82 212.862 281.712 213.118 281.495 213.326C281.287 213.525 281.023 213.625 280.702 213.625ZM281.599 214.483V221.685H279.779V214.483H281.599ZM285.061 220.19H288.272V221.685H282.994V220.216L286.14 215.978H283.007V214.483H288.233V215.952L285.061 220.19ZM289.213 218.058C289.213 217.33 289.356 216.684 289.642 216.121C289.937 215.558 290.331 215.124 290.825 214.821C291.328 214.518 291.887 214.366 292.502 214.366C293.04 214.366 293.508 214.474 293.906 214.691C294.314 214.908 294.639 215.181 294.881 215.51V214.483H296.714V221.685H294.881V220.632C294.647 220.97 294.322 221.252 293.906 221.477C293.499 221.694 293.027 221.802 292.489 221.802C291.883 221.802 291.328 221.646 290.825 221.334C290.331 221.022 289.937 220.584 289.642 220.021C289.356 219.449 289.213 218.795 289.213 218.058ZM294.881 218.084C294.881 217.642 294.795 217.265 294.621 216.953C294.448 216.632 294.214 216.39 293.919 216.225C293.625 216.052 293.308 215.965 292.97 215.965C292.632 215.965 292.32 216.047 292.034 216.212C291.748 216.377 291.514 216.619 291.332 216.94C291.159 217.252 291.072 217.625 291.072 218.058C291.072 218.491 291.159 218.873 291.332 219.202C291.514 219.523 291.748 219.77 292.034 219.943C292.329 220.116 292.641 220.203 292.97 220.203C293.308 220.203 293.625 220.121 293.919 219.956C294.214 219.783 294.448 219.54 294.621 219.228C294.795 218.907 294.881 218.526 294.881 218.084ZM300.611 215.978V219.462C300.611 219.705 300.667 219.882 300.78 219.995C300.901 220.099 301.1 220.151 301.378 220.151H302.223V221.685H301.079C299.545 221.685 298.778 220.94 298.778 219.449V215.978H297.92V214.483H298.778V212.702H300.611V214.483H302.223V215.978H300.611ZM304.455 213.625C304.134 213.625 303.865 213.525 303.649 213.326C303.441 213.118 303.337 212.862 303.337 212.559C303.337 212.256 303.441 212.004 303.649 211.805C303.865 211.597 304.134 211.493 304.455 211.493C304.775 211.493 305.04 211.597 305.248 211.805C305.464 212.004 305.573 212.256 305.573 212.559C305.573 212.862 305.464 213.118 305.248 213.326C305.04 213.525 304.775 213.625 304.455 213.625ZM305.352 214.483V221.685H303.532V214.483H305.352ZM310.348 221.802C309.655 221.802 309.031 221.65 308.476 221.347C307.921 221.035 307.484 220.597 307.163 220.034C306.851 219.471 306.695 218.821 306.695 218.084C306.695 217.347 306.855 216.697 307.176 216.134C307.505 215.571 307.952 215.137 308.515 214.834C309.078 214.522 309.707 214.366 310.4 214.366C311.093 214.366 311.722 214.522 312.285 214.834C312.848 215.137 313.29 215.571 313.611 216.134C313.94 216.697 314.105 217.347 314.105 218.084C314.105 218.821 313.936 219.471 313.598 220.034C313.269 220.597 312.818 221.035 312.246 221.347C311.683 221.65 311.05 221.802 310.348 221.802ZM310.348 220.216C310.677 220.216 310.985 220.138 311.271 219.982C311.566 219.817 311.8 219.575 311.973 219.254C312.146 218.933 312.233 218.543 312.233 218.084C312.233 217.399 312.051 216.875 311.687 216.511C311.332 216.138 310.894 215.952 310.374 215.952C309.854 215.952 309.416 216.138 309.061 216.511C308.714 216.875 308.541 217.399 308.541 218.084C308.541 218.769 308.71 219.297 309.048 219.67C309.395 220.034 309.828 220.216 310.348 220.216ZM319.431 214.379C320.289 214.379 320.982 214.652 321.511 215.198C322.04 215.735 322.304 216.489 322.304 217.46V221.685H320.484V217.707C320.484 217.135 320.341 216.697 320.055 216.394C319.769 216.082 319.379 215.926 318.885 215.926C318.382 215.926 317.984 216.082 317.689 216.394C317.403 216.697 317.26 217.135 317.26 217.707V221.685H315.44V214.483H317.26V215.38C317.503 215.068 317.81 214.825 318.183 214.652C318.564 214.47 318.98 214.379 319.431 214.379Z" fill="#0A0D0F"/>
<path opacity="0.8" d="M192.722 239.825H189.074L188.402 241.685H187.25L190.274 233.369H191.534L194.546 241.685H193.394L192.722 239.825ZM192.41 238.937L190.898 234.713L189.386 238.937H192.41ZM195.455 238.385C195.455 237.705 195.591 237.113 195.863 236.609C196.135 236.097 196.511 235.701 196.991 235.421C197.479 235.141 198.035 235.001 198.659 235.001C199.467 235.001 200.131 235.197 200.651 235.589C201.179 235.981 201.527 236.525 201.695 237.221H200.519C200.407 236.821 200.187 236.505 199.859 236.273C199.539 236.041 199.139 235.925 198.659 235.925C198.035 235.925 197.531 236.141 197.147 236.573C196.763 236.997 196.571 237.601 196.571 238.385C196.571 239.177 196.763 239.789 197.147 240.221C197.531 240.653 198.035 240.869 198.659 240.869C199.139 240.869 199.539 240.757 199.859 240.533C200.179 240.309 200.399 239.989 200.519 239.573H201.695C201.519 240.245 201.167 240.785 200.639 241.193C200.111 241.593 199.451 241.793 198.659 241.793C198.035 241.793 197.479 241.653 196.991 241.373C196.511 241.093 196.135 240.697 195.863 240.185C195.591 239.673 195.455 239.073 195.455 238.385ZM204.485 236.009V239.885C204.485 240.205 204.553 240.433 204.689 240.569C204.825 240.697 205.061 240.761 205.397 240.761H206.201V241.685H205.217C204.609 241.685 204.153 241.545 203.849 241.265C203.545 240.985 203.393 240.525 203.393 239.885V236.009H202.541V235.109H203.393V233.453H204.485V235.109H206.201V236.009H204.485ZM213.356 235.109V241.685H212.264V240.713C212.056 241.049 211.764 241.313 211.388 241.505C211.02 241.689 210.612 241.781 210.164 241.781C209.652 241.781 209.192 241.677 208.784 241.469C208.376 241.253 208.052 240.933 207.812 240.509C207.58 240.085 207.464 239.569 207.464 238.961V235.109H208.544V238.817C208.544 239.465 208.708 239.965 209.036 240.317C209.364 240.661 209.812 240.833 210.38 240.833C210.964 240.833 211.424 240.653 211.76 240.293C212.096 239.933 212.264 239.409 212.264 238.721V235.109H213.356ZM214.791 238.373C214.791 237.701 214.927 237.113 215.199 236.609C215.471 236.097 215.843 235.701 216.315 235.421C216.795 235.141 217.327 235.001 217.911 235.001C218.487 235.001 218.987 235.125 219.411 235.373C219.835 235.621 220.151 235.933 220.359 236.309V235.109H221.463V241.685H220.359V240.461C220.143 240.845 219.819 241.165 219.387 241.421C218.963 241.669 218.467 241.793 217.899 241.793C217.315 241.793 216.787 241.649 216.315 241.361C215.843 241.073 215.471 240.669 215.199 240.149C214.927 239.629 214.791 239.037 214.791 238.373ZM220.359 238.385C220.359 237.889 220.259 237.457 220.059 237.089C219.859 236.721 219.587 236.441 219.243 236.249C218.907 236.049 218.535 235.949 218.127 235.949C217.719 235.949 217.347 236.045 217.011 236.237C216.675 236.429 216.407 236.709 216.207 237.077C216.007 237.445 215.907 237.877 215.907 238.373C215.907 238.877 216.007 239.317 216.207 239.693C216.407 240.061 216.675 240.345 217.011 240.545C217.347 240.737 217.719 240.833 218.127 240.833C218.535 240.833 218.907 240.737 219.243 240.545C219.587 240.345 219.859 240.061 220.059 239.693C220.259 239.317 220.359 238.881 220.359 238.385ZM224.401 232.805V241.685H223.309V232.805H224.401ZM231.909 240.677L233.949 235.109H235.113L232.533 241.685H231.261L228.681 235.109H229.857L231.909 240.677ZM238.516 241.793C238.012 241.793 237.56 241.709 237.16 241.541C236.76 241.365 236.444 241.125 236.212 240.821C235.98 240.509 235.852 240.153 235.828 239.753H236.956C236.988 240.081 237.14 240.349 237.412 240.557C237.692 240.765 238.056 240.869 238.504 240.869C238.92 240.869 239.248 240.777 239.488 240.593C239.728 240.409 239.848 240.177 239.848 239.897C239.848 239.609 239.72 239.397 239.464 239.261C239.208 239.117 238.812 238.977 238.276 238.841C237.788 238.713 237.388 238.585 237.076 238.457C236.772 238.321 236.508 238.125 236.284 237.869C236.068 237.605 235.96 237.261 235.96 236.837C235.96 236.501 236.06 236.193 236.26 235.913C236.46 235.633 236.744 235.413 237.112 235.253C237.48 235.085 237.9 235.001 238.372 235.001C239.1 235.001 239.688 235.185 240.136 235.553C240.584 235.921 240.824 236.425 240.856 237.065H239.764C239.74 236.721 239.6 236.445 239.344 236.237C239.096 236.029 238.76 235.925 238.336 235.925C237.944 235.925 237.632 236.009 237.4 236.177C237.168 236.345 237.052 236.565 237.052 236.837C237.052 237.053 237.12 237.233 237.256 237.377C237.4 237.513 237.576 237.625 237.784 237.713C238 237.793 238.296 237.885 238.672 237.989C239.144 238.117 239.528 238.245 239.824 238.373C240.12 238.493 240.372 238.677 240.58 238.925C240.796 239.173 240.908 239.497 240.916 239.897C240.916 240.257 240.816 240.581 240.616 240.869C240.416 241.157 240.132 241.385 239.764 241.553C239.404 241.713 238.988 241.793 238.516 241.793ZM242.805 241.757C242.597 241.757 242.421 241.685 242.277 241.541C242.133 241.397 242.061 241.221 242.061 241.013C242.061 240.805 242.133 240.629 242.277 240.485C242.421 240.341 242.597 240.269 242.805 240.269C243.005 240.269 243.173 240.341 243.309 240.485C243.453 240.629 243.525 240.805 243.525 241.013C243.525 241.221 243.453 241.397 243.309 241.541C243.173 241.685 243.005 241.757 242.805 241.757ZM253.768 235.769C253.768 236.465 253.528 237.045 253.048 237.509C252.576 237.965 251.852 238.193 250.876 238.193H249.268V241.685H248.176V233.321H250.876C251.82 233.321 252.536 233.549 253.024 234.005C253.52 234.461 253.768 235.049 253.768 235.769ZM250.876 237.293C251.484 237.293 251.932 237.161 252.22 236.897C252.508 236.633 252.652 236.257 252.652 235.769C252.652 234.737 252.06 234.221 250.876 234.221H249.268V237.293H250.876ZM256.217 232.805V241.685H255.125V232.805H256.217ZM257.67 238.373C257.67 237.701 257.806 237.113 258.078 236.609C258.35 236.097 258.722 235.701 259.194 235.421C259.674 235.141 260.206 235.001 260.79 235.001C261.366 235.001 261.866 235.125 262.29 235.373C262.714 235.621 263.03 235.933 263.238 236.309V235.109H264.342V241.685H263.238V240.461C263.022 240.845 262.698 241.165 262.266 241.421C261.842 241.669 261.346 241.793 260.778 241.793C260.194 241.793 259.666 241.649 259.194 241.361C258.722 241.073 258.35 240.669 258.078 240.149C257.806 239.629 257.67 239.037 257.67 238.373ZM263.238 238.385C263.238 237.889 263.138 237.457 262.938 237.089C262.738 236.721 262.466 236.441 262.122 236.249C261.786 236.049 261.414 235.949 261.006 235.949C260.598 235.949 260.226 236.045 259.89 236.237C259.554 236.429 259.286 236.709 259.086 237.077C258.886 237.445 258.786 237.877 258.786 238.373C258.786 238.877 258.886 239.317 259.086 239.693C259.286 240.061 259.554 240.345 259.89 240.545C260.226 240.737 260.598 240.833 261.006 240.833C261.414 240.833 261.786 240.737 262.122 240.545C262.466 240.345 262.738 240.061 262.938 239.693C263.138 239.317 263.238 238.881 263.238 238.385ZM269.392 234.989C270.192 234.989 270.84 235.233 271.336 235.721C271.832 236.201 272.08 236.897 272.08 237.809V241.685H271V237.965C271 237.309 270.836 236.809 270.508 236.465C270.18 236.113 269.732 235.937 269.164 235.937C268.588 235.937 268.128 236.117 267.784 236.477C267.448 236.837 267.28 237.361 267.28 238.049V241.685H266.188V235.109H267.28V236.045C267.496 235.709 267.788 235.449 268.156 235.265C268.532 235.081 268.944 234.989 269.392 234.989ZM277.067 234.989C277.867 234.989 278.515 235.233 279.011 235.721C279.507 236.201 279.755 236.897 279.755 237.809V241.685H278.675V237.965C278.675 237.309 278.511 236.809 278.183 236.465C277.855 236.113 277.407 235.937 276.839 235.937C276.263 235.937 275.803 236.117 275.459 236.477C275.123 236.837 274.955 237.361 274.955 238.049V241.685H273.863V235.109H274.955V236.045C275.171 235.709 275.463 235.449 275.831 235.265C276.207 235.081 276.619 234.989 277.067 234.989ZM287.539 238.145C287.539 238.353 287.527 238.573 287.503 238.805H282.247C282.287 239.453 282.507 239.961 282.907 240.329C283.315 240.689 283.807 240.869 284.383 240.869C284.855 240.869 285.247 240.761 285.559 240.545C285.879 240.321 286.103 240.025 286.231 239.657H287.407C287.231 240.289 286.879 240.805 286.351 241.205C285.823 241.597 285.167 241.793 284.383 241.793C283.759 241.793 283.199 241.653 282.703 241.373C282.215 241.093 281.831 240.697 281.551 240.185C281.271 239.665 281.131 239.065 281.131 238.385C281.131 237.705 281.267 237.109 281.539 236.597C281.811 236.085 282.191 235.693 282.679 235.421C283.175 235.141 283.743 235.001 284.383 235.001C285.007 235.001 285.559 235.137 286.039 235.409C286.519 235.681 286.887 236.057 287.143 236.537C287.407 237.009 287.539 237.545 287.539 238.145ZM286.411 237.917C286.411 237.501 286.319 237.145 286.135 236.849C285.951 236.545 285.699 236.317 285.379 236.165C285.067 236.005 284.719 235.925 284.335 235.925C283.783 235.925 283.311 236.101 282.919 236.453C282.535 236.805 282.315 237.293 282.259 237.917H286.411ZM288.573 238.373C288.573 237.701 288.709 237.113 288.981 236.609C289.253 236.097 289.625 235.701 290.097 235.421C290.577 235.141 291.113 235.001 291.705 235.001C292.217 235.001 292.693 235.121 293.133 235.361C293.573 235.593 293.909 235.901 294.141 236.285V232.805H295.245V241.685H294.141V240.449C293.925 240.841 293.605 241.165 293.181 241.421C292.757 241.669 292.261 241.793 291.693 241.793C291.109 241.793 290.577 241.649 290.097 241.361C289.625 241.073 289.253 240.669 288.981 240.149C288.709 239.629 288.573 239.037 288.573 238.373ZM294.141 238.385C294.141 237.889 294.041 237.457 293.841 237.089C293.641 236.721 293.369 236.441 293.025 236.249C292.689 236.049 292.317 235.949 291.909 235.949C291.501 235.949 291.129 236.045 290.793 236.237C290.457 236.429 290.189 236.709 289.989 237.077C289.789 237.445 289.689 237.877 289.689 238.373C289.689 238.877 289.789 239.317 289.989 239.693C290.189 240.061 290.457 240.345 290.793 240.545C291.129 240.737 291.501 240.833 291.909 240.833C292.317 240.833 292.689 240.737 293.025 240.545C293.369 240.345 293.641 240.061 293.841 239.693C294.041 239.317 294.141 238.881 294.141 238.385Z" fill="#6C6E6F"/>
<rect x="391.933" y="212.13" width="92.1875" height="29.11" rx="12.4763" fill="#FCFCFC"/>
<rect x="391.933" y="212.13" width="92.1875" height="29.11" rx="12.4763" stroke="url(#paint4_linear_8985_202067)" stroke-width="0.924172"/>
<path opacity="0.8" d="M409.871 223.235V224.165H408.021V230.185H406.881V224.165H405.021V223.235H409.871ZM413.875 224.585C414.295 224.585 414.669 224.675 414.995 224.855C415.329 225.035 415.589 225.302 415.775 225.655C415.969 226.008 416.065 226.435 416.065 226.935V230.185H414.935V227.105C414.935 226.612 414.812 226.235 414.565 225.975C414.319 225.708 413.982 225.575 413.555 225.575C413.129 225.575 412.789 225.708 412.535 225.975C412.289 226.235 412.165 226.612 412.165 227.105V230.185H411.025V222.785H412.165V225.315C412.359 225.082 412.602 224.902 412.895 224.775C413.195 224.648 413.522 224.585 413.875 224.585ZM418.099 223.945C417.893 223.945 417.719 223.875 417.579 223.735C417.439 223.595 417.369 223.422 417.369 223.215C417.369 223.008 417.439 222.835 417.579 222.695C417.719 222.555 417.893 222.485 418.099 222.485C418.299 222.485 418.469 222.555 418.609 222.695C418.749 222.835 418.819 223.008 418.819 223.215C418.819 223.422 418.749 223.595 418.609 223.735C418.469 223.875 418.299 223.945 418.099 223.945ZM418.659 224.675V230.185H417.519V224.675H418.659ZM422.156 230.275C421.723 230.275 421.333 230.198 420.986 230.045C420.646 229.885 420.376 229.672 420.176 229.405C419.976 229.132 419.869 228.828 419.856 228.495H421.036C421.056 228.728 421.166 228.925 421.366 229.085C421.573 229.238 421.829 229.315 422.136 229.315C422.456 229.315 422.703 229.255 422.876 229.135C423.056 229.008 423.146 228.848 423.146 228.655C423.146 228.448 423.046 228.295 422.846 228.195C422.653 228.095 422.343 227.985 421.916 227.865C421.503 227.752 421.166 227.642 420.906 227.535C420.646 227.428 420.419 227.265 420.226 227.045C420.039 226.825 419.946 226.535 419.946 226.175C419.946 225.882 420.033 225.615 420.206 225.375C420.379 225.128 420.626 224.935 420.946 224.795C421.273 224.655 421.646 224.585 422.066 224.585C422.693 224.585 423.196 224.745 423.576 225.065C423.963 225.378 424.169 225.808 424.196 226.355H423.056C423.036 226.108 422.936 225.912 422.756 225.765C422.576 225.618 422.333 225.545 422.026 225.545C421.726 225.545 421.496 225.602 421.336 225.715C421.176 225.828 421.096 225.978 421.096 226.165C421.096 226.312 421.149 226.435 421.256 226.535C421.363 226.635 421.493 226.715 421.646 226.775C421.799 226.828 422.026 226.898 422.326 226.985C422.726 227.092 423.053 227.202 423.306 227.315C423.566 227.422 423.789 227.582 423.976 227.795C424.163 228.008 424.259 228.292 424.266 228.645C424.266 228.958 424.179 229.238 424.006 229.485C423.833 229.732 423.586 229.925 423.266 230.065C422.953 230.205 422.583 230.275 422.156 230.275ZM435.415 223.235V230.185H434.275V225.425L432.155 230.185H431.365L429.235 225.425V230.185H428.095V223.235H429.325L431.765 228.685L434.195 223.235H435.415ZM439.304 230.275C438.784 230.275 438.314 230.158 437.894 229.925C437.474 229.685 437.144 229.352 436.904 228.925C436.664 228.492 436.544 227.992 436.544 227.425C436.544 226.865 436.667 226.368 436.914 225.935C437.161 225.502 437.497 225.168 437.924 224.935C438.351 224.702 438.827 224.585 439.354 224.585C439.881 224.585 440.357 224.702 440.784 224.935C441.211 225.168 441.547 225.502 441.794 225.935C442.041 226.368 442.164 226.865 442.164 227.425C442.164 227.985 442.037 228.482 441.784 228.915C441.531 229.348 441.184 229.685 440.744 229.925C440.311 230.158 439.831 230.275 439.304 230.275ZM439.304 229.285C439.597 229.285 439.871 229.215 440.124 229.075C440.384 228.935 440.594 228.725 440.754 228.445C440.914 228.165 440.994 227.825 440.994 227.425C440.994 227.025 440.917 226.688 440.764 226.415C440.611 226.135 440.407 225.925 440.154 225.785C439.901 225.645 439.627 225.575 439.334 225.575C439.041 225.575 438.767 225.645 438.514 225.785C438.267 225.925 438.071 226.135 437.924 226.415C437.777 226.688 437.704 227.025 437.704 227.425C437.704 228.018 437.854 228.478 438.154 228.805C438.461 229.125 438.844 229.285 439.304 229.285ZM446.071 224.585C446.504 224.585 446.891 224.675 447.231 224.855C447.577 225.035 447.847 225.302 448.041 225.655C448.234 226.008 448.331 226.435 448.331 226.935V230.185H447.201V227.105C447.201 226.612 447.077 226.235 446.831 225.975C446.584 225.708 446.247 225.575 445.821 225.575C445.394 225.575 445.054 225.708 444.801 225.975C444.554 226.235 444.431 226.612 444.431 227.105V230.185H443.291V224.675H444.431V225.305C444.617 225.078 444.854 224.902 445.141 224.775C445.434 224.648 445.744 224.585 446.071 224.585ZM451.115 225.605V228.655C451.115 228.862 451.162 229.012 451.255 229.105C451.355 229.192 451.522 229.235 451.755 229.235H452.455V230.185H451.555C451.042 230.185 450.648 230.065 450.375 229.825C450.102 229.585 449.965 229.195 449.965 228.655V225.605H449.315V224.675H449.965V223.305H451.115V224.675H452.455V225.605H451.115ZM456.356 224.585C456.776 224.585 457.149 224.675 457.476 224.855C457.809 225.035 458.069 225.302 458.256 225.655C458.449 226.008 458.546 226.435 458.546 226.935V230.185H457.416V227.105C457.416 226.612 457.292 226.235 457.046 225.975C456.799 225.708 456.462 225.575 456.036 225.575C455.609 225.575 455.269 225.708 455.016 225.975C454.769 226.235 454.646 226.612 454.646 227.105V230.185H453.506V222.785H454.646V225.315C454.839 225.082 455.082 224.902 455.376 224.775C455.676 224.648 456.002 224.585 456.356 224.585Z" fill="#6C6E6F"/>
<path d="M471.803 225.426L469.939 227.291C469.578 227.652 468.993 227.652 468.632 227.291L466.767 225.426" fill="#6C6E6F"/>
<g filter="url(#filter3_d_8985_202067)">
<path d="M484.807 262.802L445.553 273.126C443.3 273.718 441.334 275.095 440.007 277.01L437.375 280.807C434.575 284.846 429.212 286.177 424.849 283.917L420.959 281.903C417.391 280.055 413.055 280.579 410.031 283.225L400.996 291.128C397.996 293.752 393.703 294.291 390.147 292.491L388.094 291.451C383.972 289.364 378.951 290.449 376.059 294.052L368.664 303.264C365.839 306.783 360.974 307.91 356.89 305.993L348.916 302.249C347.285 301.483 345.473 301.184 343.681 301.383L341.437 301.633C338.365 301.975 335.336 300.695 333.441 298.252V298.252C330.753 294.788 325.939 293.805 322.108 295.939L320.028 297.097C319.239 297.537 318.392 297.865 317.513 298.072L310.673 299.682C308.803 300.123 307.104 301.105 305.789 302.506L291.121 318.129C290.479 318.813 289.741 319.402 288.93 319.876L282.628 323.561C279.176 325.579 274.844 325.292 271.689 322.835L268.486 320.339C265.318 317.871 260.712 318.678 258.572 322.076L257.835 323.245C256.71 325.03 254.565 325.891 252.518 325.378V325.378C250.591 324.895 248.563 325.628 247.39 327.233L243.035 333.194C240.521 336.634 235.559 337.086 232.465 334.156V334.156C230.068 331.887 226.419 331.578 223.675 333.412L220.571 335.486C219.172 336.421 217.555 336.979 215.877 337.106L208.988 337.627C207.951 337.705 206.967 338.118 206.185 338.804L205.676 339.251C204.137 340.601 201.831 340.585 200.311 339.213V339.213C198.714 337.772 196.268 337.837 194.749 339.359L188.634 345.49" stroke="#FF5500" stroke-width="1.38626" stroke-linecap="round" stroke-linejoin="round"/>
</g>
<path d="M188.775 371.793V366.322L187.475 366.738V366.142L189.028 365.474H189.542V371.793H188.775ZM193.205 371.901C192.682 371.901 192.23 371.765 191.851 371.495C191.478 371.218 191.189 370.836 190.985 370.348C190.78 369.855 190.678 369.283 190.678 368.633C190.678 367.983 190.78 367.415 190.985 366.927C191.189 366.434 191.478 366.052 191.851 365.781C192.23 365.504 192.682 365.366 193.205 365.366C193.729 365.366 194.177 365.504 194.55 365.781C194.923 366.052 195.209 366.434 195.408 366.927C195.612 367.415 195.715 367.983 195.715 368.633C195.715 369.283 195.612 369.855 195.408 370.348C195.209 370.836 194.923 371.218 194.55 371.495C194.177 371.765 193.729 371.901 193.205 371.901ZM193.205 371.233C193.536 371.233 193.831 371.131 194.09 370.926C194.349 370.715 194.553 370.418 194.704 370.032C194.86 369.641 194.938 369.175 194.938 368.633C194.938 368.086 194.86 367.619 194.704 367.234C194.553 366.849 194.349 366.554 194.09 366.35C193.831 366.145 193.536 366.043 193.205 366.043C192.868 366.043 192.567 366.145 192.303 366.35C192.038 366.554 191.83 366.849 191.68 367.234C191.529 367.619 191.454 368.086 191.454 368.633C191.454 369.175 191.529 369.641 191.68 370.032C191.83 370.418 192.038 370.715 192.303 370.926C192.567 371.131 192.868 371.233 193.205 371.233Z" fill="#9D9E9F"/>
<path d="M236.979 371.793V366.322L235.679 366.738V366.142L237.232 365.474H237.747V371.793H236.979ZM241.22 371.901C240.799 371.901 240.432 371.826 240.119 371.675C239.812 371.525 239.568 371.323 239.388 371.07C239.213 370.812 239.105 370.517 239.063 370.186H239.803C239.869 370.499 240.022 370.755 240.263 370.953C240.51 371.152 240.832 371.251 241.229 371.251C241.524 371.251 241.774 371.185 241.978 371.052C242.189 370.914 242.351 370.727 242.466 370.493C242.58 370.252 242.637 369.984 242.637 369.689C242.637 369.395 242.58 369.136 242.466 368.913C242.357 368.684 242.201 368.507 241.996 368.381C241.792 368.248 241.551 368.182 241.274 368.182C240.943 368.182 240.66 368.248 240.426 368.381C240.197 368.513 240.019 368.675 239.893 368.868H239.144L239.622 365.474H243.016V366.133H240.209L239.884 368.11C240.035 367.941 240.233 367.806 240.48 367.704C240.733 367.595 241.024 367.541 241.355 367.541C241.662 367.541 241.939 367.595 242.186 367.704C242.433 367.812 242.643 367.965 242.818 368.164C242.998 368.356 243.134 368.582 243.224 368.841C243.32 369.1 243.368 369.379 243.368 369.68C243.368 369.981 243.317 370.267 243.215 370.538C243.119 370.803 242.977 371.037 242.791 371.242C242.61 371.447 242.387 371.609 242.123 371.729C241.858 371.844 241.557 371.901 241.22 371.901Z" fill="#9D9E9F"/>
<path d="M282.625 371.793V371.26C283.07 370.923 283.491 370.583 283.889 370.24C284.286 369.897 284.638 369.557 284.945 369.22C285.252 368.877 285.492 368.543 285.667 368.218C285.841 367.893 285.929 367.58 285.929 367.279C285.929 367.057 285.887 366.852 285.802 366.665C285.724 366.473 285.595 366.316 285.414 366.196C285.24 366.076 285.002 366.016 284.701 366.016C284.412 366.016 284.171 366.079 283.979 366.205C283.786 366.325 283.642 366.488 283.546 366.693C283.449 366.891 283.401 367.111 283.401 367.351H282.67C282.676 366.936 282.766 366.581 282.941 366.286C283.115 365.985 283.356 365.757 283.663 365.6C283.97 365.444 284.319 365.366 284.71 365.366C285.095 365.366 285.435 365.438 285.73 365.582C286.025 365.721 286.257 365.931 286.425 366.214C286.6 366.491 286.687 366.837 286.687 367.252C286.687 367.547 286.624 367.842 286.497 368.137C286.377 368.432 286.211 368.721 286.001 369.003C285.79 369.28 285.556 369.548 285.297 369.807C285.044 370.065 284.782 370.309 284.511 370.538C284.241 370.767 283.985 370.974 283.744 371.161H286.904V371.793H282.625ZM290.235 371.901C289.712 371.901 289.26 371.765 288.881 371.495C288.508 371.218 288.219 370.836 288.015 370.348C287.81 369.855 287.708 369.283 287.708 368.633C287.708 367.983 287.81 367.415 288.015 366.927C288.219 366.434 288.508 366.052 288.881 365.781C289.26 365.504 289.712 365.366 290.235 365.366C290.759 365.366 291.207 365.504 291.58 365.781C291.953 366.052 292.239 366.434 292.438 366.927C292.642 367.415 292.745 367.983 292.745 368.633C292.745 369.283 292.642 369.855 292.438 370.348C292.239 370.836 291.953 371.218 291.58 371.495C291.207 371.765 290.759 371.901 290.235 371.901ZM290.235 371.233C290.566 371.233 290.861 371.131 291.12 370.926C291.379 370.715 291.583 370.418 291.734 370.032C291.89 369.641 291.968 369.175 291.968 368.633C291.968 368.086 291.89 367.619 291.734 367.234C291.583 366.849 291.379 366.554 291.12 366.35C290.861 366.145 290.566 366.043 290.235 366.043C289.898 366.043 289.597 366.145 289.333 366.35C289.068 366.554 288.86 366.849 288.71 367.234C288.559 367.619 288.484 368.086 288.484 368.633C288.484 369.175 288.559 369.641 288.71 370.032C288.86 370.418 289.068 370.715 289.333 370.926C289.597 371.131 289.898 371.233 290.235 371.233Z" fill="#9D9E9F"/>
<path d="M330.785 371.793V371.26C331.23 370.923 331.652 370.583 332.049 370.24C332.446 369.897 332.798 369.557 333.105 369.22C333.412 368.877 333.653 368.543 333.827 368.218C334.002 367.893 334.089 367.58 334.089 367.279C334.089 367.057 334.047 366.852 333.962 366.665C333.884 366.473 333.755 366.316 333.574 366.196C333.4 366.076 333.162 366.016 332.861 366.016C332.572 366.016 332.332 366.079 332.139 366.205C331.947 366.325 331.802 366.488 331.706 366.693C331.61 366.891 331.561 367.111 331.561 367.351H330.83C330.836 366.936 330.927 366.581 331.101 366.286C331.276 365.985 331.516 365.757 331.823 365.6C332.13 365.444 332.479 365.366 332.87 365.366C333.255 365.366 333.595 365.438 333.89 365.582C334.185 365.721 334.417 365.931 334.585 366.214C334.76 366.491 334.847 366.837 334.847 367.252C334.847 367.547 334.784 367.842 334.658 368.137C334.537 368.432 334.372 368.721 334.161 369.003C333.95 369.28 333.716 369.548 333.457 369.807C333.204 370.065 332.942 370.309 332.672 370.538C332.401 370.767 332.145 370.974 331.904 371.161H335.064V371.793H330.785ZM338.294 371.901C337.873 371.901 337.506 371.826 337.193 371.675C336.886 371.525 336.642 371.323 336.462 371.07C336.287 370.812 336.179 370.517 336.137 370.186H336.877C336.943 370.499 337.096 370.755 337.337 370.953C337.584 371.152 337.906 371.251 338.303 371.251C338.598 371.251 338.848 371.185 339.052 371.052C339.263 370.914 339.425 370.727 339.54 370.493C339.654 370.252 339.711 369.984 339.711 369.689C339.711 369.395 339.654 369.136 339.54 368.913C339.431 368.684 339.275 368.507 339.07 368.381C338.866 368.248 338.625 368.182 338.348 368.182C338.017 368.182 337.734 368.248 337.5 368.381C337.271 368.513 337.093 368.675 336.967 368.868H336.218L336.696 365.474H340.09V366.133H337.283L336.958 368.11C337.109 367.941 337.307 367.806 337.554 367.704C337.807 367.595 338.098 367.541 338.429 367.541C338.736 367.541 339.013 367.595 339.26 367.704C339.507 367.812 339.717 367.965 339.892 368.164C340.072 368.356 340.208 368.582 340.298 368.841C340.394 369.1 340.442 369.379 340.442 369.68C340.442 369.981 340.391 370.267 340.289 370.538C340.193 370.803 340.051 371.037 339.865 371.242C339.684 371.447 339.461 371.609 339.197 371.729C338.932 371.844 338.631 371.901 338.294 371.901Z" fill="#9D9E9F"/>
<path d="M380.594 371.901C380.191 371.901 379.824 371.829 379.493 371.684C379.168 371.534 378.909 371.311 378.717 371.016C378.524 370.721 378.422 370.354 378.41 369.915H379.177C379.183 370.156 379.24 370.378 379.349 370.583C379.463 370.782 379.625 370.941 379.836 371.061C380.047 371.182 380.299 371.242 380.594 371.242C380.889 371.242 381.136 371.185 381.334 371.07C381.533 370.956 381.683 370.806 381.786 370.619C381.888 370.427 381.939 370.213 381.939 369.978C381.939 369.695 381.867 369.467 381.723 369.292C381.584 369.112 381.395 368.979 381.154 368.895C380.919 368.805 380.66 368.76 380.378 368.76H379.908V368.119H380.378C380.805 368.119 381.139 368.022 381.38 367.83C381.626 367.631 381.75 367.357 381.75 367.008C381.75 366.726 381.653 366.491 381.461 366.304C381.268 366.118 380.979 366.025 380.594 366.025C380.215 366.025 379.917 366.127 379.701 366.331C379.484 366.536 379.361 366.798 379.331 367.117H378.563C378.581 366.774 378.675 366.47 378.843 366.205C379.018 365.94 379.252 365.736 379.547 365.591C379.848 365.441 380.197 365.366 380.594 365.366C381.015 365.366 381.368 365.438 381.65 365.582C381.939 365.727 382.156 365.919 382.3 366.16C382.445 366.401 382.517 366.668 382.517 366.963C382.517 367.18 382.475 367.388 382.391 367.586C382.312 367.785 382.192 367.956 382.029 368.101C381.867 368.245 381.659 368.347 381.407 368.408C381.653 368.456 381.873 368.549 382.066 368.687C382.264 368.826 382.421 369.003 382.535 369.22C382.649 369.437 382.706 369.689 382.706 369.978C382.706 370.321 382.625 370.64 382.463 370.935C382.306 371.224 382.072 371.459 381.759 371.639C381.446 371.814 381.058 371.901 380.594 371.901ZM386.278 371.901C385.754 371.901 385.303 371.765 384.924 371.495C384.551 371.218 384.262 370.836 384.057 370.348C383.853 369.855 383.75 369.283 383.75 368.633C383.75 367.983 383.853 367.415 384.057 366.927C384.262 366.434 384.551 366.052 384.924 365.781C385.303 365.504 385.754 365.366 386.278 365.366C386.801 365.366 387.25 365.504 387.623 365.781C387.996 366.052 388.282 366.434 388.48 366.927C388.685 367.415 388.787 367.983 388.787 368.633C388.787 369.283 388.685 369.855 388.48 370.348C388.282 370.836 387.996 371.218 387.623 371.495C387.25 371.765 386.801 371.901 386.278 371.901ZM386.278 371.233C386.609 371.233 386.904 371.131 387.163 370.926C387.421 370.715 387.626 370.418 387.776 370.032C387.933 369.641 388.011 369.175 388.011 368.633C388.011 368.086 387.933 367.619 387.776 367.234C387.626 366.849 387.421 366.554 387.163 366.35C386.904 366.145 386.609 366.043 386.278 366.043C385.941 366.043 385.64 366.145 385.375 366.35C385.11 366.554 384.903 366.849 384.752 367.234C384.602 367.619 384.527 368.086 384.527 368.633C384.527 369.175 384.602 369.641 384.752 370.032C384.903 370.418 385.11 370.715 385.375 370.926C385.64 371.131 385.941 371.233 386.278 371.233Z" fill="#9D9E9F"/>
<path d="M428.823 371.901C428.299 371.901 427.848 371.765 427.469 371.495C427.096 371.218 426.807 370.836 426.602 370.348C426.398 369.855 426.295 369.283 426.295 368.633C426.295 367.983 426.398 367.415 426.602 366.927C426.807 366.434 427.096 366.052 427.469 365.781C427.848 365.504 428.299 365.366 428.823 365.366C429.346 365.366 429.795 365.504 430.168 365.781C430.541 366.052 430.827 366.434 431.025 366.927C431.23 367.415 431.332 367.983 431.332 368.633C431.332 369.283 431.23 369.855 431.025 370.348C430.827 370.836 430.541 371.218 430.168 371.495C429.795 371.765 429.346 371.901 428.823 371.901ZM428.823 371.233C429.154 371.233 429.449 371.131 429.707 370.926C429.966 370.715 430.171 370.418 430.321 370.032C430.478 369.641 430.556 369.175 430.556 368.633C430.556 368.086 430.478 367.619 430.321 367.234C430.171 366.849 429.966 366.554 429.707 366.35C429.449 366.145 429.154 366.043 428.823 366.043C428.486 366.043 428.185 366.145 427.92 366.35C427.655 366.554 427.448 366.849 427.297 367.234C427.147 367.619 427.072 368.086 427.072 368.633C427.072 369.175 427.147 369.641 427.297 370.032C427.448 370.418 427.655 370.715 427.92 370.926C428.185 371.131 428.486 371.233 428.823 371.233ZM434.557 371.901C434.136 371.901 433.769 371.826 433.456 371.675C433.149 371.525 432.905 371.323 432.725 371.07C432.55 370.812 432.442 370.517 432.4 370.186H433.14C433.206 370.499 433.36 370.755 433.6 370.953C433.847 371.152 434.169 371.251 434.566 371.251C434.861 371.251 435.111 371.185 435.315 371.052C435.526 370.914 435.688 370.727 435.803 370.493C435.917 370.252 435.974 369.984 435.974 369.689C435.974 369.395 435.917 369.136 435.803 368.913C435.694 368.684 435.538 368.507 435.333 368.381C435.129 368.248 434.888 368.182 434.611 368.182C434.28 368.182 433.997 368.248 433.763 368.381C433.534 368.513 433.357 368.675 433.23 368.868H432.481L432.959 365.474H436.353V366.133H433.546L433.221 368.11C433.372 367.941 433.57 367.806 433.817 367.704C434.07 367.595 434.361 367.541 434.692 367.541C434.999 367.541 435.276 367.595 435.523 367.704C435.77 367.812 435.98 367.965 436.155 368.164C436.335 368.356 436.471 368.582 436.561 368.841C436.657 369.1 436.705 369.379 436.705 369.68C436.705 369.981 436.654 370.267 436.552 370.538C436.456 370.803 436.314 371.037 436.128 371.242C435.947 371.447 435.724 371.609 435.46 371.729C435.195 371.844 434.894 371.901 434.557 371.901Z" fill="#9D9E9F"/>
<path d="M476.652 371.793V366.322L475.352 366.738V366.142L476.905 365.474H477.419V371.793H476.652ZM481.082 371.901C480.559 371.901 480.107 371.765 479.728 371.495C479.355 371.218 479.066 370.836 478.862 370.348C478.657 369.855 478.555 369.283 478.555 368.633C478.555 367.983 478.657 367.415 478.862 366.927C479.066 366.434 479.355 366.052 479.728 365.781C480.107 365.504 480.559 365.366 481.082 365.366C481.606 365.366 482.054 365.504 482.427 365.781C482.8 366.052 483.086 366.434 483.285 366.927C483.489 367.415 483.591 367.983 483.591 368.633C483.591 369.283 483.489 369.855 483.285 370.348C483.086 370.836 482.8 371.218 482.427 371.495C482.054 371.765 481.606 371.901 481.082 371.901ZM481.082 371.233C481.413 371.233 481.708 371.131 481.967 370.926C482.225 370.715 482.43 370.418 482.58 370.032C482.737 369.641 482.815 369.175 482.815 368.633C482.815 368.086 482.737 367.619 482.58 367.234C482.43 366.849 482.225 366.554 481.967 366.35C481.708 366.145 481.413 366.043 481.082 366.043C480.745 366.043 480.444 366.145 480.179 366.35C479.915 366.554 479.707 366.849 479.557 367.234C479.406 367.619 479.331 368.086 479.331 368.633C479.331 369.175 479.406 369.641 479.557 370.032C479.707 370.418 479.915 370.715 480.179 370.926C480.444 371.131 480.745 371.233 481.082 371.233Z" fill="#9D9E9F"/>
<circle cx="336.344" cy="300.012" r="2.92061" fill="white" stroke="#FF5500" stroke-width="0.924172"/>
<circle cx="277.611" cy="324.822" r="3.00684" fill="white" stroke="#FF5500" stroke-width="0.75171"/>
<circle cx="302.591" cy="306.777" r="3.46634" fill="white" stroke="#FF5500" stroke-width="1.84834"/>
<circle cx="239.106" cy="288.381" r="2.92061" fill="white" stroke="#1C76FD" stroke-width="0.924172"/>
<circle cx="384.455" cy="315.297" r="2.92061" fill="white" stroke="#1C76FD" stroke-width="0.924172"/>
<circle cx="433.316" cy="324.822" r="2.92061" fill="white" stroke="#1C76FD" stroke-width="0.924172"/>
<circle cx="238.426" cy="334.927" r="2.92061" fill="white" stroke="#FF5500" stroke-width="0.924172"/>
<circle cx="384.455" cy="291.743" r="2.92061" fill="white" stroke="#FF5500" stroke-width="0.924172"/>
<circle cx="433.316" cy="283.475" r="2.92061" fill="white" stroke="#FF5500" stroke-width="0.924172"/>
</g>
<rect x="170.969" y="194.02" width="331.504" height="199.955" rx="14.4109" stroke="#EBECEC" stroke-width="0.75171"/>
<rect x="61.2113" y="222.545" width="67.4445" height="61.7316" rx="17.4" fill="#FCFCFC" stroke="#E2E2E2" stroke-width="1.2"/>
<g filter="url(#filter4_d_8985_202067)">
<rect x="65.0884" y="226.049" width="59.6903" height="54.7227" rx="14" fill="#FCFCFC"/>
<rect x="65.5884" y="226.549" width="58.6903" height="53.7227" rx="13.5" stroke="url(#paint5_linear_8985_202067)"/>
</g>
<g filter="url(#filter5_ii_8985_202067)">
<path fill-rule="evenodd" clip-rule="evenodd" d="M94.9991 242.838C95.2753 242.838 95.4991 243.062 95.4991 243.338V246.697H102.068H102.93C103.206 246.697 103.43 246.921 103.43 247.197C103.43 247.474 103.206 247.697 102.93 247.697H102.838L105.871 254.496H106.414C106.414 255.646 105.957 256.748 105.144 257.562C104.331 258.375 103.228 258.831 102.078 258.831C100.928 258.831 99.8257 258.375 99.0126 257.562C98.1995 256.748 97.7427 255.646 97.7427 254.496H98.2262L101.293 247.697H95.4991V262.983H99.9165C100.193 262.983 100.417 263.207 100.417 263.483C100.417 263.76 100.193 263.983 99.9165 263.983H94.9991H90.0817C89.8056 263.983 89.5817 263.76 89.5817 263.483C89.5817 263.207 89.8056 262.983 90.0817 262.983H94.4991V247.697H88.6543L91.6506 254.496H92.1249C92.1249 255.646 91.6681 256.748 90.855 257.562C90.042 258.375 88.9392 258.831 87.7893 258.831C86.6394 258.831 85.5366 258.375 84.7235 257.562C83.9104 256.748 83.4536 255.646 83.4536 254.496H84.0062L87.1096 247.697H86.962C86.6859 247.697 86.462 247.474 86.462 247.197C86.462 246.921 86.6859 246.697 86.962 246.697H87.8875H94.4991V243.338C94.4991 243.062 94.723 242.838 94.9991 242.838ZM87.8795 248.419L85.1084 254.489H90.555L87.8795 248.419ZM102.065 248.419L99.3262 254.489H104.773L102.065 248.419Z" fill="#6C6E6F"/>
</g>
<path d="M298.477 306.83L119.774 306.83C108.204 306.83 98.8242 297.451 98.8242 285.881V285.881" stroke="#3B3D3F" stroke-dasharray="1 2"/>
<defs>
<filter id="filter0_d_8985_202067" x="-205.886" y="205.988" width="1085.77" height="1085.77" filterUnits="userSpaceOnUse" color-interpolation-filters="sRGB">
<feFlood flood-opacity="0" result="BackgroundImageFix"/>
<feColorMatrix in="SourceAlpha" type="matrix" values="0 0 0 0 0 0 0 0 0 0 0 0 0 0 0 0 0 0 127 0" result="hardAlpha"/>
<feOffset dy="1"/>
<feGaussianBlur stdDeviation="2"/>
<feComposite in2="hardAlpha" operator="out"/>
<feColorMatrix type="matrix" values="0 0 0 0 0 0 0 0 0 0 0 0 0 0 0 0 0 0 0.15 0"/>
<feBlend mode="normal" in2="BackgroundImageFix" result="effect1_dropShadow_8985_202067"/>
<feBlend mode="normal" in="SourceGraphic" in2="effect1_dropShadow_8985_202067" result="shape"/>
</filter>
<filter id="filter1_i_8985_202067" x="165.062" y="188.006" width="343.981" height="213.395" filterUnits="userSpaceOnUse" color-interpolation-filters="sRGB">
<feFlood flood-opacity="0" result="BackgroundImageFix"/>
<feBlend mode="normal" in="SourceGraphic" in2="BackgroundImageFix" result="shape"/>
<feColorMatrix in="SourceAlpha" type="matrix" values="0 0 0 0 0 0 0 0 0 0 0 0 0 0 0 0 0 0 127 0" result="hardAlpha"/>
<feOffset dy="0.924172"/>
<feGaussianBlur stdDeviation="1.38626"/>
<feComposite in2="hardAlpha" operator="arithmetic" k2="-1" k3="1"/>
<feColorMatrix type="matrix" values="0 0 0 0 0 0 0 0 0 0 0 0 0 0 0 0 0 0 0.15 0"/>
<feBlend mode="normal" in2="shape" result="effect1_innerShadow_8985_202067"/>
</filter>
<filter id="filter2_d_8985_202067" x="182.774" y="278.702" width="306.423" height="62.2878" filterUnits="userSpaceOnUse" color-interpolation-filters="sRGB">
<feFlood flood-opacity="0" result="BackgroundImageFix"/>
<feColorMatrix in="SourceAlpha" type="matrix" values="0 0 0 0 0 0 0 0 0 0 0 0 0 0 0 0 0 0 127 0" result="hardAlpha"/>
<feOffset dy="3"/>
<feGaussianBlur stdDeviation="1.84834"/>
<feComposite in2="hardAlpha" operator="out"/>
<feColorMatrix type="matrix" values="0 0 0 0 0.504846 0 0 0 0 0.521754 0 0 0 0 0.530208 0 0 0 0.5 0"/>
<feBlend mode="normal" in2="BackgroundImageFix" result="effect1_dropShadow_8985_202067"/>
<feBlend mode="normal" in="SourceGraphic" in2="effect1_dropShadow_8985_202067" result="shape"/>
</filter>
<filter id="filter3_d_8985_202067" x="184.244" y="261.412" width="304.954" height="91.468" filterUnits="userSpaceOnUse" color-interpolation-filters="sRGB">
<feFlood flood-opacity="0" result="BackgroundImageFix"/>
<feColorMatrix in="SourceAlpha" type="matrix" values="0 0 0 0 0 0 0 0 0 0 0 0 0 0 0 0 0 0 127 0" result="hardAlpha"/>
<feOffset dy="3"/>
<feGaussianBlur stdDeviation="1.84834"/>
<feComposite in2="hardAlpha" operator="out"/>
<feColorMatrix type="matrix" values="0 0 0 0 0.504846 0 0 0 0 0.521754 0 0 0 0 0.530208 0 0 0 0.5 0"/>
<feBlend mode="normal" in2="BackgroundImageFix" result="effect1_dropShadow_8985_202067"/>
<feBlend mode="normal" in="SourceGraphic" in2="effect1_dropShadow_8985_202067" result="shape"/>
</filter>
<filter id="filter4_d_8985_202067" x="58.4884" y="222.449" width="72.8904" height="67.9227" filterUnits="userSpaceOnUse" color-interpolation-filters="sRGB">
<feFlood flood-opacity="0" result="BackgroundImageFix"/>
<feColorMatrix in="SourceAlpha" type="matrix" values="0 0 0 0 0 0 0 0 0 0 0 0 0 0 0 0 0 0 127 0" result="hardAlpha"/>
<feOffset dy="3"/>
<feGaussianBlur stdDeviation="3.3"/>
<feComposite in2="hardAlpha" operator="out"/>
<feColorMatrix type="matrix" values="0 0 0 0 0 0 0 0 0 0 0 0 0 0 0 0 0 0 0.06 0"/>
<feBlend mode="normal" in2="BackgroundImageFix" result="effect1_dropShadow_8985_202067"/>
<feBlend mode="normal" in="SourceGraphic" in2="effect1_dropShadow_8985_202067" result="shape"/>
</filter>
<filter id="filter5_ii_8985_202067" x="83.4536" y="242.838" width="22.9604" height="22.8295" filterUnits="userSpaceOnUse" color-interpolation-filters="sRGB">
<feFlood flood-opacity="0" result="BackgroundImageFix"/>
<feBlend mode="normal" in="SourceGraphic" in2="BackgroundImageFix" result="shape"/>
<feColorMatrix in="SourceAlpha" type="matrix" values="0 0 0 0 0 0 0 0 0 0 0 0 0 0 0 0 0 0 127 0" result="hardAlpha"/>
<feOffset dy="0.561341"/>
<feGaussianBlur stdDeviation="0.28067"/>
<feComposite in2="hardAlpha" operator="arithmetic" k2="-1" k3="1"/>
<feColorMatrix type="matrix" values="0 0 0 0 0 0 0 0 0 0 0 0 0 0 0 0 0 0 0.35 0"/>
<feBlend mode="normal" in2="shape" result="effect1_innerShadow_8985_202067"/>
<feColorMatrix in="SourceAlpha" type="matrix" values="0 0 0 0 0 0 0 0 0 0 0 0 0 0 0 0 0 0 127 0" result="hardAlpha"/>
<feOffset dy="1.68402"/>
<feGaussianBlur stdDeviation="1.12268"/>
<feComposite in2="hardAlpha" operator="arithmetic" k2="-1" k3="1"/>
<feColorMatrix type="matrix" values="0 0 0 0 0 0 0 0 0 0 0 0 0 0 0 0 0 0 0.25 0"/>
<feBlend mode="normal" in2="effect1_innerShadow_8985_202067" result="effect2_innerShadow_8985_202067"/>
</filter>
<linearGradient id="paint0_linear_8985_202067" x1="324.095" y1="124.232" x2="52.3195" y2="72.079" gradientUnits="userSpaceOnUse">
<stop stop-color="#EBECEC"/>
<stop offset="1" stop-color="#EBECEC" stop-opacity="0"/>
</linearGradient>
<radialGradient id="paint1_radial_8985_202067" cx="0" cy="0" r="1" gradientUnits="userSpaceOnUse" gradientTransform="translate(337 747.874) rotate(90) scale(538.885)">
<stop stop-color="#CECFCF"/>
<stop offset="1" stop-color="#CECFCF"/>
</radialGradient>
<linearGradient id="paint2_linear_8985_202067" x1="337" y1="208.988" x2="337" y2="1286.76" gradientUnits="userSpaceOnUse">
<stop stop-color="white"/>
<stop offset="1" stop-color="#F5F6F7"/>
</linearGradient>
<linearGradient id="paint3_linear_8985_202067" x1="337.052" y1="188.006" x2="337.052" y2="400.477" gradientUnits="userSpaceOnUse">
<stop stop-color="white" stop-opacity="0"/>
<stop offset="1" stop-color="white"/>
</linearGradient>
<linearGradient id="paint4_linear_8985_202067" x1="438.027" y1="241.702" x2="438.027" y2="211.668" gradientUnits="userSpaceOnUse">
<stop stop-color="#E2E2E2"/>
<stop offset="1" stop-color="#E2E2E2"/>
</linearGradient>
<linearGradient id="paint5_linear_8985_202067" x1="94.9336" y1="280.771" x2="94.9336" y2="226.049" gradientUnits="userSpaceOnUse">
<stop stop-color="#E2E2E2"/>
<stop offset="1" stop-color="#E2E2E2"/>
</linearGradient>
<clipPath id="clip0_8985_202067">
<rect x="170.593" y="193.645" width="332.256" height="200.707" rx="14.7867" fill="white"/>
</clipPath>
</defs>
</svg>
