<svg width="334" height="472" viewBox="0 0 334 472" fill="none" xmlns="http://www.w3.org/2000/svg">
<g clip-path="url(#clip0_9684_115048)">
<rect y="0.339966" width="334" height="471" rx="9.97015" fill="url(#paint0_linear_9684_115048)"/>
<mask id="mask0_9684_115048" style="mask-type:alpha" maskUnits="userSpaceOnUse" x="-4" y="-14" width="345" height="491">
<path d="M341 477L296.281 477L-0.938812 477L-4.00002 -14.0001L341 -14L341 477Z" fill="url(#paint1_radial_9684_115048)"/>
</mask>
<g mask="url(#mask0_9684_115048)">
<path d="M18.041 -10.0001V477" stroke="#181E22" stroke-width="0.311567"/>
<path d="M46.082 -10.0001V477" stroke="#181E22" stroke-width="0.311567"/>
<path d="M74.123 -10.0001V477" stroke="#181E22" stroke-width="0.311567"/>
<path d="M102.164 -10.0001V477" stroke="#181E22" stroke-width="0.311567"/>
<path d="M130.205 -10.0001V477" stroke="#181E22" stroke-width="0.311567"/>
<path d="M158.246 -10.0001V477" stroke="#181E22" stroke-width="0.311567"/>
<path d="M186.287 -10.0001V477" stroke="#181E22" stroke-width="0.311567"/>
<path d="M214.328 -10.0001V477" stroke="#181E22" stroke-width="0.311567"/>
<path d="M242.369 -10.0001V477" stroke="#181E22" stroke-width="0.311567"/>
<path d="M270.41 -10.0001V477" stroke="#181E22" stroke-width="0.311567"/>
<path d="M298.451 -10.0001V477" stroke="#181E22" stroke-width="0.311567"/>
<path d="M326.492 -10.0001V477" stroke="#181E22" stroke-width="0.311567"/>
</g>
<g opacity="0.4">
<path d="M292 117.795H299.816C302.709 117.795 305.054 115.45 305.054 112.557V101.238C305.054 98.3447 307.399 95.9996 310.292 95.9996H344.497" stroke="url(#paint2_linear_9684_115048)" stroke-linecap="round"/>
<path d="M333.357 141.218H310.492C307.599 141.218 305.254 138.873 305.254 135.98V123.029C305.254 120.136 302.909 117.791 300.016 117.791H292" stroke="url(#paint3_linear_9684_115048)" stroke-linecap="round"/>
<path d="M325.146 193H288" stroke="url(#paint4_linear_9684_115048)" stroke-linecap="round"/>
</g>
<g opacity="0.4">
<path d="M292 295.372H299.816C302.709 295.372 305.054 293.027 305.054 290.134V278.815C305.054 275.922 307.399 273.577 310.292 273.577H344.497" stroke="url(#paint5_linear_9684_115048)" stroke-linecap="round"/>
<path d="M333.357 318.794H310.492C307.599 318.794 305.254 316.449 305.254 313.556V300.605C305.254 297.712 302.909 295.367 300.016 295.367H292" stroke="url(#paint6_linear_9684_115048)" stroke-linecap="round"/>
<path d="M329.146 369H292" stroke="url(#paint7_linear_9684_115048)" stroke-linecap="round"/>
</g>
<path d="M125 330H89.9001C87.0072 330 84.6621 327.654 84.6621 324.762V248.237C84.6621 245.345 82.317 243 79.4242 243H67" stroke="#33373A" stroke-linecap="round"/>
<path d="M125 156H89.9001C87.0072 156 84.6621 158.345 84.6621 161.237V237.762C84.6621 240.654 82.317 243 79.4242 243H67" stroke="#33373A" stroke-linecap="round"/>
<rect x="20.436" y="218.775" width="47.128" height="47.128" rx="7.564" fill="url(#paint8_linear_9684_115048)"/>
<rect x="20.436" y="218.775" width="47.128" height="47.128" rx="7.564" stroke="url(#paint9_linear_9684_115048)" stroke-width="0.872003"/>
<g clip-path="url(#clip1_9684_115048)">
<mask id="mask1_9684_115048" style="mask-type:luminance" maskUnits="userSpaceOnUse" x="27" y="231" width="34" height="38">
<path d="M27.123 231.431H60.8257V268.159H27.123V231.431Z" fill="white"/>
</mask>
<g mask="url(#mask1_9684_115048)">
<path d="M38.755 243.087L36.9818 241.983L37.019 243.669L38.7922 244.773L38.755 243.087ZM41.3093 248.989L41.2721 247.34L39.7222 246.373C39.6974 246.36 39.6726 246.335 39.6602 246.323L39.6974 247.985L41.3093 248.989ZM35.7666 251.209L31.7119 248.691L31.6127 244.475L33.5967 243.62L33.5595 241.934L30.3851 243.297C30.1371 243.409 29.9883 243.632 30.0007 243.893L30.1247 248.952C30.1247 249.212 30.2859 249.473 30.5339 249.621L35.3946 252.635C35.6178 252.771 35.8906 252.808 36.1262 252.746C36.151 252.734 36.1758 252.734 36.2006 252.721L39.189 251.432L37.5646 250.427L35.7666 251.209Z" fill="#1C76FD"/>
</g>
<mask id="mask2_9684_115048" style="mask-type:luminance" maskUnits="userSpaceOnUse" x="27" y="231" width="34" height="38">
<path d="M27.123 231.431H60.8257V268.159H27.123V231.431Z" fill="white"/>
</mask>
<g mask="url(#mask2_9684_115048)">
<path d="M48.8731 241.884C48.8607 241.587 48.6871 241.277 48.3895 241.103L42.4872 237.445L42.3012 237.519L42.3384 239.293L47.0132 242.194L47.1247 246.931L48.9103 248.034L49.0095 247.997L48.8731 241.884ZM41.8052 250.204L36.3121 246.807L36.1757 241.103L38.6805 240.024L38.6309 238.053L34.7497 239.727C34.4646 239.851 34.291 240.111 34.3034 240.421L34.4646 247.117C34.4646 247.427 34.6506 247.725 34.9481 247.898L41.3836 251.891C41.644 252.052 41.9664 252.102 42.2392 252.015C42.264 252.002 42.2888 251.99 42.3136 251.99L46.108 250.353L44.2232 249.188L41.8052 250.204Z" fill="#1C76FD"/>
</g>
<mask id="mask3_9684_115048" style="mask-type:luminance" maskUnits="userSpaceOnUse" x="27" y="231" width="34" height="38">
<path d="M27.123 231.431H60.8257V268.159H27.123V231.431Z" fill="white"/>
</mask>
<g mask="url(#mask3_9684_115048)">
<path d="M57.2417 237.197L48.9958 232.088C48.6858 231.902 48.3263 231.853 48.0163 231.952C47.9915 231.964 47.9543 231.977 47.9295 231.989L39.882 235.461C39.5596 235.597 39.3612 235.895 39.3736 236.255L39.572 244.835C39.5844 245.183 39.7952 245.53 40.13 245.728L48.3759 250.837C48.6734 251.023 49.0454 251.072 49.3554 250.973C49.3802 250.961 49.4174 250.948 49.4422 250.936L57.4897 247.464C57.8121 247.328 58.0105 247.018 57.9981 246.671L57.7997 238.09C57.7873 237.743 57.5765 237.408 57.2417 237.197ZM48.8594 248.915L41.6924 244.476L41.5188 237.023L48.5122 234.01L55.6793 238.449L55.8529 245.902L48.8594 248.915Z" fill="#1C76FD"/>
</g>
</g>
<rect x="125.436" y="130.775" width="47.128" height="47.128" rx="7.564" fill="url(#paint10_linear_9684_115048)"/>
<rect x="125.436" y="130.775" width="47.128" height="47.128" rx="7.564" stroke="url(#paint11_linear_9684_115048)" stroke-width="0.872003"/>
<g clip-path="url(#clip2_9684_115048)">
<mask id="mask4_9684_115048" style="mask-type:luminance" maskUnits="userSpaceOnUse" x="132" y="143" width="34" height="38">
<path d="M132.123 143.431H165.826V180.159H132.123V143.431Z" fill="white"/>
</mask>
<g mask="url(#mask4_9684_115048)">
<path d="M143.755 155.087L141.982 153.983L142.019 155.669L143.792 156.773L143.755 155.087ZM146.309 160.989L146.272 159.34L144.722 158.373C144.697 158.36 144.673 158.335 144.66 158.323L144.697 159.985L146.309 160.989ZM140.767 163.209L136.712 160.691L136.613 156.475L138.597 155.62L138.559 153.934L135.385 155.297C135.137 155.409 134.988 155.632 135.001 155.893L135.125 160.952C135.125 161.212 135.286 161.473 135.534 161.621L140.395 164.635C140.618 164.771 140.891 164.808 141.126 164.746C141.151 164.734 141.176 164.734 141.201 164.721L144.189 163.432L142.565 162.427L140.767 163.209Z" fill="white"/>
</g>
<mask id="mask5_9684_115048" style="mask-type:luminance" maskUnits="userSpaceOnUse" x="132" y="143" width="34" height="38">
<path d="M132.123 143.431H165.826V180.159H132.123V143.431Z" fill="white"/>
</mask>
<g mask="url(#mask5_9684_115048)">
<path d="M153.873 153.884C153.861 153.587 153.687 153.277 153.39 153.103L147.487 149.445L147.301 149.519L147.338 151.293L152.013 154.194L152.125 158.931L153.91 160.035L154.01 159.997L153.873 153.884ZM146.805 162.204L141.312 158.807L141.176 153.103L143.68 152.024L143.631 150.053L139.75 151.727C139.465 151.851 139.291 152.111 139.303 152.421L139.465 159.117C139.465 159.427 139.651 159.725 139.948 159.898L146.384 163.891C146.644 164.052 146.966 164.102 147.239 164.015C147.264 164.002 147.289 163.99 147.314 163.99L151.108 162.353L149.223 161.188L146.805 162.204Z" fill="white"/>
</g>
<mask id="mask6_9684_115048" style="mask-type:luminance" maskUnits="userSpaceOnUse" x="132" y="143" width="34" height="38">
<path d="M132.123 143.431H165.826V180.159H132.123V143.431Z" fill="white"/>
</mask>
<g mask="url(#mask6_9684_115048)">
<path d="M162.242 149.197L153.996 144.088C153.686 143.902 153.326 143.853 153.016 143.952C152.991 143.964 152.954 143.977 152.929 143.989L144.882 147.461C144.56 147.597 144.361 147.895 144.374 148.255L144.572 156.835C144.584 157.183 144.795 157.53 145.13 157.728L153.376 162.837C153.673 163.023 154.045 163.072 154.355 162.973C154.38 162.961 154.417 162.948 154.442 162.936L162.49 159.464C162.812 159.328 163.01 159.018 162.998 158.671L162.8 150.09C162.787 149.743 162.576 149.408 162.242 149.197ZM153.859 160.915L146.692 156.476L146.519 149.023L153.512 146.01L160.679 150.449L160.853 157.902L153.859 160.915Z" fill="white"/>
</g>
</g>
<rect x="125.436" y="306.775" width="47.128" height="47.128" rx="7.564" fill="url(#paint12_linear_9684_115048)"/>
<rect x="125.436" y="306.775" width="47.128" height="47.128" rx="7.564" stroke="url(#paint13_linear_9684_115048)" stroke-width="0.872003"/>
<g clip-path="url(#clip3_9684_115048)">
<mask id="mask7_9684_115048" style="mask-type:luminance" maskUnits="userSpaceOnUse" x="132" y="319" width="34" height="38">
<path d="M132.123 319.431H165.826V356.159H132.123V319.431Z" fill="white"/>
</mask>
<g mask="url(#mask7_9684_115048)">
<path d="M143.755 331.087L141.982 329.983L142.019 331.669L143.792 332.773L143.755 331.087ZM146.309 336.989L146.272 335.34L144.722 334.373C144.697 334.36 144.673 334.335 144.66 334.323L144.697 335.985L146.309 336.989ZM140.767 339.209L136.712 336.691L136.613 332.475L138.597 331.62L138.559 329.934L135.385 331.297C135.137 331.409 134.988 331.632 135.001 331.893L135.125 336.952C135.125 337.212 135.286 337.473 135.534 337.621L140.395 340.635C140.618 340.771 140.891 340.808 141.126 340.746C141.151 340.734 141.176 340.734 141.201 340.721L144.189 339.432L142.565 338.427L140.767 339.209Z" fill="white"/>
</g>
<mask id="mask8_9684_115048" style="mask-type:luminance" maskUnits="userSpaceOnUse" x="132" y="319" width="34" height="38">
<path d="M132.123 319.431H165.826V356.159H132.123V319.431Z" fill="white"/>
</mask>
<g mask="url(#mask8_9684_115048)">
<path d="M153.873 329.884C153.861 329.587 153.687 329.277 153.39 329.103L147.487 325.445L147.301 325.519L147.338 327.293L152.013 330.194L152.125 334.931L153.91 336.034L154.01 335.997L153.873 329.884ZM146.805 338.204L141.312 334.807L141.176 329.103L143.68 328.024L143.631 326.053L139.75 327.727C139.465 327.851 139.291 328.111 139.303 328.421L139.465 335.117C139.465 335.427 139.651 335.725 139.948 335.898L146.384 339.891C146.644 340.052 146.966 340.102 147.239 340.015C147.264 340.002 147.289 339.99 147.314 339.99L151.108 338.353L149.223 337.188L146.805 338.204Z" fill="white"/>
</g>
<mask id="mask9_9684_115048" style="mask-type:luminance" maskUnits="userSpaceOnUse" x="132" y="319" width="34" height="38">
<path d="M132.123 319.431H165.826V356.159H132.123V319.431Z" fill="white"/>
</mask>
<g mask="url(#mask9_9684_115048)">
<path d="M162.242 325.197L153.996 320.088C153.686 319.902 153.326 319.853 153.016 319.952C152.991 319.964 152.954 319.977 152.929 319.989L144.882 323.461C144.56 323.597 144.361 323.895 144.374 324.255L144.572 332.835C144.584 333.183 144.795 333.53 145.13 333.728L153.376 338.837C153.673 339.023 154.045 339.072 154.355 338.973C154.38 338.961 154.417 338.948 154.442 338.936L162.49 335.464C162.812 335.328 163.01 335.018 162.998 334.671L162.8 326.09C162.787 325.743 162.576 325.408 162.242 325.197ZM153.859 336.915L146.692 332.476L146.519 325.023L153.512 322.01L160.679 326.449L160.853 333.902L153.859 336.915Z" fill="white"/>
</g>
</g>
<path d="M244 193.001H196.487C193.594 193.001 191.249 190.655 191.249 187.763V161.351C191.249 158.458 188.904 156.113 186.011 156.113H173.008" stroke="#33373A" stroke-linecap="round"/>
<path d="M243.992 119H196.479C193.586 119 191.241 121.346 191.241 124.238V150.65C191.241 153.543 188.896 155.888 186.003 155.888H173" stroke="#33373A" stroke-linecap="round"/>
<path d="M244 369H196.487C193.594 369 191.249 366.655 191.249 363.762V337.35C191.249 334.457 188.904 332.112 186.011 332.112H173.008" stroke="#33373A" stroke-linecap="round"/>
<path d="M243.992 295H196.479C193.586 295 191.241 297.345 191.241 300.237V326.649C191.241 329.542 188.896 331.887 186.003 331.887H173" stroke="#33373A" stroke-linecap="round"/>
<rect x="244.742" y="95.4976" width="47" height="47" rx="7.5" fill="url(#paint14_linear_9684_115048)"/>
<rect x="244.742" y="95.4976" width="47" height="47" rx="7.5" stroke="url(#paint15_linear_9684_115048)"/>
<path d="M278.242 106.998H258.242C256.585 106.998 255.242 108.341 255.242 109.998V123.998C255.242 125.654 256.585 126.998 258.242 126.998H278.242C279.899 126.998 281.242 125.654 281.242 123.998V109.998C281.242 108.341 279.899 106.998 278.242 106.998Z" fill="white"/>
<path d="M272.985 113.212L268.242 115.956L263.499 113.212C263.442 113.179 263.395 113.131 263.362 113.074C263.329 113.017 263.312 112.952 263.312 112.886C263.312 112.82 263.329 112.756 263.362 112.698C263.395 112.641 263.442 112.594 263.499 112.561L267.657 110.155C267.835 110.052 268.037 109.998 268.242 109.998C268.448 109.998 268.649 110.052 268.827 110.155L272.985 112.561C273.042 112.594 273.089 112.641 273.122 112.698C273.155 112.756 273.173 112.82 273.173 112.886C273.173 112.952 273.155 113.017 273.122 113.074C273.089 113.131 273.042 113.179 272.985 113.212ZM262.242 114.871V119.526C262.242 119.74 262.297 119.95 262.403 120.135C262.508 120.32 262.66 120.474 262.844 120.582L266.93 122.947C266.987 122.98 267.051 122.998 267.117 122.998C267.183 122.998 267.248 122.98 267.305 122.947C267.362 122.914 267.409 122.867 267.442 122.81C267.475 122.753 267.492 122.688 267.492 122.622V117.258L262.805 114.546C262.748 114.513 262.683 114.496 262.617 114.496C262.551 114.496 262.487 114.513 262.43 114.546C262.373 114.579 262.326 114.626 262.293 114.683C262.26 114.74 262.242 114.805 262.242 114.871ZM274.242 119.526V114.871C274.242 114.805 274.225 114.74 274.192 114.683C274.159 114.626 274.112 114.579 274.055 114.546C273.998 114.513 273.933 114.496 273.867 114.496C273.801 114.496 273.737 114.513 273.68 114.546L268.992 117.258V122.622C268.992 122.688 269.01 122.753 269.043 122.81C269.076 122.867 269.123 122.914 269.18 122.947C269.237 122.98 269.301 122.998 269.367 122.998C269.433 122.998 269.498 122.98 269.555 122.947L273.639 120.582C273.823 120.475 273.976 120.32 274.081 120.135C274.187 119.95 274.243 119.74 274.242 119.526Z" fill="#0A0D0F"/>
<path d="M272.242 128.998H264.242C263.977 128.998 263.723 129.103 263.535 129.29C263.348 129.478 263.242 129.732 263.242 129.998C263.242 130.263 263.348 130.517 263.535 130.705C263.723 130.892 263.977 130.998 264.242 130.998H272.242C272.507 130.998 272.762 130.892 272.949 130.705C273.137 130.517 273.242 130.263 273.242 129.998C273.242 129.732 273.137 129.478 272.949 129.29C272.762 129.103 272.507 128.998 272.242 128.998Z" fill="white"/>
<rect x="244.678" y="169.434" width="47.128" height="47.128" rx="7.564" fill="url(#paint16_linear_9684_115048)"/>
<rect x="244.678" y="169.434" width="47.128" height="47.128" rx="7.564" stroke="url(#paint17_linear_9684_115048)" stroke-width="0.872003"/>
<path d="M267.252 190.798L267.425 187.873C267.216 187.897 267.009 187.932 266.803 187.976C265.668 188.223 264.683 188.758 263.913 189.483L266.419 191.183L266.424 191.181C266.509 191.24 266.613 191.275 266.726 191.275C267.003 191.275 267.228 191.066 267.239 190.804L267.252 190.798Z" fill="white"/>
<path d="M272.376 189.484C271.436 188.604 270.211 188.029 268.885 187.873L269.058 190.794L269.061 190.795C269.065 190.899 269.104 190.998 269.173 191.08C269.345 191.286 269.656 191.325 269.877 191.17L269.886 191.174L272.376 189.484Z" fill="white"/>
<path d="M265.292 192.534L263.004 190.576C262.325 191.634 262.003 192.904 262.152 194.211L265.085 193.4L265.088 193.391C265.193 193.363 265.286 193.304 265.354 193.223C265.527 193.016 265.496 192.718 265.29 192.546L265.292 192.534Z" fill="white"/>
<path d="M274.039 192.332C273.886 191.693 273.628 191.104 273.288 190.577L271.013 192.526L271.014 192.532C270.932 192.6 270.875 192.691 270.851 192.793C270.789 193.051 270.952 193.308 271.215 193.377L271.218 193.388L274.166 194.201C274.228 193.592 274.19 192.963 274.039 192.332Z" fill="white"/>
<path d="M268.622 192.686H267.685L267.101 193.381L267.31 194.251L268.154 194.639L268.996 194.252L269.205 193.383L268.622 192.686Z" fill="white"/>
<path d="M270.808 195.079C270.77 195.072 270.73 195.069 270.69 195.071C270.624 195.074 270.557 195.09 270.493 195.12C270.245 195.234 270.136 195.516 270.244 195.757L270.241 195.762L271.418 198.484C272.554 197.792 273.403 196.758 273.847 195.564L270.813 195.073L270.808 195.079Z" fill="white"/>
<path d="M266.088 195.465C266.034 195.24 265.826 195.086 265.595 195.083C265.561 195.082 265.527 195.085 265.494 195.091L265.489 195.085L262.481 195.573C262.945 196.803 263.813 197.804 264.902 198.473L266.068 195.778L266.059 195.768C266.101 195.675 266.113 195.571 266.088 195.465Z" fill="white"/>
<path d="M268.376 196.312C268.301 196.277 268.219 196.261 268.135 196.263C268.046 196.267 267.958 196.292 267.882 196.338C267.806 196.383 267.743 196.447 267.701 196.523H267.699L266.22 199.082C267.243 199.416 268.373 199.491 269.507 199.244C269.708 199.201 269.905 199.148 270.1 199.086L268.617 196.522H268.606C268.557 196.433 268.478 196.359 268.376 196.312Z" fill="white"/>
<path fill-rule="evenodd" clip-rule="evenodd" d="M267.342 180.333C267.565 180.231 267.808 180.172 268.055 180.16C268.367 180.145 268.677 180.204 268.958 180.333L278.693 184.782C278.945 184.897 279.167 185.064 279.341 185.272C279.515 185.479 279.638 185.721 279.7 185.98L282.106 195.978C282.168 196.237 282.168 196.506 282.106 196.765C282.043 197.024 281.92 197.266 281.746 197.474L275.011 205.492C274.836 205.699 274.615 205.866 274.363 205.981C274.111 206.096 273.835 206.156 273.555 206.155L262.751 206.158C262.471 206.158 262.195 206.098 261.943 205.983C261.691 205.868 261.47 205.7 261.295 205.493L254.558 197.476C254.52 197.431 254.485 197.384 254.452 197.335C254.316 197.137 254.224 196.915 254.181 196.682C254.137 196.45 254.144 196.211 254.199 195.981L256.601 185.982C256.663 185.724 256.786 185.482 256.96 185.274C257.134 185.067 257.356 184.899 257.608 184.784L267.342 180.333ZM267.572 184.168C267.572 183.826 267.832 183.549 268.154 183.549C268.476 183.549 268.737 183.826 268.737 184.168C268.737 184.186 268.737 184.205 268.738 184.225C268.738 184.261 268.739 184.298 268.738 184.327C268.733 184.457 268.712 184.567 268.69 184.679C268.679 184.737 268.668 184.795 268.658 184.857L268.655 184.887C268.607 185.263 268.568 185.576 268.592 185.868C268.612 185.998 268.683 186.06 268.751 186.119C268.762 186.128 268.772 186.138 268.783 186.147C268.785 186.188 268.791 186.322 268.797 186.396C270.649 186.554 272.37 187.364 273.633 188.632L273.855 188.481C273.864 188.482 273.874 188.482 273.885 188.483C273.968 188.489 274.109 188.5 274.208 188.444C274.463 188.28 274.695 188.055 274.973 187.784L274.994 187.764C275.038 187.719 275.078 187.675 275.117 187.632C275.197 187.545 275.274 187.46 275.379 187.374C275.404 187.353 275.439 187.327 275.472 187.303C275.484 187.293 275.497 187.284 275.508 187.275C275.788 187.062 276.176 187.085 276.377 187.325C276.578 187.566 276.513 187.934 276.234 188.147C276.221 188.157 276.207 188.169 276.192 188.18C276.162 188.204 276.131 188.229 276.106 188.246C275.997 188.323 275.894 188.375 275.789 188.428C275.734 188.456 275.679 188.485 275.621 188.517C275.273 188.723 274.984 188.894 274.755 189.099C274.661 189.195 274.655 189.287 274.648 189.375C274.648 189.388 274.647 189.402 274.645 189.415C274.63 189.429 274.595 189.458 274.557 189.491C274.515 189.527 274.47 189.565 274.439 189.593C274.941 190.308 275.317 191.12 275.53 192.008C275.742 192.887 275.774 193.766 275.652 194.611L275.888 194.676C275.893 194.683 275.898 194.691 275.904 194.7C275.951 194.765 276.031 194.878 276.139 194.918C276.436 195.008 276.769 195.041 277.171 195.081L277.184 195.083C277.249 195.088 277.312 195.09 277.374 195.093C277.493 195.097 277.61 195.101 277.743 195.126C277.773 195.131 277.813 195.14 277.85 195.149C277.872 195.155 277.893 195.16 277.912 195.164C278.255 195.243 278.476 195.545 278.405 195.843C278.334 196.14 277.999 196.321 277.653 196.25C277.651 196.25 277.647 196.25 277.644 196.249C277.64 196.248 277.637 196.246 277.633 196.245C277.616 196.242 277.596 196.238 277.577 196.234C277.543 196.228 277.509 196.221 277.483 196.214C277.351 196.181 277.244 196.136 277.135 196.091C277.078 196.068 277.021 196.044 276.96 196.021L276.942 196.015C276.564 195.886 276.25 195.778 275.944 195.736C275.808 195.725 275.729 195.778 275.654 195.828C275.642 195.836 275.63 195.844 275.618 195.851C275.575 195.843 275.444 195.821 275.369 195.809C274.81 197.488 273.621 198.942 272.01 199.853C272.019 199.874 272.03 199.902 272.041 199.931C272.065 199.993 272.092 200.062 272.107 200.078C272.102 200.091 272.096 200.104 272.091 200.117C272.057 200.198 272.021 200.282 272.062 200.407C272.175 200.688 272.358 200.962 272.579 201.292C272.615 201.344 272.652 201.392 272.688 201.44C272.759 201.532 272.828 201.622 272.891 201.737C272.907 201.766 272.927 201.805 272.945 201.842C272.953 201.858 272.96 201.873 272.967 201.887C273.117 202.193 273.007 202.546 272.719 202.679C272.43 202.813 272.069 202.672 271.914 202.363C271.907 202.35 271.9 202.336 271.892 202.321C271.874 202.286 271.855 202.249 271.842 202.22C271.787 202.1 271.756 201.992 271.724 201.881C271.708 201.825 271.692 201.768 271.672 201.709L271.667 201.693C271.537 201.33 271.429 201.028 271.273 200.772C271.196 200.663 271.104 200.636 271.015 200.611C271.002 200.607 270.988 200.603 270.975 200.599C270.966 200.583 270.942 200.542 270.916 200.498C270.893 200.457 270.868 200.414 270.851 200.384C270.525 200.502 270.191 200.599 269.851 200.673C268.339 201.001 266.826 200.868 265.474 200.371L265.342 200.6C265.244 200.625 265.149 200.651 265.091 200.717C264.942 200.887 264.856 201.13 264.764 201.388C264.725 201.497 264.686 201.609 264.64 201.719C264.62 201.779 264.604 201.837 264.587 201.894C264.556 202.003 264.526 202.111 264.472 202.23C264.459 202.257 264.441 202.292 264.424 202.325C264.415 202.341 264.407 202.357 264.399 202.372C264.399 202.372 264.399 202.372 264.399 202.372C264.399 202.372 264.399 202.373 264.399 202.373C264.399 202.373 264.399 202.373 264.399 202.374C264.398 202.374 264.399 202.373 264.399 202.374C264.243 202.681 263.883 202.822 263.594 202.689C263.306 202.556 263.196 202.203 263.346 201.896C263.354 201.88 263.363 201.861 263.373 201.842C263.389 201.808 263.406 201.773 263.421 201.746C263.485 201.631 263.554 201.54 263.625 201.447C263.661 201.4 263.697 201.352 263.733 201.301C263.954 200.97 264.148 200.674 264.261 200.394C264.289 200.3 264.247 200.173 264.209 200.078L264.315 199.835C262.764 198.956 261.539 197.554 260.955 195.82L260.701 195.862C260.693 195.858 260.685 195.853 260.675 195.848C260.602 195.807 260.481 195.74 260.366 195.749C260.059 195.791 259.745 195.899 259.367 196.029L259.35 196.035C259.29 196.057 259.233 196.08 259.177 196.103C259.067 196.148 258.959 196.193 258.827 196.226C258.797 196.234 258.758 196.242 258.72 196.25C258.705 196.253 258.69 196.256 258.676 196.259C258.675 196.259 258.673 196.26 258.671 196.26C258.669 196.261 258.667 196.262 258.665 196.262C258.664 196.262 258.662 196.263 258.661 196.263C258.659 196.263 258.658 196.263 258.657 196.263C258.311 196.335 257.976 196.154 257.905 195.856C257.834 195.558 258.054 195.256 258.398 195.177C258.4 195.176 258.404 195.175 258.406 195.174L258.411 195.173C258.426 195.17 258.442 195.166 258.459 195.162C258.496 195.153 258.536 195.144 258.567 195.139C258.7 195.115 258.816 195.11 258.935 195.106C258.997 195.103 259.06 195.101 259.126 195.096L259.139 195.094C259.541 195.054 259.874 195.021 260.17 194.931C260.254 194.898 260.335 194.797 260.397 194.719C260.405 194.709 260.413 194.699 260.421 194.689L260.665 194.622C260.391 192.81 260.854 191.031 261.854 189.591L261.667 189.432C261.665 189.424 261.664 189.415 261.663 189.406C261.651 189.328 261.629 189.191 261.55 189.11C261.321 188.904 261.032 188.734 260.684 188.528C260.627 188.496 260.572 188.468 260.517 188.44C260.412 188.387 260.309 188.334 260.2 188.257C260.175 188.239 260.144 188.215 260.114 188.191C260.102 188.182 260.091 188.173 260.079 188.164C260.078 188.163 260.077 188.162 260.075 188.161C260.074 188.16 260.072 188.159 260.071 188.158C259.791 187.945 259.727 187.577 259.928 187.336C260.04 187.201 260.213 187.134 260.392 187.14C260.531 187.144 260.676 187.193 260.798 187.286C260.809 187.294 260.821 187.303 260.833 187.313C260.866 187.337 260.902 187.364 260.927 187.385C261.031 187.47 261.108 187.555 261.186 187.641C261.226 187.685 261.266 187.729 261.311 187.775L261.321 187.784C261.604 188.059 261.839 188.288 262.096 188.454C262.215 188.52 262.31 188.506 262.401 188.492C262.415 188.49 262.429 188.488 262.442 188.486C262.512 188.534 262.582 188.582 262.653 188.629C263.644 187.622 264.947 186.876 266.46 186.547C266.807 186.472 267.159 186.42 267.513 186.393L267.527 186.157C267.604 186.085 267.691 185.981 267.716 185.868C267.741 185.57 267.701 185.25 267.652 184.864L267.651 184.857C267.642 184.795 267.631 184.737 267.62 184.679C267.598 184.567 267.577 184.457 267.572 184.327C267.57 184.299 267.571 184.265 267.572 184.231C267.572 184.214 267.573 184.199 267.573 184.184C267.573 184.181 267.572 184.179 267.572 184.176C267.572 184.174 267.572 184.171 267.572 184.168Z" fill="white"/>
<rect x="244.678" y="345.434" width="47.128" height="47.128" rx="7.564" fill="url(#paint18_linear_9684_115048)"/>
<rect x="244.678" y="345.434" width="47.128" height="47.128" rx="7.564" stroke="url(#paint19_linear_9684_115048)" stroke-width="0.872003"/>
<path d="M267.252 366.798L267.425 363.873C267.216 363.897 267.009 363.932 266.803 363.976C265.668 364.223 264.683 364.758 263.913 365.483L266.419 367.183L266.424 367.181C266.509 367.24 266.613 367.275 266.726 367.275C267.003 367.275 267.228 367.066 267.239 366.804L267.252 366.798Z" fill="white"/>
<path d="M272.376 365.484C271.436 364.604 270.211 364.029 268.885 363.873L269.058 366.794L269.061 366.795C269.065 366.899 269.104 366.998 269.173 367.08C269.345 367.286 269.656 367.325 269.877 367.17L269.886 367.174L272.376 365.484Z" fill="white"/>
<path d="M265.292 368.534L263.004 366.576C262.325 367.634 262.003 368.904 262.152 370.211L265.085 369.4L265.088 369.391C265.193 369.363 265.286 369.304 265.354 369.223C265.527 369.016 265.496 368.718 265.29 368.546L265.292 368.534Z" fill="white"/>
<path d="M274.039 368.332C273.886 367.693 273.628 367.104 273.288 366.577L271.013 368.526L271.014 368.532C270.932 368.6 270.875 368.691 270.851 368.793C270.789 369.051 270.952 369.308 271.215 369.377L271.218 369.388L274.166 370.201C274.228 369.592 274.19 368.963 274.039 368.332Z" fill="white"/>
<path d="M268.622 368.686H267.685L267.101 369.381L267.31 370.251L268.154 370.639L268.996 370.252L269.205 369.383L268.622 368.686Z" fill="white"/>
<path d="M270.808 371.079C270.77 371.072 270.73 371.069 270.69 371.071C270.624 371.074 270.557 371.09 270.493 371.12C270.245 371.234 270.136 371.516 270.244 371.757L270.241 371.762L271.418 374.484C272.554 373.792 273.403 372.758 273.847 371.564L270.813 371.073L270.808 371.079Z" fill="white"/>
<path d="M266.088 371.465C266.034 371.24 265.826 371.086 265.595 371.083C265.561 371.082 265.527 371.085 265.494 371.091L265.489 371.085L262.481 371.573C262.945 372.803 263.813 373.804 264.902 374.473L266.068 371.778L266.059 371.768C266.101 371.675 266.113 371.571 266.088 371.465Z" fill="white"/>
<path d="M268.376 372.312C268.301 372.277 268.219 372.261 268.135 372.263C268.046 372.267 267.958 372.292 267.882 372.338C267.806 372.383 267.743 372.447 267.701 372.523H267.699L266.22 375.082C267.243 375.416 268.373 375.491 269.507 375.244C269.708 375.201 269.905 375.148 270.1 375.086L268.617 372.522H268.606C268.557 372.433 268.478 372.359 268.376 372.312Z" fill="white"/>
<path fill-rule="evenodd" clip-rule="evenodd" d="M267.342 356.333C267.565 356.231 267.808 356.172 268.055 356.16C268.367 356.145 268.677 356.204 268.958 356.333L278.693 360.782C278.945 360.897 279.167 361.064 279.341 361.272C279.515 361.479 279.638 361.721 279.7 361.98L282.106 371.978C282.168 372.237 282.168 372.506 282.106 372.765C282.043 373.024 281.92 373.266 281.746 373.474L275.011 381.492C274.836 381.699 274.615 381.866 274.363 381.981C274.111 382.096 273.835 382.156 273.555 382.155L262.751 382.158C262.471 382.158 262.195 382.098 261.943 381.983C261.691 381.868 261.47 381.7 261.295 381.493L254.558 373.476C254.52 373.431 254.485 373.384 254.452 373.335C254.316 373.137 254.224 372.915 254.181 372.682C254.137 372.45 254.144 372.211 254.199 371.981L256.601 361.982C256.663 361.724 256.786 361.482 256.96 361.274C257.134 361.067 257.356 360.899 257.608 360.784L267.342 356.333ZM267.572 360.168C267.572 359.826 267.832 359.549 268.154 359.549C268.476 359.549 268.737 359.826 268.737 360.168C268.737 360.186 268.737 360.205 268.738 360.225C268.738 360.261 268.739 360.298 268.738 360.327C268.733 360.457 268.712 360.567 268.69 360.679C268.679 360.737 268.668 360.795 268.658 360.857L268.655 360.887C268.607 361.263 268.568 361.576 268.592 361.868C268.612 361.998 268.683 362.06 268.751 362.119C268.762 362.128 268.772 362.138 268.783 362.147C268.785 362.188 268.791 362.322 268.797 362.396C270.649 362.554 272.37 363.364 273.633 364.632L273.855 364.481C273.864 364.482 273.874 364.482 273.885 364.483C273.968 364.489 274.109 364.5 274.208 364.444C274.463 364.28 274.695 364.055 274.973 363.784L274.994 363.764C275.038 363.719 275.078 363.675 275.117 363.632C275.197 363.545 275.274 363.46 275.379 363.374C275.404 363.353 275.439 363.327 275.472 363.303C275.484 363.293 275.497 363.284 275.508 363.275C275.788 363.062 276.176 363.085 276.377 363.325C276.578 363.566 276.513 363.934 276.234 364.147C276.221 364.157 276.207 364.169 276.192 364.18C276.162 364.204 276.131 364.229 276.106 364.246C275.997 364.323 275.894 364.375 275.789 364.428C275.734 364.456 275.679 364.485 275.621 364.517C275.273 364.723 274.984 364.894 274.755 365.099C274.661 365.195 274.655 365.287 274.648 365.375C274.648 365.388 274.647 365.402 274.645 365.415C274.63 365.429 274.595 365.458 274.557 365.491C274.515 365.527 274.47 365.565 274.439 365.593C274.941 366.308 275.317 367.12 275.53 368.008C275.742 368.887 275.774 369.766 275.652 370.611L275.888 370.676C275.893 370.683 275.898 370.691 275.904 370.7C275.951 370.765 276.031 370.878 276.139 370.918C276.436 371.008 276.769 371.041 277.171 371.081L277.184 371.083C277.249 371.088 277.312 371.09 277.374 371.093C277.493 371.097 277.61 371.101 277.743 371.126C277.773 371.131 277.813 371.14 277.85 371.149C277.872 371.155 277.893 371.16 277.912 371.164C278.255 371.243 278.476 371.545 278.405 371.843C278.334 372.14 277.999 372.321 277.653 372.25C277.651 372.25 277.647 372.25 277.644 372.249C277.64 372.248 277.637 372.246 277.633 372.245C277.616 372.242 277.596 372.238 277.577 372.234C277.543 372.228 277.509 372.221 277.483 372.214C277.351 372.181 277.244 372.136 277.135 372.091C277.078 372.068 277.021 372.044 276.96 372.021L276.942 372.015C276.564 371.886 276.25 371.778 275.944 371.736C275.808 371.725 275.729 371.778 275.654 371.828C275.642 371.836 275.63 371.844 275.618 371.851C275.575 371.843 275.444 371.821 275.369 371.809C274.81 373.488 273.621 374.942 272.01 375.853C272.019 375.874 272.03 375.902 272.041 375.931C272.065 375.993 272.092 376.062 272.107 376.078C272.102 376.091 272.096 376.104 272.091 376.117C272.057 376.198 272.021 376.282 272.062 376.407C272.175 376.688 272.358 376.962 272.579 377.292C272.615 377.344 272.652 377.392 272.688 377.44C272.759 377.532 272.828 377.622 272.891 377.737C272.907 377.766 272.927 377.805 272.945 377.842C272.953 377.858 272.96 377.873 272.967 377.887C273.117 378.193 273.007 378.546 272.719 378.679C272.43 378.813 272.069 378.672 271.914 378.363C271.907 378.35 271.9 378.336 271.892 378.321C271.874 378.286 271.855 378.249 271.842 378.22C271.787 378.1 271.756 377.992 271.724 377.881C271.708 377.825 271.692 377.768 271.672 377.709L271.667 377.693C271.537 377.33 271.429 377.028 271.273 376.772C271.196 376.663 271.104 376.636 271.015 376.611C271.002 376.607 270.988 376.603 270.975 376.599C270.966 376.583 270.942 376.542 270.916 376.498C270.893 376.457 270.868 376.414 270.851 376.384C270.525 376.502 270.191 376.599 269.851 376.673C268.339 377.001 266.826 376.868 265.474 376.371L265.342 376.6C265.244 376.625 265.149 376.651 265.091 376.717C264.942 376.887 264.856 377.13 264.764 377.388C264.725 377.497 264.686 377.609 264.64 377.719C264.62 377.779 264.604 377.837 264.587 377.894C264.556 378.003 264.526 378.111 264.472 378.23C264.459 378.257 264.441 378.292 264.424 378.325C264.415 378.341 264.407 378.357 264.399 378.372C264.399 378.372 264.399 378.372 264.399 378.372C264.399 378.372 264.399 378.373 264.399 378.373C264.399 378.373 264.399 378.373 264.399 378.374C264.398 378.374 264.399 378.373 264.399 378.374C264.243 378.681 263.883 378.822 263.594 378.689C263.306 378.556 263.196 378.203 263.346 377.896C263.354 377.88 263.363 377.861 263.373 377.842C263.389 377.808 263.406 377.773 263.421 377.746C263.485 377.631 263.554 377.54 263.625 377.447C263.661 377.4 263.697 377.352 263.733 377.301C263.954 376.97 264.148 376.674 264.261 376.394C264.289 376.3 264.247 376.173 264.209 376.078L264.315 375.835C262.764 374.956 261.539 373.554 260.955 371.82L260.701 371.862C260.693 371.858 260.685 371.853 260.675 371.848C260.602 371.807 260.481 371.74 260.366 371.749C260.059 371.791 259.745 371.899 259.367 372.029L259.35 372.035C259.29 372.057 259.233 372.08 259.177 372.103C259.067 372.148 258.959 372.193 258.827 372.226C258.797 372.234 258.758 372.242 258.72 372.25C258.705 372.253 258.69 372.256 258.676 372.259C258.675 372.259 258.673 372.26 258.671 372.26C258.669 372.261 258.667 372.262 258.665 372.262C258.664 372.262 258.662 372.263 258.661 372.263C258.659 372.263 258.658 372.263 258.657 372.263C258.311 372.335 257.976 372.154 257.905 371.856C257.834 371.558 258.054 371.256 258.398 371.177C258.4 371.176 258.404 371.175 258.406 371.174L258.411 371.173C258.426 371.17 258.442 371.166 258.459 371.162C258.496 371.153 258.536 371.144 258.567 371.139C258.7 371.115 258.816 371.11 258.935 371.106C258.997 371.103 259.06 371.101 259.126 371.096L259.139 371.094C259.541 371.054 259.874 371.021 260.17 370.931C260.254 370.898 260.335 370.797 260.397 370.719C260.405 370.709 260.413 370.699 260.421 370.689L260.665 370.622C260.391 368.81 260.854 367.031 261.854 365.591L261.667 365.432C261.665 365.424 261.664 365.415 261.663 365.406C261.651 365.328 261.629 365.191 261.55 365.11C261.321 364.904 261.032 364.734 260.684 364.528C260.627 364.496 260.572 364.468 260.517 364.44C260.412 364.387 260.309 364.334 260.2 364.257C260.175 364.239 260.144 364.215 260.114 364.191C260.102 364.182 260.091 364.173 260.079 364.164C260.078 364.163 260.077 364.162 260.075 364.161C260.074 364.16 260.072 364.159 260.071 364.158C259.791 363.945 259.727 363.577 259.928 363.336C260.04 363.201 260.213 363.134 260.392 363.14C260.531 363.144 260.676 363.193 260.798 363.286C260.809 363.294 260.821 363.303 260.833 363.313C260.866 363.337 260.902 363.364 260.927 363.385C261.031 363.47 261.108 363.555 261.186 363.641C261.226 363.685 261.266 363.729 261.311 363.775L261.321 363.784C261.604 364.059 261.839 364.288 262.096 364.454C262.215 364.52 262.31 364.506 262.401 364.492C262.415 364.49 262.429 364.488 262.442 364.486C262.512 364.534 262.582 364.582 262.653 364.629C263.644 363.622 264.947 362.876 266.46 362.547C266.807 362.472 267.159 362.42 267.513 362.393L267.527 362.157C267.604 362.085 267.691 361.981 267.716 361.868C267.741 361.57 267.701 361.25 267.652 360.864L267.651 360.857C267.642 360.795 267.631 360.737 267.62 360.679C267.598 360.567 267.577 360.457 267.572 360.327C267.57 360.299 267.571 360.265 267.572 360.231C267.572 360.214 267.573 360.199 267.573 360.184C267.573 360.181 267.572 360.179 267.572 360.176C267.572 360.174 267.572 360.171 267.572 360.168Z" fill="white"/>
<rect x="244.742" y="271.498" width="47" height="47" rx="7.5" fill="url(#paint20_linear_9684_115048)"/>
<rect x="244.742" y="271.498" width="47" height="47" rx="7.5" stroke="url(#paint21_linear_9684_115048)"/>
<path d="M278.242 282.998H258.242C256.585 282.998 255.242 284.341 255.242 285.998V299.998C255.242 301.654 256.585 302.998 258.242 302.998H278.242C279.899 302.998 281.242 301.654 281.242 299.998V285.998C281.242 284.341 279.899 282.998 278.242 282.998Z" fill="white"/>
<path d="M272.985 289.212L268.242 291.956L263.499 289.212C263.442 289.179 263.395 289.131 263.362 289.074C263.329 289.017 263.312 288.952 263.312 288.886C263.312 288.82 263.329 288.756 263.362 288.698C263.395 288.641 263.442 288.594 263.499 288.561L267.657 286.155C267.835 286.052 268.037 285.998 268.242 285.998C268.448 285.998 268.649 286.052 268.827 286.155L272.985 288.561C273.042 288.594 273.089 288.641 273.122 288.698C273.155 288.756 273.173 288.82 273.173 288.886C273.173 288.952 273.155 289.017 273.122 289.074C273.089 289.131 273.042 289.179 272.985 289.212ZM262.242 290.871V295.526C262.242 295.74 262.297 295.95 262.403 296.135C262.508 296.32 262.66 296.474 262.844 296.582L266.93 298.947C266.987 298.98 267.051 298.998 267.117 298.998C267.183 298.998 267.248 298.98 267.305 298.947C267.362 298.914 267.409 298.867 267.442 298.81C267.475 298.753 267.492 298.688 267.492 298.622V293.258L262.805 290.546C262.748 290.513 262.683 290.496 262.617 290.496C262.551 290.496 262.487 290.513 262.43 290.546C262.373 290.579 262.326 290.626 262.293 290.683C262.26 290.74 262.242 290.805 262.242 290.871ZM274.242 295.526V290.871C274.242 290.805 274.225 290.74 274.192 290.683C274.159 290.626 274.112 290.579 274.055 290.546C273.998 290.513 273.933 290.496 273.867 290.496C273.801 290.496 273.737 290.513 273.68 290.546L268.992 293.258V298.622C268.992 298.688 269.01 298.753 269.043 298.81C269.076 298.867 269.123 298.914 269.18 298.947C269.237 298.98 269.301 298.998 269.367 298.998C269.433 298.998 269.498 298.98 269.555 298.947L273.639 296.582C273.823 296.475 273.976 296.32 274.081 296.135C274.187 295.95 274.243 295.74 274.242 295.526Z" fill="#0A0D0F"/>
<path d="M272.242 304.998H264.242C263.977 304.998 263.723 305.103 263.535 305.29C263.348 305.478 263.242 305.732 263.242 305.998C263.242 306.263 263.348 306.517 263.535 306.705C263.723 306.892 263.977 306.998 264.242 306.998H272.242C272.507 306.998 272.762 306.892 272.949 306.705C273.137 306.517 273.242 306.263 273.242 305.998C273.242 305.732 273.137 305.478 272.949 305.29C272.762 305.103 272.507 304.998 272.242 304.998Z" fill="white"/>
<rect x="16" y="17.0009" width="75.7143" height="36" rx="4" fill="#F5F5F5"/>
<path d="M32.0169 32.3343H29C28.4477 32.3343 28 32.782 28 33.3343V42.0009C28 42.5532 28.4477 43.0009 29 43.0009H40.7143C41.2666 43.0009 41.7143 42.5532 41.7143 42.0009V33.3343C41.7143 32.782 41.2666 32.3343 40.7143 32.3343H37.748M32.0169 32.3343V29.8665C32.0169 28.2839 33.2999 27.0009 34.8825 27.0009V27.0009C36.4651 27.0009 37.748 28.2839 37.748 29.8665V32.3343M32.0169 32.3343H37.748" stroke="#0A0D0F"/>
<circle cx="34.8574" cy="37.6581" r="1.53711" stroke="#0A0D0F"/>
<path d="M56.5468 32.3049C57.0588 32.3049 57.5148 32.4129 57.9148 32.6289C58.3148 32.8369 58.6308 33.1529 58.8628 33.5769C59.0948 34.0009 59.2108 34.5169 59.2108 35.1249V39.0009H58.1308V35.2809C58.1308 34.6249 57.9668 34.1249 57.6388 33.7809C57.3188 33.4289 56.8828 33.2529 56.3308 33.2529C55.7628 33.2529 55.3108 33.4369 54.9748 33.8049C54.6388 34.1649 54.4708 34.6889 54.4708 35.3769V39.0009H53.3908V35.2809C53.3908 34.6249 53.2268 34.1249 52.8988 33.7809C52.5788 33.4289 52.1428 33.2529 51.5908 33.2529C51.0228 33.2529 50.5708 33.4369 50.2348 33.8049C49.8988 34.1649 49.7308 34.6889 49.7308 35.3769V39.0009H48.6388V32.4249H49.7308V33.3729C49.9468 33.0289 50.2348 32.7649 50.5948 32.5809C50.9628 32.3969 51.3668 32.3049 51.8068 32.3049C52.3588 32.3049 52.8468 32.4289 53.2708 32.6769C53.6948 32.9249 54.0108 33.2889 54.2188 33.7689C54.4028 33.3049 54.7068 32.9449 55.1308 32.6889C55.5548 32.4329 56.0268 32.3049 56.5468 32.3049ZM66.1501 30.6369V31.5249H63.8701V39.0009H62.7781V31.5249H60.4861V30.6369H66.1501ZM68.5863 38.1129H71.5143V39.0009H67.4943V30.6369H68.5863V38.1129ZM75.326 39.0849C74.774 39.0849 74.278 38.9889 73.838 38.7969C73.406 38.5969 73.066 38.3249 72.818 37.9809C72.57 37.6289 72.442 37.2249 72.434 36.7689H73.598C73.638 37.1609 73.798 37.4929 74.078 37.7649C74.366 38.0289 74.782 38.1609 75.326 38.1609C75.846 38.1609 76.254 38.0329 76.55 37.7769C76.854 37.5129 77.006 37.1769 77.006 36.7689C77.006 36.4489 76.918 36.1889 76.742 35.9889C76.566 35.7889 76.346 35.6369 76.082 35.5329C75.818 35.4289 75.462 35.3169 75.014 35.1969C74.462 35.0529 74.018 34.9089 73.682 34.7649C73.354 34.6209 73.07 34.3969 72.83 34.0929C72.598 33.7809 72.482 33.3649 72.482 32.8449C72.482 32.3889 72.598 31.9849 72.83 31.6329C73.062 31.2809 73.386 31.0089 73.802 30.8169C74.226 30.6249 74.71 30.5289 75.254 30.5289C76.038 30.5289 76.678 30.7249 77.174 31.1169C77.678 31.5089 77.962 32.0289 78.026 32.6769H76.826C76.786 32.3569 76.618 32.0769 76.322 31.8369C76.026 31.5889 75.634 31.4649 75.146 31.4649C74.69 31.4649 74.318 31.5849 74.03 31.8249C73.742 32.0569 73.598 32.3849 73.598 32.8089C73.598 33.1129 73.682 33.3609 73.85 33.5529C74.026 33.7449 74.238 33.8929 74.486 33.9969C74.742 34.0929 75.098 34.2049 75.554 34.3329C76.106 34.4849 76.55 34.6369 76.886 34.7889C77.222 34.9329 77.51 35.1609 77.75 35.4729C77.99 35.7769 78.11 36.1929 78.11 36.7209C78.11 37.1289 78.002 37.5129 77.786 37.8729C77.57 38.2329 77.25 38.5249 76.826 38.7489C76.402 38.9729 75.902 39.0849 75.326 39.0849Z" fill="#0A0D0F"/>
<rect x="94.7148" y="17.0009" width="88.9856" height="36" rx="4" fill="#F5F5F5"/>
<path d="M113.848 27.4624L114.021 27.5034L114.022 27.5044L119.482 29.2847L119.483 29.2856C119.85 29.4048 120.095 29.6986 120.152 30.0259L120.165 30.1684L120.2 35.48C120.209 36.8748 119.709 38.3223 118.806 39.4282L118.619 39.645C118.217 40.0893 117.708 40.4884 117.057 40.8559L116.769 41.0112V41.0122L113.832 42.5366L113.83 42.5376C113.812 42.5469 113.79 42.5519 113.766 42.5522C113.753 42.552 113.741 42.5509 113.729 42.5483L113.698 42.5376L110.735 41.0464C110.036 40.6938 109.484 40.3119 109.046 39.8862L108.865 39.7007C107.896 38.6564 107.332 37.2365 107.258 35.8315L107.25 35.5513L107.215 30.2436C107.212 29.8612 107.468 29.4935 107.887 29.3511L107.886 29.3501L113.325 27.5073L113.329 27.5063C113.492 27.4497 113.672 27.435 113.848 27.4624Z" stroke="#0A0D0F" stroke-width="1.00022"/>
<path d="M117.009 32.862L113.314 36.5574C113.265 36.6064 113.206 36.6454 113.142 36.672C113.078 36.6985 113.009 36.7122 112.94 36.7122C112.871 36.7122 112.802 36.6985 112.738 36.672C112.674 36.6454 112.616 36.6064 112.567 36.5574L110.983 34.9736C110.884 34.8746 110.828 34.7402 110.828 34.6001C110.828 34.46 110.884 34.3257 110.983 34.2266C111.082 34.1276 111.216 34.0719 111.356 34.0719C111.496 34.0719 111.631 34.1276 111.73 34.2266L112.94 35.4369L116.262 32.115C116.311 32.0659 116.369 32.027 116.433 32.0005C116.497 31.9739 116.566 31.9602 116.635 31.9602C116.705 31.9602 116.774 31.9739 116.838 32.0005C116.902 32.027 116.96 32.0659 117.009 32.115C117.058 32.164 117.097 32.2222 117.123 32.2863C117.15 32.3504 117.164 32.4191 117.164 32.4885C117.164 32.5578 117.15 32.6265 117.123 32.6906C117.097 32.7547 117.058 32.8129 117.009 32.862Z" fill="#0A0D0F"/>
<path d="M131.417 39.0849C130.641 39.0849 129.933 38.9049 129.293 38.5449C128.653 38.1769 128.145 37.6689 127.769 37.0209C127.401 36.3649 127.217 35.6289 127.217 34.8129C127.217 33.9969 127.401 33.2649 127.769 32.6169C128.145 31.9609 128.653 31.4529 129.293 31.0929C129.933 30.7249 130.641 30.5409 131.417 30.5409C132.201 30.5409 132.913 30.7249 133.553 31.0929C134.193 31.4529 134.697 31.9569 135.065 32.6049C135.433 33.2529 135.617 33.9889 135.617 34.8129C135.617 35.6369 135.433 36.3729 135.065 37.0209C134.697 37.6689 134.193 38.1769 133.553 38.5449C132.913 38.9049 132.201 39.0849 131.417 39.0849ZM131.417 38.1369C132.001 38.1369 132.525 38.0009 132.989 37.7289C133.461 37.4569 133.829 37.0689 134.093 36.5649C134.365 36.0609 134.501 35.4769 134.501 34.8129C134.501 34.1409 134.365 33.5569 134.093 33.0609C133.829 32.5569 133.465 32.1689 133.001 31.8969C132.537 31.6249 132.009 31.4889 131.417 31.4889C130.825 31.4889 130.297 31.6249 129.833 31.8969C129.369 32.1689 129.001 32.5569 128.729 33.0609C128.465 33.5569 128.333 34.1409 128.333 34.8129C128.333 35.4769 128.465 36.0609 128.729 36.5649C129.001 37.0689 129.369 37.4569 129.833 37.7289C130.305 38.0009 130.833 38.1369 131.417 38.1369ZM142.003 37.1409H138.355L137.683 39.0009H136.531L139.555 30.6849H140.815L143.827 39.0009H142.675L142.003 37.1409ZM141.691 36.2529L140.179 32.0289L138.667 36.2529H141.691ZM150.977 32.4249V39.0009H149.885V38.0289C149.677 38.3649 149.385 38.6289 149.009 38.8209C148.641 39.0049 148.233 39.0969 147.785 39.0969C147.273 39.0969 146.813 38.9929 146.405 38.7849C145.997 38.5689 145.673 38.2489 145.433 37.8249C145.201 37.4009 145.085 36.8849 145.085 36.2769V32.4249H146.165V36.1329C146.165 36.7809 146.329 37.2809 146.657 37.6329C146.985 37.9769 147.433 38.1489 148.001 38.1489C148.585 38.1489 149.045 37.9689 149.381 37.6089C149.717 37.2489 149.885 36.7249 149.885 36.0369V32.4249H150.977ZM154.152 33.3249V37.2009C154.152 37.5209 154.22 37.7489 154.356 37.8849C154.492 38.0129 154.728 38.0769 155.064 38.0769H155.868V39.0009H154.884C154.276 39.0009 153.82 38.8609 153.516 38.5809C153.212 38.3009 153.06 37.8409 153.06 37.2009V33.3249H152.208V32.4249H153.06V30.7689H154.152V32.4249H155.868V33.3249H154.152ZM160.456 32.3049C160.952 32.3049 161.4 32.4129 161.8 32.6289C162.2 32.8369 162.512 33.1529 162.736 33.5769C162.968 34.0009 163.084 34.5169 163.084 35.1249V39.0009H162.004V35.2809C162.004 34.6249 161.84 34.1249 161.512 33.7809C161.184 33.4289 160.736 33.2529 160.168 33.2529C159.592 33.2529 159.132 33.4329 158.788 33.7929C158.452 34.1529 158.284 34.6769 158.284 35.3649V39.0009H157.192V30.1209H158.284V33.3609C158.5 33.0249 158.796 32.7649 159.172 32.5809C159.556 32.3969 159.984 32.3049 160.456 32.3049ZM164.555 38.1249C165.571 37.3089 166.367 36.6409 166.943 36.1209C167.519 35.5929 168.003 35.0449 168.395 34.4769C168.795 33.9009 168.995 33.3369 168.995 32.7849C168.995 32.2649 168.867 31.8569 168.611 31.5609C168.363 31.2569 167.959 31.1049 167.399 31.1049C166.855 31.1049 166.431 31.2769 166.127 31.6209C165.831 31.9569 165.671 32.4089 165.647 32.9769H164.591C164.623 32.0809 164.895 31.3889 165.407 30.9009C165.919 30.4129 166.579 30.1689 167.387 30.1689C168.211 30.1689 168.863 30.3969 169.343 30.8529C169.831 31.3089 170.075 31.9369 170.075 32.7369C170.075 33.4009 169.875 34.0489 169.475 34.6809C169.083 35.3049 168.635 35.8569 168.131 36.3369C167.627 36.8089 166.983 37.3609 166.199 37.9929H170.327V38.9049H164.555V38.1249Z" fill="#242424"/>
</g>
<rect x="0.311567" y="0.651533" width="333.377" height="470.377" rx="9.65858" stroke="url(#paint22_linear_9684_115048)" stroke-opacity="0.47" stroke-width="0.623134"/>
<defs>
<linearGradient id="paint0_linear_9684_115048" x1="167" y1="0.339966" x2="167" y2="471.34" gradientUnits="userSpaceOnUse">
<stop stop-color="#161C20"/>
<stop offset="1" stop-color="#0A0D0F"/>
</linearGradient>
<radialGradient id="paint1_radial_9684_115048" cx="0" cy="0" r="1" gradientUnits="userSpaceOnUse" gradientTransform="translate(168.5 231.5) scale(172.5 288.984)">
<stop stop-color="#D9D9D9" stop-opacity="0.8"/>
<stop offset="1" stop-color="#737373"/>
</radialGradient>
<linearGradient id="paint2_linear_9684_115048" x1="294.483" y1="114.788" x2="344.184" y2="96.1994" gradientUnits="userSpaceOnUse">
<stop stop-color="#33373A"/>
<stop offset="1" stop-color="#33373A" stop-opacity="0"/>
</linearGradient>
<linearGradient id="paint3_linear_9684_115048" x1="333.357" y1="146.928" x2="289.095" y2="129.504" gradientUnits="userSpaceOnUse">
<stop stop-color="#33373A" stop-opacity="0"/>
<stop offset="1" stop-color="#33373A"/>
</linearGradient>
<linearGradient id="paint4_linear_9684_115048" x1="325.146" y1="183" x2="268.763" y2="183" gradientUnits="userSpaceOnUse">
<stop stop-color="#33373A" stop-opacity="0"/>
<stop offset="1" stop-color="#33373A"/>
</linearGradient>
<linearGradient id="paint5_linear_9684_115048" x1="294.483" y1="292.364" x2="344.184" y2="273.776" gradientUnits="userSpaceOnUse">
<stop stop-color="#33373A"/>
<stop offset="1" stop-color="#33373A" stop-opacity="0"/>
</linearGradient>
<linearGradient id="paint6_linear_9684_115048" x1="333.357" y1="324.504" x2="289.095" y2="307.081" gradientUnits="userSpaceOnUse">
<stop stop-color="#33373A" stop-opacity="0"/>
<stop offset="1" stop-color="#33373A"/>
</linearGradient>
<linearGradient id="paint7_linear_9684_115048" x1="329.146" y1="359" x2="272.763" y2="359" gradientUnits="userSpaceOnUse">
<stop stop-color="#33373A" stop-opacity="0"/>
<stop offset="1" stop-color="#33373A"/>
</linearGradient>
<linearGradient id="paint8_linear_9684_115048" x1="44" y1="218.339" x2="44" y2="266.339" gradientUnits="userSpaceOnUse">
<stop stop-color="#161C20"/>
<stop offset="1" stop-color="#0A0D0F"/>
</linearGradient>
<linearGradient id="paint9_linear_9684_115048" x1="44" y1="242.323" x2="44" y2="266.339" gradientUnits="userSpaceOnUse">
<stop stop-color="#3B3D3F" stop-opacity="0.5"/>
<stop offset="1" stop-color="#3B3D3F" stop-opacity="0.89"/>
</linearGradient>
<linearGradient id="paint10_linear_9684_115048" x1="149" y1="130.339" x2="149" y2="178.339" gradientUnits="userSpaceOnUse">
<stop stop-color="#161C20"/>
<stop offset="1" stop-color="#0A0D0F"/>
</linearGradient>
<linearGradient id="paint11_linear_9684_115048" x1="149" y1="154.323" x2="149" y2="178.339" gradientUnits="userSpaceOnUse">
<stop stop-color="#3B3D3F" stop-opacity="0.5"/>
<stop offset="1" stop-color="#3B3D3F" stop-opacity="0.89"/>
</linearGradient>
<linearGradient id="paint12_linear_9684_115048" x1="149" y1="306.339" x2="149" y2="354.339" gradientUnits="userSpaceOnUse">
<stop stop-color="#161C20"/>
<stop offset="1" stop-color="#0A0D0F"/>
</linearGradient>
<linearGradient id="paint13_linear_9684_115048" x1="149" y1="330.323" x2="149" y2="354.339" gradientUnits="userSpaceOnUse">
<stop stop-color="#3B3D3F" stop-opacity="0.5"/>
<stop offset="1" stop-color="#3B3D3F" stop-opacity="0.89"/>
</linearGradient>
<linearGradient id="paint14_linear_9684_115048" x1="268.242" y1="94.9976" x2="268.242" y2="142.998" gradientUnits="userSpaceOnUse">
<stop stop-color="#161C20"/>
<stop offset="1" stop-color="#0A0D0F"/>
</linearGradient>
<linearGradient id="paint15_linear_9684_115048" x1="268.242" y1="118.982" x2="268.242" y2="142.998" gradientUnits="userSpaceOnUse">
<stop stop-color="#3B3D3F" stop-opacity="0.5"/>
<stop offset="1" stop-color="#3B3D3F" stop-opacity="0.89"/>
</linearGradient>
<linearGradient id="paint16_linear_9684_115048" x1="268.242" y1="168.998" x2="268.242" y2="216.998" gradientUnits="userSpaceOnUse">
<stop stop-color="#161C20"/>
<stop offset="1" stop-color="#0A0D0F"/>
</linearGradient>
<linearGradient id="paint17_linear_9684_115048" x1="268.242" y1="192.982" x2="268.242" y2="216.998" gradientUnits="userSpaceOnUse">
<stop stop-color="#3B3D3F" stop-opacity="0.5"/>
<stop offset="1" stop-color="#3B3D3F" stop-opacity="0.89"/>
</linearGradient>
<linearGradient id="paint18_linear_9684_115048" x1="268.242" y1="344.998" x2="268.242" y2="392.998" gradientUnits="userSpaceOnUse">
<stop stop-color="#161C20"/>
<stop offset="1" stop-color="#0A0D0F"/>
</linearGradient>
<linearGradient id="paint19_linear_9684_115048" x1="268.242" y1="368.982" x2="268.242" y2="392.998" gradientUnits="userSpaceOnUse">
<stop stop-color="#3B3D3F" stop-opacity="0.5"/>
<stop offset="1" stop-color="#3B3D3F" stop-opacity="0.89"/>
</linearGradient>
<linearGradient id="paint20_linear_9684_115048" x1="268.242" y1="270.998" x2="268.242" y2="318.998" gradientUnits="userSpaceOnUse">
<stop stop-color="#161C20"/>
<stop offset="1" stop-color="#0A0D0F"/>
</linearGradient>
<linearGradient id="paint21_linear_9684_115048" x1="268.242" y1="294.982" x2="268.242" y2="318.998" gradientUnits="userSpaceOnUse">
<stop stop-color="#3B3D3F" stop-opacity="0.5"/>
<stop offset="1" stop-color="#3B3D3F" stop-opacity="0.89"/>
</linearGradient>
<linearGradient id="paint22_linear_9684_115048" x1="167" y1="0.339966" x2="167" y2="471.34" gradientUnits="userSpaceOnUse">
<stop stop-color="#3B3D3F" stop-opacity="0.4"/>
<stop offset="1" stop-color="#3B3D3F"/>
</linearGradient>
<clipPath id="clip0_9684_115048">
<rect y="0.339966" width="334" height="471" rx="9.97015" fill="white"/>
</clipPath>
<clipPath id="clip1_9684_115048">
<rect width="28" height="28" fill="white" transform="translate(30 228.339)"/>
</clipPath>
<clipPath id="clip2_9684_115048">
<rect width="28" height="28" fill="white" transform="translate(135 140.339)"/>
</clipPath>
<clipPath id="clip3_9684_115048">
<rect width="28" height="28" fill="white" transform="translate(135 316.339)"/>
</clipPath>
</defs>
</svg>
