<svg width="334" height="425" viewBox="0 0 334 425" fill="none" xmlns="http://www.w3.org/2000/svg">
<g clip-path="url(#clip0_9684_115474)">
<rect y="0.339966" width="334" height="424" rx="9.97015" fill="url(#paint0_linear_9684_115474)"/>
<mask id="mask0_9684_115474" style="mask-type:alpha" maskUnits="userSpaceOnUse" x="-14" y="0" width="356" height="425">
<rect x="-14" y="0.00012207" width="356" height="424" fill="url(#paint1_radial_9684_115474)"/>
</mask>
<g mask="url(#mask0_9684_115474)">
<g opacity="0.1">
<path d="M262.621 -156L-178 98.3927" stroke="#3B3D3F" stroke-width="0.623134"/>
<path d="M275.084 -134.414L-165.537 119.979" stroke="#3B3D3F" stroke-width="0.623134"/>
<path d="M287.547 -112.828L-153.075 141.565" stroke="#3B3D3F" stroke-width="0.623134"/>
<path d="M300.01 -91.2422L-140.612 163.151" stroke="#3B3D3F" stroke-width="0.623134"/>
<path d="M312.473 -69.6562L-128.149 184.737" stroke="#3B3D3F" stroke-width="0.623134"/>
<path d="M324.934 -48.0702L-115.688 206.323" stroke="#3B3D3F" stroke-width="0.623134"/>
<path d="M337.396 -26.4842L-103.225 227.909" stroke="#3B3D3F" stroke-width="0.623134"/>
<path d="M349.859 -4.89819L-90.7621 249.495" stroke="#3B3D3F" stroke-width="0.623134"/>
<path d="M362.322 16.6878L-78.2992 271.081" stroke="#3B3D3F" stroke-width="0.623134"/>
<path d="M374.785 38.2739L-65.8363 292.667" stroke="#3B3D3F" stroke-width="0.623134"/>
<path d="M387.248 59.8599L-53.3734 314.253" stroke="#3B3D3F" stroke-width="0.623134"/>
<path d="M399.711 81.4459L-40.9105 335.839" stroke="#3B3D3F" stroke-width="0.623134"/>
<path d="M412.174 103.032L-28.4476 357.425" stroke="#3B3D3F" stroke-width="0.623134"/>
<path d="M424.637 124.618L-15.9847 379.011" stroke="#3B3D3F" stroke-width="0.623134"/>
<path d="M437.1 146.204L-3.52184 400.597" stroke="#3B3D3F" stroke-width="0.623134"/>
<path d="M449.561 167.79L8.9391 422.183" stroke="#3B3D3F" stroke-width="0.623134"/>
<path d="M462.023 189.376L21.402 443.769" stroke="#3B3D3F" stroke-width="0.623134"/>
<path d="M474.486 210.962L33.8649 465.355" stroke="#3B3D3F" stroke-width="0.623134"/>
<path d="M486.949 232.548L46.3278 486.941" stroke="#3B3D3F" stroke-width="0.623134"/>
<path d="M499.412 254.134L58.7907 508.527" stroke="#3B3D3F" stroke-width="0.623134"/>
<path d="M511.875 275.72L71.2536 530.113" stroke="#3B3D3F" stroke-width="0.623134"/>
<path d="M524.338 297.306L83.7164 551.699" stroke="#3B3D3F" stroke-width="0.623134"/>
<g clip-path="url(#clip1_9684_115474)">
<rect x="249.595" y="-154.402" width="563.688" height="0.311567" transform="rotate(60 249.595 -154.402)" fill="#3B3D3F" stroke="#3B3D3F" stroke-width="0.311567"/>
<rect x="227.47" y="-141.627" width="563.688" height="0.311567" transform="rotate(60 227.47 -141.627)" fill="#3B3D3F" stroke="#3B3D3F" stroke-width="0.311567"/>
<rect x="205.343" y="-128.853" width="563.688" height="0.311567" transform="rotate(60 205.343 -128.853)" fill="#3B3D3F" stroke="#3B3D3F" stroke-width="0.311567"/>
<rect x="183.218" y="-116.079" width="563.688" height="0.311567" transform="rotate(60 183.218 -116.079)" fill="#3B3D3F" stroke="#3B3D3F" stroke-width="0.311567"/>
<rect x="161.093" y="-103.305" width="563.688" height="0.311567" transform="rotate(60 161.093 -103.305)" fill="#3B3D3F" stroke="#3B3D3F" stroke-width="0.311567"/>
<rect x="138.966" y="-90.5304" width="563.688" height="0.311567" transform="rotate(60 138.966 -90.5304)" fill="#3B3D3F" stroke="#3B3D3F" stroke-width="0.311567"/>
<rect x="116.841" y="-77.7562" width="563.688" height="0.311567" transform="rotate(60 116.841 -77.7562)" fill="#3B3D3F" stroke="#3B3D3F" stroke-width="0.311567"/>
<rect x="94.7164" y="-64.9819" width="563.688" height="0.311567" transform="rotate(60 94.7164 -64.9819)" fill="#3B3D3F" stroke="#3B3D3F" stroke-width="0.311567"/>
<rect x="72.5895" y="-52.2077" width="563.688" height="0.311567" transform="rotate(60 72.5895 -52.2077)" fill="#3B3D3F" stroke="#3B3D3F" stroke-width="0.311567"/>
<rect x="50.4645" y="-39.4334" width="563.688" height="0.311567" transform="rotate(60 50.4645 -39.4334)" fill="#3B3D3F" stroke="#3B3D3F" stroke-width="0.311567"/>
<rect x="28.3395" y="-26.6591" width="563.688" height="0.311567" transform="rotate(60 28.3395 -26.6591)" fill="#3B3D3F" stroke="#3B3D3F" stroke-width="0.311567"/>
<rect x="6.21251" y="-13.8849" width="563.688" height="0.311567" transform="rotate(60 6.21251 -13.8849)" fill="#3B3D3F" stroke="#3B3D3F" stroke-width="0.311567"/>
<rect x="-15.9125" y="-1.11068" width="563.688" height="0.311567" transform="rotate(60 -15.9125 -1.11068)" fill="#3B3D3F" stroke="#3B3D3F" stroke-width="0.311567"/>
<rect x="-38.0375" y="11.6636" width="563.688" height="0.311567" transform="rotate(60 -38.0375 11.6636)" fill="#3B3D3F" stroke="#3B3D3F" stroke-width="0.311567"/>
<rect x="-60.1644" y="24.4378" width="563.688" height="0.311567" transform="rotate(60 -60.1644 24.4378)" fill="#3B3D3F" stroke="#3B3D3F" stroke-width="0.311567"/>
<rect x="-82.2894" y="37.2121" width="563.688" height="0.311567" transform="rotate(60 -82.2894 37.2121)" fill="#3B3D3F" stroke="#3B3D3F" stroke-width="0.311567"/>
<rect x="-104.414" y="49.9864" width="563.688" height="0.311567" transform="rotate(60 -104.414 49.9864)" fill="#3B3D3F" stroke="#3B3D3F" stroke-width="0.311567"/>
<rect x="-126.541" y="62.7607" width="563.688" height="0.311567" transform="rotate(60 -126.541 62.7607)" fill="#3B3D3F" stroke="#3B3D3F" stroke-width="0.311567"/>
<rect x="-148.666" y="75.5349" width="563.688" height="0.311567" transform="rotate(60 -148.666 75.5349)" fill="#3B3D3F" stroke="#3B3D3F" stroke-width="0.311567"/>
<rect x="-170.791" y="88.3092" width="563.688" height="0.311567" transform="rotate(60 -170.791 88.3092)" fill="#3B3D3F" stroke="#3B3D3F" stroke-width="0.311567"/>
<rect x="-192.918" y="101.083" width="563.688" height="0.311567" transform="rotate(60 -192.918 101.083)" fill="#3B3D3F" stroke="#3B3D3F" stroke-width="0.311567"/>
</g>
</g>
</g>
<path d="M143 332H100.25C97.357 332 95.0119 329.655 95.0119 326.762V250.238C95.0119 247.345 92.6667 245 89.7739 245H74" stroke="#33373A" stroke-linecap="round"/>
<path d="M143 158H100.25C97.357 158 95.0119 160.345 95.0119 163.238V239.762C95.0119 242.655 92.6667 245 89.7739 245H74" stroke="#33373A" stroke-linecap="round"/>
<rect x="27.436" y="220.776" width="47.128" height="47.128" rx="7.564" fill="url(#paint2_linear_9684_115474)"/>
<rect x="27.436" y="220.776" width="47.128" height="47.128" rx="7.564" stroke="url(#paint3_linear_9684_115474)" stroke-width="0.872003"/>
<g clip-path="url(#clip2_9684_115474)">
<mask id="mask1_9684_115474" style="mask-type:luminance" maskUnits="userSpaceOnUse" x="34" y="233" width="34" height="38">
<path d="M34.123 233.431H67.8257V270.159H34.123V233.431Z" fill="white"/>
</mask>
<g mask="url(#mask1_9684_115474)">
<path d="M45.755 245.087L43.9818 243.984L44.019 245.67L45.7922 246.774L45.755 245.087ZM48.3093 250.99L48.2721 249.34L46.7222 248.373C46.6974 248.361 46.6726 248.336 46.6602 248.324L46.6974 249.985L48.3093 250.99ZM42.7666 253.209L38.7119 250.692L38.6127 246.476L40.5967 245.62L40.5595 243.934L37.3851 245.298C37.1371 245.41 36.9883 245.633 37.0007 245.893L37.1247 250.952C37.1247 251.213 37.2859 251.473 37.5339 251.622L42.3946 254.635C42.6178 254.772 42.8906 254.809 43.1262 254.747C43.151 254.734 43.1758 254.734 43.2006 254.722L46.189 253.432L44.5646 252.428L42.7666 253.209Z" fill="#6DC28B"/>
</g>
<mask id="mask2_9684_115474" style="mask-type:luminance" maskUnits="userSpaceOnUse" x="34" y="233" width="34" height="38">
<path d="M34.123 233.431H67.8257V270.159H34.123V233.431Z" fill="white"/>
</mask>
<g mask="url(#mask2_9684_115474)">
<path d="M55.8731 243.885C55.8607 243.587 55.6871 243.277 55.3895 243.104L49.4872 239.446L49.3012 239.52L49.3384 241.293L54.0132 244.195L54.1247 248.932L55.9103 250.035L56.0095 249.998L55.8731 243.885ZM48.8052 252.205L43.3121 248.808L43.1757 243.104L45.6805 242.025L45.6309 240.053L41.7497 241.727C41.4646 241.851 41.291 242.112 41.3034 242.422L41.4646 249.118C41.4646 249.428 41.6506 249.725 41.9481 249.899L48.3836 253.891C48.644 254.053 48.9664 254.102 49.2392 254.015C49.264 254.003 49.2888 253.991 49.3136 253.991L53.108 252.354L51.2232 251.188L48.8052 252.205Z" fill="#6DC28B"/>
</g>
<mask id="mask3_9684_115474" style="mask-type:luminance" maskUnits="userSpaceOnUse" x="34" y="233" width="34" height="38">
<path d="M34.123 233.431H67.8257V270.159H34.123V233.431Z" fill="white"/>
</mask>
<g mask="url(#mask3_9684_115474)">
<path d="M64.2417 239.198L55.9958 234.089C55.6858 233.903 55.3263 233.853 55.0163 233.953C54.9915 233.965 54.9543 233.977 54.9295 233.99L46.882 237.462C46.5596 237.598 46.3612 237.896 46.3736 238.255L46.572 246.836C46.5844 247.183 46.7952 247.53 47.13 247.729L55.3759 252.837C55.6734 253.023 56.0454 253.073 56.3554 252.974C56.3802 252.961 56.4174 252.949 56.4422 252.937L64.4897 249.465C64.8121 249.328 65.0105 249.018 64.9981 248.671L64.7997 240.09C64.7873 239.743 64.5765 239.408 64.2417 239.198ZM55.8594 250.915L48.6924 246.476L48.5188 239.024L55.5122 236.011L62.6793 240.45L62.8529 247.902L55.8594 250.915Z" fill="#6DC28B"/>
</g>
</g>
<rect x="143.436" y="132.776" width="47.128" height="47.128" rx="7.564" fill="url(#paint4_linear_9684_115474)"/>
<rect x="143.436" y="132.776" width="47.128" height="47.128" rx="7.564" stroke="url(#paint5_linear_9684_115474)" stroke-width="0.872003"/>
<g clip-path="url(#clip3_9684_115474)">
<mask id="mask4_9684_115474" style="mask-type:luminance" maskUnits="userSpaceOnUse" x="150" y="145" width="34" height="38">
<path d="M150.123 145.431H183.826V182.159H150.123V145.431Z" fill="white"/>
</mask>
<g mask="url(#mask4_9684_115474)">
<path d="M161.755 157.087L159.982 155.984L160.019 157.67L161.792 158.774L161.755 157.087ZM164.309 162.99L164.272 161.34L162.722 160.373C162.697 160.361 162.673 160.336 162.66 160.324L162.697 161.985L164.309 162.99ZM158.767 165.209L154.712 162.692L154.613 158.476L156.597 157.62L156.559 155.934L153.385 157.298C153.137 157.41 152.988 157.633 153.001 157.893L153.125 162.952C153.125 163.213 153.286 163.473 153.534 163.622L158.395 166.635C158.618 166.772 158.891 166.809 159.126 166.747C159.151 166.734 159.176 166.734 159.201 166.722L162.189 165.432L160.565 164.428L158.767 165.209Z" fill="white"/>
</g>
<mask id="mask5_9684_115474" style="mask-type:luminance" maskUnits="userSpaceOnUse" x="150" y="145" width="34" height="38">
<path d="M150.123 145.431H183.826V182.159H150.123V145.431Z" fill="white"/>
</mask>
<g mask="url(#mask5_9684_115474)">
<path d="M171.873 155.885C171.861 155.587 171.687 155.277 171.39 155.104L165.487 151.446L165.301 151.52L165.338 153.293L170.013 156.195L170.125 160.932L171.91 162.035L172.01 161.998L171.873 155.885ZM164.805 164.205L159.312 160.808L159.176 155.104L161.68 154.025L161.631 152.053L157.75 153.727C157.465 153.851 157.291 154.112 157.303 154.422L157.465 161.118C157.465 161.428 157.651 161.725 157.948 161.899L164.384 165.891C164.644 166.053 164.966 166.102 165.239 166.015C165.264 166.003 165.289 165.991 165.314 165.991L169.108 164.354L167.223 163.188L164.805 164.205Z" fill="white"/>
</g>
<mask id="mask6_9684_115474" style="mask-type:luminance" maskUnits="userSpaceOnUse" x="150" y="145" width="34" height="38">
<path d="M150.123 145.431H183.826V182.159H150.123V145.431Z" fill="white"/>
</mask>
<g mask="url(#mask6_9684_115474)">
<path d="M180.242 151.198L171.996 146.089C171.686 145.903 171.326 145.853 171.016 145.953C170.991 145.965 170.954 145.977 170.929 145.99L162.882 149.462C162.56 149.598 162.361 149.896 162.374 150.255L162.572 158.836C162.584 159.183 162.795 159.53 163.13 159.729L171.376 164.837C171.673 165.023 172.045 165.073 172.355 164.974C172.38 164.961 172.417 164.949 172.442 164.937L180.49 161.465C180.812 161.328 181.01 161.018 180.998 160.671L180.8 152.09C180.787 151.743 180.576 151.408 180.242 151.198ZM171.859 162.915L164.692 158.476L164.519 151.024L171.512 148.011L178.679 152.45L178.853 159.902L171.859 162.915Z" fill="white"/>
</g>
</g>
<rect x="143.436" y="308.776" width="47.128" height="47.128" rx="7.564" fill="url(#paint6_linear_9684_115474)"/>
<rect x="143.436" y="308.776" width="47.128" height="47.128" rx="7.564" stroke="url(#paint7_linear_9684_115474)" stroke-width="0.872003"/>
<g clip-path="url(#clip4_9684_115474)">
<mask id="mask7_9684_115474" style="mask-type:luminance" maskUnits="userSpaceOnUse" x="150" y="321" width="34" height="38">
<path d="M150.123 321.431H183.826V358.159H150.123V321.431Z" fill="white"/>
</mask>
<g mask="url(#mask7_9684_115474)">
<path d="M161.755 333.087L159.982 331.984L160.019 333.67L161.792 334.774L161.755 333.087ZM164.309 338.99L164.272 337.34L162.722 336.373C162.697 336.361 162.673 336.336 162.66 336.324L162.697 337.985L164.309 338.99ZM158.767 341.209L154.712 338.692L154.613 334.476L156.597 333.62L156.559 331.934L153.385 333.298C153.137 333.41 152.988 333.633 153.001 333.893L153.125 338.952C153.125 339.213 153.286 339.473 153.534 339.622L158.395 342.635C158.618 342.772 158.891 342.809 159.126 342.747C159.151 342.734 159.176 342.734 159.201 342.722L162.189 341.432L160.565 340.428L158.767 341.209Z" fill="white"/>
</g>
<mask id="mask8_9684_115474" style="mask-type:luminance" maskUnits="userSpaceOnUse" x="150" y="321" width="34" height="38">
<path d="M150.123 321.431H183.826V358.159H150.123V321.431Z" fill="white"/>
</mask>
<g mask="url(#mask8_9684_115474)">
<path d="M171.873 331.885C171.861 331.587 171.687 331.277 171.39 331.104L165.487 327.446L165.301 327.52L165.338 329.293L170.013 332.195L170.125 336.932L171.91 338.035L172.01 337.998L171.873 331.885ZM164.805 340.205L159.312 336.808L159.176 331.104L161.68 330.025L161.631 328.053L157.75 329.727C157.465 329.851 157.291 330.112 157.303 330.422L157.465 337.118C157.465 337.428 157.651 337.725 157.948 337.899L164.384 341.891C164.644 342.053 164.966 342.102 165.239 342.015C165.264 342.003 165.289 341.991 165.314 341.991L169.108 340.354L167.223 339.188L164.805 340.205Z" fill="white"/>
</g>
<mask id="mask9_9684_115474" style="mask-type:luminance" maskUnits="userSpaceOnUse" x="150" y="321" width="34" height="38">
<path d="M150.123 321.431H183.826V358.159H150.123V321.431Z" fill="white"/>
</mask>
<g mask="url(#mask9_9684_115474)">
<path d="M180.242 327.198L171.996 322.089C171.686 321.903 171.326 321.853 171.016 321.953C170.991 321.965 170.954 321.977 170.929 321.99L162.882 325.462C162.56 325.598 162.361 325.896 162.374 326.255L162.572 334.836C162.584 335.183 162.795 335.53 163.13 335.729L171.376 340.837C171.673 341.023 172.045 341.073 172.355 340.974C172.38 340.961 172.417 340.949 172.442 340.937L180.49 337.465C180.812 337.328 181.01 337.018 180.998 336.671L180.8 328.09C180.787 327.743 180.576 327.408 180.242 327.198ZM171.859 338.915L164.692 334.476L164.519 327.024L171.512 324.011L178.679 328.45L178.853 335.902L171.859 338.915Z" fill="white"/>
</g>
</g>
<path d="M255 195H207.487C204.594 195 202.249 192.655 202.249 189.762V163.35C202.249 160.458 199.904 158.112 197.011 158.112H184.008" stroke="#33373A" stroke-linecap="round"/>
<path d="M254.992 121H207.479C204.586 121 202.241 123.345 202.241 126.238V152.65C202.241 155.543 199.896 157.888 197.003 157.888H184" stroke="#33373A" stroke-linecap="round"/>
<path d="M255 371H207.487C204.594 371 202.249 368.655 202.249 365.762V339.35C202.249 336.458 199.904 334.112 197.011 334.112H184.008" stroke="#33373A" stroke-linecap="round"/>
<path d="M254.992 297H207.479C204.586 297 202.241 299.345 202.241 302.238V328.65C202.241 331.543 199.896 333.888 197.003 333.888H184" stroke="#33373A" stroke-linecap="round"/>
<rect x="254.5" y="97.4982" width="47" height="47" rx="7.5" fill="url(#paint8_linear_9684_115474)"/>
<rect x="254.5" y="97.4982" width="47" height="47" rx="7.5" stroke="url(#paint9_linear_9684_115474)"/>
<path d="M288 108.998H268C266.343 108.998 265 110.341 265 111.998V125.998C265 127.655 266.343 128.998 268 128.998H288C289.657 128.998 291 127.655 291 125.998V111.998C291 110.341 289.657 108.998 288 108.998Z" fill="white"/>
<path d="M282.743 115.212L278 117.957L273.257 115.212C273.2 115.179 273.153 115.132 273.12 115.075C273.087 115.018 273.07 114.953 273.07 114.887C273.07 114.821 273.087 114.756 273.12 114.699C273.153 114.642 273.2 114.594 273.257 114.561L277.415 112.155C277.593 112.052 277.795 111.998 278 111.998C278.205 111.998 278.407 112.052 278.585 112.155L282.743 114.561C282.8 114.594 282.847 114.642 282.88 114.699C282.913 114.756 282.93 114.821 282.93 114.887C282.93 114.953 282.913 115.018 282.88 115.075C282.847 115.132 282.8 115.179 282.743 115.212ZM272 116.872V121.527C272 121.74 272.055 121.95 272.16 122.135C272.266 122.321 272.418 122.475 272.602 122.583L276.688 124.948C276.744 124.981 276.809 124.998 276.875 124.998C276.941 124.998 277.005 124.981 277.062 124.948C277.119 124.915 277.167 124.868 277.2 124.811C277.233 124.753 277.25 124.689 277.25 124.623V119.259L272.563 116.547C272.506 116.514 272.441 116.496 272.375 116.496C272.309 116.496 272.245 116.514 272.188 116.546C272.131 116.579 272.083 116.627 272.05 116.684C272.017 116.741 272 116.806 272 116.872ZM284 121.527V116.872C284 116.806 283.983 116.741 283.95 116.684C283.917 116.627 283.869 116.579 283.812 116.546C283.755 116.514 283.691 116.496 283.625 116.496C283.559 116.496 283.494 116.514 283.437 116.547L278.75 119.259V124.623C278.75 124.689 278.767 124.753 278.8 124.811C278.833 124.868 278.881 124.915 278.938 124.948C278.995 124.981 279.059 124.998 279.125 124.998C279.191 124.998 279.256 124.981 279.313 124.948L283.397 122.583C283.581 122.475 283.733 122.321 283.839 122.136C283.945 121.95 284 121.74 284 121.527Z" fill="#0A0D0F"/>
<path d="M282 130.998H274C273.735 130.998 273.48 131.104 273.293 131.291C273.105 131.479 273 131.733 273 131.998C273 132.263 273.105 132.518 273.293 132.705C273.48 132.893 273.735 132.998 274 132.998H282C282.265 132.998 282.52 132.893 282.707 132.705C282.895 132.518 283 132.263 283 131.998C283 131.733 282.895 131.479 282.707 131.291C282.52 131.104 282.265 130.998 282 130.998Z" fill="white"/>
<rect x="254.436" y="171.434" width="47.128" height="47.128" rx="7.564" fill="url(#paint10_linear_9684_115474)"/>
<rect x="254.436" y="171.434" width="47.128" height="47.128" rx="7.564" stroke="url(#paint11_linear_9684_115474)" stroke-width="0.872003"/>
<path d="M277.009 192.799L277.182 189.874C276.974 189.898 276.766 189.932 276.561 189.977C275.426 190.223 274.441 190.759 273.67 191.484L276.177 193.184L276.182 193.181C276.266 193.241 276.371 193.275 276.484 193.275C276.76 193.275 276.985 193.067 276.997 192.805L277.009 192.799Z" fill="white"/>
<path d="M282.134 191.485C281.194 190.604 279.968 190.03 278.643 189.874L278.816 192.794L278.818 192.795C278.823 192.899 278.862 192.999 278.93 193.08C279.103 193.287 279.414 193.325 279.635 193.171L279.644 193.174L282.134 191.485Z" fill="white"/>
<path d="M275.05 194.535L272.762 192.576C272.083 193.635 271.761 194.905 271.91 196.211L274.843 195.401L274.846 195.391C274.951 195.364 275.044 195.305 275.112 195.223C275.284 195.017 275.254 194.719 275.047 194.547L275.05 194.535Z" fill="white"/>
<path d="M283.797 194.332C283.644 193.694 283.386 193.105 283.046 192.577L280.77 194.526L280.772 194.532C280.69 194.601 280.632 194.692 280.609 194.793C280.547 195.051 280.709 195.308 280.973 195.377L280.976 195.389L283.924 196.202C283.986 195.593 283.948 194.963 283.797 194.332Z" fill="white"/>
<path d="M278.38 194.686H277.443L276.859 195.382L277.068 196.252L277.912 196.64L278.754 196.253L278.963 195.383L278.38 194.686Z" fill="white"/>
<path d="M280.566 197.08C280.527 197.073 280.488 197.069 280.448 197.071C280.382 197.075 280.315 197.091 280.251 197.12C280.002 197.235 279.894 197.517 280.002 197.758L279.999 197.762L281.176 200.485C282.311 199.793 283.161 198.758 283.605 197.565L280.571 197.074L280.566 197.08Z" fill="white"/>
<path d="M275.845 197.466C275.792 197.24 275.584 197.086 275.352 197.083C275.319 197.083 275.285 197.086 275.252 197.092L275.247 197.086L272.239 197.574C272.703 198.803 273.571 199.805 274.66 200.474L275.825 197.779L275.817 197.768C275.858 197.676 275.871 197.571 275.845 197.466Z" fill="white"/>
<path d="M278.134 198.313C278.059 198.278 277.976 198.261 277.893 198.264C277.803 198.267 277.716 198.293 277.64 198.338C277.564 198.384 277.501 198.448 277.459 198.524H277.456L275.977 201.083C277.001 201.417 278.131 201.491 279.265 201.245C279.465 201.201 279.663 201.149 279.858 201.086L278.375 198.522H278.364C278.314 198.434 278.236 198.36 278.134 198.313Z" fill="white"/>
<path fill-rule="evenodd" clip-rule="evenodd" d="M277.1 182.333C277.323 182.231 277.566 182.173 277.813 182.161C278.124 182.146 278.435 182.205 278.716 182.333L288.451 186.782C288.703 186.897 288.924 187.065 289.099 187.272C289.273 187.48 289.396 187.722 289.458 187.981L291.863 197.979C291.926 198.238 291.926 198.507 291.863 198.766C291.801 199.024 291.678 199.267 291.504 199.474L284.769 207.492C284.594 207.7 284.373 207.867 284.121 207.982C283.869 208.097 283.593 208.156 283.313 208.156L272.508 208.158C272.229 208.158 271.953 208.099 271.701 207.984C271.449 207.868 271.227 207.701 271.053 207.493L264.315 199.477C264.278 199.431 264.242 199.384 264.21 199.336C264.074 199.138 263.982 198.916 263.939 198.683C263.895 198.45 263.901 198.212 263.957 197.981L266.358 187.983C266.421 187.724 266.544 187.482 266.718 187.275C266.892 187.067 267.114 186.9 267.366 186.784L277.1 182.333ZM277.329 186.169C277.329 185.827 277.59 185.549 277.912 185.549C278.234 185.549 278.495 185.827 278.495 186.169C278.495 186.186 278.495 186.206 278.496 186.226C278.496 186.261 278.497 186.298 278.496 186.327C278.491 186.457 278.47 186.567 278.448 186.679C278.437 186.737 278.425 186.795 278.416 186.857L278.412 186.888C278.365 187.263 278.326 187.577 278.35 187.869C278.37 187.998 278.441 188.06 278.509 188.119C278.52 188.129 278.53 188.138 278.541 188.148C278.542 188.188 278.549 188.322 278.554 188.397C280.407 188.554 282.127 189.365 283.391 190.633L283.613 190.482C283.621 190.482 283.632 190.483 283.643 190.484C283.726 190.49 283.866 190.5 283.966 190.445C284.22 190.281 284.453 190.055 284.731 189.785L284.752 189.764C284.796 189.72 284.836 189.676 284.875 189.633C284.954 189.546 285.032 189.461 285.136 189.375C285.162 189.354 285.197 189.327 285.23 189.303C285.242 189.294 285.255 189.284 285.266 189.276C285.545 189.063 285.934 189.085 286.135 189.326C286.335 189.567 286.271 189.935 285.992 190.148C285.979 190.158 285.964 190.169 285.95 190.181C285.92 190.204 285.889 190.229 285.863 190.247C285.755 190.324 285.652 190.376 285.547 190.429C285.492 190.457 285.436 190.485 285.379 190.517C285.031 190.723 284.742 190.894 284.513 191.1C284.419 191.196 284.412 191.287 284.406 191.375C284.405 191.389 284.404 191.402 284.403 191.416C284.388 191.429 284.353 191.459 284.314 191.492C284.273 191.527 284.228 191.566 284.196 191.593C284.699 192.309 285.075 193.12 285.288 194.008C285.499 194.888 285.532 195.767 285.41 196.611L285.646 196.677C285.65 196.684 285.656 196.692 285.662 196.7C285.709 196.766 285.789 196.879 285.897 196.919C286.194 197.008 286.527 197.042 286.929 197.082L286.942 197.083C287.007 197.088 287.07 197.091 287.132 197.093C287.251 197.098 287.367 197.102 287.501 197.126C287.531 197.132 287.57 197.141 287.608 197.15C287.63 197.155 287.651 197.16 287.67 197.164C288.013 197.244 288.234 197.546 288.163 197.843C288.092 198.141 287.756 198.322 287.411 198.251C287.408 198.25 287.405 198.25 287.402 198.25C287.398 198.249 287.395 198.247 287.391 198.246C287.373 198.242 287.354 198.239 287.335 198.235C287.301 198.228 287.267 198.222 287.24 198.215C287.109 198.181 287.002 198.137 286.893 198.092C286.836 198.068 286.779 198.045 286.717 198.022L286.699 198.016C286.322 197.886 286.008 197.779 285.702 197.736C285.565 197.726 285.487 197.778 285.411 197.828C285.399 197.836 285.387 197.844 285.375 197.852C285.333 197.844 285.202 197.821 285.126 197.81C284.568 199.489 283.379 200.943 281.768 201.854C281.776 201.874 281.787 201.902 281.799 201.932C281.823 201.994 281.85 202.062 281.865 202.079C281.86 202.092 281.854 202.105 281.849 202.118C281.815 202.199 281.779 202.283 281.82 202.408C281.933 202.688 282.116 202.963 282.337 203.293C282.373 203.345 282.41 203.393 282.446 203.441C282.517 203.532 282.586 203.622 282.649 203.737C282.665 203.766 282.685 203.806 282.703 203.842C282.711 203.858 282.718 203.874 282.725 203.887C282.875 204.194 282.765 204.547 282.477 204.68C282.187 204.813 281.827 204.672 281.672 204.364C281.665 204.351 281.657 204.336 281.65 204.321C281.632 204.287 281.613 204.25 281.6 204.221C281.545 204.101 281.514 203.992 281.482 203.882C281.466 203.826 281.45 203.769 281.43 203.71L281.424 203.694C281.295 203.33 281.187 203.028 281.031 202.772C280.954 202.663 280.861 202.637 280.773 202.611C280.76 202.607 280.746 202.604 280.733 202.599C280.723 202.583 280.7 202.543 280.674 202.498C280.651 202.458 280.626 202.415 280.609 202.385C280.283 202.503 279.949 202.599 279.609 202.673C278.097 203.002 276.584 202.869 275.232 202.372L275.1 202.601C275.001 202.626 274.907 202.651 274.849 202.718C274.699 202.888 274.613 203.131 274.522 203.388C274.483 203.497 274.443 203.609 274.398 203.719C274.378 203.779 274.361 203.837 274.345 203.894C274.314 204.004 274.284 204.112 274.229 204.23C274.217 204.258 274.199 204.293 274.182 204.326C274.173 204.342 274.165 204.358 274.157 204.372C274.157 204.372 274.157 204.372 274.157 204.372C274.157 204.373 274.157 204.373 274.157 204.373C274.157 204.374 274.157 204.374 274.156 204.374C274.156 204.374 274.156 204.374 274.156 204.374C274.001 204.681 273.641 204.823 273.352 204.689C273.064 204.557 272.954 204.204 273.104 203.897C273.112 203.881 273.121 203.862 273.131 203.842C273.147 203.809 273.164 203.773 273.179 203.747C273.242 203.631 273.312 203.54 273.382 203.448C273.419 203.401 273.455 203.353 273.491 203.301C273.712 202.971 273.905 202.675 274.019 202.394C274.047 202.301 274.005 202.173 273.967 202.079L274.073 201.836C272.522 200.956 271.297 199.555 270.713 197.821L270.459 197.862C270.451 197.858 270.442 197.854 270.433 197.848C270.36 197.808 270.239 197.741 270.124 197.749C269.817 197.792 269.503 197.9 269.125 198.029L269.108 198.035C269.047 198.057 268.991 198.08 268.935 198.103C268.825 198.149 268.717 198.193 268.585 198.227C268.555 198.235 268.516 198.243 268.478 198.25C268.463 198.253 268.448 198.256 268.434 198.259C268.432 198.26 268.431 198.26 268.429 198.261C268.427 198.262 268.425 198.262 268.423 198.263C268.422 198.263 268.42 198.263 268.419 198.263C268.417 198.263 268.416 198.264 268.414 198.264C268.069 198.335 267.733 198.154 267.662 197.856C267.591 197.559 267.812 197.257 268.155 197.177C268.158 197.177 268.161 197.176 268.164 197.175L268.169 197.174C268.184 197.17 268.2 197.167 268.217 197.163C268.254 197.154 268.294 197.145 268.325 197.139C268.458 197.115 268.574 197.111 268.693 197.106C268.755 197.104 268.818 197.102 268.884 197.096L268.897 197.095C269.299 197.055 269.632 197.021 269.928 196.932C270.012 196.899 270.093 196.797 270.155 196.719C270.163 196.709 270.171 196.699 270.178 196.69L270.422 196.622C270.149 194.81 270.612 193.032 271.611 191.592L271.425 191.432C271.423 191.425 271.422 191.416 271.42 191.406C271.408 191.328 271.387 191.192 271.308 191.111C271.079 190.905 270.79 190.734 270.441 190.528C270.385 190.496 270.329 190.468 270.275 190.44C270.17 190.387 270.067 190.335 269.958 190.258C269.933 190.24 269.902 190.215 269.872 190.192C269.86 190.183 269.848 190.173 269.837 190.165C269.836 190.164 269.835 190.163 269.833 190.162C269.832 190.161 269.83 190.16 269.829 190.159C269.549 189.945 269.485 189.577 269.685 189.337C269.798 189.201 269.971 189.134 270.15 189.14C270.289 189.145 270.433 189.193 270.556 189.287C270.567 189.295 270.578 189.304 270.591 189.313C270.624 189.338 270.659 189.364 270.685 189.386C270.789 189.471 270.865 189.555 270.944 189.641C270.984 189.685 271.024 189.73 271.069 189.775L271.079 189.785C271.361 190.06 271.596 190.288 271.854 190.454C271.973 190.52 272.068 190.506 272.159 190.492C272.173 190.49 272.186 190.488 272.2 190.486C272.27 190.535 272.34 190.583 272.411 190.629C273.402 189.622 274.705 188.877 276.218 188.548C276.564 188.473 276.916 188.421 277.271 188.393L277.285 188.157C277.362 188.085 277.449 187.982 277.474 187.869C277.499 187.571 277.459 187.251 277.41 186.865L277.409 186.857C277.4 186.796 277.389 186.737 277.377 186.68C277.356 186.568 277.334 186.457 277.329 186.327C277.328 186.3 277.329 186.265 277.33 186.231C277.33 186.215 277.33 186.199 277.331 186.184C277.331 186.182 277.33 186.179 277.33 186.177C277.33 186.174 277.329 186.171 277.329 186.169Z" fill="white"/>
<rect x="254.436" y="347.434" width="47.128" height="47.128" rx="7.564" fill="url(#paint12_linear_9684_115474)"/>
<rect x="254.436" y="347.434" width="47.128" height="47.128" rx="7.564" stroke="url(#paint13_linear_9684_115474)" stroke-width="0.872003"/>
<path d="M277.009 368.799L277.182 365.874C276.974 365.898 276.766 365.932 276.561 365.977C275.426 366.223 274.441 366.759 273.67 367.484L276.177 369.184L276.182 369.181C276.266 369.241 276.371 369.275 276.484 369.275C276.76 369.275 276.985 369.067 276.997 368.805L277.009 368.799Z" fill="white"/>
<path d="M282.134 367.485C281.194 366.604 279.968 366.03 278.643 365.874L278.816 368.794L278.818 368.795C278.823 368.899 278.862 368.999 278.93 369.08C279.103 369.287 279.414 369.325 279.635 369.171L279.644 369.174L282.134 367.485Z" fill="white"/>
<path d="M275.05 370.535L272.762 368.576C272.083 369.635 271.761 370.905 271.91 372.211L274.843 371.401L274.846 371.391C274.951 371.364 275.044 371.305 275.112 371.223C275.284 371.017 275.254 370.719 275.047 370.547L275.05 370.535Z" fill="white"/>
<path d="M283.797 370.332C283.644 369.694 283.386 369.105 283.046 368.577L280.77 370.526L280.772 370.532C280.69 370.601 280.632 370.692 280.609 370.793C280.547 371.051 280.709 371.308 280.973 371.377L280.976 371.389L283.924 372.202C283.986 371.593 283.948 370.963 283.797 370.332Z" fill="white"/>
<path d="M278.38 370.686H277.443L276.859 371.382L277.068 372.252L277.912 372.64L278.754 372.253L278.963 371.383L278.38 370.686Z" fill="white"/>
<path d="M280.566 373.08C280.527 373.073 280.488 373.069 280.448 373.071C280.382 373.075 280.315 373.091 280.251 373.12C280.002 373.235 279.894 373.517 280.002 373.758L279.999 373.762L281.176 376.485C282.311 375.793 283.161 374.758 283.605 373.565L280.571 373.074L280.566 373.08Z" fill="white"/>
<path d="M275.845 373.466C275.792 373.24 275.584 373.086 275.352 373.083C275.319 373.083 275.285 373.086 275.252 373.092L275.247 373.086L272.239 373.574C272.703 374.803 273.571 375.805 274.66 376.474L275.825 373.779L275.817 373.768C275.858 373.676 275.871 373.571 275.845 373.466Z" fill="white"/>
<path d="M278.134 374.313C278.059 374.278 277.976 374.261 277.893 374.264C277.803 374.267 277.716 374.293 277.64 374.338C277.564 374.384 277.501 374.448 277.459 374.524H277.456L275.977 377.083C277.001 377.417 278.131 377.491 279.265 377.245C279.465 377.201 279.663 377.149 279.858 377.086L278.375 374.522H278.364C278.314 374.434 278.236 374.36 278.134 374.313Z" fill="white"/>
<path fill-rule="evenodd" clip-rule="evenodd" d="M277.1 358.333C277.323 358.231 277.566 358.173 277.813 358.161C278.124 358.146 278.435 358.205 278.716 358.333L288.451 362.782C288.703 362.897 288.924 363.065 289.099 363.272C289.273 363.48 289.396 363.722 289.458 363.981L291.863 373.979C291.926 374.238 291.926 374.507 291.863 374.766C291.801 375.024 291.678 375.267 291.504 375.474L284.769 383.492C284.594 383.7 284.373 383.867 284.121 383.982C283.869 384.097 283.593 384.156 283.313 384.156L272.508 384.158C272.229 384.158 271.953 384.099 271.701 383.984C271.449 383.868 271.227 383.701 271.053 383.493L264.315 375.477C264.278 375.431 264.242 375.384 264.21 375.336C264.074 375.138 263.982 374.916 263.939 374.683C263.895 374.45 263.901 374.212 263.957 373.981L266.358 363.983C266.421 363.724 266.544 363.482 266.718 363.275C266.892 363.067 267.114 362.9 267.366 362.784L277.1 358.333ZM277.329 362.169C277.329 361.827 277.59 361.549 277.912 361.549C278.234 361.549 278.495 361.827 278.495 362.169C278.495 362.186 278.495 362.206 278.496 362.226C278.496 362.261 278.497 362.298 278.496 362.327C278.491 362.457 278.47 362.567 278.448 362.679C278.437 362.737 278.425 362.795 278.416 362.857L278.412 362.888C278.365 363.263 278.326 363.577 278.35 363.869C278.37 363.998 278.441 364.06 278.509 364.119C278.52 364.129 278.53 364.138 278.541 364.148C278.542 364.188 278.549 364.322 278.554 364.397C280.407 364.554 282.127 365.365 283.391 366.633L283.613 366.482C283.621 366.482 283.632 366.483 283.643 366.484C283.726 366.49 283.866 366.5 283.966 366.445C284.22 366.281 284.453 366.055 284.731 365.785L284.752 365.764C284.796 365.72 284.836 365.676 284.875 365.633C284.954 365.546 285.032 365.461 285.136 365.375C285.162 365.354 285.197 365.327 285.23 365.303C285.242 365.294 285.255 365.284 285.266 365.276C285.545 365.063 285.934 365.085 286.135 365.326C286.335 365.567 286.271 365.935 285.992 366.148C285.979 366.158 285.964 366.169 285.95 366.181C285.92 366.204 285.889 366.229 285.863 366.247C285.755 366.324 285.652 366.376 285.547 366.429C285.492 366.457 285.436 366.485 285.379 366.517C285.031 366.723 284.742 366.894 284.513 367.1C284.419 367.196 284.412 367.287 284.406 367.375C284.405 367.389 284.404 367.402 284.403 367.416C284.388 367.429 284.353 367.459 284.314 367.492C284.273 367.527 284.228 367.566 284.196 367.593C284.699 368.309 285.075 369.12 285.288 370.008C285.499 370.888 285.532 371.767 285.41 372.611L285.646 372.677C285.65 372.684 285.656 372.692 285.662 372.7C285.709 372.766 285.789 372.879 285.897 372.919C286.194 373.008 286.527 373.042 286.929 373.082L286.942 373.083C287.007 373.088 287.07 373.091 287.132 373.093C287.251 373.098 287.367 373.102 287.501 373.126C287.531 373.132 287.57 373.141 287.608 373.15C287.63 373.155 287.651 373.16 287.67 373.164C288.013 373.244 288.234 373.546 288.163 373.843C288.092 374.141 287.756 374.322 287.411 374.251C287.408 374.25 287.405 374.25 287.402 374.25C287.398 374.249 287.395 374.247 287.391 374.246C287.373 374.242 287.354 374.239 287.335 374.235C287.301 374.228 287.267 374.222 287.24 374.215C287.109 374.181 287.002 374.137 286.893 374.092C286.836 374.068 286.779 374.045 286.717 374.022L286.699 374.016C286.322 373.886 286.008 373.779 285.702 373.736C285.565 373.726 285.487 373.778 285.411 373.828C285.399 373.836 285.387 373.844 285.375 373.852C285.333 373.844 285.202 373.821 285.126 373.81C284.568 375.489 283.379 376.943 281.768 377.854C281.776 377.874 281.787 377.902 281.799 377.932C281.823 377.994 281.85 378.062 281.865 378.079C281.86 378.092 281.854 378.105 281.849 378.118C281.815 378.199 281.779 378.283 281.82 378.408C281.933 378.688 282.116 378.963 282.337 379.293C282.373 379.345 282.41 379.393 282.446 379.441C282.517 379.532 282.586 379.622 282.649 379.737C282.665 379.766 282.685 379.806 282.703 379.842C282.711 379.858 282.718 379.874 282.725 379.887C282.875 380.194 282.765 380.547 282.477 380.68C282.187 380.813 281.827 380.672 281.672 380.364C281.665 380.351 281.657 380.336 281.65 380.321C281.632 380.287 281.613 380.25 281.6 380.221C281.545 380.101 281.514 379.992 281.482 379.882C281.466 379.826 281.45 379.769 281.43 379.71L281.424 379.694C281.295 379.33 281.187 379.028 281.031 378.772C280.954 378.663 280.861 378.637 280.773 378.611C280.76 378.607 280.746 378.604 280.733 378.599C280.723 378.583 280.7 378.543 280.674 378.498C280.651 378.458 280.626 378.415 280.609 378.385C280.283 378.503 279.949 378.599 279.609 378.673C278.097 379.002 276.584 378.869 275.232 378.372L275.1 378.601C275.001 378.626 274.907 378.651 274.849 378.718C274.699 378.888 274.613 379.131 274.522 379.388C274.483 379.497 274.443 379.609 274.398 379.719C274.378 379.779 274.361 379.837 274.345 379.894C274.314 380.004 274.284 380.112 274.229 380.23C274.217 380.258 274.199 380.293 274.182 380.326C274.173 380.342 274.165 380.358 274.157 380.372C274.157 380.372 274.157 380.372 274.157 380.372C274.157 380.373 274.157 380.373 274.157 380.373C274.157 380.374 274.157 380.374 274.156 380.374C274.156 380.374 274.156 380.374 274.156 380.374C274.001 380.681 273.641 380.823 273.352 380.689C273.064 380.557 272.954 380.204 273.104 379.897C273.112 379.881 273.121 379.862 273.131 379.842C273.147 379.809 273.164 379.773 273.179 379.747C273.242 379.631 273.312 379.54 273.382 379.448C273.419 379.401 273.455 379.353 273.491 379.301C273.712 378.971 273.905 378.675 274.019 378.394C274.047 378.301 274.005 378.173 273.967 378.079L274.073 377.836C272.522 376.956 271.297 375.555 270.713 373.821L270.459 373.862C270.451 373.858 270.442 373.854 270.433 373.848C270.36 373.808 270.239 373.741 270.124 373.749C269.817 373.792 269.503 373.9 269.125 374.029L269.108 374.035C269.047 374.057 268.991 374.08 268.935 374.103C268.825 374.149 268.717 374.193 268.585 374.227C268.555 374.235 268.516 374.243 268.478 374.25C268.463 374.253 268.448 374.256 268.434 374.259C268.432 374.26 268.431 374.26 268.429 374.261C268.427 374.262 268.425 374.262 268.423 374.263C268.422 374.263 268.42 374.263 268.419 374.263C268.417 374.263 268.416 374.264 268.414 374.264C268.069 374.335 267.733 374.154 267.662 373.856C267.591 373.559 267.812 373.257 268.155 373.177C268.158 373.177 268.161 373.176 268.164 373.175L268.169 373.174C268.184 373.17 268.2 373.167 268.217 373.163C268.254 373.154 268.294 373.145 268.325 373.139C268.458 373.115 268.574 373.111 268.693 373.106C268.755 373.104 268.818 373.102 268.884 373.096L268.897 373.095C269.299 373.055 269.632 373.021 269.928 372.932C270.012 372.899 270.093 372.797 270.155 372.719C270.163 372.709 270.171 372.699 270.178 372.69L270.422 372.622C270.149 370.81 270.612 369.032 271.611 367.592L271.425 367.432C271.423 367.425 271.422 367.416 271.42 367.406C271.408 367.328 271.387 367.192 271.308 367.111C271.079 366.905 270.79 366.734 270.441 366.528C270.385 366.496 270.329 366.468 270.275 366.44C270.17 366.387 270.067 366.335 269.958 366.258C269.933 366.24 269.902 366.215 269.872 366.192C269.86 366.183 269.848 366.173 269.837 366.165C269.836 366.164 269.835 366.163 269.833 366.162C269.832 366.161 269.83 366.16 269.829 366.159C269.549 365.945 269.485 365.577 269.685 365.337C269.798 365.201 269.971 365.134 270.15 365.14C270.289 365.145 270.433 365.193 270.556 365.287C270.567 365.295 270.578 365.304 270.591 365.313C270.624 365.338 270.659 365.364 270.685 365.386C270.789 365.471 270.865 365.555 270.944 365.641C270.984 365.685 271.024 365.73 271.069 365.775L271.079 365.785C271.361 366.06 271.596 366.288 271.854 366.454C271.973 366.52 272.068 366.506 272.159 366.492C272.173 366.49 272.186 366.488 272.2 366.486C272.27 366.535 272.34 366.583 272.411 366.629C273.402 365.622 274.705 364.877 276.218 364.548C276.564 364.473 276.916 364.421 277.271 364.393L277.285 364.157C277.362 364.085 277.449 363.982 277.474 363.869C277.499 363.571 277.459 363.251 277.41 362.865L277.409 362.857C277.4 362.796 277.389 362.737 277.377 362.68C277.356 362.568 277.334 362.457 277.329 362.327C277.328 362.3 277.329 362.265 277.33 362.231C277.33 362.215 277.33 362.199 277.331 362.184C277.331 362.182 277.33 362.179 277.33 362.177C277.33 362.174 277.329 362.171 277.329 362.169Z" fill="white"/>
<rect x="254.5" y="257.498" width="47" height="47" rx="7.5" fill="url(#paint14_linear_9684_115474)"/>
<rect x="254.5" y="257.498" width="47" height="47" rx="7.5" stroke="url(#paint15_linear_9684_115474)"/>
<path d="M288 268.998H268C266.343 268.998 265 270.341 265 271.998V285.998C265 287.655 266.343 288.998 268 288.998H288C289.657 288.998 291 287.655 291 285.998V271.998C291 270.341 289.657 268.998 288 268.998Z" fill="white"/>
<path d="M282.743 275.212L278 277.957L273.257 275.212C273.2 275.179 273.153 275.132 273.12 275.075C273.087 275.018 273.07 274.953 273.07 274.887C273.07 274.821 273.087 274.756 273.12 274.699C273.153 274.642 273.2 274.594 273.257 274.561L277.415 272.155C277.593 272.052 277.795 271.998 278 271.998C278.205 271.998 278.407 272.052 278.585 272.155L282.743 274.561C282.8 274.594 282.847 274.642 282.88 274.699C282.913 274.756 282.93 274.821 282.93 274.887C282.93 274.953 282.913 275.018 282.88 275.075C282.847 275.132 282.8 275.179 282.743 275.212ZM272 276.872V281.527C272 281.74 272.055 281.95 272.16 282.135C272.266 282.321 272.418 282.475 272.602 282.583L276.688 284.948C276.744 284.981 276.809 284.998 276.875 284.998C276.941 284.998 277.005 284.981 277.062 284.948C277.119 284.915 277.167 284.868 277.2 284.811C277.233 284.753 277.25 284.689 277.25 284.623V279.259L272.563 276.547C272.506 276.514 272.441 276.496 272.375 276.496C272.309 276.496 272.245 276.514 272.188 276.546C272.131 276.579 272.083 276.627 272.05 276.684C272.017 276.741 272 276.806 272 276.872ZM284 281.527V276.872C284 276.806 283.983 276.741 283.95 276.684C283.917 276.627 283.869 276.579 283.812 276.546C283.755 276.514 283.691 276.496 283.625 276.496C283.559 276.496 283.494 276.514 283.437 276.547L278.75 279.259V284.623C278.75 284.689 278.767 284.753 278.8 284.811C278.833 284.868 278.881 284.915 278.938 284.948C278.995 284.981 279.059 284.998 279.125 284.998C279.191 284.998 279.256 284.981 279.313 284.948L283.397 282.583C283.581 282.475 283.733 282.321 283.839 282.136C283.945 281.95 284 281.74 284 281.527Z" fill="#0A0D0F"/>
<path d="M282 290.998H274C273.735 290.998 273.48 291.104 273.293 291.291C273.105 291.479 273 291.733 273 291.998C273 292.263 273.105 292.518 273.293 292.705C273.48 292.893 273.735 292.998 274 292.998H282C282.265 292.998 282.52 292.893 282.707 292.705C282.895 292.518 283 292.263 283 291.998C283 291.733 282.895 291.479 282.707 291.291C282.52 291.104 282.265 290.998 282 290.998Z" fill="white"/>
<path d="M55.6414 46.5113C55.7178 46.6022 55.7667 46.713 55.7823 46.8307C55.7978 46.9484 55.7795 47.0681 55.7293 47.1758C55.6791 47.2834 55.5993 47.3744 55.4991 47.4382C55.3989 47.5019 55.2826 47.5357 55.1639 47.5356H42.0781C41.9594 47.5356 41.8432 47.5017 41.7431 47.4379C41.6431 47.3741 41.5633 47.283 41.5133 47.1754C41.4632 47.0678 41.4449 46.9482 41.4605 46.8305C41.4761 46.7129 41.525 46.6022 41.6014 46.5113C42.7651 45.1264 44.2123 44.1427 45.8208 43.6161C44.8439 43.0077 44.0918 42.0977 43.6782 41.0238C43.2646 39.9498 43.2121 38.7704 43.5284 37.664C43.8448 36.5575 44.513 35.5842 45.4318 34.8913C46.3507 34.1984 47.4702 33.8235 48.621 33.8235C49.7718 33.8235 50.8913 34.1984 51.8101 34.8913C52.729 35.5842 53.3971 36.5575 53.7135 37.664C54.0299 38.7704 53.9773 39.9498 53.5637 41.0238C53.1501 42.0977 52.398 43.0077 51.4212 43.6161C53.0297 44.1427 54.4769 45.1264 55.6414 46.5113ZM59.462 43.3295C59.4072 43.4243 59.3284 43.5031 59.2335 43.5578C59.1386 43.6125 59.0309 43.6412 58.9214 43.641C58.812 43.6414 58.7044 43.6126 58.6098 43.5577L58.2461 43.3474C58.072 43.4967 57.8718 43.6127 57.6556 43.6893V44.1084C57.6556 44.2736 57.59 44.4321 57.4731 44.549C57.3563 44.6659 57.1978 44.7315 57.0325 44.7315C56.8672 44.7315 56.7087 44.6659 56.5919 44.549C56.475 44.4321 56.4094 44.2736 56.4094 44.1084V43.6893C56.1932 43.6127 55.993 43.4967 55.819 43.3474L55.4552 43.5577C55.3606 43.6126 55.253 43.6414 55.1436 43.641C55.0064 43.6411 54.873 43.5958 54.7641 43.5123C54.6553 43.4288 54.577 43.3117 54.5415 43.1792C54.506 43.0466 54.5152 42.9061 54.5677 42.7793C54.6203 42.6525 54.7132 42.5467 54.8321 42.4781L55.195 42.2686C55.1525 42.0431 55.1525 41.8117 55.195 41.5862L54.8321 41.3767C54.7612 41.3358 54.699 41.2813 54.6492 41.2164C54.5994 41.1515 54.5628 41.0774 54.5416 40.9983C54.5204 40.9192 54.515 40.8368 54.5257 40.7556C54.5364 40.6745 54.5629 40.5962 54.6038 40.5254C54.6448 40.4545 54.6992 40.3923 54.7642 40.3425C54.8291 40.2927 54.9032 40.2561 54.9823 40.2349C55.0613 40.2137 55.1438 40.2083 55.2249 40.219C55.3061 40.2297 55.3843 40.2562 55.4552 40.2971L55.819 40.5074C55.993 40.3581 56.1932 40.2422 56.4094 40.1655V39.7464C56.4094 39.5812 56.475 39.4227 56.5919 39.3058C56.7087 39.189 56.8672 39.1233 57.0325 39.1233C57.1978 39.1233 57.3563 39.189 57.4731 39.3058C57.59 39.4227 57.6556 39.5812 57.6556 39.7464V40.1655C57.8718 40.2422 58.072 40.3581 58.2461 40.5074L58.6098 40.2971C58.6807 40.2562 58.759 40.2297 58.8401 40.219C58.9213 40.2083 59.0037 40.2137 59.0828 40.2349C59.1618 40.2561 59.2359 40.2927 59.3009 40.3425C59.3658 40.3923 59.4203 40.4545 59.4612 40.5254C59.5021 40.5962 59.5286 40.6745 59.5393 40.7556C59.55 40.8368 59.5446 40.9192 59.5234 40.9983C59.5022 41.0774 59.4656 41.1515 59.4158 41.2164C59.366 41.2813 59.3038 41.3358 59.233 41.3767L58.87 41.5862C58.9126 41.8117 58.9126 42.0431 58.87 42.2686L59.233 42.4781C59.3039 42.5189 59.3661 42.5734 59.4161 42.6383C59.466 42.7032 59.5026 42.7773 59.5239 42.8563C59.5452 42.9354 59.5506 43.0179 59.54 43.0991C59.5294 43.1802 59.5029 43.2585 59.462 43.3295ZM57.0333 42.5505C57.1565 42.5505 57.277 42.514 57.3795 42.4455C57.482 42.3771 57.5618 42.2797 57.609 42.1659C57.6562 42.052 57.6685 41.9267 57.6445 41.8058C57.6204 41.685 57.5611 41.5739 57.4739 41.4868C57.3868 41.3996 57.2757 41.3403 57.1549 41.3162C57.034 41.2922 56.9087 41.3045 56.7948 41.3517C56.681 41.3989 56.5836 41.4787 56.5152 41.5812C56.4467 41.6837 56.4102 41.8042 56.4102 41.9274C56.4102 42.0927 56.4758 42.2512 56.5927 42.368C56.7095 42.4849 56.868 42.5505 57.0333 42.5505Z" fill="#9D9E9F"/>
<path d="M44.7517 43.3312C45.8383 44.3339 47.2691 44.8765 48.7452 44.8452C50.2214 44.8139 51.628 44.211 52.6714 43.1632" stroke="#151B1E" stroke-width="0.934701"/>
<path d="M18.61 57.6384C18.61 57.9918 18.5267 58.3251 18.36 58.6384C18.1933 58.9518 17.9267 59.2084 17.56 59.4084C17.1933 59.6018 16.7233 59.6984 16.15 59.6984H14.89V62.5184H13.75V55.5684H16.15C16.6833 55.5684 17.1333 55.6618 17.5 55.8484C17.8733 56.0284 18.15 56.2751 18.33 56.5884C18.5167 56.9018 18.61 57.2518 18.61 57.6384ZM16.15 58.7684C16.5833 58.7684 16.9067 58.6718 17.12 58.4784C17.3333 58.2784 17.44 57.9984 17.44 57.6384C17.44 56.8784 17.01 56.4984 16.15 56.4984H14.89V58.7684H16.15ZM20.8373 55.1184V62.5184H19.6973V55.1184H20.8373ZM21.954 59.7384C21.954 59.1851 22.0673 58.6951 22.294 58.2684C22.5273 57.8418 22.8407 57.5118 23.234 57.2784C23.634 57.0384 24.074 56.9184 24.554 56.9184C24.9873 56.9184 25.364 57.0051 25.684 57.1784C26.0107 57.3451 26.2707 57.5551 26.464 57.8084V57.0084H27.614V62.5184H26.464V61.6984C26.2707 61.9584 26.0073 62.1751 25.674 62.3484C25.3407 62.5218 24.9607 62.6084 24.534 62.6084C24.0607 62.6084 23.6273 62.4884 23.234 62.2484C22.8407 62.0018 22.5273 61.6618 22.294 61.2284C22.0673 60.7884 21.954 60.2918 21.954 59.7384ZM26.464 59.7584C26.464 59.3784 26.384 59.0484 26.224 58.7684C26.0707 58.4884 25.8673 58.2751 25.614 58.1284C25.3607 57.9818 25.0873 57.9084 24.794 57.9084C24.5007 57.9084 24.2273 57.9818 23.974 58.1284C23.7207 58.2684 23.514 58.4784 23.354 58.7584C23.2007 59.0318 23.124 59.3584 23.124 59.7384C23.124 60.1184 23.2007 60.4518 23.354 60.7384C23.514 61.0251 23.7207 61.2451 23.974 61.3984C24.234 61.5451 24.5073 61.6184 24.794 61.6184C25.0873 61.6184 25.3607 61.5451 25.614 61.3984C25.8673 61.2518 26.0707 61.0384 26.224 60.7584C26.384 60.4718 26.464 60.1384 26.464 59.7584ZM30.4413 57.9384V60.9884C30.4413 61.1951 30.488 61.3451 30.5813 61.4384C30.6813 61.5251 30.848 61.5684 31.0813 61.5684H31.7813V62.5184H30.8813C30.368 62.5184 29.9747 62.3984 29.7013 62.1584C29.428 61.9184 29.2913 61.5284 29.2913 60.9884V57.9384H28.6413V57.0084H29.2913V55.6384H30.4413V57.0084H31.7813V57.9384H30.4413ZM35.142 57.9384H34.122V62.5184H32.972V57.9384H32.322V57.0084H32.972V56.6184C32.972 55.9851 33.1387 55.5251 33.472 55.2384C33.812 54.9451 34.342 54.7984 35.062 54.7984V55.7484C34.7154 55.7484 34.472 55.8151 34.332 55.9484C34.192 56.0751 34.122 56.2984 34.122 56.6184V57.0084H35.142V57.9384ZM38.5423 62.6084C38.0223 62.6084 37.5523 62.4918 37.1323 62.2584C36.7123 62.0184 36.3823 61.6851 36.1423 61.2584C35.9023 60.8251 35.7823 60.3251 35.7823 59.7584C35.7823 59.1984 35.9057 58.7018 36.1523 58.2684C36.399 57.8351 36.7357 57.5018 37.1623 57.2684C37.589 57.0351 38.0657 56.9184 38.5923 56.9184C39.119 56.9184 39.5957 57.0351 40.0223 57.2684C40.449 57.5018 40.7857 57.8351 41.0323 58.2684C41.279 58.7018 41.4023 59.1984 41.4023 59.7584C41.4023 60.3184 41.2757 60.8151 41.0223 61.2484C40.769 61.6818 40.4223 62.0184 39.9823 62.2584C39.549 62.4918 39.069 62.6084 38.5423 62.6084ZM38.5423 61.6184C38.8357 61.6184 39.109 61.5484 39.3623 61.4084C39.6223 61.2684 39.8323 61.0584 39.9923 60.7784C40.1523 60.4984 40.2323 60.1584 40.2323 59.7584C40.2323 59.3584 40.1557 59.0218 40.0023 58.7484C39.849 58.4684 39.6457 58.2584 39.3923 58.1184C39.139 57.9784 38.8657 57.9084 38.5723 57.9084C38.279 57.9084 38.0057 57.9784 37.7523 58.1184C37.5057 58.2584 37.309 58.4684 37.1623 58.7484C37.0157 59.0218 36.9423 59.3584 36.9423 59.7584C36.9423 60.3518 37.0923 60.8118 37.3923 61.1384C37.699 61.4584 38.0823 61.6184 38.5423 61.6184ZM43.6693 57.8084C43.836 57.5284 44.056 57.3118 44.3293 57.1584C44.6093 56.9984 44.9393 56.9184 45.3193 56.9184V58.0984H45.0293C44.5826 58.0984 44.2426 58.2118 44.0093 58.4384C43.7826 58.6651 43.6693 59.0584 43.6693 59.6184V62.5184H42.5293V57.0084H43.6693V57.8084ZM53.0372 56.9184C53.4705 56.9184 53.8572 57.0084 54.1972 57.1884C54.5439 57.3684 54.8139 57.6351 55.0072 57.9884C55.2072 58.3418 55.3072 58.7684 55.3072 59.2684V62.5184H54.1772V59.4384C54.1772 58.9451 54.0539 58.5684 53.8072 58.3084C53.5605 58.0418 53.2239 57.9084 52.7972 57.9084C52.3705 57.9084 52.0305 58.0418 51.7772 58.3084C51.5305 58.5684 51.4072 58.9451 51.4072 59.4384V62.5184H50.2772V59.4384C50.2772 58.9451 50.1539 58.5684 49.9072 58.3084C49.6605 58.0418 49.3239 57.9084 48.8972 57.9084C48.4705 57.9084 48.1305 58.0418 47.8772 58.3084C47.6305 58.5684 47.5072 58.9451 47.5072 59.4384V62.5184H46.3672V57.0084H47.5072V57.6384C47.6939 57.4118 47.9305 57.2351 48.2172 57.1084C48.5039 56.9818 48.8105 56.9184 49.1372 56.9184C49.5772 56.9184 49.9705 57.0118 50.3172 57.1984C50.6639 57.3851 50.9305 57.6551 51.1172 58.0084C51.2839 57.6751 51.5439 57.4118 51.8972 57.2184C52.2505 57.0184 52.6305 56.9184 53.0372 56.9184ZM63.8455 55.5684V56.4984H61.9955V62.5184H60.8555V56.4984H58.9955V55.5684H63.8455ZM70.05 59.6284C70.05 59.8351 70.0367 60.0218 70.01 60.1884H65.8C65.8333 60.6284 65.9967 60.9818 66.29 61.2484C66.5833 61.5151 66.9433 61.6484 67.37 61.6484C67.9833 61.6484 68.4167 61.3918 68.67 60.8784H69.9C69.7333 61.3851 69.43 61.8018 68.99 62.1284C68.5567 62.4484 68.0167 62.6084 67.37 62.6084C66.8433 62.6084 66.37 62.4918 65.95 62.2584C65.5367 62.0184 65.21 61.6851 64.97 61.2584C64.7367 60.8251 64.62 60.3251 64.62 59.7584C64.62 59.1918 64.7333 58.6951 64.96 58.2684C65.1933 57.8351 65.5167 57.5018 65.93 57.2684C66.35 57.0351 66.83 56.9184 67.37 56.9184C67.89 56.9184 68.3533 57.0318 68.76 57.2584C69.1667 57.4851 69.4833 57.8051 69.71 58.2184C69.9367 58.6251 70.05 59.0951 70.05 59.6284ZM68.86 59.2684C68.8533 58.8484 68.7033 58.5118 68.41 58.2584C68.1167 58.0051 67.7533 57.8784 67.32 57.8784C66.9267 57.8784 66.59 58.0051 66.31 58.2584C66.03 58.5051 65.8633 58.8418 65.81 59.2684H68.86ZM70.7919 59.7384C70.7919 59.1851 70.9052 58.6951 71.1319 58.2684C71.3652 57.8418 71.6785 57.5118 72.0719 57.2784C72.4719 57.0384 72.9119 56.9184 73.3919 56.9184C73.8252 56.9184 74.2019 57.0051 74.5219 57.1784C74.8485 57.3451 75.1085 57.5551 75.3019 57.8084V57.0084H76.4519V62.5184H75.3019V61.6984C75.1085 61.9584 74.8452 62.1751 74.5119 62.3484C74.1785 62.5218 73.7985 62.6084 73.3719 62.6084C72.8985 62.6084 72.4652 62.4884 72.0719 62.2484C71.6785 62.0018 71.3652 61.6618 71.1319 61.2284C70.9052 60.7884 70.7919 60.2918 70.7919 59.7384ZM75.3019 59.7584C75.3019 59.3784 75.2219 59.0484 75.0619 58.7684C74.9085 58.4884 74.7052 58.2751 74.4519 58.1284C74.1985 57.9818 73.9252 57.9084 73.6319 57.9084C73.3385 57.9084 73.0652 57.9818 72.8119 58.1284C72.5585 58.2684 72.3519 58.4784 72.1919 58.7584C72.0385 59.0318 71.9619 59.3584 71.9619 59.7384C71.9619 60.1184 72.0385 60.4518 72.1919 60.7384C72.3519 61.0251 72.5585 61.2451 72.8119 61.3984C73.0719 61.5451 73.3452 61.6184 73.6319 61.6184C73.9252 61.6184 74.1985 61.5451 74.4519 61.3984C74.7052 61.2518 74.9085 61.0384 75.0619 60.7584C75.2219 60.4718 75.3019 60.1384 75.3019 59.7584ZM84.6192 56.9184C85.0526 56.9184 85.4392 57.0084 85.7792 57.1884C86.1259 57.3684 86.3959 57.6351 86.5892 57.9884C86.7892 58.3418 86.8892 58.7684 86.8892 59.2684V62.5184H85.7592V59.4384C85.7592 58.9451 85.6359 58.5684 85.3892 58.3084C85.1426 58.0418 84.8059 57.9084 84.3792 57.9084C83.9526 57.9084 83.6126 58.0418 83.3592 58.3084C83.1126 58.5684 82.9892 58.9451 82.9892 59.4384V62.5184H81.8592V59.4384C81.8592 58.9451 81.7359 58.5684 81.4892 58.3084C81.2426 58.0418 80.9059 57.9084 80.4792 57.9084C80.0526 57.9084 79.7126 58.0418 79.4592 58.3084C79.2126 58.5684 79.0892 58.9451 79.0892 59.4384V62.5184H77.9492V57.0084H79.0892V57.6384C79.2759 57.4118 79.5126 57.2351 79.7992 57.1084C80.0859 56.9818 80.3926 56.9184 80.7192 56.9184C81.1592 56.9184 81.5526 57.0118 81.8992 57.1984C82.2459 57.3851 82.5126 57.6551 82.6992 58.0084C82.8659 57.6751 83.1259 57.4118 83.4792 57.2184C83.8326 57.0184 84.2126 56.9184 84.6192 56.9184Z" fill="#9D9E9F"/>
<path d="M162.624 39.4075C162.96 40.3445 163.588 41.1484 164.415 41.7002H169.546C170.373 41.1484 171.001 40.3445 171.337 39.4075C171.673 38.4704 171.699 37.4498 171.411 36.4968C171.124 35.5437 170.538 34.7087 169.74 34.1152C168.942 33.5217 167.974 33.2013 166.981 33.2013C165.987 33.2013 165.019 33.5217 164.222 34.1152C163.424 34.7087 162.837 35.5437 162.55 36.4968C162.262 37.4498 162.288 38.4704 162.624 39.4075Z" fill="#9D9E9F"/>
<path d="M161.038 39.5724L161.352 45.5508C161.37 45.8818 161.643 46.1412 161.975 46.1412H172.175C172.507 46.1412 172.78 45.8818 172.797 45.5508L173.111 39.5724C173.13 39.2159 172.846 38.9166 172.489 38.9166H161.661C161.304 38.9166 161.02 39.2159 161.038 39.5724Z" fill="#151B1E"/>
<path d="M160.118 40.4251L160.76 46.3252C160.795 46.6414 161.062 46.8809 161.38 46.8809H172.88C173.198 46.8809 173.465 46.6412 173.499 46.3249L174.139 40.4248C174.179 40.0562 173.89 39.7345 173.519 39.7345H160.738C160.367 39.7345 160.078 40.0564 160.118 40.4251Z" fill="#9D9E9F"/>
<ellipse cx="167.133" cy="43.3302" rx="0.877592" ry="0.879307" fill="#151B1F"/>
<path d="M159.521 48.1565H174.477" stroke="#9D9E9F" stroke-width="0.729604" stroke-linecap="round"/>
<path d="M142.94 61.0984H140.03L139.53 62.5184H138.34L140.83 55.5584H142.15L144.64 62.5184H143.44L142.94 61.0984ZM142.62 60.1684L141.49 56.9384L140.35 60.1684H142.62ZM146.863 57.8184C147.056 57.5651 147.319 57.3518 147.653 57.1784C147.986 57.0051 148.363 56.9184 148.783 56.9184C149.263 56.9184 149.699 57.0384 150.093 57.2784C150.493 57.5118 150.806 57.8418 151.033 58.2684C151.259 58.6951 151.373 59.1851 151.373 59.7384C151.373 60.2918 151.259 60.7884 151.033 61.2284C150.806 61.6618 150.493 62.0018 150.093 62.2484C149.699 62.4884 149.263 62.6084 148.783 62.6084C148.363 62.6084 147.989 62.5251 147.663 62.3584C147.336 62.1851 147.069 61.9718 146.863 61.7184V65.1384H145.723V57.0084H146.863V57.8184ZM150.213 59.7384C150.213 59.3584 150.133 59.0318 149.973 58.7584C149.819 58.4784 149.613 58.2684 149.353 58.1284C149.099 57.9818 148.826 57.9084 148.533 57.9084C148.246 57.9084 147.973 57.9818 147.713 58.1284C147.459 58.2751 147.253 58.4884 147.093 58.7684C146.939 59.0484 146.863 59.3784 146.863 59.7584C146.863 60.1384 146.939 60.4718 147.093 60.7584C147.253 61.0384 147.459 61.2518 147.713 61.3984C147.973 61.5451 148.246 61.6184 148.533 61.6184C148.826 61.6184 149.099 61.5451 149.353 61.3984C149.613 61.2451 149.819 61.0251 149.973 60.7384C150.133 60.4518 150.213 60.1184 150.213 59.7384ZM153.64 57.8184C153.833 57.5651 154.097 57.3518 154.43 57.1784C154.763 57.0051 155.14 56.9184 155.56 56.9184C156.04 56.9184 156.477 57.0384 156.87 57.2784C157.27 57.5118 157.583 57.8418 157.81 58.2684C158.037 58.6951 158.15 59.1851 158.15 59.7384C158.15 60.2918 158.037 60.7884 157.81 61.2284C157.583 61.6618 157.27 62.0018 156.87 62.2484C156.477 62.4884 156.04 62.6084 155.56 62.6084C155.14 62.6084 154.767 62.5251 154.44 62.3584C154.113 62.1851 153.847 61.9718 153.64 61.7184V65.1384H152.5V57.0084H153.64V57.8184ZM156.99 59.7384C156.99 59.3584 156.91 59.0318 156.75 58.7584C156.597 58.4784 156.39 58.2684 156.13 58.1284C155.877 57.9818 155.603 57.9084 155.31 57.9084C155.023 57.9084 154.75 57.9818 154.49 58.1284C154.237 58.2751 154.03 58.4884 153.87 58.7684C153.717 59.0484 153.64 59.3784 153.64 59.7584C153.64 60.1384 153.717 60.4718 153.87 60.7584C154.03 61.0384 154.237 61.2518 154.49 61.3984C154.75 61.5451 155.023 61.6184 155.31 61.6184C155.603 61.6184 155.877 61.5451 156.13 61.3984C156.39 61.2451 156.597 61.0251 156.75 60.7384C156.91 60.4518 156.99 60.1184 156.99 59.7384ZM166.365 55.5684V56.4984H164.515V62.5184H163.375V56.4984H161.515V55.5684H166.365ZM172.57 59.6284C172.57 59.8351 172.556 60.0218 172.53 60.1884H168.32C168.353 60.6284 168.516 60.9818 168.81 61.2484C169.103 61.5151 169.463 61.6484 169.89 61.6484C170.503 61.6484 170.936 61.3918 171.19 60.8784H172.42C172.253 61.3851 171.95 61.8018 171.51 62.1284C171.076 62.4484 170.536 62.6084 169.89 62.6084C169.363 62.6084 168.89 62.4918 168.47 62.2584C168.056 62.0184 167.73 61.6851 167.49 61.2584C167.256 60.8251 167.14 60.3251 167.14 59.7584C167.14 59.1918 167.253 58.6951 167.48 58.2684C167.713 57.8351 168.036 57.5018 168.45 57.2684C168.87 57.0351 169.35 56.9184 169.89 56.9184C170.41 56.9184 170.873 57.0318 171.28 57.2584C171.686 57.4851 172.003 57.8051 172.23 58.2184C172.456 58.6251 172.57 59.0951 172.57 59.6284ZM171.38 59.2684C171.373 58.8484 171.223 58.5118 170.93 58.2584C170.636 58.0051 170.273 57.8784 169.84 57.8784C169.446 57.8784 169.11 58.0051 168.83 58.2584C168.55 58.5051 168.383 58.8418 168.33 59.2684H171.38ZM173.311 59.7384C173.311 59.1851 173.425 58.6951 173.651 58.2684C173.885 57.8418 174.198 57.5118 174.591 57.2784C174.991 57.0384 175.431 56.9184 175.911 56.9184C176.345 56.9184 176.721 57.0051 177.041 57.1784C177.368 57.3451 177.628 57.5551 177.821 57.8084V57.0084H178.971V62.5184H177.821V61.6984C177.628 61.9584 177.365 62.1751 177.031 62.3484C176.698 62.5218 176.318 62.6084 175.891 62.6084C175.418 62.6084 174.985 62.4884 174.591 62.2484C174.198 62.0018 173.885 61.6618 173.651 61.2284C173.425 60.7884 173.311 60.2918 173.311 59.7384ZM177.821 59.7584C177.821 59.3784 177.741 59.0484 177.581 58.7684C177.428 58.4884 177.225 58.2751 176.971 58.1284C176.718 57.9818 176.445 57.9084 176.151 57.9084C175.858 57.9084 175.585 57.9818 175.331 58.1284C175.078 58.2684 174.871 58.4784 174.711 58.7584C174.558 59.0318 174.481 59.3584 174.481 59.7384C174.481 60.1184 174.558 60.4518 174.711 60.7384C174.871 61.0251 175.078 61.2451 175.331 61.3984C175.591 61.5451 175.865 61.6184 176.151 61.6184C176.445 61.6184 176.718 61.5451 176.971 61.3984C177.225 61.2518 177.428 61.0384 177.581 60.7584C177.741 60.4718 177.821 60.1384 177.821 59.7584ZM187.139 56.9184C187.572 56.9184 187.959 57.0084 188.299 57.1884C188.645 57.3684 188.915 57.6351 189.109 57.9884C189.309 58.3418 189.409 58.7684 189.409 59.2684V62.5184H188.279V59.4384C188.279 58.9451 188.155 58.5684 187.909 58.3084C187.662 58.0418 187.325 57.9084 186.899 57.9084C186.472 57.9084 186.132 58.0418 185.879 58.3084C185.632 58.5684 185.509 58.9451 185.509 59.4384V62.5184H184.379V59.4384C184.379 58.9451 184.255 58.5684 184.009 58.3084C183.762 58.0418 183.425 57.9084 182.999 57.9084C182.572 57.9084 182.232 58.0418 181.979 58.3084C181.732 58.5684 181.609 58.9451 181.609 59.4384V62.5184H180.469V57.0084H181.609V57.6384C181.795 57.4118 182.032 57.2351 182.319 57.1084C182.605 56.9818 182.912 56.9184 183.239 56.9184C183.679 56.9184 184.072 57.0118 184.419 57.1984C184.765 57.3851 185.032 57.6551 185.219 58.0084C185.385 57.6751 185.645 57.4118 185.999 57.2184C186.352 57.0184 186.732 56.9184 187.139 56.9184ZM192.859 62.6084C192.426 62.6084 192.036 62.5318 191.689 62.3784C191.349 62.2184 191.079 62.0051 190.879 61.7384C190.679 61.4651 190.573 61.1618 190.559 60.8284H191.739C191.759 61.0618 191.869 61.2584 192.069 61.4184C192.276 61.5718 192.533 61.6484 192.839 61.6484C193.159 61.6484 193.406 61.5884 193.579 61.4684C193.759 61.3418 193.849 61.1818 193.849 60.9884C193.849 60.7818 193.749 60.6284 193.549 60.5284C193.356 60.4284 193.046 60.3184 192.619 60.1984C192.206 60.0851 191.869 59.9751 191.609 59.8684C191.349 59.7618 191.123 59.5984 190.929 59.3784C190.743 59.1584 190.649 58.8684 190.649 58.5084C190.649 58.2151 190.736 57.9484 190.909 57.7084C191.083 57.4618 191.329 57.2684 191.649 57.1284C191.976 56.9884 192.349 56.9184 192.769 56.9184C193.396 56.9184 193.899 57.0784 194.279 57.3984C194.666 57.7118 194.873 58.1418 194.899 58.6884H193.759C193.739 58.4418 193.639 58.2451 193.459 58.0984C193.279 57.9518 193.036 57.8784 192.729 57.8784C192.429 57.8784 192.199 57.9351 192.039 58.0484C191.879 58.1618 191.799 58.3118 191.799 58.4984C191.799 58.6451 191.853 58.7684 191.959 58.8684C192.066 58.9684 192.196 59.0484 192.349 59.1084C192.503 59.1618 192.729 59.2318 193.029 59.3184C193.429 59.4251 193.756 59.5351 194.009 59.6484C194.269 59.7551 194.493 59.9151 194.679 60.1284C194.866 60.3418 194.963 60.6251 194.969 60.9784C194.969 61.2918 194.883 61.5718 194.709 61.8184C194.536 62.0651 194.289 62.2584 193.969 62.3984C193.656 62.5384 193.286 62.6084 192.859 62.6084Z" fill="#9D9E9F"/>
<path d="M269.836 34.651C270.976 34.3149 272.202 34.4262 273.263 34.9615C273.303 34.9825 273.339 35.0123 273.367 35.0485C273.395 35.0846 273.414 35.127 273.424 35.1715C273.434 35.216 273.434 35.2618 273.424 35.3063C273.414 35.3508 273.394 35.3932 273.366 35.4293C272.577 36.4136 272.124 37.6249 272.073 38.8854C272.022 40.1459 272.377 41.3895 273.084 42.4342C273.13 42.5024 273.146 42.5861 273.131 42.6666C273.115 42.7471 273.069 42.8186 273.001 42.8649C272.079 43.5084 271.289 44.324 270.676 45.2662C270.428 45.6451 270.328 46.1015 270.392 46.5494C270.399 46.594 270.396 46.6397 270.384 46.6832C270.372 46.7266 270.351 46.7671 270.321 46.8014C270.292 46.8358 270.255 46.8635 270.214 46.8824C270.173 46.9012 270.129 46.9107 270.084 46.9108H265.387C265.25 46.9108 265.116 46.8654 265.007 46.7819C264.898 46.6984 264.82 46.5812 264.784 46.4489C264.763 46.3619 264.76 46.2714 264.775 46.1832C264.791 46.0948 264.826 46.0105 264.876 45.9362C265.753 44.5917 267.041 43.5656 268.547 43.0104C267.561 42.3463 266.865 41.3314 266.601 40.1725C266.337 39.0135 266.524 37.7967 267.125 36.7711C267.726 35.7455 268.696 34.9872 269.836 34.651ZM278.008 34.4459C279.011 34.4459 279.988 34.7689 280.793 35.3668C281.599 35.9648 282.191 36.806 282.482 37.7662C282.772 38.7266 282.746 39.7556 282.406 40.6998C282.067 41.6439 281.433 42.4535 280.598 43.0094C282.108 43.5662 283.398 44.5969 284.275 45.9469C284.337 46.0409 284.372 46.1502 284.376 46.2623C284.381 46.3744 284.355 46.486 284.302 46.5846C284.248 46.6831 284.169 46.7655 284.072 46.8229C283.976 46.8802 283.866 46.9107 283.754 46.9108H272.262C272.15 46.9108 272.04 46.8802 271.943 46.8229C271.847 46.7655 271.767 46.6831 271.714 46.5846C271.661 46.486 271.635 46.3744 271.64 46.2623C271.644 46.1502 271.679 46.0409 271.74 45.9469C272.617 44.5969 273.907 43.5662 275.418 43.0094C274.583 42.4535 273.949 41.6439 273.609 40.6998C273.27 39.7556 273.244 38.7266 273.534 37.7662C273.825 36.806 274.417 35.9648 275.223 35.3668C276.028 34.7689 277.005 34.4459 278.008 34.4459ZM282.735 34.9615C283.797 34.426 285.023 34.3148 286.163 34.651C287.303 34.9872 288.272 35.7455 288.873 36.7711C289.474 37.7967 289.663 39.0125 289.399 40.1715C289.135 41.3305 288.438 42.3453 287.452 43.0094C288.959 43.5646 290.246 44.5908 291.123 45.9352C291.173 46.0096 291.208 46.0938 291.224 46.1823C291.239 46.2707 291.237 46.3617 291.215 46.4489C291.179 46.5812 291.101 46.6984 290.992 46.7819C290.883 46.8654 290.75 46.9108 290.612 46.9108H285.915C285.87 46.9107 285.825 46.9003 285.784 46.8815C285.744 46.8626 285.707 46.8346 285.678 46.8004C285.649 46.7661 285.627 46.7256 285.615 46.6823C285.603 46.639 285.6 46.5937 285.608 46.5494C285.672 46.1015 285.571 45.6451 285.323 45.2662C284.71 44.3238 283.92 43.5085 282.998 42.8649C282.93 42.8186 282.884 42.7472 282.868 42.6666C282.853 42.586 282.869 42.5025 282.915 42.4342C283.622 41.3894 283.977 40.1451 283.926 38.8844C283.875 37.6239 283.421 36.4127 282.632 35.4283C282.604 35.3924 282.585 35.3506 282.575 35.3063C282.565 35.2617 282.564 35.2151 282.574 35.1705C282.584 35.1259 282.604 35.0837 282.632 35.0475C282.66 35.0116 282.695 34.9824 282.735 34.9615Z" fill="#9D9E9F"/>
<path d="M274.379 42.7517C275.339 43.7155 276.641 44.2574 277.999 44.2574C279.358 44.2574 280.66 43.7155 281.62 42.7517" stroke="#151A1E" stroke-width="0.934701"/>
<path d="M283.707 44.1124C284.557 44.316 285.446 44.2974 286.288 44.0583C287.129 43.8192 287.896 43.3676 288.514 42.7468" stroke="#151A1E" stroke-width="0.934701"/>
<path d="M267.689 42.9085C268.299 43.4693 269.035 43.8734 269.835 44.0861C270.635 44.2988 271.474 44.3136 272.281 44.1294" stroke="#151A1E" stroke-width="0.934701"/>
<path d="M253.94 61.0984H251.03L250.53 62.5184H249.34L251.83 55.5584H253.15L255.64 62.5184H254.44L253.94 61.0984ZM253.62 60.1684L252.49 56.9384L251.35 60.1684H253.62ZM257.863 57.8184C258.056 57.5651 258.319 57.3518 258.653 57.1784C258.986 57.0051 259.363 56.9184 259.783 56.9184C260.263 56.9184 260.699 57.0384 261.093 57.2784C261.493 57.5118 261.806 57.8418 262.033 58.2684C262.259 58.6951 262.373 59.1851 262.373 59.7384C262.373 60.2918 262.259 60.7884 262.033 61.2284C261.806 61.6618 261.493 62.0018 261.093 62.2484C260.699 62.4884 260.263 62.6084 259.783 62.6084C259.363 62.6084 258.989 62.5251 258.663 62.3584C258.336 62.1851 258.069 61.9718 257.863 61.7184V65.1384H256.723V57.0084H257.863V57.8184ZM261.213 59.7384C261.213 59.3584 261.133 59.0318 260.973 58.7584C260.819 58.4784 260.613 58.2684 260.353 58.1284C260.099 57.9818 259.826 57.9084 259.533 57.9084C259.246 57.9084 258.973 57.9818 258.713 58.1284C258.459 58.2751 258.253 58.4884 258.093 58.7684C257.939 59.0484 257.863 59.3784 257.863 59.7584C257.863 60.1384 257.939 60.4718 258.093 60.7584C258.253 61.0384 258.459 61.2518 258.713 61.3984C258.973 61.5451 259.246 61.6184 259.533 61.6184C259.826 61.6184 260.099 61.5451 260.353 61.3984C260.613 61.2451 260.819 61.0251 260.973 60.7384C261.133 60.4518 261.213 60.1184 261.213 59.7384ZM264.64 57.8184C264.833 57.5651 265.097 57.3518 265.43 57.1784C265.763 57.0051 266.14 56.9184 266.56 56.9184C267.04 56.9184 267.477 57.0384 267.87 57.2784C268.27 57.5118 268.583 57.8418 268.81 58.2684C269.037 58.6951 269.15 59.1851 269.15 59.7384C269.15 60.2918 269.037 60.7884 268.81 61.2284C268.583 61.6618 268.27 62.0018 267.87 62.2484C267.477 62.4884 267.04 62.6084 266.56 62.6084C266.14 62.6084 265.767 62.5251 265.44 62.3584C265.113 62.1851 264.847 61.9718 264.64 61.7184V65.1384H263.5V57.0084H264.64V57.8184ZM267.99 59.7384C267.99 59.3584 267.91 59.0318 267.75 58.7584C267.597 58.4784 267.39 58.2684 267.13 58.1284C266.877 57.9818 266.603 57.9084 266.31 57.9084C266.023 57.9084 265.75 57.9818 265.49 58.1284C265.237 58.2751 265.03 58.4884 264.87 58.7684C264.717 59.0484 264.64 59.3784 264.64 59.7584C264.64 60.1384 264.717 60.4718 264.87 60.7584C265.03 61.0384 265.237 61.2518 265.49 61.3984C265.75 61.5451 266.023 61.6184 266.31 61.6184C266.603 61.6184 266.877 61.5451 267.13 61.3984C267.39 61.2451 267.597 61.0251 267.75 60.7384C267.91 60.4518 267.99 60.1184 267.99 59.7384ZM277.365 55.5684V56.4984H275.515V62.5184H274.375V56.4984H272.515V55.5684H277.365ZM283.57 59.6284C283.57 59.8351 283.556 60.0218 283.53 60.1884H279.32C279.353 60.6284 279.516 60.9818 279.81 61.2484C280.103 61.5151 280.463 61.6484 280.89 61.6484C281.503 61.6484 281.936 61.3918 282.19 60.8784H283.42C283.253 61.3851 282.95 61.8018 282.51 62.1284C282.076 62.4484 281.536 62.6084 280.89 62.6084C280.363 62.6084 279.89 62.4918 279.47 62.2584C279.056 62.0184 278.73 61.6851 278.49 61.2584C278.256 60.8251 278.14 60.3251 278.14 59.7584C278.14 59.1918 278.253 58.6951 278.48 58.2684C278.713 57.8351 279.036 57.5018 279.45 57.2684C279.87 57.0351 280.35 56.9184 280.89 56.9184C281.41 56.9184 281.873 57.0318 282.28 57.2584C282.686 57.4851 283.003 57.8051 283.23 58.2184C283.456 58.6251 283.57 59.0951 283.57 59.6284ZM282.38 59.2684C282.373 58.8484 282.223 58.5118 281.93 58.2584C281.636 58.0051 281.273 57.8784 280.84 57.8784C280.446 57.8784 280.11 58.0051 279.83 58.2584C279.55 58.5051 279.383 58.8418 279.33 59.2684H282.38ZM284.311 59.7384C284.311 59.1851 284.425 58.6951 284.651 58.2684C284.885 57.8418 285.198 57.5118 285.591 57.2784C285.991 57.0384 286.431 56.9184 286.911 56.9184C287.345 56.9184 287.721 57.0051 288.041 57.1784C288.368 57.3451 288.628 57.5551 288.821 57.8084V57.0084H289.971V62.5184H288.821V61.6984C288.628 61.9584 288.365 62.1751 288.031 62.3484C287.698 62.5218 287.318 62.6084 286.891 62.6084C286.418 62.6084 285.985 62.4884 285.591 62.2484C285.198 62.0018 284.885 61.6618 284.651 61.2284C284.425 60.7884 284.311 60.2918 284.311 59.7384ZM288.821 59.7584C288.821 59.3784 288.741 59.0484 288.581 58.7684C288.428 58.4884 288.225 58.2751 287.971 58.1284C287.718 57.9818 287.445 57.9084 287.151 57.9084C286.858 57.9084 286.585 57.9818 286.331 58.1284C286.078 58.2684 285.871 58.4784 285.711 58.7584C285.558 59.0318 285.481 59.3584 285.481 59.7384C285.481 60.1184 285.558 60.4518 285.711 60.7384C285.871 61.0251 286.078 61.2451 286.331 61.3984C286.591 61.5451 286.865 61.6184 287.151 61.6184C287.445 61.6184 287.718 61.5451 287.971 61.3984C288.225 61.2518 288.428 61.0384 288.581 60.7584C288.741 60.4718 288.821 60.1384 288.821 59.7584ZM298.139 56.9184C298.572 56.9184 298.959 57.0084 299.299 57.1884C299.645 57.3684 299.915 57.6351 300.109 57.9884C300.309 58.3418 300.409 58.7684 300.409 59.2684V62.5184H299.279V59.4384C299.279 58.9451 299.155 58.5684 298.909 58.3084C298.662 58.0418 298.325 57.9084 297.899 57.9084C297.472 57.9084 297.132 58.0418 296.879 58.3084C296.632 58.5684 296.509 58.9451 296.509 59.4384V62.5184H295.379V59.4384C295.379 58.9451 295.255 58.5684 295.009 58.3084C294.762 58.0418 294.425 57.9084 293.999 57.9084C293.572 57.9084 293.232 58.0418 292.979 58.3084C292.732 58.5684 292.609 58.9451 292.609 59.4384V62.5184H291.469V57.0084H292.609V57.6384C292.795 57.4118 293.032 57.2351 293.319 57.1084C293.605 56.9818 293.912 56.9184 294.239 56.9184C294.679 56.9184 295.072 57.0118 295.419 57.1984C295.765 57.3851 296.032 57.6551 296.219 58.0084C296.385 57.6751 296.645 57.4118 296.999 57.2184C297.352 57.0184 297.732 56.9184 298.139 56.9184ZM303.859 62.6084C303.426 62.6084 303.036 62.5318 302.689 62.3784C302.349 62.2184 302.079 62.0051 301.879 61.7384C301.679 61.4651 301.573 61.1618 301.559 60.8284H302.739C302.759 61.0618 302.869 61.2584 303.069 61.4184C303.276 61.5718 303.533 61.6484 303.839 61.6484C304.159 61.6484 304.406 61.5884 304.579 61.4684C304.759 61.3418 304.849 61.1818 304.849 60.9884C304.849 60.7818 304.749 60.6284 304.549 60.5284C304.356 60.4284 304.046 60.3184 303.619 60.1984C303.206 60.0851 302.869 59.9751 302.609 59.8684C302.349 59.7618 302.123 59.5984 301.929 59.3784C301.743 59.1584 301.649 58.8684 301.649 58.5084C301.649 58.2151 301.736 57.9484 301.909 57.7084C302.083 57.4618 302.329 57.2684 302.649 57.1284C302.976 56.9884 303.349 56.9184 303.769 56.9184C304.396 56.9184 304.899 57.0784 305.279 57.3984C305.666 57.7118 305.873 58.1418 305.899 58.6884H304.759C304.739 58.4418 304.639 58.2451 304.459 58.0984C304.279 57.9518 304.036 57.8784 303.729 57.8784C303.429 57.8784 303.199 57.9351 303.039 58.0484C302.879 58.1618 302.799 58.3118 302.799 58.4984C302.799 58.6451 302.853 58.7684 302.959 58.8684C303.066 58.9684 303.196 59.0484 303.349 59.1084C303.503 59.1618 303.729 59.2318 304.029 59.3184C304.429 59.4251 304.756 59.5351 305.009 59.6484C305.269 59.7551 305.493 59.9151 305.679 60.1284C305.866 60.3418 305.963 60.6251 305.969 60.9784C305.969 61.2918 305.883 61.5718 305.709 61.8184C305.536 62.0651 305.289 62.2584 304.969 62.3984C304.656 62.5384 304.286 62.6084 303.859 62.6084Z" fill="#9D9E9F"/>
<path d="M111.334 17.0001L111.334 403" stroke="url(#paint16_linear_9684_115474)" stroke-width="0.934701" stroke-dasharray="0.99 3.97"/>
<path d="M222.666 17.0001L222.666 403" stroke="url(#paint17_linear_9684_115474)" stroke-width="0.934701" stroke-dasharray="0.99 3.97"/>
</g>
<rect x="0.311567" y="0.651533" width="333.377" height="423.377" rx="9.65858" stroke="url(#paint18_linear_9684_115474)" stroke-opacity="0.47" stroke-width="0.623134"/>
<defs>
<linearGradient id="paint0_linear_9684_115474" x1="167" y1="0.339966" x2="167" y2="424.34" gradientUnits="userSpaceOnUse">
<stop stop-color="#161C20"/>
<stop offset="1" stop-color="#0A0D0F"/>
</linearGradient>
<radialGradient id="paint1_radial_9684_115474" cx="0" cy="0" r="1" gradientUnits="userSpaceOnUse" gradientTransform="translate(164 212) rotate(90) scale(212 209.528)">
<stop stop-color="#D9D9D9" stop-opacity="0.8"/>
<stop offset="1" stop-color="#737373"/>
</radialGradient>
<linearGradient id="paint2_linear_9684_115474" x1="51" y1="220.34" x2="51" y2="268.34" gradientUnits="userSpaceOnUse">
<stop stop-color="#161C20"/>
<stop offset="1" stop-color="#0A0D0F"/>
</linearGradient>
<linearGradient id="paint3_linear_9684_115474" x1="51" y1="244.324" x2="51" y2="268.34" gradientUnits="userSpaceOnUse">
<stop stop-color="#3B3D3F" stop-opacity="0.5"/>
<stop offset="1" stop-color="#3B3D3F" stop-opacity="0.89"/>
</linearGradient>
<linearGradient id="paint4_linear_9684_115474" x1="167" y1="132.34" x2="167" y2="180.34" gradientUnits="userSpaceOnUse">
<stop stop-color="#161C20"/>
<stop offset="1" stop-color="#0A0D0F"/>
</linearGradient>
<linearGradient id="paint5_linear_9684_115474" x1="167" y1="156.324" x2="167" y2="180.34" gradientUnits="userSpaceOnUse">
<stop stop-color="#3B3D3F" stop-opacity="0.5"/>
<stop offset="1" stop-color="#3B3D3F" stop-opacity="0.89"/>
</linearGradient>
<linearGradient id="paint6_linear_9684_115474" x1="167" y1="308.34" x2="167" y2="356.34" gradientUnits="userSpaceOnUse">
<stop stop-color="#161C20"/>
<stop offset="1" stop-color="#0A0D0F"/>
</linearGradient>
<linearGradient id="paint7_linear_9684_115474" x1="167" y1="332.324" x2="167" y2="356.34" gradientUnits="userSpaceOnUse">
<stop stop-color="#3B3D3F" stop-opacity="0.5"/>
<stop offset="1" stop-color="#3B3D3F" stop-opacity="0.89"/>
</linearGradient>
<linearGradient id="paint8_linear_9684_115474" x1="278" y1="96.9982" x2="278" y2="144.998" gradientUnits="userSpaceOnUse">
<stop stop-color="#161C20"/>
<stop offset="1" stop-color="#0A0D0F"/>
</linearGradient>
<linearGradient id="paint9_linear_9684_115474" x1="278" y1="120.982" x2="278" y2="144.998" gradientUnits="userSpaceOnUse">
<stop stop-color="#3B3D3F" stop-opacity="0.5"/>
<stop offset="1" stop-color="#3B3D3F" stop-opacity="0.89"/>
</linearGradient>
<linearGradient id="paint10_linear_9684_115474" x1="278" y1="170.998" x2="278" y2="218.998" gradientUnits="userSpaceOnUse">
<stop stop-color="#161C20"/>
<stop offset="1" stop-color="#0A0D0F"/>
</linearGradient>
<linearGradient id="paint11_linear_9684_115474" x1="278" y1="194.982" x2="278" y2="218.998" gradientUnits="userSpaceOnUse">
<stop stop-color="#3B3D3F" stop-opacity="0.5"/>
<stop offset="1" stop-color="#3B3D3F" stop-opacity="0.89"/>
</linearGradient>
<linearGradient id="paint12_linear_9684_115474" x1="278" y1="346.998" x2="278" y2="394.998" gradientUnits="userSpaceOnUse">
<stop stop-color="#161C20"/>
<stop offset="1" stop-color="#0A0D0F"/>
</linearGradient>
<linearGradient id="paint13_linear_9684_115474" x1="278" y1="370.982" x2="278" y2="394.998" gradientUnits="userSpaceOnUse">
<stop stop-color="#3B3D3F" stop-opacity="0.5"/>
<stop offset="1" stop-color="#3B3D3F" stop-opacity="0.89"/>
</linearGradient>
<linearGradient id="paint14_linear_9684_115474" x1="278" y1="256.998" x2="278" y2="304.998" gradientUnits="userSpaceOnUse">
<stop stop-color="#161C20"/>
<stop offset="1" stop-color="#0A0D0F"/>
</linearGradient>
<linearGradient id="paint15_linear_9684_115474" x1="278" y1="280.982" x2="278" y2="304.998" gradientUnits="userSpaceOnUse">
<stop stop-color="#3B3D3F" stop-opacity="0.5"/>
<stop offset="1" stop-color="#3B3D3F" stop-opacity="0.89"/>
</linearGradient>
<linearGradient id="paint16_linear_9684_115474" x1="111.834" y1="28.163" x2="111.834" y2="406.525" gradientUnits="userSpaceOnUse">
<stop stop-color="#6C6E6F" stop-opacity="0"/>
<stop offset="0.5" stop-color="#4B4D4E"/>
<stop offset="1" stop-color="#6C6E6F" stop-opacity="0"/>
</linearGradient>
<linearGradient id="paint17_linear_9684_115474" x1="223.166" y1="28.163" x2="223.166" y2="406.525" gradientUnits="userSpaceOnUse">
<stop stop-color="#6C6E6F" stop-opacity="0"/>
<stop offset="0.5" stop-color="#4B4D4E"/>
<stop offset="1" stop-color="#6C6E6F" stop-opacity="0"/>
</linearGradient>
<linearGradient id="paint18_linear_9684_115474" x1="167" y1="0.339966" x2="167" y2="424.34" gradientUnits="userSpaceOnUse">
<stop stop-color="#3B3D3F" stop-opacity="0.4"/>
<stop offset="1" stop-color="#3B3D3F"/>
</linearGradient>
<clipPath id="clip0_9684_115474">
<rect y="0.339966" width="334" height="424" rx="9.97015" fill="white"/>
</clipPath>
<clipPath id="clip1_9684_115474">
<rect width="546.441" height="511.593" fill="white" transform="translate(249.652 -154.615) rotate(60)"/>
</clipPath>
<clipPath id="clip2_9684_115474">
<rect width="28" height="28" fill="white" transform="translate(37 230.34)"/>
</clipPath>
<clipPath id="clip3_9684_115474">
<rect width="28" height="28" fill="white" transform="translate(153 142.34)"/>
</clipPath>
<clipPath id="clip4_9684_115474">
<rect width="28" height="28" fill="white" transform="translate(153 318.34)"/>
</clipPath>
</defs>
</svg>
