<svg width="400" height="280" viewBox="0 0 400 280" fill="none" xmlns="http://www.w3.org/2000/svg">
<g opacity="0.3">
<path fill-rule="evenodd" clip-rule="evenodd" d="M145.159 36.4783C151.56 40.2778 159.006 41.457 166.191 40.1468C180.43 38.3125 190.749 53.9037 183.434 66.3509C176.38 78.9286 157.7 77.6183 152.213 64.3852C139.281 30.8444 91.4706 30.8444 78.4078 64.3852C73.052 77.6183 54.2413 78.9286 47.1873 66.3509C40.0027 53.9037 50.3224 38.3125 64.4304 40.1468C71.615 41.457 79.0609 40.1468 85.4619 36.4783C91.9931 32.8097 96.6958 27.0448 99.1781 20.1008C104.926 5.81967 125.696 5.81967 131.444 20.1008C133.925 26.9138 138.759 32.8097 145.159 36.4783ZM115.376 54.559C129.615 54.559 137.975 71.1985 129.223 82.7282C124.52 88.2311 121.908 95.3059 121.908 102.774C121.908 110.111 124.52 117.186 129.223 122.82C138.106 134.35 129.615 151.12 115.376 150.989C101.137 150.989 92.777 134.35 101.529 122.82C106.232 117.317 108.845 110.242 108.845 102.774C108.845 95.4372 106.232 88.3621 101.529 82.7282C92.6465 71.1985 101.137 54.4281 115.376 54.559Z" fill="url(#paint0_linear_8985_216061)"/>
<path fill-rule="evenodd" clip-rule="evenodd" d="M193.468 129.366C186.237 125.091 177.825 123.764 169.709 125.238C153.623 127.302 141.965 109.762 150.229 95.7589C158.198 81.6089 179.301 83.083 185.499 97.9702C200.109 135.704 254.121 135.704 268.878 97.9702C274.929 83.083 296.179 81.6089 304.148 95.7589C312.265 109.762 300.606 127.302 284.668 125.238C276.552 123.764 268.14 125.238 260.909 129.366C253.531 133.493 248.218 139.978 245.414 147.79C238.921 163.856 215.457 163.856 208.963 147.79C206.159 140.126 200.699 133.493 193.468 129.366ZM227.115 109.025C211.029 109.025 201.584 90.3053 211.472 77.3344C216.785 71.1435 219.736 63.1845 219.736 54.7827C219.736 46.5287 216.785 38.5692 211.472 32.231C201.437 19.2602 211.029 0.393029 227.115 0.540748C243.2 0.540747 252.645 19.2602 242.757 32.231C237.445 38.4214 234.493 46.381 234.493 54.7827C234.493 63.0368 237.445 70.9963 242.757 77.3344C252.792 90.3053 243.2 109.172 227.115 109.025Z" fill="#EBECEC"/>
<path fill-rule="evenodd" clip-rule="evenodd" d="M368.769 36.4783C375.17 40.2778 382.616 41.457 389.801 40.1468C404.04 38.3125 414.359 53.9037 407.044 66.3509C399.99 78.9286 381.31 77.6183 375.823 64.3852C362.891 30.8444 315.081 30.8444 302.018 64.3852C296.662 77.6183 277.851 78.9286 270.797 66.3509C263.613 53.9037 273.932 38.3125 288.04 40.1468C295.225 41.457 302.671 40.1468 309.072 36.4783C315.603 32.8097 320.306 27.0448 322.788 20.1008C328.536 5.81967 349.306 5.81967 355.054 20.1008C357.536 26.9138 362.369 32.8097 368.769 36.4783ZM338.986 54.559C353.225 54.559 361.585 71.1985 352.833 82.7282C348.13 88.2311 345.518 95.3059 345.518 102.774C345.518 110.111 348.13 117.186 352.833 122.82C361.716 134.35 353.225 151.12 338.986 150.989C324.747 150.989 316.387 134.35 325.139 122.82C329.842 117.317 332.455 110.242 332.455 102.774C332.455 95.4372 329.842 88.3621 325.139 82.7282C316.257 71.1985 324.747 54.4281 338.986 54.559Z" fill="#EBECEC"/>
</g>
<circle cx="198.83" cy="452.405" r="230.622" stroke="url(#paint1_radial_8985_216061)" stroke-opacity="0.6" stroke-width="174.64" stroke-dasharray="0.29 2.36"/>
<g filter="url(#filter0_d_8985_216061)">
<circle cx="198.83" cy="452.405" r="314.992" stroke="url(#paint2_linear_8985_216061)" stroke-width="5.9" shape-rendering="crispEdges"/>
</g>
<circle cx="198.829" cy="452.572" r="315.439" stroke="#CECFCF" stroke-width="0.59" stroke-dasharray="0.59 1.18"/>
<rect x="86.9995" y="111.38" width="223.615" height="146.448" rx="22.0607" fill="#FDFDFD" stroke="#9D9E9F" stroke-width="0.59" stroke-dasharray="0.55 2.73"/>
<rect x="92.206" y="116.676" width="213.202" height="135.855" rx="17.1757" fill="#FEFEFE" stroke="#EBECEC" stroke-width="0.545261"/>
<g filter="url(#filter1_i_8985_216061)">
<rect x="97.3862" y="122.083" width="202.949" height="125.358" rx="11.9957" fill="#F3F3F5"/>
</g>
<rect x="97.5225" y="122.22" width="202.676" height="125.085" rx="11.8594" stroke="url(#paint3_linear_8985_216061)" stroke-width="0.272631"/>
<g clip-path="url(#clip0_8985_216061)">
<rect x="100.65" y="125.41" width="196.031" height="118.417" rx="8.72418" fill="#FEFEFE"/>
<path d="M110.33 166.33H285.56" stroke="#F5F5F5" stroke-width="0.545261"/>
<path d="M110.33 177.304H285.56" stroke="#F5F5F5" stroke-width="0.545261"/>
<path d="M110.33 188.278H285.56" stroke="#F5F5F5" stroke-width="0.545261"/>
<path d="M110.33 199.252H285.56" stroke="#F5F5F5" stroke-width="0.545261"/>
<path d="M110.33 210.226H285.56" stroke="#F5F5F5" stroke-width="0.545261"/>
<path d="M110.33 221.2H285.56" stroke="#F5F5F5" stroke-width="0.545261"/>
<g filter="url(#filter2_d_8985_216061)">
<path d="M286.036 207.984L261.941 205.076C261.544 205.028 261.154 204.939 260.777 204.811L245.958 199.776C245.226 199.527 244.451 199.428 243.68 199.485L234.607 200.153C233.677 200.221 232.745 200.064 231.89 199.693L226.224 197.237C225.196 196.791 224.061 196.655 222.957 196.844L215.006 198.207C213.922 198.392 212.808 198.264 211.795 197.838L205.863 195.34C204.722 194.86 203.457 194.76 202.254 195.054L199.039 195.842L195.309 196.907C194.229 197.216 193.072 197.092 192.081 196.563V196.563C191.208 196.096 190.201 195.943 189.229 196.129L187.537 196.453C185.901 196.766 184.21 196.357 182.899 195.33L175.573 189.596C175.067 189.2 174.499 188.892 173.892 188.683L164.9 185.594C163.571 185.138 162.122 185.182 160.824 185.719L157.072 187.27C155.383 187.968 153.446 187.667 152.048 186.49L151.921 186.383C150.948 185.563 149.674 185.192 148.412 185.359V185.359C147.168 185.525 145.912 185.166 144.944 184.37L141.933 181.894C140.649 180.838 138.971 180.388 137.33 180.659L135.483 180.965C134.521 181.124 133.535 181.036 132.615 180.71L128.945 179.408C128.399 179.215 127.827 179.105 127.248 179.081L122.423 178.888C121.855 178.865 121.297 178.73 120.782 178.49L120.533 178.374C119.526 177.906 118.362 177.912 117.36 178.392V178.392C116.295 178.901 115.052 178.875 114.01 178.321L110.427 176.414" stroke="#1C76FD" stroke-width="0.817892" stroke-linecap="round" stroke-linejoin="round"/>
</g>
<path opacity="0.8" d="M113.81 139.358C114.112 139.415 114.36 139.565 114.554 139.811C114.748 140.056 114.845 140.337 114.845 140.655C114.845 140.941 114.774 141.194 114.631 141.414C114.493 141.629 114.291 141.797 114.025 141.92C113.759 142.043 113.444 142.104 113.081 142.104H110.773V136.75H112.982C113.345 136.75 113.656 136.809 113.917 136.927C114.183 137.045 114.383 137.208 114.516 137.418C114.654 137.627 114.723 137.865 114.723 138.131C114.723 138.443 114.638 138.704 114.47 138.913C114.306 139.123 114.086 139.271 113.81 139.358ZM111.846 138.959H112.828C113.084 138.959 113.281 138.903 113.419 138.791C113.557 138.673 113.626 138.507 113.626 138.292C113.626 138.077 113.557 137.911 113.419 137.794C113.281 137.676 113.084 137.617 112.828 137.617H111.846V138.959ZM112.928 141.23C113.189 141.23 113.391 141.168 113.534 141.046C113.682 140.923 113.756 140.749 113.756 140.524C113.756 140.294 113.68 140.115 113.526 139.987C113.373 139.854 113.166 139.788 112.905 139.788H111.846V141.23H112.928ZM119.713 137.855V142.104H118.631V141.567C118.493 141.751 118.312 141.897 118.087 142.004C117.867 142.107 117.626 142.158 117.366 142.158C117.033 142.158 116.739 142.089 116.483 141.951C116.228 141.808 116.026 141.6 115.878 141.329C115.734 141.053 115.663 140.726 115.663 140.348V137.855H116.737V140.194C116.737 140.532 116.821 140.793 116.99 140.977C117.158 141.156 117.389 141.245 117.68 141.245C117.977 141.245 118.209 141.156 118.378 140.977C118.547 140.793 118.631 140.532 118.631 140.194V137.855H119.713ZM120.496 139.964C120.496 139.535 120.58 139.154 120.749 138.821C120.923 138.489 121.158 138.233 121.455 138.054C121.751 137.875 122.081 137.786 122.444 137.786C122.72 137.786 122.984 137.847 123.234 137.97C123.485 138.088 123.684 138.246 123.832 138.446V136.428H124.922V142.104H123.832V141.475C123.699 141.685 123.513 141.854 123.272 141.981C123.032 142.109 122.753 142.173 122.436 142.173C122.078 142.173 121.751 142.081 121.455 141.897C121.158 141.713 120.923 141.455 120.749 141.122C120.58 140.785 120.496 140.399 120.496 139.964ZM123.84 139.98C123.84 139.719 123.789 139.496 123.687 139.312C123.584 139.123 123.446 138.98 123.272 138.883C123.099 138.78 122.912 138.729 122.713 138.729C122.513 138.729 122.329 138.778 122.16 138.875C121.992 138.972 121.854 139.115 121.746 139.305C121.644 139.489 121.593 139.709 121.593 139.964C121.593 140.22 121.644 140.445 121.746 140.639C121.854 140.828 121.992 140.974 122.16 141.076C122.334 141.179 122.518 141.23 122.713 141.23C122.912 141.23 123.099 141.181 123.272 141.084C123.446 140.982 123.584 140.839 123.687 140.655C123.789 140.465 123.84 140.24 123.84 139.98ZM127.635 137.786C127.952 137.786 128.23 137.85 128.471 137.978C128.711 138.1 128.9 138.261 129.038 138.461V137.855H130.12V142.135C130.12 142.529 130.04 142.879 129.882 143.186C129.723 143.498 129.486 143.743 129.169 143.922C128.852 144.106 128.468 144.198 128.018 144.198C127.415 144.198 126.919 144.057 126.53 143.776C126.147 143.495 125.929 143.111 125.878 142.626H126.944C127.001 142.82 127.121 142.973 127.305 143.086C127.494 143.204 127.722 143.262 127.987 143.262C128.299 143.262 128.552 143.168 128.747 142.979C128.941 142.794 129.038 142.513 129.038 142.135V141.475C128.9 141.675 128.708 141.841 128.463 141.974C128.223 142.107 127.947 142.173 127.635 142.173C127.277 142.173 126.949 142.081 126.653 141.897C126.356 141.713 126.121 141.455 125.947 141.122C125.779 140.785 125.694 140.399 125.694 139.964C125.694 139.535 125.779 139.154 125.947 138.821C126.121 138.489 126.354 138.233 126.645 138.054C126.942 137.875 127.272 137.786 127.635 137.786ZM129.038 139.98C129.038 139.719 128.987 139.496 128.885 139.312C128.783 139.123 128.645 138.98 128.471 138.883C128.297 138.78 128.11 138.729 127.911 138.729C127.711 138.729 127.527 138.778 127.359 138.875C127.19 138.972 127.052 139.115 126.944 139.305C126.842 139.489 126.791 139.709 126.791 139.964C126.791 140.22 126.842 140.445 126.944 140.639C127.052 140.828 127.19 140.974 127.359 141.076C127.532 141.179 127.716 141.23 127.911 141.23C128.11 141.23 128.297 141.181 128.471 141.084C128.645 140.982 128.783 140.839 128.885 140.655C128.987 140.465 129.038 140.24 129.038 139.98ZM135.119 139.888C135.119 140.041 135.108 140.179 135.088 140.302H131.982C132.007 140.609 132.114 140.849 132.304 141.023C132.493 141.197 132.725 141.283 133.002 141.283C133.4 141.283 133.684 141.112 133.853 140.77H135.011C134.888 141.179 134.653 141.516 134.306 141.782C133.958 142.043 133.531 142.173 133.025 142.173C132.616 142.173 132.247 142.084 131.92 141.905C131.598 141.721 131.345 141.462 131.161 141.13C130.982 140.798 130.892 140.414 130.892 139.98C130.892 139.54 130.982 139.154 131.161 138.821C131.34 138.489 131.59 138.233 131.912 138.054C132.235 137.875 132.605 137.786 133.025 137.786C133.429 137.786 133.789 137.873 134.106 138.047C134.428 138.221 134.676 138.469 134.85 138.791C135.029 139.108 135.119 139.473 135.119 139.888ZM134.006 139.581C134.001 139.305 133.902 139.085 133.707 138.921C133.513 138.752 133.275 138.668 132.994 138.668C132.728 138.668 132.503 138.75 132.319 138.913C132.14 139.072 132.03 139.294 131.989 139.581H134.006ZM137.153 138.737V140.793C137.153 140.936 137.186 141.041 137.252 141.107C137.324 141.168 137.441 141.199 137.605 141.199H138.104V142.104H137.429C136.524 142.104 136.071 141.664 136.071 140.785V138.737H135.565V137.855H136.071V136.804H137.153V137.855H138.104V138.737H137.153ZM143.189 142.158C142.688 142.158 142.227 142.04 141.808 141.805C141.389 141.57 141.056 141.245 140.811 140.831C140.565 140.412 140.443 139.939 140.443 139.412C140.443 138.89 140.565 138.423 140.811 138.008C141.056 137.589 141.389 137.262 141.808 137.027C142.227 136.791 142.688 136.674 143.189 136.674C143.695 136.674 144.155 136.791 144.569 137.027C144.989 137.262 145.318 137.589 145.559 138.008C145.804 138.423 145.927 138.89 145.927 139.412C145.927 139.939 145.804 140.412 145.559 140.831C145.318 141.245 144.989 141.57 144.569 141.805C144.15 142.04 143.69 142.158 143.189 142.158ZM143.189 141.199C143.511 141.199 143.795 141.128 144.04 140.984C144.285 140.836 144.477 140.626 144.615 140.355C144.753 140.084 144.822 139.77 144.822 139.412C144.822 139.054 144.753 138.742 144.615 138.476C144.477 138.205 144.285 137.998 144.04 137.855C143.795 137.712 143.511 137.64 143.189 137.64C142.866 137.64 142.58 137.712 142.33 137.855C142.084 137.998 141.892 138.205 141.754 138.476C141.616 138.742 141.547 139.054 141.547 139.412C141.547 139.77 141.616 140.084 141.754 140.355C141.892 140.626 142.084 140.836 142.33 140.984C142.58 141.128 142.866 141.199 143.189 141.199ZM147.799 138.469C147.938 138.274 148.127 138.113 148.367 137.985C148.613 137.852 148.891 137.786 149.203 137.786C149.566 137.786 149.893 137.875 150.185 138.054C150.481 138.233 150.714 138.489 150.883 138.821C151.057 139.149 151.144 139.53 151.144 139.964C151.144 140.399 151.057 140.785 150.883 141.122C150.714 141.455 150.481 141.713 150.185 141.897C149.893 142.081 149.566 142.173 149.203 142.173C148.891 142.173 148.615 142.109 148.375 141.981C148.14 141.854 147.948 141.693 147.799 141.498V144.129H146.726V137.855H147.799V138.469ZM150.047 139.964C150.047 139.709 149.993 139.489 149.886 139.305C149.783 139.115 149.645 138.972 149.472 138.875C149.303 138.778 149.119 138.729 148.919 138.729C148.725 138.729 148.541 138.78 148.367 138.883C148.198 138.98 148.06 139.123 147.953 139.312C147.851 139.501 147.799 139.724 147.799 139.98C147.799 140.235 147.851 140.458 147.953 140.647C148.06 140.836 148.198 140.982 148.367 141.084C148.541 141.181 148.725 141.23 148.919 141.23C149.119 141.23 149.303 141.179 149.472 141.076C149.645 140.974 149.783 140.828 149.886 140.639C149.993 140.45 150.047 140.225 150.047 139.964ZM153.174 138.737V140.793C153.174 140.936 153.207 141.041 153.274 141.107C153.345 141.168 153.463 141.199 153.627 141.199H154.125V142.104H153.45C152.545 142.104 152.093 141.664 152.093 140.785V138.737H151.586V137.855H152.093V136.804H153.174V137.855H154.125V138.737H153.174ZM155.442 137.349C155.253 137.349 155.094 137.29 154.967 137.172C154.844 137.05 154.782 136.899 154.782 136.72C154.782 136.541 154.844 136.393 154.967 136.275C155.094 136.152 155.253 136.091 155.442 136.091C155.631 136.091 155.787 136.152 155.91 136.275C156.038 136.393 156.102 136.541 156.102 136.72C156.102 136.899 156.038 137.05 155.91 137.172C155.787 137.29 155.631 137.349 155.442 137.349ZM155.971 137.855V142.104H154.898V137.855H155.971ZM162.309 137.794C162.831 137.794 163.25 137.955 163.567 138.277C163.889 138.594 164.05 139.039 164.05 139.611V142.104H162.977V139.757C162.977 139.425 162.892 139.172 162.723 138.998C162.555 138.819 162.325 138.729 162.033 138.729C161.742 138.729 161.509 138.819 161.335 138.998C161.166 139.172 161.082 139.425 161.082 139.757V142.104H160.008V139.757C160.008 139.425 159.924 139.172 159.755 138.998C159.586 138.819 159.356 138.729 159.065 138.729C158.768 138.729 158.533 138.819 158.359 138.998C158.19 139.172 158.106 139.425 158.106 139.757V142.104H157.032V137.855H158.106V138.369C158.244 138.19 158.421 138.049 158.635 137.947C158.855 137.845 159.095 137.794 159.356 137.794C159.689 137.794 159.985 137.865 160.246 138.008C160.507 138.146 160.709 138.346 160.852 138.607C160.99 138.361 161.189 138.164 161.45 138.016C161.716 137.868 162.002 137.794 162.309 137.794ZM165.614 137.349C165.425 137.349 165.266 137.29 165.138 137.172C165.016 137.05 164.954 136.899 164.954 136.72C164.954 136.541 165.016 136.393 165.138 136.275C165.266 136.152 165.425 136.091 165.614 136.091C165.803 136.091 165.959 136.152 166.082 136.275C166.21 136.393 166.273 136.541 166.273 136.72C166.273 136.899 166.21 137.05 166.082 137.172C165.959 137.29 165.803 137.349 165.614 137.349ZM166.143 137.855V142.104H165.069V137.855H166.143ZM168.186 141.222H170.08V142.104H166.966V141.237L168.822 138.737H166.974V137.855H170.057V138.722L168.186 141.222ZM170.636 139.964C170.636 139.535 170.72 139.154 170.889 138.821C171.063 138.489 171.295 138.233 171.587 138.054C171.883 137.875 172.213 137.786 172.576 137.786C172.893 137.786 173.169 137.85 173.404 137.978C173.645 138.106 173.836 138.267 173.98 138.461V137.855H175.061V142.104H173.98V141.483C173.842 141.682 173.65 141.848 173.404 141.981C173.164 142.109 172.885 142.173 172.568 142.173C172.21 142.173 171.883 142.081 171.587 141.897C171.295 141.713 171.063 141.455 170.889 141.122C170.72 140.785 170.636 140.399 170.636 139.964ZM173.98 139.98C173.98 139.719 173.929 139.496 173.826 139.312C173.724 139.123 173.586 138.98 173.412 138.883C173.238 138.78 173.052 138.729 172.852 138.729C172.653 138.729 172.469 138.778 172.3 138.875C172.131 138.972 171.993 139.115 171.886 139.305C171.783 139.489 171.732 139.709 171.732 139.964C171.732 140.22 171.783 140.445 171.886 140.639C171.993 140.828 172.131 140.974 172.3 141.076C172.474 141.179 172.658 141.23 172.852 141.23C173.052 141.23 173.238 141.181 173.412 141.084C173.586 140.982 173.724 140.839 173.826 140.655C173.929 140.465 173.98 140.24 173.98 139.98ZM177.36 138.737V140.793C177.36 140.936 177.393 141.041 177.46 141.107C177.531 141.168 177.649 141.199 177.813 141.199H178.311V142.104H177.636C176.731 142.104 176.279 141.664 176.279 140.785V138.737H175.772V137.855H176.279V136.804H177.36V137.855H178.311V138.737H177.36ZM179.628 137.349C179.439 137.349 179.28 137.29 179.153 137.172C179.03 137.05 178.968 136.899 178.968 136.72C178.968 136.541 179.03 136.393 179.153 136.275C179.28 136.152 179.439 136.091 179.628 136.091C179.817 136.091 179.973 136.152 180.096 136.275C180.224 136.393 180.288 136.541 180.288 136.72C180.288 136.899 180.224 137.05 180.096 137.172C179.973 137.29 179.817 137.349 179.628 137.349ZM180.157 137.855V142.104H179.084V137.855H180.157ZM183.105 142.173C182.696 142.173 182.328 142.084 182.001 141.905C181.673 141.721 181.415 141.462 181.226 141.13C181.042 140.798 180.95 140.414 180.95 139.98C180.95 139.545 181.044 139.161 181.234 138.829C181.428 138.497 181.691 138.241 182.024 138.062C182.356 137.878 182.727 137.786 183.136 137.786C183.545 137.786 183.916 137.878 184.248 138.062C184.58 138.241 184.841 138.497 185.03 138.829C185.225 139.161 185.322 139.545 185.322 139.98C185.322 140.414 185.222 140.798 185.023 141.13C184.828 141.462 184.562 141.721 184.225 141.905C183.892 142.084 183.519 142.173 183.105 142.173ZM183.105 141.237C183.299 141.237 183.481 141.191 183.65 141.099C183.823 141.002 183.962 140.859 184.064 140.67C184.166 140.481 184.217 140.251 184.217 139.98C184.217 139.576 184.11 139.266 183.895 139.051C183.685 138.832 183.427 138.722 183.12 138.722C182.814 138.722 182.555 138.832 182.346 139.051C182.141 139.266 182.039 139.576 182.039 139.98C182.039 140.384 182.139 140.695 182.338 140.915C182.543 141.13 182.798 141.237 183.105 141.237ZM188.464 137.794C188.97 137.794 189.379 137.955 189.691 138.277C190.003 138.594 190.159 139.039 190.159 139.611V142.104H189.085V139.757C189.085 139.42 189.001 139.161 188.832 138.982C188.663 138.798 188.433 138.706 188.142 138.706C187.845 138.706 187.61 138.798 187.436 138.982C187.268 139.161 187.183 139.42 187.183 139.757V142.104H186.109V137.855H187.183V138.384C187.326 138.2 187.508 138.057 187.728 137.955C187.953 137.847 188.198 137.794 188.464 137.794Z" fill="#0A0D0F"/>
<path opacity="0.8" d="M113.705 153.187H111.553L111.157 154.284H110.477L112.261 149.378H113.005L114.782 154.284H114.102L113.705 153.187ZM113.521 152.663L112.629 150.171L111.737 152.663H113.521ZM115.318 152.337C115.318 151.936 115.399 151.587 115.559 151.289C115.72 150.987 115.942 150.754 116.225 150.588C116.513 150.423 116.841 150.341 117.209 150.341C117.686 150.341 118.077 150.456 118.384 150.688C118.696 150.919 118.901 151.24 119 151.65H118.306C118.24 151.414 118.11 151.228 117.917 151.091C117.728 150.954 117.492 150.886 117.209 150.886C116.841 150.886 116.543 151.013 116.317 151.268C116.09 151.518 115.977 151.875 115.977 152.337C115.977 152.804 116.09 153.166 116.317 153.42C116.543 153.675 116.841 153.803 117.209 153.803C117.492 153.803 117.728 153.737 117.917 153.604C118.106 153.472 118.235 153.284 118.306 153.038H119C118.896 153.435 118.689 153.753 118.377 153.994C118.066 154.23 117.676 154.348 117.209 154.348C116.841 154.348 116.513 154.265 116.225 154.1C115.942 153.935 115.72 153.701 115.559 153.399C115.399 153.097 115.318 152.743 115.318 152.337ZM120.646 150.935V153.222C120.646 153.411 120.686 153.545 120.766 153.626C120.846 153.701 120.985 153.739 121.184 153.739H121.658V154.284H121.078C120.719 154.284 120.45 154.202 120.27 154.036C120.091 153.871 120.001 153.6 120.001 153.222V150.935H119.499V150.404H120.001V149.427H120.646V150.404H121.658V150.935H120.646ZM125.88 150.404V154.284H125.235V153.711C125.113 153.909 124.94 154.065 124.718 154.178C124.501 154.287 124.261 154.341 123.996 154.341C123.694 154.341 123.423 154.279 123.182 154.157C122.941 154.029 122.75 153.84 122.609 153.59C122.472 153.34 122.403 153.036 122.403 152.677V150.404H123.041V152.592C123.041 152.974 123.137 153.269 123.331 153.477C123.524 153.68 123.789 153.781 124.124 153.781C124.468 153.781 124.74 153.675 124.938 153.463C125.136 153.25 125.235 152.941 125.235 152.535V150.404H125.88ZM126.727 152.33C126.727 151.934 126.807 151.587 126.967 151.289C127.128 150.987 127.347 150.754 127.626 150.588C127.909 150.423 128.223 150.341 128.567 150.341C128.907 150.341 129.202 150.414 129.452 150.56C129.703 150.706 129.889 150.89 130.012 151.112V150.404H130.663V154.284H130.012V153.562C129.884 153.789 129.693 153.977 129.438 154.128C129.188 154.275 128.896 154.348 128.56 154.348C128.216 154.348 127.904 154.263 127.626 154.093C127.347 153.923 127.128 153.685 126.967 153.378C126.807 153.071 126.727 152.722 126.727 152.33ZM130.012 152.337C130.012 152.045 129.953 151.79 129.835 151.573C129.717 151.355 129.556 151.19 129.353 151.077C129.155 150.959 128.936 150.9 128.695 150.9C128.454 150.9 128.235 150.957 128.036 151.07C127.838 151.183 127.68 151.348 127.562 151.565C127.444 151.783 127.385 152.037 127.385 152.33C127.385 152.627 127.444 152.887 127.562 153.109C127.68 153.326 127.838 153.494 128.036 153.612C128.235 153.725 128.454 153.781 128.695 153.781C128.936 153.781 129.155 153.725 129.353 153.612C129.556 153.494 129.717 153.326 129.835 153.109C129.953 152.887 130.012 152.63 130.012 152.337ZM132.396 149.045V154.284H131.752V149.045H132.396ZM136.826 153.689L138.03 150.404H138.717L137.194 154.284H136.444L134.922 150.404H135.615L136.826 153.689ZM140.724 154.348C140.427 154.348 140.16 154.298 139.924 154.199C139.688 154.095 139.502 153.954 139.365 153.774C139.228 153.59 139.152 153.38 139.138 153.144H139.804C139.822 153.338 139.912 153.496 140.073 153.619C140.238 153.741 140.453 153.803 140.717 153.803C140.962 153.803 141.156 153.748 141.297 153.64C141.439 153.531 141.51 153.394 141.51 153.229C141.51 153.059 141.434 152.934 141.283 152.854C141.132 152.769 140.899 152.686 140.582 152.606C140.294 152.531 140.058 152.455 139.874 152.38C139.695 152.299 139.539 152.184 139.407 152.033C139.28 151.877 139.216 151.674 139.216 151.424C139.216 151.226 139.275 151.044 139.393 150.879C139.511 150.713 139.679 150.584 139.896 150.489C140.113 150.39 140.361 150.341 140.639 150.341C141.069 150.341 141.415 150.449 141.68 150.666C141.944 150.883 142.086 151.181 142.105 151.558H141.46C141.446 151.355 141.364 151.193 141.213 151.07C141.066 150.947 140.868 150.886 140.618 150.886C140.387 150.886 140.202 150.935 140.066 151.034C139.929 151.134 139.86 151.263 139.86 151.424C139.86 151.551 139.9 151.657 139.981 151.742C140.066 151.823 140.169 151.889 140.292 151.941C140.42 151.988 140.594 152.042 140.816 152.104C141.095 152.179 141.321 152.255 141.496 152.33C141.67 152.401 141.819 152.509 141.942 152.656C142.069 152.802 142.135 152.993 142.14 153.229C142.14 153.442 142.081 153.633 141.963 153.803C141.845 153.973 141.677 154.107 141.46 154.206C141.248 154.301 141.002 154.348 140.724 154.348ZM143.255 154.327C143.132 154.327 143.028 154.284 142.943 154.199C142.858 154.114 142.816 154.01 142.816 153.888C142.816 153.765 142.858 153.661 142.943 153.576C143.028 153.491 143.132 153.449 143.255 153.449C143.373 153.449 143.472 153.491 143.552 153.576C143.637 153.661 143.68 153.765 143.68 153.888C143.68 154.01 143.637 154.114 143.552 154.199C143.472 154.284 143.373 154.327 143.255 154.327ZM149.723 150.794C149.723 151.204 149.581 151.547 149.298 151.82C149.02 152.089 148.592 152.224 148.017 152.224H147.068V154.284H146.424V149.349H148.017C148.574 149.349 148.996 149.484 149.284 149.753C149.577 150.022 149.723 150.369 149.723 150.794ZM148.017 151.693C148.375 151.693 148.64 151.615 148.81 151.459C148.979 151.303 149.064 151.082 149.064 150.794C149.064 150.185 148.715 149.88 148.017 149.88H147.068V151.693H148.017ZM151.168 149.045V154.284H150.524V149.045H151.168ZM152.025 152.33C152.025 151.934 152.105 151.587 152.266 151.289C152.426 150.987 152.646 150.754 152.924 150.588C153.208 150.423 153.521 150.341 153.866 150.341C154.206 150.341 154.501 150.414 154.751 150.56C155.001 150.706 155.188 150.89 155.31 151.112V150.404H155.962V154.284H155.31V153.562C155.183 153.789 154.992 153.977 154.737 154.128C154.487 154.275 154.194 154.348 153.859 154.348C153.514 154.348 153.203 154.263 152.924 154.093C152.646 153.923 152.426 153.685 152.266 153.378C152.105 153.071 152.025 152.722 152.025 152.33ZM155.31 152.337C155.31 152.045 155.251 151.79 155.133 151.573C155.015 151.355 154.855 151.19 154.652 151.077C154.454 150.959 154.234 150.9 153.993 150.9C153.753 150.9 153.533 150.957 153.335 151.07C153.137 151.183 152.979 151.348 152.861 151.565C152.743 151.783 152.684 152.037 152.684 152.33C152.684 152.627 152.743 152.887 152.861 153.109C152.979 153.326 153.137 153.494 153.335 153.612C153.533 153.725 153.753 153.781 153.993 153.781C154.234 153.781 154.454 153.725 154.652 153.612C154.855 153.494 155.015 153.326 155.133 153.109C155.251 152.887 155.31 152.63 155.31 152.337ZM158.941 150.334C159.413 150.334 159.795 150.477 160.088 150.765C160.38 151.049 160.527 151.459 160.527 151.997V154.284H159.89V152.089C159.89 151.702 159.793 151.407 159.599 151.204C159.406 150.997 159.141 150.893 158.806 150.893C158.466 150.893 158.195 150.999 157.992 151.211C157.794 151.424 157.695 151.733 157.695 152.139V154.284H157.05V150.404H157.695V150.957C157.822 150.758 157.994 150.605 158.212 150.496C158.433 150.388 158.677 150.334 158.941 150.334ZM163.47 150.334C163.942 150.334 164.324 150.477 164.617 150.765C164.909 151.049 165.055 151.459 165.055 151.997V154.284H164.418V152.089C164.418 151.702 164.322 151.407 164.128 151.204C163.934 150.997 163.67 150.893 163.335 150.893C162.995 150.893 162.724 150.999 162.521 151.211C162.323 151.424 162.223 151.733 162.223 152.139V154.284H161.579V150.404H162.223V150.957C162.351 150.758 162.523 150.605 162.74 150.496C162.962 150.388 163.205 150.334 163.47 150.334ZM169.648 152.196C169.648 152.318 169.641 152.448 169.627 152.585H166.526C166.549 152.967 166.679 153.267 166.915 153.484C167.156 153.697 167.446 153.803 167.786 153.803C168.064 153.803 168.296 153.739 168.48 153.612C168.669 153.479 168.801 153.305 168.876 153.088H169.57C169.466 153.461 169.259 153.765 168.947 154.001C168.635 154.232 168.248 154.348 167.786 154.348C167.418 154.348 167.087 154.265 166.795 154.1C166.507 153.935 166.28 153.701 166.115 153.399C165.95 153.092 165.867 152.738 165.867 152.337C165.867 151.936 165.947 151.584 166.108 151.282C166.268 150.98 166.493 150.749 166.781 150.588C167.073 150.423 167.408 150.341 167.786 150.341C168.154 150.341 168.48 150.421 168.763 150.581C169.046 150.742 169.263 150.964 169.414 151.247C169.57 151.525 169.648 151.842 169.648 152.196ZM168.982 152.061C168.982 151.816 168.928 151.606 168.82 151.431C168.711 151.252 168.562 151.117 168.374 151.027C168.189 150.933 167.984 150.886 167.758 150.886C167.432 150.886 167.153 150.99 166.922 151.197C166.696 151.405 166.566 151.693 166.533 152.061H168.982ZM170.258 152.33C170.258 151.934 170.338 151.587 170.498 151.289C170.659 150.987 170.878 150.754 171.157 150.588C171.44 150.423 171.756 150.341 172.106 150.341C172.408 150.341 172.688 150.411 172.948 150.553C173.208 150.69 173.406 150.872 173.543 151.098V149.045H174.194V154.284H173.543V153.555C173.415 153.786 173.227 153.977 172.976 154.128C172.726 154.275 172.434 154.348 172.098 154.348C171.754 154.348 171.44 154.263 171.157 154.093C170.878 153.923 170.659 153.685 170.498 153.378C170.338 153.071 170.258 152.722 170.258 152.33ZM173.543 152.337C173.543 152.045 173.484 151.79 173.366 151.573C173.248 151.355 173.087 151.19 172.884 151.077C172.686 150.959 172.467 150.9 172.226 150.9C171.985 150.9 171.766 150.957 171.567 151.07C171.369 151.183 171.211 151.348 171.093 151.565C170.975 151.783 170.916 152.037 170.916 152.33C170.916 152.627 170.975 152.887 171.093 153.109C171.211 153.326 171.369 153.494 171.567 153.612C171.766 153.725 171.985 153.781 172.226 153.781C172.467 153.781 172.686 153.725 172.884 153.612C173.087 153.494 173.248 153.326 173.366 153.109C173.484 152.887 173.543 152.63 173.543 152.337Z" fill="#6C6E6F"/>
<rect x="230.69" y="136.532" width="54.9406" height="17.3249" rx="7.36103" fill="#FCFCFC"/>
<rect x="230.69" y="136.532" width="54.9406" height="17.3249" rx="7.36103" stroke="url(#paint4_linear_8985_216061)" stroke-width="0.545261"/>
<path opacity="0.8" d="M241.823 143.594V144.142H240.732V147.694H240.059L240.059 144.142H238.962V143.594H241.823ZM244.186 144.39C244.434 144.39 244.654 144.443 244.847 144.549C245.044 144.656 245.197 144.813 245.307 145.021C245.421 145.23 245.478 145.482 245.478 145.777V147.694H244.812V145.877C244.812 145.586 244.739 145.364 244.593 145.21C244.448 145.053 244.249 144.974 243.997 144.974C243.746 144.974 243.545 145.053 243.396 145.21C243.25 145.364 243.177 145.586 243.177 145.877V147.694H242.505V143.328H243.177V144.821C243.291 144.683 243.435 144.577 243.608 144.502C243.785 144.428 243.978 144.39 244.186 144.39ZM246.678 144.013C246.556 144.013 246.454 143.971 246.372 143.889C246.289 143.806 246.248 143.704 246.248 143.582C246.248 143.46 246.289 143.358 246.372 143.275C246.454 143.192 246.556 143.151 246.678 143.151C246.796 143.151 246.897 143.192 246.979 143.275C247.062 143.358 247.103 143.46 247.103 143.582C247.103 143.704 247.062 143.806 246.979 143.889C246.897 143.971 246.796 144.013 246.678 144.013ZM247.009 144.443V147.694H246.336V144.443H247.009ZM249.072 147.747C248.816 147.747 248.586 147.702 248.382 147.612C248.181 147.517 248.022 147.391 247.904 147.234C247.786 147.073 247.723 146.894 247.715 146.697H248.411C248.423 146.835 248.488 146.951 248.606 147.045C248.728 147.136 248.879 147.181 249.06 147.181C249.249 147.181 249.394 147.145 249.497 147.075C249.603 147 249.656 146.906 249.656 146.791C249.656 146.67 249.597 146.579 249.479 146.52C249.365 146.461 249.182 146.396 248.93 146.325C248.686 146.258 248.488 146.194 248.334 146.131C248.181 146.068 248.047 145.971 247.933 145.842C247.823 145.712 247.768 145.541 247.768 145.328C247.768 145.155 247.819 144.998 247.921 144.856C248.024 144.711 248.169 144.597 248.358 144.514C248.551 144.431 248.771 144.39 249.019 144.39C249.388 144.39 249.685 144.485 249.91 144.673C250.138 144.858 250.26 145.112 250.275 145.434H249.603C249.591 145.289 249.532 145.173 249.426 145.086C249.32 145 249.176 144.957 248.995 144.957C248.818 144.957 248.682 144.99 248.588 145.057C248.494 145.124 248.446 145.212 248.446 145.322C248.446 145.409 248.478 145.482 248.541 145.541C248.604 145.6 248.68 145.647 248.771 145.682C248.861 145.714 248.995 145.755 249.172 145.806C249.408 145.869 249.601 145.934 249.75 146.001C249.904 146.064 250.036 146.158 250.146 146.284C250.256 146.41 250.313 146.577 250.317 146.786C250.317 146.97 250.266 147.136 250.163 147.281C250.061 147.427 249.916 147.541 249.727 147.623C249.542 147.706 249.324 147.747 249.072 147.747ZM256.895 143.594V147.694H256.222V144.886L254.972 147.694H254.505L253.249 144.886V147.694H252.576V143.594H253.302L254.741 146.809L256.175 143.594H256.895ZM259.189 147.747C258.882 147.747 258.605 147.678 258.357 147.541C258.109 147.399 257.915 147.202 257.773 146.951C257.631 146.695 257.561 146.4 257.561 146.066C257.561 145.735 257.633 145.442 257.779 145.187C257.924 144.931 258.123 144.734 258.375 144.597C258.627 144.459 258.908 144.39 259.219 144.39C259.529 144.39 259.811 144.459 260.062 144.597C260.314 144.734 260.513 144.931 260.658 145.187C260.804 145.442 260.876 145.735 260.876 146.066C260.876 146.396 260.802 146.689 260.652 146.945C260.503 147.201 260.298 147.399 260.039 147.541C259.783 147.678 259.5 147.747 259.189 147.747ZM259.189 147.163C259.362 147.163 259.523 147.122 259.673 147.039C259.826 146.957 259.95 146.833 260.045 146.668C260.139 146.502 260.186 146.302 260.186 146.066C260.186 145.83 260.141 145.631 260.05 145.47C259.96 145.305 259.84 145.181 259.691 145.098C259.541 145.016 259.38 144.974 259.207 144.974C259.034 144.974 258.872 145.016 258.723 145.098C258.577 145.181 258.461 145.305 258.375 145.47C258.288 145.631 258.245 145.83 258.245 146.066C258.245 146.416 258.334 146.687 258.511 146.88C258.691 147.069 258.918 147.163 259.189 147.163ZM263.182 144.39C263.437 144.39 263.665 144.443 263.866 144.549C264.07 144.656 264.23 144.813 264.344 145.021C264.458 145.23 264.515 145.482 264.515 145.777V147.694H263.848V145.877C263.848 145.586 263.775 145.364 263.63 145.21C263.484 145.053 263.286 144.974 263.034 144.974C262.782 144.974 262.582 145.053 262.432 145.21C262.287 145.364 262.214 145.586 262.214 145.877V147.694H261.541V144.443H262.214V144.815C262.324 144.681 262.464 144.577 262.633 144.502C262.806 144.428 262.989 144.39 263.182 144.39ZM266.158 144.992V146.791C266.158 146.913 266.185 147.002 266.24 147.057C266.299 147.108 266.398 147.134 266.535 147.134H266.948V147.694H266.417C266.114 147.694 265.882 147.623 265.721 147.482C265.56 147.34 265.479 147.11 265.479 146.791V144.992H265.096V144.443H265.479V143.635H266.158V144.443H266.948V144.992H266.158ZM269.25 144.39C269.497 144.39 269.718 144.443 269.91 144.549C270.107 144.656 270.26 144.813 270.371 145.021C270.485 145.23 270.542 145.482 270.542 145.777V147.694H269.875V145.877C269.875 145.586 269.802 145.364 269.657 145.21C269.511 145.053 269.313 144.974 269.061 144.974C268.809 144.974 268.608 145.053 268.459 145.21C268.313 145.364 268.241 145.586 268.241 145.877V147.694H267.568V143.328H268.241V144.821C268.355 144.683 268.498 144.577 268.671 144.502C268.848 144.428 269.041 144.39 269.25 144.39Z" fill="#6C6E6F"/>
<path d="M278.364 144.451L277.264 145.551C277.051 145.764 276.705 145.764 276.492 145.551L275.392 144.451" fill="#6C6E6F"/>
<g filter="url(#filter3_d_8985_216061)">
<path d="M286.036 166.213L262.876 172.304C261.547 172.654 260.387 173.466 259.604 174.596L258.051 176.836C256.399 179.219 253.235 180.005 250.661 178.671L248.366 177.483C246.261 176.392 243.703 176.702 241.918 178.263L236.588 182.925C234.818 184.474 232.285 184.792 230.187 183.73L228.976 183.116C226.543 181.885 223.581 182.525 221.875 184.651L217.511 190.086C215.845 192.162 212.974 192.827 210.565 191.696L205.861 189.487C204.898 189.035 203.829 188.858 202.772 188.976L201.448 189.124C199.635 189.325 197.848 188.57 196.73 187.129V187.129C195.144 185.085 192.304 184.505 190.044 185.764L188.816 186.447C188.351 186.707 187.851 186.9 187.333 187.022L183.297 187.973C182.194 188.232 181.191 188.812 180.415 189.638L171.762 198.856C171.382 199.26 170.947 199.607 170.469 199.887L166.75 202.061C164.714 203.252 162.158 203.082 160.297 201.632L158.407 200.16C156.538 198.704 153.82 199.18 152.557 201.185L152.123 201.874C151.459 202.928 150.194 203.436 148.986 203.133V203.133C147.849 202.848 146.652 203.281 145.96 204.227L143.391 207.744C141.908 209.774 138.98 210.04 137.154 208.312V208.312C135.74 206.973 133.587 206.791 131.968 207.873L130.137 209.097C129.312 209.649 128.358 209.978 127.368 210.053L123.303 210.36C122.691 210.406 122.111 210.65 121.649 211.054L121.349 211.318C120.441 212.114 119.08 212.105 118.183 211.296V211.296C117.241 210.446 115.798 210.484 114.902 211.382L111.294 214.999" stroke="#FF5500" stroke-width="0.817892" stroke-linecap="round" stroke-linejoin="round"/>
</g>
<g clip-path="url(#clip1_8985_216061)">
<path d="M111.377 230.248V227.02L110.61 227.265V226.914L111.526 226.52H111.83V230.248H111.377ZM113.991 230.311C113.682 230.311 113.416 230.232 113.192 230.072C112.972 229.909 112.802 229.683 112.681 229.395C112.56 229.104 112.5 228.767 112.5 228.384C112.5 228 112.56 227.665 112.681 227.377C112.802 227.086 112.972 226.86 113.192 226.701C113.416 226.537 113.682 226.456 113.991 226.456C114.3 226.456 114.565 226.537 114.785 226.701C115.005 226.86 115.173 227.086 115.291 227.377C115.411 227.665 115.472 228 115.472 228.384C115.472 228.767 115.411 229.104 115.291 229.395C115.173 229.683 115.005 229.909 114.785 230.072C114.565 230.232 114.3 230.311 113.991 230.311ZM113.991 229.917C114.186 229.917 114.36 229.857 114.513 229.736C114.666 229.612 114.786 229.436 114.875 229.209C114.968 228.978 115.014 228.703 115.014 228.384C115.014 228.061 114.968 227.785 114.875 227.558C114.786 227.331 114.666 227.157 114.513 227.036C114.36 226.915 114.186 226.855 113.991 226.855C113.792 226.855 113.615 226.915 113.459 227.036C113.302 227.157 113.18 227.331 113.091 227.558C113.002 227.785 112.958 228.061 112.958 228.384C112.958 228.703 113.002 228.978 113.091 229.209C113.18 229.436 113.302 229.612 113.459 229.736C113.615 229.857 113.792 229.917 113.991 229.917Z" fill="#9D9E9F"/>
<path d="M139.818 230.248V227.02L139.051 227.265V226.914L139.967 226.52H140.27V230.248H139.818ZM142.32 230.311C142.071 230.311 141.855 230.267 141.67 230.178C141.489 230.09 141.345 229.971 141.239 229.822C141.136 229.669 141.072 229.495 141.047 229.3H141.483C141.523 229.484 141.613 229.635 141.755 229.752C141.901 229.869 142.091 229.928 142.325 229.928C142.499 229.928 142.646 229.889 142.767 229.811C142.891 229.729 142.987 229.619 143.055 229.481C143.122 229.339 143.156 229.181 143.156 229.007C143.156 228.833 143.122 228.68 143.055 228.549C142.991 228.414 142.898 228.309 142.778 228.234C142.657 228.156 142.515 228.117 142.352 228.117C142.156 228.117 141.989 228.156 141.851 228.234C141.716 228.313 141.611 228.408 141.537 228.522H141.095L141.377 226.52H143.379V226.908H141.723L141.531 228.075C141.62 227.975 141.737 227.895 141.883 227.835C142.032 227.771 142.204 227.739 142.4 227.739C142.581 227.739 142.744 227.771 142.889 227.835C143.035 227.899 143.159 227.989 143.262 228.107C143.369 228.22 143.449 228.353 143.502 228.506C143.559 228.659 143.587 228.824 143.587 229.001C143.587 229.179 143.557 229.348 143.497 229.507C143.44 229.664 143.356 229.802 143.246 229.923C143.14 230.043 143.008 230.139 142.852 230.21C142.696 230.278 142.518 230.311 142.32 230.311Z" fill="#9D9E9F"/>
<path d="M166.749 230.248V229.933C167.012 229.735 167.26 229.534 167.494 229.332C167.729 229.129 167.936 228.929 168.118 228.73C168.299 228.527 168.441 228.33 168.544 228.139C168.647 227.947 168.698 227.762 168.698 227.585C168.698 227.453 168.673 227.333 168.623 227.223C168.577 227.109 168.501 227.017 168.394 226.946C168.291 226.875 168.151 226.839 167.974 226.839C167.803 226.839 167.661 226.876 167.548 226.951C167.434 227.022 167.349 227.118 167.292 227.239C167.235 227.356 167.207 227.485 167.207 227.627H166.775C166.779 227.382 166.832 227.173 166.935 226.999C167.038 226.821 167.18 226.686 167.361 226.594C167.542 226.502 167.748 226.456 167.979 226.456C168.206 226.456 168.407 226.498 168.581 226.584C168.755 226.665 168.892 226.789 168.991 226.956C169.094 227.12 169.145 227.324 169.145 227.569C169.145 227.743 169.108 227.917 169.034 228.091C168.963 228.265 168.865 228.435 168.741 228.602C168.616 228.765 168.478 228.923 168.325 229.076C168.176 229.229 168.022 229.372 167.862 229.507C167.702 229.642 167.551 229.765 167.409 229.875H169.273V230.248H166.749ZM171.239 230.311C170.93 230.311 170.664 230.232 170.44 230.072C170.22 229.909 170.05 229.683 169.929 229.395C169.808 229.104 169.748 228.767 169.748 228.384C169.748 228 169.808 227.665 169.929 227.377C170.05 227.086 170.22 226.86 170.44 226.701C170.664 226.537 170.93 226.456 171.239 226.456C171.548 226.456 171.812 226.537 172.032 226.701C172.253 226.86 172.421 227.086 172.538 227.377C172.659 227.665 172.719 228 172.719 228.384C172.719 228.767 172.659 229.104 172.538 229.395C172.421 229.683 172.253 229.909 172.032 230.072C171.812 230.232 171.548 230.311 171.239 230.311ZM171.239 229.917C171.434 229.917 171.608 229.857 171.761 229.736C171.914 229.612 172.034 229.436 172.123 229.209C172.215 228.978 172.261 228.703 172.261 228.384C172.261 228.061 172.215 227.785 172.123 227.558C172.034 227.331 171.914 227.157 171.761 227.036C171.608 226.915 171.434 226.855 171.239 226.855C171.04 226.855 170.863 226.915 170.706 227.036C170.55 227.157 170.428 227.331 170.339 227.558C170.25 227.785 170.206 228.061 170.206 228.384C170.206 228.703 170.25 228.978 170.339 229.209C170.428 229.436 170.55 229.612 170.706 229.736C170.863 229.857 171.04 229.917 171.239 229.917Z" fill="#9D9E9F"/>
<path d="M195.163 230.248V229.933C195.426 229.735 195.674 229.534 195.909 229.332C196.143 229.129 196.351 228.929 196.532 228.73C196.713 228.527 196.855 228.33 196.958 228.139C197.061 227.947 197.112 227.762 197.112 227.585C197.112 227.453 197.087 227.333 197.038 227.223C196.991 227.109 196.915 227.017 196.809 226.946C196.706 226.875 196.565 226.839 196.388 226.839C196.217 226.839 196.075 226.876 195.962 226.951C195.848 227.022 195.763 227.118 195.706 227.239C195.649 227.356 195.621 227.485 195.621 227.627H195.19C195.193 227.382 195.246 227.173 195.349 226.999C195.452 226.821 195.594 226.686 195.775 226.594C195.957 226.502 196.162 226.456 196.393 226.456C196.62 226.456 196.821 226.498 196.995 226.584C197.169 226.665 197.306 226.789 197.405 226.956C197.508 227.12 197.56 227.324 197.56 227.569C197.56 227.743 197.522 227.917 197.448 228.091C197.377 228.265 197.279 228.435 197.155 228.602C197.031 228.765 196.892 228.923 196.739 229.076C196.59 229.229 196.436 229.372 196.276 229.507C196.116 229.642 195.965 229.765 195.823 229.875H197.687V230.248H195.163ZM199.593 230.311C199.345 230.311 199.128 230.267 198.944 230.178C198.762 230.09 198.619 229.971 198.512 229.822C198.409 229.669 198.345 229.495 198.32 229.3H198.757C198.796 229.484 198.887 229.635 199.029 229.752C199.174 229.869 199.364 229.928 199.599 229.928C199.773 229.928 199.92 229.889 200.041 229.811C200.165 229.729 200.261 229.619 200.328 229.481C200.396 229.339 200.429 229.181 200.429 229.007C200.429 228.833 200.396 228.68 200.328 228.549C200.264 228.414 200.172 228.309 200.051 228.234C199.931 228.156 199.789 228.117 199.625 228.117C199.43 228.117 199.263 228.156 199.125 228.234C198.99 228.313 198.885 228.408 198.81 228.522H198.368L198.651 226.52H200.653V226.908H198.997L198.805 228.075C198.894 227.975 199.011 227.895 199.157 227.835C199.306 227.771 199.478 227.739 199.673 227.739C199.854 227.739 200.018 227.771 200.163 227.835C200.309 227.899 200.433 227.989 200.536 228.107C200.642 228.22 200.722 228.353 200.776 228.506C200.832 228.659 200.861 228.824 200.861 229.001C200.861 229.179 200.831 229.348 200.77 229.507C200.713 229.664 200.63 229.802 200.52 229.923C200.413 230.043 200.282 230.139 200.126 230.21C199.97 230.278 199.792 230.311 199.593 230.311Z" fill="#9D9E9F"/>
<path d="M224.551 230.311C224.313 230.311 224.096 230.269 223.901 230.184C223.709 230.095 223.557 229.964 223.443 229.79C223.329 229.616 223.269 229.399 223.262 229.14H223.715C223.718 229.282 223.752 229.413 223.816 229.534C223.883 229.651 223.979 229.745 224.103 229.816C224.228 229.887 224.377 229.923 224.551 229.923C224.725 229.923 224.87 229.889 224.987 229.822C225.105 229.754 225.193 229.665 225.254 229.555C225.314 229.442 225.344 229.316 225.344 229.177C225.344 229.01 225.302 228.875 225.216 228.772C225.135 228.666 225.023 228.588 224.881 228.538C224.742 228.485 224.59 228.458 224.423 228.458H224.146V228.08H224.423C224.675 228.08 224.872 228.023 225.014 227.91C225.16 227.792 225.232 227.631 225.232 227.425C225.232 227.258 225.176 227.12 225.062 227.01C224.948 226.899 224.778 226.844 224.551 226.844C224.327 226.844 224.151 226.905 224.023 227.026C223.896 227.146 223.823 227.301 223.805 227.489H223.352C223.363 227.286 223.418 227.107 223.518 226.951C223.62 226.795 223.759 226.674 223.933 226.589C224.11 226.5 224.316 226.456 224.551 226.456C224.799 226.456 225.007 226.498 225.174 226.584C225.344 226.669 225.472 226.782 225.557 226.924C225.642 227.066 225.685 227.224 225.685 227.398C225.685 227.526 225.66 227.649 225.611 227.766C225.564 227.883 225.493 227.984 225.397 228.069C225.302 228.155 225.179 228.215 225.03 228.25C225.176 228.279 225.305 228.334 225.419 228.416C225.536 228.497 225.628 228.602 225.696 228.73C225.763 228.858 225.797 229.007 225.797 229.177C225.797 229.379 225.749 229.568 225.653 229.742C225.561 229.912 225.422 230.051 225.238 230.157C225.053 230.26 224.824 230.311 224.551 230.311ZM227.904 230.311C227.595 230.311 227.329 230.232 227.105 230.072C226.885 229.909 226.715 229.683 226.594 229.395C226.473 229.104 226.413 228.767 226.413 228.384C226.413 228 226.473 227.665 226.594 227.377C226.715 227.086 226.885 226.86 227.105 226.701C227.329 226.537 227.595 226.456 227.904 226.456C228.213 226.456 228.477 226.537 228.698 226.701C228.918 226.86 229.086 227.086 229.204 227.377C229.324 227.665 229.385 228 229.385 228.384C229.385 228.767 229.324 229.104 229.204 229.395C229.086 229.683 228.918 229.909 228.698 230.072C228.477 230.232 228.213 230.311 227.904 230.311ZM227.904 229.917C228.099 229.917 228.273 229.857 228.426 229.736C228.579 229.612 228.699 229.436 228.788 229.209C228.88 228.978 228.927 228.703 228.927 228.384C228.927 228.061 228.88 227.785 228.788 227.558C228.699 227.331 228.579 227.157 228.426 227.036C228.273 226.915 228.099 226.855 227.904 226.855C227.705 226.855 227.528 226.915 227.371 227.036C227.215 227.157 227.093 227.331 227.004 227.558C226.915 227.785 226.871 228.061 226.871 228.384C226.871 228.703 226.915 228.978 227.004 229.209C227.093 229.436 227.215 229.612 227.371 229.736C227.528 229.857 227.705 229.917 227.904 229.917Z" fill="#9D9E9F"/>
<path d="M253.005 230.311C252.697 230.311 252.43 230.232 252.207 230.072C251.986 229.909 251.816 229.683 251.695 229.395C251.575 229.104 251.514 228.767 251.514 228.384C251.514 228 251.575 227.665 251.695 227.377C251.816 227.086 251.986 226.86 252.207 226.701C252.43 226.537 252.697 226.456 253.005 226.456C253.314 226.456 253.579 226.537 253.799 226.701C254.019 226.86 254.188 227.086 254.305 227.377C254.426 227.665 254.486 228 254.486 228.384C254.486 228.767 254.426 229.104 254.305 229.395C254.188 229.683 254.019 229.909 253.799 230.072C253.579 230.232 253.314 230.311 253.005 230.311ZM253.005 229.917C253.201 229.917 253.375 229.857 253.527 229.736C253.68 229.612 253.801 229.436 253.89 229.209C253.982 228.978 254.028 228.703 254.028 228.384C254.028 228.061 253.982 227.785 253.89 227.558C253.801 227.331 253.68 227.157 253.527 227.036C253.375 226.915 253.201 226.855 253.005 226.855C252.807 226.855 252.629 226.915 252.473 227.036C252.317 227.157 252.194 227.331 252.105 227.558C252.017 227.785 251.972 228.061 251.972 228.384C251.972 228.703 252.017 228.978 252.105 229.209C252.194 229.436 252.317 229.612 252.473 229.736C252.629 229.857 252.807 229.917 253.005 229.917ZM256.389 230.311C256.14 230.311 255.923 230.267 255.739 230.178C255.558 230.09 255.414 229.971 255.307 229.822C255.205 229.669 255.141 229.495 255.116 229.3H255.552C255.592 229.484 255.682 229.635 255.824 229.752C255.97 229.869 256.16 229.928 256.394 229.928C256.568 229.928 256.715 229.889 256.836 229.811C256.96 229.729 257.056 229.619 257.124 229.481C257.191 229.339 257.225 229.181 257.225 229.007C257.225 228.833 257.191 228.68 257.124 228.549C257.06 228.414 256.967 228.309 256.847 228.234C256.726 228.156 256.584 228.117 256.421 228.117C256.225 228.117 256.058 228.156 255.92 228.234C255.785 228.313 255.68 228.408 255.606 228.522H255.164L255.446 226.52H257.448V226.908H255.792L255.6 228.075C255.689 227.975 255.806 227.895 255.952 227.835C256.101 227.771 256.273 227.739 256.468 227.739C256.65 227.739 256.813 227.771 256.958 227.835C257.104 227.899 257.228 227.989 257.331 228.107C257.438 228.22 257.518 228.353 257.571 228.506C257.628 228.659 257.656 228.824 257.656 229.001C257.656 229.179 257.626 229.348 257.566 229.507C257.509 229.664 257.425 229.802 257.315 229.923C257.209 230.043 257.077 230.139 256.921 230.21C256.765 230.278 256.587 230.311 256.389 230.311Z" fill="#9D9E9F"/>
<path d="M281.225 230.248V227.02L280.458 227.265V226.914L281.374 226.52H281.677V230.248H281.225ZM283.838 230.311C283.53 230.311 283.263 230.232 283.04 230.072C282.819 229.909 282.649 229.683 282.528 229.395C282.408 229.104 282.347 228.767 282.347 228.384C282.347 228 282.408 227.665 282.528 227.377C282.649 227.086 282.819 226.86 283.04 226.701C283.263 226.537 283.53 226.456 283.838 226.456C284.147 226.456 284.412 226.537 284.632 226.701C284.852 226.86 285.021 227.086 285.138 227.377C285.259 227.665 285.319 228 285.319 228.384C285.319 228.767 285.259 229.104 285.138 229.395C285.021 229.683 284.852 229.909 284.632 230.072C284.412 230.232 284.147 230.311 283.838 230.311ZM283.838 229.917C284.034 229.917 284.208 229.857 284.36 229.736C284.513 229.612 284.634 229.436 284.723 229.209C284.815 228.978 284.861 228.703 284.861 228.384C284.861 228.061 284.815 227.785 284.723 227.558C284.634 227.331 284.513 227.157 284.36 227.036C284.208 226.915 284.034 226.855 283.838 226.855C283.64 226.855 283.462 226.915 283.306 227.036C283.15 227.157 283.027 227.331 282.938 227.558C282.85 227.785 282.805 228.061 282.805 228.384C282.805 228.703 282.85 228.978 282.938 229.209C283.027 229.436 283.15 229.612 283.306 229.736C283.462 229.857 283.64 229.917 283.838 229.917Z" fill="#9D9E9F"/>
</g>
<circle cx="198.443" cy="188.167" r="1.72316" fill="white" stroke="#FF5500" stroke-width="0.545261"/>
<circle cx="163.79" cy="202.805" r="1.77404" fill="white" stroke="#FF5500" stroke-width="0.443509"/>
<circle cx="178.528" cy="192.159" r="2.04514" fill="white" stroke="#FF5500" stroke-width="1.09052"/>
<circle cx="141.073" cy="181.305" r="1.72316" fill="white" stroke="#1C76FD" stroke-width="0.545261"/>
<circle cx="226.828" cy="197.185" r="1.72316" fill="white" stroke="#1C76FD" stroke-width="0.545261"/>
<circle cx="255.656" cy="202.805" r="1.72316" fill="white" stroke="#1C76FD" stroke-width="0.545261"/>
<circle cx="140.671" cy="208.767" r="1.72316" fill="white" stroke="#FF5500" stroke-width="0.545261"/>
<circle cx="226.828" cy="183.289" r="1.72316" fill="white" stroke="#FF5500" stroke-width="0.545261"/>
<circle cx="255.656" cy="178.41" r="1.72316" fill="white" stroke="#FF5500" stroke-width="0.545261"/>
</g>
<rect x="100.871" y="125.632" width="195.588" height="117.973" rx="8.50243" stroke="#EBECEC" stroke-width="0.443509"/>
<rect x="36.1146" y="142.462" width="39.7923" height="36.4217" rx="10.266" fill="#FCFCFC" stroke="#E2E2E2" stroke-width="0.708"/>
<g filter="url(#filter4_d_8985_216061)">
<rect x="38.4017" y="144.529" width="35.2173" height="32.2864" rx="8.26" fill="#FCFCFC"/>
<rect x="38.6967" y="144.824" width="34.6273" height="31.6964" rx="7.965" stroke="url(#paint5_linear_8985_216061)" stroke-width="0.59"/>
</g>
<g filter="url(#filter5_ii_8985_216061)">
<path fill-rule="evenodd" clip-rule="evenodd" d="M56.0493 154.434C56.2122 154.434 56.3443 154.566 56.3443 154.729V156.711H60.2197H60.7286C60.8916 156.711 61.0236 156.844 61.0236 157.006C61.0236 157.169 60.8916 157.301 60.7286 157.301H60.6743L62.4634 161.312H62.7841C62.7841 161.991 62.5145 162.642 62.0348 163.121C61.5551 163.601 60.9044 163.871 60.226 163.871C59.5476 163.871 58.8969 163.601 58.4172 163.121C57.9375 162.642 57.668 161.991 57.668 161.312H57.9533L59.7629 157.301H56.3443V166.32H58.9505C59.1135 166.32 59.2455 166.452 59.2455 166.615C59.2455 166.778 59.1135 166.91 58.9505 166.91H56.0493H53.148C52.9851 166.91 52.853 166.778 52.853 166.615C52.853 166.452 52.9851 166.32 53.148 166.32H55.7543V157.301H52.3058L54.0736 161.312H54.3536C54.3536 161.991 54.0841 162.642 53.6043 163.121C53.1246 163.601 52.474 163.871 51.7955 163.871C51.1171 163.871 50.4664 163.601 49.9867 163.121C49.507 162.642 49.2375 161.991 49.2375 161.312H49.5635L51.3945 157.301H51.3074C51.1445 157.301 51.0124 157.169 51.0124 157.006C51.0124 156.844 51.1445 156.711 51.3074 156.711H51.8534H55.7543V154.729C55.7543 154.566 55.8863 154.434 56.0493 154.434ZM51.8487 157.727L50.2138 161.309H53.4272L51.8487 157.727ZM60.2181 157.727L58.6023 161.309H61.8157L60.2181 157.727Z" fill="#6C6E6F"/>
</g>
<path d="M176.101 192.19L70.6662 192.19C63.8398 192.19 58.306 186.656 58.306 179.83V179.83" stroke="#3B3D3F" stroke-width="0.59" stroke-dasharray="0.59 1.18"/>
<defs>
<filter id="filter0_d_8985_216061" x="-121.473" y="132.693" width="640.605" height="640.605" filterUnits="userSpaceOnUse" color-interpolation-filters="sRGB">
<feFlood flood-opacity="0" result="BackgroundImageFix"/>
<feColorMatrix in="SourceAlpha" type="matrix" values="0 0 0 0 0 0 0 0 0 0 0 0 0 0 0 0 0 0 127 0" result="hardAlpha"/>
<feOffset dy="0.59"/>
<feGaussianBlur stdDeviation="1.18"/>
<feComposite in2="hardAlpha" operator="out"/>
<feColorMatrix type="matrix" values="0 0 0 0 0 0 0 0 0 0 0 0 0 0 0 0 0 0 0.15 0"/>
<feBlend mode="normal" in2="BackgroundImageFix" result="effect1_dropShadow_8985_216061"/>
<feBlend mode="normal" in="SourceGraphic" in2="effect1_dropShadow_8985_216061" result="shape"/>
</filter>
<filter id="filter1_i_8985_216061" x="97.3862" y="122.083" width="202.949" height="125.903" filterUnits="userSpaceOnUse" color-interpolation-filters="sRGB">
<feFlood flood-opacity="0" result="BackgroundImageFix"/>
<feBlend mode="normal" in="SourceGraphic" in2="BackgroundImageFix" result="shape"/>
<feColorMatrix in="SourceAlpha" type="matrix" values="0 0 0 0 0 0 0 0 0 0 0 0 0 0 0 0 0 0 127 0" result="hardAlpha"/>
<feOffset dy="0.545261"/>
<feGaussianBlur stdDeviation="0.817892"/>
<feComposite in2="hardAlpha" operator="arithmetic" k2="-1" k3="1"/>
<feColorMatrix type="matrix" values="0 0 0 0 0 0 0 0 0 0 0 0 0 0 0 0 0 0 0.15 0"/>
<feBlend mode="normal" in2="shape" result="effect1_innerShadow_8985_216061"/>
</filter>
<filter id="filter2_d_8985_216061" x="107.837" y="175.594" width="180.79" height="36.7498" filterUnits="userSpaceOnUse" color-interpolation-filters="sRGB">
<feFlood flood-opacity="0" result="BackgroundImageFix"/>
<feColorMatrix in="SourceAlpha" type="matrix" values="0 0 0 0 0 0 0 0 0 0 0 0 0 0 0 0 0 0 127 0" result="hardAlpha"/>
<feOffset dy="1.77"/>
<feGaussianBlur stdDeviation="1.09052"/>
<feComposite in2="hardAlpha" operator="out"/>
<feColorMatrix type="matrix" values="0 0 0 0 0.504846 0 0 0 0 0.521754 0 0 0 0 0.530208 0 0 0 0.5 0"/>
<feBlend mode="normal" in2="BackgroundImageFix" result="effect1_dropShadow_8985_216061"/>
<feBlend mode="normal" in="SourceGraphic" in2="effect1_dropShadow_8985_216061" result="shape"/>
</filter>
<filter id="filter3_d_8985_216061" x="108.704" y="165.393" width="179.923" height="53.9661" filterUnits="userSpaceOnUse" color-interpolation-filters="sRGB">
<feFlood flood-opacity="0" result="BackgroundImageFix"/>
<feColorMatrix in="SourceAlpha" type="matrix" values="0 0 0 0 0 0 0 0 0 0 0 0 0 0 0 0 0 0 127 0" result="hardAlpha"/>
<feOffset dy="1.77"/>
<feGaussianBlur stdDeviation="1.09052"/>
<feComposite in2="hardAlpha" operator="out"/>
<feColorMatrix type="matrix" values="0 0 0 0 0.504846 0 0 0 0 0.521754 0 0 0 0 0.530208 0 0 0 0.5 0"/>
<feBlend mode="normal" in2="BackgroundImageFix" result="effect1_dropShadow_8985_216061"/>
<feBlend mode="normal" in="SourceGraphic" in2="effect1_dropShadow_8985_216061" result="shape"/>
</filter>
<filter id="filter4_d_8985_216061" x="34.5077" y="142.405" width="43.0053" height="40.0743" filterUnits="userSpaceOnUse" color-interpolation-filters="sRGB">
<feFlood flood-opacity="0" result="BackgroundImageFix"/>
<feColorMatrix in="SourceAlpha" type="matrix" values="0 0 0 0 0 0 0 0 0 0 0 0 0 0 0 0 0 0 127 0" result="hardAlpha"/>
<feOffset dy="1.77"/>
<feGaussianBlur stdDeviation="1.947"/>
<feComposite in2="hardAlpha" operator="out"/>
<feColorMatrix type="matrix" values="0 0 0 0 0 0 0 0 0 0 0 0 0 0 0 0 0 0 0.06 0"/>
<feBlend mode="normal" in2="BackgroundImageFix" result="effect1_dropShadow_8985_216061"/>
<feBlend mode="normal" in="SourceGraphic" in2="effect1_dropShadow_8985_216061" result="shape"/>
</filter>
<filter id="filter5_ii_8985_216061" x="49.2375" y="154.434" width="13.5466" height="13.4694" filterUnits="userSpaceOnUse" color-interpolation-filters="sRGB">
<feFlood flood-opacity="0" result="BackgroundImageFix"/>
<feBlend mode="normal" in="SourceGraphic" in2="BackgroundImageFix" result="shape"/>
<feColorMatrix in="SourceAlpha" type="matrix" values="0 0 0 0 0 0 0 0 0 0 0 0 0 0 0 0 0 0 127 0" result="hardAlpha"/>
<feOffset dy="0.331191"/>
<feGaussianBlur stdDeviation="0.165595"/>
<feComposite in2="hardAlpha" operator="arithmetic" k2="-1" k3="1"/>
<feColorMatrix type="matrix" values="0 0 0 0 0 0 0 0 0 0 0 0 0 0 0 0 0 0 0.35 0"/>
<feBlend mode="normal" in2="shape" result="effect1_innerShadow_8985_216061"/>
<feColorMatrix in="SourceAlpha" type="matrix" values="0 0 0 0 0 0 0 0 0 0 0 0 0 0 0 0 0 0 127 0" result="hardAlpha"/>
<feOffset dy="0.993573"/>
<feGaussianBlur stdDeviation="0.662382"/>
<feComposite in2="hardAlpha" operator="arithmetic" k2="-1" k3="1"/>
<feColorMatrix type="matrix" values="0 0 0 0 0 0 0 0 0 0 0 0 0 0 0 0 0 0 0.25 0"/>
<feBlend mode="normal" in2="effect1_innerShadow_8985_216061" result="effect2_innerShadow_8985_216061"/>
</filter>
<linearGradient id="paint0_linear_8985_216061" x1="191.216" y1="84.4566" x2="30.8684" y2="53.6866" gradientUnits="userSpaceOnUse">
<stop stop-color="#EBECEC"/>
<stop offset="1" stop-color="#EBECEC" stop-opacity="0"/>
</linearGradient>
<radialGradient id="paint1_radial_8985_216061" cx="0" cy="0" r="1" gradientUnits="userSpaceOnUse" gradientTransform="translate(198.83 452.405) rotate(90) scale(317.942)">
<stop stop-color="#CECFCF"/>
<stop offset="1" stop-color="#CECFCF"/>
</radialGradient>
<linearGradient id="paint2_linear_8985_216061" x1="198.83" y1="134.463" x2="198.83" y2="770.348" gradientUnits="userSpaceOnUse">
<stop stop-color="white"/>
<stop offset="1" stop-color="#F5F6F7"/>
</linearGradient>
<linearGradient id="paint3_linear_8985_216061" x1="198.861" y1="122.083" x2="198.861" y2="247.441" gradientUnits="userSpaceOnUse">
<stop stop-color="white" stop-opacity="0"/>
<stop offset="1" stop-color="white"/>
</linearGradient>
<linearGradient id="paint4_linear_8985_216061" x1="258.16" y1="154.129" x2="258.16" y2="136.259" gradientUnits="userSpaceOnUse">
<stop stop-color="#E2E2E2"/>
<stop offset="1" stop-color="#E2E2E2"/>
</linearGradient>
<linearGradient id="paint5_linear_8985_216061" x1="56.0104" y1="176.815" x2="56.0104" y2="144.529" gradientUnits="userSpaceOnUse">
<stop stop-color="#E2E2E2"/>
<stop offset="1" stop-color="#E2E2E2"/>
</linearGradient>
<clipPath id="clip0_8985_216061">
<rect x="100.65" y="125.41" width="196.031" height="118.417" rx="8.72418" fill="white"/>
</clipPath>
<clipPath id="clip1_8985_216061">
<rect width="194.701" height="7" fill="white" transform="translate(100.65 225.248)"/>
</clipPath>
</defs>
</svg>
