<svg width="506" height="454" viewBox="0 0 506 454" fill="none" xmlns="http://www.w3.org/2000/svg">
<mask id="mask0_8985_201862" style="mask-type:alpha" maskUnits="userSpaceOnUse" x="-19" y="64" width="538" height="389">
<path opacity="0.8" d="M518.828 453L457.804 453L-18.416 453L0.000217601 64.0134L518.827 64.0134L518.828 150.141L518.828 363.411L518.828 378.44L518.828 453Z" fill="url(#paint0_radial_8985_201862)"/>
</mask>
<g mask="url(#mask0_8985_201862)">
<path d="M-190.186 450.398L989.051 450.398" stroke="#E2E2E2" stroke-width="0.5"/>
<path d="M-190.186 446.398L989.051 446.398" stroke="#E2E2E2" stroke-width="0.5"/>
<path d="M-190.186 442.398L989.051 442.398" stroke="#E2E2E2" stroke-width="0.5"/>
<path d="M-190.186 438.398L989.051 438.398" stroke="#E2E2E2" stroke-width="0.5"/>
<path d="M-190.186 434.398L989.051 434.398" stroke="#E2E2E2" stroke-width="0.5"/>
<path d="M-190.186 430.398L989.051 430.398" stroke="#E2E2E2" stroke-width="0.5"/>
<path d="M-190.186 426.398L989.051 426.398" stroke="#E2E2E2" stroke-width="0.5"/>
<path d="M-190.186 422.398L989.051 422.398" stroke="#E2E2E2" stroke-width="0.5"/>
<path d="M-190.186 418.398L989.051 418.398" stroke="#E2E2E2" stroke-width="0.5"/>
<path d="M-190.186 414.398L989.051 414.398" stroke="#E2E2E2" stroke-width="0.5"/>
<path d="M-190.186 410.398L989.051 410.398" stroke="#E2E2E2" stroke-width="0.5"/>
<path d="M-190.186 406.398L989.051 406.398" stroke="#E2E2E2" stroke-width="0.5"/>
<path d="M-190.186 402.398L989.051 402.398" stroke="#E2E2E2" stroke-width="0.5"/>
<path d="M-190.186 398.398L989.051 398.398" stroke="#E2E2E2" stroke-width="0.5"/>
<path d="M-190.186 394.398L989.051 394.398" stroke="#E2E2E2" stroke-width="0.5"/>
<path d="M-190.186 390.398L989.051 390.398" stroke="#E2E2E2" stroke-width="0.5"/>
<path d="M-190.186 386.398L989.051 386.398" stroke="#E2E2E2" stroke-width="0.5"/>
<path d="M-190.186 382.398L989.051 382.398" stroke="#E2E2E2" stroke-width="0.5"/>
<path d="M-190.186 378.398L989.051 378.398" stroke="#E2E2E2" stroke-width="0.5"/>
<path d="M-190.186 374.398L989.051 374.398" stroke="#E2E2E2" stroke-width="0.5"/>
<path d="M-190.186 370.398L989.051 370.398" stroke="#E2E2E2" stroke-width="0.5"/>
<path d="M-190.186 366.398L989.051 366.398" stroke="#E2E2E2" stroke-width="0.5"/>
<path d="M-190.186 362.398L989.051 362.398" stroke="#E2E2E2" stroke-width="0.5"/>
<path d="M-190.186 358.398L989.051 358.398" stroke="#E2E2E2" stroke-width="0.5"/>
<path d="M-190.186 354.398L989.051 354.398" stroke="#E2E2E2" stroke-width="0.5"/>
<path d="M-190.186 350.398L989.051 350.398" stroke="#E2E2E2" stroke-width="0.5"/>
<path d="M-190.186 346.398L989.051 346.398" stroke="#E2E2E2" stroke-width="0.5"/>
<path d="M-190.186 342.398L989.051 342.398" stroke="#E2E2E2" stroke-width="0.5"/>
<path d="M-190.186 338.398L989.051 338.398" stroke="#E2E2E2" stroke-width="0.5"/>
<path d="M-190.186 334.398L989.051 334.398" stroke="#E2E2E2" stroke-width="0.5"/>
<path d="M-190.186 330.398L989.051 330.398" stroke="#E2E2E2" stroke-width="0.5"/>
<path d="M-190.186 326.398L989.051 326.398" stroke="#E2E2E2" stroke-width="0.5"/>
<path d="M-190.186 322.398L989.051 322.398" stroke="#E2E2E2" stroke-width="0.5"/>
<path d="M-190.186 318.398L989.051 318.398" stroke="#E2E2E2" stroke-width="0.5"/>
<path d="M-190.186 314.398L989.051 314.398" stroke="#E2E2E2" stroke-width="0.5"/>
<path d="M-190.186 310.398L989.051 310.398" stroke="#E2E2E2" stroke-width="0.5"/>
<path d="M-190.186 306.398L989.051 306.398" stroke="#E2E2E2" stroke-width="0.5"/>
<path d="M-190.186 302.398L989.051 302.398" stroke="#E2E2E2" stroke-width="0.5"/>
<path d="M-190.186 298.398L989.051 298.398" stroke="#E2E2E2" stroke-width="0.5"/>
<path d="M-190.186 294.398L989.051 294.398" stroke="#E2E2E2" stroke-width="0.5"/>
<path d="M-190.186 290.398L989.051 290.398" stroke="#E2E2E2" stroke-width="0.5"/>
<path d="M-190.186 286.398L989.051 286.398" stroke="#E2E2E2" stroke-width="0.5"/>
<path d="M-190.186 282.398L989.051 282.398" stroke="#E2E2E2" stroke-width="0.5"/>
<path d="M-190.186 278.398L989.051 278.398" stroke="#E2E2E2" stroke-width="0.5"/>
<path d="M-190.186 274.398L989.051 274.398" stroke="#E2E2E2" stroke-width="0.5"/>
<path d="M-190.186 270.398L989.051 270.398" stroke="#E2E2E2" stroke-width="0.5"/>
<path d="M-190.186 266.398L989.051 266.398" stroke="#E2E2E2" stroke-width="0.5"/>
<path d="M-190.186 262.398L989.051 262.398" stroke="#E2E2E2" stroke-width="0.5"/>
<path d="M-190.186 258.398L989.051 258.398" stroke="#E2E2E2" stroke-width="0.5"/>
<path d="M-190.186 254.398L989.051 254.398" stroke="#E2E2E2" stroke-width="0.5"/>
<path d="M-190.186 250.398L989.051 250.398" stroke="#E2E2E2" stroke-width="0.5"/>
<path d="M-190.186 246.398L989.051 246.398" stroke="#E2E2E2" stroke-width="0.5"/>
<path d="M-190.186 242.398L989.051 242.398" stroke="#E2E2E2" stroke-width="0.5"/>
<path d="M-190.186 238.398L989.051 238.398" stroke="#E2E2E2" stroke-width="0.5"/>
<path d="M-190.186 234.398L989.051 234.398" stroke="#E2E2E2" stroke-width="0.5"/>
<path d="M-190.186 230.398L989.051 230.398" stroke="#E2E2E2" stroke-width="0.5"/>
<path d="M-190.186 226.398L989.051 226.398" stroke="#E2E2E2" stroke-width="0.5"/>
<path d="M-190.186 222.398L989.051 222.398" stroke="#E2E2E2" stroke-width="0.5"/>
<path d="M-190.186 218.398L989.051 218.398" stroke="#E2E2E2" stroke-width="0.5"/>
<path d="M-190.186 214.398L989.051 214.398" stroke="#E2E2E2" stroke-width="0.5"/>
<path d="M-190.186 210.398L989.051 210.398" stroke="#E2E2E2" stroke-width="0.5"/>
<path d="M-190.186 206.398L989.051 206.398" stroke="#E2E2E2" stroke-width="0.5"/>
<path d="M-190.186 202.398L989.051 202.398" stroke="#E2E2E2" stroke-width="0.5"/>
<path d="M-190.186 198.398L989.051 198.398" stroke="#E2E2E2" stroke-width="0.5"/>
<path d="M-190.186 194.398L989.051 194.398" stroke="#E2E2E2" stroke-width="0.5"/>
<path d="M-190.186 190.398L989.051 190.398" stroke="#E2E2E2" stroke-width="0.5"/>
<path d="M-190.186 186.398L989.051 186.398" stroke="#E2E2E2" stroke-width="0.5"/>
<path d="M-190.186 182.398L989.051 182.398" stroke="#E2E2E2" stroke-width="0.5"/>
<path d="M-190.186 178.398L989.051 178.398" stroke="#E2E2E2" stroke-width="0.5"/>
<path d="M-190.186 174.398L989.051 174.398" stroke="#E2E2E2" stroke-width="0.5"/>
<path d="M-190.186 170.398L989.051 170.398" stroke="#E2E2E2" stroke-width="0.5"/>
<path d="M-190.186 166.398L989.051 166.398" stroke="#E2E2E2" stroke-width="0.5"/>
<path d="M-190.186 162.398L989.051 162.398" stroke="#E2E2E2" stroke-width="0.5"/>
<path d="M-190.186 158.398L989.051 158.398" stroke="#E2E2E2" stroke-width="0.5"/>
<path d="M-190.186 154.398L989.051 154.398" stroke="#E2E2E2" stroke-width="0.5"/>
<path d="M-190.186 150.398L989.051 150.398" stroke="#E2E2E2" stroke-width="0.5"/>
<path d="M-190.186 146.398L989.051 146.398" stroke="#E2E2E2" stroke-width="0.5"/>
<path d="M-190.186 142.398L989.051 142.398" stroke="#E2E2E2" stroke-width="0.5"/>
<path d="M-190.186 138.398L989.051 138.398" stroke="#E2E2E2" stroke-width="0.5"/>
<path d="M-190.186 134.398L989.051 134.398" stroke="#E2E2E2" stroke-width="0.5"/>
<path d="M-190.186 130.398L989.051 130.398" stroke="#E2E2E2" stroke-width="0.5"/>
<path d="M-190.186 126.398L989.051 126.398" stroke="#E2E2E2" stroke-width="0.5"/>
<path d="M-190.186 122.398L989.051 122.398" stroke="#E2E2E2" stroke-width="0.5"/>
<path d="M-190.186 118.398L989.051 118.398" stroke="#E2E2E2" stroke-width="0.5"/>
<path d="M-190.186 114.398L989.051 114.398" stroke="#E2E2E2" stroke-width="0.5"/>
<path d="M-190.186 110.398L989.051 110.398" stroke="#E2E2E2" stroke-width="0.5"/>
<path d="M-190.186 106.398L989.051 106.398" stroke="#E2E2E2" stroke-width="0.5"/>
<path d="M-190.186 102.398L989.051 102.398" stroke="#E2E2E2" stroke-width="0.5"/>
<path d="M-190.186 98.3984L989.051 98.3984" stroke="#E2E2E2" stroke-width="0.5"/>
<path d="M-190.186 94.3984L989.051 94.3984" stroke="#E2E2E2" stroke-width="0.5"/>
<path d="M-190.186 90.3984L989.051 90.3984" stroke="#E2E2E2" stroke-width="0.5"/>
<path d="M-190.186 86.3984L989.051 86.3984" stroke="#E2E2E2" stroke-width="0.5"/>
<path d="M-190.186 82.3984L989.051 82.3984" stroke="#E2E2E2" stroke-width="0.5"/>
<path d="M-190.186 78.3984L989.051 78.3984" stroke="#E2E2E2" stroke-width="0.5"/>
<path d="M-190.186 74.3984L989.051 74.3984" stroke="#E2E2E2" stroke-width="0.5"/>
<path d="M-190.186 70.3984L989.051 70.3984" stroke="#E2E2E2" stroke-width="0.5"/>
<path d="M-190.186 66.3984L989.051 66.3984" stroke="#E2E2E2" stroke-width="0.5"/>
</g>
<path d="M178.891 268.25L3.39233 268.25" stroke="url(#paint1_linear_8985_201862)"/>
<path d="M178.439 267.75C123.312 267.75 143.808 167.25 86.5616 167.25L-23.4079 167.25" stroke="#E2E2E2"/>
<path d="M178.439 268.25C123.312 268.25 143.808 368.75 86.5616 368.75L-16.7373 368.75" stroke="url(#paint2_linear_8985_201862)"/>
<path d="M329.109 268.25H422.697H493.827" stroke="url(#paint3_linear_8985_201862)"/>
<path d="M329.556 268.25C381.978 268.25 362.488 368.75 416.926 368.75L511.51 368.75" stroke="#E2E2E2"/>
<path d="M329.556 267.75C381.978 267.75 362.488 167.25 416.926 167.25L511.51 167.25" stroke="url(#paint4_linear_8985_201862)"/>
<rect x="178.5" y="193.5" width="149" height="149" rx="19.5" fill="#FBFBFB" stroke="#3B3D3F" stroke-dasharray="1 5"/>
<g filter="url(#filter0_d_8985_201862)">
<rect x="192.183" y="207.175" width="121.642" height="121.65" rx="5.93417" fill="url(#paint5_linear_8985_201862)"/>
</g>
<path d="M192.183 216.721C192.183 213.363 192.183 211.684 192.83 210.415C193.398 209.298 194.306 208.39 195.423 207.822C196.692 207.175 198.354 207.175 201.677 207.175H304.331C307.654 207.175 309.316 207.175 310.585 207.822C311.702 208.39 312.609 209.298 313.178 210.415C313.825 211.684 313.825 213.363 313.825 216.721H192.183Z" fill="#E3E3E3"/>
<path fill-rule="evenodd" clip-rule="evenodd" d="M206.627 211.948C206.627 212.759 205.947 213.417 205.107 213.417C204.267 213.417 203.586 212.759 203.586 211.948C203.586 211.137 204.267 210.479 205.107 210.479C205.947 210.479 206.627 211.137 206.627 211.948ZM201.305 211.948C201.305 212.759 200.625 213.417 199.785 213.417C198.945 213.417 198.264 212.759 198.264 211.948C198.264 211.137 198.945 210.479 199.785 210.479C200.625 210.479 201.305 211.137 201.305 211.948ZM210.429 213.417C211.268 213.417 211.949 212.759 211.949 211.948C211.949 211.137 211.268 210.479 210.429 210.479C209.589 210.479 208.908 211.137 208.908 211.948C208.908 212.759 209.589 213.417 210.429 213.417Z" fill="#9D9E9F"/>
<rect x="187.078" y="202.078" width="131.844" height="131.844" rx="11.6291" stroke="#CECFCF" stroke-width="0.741771"/>
<mask id="path-110-inside-1_8985_201862" fill="white">
<path d="M253.309 307.168C252.867 307.168 252.424 307.069 252.025 306.868L239.165 300.396C235.516 298.558 232.661 296.495 230.432 294.092C225.554 288.835 222.839 282.088 222.796 275.089L222.645 252.052C222.627 249.393 224.392 247.007 227.031 246.108L250.645 238.104C252.047 237.618 253.611 237.611 255.038 238.081L278.742 245.812C281.395 246.673 283.189 249.042 283.203 251.698L283.354 274.752C283.401 281.741 280.78 288.515 275.977 293.829C273.773 296.267 270.943 298.361 267.33 300.233L254.585 306.851C254.19 307.059 253.751 307.164 253.309 307.168Z"/>
</mask>
<path d="M253.309 307.168C252.867 307.168 252.424 307.069 252.025 306.868L239.165 300.396C235.516 298.558 232.661 296.495 230.432 294.092C225.554 288.835 222.839 282.088 222.796 275.089L222.645 252.052C222.627 249.393 224.392 247.007 227.031 246.108L250.645 238.104C252.047 237.618 253.611 237.611 255.038 238.081L278.742 245.812C281.395 246.673 283.189 249.042 283.203 251.698L283.354 274.752C283.401 281.741 280.78 288.515 275.977 293.829C273.773 296.267 270.943 298.361 267.33 300.233L254.585 306.851C254.19 307.059 253.751 307.164 253.309 307.168Z" fill="url(#paint6_linear_8985_201862)"/>
<path d="M252.025 306.868L252.092 306.735H252.092L252.025 306.868ZM239.165 300.396L239.098 300.529L239.099 300.529L239.165 300.396ZM230.432 294.092L230.541 293.991L230.541 293.991L230.432 294.092ZM222.796 275.089L222.945 275.088L222.945 275.088L222.796 275.089ZM222.645 252.052L222.794 252.051L222.794 252.051L222.645 252.052ZM227.031 246.108L226.984 245.967L226.984 245.968L227.031 246.108ZM250.645 238.104L250.692 238.245L250.693 238.245L250.645 238.104ZM255.038 238.081L254.992 238.222L254.992 238.222L255.038 238.081ZM278.742 245.812L278.696 245.953L278.696 245.953L278.742 245.812ZM283.203 251.698L283.055 251.699L283.055 251.699L283.203 251.698ZM283.354 274.752L283.206 274.753V274.753L283.354 274.752ZM275.977 293.829L276.087 293.929L276.087 293.929L275.977 293.829ZM267.33 300.233L267.262 300.101L267.262 300.101L267.33 300.233ZM254.585 306.851L254.517 306.719L254.516 306.72L254.585 306.851ZM253.309 307.019C252.889 307.019 252.469 306.925 252.092 306.735L251.959 307C252.38 307.212 252.845 307.316 253.309 307.316V307.019ZM252.092 306.735L239.232 300.264L239.099 300.529L251.959 307L252.092 306.735ZM239.232 300.264C235.595 298.432 232.756 296.379 230.541 293.991L230.324 294.192C232.567 296.612 235.437 298.684 239.098 300.529L239.232 300.264ZM230.541 293.991C225.687 288.761 222.987 282.049 222.945 275.088L222.648 275.09C222.691 282.127 225.42 288.91 230.324 294.193L230.541 293.991ZM222.945 275.088L222.794 252.051L222.497 252.053L222.648 275.09L222.945 275.088ZM222.794 252.051C222.776 249.46 224.496 247.128 227.079 246.248L226.984 245.968C224.288 246.885 222.478 249.326 222.497 252.053L222.794 252.051ZM227.079 246.248L250.692 238.245L250.597 237.964L226.984 245.967L227.079 246.248ZM250.693 238.245C252.064 237.769 253.595 237.762 254.992 238.222L255.085 237.94C253.627 237.46 252.03 237.467 250.596 237.964L250.693 238.245ZM254.992 238.222L278.696 245.953L278.788 245.671L255.084 237.94L254.992 238.222ZM278.696 245.953C281.292 246.796 283.041 249.111 283.055 251.699L283.352 251.697C283.337 248.974 281.497 246.55 278.787 245.671L278.696 245.953ZM283.055 251.699L283.206 274.753L283.503 274.751L283.352 251.697L283.055 251.699ZM283.206 274.753C283.252 281.704 280.646 288.443 275.867 293.73L276.087 293.929C280.914 288.588 283.55 281.778 283.503 274.751L283.206 274.753ZM275.867 293.73C273.677 296.152 270.863 298.235 267.262 300.101L267.399 300.365C271.024 298.486 273.869 296.382 276.087 293.929L275.867 293.73ZM267.262 300.101L254.517 306.719L254.654 306.983L267.399 300.365L267.262 300.101ZM254.516 306.72C254.142 306.916 253.727 307.016 253.308 307.019L253.31 307.316C253.775 307.312 254.237 307.201 254.654 306.982L254.516 306.72Z" fill="url(#paint7_linear_8985_201862)" mask="url(#path-110-inside-1_8985_201862)"/>
<g filter="url(#filter1_ii_8985_201862)">
<path fill-rule="evenodd" clip-rule="evenodd" d="M264 264.942C264 268.775 260.883 271.883 257.039 271.883C256.104 271.883 255.211 271.699 254.396 271.365C254.298 271.325 254.182 271.353 254.109 271.429L253.026 272.561C252.97 272.62 252.942 272.649 252.909 272.667C252.879 272.683 252.846 272.692 252.812 272.695C252.774 272.697 252.735 272.688 252.656 272.668L251.6 272.402C251.438 272.362 251.357 272.341 251.294 272.361C251.238 272.378 251.19 272.415 251.16 272.465C251.125 272.522 251.125 272.605 251.125 272.772V274.103C251.125 274.161 251.125 274.189 251.119 274.217C251.113 274.241 251.103 274.264 251.09 274.285C251.076 274.309 251.056 274.329 251.015 274.37L249.786 275.615C249.734 275.668 249.707 275.694 249.677 275.711C249.649 275.726 249.619 275.735 249.588 275.739C249.553 275.743 249.516 275.736 249.443 275.722L248.334 275.515C248.179 275.486 248.101 275.471 248.04 275.493C247.987 275.512 247.942 275.549 247.914 275.597C247.882 275.653 247.882 275.732 247.882 275.889V277.135C247.882 277.268 247.882 277.335 247.856 277.386C247.833 277.431 247.796 277.467 247.751 277.49C247.7 277.516 247.633 277.516 247.499 277.516H246.686C246.552 277.516 246.485 277.516 246.434 277.542C246.389 277.565 246.353 277.601 246.33 277.646C246.304 277.697 246.304 277.764 246.304 277.897V279.148C246.304 279.208 246.304 279.237 246.297 279.265C246.291 279.29 246.281 279.313 246.267 279.335C246.252 279.359 246.231 279.38 246.188 279.421L243.654 281.882C243.603 281.932 243.577 281.956 243.547 281.972C243.521 281.986 243.492 281.995 243.462 281.999C243.429 282.003 243.394 281.997 243.323 281.985L241.319 281.648C241.205 281.629 241.149 281.619 241.106 281.591C241.069 281.566 241.039 281.531 241.021 281.49C241 281.444 241 281.386 241 281.272V278.327C241 278.269 241 278.239 241.007 278.212C241.013 278.187 241.022 278.164 241.036 278.143C241.051 278.118 241.071 278.098 241.113 278.057L250.866 268.418C250.92 268.364 250.934 268.279 250.897 268.212C250.374 267.237 250.078 266.124 250.078 264.942C250.078 261.108 253.195 258 257.039 258C260.883 258 264 261.108 264 264.942ZM260.655 263.139C260.655 264.134 259.845 264.942 258.847 264.942C257.848 264.942 257.039 264.134 257.039 263.139C257.039 262.143 257.848 261.336 258.847 261.336C259.845 261.336 260.655 262.143 260.655 263.139Z" fill="#3B3D3F"/>
</g>
<g filter="url(#filter2_dd_8985_201862)">
<circle cx="179" cy="268" r="4" fill="white"/>
</g>
<circle cx="179" cy="267.999" r="1.33333" fill="#1C76FD"/>
<g filter="url(#filter3_dd_8985_201862)">
<circle cx="328.556" cy="268" r="4" fill="white"/>
</g>
<circle cx="328.556" cy="267.999" r="1.33333" fill="#FF5500"/>
<g filter="url(#filter4_d_8985_201862)">
<rect x="23.7236" y="340" width="66" height="56" rx="14" fill="#FCFCFC" shape-rendering="crispEdges"/>
<rect x="24.2236" y="340.5" width="65" height="55" rx="13.5" stroke="url(#paint8_linear_8985_201862)" shape-rendering="crispEdges"/>
<g filter="url(#filter5_i_8985_201862)">
<rect x="31.7236" y="348" width="50" height="40" rx="8" fill="url(#paint9_linear_8985_201862)"/>
<g clip-path="url(#clip0_8985_201862)">
<g filter="url(#filter6_ii_8985_201862)">
<path d="M64.3749 363.74L63.2236 362.905L56.8361 365.187L56.7069 358.558L55.5585 359.393L55.6912 366.819L64.3749 363.74Z" fill="#1C76FD"/>
</g>
<g filter="url(#filter7_ii_8985_201862)">
<path d="M54.8983 359.873L53.7563 360.702L53.8524 366.935L47.6615 365.141L48.0878 366.451L55.0445 368.492L54.8983 359.873Z" fill="#1C76FD"/>
</g>
<g filter="url(#filter8_ii_8985_201862)">
<path d="M48.3365 367.215L48.7662 368.537L55.05 370.418L51.1716 375.94L51.218 376.084H52.5002L56.9474 369.76L48.3365 367.215Z" fill="#1C76FD"/>
</g>
<g filter="url(#filter9_ii_8985_201862)">
<path d="M53.3291 376.084H54.7761L58.522 370.767L62.6172 376.084H62.7327L63.1519 374.793L58.478 368.767L53.3291 376.084Z" fill="#1C76FD"/>
</g>
<g filter="url(#filter10_ii_8985_201862)">
<path d="M59.767 367.378L66.2532 365.106L65.0507 364.232L57.8228 366.783L63.4125 373.99L63.8627 372.605L59.767 367.378Z" fill="#1C76FD"/>
</g>
</g>
</g>
</g>
<g filter="url(#filter11_d_8985_201862)">
<rect x="24" y="139" width="66" height="56" rx="14" fill="#FCFCFC" shape-rendering="crispEdges"/>
<rect x="24.5" y="139.5" width="65" height="55" rx="13.5" stroke="url(#paint10_linear_8985_201862)" shape-rendering="crispEdges"/>
<g filter="url(#filter12_i_8985_201862)">
<rect x="32" y="147" width="50" height="40" rx="8" fill="url(#paint11_linear_8985_201862)"/>
<path fill-rule="evenodd" clip-rule="evenodd" d="M63.9317 155.406C63.9769 156.378 63.2064 156.979 62.6222 157.549L56.6435 162.582C56.1061 163.083 55.3296 163.495 55.0272 164.246C54.6713 165.278 54.4318 166.347 54.313 167.432C54.2162 168.221 53.4797 168.907 52.7934 169.197C52.2603 169.383 51.6202 169.295 51.0375 169.341L48.9542 169.354C48.8693 169.371 48.7884 169.404 48.7163 169.451C48.6442 169.499 48.5824 169.561 48.5343 169.632L48.4572 169.839C48.2337 169.872 48.3084 169.677 48.2757 169.542C48.2581 169.32 48.289 169.097 48.366 168.889C48.4431 168.68 48.5646 168.491 48.7221 168.334C48.9161 168.173 49.1571 168.079 49.409 168.066L52.4472 168.02C52.605 167.999 52.7523 167.93 52.8684 167.821L52.9913 167.586C53.2341 166.072 53.374 164.503 54.1249 163.216C54.824 162.4 55.7052 161.838 56.484 161.12C58.2875 159.588 60.1568 158.032 61.9383 156.477C62.5151 155.998 62.9229 155.346 63.1017 154.617L63.1674 154.415C63.3763 154.49 63.5594 154.622 63.6948 154.798C63.8302 154.973 63.9121 155.184 63.9308 155.405" fill="#6C6E6F"/>
<path fill-rule="evenodd" clip-rule="evenodd" d="M65.6838 157.739C65.7731 158.683 65.0324 159.131 64.4422 159.715L62.0018 161.811L57.6662 165.493C57.0514 166.187 57.0195 167.169 56.8627 168.057C56.8886 168.347 57.1802 168.465 57.1234 168.768L56.5204 169.855C56.5535 170.288 57.0826 170.037 57.2532 170.308C57.2588 170.464 57.1546 170.658 57.2779 170.788C57.3624 170.937 57.7109 170.737 57.5284 170.976C57.4784 171.015 57.4987 171.111 57.5121 171.163C57.5844 171.258 57.7204 171.267 57.7317 171.408C57.6954 171.504 57.6805 171.607 57.688 171.709C57.6954 171.811 57.7251 171.91 57.7749 171.999C58.5272 172.82 59.8224 171.803 60.6069 172.574C60.6908 172.677 60.7476 172.799 60.772 172.929C60.7965 173.059 60.7878 173.193 60.7468 173.318C60.3275 174.547 57.849 174.637 58.6969 176.379C58.7796 176.523 58.8966 176.643 59.0375 176.73C59.1783 176.818 59.3386 176.868 59.504 176.878C59.7542 176.892 60.0038 176.842 60.2301 176.735C60.3025 176.735 60.3096 176.806 60.3382 176.845V176.892C59.6212 177.402 58.6972 178.152 57.7448 177.608C57.5054 177.441 57.3207 177.207 57.2136 176.935C57.1065 176.664 57.0819 176.367 57.1427 176.081C57.4338 175.117 58.5415 174.871 59.0971 174.062C59.1573 173.941 59.1859 173.805 59.1803 173.67C59.1748 173.534 59.1352 173.401 59.0653 173.285C58.9504 173.144 58.8065 173.029 58.6434 172.949C58.4802 172.868 58.3016 172.824 58.1198 172.819C57.5246 172.806 56.6112 173.182 56.3466 172.483C56.2693 172.215 56.5404 171.746 56.1139 171.684C56.0544 171.609 55.9202 171.543 55.9904 171.421C56.0106 171.351 56.1321 171.342 56.0699 171.251C55.9853 171.227 55.8714 171.246 55.8044 171.174C55.5627 170.91 56.2291 170.624 55.7779 170.443C55.5488 170.411 55.2392 170.581 55.0916 170.32C55.0199 170.075 55.2026 169.9 55.2934 169.701C55.4467 169.358 55.894 169.131 55.7785 168.689L55.5571 168.314C55.6216 167.448 55.7666 166.591 55.9901 165.752C56.2877 164.833 57.1746 164.321 57.8537 163.688L61.492 160.613L64.0666 158.348C64.3055 158.172 64.5029 157.945 64.6449 157.685C64.787 157.424 64.8701 157.136 64.8886 156.84C65.0252 156.793 65.1166 156.959 65.235 157.009C65.4545 157.202 65.6111 157.456 65.6847 157.739" fill="#6C6E6F"/>
<path fill-rule="evenodd" clip-rule="evenodd" d="M65.3316 162.009C64.8527 162.773 64.0518 163.348 63.3391 163.954L60.5415 166.296C60.2971 166.538 60.1278 166.846 60.0542 167.182C59.9806 167.518 60.0057 167.868 60.1267 168.19C60.1529 168.507 59.907 168.706 59.8291 168.987C59.8371 169.069 59.8538 169.175 59.9383 169.199C60.055 169.245 60.2305 169.186 60.2954 169.341C60.3124 169.505 60.238 169.68 60.418 169.743C60.4895 169.783 60.5966 169.658 60.6043 169.788C60.5553 169.856 60.5324 169.938 60.5401 170.021C60.6317 170.184 60.8311 170.095 60.9136 170.229C60.949 170.418 60.949 170.662 61.1621 170.741C61.8873 170.862 62.437 170.371 63.0909 170.229C64.1268 169.905 65.1286 170.311 66.053 170.587C66.5276 170.655 67.0096 170.655 67.4842 170.587L67.5166 170.616C66.9279 171.335 66.2027 172.034 65.1744 171.963C64.0938 171.924 63.3968 170.915 62.237 171.11C61.4525 171.266 60.6701 171.737 59.8291 171.42C59.7199 171.324 59.641 171.197 59.6017 171.057C59.5625 170.917 59.5647 170.768 59.6079 170.629C59.5684 170.442 59.1172 170.396 59.3972 170.152C59.3112 170.096 59.1639 170.152 59.1193 170.022C59.0538 169.874 59.2356 169.654 59.0398 169.556C58.8654 169.53 58.6407 169.628 58.5104 169.48C58.4811 169.432 58.4631 169.378 58.4575 169.322C58.452 169.266 58.459 169.209 58.4782 169.156C58.6023 168.859 58.9383 168.624 58.8651 168.27C58.6401 168.057 58.7145 167.699 58.7425 167.402C58.8711 166.717 58.9234 165.992 59.5618 165.536L62.9992 162.629C63.7236 161.938 64.6188 161.49 65.142 160.579C65.29 160.783 65.3845 161.02 65.4171 161.27C65.4496 161.519 65.4191 161.773 65.3283 162.008" fill="#6C6E6F"/>
<path fill-rule="evenodd" clip-rule="evenodd" d="M54.192 172.495C55.189 172.874 56.15 173.342 57.0633 173.893C57.1848 173.978 57.2826 174.093 57.3474 174.226C57.4121 174.359 57.4417 174.507 57.4332 174.655C57.1356 175.891 55.4139 176.024 55.6666 177.48C55.6967 177.747 55.8038 177.999 55.9748 178.206C56.1458 178.412 56.3734 178.565 56.6297 178.644C56.893 178.714 57.1699 178.714 57.4332 178.644C57.4728 178.74 57.6416 178.83 57.4514 178.894C56.7496 179.346 55.8425 179.852 54.9812 179.42C54.7802 179.306 54.6065 179.151 54.4722 178.963C54.3379 178.775 54.2463 178.561 54.2039 178.334C54.0295 177.012 55.2595 176.596 55.8821 175.712C55.9827 175.533 56.0159 175.324 55.9758 175.122C55.858 174.891 55.6732 174.702 55.4455 174.578C53.1034 173.314 50.6083 172.358 48.0219 171.732C47.5931 171.693 46.9276 171.441 46.6425 171.941V171.964C46.411 172.013 46.5 171.733 46.5 171.61C46.5293 171.407 46.6104 171.214 46.7355 171.051C46.8605 170.887 47.0253 170.759 47.2142 170.677C47.8862 170.478 48.5987 170.716 49.2514 170.833C50.9297 171.289 52.5794 171.845 54.1917 172.497" fill="#6C6E6F"/>
</g>
</g>
<g filter="url(#filter13_d_8985_201862)">
<rect x="409.237" y="139" width="66" height="56" rx="14" fill="#FCFCFC" shape-rendering="crispEdges"/>
<rect x="409.737" y="139.5" width="65" height="55" rx="13.5" stroke="url(#paint12_linear_8985_201862)" shape-rendering="crispEdges"/>
<g filter="url(#filter14_i_8985_201862)">
<rect x="417.237" y="147" width="50" height="40" rx="8" fill="url(#paint13_linear_8985_201862)"/>
<g filter="url(#filter15_i_8985_201862)">
<path fill-rule="evenodd" clip-rule="evenodd" d="M448.519 170.623H451.196V163.643H448.519V170.623ZM448.239 161.457C448.239 161.926 448.395 162.295 448.706 162.563C449.017 162.83 449.403 162.964 449.861 162.964C450.32 162.964 450.705 162.83 451.016 162.563C451.327 162.295 451.483 161.926 451.483 161.457C451.483 160.977 451.327 160.602 451.016 160.335C450.705 160.067 450.32 159.933 449.861 159.933C449.403 159.933 449.017 160.067 448.706 160.335C448.395 160.602 448.239 160.977 448.239 161.457ZM447.428 170.4L447.424 168.651C447.078 168.779 446.752 168.877 446.447 168.944C446.143 169.012 445.831 169.045 445.512 169.045C445.203 169.045 444.914 169.005 444.645 168.923C444.376 168.843 444.142 168.723 443.942 168.565C443.741 168.406 443.582 168.207 443.463 167.967C443.346 167.728 443.286 167.45 443.286 167.133C443.286 166.52 443.475 166.047 443.853 165.717C444.231 165.387 444.72 165.221 445.321 165.221C445.694 165.221 446.045 165.27 446.372 165.368C446.7 165.465 446.996 165.589 447.26 165.737L447.264 163.864C446.927 163.742 446.918 163.73 446.495 163.638C446.075 163.546 445.594 163.532 445.075 163.532C444.402 163.532 443.785 163.618 443.225 163.789C442.665 163.962 442.183 164.206 441.778 164.523C441.373 164.84 441.059 165.221 440.836 165.666C440.613 166.112 440.501 166.603 440.501 167.143C440.501 167.689 440.606 168.185 440.815 168.631C441.024 169.076 441.329 169.452 441.73 169.764C442.13 170.074 442.619 170.313 443.197 170.482C443.776 170.65 444.434 170.734 445.171 170.734C445.69 170.734 446.154 170.696 446.563 170.618C446.973 170.54 447.007 170.522 447.428 170.4ZM439.979 166.03C439.979 165.228 439.646 164.629 438.98 164.235C438.314 163.84 437.398 163.643 436.231 163.643H433.11V170.623H435.774V168.529H436.192C436.757 168.529 437.273 168.477 437.739 168.372C438.205 168.268 438.603 168.111 438.934 167.902C439.265 167.693 439.522 167.432 439.705 167.118C439.888 166.804 439.979 166.441 439.979 166.03ZM455.473 169.289L434.979 175.733L429 159.476L450.516 158.267L455.473 169.289ZM437.419 166.061C437.419 166.391 437.302 166.634 437.067 166.789C436.831 166.944 436.492 167.022 436.048 167.022H435.748V165.15H436.075C436.971 165.15 437.419 165.454 437.419 166.061Z" fill="#FF5500"/>
</g>
</g>
</g>
<g filter="url(#filter16_d_8985_201862)">
<rect x="409.237" y="340" width="66" height="56" rx="14" fill="#FCFCFC" shape-rendering="crispEdges"/>
<rect x="409.737" y="340.5" width="65" height="55" rx="13.5" stroke="url(#paint14_linear_8985_201862)" shape-rendering="crispEdges"/>
<g filter="url(#filter17_i_8985_201862)">
<rect x="417.237" y="348" width="50" height="40" rx="8" fill="url(#paint15_linear_8985_201862)"/>
<g clip-path="url(#clip1_8985_201862)">
<path d="M427.673 372.368H425.884V365.481C425.884 365.481 425.884 364.169 427.196 363.751C428.388 363.364 429.164 364.139 429.164 364.139L435.037 370.489C435.335 370.668 435.454 370.489 435.454 370.31V363.751H437.273V370.579C437.273 371.145 436.796 371.891 436.08 372.159C435.365 372.427 434.62 372.427 433.725 371.652L428.21 365.689C428.061 365.54 427.673 365.51 427.673 365.809V372.368Z" fill="#6C6E6F"/>
<path d="M438.406 363.752H440.225V369.923C440.225 370.579 440.791 370.579 441.298 370.579H449.288C449.616 370.579 450.004 370.191 450.004 369.774C450.004 369.357 449.616 368.939 449.258 368.939H444.071C443.176 368.969 441.328 368.134 441.328 366.405C441.328 364.288 443.087 363.781 443.892 363.722H458.62V365.54H454.953V372.368H453.164V365.54H444.16C443.296 365.481 442.699 366.942 444.101 367.15H449.646C450.481 367.15 451.852 367.866 451.882 369.655C451.882 371.473 450.809 372.338 449.646 372.338H441.388C440.046 372.338 439.539 372.01 439.062 371.593C438.615 371.145 438.555 370.907 438.406 370.013V363.752Z" fill="#6C6E6F"/>
</g>
</g>
</g>
<g filter="url(#filter18_dd_8985_201862)">
<circle cx="90" cy="167" r="4" fill="white"/>
</g>
<circle cx="89.9998" cy="166.999" r="1.33333" fill="#6C6E6F"/>
<g filter="url(#filter19_dd_8985_201862)">
<circle cx="90" cy="369" r="4" fill="white"/>
</g>
<circle cx="89.9998" cy="368.999" r="1.33333" fill="#1C76FD"/>
<g filter="url(#filter20_dd_8985_201862)">
<circle cx="410" cy="167" r="4" fill="white"/>
</g>
<circle cx="410" cy="166.999" r="1.33333" fill="#FF5500"/>
<g filter="url(#filter21_dd_8985_201862)">
<circle cx="410" cy="369" r="4" fill="white"/>
</g>
<circle cx="410" cy="368.999" r="1.33333" fill="#6C6E6F"/>
<path fill-rule="evenodd" clip-rule="evenodd" d="M260.328 402.936C261.902 403.867 263.732 404.156 265.498 403.835C268.998 403.385 271.535 407.206 269.737 410.257C268.003 413.339 263.411 413.018 262.062 409.775C258.884 401.555 247.131 401.555 243.92 409.775C242.604 413.018 237.98 413.339 236.246 410.257C234.48 407.206 237.017 403.385 240.484 403.835C242.251 404.156 244.081 403.835 245.654 402.936C247.26 402.037 248.416 400.624 249.026 398.922C250.439 395.422 255.544 395.422 256.957 398.922C257.567 400.592 258.755 402.037 260.328 402.936ZM253.007 407.367C256.507 407.367 258.563 411.445 256.411 414.271C255.255 415.619 254.613 417.353 254.613 419.183C254.613 420.981 255.255 422.715 256.411 424.096C258.595 426.922 256.507 431.032 253.007 431C249.507 431 247.452 426.922 249.604 424.096C250.76 422.748 251.402 421.014 251.402 419.183C251.402 417.385 250.76 415.651 249.604 414.271C247.42 411.445 249.507 407.335 253.007 407.367Z" fill="#EBECEC"/>
<defs>
<filter id="filter0_d_8985_201862" x="187.732" y="204.208" width="130.544" height="130.552" filterUnits="userSpaceOnUse" color-interpolation-filters="sRGB">
<feFlood flood-opacity="0" result="BackgroundImageFix"/>
<feColorMatrix in="SourceAlpha" type="matrix" values="0 0 0 0 0 0 0 0 0 0 0 0 0 0 0 0 0 0 127 0" result="hardAlpha"/>
<feOffset dy="1.48354"/>
<feGaussianBlur stdDeviation="2.22531"/>
<feComposite in2="hardAlpha" operator="out"/>
<feColorMatrix type="matrix" values="0 0 0 0 0 0 0 0 0 0 0 0 0 0 0 0 0 0 0.25 0"/>
<feBlend mode="normal" in2="BackgroundImageFix" result="effect1_dropShadow_8985_201862"/>
<feBlend mode="normal" in="SourceGraphic" in2="effect1_dropShadow_8985_201862" result="shape"/>
</filter>
<filter id="filter1_ii_8985_201862" x="241" y="258" width="23" height="27" filterUnits="userSpaceOnUse" color-interpolation-filters="sRGB">
<feFlood flood-opacity="0" result="BackgroundImageFix"/>
<feBlend mode="normal" in="SourceGraphic" in2="BackgroundImageFix" result="shape"/>
<feColorMatrix in="SourceAlpha" type="matrix" values="0 0 0 0 0 0 0 0 0 0 0 0 0 0 0 0 0 0 127 0" result="hardAlpha"/>
<feOffset dy="1"/>
<feGaussianBlur stdDeviation="0.5"/>
<feComposite in2="hardAlpha" operator="arithmetic" k2="-1" k3="1"/>
<feColorMatrix type="matrix" values="0 0 0 0 0 0 0 0 0 0 0 0 0 0 0 0 0 0 0.6 0"/>
<feBlend mode="normal" in2="shape" result="effect1_innerShadow_8985_201862"/>
<feColorMatrix in="SourceAlpha" type="matrix" values="0 0 0 0 0 0 0 0 0 0 0 0 0 0 0 0 0 0 127 0" result="hardAlpha"/>
<feOffset dy="3"/>
<feGaussianBlur stdDeviation="2"/>
<feComposite in2="hardAlpha" operator="arithmetic" k2="-1" k3="1"/>
<feColorMatrix type="matrix" values="0 0 0 0 0 0 0 0 0 0 0 0 0 0 0 0 0 0 0.4 0"/>
<feBlend mode="normal" in2="effect1_innerShadow_8985_201862" result="effect2_innerShadow_8985_201862"/>
</filter>
<filter id="filter2_dd_8985_201862" x="168.419" y="259.612" width="21.1629" height="21.1629" filterUnits="userSpaceOnUse" color-interpolation-filters="sRGB">
<feFlood flood-opacity="0" result="BackgroundImageFix"/>
<feColorMatrix in="SourceAlpha" type="matrix" values="0 0 0 0 0 0 0 0 0 0 0 0 0 0 0 0 0 0 127 0" result="hardAlpha"/>
<feOffset dy="0.219382"/>
<feGaussianBlur stdDeviation="0.274228"/>
<feComposite in2="hardAlpha" operator="out"/>
<feColorMatrix type="matrix" values="0 0 0 0 0 0 0 0 0 0 0 0 0 0 0 0 0 0 0.5 0"/>
<feBlend mode="normal" in2="BackgroundImageFix" result="effect1_dropShadow_8985_201862"/>
<feColorMatrix in="SourceAlpha" type="matrix" values="0 0 0 0 0 0 0 0 0 0 0 0 0 0 0 0 0 0 127 0" result="hardAlpha"/>
<feOffset dy="2.19382"/>
<feGaussianBlur stdDeviation="3.29074"/>
<feComposite in2="hardAlpha" operator="out"/>
<feColorMatrix type="matrix" values="0 0 0 0 0 0 0 0 0 0 0 0 0 0 0 0 0 0 0.12 0"/>
<feBlend mode="normal" in2="effect1_dropShadow_8985_201862" result="effect2_dropShadow_8985_201862"/>
<feBlend mode="normal" in="SourceGraphic" in2="effect2_dropShadow_8985_201862" result="shape"/>
</filter>
<filter id="filter3_dd_8985_201862" x="317.974" y="259.612" width="21.1629" height="21.1629" filterUnits="userSpaceOnUse" color-interpolation-filters="sRGB">
<feFlood flood-opacity="0" result="BackgroundImageFix"/>
<feColorMatrix in="SourceAlpha" type="matrix" values="0 0 0 0 0 0 0 0 0 0 0 0 0 0 0 0 0 0 127 0" result="hardAlpha"/>
<feOffset dy="0.219382"/>
<feGaussianBlur stdDeviation="0.274228"/>
<feComposite in2="hardAlpha" operator="out"/>
<feColorMatrix type="matrix" values="0 0 0 0 0 0 0 0 0 0 0 0 0 0 0 0 0 0 0.5 0"/>
<feBlend mode="normal" in2="BackgroundImageFix" result="effect1_dropShadow_8985_201862"/>
<feColorMatrix in="SourceAlpha" type="matrix" values="0 0 0 0 0 0 0 0 0 0 0 0 0 0 0 0 0 0 127 0" result="hardAlpha"/>
<feOffset dy="2.19382"/>
<feGaussianBlur stdDeviation="3.29074"/>
<feComposite in2="hardAlpha" operator="out"/>
<feColorMatrix type="matrix" values="0 0 0 0 0 0 0 0 0 0 0 0 0 0 0 0 0 0 0.12 0"/>
<feBlend mode="normal" in2="effect1_dropShadow_8985_201862" result="effect2_dropShadow_8985_201862"/>
<feBlend mode="normal" in="SourceGraphic" in2="effect2_dropShadow_8985_201862" result="shape"/>
</filter>
<filter id="filter4_d_8985_201862" x="17.1236" y="336.4" width="79.2" height="69.2" filterUnits="userSpaceOnUse" color-interpolation-filters="sRGB">
<feFlood flood-opacity="0" result="BackgroundImageFix"/>
<feColorMatrix in="SourceAlpha" type="matrix" values="0 0 0 0 0 0 0 0 0 0 0 0 0 0 0 0 0 0 127 0" result="hardAlpha"/>
<feOffset dy="3"/>
<feGaussianBlur stdDeviation="3.3"/>
<feComposite in2="hardAlpha" operator="out"/>
<feColorMatrix type="matrix" values="0 0 0 0 0 0 0 0 0 0 0 0 0 0 0 0 0 0 0.06 0"/>
<feBlend mode="normal" in2="BackgroundImageFix" result="effect1_dropShadow_8985_201862"/>
<feBlend mode="normal" in="SourceGraphic" in2="effect1_dropShadow_8985_201862" result="shape"/>
</filter>
<filter id="filter5_i_8985_201862" x="31.7236" y="348" width="50" height="40" filterUnits="userSpaceOnUse" color-interpolation-filters="sRGB">
<feFlood flood-opacity="0" result="BackgroundImageFix"/>
<feBlend mode="normal" in="SourceGraphic" in2="BackgroundImageFix" result="shape"/>
<feColorMatrix in="SourceAlpha" type="matrix" values="0 0 0 0 0 0 0 0 0 0 0 0 0 0 0 0 0 0 127 0" result="hardAlpha"/>
<feOffset/>
<feGaussianBlur stdDeviation="2"/>
<feComposite in2="hardAlpha" operator="arithmetic" k2="-1" k3="1"/>
<feColorMatrix type="matrix" values="0 0 0 0 0 0 0 0 0 0 0 0 0 0 0 0 0 0 0.2 0"/>
<feBlend mode="normal" in2="shape" result="effect1_innerShadow_8985_201862"/>
</filter>
<filter id="filter6_ii_8985_201862" x="55.5585" y="358.558" width="8.81641" height="9.94513" filterUnits="userSpaceOnUse" color-interpolation-filters="sRGB">
<feFlood flood-opacity="0" result="BackgroundImageFix"/>
<feBlend mode="normal" in="SourceGraphic" in2="BackgroundImageFix" result="shape"/>
<feColorMatrix in="SourceAlpha" type="matrix" values="0 0 0 0 0 0 0 0 0 0 0 0 0 0 0 0 0 0 127 0" result="hardAlpha"/>
<feOffset dy="0.561341"/>
<feGaussianBlur stdDeviation="0.28067"/>
<feComposite in2="hardAlpha" operator="arithmetic" k2="-1" k3="1"/>
<feColorMatrix type="matrix" values="0 0 0 0 0.0235294 0 0 0 0 0.0941176 0 0 0 0 0.2 0 0 0 0.35 0"/>
<feBlend mode="normal" in2="shape" result="effect1_innerShadow_8985_201862"/>
<feColorMatrix in="SourceAlpha" type="matrix" values="0 0 0 0 0 0 0 0 0 0 0 0 0 0 0 0 0 0 127 0" result="hardAlpha"/>
<feOffset dy="1.68402"/>
<feGaussianBlur stdDeviation="1.12268"/>
<feComposite in2="hardAlpha" operator="arithmetic" k2="-1" k3="1"/>
<feColorMatrix type="matrix" values="0 0 0 0 0.0235294 0 0 0 0 0.0941176 0 0 0 0 0.2 0 0 0 0.25 0"/>
<feBlend mode="normal" in2="effect1_innerShadow_8985_201862" result="effect2_innerShadow_8985_201862"/>
</filter>
<filter id="filter7_ii_8985_201862" x="47.6615" y="359.873" width="7.38306" height="10.303" filterUnits="userSpaceOnUse" color-interpolation-filters="sRGB">
<feFlood flood-opacity="0" result="BackgroundImageFix"/>
<feBlend mode="normal" in="SourceGraphic" in2="BackgroundImageFix" result="shape"/>
<feColorMatrix in="SourceAlpha" type="matrix" values="0 0 0 0 0 0 0 0 0 0 0 0 0 0 0 0 0 0 127 0" result="hardAlpha"/>
<feOffset dy="0.561341"/>
<feGaussianBlur stdDeviation="0.28067"/>
<feComposite in2="hardAlpha" operator="arithmetic" k2="-1" k3="1"/>
<feColorMatrix type="matrix" values="0 0 0 0 0.0235294 0 0 0 0 0.0941176 0 0 0 0 0.2 0 0 0 0.35 0"/>
<feBlend mode="normal" in2="shape" result="effect1_innerShadow_8985_201862"/>
<feColorMatrix in="SourceAlpha" type="matrix" values="0 0 0 0 0 0 0 0 0 0 0 0 0 0 0 0 0 0 127 0" result="hardAlpha"/>
<feOffset dy="1.68402"/>
<feGaussianBlur stdDeviation="1.12268"/>
<feComposite in2="hardAlpha" operator="arithmetic" k2="-1" k3="1"/>
<feColorMatrix type="matrix" values="0 0 0 0 0.0235294 0 0 0 0 0.0941176 0 0 0 0 0.2 0 0 0 0.25 0"/>
<feBlend mode="normal" in2="effect1_innerShadow_8985_201862" result="effect2_innerShadow_8985_201862"/>
</filter>
<filter id="filter8_ii_8985_201862" x="48.3365" y="367.215" width="8.61084" height="10.5524" filterUnits="userSpaceOnUse" color-interpolation-filters="sRGB">
<feFlood flood-opacity="0" result="BackgroundImageFix"/>
<feBlend mode="normal" in="SourceGraphic" in2="BackgroundImageFix" result="shape"/>
<feColorMatrix in="SourceAlpha" type="matrix" values="0 0 0 0 0 0 0 0 0 0 0 0 0 0 0 0 0 0 127 0" result="hardAlpha"/>
<feOffset dy="0.561341"/>
<feGaussianBlur stdDeviation="0.28067"/>
<feComposite in2="hardAlpha" operator="arithmetic" k2="-1" k3="1"/>
<feColorMatrix type="matrix" values="0 0 0 0 0.0235294 0 0 0 0 0.0941176 0 0 0 0 0.2 0 0 0 0.35 0"/>
<feBlend mode="normal" in2="shape" result="effect1_innerShadow_8985_201862"/>
<feColorMatrix in="SourceAlpha" type="matrix" values="0 0 0 0 0 0 0 0 0 0 0 0 0 0 0 0 0 0 127 0" result="hardAlpha"/>
<feOffset dy="1.68402"/>
<feGaussianBlur stdDeviation="1.12268"/>
<feComposite in2="hardAlpha" operator="arithmetic" k2="-1" k3="1"/>
<feColorMatrix type="matrix" values="0 0 0 0 0.0235294 0 0 0 0 0.0941176 0 0 0 0 0.2 0 0 0 0.25 0"/>
<feBlend mode="normal" in2="effect1_innerShadow_8985_201862" result="effect2_innerShadow_8985_201862"/>
</filter>
<filter id="filter9_ii_8985_201862" x="53.3291" y="368.767" width="9.82288" height="9.00037" filterUnits="userSpaceOnUse" color-interpolation-filters="sRGB">
<feFlood flood-opacity="0" result="BackgroundImageFix"/>
<feBlend mode="normal" in="SourceGraphic" in2="BackgroundImageFix" result="shape"/>
<feColorMatrix in="SourceAlpha" type="matrix" values="0 0 0 0 0 0 0 0 0 0 0 0 0 0 0 0 0 0 127 0" result="hardAlpha"/>
<feOffset dy="0.561341"/>
<feGaussianBlur stdDeviation="0.28067"/>
<feComposite in2="hardAlpha" operator="arithmetic" k2="-1" k3="1"/>
<feColorMatrix type="matrix" values="0 0 0 0 0.0235294 0 0 0 0 0.0941176 0 0 0 0 0.2 0 0 0 0.35 0"/>
<feBlend mode="normal" in2="shape" result="effect1_innerShadow_8985_201862"/>
<feColorMatrix in="SourceAlpha" type="matrix" values="0 0 0 0 0 0 0 0 0 0 0 0 0 0 0 0 0 0 127 0" result="hardAlpha"/>
<feOffset dy="1.68402"/>
<feGaussianBlur stdDeviation="1.12268"/>
<feComposite in2="hardAlpha" operator="arithmetic" k2="-1" k3="1"/>
<feColorMatrix type="matrix" values="0 0 0 0 0.0235294 0 0 0 0 0.0941176 0 0 0 0 0.2 0 0 0 0.25 0"/>
<feBlend mode="normal" in2="effect1_innerShadow_8985_201862" result="effect2_innerShadow_8985_201862"/>
</filter>
<filter id="filter10_ii_8985_201862" x="57.8228" y="364.232" width="8.43042" height="11.442" filterUnits="userSpaceOnUse" color-interpolation-filters="sRGB">
<feFlood flood-opacity="0" result="BackgroundImageFix"/>
<feBlend mode="normal" in="SourceGraphic" in2="BackgroundImageFix" result="shape"/>
<feColorMatrix in="SourceAlpha" type="matrix" values="0 0 0 0 0 0 0 0 0 0 0 0 0 0 0 0 0 0 127 0" result="hardAlpha"/>
<feOffset dy="0.561341"/>
<feGaussianBlur stdDeviation="0.28067"/>
<feComposite in2="hardAlpha" operator="arithmetic" k2="-1" k3="1"/>
<feColorMatrix type="matrix" values="0 0 0 0 0.0235294 0 0 0 0 0.0941176 0 0 0 0 0.2 0 0 0 0.35 0"/>
<feBlend mode="normal" in2="shape" result="effect1_innerShadow_8985_201862"/>
<feColorMatrix in="SourceAlpha" type="matrix" values="0 0 0 0 0 0 0 0 0 0 0 0 0 0 0 0 0 0 127 0" result="hardAlpha"/>
<feOffset dy="1.68402"/>
<feGaussianBlur stdDeviation="1.12268"/>
<feComposite in2="hardAlpha" operator="arithmetic" k2="-1" k3="1"/>
<feColorMatrix type="matrix" values="0 0 0 0 0.0235294 0 0 0 0 0.0941176 0 0 0 0 0.2 0 0 0 0.25 0"/>
<feBlend mode="normal" in2="effect1_innerShadow_8985_201862" result="effect2_innerShadow_8985_201862"/>
</filter>
<filter id="filter11_d_8985_201862" x="17.4" y="135.4" width="79.2" height="69.2" filterUnits="userSpaceOnUse" color-interpolation-filters="sRGB">
<feFlood flood-opacity="0" result="BackgroundImageFix"/>
<feColorMatrix in="SourceAlpha" type="matrix" values="0 0 0 0 0 0 0 0 0 0 0 0 0 0 0 0 0 0 127 0" result="hardAlpha"/>
<feOffset dy="3"/>
<feGaussianBlur stdDeviation="3.3"/>
<feComposite in2="hardAlpha" operator="out"/>
<feColorMatrix type="matrix" values="0 0 0 0 0 0 0 0 0 0 0 0 0 0 0 0 0 0 0.06 0"/>
<feBlend mode="normal" in2="BackgroundImageFix" result="effect1_dropShadow_8985_201862"/>
<feBlend mode="normal" in="SourceGraphic" in2="effect1_dropShadow_8985_201862" result="shape"/>
</filter>
<filter id="filter12_i_8985_201862" x="32" y="147" width="50" height="40" filterUnits="userSpaceOnUse" color-interpolation-filters="sRGB">
<feFlood flood-opacity="0" result="BackgroundImageFix"/>
<feBlend mode="normal" in="SourceGraphic" in2="BackgroundImageFix" result="shape"/>
<feColorMatrix in="SourceAlpha" type="matrix" values="0 0 0 0 0 0 0 0 0 0 0 0 0 0 0 0 0 0 127 0" result="hardAlpha"/>
<feOffset/>
<feGaussianBlur stdDeviation="2"/>
<feComposite in2="hardAlpha" operator="arithmetic" k2="-1" k3="1"/>
<feColorMatrix type="matrix" values="0 0 0 0 0 0 0 0 0 0 0 0 0 0 0 0 0 0 0.2 0"/>
<feBlend mode="normal" in2="shape" result="effect1_innerShadow_8985_201862"/>
</filter>
<filter id="filter13_d_8985_201862" x="402.637" y="135.4" width="79.2" height="69.2" filterUnits="userSpaceOnUse" color-interpolation-filters="sRGB">
<feFlood flood-opacity="0" result="BackgroundImageFix"/>
<feColorMatrix in="SourceAlpha" type="matrix" values="0 0 0 0 0 0 0 0 0 0 0 0 0 0 0 0 0 0 127 0" result="hardAlpha"/>
<feOffset dy="3"/>
<feGaussianBlur stdDeviation="3.3"/>
<feComposite in2="hardAlpha" operator="out"/>
<feColorMatrix type="matrix" values="0 0 0 0 0 0 0 0 0 0 0 0 0 0 0 0 0 0 0.06 0"/>
<feBlend mode="normal" in2="BackgroundImageFix" result="effect1_dropShadow_8985_201862"/>
<feBlend mode="normal" in="SourceGraphic" in2="effect1_dropShadow_8985_201862" result="shape"/>
</filter>
<filter id="filter14_i_8985_201862" x="417.237" y="147" width="50" height="40" filterUnits="userSpaceOnUse" color-interpolation-filters="sRGB">
<feFlood flood-opacity="0" result="BackgroundImageFix"/>
<feBlend mode="normal" in="SourceGraphic" in2="BackgroundImageFix" result="shape"/>
<feColorMatrix in="SourceAlpha" type="matrix" values="0 0 0 0 0 0 0 0 0 0 0 0 0 0 0 0 0 0 127 0" result="hardAlpha"/>
<feOffset/>
<feGaussianBlur stdDeviation="2"/>
<feComposite in2="hardAlpha" operator="arithmetic" k2="-1" k3="1"/>
<feColorMatrix type="matrix" values="0 0 0 0 0 0 0 0 0 0 0 0 0 0 0 0 0 0 0.2 0"/>
<feBlend mode="normal" in2="shape" result="effect1_innerShadow_8985_201862"/>
</filter>
<filter id="filter15_i_8985_201862" x="429" y="158.267" width="26.4733" height="20.326" filterUnits="userSpaceOnUse" color-interpolation-filters="sRGB">
<feFlood flood-opacity="0" result="BackgroundImageFix"/>
<feBlend mode="normal" in="SourceGraphic" in2="BackgroundImageFix" result="shape"/>
<feColorMatrix in="SourceAlpha" type="matrix" values="0 0 0 0 0 0 0 0 0 0 0 0 0 0 0 0 0 0 127 0" result="hardAlpha"/>
<feOffset dy="2.85999"/>
<feGaussianBlur stdDeviation="2.09821"/>
<feComposite in2="hardAlpha" operator="arithmetic" k2="-1" k3="1"/>
<feColorMatrix type="matrix" values="0 0 0 0 0.6 0 0 0 0 0.2 0 0 0 0 0 0 0 0 0.8 0"/>
<feBlend mode="normal" in2="shape" result="effect1_innerShadow_8985_201862"/>
</filter>
<filter id="filter16_d_8985_201862" x="402.637" y="336.4" width="79.2" height="69.2" filterUnits="userSpaceOnUse" color-interpolation-filters="sRGB">
<feFlood flood-opacity="0" result="BackgroundImageFix"/>
<feColorMatrix in="SourceAlpha" type="matrix" values="0 0 0 0 0 0 0 0 0 0 0 0 0 0 0 0 0 0 127 0" result="hardAlpha"/>
<feOffset dy="3"/>
<feGaussianBlur stdDeviation="3.3"/>
<feComposite in2="hardAlpha" operator="out"/>
<feColorMatrix type="matrix" values="0 0 0 0 0 0 0 0 0 0 0 0 0 0 0 0 0 0 0.06 0"/>
<feBlend mode="normal" in2="BackgroundImageFix" result="effect1_dropShadow_8985_201862"/>
<feBlend mode="normal" in="SourceGraphic" in2="effect1_dropShadow_8985_201862" result="shape"/>
</filter>
<filter id="filter17_i_8985_201862" x="417.237" y="348" width="50" height="40" filterUnits="userSpaceOnUse" color-interpolation-filters="sRGB">
<feFlood flood-opacity="0" result="BackgroundImageFix"/>
<feBlend mode="normal" in="SourceGraphic" in2="BackgroundImageFix" result="shape"/>
<feColorMatrix in="SourceAlpha" type="matrix" values="0 0 0 0 0 0 0 0 0 0 0 0 0 0 0 0 0 0 127 0" result="hardAlpha"/>
<feOffset/>
<feGaussianBlur stdDeviation="2"/>
<feComposite in2="hardAlpha" operator="arithmetic" k2="-1" k3="1"/>
<feColorMatrix type="matrix" values="0 0 0 0 0 0 0 0 0 0 0 0 0 0 0 0 0 0 0.2 0"/>
<feBlend mode="normal" in2="shape" result="effect1_innerShadow_8985_201862"/>
</filter>
<filter id="filter18_dd_8985_201862" x="79.4185" y="158.612" width="21.1629" height="21.1629" filterUnits="userSpaceOnUse" color-interpolation-filters="sRGB">
<feFlood flood-opacity="0" result="BackgroundImageFix"/>
<feColorMatrix in="SourceAlpha" type="matrix" values="0 0 0 0 0 0 0 0 0 0 0 0 0 0 0 0 0 0 127 0" result="hardAlpha"/>
<feOffset dy="0.219382"/>
<feGaussianBlur stdDeviation="0.274228"/>
<feComposite in2="hardAlpha" operator="out"/>
<feColorMatrix type="matrix" values="0 0 0 0 0 0 0 0 0 0 0 0 0 0 0 0 0 0 0.5 0"/>
<feBlend mode="normal" in2="BackgroundImageFix" result="effect1_dropShadow_8985_201862"/>
<feColorMatrix in="SourceAlpha" type="matrix" values="0 0 0 0 0 0 0 0 0 0 0 0 0 0 0 0 0 0 127 0" result="hardAlpha"/>
<feOffset dy="2.19382"/>
<feGaussianBlur stdDeviation="3.29074"/>
<feComposite in2="hardAlpha" operator="out"/>
<feColorMatrix type="matrix" values="0 0 0 0 0 0 0 0 0 0 0 0 0 0 0 0 0 0 0.12 0"/>
<feBlend mode="normal" in2="effect1_dropShadow_8985_201862" result="effect2_dropShadow_8985_201862"/>
<feBlend mode="normal" in="SourceGraphic" in2="effect2_dropShadow_8985_201862" result="shape"/>
</filter>
<filter id="filter19_dd_8985_201862" x="79.4185" y="360.612" width="21.1629" height="21.1629" filterUnits="userSpaceOnUse" color-interpolation-filters="sRGB">
<feFlood flood-opacity="0" result="BackgroundImageFix"/>
<feColorMatrix in="SourceAlpha" type="matrix" values="0 0 0 0 0 0 0 0 0 0 0 0 0 0 0 0 0 0 127 0" result="hardAlpha"/>
<feOffset dy="0.219382"/>
<feGaussianBlur stdDeviation="0.274228"/>
<feComposite in2="hardAlpha" operator="out"/>
<feColorMatrix type="matrix" values="0 0 0 0 0 0 0 0 0 0 0 0 0 0 0 0 0 0 0.5 0"/>
<feBlend mode="normal" in2="BackgroundImageFix" result="effect1_dropShadow_8985_201862"/>
<feColorMatrix in="SourceAlpha" type="matrix" values="0 0 0 0 0 0 0 0 0 0 0 0 0 0 0 0 0 0 127 0" result="hardAlpha"/>
<feOffset dy="2.19382"/>
<feGaussianBlur stdDeviation="3.29074"/>
<feComposite in2="hardAlpha" operator="out"/>
<feColorMatrix type="matrix" values="0 0 0 0 0 0 0 0 0 0 0 0 0 0 0 0 0 0 0.12 0"/>
<feBlend mode="normal" in2="effect1_dropShadow_8985_201862" result="effect2_dropShadow_8985_201862"/>
<feBlend mode="normal" in="SourceGraphic" in2="effect2_dropShadow_8985_201862" result="shape"/>
</filter>
<filter id="filter20_dd_8985_201862" x="399.419" y="158.612" width="21.1629" height="21.1629" filterUnits="userSpaceOnUse" color-interpolation-filters="sRGB">
<feFlood flood-opacity="0" result="BackgroundImageFix"/>
<feColorMatrix in="SourceAlpha" type="matrix" values="0 0 0 0 0 0 0 0 0 0 0 0 0 0 0 0 0 0 127 0" result="hardAlpha"/>
<feOffset dy="0.219382"/>
<feGaussianBlur stdDeviation="0.274228"/>
<feComposite in2="hardAlpha" operator="out"/>
<feColorMatrix type="matrix" values="0 0 0 0 0 0 0 0 0 0 0 0 0 0 0 0 0 0 0.5 0"/>
<feBlend mode="normal" in2="BackgroundImageFix" result="effect1_dropShadow_8985_201862"/>
<feColorMatrix in="SourceAlpha" type="matrix" values="0 0 0 0 0 0 0 0 0 0 0 0 0 0 0 0 0 0 127 0" result="hardAlpha"/>
<feOffset dy="2.19382"/>
<feGaussianBlur stdDeviation="3.29074"/>
<feComposite in2="hardAlpha" operator="out"/>
<feColorMatrix type="matrix" values="0 0 0 0 0 0 0 0 0 0 0 0 0 0 0 0 0 0 0.12 0"/>
<feBlend mode="normal" in2="effect1_dropShadow_8985_201862" result="effect2_dropShadow_8985_201862"/>
<feBlend mode="normal" in="SourceGraphic" in2="effect2_dropShadow_8985_201862" result="shape"/>
</filter>
<filter id="filter21_dd_8985_201862" x="399.419" y="360.612" width="21.1629" height="21.1629" filterUnits="userSpaceOnUse" color-interpolation-filters="sRGB">
<feFlood flood-opacity="0" result="BackgroundImageFix"/>
<feColorMatrix in="SourceAlpha" type="matrix" values="0 0 0 0 0 0 0 0 0 0 0 0 0 0 0 0 0 0 127 0" result="hardAlpha"/>
<feOffset dy="0.219382"/>
<feGaussianBlur stdDeviation="0.274228"/>
<feComposite in2="hardAlpha" operator="out"/>
<feColorMatrix type="matrix" values="0 0 0 0 0 0 0 0 0 0 0 0 0 0 0 0 0 0 0.5 0"/>
<feBlend mode="normal" in2="BackgroundImageFix" result="effect1_dropShadow_8985_201862"/>
<feColorMatrix in="SourceAlpha" type="matrix" values="0 0 0 0 0 0 0 0 0 0 0 0 0 0 0 0 0 0 127 0" result="hardAlpha"/>
<feOffset dy="2.19382"/>
<feGaussianBlur stdDeviation="3.29074"/>
<feComposite in2="hardAlpha" operator="out"/>
<feColorMatrix type="matrix" values="0 0 0 0 0 0 0 0 0 0 0 0 0 0 0 0 0 0 0.12 0"/>
<feBlend mode="normal" in2="effect1_dropShadow_8985_201862" result="effect2_dropShadow_8985_201862"/>
<feBlend mode="normal" in="SourceGraphic" in2="effect2_dropShadow_8985_201862" result="shape"/>
</filter>
<radialGradient id="paint0_radial_8985_201862" cx="0" cy="0" r="1" gradientUnits="userSpaceOnUse" gradientTransform="translate(228.025 408.382) rotate(-90) scale(344.369 507.425)">
<stop stop-color="white"/>
<stop offset="1" stop-color="#F5F6F7" stop-opacity="0.1"/>
</radialGradient>
<linearGradient id="paint1_linear_8985_201862" x1="3.39233" y1="267.75" x2="120" y2="267.75" gradientUnits="userSpaceOnUse">
<stop stop-color="#E2E2E2" stop-opacity="0"/>
<stop offset="1" stop-color="#E2E2E2"/>
</linearGradient>
<linearGradient id="paint2_linear_8985_201862" x1="126" y1="318.5" x2="-9.49976" y2="318.5" gradientUnits="userSpaceOnUse">
<stop stop-color="#1C76FD"/>
<stop offset="1" stop-color="#1C76FD" stop-opacity="0"/>
</linearGradient>
<linearGradient id="paint3_linear_8985_201862" x1="493.827" y1="268.75" x2="384.382" y2="268.75" gradientUnits="userSpaceOnUse">
<stop stop-color="#E2E2E2" stop-opacity="0"/>
<stop offset="1" stop-color="#E2E2E2"/>
</linearGradient>
<linearGradient id="paint4_linear_8985_201862" x1="329.556" y1="217.5" x2="511.51" y2="217.5" gradientUnits="userSpaceOnUse">
<stop stop-color="#FF5500"/>
<stop offset="1" stop-color="#FF5500" stop-opacity="0"/>
</linearGradient>
<linearGradient id="paint5_linear_8985_201862" x1="253.004" y1="207.175" x2="253.004" y2="328.825" gradientUnits="userSpaceOnUse">
<stop stop-color="#FFFDFB"/>
<stop offset="1" stop-color="#F4F5F6"/>
</linearGradient>
<linearGradient id="paint6_linear_8985_201862" x1="253" y1="237.734" x2="253" y2="293.464" gradientUnits="userSpaceOnUse">
<stop stop-color="#E3E3E3"/>
<stop offset="1" stop-color="white"/>
</linearGradient>
<linearGradient id="paint7_linear_8985_201862" x1="253" y1="237.734" x2="253" y2="307.168" gradientUnits="userSpaceOnUse">
<stop stop-color="#ECECF0"/>
<stop offset="0.51" stop-color="white"/>
<stop offset="1" stop-color="#ECECEC"/>
</linearGradient>
<linearGradient id="paint8_linear_8985_201862" x1="56.7236" y1="396" x2="56.7236" y2="340" gradientUnits="userSpaceOnUse">
<stop stop-color="#E2E2E2"/>
<stop offset="1" stop-color="#E2E2E2"/>
</linearGradient>
<linearGradient id="paint9_linear_8985_201862" x1="31.7236" y1="368" x2="81.7236" y2="368" gradientUnits="userSpaceOnUse">
<stop stop-color="#E5E8EF" stop-opacity="0"/>
<stop offset="1" stop-color="#F5F5F5"/>
</linearGradient>
<linearGradient id="paint10_linear_8985_201862" x1="57" y1="195" x2="57" y2="139" gradientUnits="userSpaceOnUse">
<stop stop-color="#E2E2E2"/>
<stop offset="1" stop-color="#E2E2E2"/>
</linearGradient>
<linearGradient id="paint11_linear_8985_201862" x1="32" y1="167" x2="82" y2="167" gradientUnits="userSpaceOnUse">
<stop stop-color="#E5E8EF" stop-opacity="0"/>
<stop offset="1" stop-color="#F5F5F5"/>
</linearGradient>
<linearGradient id="paint12_linear_8985_201862" x1="442.237" y1="195" x2="442.237" y2="139" gradientUnits="userSpaceOnUse">
<stop stop-color="#E2E2E2"/>
<stop offset="1" stop-color="#E2E2E2"/>
</linearGradient>
<linearGradient id="paint13_linear_8985_201862" x1="417.237" y1="167" x2="467.237" y2="167" gradientUnits="userSpaceOnUse">
<stop stop-color="#E5E8EF" stop-opacity="0"/>
<stop offset="1" stop-color="#F5F5F5"/>
</linearGradient>
<linearGradient id="paint14_linear_8985_201862" x1="442.237" y1="396" x2="442.237" y2="340" gradientUnits="userSpaceOnUse">
<stop stop-color="#E2E2E2"/>
<stop offset="1" stop-color="#E2E2E2"/>
</linearGradient>
<linearGradient id="paint15_linear_8985_201862" x1="417.237" y1="368" x2="467.237" y2="368" gradientUnits="userSpaceOnUse">
<stop stop-color="#E5E8EF" stop-opacity="0"/>
<stop offset="1" stop-color="#F5F5F5"/>
</linearGradient>
<clipPath id="clip0_8985_201862">
<rect width="19.334" height="19.334" fill="white" transform="translate(47.0566 358.333)"/>
</clipPath>
<clipPath id="clip1_8985_201862">
<rect width="32.7059" height="8.73547" fill="white" transform="translate(425.884 363.632)"/>
</clipPath>
</defs>
</svg>
