<svg width="335" height="276" viewBox="0 0 335 276" fill="none" xmlns="http://www.w3.org/2000/svg">
<g clip-path="url(#clip0_10672_172096)">
<rect y="0.523132" width="335" height="275" rx="10" fill="url(#paint0_linear_10672_172096)"/>
<mask id="mask0_10672_172096" style="mask-type:alpha" maskUnits="userSpaceOnUse" x="-18" y="-17" width="394" height="306">
<path d="M375.625 288.445L324.668 288.445L-14.0118 288.445L-17.5 -16.9349L375.625 -16.9349L375.625 288.445Z" fill="url(#paint1_radial_10672_172096)"/>
</mask>
<g mask="url(#mask0_10672_172096)">
<path d="M7.32812 -67.7946V353.226" stroke="#181E22" stroke-width="0.355592"/>
<path d="M39.3301 -67.7946V353.226" stroke="#181E22" stroke-width="0.355592"/>
<path d="M71.334 -67.7946V353.226" stroke="#181E22" stroke-width="0.355592"/>
<path d="M103.338 -67.7946V353.226" stroke="#181E22" stroke-width="0.355592"/>
<path d="M135.34 -67.7946V353.226" stroke="#181E22" stroke-width="0.355592"/>
<path d="M167.344 -67.7946V353.226" stroke="#181E22" stroke-width="0.355592"/>
<path d="M199.348 -67.7946V353.226" stroke="#181E22" stroke-width="0.355592"/>
<path d="M231.35 -67.7946V353.226" stroke="#181E22" stroke-width="0.355592"/>
<path d="M263.354 -67.7946V353.226" stroke="#181E22" stroke-width="0.355592"/>
<path d="M295.357 -67.7946V353.226" stroke="#181E22" stroke-width="0.355592"/>
<path d="M327.359 -67.7946V353.226" stroke="#181E22" stroke-width="0.355592"/>
</g>
</g>
<rect x="0.3125" y="0.835632" width="334.375" height="274.375" rx="9.6875" stroke="url(#paint2_linear_10672_172096)" stroke-opacity="0.47" stroke-width="0.625"/>
<path d="M111.875 98.6495C112.048 98.6495 112.187 98.5096 112.187 98.337C112.187 98.1644 112.048 98.0245 111.875 98.0245V98.6495ZM77.904 146.644C78.0261 146.766 78.2239 146.766 78.346 146.644L80.3347 144.655C80.4567 144.533 80.4567 144.335 80.3347 144.213C80.2127 144.091 80.0148 144.091 79.8928 144.213L78.125 145.981L76.3572 144.213C76.2352 144.091 76.0373 144.091 75.9153 144.213C75.7933 144.335 75.7933 144.533 75.9153 144.655L77.904 146.644ZM111.875 98.337V98.0245H83.125V98.337V98.6495H111.875V98.337ZM78.125 103.337H77.8125V146.423H78.125H78.4375V103.337H78.125ZM83.125 98.337V98.0245C80.191 98.0245 77.8125 100.403 77.8125 103.337H78.125H78.4375C78.4375 100.748 80.5362 98.6495 83.125 98.6495V98.337Z" fill="#3B3D3F"/>
<path d="M223.125 98.6105C222.952 98.6105 222.813 98.4706 222.813 98.298C222.813 98.1254 222.952 97.9855 223.125 97.9855V98.6105ZM257.096 146.644C256.974 146.766 256.776 146.766 256.654 146.644L254.665 144.655C254.543 144.533 254.543 144.335 254.665 144.213C254.787 144.091 254.985 144.091 255.107 144.213L256.875 145.981L258.643 144.213C258.765 144.091 258.963 144.091 259.085 144.213C259.207 144.335 259.207 144.533 259.085 144.655L257.096 146.644ZM223.125 98.298V97.9855H251.875V98.298V98.6105H223.125V98.298ZM256.875 103.298H257.187V146.423H256.875H256.563V103.298H256.875ZM251.875 98.298V97.9855C254.809 97.9855 257.187 100.364 257.187 103.298H256.875H256.563C256.563 100.709 254.464 98.6105 251.875 98.6105V98.298Z" fill="#3B3D3F"/>
<path d="M135.742 132.36C135.742 132.188 135.602 132.048 135.43 132.048C135.257 132.048 135.117 132.188 135.117 132.36H135.742ZM135.209 146.644C135.331 146.766 135.529 146.766 135.651 146.644L137.639 144.655C137.761 144.533 137.761 144.335 137.639 144.213C137.517 144.091 137.319 144.091 137.197 144.213L135.43 145.981L133.662 144.213C133.54 144.091 133.342 144.091 133.22 144.213C133.098 144.335 133.098 144.533 133.22 144.655L135.209 146.644ZM135.43 132.36H135.117V146.423H135.43H135.742V132.36H135.43Z" fill="#3B3D3F"/>
<path d="M127.805 147.318H142.317C143.722 147.318 144.759 147.319 145.579 147.386C146.294 147.444 146.825 147.552 147.275 147.745L147.464 147.834C148.242 148.231 148.893 148.834 149.348 149.574L149.529 149.9C149.779 150.389 149.911 150.967 149.978 151.784C150.045 152.604 150.045 153.641 150.045 155.046V169.046C150.045 170.451 150.045 171.488 149.978 172.308C149.919 173.022 149.811 173.554 149.618 174.004L149.529 174.193C149.133 174.971 148.53 175.622 147.789 176.076L147.464 176.258C146.974 176.508 146.396 176.639 145.579 176.706C144.759 176.773 143.722 176.774 142.317 176.774H127.805C126.4 176.774 125.363 176.773 124.543 176.706C123.828 176.648 123.297 176.54 122.847 176.347L122.658 176.258C121.88 175.861 121.229 175.258 120.774 174.518L120.593 174.193C120.343 173.703 120.211 173.125 120.145 172.308C120.078 171.488 120.077 170.451 120.077 169.046V155.046C120.077 153.641 120.078 152.604 120.145 151.784C120.203 151.07 120.311 150.538 120.504 150.088L120.593 149.9C120.989 149.121 121.592 148.47 122.333 148.016L122.658 147.834C123.148 147.584 123.726 147.453 124.543 147.386C125.363 147.319 126.4 147.318 127.805 147.318Z" fill="url(#paint3_linear_10672_172096)"/>
<path d="M127.805 147.318H142.317C143.722 147.318 144.759 147.319 145.579 147.386C146.294 147.444 146.825 147.552 147.275 147.745L147.464 147.834C148.242 148.231 148.893 148.834 149.348 149.574L149.529 149.9C149.779 150.389 149.911 150.967 149.978 151.784C150.045 152.604 150.045 153.641 150.045 155.046V169.046C150.045 170.451 150.045 171.488 149.978 172.308C149.919 173.022 149.811 173.554 149.618 174.004L149.529 174.193C149.133 174.971 148.53 175.622 147.789 176.076L147.464 176.258C146.974 176.508 146.396 176.639 145.579 176.706C144.759 176.773 143.722 176.774 142.317 176.774H127.805C126.4 176.774 125.363 176.773 124.543 176.706C123.828 176.648 123.297 176.54 122.847 176.347L122.658 176.258C121.88 175.861 121.229 175.258 120.774 174.518L120.593 174.193C120.343 173.703 120.211 173.125 120.145 172.308C120.078 171.488 120.077 170.451 120.077 169.046V155.046C120.077 153.641 120.078 152.604 120.145 151.784C120.203 151.07 120.311 150.538 120.504 150.088L120.593 149.9C120.989 149.121 121.592 148.47 122.333 148.016L122.658 147.834C123.148 147.584 123.726 147.453 124.543 147.386C125.363 147.319 126.4 147.318 127.805 147.318Z" stroke="url(#paint4_linear_10672_172096)" stroke-width="0.545002"/>
<path d="M142.934 161.894C142.934 161.645 142.835 161.407 142.659 161.231C142.483 161.055 142.245 160.956 141.996 160.956H140.121V159.081C140.121 158.833 140.022 158.594 139.847 158.418C139.671 158.242 139.432 158.144 139.184 158.144H131.684C131.435 158.144 131.196 158.242 131.021 158.418C130.845 158.594 130.746 158.833 130.746 159.081V166.581C130.746 166.669 130.772 166.756 130.819 166.83C130.866 166.905 130.933 166.964 131.013 167.003C131.092 167.041 131.181 167.055 131.268 167.045C131.356 167.035 131.439 167.001 131.508 166.946L133.559 165.292V167.05C133.559 167.299 133.657 167.537 133.833 167.713C134.009 167.889 134.247 167.987 134.496 167.987H139.98L142.172 169.758C142.255 169.825 142.358 169.862 142.465 169.862C142.589 169.862 142.708 169.813 142.796 169.725C142.884 169.637 142.934 169.518 142.934 169.394V161.894ZM140.44 167.154C140.357 167.087 140.254 167.05 140.147 167.05H134.496V165.175H139.184C139.432 165.175 139.671 165.076 139.847 164.9C140.022 164.725 140.121 164.486 140.121 164.237V161.894H141.996V168.412L140.44 167.154Z" fill="white"/>
<path d="M71.125 147.318H85.125C86.5296 147.318 87.5666 147.319 88.3867 147.386C89.1014 147.444 89.6331 147.552 90.083 147.745L90.2715 147.834C91.0498 148.231 91.7011 148.834 92.1553 149.574L92.3369 149.9C92.5866 150.389 92.7184 150.967 92.7852 151.784C92.8522 152.604 92.8525 153.641 92.8525 155.046V169.046C92.8525 170.451 92.8522 171.488 92.7852 172.308C92.7184 173.125 92.5866 173.703 92.3369 174.193C91.8837 175.082 91.1608 175.805 90.2715 176.258C89.7815 176.508 89.2036 176.639 88.3867 176.706C87.5666 176.773 86.5296 176.774 85.125 176.774H71.125C69.7204 176.774 68.6834 176.773 67.8633 176.706C67.1486 176.648 66.6169 176.54 66.167 176.347L65.9785 176.258C65.2002 175.861 64.5489 175.258 64.0947 174.518L63.9131 174.193C63.6634 173.703 63.5316 173.125 63.4648 172.308C63.3978 171.488 63.3975 170.451 63.3975 169.046V155.046C63.3975 153.641 63.3978 152.604 63.4648 151.784C63.5232 151.07 63.6309 150.538 63.8242 150.088L63.9131 149.9C64.3097 149.121 64.9127 148.47 65.6533 148.016L65.9785 147.834C66.4685 147.584 67.0464 147.453 67.8633 147.386C68.6834 147.319 69.7204 147.318 71.125 147.318Z" fill="url(#paint5_linear_10672_172096)"/>
<path d="M71.125 147.318H85.125C86.5296 147.318 87.5666 147.319 88.3867 147.386C89.1014 147.444 89.6331 147.552 90.083 147.745L90.2715 147.834C91.0498 148.231 91.7011 148.834 92.1553 149.574L92.3369 149.9C92.5866 150.389 92.7184 150.967 92.7852 151.784C92.8522 152.604 92.8525 153.641 92.8525 155.046V169.046C92.8525 170.451 92.8522 171.488 92.7852 172.308C92.7184 173.125 92.5866 173.703 92.3369 174.193C91.8837 175.082 91.1608 175.805 90.2715 176.258C89.7815 176.508 89.2036 176.639 88.3867 176.706C87.5666 176.773 86.5296 176.774 85.125 176.774H71.125C69.7204 176.774 68.6834 176.773 67.8633 176.706C67.1486 176.648 66.6169 176.54 66.167 176.347L65.9785 176.258C65.2002 175.861 64.5489 175.258 64.0947 174.518L63.9131 174.193C63.6634 173.703 63.5316 173.125 63.4648 172.308C63.3978 171.488 63.3975 170.451 63.3975 169.046V155.046C63.3975 153.641 63.3978 152.604 63.4648 151.784C63.5232 151.07 63.6309 150.538 63.8242 150.088L63.9131 149.9C64.3097 149.121 64.9127 148.47 65.6533 148.016L65.9785 147.834C66.4685 147.584 67.0464 147.453 67.8633 147.386C68.6834 147.319 69.7204 147.318 71.125 147.318Z" stroke="url(#paint6_linear_10672_172096)" stroke-width="0.545002"/>
<path d="M85 156.12V160.267C85 166.59 79.5702 168.688 78.4831 169.045C78.2509 169.122 77.9991 169.122 77.7669 169.045C76.6784 168.688 71.25 166.59 71.25 160.267V156.12C71.25 155.821 71.3707 155.534 71.5856 155.322C71.8005 155.11 72.0919 154.991 72.3958 154.991H83.8542C84.1581 154.991 84.4495 155.11 84.6644 155.322C84.8793 155.534 85 155.821 85 156.12Z" fill="white"/>
<path d="M73.2783 156.488H82.9736C83.1245 156.488 83.268 156.546 83.373 156.65C83.4778 156.753 83.5361 156.892 83.5361 157.035V160.545C83.5359 165.286 79.7285 167.065 78.5098 167.513L78.3018 167.585L78.2998 167.586C78.2154 167.614 78.1253 167.621 78.0381 167.607L77.9521 167.586L77.9492 167.585L77.7422 167.513C76.5233 167.066 72.7161 165.286 72.7158 160.545V157.035C72.7159 156.892 72.7732 156.753 72.8779 156.65C72.9568 156.572 73.0578 156.52 73.167 156.498L73.2783 156.488Z" stroke="#0A0D0F" stroke-width="0.814145"/>
<path d="M80.6475 162.305C80.4693 162.305 80.3082 162.274 80.1642 162.213C80.0226 162.152 79.9104 162.064 79.8274 161.95C79.7444 161.835 79.7017 161.699 79.6992 161.543H80.2484C80.2557 161.648 80.2923 161.731 80.3582 161.792C80.4266 161.853 80.5193 161.884 80.6365 161.884C80.7561 161.884 80.8501 161.856 80.9184 161.8C80.9868 161.741 81.0209 161.665 81.0209 161.573C81.0209 161.497 80.9977 161.435 80.9514 161.386C80.905 161.337 80.8464 161.299 80.7756 161.272C80.7073 161.243 80.6121 161.211 80.4901 161.177C80.3241 161.128 80.1886 161.081 80.0837 161.034C79.9811 160.986 79.892 160.914 79.8164 160.818C79.7432 160.721 79.7065 160.591 79.7065 160.43C79.7065 160.279 79.7444 160.147 79.82 160.035C79.8957 159.923 80.0019 159.837 80.1386 159.779C80.2753 159.718 80.4315 159.687 80.6072 159.687C80.8708 159.687 81.0844 159.752 81.2479 159.881C81.4139 160.008 81.5054 160.186 81.5225 160.416H80.9587C80.9538 160.328 80.916 160.256 80.8452 160.2C80.7769 160.141 80.6853 160.112 80.5706 160.112C80.4705 160.112 80.39 160.137 80.329 160.189C80.2704 160.24 80.2411 160.314 80.2411 160.412C80.2411 160.48 80.2631 160.538 80.307 160.584C80.3534 160.628 80.4095 160.665 80.4754 160.694C80.5438 160.721 80.6389 160.752 80.761 160.789C80.927 160.838 81.0624 160.887 81.1674 160.936C81.2723 160.984 81.3627 161.058 81.4383 161.155C81.514 161.253 81.5518 161.381 81.5518 161.54C81.5518 161.676 81.5164 161.803 81.4456 161.92C81.3749 162.038 81.2711 162.132 81.1344 162.202C80.9977 162.271 80.8354 162.305 80.6475 162.305Z" fill="#0A0D0F"/>
<path d="M79.4066 160.517C79.4066 160.654 79.3736 160.782 79.3077 160.901C79.2442 161.021 79.1429 161.117 79.0038 161.191C78.8671 161.264 78.6938 161.301 78.4839 161.301H78.0555V162.282H77.543V159.726H78.4839C78.6816 159.726 78.85 159.76 78.9892 159.829C79.1283 159.897 79.232 159.991 79.3004 160.111C79.3712 160.23 79.4066 160.366 79.4066 160.517ZM78.4619 160.887C78.6035 160.887 78.7085 160.855 78.7768 160.792C78.8452 160.726 78.8793 160.634 78.8793 160.517C78.8793 160.268 78.7402 160.144 78.4619 160.144H78.0555V160.887H78.4619Z" fill="#0A0D0F"/>
<path d="M77.0321 159.726V162.282H76.5195V159.726H77.0321Z" fill="#0A0D0F"/>
<path d="M76.1561 159.726V160.14H75.0907V160.795H75.9072V161.202H75.0907V162.282H74.5781V159.726H76.1561Z" fill="#0A0D0F"/>
<path d="M196.207 132.36C196.207 132.188 196.067 132.048 195.895 132.048C195.722 132.048 195.582 132.188 195.582 132.36H196.207ZM195.674 146.644C195.796 146.766 195.993 146.766 196.116 146.644L198.104 144.655C198.226 144.533 198.226 144.335 198.104 144.213C197.982 144.091 197.784 144.091 197.662 144.213L195.895 145.981L194.127 144.213C194.005 144.091 193.807 144.091 193.685 144.213C193.563 144.335 193.563 144.533 193.685 144.655L195.674 146.644ZM195.895 132.36H195.582V146.423H195.895H196.207V132.36H195.895Z" fill="#3B3D3F"/>
<path d="M188.781 147.318H203.294C204.699 147.318 205.736 147.319 206.556 147.386C207.27 147.444 207.802 147.552 208.252 147.745L208.44 147.834C209.219 148.231 209.87 148.834 210.324 149.574L210.506 149.9C210.756 150.389 210.887 150.967 210.954 151.784C211.021 152.604 211.021 153.641 211.021 155.046V169.046C211.021 170.451 211.021 171.488 210.954 172.308C210.896 173.022 210.788 173.554 210.595 174.004L210.506 174.193C210.109 174.971 209.506 175.622 208.766 176.076L208.44 176.258C207.95 176.508 207.373 176.639 206.556 176.706C205.736 176.773 204.699 176.774 203.294 176.774H188.781C187.377 176.774 186.34 176.773 185.52 176.706C184.805 176.648 184.273 176.54 183.823 176.347L183.635 176.258C182.856 175.861 182.205 175.258 181.751 174.518L181.569 174.193C181.32 173.703 181.188 173.125 181.121 172.308C181.054 171.488 181.054 170.451 181.054 169.046V155.046C181.054 153.641 181.054 152.604 181.121 151.784C181.179 151.07 181.287 150.538 181.48 150.088L181.569 149.9C181.966 149.121 182.569 148.47 183.31 148.016L183.635 147.834C184.125 147.584 184.703 147.453 185.52 147.386C186.34 147.319 187.377 147.318 188.781 147.318Z" fill="url(#paint7_linear_10672_172096)"/>
<path d="M188.781 147.318H203.294C204.699 147.318 205.736 147.319 206.556 147.386C207.27 147.444 207.802 147.552 208.252 147.745L208.44 147.834C209.219 148.231 209.87 148.834 210.324 149.574L210.506 149.9C210.756 150.389 210.887 150.967 210.954 151.784C211.021 152.604 211.021 153.641 211.021 155.046V169.046C211.021 170.451 211.021 171.488 210.954 172.308C210.896 173.022 210.788 173.554 210.595 174.004L210.506 174.193C210.109 174.971 209.506 175.622 208.766 176.076L208.44 176.258C207.95 176.508 207.373 176.639 206.556 176.706C205.736 176.773 204.699 176.774 203.294 176.774H188.781C187.377 176.774 186.34 176.773 185.52 176.706C184.805 176.648 184.273 176.54 183.823 176.347L183.635 176.258C182.856 175.861 182.205 175.258 181.751 174.518L181.569 174.193C181.32 173.703 181.188 173.125 181.121 172.308C181.054 171.488 181.054 170.451 181.054 169.046V155.046C181.054 153.641 181.054 152.604 181.121 151.784C181.179 151.07 181.287 150.538 181.48 150.088L181.569 149.9C181.966 149.121 182.569 148.47 183.31 148.016L183.635 147.834C184.125 147.584 184.703 147.453 185.52 147.386C186.34 147.319 187.377 147.318 188.781 147.318Z" stroke="url(#paint8_linear_10672_172096)" stroke-width="0.545002"/>
<path d="M203.441 162.835H202.504V161.898H203.441C203.566 161.898 203.685 161.947 203.773 162.035C203.861 162.123 203.91 162.242 203.91 162.366C203.91 162.491 203.861 162.61 203.773 162.698C203.685 162.786 203.566 162.835 203.441 162.835ZM192.191 161.898C192.067 161.898 191.948 161.947 191.86 162.035C191.772 162.123 191.723 162.242 191.723 162.366C191.723 162.491 191.772 162.61 191.86 162.698C191.948 162.786 192.067 162.835 192.191 162.835H193.129V161.898H192.191ZM202.504 165.179C202.504 165.337 202.496 165.493 202.48 165.648H203.441C203.566 165.648 203.685 165.697 203.773 165.785C203.861 165.873 203.91 165.992 203.91 166.116C203.91 166.241 203.861 166.36 203.773 166.448C203.685 166.536 203.566 166.585 203.441 166.585H202.288C201.989 167.537 201.394 168.368 200.59 168.959C199.786 169.549 198.814 169.867 197.816 169.867C196.819 169.867 195.847 169.549 195.043 168.959C194.239 168.368 193.644 167.537 193.345 166.585H192.191C192.067 166.585 191.948 166.536 191.86 166.448C191.772 166.36 191.723 166.241 191.723 166.116C191.723 165.992 191.772 165.873 191.86 165.785C191.948 165.697 192.067 165.648 192.191 165.648H193.152C193.137 165.493 193.129 165.337 193.129 165.179V164.71H192.191C192.067 164.71 191.948 164.661 191.86 164.573C191.772 164.485 191.723 164.366 191.723 164.241C191.723 164.117 191.772 163.998 191.86 163.91C191.948 163.822 192.067 163.773 192.191 163.773H193.129V162.835H202.504V163.773H203.441C203.566 163.773 203.685 163.822 203.773 163.91C203.861 163.998 203.91 164.117 203.91 164.241C203.91 164.366 203.861 164.485 203.773 164.573C203.685 164.661 203.566 164.71 203.441 164.71H202.504V165.179ZM198.285 164.241C198.285 164.117 198.236 163.998 198.148 163.91C198.06 163.822 197.941 163.773 197.816 163.773C197.692 163.773 197.573 163.822 197.485 163.91C197.397 163.998 197.348 164.117 197.348 164.241V167.991C197.348 168.116 197.397 168.235 197.485 168.323C197.573 168.411 197.692 168.46 197.816 168.46C197.941 168.46 198.06 168.411 198.148 168.323C198.236 168.235 198.285 168.116 198.285 167.991V164.241ZM194.409 159.152C193.698 159.903 193.256 160.869 193.152 161.898H202.48C202.377 160.869 201.935 159.903 201.224 159.152L202.367 158.01C202.41 157.967 202.445 157.915 202.468 157.858C202.492 157.801 202.504 157.74 202.504 157.679C202.504 157.617 202.492 157.556 202.468 157.499C202.445 157.442 202.41 157.391 202.367 157.347C202.323 157.304 202.272 157.269 202.215 157.246C202.158 157.222 202.097 157.21 202.035 157.21C201.974 157.21 201.913 157.222 201.856 157.246C201.799 157.269 201.747 157.304 201.704 157.347L200.515 158.537C199.726 157.979 198.783 157.679 197.816 157.679C196.85 157.679 195.907 157.979 195.118 158.537L193.929 157.347C193.841 157.259 193.722 157.21 193.598 157.21C193.473 157.21 193.354 157.259 193.266 157.347C193.178 157.435 193.129 157.554 193.129 157.679C193.129 157.803 193.178 157.923 193.266 158.01L194.409 159.152Z" fill="white"/>
<path d="M249.875 147.318H264.388C265.792 147.318 266.829 147.319 267.649 147.386C268.364 147.444 268.896 147.552 269.346 147.745L269.534 147.834C270.312 148.231 270.964 148.834 271.418 149.574L271.6 149.9C271.849 150.389 271.981 150.967 272.048 151.784C272.115 152.604 272.115 153.641 272.115 155.046V169.046C272.115 170.451 272.115 171.488 272.048 172.308C271.989 173.022 271.882 173.554 271.688 174.004L271.6 174.193C271.203 174.971 270.6 175.622 269.859 176.076L269.534 176.258C269.044 176.508 268.466 176.639 267.649 176.706C266.829 176.773 265.792 176.774 264.388 176.774H249.875C248.47 176.774 247.433 176.773 246.613 176.706C245.899 176.648 245.367 176.54 244.917 176.347L244.729 176.258C243.95 175.861 243.299 175.258 242.845 174.518L242.663 174.193C242.413 173.703 242.282 173.125 242.215 172.308C242.148 171.488 242.147 170.451 242.147 169.046V155.046C242.147 153.641 242.148 152.604 242.215 151.784C242.273 151.07 242.381 150.538 242.574 150.088L242.663 149.9C243.06 149.121 243.663 148.47 244.403 148.016L244.729 147.834C245.218 147.584 245.796 147.453 246.613 147.386C247.433 147.319 248.47 147.318 249.875 147.318Z" fill="url(#paint9_linear_10672_172096)"/>
<path d="M249.875 147.318H264.388C265.792 147.318 266.829 147.319 267.649 147.386C268.364 147.444 268.896 147.552 269.346 147.745L269.534 147.834C270.312 148.231 270.964 148.834 271.418 149.574L271.6 149.9C271.849 150.389 271.981 150.967 272.048 151.784C272.115 152.604 272.115 153.641 272.115 155.046V169.046C272.115 170.451 272.115 171.488 272.048 172.308C271.989 173.022 271.882 173.554 271.688 174.004L271.6 174.193C271.203 174.971 270.6 175.622 269.859 176.076L269.534 176.258C269.044 176.508 268.466 176.639 267.649 176.706C266.829 176.773 265.792 176.774 264.388 176.774H249.875C248.47 176.774 247.433 176.773 246.613 176.706C245.899 176.648 245.367 176.54 244.917 176.347L244.729 176.258C243.95 175.861 243.299 175.258 242.845 174.518L242.663 174.193C242.413 173.703 242.282 173.125 242.215 172.308C242.148 171.488 242.147 170.451 242.147 169.046V155.046C242.147 153.641 242.148 152.604 242.215 151.784C242.273 151.07 242.381 150.538 242.574 150.088L242.663 149.9C243.06 149.121 243.663 148.47 244.403 148.016L244.729 147.834C245.218 147.584 245.796 147.453 246.613 147.386C247.433 147.319 248.47 147.318 249.875 147.318Z" stroke="url(#paint10_linear_10672_172096)" stroke-width="0.545002"/>
<path d="M264.066 158.616H255.629C255.38 158.616 255.142 158.715 254.966 158.891C254.79 159.067 254.691 159.305 254.691 159.554V160.491H253.754C253.505 160.491 253.267 160.59 253.091 160.766C252.915 160.942 252.816 161.18 252.816 161.429V167.991C252.816 168.24 252.915 168.478 253.091 168.654C253.267 168.83 253.505 168.929 253.754 168.929H262.191C262.44 168.929 262.679 168.83 262.854 168.654C263.03 168.478 263.129 168.24 263.129 167.991V167.054H264.066C264.315 167.054 264.554 166.955 264.729 166.779C264.905 166.603 265.004 166.365 265.004 166.116V159.554C265.004 159.305 264.905 159.067 264.729 158.891C264.554 158.715 264.315 158.616 264.066 158.616ZM262.191 161.429V162.366H253.754V161.429H262.191ZM264.066 166.116H263.129V161.429C263.129 161.18 263.03 160.942 262.854 160.766C262.679 160.59 262.44 160.491 262.191 160.491H255.629V159.554H264.066V166.116Z" fill="white"/>
<rect x="112.261" y="22.2405" width="110.399" height="110.399" rx="30.5216" stroke="#6C6E6F" stroke-width="0.772698" stroke-dasharray="0.77 3.09"/>
<g filter="url(#filter0_i_10672_172096)">
<rect x="128.875" y="38.8541" width="77.1682" height="77.1682" rx="18.5447" fill="#060809"/>
</g>
<rect x="129.261" y="39.2405" width="76.3955" height="76.3955" rx="18.1584" stroke="url(#paint11_linear_10672_172096)" stroke-width="0.772698"/>
<rect x="134.023" y="43.4287" width="67.4703" height="68.1021" rx="15.0676" fill="#0A0D0F" stroke="url(#paint12_linear_10672_172096)" stroke-width="0.772698"/>
<path d="M181.246 56.9161H183.945C186.385 56.9161 188.363 58.8941 188.363 61.3341V66.5431" stroke="#FFCB5C" stroke-width="0.572682" stroke-linecap="round"/>
<path d="M153.676 56.9161H150.977C148.537 56.9161 146.559 58.8941 146.559 61.3341V66.5431" stroke="#FFCB5C" stroke-width="0.572682" stroke-linecap="round"/>
<path d="M146.559 88.3419L146.559 93.5509C146.559 95.9909 148.537 97.9689 150.977 97.9689L153.676 97.9689" stroke="#FFCB5C" stroke-width="0.572682" stroke-linecap="round"/>
<path d="M181.246 97.9644H183.945C186.385 97.9644 188.363 95.9863 188.363 93.5464V88.3374" stroke="#FFCB5C" stroke-width="0.572682" stroke-linecap="round"/>
<path d="M164.901 86.5955C164.901 86.6105 164.89 86.6237 164.876 86.6262L157.203 87.9611C157.187 87.9636 157.171 87.9523 157.168 87.9354C157.167 87.9291 157.168 87.9235 157.171 87.9185L164.843 70.5258C164.85 70.5107 164.868 70.5038 164.884 70.5114C164.89 70.5145 164.895 70.5195 164.898 70.5258L164.901 70.5389L164.901 86.5955Z" fill="#FFCB5C"/>
<path d="M166.194 86.6294C166.194 86.645 166.205 86.6582 166.221 86.6601L177.713 87.963C177.73 87.9649 177.745 87.9523 177.747 87.9348L177.747 87.9273L177.744 87.9191L166.252 61.8661C166.245 61.8504 166.226 61.8442 166.211 61.8517C166.204 61.8548 166.199 61.8605 166.196 61.8674L166.194 61.8786V86.6294Z" fill="#FFCB5C"/>
<path d="M177.625 89.1556L164.912 93.0268L164.903 93.0286L164.89 93.0268L157.208 89.1556C157.193 89.1487 157.186 89.1305 157.193 89.1148C157.196 89.1079 157.202 89.1017 157.209 89.0992L157.222 89.0966H177.616C177.633 89.0998 177.644 89.1155 177.642 89.1324C177.641 89.1387 177.638 89.1449 177.633 89.1493L177.625 89.1556Z" fill="#FFCB5C"/>
<rect x="152.773" y="208.922" width="29.455" height="29.455" rx="4.7275" fill="url(#paint13_linear_10672_172096)"/>
<rect x="152.773" y="208.922" width="29.455" height="29.455" rx="4.7275" stroke="url(#paint14_linear_10672_172096)" stroke-width="0.545002"/>
<path d="M172.723 223.838C172.725 223.754 172.725 223.669 172.723 223.585L173.597 222.493C173.643 222.435 173.675 222.368 173.69 222.296C173.705 222.224 173.703 222.15 173.684 222.079C173.54 221.54 173.326 221.023 173.047 220.541C173.01 220.478 172.959 220.424 172.898 220.384C172.837 220.344 172.767 220.319 172.695 220.311L171.305 220.156C171.247 220.095 171.189 220.037 171.129 219.98L170.965 218.587C170.957 218.514 170.932 218.445 170.892 218.384C170.851 218.323 170.798 218.272 170.734 218.235C170.252 217.956 169.735 217.742 169.196 217.599C169.125 217.58 169.051 217.578 168.979 217.593C168.907 217.608 168.84 217.64 168.783 217.686L167.693 218.555C167.609 218.555 167.525 218.555 167.44 218.555L166.348 217.683C166.291 217.637 166.223 217.605 166.152 217.59C166.08 217.575 166.005 217.577 165.934 217.596C165.396 217.74 164.879 217.954 164.396 218.234C164.333 218.27 164.28 218.321 164.24 218.382C164.2 218.443 164.174 218.513 164.166 218.585L164.011 219.977C163.95 220.036 163.892 220.094 163.836 220.153L162.442 220.313C162.37 220.322 162.3 220.347 162.239 220.387C162.178 220.427 162.127 220.481 162.091 220.544C161.811 221.026 161.597 221.543 161.454 222.082C161.435 222.153 161.433 222.227 161.448 222.299C161.463 222.371 161.495 222.438 161.541 222.496L162.411 223.585C162.411 223.669 162.411 223.754 162.411 223.838L161.538 224.93C161.492 224.988 161.461 225.055 161.446 225.127C161.43 225.199 161.432 225.273 161.451 225.344C161.595 225.883 161.809 226.4 162.089 226.882C162.126 226.945 162.176 226.999 162.237 227.039C162.298 227.079 162.368 227.104 162.44 227.112L163.83 227.267C163.889 227.328 163.947 227.387 164.006 227.443L164.168 228.836C164.177 228.909 164.202 228.978 164.242 229.039C164.282 229.1 164.336 229.151 164.399 229.188C164.882 229.467 165.399 229.681 165.937 229.825C166.008 229.843 166.083 229.845 166.155 229.83C166.226 229.815 166.294 229.783 166.351 229.737L167.44 228.868C167.525 228.87 167.609 228.87 167.693 228.868L168.786 229.742C168.843 229.788 168.91 229.82 168.982 229.835C169.054 229.85 169.128 229.848 169.199 229.829C169.738 229.685 170.255 229.471 170.737 229.191C170.8 229.155 170.854 229.104 170.894 229.043C170.934 228.982 170.959 228.912 170.968 228.84L171.122 227.45C171.183 227.392 171.242 227.333 171.298 227.274L172.691 227.11C172.764 227.102 172.834 227.076 172.895 227.036C172.956 226.996 173.006 226.942 173.043 226.879C173.322 226.397 173.536 225.88 173.68 225.341C173.699 225.27 173.701 225.196 173.686 225.124C173.67 225.052 173.639 224.985 173.593 224.927L172.723 223.838ZM167.567 226.055C167.103 226.055 166.65 225.918 166.265 225.66C165.879 225.403 165.579 225.037 165.402 224.608C165.224 224.18 165.178 223.709 165.268 223.254C165.359 222.8 165.582 222.382 165.91 222.054C166.237 221.726 166.655 221.503 167.11 221.413C167.564 221.322 168.036 221.369 168.464 221.546C168.892 221.724 169.258 222.024 169.516 222.409C169.773 222.795 169.911 223.248 169.911 223.712C169.911 224.333 169.664 224.929 169.224 225.369C168.785 225.808 168.188 226.055 167.567 226.055Z" fill="#3B3D3F"/>
<rect x="96.5225" y="208.921" width="29.455" height="29.455" rx="4.7275" fill="url(#paint15_linear_10672_172096)"/>
<rect x="96.5225" y="208.921" width="29.455" height="29.455" rx="4.7275" stroke="url(#paint16_linear_10672_172096)" stroke-width="0.545002"/>
<path d="M105.267 222.981C105.405 221.821 105.88 220.726 106.633 219.831C106.716 219.731 106.819 219.649 106.936 219.591C107.053 219.532 107.18 219.499 107.311 219.493C107.441 219.487 107.571 219.508 107.693 219.555C107.815 219.603 107.925 219.675 108.017 219.767L109.639 221.423C109.795 221.578 109.89 221.785 109.909 222.004C109.927 222.224 109.866 222.443 109.738 222.623C109.64 222.761 109.567 222.914 109.521 223.077C109.506 223.125 109.477 223.167 109.436 223.197C109.396 223.226 109.347 223.243 109.297 223.243H105.5C105.467 223.243 105.434 223.236 105.404 223.222C105.374 223.209 105.347 223.189 105.325 223.164C105.303 223.14 105.286 223.111 105.276 223.079C105.266 223.047 105.263 223.014 105.267 222.981ZM111.867 217.621C111.737 217.61 111.607 217.626 111.484 217.667C111.361 217.709 111.248 217.776 111.152 217.864C111.056 217.952 110.98 218.059 110.927 218.178C110.875 218.297 110.848 218.425 110.848 218.555V220.938C110.846 221.159 110.924 221.374 111.066 221.543C111.208 221.712 111.406 221.825 111.624 221.862C112.035 221.929 112.412 222.132 112.694 222.437C112.977 222.742 113.151 223.133 113.187 223.548C113.223 223.963 113.121 224.378 112.895 224.727C112.67 225.077 112.334 225.342 111.941 225.48C111.896 225.497 111.856 225.527 111.828 225.567C111.8 225.607 111.785 225.655 111.785 225.704V229.526C111.785 229.559 111.792 229.592 111.806 229.622C111.819 229.652 111.839 229.679 111.863 229.702C111.888 229.724 111.917 229.74 111.949 229.75C111.98 229.761 112.014 229.764 112.047 229.76C113.509 229.579 114.857 228.877 115.843 227.781C116.828 226.686 117.385 225.271 117.41 223.798C117.454 220.617 115.019 217.904 111.867 217.621ZM110.687 225.479C110.425 225.385 110.187 225.234 109.99 225.038C109.794 224.841 109.643 224.603 109.55 224.341C109.534 224.294 109.504 224.254 109.464 224.225C109.424 224.196 109.377 224.181 109.327 224.18H105.5C105.466 224.18 105.434 224.187 105.403 224.2C105.373 224.213 105.346 224.233 105.324 224.258C105.302 224.282 105.285 224.311 105.275 224.343C105.265 224.375 105.261 224.408 105.265 224.441C105.429 225.795 106.043 227.055 107.007 228.02C107.972 228.985 109.232 229.598 110.587 229.762C110.62 229.766 110.653 229.763 110.684 229.753C110.716 229.743 110.745 229.726 110.77 229.704C110.794 229.682 110.814 229.654 110.827 229.624C110.841 229.594 110.848 229.561 110.847 229.528V225.704C110.847 225.654 110.832 225.606 110.803 225.565C110.774 225.525 110.734 225.495 110.687 225.479Z" fill="#3B3D3F"/>
<rect x="209.023" y="208.921" width="29.455" height="29.455" rx="4.7275" fill="url(#paint17_linear_10672_172096)"/>
<rect x="209.023" y="208.921" width="29.455" height="29.455" rx="4.7275" stroke="url(#paint18_linear_10672_172096)" stroke-width="0.545002"/>
<path d="M228.973 218.555H218.66C218.412 218.555 218.173 218.654 217.997 218.83C217.821 219.005 217.723 219.244 217.723 219.493V227.93C217.723 228.179 217.821 228.417 217.997 228.593C218.173 228.769 218.412 228.868 218.66 228.868H228.973C229.221 228.868 229.46 228.769 229.636 228.593C229.811 228.417 229.91 228.179 229.91 227.93V219.493C229.91 219.244 229.811 219.005 229.636 218.83C229.46 218.654 229.221 218.555 228.973 218.555ZM223.641 224.078L221.297 225.953C221.249 225.991 221.194 226.02 221.134 226.037C221.075 226.054 221.013 226.059 220.952 226.052C220.891 226.046 220.832 226.027 220.778 225.997C220.724 225.967 220.676 225.927 220.638 225.879C220.599 225.831 220.571 225.776 220.553 225.717C220.536 225.658 220.531 225.596 220.538 225.535C220.545 225.473 220.563 225.414 220.593 225.36C220.623 225.306 220.663 225.259 220.711 225.22L222.597 223.711L220.711 222.203C220.663 222.164 220.623 222.116 220.593 222.063C220.563 222.009 220.545 221.949 220.538 221.888C220.531 221.827 220.536 221.765 220.553 221.706C220.571 221.647 220.599 221.591 220.638 221.543C220.676 221.495 220.724 221.455 220.778 221.425C220.832 221.396 220.891 221.377 220.952 221.37C221.013 221.363 221.075 221.369 221.134 221.386C221.194 221.403 221.249 221.432 221.297 221.47L223.641 223.345C223.696 223.389 223.74 223.445 223.77 223.508C223.801 223.572 223.817 223.641 223.817 223.711C223.817 223.782 223.801 223.851 223.77 223.914C223.74 223.978 223.696 224.034 223.641 224.078ZM226.629 226.055H224.285C224.161 226.055 224.042 226.006 223.954 225.918C223.866 225.83 223.816 225.711 223.816 225.586C223.816 225.462 223.866 225.343 223.954 225.255C224.042 225.167 224.161 225.118 224.285 225.118H226.629C226.753 225.118 226.872 225.167 226.96 225.255C227.048 225.343 227.098 225.462 227.098 225.586C227.098 225.711 227.048 225.83 226.96 225.918C226.872 226.006 226.753 226.055 226.629 226.055Z" fill="#3B3D3F"/>
<path d="M335 193.024L0 193.024" stroke="url(#paint19_linear_10672_172096)" stroke-width="0.9375" stroke-dasharray="0.99 3.98"/>
<path d="M335 253.651L0 253.651" stroke="url(#paint20_linear_10672_172096)" stroke-width="0.9375" stroke-dasharray="0.99 3.98"/>
<path d="M161.477 186.472C161.757 186.522 161.995 186.669 162.19 186.914C162.385 187.159 162.482 187.437 162.482 187.747C162.482 188.012 162.412 188.252 162.272 188.467C162.137 188.677 161.94 188.844 161.68 188.969C161.42 189.089 161.117 189.149 160.772 189.149H158.687V183.937H160.675C161.03 183.937 161.335 183.997 161.59 184.117C161.845 184.237 162.037 184.399 162.167 184.604C162.297 184.804 162.362 185.029 162.362 185.279C162.362 185.579 162.282 185.829 162.122 186.029C161.962 186.229 161.747 186.377 161.477 186.472ZM159.542 186.127H160.6C160.88 186.127 161.097 186.064 161.252 185.939C161.412 185.809 161.492 185.624 161.492 185.384C161.492 185.149 161.412 184.967 161.252 184.837C161.097 184.702 160.88 184.634 160.6 184.634H159.542V186.127ZM160.697 188.452C160.987 188.452 161.215 188.382 161.38 188.242C161.545 188.102 161.627 187.907 161.627 187.657C161.627 187.402 161.54 187.199 161.365 187.049C161.19 186.899 160.957 186.824 160.667 186.824H159.542V188.452H160.697ZM163.127 187.064C163.127 186.649 163.212 186.282 163.382 185.962C163.557 185.642 163.792 185.394 164.087 185.219C164.387 185.039 164.717 184.949 165.077 184.949C165.402 184.949 165.684 185.014 165.924 185.144C166.169 185.269 166.364 185.427 166.509 185.617V185.017H167.372V189.149H166.509V188.534C166.364 188.729 166.167 188.892 165.917 189.022C165.667 189.152 165.382 189.217 165.062 189.217C164.707 189.217 164.382 189.127 164.087 188.947C163.792 188.762 163.557 188.507 163.382 188.182C163.212 187.852 163.127 187.479 163.127 187.064ZM166.509 187.079C166.509 186.794 166.449 186.547 166.329 186.337C166.214 186.127 166.062 185.967 165.872 185.857C165.682 185.747 165.477 185.692 165.257 185.692C165.037 185.692 164.832 185.747 164.642 185.857C164.452 185.962 164.297 186.119 164.177 186.329C164.062 186.534 164.004 186.779 164.004 187.064C164.004 187.349 164.062 187.599 164.177 187.814C164.297 188.029 164.452 188.194 164.642 188.309C164.837 188.419 165.042 188.474 165.257 188.474C165.477 188.474 165.682 188.419 165.872 188.309C166.062 188.199 166.214 188.039 166.329 187.829C166.449 187.614 166.509 187.364 166.509 187.079ZM169.995 189.217C169.67 189.217 169.377 189.159 169.117 189.044C168.862 188.924 168.66 188.764 168.51 188.564C168.36 188.359 168.28 188.132 168.27 187.882H169.155C169.17 188.057 169.252 188.204 169.402 188.324C169.557 188.439 169.75 188.497 169.98 188.497C170.22 188.497 170.405 188.452 170.535 188.362C170.67 188.267 170.737 188.147 170.737 188.002C170.737 187.847 170.662 187.732 170.512 187.657C170.367 187.582 170.135 187.499 169.815 187.409C169.505 187.324 169.252 187.242 169.057 187.162C168.862 187.082 168.692 186.959 168.547 186.794C168.407 186.629 168.337 186.412 168.337 186.142C168.337 185.922 168.402 185.722 168.532 185.542C168.662 185.357 168.847 185.212 169.087 185.107C169.332 185.002 169.612 184.949 169.927 184.949C170.397 184.949 170.775 185.069 171.06 185.309C171.35 185.544 171.505 185.867 171.525 186.277H170.67C170.655 186.092 170.58 185.944 170.445 185.834C170.31 185.724 170.127 185.669 169.897 185.669C169.672 185.669 169.5 185.712 169.38 185.797C169.26 185.882 169.2 185.994 169.2 186.134C169.2 186.244 169.24 186.337 169.32 186.412C169.4 186.487 169.497 186.547 169.612 186.592C169.727 186.632 169.897 186.684 170.122 186.749C170.422 186.829 170.667 186.912 170.857 186.997C171.052 187.077 171.22 187.197 171.36 187.357C171.5 187.517 171.572 187.729 171.577 187.994C171.577 188.229 171.512 188.439 171.382 188.624C171.252 188.809 171.067 188.954 170.827 189.059C170.592 189.164 170.315 189.217 169.995 189.217ZM176.288 186.982C176.288 187.137 176.278 187.277 176.258 187.402H173.101C173.126 187.732 173.248 187.997 173.468 188.197C173.688 188.397 173.958 188.497 174.278 188.497C174.738 188.497 175.063 188.304 175.253 187.919H176.176C176.051 188.299 175.823 188.612 175.493 188.857C175.168 189.097 174.763 189.217 174.278 189.217C173.883 189.217 173.528 189.129 173.213 188.954C172.903 188.774 172.658 188.524 172.478 188.204C172.303 187.879 172.216 187.504 172.216 187.079C172.216 186.654 172.301 186.282 172.471 185.962C172.646 185.637 172.888 185.387 173.198 185.212C173.513 185.037 173.873 184.949 174.278 184.949C174.668 184.949 175.016 185.034 175.321 185.204C175.626 185.374 175.863 185.614 176.033 185.924C176.203 186.229 176.288 186.582 176.288 186.982ZM175.396 186.712C175.391 186.397 175.278 186.144 175.058 185.954C174.838 185.764 174.566 185.669 174.241 185.669C173.946 185.669 173.693 185.764 173.483 185.954C173.273 186.139 173.148 186.392 173.108 186.712H175.396Z" fill="white"/>
<path d="M164.207 246.738C164.207 247.003 164.145 247.253 164.02 247.488C163.895 247.723 163.695 247.916 163.42 248.066C163.145 248.211 162.792 248.283 162.362 248.283H161.417V250.398H160.562V245.186H162.362C162.762 245.186 163.1 245.256 163.375 245.396C163.655 245.531 163.862 245.716 163.997 245.951C164.137 246.186 164.207 246.448 164.207 246.738ZM162.362 247.586C162.687 247.586 162.93 247.513 163.09 247.368C163.25 247.218 163.33 247.008 163.33 246.738C163.33 246.168 163.007 245.883 162.362 245.883H161.417V247.586H162.362ZM165.878 244.848V250.398H165.023V244.848H165.878ZM170.743 246.266V250.398H169.888V249.911C169.753 250.081 169.575 250.216 169.355 250.316C169.14 250.411 168.91 250.458 168.665 250.458C168.34 250.458 168.048 250.391 167.788 250.256C167.533 250.121 167.33 249.921 167.18 249.656C167.035 249.391 166.963 249.071 166.963 248.696V246.266H167.81V248.568C167.81 248.938 167.903 249.223 168.088 249.423C168.273 249.618 168.525 249.716 168.845 249.716C169.165 249.716 169.418 249.618 169.603 249.423C169.793 249.223 169.888 248.938 169.888 248.568V246.266H170.743ZM173.371 250.466C173.046 250.466 172.754 250.408 172.494 250.293C172.239 250.173 172.036 250.013 171.886 249.813C171.736 249.608 171.656 249.381 171.646 249.131H172.531C172.546 249.306 172.629 249.453 172.779 249.573C172.934 249.688 173.126 249.746 173.356 249.746C173.596 249.746 173.781 249.701 173.911 249.611C174.046 249.516 174.114 249.396 174.114 249.251C174.114 249.096 174.039 248.981 173.889 248.906C173.744 248.831 173.511 248.748 173.191 248.658C172.881 248.573 172.629 248.491 172.434 248.411C172.239 248.331 172.069 248.208 171.924 248.043C171.784 247.878 171.714 247.661 171.714 247.391C171.714 247.171 171.779 246.971 171.909 246.791C172.039 246.606 172.224 246.461 172.464 246.356C172.709 246.251 172.989 246.198 173.304 246.198C173.774 246.198 174.151 246.318 174.436 246.558C174.726 246.793 174.881 247.116 174.901 247.526H174.046C174.031 247.341 173.956 247.193 173.821 247.083C173.686 246.973 173.504 246.918 173.274 246.918C173.049 246.918 172.876 246.961 172.756 247.046C172.636 247.131 172.576 247.243 172.576 247.383C172.576 247.493 172.616 247.586 172.696 247.661C172.776 247.736 172.874 247.796 172.989 247.841C173.104 247.881 173.274 247.933 173.499 247.998C173.799 248.078 174.044 248.161 174.234 248.246C174.429 248.326 174.596 248.446 174.736 248.606C174.876 248.766 174.949 248.978 174.954 249.243C174.954 249.478 174.889 249.688 174.759 249.873C174.629 250.058 174.444 250.203 174.204 250.308C173.969 250.413 173.691 250.466 173.371 250.466Z" fill="#9D9E9F"/>
<defs>
<filter id="filter0_i_10672_172096" x="128.875" y="38.8541" width="77.168" height="77.9409" filterUnits="userSpaceOnUse" color-interpolation-filters="sRGB">
<feFlood flood-opacity="0" result="BackgroundImageFix"/>
<feBlend mode="normal" in="SourceGraphic" in2="BackgroundImageFix" result="shape"/>
<feColorMatrix in="SourceAlpha" type="matrix" values="0 0 0 0 0 0 0 0 0 0 0 0 0 0 0 0 0 0 127 0" result="hardAlpha"/>
<feOffset dy="0.772698"/>
<feGaussianBlur stdDeviation="0.772698"/>
<feComposite in2="hardAlpha" operator="arithmetic" k2="-1" k3="1"/>
<feColorMatrix type="matrix" values="0 0 0 0 0 0 0 0 0 0 0 0 0 0 0 0 0 0 1 0"/>
<feBlend mode="normal" in2="shape" result="effect1_innerShadow_10672_172096"/>
</filter>
<linearGradient id="paint0_linear_10672_172096" x1="167.5" y1="0.523132" x2="167.5" y2="275.523" gradientUnits="userSpaceOnUse">
<stop stop-color="#161C20"/>
<stop offset="1" stop-color="#0A0D0F"/>
</linearGradient>
<radialGradient id="paint1_radial_10672_172096" cx="0" cy="0" r="1" gradientUnits="userSpaceOnUse" gradientTransform="translate(179.062 135.755) scale(196.563 179.735)">
<stop stop-color="#D9D9D9" stop-opacity="0.8"/>
<stop offset="1" stop-color="#737373"/>
</radialGradient>
<linearGradient id="paint2_linear_10672_172096" x1="167.5" y1="0.523132" x2="167.5" y2="275.523" gradientUnits="userSpaceOnUse">
<stop stop-color="#3B3D3F" stop-opacity="0.4"/>
<stop offset="1" stop-color="#3B3D3F"/>
</linearGradient>
<linearGradient id="paint3_linear_10672_172096" x1="135.061" y1="147.046" x2="135.061" y2="177.046" gradientUnits="userSpaceOnUse">
<stop stop-color="#161C20"/>
<stop offset="1" stop-color="#0A0D0F"/>
</linearGradient>
<linearGradient id="paint4_linear_10672_172096" x1="135.061" y1="162.036" x2="135.061" y2="177.046" gradientUnits="userSpaceOnUse">
<stop stop-color="#3B3D3F" stop-opacity="0.5"/>
<stop offset="1" stop-color="#3B3D3F" stop-opacity="0.89"/>
</linearGradient>
<linearGradient id="paint5_linear_10672_172096" x1="78.125" y1="147.046" x2="78.125" y2="177.046" gradientUnits="userSpaceOnUse">
<stop stop-color="#161C20"/>
<stop offset="1" stop-color="#0A0D0F"/>
</linearGradient>
<linearGradient id="paint6_linear_10672_172096" x1="78.125" y1="162.036" x2="78.125" y2="177.046" gradientUnits="userSpaceOnUse">
<stop stop-color="#3B3D3F" stop-opacity="0.5"/>
<stop offset="1" stop-color="#3B3D3F" stop-opacity="0.89"/>
</linearGradient>
<linearGradient id="paint7_linear_10672_172096" x1="196.038" y1="147.046" x2="196.038" y2="177.046" gradientUnits="userSpaceOnUse">
<stop stop-color="#161C20"/>
<stop offset="1" stop-color="#0A0D0F"/>
</linearGradient>
<linearGradient id="paint8_linear_10672_172096" x1="196.038" y1="162.036" x2="196.038" y2="177.046" gradientUnits="userSpaceOnUse">
<stop stop-color="#3B3D3F" stop-opacity="0.5"/>
<stop offset="1" stop-color="#3B3D3F" stop-opacity="0.89"/>
</linearGradient>
<linearGradient id="paint9_linear_10672_172096" x1="257.131" y1="147.046" x2="257.131" y2="177.046" gradientUnits="userSpaceOnUse">
<stop stop-color="#161C20"/>
<stop offset="1" stop-color="#0A0D0F"/>
</linearGradient>
<linearGradient id="paint10_linear_10672_172096" x1="257.131" y1="162.036" x2="257.131" y2="177.046" gradientUnits="userSpaceOnUse">
<stop stop-color="#3B3D3F" stop-opacity="0.5"/>
<stop offset="1" stop-color="#3B3D3F" stop-opacity="0.89"/>
</linearGradient>
<linearGradient id="paint11_linear_10672_172096" x1="167.447" y1="38.4888" x2="167.478" y2="116.022" gradientUnits="userSpaceOnUse">
<stop stop-color="#1E1E1F" stop-opacity="0"/>
<stop offset="1" stop-color="#1E1E1F" stop-opacity="0.8"/>
</linearGradient>
<linearGradient id="paint12_linear_10672_172096" x1="167.758" y1="43.0424" x2="167.758" y2="111.917" gradientUnits="userSpaceOnUse">
<stop stop-color="#3B3D3F" stop-opacity="0.2"/>
<stop offset="1" stop-color="#3B3D3F" stop-opacity="0.4"/>
</linearGradient>
<linearGradient id="paint13_linear_10672_172096" x1="167.5" y1="208.649" x2="167.5" y2="238.649" gradientUnits="userSpaceOnUse">
<stop stop-color="#161C20"/>
<stop offset="1" stop-color="#0A0D0F"/>
</linearGradient>
<linearGradient id="paint14_linear_10672_172096" x1="167.5" y1="223.639" x2="167.5" y2="238.649" gradientUnits="userSpaceOnUse">
<stop stop-color="#3B3D3F" stop-opacity="0.5"/>
<stop offset="1" stop-color="#3B3D3F" stop-opacity="0.89"/>
</linearGradient>
<linearGradient id="paint15_linear_10672_172096" x1="111.25" y1="208.649" x2="111.25" y2="238.649" gradientUnits="userSpaceOnUse">
<stop stop-color="#161C20"/>
<stop offset="1" stop-color="#0A0D0F"/>
</linearGradient>
<linearGradient id="paint16_linear_10672_172096" x1="111.25" y1="223.639" x2="111.25" y2="238.649" gradientUnits="userSpaceOnUse">
<stop stop-color="#3B3D3F" stop-opacity="0.5"/>
<stop offset="1" stop-color="#3B3D3F" stop-opacity="0.89"/>
</linearGradient>
<linearGradient id="paint17_linear_10672_172096" x1="223.75" y1="208.649" x2="223.75" y2="238.649" gradientUnits="userSpaceOnUse">
<stop stop-color="#161C20"/>
<stop offset="1" stop-color="#0A0D0F"/>
</linearGradient>
<linearGradient id="paint18_linear_10672_172096" x1="223.75" y1="223.639" x2="223.75" y2="238.649" gradientUnits="userSpaceOnUse">
<stop stop-color="#3B3D3F" stop-opacity="0.5"/>
<stop offset="1" stop-color="#3B3D3F" stop-opacity="0.89"/>
</linearGradient>
<linearGradient id="paint19_linear_10672_172096" x1="325.312" y1="193.524" x2="-3.05933" y2="193.524" gradientUnits="userSpaceOnUse">
<stop stop-color="#6C6E6F" stop-opacity="0"/>
<stop offset="0.5" stop-color="white"/>
<stop offset="1" stop-color="#6C6E6F" stop-opacity="0"/>
</linearGradient>
<linearGradient id="paint20_linear_10672_172096" x1="325.312" y1="254.151" x2="-3.05933" y2="254.151" gradientUnits="userSpaceOnUse">
<stop stop-color="#6C6E6F" stop-opacity="0"/>
<stop offset="0.5" stop-color="#4B4D4E"/>
<stop offset="1" stop-color="#6C6E6F" stop-opacity="0"/>
</linearGradient>
<clipPath id="clip0_10672_172096">
<rect y="0.523132" width="335" height="275" rx="10" fill="white"/>
</clipPath>
</defs>
</svg>
