<svg width="387" height="272" viewBox="0 0 387 272" fill="none" xmlns="http://www.w3.org/2000/svg">
<mask id="mask0_10157_85841" style="mask-type:alpha" maskUnits="userSpaceOnUse" x="-1" y="-5" width="591" height="310">
<path d="M589.997 5.29721V294.631C589.997 300.2 585.447 304.696 579.878 304.63L9.87844 297.867C4.40225 297.802 -0.00292969 293.345 -0.00292969 287.868V7.98131C-0.00292969 2.47684 4.44556 -1.99266 9.94996 -2.01858L579.95 -4.70269C585.491 -4.72878 589.997 -0.244036 589.997 5.29721Z" fill="url(#paint0_radial_10157_85841)"/>
</mask>
<g mask="url(#mask0_10157_85841)">
<path d="M383.832 -250.75L687.244 274.775" stroke="#417453" stroke-width="0.5"/>
<path d="M380.368 -248.75L683.78 276.775" stroke="#417453" stroke-width="0.5"/>
<path d="M376.904 -246.75L680.316 278.775" stroke="#417453" stroke-width="0.5"/>
<path d="M373.44 -244.75L676.852 280.775" stroke="#417453" stroke-width="0.5"/>
<path d="M369.976 -242.75L673.387 282.775" stroke="#417453" stroke-width="0.5"/>
<path d="M366.512 -240.75L669.924 284.775" stroke="#417453" stroke-width="0.5"/>
<path d="M363.048 -238.75L666.46 286.775" stroke="#417453" stroke-width="0.5"/>
<path d="M359.584 -236.75L662.996 288.775" stroke="#417453" stroke-width="0.5"/>
<path d="M356.119 -234.75L659.531 290.775" stroke="#417453" stroke-width="0.5"/>
<path d="M352.655 -232.75L656.067 292.775" stroke="#417453" stroke-width="0.5"/>
<path d="M349.191 -230.75L652.603 294.775" stroke="#417453" stroke-width="0.5"/>
<path d="M345.728 -228.75L649.139 296.775" stroke="#417453" stroke-width="0.5"/>
<path d="M342.264 -226.75L645.676 298.775" stroke="#417453" stroke-width="0.5"/>
<path d="M338.799 -224.75L642.211 300.775" stroke="#417453" stroke-width="0.5"/>
<path d="M335.335 -222.75L638.747 302.775" stroke="#417453" stroke-width="0.5"/>
<path d="M331.871 -220.75L635.283 304.775" stroke="#417453" stroke-width="0.5"/>
<path d="M328.407 -218.75L631.819 306.775" stroke="#417453" stroke-width="0.5"/>
<path d="M324.942 -216.75L628.354 308.775" stroke="#417453" stroke-width="0.5"/>
<path d="M321.479 -214.75L624.89 310.775" stroke="#417453" stroke-width="0.5"/>
<path d="M318.015 -212.75L621.427 312.775" stroke="#417453" stroke-width="0.5"/>
<path d="M314.551 -210.75L617.963 314.775" stroke="#417453" stroke-width="0.5"/>
<path d="M311.086 -208.75L614.498 316.775" stroke="#417453" stroke-width="0.5"/>
<path d="M307.622 -206.75L611.034 318.775" stroke="#417453" stroke-width="0.5"/>
<path d="M304.158 -204.75L607.57 320.775" stroke="#417453" stroke-width="0.5"/>
<path d="M300.694 -202.75L604.106 322.775" stroke="#417453" stroke-width="0.5"/>
<path d="M297.229 -200.75L600.641 324.775" stroke="#417453" stroke-width="0.5"/>
<path d="M293.766 -198.75L597.177 326.775" stroke="#417453" stroke-width="0.5"/>
<path d="M290.302 -196.75L593.714 328.775" stroke="#417453" stroke-width="0.5"/>
<path d="M286.838 -194.75L590.25 330.775" stroke="#417453" stroke-width="0.5"/>
<path d="M283.373 -192.75L586.785 332.775" stroke="#417453" stroke-width="0.5"/>
<path d="M279.909 -190.75L583.321 334.775" stroke="#417453" stroke-width="0.5"/>
<path d="M276.445 -188.75L579.857 336.775" stroke="#417453" stroke-width="0.5"/>
<path d="M272.981 -186.75L576.393 338.775" stroke="#417453" stroke-width="0.5"/>
<path d="M269.517 -184.75L572.928 340.775" stroke="#417453" stroke-width="0.5"/>
<path d="M266.053 -182.75L569.465 342.775" stroke="#417453" stroke-width="0.5"/>
<path d="M262.589 -180.75L566.001 344.775" stroke="#417453" stroke-width="0.5"/>
<path d="M259.125 -178.75L562.537 346.775" stroke="#417453" stroke-width="0.5"/>
<path d="M255.661 -176.75L559.073 348.775" stroke="#417453" stroke-width="0.5"/>
<path d="M252.196 -174.75L555.608 350.775" stroke="#417453" stroke-width="0.5"/>
<path d="M248.732 -172.75L552.144 352.775" stroke="#417453" stroke-width="0.5"/>
<path d="M245.269 -170.75L548.68 354.775" stroke="#417453" stroke-width="0.5"/>
<path d="M241.805 -168.75L545.217 356.775" stroke="#417453" stroke-width="0.5"/>
<path d="M238.34 -166.75L541.752 358.775" stroke="#417453" stroke-width="0.5"/>
<path d="M234.876 -164.75L538.288 360.775" stroke="#417453" stroke-width="0.5"/>
<path d="M231.412 -162.75L534.824 362.775" stroke="#417453" stroke-width="0.5"/>
<path d="M227.948 -160.75L531.36 364.775" stroke="#417453" stroke-width="0.5"/>
<path d="M224.483 -158.75L527.895 366.775" stroke="#417453" stroke-width="0.5"/>
<path d="M221.02 -156.75L524.431 368.775" stroke="#417453" stroke-width="0.5"/>
<path d="M217.556 -154.75L520.968 370.775" stroke="#417453" stroke-width="0.5"/>
<path d="M214.092 -152.75L517.504 372.775" stroke="#417453" stroke-width="0.5"/>
<path d="M210.627 -150.75L514.039 374.775" stroke="#417453" stroke-width="0.5"/>
<path d="M207.163 -148.75L510.575 376.775" stroke="#417453" stroke-width="0.5"/>
<path d="M203.699 -146.75L507.111 378.775" stroke="#417453" stroke-width="0.5"/>
<path d="M200.235 -144.75L503.647 380.775" stroke="#417453" stroke-width="0.5"/>
<path d="M196.771 -142.75L500.182 382.775" stroke="#417453" stroke-width="0.5"/>
<path d="M193.307 -140.75L496.718 384.775" stroke="#417453" stroke-width="0.5"/>
<path d="M189.843 -138.75L493.255 386.775" stroke="#417453" stroke-width="0.5"/>
<path d="M186.379 -136.75L489.791 388.775" stroke="#417453" stroke-width="0.5"/>
<path d="M182.914 -134.75L486.326 390.775" stroke="#417453" stroke-width="0.5"/>
<path d="M179.45 -132.75L482.862 392.775" stroke="#417453" stroke-width="0.5"/>
<path d="M175.986 -130.75L479.398 394.775" stroke="#417453" stroke-width="0.5"/>
<path d="M172.522 -128.75L475.934 396.775" stroke="#417453" stroke-width="0.5"/>
<path d="M169.059 -126.75L472.47 398.775" stroke="#417453" stroke-width="0.5"/>
<path d="M165.594 -124.75L469.006 400.775" stroke="#417453" stroke-width="0.5"/>
<path d="M162.13 -122.75L465.542 402.775" stroke="#417453" stroke-width="0.5"/>
<path d="M158.666 -120.75L462.078 404.775" stroke="#417453" stroke-width="0.5"/>
<path d="M155.202 -118.75L458.614 406.775" stroke="#417453" stroke-width="0.5"/>
<path d="M151.737 -116.75L455.149 408.775" stroke="#417453" stroke-width="0.5"/>
<path d="M148.273 -114.75L451.685 410.775" stroke="#417453" stroke-width="0.5"/>
<path d="M144.81 -112.75L448.221 412.775" stroke="#417453" stroke-width="0.5"/>
<path d="M141.346 -110.75L444.758 414.775" stroke="#417453" stroke-width="0.5"/>
<path d="M137.881 -108.75L441.293 416.775" stroke="#417453" stroke-width="0.5"/>
<path d="M134.417 -106.75L437.829 418.775" stroke="#417453" stroke-width="0.5"/>
<path d="M130.953 -104.75L434.365 420.775" stroke="#417453" stroke-width="0.5"/>
<path d="M127.489 -102.75L430.901 422.775" stroke="#417453" stroke-width="0.5"/>
<path d="M124.024 -100.75L427.436 424.775" stroke="#417453" stroke-width="0.5"/>
<path d="M120.561 -98.75L423.972 426.775" stroke="#417453" stroke-width="0.5"/>
<path d="M117.097 -96.75L420.509 428.775" stroke="#417453" stroke-width="0.5"/>
<path d="M113.633 -94.75L417.045 430.775" stroke="#417453" stroke-width="0.5"/>
<path d="M110.168 -92.75L413.58 432.775" stroke="#417453" stroke-width="0.5"/>
<path d="M106.704 -90.75L410.116 434.775" stroke="#417453" stroke-width="0.5"/>
<path d="M103.24 -88.75L406.652 436.775" stroke="#417453" stroke-width="0.5"/>
<path d="M99.7764 -86.75L403.188 438.775" stroke="#417453" stroke-width="0.5"/>
<path d="M96.3115 -84.75L399.723 440.775" stroke="#417453" stroke-width="0.5"/>
<path d="M92.8477 -82.75L396.26 442.775" stroke="#417453" stroke-width="0.5"/>
<path d="M89.3838 -80.75L392.796 444.775" stroke="#417453" stroke-width="0.5"/>
<path d="M85.9199 -78.75L389.332 446.775" stroke="#417453" stroke-width="0.5"/>
<path d="M82.4561 -76.75L385.868 448.775" stroke="#417453" stroke-width="0.5"/>
<path d="M78.9912 -74.75L382.403 450.775" stroke="#417453" stroke-width="0.5"/>
<path d="M75.5273 -72.75L378.939 452.775" stroke="#417453" stroke-width="0.5"/>
<path d="M72.0635 -70.75L375.475 454.775" stroke="#417453" stroke-width="0.5"/>
<path d="M68.5996 -68.75L372.011 456.775" stroke="#417453" stroke-width="0.5"/>
<path d="M65.1348 -66.75L368.547 458.775" stroke="#417453" stroke-width="0.5"/>
<path d="M61.6709 -64.75L365.083 460.775" stroke="#417453" stroke-width="0.5"/>
<path d="M58.207 -62.75L361.619 462.775" stroke="#417453" stroke-width="0.5"/>
<path d="M54.7432 -60.75L358.155 464.775" stroke="#417453" stroke-width="0.5"/>
<path d="M51.2783 -58.75L354.69 466.775" stroke="#417453" stroke-width="0.5"/>
<path d="M47.8145 -56.75L351.226 468.775" stroke="#417453" stroke-width="0.5"/>
<path d="M44.3506 -54.75L347.762 470.775" stroke="#417453" stroke-width="0.5"/>
<path d="M40.8867 -52.75L344.299 472.775" stroke="#417453" stroke-width="0.5"/>
<path d="M37.4219 -50.75L340.834 474.775" stroke="#417453" stroke-width="0.5"/>
<path d="M33.958 -48.75L337.37 476.775" stroke="#417453" stroke-width="0.5"/>
<path d="M30.4941 -46.75L333.906 478.775" stroke="#417453" stroke-width="0.5"/>
<path d="M27.0303 -44.75L330.442 480.775" stroke="#417453" stroke-width="0.5"/>
<path d="M23.5654 -42.75L326.977 482.775" stroke="#417453" stroke-width="0.5"/>
<path d="M20.1016 -40.75L323.513 484.775" stroke="#417453" stroke-width="0.5"/>
<path d="M16.6377 -38.75L320.05 486.775" stroke="#417453" stroke-width="0.5"/>
<path d="M13.1738 -36.75L316.586 488.775" stroke="#417453" stroke-width="0.5"/>
<path d="M9.70898 -34.75L313.121 490.775" stroke="#417453" stroke-width="0.5"/>
<path d="M6.24512 -32.75L309.657 492.775" stroke="#417453" stroke-width="0.5"/>
<path d="M2.78125 -30.75L306.193 494.775" stroke="#417453" stroke-width="0.5"/>
<path d="M-0.682617 -28.75L302.729 496.775" stroke="#417453" stroke-width="0.5"/>
<path d="M-4.14648 -26.75L299.265 498.775" stroke="#417453" stroke-width="0.5"/>
<path d="M-7.61133 -24.75L295.801 500.775" stroke="#417453" stroke-width="0.5"/>
<path d="M-11.0752 -22.75L292.337 502.775" stroke="#417453" stroke-width="0.5"/>
<path d="M-14.5391 -20.75L288.873 504.775" stroke="#417453" stroke-width="0.5"/>
<path d="M-18.0029 -18.75L285.409 506.775" stroke="#417453" stroke-width="0.5"/>
<path d="M-21.4678 -16.75L281.944 508.775" stroke="#417453" stroke-width="0.5"/>
<path d="M-24.9316 -14.75L278.48 510.775" stroke="#417453" stroke-width="0.5"/>
<path d="M-28.3955 -12.75L275.016 512.775" stroke="#417453" stroke-width="0.5"/>
<path d="M-31.8594 -10.75L271.552 514.775" stroke="#417453" stroke-width="0.5"/>
<path d="M-35.3242 -8.75L268.088 516.775" stroke="#417453" stroke-width="0.5"/>
<path d="M-38.7881 -6.75L264.624 518.775" stroke="#417453" stroke-width="0.5"/>
<path d="M-42.252 -4.75L261.16 520.775" stroke="#417453" stroke-width="0.5"/>
<path d="M-45.7158 -2.75L257.696 522.775" stroke="#417453" stroke-width="0.5"/>
<path d="M-49.1807 -0.75L254.231 524.775" stroke="#417453" stroke-width="0.5"/>
<path d="M-52.6445 1.25L250.767 526.775" stroke="#417453" stroke-width="0.5"/>
<path d="M-56.1084 3.25L247.303 528.775" stroke="#417453" stroke-width="0.5"/>
<path d="M-59.5723 5.25L243.84 530.775" stroke="#417453" stroke-width="0.5"/>
<path d="M-63.0371 7.25L240.375 532.775" stroke="#417453" stroke-width="0.5"/>
<path d="M-66.501 9.25L236.911 534.775" stroke="#417453" stroke-width="0.5"/>
<path d="M-69.9648 11.25L233.447 536.775" stroke="#417453" stroke-width="0.5"/>
<path d="M-73.4287 13.25L229.983 538.775" stroke="#417453" stroke-width="0.5"/>
<path d="M-76.8936 15.25L226.518 540.775" stroke="#417453" stroke-width="0.5"/>
<path d="M-80.3574 17.25L223.054 542.775" stroke="#417453" stroke-width="0.5"/>
<path d="M-83.8213 19.25L219.591 544.775" stroke="#417453" stroke-width="0.5"/>
<path d="M-87.2852 21.25L216.127 546.775" stroke="#417453" stroke-width="0.5"/>
<path d="M-90.749 23.25L212.663 548.775" stroke="#417453" stroke-width="0.5"/>
<path d="M-94.2139 25.25L209.198 550.775" stroke="#417453" stroke-width="0.5"/>
<path d="M-97.6777 27.25L205.734 552.775" stroke="#417453" stroke-width="0.5"/>
<path d="M-101.142 29.25L202.27 554.775" stroke="#417453" stroke-width="0.5"/>
<path d="M-104.605 31.25L198.806 556.775" stroke="#417453" stroke-width="0.5"/>
<path d="M-108.07 33.25L195.342 558.775" stroke="#417453" stroke-width="0.5"/>
<path d="M-111.534 35.25L191.878 560.775" stroke="#417453" stroke-width="0.5"/>
<path d="M-114.998 37.25L188.414 562.775" stroke="#417453" stroke-width="0.5"/>
<path d="M-118.462 39.25L184.95 564.775" stroke="#417453" stroke-width="0.5"/>
<path d="M-121.927 41.25L181.485 566.775" stroke="#417453" stroke-width="0.5"/>
<path d="M-125.391 43.25L178.021 568.775" stroke="#417453" stroke-width="0.5"/>
<path d="M-128.854 45.25L174.557 570.775" stroke="#417453" stroke-width="0.5"/>
<path d="M-132.318 47.25L171.093 572.775" stroke="#417453" stroke-width="0.5"/>
<path d="M-135.783 49.25L167.629 574.775" stroke="#417453" stroke-width="0.5"/>
<path d="M-139.247 51.25L164.165 576.775" stroke="#417453" stroke-width="0.5"/>
<path d="M-142.711 53.25L160.701 578.775" stroke="#417453" stroke-width="0.5"/>
</g>
<defs>
<radialGradient id="paint0_radial_10157_85841" cx="0" cy="0" r="1" gradientUnits="userSpaceOnUse" gradientTransform="translate(-94.0029 -140.25) rotate(58.7834) scale(408.085 988.422)">
<stop stop-color="white"/>
<stop offset="1" stop-color="#F5F6F7" stop-opacity="0.1"/>
</radialGradient>
</defs>
</svg>
