<svg width="768" height="60" viewBox="0 0 768 60" fill="none" xmlns="http://www.w3.org/2000/svg">
<mask id="mask0_11610_25620" style="mask-type:alpha" maskUnits="userSpaceOnUse" x="-18" y="-73" width="827" height="144">
<path d="M-7.27637 -72.5621L799 -72.5625C804.523 -72.5625 809 -68.0853 809 -62.5625V60.4371C809 65.9599 804.523 70.4371 799 70.4371L-7.27637 70.4375C-12.7992 70.4375 -17.2764 65.9604 -17.2764 60.4375V-62.5621C-17.2764 -68.0849 -12.7992 -72.5621 -7.27637 -72.5621Z" fill="url(#paint0_linear_11610_25620)"/>
</mask>
<g mask="url(#mask0_11610_25620)">
<path d="M0.763367 -674.516L-443.237 94.5149" stroke="#1C76FD" stroke-width="0.5"/>
<path d="M4.22748 -672.516L-439.773 96.5149" stroke="#1C76FD" stroke-width="0.5"/>
<path d="M7.69159 -670.516L-436.308 98.5149" stroke="#1C76FD" stroke-width="0.5"/>
<path d="M11.1557 -668.516L-432.844 100.515" stroke="#1C76FD" stroke-width="0.5"/>
<path d="M14.6198 -666.516L-429.38 102.515" stroke="#1C76FD" stroke-width="0.5"/>
<path d="M18.0839 -664.516L-425.916 104.515" stroke="#1C76FD" stroke-width="0.5"/>
<path d="M21.548 -662.516L-422.452 106.515" stroke="#1C76FD" stroke-width="0.5"/>
<path d="M25.0121 -660.516L-418.988 108.515" stroke="#1C76FD" stroke-width="0.5"/>
<path d="M28.4762 -658.516L-415.524 110.515" stroke="#1C76FD" stroke-width="0.5"/>
<path d="M31.9403 -656.516L-412.06 112.515" stroke="#1C76FD" stroke-width="0.5"/>
<path d="M35.4044 -654.516L-408.596 114.515" stroke="#1C76FD" stroke-width="0.5"/>
<path d="M38.8685 -652.516L-405.131 116.515" stroke="#1C76FD" stroke-width="0.5"/>
<path d="M42.3326 -650.516L-401.667 118.515" stroke="#1C76FD" stroke-width="0.5"/>
<path d="M45.7967 -648.516L-398.203 120.515" stroke="#1C76FD" stroke-width="0.5"/>
<path d="M49.2608 -646.516L-394.739 122.515" stroke="#1C76FD" stroke-width="0.5"/>
<path d="M52.7249 -644.516L-391.275 124.515" stroke="#1C76FD" stroke-width="0.5"/>
<path d="M56.189 -642.516L-387.811 126.515" stroke="#1C76FD" stroke-width="0.5"/>
<path d="M59.6531 -640.516L-384.347 128.515" stroke="#1C76FD" stroke-width="0.5"/>
<path d="M63.1172 -638.516L-380.883 130.515" stroke="#1C76FD" stroke-width="0.5"/>
<path d="M66.5813 -636.516L-377.419 132.515" stroke="#1C76FD" stroke-width="0.5"/>
<path d="M70.0454 -634.516L-373.955 134.515" stroke="#1C76FD" stroke-width="0.5"/>
<path d="M73.5095 -632.516L-370.49 136.515" stroke="#1C76FD" stroke-width="0.5"/>
<path d="M76.9736 -630.516L-367.026 138.515" stroke="#1C76FD" stroke-width="0.5"/>
<path d="M80.4377 -628.516L-363.562 140.515" stroke="#1C76FD" stroke-width="0.5"/>
<path d="M83.9018 -626.516L-360.098 142.515" stroke="#1C76FD" stroke-width="0.5"/>
<path d="M87.3659 -624.516L-356.634 144.515" stroke="#1C76FD" stroke-width="0.5"/>
<path d="M90.83 -622.516L-353.17 146.515" stroke="#1C76FD" stroke-width="0.5"/>
<path d="M94.2941 -620.516L-349.706 148.515" stroke="#1C76FD" stroke-width="0.5"/>
<path d="M97.7582 -618.516L-346.242 150.515" stroke="#1C76FD" stroke-width="0.5"/>
<path d="M101.222 -616.516L-342.778 152.515" stroke="#1C76FD" stroke-width="0.5"/>
<path d="M104.686 -614.516L-339.314 154.515" stroke="#1C76FD" stroke-width="0.5"/>
<path d="M108.151 -612.516L-335.849 156.515" stroke="#1C76FD" stroke-width="0.5"/>
<path d="M111.615 -610.516L-332.385 158.515" stroke="#1C76FD" stroke-width="0.5"/>
<path d="M115.079 -608.516L-328.921 160.515" stroke="#1C76FD" stroke-width="0.5"/>
<path d="M118.543 -606.516L-325.457 162.515" stroke="#1C76FD" stroke-width="0.5"/>
<path d="M122.007 -604.516L-321.993 164.515" stroke="#1C76FD" stroke-width="0.5"/>
<path d="M125.471 -602.516L-318.529 166.515" stroke="#1C76FD" stroke-width="0.5"/>
<path d="M128.935 -600.516L-315.065 168.515" stroke="#1C76FD" stroke-width="0.5"/>
<path d="M132.399 -598.516L-311.601 170.515" stroke="#1C76FD" stroke-width="0.5"/>
<path d="M135.863 -596.516L-308.137 172.515" stroke="#1C76FD" stroke-width="0.5"/>
<path d="M139.327 -594.516L-304.673 174.515" stroke="#1C76FD" stroke-width="0.5"/>
<path d="M142.792 -592.516L-301.208 176.515" stroke="#1C76FD" stroke-width="0.5"/>
<path d="M146.256 -590.516L-297.744 178.515" stroke="#1C76FD" stroke-width="0.5"/>
<path d="M149.72 -588.516L-294.28 180.515" stroke="#1C76FD" stroke-width="0.5"/>
<path d="M153.184 -586.516L-290.816 182.515" stroke="#1C76FD" stroke-width="0.5"/>
<path d="M156.648 -584.516L-287.352 184.515" stroke="#1C76FD" stroke-width="0.5"/>
<path d="M160.112 -582.516L-283.888 186.515" stroke="#1C76FD" stroke-width="0.5"/>
<path d="M163.576 -580.516L-280.424 188.515" stroke="#1C76FD" stroke-width="0.5"/>
<path d="M167.04 -578.516L-276.96 190.515" stroke="#1C76FD" stroke-width="0.5"/>
<path d="M170.504 -576.516L-273.496 192.515" stroke="#1C76FD" stroke-width="0.5"/>
<path d="M173.968 -574.516L-270.032 194.515" stroke="#1C76FD" stroke-width="0.5"/>
<path d="M177.433 -572.516L-266.567 196.515" stroke="#1C76FD" stroke-width="0.5"/>
<path d="M180.897 -570.516L-263.103 198.515" stroke="#1C76FD" stroke-width="0.5"/>
<path d="M184.361 -568.516L-259.639 200.515" stroke="#1C76FD" stroke-width="0.5"/>
<path d="M187.825 -566.516L-256.175 202.515" stroke="#1C76FD" stroke-width="0.5"/>
<path d="M191.289 -564.516L-252.711 204.515" stroke="#1C76FD" stroke-width="0.5"/>
<path d="M194.753 -562.516L-249.247 206.515" stroke="#1C76FD" stroke-width="0.5"/>
<path d="M198.217 -560.516L-245.783 208.515" stroke="#1C76FD" stroke-width="0.5"/>
<path d="M201.681 -558.516L-242.319 210.515" stroke="#1C76FD" stroke-width="0.5"/>
<path d="M205.145 -556.516L-238.855 212.515" stroke="#1C76FD" stroke-width="0.5"/>
<path d="M208.609 -554.516L-235.39 214.515" stroke="#1C76FD" stroke-width="0.5"/>
<path d="M212.074 -552.516L-231.926 216.515" stroke="#1C76FD" stroke-width="0.5"/>
<path d="M215.538 -550.516L-228.462 218.515" stroke="#1C76FD" stroke-width="0.5"/>
<path d="M219.002 -548.516L-224.998 220.515" stroke="#1C76FD" stroke-width="0.5"/>
<path d="M222.466 -546.516L-221.534 222.515" stroke="#1C76FD" stroke-width="0.5"/>
<path d="M225.93 -544.516L-218.07 224.515" stroke="#1C76FD" stroke-width="0.5"/>
<path d="M229.394 -542.516L-214.606 226.515" stroke="#1C76FD" stroke-width="0.5"/>
<path d="M232.858 -540.516L-211.142 228.515" stroke="#1C76FD" stroke-width="0.5"/>
<path d="M236.322 -538.516L-207.678 230.515" stroke="#1C76FD" stroke-width="0.5"/>
<path d="M239.786 -536.516L-204.214 232.515" stroke="#1C76FD" stroke-width="0.5"/>
<path d="M243.25 -534.516L-200.749 234.515" stroke="#1C76FD" stroke-width="0.5"/>
<path d="M246.715 -532.516L-197.285 236.515" stroke="#1C76FD" stroke-width="0.5"/>
<path d="M250.179 -530.516L-193.821 238.515" stroke="#1C76FD" stroke-width="0.5"/>
<path d="M253.643 -528.516L-190.357 240.515" stroke="#1C76FD" stroke-width="0.5"/>
<path d="M257.107 -526.516L-186.893 242.515" stroke="#1C76FD" stroke-width="0.5"/>
<path d="M260.571 -524.516L-183.429 244.515" stroke="#1C76FD" stroke-width="0.5"/>
<path d="M264.035 -522.516L-179.965 246.515" stroke="#1C76FD" stroke-width="0.5"/>
<path d="M267.499 -520.516L-176.501 248.515" stroke="#1C76FD" stroke-width="0.5"/>
<path d="M270.963 -518.516L-173.037 250.515" stroke="#1C76FD" stroke-width="0.5"/>
<path d="M274.427 -516.516L-169.573 252.515" stroke="#1C76FD" stroke-width="0.5"/>
<path d="M277.891 -514.516L-166.109 254.515" stroke="#1C76FD" stroke-width="0.5"/>
<path d="M281.356 -512.516L-162.644 256.515" stroke="#1C76FD" stroke-width="0.5"/>
<path d="M284.82 -510.516L-159.18 258.515" stroke="#1C76FD" stroke-width="0.5"/>
<path d="M288.284 -508.516L-155.716 260.515" stroke="#1C76FD" stroke-width="0.5"/>
<path d="M291.748 -506.516L-152.252 262.515" stroke="#1C76FD" stroke-width="0.5"/>
<path d="M295.212 -504.516L-148.788 264.515" stroke="#1C76FD" stroke-width="0.5"/>
<path d="M298.676 -502.516L-145.324 266.515" stroke="#1C76FD" stroke-width="0.5"/>
<path d="M302.14 -500.516L-141.86 268.515" stroke="#1C76FD" stroke-width="0.5"/>
<path d="M305.604 -498.516L-138.396 270.515" stroke="#1C76FD" stroke-width="0.5"/>
<path d="M309.068 -496.516L-134.932 272.515" stroke="#1C76FD" stroke-width="0.5"/>
<path d="M312.533 -494.516L-131.467 274.515" stroke="#1C76FD" stroke-width="0.5"/>
<path d="M315.997 -492.516L-128.003 276.515" stroke="#1C76FD" stroke-width="0.5"/>
<path d="M319.461 -490.516L-124.539 278.515" stroke="#1C76FD" stroke-width="0.5"/>
<path d="M322.925 -488.516L-121.075 280.515" stroke="#1C76FD" stroke-width="0.5"/>
<path d="M326.389 -486.516L-117.611 282.515" stroke="#1C76FD" stroke-width="0.5"/>
<path d="M329.853 -484.516L-114.147 284.515" stroke="#1C76FD" stroke-width="0.5"/>
<path d="M333.317 -482.516L-110.683 286.515" stroke="#1C76FD" stroke-width="0.5"/>
<path d="M336.781 -480.516L-107.219 288.515" stroke="#1C76FD" stroke-width="0.5"/>
<path d="M340.245 -478.516L-103.755 290.515" stroke="#1C76FD" stroke-width="0.5"/>
<path d="M343.709 -476.516L-100.291 292.515" stroke="#1C76FD" stroke-width="0.5"/>
<path d="M347.174 -474.516L-96.8265 294.515" stroke="#1C76FD" stroke-width="0.5"/>
<path d="M350.638 -472.516L-93.3624 296.515" stroke="#1C76FD" stroke-width="0.5"/>
<path d="M354.102 -470.516L-89.8982 298.515" stroke="#1C76FD" stroke-width="0.5"/>
<path d="M357.566 -468.516L-86.4341 300.515" stroke="#1C76FD" stroke-width="0.5"/>
<path d="M361.03 -466.516L-82.97 302.515" stroke="#1C76FD" stroke-width="0.5"/>
<path d="M364.494 -464.516L-79.506 304.515" stroke="#1C76FD" stroke-width="0.5"/>
<path d="M367.958 -462.516L-76.0419 306.515" stroke="#1C76FD" stroke-width="0.5"/>
<path d="M371.422 -460.516L-72.5777 308.515" stroke="#1C76FD" stroke-width="0.5"/>
<path d="M374.886 -458.516L-69.1136 310.515" stroke="#1C76FD" stroke-width="0.5"/>
<path d="M378.35 -456.516L-65.6495 312.515" stroke="#1C76FD" stroke-width="0.5"/>
<path d="M381.815 -454.516L-62.1854 314.515" stroke="#1C76FD" stroke-width="0.5"/>
<path d="M385.279 -452.516L-58.7214 316.515" stroke="#1C76FD" stroke-width="0.5"/>
<path d="M388.743 -450.516L-55.2573 318.515" stroke="#1C76FD" stroke-width="0.5"/>
<path d="M392.207 -448.516L-51.7931 320.515" stroke="#1C76FD" stroke-width="0.5"/>
<path d="M395.671 -446.516L-48.329 322.515" stroke="#1C76FD" stroke-width="0.5"/>
<path d="M399.135 -444.516L-44.8649 324.515" stroke="#1C76FD" stroke-width="0.5"/>
<path d="M402.599 -442.516L-41.4008 326.515" stroke="#1C76FD" stroke-width="0.5"/>
<path d="M406.063 -440.516L-37.9368 328.515" stroke="#1C76FD" stroke-width="0.5"/>
<path d="M409.527 -438.516L-34.4726 330.515" stroke="#1C76FD" stroke-width="0.5"/>
<path d="M412.991 -436.516L-31.0085 332.515" stroke="#1C76FD" stroke-width="0.5"/>
<path d="M416.456 -434.516L-27.5444 334.515" stroke="#1C76FD" stroke-width="0.5"/>
<path d="M419.92 -432.516L-24.0803 336.515" stroke="#1C76FD" stroke-width="0.5"/>
<path d="M423.384 -430.516L-20.6162 338.515" stroke="#1C76FD" stroke-width="0.5"/>
<path d="M426.848 -428.516L-17.1521 340.515" stroke="#1C76FD" stroke-width="0.5"/>
<path d="M430.312 -426.516L-13.688 342.515" stroke="#1C76FD" stroke-width="0.5"/>
<path d="M433.776 -424.516L-10.2239 344.515" stroke="#1C76FD" stroke-width="0.5"/>
<path d="M437.24 -422.516L-6.75981 346.515" stroke="#1C76FD" stroke-width="0.5"/>
<path d="M440.704 -420.516L-3.2957 348.515" stroke="#1C76FD" stroke-width="0.5"/>
<path d="M444.168 -418.516L0.168408 350.515" stroke="#1C76FD" stroke-width="0.5"/>
<path d="M447.633 -416.516L3.63252 352.515" stroke="#1C76FD" stroke-width="0.5"/>
<path d="M451.097 -414.516L7.09657 354.515" stroke="#1C76FD" stroke-width="0.5"/>
<path d="M454.561 -412.516L10.5607 356.515" stroke="#1C76FD" stroke-width="0.5"/>
<path d="M458.025 -410.516L14.0248 358.515" stroke="#1C76FD" stroke-width="0.5"/>
<path d="M461.489 -408.516L17.4889 360.515" stroke="#1C76FD" stroke-width="0.5"/>
<path d="M464.953 -406.516L20.953 362.515" stroke="#1C76FD" stroke-width="0.5"/>
<path d="M468.417 -404.516L24.4171 364.515" stroke="#1C76FD" stroke-width="0.5"/>
<path d="M471.881 -402.516L27.8812 366.515" stroke="#1C76FD" stroke-width="0.5"/>
<path d="M475.345 -400.516L31.3453 368.515" stroke="#1C76FD" stroke-width="0.5"/>
<path d="M478.809 -398.516L34.8094 370.515" stroke="#1C76FD" stroke-width="0.5"/>
<path d="M482.273 -396.516L38.2735 372.515" stroke="#1C76FD" stroke-width="0.5"/>
<path d="M485.738 -394.516L41.7376 374.515" stroke="#1C76FD" stroke-width="0.5"/>
<path d="M489.202 -392.516L45.2017 376.515" stroke="#1C76FD" stroke-width="0.5"/>
<path d="M492.666 -390.516L48.6658 378.515" stroke="#1C76FD" stroke-width="0.5"/>
<path d="M496.13 -388.516L52.1299 380.515" stroke="#1C76FD" stroke-width="0.5"/>
<path d="M499.594 -386.516L55.594 382.515" stroke="#1C76FD" stroke-width="0.5"/>
<path d="M503.058 -384.516L59.0581 384.515" stroke="#1C76FD" stroke-width="0.5"/>
<path d="M506.522 -382.516L62.5222 386.515" stroke="#1C76FD" stroke-width="0.5"/>
<path d="M509.986 -380.516L65.9863 388.515" stroke="#1C76FD" stroke-width="0.5"/>
<path d="M513.45 -378.516L69.4504 390.515" stroke="#1C76FD" stroke-width="0.5"/>
<path d="M516.914 -376.516L72.9145 392.515" stroke="#1C76FD" stroke-width="0.5"/>
<path d="M520.379 -374.516L76.3786 394.515" stroke="#1C76FD" stroke-width="0.5"/>
<path d="M523.843 -372.516L79.8427 396.515" stroke="#1C76FD" stroke-width="0.5"/>
<path d="M527.307 -370.516L83.3068 398.515" stroke="#1C76FD" stroke-width="0.5"/>
<path d="M530.771 -368.516L86.7709 400.515" stroke="#1C76FD" stroke-width="0.5"/>
<path d="M534.235 -366.516L90.2351 402.515" stroke="#1C76FD" stroke-width="0.5"/>
<path d="M537.699 -364.516L93.6991 404.515" stroke="#1C76FD" stroke-width="0.5"/>
<path d="M541.163 -362.516L97.1632 406.515" stroke="#1C76FD" stroke-width="0.5"/>
<path d="M544.627 -360.516L100.627 408.515" stroke="#1C76FD" stroke-width="0.5"/>
<path d="M548.091 -358.516L104.091 410.515" stroke="#1C76FD" stroke-width="0.5"/>
<path d="M551.556 -356.516L107.556 412.515" stroke="#1C76FD" stroke-width="0.5"/>
<path d="M555.02 -354.516L111.02 414.515" stroke="#1C76FD" stroke-width="0.5"/>
<path d="M558.484 -352.516L114.484 416.515" stroke="#1C76FD" stroke-width="0.5"/>
<path d="M561.948 -350.516L117.948 418.515" stroke="#1C76FD" stroke-width="0.5"/>
<path d="M565.412 -348.516L121.412 420.515" stroke="#1C76FD" stroke-width="0.5"/>
<path d="M568.876 -346.516L124.876 422.515" stroke="#1C76FD" stroke-width="0.5"/>
<path d="M572.34 -344.516L128.34 424.515" stroke="#1C76FD" stroke-width="0.5"/>
<path d="M575.804 -342.516L131.804 426.515" stroke="#1C76FD" stroke-width="0.5"/>
<path d="M579.268 -340.516L135.268 428.515" stroke="#1C76FD" stroke-width="0.5"/>
<path d="M582.732 -338.516L138.732 430.515" stroke="#1C76FD" stroke-width="0.5"/>
<path d="M586.197 -336.516L142.197 432.515" stroke="#1C76FD" stroke-width="0.5"/>
<path d="M589.661 -334.516L145.661 434.515" stroke="#1C76FD" stroke-width="0.5"/>
<path d="M593.125 -332.516L149.125 436.515" stroke="#1C76FD" stroke-width="0.5"/>
<path d="M596.589 -330.516L152.589 438.515" stroke="#1C76FD" stroke-width="0.5"/>
<path d="M600.053 -328.516L156.053 440.515" stroke="#1C76FD" stroke-width="0.5"/>
<path d="M603.517 -326.516L159.517 442.515" stroke="#1C76FD" stroke-width="0.5"/>
<path d="M606.981 -324.516L162.981 444.515" stroke="#1C76FD" stroke-width="0.5"/>
<path d="M610.445 -322.516L166.445 446.515" stroke="#1C76FD" stroke-width="0.5"/>
<path d="M613.909 -320.516L169.909 448.515" stroke="#1C76FD" stroke-width="0.5"/>
<path d="M617.373 -318.516L173.373 450.515" stroke="#1C76FD" stroke-width="0.5"/>
<path d="M620.838 -316.516L176.838 452.515" stroke="#1C76FD" stroke-width="0.5"/>
<path d="M624.302 -314.516L180.302 454.515" stroke="#1C76FD" stroke-width="0.5"/>
<path d="M627.766 -312.516L183.766 456.515" stroke="#1C76FD" stroke-width="0.5"/>
<path d="M631.23 -310.516L187.23 458.515" stroke="#1C76FD" stroke-width="0.5"/>
<path d="M634.694 -308.516L190.694 460.515" stroke="#1C76FD" stroke-width="0.5"/>
<path d="M638.158 -306.516L194.158 462.515" stroke="#1C76FD" stroke-width="0.5"/>
<path d="M641.622 -304.516L197.622 464.515" stroke="#1C76FD" stroke-width="0.5"/>
<path d="M645.086 -302.516L201.086 466.515" stroke="#1C76FD" stroke-width="0.5"/>
<path d="M648.55 -300.516L204.55 468.515" stroke="#1C76FD" stroke-width="0.5"/>
<path d="M652.015 -298.516L208.015 470.515" stroke="#1C76FD" stroke-width="0.5"/>
<path d="M655.479 -296.516L211.479 472.515" stroke="#1C76FD" stroke-width="0.5"/>
<path d="M658.943 -294.516L214.943 474.515" stroke="#1C76FD" stroke-width="0.5"/>
<path d="M662.407 -292.516L218.407 476.515" stroke="#1C76FD" stroke-width="0.5"/>
<path d="M665.871 -290.516L221.871 478.515" stroke="#1C76FD" stroke-width="0.5"/>
<path d="M669.335 -288.516L225.335 480.515" stroke="#1C76FD" stroke-width="0.5"/>
<path d="M672.799 -286.516L228.799 482.515" stroke="#1C76FD" stroke-width="0.5"/>
<path d="M676.263 -284.516L232.263 484.515" stroke="#1C76FD" stroke-width="0.5"/>
<path d="M679.727 -282.516L235.727 486.515" stroke="#1C76FD" stroke-width="0.5"/>
<path d="M683.191 -280.516L239.191 488.515" stroke="#1C76FD" stroke-width="0.5"/>
<path d="M686.656 -278.516L242.656 490.515" stroke="#1C76FD" stroke-width="0.5"/>
<path d="M690.12 -276.516L246.12 492.515" stroke="#1C76FD" stroke-width="0.5"/>
<path d="M693.584 -274.516L249.584 494.515" stroke="#1C76FD" stroke-width="0.5"/>
<path d="M697.048 -272.516L253.048 496.515" stroke="#1C76FD" stroke-width="0.5"/>
<path d="M700.512 -270.516L256.512 498.515" stroke="#1C76FD" stroke-width="0.5"/>
<path d="M703.976 -268.516L259.976 500.515" stroke="#1C76FD" stroke-width="0.5"/>
<path d="M707.44 -266.516L263.44 502.515" stroke="#1C76FD" stroke-width="0.5"/>
<path d="M710.904 -264.516L266.904 504.515" stroke="#1C76FD" stroke-width="0.5"/>
<path d="M714.368 -262.516L270.368 506.515" stroke="#1C76FD" stroke-width="0.5"/>
<path d="M717.832 -260.516L273.832 508.515" stroke="#1C76FD" stroke-width="0.5"/>
<path d="M721.297 -258.516L277.297 510.515" stroke="#1C76FD" stroke-width="0.5"/>
<path d="M724.761 -256.516L280.761 512.515" stroke="#1C76FD" stroke-width="0.5"/>
<path d="M728.225 -254.516L284.225 514.515" stroke="#1C76FD" stroke-width="0.5"/>
<path d="M731.689 -252.516L287.689 516.515" stroke="#1C76FD" stroke-width="0.5"/>
<path d="M735.153 -250.516L291.153 518.515" stroke="#1C76FD" stroke-width="0.5"/>
<path d="M738.617 -248.516L294.617 520.515" stroke="#1C76FD" stroke-width="0.5"/>
<path d="M742.081 -246.516L298.081 522.515" stroke="#1C76FD" stroke-width="0.5"/>
<path d="M745.545 -244.516L301.545 524.515" stroke="#1C76FD" stroke-width="0.5"/>
<path d="M749.009 -242.516L305.009 526.515" stroke="#1C76FD" stroke-width="0.5"/>
<path d="M752.473 -240.516L308.473 528.515" stroke="#1C76FD" stroke-width="0.5"/>
<path d="M755.938 -238.516L311.938 530.515" stroke="#1C76FD" stroke-width="0.5"/>
<path d="M759.402 -236.516L315.402 532.515" stroke="#1C76FD" stroke-width="0.5"/>
<path d="M762.866 -234.516L318.866 534.515" stroke="#1C76FD" stroke-width="0.5"/>
<path d="M766.33 -232.516L322.33 536.515" stroke="#1C76FD" stroke-width="0.5"/>
<path d="M769.794 -230.516L325.794 538.515" stroke="#1C76FD" stroke-width="0.5"/>
<path d="M773.258 -228.516L329.258 540.515" stroke="#1C76FD" stroke-width="0.5"/>
<path d="M776.722 -226.516L332.722 542.515" stroke="#1C76FD" stroke-width="0.5"/>
<path d="M780.186 -224.516L336.186 544.515" stroke="#1C76FD" stroke-width="0.5"/>
<path d="M783.65 -222.516L339.65 546.515" stroke="#1C76FD" stroke-width="0.5"/>
<path d="M787.114 -220.516L343.114 548.515" stroke="#1C76FD" stroke-width="0.5"/>
<path d="M790.578 -218.516L346.579 550.515" stroke="#1C76FD" stroke-width="0.5"/>
<path d="M794.043 -216.516L350.043 552.515" stroke="#1C76FD" stroke-width="0.5"/>
<path d="M797.507 -214.516L353.507 554.515" stroke="#1C76FD" stroke-width="0.5"/>
<path d="M800.971 -212.516L356.971 556.515" stroke="#1C76FD" stroke-width="0.5"/>
<path d="M804.435 -210.516L360.435 558.515" stroke="#1C76FD" stroke-width="0.5"/>
<path d="M807.899 -208.516L363.899 560.515" stroke="#1C76FD" stroke-width="0.5"/>
<path d="M811.363 -206.516L367.363 562.515" stroke="#1C76FD" stroke-width="0.5"/>
<path d="M814.827 -204.516L370.827 564.515" stroke="#1C76FD" stroke-width="0.5"/>
<path d="M818.291 -202.516L374.291 566.515" stroke="#1C76FD" stroke-width="0.5"/>
<path d="M821.755 -200.516L377.756 568.515" stroke="#1C76FD" stroke-width="0.5"/>
<path d="M825.22 -198.516L381.22 570.515" stroke="#1C76FD" stroke-width="0.5"/>
<path d="M828.684 -196.516L384.684 572.515" stroke="#1C76FD" stroke-width="0.5"/>
<path d="M832.148 -194.516L388.148 574.515" stroke="#1C76FD" stroke-width="0.5"/>
<path d="M835.612 -192.516L391.612 576.515" stroke="#1C76FD" stroke-width="0.5"/>
<path d="M839.076 -190.516L395.076 578.515" stroke="#1C76FD" stroke-width="0.5"/>
<path d="M842.54 -188.516L398.54 580.515" stroke="#1C76FD" stroke-width="0.5"/>
<path d="M846.004 -186.516L402.004 582.515" stroke="#1C76FD" stroke-width="0.5"/>
<path d="M849.468 -184.516L405.468 584.515" stroke="#1C76FD" stroke-width="0.5"/>
<path d="M852.932 -182.516L408.932 586.515" stroke="#1C76FD" stroke-width="0.5"/>
<path d="M856.396 -180.516L412.396 588.515" stroke="#1C76FD" stroke-width="0.5"/>
<path d="M859.861 -178.516L415.861 590.515" stroke="#1C76FD" stroke-width="0.5"/>
<path d="M863.325 -176.516L419.325 592.515" stroke="#1C76FD" stroke-width="0.5"/>
<path d="M866.789 -174.516L422.789 594.515" stroke="#1C76FD" stroke-width="0.5"/>
<path d="M870.253 -172.516L426.253 596.515" stroke="#1C76FD" stroke-width="0.5"/>
<path d="M873.717 -170.516L429.717 598.515" stroke="#1C76FD" stroke-width="0.5"/>
<path d="M877.181 -168.516L433.181 600.515" stroke="#1C76FD" stroke-width="0.5"/>
<path d="M880.645 -166.516L436.645 602.515" stroke="#1C76FD" stroke-width="0.5"/>
<path d="M884.109 -164.516L440.109 604.515" stroke="#1C76FD" stroke-width="0.5"/>
<path d="M887.573 -162.516L443.573 606.515" stroke="#1C76FD" stroke-width="0.5"/>
<path d="M891.037 -160.516L447.037 608.515" stroke="#1C76FD" stroke-width="0.5"/>
<path d="M894.502 -158.516L450.502 610.515" stroke="#1C76FD" stroke-width="0.5"/>
<path d="M897.966 -156.516L453.966 612.515" stroke="#1C76FD" stroke-width="0.5"/>
<path d="M901.43 -154.516L457.43 614.515" stroke="#1C76FD" stroke-width="0.5"/>
<path d="M904.894 -152.516L460.894 616.515" stroke="#1C76FD" stroke-width="0.5"/>
<path d="M908.358 -150.516L464.358 618.515" stroke="#1C76FD" stroke-width="0.5"/>
<path d="M911.822 -148.516L467.822 620.515" stroke="#1C76FD" stroke-width="0.5"/>
<path d="M915.286 -146.516L471.286 622.515" stroke="#1C76FD" stroke-width="0.5"/>
<path d="M918.75 -144.516L474.75 624.515" stroke="#1C76FD" stroke-width="0.5"/>
<path d="M922.214 -142.516L478.214 626.515" stroke="#1C76FD" stroke-width="0.5"/>
<path d="M925.678 -140.516L481.678 628.515" stroke="#1C76FD" stroke-width="0.5"/>
<path d="M929.143 -138.516L485.143 630.515" stroke="#1C76FD" stroke-width="0.5"/>
<path d="M932.607 -136.516L488.607 632.515" stroke="#1C76FD" stroke-width="0.5"/>
<path d="M936.071 -134.516L492.071 634.515" stroke="#1C76FD" stroke-width="0.5"/>
<path d="M939.535 -132.516L495.535 636.515" stroke="#1C76FD" stroke-width="0.5"/>
<path d="M942.999 -130.516L498.999 638.515" stroke="#1C76FD" stroke-width="0.5"/>
<path d="M946.463 -128.516L502.463 640.515" stroke="#1C76FD" stroke-width="0.5"/>
<path d="M949.927 -126.516L505.927 642.515" stroke="#1C76FD" stroke-width="0.5"/>
<path d="M953.391 -124.516L509.391 644.515" stroke="#1C76FD" stroke-width="0.5"/>
<path d="M956.855 -122.516L512.855 646.515" stroke="#1C76FD" stroke-width="0.5"/>
<path d="M960.319 -120.516L516.319 648.515" stroke="#1C76FD" stroke-width="0.5"/>
<path d="M963.784 -118.516L519.784 650.515" stroke="#1C76FD" stroke-width="0.5"/>
<path d="M967.248 -116.516L523.248 652.515" stroke="#1C76FD" stroke-width="0.5"/>
<path d="M970.712 -114.516L526.712 654.515" stroke="#1C76FD" stroke-width="0.5"/>
<path d="M974.176 -112.516L530.176 656.515" stroke="#1C76FD" stroke-width="0.5"/>
<path d="M977.64 -110.516L533.64 658.515" stroke="#1C76FD" stroke-width="0.5"/>
<path d="M981.104 -108.516L537.104 660.515" stroke="#1C76FD" stroke-width="0.5"/>
<path d="M984.568 -106.516L540.568 662.515" stroke="#1C76FD" stroke-width="0.5"/>
<path d="M988.032 -104.516L544.032 664.515" stroke="#1C76FD" stroke-width="0.5"/>
<path d="M991.496 -102.516L547.496 666.515" stroke="#1C76FD" stroke-width="0.5"/>
<path d="M994.961 -100.516L550.961 668.515" stroke="#1C76FD" stroke-width="0.5"/>
<path d="M998.425 -98.5156L554.425 670.515" stroke="#1C76FD" stroke-width="0.5"/>
<path d="M1001.89 -96.5156L557.889 672.515" stroke="#1C76FD" stroke-width="0.5"/>
<path d="M1005.35 -94.5156L561.353 674.515" stroke="#1C76FD" stroke-width="0.5"/>
<path d="M1008.82 -92.5156L564.817 676.515" stroke="#1C76FD" stroke-width="0.5"/>
<path d="M1012.28 -90.5156L568.281 678.515" stroke="#1C76FD" stroke-width="0.5"/>
<path d="M1015.75 -88.5156L571.745 680.515" stroke="#1C76FD" stroke-width="0.5"/>
<path d="M1019.21 -86.5156L575.209 682.515" stroke="#1C76FD" stroke-width="0.5"/>
<path d="M1022.67 -84.5156L578.673 684.515" stroke="#1C76FD" stroke-width="0.5"/>
<path d="M1026.14 -82.5156L582.137 686.515" stroke="#1C76FD" stroke-width="0.5"/>
<path d="M1029.6 -80.5156L585.602 688.515" stroke="#1C76FD" stroke-width="0.5"/>
<path d="M1033.07 -78.5156L589.066 690.515" stroke="#1C76FD" stroke-width="0.5"/>
<path d="M1036.53 -76.5156L592.53 692.515" stroke="#1C76FD" stroke-width="0.5"/>
<path d="M1039.99 -74.5156L595.994 694.515" stroke="#1C76FD" stroke-width="0.5"/>
<path d="M1043.46 -72.5156L599.458 696.515" stroke="#1C76FD" stroke-width="0.5"/>
<path d="M1046.92 -70.5156L602.922 698.515" stroke="#1C76FD" stroke-width="0.5"/>
<path d="M1050.39 -68.5156L606.386 700.515" stroke="#1C76FD" stroke-width="0.5"/>
<path d="M1053.85 -66.5156L609.85 702.515" stroke="#1C76FD" stroke-width="0.5"/>
<path d="M1057.31 -64.5156L613.314 704.515" stroke="#1C76FD" stroke-width="0.5"/>
<path d="M1060.78 -62.5156L616.778 706.515" stroke="#1C76FD" stroke-width="0.5"/>
<path d="M1064.24 -60.5156L620.243 708.515" stroke="#1C76FD" stroke-width="0.5"/>
<path d="M1067.71 -58.5156L623.707 710.515" stroke="#1C76FD" stroke-width="0.5"/>
<path d="M1071.17 -56.5156L627.171 712.515" stroke="#1C76FD" stroke-width="0.5"/>
<path d="M1074.63 -54.5156L630.635 714.515" stroke="#1C76FD" stroke-width="0.5"/>
<path d="M1078.1 -52.5156L634.099 716.515" stroke="#1C76FD" stroke-width="0.5"/>
<path d="M1081.56 -50.5156L637.563 718.515" stroke="#1C76FD" stroke-width="0.5"/>
<path d="M1085.03 -48.5156L641.027 720.515" stroke="#1C76FD" stroke-width="0.5"/>
<path d="M1088.49 -46.5156L644.491 722.515" stroke="#1C76FD" stroke-width="0.5"/>
<path d="M1091.96 -44.5156L647.955 724.515" stroke="#1C76FD" stroke-width="0.5"/>
<path d="M1095.42 -42.5156L651.419 726.515" stroke="#1C76FD" stroke-width="0.5"/>
<path d="M1098.88 -40.5156L654.884 728.515" stroke="#1C76FD" stroke-width="0.5"/>
<path d="M1102.35 -38.5156L658.348 730.515" stroke="#1C76FD" stroke-width="0.5"/>
<path d="M1105.81 -36.5156L661.812 732.515" stroke="#1C76FD" stroke-width="0.5"/>
<path d="M1109.28 -34.5156L665.276 734.515" stroke="#1C76FD" stroke-width="0.5"/>
<path d="M1112.74 -32.5156L668.74 736.515" stroke="#1C76FD" stroke-width="0.5"/>
<path d="M1116.2 -30.5156L672.204 738.515" stroke="#1C76FD" stroke-width="0.5"/>
<path d="M1119.67 -28.5156L675.668 740.515" stroke="#1C76FD" stroke-width="0.5"/>
<path d="M1123.13 -26.5156L679.132 742.515" stroke="#1C76FD" stroke-width="0.5"/>
<path d="M1126.6 -24.5156L682.596 744.515" stroke="#1C76FD" stroke-width="0.5"/>
<path d="M1130.06 -22.5156L686.06 746.515" stroke="#1C76FD" stroke-width="0.5"/>
<path d="M1133.52 -20.5156L689.525 748.515" stroke="#1C76FD" stroke-width="0.5"/>
<path d="M1136.99 -18.5156L692.989 750.515" stroke="#1C76FD" stroke-width="0.5"/>
<path d="M1140.45 -16.5156L696.453 752.515" stroke="#1C76FD" stroke-width="0.5"/>
<path d="M1143.92 -14.5156L699.917 754.515" stroke="#1C76FD" stroke-width="0.5"/>
<path d="M1147.38 -12.5156L703.381 756.515" stroke="#1C76FD" stroke-width="0.5"/>
<path d="M1150.85 -10.5156L706.845 758.515" stroke="#1C76FD" stroke-width="0.5"/>
<path d="M1154.31 -8.51562L710.309 760.515" stroke="#1C76FD" stroke-width="0.5"/>
<path d="M1157.77 -6.51562L713.773 762.515" stroke="#1C76FD" stroke-width="0.5"/>
<path d="M1161.24 -4.51562L717.237 764.515" stroke="#1C76FD" stroke-width="0.5"/>
<path d="M1164.7 -2.51562L720.702 766.515" stroke="#1C76FD" stroke-width="0.5"/>
<path d="M1168.17 -0.515625L724.166 768.515" stroke="#1C76FD" stroke-width="0.5"/>
<path d="M1171.63 1.48438L727.63 770.515" stroke="#1C76FD" stroke-width="0.5"/>
<path d="M1175.09 3.48438L731.094 772.515" stroke="#1C76FD" stroke-width="0.5"/>
<path d="M1178.56 5.48438L734.558 774.515" stroke="#1C76FD" stroke-width="0.5"/>
<path d="M1182.02 7.48438L738.022 776.515" stroke="#1C76FD" stroke-width="0.5"/>
<path d="M1185.49 9.48438L741.486 778.515" stroke="#1C76FD" stroke-width="0.5"/>
<path d="M1188.95 11.4844L744.95 780.515" stroke="#1C76FD" stroke-width="0.5"/>
<path d="M1192.41 13.4844L748.414 782.515" stroke="#1C76FD" stroke-width="0.5"/>
<path d="M1195.88 15.4844L751.878 784.515" stroke="#1C76FD" stroke-width="0.5"/>
<path d="M1199.34 17.4844L755.343 786.515" stroke="#1C76FD" stroke-width="0.5"/>
<path d="M1202.81 19.4844L758.807 788.515" stroke="#1C76FD" stroke-width="0.5"/>
<path d="M1206.27 21.4844L762.271 790.515" stroke="#1C76FD" stroke-width="0.5"/>
<path d="M1209.73 23.4844L765.735 792.515" stroke="#1C76FD" stroke-width="0.5"/>
</g>
<defs>
<linearGradient id="paint0_linear_11610_25620" x1="824.5" y1="15.5" x2="7.59961" y2="389.36" gradientUnits="userSpaceOnUse">
<stop stop-color="#FF5500"/>
<stop offset="0.405918" stop-color="#FF5500" stop-opacity="0.3"/>
<stop offset="0.500604" stop-color="#FF5500" stop-opacity="0"/>
<stop offset="0.757591" stop-color="#FF5500" stop-opacity="0.3"/>
<stop offset="1" stop-color="#FF5500"/>
</linearGradient>
</defs>
</svg>
