<svg width="375" height="560" viewBox="0 0 375 560" fill="none" xmlns="http://www.w3.org/2000/svg">
<mask id="mask0_11805_92038" style="mask-type:alpha" maskUnits="userSpaceOnUse" x="-398" y="-525" width="1172" height="1172">
<circle cx="188" cy="61.2608" r="585.696" fill="url(#paint0_radial_11805_92038)" fill-opacity="0.6"/>
</mask>
<g mask="url(#mask0_11805_92038)">
<path fill-rule="evenodd" clip-rule="evenodd" d="M187.79 646.957L187.79 -524.436L188.208 -524.436L188.208 646.957L187.79 646.957Z" fill="#CECFCF"/>
<path fill-rule="evenodd" clip-rule="evenodd" d="M-397.697 61.0517L773.695 61.0518L773.695 61.4695L-397.697 61.4695L-397.697 61.0517Z" fill="#CECFCF"/>
<path fill-rule="evenodd" clip-rule="evenodd" d="M-105.03 568.384L480.666 -446.072L481.028 -445.863L-104.668 568.593L-105.03 568.384Z" fill="#CECFCF"/>
<path fill-rule="evenodd" clip-rule="evenodd" d="M-319.124 -231.768L695.332 353.928L695.123 354.29L-319.333 -231.407L-319.124 -231.768Z" fill="#CECFCF"/>
<path fill-rule="evenodd" clip-rule="evenodd" d="M-319.333 353.928L695.123 -231.768L695.331 -231.407L-319.124 354.29L-319.333 353.928Z" fill="#CECFCF"/>
<path fill-rule="evenodd" clip-rule="evenodd" d="M-104.668 -446.072L481.028 568.384L480.667 568.593L-105.03 -445.863L-104.668 -446.072Z" fill="#CECFCF"/>
<path fill-rule="evenodd" clip-rule="evenodd" d="M-226.299 475.263L602.001 -353.037L602.296 -352.741L-226.003 475.558L-226.299 475.263Z" fill="#CECFCF"/>
<path fill-rule="evenodd" clip-rule="evenodd" d="M-226.003 -353.037L602.296 475.263L602.001 475.558L-226.299 -352.741L-226.003 -353.037Z" fill="#CECFCF"/>
<path fill-rule="evenodd" clip-rule="evenodd" d="M-377.794 212.648L753.684 -90.5303L753.792 -90.1268L-377.686 213.052L-377.794 212.648Z" fill="#CECFCF"/>
<path fill-rule="evenodd" clip-rule="evenodd" d="M36.6109 -504.533L339.79 626.946L339.386 627.054L36.2074 -504.424L36.6109 -504.533Z" fill="#CECFCF"/>
<path fill-rule="evenodd" clip-rule="evenodd" d="M-377.686 -90.5303L753.792 212.648L753.684 213.052L-377.794 -90.1268L-377.686 -90.5303Z" fill="#CECFCF"/>
<path fill-rule="evenodd" clip-rule="evenodd" d="M339.79 -504.424L36.6116 627.054L36.208 626.946L339.387 -504.533L339.79 -504.424Z" fill="#CECFCF"/>
<path fill-rule="evenodd" clip-rule="evenodd" d="M-395.451 10.0059L771.484 112.099L771.448 112.516L-395.487 10.422L-395.451 10.0059Z" fill="#CECFCF"/>
<path fill-rule="evenodd" clip-rule="evenodd" d="M239.254 -522.189L137.16 644.746L136.744 644.71L238.837 -522.225L239.254 -522.189Z" fill="#CECFCF"/>
<path fill-rule="evenodd" clip-rule="evenodd" d="M-291.655 -274.852L667.893 397.031L667.654 397.373L-291.895 -274.51L-291.655 -274.852Z" fill="#CECFCF"/>
<path fill-rule="evenodd" clip-rule="evenodd" d="M524.112 -418.394L-147.771 541.155L-148.113 540.915L523.77 -418.633L524.112 -418.394Z" fill="#CECFCF"/>
<path fill-rule="evenodd" clip-rule="evenodd" d="M-59.3381 -469.649L435.714 591.994L435.335 592.17L-59.7167 -469.472L-59.3381 -469.649Z" fill="#CECFCF"/>
<path fill-rule="evenodd" clip-rule="evenodd" d="M718.908 -186.076L-342.734 308.976L-342.911 308.597L718.731 -186.455L718.908 -186.076Z" fill="#CECFCF"/>
<path fill-rule="evenodd" clip-rule="evenodd" d="M-188.32 -387.543L564.637 509.796L564.317 510.065L-188.64 -387.274L-188.32 -387.543Z" fill="#CECFCF"/>
<path fill-rule="evenodd" clip-rule="evenodd" d="M636.802 -315.058L-260.536 437.899L-260.805 437.579L636.534 -315.378L636.802 -315.058Z" fill="#CECFCF"/>
<path fill-rule="evenodd" clip-rule="evenodd" d="M86.4997 -515.574L289.91 638.023L289.499 638.095L86.0883 -515.501L86.4997 -515.574Z" fill="#CECFCF"/>
<path fill-rule="evenodd" clip-rule="evenodd" d="M764.833 -40.2387L-388.764 163.171L-388.836 162.76L764.76 -40.6501L764.833 -40.2387Z" fill="#CECFCF"/>
<path fill-rule="evenodd" clip-rule="evenodd" d="M388.516 -489.042L-12.124 611.707L-12.5166 611.564L388.123 -489.185L388.516 -489.042Z" fill="#CECFCF"/>
<path fill-rule="evenodd" clip-rule="evenodd" d="M738.302 261.777L-362.447 -138.863L-362.304 -139.256L738.445 261.384L738.302 261.777Z" fill="#CECFCF"/>
<path fill-rule="evenodd" clip-rule="evenodd" d="M-395.487 112.1L771.448 10.0059L771.485 10.422L-395.45 112.516L-395.487 112.1Z" fill="#CECFCF"/>
<path fill-rule="evenodd" clip-rule="evenodd" d="M137.16 -522.225L239.253 644.71L238.837 644.746L136.744 -522.189L137.16 -522.225Z" fill="#CECFCF"/>
<path fill-rule="evenodd" clip-rule="evenodd" d="M-342.734 -186.455L718.908 308.597L718.732 308.976L-342.911 -186.076L-342.734 -186.455Z" fill="#CECFCF"/>
<path fill-rule="evenodd" clip-rule="evenodd" d="M435.714 -469.472L-59.3379 592.17L-59.7165 591.994L435.335 -469.649L435.714 -469.472Z" fill="#CECFCF"/>
<path fill-rule="evenodd" clip-rule="evenodd" d="M-147.771 -418.633L524.112 540.915L523.77 541.155L-148.113 -418.394L-147.771 -418.633Z" fill="#CECFCF"/>
<path fill-rule="evenodd" clip-rule="evenodd" d="M667.893 -274.51L-291.655 397.373L-291.895 397.031L667.654 -274.852L667.893 -274.51Z" fill="#CECFCF"/>
<path fill-rule="evenodd" clip-rule="evenodd" d="M-260.536 -315.378L636.803 437.579L636.534 437.899L-260.804 -315.058L-260.536 -315.378Z" fill="#CECFCF"/>
<path fill-rule="evenodd" clip-rule="evenodd" d="M564.638 -387.274L-188.319 510.064L-188.639 509.796L564.317 -387.543L564.638 -387.274Z" fill="#CECFCF"/>
<path fill-rule="evenodd" clip-rule="evenodd" d="M-12.1245 -489.185L388.515 611.564L388.123 611.707L-12.517 -489.042L-12.1245 -489.185Z" fill="#CECFCF"/>
<path fill-rule="evenodd" clip-rule="evenodd" d="M738.445 -138.863L-362.304 261.777L-362.447 261.385L738.302 -139.255L738.445 -138.863Z" fill="#CECFCF"/>
<path fill-rule="evenodd" clip-rule="evenodd" d="M289.91 -515.501L86.4995 638.095L86.0881 638.023L289.498 -515.574L289.91 -515.501Z" fill="#CECFCF"/>
<path fill-rule="evenodd" clip-rule="evenodd" d="M764.761 163.171L-388.835 -40.2388L-388.763 -40.6502L764.833 162.76L764.761 163.171Z" fill="#CECFCF"/>
<path fill-rule="evenodd" clip-rule="evenodd" d="M177.569 646.864L198.012 -524.35L198.43 -524.343L177.986 646.871L177.569 646.864Z" fill="#CECFCF"/>
<path fill-rule="evenodd" clip-rule="evenodd" d="M-397.604 50.83L773.61 71.2737L773.602 71.6914L-397.612 51.2477L-397.604 50.83Z" fill="#CECFCF"/>
<path fill-rule="evenodd" clip-rule="evenodd" d="M-113.836 563.193L489.476 -440.886L489.834 -440.671L-113.478 563.408L-113.836 563.193Z" fill="#CECFCF"/>
<path fill-rule="evenodd" clip-rule="evenodd" d="M-313.933 -240.574L690.146 362.738L689.931 363.096L-314.148 -240.216L-313.933 -240.574Z" fill="#CECFCF"/>
<path fill-rule="evenodd" clip-rule="evenodd" d="M-324.364 345.029L700.159 -222.873L700.362 -222.508L-324.161 345.395L-324.364 345.029Z" fill="#CECFCF"/>
<path fill-rule="evenodd" clip-rule="evenodd" d="M-95.7692 -451.102L472.133 573.421L471.768 573.624L-96.1346 -450.899L-95.7692 -451.102Z" fill="#CECFCF"/>
<path fill-rule="evenodd" clip-rule="evenodd" d="M-233.46 467.969L609.169 -345.748L609.459 -345.448L-233.17 468.27L-233.46 467.969Z" fill="#CECFCF"/>
<path fill-rule="evenodd" clip-rule="evenodd" d="M-218.71 -360.199L595.008 482.43L594.707 482.72L-219.01 -359.909L-218.71 -360.199Z" fill="#CECFCF"/>
<path fill-rule="evenodd" clip-rule="evenodd" d="M-380.35 202.751L756.248 -80.6345L756.349 -80.2292L-380.249 203.156L-380.35 202.751Z" fill="#CECFCF"/>
<path fill-rule="evenodd" clip-rule="evenodd" d="M46.5084 -507.088L329.894 629.509L329.488 629.61L46.1031 -506.987L46.5084 -507.088Z" fill="#CECFCF"/>
<path fill-rule="evenodd" clip-rule="evenodd" d="M-374.951 -100.38L751.064 222.5L750.949 222.901L-375.066 -99.9785L-374.951 -100.38Z" fill="#CECFCF"/>
<path fill-rule="evenodd" clip-rule="evenodd" d="M349.64 -501.689L26.76 624.326L26.3584 624.21L349.238 -501.804L349.64 -501.689Z" fill="#CECFCF"/>
<path fill-rule="evenodd" clip-rule="evenodd" d="M-394.467 -0.168878L770.508 122.275L770.465 122.69L-394.511 0.246591L-394.467 -0.168878Z" fill="#CECFCF"/>
<path fill-rule="evenodd" clip-rule="evenodd" d="M249.428 -521.205L126.984 643.77L126.569 643.726L249.013 -521.249L249.428 -521.205Z" fill="#CECFCF"/>
<path fill-rule="evenodd" clip-rule="evenodd" d="M-285.717 -283.172L661.96 405.355L661.714 405.693L-285.962 -282.834L-285.717 -283.172Z" fill="#CECFCF"/>
<path fill-rule="evenodd" clip-rule="evenodd" d="M532.432 -412.455L-156.095 535.222L-156.433 534.976L532.094 -412.7L532.432 -412.455Z" fill="#CECFCF"/>
<path fill-rule="evenodd" clip-rule="evenodd" d="M-50.0345 -473.884L426.414 596.236L426.032 596.406L-50.4161 -473.714L-50.0345 -473.884Z" fill="#CECFCF"/>
<path fill-rule="evenodd" clip-rule="evenodd" d="M723.144 -176.772L-346.976 299.676L-347.146 299.294L722.974 -177.154L723.144 -176.772Z" fill="#CECFCF"/>
<path fill-rule="evenodd" clip-rule="evenodd" d="M-180.429 -394.042L556.752 516.301L556.427 516.564L-180.754 -393.779L-180.429 -394.042Z" fill="#CECFCF"/>
<path fill-rule="evenodd" clip-rule="evenodd" d="M643.301 -307.167L-267.042 430.014L-267.305 429.689L643.038 -307.492L643.301 -307.167Z" fill="#CECFCF"/>
<path fill-rule="evenodd" clip-rule="evenodd" d="M96.582 -517.257L279.828 639.714L279.416 639.779L96.1694 -517.192L96.582 -517.257Z" fill="#CECFCF"/>
<path fill-rule="evenodd" clip-rule="evenodd" d="M766.517 -30.156L-390.453 153.09L-390.519 152.677L766.452 -30.5686L766.517 -30.156Z" fill="#CECFCF"/>
<path fill-rule="evenodd" clip-rule="evenodd" d="M398.088 -485.459L-21.7014 608.13L-22.0914 607.98L397.698 -485.609L398.088 -485.459Z" fill="#CECFCF"/>
<path fill-rule="evenodd" clip-rule="evenodd" d="M734.718 271.35L-358.871 -148.439L-358.721 -148.829L734.868 270.96L734.718 271.35Z" fill="#CECFCF"/>
<path fill-rule="evenodd" clip-rule="evenodd" d="M-396.285 101.908L772.254 20.196L772.283 20.6128L-396.256 102.325L-396.285 101.908Z" fill="#CECFCF"/>
<path fill-rule="evenodd" clip-rule="evenodd" d="M147.351 -523.023L229.063 645.516L228.646 645.545L146.934 -522.994L147.351 -523.023Z" fill="#CECFCF"/>
<path fill-rule="evenodd" clip-rule="evenodd" d="M-338.33 -195.679L714.511 317.825L714.328 318.201L-338.513 -195.304L-338.33 -195.679Z" fill="#CECFCF"/>
<path fill-rule="evenodd" clip-rule="evenodd" d="M444.939 -465.068L-68.5654 587.773L-68.9409 587.589L444.564 -465.251L444.939 -465.068Z" fill="#CECFCF"/>
<path fill-rule="evenodd" clip-rule="evenodd" d="M-139.345 -424.42L515.689 546.708L515.343 546.942L-139.692 -424.187L-139.345 -424.42Z" fill="#CECFCF"/>
<path fill-rule="evenodd" clip-rule="evenodd" d="M673.68 -266.083L-297.448 388.951L-297.682 388.605L673.446 -266.43L673.68 -266.083Z" fill="#CECFCF"/>
<path fill-rule="evenodd" clip-rule="evenodd" d="M-253.894 -323.148L630.167 445.354L629.893 445.67L-254.168 -322.833L-253.894 -323.148Z" fill="#CECFCF"/>
<path fill-rule="evenodd" clip-rule="evenodd" d="M572.408 -380.633L-196.095 503.428L-196.41 503.154L572.092 -380.907L572.408 -380.633Z" fill="#CECFCF"/>
<path fill-rule="evenodd" clip-rule="evenodd" d="M-2.48721 -492.594L378.881 614.979L378.486 615.115L-2.88221 -492.458L-2.48721 -492.594Z" fill="#CECFCF"/>
<path fill-rule="evenodd" clip-rule="evenodd" d="M741.854 -129.226L-365.719 252.142L-365.855 251.747L741.718 -129.621L741.854 -129.226Z" fill="#CECFCF"/>
<path fill-rule="evenodd" clip-rule="evenodd" d="M299.96 -513.635L76.448 636.236L76.0379 636.156L299.55 -513.714L299.96 -513.635Z" fill="#CECFCF"/>
<path fill-rule="evenodd" clip-rule="evenodd" d="M762.894 173.222L-386.977 -50.2903L-386.897 -50.7004L762.973 172.812L762.894 173.222Z" fill="#CECFCF"/>
<path fill-rule="evenodd" clip-rule="evenodd" d="M167.35 646.593L208.231 -524.086L208.648 -524.071L167.768 646.608L167.35 646.593Z" fill="#CECFCF"/>
<path fill-rule="evenodd" clip-rule="evenodd" d="M-397.334 40.6114L773.345 81.4924L773.331 81.9099L-397.348 41.0289L-397.334 40.6114Z" fill="#CECFCF"/>
<path fill-rule="evenodd" clip-rule="evenodd" d="M-122.55 557.849L498.193 -435.548L498.547 -435.327L-122.196 558.07L-122.55 557.849Z" fill="#CECFCF"/>
<path fill-rule="evenodd" clip-rule="evenodd" d="M-308.589 -249.288L684.808 371.455L684.587 371.809L-308.81 -248.934L-308.589 -249.288Z" fill="#CECFCF"/>
<path fill-rule="evenodd" clip-rule="evenodd" d="M-329.239 336.044L705.04 -213.891L705.236 -213.522L-329.043 336.413L-329.239 336.044Z" fill="#CECFCF"/>
<path fill-rule="evenodd" clip-rule="evenodd" d="M-86.7843 -455.976L463.151 578.302L462.782 578.498L-87.1531 -455.78L-86.7843 -455.976Z" fill="#CECFCF"/>
<path fill-rule="evenodd" clip-rule="evenodd" d="M-240.494 460.552L616.208 -338.336L616.493 -338.031L-240.209 460.857L-240.494 460.552Z" fill="#CECFCF"/>
<path fill-rule="evenodd" clip-rule="evenodd" d="M-211.292 -367.233L587.596 489.469L587.29 489.754L-211.598 -366.948L-211.292 -367.233Z" fill="#CECFCF"/>
<path fill-rule="evenodd" clip-rule="evenodd" d="M-382.733 192.81L758.637 -70.6958L758.731 -70.2888L-382.639 193.217L-382.733 192.81Z" fill="#CECFCF"/>
<path fill-rule="evenodd" clip-rule="evenodd" d="M56.4492 -509.471L319.955 631.899L319.548 631.993L56.0421 -509.377L56.4492 -509.471Z" fill="#CECFCF"/>
<path fill-rule="evenodd" clip-rule="evenodd" d="M-372.044 -110.18L748.164 232.302L748.042 232.701L-372.166 -109.781L-372.044 -110.18Z" fill="#CECFCF"/>
<path fill-rule="evenodd" clip-rule="evenodd" d="M359.44 -498.782L16.9575 621.426L16.558 621.304L359.04 -498.904L359.44 -498.782Z" fill="#CECFCF"/>
<path fill-rule="evenodd" clip-rule="evenodd" d="M-393.307 -10.3251L769.354 132.432L769.304 132.846L-393.358 -9.91047L-393.307 -10.3251Z" fill="#CECFCF"/>
<path fill-rule="evenodd" clip-rule="evenodd" d="M259.585 -520.044L116.828 642.617L116.413 642.566L259.17 -520.095L259.585 -520.044Z" fill="#CECFCF"/>
<path fill-rule="evenodd" clip-rule="evenodd" d="M-279.633 -291.387L655.883 413.574L655.631 413.908L-279.884 -291.053L-279.633 -291.387Z" fill="#CECFCF"/>
<path fill-rule="evenodd" clip-rule="evenodd" d="M540.646 -406.371L-164.315 529.144L-164.649 528.893L540.313 -406.623L540.646 -406.371Z" fill="#CECFCF"/>
<path fill-rule="evenodd" clip-rule="evenodd" d="M-40.659 -477.957L417.041 600.315L416.656 600.479L-41.0436 -477.794L-40.659 -477.957Z" fill="#CECFCF"/>
<path fill-rule="evenodd" clip-rule="evenodd" d="M727.216 -167.397L-351.056 290.302L-351.219 289.918L727.053 -167.782L727.216 -167.397Z" fill="#CECFCF"/>
<path fill-rule="evenodd" clip-rule="evenodd" d="M-172.427 -400.403L548.754 522.667L548.425 522.924L-172.757 -400.146L-172.427 -400.403Z" fill="#CECFCF"/>
<path fill-rule="evenodd" clip-rule="evenodd" d="M649.663 -299.165L-273.407 422.016L-273.664 421.687L649.406 -299.495L649.663 -299.165Z" fill="#CECFCF"/>
<path fill-rule="evenodd" clip-rule="evenodd" d="M106.692 -518.765L269.718 641.228L269.304 641.286L106.278 -518.707L106.692 -518.765Z" fill="#CECFCF"/>
<path fill-rule="evenodd" clip-rule="evenodd" d="M768.025 -20.0455L-391.968 142.981L-392.026 142.567L767.967 -20.4592L768.025 -20.0455Z" fill="#CECFCF"/>
<path fill-rule="evenodd" clip-rule="evenodd" d="M407.598 -481.709L-31.2136 604.387L-31.601 604.231L407.21 -481.865L407.598 -481.709Z" fill="#CECFCF"/>
<path fill-rule="evenodd" clip-rule="evenodd" d="M730.968 280.86L-355.128 -157.951L-354.971 -158.339L731.125 280.473L730.968 280.86Z" fill="#CECFCF"/>
<path fill-rule="evenodd" clip-rule="evenodd" d="M-396.905 91.705L772.882 30.3989L772.904 30.8161L-396.883 92.1221L-396.905 91.705Z" fill="#CECFCF"/>
<path fill-rule="evenodd" clip-rule="evenodd" d="M157.555 -523.644L218.861 646.143L218.444 646.165L157.138 -523.622L157.555 -523.644Z" fill="#CECFCF"/>
<path fill-rule="evenodd" clip-rule="evenodd" d="M-333.765 -204.826L709.953 326.975L709.763 327.347L-333.955 -204.454L-333.765 -204.826Z" fill="#CECFCF"/>
<path fill-rule="evenodd" clip-rule="evenodd" d="M454.086 -460.504L-77.7153 583.215L-78.0876 583.025L453.714 -460.693L454.086 -460.504Z" fill="#CECFCF"/>
<path fill-rule="evenodd" clip-rule="evenodd" d="M-130.819 -430.059L507.167 552.353L506.816 552.581L-131.17 -429.832L-130.819 -430.059Z" fill="#CECFCF"/>
<path fill-rule="evenodd" clip-rule="evenodd" d="M679.318 -257.557L-303.094 380.429L-303.322 380.078L679.091 -257.908L679.318 -257.557Z" fill="#CECFCF"/>
<path fill-rule="evenodd" clip-rule="evenodd" d="M-247.119 -330.802L623.396 453.013L623.116 453.323L-247.398 -330.491L-247.119 -330.802Z" fill="#CECFCF"/>
<path fill-rule="evenodd" clip-rule="evenodd" d="M580.061 -373.857L-203.753 496.657L-204.064 496.378L579.751 -374.136L580.061 -373.857Z" fill="#CECFCF"/>
<path fill-rule="evenodd" clip-rule="evenodd" d="M7.20731 -495.834L369.188 618.226L368.79 618.356L6.81 -495.705L7.20731 -495.834Z" fill="#CECFCF"/>
<path fill-rule="evenodd" clip-rule="evenodd" d="M745.094 -119.531L-368.967 242.449L-369.096 242.052L744.965 -119.928L745.094 -119.531Z" fill="#CECFCF"/>
<path fill-rule="evenodd" clip-rule="evenodd" d="M309.976 -511.593L66.4299 634.202L66.0213 634.115L309.567 -511.68L309.976 -511.593Z" fill="#CECFCF"/>
<path fill-rule="evenodd" clip-rule="evenodd" d="M760.853 183.238L-384.942 -60.3081L-384.855 -60.7167L760.94 182.83L760.853 183.238Z" fill="#CECFCF"/>
<path fill-rule="evenodd" clip-rule="evenodd" d="M157.137 646.143L218.443 -523.644L218.86 -523.622L157.554 646.165L157.137 646.143Z" fill="#CECFCF"/>
<path fill-rule="evenodd" clip-rule="evenodd" d="M-396.884 30.3991L772.903 91.7051L772.881 92.1223L-396.906 30.8163L-396.884 30.3991Z" fill="#CECFCF"/>
<path fill-rule="evenodd" clip-rule="evenodd" d="M-131.169 552.353L506.817 -430.059L507.167 -429.832L-130.819 552.581L-131.169 552.353Z" fill="#CECFCF"/>
<path fill-rule="evenodd" clip-rule="evenodd" d="M-303.094 -257.908L679.319 380.078L679.091 380.429L-303.321 -257.557L-303.094 -257.908Z" fill="#CECFCF"/>
<path fill-rule="evenodd" clip-rule="evenodd" d="M-333.955 326.975L709.764 -204.826L709.953 -204.454L-333.765 327.347L-333.955 326.975Z" fill="#CECFCF"/>
<path fill-rule="evenodd" clip-rule="evenodd" d="M-77.7156 -460.693L454.085 583.025L453.713 583.215L-78.0878 -460.504L-77.7156 -460.693Z" fill="#CECFCF"/>
<path fill-rule="evenodd" clip-rule="evenodd" d="M-247.398 453.013L623.116 -330.802L623.396 -330.492L-247.118 453.323L-247.398 453.013Z" fill="#CECFCF"/>
<path fill-rule="evenodd" clip-rule="evenodd" d="M-203.753 -374.136L580.061 496.378L579.751 496.658L-204.064 -373.857L-203.753 -374.136Z" fill="#CECFCF"/>
<path fill-rule="evenodd" clip-rule="evenodd" d="M-384.941 182.829L760.854 -60.7168L760.94 -60.3082L-384.854 183.238L-384.941 182.829Z" fill="#CECFCF"/>
<path fill-rule="evenodd" clip-rule="evenodd" d="M66.43 -511.68L309.976 634.115L309.567 634.201L66.0213 -511.593L66.43 -511.68Z" fill="#CECFCF"/>
<path fill-rule="evenodd" clip-rule="evenodd" d="M-368.967 -119.928L745.094 242.052L744.965 242.45L-369.096 -119.531L-368.967 -119.928Z" fill="#CECFCF"/>
<path fill-rule="evenodd" clip-rule="evenodd" d="M369.188 -495.705L7.20776 618.355L6.81045 618.226L368.791 -495.834L369.188 -495.705Z" fill="#CECFCF"/>
<path fill-rule="evenodd" clip-rule="evenodd" d="M-391.968 -20.4596L768.024 142.567L767.966 142.98L-392.027 -20.0459L-391.968 -20.4596Z" fill="#CECFCF"/>
<path fill-rule="evenodd" clip-rule="evenodd" d="M269.719 -518.707L106.693 641.286L106.279 641.228L269.306 -518.765L269.719 -518.707Z" fill="#CECFCF"/>
<path fill-rule="evenodd" clip-rule="evenodd" d="M-273.407 -299.495L649.663 421.686L649.406 422.016L-273.664 -299.166L-273.407 -299.495Z" fill="#CECFCF"/>
<path fill-rule="evenodd" clip-rule="evenodd" d="M548.754 -400.146L-172.427 522.924L-172.756 522.667L548.425 -400.403L548.754 -400.146Z" fill="#CECFCF"/>
<path fill-rule="evenodd" clip-rule="evenodd" d="M-31.2137 -481.866L407.598 604.23L407.21 604.387L-31.6011 -481.709L-31.2137 -481.866Z" fill="#CECFCF"/>
<path fill-rule="evenodd" clip-rule="evenodd" d="M731.125 -157.952L-354.971 280.86L-355.127 280.472L730.969 -158.339L731.125 -157.952Z" fill="#CECFCF"/>
<path fill-rule="evenodd" clip-rule="evenodd" d="M-164.315 -406.623L540.647 528.893L540.313 529.144L-164.648 -406.371L-164.315 -406.623Z" fill="#CECFCF"/>
<path fill-rule="evenodd" clip-rule="evenodd" d="M655.882 -291.053L-279.633 413.908L-279.885 413.574L655.631 -291.387L655.882 -291.053Z" fill="#CECFCF"/>
<path fill-rule="evenodd" clip-rule="evenodd" d="M116.827 -520.095L259.584 642.566L259.169 642.617L116.413 -520.044L116.827 -520.095Z" fill="#CECFCF"/>
<path fill-rule="evenodd" clip-rule="evenodd" d="M769.354 -9.91031L-393.307 132.846L-393.358 132.432L769.303 -10.325L769.354 -9.91031Z" fill="#CECFCF"/>
<path fill-rule="evenodd" clip-rule="evenodd" d="M417.042 -477.794L-40.658 600.478L-41.0425 600.315L416.657 -477.957L417.042 -477.794Z" fill="#CECFCF"/>
<path fill-rule="evenodd" clip-rule="evenodd" d="M727.053 290.303L-351.219 -167.397L-351.056 -167.782L727.216 289.918L727.053 290.303Z" fill="#CECFCF"/>
<path fill-rule="evenodd" clip-rule="evenodd" d="M-397.348 81.4922L773.331 40.6111L773.346 41.0286L-397.333 81.9097L-397.348 81.4922Z" fill="#CECFCF"/>
<path fill-rule="evenodd" clip-rule="evenodd" d="M167.768 -524.086L208.649 646.593L208.231 646.607L167.35 -524.072L167.768 -524.086Z" fill="#CECFCF"/>
<path fill-rule="evenodd" clip-rule="evenodd" d="M-329.042 -213.892L705.236 336.044L705.04 336.413L-329.238 -213.523L-329.042 -213.892Z" fill="#CECFCF"/>
<path fill-rule="evenodd" clip-rule="evenodd" d="M463.151 -455.781L-86.7844 578.498L-87.1533 578.302L462.782 -455.977L463.151 -455.781Z" fill="#CECFCF"/>
<path fill-rule="evenodd" clip-rule="evenodd" d="M-122.195 -435.549L498.548 557.848L498.194 558.07L-122.55 -435.327L-122.195 -435.549Z" fill="#CECFCF"/>
<path fill-rule="evenodd" clip-rule="evenodd" d="M684.808 -248.934L-308.589 371.809L-308.81 371.455L684.587 -249.288L684.808 -248.934Z" fill="#CECFCF"/>
<path fill-rule="evenodd" clip-rule="evenodd" d="M-240.21 -338.336L616.493 460.552L616.208 460.857L-240.494 -338.031L-240.21 -338.336Z" fill="#CECFCF"/>
<path fill-rule="evenodd" clip-rule="evenodd" d="M587.596 -366.948L-211.292 489.754L-211.597 489.469L587.29 -367.233L587.596 -366.948Z" fill="#CECFCF"/>
<path fill-rule="evenodd" clip-rule="evenodd" d="M16.9574 -498.904L359.439 621.304L359.04 621.426L16.5579 -498.782L16.9574 -498.904Z" fill="#CECFCF"/>
<path fill-rule="evenodd" clip-rule="evenodd" d="M748.165 -109.78L-372.043 232.702L-372.166 232.302L748.043 -110.18L748.165 -109.78Z" fill="#CECFCF"/>
<path fill-rule="evenodd" clip-rule="evenodd" d="M319.955 -509.377L56.4495 631.993L56.0424 631.899L319.548 -509.471L319.955 -509.377Z" fill="#CECFCF"/>
<path fill-rule="evenodd" clip-rule="evenodd" d="M758.636 193.217L-382.733 -70.2888L-382.639 -70.6959L758.73 192.81L758.636 193.217Z" fill="#CECFCF"/>
<path fill-rule="evenodd" clip-rule="evenodd" d="M146.935 645.515L228.647 -523.024L229.064 -522.995L147.352 645.545L146.935 645.515Z" fill="#CECFCF"/>
<path fill-rule="evenodd" clip-rule="evenodd" d="M-396.256 20.1959L772.283 101.908L772.254 102.325L-396.285 20.6127L-396.256 20.1959Z" fill="#CECFCF"/>
<path fill-rule="evenodd" clip-rule="evenodd" d="M-139.691 546.708L515.343 -424.42L515.69 -424.187L-139.345 546.942L-139.691 546.708Z" fill="#CECFCF"/>
<path fill-rule="evenodd" clip-rule="evenodd" d="M-297.448 -266.43L673.68 388.604L673.446 388.951L-297.682 -266.084L-297.448 -266.43Z" fill="#CECFCF"/>
<path fill-rule="evenodd" clip-rule="evenodd" d="M-338.512 317.825L714.328 -195.68L714.511 -195.304L-338.329 318.201L-338.512 317.825Z" fill="#CECFCF"/>
<path fill-rule="evenodd" clip-rule="evenodd" d="M-68.5659 -465.251L444.939 587.589L444.563 587.772L-68.9414 -465.068L-68.5659 -465.251Z" fill="#CECFCF"/>
<path fill-rule="evenodd" clip-rule="evenodd" d="M-254.168 445.354L629.893 -323.148L630.167 -322.833L-253.894 445.67L-254.168 445.354Z" fill="#CECFCF"/>
<path fill-rule="evenodd" clip-rule="evenodd" d="M-196.095 -380.907L572.408 503.154L572.093 503.428L-196.41 -380.633L-196.095 -380.907Z" fill="#CECFCF"/>
<path fill-rule="evenodd" clip-rule="evenodd" d="M-386.976 172.812L762.895 -50.7007L762.974 -50.2906L-386.896 173.222L-386.976 172.812Z" fill="#CECFCF"/>
<path fill-rule="evenodd" clip-rule="evenodd" d="M76.4476 -513.715L299.96 636.156L299.55 636.236L76.0375 -513.635L76.4476 -513.715Z" fill="#CECFCF"/>
<path fill-rule="evenodd" clip-rule="evenodd" d="M-365.719 -129.621L741.854 251.747L741.718 252.142L-365.855 -129.226L-365.719 -129.621Z" fill="#CECFCF"/>
<path fill-rule="evenodd" clip-rule="evenodd" d="M378.88 -492.458L-2.48779 615.115L-2.88279 614.979L378.485 -492.594L378.88 -492.458Z" fill="#CECFCF"/>
<path fill-rule="evenodd" clip-rule="evenodd" d="M-390.454 -30.5688L766.517 152.677L766.452 153.09L-390.519 -30.1562L-390.454 -30.5688Z" fill="#CECFCF"/>
<path fill-rule="evenodd" clip-rule="evenodd" d="M279.828 -517.192L96.5818 639.778L96.1692 639.713L279.415 -517.258L279.828 -517.192Z" fill="#CECFCF"/>
<path fill-rule="evenodd" clip-rule="evenodd" d="M-267.041 -307.492L643.302 429.689L643.039 430.013L-267.304 -307.168L-267.041 -307.492Z" fill="#CECFCF"/>
<path fill-rule="evenodd" clip-rule="evenodd" d="M556.752 -393.78L-180.429 516.563L-180.754 516.3L556.428 -394.042L556.752 -393.78Z" fill="#CECFCF"/>
<path fill-rule="evenodd" clip-rule="evenodd" d="M-21.7007 -485.609L398.089 607.98L397.699 608.13L-22.0907 -485.459L-21.7007 -485.609Z" fill="#CECFCF"/>
<path fill-rule="evenodd" clip-rule="evenodd" d="M734.868 -148.439L-358.721 271.35L-358.871 270.96L734.718 -148.829L734.868 -148.439Z" fill="#CECFCF"/>
<path fill-rule="evenodd" clip-rule="evenodd" d="M-156.096 -412.7L532.431 534.976L532.093 535.222L-156.434 -412.455L-156.096 -412.7Z" fill="#CECFCF"/>
<path fill-rule="evenodd" clip-rule="evenodd" d="M661.96 -282.834L-285.716 405.693L-285.962 405.355L661.715 -283.172L661.96 -282.834Z" fill="#CECFCF"/>
<path fill-rule="evenodd" clip-rule="evenodd" d="M126.985 -521.249L249.429 643.727L249.013 643.77L126.57 -521.205L126.985 -521.249Z" fill="#CECFCF"/>
<path fill-rule="evenodd" clip-rule="evenodd" d="M770.508 0.246667L-394.467 122.69L-394.511 122.275L770.465 -0.168802L770.508 0.246667Z" fill="#CECFCF"/>
<path fill-rule="evenodd" clip-rule="evenodd" d="M426.414 -473.715L-50.0339 596.406L-50.4156 596.236L426.033 -473.885L426.414 -473.715Z" fill="#CECFCF"/>
<path fill-rule="evenodd" clip-rule="evenodd" d="M722.974 299.675L-347.146 -176.773L-346.976 -177.155L723.144 299.294L722.974 299.675Z" fill="#CECFCF"/>
<path fill-rule="evenodd" clip-rule="evenodd" d="M-397.612 71.2733L773.602 50.8296L773.61 51.2473L-397.605 71.691L-397.612 71.2733Z" fill="#CECFCF"/>
<path fill-rule="evenodd" clip-rule="evenodd" d="M177.986 -524.35L198.43 646.864L198.012 646.871L177.569 -524.343L177.986 -524.35Z" fill="#CECFCF"/>
<path fill-rule="evenodd" clip-rule="evenodd" d="M-324.161 -222.873L700.362 345.029L700.159 345.394L-324.364 -222.508L-324.161 -222.873Z" fill="#CECFCF"/>
<path fill-rule="evenodd" clip-rule="evenodd" d="M472.133 -450.9L-95.7695 573.623L-96.1349 573.421L471.767 -451.102L472.133 -450.9Z" fill="#CECFCF"/>
<path fill-rule="evenodd" clip-rule="evenodd" d="M-113.478 -440.887L489.834 563.193L489.476 563.408L-113.836 -440.672L-113.478 -440.887Z" fill="#CECFCF"/>
<path fill-rule="evenodd" clip-rule="evenodd" d="M690.147 -240.216L-313.933 363.095L-314.148 362.737L689.931 -240.574L690.147 -240.216Z" fill="#CECFCF"/>
<path fill-rule="evenodd" clip-rule="evenodd" d="M-233.17 -345.749L609.459 467.969L609.169 468.27L-233.46 -345.448L-233.17 -345.749Z" fill="#CECFCF"/>
<path fill-rule="evenodd" clip-rule="evenodd" d="M595.008 -359.909L-218.709 482.72L-219.01 482.43L594.708 -360.199L595.008 -359.909Z" fill="#CECFCF"/>
<path fill-rule="evenodd" clip-rule="evenodd" d="M26.7599 -501.804L349.639 624.21L349.238 624.325L26.3583 -501.689L26.7599 -501.804Z" fill="#CECFCF"/>
<path fill-rule="evenodd" clip-rule="evenodd" d="M751.065 -99.978L-374.95 222.901L-375.065 222.5L750.95 -100.38L751.065 -99.978Z" fill="#CECFCF"/>
<path fill-rule="evenodd" clip-rule="evenodd" d="M329.894 -506.987L46.5088 629.61L46.1034 629.509L329.489 -507.088L329.894 -506.987Z" fill="#CECFCF"/>
<path fill-rule="evenodd" clip-rule="evenodd" d="M756.246 203.156L-380.351 -80.2295L-380.25 -80.6348L756.347 202.751L756.246 203.156Z" fill="#CECFCF"/>
<path fill-rule="evenodd" clip-rule="evenodd" d="M180.738 646.912L194.843 -524.396L195.261 -524.391L181.156 646.917L180.738 646.912Z" fill="#CECFCF"/>
<path fill-rule="evenodd" clip-rule="evenodd" d="M-397.652 53.9992L773.656 68.1045L773.651 68.5222L-397.657 54.417L-397.652 53.9992Z" fill="#CECFCF"/>
<path fill-rule="evenodd" clip-rule="evenodd" d="M-111.115 564.819L486.754 -442.51L487.114 -442.297L-110.756 565.033L-111.115 564.819Z" fill="#CECFCF"/>
<path fill-rule="evenodd" clip-rule="evenodd" d="M-315.56 -237.853L691.77 360.016L691.557 360.375L-315.773 -237.494L-315.56 -237.853Z" fill="#CECFCF"/>
<path fill-rule="evenodd" clip-rule="evenodd" d="M-322.821 347.798L698.614 -225.641L698.819 -225.276L-322.616 348.162L-322.821 347.798Z" fill="#CECFCF"/>
<path fill-rule="evenodd" clip-rule="evenodd" d="M-98.5377 -449.559L474.901 571.876L474.536 572.08L-98.9019 -449.354L-98.5377 -449.559Z" fill="#CECFCF"/>
<path fill-rule="evenodd" clip-rule="evenodd" d="M-231.253 470.244L606.96 -348.022L607.252 -347.723L-230.961 470.543L-231.253 470.244Z" fill="#CECFCF"/>
<path fill-rule="evenodd" clip-rule="evenodd" d="M-220.984 -357.992L597.282 480.222L596.983 480.513L-221.283 -357.7L-220.984 -357.992Z" fill="#CECFCF"/>
<path fill-rule="evenodd" clip-rule="evenodd" d="M-379.576 205.825L755.471 -83.7075L755.574 -83.3027L-379.473 206.229L-379.576 205.825Z" fill="#CECFCF"/>
<path fill-rule="evenodd" clip-rule="evenodd" d="M43.4355 -506.314L332.968 628.733L332.563 628.836L43.0307 -506.211L43.4355 -506.314Z" fill="#CECFCF"/>
<path fill-rule="evenodd" clip-rule="evenodd" d="M-375.817 -97.3311L751.928 219.45L751.815 219.852L-375.93 -96.9289L-375.817 -97.3311Z" fill="#CECFCF"/>
<path fill-rule="evenodd" clip-rule="evenodd" d="M346.59 -502.556L29.8091 625.19L29.4069 625.077L346.188 -502.669L346.59 -502.556Z" fill="#CECFCF"/>
<path fill-rule="evenodd" clip-rule="evenodd" d="M-394.791 2.98396L770.83 119.122L770.789 119.537L-394.832 3.39966L-394.791 2.98396Z" fill="#CECFCF"/>
<path fill-rule="evenodd" clip-rule="evenodd" d="M246.276 -521.529L130.138 644.092L129.722 644.051L245.86 -521.571L246.276 -521.529Z" fill="#CECFCF"/>
<path fill-rule="evenodd" clip-rule="evenodd" d="M-287.574 -280.603L663.814 402.785L663.571 403.125L-287.818 -280.264L-287.574 -280.603Z" fill="#CECFCF"/>
<path fill-rule="evenodd" clip-rule="evenodd" d="M529.864 -414.312L-153.525 537.077L-153.864 536.833L529.524 -414.555L529.864 -414.312Z" fill="#CECFCF"/>
<path fill-rule="evenodd" clip-rule="evenodd" d="M-52.9277 -472.588L429.305 594.938L428.924 595.11L-53.3084 -472.416L-52.9277 -472.588Z" fill="#CECFCF"/>
<path fill-rule="evenodd" clip-rule="evenodd" d="M721.847 -179.665L-345.679 302.567L-345.851 302.186L721.675 -180.046L721.847 -179.665Z" fill="#CECFCF"/>
<path fill-rule="evenodd" clip-rule="evenodd" d="M-182.887 -392.041L559.209 514.299L558.886 514.563L-183.211 -391.777L-182.887 -392.041Z" fill="#CECFCF"/>
<path fill-rule="evenodd" clip-rule="evenodd" d="M641.301 -309.626L-265.04 432.471L-265.304 432.147L641.036 -309.949L641.301 -309.626Z" fill="#CECFCF"/>
<path fill-rule="evenodd" clip-rule="evenodd" d="M93.4528 -516.754L282.957 639.208L282.545 639.276L93.0405 -516.686L93.4528 -516.754Z" fill="#CECFCF"/>
<path fill-rule="evenodd" clip-rule="evenodd" d="M766.013 -33.2852L-389.949 156.219L-390.017 155.807L765.945 -33.6975L766.013 -33.2852Z" fill="#CECFCF"/>
<path fill-rule="evenodd" clip-rule="evenodd" d="M395.127 -486.588L-18.738 609.257L-19.1289 609.109L394.736 -486.735L395.127 -486.588Z" fill="#CECFCF"/>
<path fill-rule="evenodd" clip-rule="evenodd" d="M735.848 268.389L-359.997 -145.477L-359.849 -145.867L735.995 267.998L735.848 268.389Z" fill="#CECFCF"/>
<path fill-rule="evenodd" clip-rule="evenodd" d="M-396.057 105.07L772.023 17.0352L772.054 17.4517L-396.025 105.486L-396.057 105.07Z" fill="#CECFCF"/>
<path fill-rule="evenodd" clip-rule="evenodd" d="M144.189 -522.795L232.224 645.285L231.808 645.316L143.773 -522.764L144.189 -522.795Z" fill="#CECFCF"/>
<path fill-rule="evenodd" clip-rule="evenodd" d="M-339.713 -192.827L715.891 314.972L715.71 315.349L-339.894 -192.451L-339.713 -192.827Z" fill="#CECFCF"/>
<path fill-rule="evenodd" clip-rule="evenodd" d="M442.088 -466.451L-65.7122 589.153L-66.0886 588.972L441.711 -466.632L442.088 -466.451Z" fill="#CECFCF"/>
<path fill-rule="evenodd" clip-rule="evenodd" d="M-141.969 -422.642L518.312 544.928L517.966 545.163L-142.314 -422.406L-141.969 -422.642Z" fill="#CECFCF"/>
<path fill-rule="evenodd" clip-rule="evenodd" d="M671.901 -268.707L-295.668 391.573L-295.904 391.228L671.666 -269.052L671.901 -268.707Z" fill="#CECFCF"/>
<path fill-rule="evenodd" clip-rule="evenodd" d="M-255.968 -320.751L632.239 442.956L631.966 443.273L-256.241 -320.435L-255.968 -320.751Z" fill="#CECFCF"/>
<path fill-rule="evenodd" clip-rule="evenodd" d="M570.011 -382.706L-193.696 505.5L-194.013 505.228L569.694 -382.979L570.011 -382.706Z" fill="#CECFCF"/>
<path fill-rule="evenodd" clip-rule="evenodd" d="M-5.48174 -491.555L381.875 613.938L381.48 614.077L-5.876 -491.417L-5.48174 -491.555Z" fill="#CECFCF"/>
<path fill-rule="evenodd" clip-rule="evenodd" d="M740.815 -132.22L-364.678 255.136L-364.816 254.742L740.677 -132.614L740.815 -132.22Z" fill="#CECFCF"/>
<path fill-rule="evenodd" clip-rule="evenodd" d="M296.847 -514.232L79.5608 636.831L79.1503 636.754L296.437 -514.31L296.847 -514.232Z" fill="#CECFCF"/>
<path fill-rule="evenodd" clip-rule="evenodd" d="M763.493 170.109L-387.571 -47.1772L-387.493 -47.5878L763.57 169.699L763.493 170.109Z" fill="#CECFCF"/>
<path fill-rule="evenodd" clip-rule="evenodd" d="M170.517 646.696L205.062 -524.187L205.48 -524.175L170.935 646.708L170.517 646.696Z" fill="#CECFCF"/>
<path fill-rule="evenodd" clip-rule="evenodd" d="M-397.436 43.7792L773.447 78.3245L773.434 78.742L-397.449 44.1968L-397.436 43.7792Z" fill="#CECFCF"/>
<path fill-rule="evenodd" clip-rule="evenodd" d="M-119.858 559.522L495.5 -437.22L495.856 -437L-119.502 559.742L-119.858 559.522Z" fill="#CECFCF"/>
<path fill-rule="evenodd" clip-rule="evenodd" d="M-310.262 -246.596L686.48 368.762L686.261 369.118L-310.481 -246.241L-310.262 -246.596Z" fill="#CECFCF"/>
<path fill-rule="evenodd" clip-rule="evenodd" d="M-327.744 338.839L703.543 -216.685L703.741 -216.318L-327.546 339.207L-327.744 338.839Z" fill="#CECFCF"/>
<path fill-rule="evenodd" clip-rule="evenodd" d="M-89.5787 -454.482L465.946 576.805L465.578 577.003L-89.9465 -454.284L-89.5787 -454.482Z" fill="#CECFCF"/>
<path fill-rule="evenodd" clip-rule="evenodd" d="M-238.328 462.865L614.039 -340.647L614.325 -340.343L-238.041 463.169L-238.328 462.865Z" fill="#CECFCF"/>
<path fill-rule="evenodd" clip-rule="evenodd" d="M-213.605 -365.066L589.907 487.301L589.603 487.587L-213.909 -364.779L-213.605 -365.066Z" fill="#CECFCF"/>
<path fill-rule="evenodd" clip-rule="evenodd" d="M-382.013 195.897L757.914 -73.782L758.01 -73.3754L-381.917 196.303L-382.013 195.897Z" fill="#CECFCF"/>
<path fill-rule="evenodd" clip-rule="evenodd" d="M53.3629 -508.751L323.042 631.176L322.635 631.272L52.9563 -508.655L53.3629 -508.751Z" fill="#CECFCF"/>
<path fill-rule="evenodd" clip-rule="evenodd" d="M-372.963 -107.147L749.082 229.268L748.962 229.668L-373.083 -106.747L-372.963 -107.147Z" fill="#CECFCF"/>
<path fill-rule="evenodd" clip-rule="evenodd" d="M356.407 -499.702L19.9919 622.343L19.5918 622.223L356.007 -499.822L356.407 -499.702Z" fill="#CECFCF"/>
<path fill-rule="evenodd" clip-rule="evenodd" d="M-393.685 -7.17816L769.731 129.285L769.683 129.7L-393.734 -6.76324L-393.685 -7.17816Z" fill="#CECFCF"/>
<path fill-rule="evenodd" clip-rule="evenodd" d="M256.438 -520.423L119.975 642.993L119.56 642.945L256.023 -520.472L256.438 -520.423Z" fill="#CECFCF"/>
<path fill-rule="evenodd" clip-rule="evenodd" d="M-281.535 -288.851L657.782 411.037L657.533 411.372L-281.784 -288.516L-281.535 -288.851Z" fill="#CECFCF"/>
<path fill-rule="evenodd" clip-rule="evenodd" d="M538.111 -408.273L-161.778 531.044L-162.113 530.794L537.776 -408.522L538.111 -408.273Z" fill="#CECFCF"/>
<path fill-rule="evenodd" clip-rule="evenodd" d="M-43.5732 -476.712L419.955 599.068L419.571 599.233L-43.9569 -476.546L-43.5732 -476.712Z" fill="#CECFCF"/>
<path fill-rule="evenodd" clip-rule="evenodd" d="M725.971 -170.312L-349.809 293.216L-349.974 292.833L725.806 -170.695L725.971 -170.312Z" fill="#CECFCF"/>
<path fill-rule="evenodd" clip-rule="evenodd" d="M-174.92 -398.446L551.246 520.708L550.918 520.967L-175.248 -398.187L-174.92 -398.446Z" fill="#CECFCF"/>
<path fill-rule="evenodd" clip-rule="evenodd" d="M647.705 -301.658L-271.449 424.508L-271.708 424.18L647.446 -301.986L647.705 -301.658Z" fill="#CECFCF"/>
<path fill-rule="evenodd" clip-rule="evenodd" d="M103.555 -518.316L272.856 640.777L272.443 640.838L103.141 -518.256L103.555 -518.316Z" fill="#CECFCF"/>
<path fill-rule="evenodd" clip-rule="evenodd" d="M767.576 -23.1831L-391.517 146.118L-391.578 145.705L767.516 -23.5965L767.576 -23.1831Z" fill="#CECFCF"/>
<path fill-rule="evenodd" clip-rule="evenodd" d="M404.657 -482.89L-28.2705 605.565L-28.6587 605.411L404.269 -483.044L404.657 -482.89Z" fill="#CECFCF"/>
<path fill-rule="evenodd" clip-rule="evenodd" d="M732.149 277.918L-356.306 -155.009L-356.152 -155.397L732.303 277.53L732.149 277.918Z" fill="#CECFCF"/>
<path fill-rule="evenodd" clip-rule="evenodd" d="M-396.732 94.8697L772.706 27.2341L772.73 27.6512L-396.708 95.2867L-396.732 94.8697Z" fill="#CECFCF"/>
<path fill-rule="evenodd" clip-rule="evenodd" d="M154.39 -523.471L222.025 645.968L221.608 645.992L153.973 -523.446L154.39 -523.471Z" fill="#CECFCF"/>
<path fill-rule="evenodd" clip-rule="evenodd" d="M-335.198 -201.998L711.383 324.146L711.196 324.52L-335.385 -201.625L-335.198 -201.998Z" fill="#CECFCF"/>
<path fill-rule="evenodd" clip-rule="evenodd" d="M451.258 -461.936L-74.8872 584.645L-75.2605 584.457L450.885 -462.124L451.258 -461.936Z" fill="#CECFCF"/>
<path fill-rule="evenodd" clip-rule="evenodd" d="M-133.473 -428.327L509.82 550.619L509.471 550.848L-133.822 -428.097L-133.473 -428.327Z" fill="#CECFCF"/>
<path fill-rule="evenodd" clip-rule="evenodd" d="M677.587 -260.211L-301.358 383.082L-301.588 382.733L677.358 -260.56L677.587 -260.211Z" fill="#CECFCF"/>
<path fill-rule="evenodd" clip-rule="evenodd" d="M-249.233 -328.441L625.51 450.651L625.232 450.963L-249.511 -328.129L-249.233 -328.441Z" fill="#CECFCF"/>
<path fill-rule="evenodd" clip-rule="evenodd" d="M577.701 -375.972L-201.391 498.771L-201.703 498.493L577.389 -376.25L577.701 -375.972Z" fill="#CECFCF"/>
<path fill-rule="evenodd" clip-rule="evenodd" d="M4.19552 -494.847L372.199 617.238L371.803 617.369L3.79891 -494.716L4.19552 -494.847Z" fill="#CECFCF"/>
<path fill-rule="evenodd" clip-rule="evenodd" d="M744.107 -122.543L-367.979 245.461L-368.11 245.064L743.976 -122.939L744.107 -122.543Z" fill="#CECFCF"/>
<path fill-rule="evenodd" clip-rule="evenodd" d="M306.875 -512.245L69.533 634.851L69.1239 634.766L306.466 -512.329L306.875 -512.245Z" fill="#CECFCF"/>
<path fill-rule="evenodd" clip-rule="evenodd" d="M761.505 180.137L-385.591 -57.2056L-385.507 -57.6147L761.589 179.727L761.505 180.137Z" fill="#CECFCF"/>
<path fill-rule="evenodd" clip-rule="evenodd" d="M160.303 646.302L215.277 -523.8L215.695 -523.78L160.72 646.321L160.303 646.302Z" fill="#CECFCF"/>
<path fill-rule="evenodd" clip-rule="evenodd" d="M-397.042 33.5646L773.06 88.5393L773.04 88.9566L-397.062 33.9819L-397.042 33.5646Z" fill="#CECFCF"/>
<path fill-rule="evenodd" clip-rule="evenodd" d="M-128.508 554.074L504.153 -431.777L504.504 -431.551L-128.156 554.299L-128.508 554.074Z" fill="#CECFCF"/>
<path fill-rule="evenodd" clip-rule="evenodd" d="M-304.813 -255.245L681.037 377.415L680.811 377.767L-305.039 -254.894L-304.813 -255.245Z" fill="#CECFCF"/>
<path fill-rule="evenodd" clip-rule="evenodd" d="M-332.51 329.796L708.315 -207.646L708.507 -207.274L-332.318 330.167L-332.51 329.796Z" fill="#CECFCF"/>
<path fill-rule="evenodd" clip-rule="evenodd" d="M-80.5361 -459.248L456.905 581.577L456.534 581.769L-80.9073 -459.056L-80.5361 -459.248Z" fill="#CECFCF"/>
<path fill-rule="evenodd" clip-rule="evenodd" d="M-245.271 455.363L620.989 -333.151L621.27 -332.842L-244.99 455.672L-245.271 455.363Z" fill="#CECFCF"/>
<path fill-rule="evenodd" clip-rule="evenodd" d="M-206.104 -372.01L582.41 494.25L582.101 494.531L-206.412 -371.729L-206.104 -372.01Z" fill="#CECFCF"/>
<path fill-rule="evenodd" clip-rule="evenodd" d="M-384.276 185.928L760.184 -63.8149L760.273 -63.4068L-384.187 186.336L-384.276 185.928Z" fill="#CECFCF"/>
<path fill-rule="evenodd" clip-rule="evenodd" d="M63.3319 -511.014L313.075 633.446L312.667 633.535L62.9237 -510.925L63.3319 -511.014Z" fill="#CECFCF"/>
<path fill-rule="evenodd" clip-rule="evenodd" d="M-369.939 -116.911L746.064 239.035L745.937 239.433L-370.066 -116.513L-369.939 -116.911Z" fill="#CECFCF"/>
<path fill-rule="evenodd" clip-rule="evenodd" d="M366.171 -496.677L10.2251 619.326L9.82709 619.199L365.773 -496.804L366.171 -496.677Z" fill="#CECFCF"/>
<path fill-rule="evenodd" clip-rule="evenodd" d="M-392.402 -17.3197L768.456 139.427L768.4 139.841L-392.458 -16.9057L-392.402 -17.3197Z" fill="#CECFCF"/>
<path fill-rule="evenodd" clip-rule="evenodd" d="M266.58 -519.14L109.833 641.717L109.419 641.662L266.166 -519.196L266.58 -519.14Z" fill="#CECFCF"/>
<path fill-rule="evenodd" clip-rule="evenodd" d="M-275.353 -296.992L651.606 419.183L651.351 419.513L-275.608 -296.662L-275.353 -296.992Z" fill="#CECFCF"/>
<path fill-rule="evenodd" clip-rule="evenodd" d="M546.252 -402.091L-169.923 524.868L-170.254 524.612L545.922 -402.347L546.252 -402.091Z" fill="#CECFCF"/>
<path fill-rule="evenodd" clip-rule="evenodd" d="M-34.1493 -480.671L410.533 603.034L410.147 603.193L-34.5358 -480.513L-34.1493 -480.671Z" fill="#CECFCF"/>
<path fill-rule="evenodd" clip-rule="evenodd" d="M729.931 -160.887L-353.775 283.795L-353.933 283.408L729.773 -161.274L729.931 -160.887Z" fill="#CECFCF"/>
<path fill-rule="evenodd" clip-rule="evenodd" d="M-166.842 -404.709L543.172 526.978L542.84 527.231L-167.174 -404.456L-166.842 -404.709Z" fill="#CECFCF"/>
<path fill-rule="evenodd" clip-rule="evenodd" d="M653.968 -293.58L-277.719 416.434L-277.972 416.101L653.715 -293.912L653.968 -293.58Z" fill="#CECFCF"/>
<path fill-rule="evenodd" clip-rule="evenodd" d="M113.683 -519.702L262.729 642.17L262.315 642.223L113.269 -519.649L113.683 -519.702Z" fill="#CECFCF"/>
<path fill-rule="evenodd" clip-rule="evenodd" d="M768.961 -13.0555L-392.91 135.991L-392.963 135.577L768.908 -13.4699L768.961 -13.0555Z" fill="#CECFCF"/>
<path fill-rule="evenodd" clip-rule="evenodd" d="M414.121 -479.025L-37.7371 601.708L-38.1225 601.547L413.735 -479.187L414.121 -479.025Z" fill="#CECFCF"/>
<path fill-rule="evenodd" clip-rule="evenodd" d="M728.285 287.382L-352.449 -164.475L-352.288 -164.861L728.446 286.997L728.285 287.382Z" fill="#CECFCF"/>
<path fill-rule="evenodd" clip-rule="evenodd" d="M-397.23 84.6598L773.211 37.4441L773.228 37.8615L-397.213 85.0772L-397.23 84.6598Z" fill="#CECFCF"/>
<path fill-rule="evenodd" clip-rule="evenodd" d="M164.601 -523.968L211.816 646.472L211.399 646.489L164.183 -523.951L164.601 -523.968Z" fill="#CECFCF"/>
<path fill-rule="evenodd" clip-rule="evenodd" d="M-330.524 -211.089L706.715 333.241L706.521 333.611L-330.718 -210.719L-330.524 -211.089Z" fill="#CECFCF"/>
<path fill-rule="evenodd" clip-rule="evenodd" d="M460.349 -457.262L-83.9817 579.977L-84.3516 579.783L459.979 -457.456L460.349 -457.262Z" fill="#CECFCF"/>
<path fill-rule="evenodd" clip-rule="evenodd" d="M-124.88 -433.863L501.23 556.161L500.877 556.384L-125.233 -433.639L-124.88 -433.863Z" fill="#CECFCF"/>
<path fill-rule="evenodd" clip-rule="evenodd" d="M683.122 -251.618L-306.901 374.492L-307.124 374.139L682.899 -251.971L683.122 -251.618Z" fill="#CECFCF"/>
<path fill-rule="evenodd" clip-rule="evenodd" d="M-242.366 -336.013L618.647 458.227L618.364 458.534L-242.649 -335.706L-242.366 -336.013Z" fill="#CECFCF"/>
<path fill-rule="evenodd" clip-rule="evenodd" d="M585.272 -369.104L-208.968 491.909L-209.275 491.625L584.965 -369.387L585.272 -369.104Z" fill="#CECFCF"/>
<path fill-rule="evenodd" clip-rule="evenodd" d="M13.9284 -497.971L362.468 620.368L362.069 620.492L13.5296 -497.846L13.9284 -497.971Z" fill="#CECFCF"/>
<path fill-rule="evenodd" clip-rule="evenodd" d="M747.23 -112.809L-371.108 235.73L-371.233 235.331L747.106 -113.208L747.23 -112.809Z" fill="#CECFCF"/>
<path fill-rule="evenodd" clip-rule="evenodd" d="M316.866 -510.083L59.54 632.696L59.1325 632.605L316.458 -510.174L316.866 -510.083Z" fill="#CECFCF"/>
<path fill-rule="evenodd" clip-rule="evenodd" d="M759.343 190.127L-383.436 -67.1982L-383.345 -67.6058L759.434 189.72L759.343 190.127Z" fill="#CECFCF"/>
<path fill-rule="evenodd" clip-rule="evenodd" d="M150.097 645.729L225.485 -523.235L225.902 -523.208L150.514 645.756L150.097 645.729Z" fill="#CECFCF"/>
<path fill-rule="evenodd" clip-rule="evenodd" d="M-396.47 23.3584L772.494 98.7458L772.467 99.1627L-396.497 23.7753L-396.47 23.3584Z" fill="#CECFCF"/>
<path fill-rule="evenodd" clip-rule="evenodd" d="M-137.059 548.475L512.71 -426.185L513.058 -425.953L-136.712 548.706L-137.059 548.475Z" fill="#CECFCF"/>
<path fill-rule="evenodd" clip-rule="evenodd" d="M-299.215 -263.798L675.444 385.972L675.212 386.319L-299.447 -263.45L-299.215 -263.798Z" fill="#CECFCF"/>
<path fill-rule="evenodd" clip-rule="evenodd" d="M-337.117 320.671L712.93 -198.524L713.115 -198.149L-336.931 321.045L-337.117 320.671Z" fill="#CECFCF"/>
<path fill-rule="evenodd" clip-rule="evenodd" d="M-71.4107 -463.855L447.784 586.191L447.409 586.376L-71.7852 -463.67L-71.4107 -463.855Z" fill="#CECFCF"/>
<path fill-rule="evenodd" clip-rule="evenodd" d="M-252.084 447.741L627.806 -325.534L628.081 -325.22L-251.808 448.055L-252.084 447.741Z" fill="#CECFCF"/>
<path fill-rule="evenodd" clip-rule="evenodd" d="M-198.482 -378.822L574.794 501.067L574.48 501.343L-198.796 -378.546L-198.482 -378.822Z" fill="#CECFCF"/>
<path fill-rule="evenodd" clip-rule="evenodd" d="M-386.364 175.922L762.28 -53.8098L762.362 -53.4002L-386.282 176.331L-386.364 175.922Z" fill="#CECFCF"/>
<path fill-rule="evenodd" clip-rule="evenodd" d="M73.3379 -513.103L303.069 635.542L302.66 635.624L72.9282 -513.021L73.3379 -513.103Z" fill="#CECFCF"/>
<path fill-rule="evenodd" clip-rule="evenodd" d="M-366.745 -126.622L742.876 248.747L742.743 249.143L-366.878 -126.226L-366.745 -126.622Z" fill="#CECFCF"/>
<path fill-rule="evenodd" clip-rule="evenodd" d="M375.881 -493.483L0.512207 616.138L0.116479 616.004L375.485 -493.617L375.881 -493.483Z" fill="#CECFCF"/>
<path fill-rule="evenodd" clip-rule="evenodd" d="M-390.943 -27.4372L767.003 149.545L766.94 149.958L-391.006 -27.0242L-390.943 -27.4372Z" fill="#CECFCF"/>
<path fill-rule="evenodd" clip-rule="evenodd" d="M276.697 -517.681L99.7144 640.265L99.3014 640.202L276.284 -517.744L276.697 -517.681Z" fill="#CECFCF"/>
<path fill-rule="evenodd" clip-rule="evenodd" d="M-269.03 -305.025L645.289 427.219L645.027 427.545L-269.292 -304.699L-269.03 -305.025Z" fill="#CECFCF"/>
<path fill-rule="evenodd" clip-rule="evenodd" d="M554.284 -395.768L-177.96 518.551L-178.286 518.289L553.958 -396.03L554.284 -395.768Z" fill="#CECFCF"/>
<path fill-rule="evenodd" clip-rule="evenodd" d="M-24.6576 -484.466L401.044 606.835L400.655 606.987L-25.0467 -484.314L-24.6576 -484.466Z" fill="#CECFCF"/>
<path fill-rule="evenodd" clip-rule="evenodd" d="M733.725 -151.396L-357.576 274.306L-357.728 273.916L733.573 -151.785L733.725 -151.396Z" fill="#CECFCF"/>
<path fill-rule="evenodd" clip-rule="evenodd" d="M-158.656 -410.831L534.99 533.105L534.653 533.352L-158.992 -410.584L-158.656 -410.831Z" fill="#CECFCF"/>
<path fill-rule="evenodd" clip-rule="evenodd" d="M660.091 -285.394L-283.845 408.251L-284.093 407.915L659.844 -285.731L660.091 -285.394Z" fill="#CECFCF"/>
<path fill-rule="evenodd" clip-rule="evenodd" d="M123.833 -520.91L252.579 643.386L252.164 643.432L123.418 -520.864L123.833 -520.91Z" fill="#CECFCF"/>
<path fill-rule="evenodd" clip-rule="evenodd" d="M770.17 -2.9048L-394.126 125.842L-394.172 125.426L770.124 -3.32002L770.17 -2.9048Z" fill="#CECFCF"/>
<path fill-rule="evenodd" clip-rule="evenodd" d="M423.515 -474.997L-47.135 597.686L-47.5176 597.518L423.133 -475.165L423.515 -474.997Z" fill="#CECFCF"/>
<path fill-rule="evenodd" clip-rule="evenodd" d="M724.256 296.777L-348.427 -173.873L-348.259 -174.256L724.424 296.394L724.256 296.777Z" fill="#CECFCF"/>
<path fill-rule="evenodd" clip-rule="evenodd" d="M-397.549 74.4422L773.537 47.6606L773.547 48.0783L-397.54 74.8598L-397.549 74.4422Z" fill="#CECFCF"/>
<path fill-rule="evenodd" clip-rule="evenodd" d="M174.818 -524.287L201.599 646.799L201.181 646.808L174.4 -524.278L174.818 -524.287Z" fill="#CECFCF"/>
<path fill-rule="evenodd" clip-rule="evenodd" d="M-325.691 -220.098L701.89 342.252L701.689 342.619L-325.892 -219.731L-325.691 -220.098Z" fill="#CECFCF"/>
<path fill-rule="evenodd" clip-rule="evenodd" d="M469.358 -452.43L-92.9919 575.151L-93.3584 574.951L468.991 -452.63L469.358 -452.43Z" fill="#CECFCF"/>
<path fill-rule="evenodd" clip-rule="evenodd" d="M-116.191 -439.248L492.546 561.552L492.189 561.769L-116.548 -439.031L-116.191 -439.248Z" fill="#CECFCF"/>
<path fill-rule="evenodd" clip-rule="evenodd" d="M688.508 -242.929L-312.292 365.807L-312.509 365.45L688.291 -243.286L688.508 -242.929Z" fill="#CECFCF"/>
<path fill-rule="evenodd" clip-rule="evenodd" d="M-235.367 -343.463L611.653 465.682L611.365 465.984L-235.656 -343.161L-235.367 -343.463Z" fill="#CECFCF"/>
<path fill-rule="evenodd" clip-rule="evenodd" d="M592.723 -362.105L-216.423 484.915L-216.725 484.626L592.421 -362.394L592.723 -362.105Z" fill="#CECFCF"/>
<path fill-rule="evenodd" clip-rule="evenodd" d="M23.7152 -500.923L352.684 623.328L352.283 623.445L23.3143 -500.806L23.7152 -500.923Z" fill="#CECFCF"/>
<path fill-rule="evenodd" clip-rule="evenodd" d="M750.183 -103.023L-374.068 225.946L-374.185 225.545L750.066 -103.424L750.183 -103.023Z" fill="#CECFCF"/>
<path fill-rule="evenodd" clip-rule="evenodd" d="M326.817 -507.747L49.5867 630.367L49.1808 630.268L326.411 -507.846L326.817 -507.747Z" fill="#CECFCF"/>
<path fill-rule="evenodd" clip-rule="evenodd" d="M757.006 200.079L-381.108 -77.1516L-381.009 -77.5575L757.105 199.673L757.006 200.079Z" fill="#CECFCF"/>
<path fill-rule="evenodd" clip-rule="evenodd" d="M139.903 644.979L235.68 -522.492L236.096 -522.458L140.319 645.013L139.903 644.979Z" fill="#CECFCF"/>
<path fill-rule="evenodd" clip-rule="evenodd" d="M-395.72 13.1637L771.751 108.941L771.717 109.357L-395.754 13.5801L-395.72 13.1637Z" fill="#CECFCF"/>
<path fill-rule="evenodd" clip-rule="evenodd" d="M-145.513 542.727L521.167 -420.443L521.511 -420.206L-145.17 542.965L-145.513 542.727Z" fill="#CECFCF"/>
<path fill-rule="evenodd" clip-rule="evenodd" d="M-293.467 -272.252L669.703 394.429L669.465 394.773L-293.705 -271.908L-293.467 -272.252Z" fill="#CECFCF"/>
<path fill-rule="evenodd" clip-rule="evenodd" d="M-341.564 311.467L717.384 -189.323L717.562 -188.946L-341.385 311.844L-341.564 311.467Z" fill="#CECFCF"/>
<path fill-rule="evenodd" clip-rule="evenodd" d="M-62.2079 -468.303L438.582 590.645L438.204 590.824L-62.5856 -468.124L-62.2079 -468.303Z" fill="#CECFCF"/>
<path fill-rule="evenodd" clip-rule="evenodd" d="M-258.761 440.002L634.49 -317.8L634.76 -317.481L-258.491 440.32L-258.761 440.002Z" fill="#CECFCF"/>
<path fill-rule="evenodd" clip-rule="evenodd" d="M-190.742 -385.5L567.06 507.751L566.741 508.021L-191.06 -385.23L-190.742 -385.5Z" fill="#CECFCF"/>
<path fill-rule="evenodd" clip-rule="evenodd" d="M-388.278 165.88L764.201 -43.77L764.276 -43.359L-388.203 166.291L-388.278 165.88Z" fill="#CECFCF"/>
<path fill-rule="evenodd" clip-rule="evenodd" d="M83.3794 -515.016L293.029 637.463L292.618 637.537L82.9684 -514.941L83.3794 -515.016Z" fill="#CECFCF"/>
<path fill-rule="evenodd" clip-rule="evenodd" d="M-363.381 -136.275L739.52 258.402L739.379 258.796L-363.522 -135.882L-363.381 -136.275Z" fill="#CECFCF"/>
<path fill-rule="evenodd" clip-rule="evenodd" d="M385.535 -490.12L-9.14258 612.781L-9.53591 612.641L385.141 -490.26L385.535 -490.12Z" fill="#CECFCF"/>
<path fill-rule="evenodd" clip-rule="evenodd" d="M-389.306 -37.5276L765.375 159.637L765.304 160.049L-389.376 -37.1158L-389.306 -37.5276Z" fill="#CECFCF"/>
<path fill-rule="evenodd" clip-rule="evenodd" d="M286.787 -516.044L89.6228 638.636L89.211 638.566L286.375 -516.115L286.787 -516.044Z" fill="#CECFCF"/>
<path fill-rule="evenodd" clip-rule="evenodd" d="M-262.567 -312.945L638.833 435.144L638.566 435.466L-262.834 -312.624L-262.567 -312.945Z" fill="#CECFCF"/>
<path fill-rule="evenodd" clip-rule="evenodd" d="M562.204 -389.306L-185.885 512.094L-186.207 511.827L561.883 -389.573L562.204 -389.306Z" fill="#CECFCF"/>
<path fill-rule="evenodd" clip-rule="evenodd" d="M-15.1006 -488.094L391.49 610.47L391.098 610.615L-15.4924 -487.949L-15.1006 -488.094Z" fill="#CECFCF"/>
<path fill-rule="evenodd" clip-rule="evenodd" d="M737.354 -141.839L-361.211 264.752L-361.356 264.36L737.209 -142.231L737.354 -141.839Z" fill="#CECFCF"/>
<path fill-rule="evenodd" clip-rule="evenodd" d="M-150.363 -416.809L526.703 539.089L526.362 539.331L-150.704 -416.568L-150.363 -416.809Z" fill="#CECFCF"/>
<path fill-rule="evenodd" clip-rule="evenodd" d="M666.068 -277.102L-289.83 399.964L-290.072 399.623L665.827 -277.443L666.068 -277.102Z" fill="#CECFCF"/>
<path fill-rule="evenodd" clip-rule="evenodd" d="M134.003 -521.942L242.41 644.424L241.994 644.463L133.587 -521.903L134.003 -521.942Z" fill="#CECFCF"/>
<path fill-rule="evenodd" clip-rule="evenodd" d="M771.202 7.2654L-395.164 115.672L-395.202 115.256L771.163 6.84943L771.202 7.2654Z" fill="#CECFCF"/>
<path fill-rule="evenodd" clip-rule="evenodd" d="M432.839 -470.805L-56.4602 593.501L-56.8398 593.326L432.46 -470.98L432.839 -470.805Z" fill="#CECFCF"/>
<path fill-rule="evenodd" clip-rule="evenodd" d="M720.064 306.1L-344.241 -183.199L-344.067 -183.579L720.239 305.721L720.064 306.1Z" fill="#CECFCF"/>
<path fill-rule="evenodd" clip-rule="evenodd" d="M-397.69 64.2213L773.686 57.8821L773.688 58.2998L-397.688 64.639L-397.69 64.2213Z" fill="#CECFCF"/>
<path fill-rule="evenodd" clip-rule="evenodd" d="M185.039 -524.428L191.378 646.947L190.96 646.949L184.621 -524.426L185.039 -524.428Z" fill="#CECFCF"/>
<path fill-rule="evenodd" clip-rule="evenodd" d="M-320.703 -229.02L696.908 351.178L696.701 351.541L-320.91 -228.657L-320.703 -229.02Z" fill="#CECFCF"/>
<path fill-rule="evenodd" clip-rule="evenodd" d="M478.28 -447.441L-101.918 570.169L-102.281 569.962L477.917 -447.648L478.28 -447.441Z" fill="#CECFCF"/>
<path fill-rule="evenodd" clip-rule="evenodd" d="M-107.409 -444.481L483.768 566.791L483.407 567.001L-107.77 -444.27L-107.409 -444.481Z" fill="#CECFCF"/>
<path fill-rule="evenodd" clip-rule="evenodd" d="M693.74 -234.148L-317.531 357.03L-317.742 356.669L693.53 -234.509L693.74 -234.148Z" fill="#CECFCF"/>
<path fill-rule="evenodd" clip-rule="evenodd" d="M-228.239 -350.79L604.531 473.015L604.237 473.312L-228.532 -350.493L-228.239 -350.79Z" fill="#CECFCF"/>
<path fill-rule="evenodd" clip-rule="evenodd" d="M600.05 -354.978L-223.755 477.792L-224.052 477.498L599.753 -355.271L600.05 -354.978Z" fill="#CECFCF"/>
<path fill-rule="evenodd" clip-rule="evenodd" d="M33.5518 -503.705L342.849 626.116L342.446 626.226L33.1488 -503.595L33.5518 -503.705Z" fill="#CECFCF"/>
<path fill-rule="evenodd" clip-rule="evenodd" d="M752.965 -93.1864L-376.856 216.111L-376.966 215.708L752.855 -93.5893L752.965 -93.1864Z" fill="#CECFCF"/>
<path fill-rule="evenodd" clip-rule="evenodd" d="M336.727 -505.237L39.6763 627.865L39.2722 627.759L336.323 -505.343L336.727 -505.237Z" fill="#CECFCF"/>
<path fill-rule="evenodd" clip-rule="evenodd" d="M754.497 209.988L-378.605 -87.0632L-378.499 -87.4673L754.603 209.584L754.497 209.988Z" fill="#CECFCF"/>
<path fill-rule="evenodd" clip-rule="evenodd" d="M183.939 646.943L191.641 -524.424L192.058 -524.422L184.357 646.946L183.939 646.943Z" fill="#CECFCF"/>
<path fill-rule="evenodd" clip-rule="evenodd" d="M-397.683 57.2011L773.684 64.9026L773.681 65.3203L-397.686 57.6189L-397.683 57.2011Z" fill="#CECFCF"/>
<path fill-rule="evenodd" clip-rule="evenodd" d="M-108.357 566.447L483.996 -444.136L484.356 -443.925L-107.997 566.658L-108.357 566.447Z" fill="#CECFCF"/>
<path fill-rule="evenodd" clip-rule="evenodd" d="M-317.187 -235.096L693.396 357.257L693.185 357.617L-317.398 -234.736L-317.187 -235.096Z" fill="#CECFCF"/>
<path fill-rule="evenodd" clip-rule="evenodd" d="M-321.247 350.586L697.038 -228.428L697.244 -228.065L-321.04 350.95L-321.247 350.586Z" fill="#CECFCF"/>
<path fill-rule="evenodd" clip-rule="evenodd" d="M-101.326 -447.985L477.688 570.3L477.325 570.506L-101.689 -447.778L-101.326 -447.985Z" fill="#CECFCF"/>
<path fill-rule="evenodd" clip-rule="evenodd" d="M-229.011 472.53L604.716 -350.306L605.01 -350.009L-228.718 472.827L-229.011 472.53Z" fill="#CECFCF"/>
<path fill-rule="evenodd" clip-rule="evenodd" d="M-223.271 -355.75L599.565 477.978L599.268 478.271L-223.568 -355.457L-223.271 -355.75Z" fill="#CECFCF"/>
<path fill-rule="evenodd" clip-rule="evenodd" d="M-378.777 208.925L754.67 -86.8081L754.776 -86.4039L-378.672 209.329L-378.777 208.925Z" fill="#CECFCF"/>
<path fill-rule="evenodd" clip-rule="evenodd" d="M40.3348 -505.516L336.068 627.931L335.664 628.037L39.9306 -505.41L40.3348 -505.516Z" fill="#CECFCF"/>
<path fill-rule="evenodd" clip-rule="evenodd" d="M-376.676 -94.2462L752.785 216.365L752.674 216.768L-376.787 -93.8434L-376.676 -94.2462Z" fill="#CECFCF"/>
<path fill-rule="evenodd" clip-rule="evenodd" d="M343.506 -503.414L32.895 626.046L32.4922 625.935L343.103 -503.525L343.506 -503.414Z" fill="#CECFCF"/>
<path fill-rule="evenodd" clip-rule="evenodd" d="M-395.101 6.17118L771.138 115.935L771.099 116.35L-395.14 6.5871L-395.101 6.17118Z" fill="#CECFCF"/>
<path fill-rule="evenodd" clip-rule="evenodd" d="M243.088 -521.839L133.325 644.399L132.909 644.36L242.673 -521.878L243.088 -521.839Z" fill="#CECFCF"/>
<path fill-rule="evenodd" clip-rule="evenodd" d="M-289.435 -277.998L665.676 400.179L665.434 400.519L-289.677 -277.658L-289.435 -277.998Z" fill="#CECFCF"/>
<path fill-rule="evenodd" clip-rule="evenodd" d="M527.258 -416.174L-150.919 538.937L-151.26 538.695L526.917 -416.416L527.258 -416.174Z" fill="#CECFCF"/>
<path fill-rule="evenodd" clip-rule="evenodd" d="M-55.8422 -471.263L432.219 593.611L431.839 593.785L-56.2219 -471.089L-55.8422 -471.263Z" fill="#CECFCF"/>
<path fill-rule="evenodd" clip-rule="evenodd" d="M720.523 -182.58L-344.352 305.481L-344.526 305.101L720.348 -182.96L720.523 -182.58Z" fill="#CECFCF"/>
<path fill-rule="evenodd" clip-rule="evenodd" d="M-185.361 -390.007L561.68 512.262L561.358 512.529L-185.683 -389.741L-185.361 -390.007Z" fill="#CECFCF"/>
<path fill-rule="evenodd" clip-rule="evenodd" d="M639.267 -312.099L-263.003 434.942L-263.269 434.62L639 -312.421L639.267 -312.099Z" fill="#CECFCF"/>
<path fill-rule="evenodd" clip-rule="evenodd" d="M90.2936 -516.229L286.115 638.68L285.703 638.75L89.8817 -516.159L90.2936 -516.229Z" fill="#CECFCF"/>
<path fill-rule="evenodd" clip-rule="evenodd" d="M765.488 -36.4439L-389.42 159.377L-389.49 158.966L765.419 -36.8557L765.488 -36.4439Z" fill="#CECFCF"/>
<path fill-rule="evenodd" clip-rule="evenodd" d="M392.129 -487.712L-15.7395 610.379L-16.1311 610.234L391.737 -487.858L392.129 -487.712Z" fill="#CECFCF"/>
<path fill-rule="evenodd" clip-rule="evenodd" d="M736.971 265.39L-361.12 -142.478L-360.974 -142.869L737.117 264.999L736.971 265.39Z" fill="#CECFCF"/>
<path fill-rule="evenodd" clip-rule="evenodd" d="M-395.809 108.262L771.772 13.8428L771.806 14.2592L-395.775 108.679L-395.809 108.262Z" fill="#CECFCF"/>
<path fill-rule="evenodd" clip-rule="evenodd" d="M140.998 -522.547L235.417 645.034L235.001 645.068L140.581 -522.513L140.998 -522.547Z" fill="#CECFCF"/>
<path fill-rule="evenodd" clip-rule="evenodd" d="M-341.094 -189.938L717.271 312.083L717.091 312.46L-341.273 -189.561L-341.094 -189.938Z" fill="#CECFCF"/>
<path fill-rule="evenodd" clip-rule="evenodd" d="M439.197 -467.832L-62.8237 590.532L-63.2012 590.353L438.82 -468.011L439.197 -467.832Z" fill="#CECFCF"/>
<path fill-rule="evenodd" clip-rule="evenodd" d="M-144.61 -420.831L520.95 543.115L520.606 543.352L-144.954 -420.593L-144.61 -420.831Z" fill="#CECFCF"/>
<path fill-rule="evenodd" clip-rule="evenodd" d="M670.09 -271.348L-293.855 394.212L-294.092 393.869L669.853 -271.691L670.09 -271.348Z" fill="#CECFCF"/>
<path fill-rule="evenodd" clip-rule="evenodd" d="M-258.05 -318.318L634.319 440.521L634.049 440.84L-258.32 -318L-258.05 -318.318Z" fill="#CECFCF"/>
<path fill-rule="evenodd" clip-rule="evenodd" d="M567.578 -384.788L-191.262 507.58L-191.58 507.31L567.259 -385.059L567.578 -384.788Z" fill="#CECFCF"/>
<path fill-rule="evenodd" clip-rule="evenodd" d="M-8.50168 -490.489L384.893 612.87L384.499 613.011L-8.89517 -490.349L-8.50168 -490.489Z" fill="#CECFCF"/>
<path fill-rule="evenodd" clip-rule="evenodd" d="M739.749 -135.239L-363.61 258.155L-363.75 257.761L739.609 -135.633L739.749 -135.239Z" fill="#CECFCF"/>
<path fill-rule="evenodd" clip-rule="evenodd" d="M293.7 -514.819L82.7102 637.416L82.2993 637.34L293.289 -514.894L293.7 -514.819Z" fill="#CECFCF"/>
<path fill-rule="evenodd" clip-rule="evenodd" d="M764.078 166.961L-388.156 -44.0291L-388.081 -44.44L764.154 166.55L764.078 166.961Z" fill="#CECFCF"/>
<path fill-rule="evenodd" clip-rule="evenodd" d="M173.718 646.783L201.862 -524.271L202.279 -524.261L174.136 646.793L173.718 646.783Z" fill="#CECFCF"/>
<path fill-rule="evenodd" clip-rule="evenodd" d="M-397.523 46.9801L773.531 75.1235L773.521 75.5412L-397.533 47.3977L-397.523 46.9801Z" fill="#CECFCF"/>
<path fill-rule="evenodd" clip-rule="evenodd" d="M-117.129 561.197L492.771 -438.894L493.128 -438.676L-116.772 561.415L-117.129 561.197Z" fill="#CECFCF"/>
<path fill-rule="evenodd" clip-rule="evenodd" d="M-311.938 -243.868L688.153 366.032L687.935 366.389L-312.156 -243.511L-311.938 -243.868Z" fill="#CECFCF"/>
<path fill-rule="evenodd" clip-rule="evenodd" d="M-326.218 341.654L702.016 -219.5L702.216 -219.133L-326.018 342.021L-326.218 341.654Z" fill="#CECFCF"/>
<path fill-rule="evenodd" clip-rule="evenodd" d="M-92.3943 -452.957L468.76 575.278L468.393 575.478L-92.761 -452.757L-92.3943 -452.957Z" fill="#CECFCF"/>
<path fill-rule="evenodd" clip-rule="evenodd" d="M-236.125 465.189L611.835 -342.971L612.124 -342.668L-235.837 465.492L-236.125 465.189Z" fill="#CECFCF"/>
<path fill-rule="evenodd" clip-rule="evenodd" d="M-215.93 -362.864L592.23 485.097L591.928 485.385L-216.232 -362.576L-215.93 -362.864Z" fill="#CECFCF"/>
<path fill-rule="evenodd" clip-rule="evenodd" d="M-381.268 199.011L757.168 -76.8955L757.266 -76.4895L-381.17 199.417L-381.268 199.011Z" fill="#CECFCF"/>
<path fill-rule="evenodd" clip-rule="evenodd" d="M50.2486 -508.006L326.155 630.429L325.749 630.528L49.8426 -507.908L50.2486 -508.006Z" fill="#CECFCF"/>
<path fill-rule="evenodd" clip-rule="evenodd" d="M-373.876 -104.078L749.992 226.198L749.874 226.599L-373.994 -103.677L-373.876 -104.078Z" fill="#CECFCF"/>
<path fill-rule="evenodd" clip-rule="evenodd" d="M353.338 -500.614L23.0623 623.253L22.6614 623.136L352.937 -500.732L353.338 -500.614Z" fill="#CECFCF"/>
<path fill-rule="evenodd" clip-rule="evenodd" d="M-394.051 -3.99731L770.095 126.103L770.048 126.518L-394.097 -3.58214L-394.051 -3.99731Z" fill="#CECFCF"/>
<path fill-rule="evenodd" clip-rule="evenodd" d="M253.256 -520.789L123.156 643.356L122.741 643.31L252.841 -520.835L253.256 -520.789Z" fill="#CECFCF"/>
<path fill-rule="evenodd" clip-rule="evenodd" d="M-283.441 -286.279L659.688 408.464L659.44 408.8L-283.689 -285.943L-283.441 -286.279Z" fill="#CECFCF"/>
<path fill-rule="evenodd" clip-rule="evenodd" d="M535.539 -410.18L-159.204 532.949L-159.54 532.701L535.203 -410.428L535.539 -410.18Z" fill="#CECFCF"/>
<path fill-rule="evenodd" clip-rule="evenodd" d="M-46.5111 -475.438L422.891 597.792L422.509 597.959L-46.8939 -475.27L-46.5111 -475.438Z" fill="#CECFCF"/>
<path fill-rule="evenodd" clip-rule="evenodd" d="M724.697 -173.249L-348.532 296.153L-348.7 295.77L724.53 -173.632L724.697 -173.249Z" fill="#CECFCF"/>
<path fill-rule="evenodd" clip-rule="evenodd" d="M-177.428 -396.455L553.752 518.715L553.426 518.976L-177.754 -396.194L-177.428 -396.455Z" fill="#CECFCF"/>
<path fill-rule="evenodd" clip-rule="evenodd" d="M645.714 -304.166L-269.456 427.014L-269.717 426.688L645.453 -304.493L645.714 -304.166Z" fill="#CECFCF"/>
<path fill-rule="evenodd" clip-rule="evenodd" d="M100.387 -517.846L276.023 640.305L275.61 640.367L99.9741 -517.783L100.387 -517.846Z" fill="#CECFCF"/>
<path fill-rule="evenodd" clip-rule="evenodd" d="M767.106 -26.3504L-391.045 149.285L-391.108 148.872L767.043 -26.7634L767.106 -26.3504Z" fill="#CECFCF"/>
<path fill-rule="evenodd" clip-rule="evenodd" d="M401.679 -484.066L-25.2915 606.74L-25.6805 606.587L401.29 -484.218L401.679 -484.066Z" fill="#CECFCF"/>
<path fill-rule="evenodd" clip-rule="evenodd" d="M733.326 274.94L-357.48 -152.03L-357.328 -152.419L733.478 274.551L733.326 274.94Z" fill="#CECFCF"/>
<path fill-rule="evenodd" clip-rule="evenodd" d="M-396.54 98.066L772.511 24.0381L772.538 24.455L-396.513 98.4829L-396.54 98.066Z" fill="#CECFCF"/>
<path fill-rule="evenodd" clip-rule="evenodd" d="M151.194 -523.278L225.222 645.773L224.805 645.799L150.777 -523.252L151.194 -523.278Z" fill="#CECFCF"/>
<path fill-rule="evenodd" clip-rule="evenodd" d="M-336.629 -199.134L712.813 321.281L712.627 321.656L-336.814 -198.76L-336.629 -199.134Z" fill="#CECFCF"/>
<path fill-rule="evenodd" clip-rule="evenodd" d="M448.394 -463.367L-72.0217 586.074L-72.396 585.889L448.02 -463.553L448.394 -463.367Z" fill="#CECFCF"/>
<path fill-rule="evenodd" clip-rule="evenodd" d="M-136.145 -426.562L512.491 548.852L512.143 549.083L-136.493 -426.331L-136.145 -426.562Z" fill="#CECFCF"/>
<path fill-rule="evenodd" clip-rule="evenodd" d="M675.822 -262.883L-299.592 385.752L-299.823 385.404L675.591 -263.231L675.822 -262.883Z" fill="#CECFCF"/>
<path fill-rule="evenodd" clip-rule="evenodd" d="M-251.358 -326.045L627.632 448.253L627.356 448.567L-251.634 -325.732L-251.358 -326.045Z" fill="#CECFCF"/>
<path fill-rule="evenodd" clip-rule="evenodd" d="M575.304 -378.096L-198.994 500.893L-199.307 500.617L574.991 -378.372L575.304 -378.096Z" fill="#CECFCF"/>
<path fill-rule="evenodd" clip-rule="evenodd" d="M1.15807 -493.834L375.236 616.222L374.84 616.356L0.76219 -493.701L1.15807 -493.834Z" fill="#CECFCF"/>
<path fill-rule="evenodd" clip-rule="evenodd" d="M743.094 -125.58L-366.963 248.498L-367.096 248.102L742.961 -125.976L743.094 -125.58Z" fill="#CECFCF"/>
<path fill-rule="evenodd" clip-rule="evenodd" d="M303.737 -512.886L72.6702 635.49L72.2606 635.408L303.328 -512.969L303.737 -512.886Z" fill="#CECFCF"/>
<path fill-rule="evenodd" clip-rule="evenodd" d="M762.145 176.999L-386.231 -54.0681L-386.149 -54.4777L762.228 176.59L762.145 176.999Z" fill="#CECFCF"/>
<path fill-rule="evenodd" clip-rule="evenodd" d="M163.502 646.444L212.079 -523.94L212.496 -523.923L163.919 646.462L163.502 646.444Z" fill="#CECFCF"/>
<path fill-rule="evenodd" clip-rule="evenodd" d="M-397.185 36.7634L773.2 85.3403L773.183 85.7577L-397.202 37.1808L-397.185 36.7634Z" fill="#CECFCF"/>
<path fill-rule="evenodd" clip-rule="evenodd" d="M-125.809 555.796L501.453 -433.498L501.805 -433.275L-125.456 556.02L-125.809 555.796Z" fill="#CECFCF"/>
<path fill-rule="evenodd" clip-rule="evenodd" d="M-306.537 -252.546L682.758 374.715L682.534 375.068L-306.76 -252.194L-306.537 -252.546Z" fill="#CECFCF"/>
<path fill-rule="evenodd" clip-rule="evenodd" d="M-331.035 332.637L706.837 -210.486L707.031 -210.116L-330.841 333.008L-331.035 332.637Z" fill="#CECFCF"/>
<path fill-rule="evenodd" clip-rule="evenodd" d="M-83.378 -457.772L459.746 580.099L459.375 580.293L-83.7482 -457.578L-83.378 -457.772Z" fill="#CECFCF"/>
<path fill-rule="evenodd" clip-rule="evenodd" d="M-243.111 457.726L618.825 -335.512L619.108 -335.205L-242.828 458.033L-243.111 457.726Z" fill="#CECFCF"/>
<path fill-rule="evenodd" clip-rule="evenodd" d="M-208.466 -369.849L584.772 492.087L584.464 492.37L-208.774 -369.566L-208.466 -369.849Z" fill="#CECFCF"/>
<path fill-rule="evenodd" clip-rule="evenodd" d="M-383.586 189.055L759.492 -66.9414L759.583 -66.5337L-383.494 189.463L-383.586 189.055Z" fill="#CECFCF"/>
<path fill-rule="evenodd" clip-rule="evenodd" d="M60.2047 -510.324L316.201 632.754L315.793 632.845L59.7971 -510.233L60.2047 -510.324Z" fill="#CECFCF"/>
<path fill-rule="evenodd" clip-rule="evenodd" d="M-370.905 -113.859L747.027 235.981L746.903 236.38L-371.03 -113.46L-370.905 -113.859Z" fill="#CECFCF"/>
<path fill-rule="evenodd" clip-rule="evenodd" d="M363.118 -497.643L13.2783 620.289L12.8796 620.164L362.719 -497.768L363.118 -497.643Z" fill="#CECFCF"/>
<path fill-rule="evenodd" clip-rule="evenodd" d="M-392.823 -14.1457L768.875 136.252L768.821 136.666L-392.877 -13.7314L-392.823 -14.1457Z" fill="#CECFCF"/>
<path fill-rule="evenodd" clip-rule="evenodd" d="M263.405 -519.561L113.007 642.136L112.593 642.082L262.991 -519.615L263.405 -519.561Z" fill="#CECFCF"/>
<path fill-rule="evenodd" clip-rule="evenodd" d="M-277.305 -294.454L653.556 416.643L653.302 416.975L-277.559 -294.122L-277.305 -294.454Z" fill="#CECFCF"/>
<path fill-rule="evenodd" clip-rule="evenodd" d="M543.713 -404.043L-167.384 526.818L-167.716 526.564L543.381 -404.297L543.713 -404.043Z" fill="#CECFCF"/>
<path fill-rule="evenodd" clip-rule="evenodd" d="M-37.1086 -479.449L413.492 601.81L413.106 601.97L-37.4942 -479.288L-37.1086 -479.449Z" fill="#CECFCF"/>
<path fill-rule="evenodd" clip-rule="evenodd" d="M728.708 -163.847L-352.55 286.753L-352.711 286.368L728.548 -164.233L728.708 -163.847Z" fill="#CECFCF"/>
<path fill-rule="evenodd" clip-rule="evenodd" d="M-169.385 -402.762L545.712 525.029L545.381 525.284L-169.716 -402.507L-169.385 -402.762Z" fill="#CECFCF"/>
<path fill-rule="evenodd" clip-rule="evenodd" d="M652.022 -296.122L-275.769 418.974L-276.024 418.643L651.767 -296.453L652.022 -296.122Z" fill="#CECFCF"/>
<path fill-rule="evenodd" clip-rule="evenodd" d="M110.508 -519.287L265.904 641.753L265.49 641.808L110.094 -519.231L110.508 -519.287Z" fill="#CECFCF"/>
<path fill-rule="evenodd" clip-rule="evenodd" d="M768.546 -16.2303L-392.493 139.166L-392.549 138.752L768.491 -16.6443L768.546 -16.2303Z" fill="#CECFCF"/>
<path fill-rule="evenodd" clip-rule="evenodd" d="M411.164 -480.254L-34.7783 602.934L-35.1646 602.775L410.778 -480.413L411.164 -480.254Z" fill="#CECFCF"/>
<path fill-rule="evenodd" clip-rule="evenodd" d="M729.512 284.425L-353.675 -161.518L-353.516 -161.904L729.671 284.038L729.512 284.425Z" fill="#CECFCF"/>
<path fill-rule="evenodd" clip-rule="evenodd" d="M-397.093 87.8585L773.072 34.2446L773.091 34.6619L-397.074 88.2758L-397.093 87.8585Z" fill="#CECFCF"/>
<path fill-rule="evenodd" clip-rule="evenodd" d="M161.401 -523.831L215.015 646.333L214.597 646.353L160.984 -523.812L161.401 -523.831Z" fill="#CECFCF"/>
<path fill-rule="evenodd" clip-rule="evenodd" d="M-332.005 -208.251L708.195 330.401L708.003 330.772L-332.197 -207.88L-332.005 -208.251Z" fill="#CECFCF"/>
<path fill-rule="evenodd" clip-rule="evenodd" d="M457.51 -458.743L-81.1414 581.456L-81.5123 581.264L457.139 -458.935L457.51 -458.743Z" fill="#CECFCF"/>
<path fill-rule="evenodd" clip-rule="evenodd" d="M-127.582 -432.145L503.932 554.441L503.58 554.666L-127.934 -431.92L-127.582 -432.145Z" fill="#CECFCF"/>
<path fill-rule="evenodd" clip-rule="evenodd" d="M681.405 -254.32L-305.181 377.193L-305.406 376.841L681.179 -254.672L681.405 -254.32Z" fill="#CECFCF"/>
<path fill-rule="evenodd" clip-rule="evenodd" d="M-244.532 -333.654L620.811 455.867L620.529 456.175L-244.813 -333.345L-244.532 -333.654Z" fill="#CECFCF"/>
<path fill-rule="evenodd" clip-rule="evenodd" d="M582.914 -371.27L-206.607 494.072L-206.916 493.791L582.605 -371.551L582.914 -371.27Z" fill="#CECFCF"/>
<path fill-rule="evenodd" clip-rule="evenodd" d="M10.8736 -497.011L365.521 619.406L365.123 619.532L10.4754 -496.884L10.8736 -497.011Z" fill="#CECFCF"/>
<path fill-rule="evenodd" clip-rule="evenodd" d="M746.27 -115.864L-370.146 238.784L-370.272 238.386L746.144 -116.262L746.27 -115.864Z" fill="#CECFCF"/>
<path fill-rule="evenodd" clip-rule="evenodd" d="M313.739 -510.779L62.6653 633.39L62.2572 633.3L313.331 -510.868L313.739 -510.779Z" fill="#CECFCF"/>
<path fill-rule="evenodd" clip-rule="evenodd" d="M760.039 187.002L-384.13 -64.0725L-384.04 -64.4806L760.128 186.594L760.039 187.002Z" fill="#CECFCF"/>
<path fill-rule="evenodd" clip-rule="evenodd" d="M153.292 645.928L222.288 -523.431L222.705 -523.407L153.709 645.952L153.292 645.928Z" fill="#CECFCF"/>
<path fill-rule="evenodd" clip-rule="evenodd" d="M-396.668 26.5543L772.69 95.5498L772.666 95.9668L-396.693 26.9713L-396.668 26.5543Z" fill="#CECFCF"/>
<path fill-rule="evenodd" clip-rule="evenodd" d="M-134.392 550.244L510.04 -427.953L510.388 -427.723L-134.043 550.474L-134.392 550.244Z" fill="#CECFCF"/>
<path fill-rule="evenodd" clip-rule="evenodd" d="M-300.985 -261.13L677.212 383.302L676.982 383.651L-301.215 -260.781L-300.985 -261.13Z" fill="#CECFCF"/>
<path fill-rule="evenodd" clip-rule="evenodd" d="M-335.691 323.538L711.501 -201.39L711.689 -201.016L-335.504 323.911L-335.691 323.538Z" fill="#CECFCF"/>
<path fill-rule="evenodd" clip-rule="evenodd" d="M-74.2781 -462.429L450.649 584.763L450.276 584.95L-74.6516 -462.242L-74.2781 -462.429Z" fill="#CECFCF"/>
<path fill-rule="evenodd" clip-rule="evenodd" d="M-249.964 450.142L625.684 -327.933L625.962 -327.621L-249.687 450.454L-249.964 450.142Z" fill="#CECFCF"/>
<path fill-rule="evenodd" clip-rule="evenodd" d="M-200.882 -376.703L577.193 498.946L576.88 499.224L-201.194 -376.425L-200.882 -376.703Z" fill="#CECFCF"/>
<path fill-rule="evenodd" clip-rule="evenodd" d="M-385.729 179.06L761.643 -56.948L761.727 -56.5388L-385.645 179.469L-385.729 179.06Z" fill="#CECFCF"/>
<path fill-rule="evenodd" clip-rule="evenodd" d="M70.1995 -512.467L306.207 634.904L305.798 634.988L69.7903 -512.383L70.1995 -512.467Z" fill="#CECFCF"/>
<path fill-rule="evenodd" clip-rule="evenodd" d="M-367.764 -123.586L743.893 245.711L743.761 246.107L-367.895 -123.189L-367.764 -123.586Z" fill="#CECFCF"/>
<path fill-rule="evenodd" clip-rule="evenodd" d="M372.846 -494.502L3.54932 617.155L3.15286 617.023L372.45 -494.634L372.846 -494.502Z" fill="#CECFCF"/>
<path fill-rule="evenodd" clip-rule="evenodd" d="M-391.419 -24.271L767.477 146.378L767.416 146.791L-391.48 -23.8577L-391.419 -24.271Z" fill="#CECFCF"/>
<path fill-rule="evenodd" clip-rule="evenodd" d="M273.53 -518.157L102.881 640.739L102.468 640.678L273.117 -518.218L273.53 -518.157Z" fill="#CECFCF"/>
<path fill-rule="evenodd" clip-rule="evenodd" d="M-271.026 -302.521L647.283 424.714L647.023 425.041L-271.285 -302.193L-271.026 -302.521Z" fill="#CECFCF"/>
<path fill-rule="evenodd" clip-rule="evenodd" d="M551.78 -397.764L-175.454 520.544L-175.782 520.285L551.453 -398.024L551.78 -397.764Z" fill="#CECFCF"/>
<path fill-rule="evenodd" clip-rule="evenodd" d="M-27.6374 -483.295L404.024 605.662L403.636 605.816L-28.0258 -483.141L-27.6374 -483.295Z" fill="#CECFCF"/>
<path fill-rule="evenodd" clip-rule="evenodd" d="M732.555 -154.376L-356.403 277.285L-356.557 276.897L732.401 -154.764L732.555 -154.376Z" fill="#CECFCF"/>
<path fill-rule="evenodd" clip-rule="evenodd" d="M-161.231 -408.929L537.564 531.201L537.229 531.45L-161.567 -408.68L-161.231 -408.929Z" fill="#CECFCF"/>
<path fill-rule="evenodd" clip-rule="evenodd" d="M658.189 -287.97L-281.942 410.826L-282.191 410.491L657.939 -288.305L658.189 -287.97Z" fill="#CECFCF"/>
<path fill-rule="evenodd" clip-rule="evenodd" d="M120.651 -520.551L255.761 643.024L255.346 643.072L120.236 -520.503L120.651 -520.551Z" fill="#CECFCF"/>
<path fill-rule="evenodd" clip-rule="evenodd" d="M769.81 -6.08673L-393.764 129.023L-393.813 128.608L769.762 -6.5017L769.81 -6.08673Z" fill="#CECFCF"/>
<path fill-rule="evenodd" clip-rule="evenodd" d="M420.581 -476.276L-44.1982 598.964L-44.5817 598.798L420.197 -476.442L420.581 -476.276Z" fill="#CECFCF"/>
<path fill-rule="evenodd" clip-rule="evenodd" d="M725.536 293.842L-349.704 -170.937L-349.538 -171.321L725.702 293.458L725.536 293.842Z" fill="#CECFCF"/>
<path fill-rule="evenodd" clip-rule="evenodd" d="M-397.469 77.6432L773.454 44.4597L773.465 44.8773L-397.457 78.0608L-397.469 77.6432Z" fill="#CECFCF"/>
<path fill-rule="evenodd" clip-rule="evenodd" d="M171.616 -524.207L204.8 646.716L204.382 646.728L171.199 -524.195L171.616 -524.207Z" fill="#CECFCF"/>
<path fill-rule="evenodd" clip-rule="evenodd" d="M-327.222 -217.285L703.418 339.438L703.22 339.806L-327.421 -216.918L-327.222 -217.285Z" fill="#CECFCF"/>
<path fill-rule="evenodd" clip-rule="evenodd" d="M466.544 -453.96L-90.1794 576.68L-90.547 576.482L466.177 -454.159L466.544 -453.96Z" fill="#CECFCF"/>
<path fill-rule="evenodd" clip-rule="evenodd" d="M-118.923 -437.578L495.276 559.879L494.92 560.098L-119.279 -437.358L-118.923 -437.578Z" fill="#CECFCF"/>
<path fill-rule="evenodd" clip-rule="evenodd" d="M686.837 -245.661L-310.62 368.538L-310.839 368.182L686.618 -246.017L686.837 -245.661Z" fill="#CECFCF"/>
<path fill-rule="evenodd" clip-rule="evenodd" d="M-237.573 -341.143L613.858 463.36L613.571 463.664L-237.86 -340.839L-237.573 -341.143Z" fill="#CECFCF"/>
<path fill-rule="evenodd" clip-rule="evenodd" d="M590.402 -364.312L-214.101 487.12L-214.404 486.833L590.099 -364.599L590.402 -364.312Z" fill="#CECFCF"/>
<path fill-rule="evenodd" clip-rule="evenodd" d="M20.6441 -500.017L355.754 622.419L355.354 622.538L20.2439 -499.897L20.6441 -500.017Z" fill="#CECFCF"/>
<path fill-rule="evenodd" clip-rule="evenodd" d="M749.276 -106.094L-373.16 229.016L-373.279 228.616L749.156 -106.494L749.276 -106.094Z" fill="#CECFCF"/>
<path fill-rule="evenodd" clip-rule="evenodd" d="M323.704 -508.497L52.7002 631.115L52.2938 631.019L323.298 -508.594L323.704 -508.497Z" fill="#CECFCF"/>
<path fill-rule="evenodd" clip-rule="evenodd" d="M757.757 196.966L-381.855 -74.0383L-381.759 -74.4448L757.854 196.56L757.757 196.966Z" fill="#CECFCF"/>
<path fill-rule="evenodd" clip-rule="evenodd" d="M143.095 645.233L232.488 -522.744L232.904 -522.712L143.511 645.265L143.095 645.233Z" fill="#CECFCF"/>
<path fill-rule="evenodd" clip-rule="evenodd" d="M-395.974 16.3556L772.003 105.749L771.971 106.165L-396.006 16.7722L-395.974 16.3556Z" fill="#CECFCF"/>
<path fill-rule="evenodd" clip-rule="evenodd" d="M-142.876 544.543L518.529 -422.258L518.874 -422.022L-142.531 544.779L-142.876 544.543Z" fill="#CECFCF"/>
<path fill-rule="evenodd" clip-rule="evenodd" d="M-295.283 -269.615L671.518 391.791L671.282 392.135L-295.519 -269.27L-295.283 -269.615Z" fill="#CECFCF"/>
<path fill-rule="evenodd" clip-rule="evenodd" d="M-340.188 314.358L716.006 -192.214L716.186 -191.837L-340.008 314.734L-340.188 314.358Z" fill="#CECFCF"/>
<path fill-rule="evenodd" clip-rule="evenodd" d="M-65.0979 -466.927L441.474 589.267L441.097 589.448L-65.4746 -466.746L-65.0979 -466.927Z" fill="#CECFCF"/>
<path fill-rule="evenodd" clip-rule="evenodd" d="M-256.684 442.439L632.411 -320.235L632.683 -319.918L-256.412 442.756L-256.684 442.439Z" fill="#CECFCF"/>
<path fill-rule="evenodd" clip-rule="evenodd" d="M-193.18 -383.423L569.494 505.672L569.177 505.944L-193.497 -383.151L-193.18 -383.423Z" fill="#CECFCF"/>
<path fill-rule="evenodd" clip-rule="evenodd" d="M-387.697 169.029L763.619 -46.9185L763.696 -46.5079L-387.62 169.44L-387.697 169.029Z" fill="#CECFCF"/>
<path fill-rule="evenodd" clip-rule="evenodd" d="M80.2313 -514.436L296.179 636.88L295.768 636.957L79.8207 -514.359L80.2313 -514.436Z" fill="#CECFCF"/>
<path fill-rule="evenodd" clip-rule="evenodd" d="M-364.453 -133.257L740.589 255.384L740.451 255.778L-364.591 -132.863L-364.453 -133.257Z" fill="#CECFCF"/>
<path fill-rule="evenodd" clip-rule="evenodd" d="M382.517 -491.191L-6.12524 613.851L-6.51934 613.712L382.122 -491.33L382.517 -491.191Z" fill="#CECFCF"/>
<path fill-rule="evenodd" clip-rule="evenodd" d="M-389.838 -34.3699L765.904 156.479L765.836 156.891L-389.906 -33.9578L-389.838 -34.3699Z" fill="#CECFCF"/>
<path fill-rule="evenodd" clip-rule="evenodd" d="M283.63 -516.576L92.7812 639.165L92.3691 639.097L283.218 -516.644L283.63 -516.576Z" fill="#CECFCF"/>
<path fill-rule="evenodd" clip-rule="evenodd" d="M-264.607 -310.476L640.87 432.674L640.605 432.997L-264.872 -310.153L-264.607 -310.476Z" fill="#CECFCF"/>
<path fill-rule="evenodd" clip-rule="evenodd" d="M559.736 -391.345L-183.415 514.131L-183.737 513.866L559.413 -391.61L559.736 -391.345Z" fill="#CECFCF"/>
<path fill-rule="evenodd" clip-rule="evenodd" d="M-18.1002 -486.976L394.49 609.35L394.099 609.497L-18.4912 -486.829L-18.1002 -486.976Z" fill="#CECFCF"/>
<path fill-rule="evenodd" clip-rule="evenodd" d="M736.235 -144.84L-360.09 267.751L-360.237 267.36L736.088 -145.231L736.235 -144.84Z" fill="#CECFCF"/>
<path fill-rule="evenodd" clip-rule="evenodd" d="M-152.972 -414.952L529.31 537.23L528.97 537.474L-153.312 -414.709L-152.972 -414.952Z" fill="#CECFCF"/>
<path fill-rule="evenodd" clip-rule="evenodd" d="M664.212 -279.71L-287.971 402.571L-288.214 402.232L663.969 -280.05L664.212 -279.71Z" fill="#CECFCF"/>
<path fill-rule="evenodd" clip-rule="evenodd" d="M130.815 -521.638L245.597 644.118L245.182 644.159L130.4 -521.597L130.815 -521.638Z" fill="#CECFCF"/>
<path fill-rule="evenodd" clip-rule="evenodd" d="M770.897 4.07746L-394.859 118.859L-394.9 118.444L770.856 3.66172L770.897 4.07746Z" fill="#CECFCF"/>
<path fill-rule="evenodd" clip-rule="evenodd" d="M429.926 -472.136L-53.5474 594.829L-53.9279 594.657L429.546 -472.308L429.926 -472.136Z" fill="#CECFCF"/>
<path fill-rule="evenodd" clip-rule="evenodd" d="M721.395 303.188L-345.57 -180.286L-345.397 -180.667L721.567 302.807L721.395 303.188Z" fill="#CECFCF"/>
<path fill-rule="evenodd" clip-rule="evenodd" d="M-397.665 67.4227L773.658 54.6797L773.663 55.0974L-397.66 67.8405L-397.665 67.4227Z" fill="#CECFCF"/>
<path fill-rule="evenodd" clip-rule="evenodd" d="M181.837 -524.403L194.58 646.92L194.162 646.924L181.419 -524.399L181.837 -524.403Z" fill="#CECFCF"/>
<path fill-rule="evenodd" clip-rule="evenodd" d="M-322.282 -226.235L698.485 348.391L698.28 348.755L-322.487 -225.87L-322.282 -226.235Z" fill="#CECFCF"/>
<path fill-rule="evenodd" clip-rule="evenodd" d="M475.494 -449.02L-99.1318 571.747L-99.4959 571.542L475.13 -449.225L475.494 -449.02Z" fill="#CECFCF"/>
<path fill-rule="evenodd" clip-rule="evenodd" d="M-110.17 -442.858L486.528 565.166L486.168 565.379L-110.529 -442.645L-110.17 -442.858Z" fill="#CECFCF"/>
<path fill-rule="evenodd" clip-rule="evenodd" d="M692.118 -236.908L-315.906 359.789L-316.119 359.429L691.905 -237.268L692.118 -236.908Z" fill="#CECFCF"/>
<path fill-rule="evenodd" clip-rule="evenodd" d="M-230.485 -348.509L606.776 470.731L606.484 471.03L-230.778 -348.21L-230.485 -348.509Z" fill="#CECFCF"/>
<path fill-rule="evenodd" clip-rule="evenodd" d="M597.768 -357.224L-221.472 480.037L-221.771 479.745L597.469 -357.516L597.768 -357.224Z" fill="#CECFCF"/>
<path fill-rule="evenodd" clip-rule="evenodd" d="M30.4655 -502.852L345.935 625.261L345.533 625.373L30.0632 -502.74L30.4655 -502.852Z" fill="#CECFCF"/>
<path fill-rule="evenodd" clip-rule="evenodd" d="M752.112 -96.2729L-376.001 219.197L-376.113 218.794L752 -96.6752L752.112 -96.2729Z" fill="#CECFCF"/>
<path fill-rule="evenodd" clip-rule="evenodd" d="M333.627 -506.042L42.7751 628.667L42.3705 628.564L333.222 -506.146L333.627 -506.042Z" fill="#CECFCF"/>
<path fill-rule="evenodd" clip-rule="evenodd" d="M755.301 206.889L-379.408 -83.9631L-379.304 -84.3678L755.405 206.484L755.301 206.889Z" fill="#CECFCF"/>
</g>
<g opacity="0.7">
<path fill-rule="evenodd" clip-rule="evenodd" d="M-18.4617 132.551C-25.3887 128.451 -33.4464 127.179 -41.2212 128.593C-56.6297 130.572 -67.7969 113.75 -59.8809 100.32C-52.2473 86.7496 -32.0327 88.1633 -26.0953 102.441C-12.1006 138.629 39.6379 138.629 53.7739 102.441C59.5698 88.1633 79.9258 86.7496 87.5594 100.32C95.3343 113.75 84.1667 130.572 68.8997 128.593C61.1247 127.179 53.0671 128.593 46.1403 132.551C39.0725 136.509 33.9834 142.729 31.2972 150.221C25.0774 165.629 2.60117 165.629 -3.61912 150.221C-6.30489 142.87 -11.5352 136.509 -18.4617 132.551ZM13.7684 113.043C-1.63999 113.043 -10.6873 95.0898 -1.21583 82.6501C3.87324 76.7127 6.70025 69.0796 6.70025 61.0218C6.70025 53.1057 3.87324 45.4721 -1.21582 39.3935C-10.8285 26.9538 -1.63998 8.85914 13.7684 9.00082C29.1769 9.00082 38.2242 26.9538 28.7527 39.3935C23.6636 45.3305 20.8366 52.9641 20.8366 61.0218C20.8366 68.9379 23.6636 76.5715 28.7527 82.6501C38.3654 95.0898 29.1769 113.184 13.7684 113.043Z" fill="url(#paint1_linear_11805_92038)"/>
<path fill-rule="evenodd" clip-rule="evenodd" d="M155.683 38.2266C162.61 42.326 170.668 43.5983 178.443 42.1847C193.851 40.2056 205.018 57.0275 197.102 70.4572C189.469 84.0277 169.254 82.614 163.317 68.3364C149.322 32.148 97.5835 32.148 83.4475 68.3364C77.6517 82.614 57.2956 84.0277 49.6621 70.4572C41.8872 57.0275 53.0547 40.2056 68.3218 42.1847C76.0967 43.5983 84.1543 42.1847 91.0812 38.2266C98.1489 34.2684 103.238 28.0485 105.924 20.5563C112.144 5.14789 134.62 5.14789 140.841 20.5563C143.526 27.9071 148.757 34.2684 155.683 38.2266ZM123.453 57.7345C138.861 57.7345 147.909 75.6875 138.437 88.1272C133.348 94.0646 130.521 101.698 130.521 109.756C130.521 117.672 133.348 125.305 138.437 131.384C148.05 143.824 138.861 161.918 123.453 161.777C108.045 161.777 98.9973 143.824 108.469 131.384C113.558 125.447 116.385 117.813 116.385 109.756C116.385 101.839 113.558 94.2059 108.469 88.1272C98.856 75.6875 108.045 57.5933 123.453 57.7345Z" fill="url(#paint2_linear_11805_92038)"/>
</g>
<g opacity="0.6">
<path fill-rule="evenodd" clip-rule="evenodd" d="M462.566 132.551C469.493 128.451 477.551 127.179 485.325 128.593C500.734 130.572 511.901 113.75 503.985 100.32C496.352 86.7496 476.137 88.1633 470.2 102.441C456.205 138.629 404.466 138.629 390.33 102.441C384.534 88.1633 364.178 86.7496 356.545 100.32C348.77 113.75 359.938 130.572 375.205 128.593C382.98 127.179 391.037 128.593 397.964 132.551C405.032 136.509 410.121 142.729 412.807 150.221C419.027 165.629 441.503 165.629 447.723 150.221C450.409 142.87 455.639 136.509 462.566 132.551ZM430.336 113.043C445.744 113.043 454.792 95.0898 445.32 82.6501C440.231 76.7127 437.404 69.0796 437.404 61.0218C437.404 53.1057 440.231 45.4721 445.32 39.3935C454.933 26.9538 445.744 8.85914 430.336 9.00082C414.927 9.00082 405.88 26.9538 415.352 39.3935C420.441 45.3305 423.268 52.9641 423.268 61.0218C423.268 68.9379 420.441 76.5715 415.352 82.6501C405.739 95.0898 414.927 113.184 430.336 113.043Z" fill="url(#paint3_linear_11805_92038)"/>
<path fill-rule="evenodd" clip-rule="evenodd" d="M288.421 38.2266C281.494 42.326 273.436 43.5983 265.662 42.1847C250.253 40.2056 239.086 57.0275 247.002 70.4572C254.636 84.0277 274.85 82.614 280.787 68.3364C294.782 32.148 346.521 32.148 360.657 68.3364C366.453 82.614 386.809 84.0277 394.442 70.4572C402.217 57.0275 391.05 40.2056 375.782 42.1847C368.008 43.5983 359.95 42.1847 353.023 38.2266C345.955 34.2684 340.866 28.0485 338.18 20.5563C331.96 5.14789 309.484 5.14789 303.264 20.5563C300.578 27.9071 295.348 34.2684 288.421 38.2266ZM320.651 57.7345C305.243 57.7345 296.196 75.6875 305.667 88.1272C310.756 94.0646 313.583 101.698 313.583 109.756C313.583 117.672 310.756 125.305 305.667 131.384C296.054 143.824 305.243 161.918 320.651 161.777C336.06 161.777 345.107 143.824 335.636 131.384C330.546 125.447 327.719 117.813 327.719 109.756C327.719 101.839 330.546 94.2059 335.636 88.1272C345.248 75.6875 336.06 57.5933 320.651 57.7345Z" fill="url(#paint4_linear_11805_92038)"/>
</g>
<g opacity="0.6">
<path fill-rule="evenodd" clip-rule="evenodd" d="M54.712 445.227C61.6389 449.326 69.6967 450.598 77.4715 449.185C92.8799 447.206 104.047 464.027 96.1311 477.457C88.4975 491.028 68.2829 489.614 62.3456 475.336C48.3509 439.148 -3.38765 439.148 -17.5237 475.336C-23.3195 489.614 -43.6756 491.028 -51.3091 477.457C-59.084 464.027 -47.9165 447.206 -32.6494 449.185C-24.8745 450.598 -16.8169 449.185 -9.89001 445.227C-2.82225 441.268 2.26682 435.048 4.95301 427.556C11.1729 412.148 33.6491 412.148 39.8694 427.556C42.5551 434.907 47.7854 441.268 54.712 445.227ZM22.4818 464.735C37.8902 464.735 46.9376 482.688 37.4661 495.127C32.377 501.065 29.55 508.698 29.55 516.756C29.55 524.672 32.377 532.305 37.4661 538.384C47.0788 550.824 37.8902 568.918 22.4818 568.777C7.07338 568.777 -1.97393 550.824 7.49754 538.384C12.5866 532.447 15.4136 524.813 15.4136 516.756C15.4136 508.839 12.5866 501.206 7.49754 495.127C-2.11517 482.688 7.07338 464.593 22.4818 464.735Z" fill="url(#paint5_linear_11805_92038)"/>
</g>
<g opacity="0.6">
<path fill-rule="evenodd" clip-rule="evenodd" d="M383.871 445.449C390.798 449.549 398.856 450.821 406.631 449.407C422.039 447.428 433.207 464.25 425.291 477.68C417.657 491.25 397.442 489.837 391.505 475.559C377.51 439.37 325.772 439.37 311.636 475.559C305.84 489.837 285.484 491.25 277.85 477.68C270.075 464.25 281.243 447.428 296.51 449.407C304.285 450.821 312.342 449.407 319.269 445.449C326.337 441.491 331.426 435.271 334.112 427.779C340.332 412.37 362.808 412.37 369.029 427.779C371.715 435.13 376.945 441.491 383.871 445.449ZM351.641 464.957C367.05 464.957 376.097 482.91 366.625 495.35C361.536 501.287 358.709 508.92 358.709 516.978C358.709 524.894 361.536 532.528 366.625 538.607C376.238 551.046 367.05 569.141 351.641 568.999C336.233 568.999 327.185 551.046 336.657 538.607C341.746 532.67 344.573 525.036 344.573 516.978C344.573 509.062 341.746 501.428 336.657 495.35C327.044 482.91 336.233 464.816 351.641 464.957Z" fill="url(#paint6_linear_11805_92038)"/>
<path fill-rule="evenodd" clip-rule="evenodd" d="M209.727 539.773C202.8 535.674 194.742 534.402 186.967 535.815C171.559 537.794 160.391 520.972 168.307 507.543C175.941 493.972 196.156 495.386 202.093 509.663C216.088 545.852 267.826 545.852 281.962 509.663C287.758 495.386 308.114 493.972 315.748 507.543C323.523 520.972 312.355 537.794 297.088 535.815C289.313 534.402 281.256 535.815 274.329 539.773C267.261 543.732 262.172 549.951 259.486 557.444C253.266 572.852 230.789 572.852 224.569 557.444C221.883 550.093 216.653 543.732 209.727 539.773ZM241.957 520.265C226.548 520.265 217.501 502.312 226.972 489.873C232.062 483.935 234.889 476.302 234.889 468.244C234.889 460.328 232.062 452.695 226.972 446.616C217.36 434.176 226.548 416.081 241.957 416.223C257.365 416.223 266.413 434.176 256.941 446.616C251.852 452.553 249.025 460.186 249.025 468.244C249.025 476.16 251.852 483.794 256.941 489.873C266.554 502.312 257.365 520.407 241.957 520.265Z" fill="url(#paint7_linear_11805_92038)"/>
</g>
<defs>
<radialGradient id="paint0_radial_11805_92038" cx="0" cy="0" r="1" gradientUnits="userSpaceOnUse" gradientTransform="translate(162.309 -384.206) rotate(90.3745) scale(992.369)">
<stop offset="0.473494" stop-color="#CECFCF" stop-opacity="0"/>
<stop offset="1" stop-color="#CECFCF"/>
</radialGradient>
<linearGradient id="paint1_linear_11805_92038" x1="13.8022" y1="161.777" x2="13.8022" y2="8.99998" gradientUnits="userSpaceOnUse">
<stop stop-color="#EBECEC"/>
<stop offset="1" stop-color="#EBECEC"/>
</linearGradient>
<linearGradient id="paint2_linear_11805_92038" x1="205.524" y1="89.9921" x2="32.0393" y2="56.6018" gradientUnits="userSpaceOnUse">
<stop stop-color="#EBECEC" stop-opacity="0"/>
<stop offset="1" stop-color="#EBECEC"/>
</linearGradient>
<linearGradient id="paint3_linear_11805_92038" x1="430.302" y1="161.777" x2="430.302" y2="8.99998" gradientUnits="userSpaceOnUse">
<stop stop-color="#EBECEC"/>
<stop offset="1" stop-color="#EBECEC"/>
</linearGradient>
<linearGradient id="paint4_linear_11805_92038" x1="238.581" y1="89.9921" x2="412.065" y2="56.6018" gradientUnits="userSpaceOnUse">
<stop stop-color="#EBECEC" stop-opacity="0"/>
<stop offset="1" stop-color="#EBECEC"/>
</linearGradient>
<linearGradient id="paint5_linear_11805_92038" x1="104.553" y1="496.992" x2="-68.9319" y2="463.602" gradientUnits="userSpaceOnUse">
<stop stop-color="#EBECEC" stop-opacity="0"/>
<stop offset="1" stop-color="#EBECEC"/>
</linearGradient>
<linearGradient id="paint6_linear_11805_92038" x1="351.607" y1="416.222" x2="351.607" y2="569" gradientUnits="userSpaceOnUse">
<stop stop-color="#EBECEC"/>
<stop offset="1" stop-color="#EBECEC"/>
</linearGradient>
<linearGradient id="paint7_linear_11805_92038" x1="159.886" y1="488.008" x2="333.371" y2="521.398" gradientUnits="userSpaceOnUse">
<stop stop-color="#EBECEC" stop-opacity="0"/>
<stop offset="1" stop-color="#EBECEC"/>
</linearGradient>
</defs>
</svg>
