<svg width="52" height="52" viewBox="0 0 52 52" fill="none" xmlns="http://www.w3.org/2000/svg">
<rect x="0.94566" y="0.94566" width="50.1076" height="50.1076" rx="14.1447" fill="#FEFEFE"/>
<rect x="0.94566" y="0.94566" width="50.1076" height="50.1076" rx="14.1447" stroke="#EBECEC" stroke-width="0.801477"/>
<g filter="url(#filter0_i_11829_128817)">
<rect x="3.27344" y="3.27148" width="45.4545" height="45.4545" rx="12.7273" fill="#F3F3F5"/>
<rect x="3.47381" y="3.47185" width="45.0538" height="45.0538" rx="12.5269" stroke="url(#paint0_linear_11829_128817)" stroke-width="0.400739"/>
</g>
<rect x="6.66443" y="6.24451" width="39.2003" height="39.2003" rx="10.5088" fill="#FEFEFE"/>
<rect x="6.66443" y="6.24451" width="39.2003" height="39.2003" rx="10.5088" stroke="#EBECEC" stroke-width="0.801514"/>
<path d="M36.4531 18.2857V24.523C36.4531 34.0333 28.4064 37.1885 26.7953 37.7245C26.4512 37.8415 26.0781 37.8415 25.734 37.7245C24.1209 37.1885 16.0762 34.0333 16.0762 24.523V18.2857C16.0762 17.8354 16.2551 17.4034 16.5735 17.085C18.2971 15.3614 22.5662 14.7325 25.3064 14.004C25.9338 13.8372 26.5955 13.8372 27.223 14.004C29.9631 14.7325 34.2322 15.3614 35.9558 17.085C36.2742 17.4034 36.4531 17.8354 36.4531 18.2857Z" stroke="#FF5500" stroke-width="0.889112"/>
<path d="M30.7099 22.5811H28.9317V21.2474C28.9317 20.54 28.6507 19.8615 28.1505 19.3613C27.6502 18.8611 26.9718 18.5801 26.2644 18.5801C25.5569 18.5801 24.8785 18.8611 24.3783 19.3613C23.878 19.8615 23.597 20.54 23.597 21.2474V22.5811H21.8188C21.583 22.5811 21.3568 22.6747 21.1901 22.8415C21.0233 23.0082 20.9297 23.2344 20.9297 23.4702V29.694C20.9297 29.9298 21.0233 30.156 21.1901 30.3227C21.3568 30.4894 21.583 30.5831 21.8188 30.5831H30.7099C30.9457 30.5831 31.1719 30.4894 31.3386 30.3227C31.5054 30.156 31.599 29.9298 31.599 29.694V23.4702C31.599 23.2344 31.5054 23.0082 31.3386 22.8415C31.1719 22.6747 30.9457 22.5811 30.7099 22.5811ZM24.4861 21.2474C24.4861 20.7758 24.6735 20.3235 25.007 19.99C25.3405 19.6566 25.7928 19.4692 26.2644 19.4692C26.7359 19.4692 27.1883 19.6566 27.5217 19.99C27.8552 20.3235 28.0426 20.7758 28.0426 21.2474V22.5811H24.4861V21.2474ZM30.7099 29.694H21.8188V23.4702H30.7099V29.694Z" fill="#FF5500"/>
<path d="M26.2638 27.5238C26.9063 27.5238 27.4271 27.003 27.4271 26.3605C27.4271 25.7181 26.9063 25.1973 26.2638 25.1973C25.6214 25.1973 25.1006 25.7181 25.1006 26.3605C25.1006 27.003 25.6214 27.5238 26.2638 27.5238Z" stroke="#FF5500" stroke-width="0.711289"/>
<defs>
<filter id="filter0_i_11829_128817" x="3.27344" y="3.27148" width="45.4541" height="46.2566" filterUnits="userSpaceOnUse" color-interpolation-filters="sRGB">
<feFlood flood-opacity="0" result="BackgroundImageFix"/>
<feBlend mode="normal" in="SourceGraphic" in2="BackgroundImageFix" result="shape"/>
<feColorMatrix in="SourceAlpha" type="matrix" values="0 0 0 0 0 0 0 0 0 0 0 0 0 0 0 0 0 0 127 0" result="hardAlpha"/>
<feOffset dy="0.801477"/>
<feGaussianBlur stdDeviation="1.20222"/>
<feComposite in2="hardAlpha" operator="arithmetic" k2="-1" k3="1"/>
<feColorMatrix type="matrix" values="0 0 0 0 0 0 0 0 0 0 0 0 0 0 0 0 0 0 0.15 0"/>
<feBlend mode="normal" in2="shape" result="effect1_innerShadow_11829_128817"/>
</filter>
<linearGradient id="paint0_linear_11829_128817" x1="26.0007" y1="3.27148" x2="26.0007" y2="48.726" gradientUnits="userSpaceOnUse">
<stop stop-color="white" stop-opacity="0"/>
<stop offset="1" stop-color="white"/>
</linearGradient>
</defs>
</svg>
