<svg width="24" height="25" viewBox="0 0 24 25" fill="none" xmlns="http://www.w3.org/2000/svg">
<path d="M21.5299 20.9928L16.8358 16.2997C18.1963 14.6663 18.8748 12.5712 18.73 10.4504C18.5852 8.32951 17.6283 6.34611 16.0584 4.91279C14.4885 3.47946 12.4264 2.70655 10.3011 2.75485C8.1759 2.80315 6.15108 3.66894 4.64791 5.17211C3.14474 6.67528 2.27895 8.7001 2.23065 10.8253C2.18235 12.9506 2.95526 15.0127 4.38859 16.5826C5.82191 18.1525 7.80531 19.1094 9.92618 19.2542C12.047 19.399 14.1421 18.7205 15.7755 17.36L20.4686 22.0541C20.5383 22.1237 20.621 22.179 20.7121 22.2167C20.8031 22.2544 20.9007 22.2739 20.9992 22.2739C21.0978 22.2739 21.1954 22.2544 21.2864 22.2167C21.3775 22.179 21.4602 22.1237 21.5299 22.0541C21.5995 21.9844 21.6548 21.9017 21.6925 21.8106C21.7302 21.7196 21.7497 21.622 21.7497 21.5234C21.7497 21.4249 21.7302 21.3273 21.6925 21.2363C21.6548 21.1452 21.5995 21.0625 21.5299 20.9928ZM3.74924 11.0234C3.74924 9.68841 4.14512 8.38337 4.88682 7.27334C5.62852 6.16331 6.68272 5.29814 7.91612 4.78725C9.14952 4.27636 10.5067 4.14269 11.8161 4.40314C13.1255 4.66359 14.3282 5.30646 15.2722 6.25047C16.2162 7.19447 16.8591 8.39721 17.1195 9.70658C17.38 11.0159 17.2463 12.3731 16.7354 13.6066C16.2245 14.84 15.3594 15.8942 14.2493 16.6359C13.1393 17.3776 11.8343 17.7734 10.4992 17.7734C8.70963 17.7715 6.9939 17.0597 5.72846 15.7942C4.46302 14.5288 3.75122 12.813 3.74924 11.0234Z" fill="#FF5500"/>
</svg>
