<svg width="25" height="25" viewBox="0 0 25 25" fill="none" xmlns="http://www.w3.org/2000/svg">
<path d="M19.2505 15.123C18.5876 15.1227 17.9434 15.343 17.4196 15.7493L15.253 14.0618C15.4166 13.6868 15.5008 13.2821 15.5005 12.873C15.5005 12.8037 15.5005 12.7343 15.493 12.6658L16.7333 12.2524C17.1257 12.8576 17.723 13.3012 18.4158 13.5018C19.1086 13.7025 19.8505 13.6469 20.5056 13.3451C21.1607 13.0434 21.6852 12.5157 21.983 11.8587C22.2807 11.2018 22.3318 10.4595 22.1269 9.76798C21.922 9.07643 21.4747 8.48185 20.8672 8.09317C20.2596 7.70448 19.5323 7.54771 18.8185 7.65157C18.1048 7.75542 17.4523 8.11296 16.9807 8.65868C16.5091 9.20439 16.2498 9.90176 16.2505 10.623C16.2505 10.6924 16.2505 10.7618 16.258 10.8302L15.0177 11.2437C14.7458 10.8233 14.373 10.4777 13.9334 10.2383C13.4937 9.9989 13.0011 9.87333 12.5005 9.87304C12.335 9.87338 12.1697 9.88717 12.0064 9.91429L11.3652 8.46679C11.9189 8.02437 12.2981 7.40021 12.4355 6.70492C12.573 6.00964 12.4599 5.28814 12.1162 4.6683C11.7725 4.04846 11.2205 3.57031 10.5579 3.31861C9.8954 3.0669 9.16514 3.0579 8.49659 3.29318C7.82804 3.52847 7.26438 3.99285 6.90552 4.60403C6.54665 5.2152 6.41576 5.93369 6.53603 6.63216C6.65631 7.33062 7.01999 7.96395 7.56261 8.41988C8.10524 8.87582 8.79176 9.12492 9.5005 9.12304C9.66603 9.12269 9.83126 9.1089 9.99456 9.08179L10.6358 10.5255C10.092 10.9559 9.7146 11.5618 9.56805 12.2397C9.42151 12.9175 9.51494 13.6252 9.83237 14.2418L7.42206 16.383C6.81548 15.9741 6.08059 15.8004 5.35513 15.8946C4.62967 15.9887 3.96345 16.3442 3.48134 16.8945C2.99924 17.4447 2.73436 18.1518 2.73634 18.8834C2.73832 19.6149 3.00703 20.3206 3.49211 20.8682C3.97719 21.4158 4.64532 21.7677 5.37128 21.8579C6.09724 21.9481 6.83119 21.7705 7.43554 21.3583C8.0399 20.9461 8.47317 20.3276 8.65415 19.6188C8.83513 18.91 8.75139 18.1595 8.41862 17.508L10.8289 15.3668C11.3508 15.7182 11.9702 15.8961 12.599 15.8752C13.2278 15.8543 13.834 15.6358 14.3314 15.2505L16.498 16.938C16.3349 17.3118 16.2507 17.7152 16.2505 18.123C16.2505 18.7164 16.4264 19.2964 16.7561 19.7897C17.0857 20.2831 17.5543 20.6676 18.1025 20.8947C18.6506 21.1217 19.2538 21.1811 19.8358 21.0654C20.4177 20.9496 20.9523 20.6639 21.3718 20.2444C21.7914 19.8248 22.0771 19.2902 22.1929 18.7083C22.3086 18.1264 22.2492 17.5232 22.0221 16.975C21.7951 16.4268 21.4106 15.9583 20.9172 15.6286C20.4239 15.299 19.8438 15.123 19.2505 15.123ZM19.2505 9.12304C19.5472 9.12304 19.8372 9.21101 20.0839 9.37583C20.3305 9.54065 20.5228 9.77492 20.6363 10.049C20.7499 10.3231 20.7796 10.6247 20.7217 10.9157C20.6638 11.2066 20.5209 11.4739 20.3112 11.6837C20.1014 11.8935 19.8341 12.0363 19.5431 12.0942C19.2522 12.1521 18.9506 12.1224 18.6765 12.0089C18.4024 11.8953 18.1681 11.7031 18.0033 11.4564C17.8385 11.2097 17.7505 10.9197 17.7505 10.623C17.7505 10.2252 17.9085 9.84368 18.1898 9.56238C18.4711 9.28107 18.8527 9.12304 19.2505 9.12304ZM8.0005 6.12304C8.0005 5.82636 8.08847 5.53635 8.2533 5.28968C8.41812 5.04301 8.65239 4.85075 8.92647 4.73722C9.20056 4.62369 9.50216 4.59398 9.79313 4.65186C10.0841 4.70974 10.3514 4.8526 10.5612 5.06238C10.7709 5.27215 10.9138 5.53943 10.9717 5.8304C11.0296 6.12137 10.9999 6.42297 10.8863 6.69706C10.7728 6.97115 10.5805 7.20542 10.3339 7.37024C10.0872 7.53506 9.79717 7.62304 9.5005 7.62304C9.10267 7.62304 8.72114 7.465 8.43984 7.1837C8.15854 6.90239 8.0005 6.52086 8.0005 6.12304ZM5.7505 20.373C5.45383 20.373 5.16382 20.2851 4.91714 20.1202C4.67047 19.9554 4.47821 19.7211 4.36468 19.4471C4.25115 19.173 4.22144 18.8714 4.27932 18.5804C4.3372 18.2894 4.48006 18.0222 4.68984 17.8124C4.89962 17.6026 5.16689 17.4597 5.45786 17.4019C5.74884 17.344 6.05044 17.3737 6.32453 17.4872C6.59861 17.6007 6.83288 17.793 6.9977 18.0397C7.16253 18.2864 7.2505 18.5764 7.2505 18.873C7.2505 19.2709 7.09246 19.6524 6.81116 19.9337C6.52986 20.215 6.14832 20.373 5.7505 20.373ZM11.0005 12.873C11.0005 12.5764 11.0885 12.2864 11.2533 12.0397C11.4181 11.793 11.6524 11.6007 11.9265 11.4872C12.2006 11.3737 12.5022 11.344 12.7931 11.4019C13.0841 11.4597 13.3514 11.6026 13.5612 11.8124C13.7709 12.0222 13.9138 12.2894 13.9717 12.5804C14.0296 12.8714 13.9999 13.173 13.8863 13.4471C13.7728 13.7212 13.5805 13.9554 13.3339 14.1202C13.0872 14.2851 12.7972 14.373 12.5005 14.373C12.1027 14.373 11.7211 14.215 11.4398 13.9337C11.1585 13.6524 11.0005 13.2709 11.0005 12.873ZM19.2505 19.623C18.9538 19.623 18.6638 19.5351 18.4171 19.3702C18.1705 19.2054 17.9782 18.9712 17.8647 18.6971C17.7511 18.423 17.7214 18.1214 17.7793 17.8304C17.8372 17.5394 17.9801 17.2722 18.1898 17.0624C18.3996 16.8526 18.6669 16.7097 18.9579 16.6519C19.2488 16.594 19.5504 16.6237 19.8245 16.7372C20.0986 16.8507 20.3329 17.043 20.4977 17.2897C20.6625 17.5364 20.7505 17.8264 20.7505 18.123C20.7505 18.5209 20.5925 18.9024 20.3112 19.1837C20.0299 19.465 19.6483 19.623 19.2505 19.623Z" fill="#FF5500"/>
</svg>
