<svg width="52" height="52" viewBox="0 0 52 52" fill="none" xmlns="http://www.w3.org/2000/svg">
<rect x="0.946637" y="0.94566" width="50.1076" height="50.1076" rx="14.1447" fill="#FEFEFE"/>
<rect x="0.946637" y="0.94566" width="50.1076" height="50.1076" rx="14.1447" stroke="#EBECEC" stroke-width="0.801477"/>
<g filter="url(#filter0_i_11829_128819)">
<rect x="3.27246" y="3.27344" width="45.4545" height="45.4545" rx="12.7273" fill="#F3F3F5"/>
<rect x="3.47283" y="3.47381" width="45.0538" height="45.0538" rx="12.5269" stroke="url(#paint0_linear_11829_128819)" stroke-width="0.400739"/>
</g>
<rect x="6.40074" y="6.40074" width="39.1985" height="39.1985" rx="10.5084" fill="#FEFEFE"/>
<rect x="6.40074" y="6.40074" width="39.1985" height="39.1985" rx="10.5084" stroke="#EBECEC" stroke-width="0.801477"/>
<path fill-rule="evenodd" clip-rule="evenodd" d="M19.3337 23.1904C19.3337 25.3202 21.1403 27.0468 23.369 27.0468C23.9113 27.0468 24.4286 26.9446 24.9009 26.7592C24.9577 26.7369 25.0254 26.7521 25.0677 26.7946L25.6953 27.4236C25.7277 27.4561 25.744 27.4724 25.7635 27.4824C25.7807 27.4912 25.7997 27.4965 25.8192 27.4978C25.8413 27.4992 25.8641 27.4938 25.9097 27.4828L26.5218 27.3354C26.6157 27.3127 26.6627 27.3014 26.6997 27.3123C26.7321 27.3218 26.7598 27.3424 26.7774 27.3701C26.7974 27.4018 26.7974 27.4481 26.7974 27.5406V28.2801C26.7974 28.3121 26.7974 28.3281 26.8012 28.3432C26.8045 28.3566 26.81 28.3694 26.8175 28.3811C26.8259 28.3944 26.8376 28.4058 26.8611 28.4286L27.5738 29.1201C27.604 29.1494 27.6192 29.1641 27.6371 29.1735C27.653 29.1818 27.6705 29.187 27.6885 29.1889C27.7088 29.191 27.73 29.1872 27.7724 29.1796L28.4153 29.0644C28.5054 29.0483 28.5504 29.0402 28.5856 29.0521C28.6164 29.0626 28.6424 29.0832 28.6589 29.1103C28.6777 29.1411 28.6777 29.1849 28.6777 29.2725V29.9645C28.6777 30.0386 28.6777 30.0757 28.6927 30.104C28.706 30.1289 28.7272 30.1491 28.7533 30.1618C28.7829 30.1762 28.8216 30.1762 28.8992 30.1762H29.3709C29.4484 30.1762 29.4872 30.1762 29.5168 30.1906C29.5429 30.2033 29.5641 30.2236 29.5773 30.2485C29.5924 30.2768 29.5924 30.3138 29.5924 30.3879V31.0831C29.5924 31.116 29.5924 31.1325 29.5964 31.148C29.5999 31.1617 29.6057 31.1748 29.6135 31.1867C29.6224 31.2002 29.6347 31.2117 29.6594 31.2347L31.1287 32.6019C31.1582 32.6294 31.173 32.6431 31.1903 32.6519C31.2056 32.6598 31.2224 32.6648 31.2396 32.6667C31.2591 32.6688 31.2795 32.6655 31.3201 32.659L32.4823 32.4716C32.5479 32.461 32.5808 32.4557 32.6054 32.44C32.6271 32.4262 32.6442 32.4068 32.6549 32.3841C32.667 32.3583 32.667 32.3265 32.667 32.2629V30.6269C32.667 30.5943 32.667 30.578 32.6631 30.5627C32.6597 30.5491 32.654 30.5362 32.6464 30.5243C32.6377 30.5109 32.6256 30.4994 32.6014 30.4765L26.9478 25.1218C26.9161 25.0918 26.9084 25.0447 26.9294 25.0071C27.2325 24.4658 27.4044 23.8473 27.4044 23.1904C27.4044 21.0606 25.5977 19.334 23.369 19.334C21.1403 19.334 19.3337 21.0606 19.3337 23.1904ZM21.7326 22.6315C21.7326 23.1847 22.2019 23.6332 22.7808 23.6332C23.3596 23.6332 23.8289 23.1847 23.8289 22.6315C23.8289 22.0783 23.3596 21.6299 22.7808 21.6299C22.2019 21.6299 21.7326 22.0783 21.7326 22.6315Z" stroke="#FF5500" stroke-width="0.909091"/>
<path d="M36.907 17.7773V15.7746C36.907 15.1052 36.3644 14.5625 35.6949 14.5625L33.6923 14.5625M15.0889 17.7773V15.7746C15.0889 15.1052 15.6316 14.5625 16.301 14.5625H18.3036M15.0889 33.1403V35.0123C15.0889 35.6817 15.6316 36.2244 16.301 36.2244H18.173M36.907 33.1403V35.0123C36.907 35.6817 36.3644 36.2244 35.6949 36.2244H33.8229" stroke="#FF5500" stroke-width="0.909091" stroke-linecap="round"/>
<defs>
<filter id="filter0_i_11829_128819" x="3.27246" y="3.27344" width="45.4541" height="46.2566" filterUnits="userSpaceOnUse" color-interpolation-filters="sRGB">
<feFlood flood-opacity="0" result="BackgroundImageFix"/>
<feBlend mode="normal" in="SourceGraphic" in2="BackgroundImageFix" result="shape"/>
<feColorMatrix in="SourceAlpha" type="matrix" values="0 0 0 0 0 0 0 0 0 0 0 0 0 0 0 0 0 0 127 0" result="hardAlpha"/>
<feOffset dy="0.801477"/>
<feGaussianBlur stdDeviation="1.20222"/>
<feComposite in2="hardAlpha" operator="arithmetic" k2="-1" k3="1"/>
<feColorMatrix type="matrix" values="0 0 0 0 0 0 0 0 0 0 0 0 0 0 0 0 0 0 0.15 0"/>
<feBlend mode="normal" in2="shape" result="effect1_innerShadow_11829_128819"/>
</filter>
<linearGradient id="paint0_linear_11829_128819" x1="25.9997" y1="3.27344" x2="25.9997" y2="48.728" gradientUnits="userSpaceOnUse">
<stop stop-color="white" stop-opacity="0"/>
<stop offset="1" stop-color="white"/>
</linearGradient>
</defs>
</svg>
