<svg width="24" height="25" viewBox="0 0 24 25" fill="none" xmlns="http://www.w3.org/2000/svg">
<path d="M3 7.23511L9 7.23511C9.09852 7.23503 9.19609 7.25436 9.28714 7.292C9.37818 7.32965 9.46092 7.38486 9.53062 7.45448L14.5603 12.4851L19.1897 12.4851L17.4694 10.7657C17.3286 10.625 17.2496 10.4341 17.2496 10.2351C17.2496 10.0361 17.3286 9.84521 17.4694 9.70448C17.6101 9.56375 17.801 9.48469 18 9.48469C18.199 9.48469 18.3899 9.56375 18.5306 9.70448L21.5306 12.7045C21.6004 12.7741 21.6557 12.8569 21.6934 12.9479C21.7312 13.039 21.7506 13.1365 21.7506 13.2351C21.7506 13.3337 21.7312 13.4313 21.6934 13.5223C21.6557 13.6134 21.6004 13.6961 21.5306 13.7657L18.5306 16.7657C18.3899 16.9065 18.199 16.9855 18 16.9855C17.801 16.9855 17.6101 16.9065 17.4694 16.7657C17.3286 16.625 17.2496 16.4341 17.2496 16.2351C17.2496 16.0361 17.3286 15.8452 17.4694 15.7045L19.1897 13.9851L14.5603 13.9851L9.53063 19.0157C9.46092 19.0854 9.37818 19.1406 9.28714 19.1782C9.19609 19.2159 9.09852 19.2352 9 19.2351L3 19.2351C2.80109 19.2351 2.61032 19.1561 2.46967 19.0154C2.32902 18.8748 2.25 18.684 2.25 18.4851C2.25 18.2862 2.32902 18.0954 2.46967 17.9548C2.61032 17.8141 2.80109 17.7351 3 17.7351L8.68969 17.7351L13.1897 13.2351L8.68969 8.73511L3 8.73511C2.80109 8.73511 2.61032 8.65609 2.46967 8.51544C2.32902 8.37479 2.25 8.18402 2.25 7.98511C2.25 7.78619 2.32902 7.59543 2.46967 7.45478C2.61032 7.31412 2.80109 7.23511 3 7.23511Z" fill="#FF5500"/>
</svg>
