<svg width="52" height="52" viewBox="0 0 52 52" fill="none" xmlns="http://www.w3.org/2000/svg">
<rect x="0.946637" y="0.94566" width="50.1076" height="50.1076" rx="14.1447" fill="#FEFEFE"/>
<rect x="0.946637" y="0.94566" width="50.1076" height="50.1076" rx="14.1447" stroke="#EBECEC" stroke-width="0.801477"/>
<g filter="url(#filter0_i_11829_128823)">
<rect x="3.27246" y="3.27344" width="45.4545" height="45.4545" rx="12.7273" fill="#F3F3F5"/>
<rect x="3.47283" y="3.47381" width="45.0538" height="45.0538" rx="12.5269" stroke="url(#paint0_linear_11829_128823)" stroke-width="0.400739"/>
</g>
<rect x="6.40074" y="6.40074" width="39.1985" height="39.1985" rx="10.5084" fill="#FEFEFE"/>
<rect x="6.40074" y="6.40074" width="39.1985" height="39.1985" rx="10.5084" stroke="#EBECEC" stroke-width="0.801477"/>
<path d="M37.9227 25.8661C37.9227 27.7204 37.4995 29.4758 36.7443 31.041C35.7983 33.0021 34.3312 34.6646 32.5228 35.849C30.648 37.0769 28.4064 37.7908 25.998 37.7908C19.4121 37.7908 14.0732 32.452 14.0732 25.8661C14.0732 25.3322 14.1083 24.8065 14.1763 24.2912C14.6404 20.7744 16.6369 17.7408 19.4731 15.8832C21.3479 14.6554 23.5895 13.9414 25.998 13.9414C28.4064 13.9414 30.648 14.6554 32.5228 15.8832C33.5895 16.5819 34.5374 17.4468 35.3297 18.4413C36.9527 20.4785 37.9227 23.059 37.9227 25.8661Z" stroke="#FF5500" stroke-width="0.909091" stroke-linecap="round"/>
<path d="M36.6921 25.8654H35.8111M26.0026 36.6041V35.6998M15.4463 25.8654H16.4134M26.1969 15.4395V16.2837" stroke="#FF5500" stroke-width="0.909091" stroke-linecap="round"/>
<path d="M21.7977 26.8565H23.8889V31.67C23.8889 32.3832 24.7783 32.7159 25.259 32.1811L30.3788 26.4286C30.8235 25.9295 30.4629 25.145 29.7899 25.145H27.6987V20.3315C27.6987 19.6184 26.8094 19.2856 26.3286 19.8204L21.2088 25.5729C20.7642 26.0721 21.1247 26.8565 21.7977 26.8565Z" stroke="#FF5500" stroke-width="0.909091" stroke-linejoin="round"/>
<defs>
<filter id="filter0_i_11829_128823" x="3.27246" y="3.27344" width="45.4541" height="46.2566" filterUnits="userSpaceOnUse" color-interpolation-filters="sRGB">
<feFlood flood-opacity="0" result="BackgroundImageFix"/>
<feBlend mode="normal" in="SourceGraphic" in2="BackgroundImageFix" result="shape"/>
<feColorMatrix in="SourceAlpha" type="matrix" values="0 0 0 0 0 0 0 0 0 0 0 0 0 0 0 0 0 0 127 0" result="hardAlpha"/>
<feOffset dy="0.801477"/>
<feGaussianBlur stdDeviation="1.20222"/>
<feComposite in2="hardAlpha" operator="arithmetic" k2="-1" k3="1"/>
<feColorMatrix type="matrix" values="0 0 0 0 0 0 0 0 0 0 0 0 0 0 0 0 0 0 0.15 0"/>
<feBlend mode="normal" in2="shape" result="effect1_innerShadow_11829_128823"/>
</filter>
<linearGradient id="paint0_linear_11829_128823" x1="25.9997" y1="3.27344" x2="25.9997" y2="48.728" gradientUnits="userSpaceOnUse">
<stop stop-color="white" stop-opacity="0"/>
<stop offset="1" stop-color="white"/>
</linearGradient>
</defs>
</svg>
