<svg width="24" height="25" viewBox="0 0 24 25" fill="none" xmlns="http://www.w3.org/2000/svg">
<path d="M8.25 9.33997C8.25 9.14105 8.32902 8.95029 8.46967 8.80964C8.61032 8.66898 8.80109 8.58997 9 8.58997H15C15.1989 8.58997 15.3897 8.66898 15.5303 8.80964C15.671 8.95029 15.75 9.14105 15.75 9.33997C15.75 9.53888 15.671 9.72964 15.5303 9.8703C15.3897 10.0109 15.1989 10.09 15 10.09H9C8.80109 10.09 8.61032 10.0109 8.46967 9.8703C8.32902 9.72964 8.25 9.53888 8.25 9.33997ZM9 13.09H15C15.1989 13.09 15.3897 13.0109 15.5303 12.8703C15.671 12.7296 15.75 12.5389 15.75 12.34C15.75 12.1411 15.671 11.9503 15.5303 11.8096C15.3897 11.669 15.1989 11.59 15 11.59H9C8.80109 11.59 8.61032 11.669 8.46967 11.8096C8.32902 11.9503 8.25 12.1411 8.25 12.34C8.25 12.5389 8.32902 12.7296 8.46967 12.8703C8.61032 13.0109 8.80109 13.09 9 13.09ZM12 14.59H9C8.80109 14.59 8.61032 14.669 8.46967 14.8096C8.32902 14.9503 8.25 15.1411 8.25 15.34C8.25 15.5389 8.32902 15.7296 8.46967 15.8703C8.61032 16.0109 8.80109 16.09 9 16.09H12C12.1989 16.09 12.3897 16.0109 12.5303 15.8703C12.671 15.7296 12.75 15.5389 12.75 15.34C12.75 15.1411 12.671 14.9503 12.5303 14.8096C12.3897 14.669 12.1989 14.59 12 14.59ZM21 4.83997V15.0297C21.0006 15.2267 20.9621 15.4219 20.8866 15.6039C20.8111 15.786 20.7002 15.9512 20.5603 16.09L15.75 20.9003C15.6112 21.0402 15.446 21.1511 15.264 21.2266C15.082 21.302 14.8867 21.3406 14.6897 21.34H4.5C4.10218 21.34 3.72064 21.1819 3.43934 20.9006C3.15804 20.6193 3 20.2378 3 19.84V4.83997C3 4.44214 3.15804 4.06061 3.43934 3.77931C3.72064 3.498 4.10218 3.33997 4.5 3.33997H19.5C19.8978 3.33997 20.2794 3.498 20.5607 3.77931C20.842 4.06061 21 4.44214 21 4.83997ZM4.5 19.84H14.25V15.34C14.25 15.1411 14.329 14.9503 14.4697 14.8096C14.6103 14.669 14.8011 14.59 15 14.59H19.5V4.83997H4.5V19.84ZM15.75 16.09V18.7806L18.4397 16.09H15.75Z" fill="#FF5500"/>
</svg>
