<svg width="24" height="25" viewBox="0 0 24 25" fill="none" xmlns="http://www.w3.org/2000/svg">
<path d="M12.0156 5.5437V8.91187" stroke="#FF5500" stroke-width="1.5"/>
<path d="M12 15.8914V19.2595" stroke="#FF5500" stroke-width="1.5"/>
<path d="M9.00391 14.5515L6.08699 16.2356" stroke="#FF5500" stroke-width="1.5"/>
<path d="M17.6172 9.68628L14.7003 11.3704" stroke="#FF5500" stroke-width="1.5"/>
<path d="M17.6172 15.3933L14.7003 13.7092" stroke="#FF5500" stroke-width="1.5"/>
<path d="M17.6172 15.3933L14.7003 13.7092" stroke="#FF5500" stroke-width="1.5"/>
<path d="M17.6172 15.3933L14.7003 13.7092" stroke="#FF5500" stroke-width="1.5"/>
<path d="M9.24023 10.8301L6.32332 9.146" stroke="#FF5500" stroke-width="1.5"/>
<path d="M12 8.73511C11.2583 8.73511 10.5333 8.95504 9.91661 9.3671C9.29993 9.77915 8.81928 10.3648 8.53545 11.05C8.25162 11.7353 8.17736 12.4893 8.32206 13.2167C8.46675 13.9441 8.8239 14.6123 9.34835 15.1368C9.8728 15.6612 10.541 16.0184 11.2684 16.1631C11.9958 16.3077 12.7498 16.2335 13.4351 15.9497C14.1203 15.6658 14.706 15.1852 15.118 14.5685C15.5301 13.9518 15.75 13.2268 15.75 12.4851C15.75 11.4905 15.3549 10.5367 14.6517 9.83346C13.9484 9.1302 12.9946 8.73511 12 8.73511ZM12 14.7351C11.555 14.7351 11.12 14.6031 10.75 14.3559C10.38 14.1087 10.0916 13.7573 9.92127 13.3461C9.75098 12.935 9.70642 12.4826 9.79323 12.0462C9.88005 11.6097 10.0943 11.2088 10.409 10.8941C10.7237 10.5794 11.1246 10.3652 11.561 10.2783C11.9975 10.1915 12.4499 10.2361 12.861 10.4064C13.2722 10.5767 13.6236 10.8651 13.8708 11.2351C14.118 11.6051 14.25 12.0401 14.25 12.4851C14.25 13.0818 14.0129 13.6541 13.591 14.0761C13.169 14.4981 12.5967 14.7351 12 14.7351Z" fill="#FF5500"/>
<path d="M12 5.71069C11.6044 5.71069 11.2178 5.59339 10.8889 5.37363C10.56 5.15387 10.3036 4.84151 10.1522 4.47606C10.0009 4.11061 9.96126 3.70848 10.0384 3.32051C10.1156 2.93255 10.3061 2.57619 10.5858 2.29648C10.8655 2.01678 11.2219 1.82629 11.6098 1.74912C11.9978 1.67195 12.3999 1.71156 12.7654 1.86294C13.1308 2.01431 13.4432 2.27065 13.6629 2.59955C13.8827 2.92845 14 3.31513 14 3.71069C14 4.24113 13.7893 4.74983 13.4142 5.12491C13.0391 5.49998 12.5304 5.71069 12 5.71069Z" stroke="#FF5500" stroke-width="1.5"/>
<path d="M12 23.2595C11.6044 23.2595 11.2178 23.1422 10.8889 22.9225C10.56 22.7027 10.3036 22.3903 10.1522 22.0249C10.0009 21.6594 9.96126 21.2573 10.0384 20.8693C10.1156 20.4814 10.3061 20.125 10.5858 19.8453C10.8655 19.5656 11.2219 19.3751 11.6098 19.298C11.9978 19.2208 12.3999 19.2604 12.7654 19.4118C13.1308 19.5631 13.4432 19.8195 13.6629 20.1484C13.8827 20.4773 14 20.864 14 21.2595C14 21.79 13.7893 22.2987 13.4142 22.6737C13.0391 23.0488 12.5304 23.2595 12 23.2595Z" stroke="#FF5500" stroke-width="1.5"/>
<path d="M17.866 9.0979C17.6682 8.75533 17.5764 8.36181 17.6023 7.96709C17.6282 7.57237 17.7705 7.19419 18.0113 6.88037C18.2521 6.56655 18.5806 6.33119 18.9551 6.20404C19.3297 6.07689 19.7336 6.06367 20.1157 6.16604C20.4977 6.26842 20.8409 6.48181 21.1017 6.7792C21.3625 7.0766 21.5293 7.44467 21.5809 7.83684C21.6325 8.22902 21.5667 8.6277 21.3918 8.98247C21.2168 9.33724 20.9406 9.63217 20.598 9.82995C20.1387 10.0952 19.5927 10.167 19.0804 10.0297C18.568 9.89246 18.1312 9.55726 17.866 9.0979Z" stroke="#FF5500" stroke-width="1.5"/>
<path d="M2.66871 17.8724C2.47093 17.5299 2.37917 17.1363 2.40504 16.7416C2.43092 16.3469 2.57325 15.9687 2.81405 15.6549C3.05486 15.3411 3.38331 15.1057 3.75788 14.9786C4.13245 14.8514 4.53632 14.8382 4.9184 14.9406C5.30048 15.043 5.64363 15.2563 5.90444 15.5537C6.16525 15.8511 6.33202 16.2192 6.38365 16.6114C6.43528 17.0036 6.36946 17.4022 6.19451 17.757C6.01955 18.1118 5.74333 18.4067 5.40076 18.6045C4.94139 18.8697 4.39548 18.9416 3.88312 18.8043C3.37076 18.667 2.93393 18.3318 2.66871 17.8724Z" stroke="#FF5500" stroke-width="1.5"/>
<path d="M6.13207 9.09778C5.93429 9.44035 5.63937 9.71658 5.2846 9.89153C4.92983 10.0665 4.53115 10.1323 4.13897 10.0807C3.74679 10.029 3.37873 9.86227 3.08133 9.60146C2.78393 9.34065 2.57055 8.99751 2.46817 8.61542C2.36579 8.23334 2.37901 7.82947 2.50616 7.4549C2.63331 7.08033 2.86868 6.75188 3.1825 6.51108C3.49632 6.27027 3.8745 6.12794 4.26921 6.10207C4.66393 6.07619 5.05745 6.16795 5.40002 6.36573C5.85939 6.63095 6.19459 7.06779 6.33187 7.58014C6.46916 8.0925 6.39729 8.63841 6.13207 9.09778Z" stroke="#FF5500" stroke-width="1.5"/>
<path d="M21.3313 17.8722C21.1335 18.2148 20.8386 18.491 20.4838 18.6659C20.129 18.8409 19.7304 18.9067 19.3382 18.8551C18.946 18.8035 18.5779 18.6367 18.2805 18.3759C17.9831 18.1151 17.7698 17.7719 17.6674 17.3898C17.565 17.0078 17.5782 16.6039 17.7054 16.2293C17.8325 15.8547 18.0679 15.5263 18.3817 15.2855C18.6955 15.0447 19.0737 14.9024 19.4684 14.8765C19.8631 14.8506 20.2567 14.9424 20.5992 15.1401C21.0586 15.4054 21.3938 15.8422 21.5311 16.3546C21.6684 16.8669 21.5965 17.4128 21.3313 17.8722Z" stroke="#FF5500" stroke-width="1.5"/>
</svg>
