<svg width="25" height="25" viewBox="0 0 25 25" fill="none" xmlns="http://www.w3.org/2000/svg">
<path d="M22.8725 3.6133C22.5939 3.33465 22.2631 3.11361 21.8991 2.9628C21.5351 2.812 21.1449 2.73438 20.7509 2.73438C20.3569 2.73438 19.9667 2.812 19.6027 2.9628C19.2387 3.11361 18.9079 3.33465 18.6293 3.6133C18.3507 3.89188 18.1296 4.22263 17.9788 4.58665C17.828 4.95067 17.7504 5.34084 17.7504 5.73486C17.7504 6.12888 17.828 6.51905 17.9788 6.88307C18.1296 7.24709 18.3507 7.57784 18.6293 7.85642C18.6565 7.88361 18.6856 7.90986 18.7137 7.93611L16.2171 12.573C15.456 12.3874 14.6525 12.505 13.9765 12.9011L12.0847 11.0092C12.4569 10.3802 12.5866 9.63682 12.4495 8.91886C12.3123 8.20089 11.9178 7.55768 11.34 7.11003C10.7622 6.66238 10.0408 6.4411 9.31131 6.48773C8.58186 6.53437 7.89453 6.84571 7.3784 7.3633C7.09975 7.64188 6.87871 7.97263 6.7279 8.33665C6.5771 8.70067 6.49948 9.09084 6.49948 9.48486C6.49948 9.87888 6.5771 10.269 6.7279 10.6331C6.87871 10.9971 7.09975 11.3278 7.3784 11.6064C7.40559 11.6336 7.43371 11.6599 7.46184 11.6861L4.96527 16.3239C4.46415 16.2006 3.93967 16.2086 3.44255 16.3472C2.94543 16.4858 2.49247 16.7503 2.12746 17.1152C1.70797 17.5348 1.42232 18.0693 1.30662 18.6512C1.19092 19.2332 1.25037 19.8363 1.47745 20.3845C1.70453 20.9326 2.08905 21.4011 2.58239 21.7307C3.07572 22.0603 3.65571 22.2363 4.24902 22.2363C4.84234 22.2363 5.42233 22.0603 5.91566 21.7307C6.409 21.4011 6.79351 20.9326 7.0206 20.3845C7.24768 19.8363 7.30713 19.2332 7.19143 18.6512C7.07573 18.0693 6.79008 17.5348 6.37059 17.1152C6.3434 17.088 6.31434 17.0617 6.28621 17.0355L8.78277 12.3986C9.01752 12.4561 9.25828 12.4854 9.49996 12.4858C10.0356 12.4865 10.5616 12.3437 11.0234 12.0724L12.9153 13.9642C12.6305 14.4476 12.4869 15.0012 12.5009 15.5621C12.5149 16.1229 12.6859 16.6687 12.9945 17.1372C13.3031 17.6058 13.7369 17.9784 14.2466 18.2128C14.7564 18.4472 15.3216 18.534 15.8782 18.4632C16.4348 18.3925 16.9604 18.1671 17.3953 17.8127C17.8302 17.4582 18.157 16.9889 18.3385 16.458C18.5201 15.9272 18.5492 15.356 18.4224 14.8095C18.2957 14.2629 18.0182 13.7629 17.6215 13.3661C17.5943 13.3389 17.5662 13.3127 17.5381 13.2864L20.0346 8.64955C20.2688 8.70664 20.5089 8.73559 20.75 8.7358C21.3432 8.73571 21.9231 8.55975 22.4163 8.23015C22.9095 7.90056 23.294 7.43214 23.521 6.88409C23.7481 6.33605 23.8076 5.73299 23.692 5.15114C23.5764 4.56929 23.2909 4.03478 22.8715 3.61517L22.8725 3.6133ZM5.30934 20.298C5.02788 20.5793 4.64618 20.7373 4.24822 20.7372C3.85027 20.7371 3.46864 20.579 3.18731 20.2975C2.90597 20.0161 2.74797 19.6344 2.74805 19.2364C2.74814 18.8384 2.90631 18.4568 3.18777 18.1755C3.32714 18.0362 3.49258 17.9257 3.67464 17.8503C3.85671 17.775 4.05184 17.7362 4.24889 17.7362C4.44594 17.7363 4.64105 17.7751 4.82308 17.8506C5.00511 17.926 5.1705 18.0366 5.30981 18.176C5.44911 18.3153 5.5596 18.4808 5.63497 18.6628C5.71033 18.8449 5.7491 19.04 5.74906 19.2371C5.74902 19.4341 5.71016 19.6292 5.63471 19.8113C5.55927 19.9933 5.4487 20.1587 5.30934 20.298ZM8.43871 10.548C8.29939 10.4087 8.18887 10.2433 8.11347 10.0613C8.03806 9.8793 7.99925 9.68421 7.99925 9.4872C7.99925 9.29019 8.03806 9.09511 8.11347 8.9131C8.18887 8.73109 8.29939 8.56571 8.43871 8.42642C8.6485 8.21668 8.91578 8.07385 9.20674 8.016C9.4977 7.95815 9.79929 7.98788 10.0734 8.10142C10.3474 8.21496 10.5817 8.40722 10.7465 8.65388C10.9113 8.90055 10.9993 9.19055 10.9993 9.4872C10.9993 9.78386 10.9113 10.0739 10.7465 10.3205C10.5817 10.5672 10.3474 10.7594 10.0734 10.873C9.79929 10.9865 9.4977 11.0163 9.20674 10.9584C8.91578 10.9006 8.6485 10.7577 8.43871 10.548ZM16.5612 16.548C16.2799 16.8293 15.8983 16.9874 15.5004 16.9874C15.1026 16.9874 14.721 16.8293 14.4396 16.548C14.1583 16.2666 14.0003 15.8851 14.0003 15.4872C14.0003 15.0893 14.1583 14.7078 14.4396 14.4264C14.721 14.1451 15.1026 13.987 15.5004 13.987C15.8983 13.987 16.2799 14.1451 16.5612 14.4264C16.8425 14.7078 17.0006 15.0893 17.0006 15.4872C17.0006 15.8851 16.8425 16.2666 16.5612 16.548ZM21.8112 6.79798C21.5295 7.0792 21.1476 7.23698 20.7496 7.23663C20.3515 7.23628 19.9699 7.07782 19.6887 6.79611C19.4075 6.5144 19.2497 6.13252 19.2501 5.73447C19.2504 5.33643 19.4089 4.95482 19.6906 4.67361C19.83 4.53431 19.9954 4.42382 20.1775 4.34845C20.3595 4.27308 20.5547 4.23431 20.7517 4.23436C20.9487 4.2344 21.1439 4.27326 21.3259 4.3487C21.5079 4.42415 21.6733 4.53471 21.8126 4.67408C21.9519 4.81344 22.0624 4.97888 22.1378 5.16095C22.2131 5.34301 22.2519 5.53814 22.2519 5.73519C22.2518 5.93224 22.213 6.12735 22.1375 6.30938C22.0621 6.49142 21.9515 6.65681 21.8121 6.79611L21.8112 6.79798Z" fill="#FF5500"/>
</svg>
