<svg width="25" height="25" viewBox="0 0 25 25" fill="none" xmlns="http://www.w3.org/2000/svg">
<path d="M19.2505 15.2207C18.5876 15.2203 17.9434 15.4407 17.4196 15.8469L15.253 14.1594C15.4166 13.7845 15.5008 13.3798 15.5005 12.9707C15.5005 12.9013 15.5005 12.8319 15.493 12.7635L16.7333 12.3501C17.1257 12.9553 17.723 13.3988 18.4158 13.5995C19.1086 13.8002 19.8505 13.7445 20.5056 13.4428C21.1607 13.141 21.6852 12.6133 21.983 11.9564C22.2807 11.2994 22.3318 10.5572 22.1269 9.86564C21.922 9.17409 21.4747 8.57951 20.8672 8.19082C20.2596 7.80214 19.5323 7.64537 18.8185 7.74922C18.1048 7.85308 17.4523 8.21061 16.9807 8.75633C16.5091 9.30205 16.2498 9.99942 16.2505 10.7207C16.2505 10.7901 16.2505 10.8594 16.258 10.9279L15.0177 11.3413C14.7458 10.921 14.373 10.5754 13.9334 10.336C13.4937 10.0966 13.0011 9.97099 12.5005 9.97069C12.335 9.97104 12.1697 9.98483 12.0064 10.0119L11.3652 8.56444C11.9189 8.12203 12.2981 7.49787 12.4355 6.80258C12.573 6.1073 12.4599 5.38579 12.1162 4.76595C11.7725 4.14612 11.2205 3.66797 10.5579 3.41627C9.8954 3.16456 9.16514 3.15555 8.49659 3.39084C7.82804 3.62613 7.26438 4.09051 6.90552 4.70168C6.54665 5.31286 6.41576 6.03135 6.53603 6.72981C6.65631 7.42828 7.01999 8.0616 7.56261 8.51754C8.10524 8.97348 8.79176 9.22258 9.5005 9.22069C9.66603 9.22035 9.83126 9.20655 9.99456 9.17944L10.6358 10.6232C10.092 11.0536 9.7146 11.6595 9.56805 12.3373C9.42151 13.0152 9.51494 13.7229 9.83237 14.3394L7.42206 16.4807C6.81548 16.0718 6.08059 15.8981 5.35513 15.9923C4.62967 16.0864 3.96345 16.4419 3.48134 16.9921C2.99924 17.5423 2.73436 18.2495 2.73634 18.981C2.73832 19.7126 3.00703 20.4183 3.49211 20.9659C3.97719 21.5135 4.64532 21.8653 5.37128 21.9556C6.09724 22.0458 6.83119 21.8681 7.43554 21.4559C8.0399 21.0437 8.47317 20.4253 8.65415 19.7165C8.83513 19.0077 8.75139 18.2572 8.41862 17.6057L10.8289 15.4644C11.3508 15.8158 11.9702 15.9937 12.599 15.9729C13.2278 15.952 13.834 15.7334 14.3314 15.3482L16.498 17.0357C16.3349 17.4095 16.2507 17.8129 16.2505 18.2207C16.2505 18.814 16.4264 19.3941 16.7561 19.8874C17.0857 20.3807 17.5543 20.7653 18.1025 20.9923C18.6506 21.2194 19.2538 21.2788 19.8358 21.163C20.4177 21.0473 20.9523 20.7616 21.3718 20.342C21.7914 19.9225 22.0771 19.3879 22.1929 18.806C22.3086 18.224 22.2492 17.6208 22.0221 17.0726C21.7951 16.5245 21.4106 16.0559 20.9172 15.7263C20.4239 15.3966 19.8438 15.2207 19.2505 15.2207ZM19.2505 9.22069C19.5472 9.22069 19.8372 9.30867 20.0839 9.47349C20.3305 9.63831 20.5228 9.87258 20.6363 10.1467C20.7499 10.4208 20.7796 10.7224 20.7217 11.0133C20.6638 11.3043 20.5209 11.5716 20.3112 11.7814C20.1014 11.9911 19.8341 12.134 19.5431 12.1919C19.2522 12.2497 18.9506 12.22 18.6765 12.1065C18.4024 11.993 18.1681 11.8007 18.0033 11.554C17.8385 11.3074 17.7505 11.0174 17.7505 10.7207C17.7505 10.3229 17.9085 9.94134 18.1898 9.66003C18.4711 9.37873 18.8527 9.22069 19.2505 9.22069ZM8.0005 6.22069C8.0005 5.92402 8.08847 5.63401 8.2533 5.38734C8.41812 5.14066 8.65239 4.9484 8.92647 4.83487C9.20056 4.72134 9.50216 4.69164 9.79313 4.74951C10.0841 4.80739 10.3514 4.95025 10.5612 5.16003C10.7709 5.36981 10.9138 5.63709 10.9717 5.92806C11.0296 6.21903 10.9999 6.52063 10.8863 6.79472C10.7728 7.06881 10.5805 7.30307 10.3339 7.4679C10.0872 7.63272 9.79717 7.72069 9.5005 7.72069C9.10267 7.72069 8.72114 7.56266 8.43984 7.28135C8.15854 7.00005 8.0005 6.61852 8.0005 6.22069ZM5.7505 20.4707C5.45383 20.4707 5.16382 20.3827 4.91714 20.2179C4.67047 20.0531 4.47821 19.8188 4.36468 19.5447C4.25115 19.2706 4.22144 18.969 4.27932 18.6781C4.3372 18.3871 4.48006 18.1198 4.68984 17.91C4.89962 17.7003 5.16689 17.5574 5.45786 17.4995C5.74884 17.4416 6.05044 17.4713 6.32453 17.5849C6.59861 17.6984 6.83288 17.8907 6.9977 18.1373C7.16253 18.384 7.2505 18.674 7.2505 18.9707C7.2505 19.3685 7.09246 19.75 6.81116 20.0314C6.52986 20.3127 6.14832 20.4707 5.7505 20.4707ZM11.0005 12.9707C11.0005 12.674 11.0885 12.384 11.2533 12.1373C11.4181 11.8907 11.6524 11.6984 11.9265 11.5849C12.2006 11.4713 12.5022 11.4416 12.7931 11.4995C13.0841 11.5574 13.3514 11.7003 13.5612 11.91C13.7709 12.1198 13.9138 12.3871 13.9717 12.6781C14.0296 12.969 13.9999 13.2706 13.8863 13.5447C13.7728 13.8188 13.5805 14.0531 13.3339 14.2179C13.0872 14.3827 12.7972 14.4707 12.5005 14.4707C12.1027 14.4707 11.7211 14.3127 11.4398 14.0314C11.1585 13.75 11.0005 13.3685 11.0005 12.9707ZM19.2505 19.7207C18.9538 19.7207 18.6638 19.6327 18.4171 19.4679C18.1705 19.3031 17.9782 19.0688 17.8647 18.7947C17.7511 18.5206 17.7214 18.219 17.7793 17.9281C17.8372 17.6371 17.9801 17.3698 18.1898 17.16C18.3996 16.9503 18.6669 16.8074 18.9579 16.7495C19.2488 16.6916 19.5504 16.7213 19.8245 16.8349C20.0986 16.9484 20.3329 17.1407 20.4977 17.3873C20.6625 17.634 20.7505 17.924 20.7505 18.2207C20.7505 18.6185 20.5925 19 20.3112 19.2814C20.0299 19.5627 19.6483 19.7207 19.2505 19.7207Z" fill="#FF5500"/>
</svg>
