<svg width="52" height="51" viewBox="0 0 52 51" fill="none" xmlns="http://www.w3.org/2000/svg">
<rect x="0.642926" y="0.467145" width="50.1076" height="50.1076" rx="14.1447" fill="#FEFEFE"/>
<rect x="0.642926" y="0.467145" width="50.1076" height="50.1076" rx="14.1447" stroke="#EBECEC" stroke-width="0.801477"/>
<g filter="url(#filter0_i_11814_92059)">
<rect x="2.96875" y="2.79688" width="45.4545" height="45.4545" rx="12.7273" fill="#F3F3F5"/>
<rect x="3.16912" y="2.99724" width="45.0538" height="45.0538" rx="12.5269" stroke="url(#paint0_linear_11814_92059)" stroke-width="0.400739"/>
</g>
<rect x="6.40074" y="5.64293" width="39.1985" height="39.1985" rx="10.5084" fill="#FEFEFE"/>
<rect x="6.40074" y="5.64293" width="39.1985" height="39.1985" rx="10.5084" stroke="#EBECEC" stroke-width="0.801477"/>
<path d="M21.4579 24.2357H18.5286C17.9629 24.2357 17.68 24.2357 17.464 24.3458C17.2739 24.4427 17.1194 24.5972 17.0225 24.7872C16.9124 25.0033 16.9124 25.2862 16.9124 25.8519V34.3367M30.5488 24.2357H33.4781C34.0438 24.2357 34.3267 24.2357 34.5427 24.3458C34.7328 24.4427 34.8873 24.5972 34.9842 24.7872C35.0943 25.0033 35.0943 25.2862 35.0943 25.8519V34.3367M30.5488 34.3367V19.3872C30.5488 18.2558 30.5488 17.6901 30.3286 17.258C30.1349 16.8778 29.8259 16.5688 29.4458 16.3751C29.0136 16.1549 28.4479 16.1549 27.3165 16.1549H24.6902C23.5588 16.1549 22.9931 16.1549 22.5609 16.3751C22.1808 16.5688 21.8718 16.8778 21.6781 17.258C21.4579 17.6901 21.4579 18.2558 21.4579 19.3872V34.3367M36.1044 34.3367H15.9023M24.9933 20.1953H27.0135M24.9933 24.2357H27.0135M24.9933 28.2761H27.0135" stroke="#FF5500" stroke-width="0.909091" stroke-linecap="round" stroke-linejoin="round"/>
<defs>
<filter id="filter0_i_11814_92059" x="2.96875" y="2.79688" width="45.4551" height="46.2561" filterUnits="userSpaceOnUse" color-interpolation-filters="sRGB">
<feFlood flood-opacity="0" result="BackgroundImageFix"/>
<feBlend mode="normal" in="SourceGraphic" in2="BackgroundImageFix" result="shape"/>
<feColorMatrix in="SourceAlpha" type="matrix" values="0 0 0 0 0 0 0 0 0 0 0 0 0 0 0 0 0 0 127 0" result="hardAlpha"/>
<feOffset dy="0.801477"/>
<feGaussianBlur stdDeviation="1.20222"/>
<feComposite in2="hardAlpha" operator="arithmetic" k2="-1" k3="1"/>
<feColorMatrix type="matrix" values="0 0 0 0 0 0 0 0 0 0 0 0 0 0 0 0 0 0 0.15 0"/>
<feBlend mode="normal" in2="shape" result="effect1_innerShadow_11814_92059"/>
</filter>
<linearGradient id="paint0_linear_11814_92059" x1="25.696" y1="2.79687" x2="25.696" y2="48.2514" gradientUnits="userSpaceOnUse">
<stop stop-color="white" stop-opacity="0"/>
<stop offset="1" stop-color="white"/>
</linearGradient>
</defs>
</svg>
