<svg width="32" height="32" viewBox="0 0 32 32" fill="none" xmlns="http://www.w3.org/2000/svg">
<path class="icon-bg" d="M0 6.4C0 4.15979 0 3.03969 0.435974 2.18404C0.819467 1.43139 1.43139 0.819467 2.18404 0.435974C3.03969 0 4.15979 0 6.4 0H25.6C27.8402 0 28.9603 0 29.816 0.435974C30.5686 0.819467 31.1805 1.43139 31.564 2.18404C32 3.03969 32 4.15979 32 6.4V25.6C32 27.8402 32 28.9603 31.564 29.816C31.1805 30.5686 30.5686 31.1805 29.816 31.564C28.9603 32 27.8402 32 25.6 32H6.4C4.15979 32 3.03969 32 2.18404 31.564C1.43139 31.1805 0.819467 30.5686 0.435974 29.816C0 28.9603 0 27.8402 0 25.6V6.4Z"/>
<path class="icon-fg" d="M7.30077 24.8435H10.9117V12.9478H7.30077V24.8435Z"/>
<path class="icon-fg" d="M7 9.19127C7 10.2869 7.90273 11.3826 9.10623 11.3826C10.1595 11.3826 11.0619 10.2869 11.2125 9.19127C11.2125 7.93909 10.3097 7 9.10623 7C7.90273 7 7 7.93909 7 9.19127Z"/>
<path class="icon-fg" d="M20.5401 24.8435H24V18.2696C24 15.1391 23.3985 12.6348 19.7875 12.6348C18.1327 12.6348 16.9292 13.5739 16.4778 14.513V12.9478H13.0179V25H16.6284V19.0522C16.6284 17.487 16.9292 15.9217 18.7346 15.9217C20.5401 15.9217 20.5401 17.6435 20.5401 19.0522V24.8435Z"/>
</svg>
