<svg width="110" height="110" viewBox="0 0 110 110" fill="none" xmlns="http://www.w3.org/2000/svg">
<rect x="0.369815" y="0.369815" width="109.26" height="109.26" rx="19.9757" fill="#FEFEFE" stroke="#EBECEC" stroke-width="0.739629"/>
<g filter="url(#filter0_i_10157_91631)">
<rect x="4.8584" y="4.85938" width="100.282" height="100.282" rx="15.7216" fill="url(#paint0_linear_10157_91631)"/>
</g>
<g filter="url(#filter1_d_10157_91631)">
<rect x="9.86719" y="9.86914" width="90.2657" height="90.2657" rx="11.0976" fill="url(#paint1_linear_10157_91631)"/>
</g>
<path d="M80.9434 80.6873C82.3485 80.6873 83.4881 81.8261 83.4883 83.2313V83.7635C83.4882 85.1687 82.3486 86.3074 80.9434 86.3074H29.3047C27.8995 86.3074 26.7599 85.1687 26.7598 83.7635V83.2313C26.7599 81.8261 27.8995 80.6873 29.3047 80.6873H80.9434ZM40.5361 73.7908C41.9414 73.7909 43.0801 74.9305 43.0801 76.3358V77.9354H29.4434V76.3358C29.4434 74.9305 30.583 73.7908 31.9883 73.7908H40.5361ZM78.1064 73.7908C79.5115 73.7911 80.6504 74.9307 80.6504 76.3358V77.9354H67.0137V76.3358C67.0137 74.9305 68.1533 73.7908 69.5586 73.7908H78.1064ZM55.1191 51.1512C61.2148 51.1512 66.1569 56.0927 66.1572 62.1883C66.1572 68.2842 61.215 73.2264 55.1191 73.2264C49.0236 73.226 44.082 68.284 44.082 62.1883C44.0823 56.0929 49.0237 51.1515 55.1191 51.1512ZM40.5166 71.244H32.0088V53.1746H40.5166V71.244ZM78.0869 71.244H69.5781V53.1746H78.0869V71.244ZM55.1143 55.3172C54.6933 55.3175 54.3517 55.6589 54.3516 56.0799V56.6903H53.6973C52.1559 56.6906 50.9611 57.9902 50.9609 59.5174C50.961 60.2465 51.1205 60.8523 51.4932 61.3279C51.859 61.7945 52.3549 62.0381 52.8115 62.2L52.8154 62.201L54.3516 62.7342V66.1697H53.9814C53.1867 66.1693 52.4866 65.4879 52.4863 64.5623C52.4861 64.1412 52.1448 63.7996 51.7236 63.7996C51.3028 63.8 50.9611 64.1414 50.9609 64.5623C50.9612 66.2598 52.2751 67.6947 53.9814 67.6951H54.3516V68.285C54.3518 68.7059 54.6933 69.0484 55.1143 69.0486C55.5354 69.0486 55.8767 68.7061 55.877 68.285V67.6951H56.5342C58.0757 67.6951 59.2701 66.3952 59.2705 64.868C59.2705 64.1386 59.111 63.5332 58.7383 63.0574C58.4181 62.6491 57.9986 62.4121 57.5928 62.2508L57.4199 62.1854L57.416 62.1844L55.877 61.6492V58.2156H56.25L56.3975 58.2235C57.1297 58.3015 57.7451 58.9547 57.7451 59.8231C57.7455 60.2438 58.0871 60.5854 58.5078 60.5858C58.9289 60.5858 59.2701 60.244 59.2705 59.8231C59.2705 58.178 58.0373 56.7797 56.4082 56.6942L56.25 56.6903H55.877V56.0799C55.8768 55.6588 55.5354 55.3173 55.1143 55.3172ZM56.9102 63.6229V63.6238C57.2563 63.7465 57.4325 63.8648 57.5371 63.9979C57.6345 64.1222 57.7451 64.3569 57.7451 64.868C57.7447 65.6183 57.1688 66.1697 56.5342 66.1697H55.877V63.2635L56.9102 63.6229ZM54.3516 61.119L53.3203 60.7615H53.3213C52.9753 60.6389 52.7989 60.5206 52.6943 60.3875C52.597 60.2632 52.4864 60.0281 52.4863 59.5174C52.4865 58.7671 53.0628 58.216 53.6973 58.2156H54.3516V61.119ZM43.0801 48.0291C43.08 49.4343 41.9413 50.573 40.5361 50.5731H31.9883C30.5831 50.5731 29.4435 49.4343 29.4434 48.0291V46.4285H43.0801V48.0291ZM80.6504 48.0291C80.6503 49.4341 79.5114 50.5728 78.1064 50.5731H69.5586C68.1534 50.5731 67.0138 49.4343 67.0137 48.0291V46.4285H80.6504V48.0291ZM80.999 37.5926C82.3788 37.622 83.4883 38.7478 83.4883 40.1346V41.3572C83.4882 42.7624 82.3486 43.9012 80.9434 43.9012H29.3047C27.8995 43.9012 26.7598 42.7624 26.7598 41.3572V40.1346C26.7598 38.7478 27.8693 37.622 29.249 37.5926H80.999ZM53.7314 24.4481C54.5293 23.9713 55.5237 23.9677 56.3252 24.4383L74.373 35.035H36.0156L53.7314 24.4481Z" fill="#FF5500"/>
<defs>
<filter id="filter0_i_10157_91631" x="4.8584" y="4.85938" width="100.282" height="100.283" filterUnits="userSpaceOnUse" color-interpolation-filters="sRGB">
<feFlood flood-opacity="0" result="BackgroundImageFix"/>
<feBlend mode="normal" in="SourceGraphic" in2="BackgroundImageFix" result="shape"/>
<feColorMatrix in="SourceAlpha" type="matrix" values="0 0 0 0 0 0 0 0 0 0 0 0 0 0 0 0 0 0 127 0" result="hardAlpha"/>
<feOffset/>
<feGaussianBlur stdDeviation="1.47926"/>
<feComposite in2="hardAlpha" operator="arithmetic" k2="-1" k3="1"/>
<feColorMatrix type="matrix" values="0 0 0 0 0 0 0 0 0 0 0 0 0 0 0 0 0 0 0.2 0"/>
<feBlend mode="normal" in2="shape" result="effect1_innerShadow_10157_91631"/>
</filter>
<filter id="filter1_d_10157_91631" x="6.90867" y="7.65025" width="96.1827" height="96.1827" filterUnits="userSpaceOnUse" color-interpolation-filters="sRGB">
<feFlood flood-opacity="0" result="BackgroundImageFix"/>
<feColorMatrix in="SourceAlpha" type="matrix" values="0 0 0 0 0 0 0 0 0 0 0 0 0 0 0 0 0 0 127 0" result="hardAlpha"/>
<feOffset dy="0.739629"/>
<feGaussianBlur stdDeviation="1.47926"/>
<feComposite in2="hardAlpha" operator="out"/>
<feColorMatrix type="matrix" values="0 0 0 0 0 0 0 0 0 0 0 0 0 0 0 0 0 0 0.15 0"/>
<feBlend mode="normal" in2="BackgroundImageFix" result="effect1_dropShadow_10157_91631"/>
<feBlend mode="normal" in="SourceGraphic" in2="effect1_dropShadow_10157_91631" result="shape"/>
</filter>
<linearGradient id="paint0_linear_10157_91631" x1="4.8584" y1="55.0006" x2="105.141" y2="55.0006" gradientUnits="userSpaceOnUse">
<stop stop-color="#E5E8EF" stop-opacity="0"/>
<stop offset="1" stop-color="#F5F5F5"/>
</linearGradient>
<linearGradient id="paint1_linear_10157_91631" x1="55" y1="9.86914" x2="55" y2="100.135" gradientUnits="userSpaceOnUse">
<stop stop-color="white"/>
<stop offset="1" stop-color="#F5F6F7"/>
</linearGradient>
</defs>
</svg>
