<svg width="110" height="110" viewBox="0 0 110 110" fill="none" xmlns="http://www.w3.org/2000/svg">
<path d="M53.7031 1.67285C54.4515 1.51385 55.2218 1.49396 55.9756 1.61328L56.2969 1.67285C57.0083 1.82406 57.6943 2.15169 58.833 2.79102L60.1406 3.53906L96.9961 24.8184C98.7388 25.8245 99.6437 26.3513 100.277 26.9502L100.534 27.2129C101.046 27.7815 101.448 28.4389 101.722 29.1514L101.831 29.46C102.131 30.3822 102.137 31.4219 102.137 33.7217V76.2783C102.137 78.2907 102.133 79.3383 101.931 80.1865L101.831 80.54C101.595 81.2678 101.226 81.9448 100.746 82.5381L100.534 82.7871C100.048 83.3276 99.4208 83.7574 98.2979 84.4238L96.9961 85.1816L60.1406 106.461C58.398 107.467 57.4887 107.987 56.6533 108.236L56.2969 108.327C55.5485 108.486 54.7782 108.506 54.0244 108.387L53.7031 108.327C52.9917 108.176 52.3057 107.848 51.167 107.209L49.8594 106.461L13.0039 85.1816C11.2612 84.1755 10.3563 83.6487 9.72266 83.0498L9.46582 82.7871C8.9539 82.2185 8.55193 81.5611 8.27832 80.8486L8.16895 80.54C7.86929 79.6178 7.86328 78.5781 7.86328 76.2783V33.7217C7.86328 31.7093 7.86748 30.6617 8.06934 29.8135L8.16895 29.46C8.40542 28.7322 8.77355 28.0552 9.25391 27.4619L9.46582 27.2129C9.95246 26.6724 10.5792 26.2426 11.7021 25.5762L13.0039 24.8184L49.8594 3.53906C51.602 2.53295 52.5113 2.01297 53.3467 1.76367L53.7031 1.67285Z" fill="#FEFEFE" stroke="#EBECEC" stroke-width="0.989579"/>
<g filter="url(#filter0_i_8269_78727)">
<path d="M53.2056 6.46632C53.8598 6.08858 54.187 5.89971 54.5348 5.82579C54.8425 5.76038 55.1605 5.76038 55.4682 5.82579C55.816 5.89971 56.1432 6.08858 56.7974 6.46632L96.1326 29.1765C96.7869 29.5543 97.114 29.7431 97.3519 30.0074C97.5625 30.2411 97.7215 30.5166 97.8187 30.8158C97.9286 31.1539 97.9286 31.5317 97.9286 32.2871V77.7075C97.9286 78.463 97.9286 78.8408 97.8187 79.1789C97.7215 79.4781 97.5625 79.7535 97.3519 79.9873C97.114 80.2516 96.7869 80.4404 96.1326 80.8182L56.7974 103.528C56.1432 103.906 55.816 104.095 55.4682 104.169C55.1605 104.234 54.8425 104.234 54.5348 104.169C54.187 104.095 53.8598 103.906 53.2056 103.528L13.8704 80.8182C13.2161 80.4404 12.889 80.2516 12.651 79.9873C12.4405 79.7535 12.2815 79.4781 12.1843 79.1789C12.0744 78.8408 12.0744 78.463 12.0744 77.7076V32.2871C12.0744 31.5317 12.0744 31.1539 12.1843 30.8158C12.2815 30.5166 12.4405 30.2411 12.651 30.0074C12.889 29.7431 13.2161 29.5543 13.8704 29.1765L53.2056 6.46632Z" fill="url(#paint0_linear_8269_78727)"/>
</g>
<g filter="url(#filter1_d_8269_78727)">
<path d="M52.2712 11.8079C53.2653 11.234 53.7623 10.9471 54.2907 10.8347C54.7583 10.7354 55.2415 10.7354 55.709 10.8347C56.2374 10.9471 56.7345 11.234 57.7285 11.8079L91.0409 31.0409C92.035 31.6148 92.532 31.9017 92.8935 32.3032C93.2134 32.6584 93.455 33.0769 93.6027 33.5315C93.7696 34.0453 93.7696 34.6192 93.7696 35.7671V74.2329C93.7696 75.3807 93.7696 75.9547 93.6027 76.4685C93.455 76.9231 93.2134 77.3415 92.8935 77.6968C92.532 78.0982 92.035 78.3852 91.0409 78.9591L57.7285 98.192C56.7345 98.7659 56.2374 99.0529 55.709 99.1652C55.2415 99.2646 54.7583 99.2646 54.2907 99.1652C53.7623 99.0529 53.2653 98.7659 52.2712 98.192L18.9588 78.9591C17.9647 78.3852 17.4677 78.0982 17.1062 77.6968C16.7864 77.3415 16.5448 76.9231 16.3971 76.4685C16.2301 75.9547 16.2301 75.3807 16.2301 74.2329V35.7671C16.2301 34.6192 16.2301 34.0453 16.3971 33.5315C16.5448 33.0769 16.7864 32.6584 17.1062 32.3032C17.4677 31.9017 17.9647 31.6148 18.9588 31.0409L52.2712 11.8079Z" fill="url(#paint1_linear_8269_78727)"/>
</g>
<g filter="url(#filter2_i_8269_78727)">
<path fill-rule="evenodd" clip-rule="evenodd" d="M46.8366 26.0299L54.7735 21.4476L66.9859 28.4984V37.7927L73.1925 41.4136V25.6898C73.1925 25.2104 72.9367 24.7674 72.5215 24.5276L55.4445 14.6682C55.0293 14.4285 54.5177 14.4285 54.1025 14.6682L40.6623 22.4279L46.8366 26.0299ZM38.0607 24.7094L51.5942 32.523L45.4199 36.125L37.3897 31.4888L25.1773 38.5396V47.9343L18.9707 51.5553V35.731C18.9707 35.2516 19.2265 34.8086 19.6417 34.5689L36.7187 24.7094C37.134 24.4697 37.6455 24.4697 38.0607 24.7094ZM33.4431 46.4865L19.6417 54.4547C19.2265 54.6944 18.9707 55.1375 18.9707 55.6169V75.3358C18.9707 75.8152 19.2265 76.2583 19.6417 76.498L33.4431 84.4662V77.2994L25.1773 72.5272V58.4255L33.4431 53.6533V46.4865ZM36.3545 85.4032V69.6987L42.5611 73.3197V82.5946L54.7735 89.6454L62.7014 85.0683L68.8757 88.6703L55.4445 96.4248C55.0293 96.6646 54.5177 96.6646 54.1025 96.4248L37.0254 86.5654C36.6102 86.3257 36.3545 85.8827 36.3545 85.4032ZM57.9224 78.6074L71.4276 86.4046C71.8428 86.6443 72.3544 86.6443 72.7696 86.4046L89.8466 76.5452C90.2618 76.3054 90.5176 75.8624 90.5176 75.383V59.5926L84.311 63.2135V72.5744L72.0986 79.6252L64.0967 75.0053L57.9224 78.6074ZM89.8709 56.5702L76.1041 64.5184V57.3516L84.3352 52.5994V38.4977L76.104 33.7454V26.5786L89.8709 34.5269C90.2861 34.7666 90.5418 35.2097 90.5418 35.6891V55.408C90.5418 55.8874 90.2861 56.3304 89.8709 56.5702ZM55.4513 75.5392C55.0335 75.783 54.5167 75.783 54.0989 75.5392L37.9831 66.1374C37.5709 65.8969 37.3174 65.4555 37.3174 64.9783V46.1503C37.3174 45.673 37.5709 45.2317 37.9831 44.9912L54.0989 35.5894C54.5167 35.3456 55.0335 35.3456 55.4513 35.5894L71.5671 44.9912C71.9793 45.2317 72.2328 45.673 72.2328 46.1503V64.9783C72.2328 65.4555 71.9793 65.8969 71.5671 66.1374L55.4513 75.5392ZM68.2069 63.4368L56.7881 70.0984V56.7204L68.2069 50.0587V63.4368ZM66.2408 46.5448L54.7751 53.2338L43.3094 46.5448L54.7751 39.8558L66.2408 46.5448ZM41.3433 63.4368V50.0587L52.7621 56.7204V70.0984L41.3433 63.4368Z" fill="#FF5500"/>
</g>
<defs>
<filter id="filter0_i_8269_78727" x="12.0742" y="5.77673" width="85.8535" height="98.4413" filterUnits="userSpaceOnUse" color-interpolation-filters="sRGB">
<feFlood flood-opacity="0" result="BackgroundImageFix"/>
<feBlend mode="normal" in="SourceGraphic" in2="BackgroundImageFix" result="shape"/>
<feColorMatrix in="SourceAlpha" type="matrix" values="0 0 0 0 0 0 0 0 0 0 0 0 0 0 0 0 0 0 127 0" result="hardAlpha"/>
<feOffset/>
<feGaussianBlur stdDeviation="1.97916"/>
<feComposite in2="hardAlpha" operator="arithmetic" k2="-1" k3="1"/>
<feColorMatrix type="matrix" values="0 0 0 0 0 0 0 0 0 0 0 0 0 0 0 0 0 0 0.2 0"/>
<feBlend mode="normal" in2="shape" result="effect1_innerShadow_8269_78727"/>
</filter>
<filter id="filter1_d_8269_78727" x="12.8196" y="8.20211" width="84.3608" height="95.3012" filterUnits="userSpaceOnUse" color-interpolation-filters="sRGB">
<feFlood flood-opacity="0" result="BackgroundImageFix"/>
<feColorMatrix in="SourceAlpha" type="matrix" values="0 0 0 0 0 0 0 0 0 0 0 0 0 0 0 0 0 0 127 0" result="hardAlpha"/>
<feOffset dy="0.852713"/>
<feGaussianBlur stdDeviation="1.70543"/>
<feComposite in2="hardAlpha" operator="out"/>
<feColorMatrix type="matrix" values="0 0 0 0 0 0 0 0 0 0 0 0 0 0 0 0 0 0 0.15 0"/>
<feBlend mode="normal" in2="BackgroundImageFix" result="effect1_dropShadow_8269_78727"/>
<feBlend mode="normal" in="SourceGraphic" in2="effect1_dropShadow_8269_78727" result="shape"/>
</filter>
<filter id="filter2_i_8269_78727" x="18.9707" y="14.4884" width="71.5703" height="84.6744" filterUnits="userSpaceOnUse" color-interpolation-filters="sRGB">
<feFlood flood-opacity="0" result="BackgroundImageFix"/>
<feBlend mode="normal" in="SourceGraphic" in2="BackgroundImageFix" result="shape"/>
<feColorMatrix in="SourceAlpha" type="matrix" values="0 0 0 0 0 0 0 0 0 0 0 0 0 0 0 0 0 0 127 0" result="hardAlpha"/>
<feOffset dy="2.55814"/>
<feGaussianBlur stdDeviation="2.55814"/>
<feComposite in2="hardAlpha" operator="arithmetic" k2="-1" k3="1"/>
<feColorMatrix type="matrix" values="0 0 0 0 0.70599 0 0 0 0 0.23533 0 0 0 0 0 0 0 0 0.5 0"/>
<feBlend mode="normal" in2="shape" result="effect1_innerShadow_8269_78727"/>
</filter>
<linearGradient id="paint0_linear_8269_78727" x1="5.43359" y1="54.9973" x2="104.569" y2="54.9973" gradientUnits="userSpaceOnUse">
<stop stop-color="#E5E8EF" stop-opacity="0"/>
<stop offset="1" stop-color="#F5F5F5"/>
</linearGradient>
<linearGradient id="paint1_linear_8269_78727" x1="54.9999" y1="10.2325" x2="54.9999" y2="99.7674" gradientUnits="userSpaceOnUse">
<stop stop-color="white"/>
<stop offset="1" stop-color="#F5F6F7"/>
</linearGradient>
</defs>
</svg>
