<svg width="167" height="28" viewBox="0 0 167 28" fill="none" xmlns="http://www.w3.org/2000/svg">
<mask id="mask0_1573_49557" style="mask-type:luminance" maskUnits="userSpaceOnUse" x="0" y="0" width="167" height="28">
<path d="M166.784 0.189453H0.367004V27.2488H166.784V0.189453Z" fill="white"/>
</mask>
<g mask="url(#mask0_1573_49557)">
<path d="M28.6583 5.21523L31.0547 4.74928L29.0577 4.31659L30.1228 3.0518L28.2589 3.51782L28.5918 1.68722L27.327 2.55259L26.7279 0.189453L26.1954 2.88542L24.6643 1.68722L25.1635 3.3181L23.6991 3.0518L24.9638 4.38312L22.867 4.8158L24.9972 5.28182L24.1318 6.24704L25.4631 6.14719L24.864 7.94446L26.3285 6.44669L26.7612 8.84309L27.2271 6.44669L28.3588 7.64489L28.2256 6.14719L29.8565 6.71299L28.6583 5.21523ZM27.8263 4.58283C27.8263 5.14863 27.3936 5.58132 26.8278 5.58132C26.2619 5.58132 25.8292 5.14863 25.8292 4.58283C25.8292 4.01703 26.2619 3.58434 26.8278 3.58434C27.3936 3.58434 27.8263 4.01703 27.8263 4.58283Z" fill="#D2E4FF"/>
<path d="M165.085 9.94184H165.451C165.684 9.94184 165.751 10.075 165.751 10.1748C165.751 10.3079 165.684 10.4078 165.451 10.4078H165.085V9.94184ZM165.418 10.6408C165.518 10.6408 165.585 10.6408 165.651 10.7074C165.718 10.7739 165.718 10.9071 165.751 11.0734C165.751 11.1733 165.784 11.2732 165.818 11.373H166.051C165.984 11.2066 165.984 11.0402 165.951 10.9071C165.917 10.7406 165.884 10.6408 165.718 10.5742C165.917 10.5409 166.017 10.3745 166.017 10.1748C166.017 9.84198 165.751 9.77539 165.485 9.77539H164.919V11.373H165.152V10.6408H165.418Z" fill="#D2E4FF"/>
<path d="M166.55 10.5402C166.55 11.1725 166.018 11.7051 165.385 11.7051C164.753 11.7051 164.22 11.1725 164.22 10.5402C164.22 9.90779 164.753 9.37525 165.385 9.37525C166.018 9.40851 166.55 9.90779 166.55 10.5402ZM165.385 9.17554C164.62 9.17554 163.987 9.80793 163.987 10.5734C163.987 11.339 164.62 11.9714 165.385 11.9714C166.151 11.9714 166.783 11.339 166.783 10.5734C166.783 9.77467 166.151 9.17554 165.385 9.17554Z" fill="#D2E4FF"/>
<path d="M14.6123 4.15039L12.6486 10.9735C12.4488 11.7057 12.3157 12.5045 12.2159 13.27H12.0494L9.65302 4.15039H3.1628L0.367004 21.491H6.45785L7.19009 14.0688C7.25662 13.3699 7.28995 12.6709 7.35648 11.972H7.55619C7.58945 12.7042 7.7559 13.4032 7.95561 14.1354L10.2189 21.491H13.9133L16.4095 13.7027C16.6092 13.1369 16.7091 12.5378 16.809 11.972H16.9088L17.7742 21.491H23.865L21.0026 4.15039H14.6123Z" fill="#D2E4FF"/>
<path d="M29.856 13.5364V9.27613H23.8983V21.4911H29.8227V17.4305C30.6215 20.2596 33.0844 21.7573 36.3462 21.7573C37.378 21.7573 38.4098 21.4911 39.3417 21.1915L39.608 16.1658C38.909 16.665 38.2434 17.0977 37.3114 17.0977C36.3462 17.0977 35.5474 16.3321 35.5474 15.3337C35.5474 14.2353 36.3129 13.5031 37.4113 13.5031C38.2767 13.5031 38.9756 14.0023 39.608 14.5016V9.60896C38.4098 9.20954 37.1117 8.97656 35.8803 8.97656C32.9181 8.97656 30.5882 10.8737 29.856 13.5364Z" fill="#D2E4FF"/>
<path d="M157.564 9.04323L155.467 13.836L154.868 15.6999H154.702L154.668 13.836L154.07 9.04323H147.979H147.679H142.254L142.154 10.8073H141.987C141.389 9.50924 140.29 8.77699 138.726 8.77699C135.764 8.77699 133.567 11.3398 132.735 14.0025C132.435 10.8406 129.806 9.00996 126.245 9.00996C123.582 9.00996 121.053 10.2082 119.554 12.2717L120.02 9.34279L118.023 9.44265L118.656 5.34884H112.665L112 9.44265L110.768 9.37612V9.30953H104.943L104.91 10.774H104.777C104.078 9.57577 102.946 9.04323 101.482 9.04323C98.5862 9.04323 96.4557 11.3731 95.5575 13.9692L96.3231 9.14308C94.326 9.10982 93.1941 9.44265 91.8959 11.0403H91.7633L92.1625 9.40938H86.2379L84.2078 9.50924L84.84 5.41536H78.8494L78.1834 9.50924L76.7526 9.40938L76.1533 13.1371C75.5541 11.9056 74.2895 11.2066 72.6251 10.8406L71.2609 10.5077C70.7949 10.4079 70.0293 10.308 70.129 9.64236C70.2287 8.94344 71.0939 8.71039 71.6265 8.71039C72.9914 8.71039 74.1232 9.27626 75.0881 10.0085L77.4845 5.58181C75.9534 4.54999 74.1892 4.05078 72.2258 4.05078C68.4645 4.05078 64.3376 6.34732 63.672 10.4745C63.2393 13.2037 65.0699 14.6349 67.466 15.0676L68.6975 15.3005C69.2638 15.4004 70.0623 15.5002 69.9627 16.2658C69.8294 17.0313 68.7978 17.2975 68.1986 17.2975C66.7341 17.2975 65.5026 16.5986 64.504 15.6999C64.504 15.6999 64.3709 15.5668 64.1712 15.3671C64.0713 11.2067 60.743 9.00996 56.7824 9.00996C54.153 9.00996 51.8231 9.97519 50.4918 11.839V9.00996C48.4948 8.9767 47.3965 9.30953 46.3647 10.9072H46.2315L46.3647 9.27627H40.4402V21.4912H46.3647V16.7983C46.3647 15.2673 47.1634 14.3686 48.6945 14.3686C48.994 14.3686 49.227 14.4352 49.46 14.5017C49.4267 14.8346 49.3934 15.1674 49.3934 15.5335C49.3934 19.5941 52.9881 21.7575 56.8156 21.7575C58.5796 21.7575 60.3104 21.2915 61.6417 20.3596C63.439 21.3248 65.8354 21.9239 67.9986 21.9239C71.7598 21.9239 75.8537 19.8604 76.5196 15.7332C76.6193 15.0676 76.6193 14.5017 76.5196 14.0025L77.5512 13.9359L76.253 21.5245H82.2443L83.4422 13.9359L85.4393 14.0691L84.2408 21.591H90.1654L90.898 16.8981C91.131 15.3671 92.0629 14.4684 93.5934 14.4684C94.2923 14.4684 94.6923 14.7347 95.1912 15.0676C95.1582 15.2007 95.1246 15.3338 95.1246 15.4669C94.6586 18.4291 95.9568 21.7907 99.2851 21.7907C100.95 21.7907 102.048 21.0586 103.312 19.8936H103.446L103.013 21.4912H108.838L110.036 13.9692L111.3 13.8694L110.102 21.4912H116.093L117.291 13.9026L118.59 13.9692C118.39 14.4684 118.256 15.001 118.157 15.5668C117.491 19.7938 120.686 21.7575 124.547 21.7575C127.343 21.7575 130.871 20.3928 132.103 17.464H126.311C126.111 18.0298 125.579 18.4624 124.947 18.4624C123.715 18.4624 123.715 17.3641 123.881 16.3656H132.336C132.336 19.0282 133.767 21.5245 136.663 21.5245C138.06 21.5245 139.758 20.8255 140.556 19.4942H140.723L140.423 20.7257C140.057 22.2568 138.892 23.4216 137.295 23.4216C135.83 23.4216 134.233 22.8891 133.234 21.9239L131.271 26.051L131.836 26.2507C133.467 26.8831 135.031 27.2159 136.929 27.2159C141.189 27.2159 145.416 25.2855 146.148 20.526L147.879 9.67562L151.141 20.0267L147.013 26.284H153.27L163.822 9.00996L157.564 9.04323ZM57.0153 17.1644C56.0834 17.1644 55.3511 16.4654 55.3511 15.5002C55.3511 14.5017 56.0168 13.7029 57.0153 13.7029C58.0138 13.7029 58.6795 14.5017 58.6795 15.5002C58.6795 16.4654 57.9472 17.1644 57.0153 17.1644ZM104.178 15.3005C104.045 16.2324 103.412 17.1311 102.314 17.1311C101.249 17.1311 100.916 16.299 101.049 15.3338C101.183 14.4352 101.914 13.6696 102.846 13.6696C103.778 13.6696 104.311 14.3353 104.178 15.3005ZM127.143 13.836V13.9026H127.077H124.281H124.181V13.8028C124.314 12.9041 124.847 12.305 125.546 12.1719C125.645 12.1386 125.745 12.1386 125.845 12.1386C126.245 12.1386 126.577 12.305 126.81 12.5713C127.11 12.9041 127.243 13.3368 127.143 13.836ZM141.455 15.1674C141.322 16.0993 140.69 16.8648 139.691 16.8648C138.659 16.8648 138.126 16.1326 138.293 15.1341C138.46 14.1689 139.225 13.3701 140.19 13.3701C141.189 13.4033 141.588 14.2687 141.455 15.1674Z" fill="#D2E4FF"/>
</g>
</svg>
