<svg width="88" height="45" viewBox="0 0 88 45" fill="none" xmlns="http://www.w3.org/2000/svg">
<path d="M40.9751 11.7407C35.0713 11.7407 30.2916 16.4978 30.2916 22.3788C30.2916 28.2598 35.0713 33.0168 40.9751 33.0168C46.8788 33.0168 51.6585 28.2598 51.6585 22.3788C51.6585 16.4978 46.8788 11.7407 40.9751 11.7407ZM40.9751 28.9637C37.3193 28.9637 34.3561 26.0118 34.3561 22.3788C34.3561 18.7457 37.3193 15.7939 40.9751 15.7939C44.6308 15.7939 47.594 18.7457 47.594 22.3788C47.594 26.0118 44.6308 28.9637 40.9751 28.9637Z" fill="#D2E4FF"/>
<path d="M65.1232 24.6604C67.9047 23.8998 69.9483 21.368 69.9597 18.3707V18.2685C69.9256 14.6468 66.9851 11.729 63.352 11.729H54.7122V15.5551L57.9706 20.8344H54.7235V33.0051H58.788V24.8875H60.491L65.4865 33.0051H70.2662L65.1118 24.6604H65.1232ZM63.3747 20.8571H62.773L59.6281 15.7935H63.3747C64.7825 15.7935 65.9179 16.9288 65.9179 18.3253C65.9179 19.7217 64.7825 20.8571 63.3747 20.8571Z" fill="#D2E4FF"/>
<path d="M77.2034 33.0168H72.628L77.9981 22.3901L72.628 11.7407H77.2034L80.2688 17.8602L83.4137 11.7407H87.8869L77.2034 33.0168Z" fill="#D2E4FF"/>
<path d="M11.2631 11.7407C5.35942 11.7407 0.579679 16.4978 0.579679 22.3788C0.579679 28.2598 5.35942 33.0168 11.2631 33.0168C17.1669 33.0168 21.9466 28.2598 21.9466 22.3788C21.9466 16.4978 17.1669 11.7407 11.2631 11.7407Z" fill="#D2E4FF"/>
<path d="M11.2631 0.0805664L21.9466 5.3485V9.91254L11.2631 4.6446L0.579679 9.91254V5.3485L11.2631 0.0805664Z" fill="#D2E4FF"/>
<path d="M11.2631 44.6645L0.579679 39.3966V34.8325L11.2631 40.1005L21.9466 34.8325V39.3966L11.2631 44.6645Z" fill="#D2E4FF"/>
</svg>
