<svg width="388" height="326" viewBox="0 0 388 326" fill="none" xmlns="http://www.w3.org/2000/svg">
<path d="M180.553 23.6915C185.79 20.6279 188.409 19.0961 191.193 18.4965C193.656 17.966 196.202 17.966 198.665 18.4965C201.449 19.0961 204.067 20.6279 209.305 23.6915L301.161 77.4253C306.398 80.4889 309.017 82.0207 310.921 84.1638C312.606 86.0599 313.879 88.2938 314.658 90.7204C315.537 93.463 315.537 96.5267 315.537 102.654V210.122C315.537 216.249 315.537 219.312 314.658 222.055C313.879 224.482 312.606 226.715 310.921 228.612C309.017 230.755 306.398 232.286 301.161 235.35L209.305 289.084C204.067 292.148 201.449 293.679 198.665 294.279C196.202 294.809 193.656 294.809 191.193 294.279C188.409 293.679 185.79 292.148 180.553 289.084L88.6962 235.35C83.459 232.286 80.8404 230.755 78.936 228.612C77.2509 226.715 75.978 224.482 75.1998 222.055C74.3203 219.312 74.3203 216.249 74.3203 210.122V102.654C74.3203 96.5267 74.3203 93.463 75.1998 90.7204C75.978 88.2938 77.2509 86.0599 78.936 84.1638C80.8404 82.0207 83.459 80.4889 88.6962 77.4253L180.553 23.6915Z" stroke="#25292C" stroke-linecap="round"/>
<g opacity="0.1">
<path d="M34.5273 -40.7344V257.266" stroke="#3B3D3F"/>
<path d="M74.5273 -40.7344V257.266" stroke="#3B3D3F"/>
<path d="M114.527 -40.7344V257.266" stroke="#3B3D3F"/>
<path d="M154.527 -40.7344V257.266" stroke="#3B3D3F"/>
<path d="M194.527 -40.7344V257.266" stroke="#3B3D3F"/>
<path d="M234.527 -40.7344V257.266" stroke="#3B3D3F"/>
<path d="M274.527 -40.7344V257.266" stroke="#3B3D3F"/>
<path d="M314.527 -40.7344V257.266" stroke="#3B3D3F"/>
<path d="M354.527 -40.7344V257.266" stroke="#3B3D3F"/>
<g clip-path="url(#clip0_8559_7586)">
<rect x="-5.22266" y="37.75" width="389.5" height="0.5" fill="#3B3D3F" stroke="#3B3D3F" stroke-width="0.5"/>
<rect x="-5.22266" y="78.75" width="389.5" height="0.5" fill="#3B3D3F" stroke="#3B3D3F" stroke-width="0.5"/>
<rect x="-5.22266" y="119.75" width="389.5" height="0.5" fill="#3B3D3F" stroke="#3B3D3F" stroke-width="0.5"/>
<rect x="-5.22266" y="160.75" width="389.5" height="0.5" fill="#3B3D3F" stroke="#3B3D3F" stroke-width="0.5"/>
<rect x="-5.22266" y="201.75" width="389.5" height="0.5" fill="#3B3D3F" stroke="#3B3D3F" stroke-width="0.5"/>
<rect x="-5.22266" y="242.75" width="389.5" height="0.5" fill="#3B3D3F" stroke="#3B3D3F" stroke-width="0.5"/>
</g>
</g>
<circle cx="242.484" cy="43.0859" r="2" fill="#3B3D3F"/>
<circle cx="313.861" cy="224.237" r="2" fill="#3B3D3F"/>
<path d="M72.3164 91.333L192.435 156.513M312.557 91.333L192.435 156.513M192.435 156.513V279.067" stroke="#25292C" stroke-linecap="round"/>
<circle cx="76.3203" cy="224.882" r="2" fill="#3B3D3F"/>
<rect x="-7" y="223.383" width="400" height="102.617" fill="url(#paint0_linear_8559_7586)"/>
<g filter="url(#filter0_f_8559_7586)">
<path d="M187.917 83.6295C191.151 81.7625 195.135 81.7625 198.369 83.6295L258.067 118.096C261.301 119.963 263.293 123.414 263.293 127.148V196.081C263.293 199.815 261.301 203.266 258.067 205.133L198.369 239.599C195.135 241.467 191.151 241.467 187.917 239.599L128.219 205.133C124.985 203.266 122.993 199.815 122.993 196.081V127.148C122.993 123.414 124.985 119.963 128.219 118.096L187.917 83.6295Z" fill="#0A0D0F"/>
</g>
<path d="M191.078 77.7432C192.269 77.4901 193.495 77.4586 194.694 77.6484L195.207 77.7432C196.346 77.9854 197.441 78.5097 199.215 79.5059L201.242 80.667L254.669 111.513C257.553 113.178 258.994 114.016 260.02 115.065L260.219 115.278C261.033 116.183 261.674 117.229 262.109 118.363L262.283 118.854C262.763 120.331 262.77 121.991 262.77 125.543V187.235C262.77 190.566 262.764 192.232 262.368 193.645L262.283 193.924C261.907 195.082 261.322 196.16 260.558 197.104L260.219 197.5C259.439 198.365 258.438 199.052 256.688 200.09L254.669 201.266L201.242 232.111C198.358 233.776 196.912 234.606 195.491 234.969L195.207 235.035C194.016 235.288 192.79 235.32 191.59 235.13L191.078 235.035C189.939 234.793 188.843 234.269 187.069 233.272L185.042 232.111L131.615 201.266C128.731 199.6 127.29 198.762 126.265 197.713L126.065 197.5C125.251 196.595 124.61 195.549 124.175 194.415L124.001 193.924C123.521 192.447 123.515 190.788 123.515 187.235V125.543C123.515 122.213 123.52 120.546 123.916 119.134L124.001 118.854C124.377 117.697 124.962 116.619 125.727 115.675L126.065 115.278C126.845 114.413 127.846 113.727 129.596 112.688L131.615 111.513L185.042 80.667C187.926 79.0019 189.372 78.1727 190.793 77.8096L191.078 77.7432Z" fill="#0A0D0F" stroke="url(#paint1_linear_8559_7586)" stroke-width="1.04519"/>
<g filter="url(#filter1_i_8559_7586)">
<path d="M191.47 84.7134C192.079 84.3617 192.384 84.1858 192.708 84.117C192.994 84.0561 193.29 84.0561 193.577 84.117C193.901 84.1858 194.205 84.3617 194.815 84.7134L254.374 119.1C254.983 119.451 255.288 119.627 255.51 119.873C255.706 120.091 255.854 120.347 255.944 120.626C256.047 120.941 256.047 121.293 256.047 121.996V190.769C256.047 191.472 256.047 191.824 255.944 192.139C255.854 192.417 255.706 192.674 255.51 192.892C255.288 193.138 254.983 193.313 254.374 193.665L194.815 228.051C194.205 228.403 193.901 228.579 193.577 228.648C193.29 228.709 192.994 228.709 192.708 228.648C192.384 228.579 192.079 228.403 191.47 228.051L131.911 193.665C131.301 193.313 130.997 193.138 130.775 192.892C130.579 192.674 130.431 192.417 130.341 192.139C130.238 191.824 130.238 191.472 130.238 190.769V121.996C130.238 121.293 130.238 120.941 130.341 120.626C130.431 120.347 130.579 120.091 130.775 119.873C130.997 119.627 131.301 119.451 131.911 119.1L191.47 84.7134Z" fill="#060809"/>
</g>
<path d="M193.306 84.6025L193.469 84.6279C193.636 84.6636 193.803 84.7407 194.146 84.9326L194.554 85.166L254.113 119.553C254.593 119.83 254.834 119.973 254.989 120.099L255.121 120.223C255.231 120.345 255.322 120.484 255.389 120.634L255.447 120.787C255.518 121.005 255.524 121.257 255.524 121.996V190.769C255.524 191.323 255.521 191.603 255.489 191.801L255.447 191.978C255.396 192.134 255.321 192.281 255.225 192.414L255.121 192.542C255.006 192.669 254.856 192.775 254.519 192.976L254.113 193.213L194.554 227.599C194.074 227.876 193.829 228.014 193.643 228.085L193.469 228.137C193.307 228.171 193.142 228.179 192.979 228.162L192.816 228.137C192.649 228.101 192.482 228.024 192.14 227.832L191.731 227.599L132.172 193.213C131.692 192.936 131.451 192.792 131.296 192.666L131.164 192.542H131.163C131.053 192.42 130.963 192.281 130.896 192.131L130.838 191.978C130.767 191.76 130.761 191.507 130.761 190.769V121.996C130.761 121.442 130.764 121.161 130.796 120.964L130.838 120.787C130.906 120.578 131.017 120.386 131.164 120.223L131.163 120.222C131.278 120.094 131.429 119.989 131.766 119.789L132.172 119.553L191.731 85.166C192.211 84.889 192.456 84.7521 192.643 84.6807L192.816 84.6279C192.977 84.5937 193.143 84.5855 193.306 84.6025Z" stroke="url(#paint2_linear_8559_7586)" stroke-width="1.04519"/>
<path d="M193.306 89.8289L193.468 89.8542C193.636 89.8899 193.803 89.9668 194.146 90.1589L194.553 90.3923L249.587 122.167C250.067 122.444 250.308 122.587 250.463 122.713L250.595 122.837C250.705 122.959 250.796 123.098 250.862 123.248L250.921 123.401V123.402C250.991 123.619 250.998 123.872 250.998 124.61V188.158C250.998 188.712 250.994 188.993 250.963 189.19L250.921 189.367C250.87 189.524 250.795 189.671 250.698 189.803L250.595 189.931C250.48 190.059 250.33 190.165 249.993 190.365L249.587 190.602L194.553 222.376C194.073 222.653 193.828 222.791 193.642 222.862L193.468 222.914C193.307 222.948 193.142 222.956 192.979 222.939L192.816 222.914C192.649 222.878 192.482 222.801 192.139 222.609L191.731 222.376L136.697 190.602C136.217 190.325 135.976 190.181 135.821 190.055L135.688 189.931C135.578 189.809 135.489 189.67 135.422 189.52L135.363 189.367C135.293 189.149 135.286 188.897 135.286 188.158V124.61C135.286 124.056 135.29 123.775 135.321 123.578L135.363 123.401C135.414 123.244 135.49 123.097 135.586 122.965L135.688 122.837C135.803 122.709 135.954 122.604 136.291 122.403L136.697 122.167L191.731 90.3923C192.211 90.1153 192.456 89.9783 192.643 89.907L192.816 89.8542C192.977 89.8201 193.143 89.8117 193.306 89.8289Z" fill="#0A0D0F" stroke="url(#paint3_linear_8559_7586)" stroke-width="1.04519"/>
<g filter="url(#filter2_i_8559_7586)">
<path d="M191.443 95.2116C192.061 94.8464 192.371 94.6638 192.7 94.5924C192.992 94.5292 193.294 94.5292 193.585 94.5924C193.915 94.6638 194.224 94.8464 194.843 95.2116L244.164 124.325C244.763 124.679 245.063 124.856 245.281 125.101C245.473 125.318 245.619 125.573 245.708 125.849C245.808 126.161 245.808 126.509 245.808 127.205V185.562C245.808 186.258 245.808 186.606 245.708 186.919C245.619 187.195 245.473 187.45 245.281 187.667C245.063 187.912 244.763 188.089 244.164 188.442L194.843 217.556C194.224 217.921 193.915 218.104 193.585 218.175C193.294 218.238 192.992 218.238 192.7 218.175C192.371 218.104 192.061 217.921 191.443 217.556L142.122 188.442C141.522 188.089 141.223 187.912 141.005 187.667C140.812 187.45 140.667 187.195 140.578 186.919C140.477 186.606 140.477 186.258 140.477 185.562V127.205C140.477 126.509 140.477 126.161 140.578 125.849C140.667 125.573 140.812 125.318 141.005 125.101C141.223 124.856 141.522 124.679 142.122 124.325L191.443 95.2116Z" fill="#060809"/>
</g>
<path d="M193.31 95.0762L193.475 95.1035C193.645 95.1405 193.815 95.2203 194.163 95.4199L194.577 95.6621L243.898 124.775C244.37 125.054 244.607 125.198 244.76 125.324L244.89 125.448C244.998 125.57 245.087 125.709 245.152 125.857L245.21 126.009C245.279 126.224 245.285 126.475 245.285 127.205V185.562C245.285 186.11 245.282 186.388 245.251 186.583L245.21 186.759C245.16 186.914 245.086 187.06 244.991 187.192L244.89 187.319C244.777 187.446 244.629 187.552 244.297 187.754L243.898 187.992L194.577 217.106C194.09 217.394 193.841 217.536 193.651 217.61L193.475 217.665C193.311 217.701 193.143 217.709 192.977 217.691L192.811 217.665C192.64 217.628 192.471 217.548 192.123 217.349L191.708 217.106L142.388 187.992C141.915 187.713 141.678 187.569 141.525 187.443L141.396 187.319C141.287 187.197 141.198 187.06 141.133 186.911L141.075 186.759C141.006 186.543 141 186.293 141 185.562V127.205C141 126.657 141.003 126.38 141.034 126.185L141.075 126.009C141.125 125.853 141.199 125.707 141.294 125.575L141.396 125.448C141.508 125.321 141.656 125.215 141.988 125.014L142.388 124.775L191.708 95.6621C192.195 95.3745 192.444 95.2314 192.634 95.1572L192.811 95.1035C192.975 95.068 193.143 95.0584 193.31 95.0762Z" stroke="url(#paint4_linear_8559_7586)" stroke-width="1.04519"/>
<g filter="url(#filter3_i_8559_7586)">
<path d="M191.471 95.1782C192.08 94.8265 192.384 94.6506 192.708 94.5818C192.995 94.5209 193.291 94.5209 193.578 94.5818C193.901 94.6506 194.206 94.8265 194.815 95.1782L245.319 124.335C245.928 124.687 246.232 124.863 246.454 125.109C246.65 125.327 246.798 125.583 246.889 125.862C246.991 126.177 246.991 126.528 246.991 127.232V185.546C246.991 186.249 246.991 186.601 246.889 186.916C246.798 187.194 246.65 187.451 246.454 187.668C246.232 187.914 245.928 188.09 245.319 188.442L194.815 217.599C194.206 217.951 193.901 218.127 193.578 218.195C193.291 218.256 192.995 218.256 192.708 218.195C192.384 218.127 192.08 217.951 191.471 217.599L140.967 188.442C140.358 188.09 140.053 187.914 139.832 187.668C139.636 187.451 139.488 187.194 139.397 186.916C139.295 186.601 139.295 186.249 139.295 185.546V127.232C139.295 126.528 139.295 126.177 139.397 125.862C139.488 125.583 139.636 125.327 139.832 125.109C140.053 124.863 140.358 124.687 140.967 124.335L191.471 95.1782Z" fill="#060809"/>
</g>
<path d="M193.307 95.0674L193.469 95.0928C193.636 95.1284 193.803 95.2056 194.146 95.3975L194.554 95.6309L245.058 124.788C245.537 125.065 245.778 125.208 245.934 125.334L246.065 125.459C246.176 125.582 246.266 125.72 246.333 125.87L246.392 126.023C246.462 126.241 246.469 126.493 246.469 127.231V185.546C246.469 186.099 246.465 186.38 246.434 186.577L246.392 186.754C246.341 186.911 246.265 187.059 246.169 187.191L246.065 187.318C245.951 187.446 245.801 187.552 245.463 187.753L245.058 187.989L194.554 217.146C194.074 217.423 193.829 217.56 193.643 217.632L193.469 217.685C193.308 217.719 193.143 217.727 192.979 217.71L192.817 217.685C192.65 217.649 192.482 217.572 192.14 217.38L191.732 217.146L141.229 187.989C140.749 187.712 140.508 187.569 140.353 187.443L140.221 187.318C140.11 187.196 140.02 187.057 139.953 186.907L139.895 186.754C139.824 186.536 139.817 186.284 139.817 185.546V127.231C139.817 126.678 139.821 126.398 139.853 126.2L139.895 126.023C139.946 125.867 140.021 125.719 140.117 125.586L140.221 125.459C140.335 125.332 140.485 125.225 140.822 125.024L141.229 124.788L191.732 95.6309C192.212 95.3542 192.456 95.2169 192.643 95.1455L192.817 95.0928C192.978 95.0586 193.144 95.0503 193.307 95.0674Z" stroke="url(#paint5_linear_8559_7586)" stroke-width="1.04519"/>
<path d="M193.804 100.531L193.966 100.557C194.134 100.592 194.3 100.669 194.643 100.861L195.051 101.095L241.014 127.631C241.653 128 241.869 128.132 242.022 128.302V128.301C242.133 128.423 242.223 128.563 242.29 128.713L242.349 128.866C242.419 129.084 242.425 129.336 242.425 130.074V183.146C242.425 183.699 242.422 183.98 242.391 184.178L242.349 184.354C242.298 184.511 242.222 184.658 242.126 184.791L242.022 184.919C241.908 185.046 241.758 185.153 241.42 185.354L241.014 185.59L195.051 212.126C194.571 212.403 194.326 212.54 194.14 212.611L193.966 212.663C193.751 212.709 193.528 212.709 193.313 212.663H193.312C193.145 212.627 192.978 212.551 192.637 212.359L192.229 212.126L146.266 185.59C145.786 185.313 145.545 185.17 145.39 185.044L145.258 184.919C145.148 184.796 145.057 184.658 144.99 184.508L144.932 184.354C144.861 184.137 144.854 183.884 144.854 183.146V130.074C144.854 129.521 144.858 129.24 144.89 129.043L144.932 128.866C144.983 128.709 145.058 128.562 145.154 128.429L145.258 128.301C145.372 128.174 145.522 128.068 145.859 127.867L146.266 127.631L192.229 101.095C192.868 100.725 193.091 100.604 193.314 100.557L193.313 100.556C193.475 100.521 193.64 100.514 193.804 100.531Z" fill="#0A0D0F" stroke="url(#paint6_linear_8559_7586)" stroke-width="1.04519"/>
<path d="M181.917 164.203C182.88 164.203 183.362 164.203 183.729 164.391C184.053 164.556 184.317 164.819 184.481 165.143C184.669 165.51 184.669 165.992 184.669 166.955V172.401C184.669 173.364 184.669 173.846 184.481 174.214C184.317 174.538 184.053 174.801 183.729 174.966C183.362 175.153 182.88 175.153 181.917 175.153H176.471C175.508 175.153 175.026 175.153 174.658 174.966C174.335 174.801 174.071 174.538 173.906 174.214C173.719 173.846 173.719 173.364 173.719 172.401V166.955C173.719 165.992 173.719 165.51 173.906 165.143C174.071 164.819 174.335 164.556 174.658 164.391C175.026 164.203 175.508 164.203 176.471 164.203H181.917ZM176.344 170.58C176.014 170.58 175.746 170.848 175.746 171.178C175.746 171.508 176.014 171.775 176.344 171.775H182.043C182.373 171.775 182.641 171.508 182.641 171.178C182.64 170.848 182.373 170.58 182.043 170.58H176.344ZM176.344 167.58C176.014 167.58 175.746 167.848 175.746 168.178C175.746 168.508 176.014 168.775 176.344 168.775H182.043C182.373 168.775 182.641 168.508 182.641 168.178C182.64 167.848 182.373 167.58 182.043 167.58H176.344Z" fill="#FF5500"/>
<path d="M195.917 164.203C196.88 164.203 197.362 164.203 197.729 164.391C198.053 164.556 198.317 164.819 198.481 165.143C198.669 165.51 198.669 165.992 198.669 166.955V172.401C198.669 173.364 198.669 173.846 198.481 174.214C198.317 174.538 198.053 174.801 197.729 174.966C197.362 175.153 196.88 175.153 195.917 175.153H190.471C189.508 175.153 189.026 175.153 188.658 174.966C188.335 174.801 188.071 174.538 187.906 174.214C187.719 173.846 187.719 173.364 187.719 172.401V166.955C187.719 165.992 187.719 165.51 187.906 165.143C188.071 164.819 188.335 164.556 188.658 164.391C189.026 164.203 189.508 164.203 190.471 164.203H195.917ZM190.344 170.58C190.014 170.58 189.746 170.848 189.746 171.178C189.746 171.508 190.014 171.775 190.344 171.775H196.043C196.373 171.775 196.641 171.508 196.641 171.178C196.64 170.848 196.373 170.58 196.043 170.58H190.344ZM190.344 167.58C190.014 167.58 189.746 167.848 189.746 168.178C189.746 168.508 190.014 168.775 190.344 168.775H196.043C196.373 168.775 196.641 168.508 196.641 168.178C196.64 167.848 196.373 167.58 196.043 167.58H190.344Z" fill="#FF5500"/>
<path d="M209.917 164.203C210.88 164.203 211.362 164.203 211.729 164.391C212.053 164.556 212.317 164.819 212.481 165.143C212.669 165.51 212.669 165.992 212.669 166.955V172.401C212.669 173.364 212.669 173.846 212.481 174.214C212.317 174.538 212.053 174.801 211.729 174.966C211.362 175.153 210.88 175.153 209.917 175.153H204.471C203.508 175.153 203.026 175.153 202.658 174.966C202.335 174.801 202.071 174.538 201.906 174.214C201.719 173.846 201.719 173.364 201.719 172.401V166.955C201.719 165.992 201.719 165.51 201.906 165.143C202.071 164.819 202.335 164.556 202.658 164.391C203.026 164.203 203.508 164.203 204.471 164.203H209.917ZM204.344 170.58C204.014 170.58 203.746 170.848 203.746 171.178C203.746 171.508 204.014 171.775 204.344 171.775H210.043C210.373 171.775 210.641 171.508 210.641 171.178C210.64 170.848 210.373 170.58 210.043 170.58H204.344ZM204.344 167.58C204.014 167.58 203.746 167.848 203.746 168.178C203.746 168.508 204.014 168.775 204.344 168.775H210.043C210.373 168.775 210.641 168.508 210.641 168.178C210.64 167.848 210.373 167.58 210.043 167.58H204.344Z" fill="#FF5500"/>
<path d="M193.445 147.016V156.188M193.445 156.188H181.152C180.048 156.188 179.152 157.083 179.152 158.187V163.993M193.445 156.188H205.598C206.702 156.188 207.598 157.083 207.598 158.187V163.993M193.445 156.188V163.993" stroke="#FF5500" stroke-linecap="round"/>
<circle cx="193.377" cy="156.232" r="2.50586" fill="#FF5500"/>
<path fill-rule="evenodd" clip-rule="evenodd" d="M175.7 136C174.75 136 173.98 136.77 173.98 137.719V145.23C173.98 146.179 174.75 146.949 175.7 146.949H210.788C211.737 146.949 212.507 146.179 212.507 145.23V137.719C212.507 136.77 211.737 136 210.788 136H175.7ZM208.566 141.476C208.566 142.708 207.567 143.707 206.335 143.707C205.103 143.707 204.104 142.708 204.104 141.476C204.104 140.243 205.103 139.245 206.335 139.245C207.567 139.245 208.566 140.243 208.566 141.476ZM176.992 141.474C176.992 140.999 177.377 140.614 177.851 140.614H187.927C188.402 140.614 188.787 140.999 188.787 141.474C188.787 141.949 188.402 142.333 187.927 142.333H177.851C177.377 142.333 176.992 141.949 176.992 141.474Z" fill="#FF5500"/>
<path d="M194.12 265.436C204.278 265.436 212.515 273.69 212.515 283.872C212.515 285.957 214.073 287.949 216.265 287.949H216.915C223.971 287.949 229.693 293.683 229.693 300.757C229.693 307.831 223.971 313.564 216.915 313.564H172.646C170.487 313.564 168.454 313.028 166.672 312.081L166.659 312.074L166.646 312.068L166.095 311.808C160.449 309.016 156.565 303.189 156.564 296.453C156.564 287.002 164.21 279.342 173.638 279.342C175.025 279.342 176.308 278.539 176.914 277.303L177.025 277.05C179.732 270.244 186.367 265.436 194.12 265.436Z" fill="url(#paint7_linear_8559_7586)" stroke="url(#paint8_linear_8559_7586)" stroke-width="0.872003"/>
<g clip-path="url(#clip1_8559_7586)">
<path d="M185.459 293.35C185.459 293.76 185.503 294.092 185.578 294.335C185.665 294.579 185.773 294.845 185.924 295.132C185.978 295.221 185.999 295.309 185.999 295.387C185.999 295.498 185.935 295.608 185.794 295.719L185.114 296.184C185.017 296.25 184.92 296.283 184.833 296.283C184.725 296.283 184.617 296.228 184.509 296.128C184.358 295.962 184.228 295.785 184.12 295.608C184.012 295.42 183.904 295.21 183.786 294.955C182.943 295.973 181.885 296.483 180.611 296.483C179.704 296.483 178.981 296.217 178.451 295.686C177.922 295.154 177.652 294.446 177.652 293.561C177.652 292.62 177.976 291.856 178.635 291.281C179.294 290.705 180.168 290.417 181.281 290.417C181.648 290.417 182.026 290.451 182.425 290.506C182.825 290.561 183.235 290.65 183.667 290.749V289.941C183.667 289.1 183.494 288.514 183.159 288.171C182.814 287.827 182.231 287.661 181.399 287.661C181.021 287.661 180.633 287.706 180.233 287.805C179.834 287.905 179.445 288.027 179.067 288.182C178.894 288.259 178.765 288.303 178.689 288.326C178.613 288.348 178.559 288.359 178.516 288.359C178.365 288.359 178.289 288.248 178.289 288.016V287.473C178.289 287.296 178.311 287.163 178.365 287.086C178.419 287.008 178.516 286.931 178.667 286.854C179.045 286.654 179.499 286.488 180.028 286.355C180.557 286.212 181.119 286.145 181.712 286.145C182.997 286.145 183.937 286.444 184.542 287.042C185.135 287.639 185.438 288.547 185.438 289.764V293.35H185.459ZM181.075 295.033C181.432 295.033 181.799 294.966 182.188 294.833C182.576 294.701 182.922 294.457 183.213 294.125C183.386 293.915 183.516 293.682 183.581 293.417C183.645 293.151 183.689 292.83 183.689 292.454V291.989C183.375 291.912 183.041 291.845 182.695 291.801C182.35 291.757 182.015 291.734 181.68 291.734C180.957 291.734 180.427 291.878 180.071 292.177C179.715 292.476 179.542 292.897 179.542 293.45C179.542 293.97 179.672 294.358 179.942 294.623C180.201 294.9 180.579 295.033 181.075 295.033ZM189.746 296.228C189.552 296.228 189.422 296.195 189.336 296.117C189.25 296.051 189.174 295.896 189.109 295.686L186.572 287.13C186.507 286.909 186.474 286.765 186.474 286.688C186.474 286.51 186.561 286.411 186.734 286.411H187.792C187.997 286.411 188.137 286.444 188.213 286.521C188.299 286.588 188.364 286.743 188.429 286.953L190.243 294.28L191.928 286.953C191.982 286.732 192.046 286.588 192.133 286.521C192.219 286.455 192.37 286.411 192.565 286.411H193.428C193.634 286.411 193.774 286.444 193.86 286.521C193.947 286.588 194.022 286.743 194.066 286.953L195.772 294.369L197.64 286.953C197.705 286.732 197.78 286.588 197.856 286.521C197.942 286.455 198.082 286.411 198.277 286.411H199.281C199.454 286.411 199.551 286.499 199.551 286.688C199.551 286.743 199.54 286.798 199.529 286.865C199.519 286.931 199.497 287.02 199.454 287.141L196.851 295.697C196.787 295.918 196.711 296.062 196.625 296.128C196.538 296.195 196.398 296.239 196.214 296.239H195.286C195.081 296.239 194.94 296.206 194.854 296.128C194.767 296.051 194.692 295.907 194.649 295.686L192.975 288.547L191.312 295.675C191.258 295.896 191.193 296.04 191.107 296.117C191.02 296.195 190.869 296.228 190.675 296.228H189.746ZM203.622 296.527C203.06 296.527 202.499 296.46 201.959 296.328C201.419 296.195 200.998 296.051 200.717 295.885C200.544 295.785 200.426 295.675 200.382 295.575C200.339 295.475 200.318 295.365 200.318 295.265V294.701C200.318 294.468 200.404 294.358 200.566 294.358C200.631 294.358 200.696 294.369 200.76 294.391C200.825 294.413 200.922 294.457 201.03 294.501C201.397 294.667 201.797 294.8 202.218 294.889C202.65 294.977 203.071 295.022 203.503 295.022C204.183 295.022 204.713 294.9 205.08 294.656C205.447 294.413 205.641 294.059 205.641 293.605C205.641 293.295 205.544 293.04 205.35 292.83C205.155 292.62 204.788 292.432 204.259 292.255L202.693 291.757C201.905 291.502 201.322 291.126 200.966 290.628C200.609 290.141 200.426 289.598 200.426 289.023C200.426 288.558 200.523 288.148 200.717 287.794C200.912 287.44 201.171 287.13 201.495 286.887C201.819 286.632 202.186 286.444 202.618 286.311C203.05 286.178 203.503 286.123 203.978 286.123C204.216 286.123 204.464 286.134 204.702 286.167C204.95 286.201 205.177 286.245 205.404 286.289C205.62 286.344 205.825 286.4 206.019 286.466C206.213 286.533 206.365 286.599 206.473 286.665C206.624 286.754 206.732 286.842 206.797 286.942C206.861 287.031 206.894 287.152 206.894 287.307V287.827C206.894 288.06 206.807 288.182 206.645 288.182C206.559 288.182 206.419 288.137 206.235 288.049C205.62 287.761 204.928 287.617 204.162 287.617C203.546 287.617 203.06 287.717 202.726 287.927C202.391 288.137 202.218 288.458 202.218 288.912C202.218 289.222 202.326 289.488 202.542 289.698C202.758 289.908 203.158 290.119 203.73 290.307L205.263 290.805C206.041 291.059 206.602 291.413 206.937 291.867C207.272 292.321 207.434 292.841 207.434 293.417C207.434 293.893 207.336 294.324 207.153 294.701C206.959 295.077 206.699 295.409 206.365 295.675C206.03 295.951 205.63 296.151 205.166 296.294C204.68 296.449 204.173 296.527 203.622 296.527Z" fill="white"/>
<path fill-rule="evenodd" clip-rule="evenodd" d="M205.663 301.93C202.111 304.619 196.949 306.047 192.511 306.047C186.292 306.047 180.687 303.689 176.454 299.771C176.12 299.462 176.422 299.041 176.822 299.284C181.4 302.007 187.047 303.656 192.889 303.656C196.831 303.656 201.161 302.815 205.145 301.089C205.739 300.812 206.247 301.487 205.663 301.93Z" fill="white"/>
<path fill-rule="evenodd" clip-rule="evenodd" d="M207.142 300.197C206.688 299.599 204.14 299.909 202.984 300.053C202.639 300.097 202.585 299.787 202.898 299.555C204.928 298.094 208.265 298.515 208.653 299.002C209.042 299.5 208.545 302.92 206.645 304.558C206.353 304.812 206.073 304.679 206.202 304.347C206.634 303.252 207.595 300.783 207.142 300.197Z" fill="white"/>
</g>
<rect x="293.159" y="68.436" width="47.128" height="47.128" rx="7.564" fill="url(#paint9_linear_8559_7586)"/>
<rect x="293.159" y="68.436" width="47.128" height="47.128" rx="7.564" stroke="url(#paint10_linear_8559_7586)" stroke-width="0.872003"/>
<path fill-rule="evenodd" clip-rule="evenodd" d="M304.764 83.7344C304.139 83.7344 303.633 84.241 303.633 84.8659V89.8094C303.633 90.4343 304.139 90.9409 304.764 90.9409H327.859C328.484 90.9409 328.991 90.4343 328.991 89.8094V84.8659C328.991 84.241 328.484 83.7344 327.859 83.7344H304.764ZM326.394 87.3401C326.394 88.1512 325.736 88.8086 324.925 88.8086C324.114 88.8086 323.457 88.1512 323.457 87.3401C323.457 86.5291 324.114 85.8716 324.925 85.8716C325.736 85.8716 326.394 86.5291 326.394 87.3401ZM305.611 87.3397C305.611 87.0272 305.864 86.774 306.176 86.774H312.808C313.121 86.774 313.374 87.0272 313.374 87.3397C313.374 87.6521 313.121 87.9054 312.808 87.9054H306.176C305.864 87.9054 305.611 87.6521 305.611 87.3397Z" fill="white"/>
<path fill-rule="evenodd" clip-rule="evenodd" d="M304.764 93.2039C304.139 93.2039 303.633 93.7104 303.633 94.3353V99.2789C303.633 99.9038 304.139 100.41 304.764 100.41H327.859C328.484 100.41 328.991 99.9038 328.991 99.2789V94.3353C328.991 93.7104 328.484 93.2039 327.859 93.2039H304.764ZM326.394 96.8064C326.394 97.6175 325.736 98.2749 324.925 98.2749C324.114 98.2749 323.457 97.6175 323.457 96.8064C323.457 95.9954 324.114 95.3379 324.925 95.3379C325.736 95.3379 326.394 95.9954 326.394 96.8064ZM305.611 96.806C305.611 96.4935 305.864 96.2403 306.176 96.2403H312.808C313.121 96.2403 313.374 96.4935 313.374 96.806C313.374 97.1184 313.121 97.3717 312.808 97.3717H306.176C305.864 97.3717 305.611 97.1184 305.611 96.806Z" fill="white"/>
<rect x="48.7563" y="68.436" width="47.128" height="47.128" rx="7.564" fill="url(#paint11_linear_8559_7586)"/>
<rect x="48.7563" y="68.436" width="47.128" height="47.128" rx="7.564" stroke="url(#paint12_linear_8559_7586)" stroke-width="0.872003"/>
<path fill-rule="evenodd" clip-rule="evenodd" d="M60.3619 83.7344C59.737 83.7344 59.2305 84.241 59.2305 84.8659V89.8094C59.2305 90.4343 59.737 90.9409 60.3619 90.9409H83.457C84.0819 90.9409 84.5884 90.4343 84.5884 89.8094V84.8659C84.5884 84.241 84.0819 83.7344 83.457 83.7344H60.3619ZM81.9912 87.3401C81.9912 88.1512 81.3337 88.8086 80.5227 88.8086C79.7117 88.8086 79.0542 88.1512 79.0542 87.3401C79.0542 86.5291 79.7117 85.8716 80.5227 85.8716C81.3337 85.8716 81.9912 86.5291 81.9912 87.3401ZM61.2082 87.3397C61.2082 87.0272 61.4615 86.774 61.7739 86.774H68.4059C68.7184 86.774 68.9716 87.0272 68.9716 87.3397C68.9716 87.6521 68.7184 87.9054 68.4059 87.9054H61.7739C61.4615 87.9054 61.2082 87.6521 61.2082 87.3397Z" fill="white"/>
<path fill-rule="evenodd" clip-rule="evenodd" d="M60.3619 93.2039C59.737 93.2039 59.2305 93.7104 59.2305 94.3353V99.2789C59.2305 99.9038 59.737 100.41 60.3619 100.41H83.457C84.0819 100.41 84.5884 99.9038 84.5884 99.2789V94.3353C84.5884 93.7104 84.0819 93.2039 83.457 93.2039H60.3619ZM81.9912 96.8064C81.9912 97.6175 81.3337 98.2749 80.5227 98.2749C79.7117 98.2749 79.0542 97.6175 79.0542 96.8064C79.0542 95.9954 79.7117 95.3379 80.5227 95.3379C81.3337 95.3379 81.9912 95.9954 81.9912 96.8064ZM61.2082 96.806C61.2082 96.4935 61.4615 96.2403 61.7739 96.2403H68.4059C68.7184 96.2403 68.9716 96.4935 68.9716 96.806C68.9716 97.1184 68.7184 97.3717 68.4059 97.3717H61.7739C61.4615 97.3717 61.2082 97.1184 61.2082 96.806Z" fill="white"/>
<defs>
<filter id="filter0_f_8559_7586" x="116.721" y="75.9581" width="152.843" height="171.313" filterUnits="userSpaceOnUse" color-interpolation-filters="sRGB">
<feFlood flood-opacity="0" result="BackgroundImageFix"/>
<feBlend mode="normal" in="SourceGraphic" in2="BackgroundImageFix" result="shape"/>
<feGaussianBlur stdDeviation="3.13557" result="effect1_foregroundBlur_8559_7586"/>
</filter>
<filter id="filter1_i_8559_7586" x="130.238" y="84.0713" width="125.809" height="145.668" filterUnits="userSpaceOnUse" color-interpolation-filters="sRGB">
<feFlood flood-opacity="0" result="BackgroundImageFix"/>
<feBlend mode="normal" in="SourceGraphic" in2="BackgroundImageFix" result="shape"/>
<feColorMatrix in="SourceAlpha" type="matrix" values="0 0 0 0 0 0 0 0 0 0 0 0 0 0 0 0 0 0 127 0" result="hardAlpha"/>
<feOffset dy="1.04519"/>
<feGaussianBlur stdDeviation="1.04519"/>
<feComposite in2="hardAlpha" operator="arithmetic" k2="-1" k3="1"/>
<feColorMatrix type="matrix" values="0 0 0 0 0 0 0 0 0 0 0 0 0 0 0 0 0 0 1 0"/>
<feBlend mode="normal" in2="shape" result="effect1_innerShadow_8559_7586"/>
</filter>
<filter id="filter2_i_8559_7586" x="140.477" y="94.545" width="105.332" height="124.723" filterUnits="userSpaceOnUse" color-interpolation-filters="sRGB">
<feFlood flood-opacity="0" result="BackgroundImageFix"/>
<feBlend mode="normal" in="SourceGraphic" in2="BackgroundImageFix" result="shape"/>
<feColorMatrix in="SourceAlpha" type="matrix" values="0 0 0 0 0 0 0 0 0 0 0 0 0 0 0 0 0 0 127 0" result="hardAlpha"/>
<feOffset dy="1.04519"/>
<feGaussianBlur stdDeviation="1.04519"/>
<feComposite in2="hardAlpha" operator="arithmetic" k2="-1" k3="1"/>
<feColorMatrix type="matrix" values="0 0 0 0 0 0 0 0 0 0 0 0 0 0 0 0 0 0 1 0"/>
<feBlend mode="normal" in2="shape" result="effect1_innerShadow_8559_7586"/>
</filter>
<filter id="filter3_i_8559_7586" x="139.295" y="94.5361" width="107.695" height="124.75" filterUnits="userSpaceOnUse" color-interpolation-filters="sRGB">
<feFlood flood-opacity="0" result="BackgroundImageFix"/>
<feBlend mode="normal" in="SourceGraphic" in2="BackgroundImageFix" result="shape"/>
<feColorMatrix in="SourceAlpha" type="matrix" values="0 0 0 0 0 0 0 0 0 0 0 0 0 0 0 0 0 0 127 0" result="hardAlpha"/>
<feOffset dy="1.04519"/>
<feGaussianBlur stdDeviation="1.04519"/>
<feComposite in2="hardAlpha" operator="arithmetic" k2="-1" k3="1"/>
<feColorMatrix type="matrix" values="0 0 0 0 0 0 0 0 0 0 0 0 0 0 0 0 0 0 1 0"/>
<feBlend mode="normal" in2="shape" result="effect1_innerShadow_8559_7586"/>
</filter>
<linearGradient id="paint0_linear_8559_7586" x1="193" y1="223.383" x2="193" y2="326" gradientUnits="userSpaceOnUse">
<stop stop-color="#161C20" stop-opacity="0"/>
<stop offset="1" stop-color="#0E1114"/>
</linearGradient>
<linearGradient id="paint1_linear_8559_7586" x1="193.142" y1="156.335" x2="193.142" y2="237.391" gradientUnits="userSpaceOnUse">
<stop stop-color="#3B3D3F" stop-opacity="0.5"/>
<stop offset="1" stop-color="#3B3D3F" stop-opacity="0.89"/>
</linearGradient>
<linearGradient id="paint2_linear_8559_7586" x1="193.12" y1="83.0602" x2="193.178" y2="229.017" gradientUnits="userSpaceOnUse">
<stop stop-color="#1E1E1F" stop-opacity="0"/>
<stop offset="1" stop-color="#1E1E1F" stop-opacity="0.8"/>
</linearGradient>
<linearGradient id="paint3_linear_8559_7586" x1="193.142" y1="88.9742" x2="193.142" y2="223.794" gradientUnits="userSpaceOnUse">
<stop stop-color="#3B3D3F" stop-opacity="0.5"/>
<stop offset="1" stop-color="#3B3D3F" stop-opacity="0.8"/>
</linearGradient>
<linearGradient id="paint4_linear_8559_7586" x1="193.124" y1="93.6193" x2="193.175" y2="218.56" gradientUnits="userSpaceOnUse">
<stop stop-color="#1E1E1F" stop-opacity="0"/>
<stop offset="1" stop-color="#1E1E1F" stop-opacity="0.8"/>
</linearGradient>
<linearGradient id="paint5_linear_8559_7586" x1="193.124" y1="93.624" x2="193.173" y2="218.564" gradientUnits="userSpaceOnUse">
<stop stop-color="#1E1E1F" stop-opacity="0"/>
<stop offset="1" stop-color="#1E1E1F" stop-opacity="0.8"/>
</linearGradient>
<linearGradient id="paint6_linear_8559_7586" x1="193.64" y1="99.6766" x2="193.64" y2="213.544" gradientUnits="userSpaceOnUse">
<stop stop-color="#3B3D3F" stop-opacity="0.2"/>
<stop offset="1" stop-color="#3B3D3F" stop-opacity="0.4"/>
</linearGradient>
<linearGradient id="paint7_linear_8559_7586" x1="193.129" y1="265" x2="193.129" y2="314" gradientUnits="userSpaceOnUse">
<stop stop-color="#161C20"/>
<stop offset="1" stop-color="#0A0D0F"/>
</linearGradient>
<linearGradient id="paint8_linear_8559_7586" x1="193.129" y1="289.484" x2="193.129" y2="314" gradientUnits="userSpaceOnUse">
<stop stop-color="#3B3D3F" stop-opacity="0.5"/>
<stop offset="1" stop-color="#3B3D3F" stop-opacity="0.89"/>
</linearGradient>
<linearGradient id="paint9_linear_8559_7586" x1="316.723" y1="68" x2="316.723" y2="116" gradientUnits="userSpaceOnUse">
<stop stop-color="#161C20"/>
<stop offset="1" stop-color="#0A0D0F"/>
</linearGradient>
<linearGradient id="paint10_linear_8559_7586" x1="316.723" y1="91.9839" x2="316.723" y2="116" gradientUnits="userSpaceOnUse">
<stop stop-color="#3B3D3F" stop-opacity="0.5"/>
<stop offset="1" stop-color="#3B3D3F" stop-opacity="0.89"/>
</linearGradient>
<linearGradient id="paint11_linear_8559_7586" x1="72.3203" y1="68" x2="72.3203" y2="116" gradientUnits="userSpaceOnUse">
<stop stop-color="#161C20"/>
<stop offset="1" stop-color="#0A0D0F"/>
</linearGradient>
<linearGradient id="paint12_linear_8559_7586" x1="72.3203" y1="91.9839" x2="72.3203" y2="116" gradientUnits="userSpaceOnUse">
<stop stop-color="#3B3D3F" stop-opacity="0.5"/>
<stop offset="1" stop-color="#3B3D3F" stop-opacity="0.89"/>
</linearGradient>
<clipPath id="clip0_8559_7586">
<rect width="390" height="247" fill="white" transform="translate(-5.47266 -3.5)"/>
</clipPath>
<clipPath id="clip1_8559_7586">
<rect width="32.8264" height="20.1435" fill="white" transform="translate(176.129 286)"/>
</clipPath>
</defs>
</svg>
