<svg width="1920" height="819" viewBox="0 0 1920 819" fill="none" xmlns="http://www.w3.org/2000/svg">
<path opacity="0.4" fill-rule="evenodd" clip-rule="evenodd" d="M1381.49 273.273C1471.87 326.761 1577.01 343.362 1678.45 324.917C1879.5 299.095 2025.2 518.583 1921.92 693.812C1822.31 870.877 1558.56 852.432 1481.09 666.14C1298.49 193.96 623.415 193.96 438.971 666.14C363.348 852.432 97.7455 870.877 -1.85546 693.812C-103.301 518.583 42.4114 299.095 241.613 324.917C343.059 343.362 448.193 324.917 538.573 273.273C630.792 221.627 697.193 140.471 732.242 42.7144C813.398 -158.332 1106.66 -158.332 1187.82 42.7144C1222.87 138.626 1291.11 221.627 1381.49 273.273ZM960.955 527.809C1162 527.809 1280.05 762.056 1156.47 924.367C1090.07 1001.84 1053.18 1101.43 1053.18 1206.57C1053.18 1309.86 1090.07 1409.46 1156.47 1488.77C1281.89 1651.08 1162 1887.18 960.955 1885.33C759.908 1885.33 641.861 1651.08 765.443 1488.77C831.844 1411.31 868.73 1311.7 868.73 1206.57C868.73 1103.28 831.844 1003.68 765.443 924.367C640.018 762.056 759.908 525.966 960.955 527.809Z" fill="url(#paint0_linear_8566_82204)"/>
<defs>
<linearGradient id="paint0_linear_8566_82204" x1="960.515" y1="-108.07" x2="960.515" y2="1885.34" gradientUnits="userSpaceOnUse">
<stop stop-color="#155BC4"/>
<stop offset="0.651099" stop-color="#155BC4" stop-opacity="0"/>
</linearGradient>
</defs>
</svg>
