<svg width="227" height="191" viewBox="0 0 227 191" fill="none" xmlns="http://www.w3.org/2000/svg">
<mask id="mask0_8566_89471" style="mask-type:alpha" maskUnits="userSpaceOnUse" x="-1" y="-2" width="228" height="191">
<rect x="-0.834229" y="-1.92969" width="227.829" height="190.335" fill="url(#paint0_linear_8566_89471)"/>
</mask>
<g mask="url(#mask0_8566_89471)">
<path d="M21.5881 -2.59375V173.226" stroke="#181E22" stroke-width="0.59"/>
<path d="M52.8581 -2.59375V173.226" stroke="#181E22" stroke-width="0.59"/>
<path d="M84.1281 -2.59375V173.226" stroke="#181E22" stroke-width="0.59"/>
<path d="M115.398 -2.59375V173.226" stroke="#181E22" stroke-width="0.59"/>
<path d="M146.668 -2.59375V173.226" stroke="#181E22" stroke-width="0.59"/>
<path d="M177.938 -2.59375V173.226" stroke="#181E22" stroke-width="0.59"/>
<path d="M209.208 -2.59375V173.226" stroke="#181E22" stroke-width="0.59"/>
<rect x="-3.12618" y="0.639687" width="229.805" height="0.295" fill="#2E2E38" stroke="#181E22" stroke-width="0.295"/>
<rect x="-3.12618" y="17.75" width="229.805" height="0.295" fill="#2E2E38" stroke="#181E22" stroke-width="0.295"/>
<rect x="-3.12618" y="34.8594" width="229.805" height="0.295" fill="#2E2E38" stroke="#181E22" stroke-width="0.295"/>
<rect x="-3.12618" y="51.9698" width="229.805" height="0.295" fill="#2E2E38" stroke="#181E22" stroke-width="0.295"/>
<rect x="-3.12618" y="69.0801" width="229.805" height="0.295" fill="#2E2E38" stroke="#181E22" stroke-width="0.295"/>
<rect x="-3.12618" y="86.1895" width="229.805" height="0.295" fill="#2E2E38" stroke="#181E22" stroke-width="0.295"/>
<rect x="-3.12618" y="103.3" width="229.805" height="0.295" fill="#2E2E38" stroke="#181E22" stroke-width="0.295"/>
<rect x="-3.12618" y="120.409" width="229.805" height="0.295" fill="#2E2E38" stroke="#181E22" stroke-width="0.295"/>
<rect x="-3.12618" y="137.52" width="229.805" height="0.295" fill="#2E2E38" stroke="#181E22" stroke-width="0.295"/>
<rect x="-3.12618" y="154.63" width="229.805" height="0.295" fill="#2E2E38" stroke="#181E22" stroke-width="0.295"/>
<path d="M-9.15036 91.7391C-9.31028 91.7079 -9.41469 91.5531 -9.38356 91.3931C-9.35243 91.2332 -9.19755 91.1288 -9.03763 91.1599L-9.15036 91.7391ZM22.2809 97.5566L22.3848 97.8327L22.3065 97.8621L22.2245 97.8461L22.2809 97.5566ZM52.856 86.0516L52.7521 85.7755L52.8872 85.7246L53.0102 85.8001L52.856 86.0516ZM84.126 105.227L84.3645 105.4L84.2041 105.621L83.9718 105.478L84.126 105.227ZM115.691 61.8616L115.452 61.688L115.657 61.4068L115.901 61.6546L115.691 61.8616ZM147.361 94.0167V94.3117H147.237L147.151 94.2237L147.361 94.0167ZM177.641 94.0167L177.895 94.1664L177.81 94.3117H177.641V94.0167ZM208.911 40.9166L208.657 40.7669L208.729 40.6435L208.871 40.6243L208.911 40.9166ZM-9.03763 91.1599L22.3372 97.267L22.2245 97.8461L-9.15036 91.7391L-9.03763 91.1599ZM22.177 97.2805L52.7521 85.7755L52.9599 86.3277L22.3848 97.8327L22.177 97.2805ZM53.0102 85.8001L84.2802 104.975L83.9718 105.478L52.7018 86.303L53.0102 85.8001ZM83.8875 105.053L115.452 61.688L115.93 62.0352L84.3645 105.4L83.8875 105.053ZM115.901 61.6546L147.571 93.8097L147.151 94.2237L115.481 62.0686L115.901 61.6546ZM147.361 93.7217H177.641V94.3117H147.361V93.7217ZM177.387 93.867L208.657 40.7669L209.165 41.0663L177.895 94.1664L177.387 93.867ZM208.871 40.6243L232.766 37.3792L232.846 37.9639L208.951 41.2089L208.871 40.6243Z" fill="url(#paint1_linear_8566_89471)"/>
<circle cx="84.1251" cy="105.227" r="1.18" fill="#3B3D3F"/>
<circle cx="115.397" cy="62.1566" r="1.18" fill="#3B3D3F"/>
<circle cx="52.8555" cy="86.3441" r="1.18" fill="#3B3D3F"/>
<circle cx="21.586" cy="97.555" r="1.18" fill="#3B3D3F"/>
<circle cx="84.1251" cy="154.789" r="1.18" fill="#3B3D3F"/>
<circle opacity="0.5" cx="146.666" cy="19.0863" r="1.18" fill="#3B3D3F"/>
<circle opacity="0.5" cx="177.936" cy="155.375" r="1.18" fill="#3B3D3F"/>
<circle cx="146.666" cy="93.43" r="1.18" fill="#3B3D3F"/>
<circle cx="177.936" cy="93.43" r="1.18" fill="#3B3D3F"/>
<path d="M-5.61398 154.498C-5.77361 154.53 -5.87657 154.686 -5.84396 154.846C-5.81135 155.005 -5.65551 155.108 -5.49588 155.076L-5.61398 154.498ZM21.8801 149.182L21.9391 149.471L21.9617 149.466L21.9834 149.458L21.8801 149.182ZM85.0101 85.7566L85.1604 85.5027L84.9101 85.3545L84.7584 85.6027L85.0101 85.7566ZM115.395 103.752L115.245 104.005L115.454 104.129L115.616 103.948L115.395 103.752ZM146.075 69.2366L145.99 68.954L145.91 68.978L145.855 69.0406L146.075 69.2366ZM178.525 59.5016L178.61 59.7841L178.645 59.7736L178.676 59.755L178.525 59.5016ZM209.205 41.2116L209.356 41.465L209.375 41.4538L209.392 41.44L209.205 41.2116ZM53.4451 137.382L53.5484 137.658L53.6437 137.622L53.6968 137.535L53.4451 137.382ZM-5.49588 155.076L21.9391 149.471L21.821 148.893L-5.61398 154.498L-5.49588 155.076ZM84.8597 86.0104L115.245 104.005L115.545 103.498L85.1604 85.5027L84.8597 86.0104ZM115.616 103.948L146.296 69.4325L145.855 69.0406L115.175 103.556L115.616 103.948ZM146.16 69.5191L178.61 59.7841L178.44 59.219L145.99 68.954L146.16 69.5191ZM178.676 59.755L209.356 41.465L209.054 40.9582L178.374 59.2482L178.676 59.755ZM21.9834 149.458L53.5484 137.658L53.3418 137.105L21.7768 148.905L21.9834 149.458ZM53.6968 137.535L85.2618 85.9104L84.7584 85.6027L53.1934 137.228L53.6968 137.535ZM209.392 41.44L230.337 24.33L229.963 23.8731L209.018 40.9831L209.392 41.44Z" fill="url(#paint2_linear_8566_89471)"/>
<circle cx="85.3048" cy="85.7581" r="1.18" fill="#3B3D3F"/>
<circle cx="115.395" cy="103.453" r="1.18" fill="#3B3D3F"/>
<circle cx="52.8555" cy="137.68" r="1.18" fill="#3B3D3F"/>
<circle cx="22.1758" cy="148.883" r="1.18" fill="#3B3D3F"/>
<circle cx="146.664" cy="69.2347" r="1.18" fill="#3B3D3F"/>
<circle cx="177.936" cy="59.7972" r="1.18" fill="#3B3D3F"/>
<circle cx="209.205" cy="40.9144" r="1.18" fill="#3B3D3F"/>
</g>
<g filter="url(#filter0_f_8566_89471)">
<ellipse cx="112.84" cy="95.7607" rx="43.1191" ry="41.5575" fill="#0A0D0F"/>
</g>
<rect x="67.1151" y="43.5606" width="90.9951" height="90.9951" rx="45.4976" fill="#0A0D0F" stroke="url(#paint3_linear_8566_89471)" stroke-width="0.59"/>
<g filter="url(#filter1_i_8566_89471)">
<rect x="71.5408" y="47.9844" width="82.01" height="82.01" rx="41.005" fill="#060809"/>
</g>
<rect x="71.8358" y="48.2794" width="81.42" height="81.42" rx="40.71" stroke="url(#paint4_linear_8566_89471)" stroke-width="0.59"/>
<rect x="74.785" y="51.2325" width="75.52" height="75.52" rx="37.76" fill="#0A0D0F" stroke="url(#paint5_linear_8566_89471)" stroke-width="0.59"/>
<g filter="url(#filter2_i_8566_89471)">
<rect x="77.4392" y="53.8828" width="70.21" height="70.21" rx="35.105" fill="#060809"/>
</g>
<rect x="77.7342" y="54.1778" width="69.62" height="69.62" rx="34.81" stroke="url(#paint6_linear_8566_89471)" stroke-width="0.59"/>
<rect x="80.6854" y="57.1309" width="63.13" height="63.72" rx="31.565" fill="#0A0D0F" stroke="url(#paint7_linear_8566_89471)" stroke-width="0.59"/>
<rect x="98.8376" y="76.3047" width="26.8254" height="25.3766" rx="3.54" fill="#FF5500"/>
<rect x="103.826" y="81.0244" width="2.36" height="15.9366" rx="1.18" fill="#0A0D0F"/>
<circle cx="105.006" cy="85.898" r="2.03878" fill="#FF5500" stroke="#0A0D0F" stroke-width="1.18"/>
<rect x="111.07" y="81.0244" width="2.36" height="15.9366" rx="1.18" fill="#0A0D0F"/>
<circle cx="112.25" cy="91.2076" r="2.03878" fill="#FF5500" stroke="#0A0D0F" stroke-width="1.18"/>
<rect x="118.314" y="81.0244" width="2.36" height="15.9366" rx="1.18" fill="#0A0D0F"/>
<circle cx="119.494" cy="88.9908" r="2.03878" fill="#FF5500" stroke="#0A0D0F" stroke-width="1.18"/>
<rect x="169.261" y="135.109" width="27.8055" height="27.8055" rx="4.46276" fill="url(#paint8_linear_8566_89471)"/>
<rect x="169.261" y="135.109" width="27.8055" height="27.8055" rx="4.46276" stroke="url(#paint9_linear_8566_89471)" stroke-width="0.514482"/>
<path d="M185.89 148.367C185.89 148.928 185.724 149.477 185.412 149.944C185.1 150.411 184.656 150.775 184.137 150.99C183.619 151.205 183.048 151.261 182.497 151.152C181.946 151.042 181.44 150.772 181.043 150.375C180.646 149.978 180.376 149.472 180.266 148.921C180.156 148.37 180.213 147.799 180.428 147.28C180.643 146.761 181.006 146.318 181.473 146.006C181.94 145.694 182.489 145.528 183.051 145.528C183.804 145.528 184.525 145.828 185.058 146.36C185.59 146.892 185.889 147.614 185.89 148.367ZM189.762 148.883C189.762 150.21 189.368 151.508 188.631 152.612C187.894 153.715 186.845 154.576 185.619 155.084C184.393 155.591 183.043 155.724 181.742 155.465C180.44 155.206 179.244 154.567 178.305 153.629C177.367 152.69 176.728 151.494 176.469 150.192C176.21 148.891 176.343 147.541 176.85 146.315C177.358 145.089 178.219 144.04 179.322 143.303C180.426 142.565 181.723 142.172 183.051 142.172C184.83 142.174 186.536 142.881 187.794 144.14C189.053 145.398 189.76 147.104 189.762 148.883ZM188.73 148.883C188.729 148.119 188.574 147.362 188.274 146.659C187.974 145.956 187.536 145.321 186.985 144.791C186.434 144.261 185.781 143.848 185.067 143.576C184.353 143.305 183.591 143.18 182.827 143.209C179.788 143.326 177.364 145.858 177.372 148.899C177.375 150.284 177.886 151.619 178.807 152.652C179.183 152.108 179.659 151.641 180.211 151.277C180.259 151.246 180.315 151.231 180.371 151.235C180.427 151.239 180.481 151.261 180.523 151.298C181.225 151.905 182.121 152.239 183.049 152.239C183.977 152.239 184.873 151.905 185.575 151.298C185.617 151.261 185.671 151.239 185.727 151.235C185.783 151.231 185.839 151.246 185.886 151.277C186.439 151.641 186.917 152.108 187.292 152.652C188.219 151.615 188.73 150.274 188.73 148.883Z" fill="white"/>
<rect x="24.7941" y="37.9213" width="27.8055" height="27.8055" rx="4.46276" fill="url(#paint10_linear_8566_89471)"/>
<rect x="24.7941" y="37.9213" width="27.8055" height="27.8055" rx="4.46276" stroke="url(#paint11_linear_8566_89471)" stroke-width="0.514482"/>
<path d="M45.4105 56.8575C45.4105 56.9944 45.3561 57.1257 45.2593 57.2225C45.1625 57.3194 45.0312 57.3738 44.8943 57.3738H32.5043C32.3674 57.3738 32.2361 57.3194 32.1392 57.2225C32.0424 57.1257 31.988 56.9944 31.988 56.8575C31.988 56.7206 32.0424 56.5893 32.1392 56.4925C32.2361 56.3956 32.3674 56.3413 32.5043 56.3413H33.0205V52.2113C33.0205 52.0743 33.0749 51.943 33.1717 51.8462C33.2686 51.7494 33.3999 51.695 33.5368 51.695H35.0855C35.2225 51.695 35.3538 51.7494 35.4506 51.8462C35.5474 51.943 35.6018 52.0743 35.6018 52.2113V56.3413H36.6343V49.1137C36.6343 48.9768 36.6887 48.8455 36.7855 48.7487C36.8823 48.6519 37.0136 48.5975 37.1505 48.5975H39.2155C39.3525 48.5975 39.4838 48.6519 39.5806 48.7487C39.6774 48.8455 39.7318 48.9768 39.7318 49.1137V56.3413H40.7643V46.0163C40.7643 45.8793 40.8187 45.748 40.9155 45.6512C41.0123 45.5544 41.1436 45.5 41.2805 45.5H43.8618C43.9987 45.5 44.13 45.5544 44.2268 45.6512C44.3236 45.748 44.378 45.8793 44.378 46.0163V56.3413H44.8943C45.0312 56.3413 45.1625 56.3956 45.2593 56.4925C45.3561 56.5893 45.4105 56.7206 45.4105 56.8575Z" fill="white"/>
<defs>
<filter id="filter0_f_8566_89471" x="66.1805" y="50.6631" width="93.3183" height="90.1952" filterUnits="userSpaceOnUse" color-interpolation-filters="sRGB">
<feFlood flood-opacity="0" result="BackgroundImageFix"/>
<feBlend mode="normal" in="SourceGraphic" in2="BackgroundImageFix" result="shape"/>
<feGaussianBlur stdDeviation="1.77" result="effect1_foregroundBlur_8566_89471"/>
</filter>
<filter id="filter1_i_8566_89471" x="71.5408" y="47.9844" width="82.01" height="82.5998" filterUnits="userSpaceOnUse" color-interpolation-filters="sRGB">
<feFlood flood-opacity="0" result="BackgroundImageFix"/>
<feBlend mode="normal" in="SourceGraphic" in2="BackgroundImageFix" result="shape"/>
<feColorMatrix in="SourceAlpha" type="matrix" values="0 0 0 0 0 0 0 0 0 0 0 0 0 0 0 0 0 0 127 0" result="hardAlpha"/>
<feOffset dy="0.59"/>
<feGaussianBlur stdDeviation="0.59"/>
<feComposite in2="hardAlpha" operator="arithmetic" k2="-1" k3="1"/>
<feColorMatrix type="matrix" values="0 0 0 0 0 0 0 0 0 0 0 0 0 0 0 0 0 0 1 0"/>
<feBlend mode="normal" in2="shape" result="effect1_innerShadow_8566_89471"/>
</filter>
<filter id="filter2_i_8566_89471" x="77.4392" y="53.8828" width="70.21" height="70.8" filterUnits="userSpaceOnUse" color-interpolation-filters="sRGB">
<feFlood flood-opacity="0" result="BackgroundImageFix"/>
<feBlend mode="normal" in="SourceGraphic" in2="BackgroundImageFix" result="shape"/>
<feColorMatrix in="SourceAlpha" type="matrix" values="0 0 0 0 0 0 0 0 0 0 0 0 0 0 0 0 0 0 127 0" result="hardAlpha"/>
<feOffset dy="0.59"/>
<feGaussianBlur stdDeviation="0.59"/>
<feComposite in2="hardAlpha" operator="arithmetic" k2="-1" k3="1"/>
<feColorMatrix type="matrix" values="0 0 0 0 0 0 0 0 0 0 0 0 0 0 0 0 0 0 1 0"/>
<feBlend mode="normal" in2="shape" result="effect1_innerShadow_8566_89471"/>
</filter>
<linearGradient id="paint0_linear_8566_89471" x1="113.08" y1="-1.92969" x2="113.08" y2="188.405" gradientUnits="userSpaceOnUse">
<stop offset="0.481106" stop-color="#737373"/>
<stop offset="1" stop-color="#737373" stop-opacity="0"/>
</linearGradient>
<linearGradient id="paint1_linear_8566_89471" x1="224.822" y1="71.5432" x2="-5.84106" y2="71.5432" gradientUnits="userSpaceOnUse">
<stop stop-color="#3B3D3F" stop-opacity="0"/>
<stop offset="0.5" stop-color="#3B3D3F"/>
<stop offset="1" stop-color="#3B3D3F" stop-opacity="0"/>
</linearGradient>
<linearGradient id="paint2_linear_8566_89471" x1="227.79" y1="101.687" x2="-2.30993" y2="101.687" gradientUnits="userSpaceOnUse">
<stop stop-color="#3B3D3F" stop-opacity="0"/>
<stop offset="0.5" stop-color="#3B3D3F"/>
<stop offset="1" stop-color="#3B3D3F" stop-opacity="0"/>
</linearGradient>
<linearGradient id="paint3_linear_8566_89471" x1="112.613" y1="89.0275" x2="112.613" y2="134.851" gradientUnits="userSpaceOnUse">
<stop stop-color="#3B3D3F" stop-opacity="0.5"/>
<stop offset="1" stop-color="#3B3D3F" stop-opacity="0.89"/>
</linearGradient>
<linearGradient id="paint4_linear_8566_89471" x1="112.533" y1="47.5961" x2="112.566" y2="129.994" gradientUnits="userSpaceOnUse">
<stop stop-color="#1E1E1F" stop-opacity="0"/>
<stop offset="1" stop-color="#1E1E1F" stop-opacity="0.8"/>
</linearGradient>
<linearGradient id="paint5_linear_8566_89471" x1="112.545" y1="50.9375" x2="112.545" y2="127.048" gradientUnits="userSpaceOnUse">
<stop stop-color="#3B3D3F" stop-opacity="0.5"/>
<stop offset="1" stop-color="#3B3D3F" stop-opacity="0.8"/>
</linearGradient>
<linearGradient id="paint6_linear_8566_89471" x1="112.534" y1="53.5504" x2="112.561" y2="124.093" gradientUnits="userSpaceOnUse">
<stop stop-color="#1E1E1F" stop-opacity="0"/>
<stop offset="1" stop-color="#1E1E1F" stop-opacity="0.8"/>
</linearGradient>
<linearGradient id="paint7_linear_8566_89471" x1="112.25" y1="56.8359" x2="112.25" y2="121.146" gradientUnits="userSpaceOnUse">
<stop stop-color="#3B3D3F" stop-opacity="0.2"/>
<stop offset="1" stop-color="#3B3D3F" stop-opacity="0.4"/>
</linearGradient>
<linearGradient id="paint8_linear_8566_89471" x1="183.164" y1="134.852" x2="183.164" y2="163.172" gradientUnits="userSpaceOnUse">
<stop stop-color="#161C20"/>
<stop offset="1" stop-color="#0A0D0F"/>
</linearGradient>
<linearGradient id="paint9_linear_8566_89471" x1="183.164" y1="149.002" x2="183.164" y2="163.172" gradientUnits="userSpaceOnUse">
<stop stop-color="#3B3D3F" stop-opacity="0.5"/>
<stop offset="1" stop-color="#3B3D3F" stop-opacity="0.89"/>
</linearGradient>
<linearGradient id="paint10_linear_8566_89471" x1="38.6969" y1="37.6641" x2="38.6969" y2="65.9841" gradientUnits="userSpaceOnUse">
<stop stop-color="#161C20"/>
<stop offset="1" stop-color="#0A0D0F"/>
</linearGradient>
<linearGradient id="paint11_linear_8566_89471" x1="38.6969" y1="51.8146" x2="38.6969" y2="65.9841" gradientUnits="userSpaceOnUse">
<stop stop-color="#3B3D3F" stop-opacity="0.5"/>
<stop offset="1" stop-color="#3B3D3F" stop-opacity="0.89"/>
</linearGradient>
</defs>
</svg>
