<svg width="375" height="1672" viewBox="0 0 375 1672" fill="none" xmlns="http://www.w3.org/2000/svg">
<path opacity="0.4" fill-rule="evenodd" clip-rule="evenodd" d="M609.488 273.273C699.869 326.761 805.005 343.362 906.45 324.917C1107.5 299.095 1253.2 518.583 1149.92 693.812C1050.31 870.877 786.559 852.432 709.089 666.14C526.489 193.96 -148.585 193.96 -333.029 666.14C-408.652 852.432 -674.255 870.877 -773.855 693.812C-875.301 518.583 -729.589 299.095 -530.387 324.917C-428.941 343.362 -323.807 324.917 -233.427 273.273C-141.208 221.627 -74.8068 140.471 -39.7577 42.7144C41.3979 -158.332 334.663 -158.332 415.824 42.7144C450.868 138.626 519.112 221.627 609.488 273.273ZM188.955 527.809C390.001 527.809 508.048 762.056 384.467 924.367C318.065 1001.84 281.179 1101.43 281.179 1206.57C281.179 1309.86 318.065 1409.46 384.467 1488.77C509.891 1651.08 390.001 1887.18 188.955 1885.33C-12.0916 1885.33 -130.139 1651.08 -6.55719 1488.77C59.8439 1411.31 96.7303 1311.7 96.7303 1206.57C96.7303 1103.28 59.8439 1003.68 -6.55719 924.367C-131.982 762.056 -12.0916 525.966 188.955 527.809Z" fill="url(#paint0_linear_8566_92904)"/>
<defs>
<linearGradient id="paint0_linear_8566_92904" x1="188.515" y1="-108.07" x2="188.515" y2="1885.34" gradientUnits="userSpaceOnUse">
<stop stop-color="#155BC4"/>
<stop offset="0.651099" stop-color="#155BC4" stop-opacity="0"/>
</linearGradient>
</defs>
</svg>
