<svg width="387" height="296" viewBox="0 0 387 296" fill="none" xmlns="http://www.w3.org/2000/svg">
<g clip-path="url(#clip0_10857_84044)">
<g filter="url(#filter0_d_10857_84044)">
<path d="M391.683 166.565H294.993C293.351 166.565 291.735 166.16 290.286 165.387L228.35 132.339C226.56 131.384 224.383 131.53 222.737 132.715C219.545 135.014 219.865 139.863 223.333 141.722L287.257 175.983C288.709 176.761 290.332 177.169 291.981 177.169H391.683C394.612 177.169 396.985 174.795 396.985 171.867C396.985 168.939 394.612 166.565 391.683 166.565Z" fill="#0E1214"/>
</g>
<path d="M388.08 172.275H293.459C291.817 172.275 290.2 171.871 288.752 171.098L188.186 117.437" stroke="#3B3D3F" stroke-dasharray="1 2"/>
<g filter="url(#filter1_d_10857_84044)">
<path d="M391.683 63.0407H294.993C293.351 63.0407 291.735 63.4451 290.286 64.2181L228.35 97.2662C226.56 98.2211 224.383 98.0752 222.737 96.89C219.545 94.5913 219.865 89.7423 223.333 87.8839L287.257 53.6228C288.709 52.8442 290.332 52.4367 291.981 52.4367H391.683C394.612 52.4367 396.985 54.8105 396.985 57.7387C396.985 60.667 394.612 63.0407 391.683 63.0407Z" fill="#0E1214"/>
</g>
<path d="M388.08 57.3301H293.459C291.817 57.3301 290.2 57.7344 288.752 58.5075L188.186 112.168" stroke="#3B3D3F" stroke-dasharray="1 2"/>
<g clip-path="url(#clip1_10857_84044)">
<g filter="url(#filter2_d_10857_84044)">
<path d="M297.578 57.945L96.4456 165.266C94.9969 166.039 93.3801 166.444 91.738 166.444H-4.95189C-7.88011 166.444 -10.2539 168.818 -10.2539 171.746C-10.2539 174.674 -7.88011 177.048 -4.95189 177.048H94.7508C96.3992 177.048 98.0219 176.64 99.4748 175.862L300.835 67.9396C302.288 67.1609 303.911 66.7535 305.559 66.7535H391.913C394.671 66.7535 396.906 64.5181 396.906 61.7605C396.906 59.003 394.671 56.7676 391.913 56.7676H302.285C300.643 56.7676 299.026 57.172 297.578 57.945Z" fill="#0E1214"/>
</g>
<path d="M398.058 61.7109H303.438C301.796 61.7109 300.179 62.1153 298.73 62.8883L97.598 170.21C96.1493 170.983 94.5324 171.387 92.8904 171.387H-9.10156" stroke="#3B3D3F" stroke-dasharray="1 2"/>
</g>
<mask id="mask0_10857_84044" style="mask-type:alpha" maskUnits="userSpaceOnUse" x="-11" y="-69" width="408" height="235">
<path d="M386.905 52.4375H291.578C289.927 52.4375 288.302 52.8464 286.847 53.6276L253.685 71.4375L121.685 150.938L96.4455 164.704C94.9624 165.513 93.2985 165.933 91.6092 165.925L-0.302759 165.485C-5.80686 165.459 -10.2549 160.989 -10.2549 155.485V-58.0352C-10.2549 -63.558 -5.77773 -68.0352 -0.254883 -68.0352H386.905C392.428 -68.0352 396.905 -63.558 396.905 -58.0352V42.4375C396.905 47.9604 392.428 52.4375 386.905 52.4375Z" fill="url(#paint0_radial_10857_84044)"/>
</mask>
<g mask="url(#mask0_10857_84044)">
<path d="M385.696 -119.074V199.655" stroke="#FFCB5C" stroke-width="0.5"/>
<path d="M381.696 -119.074V199.655" stroke="#FFCB5C" stroke-width="0.5"/>
<path d="M377.696 -119.074V199.655" stroke="#FFCB5C" stroke-width="0.5"/>
<path d="M373.696 -119.074V199.655" stroke="#FFCB5C" stroke-width="0.5"/>
<path d="M369.696 -119.074V199.655" stroke="#FFCB5C" stroke-width="0.5"/>
<path d="M365.696 -119.074V199.655" stroke="#FFCB5C" stroke-width="0.5"/>
<path d="M361.696 -119.074V199.655" stroke="#FFCB5C" stroke-width="0.5"/>
<path d="M357.696 -119.074V199.655" stroke="#FFCB5C" stroke-width="0.5"/>
<path d="M353.696 -119.074V199.655" stroke="#FFCB5C" stroke-width="0.5"/>
<path d="M349.696 -119.074V199.655" stroke="#FFCB5C" stroke-width="0.5"/>
<path d="M345.696 -119.074V199.655" stroke="#FFCB5C" stroke-width="0.5"/>
<path d="M341.696 -119.074V199.655" stroke="#FFCB5C" stroke-width="0.5"/>
<path d="M337.696 -119.074V199.655" stroke="#FFCB5C" stroke-width="0.5"/>
<path d="M333.696 -119.074V199.655" stroke="#FFCB5C" stroke-width="0.5"/>
<path d="M329.696 -119.074V199.655" stroke="#FFCB5C" stroke-width="0.5"/>
<path d="M325.696 -119.074V199.655" stroke="#FFCB5C" stroke-width="0.5"/>
<path d="M321.696 -119.074V199.655" stroke="#FFCB5C" stroke-width="0.5"/>
<path d="M317.696 -119.074V199.655" stroke="#FFCB5C" stroke-width="0.5"/>
<path d="M313.696 -119.074V199.655" stroke="#FFCB5C" stroke-width="0.5"/>
<path d="M309.696 -119.074V199.655" stroke="#FFCB5C" stroke-width="0.5"/>
<path d="M305.696 -119.074V199.655" stroke="#FFCB5C" stroke-width="0.5"/>
<path d="M301.696 -119.074V199.655" stroke="#FFCB5C" stroke-width="0.5"/>
<path d="M297.696 -119.074V199.655" stroke="#FFCB5C" stroke-width="0.5"/>
<path d="M293.696 -119.074V199.655" stroke="#FFCB5C" stroke-width="0.5"/>
<path d="M289.696 -119.074V199.655" stroke="#FFCB5C" stroke-width="0.5"/>
<path d="M285.696 -119.074V199.655" stroke="#FFCB5C" stroke-width="0.5"/>
<path d="M281.696 -119.074V199.655" stroke="#FFCB5C" stroke-width="0.5"/>
<path d="M277.696 -119.074V199.655" stroke="#FFCB5C" stroke-width="0.5"/>
<path d="M273.696 -119.074V199.655" stroke="#FFCB5C" stroke-width="0.5"/>
<path d="M269.696 -119.074V199.655" stroke="#FFCB5C" stroke-width="0.5"/>
<path d="M265.696 -119.074V199.655" stroke="#FFCB5C" stroke-width="0.5"/>
<path d="M261.696 -119.074V199.655" stroke="#FFCB5C" stroke-width="0.5"/>
<path d="M257.696 -119.074V199.655" stroke="#FFCB5C" stroke-width="0.5"/>
<path d="M253.696 -119.074L253.696 199.655" stroke="#FFCB5C" stroke-width="0.5"/>
<path d="M249.696 -119.074L249.696 199.655" stroke="#FFCB5C" stroke-width="0.5"/>
<path d="M245.696 -119.074L245.696 199.655" stroke="#FFCB5C" stroke-width="0.5"/>
<path d="M241.696 -119.074L241.696 199.655" stroke="#FFCB5C" stroke-width="0.5"/>
<path d="M237.696 -119.074L237.696 199.655" stroke="#FFCB5C" stroke-width="0.5"/>
<path d="M233.696 -119.074L233.696 199.655" stroke="#FFCB5C" stroke-width="0.5"/>
<path d="M229.696 -119.074L229.696 199.655" stroke="#FFCB5C" stroke-width="0.5"/>
<path d="M225.696 -119.074L225.696 199.655" stroke="#FFCB5C" stroke-width="0.5"/>
<path d="M221.696 -119.074L221.696 199.655" stroke="#FFCB5C" stroke-width="0.5"/>
<path d="M217.696 -119.074L217.696 199.655" stroke="#FFCB5C" stroke-width="0.5"/>
<path d="M213.696 -119.074L213.696 199.655" stroke="#FFCB5C" stroke-width="0.5"/>
<path d="M209.696 -119.074L209.696 199.655" stroke="#FFCB5C" stroke-width="0.5"/>
<path d="M205.696 -119.074L205.696 199.655" stroke="#FFCB5C" stroke-width="0.5"/>
<path d="M201.696 -119.074L201.696 199.655" stroke="#FFCB5C" stroke-width="0.5"/>
<path d="M197.696 -119.074L197.696 199.655" stroke="#FFCB5C" stroke-width="0.5"/>
<path d="M193.696 -119.074L193.696 199.655" stroke="#FFCB5C" stroke-width="0.5"/>
<path d="M189.696 -119.074L189.696 199.655" stroke="#FFCB5C" stroke-width="0.5"/>
<path d="M185.696 -119.074L185.696 199.655" stroke="#FFCB5C" stroke-width="0.5"/>
<path d="M181.696 -119.074L181.696 199.655" stroke="#FFCB5C" stroke-width="0.5"/>
<path d="M177.696 -119.074L177.696 199.655" stroke="#FFCB5C" stroke-width="0.5"/>
<path d="M173.696 -119.074L173.696 199.655" stroke="#FFCB5C" stroke-width="0.5"/>
<path d="M169.696 -119.074L169.696 199.655" stroke="#FFCB5C" stroke-width="0.5"/>
<path d="M165.696 -119.074L165.696 199.655" stroke="#FFCB5C" stroke-width="0.5"/>
<path d="M161.696 -119.074L161.696 199.655" stroke="#FFCB5C" stroke-width="0.5"/>
<path d="M157.696 -119.074L157.696 199.655" stroke="#FFCB5C" stroke-width="0.5"/>
<path d="M153.696 -119.074L153.696 199.655" stroke="#FFCB5C" stroke-width="0.5"/>
<path d="M149.696 -119.074L149.696 199.655" stroke="#FFCB5C" stroke-width="0.5"/>
<path d="M145.696 -119.074L145.696 199.655" stroke="#FFCB5C" stroke-width="0.5"/>
<path d="M141.696 -119.074L141.696 199.655" stroke="#FFCB5C" stroke-width="0.5"/>
<path d="M137.696 -119.074L137.696 199.655" stroke="#FFCB5C" stroke-width="0.5"/>
<path d="M133.696 -119.074L133.696 199.655" stroke="#FFCB5C" stroke-width="0.5"/>
<path d="M129.696 -119.074L129.696 199.655" stroke="#FFCB5C" stroke-width="0.5"/>
<path d="M125.696 -119.074L125.696 199.655" stroke="#FFCB5C" stroke-width="0.5"/>
<path d="M121.696 -119.074L121.696 199.655" stroke="#FFCB5C" stroke-width="0.5"/>
<path d="M117.696 -119.074L117.696 199.655" stroke="#FFCB5C" stroke-width="0.5"/>
<path d="M113.696 -119.074L113.696 199.655" stroke="#FFCB5C" stroke-width="0.5"/>
<path d="M109.696 -119.074L109.696 199.655" stroke="#FFCB5C" stroke-width="0.5"/>
<path d="M105.696 -119.074L105.696 199.655" stroke="#FFCB5C" stroke-width="0.5"/>
<path d="M101.696 -119.074L101.696 199.655" stroke="#FFCB5C" stroke-width="0.5"/>
<path d="M97.6963 -119.074L97.6963 199.655" stroke="#FFCB5C" stroke-width="0.5"/>
<path d="M93.6963 -119.074L93.6963 199.655" stroke="#FFCB5C" stroke-width="0.5"/>
<path d="M89.6963 -119.074L89.6963 199.655" stroke="#FFCB5C" stroke-width="0.5"/>
<path d="M85.6963 -119.074L85.6963 199.655" stroke="#FFCB5C" stroke-width="0.5"/>
<path d="M81.6963 -119.074L81.6963 199.655" stroke="#FFCB5C" stroke-width="0.5"/>
<path d="M77.6963 -119.074L77.6963 199.655" stroke="#FFCB5C" stroke-width="0.5"/>
<path d="M73.6963 -119.074L73.6963 199.655" stroke="#FFCB5C" stroke-width="0.5"/>
<path d="M69.6963 -119.074L69.6963 199.655" stroke="#FFCB5C" stroke-width="0.5"/>
<path d="M65.6963 -119.074L65.6963 199.655" stroke="#FFCB5C" stroke-width="0.5"/>
<path d="M61.6963 -119.074L61.6963 199.655" stroke="#FFCB5C" stroke-width="0.5"/>
<path d="M57.6963 -119.074L57.6963 199.655" stroke="#FFCB5C" stroke-width="0.5"/>
<path d="M53.6963 -119.074L53.6963 199.655" stroke="#FFCB5C" stroke-width="0.5"/>
<path d="M49.6963 -119.074L49.6963 199.655" stroke="#FFCB5C" stroke-width="0.5"/>
<path d="M45.6963 -119.074L45.6963 199.655" stroke="#FFCB5C" stroke-width="0.5"/>
<path d="M41.6963 -119.074L41.6963 199.655" stroke="#FFCB5C" stroke-width="0.5"/>
<path d="M37.6963 -119.074L37.6963 199.655" stroke="#FFCB5C" stroke-width="0.5"/>
<path d="M33.6963 -119.074L33.6963 199.655" stroke="#FFCB5C" stroke-width="0.5"/>
<path d="M29.6963 -119.074L29.6963 199.655" stroke="#FFCB5C" stroke-width="0.5"/>
<path d="M25.6963 -119.074L25.6963 199.655" stroke="#FFCB5C" stroke-width="0.5"/>
<path d="M21.6963 -119.074L21.6963 199.655" stroke="#FFCB5C" stroke-width="0.5"/>
<path d="M17.6963 -119.074L17.6963 199.655" stroke="#FFCB5C" stroke-width="0.5"/>
<path d="M13.6963 -119.074L13.6963 199.655" stroke="#FFCB5C" stroke-width="0.5"/>
<path d="M9.69629 -119.074L9.69629 199.655" stroke="#FFCB5C" stroke-width="0.5"/>
<path d="M5.69629 -119.074L5.69629 199.655" stroke="#FFCB5C" stroke-width="0.5"/>
<path d="M1.69629 -119.074L1.69629 199.655" stroke="#FFCB5C" stroke-width="0.5"/>
</g>
<rect width="49" height="43" transform="matrix(-1 0 0 1 390 150)" fill="url(#paint1_linear_10857_84044)"/>
<g filter="url(#filter3_f_10857_84044)">
<path d="M187.776 130.49C191.01 128.623 194.995 128.623 198.228 130.49L224.58 145.704C227.813 147.571 229.805 151.021 229.805 154.755V185.183C229.805 188.917 227.813 192.368 224.58 194.235L198.228 209.449C194.995 211.316 191.01 211.316 187.776 209.449L161.425 194.235C158.191 192.368 156.199 188.917 156.199 185.183V154.755C156.199 151.021 158.191 147.571 161.425 145.704L187.776 130.49Z" fill="#FFCB5C" fill-opacity="0.35"/>
</g>
<g filter="url(#filter4_f_10857_84044)">
<path d="M187.776 60.6266C191.01 58.7595 194.994 58.7595 198.228 60.6266L257.926 95.0933C261.16 96.9603 263.152 100.411 263.152 104.145V173.078C263.152 176.812 261.16 180.263 257.926 182.13L198.228 216.597C194.994 218.464 191.01 218.464 187.776 216.597L128.078 182.13C124.844 180.263 122.852 176.812 122.852 173.078V104.145C122.852 100.411 124.844 96.9603 128.078 95.0933L187.776 60.6266Z" fill="#0A0D0F"/>
</g>
<path d="M190.938 54.7393C192.299 54.45 193.706 54.45 195.067 54.7393C196.586 55.0622 198.026 55.887 201.103 57.6631L254.529 88.5088C257.606 90.285 259.04 91.1205 260.079 92.2744C261.01 93.3085 261.714 94.5272 262.144 95.8506C262.623 97.3275 262.63 98.9867 262.63 102.539V164.231C262.63 167.784 262.623 169.443 262.144 170.92C261.714 172.243 261.01 173.462 260.079 174.496C259.04 175.65 257.606 176.486 254.529 178.262L201.103 209.107C198.026 210.884 196.586 211.708 195.067 212.031C193.706 212.321 192.299 212.32 190.938 212.031C189.419 211.708 187.979 210.884 184.902 209.107L131.476 178.262C128.399 176.486 126.965 175.65 125.926 174.496C124.995 173.462 124.291 172.243 123.861 170.92C123.382 169.443 123.375 167.784 123.375 164.231V102.539C123.375 98.9867 123.382 97.3275 123.861 95.8506C124.291 94.5272 124.995 93.3085 125.926 92.2744C126.965 91.1204 128.399 90.285 131.476 88.5088L184.902 57.6631C187.979 55.8868 189.419 55.0621 190.938 54.7393Z" fill="#0A0D0F" stroke="url(#paint2_linear_10857_84044)" stroke-width="1.04519"/>
<g filter="url(#filter5_i_10857_84044)">
<path d="M191.33 61.7105C191.939 61.3587 192.243 61.1829 192.567 61.114C192.854 61.0531 193.15 61.0531 193.436 61.114C193.76 61.1829 194.065 61.3587 194.674 61.7105L254.234 96.0967C254.843 96.4485 255.147 96.6243 255.369 96.8704C255.565 97.0881 255.713 97.3446 255.804 97.6232C255.906 97.938 255.906 98.2898 255.906 98.9933V167.766C255.906 168.469 255.906 168.821 255.804 169.136C255.713 169.414 255.565 169.671 255.369 169.889C255.147 170.135 254.843 170.311 254.234 170.662L194.674 205.049C194.065 205.4 193.76 205.576 193.436 205.645C193.15 205.706 192.854 205.706 192.567 205.645C192.243 205.576 191.939 205.4 191.33 205.049L131.77 170.662C131.161 170.311 130.856 170.135 130.635 169.889C130.439 169.671 130.29 169.414 130.2 169.136C130.098 168.821 130.098 168.469 130.098 167.766V98.9933C130.098 98.2898 130.098 97.938 130.2 97.6232C130.29 97.3446 130.439 97.0881 130.635 96.8704C130.856 96.6243 131.161 96.4485 131.77 96.0967L191.33 61.7105Z" fill="#060809"/>
</g>
<path d="M192.676 61.625C192.891 61.5793 193.113 61.5793 193.328 61.625C193.552 61.6726 193.774 61.7939 194.413 62.1631L253.973 96.5498C254.612 96.9188 254.828 97.05 254.98 97.2197C255.127 97.3829 255.239 97.5754 255.307 97.7842C255.377 98.0016 255.384 98.2545 255.384 98.9932V167.766C255.384 168.504 255.377 168.757 255.307 168.975C255.239 169.183 255.127 169.376 254.98 169.539C254.827 169.709 254.612 169.841 253.973 170.21L194.413 204.596C193.774 204.965 193.552 205.086 193.328 205.134C193.113 205.179 192.891 205.179 192.676 205.134C192.452 205.086 192.231 204.965 191.591 204.596L132.031 170.21C131.392 169.841 131.176 169.709 131.023 169.539H131.022C130.876 169.376 130.765 169.183 130.697 168.975C130.627 168.757 130.62 168.504 130.62 167.766V98.9932C130.62 98.2545 130.627 98.0016 130.697 97.7842C130.765 97.5754 130.877 97.3829 131.023 97.2197L131.022 97.2188C131.175 97.0491 131.392 96.9187 132.031 96.5498L191.591 62.1631C192.231 61.7937 192.452 61.6725 192.676 61.625Z" stroke="url(#paint3_linear_10857_84044)" stroke-width="1.04519"/>
<path d="M192.677 66.8516C192.891 66.806 193.113 66.806 193.328 66.8516C193.552 66.8991 193.773 67.0204 194.413 67.3896L249.447 99.1641C250.086 99.533 250.302 99.6643 250.455 99.834C250.602 99.9971 250.713 100.19 250.781 100.398V100.399C250.852 100.617 250.858 100.869 250.858 101.607V165.155C250.858 165.894 250.852 166.147 250.781 166.364C250.713 166.573 250.602 166.765 250.455 166.929C250.302 167.099 250.087 167.23 249.447 167.6L194.413 199.373C193.773 199.742 193.552 199.864 193.328 199.911C193.113 199.957 192.892 199.957 192.677 199.911C192.453 199.864 192.231 199.742 191.592 199.373L136.558 167.6C135.918 167.23 135.702 167.099 135.549 166.929C135.402 166.766 135.292 166.573 135.224 166.364C135.153 166.147 135.146 165.894 135.146 165.155V101.607C135.146 100.869 135.153 100.616 135.224 100.398C135.292 100.19 135.402 99.9971 135.549 99.834C135.702 99.6641 135.918 99.5333 136.558 99.1641L191.592 67.3896C192.231 67.0204 192.453 66.8991 192.677 66.8516Z" fill="#0A0D0F" stroke="url(#paint4_linear_10857_84044)" stroke-width="1.04519"/>
<g filter="url(#filter6_i_10857_84044)">
<path d="M191.302 72.2087C191.921 71.8435 192.23 71.6609 192.56 71.5895C192.851 71.5263 193.153 71.5263 193.445 71.5895C193.774 71.6609 194.084 71.8435 194.702 72.2087L244.023 101.322C244.622 101.676 244.922 101.853 245.14 102.098C245.333 102.315 245.478 102.57 245.567 102.846C245.667 103.158 245.667 103.507 245.667 104.203V162.559C245.667 163.255 245.667 163.603 245.567 163.916C245.478 164.192 245.333 164.447 245.14 164.664C244.922 164.909 244.622 165.086 244.023 165.44L194.702 194.553C194.084 194.918 193.774 195.101 193.445 195.172C193.153 195.236 192.851 195.236 192.56 195.172C192.23 195.101 191.921 194.918 191.302 194.553L141.981 165.44C141.382 165.086 141.082 164.909 140.864 164.664C140.672 164.447 140.526 164.192 140.437 163.916C140.337 163.603 140.337 163.255 140.337 162.559V104.203C140.337 103.507 140.337 103.158 140.437 102.846C140.526 102.57 140.672 102.315 140.864 102.098C141.082 101.853 141.382 101.676 141.981 101.322L191.302 72.2087Z" fill="#060809"/>
</g>
<path d="M192.67 72.1006C192.889 72.0532 193.115 72.0532 193.334 72.1006C193.562 72.1499 193.787 72.2757 194.437 72.6592L243.758 101.772C244.387 102.144 244.599 102.276 244.749 102.445C244.893 102.608 245.003 102.799 245.069 103.006C245.139 103.221 245.145 103.472 245.145 104.202V162.56C245.145 163.29 245.139 163.54 245.069 163.756C245.003 163.963 244.894 164.154 244.749 164.316C244.599 164.486 244.387 164.618 243.758 164.989L194.437 194.104C193.949 194.391 193.701 194.533 193.511 194.607L193.334 194.662C193.115 194.709 192.889 194.709 192.67 194.662C192.442 194.613 192.217 194.487 191.567 194.104L142.247 164.989C141.618 164.618 141.405 164.486 141.255 164.316C141.11 164.154 141.001 163.963 140.935 163.756C140.865 163.54 140.859 163.29 140.859 162.56V104.202C140.859 103.472 140.865 103.221 140.935 103.006C141.001 102.799 141.11 102.608 141.255 102.445C141.405 102.276 141.618 102.144 142.247 101.772L191.567 72.6592C192.217 72.2758 192.442 72.1499 192.67 72.1006Z" stroke="url(#paint5_linear_10857_84044)" stroke-width="1.04519"/>
<g filter="url(#filter7_i_10857_84044)">
<path d="M191.33 72.1753C191.939 71.8236 192.244 71.6477 192.568 71.5789C192.854 71.518 193.15 71.518 193.437 71.5789C193.761 71.6477 194.065 71.8236 194.675 72.1753L245.178 101.332C245.787 101.684 246.092 101.86 246.313 102.106C246.509 102.324 246.657 102.58 246.748 102.859C246.85 103.174 246.85 103.525 246.85 104.229V162.543C246.85 163.246 246.85 163.598 246.748 163.913C246.657 164.191 246.509 164.448 246.313 164.665C246.092 164.912 245.787 165.087 245.178 165.439L194.675 194.596C194.065 194.948 193.761 195.124 193.437 195.193C193.15 195.253 192.854 195.253 192.568 195.193C192.244 195.124 191.939 194.948 191.33 194.596L140.827 165.439C140.217 165.087 139.913 164.912 139.691 164.665C139.495 164.448 139.347 164.191 139.257 163.913C139.154 163.598 139.154 163.246 139.154 162.543V104.229C139.154 103.525 139.154 103.174 139.257 102.859C139.347 102.58 139.495 102.324 139.691 102.106C139.913 101.86 140.217 101.684 140.827 101.332L191.33 72.1753Z" fill="#060809"/>
</g>
<path d="M192.677 72.0898C192.891 72.0443 193.113 72.0442 193.328 72.0898C193.552 72.1374 193.773 72.2586 194.413 72.6279L244.917 101.785C245.556 102.154 245.772 102.286 245.925 102.456C246.035 102.579 246.126 102.717 246.192 102.867L246.251 103.021C246.322 103.238 246.328 103.49 246.328 104.229V162.543C246.328 163.096 246.324 163.377 246.293 163.574L246.251 163.751C246.183 163.96 246.072 164.152 245.925 164.315C245.772 164.485 245.556 164.617 244.917 164.986L194.413 194.144C193.773 194.513 193.552 194.634 193.328 194.682C193.113 194.727 192.891 194.727 192.677 194.682C192.453 194.634 192.231 194.513 191.592 194.144L141.088 164.986C140.448 164.617 140.233 164.485 140.08 164.315C139.933 164.152 139.822 163.96 139.754 163.751C139.683 163.534 139.677 163.281 139.677 162.543V104.229C139.677 103.49 139.683 103.238 139.754 103.021C139.822 102.812 139.933 102.619 140.08 102.456C140.233 102.286 140.448 102.154 141.088 101.785L191.592 72.6279C192.231 72.2587 192.453 72.1374 192.677 72.0898Z" stroke="url(#paint6_linear_10857_84044)" stroke-width="1.04519"/>
<path d="M192.676 77.335C192.891 77.2893 193.113 77.2903 193.328 77.3359C193.552 77.3835 193.773 77.5047 194.413 77.874L240.376 104.41C241.015 104.779 241.232 104.91 241.385 105.08C241.532 105.243 241.643 105.437 241.711 105.646C241.781 105.863 241.787 106.115 241.787 106.854V159.925C241.787 160.663 241.782 160.916 241.711 161.134C241.643 161.343 241.532 161.535 241.385 161.698C241.232 161.868 241.016 162 240.376 162.369L194.413 188.905C193.774 189.275 193.552 189.395 193.328 189.442C193.113 189.488 192.891 189.488 192.676 189.442H192.675C192.452 189.395 192.229 189.274 191.591 188.905L145.628 162.369C144.988 162 144.773 161.868 144.62 161.698C144.473 161.535 144.362 161.343 144.294 161.134C144.223 160.916 144.217 160.664 144.217 159.925V106.854C144.217 106.115 144.223 105.863 144.294 105.646C144.362 105.437 144.473 105.243 144.62 105.08C144.773 104.91 144.989 104.779 145.628 104.41L191.591 77.874C192.231 77.5047 192.453 77.3835 192.677 77.3359L192.676 77.335Z" fill="#0A0D0F" stroke="url(#paint7_linear_10857_84044)" stroke-width="1.04519"/>
<path d="M193.082 148.381L182.759 154.34L193.082 160.3L203.404 154.34L193.082 148.381Z" fill="#FFCB5C"/>
<path d="M204.216 127.22V114.363L193.894 120.323V133.181L205.84 140.077V152.934L216.163 146.975V134.117L204.216 127.22Z" fill="#FFCB5C"/>
<path d="M181.138 153.404L193.083 146.507L204.217 152.936V141.015L193.083 134.588L181.138 141.484L170.004 135.056V146.976L181.138 153.404Z" fill="#FFCB5C"/>
<path d="M181.138 139.61L192.272 133.182V119.389L203.406 112.959L193.083 107L181.949 113.428V127.221L170.815 133.649L181.138 139.61Z" fill="#FFCB5C"/>
<path d="M205.84 114.363V126.283L216.163 132.243V120.323L205.84 114.363Z" fill="#FFCB5C"/>
<path d="M180.327 126.283V114.363L170.004 120.323V132.243L180.327 126.283Z" fill="#FFCB5C"/>
</g>
<defs>
<filter id="filter0_d_10857_84044" x="216.525" y="128.713" width="184.46" height="53.4551" filterUnits="userSpaceOnUse" color-interpolation-filters="sRGB">
<feFlood flood-opacity="0" result="BackgroundImageFix"/>
<feColorMatrix in="SourceAlpha" type="matrix" values="0 0 0 0 0 0 0 0 0 0 0 0 0 0 0 0 0 0 127 0" result="hardAlpha"/>
<feOffset dy="1"/>
<feGaussianBlur stdDeviation="2"/>
<feComposite in2="hardAlpha" operator="out"/>
<feColorMatrix type="matrix" values="0 0 0 0 0 0 0 0 0 0 0 0 0 0 0 0 0 0 1 0"/>
<feBlend mode="normal" in2="BackgroundImageFix" result="effect1_dropShadow_10857_84044"/>
<feBlend mode="normal" in="SourceGraphic" in2="effect1_dropShadow_10857_84044" result="shape"/>
</filter>
<filter id="filter1_d_10857_84044" x="216.525" y="49.4375" width="184.46" height="53.4551" filterUnits="userSpaceOnUse" color-interpolation-filters="sRGB">
<feFlood flood-opacity="0" result="BackgroundImageFix"/>
<feColorMatrix in="SourceAlpha" type="matrix" values="0 0 0 0 0 0 0 0 0 0 0 0 0 0 0 0 0 0 127 0" result="hardAlpha"/>
<feOffset dy="1"/>
<feGaussianBlur stdDeviation="2"/>
<feComposite in2="hardAlpha" operator="out"/>
<feColorMatrix type="matrix" values="0 0 0 0 0 0 0 0 0 0 0 0 0 0 0 0 0 0 1 0"/>
<feBlend mode="normal" in2="BackgroundImageFix" result="effect1_dropShadow_10857_84044"/>
<feBlend mode="normal" in="SourceGraphic" in2="effect1_dropShadow_10857_84044" result="shape"/>
</filter>
<filter id="filter2_d_10857_84044" x="-14.2539" y="53.7676" width="415.16" height="128.279" filterUnits="userSpaceOnUse" color-interpolation-filters="sRGB">
<feFlood flood-opacity="0" result="BackgroundImageFix"/>
<feColorMatrix in="SourceAlpha" type="matrix" values="0 0 0 0 0 0 0 0 0 0 0 0 0 0 0 0 0 0 127 0" result="hardAlpha"/>
<feOffset dy="1"/>
<feGaussianBlur stdDeviation="2"/>
<feComposite in2="hardAlpha" operator="out"/>
<feColorMatrix type="matrix" values="0 0 0 0 0 0 0 0 0 0 0 0 0 0 0 0 0 0 1 0"/>
<feBlend mode="normal" in2="BackgroundImageFix" result="effect1_dropShadow_10857_84044"/>
<feBlend mode="normal" in="SourceGraphic" in2="effect1_dropShadow_10857_84044" result="shape"/>
</filter>
<filter id="filter3_f_10857_84044" x="72.5841" y="45.4747" width="240.837" height="248.99" filterUnits="userSpaceOnUse" color-interpolation-filters="sRGB">
<feFlood flood-opacity="0" result="BackgroundImageFix"/>
<feBlend mode="normal" in="SourceGraphic" in2="BackgroundImageFix" result="shape"/>
<feGaussianBlur stdDeviation="41.8076" result="effect1_foregroundBlur_10857_84044"/>
</filter>
<filter id="filter4_f_10857_84044" x="116.581" y="52.9554" width="152.842" height="171.312" filterUnits="userSpaceOnUse" color-interpolation-filters="sRGB">
<feFlood flood-opacity="0" result="BackgroundImageFix"/>
<feBlend mode="normal" in="SourceGraphic" in2="BackgroundImageFix" result="shape"/>
<feGaussianBlur stdDeviation="3.13557" result="effect1_foregroundBlur_10857_84044"/>
</filter>
<filter id="filter5_i_10857_84044" x="130.098" y="61.0684" width="125.809" height="145.668" filterUnits="userSpaceOnUse" color-interpolation-filters="sRGB">
<feFlood flood-opacity="0" result="BackgroundImageFix"/>
<feBlend mode="normal" in="SourceGraphic" in2="BackgroundImageFix" result="shape"/>
<feColorMatrix in="SourceAlpha" type="matrix" values="0 0 0 0 0 0 0 0 0 0 0 0 0 0 0 0 0 0 127 0" result="hardAlpha"/>
<feOffset dy="1.04519"/>
<feGaussianBlur stdDeviation="1.04519"/>
<feComposite in2="hardAlpha" operator="arithmetic" k2="-1" k3="1"/>
<feColorMatrix type="matrix" values="0 0 0 0 0 0 0 0 0 0 0 0 0 0 0 0 0 0 1 0"/>
<feBlend mode="normal" in2="shape" result="effect1_innerShadow_10857_84044"/>
</filter>
<filter id="filter6_i_10857_84044" x="140.337" y="71.543" width="105.33" height="124.723" filterUnits="userSpaceOnUse" color-interpolation-filters="sRGB">
<feFlood flood-opacity="0" result="BackgroundImageFix"/>
<feBlend mode="normal" in="SourceGraphic" in2="BackgroundImageFix" result="shape"/>
<feColorMatrix in="SourceAlpha" type="matrix" values="0 0 0 0 0 0 0 0 0 0 0 0 0 0 0 0 0 0 127 0" result="hardAlpha"/>
<feOffset dy="1.04519"/>
<feGaussianBlur stdDeviation="1.04519"/>
<feComposite in2="hardAlpha" operator="arithmetic" k2="-1" k3="1"/>
<feColorMatrix type="matrix" values="0 0 0 0 0 0 0 0 0 0 0 0 0 0 0 0 0 0 1 0"/>
<feBlend mode="normal" in2="shape" result="effect1_innerShadow_10857_84044"/>
</filter>
<filter id="filter7_i_10857_84044" x="139.154" y="71.5332" width="107.696" height="124.75" filterUnits="userSpaceOnUse" color-interpolation-filters="sRGB">
<feFlood flood-opacity="0" result="BackgroundImageFix"/>
<feBlend mode="normal" in="SourceGraphic" in2="BackgroundImageFix" result="shape"/>
<feColorMatrix in="SourceAlpha" type="matrix" values="0 0 0 0 0 0 0 0 0 0 0 0 0 0 0 0 0 0 127 0" result="hardAlpha"/>
<feOffset dy="1.04519"/>
<feGaussianBlur stdDeviation="1.04519"/>
<feComposite in2="hardAlpha" operator="arithmetic" k2="-1" k3="1"/>
<feColorMatrix type="matrix" values="0 0 0 0 0 0 0 0 0 0 0 0 0 0 0 0 0 0 1 0"/>
<feBlend mode="normal" in2="shape" result="effect1_innerShadow_10857_84044"/>
</filter>
<radialGradient id="paint0_radial_10857_84044" cx="0" cy="0" r="1" gradientUnits="userSpaceOnUse" gradientTransform="translate(193.325 -8.259) rotate(90) scale(187.753 223.226)">
<stop stop-color="white"/>
<stop offset="1" stop-color="#F5F6F7" stop-opacity="0.1"/>
</radialGradient>
<linearGradient id="paint1_linear_10857_84044" x1="49" y1="21.8116" x2="3.62963" y2="21.8116" gradientUnits="userSpaceOnUse">
<stop stop-color="#13181C" stop-opacity="0"/>
<stop offset="1" stop-color="#13181C"/>
</linearGradient>
<linearGradient id="paint2_linear_10857_84044" x1="193.002" y1="133.331" x2="193.002" y2="214.387" gradientUnits="userSpaceOnUse">
<stop stop-color="#3B3D3F" stop-opacity="0.5"/>
<stop offset="1" stop-color="#3B3D3F" stop-opacity="0.89"/>
</linearGradient>
<linearGradient id="paint3_linear_10857_84044" x1="192.979" y1="60.0573" x2="193.037" y2="206.014" gradientUnits="userSpaceOnUse">
<stop stop-color="#1E1E1F" stop-opacity="0"/>
<stop offset="1" stop-color="#1E1E1F" stop-opacity="0.8"/>
</linearGradient>
<linearGradient id="paint4_linear_10857_84044" x1="193.002" y1="65.9715" x2="193.002" y2="200.791" gradientUnits="userSpaceOnUse">
<stop stop-color="#3B3D3F" stop-opacity="0.5"/>
<stop offset="1" stop-color="#3B3D3F" stop-opacity="0.8"/>
</linearGradient>
<linearGradient id="paint5_linear_10857_84044" x1="192.984" y1="70.6164" x2="193.034" y2="195.557" gradientUnits="userSpaceOnUse">
<stop stop-color="#1E1E1F" stop-opacity="0"/>
<stop offset="1" stop-color="#1E1E1F" stop-opacity="0.8"/>
</linearGradient>
<linearGradient id="paint6_linear_10857_84044" x1="192.983" y1="70.6211" x2="193.033" y2="195.561" gradientUnits="userSpaceOnUse">
<stop stop-color="#1E1E1F" stop-opacity="0"/>
<stop offset="1" stop-color="#1E1E1F" stop-opacity="0.8"/>
</linearGradient>
<linearGradient id="paint7_linear_10857_84044" x1="193.002" y1="76.4559" x2="193.002" y2="190.323" gradientUnits="userSpaceOnUse">
<stop stop-color="#3B3D3F" stop-opacity="0.2"/>
<stop offset="1" stop-color="#3B3D3F" stop-opacity="0.4"/>
</linearGradient>
<clipPath id="clip0_10857_84044">
<rect width="387" height="296" fill="white"/>
</clipPath>
<clipPath id="clip1_10857_84044">
<rect width="204" height="133" fill="white" transform="matrix(-1 0 0 1 194.186 56.4375)"/>
</clipPath>
</defs>
</svg>
