<svg width="194" height="131" viewBox="0 0 194 131" fill="none" xmlns="http://www.w3.org/2000/svg">
<path fill-rule="evenodd" clip-rule="evenodd" d="M-30.1338 25.3437C-24.2409 28.8312 -17.3859 29.9136 -10.7717 28.711C2.3366 27.0273 11.8369 41.3381 5.10246 52.7631C-1.39161 64.3079 -18.5886 63.1052 -23.6397 50.9589C-35.5453 20.1725 -79.5605 20.1725 -91.5864 50.9589C-96.517 63.1052 -113.834 64.3079 -120.328 52.7631C-126.943 41.3381 -117.442 27.0273 -104.454 28.711C-97.8399 29.9136 -90.9851 28.711 -85.0922 25.3437C-79.0795 21.9764 -74.7501 16.685 -72.4649 10.3112C-67.1735 -2.7971 -48.0525 -2.7971 -42.7607 10.3112C-40.4759 16.5647 -36.0263 21.9764 -30.1338 25.3437ZM-57.5527 41.9396C-44.4444 41.9396 -36.7477 57.2126 -44.8053 67.7954C-49.1347 72.8465 -51.5397 79.3402 -51.5397 86.1951C-51.5397 92.9295 -49.1347 99.4236 -44.8053 104.595C-36.6275 115.178 -44.4444 130.571 -57.5527 130.451C-70.6611 130.451 -78.3578 115.178 -70.3002 104.595C-65.9708 99.5441 -63.5658 93.0501 -63.5658 86.1951C-63.5658 79.4607 -65.9708 72.9667 -70.3002 67.7954C-78.478 57.2126 -70.6611 41.8195 -57.5527 41.9396Z" fill="url(#paint0_linear_8985_210921)"/>
<path fill-rule="evenodd" clip-rule="evenodd" d="M8.22461 105.587C2.33169 102.1 -4.52323 101.018 -11.1375 102.22C-24.2458 103.904 -33.746 89.593 -27.0116 78.168C-20.5176 66.6233 -3.32054 67.8259 1.73053 79.9723C13.6362 110.759 57.6513 110.759 69.6772 79.9723C74.6079 67.826 91.9253 66.6233 98.4193 78.1681C105.034 89.5931 95.5331 103.904 82.545 102.22C75.9307 101.018 69.0759 102.22 63.183 105.587C57.1703 108.955 52.8409 114.246 50.5557 120.62C45.2643 133.728 26.1433 133.728 20.8516 120.62C18.5667 114.366 14.1172 108.955 8.22461 105.587ZM35.6436 88.9915C22.5353 88.9915 14.8385 73.7185 22.8961 63.1357C27.2255 58.0846 29.6305 51.5909 29.6305 44.736C29.6305 38.0016 27.2255 31.5075 22.8961 26.3363C14.7183 15.7535 22.5353 0.359979 35.6436 0.480494C48.7519 0.480495 56.4487 15.7535 48.391 26.3363C44.0617 31.387 41.6567 37.8811 41.6567 44.736C41.6566 51.4704 44.0617 57.9645 48.391 63.1357C56.5688 73.7185 48.7519 89.1117 35.6436 88.9915Z" fill="url(#paint1_linear_8985_210921)"/>
<path fill-rule="evenodd" clip-rule="evenodd" d="M156.374 25.3437C162.266 28.8312 169.121 29.9136 175.736 28.711C188.844 27.0273 198.344 41.3381 191.61 52.7631C185.116 64.3079 167.919 63.1052 162.868 50.9589C150.962 20.1725 106.947 20.1725 94.9209 50.9589C89.9903 63.1052 72.6729 64.3079 66.1789 52.7631C59.5646 41.3381 69.0651 27.0273 82.0531 28.711C88.6674 29.9136 95.5223 28.711 101.415 25.3437C107.428 21.9764 111.757 16.685 114.042 10.3112C119.334 -2.7971 138.455 -2.7971 143.747 10.3112C146.031 16.5647 150.481 21.9764 156.374 25.3437ZM128.955 41.9396C142.063 41.9396 149.76 57.2126 141.702 67.7954C137.373 72.8465 134.968 79.3402 134.968 86.1951C134.968 92.9295 137.373 99.4236 141.702 104.595C149.88 115.178 142.063 130.571 128.955 130.451C115.846 130.451 108.149 115.178 116.207 104.595C120.536 99.5441 122.942 93.0501 122.942 86.1951C122.942 79.4607 120.536 72.9667 116.207 67.7954C108.029 57.2126 115.846 41.8195 128.955 41.9396Z" fill="url(#paint2_linear_8985_210921)"/>
<defs>
<linearGradient id="paint0_linear_8985_210921" x1="-57.5814" y1="0.47998" x2="-57.5814" y2="130.451" gradientUnits="userSpaceOnUse">
<stop stop-color="#EBECEC"/>
<stop offset="1" stop-color="#EBECEC"/>
</linearGradient>
<linearGradient id="paint1_linear_8985_210921" x1="35.6723" y1="130.451" x2="35.6723" y2="0.479792" gradientUnits="userSpaceOnUse">
<stop stop-color="#EBECEC"/>
<stop offset="1" stop-color="#EBECEC"/>
</linearGradient>
<linearGradient id="paint2_linear_8985_210921" x1="198.774" y1="69.3819" x2="51.1868" y2="40.976" gradientUnits="userSpaceOnUse">
<stop stop-color="#F5F5F5"/>
<stop offset="1" stop-color="#EBECEC"/>
</linearGradient>
</defs>
</svg>
