<svg width="117" height="43" viewBox="0 0 117 43" fill="none" xmlns="http://www.w3.org/2000/svg">
<path d="M4.16455 3.2356H41.1329V40.2039H4.16455V3.2356ZM37.2957 36.3667V7.07282H8.00177V36.355H37.2957V36.3784V36.3667ZM11.3359 12.7819V23.9542C11.3359 29.0549 14.1437 32.0849 18.8817 32.0849C23.6197 32.0849 26.5795 29.0666 26.5795 23.9542V12.7819H22.7423V23.9542C22.7423 26.8322 21.4905 28.4583 18.9753 28.4583C16.3079 28.4583 15.1381 26.762 15.1381 23.9542V12.7819H11.3359ZM31.5281 15.0631C32.8735 15.0631 33.903 14.1038 33.903 12.7585C33.903 11.3429 32.9437 10.3836 31.5281 10.3836C30.1126 10.3836 29.1533 11.3429 29.1533 12.7585C29.1767 14.1038 30.2062 15.0631 31.5281 15.0631ZM29.6095 16.8296V31.8627H33.4468V16.8296H29.6095ZM52.5276 25.7208C56.669 25.7208 59.4065 23.2757 59.4065 19.2162C59.4065 15.1567 56.7391 12.7935 52.5276 12.7935H45.286V31.9446H49.1232V25.8027H52.5276V25.7091V25.7208ZM52.0947 22.6791H49.0764V15.8703H52.0947C54.3175 15.8703 55.4991 17.1221 55.4991 19.2045C55.4991 21.4273 54.3058 22.6791 52.0947 22.6791ZM60.67 24.3871C60.67 28.8912 63.5479 32.0849 67.6191 32.0849C70.0641 32.0849 71.6201 31.1958 72.5092 29.7803V31.9212H76.3464V16.8413H72.5092V19.2162C71.5499 17.6603 69.9939 16.701 67.6191 16.701C63.4777 16.701 60.67 19.9649 60.67 24.3988V24.3871ZM72.4975 24.3871C72.4975 26.9725 70.8713 28.6806 68.4965 28.6806C65.911 28.6806 64.5891 26.8322 64.5891 24.3871C64.5891 21.7198 66.0748 20.0234 68.4965 20.0234C70.9181 20.0234 72.4975 21.8017 72.4975 24.3871ZM85.9512 28.5987C84.4654 28.5987 84.1027 27.9319 84.1027 26.6099V20.0936H87.4369V16.8296H84.1027V12.6883H80.2655V16.8296H78.4873V20.0936H80.2655V26.6099C80.2655 30.1546 81.8215 31.8627 85.5183 31.8627H87.5071V28.5987H85.9512ZM93.4267 18.9939V11.8927H89.5895V31.9329H93.4267V23.9425C93.4267 21.3571 94.7721 19.8012 97.0534 19.8012C99.3346 19.8012 100.458 21.2869 100.458 23.5682V31.8627H104.295V23.2055C104.295 19.2981 101.487 16.701 97.9425 16.701C95.7314 16.6776 94.3158 17.4965 93.4384 18.9822L93.4267 18.9939ZM104.002 11.8225V12.4192H105.254V16.2564H105.991V12.4192H107.173V11.8225H104.002ZM111.993 11.8225L110.437 15.3673L108.951 11.8225H108.062V16.2564H108.729V12.852L110.215 16.2564H110.741L112.157 12.852V16.2564H112.823V11.8225H111.993Z" fill="#D2E4FF"/>
</svg>
