<svg width="335" height="337" viewBox="0 0 335 337" fill="none" xmlns="http://www.w3.org/2000/svg">
<mask id="mask0_9828_198922" style="mask-type:alpha" maskUnits="userSpaceOnUse" x="0" y="-4" width="590" height="356">
<path d="M590 6.05432V341.863C590 347.439 585.439 351.938 579.864 351.862L9.86354 344.083C4.39442 344.008 0 339.553 0 334.084V9.14168C0 3.63997 4.44423 -0.828373 9.94586 -0.858173L579.946 -3.94554C585.49 -3.97557 590 0.510307 590 6.05432Z" fill="url(#paint0_radial_9828_198922)"/>
</mask>
<g mask="url(#mask0_9828_198922)">
<path d="M331.762 -287L635.174 238.525" stroke="#997A37" stroke-width="0.5"/>
<path d="M328.301 -285L631.713 240.525" stroke="#997A37" stroke-width="0.5"/>
<path d="M324.836 -283L628.248 242.525" stroke="#997A37" stroke-width="0.5"/>
<path d="M321.371 -281L624.783 244.525" stroke="#997A37" stroke-width="0.5"/>
<path d="M317.906 -279L621.318 246.525" stroke="#997A37" stroke-width="0.5"/>
<path d="M314.441 -277L617.853 248.525" stroke="#997A37" stroke-width="0.5"/>
<path d="M310.98 -275L614.392 250.525" stroke="#997A37" stroke-width="0.5"/>
<path d="M307.516 -273L610.927 252.525" stroke="#997A37" stroke-width="0.5"/>
<path d="M304.051 -271L607.463 254.525" stroke="#997A37" stroke-width="0.5"/>
<path d="M300.586 -269L603.998 256.525" stroke="#997A37" stroke-width="0.5"/>
<path d="M297.121 -267L600.533 258.525" stroke="#997A37" stroke-width="0.5"/>
<path d="M293.66 -265L597.072 260.525" stroke="#997A37" stroke-width="0.5"/>
<path d="M290.195 -263L593.607 262.525" stroke="#997A37" stroke-width="0.5"/>
<path d="M286.73 -261L590.142 264.525" stroke="#997A37" stroke-width="0.5"/>
<path d="M283.266 -259L586.677 266.525" stroke="#997A37" stroke-width="0.5"/>
<path d="M279.801 -257L583.213 268.525" stroke="#997A37" stroke-width="0.5"/>
<path d="M276.34 -255L579.752 270.525" stroke="#997A37" stroke-width="0.5"/>
<path d="M272.875 -253L576.287 272.525" stroke="#997A37" stroke-width="0.5"/>
<path d="M269.41 -251L572.822 274.525" stroke="#997A37" stroke-width="0.5"/>
<path d="M265.945 -249L569.357 276.525" stroke="#997A37" stroke-width="0.5"/>
<path d="M262.48 -247L565.892 278.525" stroke="#997A37" stroke-width="0.5"/>
<path d="M259.016 -245L562.427 280.525" stroke="#997A37" stroke-width="0.5"/>
<path d="M255.555 -243L558.967 282.525" stroke="#997A37" stroke-width="0.5"/>
<path d="M252.09 -241L555.502 284.525" stroke="#997A37" stroke-width="0.5"/>
<path d="M248.625 -239L552.037 286.525" stroke="#997A37" stroke-width="0.5"/>
<path d="M245.16 -237L548.572 288.525" stroke="#997A37" stroke-width="0.5"/>
<path d="M241.695 -235L545.107 290.525" stroke="#997A37" stroke-width="0.5"/>
<path d="M238.234 -233L541.646 292.525" stroke="#997A37" stroke-width="0.5"/>
<path d="M234.77 -231L538.181 294.525" stroke="#997A37" stroke-width="0.5"/>
<path d="M231.305 -229L534.717 296.525" stroke="#997A37" stroke-width="0.5"/>
<path d="M227.84 -227L531.252 298.525" stroke="#997A37" stroke-width="0.5"/>
<path d="M224.375 -225L527.787 300.525" stroke="#997A37" stroke-width="0.5"/>
<path d="M220.914 -223L524.326 302.525" stroke="#997A37" stroke-width="0.5"/>
<path d="M217.449 -221L520.861 304.525" stroke="#997A37" stroke-width="0.5"/>
<path d="M213.984 -219L517.396 306.525" stroke="#997A37" stroke-width="0.5"/>
<path d="M210.52 -217L513.931 308.525" stroke="#997A37" stroke-width="0.5"/>
<path d="M207.055 -215L510.467 310.525" stroke="#997A37" stroke-width="0.5"/>
<path d="M203.594 -213L507.006 312.525" stroke="#997A37" stroke-width="0.5"/>
<path d="M200.129 -211L503.541 314.525" stroke="#997A37" stroke-width="0.5"/>
<path d="M196.664 -209L500.076 316.525" stroke="#997A37" stroke-width="0.5"/>
<path d="M193.199 -207L496.611 318.525" stroke="#997A37" stroke-width="0.5"/>
<path d="M189.734 -205L493.146 320.525" stroke="#997A37" stroke-width="0.5"/>
<path d="M186.27 -203L489.681 322.525" stroke="#997A37" stroke-width="0.5"/>
<path d="M182.809 -201L486.22 324.525" stroke="#997A37" stroke-width="0.5"/>
<path d="M179.344 -199L482.756 326.525" stroke="#997A37" stroke-width="0.5"/>
<path d="M175.879 -197L479.291 328.525" stroke="#997A37" stroke-width="0.5"/>
<path d="M172.414 -195L475.826 330.525" stroke="#997A37" stroke-width="0.5"/>
<path d="M168.949 -193L472.361 332.525" stroke="#997A37" stroke-width="0.5"/>
<path d="M165.488 -191L468.9 334.525" stroke="#997A37" stroke-width="0.5"/>
<path d="M162.023 -189L465.435 336.525" stroke="#997A37" stroke-width="0.5"/>
<path d="M158.559 -187L461.97 338.525" stroke="#997A37" stroke-width="0.5"/>
<path d="M155.094 -185L458.506 340.525" stroke="#997A37" stroke-width="0.5"/>
<path d="M151.629 -183L455.041 342.525" stroke="#997A37" stroke-width="0.5"/>
<path d="M148.168 -181L451.58 344.525" stroke="#997A37" stroke-width="0.5"/>
<path d="M144.703 -179L448.115 346.525" stroke="#997A37" stroke-width="0.5"/>
<path d="M141.238 -177L444.65 348.525" stroke="#997A37" stroke-width="0.5"/>
<path d="M137.773 -175L441.185 350.525" stroke="#997A37" stroke-width="0.5"/>
<path d="M134.309 -173L437.72 352.525" stroke="#997A37" stroke-width="0.5"/>
<path d="M130.844 -171L434.256 354.525" stroke="#997A37" stroke-width="0.5"/>
<path d="M127.383 -169L430.795 356.525" stroke="#997A37" stroke-width="0.5"/>
<path d="M123.918 -167L427.33 358.525" stroke="#997A37" stroke-width="0.5"/>
<path d="M120.453 -165L423.865 360.525" stroke="#997A37" stroke-width="0.5"/>
<path d="M116.988 -163L420.4 362.525" stroke="#997A37" stroke-width="0.5"/>
<path d="M113.523 -161L416.935 364.525" stroke="#997A37" stroke-width="0.5"/>
<path d="M110.062 -159L413.474 366.525" stroke="#997A37" stroke-width="0.5"/>
<path d="M106.598 -157L410.01 368.525" stroke="#997A37" stroke-width="0.5"/>
<path d="M103.133 -155L406.545 370.525" stroke="#997A37" stroke-width="0.5"/>
<path d="M99.668 -153L403.08 372.525" stroke="#997A37" stroke-width="0.5"/>
<path d="M96.2031 -151L399.615 374.525" stroke="#997A37" stroke-width="0.5"/>
<path d="M92.7422 -149L396.154 376.525" stroke="#997A37" stroke-width="0.5"/>
<path d="M89.2773 -147L392.689 378.525" stroke="#997A37" stroke-width="0.5"/>
<path d="M85.8125 -145L389.224 380.525" stroke="#997A37" stroke-width="0.5"/>
<path d="M82.3477 -143L385.76 382.525" stroke="#997A37" stroke-width="0.5"/>
<path d="M78.8828 -141L382.295 384.525" stroke="#997A37" stroke-width="0.5"/>
<path d="M75.4219 -139L378.834 386.525" stroke="#997A37" stroke-width="0.5"/>
<path d="M71.957 -137L375.369 388.525" stroke="#997A37" stroke-width="0.5"/>
<path d="M68.4922 -135L371.904 390.525" stroke="#997A37" stroke-width="0.5"/>
<path d="M65.0273 -133L368.439 392.525" stroke="#997A37" stroke-width="0.5"/>
<path d="M61.5625 -131L364.974 394.525" stroke="#997A37" stroke-width="0.5"/>
<path d="M58.0977 -129L361.51 396.525" stroke="#997A37" stroke-width="0.5"/>
<path d="M54.6367 -127L358.049 398.525" stroke="#997A37" stroke-width="0.5"/>
<path d="M51.1719 -125L354.584 400.525" stroke="#997A37" stroke-width="0.5"/>
<path d="M47.707 -123L351.119 402.525" stroke="#997A37" stroke-width="0.5"/>
<path d="M44.2422 -121L347.654 404.525" stroke="#997A37" stroke-width="0.5"/>
<path d="M40.7773 -119L344.189 406.525" stroke="#997A37" stroke-width="0.5"/>
<path d="M37.3164 -117L340.728 408.525" stroke="#997A37" stroke-width="0.5"/>
<path d="M33.8516 -115L337.263 410.525" stroke="#997A37" stroke-width="0.5"/>
<path d="M30.3867 -113L333.799 412.525" stroke="#997A37" stroke-width="0.5"/>
<path d="M26.9219 -111L330.334 414.525" stroke="#997A37" stroke-width="0.5"/>
<path d="M23.457 -109L326.869 416.525" stroke="#997A37" stroke-width="0.5"/>
<path d="M19.9961 -107L323.408 418.525" stroke="#997A37" stroke-width="0.5"/>
<path d="M16.5312 -105L319.943 420.525" stroke="#997A37" stroke-width="0.5"/>
<path d="M13.0664 -103L316.478 422.525" stroke="#997A37" stroke-width="0.5"/>
<path d="M9.60156 -101L313.013 424.525" stroke="#997A37" stroke-width="0.5"/>
<path d="M6.13672 -99L309.549 426.525" stroke="#997A37" stroke-width="0.5"/>
<path d="M2.67578 -97L306.088 428.525" stroke="#997A37" stroke-width="0.5"/>
<path d="M-0.789062 -95L302.623 430.525" stroke="#997A37" stroke-width="0.5"/>
<path d="M-4.25391 -93L299.158 432.525" stroke="#997A37" stroke-width="0.5"/>
<path d="M-7.71875 -91L295.693 434.525" stroke="#997A37" stroke-width="0.5"/>
<path d="M-11.1836 -89L292.228 436.525" stroke="#997A37" stroke-width="0.5"/>
<path d="M-14.6484 -87L288.763 438.525" stroke="#997A37" stroke-width="0.5"/>
<path d="M-18.1094 -85L285.302 440.525" stroke="#997A37" stroke-width="0.5"/>
<path d="M-21.5742 -83L281.838 442.525" stroke="#997A37" stroke-width="0.5"/>
<path d="M-25.0391 -81L278.373 444.525" stroke="#997A37" stroke-width="0.5"/>
<path d="M-28.5039 -79L274.908 446.525" stroke="#997A37" stroke-width="0.5"/>
<path d="M-31.9688 -77L271.443 448.525" stroke="#997A37" stroke-width="0.5"/>
<path d="M-35.4297 -75L267.982 450.525" stroke="#997A37" stroke-width="0.5"/>
<path d="M-38.8945 -73L264.517 452.525" stroke="#997A37" stroke-width="0.5"/>
<path d="M-42.3594 -71L261.052 454.525" stroke="#997A37" stroke-width="0.5"/>
<path d="M-45.8242 -69L257.588 456.525" stroke="#997A37" stroke-width="0.5"/>
<path d="M-49.2891 -67L254.123 458.525" stroke="#997A37" stroke-width="0.5"/>
<path d="M-52.75 -65L250.662 460.525" stroke="#997A37" stroke-width="0.5"/>
<path d="M-56.2148 -63L247.197 462.525" stroke="#997A37" stroke-width="0.5"/>
<path d="M-59.6797 -61L243.732 464.525" stroke="#997A37" stroke-width="0.5"/>
<path d="M-63.1445 -59L240.267 466.525" stroke="#997A37" stroke-width="0.5"/>
<path d="M-66.6094 -57L236.802 468.525" stroke="#997A37" stroke-width="0.5"/>
<path d="M-70.0703 -55L233.342 470.525" stroke="#997A37" stroke-width="0.5"/>
<path d="M-73.5352 -53L229.877 472.525" stroke="#997A37" stroke-width="0.5"/>
<path d="M-77 -51L226.412 474.525" stroke="#997A37" stroke-width="0.5"/>
<path d="M-80.4648 -49L222.947 476.525" stroke="#997A37" stroke-width="0.5"/>
<path d="M-83.9297 -47L219.482 478.525" stroke="#997A37" stroke-width="0.5"/>
<path d="M-87.3945 -45L216.017 480.525" stroke="#997A37" stroke-width="0.5"/>
<path d="M-90.8555 -43L212.556 482.525" stroke="#997A37" stroke-width="0.5"/>
<path d="M-94.3203 -41L209.092 484.525" stroke="#997A37" stroke-width="0.5"/>
<path d="M-97.7852 -39L205.627 486.525" stroke="#997A37" stroke-width="0.5"/>
<path d="M-101.25 -37L202.162 488.525" stroke="#997A37" stroke-width="0.5"/>
<path d="M-104.715 -35L198.697 490.525" stroke="#997A37" stroke-width="0.5"/>
<path d="M-108.176 -33L195.236 492.525" stroke="#997A37" stroke-width="0.5"/>
<path d="M-111.641 -31L191.771 494.525" stroke="#997A37" stroke-width="0.5"/>
<path d="M-115.105 -29L188.306 496.525" stroke="#997A37" stroke-width="0.5"/>
<path d="M-118.57 -27L184.842 498.525" stroke="#997A37" stroke-width="0.5"/>
<path d="M-122.035 -25L181.377 500.525" stroke="#997A37" stroke-width="0.5"/>
<path d="M-125.496 -23L177.916 502.525" stroke="#997A37" stroke-width="0.5"/>
<path d="M-128.961 -21L174.451 504.525" stroke="#997A37" stroke-width="0.5"/>
<path d="M-132.426 -19L170.986 506.525" stroke="#997A37" stroke-width="0.5"/>
<path d="M-135.891 -17L167.521 508.525" stroke="#997A37" stroke-width="0.5"/>
<path d="M-139.355 -15L164.056 510.525" stroke="#997A37" stroke-width="0.5"/>
<path d="M-142.816 -13L160.595 512.525" stroke="#997A37" stroke-width="0.5"/>
<path d="M-146.281 -11L157.131 514.525" stroke="#997A37" stroke-width="0.5"/>
<path d="M-149.746 -9L153.666 516.525" stroke="#997A37" stroke-width="0.5"/>
<path d="M-153.211 -7L150.201 518.525" stroke="#997A37" stroke-width="0.5"/>
<path d="M-156.676 -5L146.736 520.525" stroke="#997A37" stroke-width="0.5"/>
<path d="M-160.141 -3L143.271 522.525" stroke="#997A37" stroke-width="0.5"/>
<path d="M-163.602 -1L139.81 524.525" stroke="#997A37" stroke-width="0.5"/>
<path d="M-167.066 1L136.345 526.525" stroke="#997A37" stroke-width="0.5"/>
<path d="M-170.531 3L132.881 528.525" stroke="#997A37" stroke-width="0.5"/>
<path d="M-173.996 5L129.416 530.525" stroke="#997A37" stroke-width="0.5"/>
<path d="M-177.461 7L125.951 532.525" stroke="#997A37" stroke-width="0.5"/>
<path d="M-180.922 9L122.49 534.525" stroke="#997A37" stroke-width="0.5"/>
<path d="M-184.387 11L119.025 536.525" stroke="#997A37" stroke-width="0.5"/>
<path d="M-187.852 13L115.56 538.525" stroke="#997A37" stroke-width="0.5"/>
<path d="M-191.316 15L112.095 540.525" stroke="#997A37" stroke-width="0.5"/>
<path d="M-194.781 17L108.631 542.525" stroke="#997A37" stroke-width="0.5"/>
<path d="M-198.242 19L105.17 544.525" stroke="#997A37" stroke-width="0.5"/>
<path d="M-201.707 21L101.705 546.525" stroke="#997A37" stroke-width="0.5"/>
</g>
<defs>
<radialGradient id="paint0_radial_9828_198922" cx="0" cy="0" r="1" gradientUnits="userSpaceOnUse" gradientTransform="translate(-94 -159.858) rotate(62.217) scale(453.742 1022.52)">
<stop stop-color="white"/>
<stop offset="1" stop-color="#F5F6F7" stop-opacity="0.1"/>
</radialGradient>
</defs>
</svg>
