<svg width="387" height="301" viewBox="0 0 387 301" fill="none" xmlns="http://www.w3.org/2000/svg">
<g filter="url(#filter0_d_9892_83320)">
<path d="M391.683 166.565H294.993C293.351 166.565 291.734 166.161 290.285 165.388L228.35 132.339C226.56 131.385 224.383 131.53 222.737 132.716C219.544 135.014 219.865 139.863 223.332 141.722L287.256 175.983C288.709 176.761 290.332 177.169 291.98 177.169H391.683C394.611 177.169 396.985 174.795 396.985 171.867C396.985 168.939 394.611 166.565 391.683 166.565Z" fill="#0E1214"/>
</g>
<path d="M388.079 172.276H293.459C291.817 172.276 290.2 171.871 288.751 171.098L188.185 117.438" stroke="#3B3D3F" stroke-dasharray="1 2"/>
<g filter="url(#filter1_d_9892_83320)">
<path d="M391.683 63.0406H294.993C293.351 63.0406 291.734 63.445 290.285 64.218L228.349 97.2661C226.56 98.221 224.383 98.0751 222.737 96.8899C219.544 94.5912 219.864 89.7422 223.332 87.8838L287.256 53.6227C288.709 52.844 290.332 52.4366 291.98 52.4366H391.683C394.611 52.4366 396.985 54.8104 396.985 57.7386C396.985 60.6668 394.611 63.0406 391.683 63.0406Z" fill="#0E1214"/>
</g>
<path d="M388.079 57.3299H293.458C291.816 57.3299 290.2 57.7343 288.751 58.5073L188.185 112.168" stroke="#3B3D3F" stroke-dasharray="1 2"/>
<g clip-path="url(#clip0_9892_83320)">
<g filter="url(#filter2_d_9892_83320)">
<path d="M297.577 57.945L96.4452 165.266C94.9964 166.039 93.3796 166.444 91.7375 166.444H-4.95238C-7.8806 166.444 -10.2544 168.818 -10.2544 171.746C-10.2544 174.674 -7.8806 177.048 -4.95238 177.048H94.7504C96.3987 177.048 98.0215 176.64 99.4743 175.862L300.834 67.9396C302.287 67.1609 303.91 66.7535 305.558 66.7535H391.912C394.67 66.7535 396.905 64.5181 396.905 61.7605C396.905 59.003 394.67 56.7676 391.912 56.7676H302.285C300.643 56.7676 299.026 57.172 297.577 57.945Z" fill="#0E1214"/>
</g>
<path d="M398.059 61.7109H303.438C301.796 61.7109 300.179 62.1153 298.731 62.8883L97.5985 170.21C96.1497 170.983 94.5329 171.387 92.8909 171.387H-9.10107" stroke="#3B3D3F" stroke-dasharray="1 2"/>
</g>
<mask id="mask0_9892_83320" style="mask-type:alpha" maskUnits="userSpaceOnUse" x="-11" y="-69" width="408" height="235">
<path d="M386.905 52.4375H291.579C289.927 52.4375 288.302 52.8464 286.847 53.6276L253.685 71.4375L121.685 150.938L96.4458 164.704C94.9627 165.513 93.2988 165.933 91.6094 165.925L-0.302515 165.485C-5.80661 165.459 -10.2546 160.989 -10.2546 155.485V-58.0352C-10.2546 -63.558 -5.77749 -68.0352 -0.254639 -68.0352H386.905C392.428 -68.0352 396.905 -63.558 396.905 -58.0352V42.4375C396.905 47.9604 392.428 52.4375 386.905 52.4375Z" fill="url(#paint0_linear_9892_83320)"/>
</mask>
<g mask="url(#mask0_9892_83320)">
<path d="M385.697 -119.074V199.655" stroke="#6DC28B" stroke-width="0.5"/>
<path d="M381.697 -119.074V199.655" stroke="#6DC28B" stroke-width="0.5"/>
<path d="M377.697 -119.074V199.655" stroke="#6DC28B" stroke-width="0.5"/>
<path d="M373.697 -119.074V199.655" stroke="#6DC28B" stroke-width="0.5"/>
<path d="M369.697 -119.074V199.655" stroke="#6DC28B" stroke-width="0.5"/>
<path d="M365.697 -119.074V199.655" stroke="#6DC28B" stroke-width="0.5"/>
<path d="M361.697 -119.074V199.655" stroke="#6DC28B" stroke-width="0.5"/>
<path d="M357.697 -119.074V199.655" stroke="#6DC28B" stroke-width="0.5"/>
<path d="M353.697 -119.074V199.655" stroke="#6DC28B" stroke-width="0.5"/>
<path d="M349.697 -119.074V199.655" stroke="#6DC28B" stroke-width="0.5"/>
<path d="M345.697 -119.074V199.655" stroke="#6DC28B" stroke-width="0.5"/>
<path d="M341.697 -119.074V199.655" stroke="#6DC28B" stroke-width="0.5"/>
<path d="M337.697 -119.074V199.655" stroke="#6DC28B" stroke-width="0.5"/>
<path d="M333.697 -119.074V199.655" stroke="#6DC28B" stroke-width="0.5"/>
<path d="M329.697 -119.074V199.655" stroke="#6DC28B" stroke-width="0.5"/>
<path d="M325.697 -119.074V199.655" stroke="#6DC28B" stroke-width="0.5"/>
<path d="M321.697 -119.074V199.655" stroke="#6DC28B" stroke-width="0.5"/>
<path d="M317.697 -119.074V199.655" stroke="#6DC28B" stroke-width="0.5"/>
<path d="M313.697 -119.074V199.655" stroke="#6DC28B" stroke-width="0.5"/>
<path d="M309.697 -119.074V199.655" stroke="#6DC28B" stroke-width="0.5"/>
<path d="M305.697 -119.074V199.655" stroke="#6DC28B" stroke-width="0.5"/>
<path d="M301.697 -119.074V199.655" stroke="#6DC28B" stroke-width="0.5"/>
<path d="M297.697 -119.074V199.655" stroke="#6DC28B" stroke-width="0.5"/>
<path d="M293.697 -119.074V199.655" stroke="#6DC28B" stroke-width="0.5"/>
<path d="M289.697 -119.074V199.655" stroke="#6DC28B" stroke-width="0.5"/>
<path d="M285.697 -119.074V199.655" stroke="#6DC28B" stroke-width="0.5"/>
<path d="M281.697 -119.074V199.655" stroke="#6DC28B" stroke-width="0.5"/>
<path d="M277.697 -119.074V199.655" stroke="#6DC28B" stroke-width="0.5"/>
<path d="M273.697 -119.074V199.655" stroke="#6DC28B" stroke-width="0.5"/>
<path d="M269.697 -119.074V199.655" stroke="#6DC28B" stroke-width="0.5"/>
<path d="M265.697 -119.074V199.655" stroke="#6DC28B" stroke-width="0.5"/>
<path d="M261.697 -119.074V199.655" stroke="#6DC28B" stroke-width="0.5"/>
<path d="M257.697 -119.074V199.655" stroke="#6DC28B" stroke-width="0.5"/>
<path d="M253.697 -119.074L253.697 199.655" stroke="#6DC28B" stroke-width="0.5"/>
<path d="M249.697 -119.074L249.697 199.655" stroke="#6DC28B" stroke-width="0.5"/>
<path d="M245.697 -119.074L245.697 199.655" stroke="#6DC28B" stroke-width="0.5"/>
<path d="M241.697 -119.074L241.697 199.655" stroke="#6DC28B" stroke-width="0.5"/>
<path d="M237.697 -119.074L237.697 199.655" stroke="#6DC28B" stroke-width="0.5"/>
<path d="M233.697 -119.074L233.697 199.655" stroke="#6DC28B" stroke-width="0.5"/>
<path d="M229.697 -119.074L229.697 199.655" stroke="#6DC28B" stroke-width="0.5"/>
<path d="M225.697 -119.074L225.697 199.655" stroke="#6DC28B" stroke-width="0.5"/>
<path d="M221.697 -119.074L221.697 199.655" stroke="#6DC28B" stroke-width="0.5"/>
<path d="M217.697 -119.074L217.697 199.655" stroke="#6DC28B" stroke-width="0.5"/>
<path d="M213.697 -119.074L213.697 199.655" stroke="#6DC28B" stroke-width="0.5"/>
<path d="M209.697 -119.074L209.697 199.655" stroke="#6DC28B" stroke-width="0.5"/>
<path d="M205.697 -119.074L205.697 199.655" stroke="#6DC28B" stroke-width="0.5"/>
<path d="M201.697 -119.074L201.697 199.655" stroke="#6DC28B" stroke-width="0.5"/>
<path d="M197.697 -119.074L197.697 199.655" stroke="#6DC28B" stroke-width="0.5"/>
<path d="M193.697 -119.074L193.697 199.655" stroke="#6DC28B" stroke-width="0.5"/>
<path d="M189.697 -119.074L189.697 199.655" stroke="#6DC28B" stroke-width="0.5"/>
<path d="M185.697 -119.074L185.697 199.655" stroke="#6DC28B" stroke-width="0.5"/>
<path d="M181.697 -119.074L181.697 199.655" stroke="#6DC28B" stroke-width="0.5"/>
<path d="M177.697 -119.074L177.697 199.655" stroke="#6DC28B" stroke-width="0.5"/>
<path d="M173.697 -119.074L173.697 199.655" stroke="#6DC28B" stroke-width="0.5"/>
<path d="M169.697 -119.074L169.697 199.655" stroke="#6DC28B" stroke-width="0.5"/>
<path d="M165.697 -119.074L165.697 199.655" stroke="#6DC28B" stroke-width="0.5"/>
<path d="M161.697 -119.074L161.697 199.655" stroke="#6DC28B" stroke-width="0.5"/>
<path d="M157.697 -119.074L157.697 199.655" stroke="#6DC28B" stroke-width="0.5"/>
<path d="M153.697 -119.074L153.697 199.655" stroke="#6DC28B" stroke-width="0.5"/>
<path d="M149.697 -119.074L149.697 199.655" stroke="#6DC28B" stroke-width="0.5"/>
<path d="M145.697 -119.074L145.697 199.655" stroke="#6DC28B" stroke-width="0.5"/>
<path d="M141.697 -119.074L141.697 199.655" stroke="#6DC28B" stroke-width="0.5"/>
<path d="M137.697 -119.074L137.697 199.655" stroke="#6DC28B" stroke-width="0.5"/>
<path d="M133.697 -119.074L133.697 199.655" stroke="#6DC28B" stroke-width="0.5"/>
<path d="M129.697 -119.074L129.697 199.655" stroke="#6DC28B" stroke-width="0.5"/>
<path d="M125.697 -119.074L125.697 199.655" stroke="#6DC28B" stroke-width="0.5"/>
<path d="M121.697 -119.074L121.697 199.655" stroke="#6DC28B" stroke-width="0.5"/>
<path d="M117.697 -119.074L117.697 199.655" stroke="#6DC28B" stroke-width="0.5"/>
<path d="M113.697 -119.074L113.697 199.655" stroke="#6DC28B" stroke-width="0.5"/>
<path d="M109.697 -119.074L109.697 199.655" stroke="#6DC28B" stroke-width="0.5"/>
<path d="M105.697 -119.074L105.697 199.655" stroke="#6DC28B" stroke-width="0.5"/>
<path d="M101.697 -119.074L101.697 199.655" stroke="#6DC28B" stroke-width="0.5"/>
<path d="M97.6965 -119.074L97.6965 199.655" stroke="#6DC28B" stroke-width="0.5"/>
<path d="M93.6965 -119.074L93.6965 199.655" stroke="#6DC28B" stroke-width="0.5"/>
<path d="M89.6965 -119.074L89.6965 199.655" stroke="#6DC28B" stroke-width="0.5"/>
<path d="M85.6965 -119.074L85.6965 199.655" stroke="#6DC28B" stroke-width="0.5"/>
<path d="M81.6965 -119.074L81.6965 199.655" stroke="#6DC28B" stroke-width="0.5"/>
<path d="M77.6965 -119.074L77.6965 199.655" stroke="#6DC28B" stroke-width="0.5"/>
<path d="M73.6965 -119.074L73.6965 199.655" stroke="#6DC28B" stroke-width="0.5"/>
<path d="M69.6965 -119.074L69.6965 199.655" stroke="#6DC28B" stroke-width="0.5"/>
<path d="M65.6965 -119.074L65.6965 199.655" stroke="#6DC28B" stroke-width="0.5"/>
<path d="M61.6965 -119.074L61.6965 199.655" stroke="#6DC28B" stroke-width="0.5"/>
<path d="M57.6965 -119.074L57.6965 199.655" stroke="#6DC28B" stroke-width="0.5"/>
<path d="M53.6965 -119.074L53.6965 199.655" stroke="#6DC28B" stroke-width="0.5"/>
<path d="M49.6965 -119.074L49.6965 199.655" stroke="#6DC28B" stroke-width="0.5"/>
<path d="M45.6965 -119.074L45.6965 199.655" stroke="#6DC28B" stroke-width="0.5"/>
<path d="M41.6965 -119.074L41.6965 199.655" stroke="#6DC28B" stroke-width="0.5"/>
<path d="M37.6965 -119.074L37.6965 199.655" stroke="#6DC28B" stroke-width="0.5"/>
<path d="M33.6965 -119.074L33.6965 199.655" stroke="#6DC28B" stroke-width="0.5"/>
<path d="M29.6965 -119.074L29.6965 199.655" stroke="#6DC28B" stroke-width="0.5"/>
<path d="M25.6965 -119.074L25.6965 199.655" stroke="#6DC28B" stroke-width="0.5"/>
<path d="M21.6965 -119.074L21.6965 199.655" stroke="#6DC28B" stroke-width="0.5"/>
<path d="M17.6965 -119.074L17.6965 199.655" stroke="#6DC28B" stroke-width="0.5"/>
<path d="M13.6965 -119.074L13.6965 199.655" stroke="#6DC28B" stroke-width="0.5"/>
<path d="M9.69653 -119.074L9.69653 199.655" stroke="#6DC28B" stroke-width="0.5"/>
<path d="M5.69653 -119.074L5.69653 199.655" stroke="#6DC28B" stroke-width="0.5"/>
<path d="M1.69653 -119.074L1.69653 199.655" stroke="#6DC28B" stroke-width="0.5"/>
</g>
<g filter="url(#filter3_f_9892_83320)">
<path d="M192.474 220.307C193.053 220.772 193.696 221 194.339 221C194.981 220.992 195.619 220.748 196.193 220.268L214.714 204.956C219.964 200.624 224.076 195.779 227.278 190.14C227.558 189.646 227.833 189.148 228.103 188.643C239.611 167.145 218.171 146.176 193.787 146.392C169.568 146.606 148.528 167.667 160.085 188.95C160.415 189.557 160.752 190.156 161.096 190.746C164.335 196.307 168.483 201.08 173.786 205.334L192.474 220.307Z" fill="#6DC28B" fill-opacity="0.3"/>
</g>
<g filter="url(#filter4_f_9892_83320)">
<path d="M191.607 220.006C192.572 220.512 193.642 220.76 194.712 220.76C195.782 220.751 196.843 220.486 197.8 219.964L228.638 203.318C237.38 198.608 244.227 193.342 249.559 187.211C268.525 165.398 243.987 139.361 215.082 139.528L173.261 139.77C144.335 139.938 120.096 166.294 139.361 187.87C144.754 193.916 151.661 199.105 160.491 203.729L191.607 220.006Z" fill="#0A0D0F"/>
</g>
<path d="M188.902 53.7695C191.84 52.7458 195.1 52.6673 198.128 53.5312L198.731 53.7168H198.732L253.498 71.6445V71.6455C256.492 72.6211 259.615 74.4595 261.986 76.8008C264.287 79.073 265.834 81.7706 265.943 84.5713L265.949 84.8428L266.297 138.303C266.401 153.839 258.463 169.427 247.921 181.541L246.894 182.702C242.008 188.126 235.768 192.82 227.831 197.036L227.057 197.442L197.61 212.789L197.608 212.79C196.768 213.233 195.834 213.458 194.889 213.466C194.061 213.465 193.236 213.303 192.475 212.976L192.152 212.825L162.44 197.818C154.312 193.709 147.917 189.122 142.887 183.82L142.405 183.306C131.346 171.348 122.089 155.609 121.708 139.81L121.697 139.057L121.348 85.6367L121.351 85.3662C121.435 82.5786 123.105 79.8782 125.554 77.582C128.074 75.2198 131.355 73.351 134.341 72.3301L134.34 72.3291L188.898 53.7705L188.902 53.7695Z" fill="#0A0D0F" stroke="url(#paint1_linear_9892_83320)"/>
<g filter="url(#filter5_i_9892_83320)">
<path d="M194.472 205.999C193.552 205.999 192.632 205.792 191.802 205.371L165.051 191.796C157.46 187.94 151.522 183.612 146.885 178.571C136.737 167.545 129.127 153.392 129.037 138.71L128.723 90.3872C128.686 84.8101 134.321 79.8043 139.811 77.9191L188.93 61.1307C191.847 60.1095 195.1 60.0953 198.069 61.0807L247.375 77.2978C252.895 79.1045 258.59 84.0746 258.62 89.6446L258.934 138.003C259.031 152.664 251.616 166.874 241.624 178.021C237.04 183.134 231.154 187.526 223.638 191.453L197.127 205.335C196.304 205.771 195.392 205.992 194.472 205.999Z" fill="#060809"/>
</g>
<path d="M189.095 61.603C191.73 60.6806 194.654 60.6097 197.371 61.3882L197.912 61.5552L197.913 61.5562L247.219 77.7729H247.22C249.906 78.6523 252.64 80.3048 254.699 82.4097C256.696 84.4516 258.021 86.8781 258.115 89.4028L258.12 89.647V89.6479L258.434 138.006C258.527 152.047 251.646 165.714 242.176 176.639L241.252 177.687C237 182.43 231.606 186.556 224.79 190.272L223.407 191.01L196.895 204.892L196.893 204.893C196.144 205.29 195.311 205.492 194.469 205.499C193.73 205.498 192.994 205.353 192.316 205.06L192.028 204.925L165.277 191.35H165.278C157.964 187.635 152.211 183.489 147.687 178.698L147.253 178.233V178.232L146.314 177.195C136.847 166.557 129.852 153.207 129.547 139.387L129.538 138.708V138.707L129.223 90.3843C129.206 87.7685 130.521 85.2414 132.556 83.1147C134.589 80.9908 137.3 79.31 139.973 78.3921L139.972 78.3911L189.092 61.604L189.095 61.603Z" stroke="url(#paint2_linear_9892_83320)"/>
<path d="M189.416 66.7514C191.844 65.8997 194.539 65.8341 197.043 66.5532L197.542 66.7075H197.542L243.126 81.727C245.606 82.54 248.166 84.0686 250.103 86.0151C251.922 87.8433 253.152 89.9988 253.309 92.2407L253.327 92.6899V92.6909L253.617 137.477C253.703 150.47 247.116 163.751 238.352 173.904L237.497 174.876C233.569 179.265 228.586 183.084 222.288 186.524L221.009 187.206V187.207L196.5 200.064L196.498 200.065C195.811 200.429 195.047 200.614 194.274 200.621C193.596 200.62 192.921 200.487 192.299 200.218L192.036 200.094L167.304 187.522H167.305C160.547 184.082 155.232 180.245 151.053 175.812L150.653 175.381L150.652 175.38C141.475 165.393 134.812 151.993 134.528 138.756L134.519 138.125L134.228 93.3715C134.212 90.957 135.391 88.6247 137.233 86.6616C139.072 84.7009 141.537 83.148 144 82.3002L144.001 82.3012L189.413 66.7524L189.416 66.7514Z" fill="#0A0D0F" stroke="url(#paint3_linear_9892_83320)"/>
<g filter="url(#filter6_i_9892_83320)">
<path d="M194.204 196.198C193.414 196.198 192.623 196.02 191.91 195.659L168.928 184.031C162.407 180.727 157.306 177.02 153.322 172.702C144.604 163.257 138.899 150.321 138.822 137.744L138.552 96.3494C138.52 91.5719 142.656 87.2838 147.372 85.6689L189.571 71.2874C192.077 70.4127 194.872 70.4005 197.423 71.2446L239.782 85.1367C244.524 86.6843 248.711 90.9419 248.737 95.7132L249.007 137.139C249.09 149.697 243.297 162.682 234.713 172.231C230.775 176.611 225.718 180.373 219.261 183.737L196.485 195.629C195.778 196.002 194.994 196.192 194.204 196.198Z" fill="#060809"/>
</g>
<path d="M189.736 71.7599C191.985 70.9745 194.483 70.9141 196.804 71.5773L197.266 71.7189L197.267 71.7199L239.626 85.6115L239.627 85.6125C244.098 87.0721 247.965 90.9783 248.224 95.2971L248.238 95.716V95.717L248.507 137.142C248.587 149.165 243.21 161.618 235.131 170.998L234.341 171.897C230.694 175.952 226.068 179.482 220.217 182.662L219.031 183.294H219.03L196.253 195.186L196.251 195.187C195.618 195.521 194.914 195.691 194.201 195.696C193.576 195.696 192.953 195.575 192.379 195.327L192.136 195.213L169.155 183.584C163.079 180.507 158.261 177.086 154.441 173.155L153.69 172.362C145.179 163.143 139.575 150.577 139.329 138.324L139.323 137.741L139.052 96.3459C139.022 91.8572 142.942 87.7144 147.534 86.1418L147.533 86.1408L189.733 71.7609L189.736 71.7599Z" stroke="url(#paint4_linear_9892_83320)"/>
<path d="M190.043 76.5874C192.122 75.866 194.429 75.8112 196.573 76.4204L197 76.5513H197L236.261 89.3569H236.262C240.334 90.6788 243.107 94.2332 243.296 98.2437L243.306 98.6333V98.6343L243.556 136.819C243.63 147.915 239.531 159.414 232.121 168.038L231.393 168.864C228.016 172.598 223.731 175.849 218.311 178.779L217.212 179.361H217.211L196.102 190.323L196.1 190.324C195.518 190.629 194.871 190.784 194.215 190.79C193.64 190.789 193.068 190.678 192.541 190.452L192.317 190.348L171.017 179.629C165.389 176.794 160.927 173.643 157.389 170.023L156.694 169.292C148.953 160.952 144.601 149.582 144.272 138.447L144.252 137.371L144.002 99.2134C143.974 95.0397 146.748 91.2693 150.929 89.8452L150.928 89.8442L190.04 76.5894L190.043 76.5874Z" fill="#0A0D0F" stroke="url(#paint5_linear_9892_83320)"/>
<g clip-path="url(#clip1_9892_83320)">
<path d="M201.947 137.499H201.19V138.789H199.901V139.545H201.19V140.834H201.947V139.545H203.236V138.789H201.947V137.499Z" fill="#6DC28B"/>
<path fill-rule="evenodd" clip-rule="evenodd" d="M194.158 107.763C180.499 107.763 169.426 118.835 169.426 132.494C169.426 146.153 180.499 157.226 194.158 157.226C207.817 157.226 218.889 146.153 218.889 132.494C218.889 118.835 207.817 107.763 194.158 107.763ZM199.808 134.866C198.338 135.47 197.247 136.806 196.986 138.42L193.233 137.995C193.221 137.994 193.213 137.984 193.213 137.973V120.018C193.213 120.01 193.218 120.002 193.225 119.999C193.237 119.993 193.25 119.998 193.255 120.009L199.808 134.866ZM186.666 138.92C186.665 138.916 186.665 138.911 186.667 138.907L192.233 126.291C192.238 126.28 192.251 126.275 192.262 126.28C192.27 126.284 192.275 126.292 192.275 126.3L192.274 137.948C192.275 137.959 192.267 137.969 192.256 137.97L186.691 138.939C186.679 138.941 186.667 138.932 186.666 138.92ZM192.283 142.613C192.278 142.615 192.272 142.615 192.267 142.613L186.695 139.805C186.683 139.8 186.678 139.787 186.683 139.776C186.687 139.767 186.695 139.762 186.704 139.762H196.965C197.025 140.225 197.152 140.665 197.336 141.074L192.283 142.613ZM201.574 143.116C199.392 143.116 197.623 141.347 197.623 139.165C197.623 136.984 199.392 135.215 201.574 135.215C203.756 135.215 205.525 136.984 205.525 139.165C205.525 141.347 203.756 143.116 201.574 143.116ZM191.404 117.685L194.129 113.143L196.855 117.685H191.404ZM191.404 148.102L194.129 152.644L196.855 148.102H191.404ZM213.857 132.722L209.315 129.997V135.447L213.857 132.722ZM179 129.997L174.458 132.722L179 135.447V129.997Z" fill="#6DC28B"/>
</g>
<rect width="49" height="43" transform="matrix(-1 0 0 1 390 150)" fill="url(#paint6_linear_9892_83320)"/>
<defs>
<filter id="filter0_d_9892_83320" x="216.525" y="128.713" width="184.46" height="53.4559" filterUnits="userSpaceOnUse" color-interpolation-filters="sRGB">
<feFlood flood-opacity="0" result="BackgroundImageFix"/>
<feColorMatrix in="SourceAlpha" type="matrix" values="0 0 0 0 0 0 0 0 0 0 0 0 0 0 0 0 0 0 127 0" result="hardAlpha"/>
<feOffset dy="1"/>
<feGaussianBlur stdDeviation="2"/>
<feComposite in2="hardAlpha" operator="out"/>
<feColorMatrix type="matrix" values="0 0 0 0 0 0 0 0 0 0 0 0 0 0 0 0 0 0 1 0"/>
<feBlend mode="normal" in2="BackgroundImageFix" result="effect1_dropShadow_9892_83320"/>
<feBlend mode="normal" in="SourceGraphic" in2="effect1_dropShadow_9892_83320" result="shape"/>
</filter>
<filter id="filter1_d_9892_83320" x="216.525" y="49.4366" width="184.46" height="53.4559" filterUnits="userSpaceOnUse" color-interpolation-filters="sRGB">
<feFlood flood-opacity="0" result="BackgroundImageFix"/>
<feColorMatrix in="SourceAlpha" type="matrix" values="0 0 0 0 0 0 0 0 0 0 0 0 0 0 0 0 0 0 127 0" result="hardAlpha"/>
<feOffset dy="1"/>
<feGaussianBlur stdDeviation="2"/>
<feComposite in2="hardAlpha" operator="out"/>
<feColorMatrix type="matrix" values="0 0 0 0 0 0 0 0 0 0 0 0 0 0 0 0 0 0 1 0"/>
<feBlend mode="normal" in2="BackgroundImageFix" result="effect1_dropShadow_9892_83320"/>
<feBlend mode="normal" in="SourceGraphic" in2="effect1_dropShadow_9892_83320" result="shape"/>
</filter>
<filter id="filter2_d_9892_83320" x="-14.2544" y="53.7676" width="415.16" height="128.28" filterUnits="userSpaceOnUse" color-interpolation-filters="sRGB">
<feFlood flood-opacity="0" result="BackgroundImageFix"/>
<feColorMatrix in="SourceAlpha" type="matrix" values="0 0 0 0 0 0 0 0 0 0 0 0 0 0 0 0 0 0 127 0" result="hardAlpha"/>
<feOffset dy="1"/>
<feGaussianBlur stdDeviation="2"/>
<feComposite in2="hardAlpha" operator="out"/>
<feColorMatrix type="matrix" values="0 0 0 0 0 0 0 0 0 0 0 0 0 0 0 0 0 0 1 0"/>
<feBlend mode="normal" in2="BackgroundImageFix" result="effect1_dropShadow_9892_83320"/>
<feBlend mode="normal" in="SourceGraphic" in2="effect1_dropShadow_9892_83320" result="shape"/>
</filter>
<filter id="filter3_f_9892_83320" x="76.8247" y="66.3901" width="234.476" height="234.61" filterUnits="userSpaceOnUse" color-interpolation-filters="sRGB">
<feFlood flood-opacity="0" result="BackgroundImageFix"/>
<feBlend mode="normal" in="SourceGraphic" in2="BackgroundImageFix" result="shape"/>
<feGaussianBlur stdDeviation="40" result="effect1_foregroundBlur_9892_83320"/>
</filter>
<filter id="filter4_f_9892_83320" x="126.462" y="133.528" width="135.778" height="93.2324" filterUnits="userSpaceOnUse" color-interpolation-filters="sRGB">
<feFlood flood-opacity="0" result="BackgroundImageFix"/>
<feBlend mode="normal" in="SourceGraphic" in2="BackgroundImageFix" result="shape"/>
<feGaussianBlur stdDeviation="3" result="effect1_foregroundBlur_9892_83320"/>
</filter>
<filter id="filter5_i_9892_83320" x="128.723" y="60.353" width="130.212" height="146.646" filterUnits="userSpaceOnUse" color-interpolation-filters="sRGB">
<feFlood flood-opacity="0" result="BackgroundImageFix"/>
<feBlend mode="normal" in="SourceGraphic" in2="BackgroundImageFix" result="shape"/>
<feColorMatrix in="SourceAlpha" type="matrix" values="0 0 0 0 0 0 0 0 0 0 0 0 0 0 0 0 0 0 127 0" result="hardAlpha"/>
<feOffset dy="1"/>
<feGaussianBlur stdDeviation="1"/>
<feComposite in2="hardAlpha" operator="arithmetic" k2="-1" k3="1"/>
<feColorMatrix type="matrix" values="0 0 0 0 0 0 0 0 0 0 0 0 0 0 0 0 0 0 1 0"/>
<feBlend mode="normal" in2="shape" result="effect1_innerShadow_9892_83320"/>
</filter>
<filter id="filter6_i_9892_83320" x="138.552" y="70.6213" width="110.456" height="126.576" filterUnits="userSpaceOnUse" color-interpolation-filters="sRGB">
<feFlood flood-opacity="0" result="BackgroundImageFix"/>
<feBlend mode="normal" in="SourceGraphic" in2="BackgroundImageFix" result="shape"/>
<feColorMatrix in="SourceAlpha" type="matrix" values="0 0 0 0 0 0 0 0 0 0 0 0 0 0 0 0 0 0 127 0" result="hardAlpha"/>
<feOffset dy="1"/>
<feGaussianBlur stdDeviation="1"/>
<feComposite in2="hardAlpha" operator="arithmetic" k2="-1" k3="1"/>
<feColorMatrix type="matrix" values="0 0 0 0 0 0 0 0 0 0 0 0 0 0 0 0 0 0 1 0"/>
<feBlend mode="normal" in2="shape" result="effect1_innerShadow_9892_83320"/>
</filter>
<linearGradient id="paint0_linear_9892_83320" x1="68.2998" y1="-37.5494" x2="193.325" y2="114.178" gradientUnits="userSpaceOnUse">
<stop stop-color="white"/>
<stop offset="1" stop-color="#F5F6F7" stop-opacity="0.24"/>
</linearGradient>
<linearGradient id="paint1_linear_9892_83320" x1="193.823" y1="133.148" x2="193.823" y2="213.966" gradientUnits="userSpaceOnUse">
<stop stop-color="#3B3D3F" stop-opacity="0.5"/>
<stop offset="1" stop-color="#3B3D3F" stop-opacity="0.89"/>
</linearGradient>
<linearGradient id="paint2_linear_9892_83320" x1="193.809" y1="59.6635" x2="193.874" y2="205.999" gradientUnits="userSpaceOnUse">
<stop stop-color="#1E1E1F" stop-opacity="0"/>
<stop offset="1" stop-color="#1E1E1F" stop-opacity="0.8"/>
</linearGradient>
<linearGradient id="paint3_linear_9892_83320" x1="193.923" y1="65.559" x2="193.923" y2="201.122" gradientUnits="userSpaceOnUse">
<stop stop-color="#3B3D3F" stop-opacity="0.5"/>
<stop offset="1" stop-color="#3B3D3F" stop-opacity="0.8"/>
</linearGradient>
<linearGradient id="paint4_linear_9892_83320" x1="193.763" y1="70.0268" x2="193.82" y2="196.198" gradientUnits="userSpaceOnUse">
<stop stop-color="#1E1E1F" stop-opacity="0"/>
<stop offset="1" stop-color="#1E1E1F" stop-opacity="0.8"/>
</linearGradient>
<linearGradient id="paint5_linear_9892_83320" x1="193.78" y1="75.5015" x2="193.78" y2="191.291" gradientUnits="userSpaceOnUse">
<stop stop-color="#3B3D3F" stop-opacity="0.2"/>
<stop offset="1" stop-color="#3B3D3F" stop-opacity="0.4"/>
</linearGradient>
<linearGradient id="paint6_linear_9892_83320" x1="49" y1="21.8116" x2="3.62963" y2="21.8116" gradientUnits="userSpaceOnUse">
<stop stop-color="#13181C" stop-opacity="0"/>
<stop offset="1" stop-color="#13181C"/>
</linearGradient>
<clipPath id="clip0_9892_83320">
<rect width="204" height="133" fill="white" transform="matrix(-1 0 0 1 194.185 56.4375)"/>
</clipPath>
<clipPath id="clip1_9892_83320">
<rect width="51" height="51" fill="white" transform="translate(168.629 107.219)"/>
</clipPath>
</defs>
</svg>
