<svg width="388" height="295" viewBox="0 0 388 295" fill="none" xmlns="http://www.w3.org/2000/svg">
<mask id="mask0_9892_83137" style="mask-type:alpha" maskUnits="userSpaceOnUse" x="-2" y="-37" width="394" height="157">
<path d="M58.5073 92.2747L82.2976 116.077C84.1731 117.953 86.7174 119.008 89.3704 119.008H306.49C309.558 119.008 312.456 117.599 314.352 115.187L332.414 92.2046C334.31 89.7923 337.209 88.3838 340.277 88.3838H381.52C387.043 88.3838 391.52 83.9066 391.52 78.3838V-26.1928C391.52 -31.7156 387.043 -36.1928 381.52 -36.1928L343.828 -36.1933H311.349H117.015H61.5107H8.45648C2.93362 -36.1933 -1.54352 -31.7162 -1.54352 -26.1933V79.344C-1.54352 84.8669 2.93362 89.344 8.45648 89.344H51.4345C54.0875 89.344 56.6318 90.3983 58.5073 92.2747Z" fill="url(#paint0_radial_9892_83137)"/>
</mask>
<g mask="url(#mask0_9892_83137)">
<path d="M0.308105 -79.3652L0.308105 239.364" stroke="#FF5500" stroke-width="0.5"/>
<path d="M4.30811 -79.3652L4.30811 239.364" stroke="#FF5500" stroke-width="0.5"/>
<path d="M8.30811 -79.3652L8.30811 239.364" stroke="#FF5500" stroke-width="0.5"/>
<path d="M12.3081 -79.3652L12.3081 239.364" stroke="#FF5500" stroke-width="0.5"/>
<path d="M16.3081 -79.3652L16.3081 239.364" stroke="#FF5500" stroke-width="0.5"/>
<path d="M20.3081 -79.3652L20.3081 239.364" stroke="#FF5500" stroke-width="0.5"/>
<path d="M24.3081 -79.3652L24.3081 239.364" stroke="#FF5500" stroke-width="0.5"/>
<path d="M28.3081 -79.3652L28.3081 239.364" stroke="#FF5500" stroke-width="0.5"/>
<path d="M32.3081 -79.3652L32.3081 239.364" stroke="#FF5500" stroke-width="0.5"/>
<path d="M36.3081 -79.3652L36.3081 239.364" stroke="#FF5500" stroke-width="0.5"/>
<path d="M40.3081 -79.3652L40.3081 239.364" stroke="#FF5500" stroke-width="0.5"/>
<path d="M44.3081 -79.3652L44.3081 239.364" stroke="#FF5500" stroke-width="0.5"/>
<path d="M48.3081 -79.3652L48.3081 239.364" stroke="#FF5500" stroke-width="0.5"/>
<path d="M52.3081 -79.3652L52.3081 239.364" stroke="#FF5500" stroke-width="0.5"/>
<path d="M56.3081 -79.3652L56.3081 239.364" stroke="#FF5500" stroke-width="0.5"/>
<path d="M60.3081 -79.3652L60.3081 239.364" stroke="#FF5500" stroke-width="0.5"/>
<path d="M64.3081 -79.3652L64.3081 239.364" stroke="#FF5500" stroke-width="0.5"/>
<path d="M68.3081 -79.3652L68.3081 239.364" stroke="#FF5500" stroke-width="0.5"/>
<path d="M72.3081 -79.3652L72.3081 239.364" stroke="#FF5500" stroke-width="0.5"/>
<path d="M76.3081 -79.3652L76.3081 239.364" stroke="#FF5500" stroke-width="0.5"/>
<path d="M80.3081 -79.3652L80.3081 239.364" stroke="#FF5500" stroke-width="0.5"/>
<path d="M84.3081 -79.3652L84.3081 239.364" stroke="#FF5500" stroke-width="0.5"/>
<path d="M88.3081 -79.3652L88.3081 239.364" stroke="#FF5500" stroke-width="0.5"/>
<path d="M92.3081 -79.3652L92.3081 239.364" stroke="#FF5500" stroke-width="0.5"/>
<path d="M96.3081 -79.3652L96.3081 239.364" stroke="#FF5500" stroke-width="0.5"/>
<path d="M100.308 -79.3652L100.308 239.364" stroke="#FF5500" stroke-width="0.5"/>
<path d="M104.308 -79.3652L104.308 239.364" stroke="#FF5500" stroke-width="0.5"/>
<path d="M108.308 -79.3652L108.308 239.364" stroke="#FF5500" stroke-width="0.5"/>
<path d="M112.308 -79.3652L112.308 239.364" stroke="#FF5500" stroke-width="0.5"/>
<path d="M116.308 -79.3652L116.308 239.364" stroke="#FF5500" stroke-width="0.5"/>
<path d="M120.308 -79.3652L120.308 239.364" stroke="#FF5500" stroke-width="0.5"/>
<path d="M124.308 -79.3652L124.308 239.364" stroke="#FF5500" stroke-width="0.5"/>
<path d="M128.308 -79.3652L128.308 239.364" stroke="#FF5500" stroke-width="0.5"/>
<path d="M132.308 -79.3652L132.308 239.364" stroke="#FF5500" stroke-width="0.5"/>
<path d="M136.308 -79.3652L136.308 239.364" stroke="#FF5500" stroke-width="0.5"/>
<path d="M140.308 -79.3652L140.308 239.364" stroke="#FF5500" stroke-width="0.5"/>
<path d="M144.308 -79.3652L144.308 239.364" stroke="#FF5500" stroke-width="0.5"/>
<path d="M148.308 -79.3652L148.308 239.364" stroke="#FF5500" stroke-width="0.5"/>
<path d="M152.308 -79.3652L152.308 239.364" stroke="#FF5500" stroke-width="0.5"/>
<path d="M156.308 -79.3652L156.308 239.364" stroke="#FF5500" stroke-width="0.5"/>
<path d="M160.308 -79.3652L160.308 239.364" stroke="#FF5500" stroke-width="0.5"/>
<path d="M164.308 -79.3652L164.308 239.364" stroke="#FF5500" stroke-width="0.5"/>
<path d="M168.308 -79.3652L168.308 239.364" stroke="#FF5500" stroke-width="0.5"/>
<path d="M172.308 -79.3652L172.308 239.364" stroke="#FF5500" stroke-width="0.5"/>
<path d="M176.308 -79.3652L176.308 239.364" stroke="#FF5500" stroke-width="0.5"/>
<path d="M180.308 -79.3652L180.308 239.364" stroke="#FF5500" stroke-width="0.5"/>
<path d="M184.308 -79.3652L184.308 239.364" stroke="#FF5500" stroke-width="0.5"/>
<path d="M188.308 -79.3652L188.308 239.364" stroke="#FF5500" stroke-width="0.5"/>
<path d="M192.308 -79.3652L192.308 239.364" stroke="#FF5500" stroke-width="0.5"/>
<path d="M196.308 -79.3652L196.308 239.364" stroke="#FF5500" stroke-width="0.5"/>
<path d="M200.308 -79.3652L200.308 239.364" stroke="#FF5500" stroke-width="0.5"/>
<path d="M204.308 -79.3652L204.308 239.364" stroke="#FF5500" stroke-width="0.5"/>
<path d="M208.308 -79.3652L208.308 239.364" stroke="#FF5500" stroke-width="0.5"/>
<path d="M212.308 -79.3652L212.308 239.364" stroke="#FF5500" stroke-width="0.5"/>
<path d="M216.308 -79.3652L216.308 239.364" stroke="#FF5500" stroke-width="0.5"/>
<path d="M220.308 -79.3652L220.308 239.364" stroke="#FF5500" stroke-width="0.5"/>
<path d="M224.308 -79.3652L224.308 239.364" stroke="#FF5500" stroke-width="0.5"/>
<path d="M228.308 -79.3652L228.308 239.364" stroke="#FF5500" stroke-width="0.5"/>
<path d="M232.308 -79.3652L232.308 239.364" stroke="#FF5500" stroke-width="0.5"/>
<path d="M236.308 -79.3652L236.308 239.364" stroke="#FF5500" stroke-width="0.5"/>
<path d="M240.308 -79.3652L240.308 239.364" stroke="#FF5500" stroke-width="0.5"/>
<path d="M244.308 -79.3652L244.308 239.364" stroke="#FF5500" stroke-width="0.5"/>
<path d="M248.308 -79.3652L248.308 239.364" stroke="#FF5500" stroke-width="0.5"/>
<path d="M252.308 -79.3652L252.308 239.364" stroke="#FF5500" stroke-width="0.5"/>
<path d="M256.308 -79.3652V239.364" stroke="#FF5500" stroke-width="0.5"/>
<path d="M260.308 -79.3652V239.364" stroke="#FF5500" stroke-width="0.5"/>
<path d="M264.308 -79.3652V239.364" stroke="#FF5500" stroke-width="0.5"/>
<path d="M268.308 -79.3652V239.364" stroke="#FF5500" stroke-width="0.5"/>
<path d="M272.308 -79.3652V239.364" stroke="#FF5500" stroke-width="0.5"/>
<path d="M276.308 -79.3652V239.364" stroke="#FF5500" stroke-width="0.5"/>
<path d="M280.308 -79.3652V239.364" stroke="#FF5500" stroke-width="0.5"/>
<path d="M284.308 -79.3652V239.364" stroke="#FF5500" stroke-width="0.5"/>
<path d="M288.308 -79.3652V239.364" stroke="#FF5500" stroke-width="0.5"/>
<path d="M292.308 -79.3652V239.364" stroke="#FF5500" stroke-width="0.5"/>
<path d="M296.308 -79.3652V239.364" stroke="#FF5500" stroke-width="0.5"/>
<path d="M300.308 -79.3652V239.364" stroke="#FF5500" stroke-width="0.5"/>
<path d="M304.308 -79.3652V239.364" stroke="#FF5500" stroke-width="0.5"/>
<path d="M308.308 -79.3652V239.364" stroke="#FF5500" stroke-width="0.5"/>
<path d="M312.308 -79.3652V239.364" stroke="#FF5500" stroke-width="0.5"/>
<path d="M316.308 -79.3652V239.364" stroke="#FF5500" stroke-width="0.5"/>
<path d="M320.308 -79.3652V239.364" stroke="#FF5500" stroke-width="0.5"/>
<path d="M324.308 -79.3652V239.364" stroke="#FF5500" stroke-width="0.5"/>
<path d="M328.308 -79.3652V239.364" stroke="#FF5500" stroke-width="0.5"/>
<path d="M332.308 -79.3652V239.364" stroke="#FF5500" stroke-width="0.5"/>
<path d="M336.308 -79.3652V239.364" stroke="#FF5500" stroke-width="0.5"/>
<path d="M340.308 -79.3652V239.364" stroke="#FF5500" stroke-width="0.5"/>
<path d="M344.308 -79.3652V239.364" stroke="#FF5500" stroke-width="0.5"/>
<path d="M348.308 -79.3652V239.364" stroke="#FF5500" stroke-width="0.5"/>
<path d="M352.308 -79.3652V239.364" stroke="#FF5500" stroke-width="0.5"/>
<path d="M356.308 -79.3652V239.364" stroke="#FF5500" stroke-width="0.5"/>
<path d="M360.308 -79.3652V239.364" stroke="#FF5500" stroke-width="0.5"/>
<path d="M364.308 -79.3652V239.364" stroke="#FF5500" stroke-width="0.5"/>
<path d="M368.308 -79.3652V239.364" stroke="#FF5500" stroke-width="0.5"/>
<path d="M372.308 -79.3652V239.364" stroke="#FF5500" stroke-width="0.5"/>
<path d="M376.308 -79.3652V239.364" stroke="#FF5500" stroke-width="0.5"/>
<path d="M380.308 -79.3652V239.364" stroke="#FF5500" stroke-width="0.5"/>
<path d="M384.308 -79.3652V239.364" stroke="#FF5500" stroke-width="0.5"/>
</g>
<g filter="url(#filter0_d_9892_83137)">
<path d="M58.0454 92.2758L81.8357 116.078C83.7112 117.954 86.2555 119.009 88.9085 119.009H306.028C309.096 119.009 311.994 117.6 313.89 115.188L331.953 92.2056C333.848 89.7933 336.747 88.3848 339.815 88.3848H385.883C388.741 88.3848 391.058 90.702 391.058 93.5603C391.058 96.4186 388.741 98.7358 385.883 98.7358H344.266C341.261 98.7358 338.415 100.087 336.516 102.416L317.338 125.933C315.439 128.261 312.593 129.613 309.588 129.613H85.9226C83.2479 129.613 80.6846 128.541 78.8056 126.638L54.7892 102.306C52.9102 100.402 50.3469 99.331 47.6722 99.331H2.98752C0.22998 99.331 -2.00543 97.0955 -2.00543 94.338C-2.00543 91.5805 0.22998 89.3451 2.98752 89.3451H50.9725C53.6256 89.3451 56.1699 90.3993 58.0454 92.2758Z" fill="#0E1214"/>
</g>
<path d="M-4.02454 94.4883H48.1811C50.7174 94.4883 53.159 95.4521 55.0115 97.1845L81.8808 122.312C83.7333 124.044 86.1748 125.008 88.7111 125.008H306.897C309.862 125.008 312.674 123.692 314.574 121.416L334.887 97.0803C336.787 94.8041 339.599 93.4883 342.564 93.4883H391.535" stroke="#3B3D3F" stroke-dasharray="1 2"/>
<g filter="url(#filter1_d_9892_83137)">
<path d="M58.0454 173.722L81.8357 149.92C83.7112 148.044 86.2555 146.989 88.9085 146.989H306.028C309.096 146.989 311.994 148.398 313.89 150.81L331.953 173.793C333.848 176.205 336.747 177.613 339.815 177.613H385.883C388.741 177.613 391.058 175.296 391.058 172.438C391.058 169.58 388.741 167.262 385.883 167.262H344.266C341.261 167.262 338.415 165.911 336.516 163.582L317.338 140.065C315.439 137.737 312.593 136.385 309.588 136.385H85.8045C83.1997 136.385 80.6977 137.402 78.8308 139.218L53.5315 163.834C51.6646 165.651 49.1627 166.667 46.5579 166.667H2.98752C0.22998 166.667 -2.00543 168.903 -2.00543 171.66C-2.00543 174.418 0.22998 176.653 2.98752 176.653H50.9725C53.6256 176.653 56.1699 175.599 58.0454 173.722Z" fill="#0E1214"/>
</g>
<path d="M395.535 172.008L343.006 172.008C340.124 172.008 337.381 170.764 335.483 168.595L314.735 144.9C312.836 142.732 310.094 141.488 307.211 141.488H88.3708C85.7239 141.488 83.1849 142.537 81.3105 144.406L56.5522 169.089C54.6777 170.958 52.1388 172.008 49.4919 172.008H-0.0239258" stroke="#3B3D3F" stroke-dasharray="1 2"/>
<g filter="url(#filter2_f_9892_83137)">
<path d="M188.105 130.491C191.339 128.624 195.323 128.624 198.557 130.491L224.908 145.705C228.142 147.572 230.134 151.022 230.134 154.756V185.184C230.134 188.918 228.142 192.368 224.908 194.235L198.557 209.449C195.323 211.316 191.339 211.316 188.105 209.449L161.754 194.235C158.52 192.368 156.528 188.918 156.528 185.184V154.756C156.528 151.022 158.52 147.572 161.754 145.705L188.105 130.491Z" fill="#FF5500" fill-opacity="0.35"/>
</g>
<g filter="url(#filter3_f_9892_83137)">
<path d="M188.105 60.6263C191.339 58.7592 195.323 58.7592 198.557 60.6263L258.255 95.093C261.489 96.96 263.481 100.41 263.481 104.145V173.078C263.481 176.812 261.489 180.262 258.255 182.13L198.557 216.596C195.323 218.463 191.339 218.463 188.105 216.596L128.407 182.13C125.173 180.262 123.181 176.812 123.181 173.078V104.145C123.181 100.41 125.173 96.96 128.407 95.093L188.105 60.6263Z" fill="#0A0D0F"/>
</g>
<path d="M191.267 54.7393C192.458 54.4862 193.684 54.4547 194.883 54.6445L195.396 54.7393C196.535 54.9814 197.63 55.5058 199.404 56.502L201.431 57.6631L254.858 88.5088C257.742 90.1741 259.183 91.0123 260.208 92.0615L260.408 92.2744C261.222 93.1793 261.863 94.2254 262.298 95.3594L262.472 95.8506C262.952 97.3275 262.958 98.9867 262.958 102.539V164.231C262.958 167.562 262.953 169.228 262.557 170.641L262.472 170.92C262.096 172.078 261.511 173.156 260.747 174.1L260.408 174.496C259.628 175.362 258.627 176.048 256.877 177.086L254.858 178.262L201.431 209.107C198.547 210.773 197.101 211.602 195.68 211.965L195.396 212.031C194.205 212.284 192.979 212.316 191.779 212.126L191.267 212.031C190.128 211.789 189.032 211.265 187.258 210.269L185.231 209.107L131.804 178.262C128.92 176.596 127.479 175.758 126.454 174.709L126.254 174.496C125.44 173.591 124.799 172.545 124.364 171.411L124.19 170.92C123.71 169.443 123.704 167.784 123.704 164.231V102.539C123.704 99.2087 123.709 97.5421 124.105 96.1299L124.19 95.8506C124.566 94.6927 125.151 93.6149 125.916 92.6709L126.254 92.2744C127.034 91.409 128.035 90.7227 129.785 89.6846L131.804 88.5088L185.231 57.6631C188.115 55.9979 189.561 55.1688 190.982 54.8057L191.267 54.7393Z" fill="#0A0D0F" stroke="url(#paint1_linear_9892_83137)" stroke-width="1.04519"/>
<g filter="url(#filter4_i_9892_83137)">
<path d="M191.658 61.71C192.267 61.3582 192.572 61.1824 192.896 61.1135C193.182 61.0526 193.478 61.0526 193.765 61.1135C194.089 61.1824 194.393 61.3582 195.003 61.71L254.562 96.0963C255.171 96.448 255.476 96.6239 255.698 96.8699C255.894 97.0876 256.042 97.3441 256.132 97.6227C256.235 97.9376 256.235 98.2893 256.235 98.9928V167.765C256.235 168.469 256.235 168.82 256.132 169.135C256.042 169.414 255.894 169.67 255.698 169.888C255.476 170.134 255.171 170.31 254.562 170.662L195.003 205.048C194.393 205.4 194.089 205.576 193.765 205.644C193.478 205.705 193.182 205.705 192.896 205.644C192.572 205.576 192.267 205.4 191.658 205.048L132.099 170.662C131.489 170.31 131.185 170.134 130.963 169.888C130.767 169.67 130.619 169.414 130.529 169.135C130.426 168.82 130.426 168.469 130.426 167.765V98.9928C130.426 98.2893 130.426 97.9376 130.529 97.6227C130.619 97.3441 130.767 97.0876 130.963 96.8699C131.185 96.6239 131.489 96.448 132.099 96.0963L191.658 61.71Z" fill="#060809"/>
</g>
<path d="M193.494 61.5991L193.657 61.6245C193.824 61.6602 193.991 61.7373 194.333 61.9292L194.742 62.1626L254.301 96.5493C254.781 96.8263 255.022 96.9692 255.177 97.0952L255.309 97.2192C255.419 97.3416 255.51 97.4805 255.577 97.6304L255.635 97.7837C255.706 98.0012 255.712 98.254 255.712 98.9927V167.765C255.712 168.319 255.709 168.6 255.677 168.797L255.635 168.974C255.584 169.131 255.509 169.278 255.413 169.411L255.309 169.539C255.194 169.666 255.044 169.771 254.707 169.972L254.301 170.209L194.742 204.595C194.262 204.872 194.017 205.01 193.831 205.082L193.657 205.133C193.495 205.168 193.33 205.176 193.167 205.159L193.004 205.133C192.837 205.098 192.67 205.021 192.328 204.829L191.919 204.595L132.36 170.209C131.88 169.932 131.639 169.789 131.484 169.663L131.352 169.539H131.351C131.241 169.416 131.151 169.277 131.084 169.127L131.026 168.974C130.955 168.757 130.949 168.504 130.949 167.765V98.9927C130.949 98.4383 130.952 98.1578 130.984 97.9604L131.026 97.7837C131.094 97.5749 131.205 97.3824 131.352 97.2192L131.351 97.2183C131.466 97.0911 131.617 96.986 131.954 96.7856L132.36 96.5493L191.919 62.1626C192.399 61.8856 192.644 61.7486 192.831 61.6772L193.004 61.6245C193.165 61.5903 193.331 61.582 193.494 61.5991Z" stroke="url(#paint2_linear_9892_83137)" stroke-width="1.04519"/>
<path d="M193.495 66.8253L193.657 66.8506C193.825 66.8863 193.992 66.9632 194.334 67.1553L194.742 67.3887L249.776 99.1631C250.256 99.4401 250.497 99.5831 250.652 99.709L250.784 99.8331C250.894 99.9555 250.985 100.094 251.051 100.244L251.11 100.398V100.398C251.18 100.616 251.187 100.868 251.187 101.607V165.154C251.187 165.709 251.183 165.989 251.152 166.187L251.11 166.363C251.059 166.52 250.984 166.667 250.887 166.8L250.784 166.928C250.669 167.055 250.519 167.161 250.182 167.361L249.776 167.599L194.742 199.372C194.262 199.649 194.017 199.787 193.831 199.858L193.657 199.91C193.496 199.944 193.331 199.953 193.167 199.936L193.005 199.91C192.838 199.875 192.671 199.798 192.328 199.606L191.92 199.372L136.886 167.599C136.406 167.322 136.165 167.178 136.01 167.052L135.877 166.928C135.767 166.805 135.678 166.666 135.611 166.517L135.552 166.363C135.482 166.146 135.475 165.893 135.475 165.154V101.607C135.475 101.052 135.479 100.772 135.51 100.574L135.552 100.398C135.603 100.241 135.678 100.094 135.775 99.961L135.877 99.8331C135.992 99.7057 136.142 99.6001 136.48 99.3995L136.886 99.1631L191.92 67.3887C192.4 67.1117 192.645 66.9747 192.832 66.9034L193.005 66.8506C193.166 66.8165 193.332 66.8081 193.495 66.8253Z" fill="#0A0D0F" stroke="url(#paint3_linear_9892_83137)" stroke-width="1.04519"/>
<g filter="url(#filter5_i_9892_83137)">
<path d="M191.631 72.2082C192.249 71.843 192.559 71.6604 192.888 71.589C193.18 71.5258 193.482 71.5258 193.773 71.589C194.103 71.6604 194.412 71.843 195.031 72.2082L244.352 101.322C244.951 101.676 245.251 101.853 245.469 102.098C245.661 102.315 245.807 102.57 245.896 102.846C245.996 103.158 245.996 103.506 245.996 104.202V162.559C245.996 163.255 245.996 163.603 245.896 163.915C245.807 164.191 245.661 164.446 245.469 164.663C245.251 164.908 244.951 165.085 244.352 165.439L195.031 194.553C194.412 194.918 194.103 195.101 193.773 195.172C193.482 195.235 193.18 195.235 192.888 195.172C192.559 195.101 192.249 194.918 191.631 194.553L142.31 165.439C141.71 165.085 141.411 164.908 141.193 164.663C141 164.446 140.855 164.191 140.766 163.915C140.665 163.603 140.665 163.255 140.665 162.559V104.202C140.665 103.506 140.665 103.158 140.766 102.846C140.855 102.57 141 102.315 141.193 102.098C141.411 101.853 141.71 101.676 142.31 101.322L191.631 72.2082Z" fill="#060809"/>
</g>
<path d="M193.498 72.0728L193.663 72.1001C193.833 72.1371 194.003 72.2169 194.351 72.4165L194.765 72.6587L244.086 101.772C244.558 102.051 244.795 102.195 244.948 102.321L245.078 102.445C245.186 102.567 245.275 102.705 245.34 102.854L245.398 103.005C245.467 103.221 245.473 103.471 245.473 104.202V162.559C245.473 163.107 245.47 163.384 245.439 163.58L245.398 163.755C245.348 163.911 245.274 164.057 245.179 164.189L245.078 164.316C244.965 164.443 244.817 164.549 244.485 164.75L244.086 164.989L194.765 194.103C194.278 194.391 194.029 194.533 193.839 194.607L193.663 194.662C193.499 194.697 193.331 194.706 193.165 194.688L192.999 194.662C192.828 194.625 192.659 194.544 192.311 194.345L191.896 194.103L142.576 164.989C142.103 164.71 141.866 164.566 141.713 164.44L141.583 164.316C141.475 164.194 141.386 164.056 141.321 163.908L141.263 163.755C141.194 163.54 141.188 163.29 141.188 162.559V104.202C141.188 103.654 141.191 103.377 141.222 103.181L141.263 103.005C141.313 102.85 141.387 102.704 141.482 102.572L141.583 102.445C141.696 102.318 141.844 102.212 142.176 102.01L142.576 101.772L191.896 72.6587C192.383 72.3711 192.632 72.2279 192.822 72.1538L192.999 72.1001C193.163 72.0646 193.331 72.055 193.498 72.0728Z" stroke="url(#paint4_linear_9892_83137)" stroke-width="1.04519"/>
<g filter="url(#filter6_i_9892_83137)">
<path d="M191.659 72.1749C192.268 71.8232 192.572 71.6473 192.896 71.5785C193.183 71.5176 193.479 71.5176 193.766 71.5785C194.089 71.6473 194.394 71.8232 195.003 72.1749L245.507 101.332C246.116 101.684 246.42 101.86 246.642 102.106C246.838 102.323 246.986 102.58 247.077 102.858C247.179 103.173 247.179 103.525 247.179 104.228V162.542C247.179 163.246 247.179 163.597 247.077 163.912C246.986 164.191 246.838 164.447 246.642 164.665C246.42 164.911 246.116 165.087 245.507 165.439L195.003 194.596C194.394 194.947 194.089 195.123 193.766 195.192C193.479 195.253 193.183 195.253 192.896 195.192C192.572 195.123 192.268 194.947 191.659 194.596L141.155 165.439C140.546 165.087 140.241 164.911 140.02 164.665C139.824 164.447 139.676 164.191 139.585 163.912C139.483 163.597 139.483 163.246 139.483 162.542V104.228C139.483 103.525 139.483 103.173 139.585 102.858C139.676 102.58 139.824 102.323 140.02 102.106C140.241 101.86 140.546 101.684 141.155 101.332L191.659 72.1749Z" fill="#060809"/>
</g>
<path d="M193.495 72.0641L193.657 72.0895C193.824 72.1251 193.991 72.2023 194.333 72.3942L194.742 72.6276L245.246 101.785C245.725 102.062 245.966 102.205 246.122 102.331L246.253 102.456C246.364 102.578 246.454 102.717 246.521 102.867L246.58 103.02C246.65 103.238 246.657 103.49 246.657 104.228V162.543C246.657 163.096 246.653 163.377 246.622 163.574L246.58 163.751C246.529 163.907 246.453 164.055 246.357 164.188L246.253 164.315C246.139 164.443 245.989 164.549 245.651 164.75L245.246 164.986L194.742 194.143C194.262 194.42 194.017 194.557 193.831 194.629L193.657 194.681C193.496 194.715 193.331 194.724 193.167 194.707L193.005 194.681C192.838 194.646 192.67 194.569 192.328 194.377L191.92 194.143L141.417 164.986C140.937 164.709 140.696 164.566 140.541 164.44L140.409 164.315C140.298 164.193 140.208 164.054 140.141 163.904L140.083 163.751C140.012 163.533 140.005 163.281 140.005 162.543V104.228C140.005 103.675 140.009 103.394 140.041 103.197L140.083 103.02C140.133 102.863 140.209 102.716 140.305 102.583L140.409 102.456C140.523 102.328 140.673 102.222 141.01 102.021L141.417 101.785L191.92 72.6276C192.4 72.3509 192.644 72.2136 192.831 72.1422L193.005 72.0895C193.166 72.0553 193.332 72.047 193.495 72.0641Z" stroke="url(#paint5_linear_9892_83137)" stroke-width="1.04519"/>
<path d="M193.495 77.3096L193.657 77.335C193.824 77.3706 193.991 77.4477 194.333 77.6396L194.742 77.873L240.705 104.409C241.344 104.779 241.56 104.91 241.713 105.08V105.079C241.824 105.202 241.914 105.341 241.981 105.491L242.04 105.645C242.11 105.862 242.116 106.114 242.116 106.853V159.924C242.116 160.478 242.113 160.759 242.082 160.956L242.04 161.133C241.989 161.289 241.913 161.437 241.817 161.569L241.713 161.697C241.599 161.825 241.449 161.931 241.111 162.132L240.705 162.368L194.742 188.904C194.262 189.181 194.017 189.318 193.831 189.39L193.657 189.441C193.442 189.487 193.219 189.487 193.004 189.441H193.003C192.836 189.406 192.669 189.329 192.328 189.138L191.919 188.904L145.957 162.368C145.477 162.091 145.236 161.948 145.081 161.822L144.949 161.697C144.838 161.575 144.748 161.436 144.681 161.286L144.623 161.133C144.552 160.915 144.545 160.663 144.545 159.924V106.853C144.545 106.299 144.549 106.019 144.581 105.821L144.623 105.645C144.674 105.488 144.749 105.34 144.845 105.207L144.949 105.079C145.063 104.952 145.213 104.846 145.55 104.646L145.957 104.409L191.919 77.873C192.559 77.5037 192.782 77.3825 193.005 77.335L193.004 77.334C193.166 77.2997 193.331 77.2924 193.495 77.3096Z" fill="#0A0D0F" stroke="url(#paint6_linear_9892_83137)" stroke-width="1.04519"/>
<path d="M193.331 106.736C208.05 106.736 219.983 118.669 219.983 133.389C219.983 148.108 208.05 160.041 193.331 160.041C178.611 160.041 166.678 148.108 166.678 133.389C166.678 118.669 178.611 106.736 193.331 106.736ZM183.325 149.621C183.325 149.882 183.464 150.123 183.69 150.253L192.974 155.614C193.2 155.745 193.479 155.745 193.705 155.614L201.006 151.397L197.65 149.439L193.339 151.928L186.7 148.095V143.052L183.325 141.083V149.621ZM209.399 137.557V142.646L202.759 146.479L198.409 143.968L195.051 145.927L202.394 150.166C202.62 150.296 202.898 150.296 203.124 150.166L212.409 144.806C212.634 144.675 212.773 144.434 212.773 144.174V135.588L209.399 137.557ZM174.239 132.795C174.013 132.925 173.874 133.166 173.874 133.427V144.147C173.874 144.408 174.013 144.649 174.239 144.779L181.742 149.112V145.216L177.248 142.621V134.954L181.742 132.359V128.463L174.239 132.795ZM193.708 122.537C193.48 122.405 193.199 122.405 192.972 122.537L184.619 127.41C184.142 127.689 183.848 128.2 183.848 128.752V138.516C183.848 138.775 183.986 139.015 184.21 139.146L192.557 144.015C193.041 144.297 193.639 144.297 194.123 144.015L202.469 139.146C202.693 139.015 202.831 138.775 202.832 138.516V128.752C202.831 128.2 202.538 127.689 202.061 127.41L193.708 122.537ZM192.246 134.025V141.299L186.037 137.678V130.404L192.246 134.025ZM200.643 137.678L194.434 141.299V134.025L200.643 130.404V137.678ZM204.937 121.535L209.412 124.119V131.786L204.937 134.37V138.267L212.421 133.945C212.647 133.815 212.787 133.574 212.787 133.313V122.592C212.787 122.331 212.647 122.09 212.421 121.96L204.937 117.639V121.535ZM199.574 128.493L193.339 132.13L187.106 128.493L193.339 124.856L199.574 128.493ZM184.252 116.622C184.027 116.492 183.749 116.492 183.523 116.622L174.239 121.983C174.013 122.114 173.874 122.355 173.874 122.615V131.219L177.248 129.25V124.142L183.888 120.309L188.253 122.829L191.611 120.871L184.252 116.622ZM193.704 111.163C193.478 111.033 193.2 111.033 192.974 111.163L185.667 115.382L189.024 117.341L193.339 114.849L199.979 118.683V123.735L203.354 125.704V117.155C203.354 116.895 203.214 116.654 202.989 116.523L193.704 111.163Z" fill="#FF5500"/>
<rect x="1.18506" y="150.438" width="53" height="43" fill="url(#paint7_linear_9892_83137)"/>
<rect width="57" height="43.46" transform="matrix(-1 0 0 1 397.185 73.9775)" fill="url(#paint8_linear_9892_83137)"/>
<defs>
<filter id="filter0_d_9892_83137" x="-6.00537" y="85.3848" width="401.063" height="49.2279" filterUnits="userSpaceOnUse" color-interpolation-filters="sRGB">
<feFlood flood-opacity="0" result="BackgroundImageFix"/>
<feColorMatrix in="SourceAlpha" type="matrix" values="0 0 0 0 0 0 0 0 0 0 0 0 0 0 0 0 0 0 127 0" result="hardAlpha"/>
<feOffset dy="1"/>
<feGaussianBlur stdDeviation="2"/>
<feComposite in2="hardAlpha" operator="out"/>
<feColorMatrix type="matrix" values="0 0 0 0 0 0 0 0 0 0 0 0 0 0 0 0 0 0 1 0"/>
<feBlend mode="normal" in2="BackgroundImageFix" result="effect1_dropShadow_9892_83137"/>
<feBlend mode="normal" in="SourceGraphic" in2="effect1_dropShadow_9892_83137" result="shape"/>
</filter>
<filter id="filter1_d_9892_83137" x="-6.00537" y="133.385" width="401.063" height="49.2279" filterUnits="userSpaceOnUse" color-interpolation-filters="sRGB">
<feFlood flood-opacity="0" result="BackgroundImageFix"/>
<feColorMatrix in="SourceAlpha" type="matrix" values="0 0 0 0 0 0 0 0 0 0 0 0 0 0 0 0 0 0 127 0" result="hardAlpha"/>
<feOffset dy="1"/>
<feGaussianBlur stdDeviation="2"/>
<feComposite in2="hardAlpha" operator="out"/>
<feColorMatrix type="matrix" values="0 0 0 0 0 0 0 0 0 0 0 0 0 0 0 0 0 0 1 0"/>
<feBlend mode="normal" in2="BackgroundImageFix" result="effect1_dropShadow_9892_83137"/>
<feBlend mode="normal" in="SourceGraphic" in2="effect1_dropShadow_9892_83137" result="shape"/>
</filter>
<filter id="filter2_f_9892_83137" x="72.9124" y="45.4752" width="240.837" height="248.99" filterUnits="userSpaceOnUse" color-interpolation-filters="sRGB">
<feFlood flood-opacity="0" result="BackgroundImageFix"/>
<feBlend mode="normal" in="SourceGraphic" in2="BackgroundImageFix" result="shape"/>
<feGaussianBlur stdDeviation="41.8076" result="effect1_foregroundBlur_9892_83137"/>
</filter>
<filter id="filter3_f_9892_83137" x="116.91" y="52.9548" width="152.842" height="171.313" filterUnits="userSpaceOnUse" color-interpolation-filters="sRGB">
<feFlood flood-opacity="0" result="BackgroundImageFix"/>
<feBlend mode="normal" in="SourceGraphic" in2="BackgroundImageFix" result="shape"/>
<feGaussianBlur stdDeviation="3.13557" result="effect1_foregroundBlur_9892_83137"/>
</filter>
<filter id="filter4_i_9892_83137" x="130.426" y="61.0679" width="125.808" height="145.668" filterUnits="userSpaceOnUse" color-interpolation-filters="sRGB">
<feFlood flood-opacity="0" result="BackgroundImageFix"/>
<feBlend mode="normal" in="SourceGraphic" in2="BackgroundImageFix" result="shape"/>
<feColorMatrix in="SourceAlpha" type="matrix" values="0 0 0 0 0 0 0 0 0 0 0 0 0 0 0 0 0 0 127 0" result="hardAlpha"/>
<feOffset dy="1.04519"/>
<feGaussianBlur stdDeviation="1.04519"/>
<feComposite in2="hardAlpha" operator="arithmetic" k2="-1" k3="1"/>
<feColorMatrix type="matrix" values="0 0 0 0 0 0 0 0 0 0 0 0 0 0 0 0 0 0 1 0"/>
<feBlend mode="normal" in2="shape" result="effect1_innerShadow_9892_83137"/>
</filter>
<filter id="filter5_i_9892_83137" x="140.666" y="71.5416" width="105.331" height="124.723" filterUnits="userSpaceOnUse" color-interpolation-filters="sRGB">
<feFlood flood-opacity="0" result="BackgroundImageFix"/>
<feBlend mode="normal" in="SourceGraphic" in2="BackgroundImageFix" result="shape"/>
<feColorMatrix in="SourceAlpha" type="matrix" values="0 0 0 0 0 0 0 0 0 0 0 0 0 0 0 0 0 0 127 0" result="hardAlpha"/>
<feOffset dy="1.04519"/>
<feGaussianBlur stdDeviation="1.04519"/>
<feComposite in2="hardAlpha" operator="arithmetic" k2="-1" k3="1"/>
<feColorMatrix type="matrix" values="0 0 0 0 0 0 0 0 0 0 0 0 0 0 0 0 0 0 1 0"/>
<feBlend mode="normal" in2="shape" result="effect1_innerShadow_9892_83137"/>
</filter>
<filter id="filter6_i_9892_83137" x="139.483" y="71.5328" width="107.696" height="124.75" filterUnits="userSpaceOnUse" color-interpolation-filters="sRGB">
<feFlood flood-opacity="0" result="BackgroundImageFix"/>
<feBlend mode="normal" in="SourceGraphic" in2="BackgroundImageFix" result="shape"/>
<feColorMatrix in="SourceAlpha" type="matrix" values="0 0 0 0 0 0 0 0 0 0 0 0 0 0 0 0 0 0 127 0" result="hardAlpha"/>
<feOffset dy="1.04519"/>
<feGaussianBlur stdDeviation="1.04519"/>
<feComposite in2="hardAlpha" operator="arithmetic" k2="-1" k3="1"/>
<feColorMatrix type="matrix" values="0 0 0 0 0 0 0 0 0 0 0 0 0 0 0 0 0 0 1 0"/>
<feBlend mode="normal" in2="shape" result="effect1_innerShadow_9892_83137"/>
</filter>
<radialGradient id="paint0_radial_9892_83137" cx="0" cy="0" r="1" gradientUnits="userSpaceOnUse" gradientTransform="translate(194.988 3.45794) rotate(90) scale(124.542 215.498)">
<stop stop-color="white"/>
<stop offset="1" stop-color="#F5F6F7" stop-opacity="0.1"/>
</radialGradient>
<linearGradient id="paint1_linear_9892_83137" x1="193.331" y1="133.331" x2="193.331" y2="214.387" gradientUnits="userSpaceOnUse">
<stop stop-color="#3B3D3F" stop-opacity="0.5"/>
<stop offset="1" stop-color="#3B3D3F" stop-opacity="0.89"/>
</linearGradient>
<linearGradient id="paint2_linear_9892_83137" x1="193.308" y1="60.0568" x2="193.366" y2="206.014" gradientUnits="userSpaceOnUse">
<stop stop-color="#1E1E1F" stop-opacity="0"/>
<stop offset="1" stop-color="#1E1E1F" stop-opacity="0.8"/>
</linearGradient>
<linearGradient id="paint3_linear_9892_83137" x1="193.331" y1="65.9706" x2="193.331" y2="200.79" gradientUnits="userSpaceOnUse">
<stop stop-color="#3B3D3F" stop-opacity="0.5"/>
<stop offset="1" stop-color="#3B3D3F" stop-opacity="0.8"/>
</linearGradient>
<linearGradient id="paint4_linear_9892_83137" x1="193.312" y1="70.6159" x2="193.363" y2="195.556" gradientUnits="userSpaceOnUse">
<stop stop-color="#1E1E1F" stop-opacity="0"/>
<stop offset="1" stop-color="#1E1E1F" stop-opacity="0.8"/>
</linearGradient>
<linearGradient id="paint5_linear_9892_83137" x1="193.312" y1="70.6207" x2="193.361" y2="195.561" gradientUnits="userSpaceOnUse">
<stop stop-color="#1E1E1F" stop-opacity="0"/>
<stop offset="1" stop-color="#1E1E1F" stop-opacity="0.8"/>
</linearGradient>
<linearGradient id="paint6_linear_9892_83137" x1="193.331" y1="76.455" x2="193.331" y2="190.322" gradientUnits="userSpaceOnUse">
<stop stop-color="#3B3D3F" stop-opacity="0.2"/>
<stop offset="1" stop-color="#3B3D3F" stop-opacity="0.4"/>
</linearGradient>
<linearGradient id="paint7_linear_9892_83137" x1="54.1851" y1="172.249" x2="5.11098" y2="172.249" gradientUnits="userSpaceOnUse">
<stop stop-color="#13181C" stop-opacity="0"/>
<stop offset="1" stop-color="#13181C"/>
</linearGradient>
<linearGradient id="paint8_linear_9892_83137" x1="57" y1="22.0449" x2="4.22222" y2="22.0449" gradientUnits="userSpaceOnUse">
<stop stop-color="#13181C" stop-opacity="0"/>
<stop offset="1" stop-color="#13181C"/>
</linearGradient>
</defs>
</svg>
