<svg width="335" height="243" viewBox="0 0 335 243" fill="none" xmlns="http://www.w3.org/2000/svg">
<g clip-path="url(#clip0_9684_114406)">
<rect x="0.5" y="0.485107" width="334" height="242.399" rx="9.97015" fill="url(#paint0_linear_9684_114406)"/>
<mask id="mask0_9684_114406" style="mask-type:alpha" maskUnits="userSpaceOnUse" x="-4" y="-2" width="346" height="269">
<path d="M341.274 266.505L296.626 266.505L-0.123349 266.505L-3.1797 -1.06677L341.274 -1.06679L341.274 266.505Z" fill="url(#paint1_radial_9684_114406)"/>
</mask>
<g mask="url(#mask0_9684_114406)">
<path d="M18.5723 -51.8585V317.037" stroke="#181E22" stroke-width="0.311567"/>
<path d="M46.6133 -51.8585V317.037" stroke="#181E22" stroke-width="0.311567"/>
<path d="M74.6543 -51.8585V317.037" stroke="#181E22" stroke-width="0.311567"/>
<path d="M102.695 -51.8585V317.037" stroke="#181E22" stroke-width="0.311567"/>
<path d="M130.736 -51.8585V317.037" stroke="#181E22" stroke-width="0.311567"/>
<path d="M158.777 -51.8585V317.037" stroke="#181E22" stroke-width="0.311567"/>
<path d="M186.818 -51.8585V317.037" stroke="#181E22" stroke-width="0.311567"/>
<path d="M214.859 -51.8585V317.037" stroke="#181E22" stroke-width="0.311567"/>
<path d="M242.9 -51.8585V317.037" stroke="#181E22" stroke-width="0.311567"/>
<path d="M270.941 -51.8585V317.037" stroke="#181E22" stroke-width="0.311567"/>
<path d="M298.982 -51.8585V317.037" stroke="#181E22" stroke-width="0.311567"/>
<path d="M327.023 -51.8585V317.037" stroke="#181E22" stroke-width="0.311567"/>
</g>
<g opacity="0.4">
<path d="M289.09 57.3633H296.529C299.282 57.3633 301.514 55.1314 301.514 52.3782V41.6054C301.514 38.8522 303.746 36.6204 306.499 36.6204H339.053" stroke="url(#paint2_linear_9684_114406)" stroke-width="0.623134" stroke-linecap="round"/>
<path d="M328.451 79.6554H306.689C303.936 79.6554 301.704 77.4235 301.704 74.6703V62.344C301.704 59.5908 299.472 57.3589 296.719 57.3589H289.091" stroke="url(#paint3_linear_9684_114406)" stroke-width="0.623134" stroke-linecap="round"/>
<path d="M324.515 101.363H289.162" stroke="url(#paint4_linear_9684_114406)" stroke-width="0.623134" stroke-linecap="round"/>
</g>
<g opacity="0.4">
<path d="M289.09 157.065H296.529C299.282 157.065 301.514 154.834 301.514 152.08V141.308C301.514 138.554 303.746 136.323 306.499 136.323H339.053" stroke="url(#paint5_linear_9684_114406)" stroke-width="0.623134" stroke-linecap="round"/>
<path d="M328.451 179.358H306.689C303.936 179.358 301.704 177.126 301.704 174.373V162.046C301.704 159.293 299.472 157.061 296.719 157.061H289.091" stroke="url(#paint6_linear_9684_114406)" stroke-width="0.623134" stroke-linecap="round"/>
<path d="M324.443 201.757H289.09" stroke="url(#paint7_linear_9684_114406)" stroke-width="0.623134" stroke-linecap="round"/>
</g>
<path d="M70.8672 128.226H86.462C89.2151 128.226 91.447 125.994 91.447 123.241V83.9831C91.447 81.2299 93.6789 78.998 96.4321 78.998H147.86" stroke="#33373A" stroke-width="0.623134" stroke-linecap="round"/>
<path d="M147.859 178.076H96.072C93.3188 178.076 91.0869 175.845 91.0869 173.091V133.211C91.0869 130.458 88.855 128.226 86.1018 128.226H66.2288" stroke="#33373A" stroke-width="0.623134" stroke-linecap="round"/>
<rect x="36.59" y="113.543" width="29.3671" height="29.3671" rx="4.71339" fill="url(#paint8_linear_9684_114406)"/>
<rect x="36.59" y="113.543" width="29.3671" height="29.3671" rx="4.71339" stroke="url(#paint9_linear_9684_114406)" stroke-width="0.543375"/>
<g clip-path="url(#clip1_9684_114406)">
<mask id="mask1_9684_114406" style="mask-type:luminance" maskUnits="userSpaceOnUse" x="40" y="121" width="22" height="24">
<path d="M40.7559 121.43H61.7571V144.316H40.7559V121.43Z" fill="white"/>
</mask>
<g mask="url(#mask1_9684_114406)">
<path d="M48.0044 128.693L46.8994 128.006L46.9226 129.056L48.0275 129.744L48.0044 128.693ZM49.5961 132.371L49.5729 131.344L48.607 130.741C48.5916 130.733 48.5761 130.718 48.5684 130.71L48.5916 131.745L49.5961 132.371ZM46.1422 133.754L43.6156 132.186L43.5538 129.559L44.79 129.026L44.7669 127.975L42.7888 128.825C42.6343 128.894 42.5415 129.033 42.5493 129.196L42.6265 132.348C42.6265 132.51 42.727 132.673 42.8815 132.765L45.9104 134.643C46.0495 134.728 46.2195 134.751 46.3663 134.712C46.3817 134.705 46.3972 134.705 46.4126 134.697L48.2748 133.893L47.2626 133.268L46.1422 133.754Z" fill="#1C76FD"/>
</g>
<mask id="mask2_9684_114406" style="mask-type:luminance" maskUnits="userSpaceOnUse" x="40" y="121" width="22" height="24">
<path d="M40.7559 121.43H61.7571V144.316H40.7559V121.43Z" fill="white"/>
</mask>
<g mask="url(#mask2_9684_114406)">
<path d="M54.3078 127.943C54.3001 127.757 54.1919 127.564 54.0065 127.456L50.3286 125.177L50.2127 125.223L50.2358 126.328L53.1488 128.136L53.2184 131.088L54.331 131.775L54.3928 131.752L54.3078 127.943ZM49.9036 133.128L46.4806 131.01L46.3956 127.456L47.9564 126.784L47.9255 125.555L45.5071 126.598C45.3294 126.676 45.2212 126.838 45.2289 127.031L45.3294 131.204C45.3294 131.397 45.4453 131.582 45.6307 131.69L49.6409 134.178C49.8031 134.279 50.004 134.31 50.174 134.256C50.1895 134.248 50.2049 134.24 50.2204 134.24L52.5848 133.22L51.4103 132.494L49.9036 133.128Z" fill="#1C76FD"/>
</g>
<mask id="mask3_9684_114406" style="mask-type:luminance" maskUnits="userSpaceOnUse" x="40" y="121" width="22" height="24">
<path d="M40.7559 121.43H61.7571V144.316H40.7559V121.43Z" fill="white"/>
</mask>
<g mask="url(#mask3_9684_114406)">
<path d="M59.5252 125.022L54.3869 121.839C54.1937 121.723 53.9697 121.692 53.7765 121.754C53.7611 121.762 53.7379 121.769 53.7224 121.777L48.7078 123.941C48.5069 124.026 48.3832 124.211 48.391 124.435L48.5146 129.782C48.5223 129.998 48.6537 130.215 48.8623 130.338L54.0006 133.522C54.186 133.638 54.4178 133.669 54.611 133.607C54.6264 133.599 54.6496 133.591 54.6651 133.584L59.6797 131.42C59.8806 131.335 60.0043 131.142 59.9965 130.926L59.8729 125.579C59.8652 125.362 59.7338 125.154 59.5252 125.022ZM54.3019 132.324L49.8359 129.558L49.7277 124.914L54.0856 123.037L58.5516 125.803L58.6598 130.447L54.3019 132.324Z" fill="#1C76FD"/>
</g>
</g>
<rect x="148.131" y="63.0687" width="29.3671" height="29.3671" rx="4.71339" fill="url(#paint10_linear_9684_114406)"/>
<rect x="148.131" y="63.0687" width="29.3671" height="29.3671" rx="4.71339" stroke="url(#paint11_linear_9684_114406)" stroke-width="0.543375"/>
<g clip-path="url(#clip2_9684_114406)">
<mask id="mask4_9684_114406" style="mask-type:luminance" maskUnits="userSpaceOnUse" x="152" y="70" width="22" height="24">
<path d="M152.297 70.9515H173.298V93.8381H152.297V70.9515Z" fill="white"/>
</mask>
<g mask="url(#mask4_9684_114406)">
<path d="M159.545 78.2164L158.44 77.5287L158.464 78.5795L159.569 79.2672L159.545 78.2164ZM161.137 81.8943L161.114 80.8667L160.148 80.264C160.133 80.2562 160.117 80.2408 160.109 80.2331L160.133 81.2685L161.137 81.8943ZM157.683 83.2774L155.157 81.7089L155.095 79.0818L156.331 78.5486L156.308 77.4978L154.33 78.3477C154.175 78.4173 154.083 78.5564 154.09 78.7186L154.168 81.8711C154.168 82.0334 154.268 82.1957 154.423 82.2884L157.451 84.166C157.591 84.251 157.76 84.2742 157.907 84.2355C157.923 84.2278 157.938 84.2278 157.954 84.2201L159.816 83.4165L158.804 82.7906L157.683 83.2774Z" fill="white"/>
</g>
<mask id="mask5_9684_114406" style="mask-type:luminance" maskUnits="userSpaceOnUse" x="152" y="70" width="22" height="24">
<path d="M152.297 70.9515H173.298V93.8381H152.297V70.9515Z" fill="white"/>
</mask>
<g mask="url(#mask5_9684_114406)">
<path d="M165.849 77.466C165.841 77.2806 165.733 77.0874 165.547 76.9792L161.87 74.6998L161.754 74.7462L161.777 75.8511L164.69 77.6592L164.759 80.6108L165.872 81.2985L165.934 81.2753L165.849 77.466ZM161.445 82.6506L158.022 80.5335L157.937 76.9792L159.497 76.307L159.467 75.0784L157.048 76.1215C156.87 76.1988 156.762 76.3611 156.77 76.5542L156.87 80.7267C156.87 80.9199 156.986 81.1053 157.172 81.2135L161.182 83.7015C161.344 83.8019 161.545 83.8328 161.715 83.7788C161.73 83.771 161.746 83.7633 161.761 83.7633L164.126 82.7434L162.951 82.0171L161.445 82.6506Z" fill="white"/>
</g>
<mask id="mask6_9684_114406" style="mask-type:luminance" maskUnits="userSpaceOnUse" x="152" y="70" width="22" height="24">
<path d="M152.297 70.9515H173.298V93.8381H152.297V70.9515Z" fill="white"/>
</mask>
<g mask="url(#mask6_9684_114406)">
<path d="M171.066 74.5455L165.928 71.362C165.735 71.2461 165.511 71.2152 165.318 71.277C165.302 71.2848 165.279 71.2925 165.263 71.3002L160.249 73.4637C160.048 73.5487 159.924 73.7342 159.932 73.9582L160.056 79.3051C160.063 79.5215 160.195 79.7378 160.403 79.8615L165.542 83.0449C165.727 83.1608 165.959 83.1917 166.152 83.1299C166.167 83.1221 166.191 83.1144 166.206 83.1067L171.221 80.9432C171.422 80.8582 171.545 80.665 171.538 80.4487L171.414 75.1018C171.406 74.8854 171.275 74.6768 171.066 74.5455ZM165.843 81.8472L161.377 79.0811L161.269 74.4373L165.627 72.5597L170.093 75.3259L170.201 79.9696L165.843 81.8472Z" fill="white"/>
</g>
</g>
<rect x="148.131" y="164.016" width="29.3671" height="29.3671" rx="4.71339" fill="url(#paint12_linear_9684_114406)"/>
<rect x="148.131" y="164.016" width="29.3671" height="29.3671" rx="4.71339" stroke="url(#paint13_linear_9684_114406)" stroke-width="0.543375"/>
<g clip-path="url(#clip3_9684_114406)">
<mask id="mask7_9684_114406" style="mask-type:luminance" maskUnits="userSpaceOnUse" x="152" y="171" width="22" height="24">
<path d="M152.297 171.902H173.298V194.788H152.297V171.902Z" fill="white"/>
</mask>
<g mask="url(#mask7_9684_114406)">
<path d="M159.545 179.166L158.44 178.479L158.464 179.529L159.569 180.217L159.545 179.166ZM161.137 182.844L161.114 181.816L160.148 181.214C160.133 181.206 160.117 181.191 160.109 181.183L160.133 182.218L161.137 182.844ZM157.683 184.227L155.157 182.659L155.095 180.032L156.331 179.498L156.308 178.448L154.33 179.298C154.175 179.367 154.083 179.506 154.09 179.668L154.168 182.821C154.168 182.983 154.268 183.145 154.423 183.238L157.451 185.116C157.591 185.201 157.76 185.224 157.907 185.185C157.923 185.178 157.938 185.178 157.954 185.17L159.816 184.366L158.804 183.74L157.683 184.227Z" fill="white"/>
</g>
<mask id="mask8_9684_114406" style="mask-type:luminance" maskUnits="userSpaceOnUse" x="152" y="171" width="22" height="24">
<path d="M152.297 171.902H173.298V194.788H152.297V171.902Z" fill="white"/>
</mask>
<g mask="url(#mask8_9684_114406)">
<path d="M165.849 178.416C165.841 178.23 165.733 178.037 165.547 177.929L161.87 175.65L161.754 175.696L161.777 176.801L164.69 178.609L164.759 181.561L165.872 182.248L165.934 182.225L165.849 178.416ZM161.445 183.6L158.022 181.483L157.937 177.929L159.497 177.257L159.467 176.028L157.048 177.071C156.87 177.149 156.762 177.311 156.77 177.504L156.87 181.677C156.87 181.87 156.986 182.055 157.172 182.163L161.182 184.651C161.344 184.752 161.545 184.783 161.715 184.729C161.73 184.721 161.746 184.713 161.761 184.713L164.126 183.693L162.951 182.967L161.445 183.6Z" fill="white"/>
</g>
<mask id="mask9_9684_114406" style="mask-type:luminance" maskUnits="userSpaceOnUse" x="152" y="171" width="22" height="24">
<path d="M152.297 171.902H173.298V194.788H152.297V171.902Z" fill="white"/>
</mask>
<g mask="url(#mask9_9684_114406)">
<path d="M171.066 175.495L165.928 172.312C165.735 172.196 165.511 172.165 165.318 172.227C165.302 172.235 165.279 172.242 165.263 172.25L160.249 174.414C160.048 174.499 159.924 174.684 159.932 174.908L160.056 180.255C160.063 180.471 160.195 180.688 160.403 180.811L165.542 183.995C165.727 184.111 165.959 184.142 166.152 184.08C166.167 184.072 166.191 184.064 166.206 184.057L171.221 181.893C171.422 181.808 171.545 181.615 171.538 181.399L171.414 176.052C171.406 175.835 171.275 175.627 171.066 175.495ZM165.843 182.797L161.377 180.031L161.269 175.387L165.627 173.51L170.093 176.276L170.201 180.919L165.843 182.797Z" fill="white"/>
</g>
</g>
<path d="M259.4 56.4981H203.381C200.627 56.4981 198.395 58.73 198.395 61.4831V73.9458C198.395 76.699 196.164 78.9309 193.41 78.9309H177.3" stroke="#33373A" stroke-width="0.623134" stroke-linecap="round"/>
<path d="M259.4 101.364H203.381C200.627 101.364 198.395 99.1318 198.395 96.3787V83.916C198.395 81.1628 196.164 78.9309 193.41 78.9309H177.3" stroke="#33373A" stroke-width="0.623134" stroke-linecap="round"/>
<path d="M259.4 201.756H203.736C200.983 201.756 198.751 199.524 198.751 196.771V184.445C198.751 181.692 196.519 179.46 193.766 179.46H177.778" stroke="#33373A" stroke-width="0.623134" stroke-linecap="round"/>
<path d="M259.391 157.027H203.726C200.973 157.027 198.741 159.259 198.741 162.012V174.338C198.741 177.092 196.509 179.323 193.756 179.323H177.769" stroke="#33373A" stroke-width="0.623134" stroke-linecap="round"/>
<rect x="259.564" y="41.9219" width="29.2873" height="29.2873" rx="4.67351" fill="url(#paint14_linear_9684_114406)"/>
<rect x="259.564" y="41.9219" width="29.2873" height="29.2873" rx="4.67351" stroke="url(#paint15_linear_9684_114406)" stroke-width="0.623134"/>
<path d="M280.438 49.088H267.975C266.942 49.088 266.105 49.925 266.105 50.9574V59.6813C266.105 60.7137 266.942 61.5507 267.975 61.5507H280.438C281.47 61.5507 282.307 60.7137 282.307 59.6813V50.9574C282.307 49.925 281.47 49.088 280.438 49.088Z" fill="white"/>
<path d="M277.161 52.9603L274.206 54.6704L271.25 52.9603C271.215 52.9398 271.185 52.9102 271.165 52.8746C271.144 52.839 271.133 52.7986 271.133 52.7575C271.133 52.7164 271.144 52.676 271.165 52.6403C271.185 52.6047 271.215 52.5752 271.25 52.5546L273.841 51.0553C273.952 50.9912 274.078 50.9574 274.206 50.9574C274.334 50.9574 274.459 50.9912 274.57 51.0553L277.161 52.5546C277.197 52.5752 277.226 52.6047 277.247 52.6403C277.267 52.676 277.278 52.7164 277.278 52.7575C277.278 52.7986 277.267 52.839 277.247 52.8746C277.226 52.9102 277.197 52.9398 277.161 52.9603ZM270.467 53.9942V56.8951C270.467 57.0281 270.501 57.1588 270.567 57.2743C270.633 57.3897 270.727 57.4859 270.842 57.5532L273.388 59.0268C273.423 59.0473 273.464 59.0581 273.505 59.0581C273.546 59.0582 273.586 59.0474 273.621 59.0268C273.657 59.0063 273.686 58.9768 273.707 58.9412C273.727 58.9056 273.738 58.8653 273.738 58.8242V55.4819L270.817 53.7917C270.782 53.7711 270.742 53.7603 270.701 53.7603C270.66 53.7603 270.619 53.7711 270.584 53.7916C270.548 53.8121 270.519 53.8417 270.498 53.8772C270.478 53.9128 270.467 53.9532 270.467 53.9942ZM277.944 56.8951V53.9942C277.944 53.9532 277.934 53.9128 277.913 53.8772C277.892 53.8417 277.863 53.8121 277.827 53.7916C277.792 53.7711 277.752 53.7603 277.711 53.7603C277.67 53.7603 277.629 53.7711 277.594 53.7917L274.673 55.4819V58.8242C274.673 58.8653 274.684 58.9056 274.704 58.9412C274.725 58.9768 274.754 59.0063 274.79 59.0268C274.825 59.0474 274.866 59.0582 274.907 59.0581C274.948 59.0581 274.988 59.0473 275.023 59.0268L277.569 57.5532C277.683 57.486 277.778 57.3898 277.844 57.2744C277.91 57.1589 277.945 57.0282 277.944 56.8951Z" fill="#0A0D0F"/>
<path d="M276.698 62.797H271.713C271.548 62.797 271.389 62.8626 271.272 62.9795C271.155 63.0964 271.09 63.2549 271.09 63.4201C271.09 63.5854 271.155 63.7439 271.272 63.8608C271.389 63.9776 271.548 64.0433 271.713 64.0433H276.698C276.863 64.0433 277.022 63.9776 277.139 63.8608C277.256 63.7439 277.321 63.5854 277.321 63.4201C277.321 63.2549 277.256 63.0964 277.139 62.9795C277.022 62.8626 276.863 62.797 276.698 62.797Z" fill="white"/>
<rect x="259.524" y="86.1248" width="29.3671" height="29.3671" rx="4.71339" fill="url(#paint16_linear_9684_114406)"/>
<rect x="259.524" y="86.1248" width="29.3671" height="29.3671" rx="4.71339" stroke="url(#paint17_linear_9684_114406)" stroke-width="0.543375"/>
<path d="M273.588 99.4385L273.696 97.6159C273.566 97.6308 273.437 97.6521 273.309 97.6798C272.602 97.8335 271.988 98.1673 271.508 98.6189L273.069 99.6783L273.072 99.6768C273.125 99.7138 273.19 99.7355 273.261 99.7355C273.433 99.7355 273.573 99.6053 273.581 99.4422L273.588 99.4385Z" fill="white"/>
<path d="M276.781 98.6196C276.196 98.0711 275.432 97.7131 274.606 97.6159L274.714 99.4355L274.716 99.4363C274.718 99.501 274.743 99.5632 274.785 99.6137C274.893 99.7425 275.087 99.7664 275.224 99.6701L275.23 99.6724L276.781 98.6196Z" fill="white"/>
<path d="M272.367 100.52L270.941 99.2997C270.518 99.9594 270.318 100.751 270.411 101.565L272.239 101.06L272.24 101.054C272.306 101.037 272.364 101 272.406 100.949C272.513 100.82 272.494 100.635 272.366 100.528L272.367 100.52Z" fill="white"/>
<path d="M277.818 100.394C277.722 99.9961 277.562 99.629 277.35 99.3004L275.932 100.515L275.933 100.519C275.882 100.561 275.846 100.618 275.831 100.681C275.793 100.842 275.894 101.002 276.058 101.045L276.06 101.052L277.897 101.559C277.936 101.18 277.912 100.787 277.818 100.394Z" fill="white"/>
<path d="M274.443 100.614H273.858L273.495 101.048L273.625 101.59L274.151 101.832L274.675 101.591L274.806 101.049L274.443 100.614Z" fill="white"/>
<path d="M275.805 102.106C275.781 102.102 275.756 102.1 275.731 102.101C275.69 102.103 275.648 102.113 275.608 102.131C275.453 102.203 275.386 102.378 275.453 102.528L275.451 102.531L276.185 104.228C276.892 103.796 277.422 103.152 277.698 102.408L275.808 102.102L275.805 102.106Z" fill="white"/>
<path d="M272.863 102.347C272.83 102.206 272.7 102.11 272.556 102.108C272.535 102.108 272.514 102.11 272.493 102.113L272.49 102.11L270.616 102.414C270.905 103.18 271.446 103.804 272.125 104.221L272.851 102.542L272.845 102.535C272.871 102.477 272.879 102.412 272.863 102.347Z" fill="white"/>
<path d="M274.289 102.874C274.242 102.853 274.191 102.842 274.139 102.844C274.083 102.846 274.029 102.862 273.981 102.89C273.934 102.919 273.895 102.959 273.868 103.006H273.867L272.945 104.6C273.583 104.808 274.287 104.855 274.994 104.701C275.119 104.674 275.242 104.641 275.363 104.603L274.439 103.005H274.432C274.402 102.95 274.352 102.904 274.289 102.874Z" fill="white"/>
<path fill-rule="evenodd" clip-rule="evenodd" d="M273.645 92.9171C273.784 92.8534 273.935 92.8169 274.089 92.8094C274.283 92.8 274.477 92.837 274.652 92.917L280.718 95.6892C280.875 95.761 281.013 95.8654 281.122 95.9947C281.23 96.124 281.307 96.2748 281.346 96.4361L282.844 102.666C282.883 102.828 282.883 102.995 282.844 103.157C282.806 103.318 282.729 103.469 282.62 103.598L278.423 108.594C278.315 108.724 278.177 108.828 278.02 108.899C277.863 108.971 277.691 109.008 277.517 109.008L270.784 109.009C270.609 109.01 270.437 108.972 270.28 108.901C270.123 108.829 269.985 108.724 269.877 108.595L265.678 103.6C265.655 103.571 265.633 103.542 265.612 103.512C265.528 103.388 265.471 103.25 265.444 103.105C265.417 102.96 265.42 102.811 265.455 102.668L266.951 96.4376C266.99 96.2763 267.067 96.1255 267.175 95.9962C267.284 95.8669 267.422 95.7624 267.579 95.6907L273.645 92.9171ZM273.788 95.307C273.788 95.0938 273.95 94.921 274.151 94.9209C274.351 94.9209 274.514 95.0938 274.514 95.307C274.514 95.3178 274.514 95.33 274.514 95.3424C274.515 95.3647 274.515 95.3878 274.515 95.4057C274.511 95.4869 274.498 95.5554 274.485 95.6252C274.478 95.6612 274.471 95.6976 274.465 95.7361L274.463 95.755C274.433 95.989 274.408 96.1845 274.424 96.3664C274.436 96.4471 274.48 96.4857 274.523 96.5226C274.529 96.5284 274.536 96.5342 274.543 96.5401C274.544 96.5653 274.548 96.649 274.551 96.6953C275.705 96.7935 276.778 97.2986 277.565 98.0888L277.703 97.9945C277.709 97.9948 277.715 97.9953 277.722 97.9958C277.774 97.9996 277.861 98.0061 277.923 97.9715C278.082 97.8694 278.227 97.7287 278.4 97.5604L278.413 97.5476C278.44 97.5198 278.465 97.4925 278.49 97.4655C278.539 97.4114 278.588 97.3583 278.653 97.3048C278.669 97.2917 278.69 97.2753 278.711 97.2602C278.719 97.2542 278.726 97.2485 278.733 97.2432C278.907 97.1102 279.15 97.1244 279.275 97.2744C279.4 97.4244 279.36 97.6537 279.186 97.7866C279.177 97.7929 279.169 97.7999 279.159 97.8071C279.141 97.8218 279.121 97.8372 279.106 97.8483C279.038 97.8961 278.974 97.9286 278.909 97.9617C278.874 97.9791 278.839 97.9967 278.804 98.0168C278.587 98.1451 278.407 98.2515 278.264 98.3798C278.205 98.4396 278.201 98.4967 278.198 98.5514C278.197 98.5598 278.196 98.5682 278.196 98.5766C278.186 98.5851 278.164 98.6036 278.14 98.6241C278.115 98.646 278.086 98.6703 278.067 98.6872C278.38 99.133 278.614 99.6389 278.747 100.192C278.879 100.74 278.899 101.288 278.823 101.814L278.97 101.855C278.973 101.859 278.976 101.864 278.98 101.87C279.009 101.91 279.059 101.981 279.127 102.006C279.311 102.061 279.519 102.082 279.769 102.107L279.777 102.108C279.818 102.111 279.857 102.113 279.896 102.114C279.97 102.117 280.043 102.12 280.126 102.135C280.145 102.138 280.169 102.144 280.193 102.15C280.206 102.153 280.22 102.156 280.231 102.159C280.445 102.208 280.583 102.396 280.538 102.582C280.494 102.767 280.285 102.88 280.07 102.836C280.068 102.835 280.066 102.835 280.064 102.835C280.062 102.834 280.06 102.833 280.057 102.833C280.047 102.831 280.035 102.828 280.023 102.826C280.002 102.822 279.98 102.818 279.964 102.813C279.882 102.793 279.815 102.765 279.747 102.737C279.712 102.722 279.676 102.707 279.638 102.693L279.627 102.689C279.391 102.609 279.196 102.541 279.005 102.515C278.92 102.509 278.871 102.541 278.824 102.572C278.816 102.577 278.809 102.582 278.802 102.587C278.775 102.582 278.693 102.568 278.646 102.561C278.298 103.607 277.558 104.513 276.553 105.081C276.559 105.094 276.566 105.111 276.573 105.129C276.588 105.168 276.605 105.211 276.614 105.221C276.611 105.229 276.607 105.237 276.604 105.245C276.583 105.296 276.561 105.348 276.586 105.426C276.656 105.601 276.77 105.772 276.908 105.978C276.931 106.01 276.954 106.04 276.976 106.07C277.02 106.127 277.063 106.183 277.103 106.255C277.113 106.273 277.125 106.297 277.136 106.32C277.141 106.33 277.146 106.34 277.15 106.348C277.243 106.539 277.175 106.759 276.996 106.842C276.815 106.925 276.59 106.837 276.494 106.645C276.489 106.637 276.485 106.628 276.48 106.618C276.469 106.597 276.457 106.574 276.449 106.556C276.415 106.481 276.395 106.414 276.375 106.345C276.365 106.31 276.355 106.274 276.343 106.237L276.34 106.228C276.259 106.001 276.192 105.813 276.094 105.653C276.046 105.585 275.989 105.569 275.934 105.553C275.925 105.551 275.917 105.548 275.909 105.546C275.903 105.536 275.888 105.51 275.872 105.482C275.858 105.457 275.842 105.431 275.831 105.412C275.628 105.485 275.42 105.546 275.208 105.592C274.266 105.796 273.323 105.713 272.481 105.404L272.398 105.546C272.337 105.562 272.278 105.578 272.242 105.619C272.149 105.725 272.095 105.876 272.038 106.037C272.014 106.105 271.989 106.175 271.961 106.243C271.948 106.281 271.938 106.317 271.928 106.352C271.909 106.421 271.89 106.488 271.856 106.562C271.848 106.579 271.837 106.601 271.826 106.621C271.821 106.631 271.816 106.641 271.811 106.65C271.811 106.65 271.811 106.65 271.811 106.65C271.811 106.65 271.811 106.651 271.811 106.651C271.811 106.651 271.811 106.651 271.811 106.651C271.81 106.652 271.811 106.651 271.811 106.651C271.714 106.843 271.49 106.931 271.309 106.848C271.13 106.765 271.061 106.545 271.155 106.354C271.16 106.344 271.166 106.332 271.171 106.32C271.182 106.299 271.192 106.277 271.201 106.26C271.241 106.189 271.284 106.132 271.328 106.074C271.351 106.045 271.374 106.015 271.396 105.983C271.534 105.777 271.654 105.592 271.725 105.418C271.742 105.359 271.716 105.28 271.692 105.221L271.758 105.07C270.792 104.522 270.029 103.648 269.665 102.568L269.506 102.594C269.502 102.591 269.496 102.588 269.49 102.585C269.445 102.56 269.369 102.518 269.298 102.523C269.107 102.55 268.911 102.617 268.675 102.698L268.665 102.701C268.627 102.715 268.592 102.73 268.557 102.744C268.488 102.772 268.421 102.8 268.339 102.821C268.32 102.826 268.296 102.831 268.272 102.835C268.263 102.837 268.254 102.839 268.245 102.841C268.244 102.841 268.243 102.842 268.242 102.842C268.24 102.842 268.239 102.843 268.238 102.843C268.237 102.843 268.236 102.843 268.235 102.844C268.234 102.844 268.233 102.844 268.232 102.844C268.017 102.888 267.808 102.776 267.764 102.59C267.72 102.405 267.857 102.216 268.071 102.167C268.073 102.167 268.075 102.166 268.077 102.165L268.08 102.165C268.089 102.163 268.099 102.16 268.109 102.158C268.133 102.152 268.157 102.147 268.177 102.143C268.259 102.128 268.332 102.125 268.406 102.123C268.445 102.121 268.484 102.12 268.525 102.116L268.533 102.116C268.783 102.09 268.991 102.07 269.176 102.014C269.228 101.993 269.279 101.93 269.317 101.881C269.322 101.875 269.327 101.869 269.332 101.863L269.484 101.821C269.313 100.692 269.602 99.5836 270.225 98.6864L270.108 98.587C270.107 98.5822 270.107 98.5768 270.106 98.5708C270.098 98.5222 270.085 98.4372 270.035 98.3865C269.893 98.2582 269.713 98.1519 269.496 98.0236C269.46 98.0037 269.426 97.9861 269.392 97.9688C269.327 97.9356 269.262 97.903 269.194 97.8549C269.179 97.8439 269.159 97.8286 269.141 97.814C269.133 97.8081 269.126 97.8024 269.119 97.797C269.118 97.7964 269.117 97.7959 269.117 97.7953C269.116 97.7947 269.115 97.794 269.114 97.7933C268.94 97.6604 268.9 97.4311 269.025 97.2811C269.095 97.1967 269.202 97.1549 269.314 97.1586C269.401 97.1614 269.491 97.1917 269.567 97.2499C269.574 97.255 269.581 97.2606 269.589 97.2664C269.609 97.2817 269.631 97.2983 269.647 97.3115C269.712 97.3646 269.76 97.4172 269.809 97.4709C269.833 97.4984 269.859 97.5261 269.886 97.5543L269.893 97.5603C270.069 97.7317 270.215 97.874 270.376 97.9774C270.45 98.0187 270.509 98.0098 270.566 98.0012C270.574 97.9999 270.583 97.9986 270.592 97.9975C270.635 98.0277 270.679 98.0574 270.723 98.0866C271.341 97.4592 272.152 96.9944 273.095 96.7896C273.311 96.7427 273.53 96.7105 273.751 96.6931L273.76 96.5461C273.808 96.5013 273.862 96.4369 273.878 96.3664C273.893 96.1808 273.868 95.9812 273.838 95.7408L273.837 95.7361C273.832 95.6976 273.825 95.6613 273.818 95.6254C273.804 95.5555 273.791 95.4869 273.788 95.4057C273.787 95.3886 273.788 95.367 273.788 95.3459C273.788 95.3359 273.788 95.326 273.789 95.3166C273.788 95.3151 273.788 95.3136 273.788 95.312C273.788 95.3104 273.788 95.3087 273.788 95.307Z" fill="white"/>
<rect x="259.524" y="186.449" width="29.3671" height="29.3671" rx="4.71339" fill="url(#paint18_linear_9684_114406)"/>
<rect x="259.524" y="186.449" width="29.3671" height="29.3671" rx="4.71339" stroke="url(#paint19_linear_9684_114406)" stroke-width="0.543375"/>
<path d="M273.588 199.762L273.696 197.939C273.566 197.954 273.437 197.975 273.309 198.003C272.602 198.157 271.988 198.49 271.508 198.942L273.069 200.001L273.072 200C273.125 200.037 273.19 200.059 273.261 200.059C273.433 200.059 273.573 199.928 273.581 199.765L273.588 199.762Z" fill="white"/>
<path d="M276.781 198.943C276.196 198.394 275.432 198.036 274.606 197.939L274.714 199.759L274.716 199.759C274.718 199.824 274.743 199.886 274.785 199.937C274.893 200.066 275.087 200.09 275.224 199.993L275.23 199.995L276.781 198.943Z" fill="white"/>
<path d="M272.367 200.843L270.941 199.623C270.518 200.283 270.318 201.074 270.411 201.888L272.239 201.383L272.24 201.377C272.306 201.36 272.364 201.323 272.406 201.272C272.513 201.144 272.494 200.958 272.366 200.851L272.367 200.843Z" fill="white"/>
<path d="M277.818 200.717C277.722 200.319 277.562 199.952 277.35 199.624L275.932 200.838L275.933 200.842C275.882 200.884 275.846 200.941 275.831 201.004C275.793 201.165 275.894 201.325 276.058 201.368L276.06 201.376L277.897 201.882C277.936 201.503 277.912 201.11 277.818 200.717Z" fill="white"/>
<path d="M274.443 200.938H273.858L273.495 201.371L273.625 201.913L274.151 202.155L274.675 201.914L274.806 201.372L274.443 200.938Z" fill="white"/>
<path d="M275.805 202.429C275.781 202.425 275.756 202.423 275.731 202.424C275.69 202.426 275.648 202.436 275.608 202.454C275.453 202.526 275.386 202.702 275.453 202.852L275.451 202.854L276.185 204.551C276.892 204.12 277.422 203.475 277.698 202.731L275.808 202.425L275.805 202.429Z" fill="white"/>
<path d="M272.863 202.67C272.83 202.529 272.7 202.433 272.556 202.431C272.535 202.431 272.514 202.433 272.493 202.437L272.49 202.433L270.616 202.737C270.905 203.503 271.446 204.127 272.125 204.544L272.851 202.865L272.845 202.858C272.871 202.801 272.879 202.735 272.863 202.67Z" fill="white"/>
<path d="M274.289 203.197C274.242 203.176 274.191 203.165 274.139 203.167C274.083 203.169 274.029 203.185 273.981 203.213C273.934 203.242 273.895 203.282 273.868 203.329H273.867L272.945 204.924C273.583 205.132 274.287 205.178 274.994 205.025C275.119 204.998 275.242 204.965 275.363 204.926L274.439 203.328H274.432C274.402 203.273 274.352 203.227 274.289 203.197Z" fill="white"/>
<path fill-rule="evenodd" clip-rule="evenodd" d="M273.645 193.24C273.784 193.177 273.935 193.14 274.089 193.133C274.283 193.123 274.477 193.16 274.652 193.24L280.718 196.012C280.875 196.084 281.013 196.188 281.122 196.318C281.23 196.447 281.307 196.598 281.346 196.759L282.844 202.989C282.883 203.151 282.883 203.318 282.844 203.48C282.806 203.641 282.729 203.792 282.62 203.921L278.423 208.918C278.315 209.047 278.177 209.151 278.02 209.223C277.863 209.294 277.691 209.331 277.517 209.331L270.784 209.333C270.609 209.333 270.437 209.295 270.28 209.224C270.123 209.152 269.985 209.048 269.877 208.918L265.678 203.923C265.655 203.895 265.633 203.865 265.612 203.835C265.528 203.712 265.471 203.573 265.444 203.428C265.417 203.283 265.42 203.135 265.455 202.991L266.951 196.761C266.99 196.599 267.067 196.449 267.175 196.319C267.284 196.19 267.422 196.086 267.579 196.014L273.645 193.24ZM273.788 195.63C273.788 195.417 273.95 195.244 274.151 195.244C274.351 195.244 274.514 195.417 274.514 195.63C274.514 195.641 274.514 195.653 274.514 195.666C274.515 195.688 274.515 195.711 274.515 195.729C274.511 195.81 274.498 195.879 274.485 195.948C274.478 195.984 274.471 196.021 274.465 196.059L274.463 196.078C274.433 196.312 274.408 196.508 274.424 196.69C274.436 196.77 274.48 196.809 274.523 196.846C274.529 196.852 274.536 196.857 274.543 196.863C274.544 196.888 274.548 196.972 274.551 197.018C275.705 197.117 276.778 197.622 277.565 198.412L277.703 198.318C277.709 198.318 277.715 198.318 277.722 198.319C277.774 198.323 277.861 198.329 277.923 198.295C278.082 198.193 278.227 198.052 278.4 197.883L278.413 197.871C278.44 197.843 278.465 197.816 278.49 197.789C278.539 197.734 278.588 197.681 278.653 197.628C278.669 197.615 278.69 197.598 278.711 197.583C278.719 197.577 278.726 197.572 278.733 197.566C278.907 197.433 279.15 197.448 279.275 197.598C279.4 197.748 279.36 197.977 279.186 198.11C279.177 198.116 279.169 198.123 279.159 198.13C279.141 198.145 279.121 198.16 279.106 198.171C279.038 198.219 278.974 198.252 278.909 198.285C278.874 198.302 278.839 198.32 278.804 198.34C278.587 198.468 278.407 198.575 278.264 198.703C278.205 198.763 278.201 198.82 278.198 198.874C278.197 198.883 278.196 198.891 278.196 198.9C278.186 198.908 278.164 198.927 278.14 198.947C278.115 198.969 278.086 198.993 278.067 199.01C278.38 199.456 278.614 199.962 278.747 200.515C278.879 201.063 278.899 201.611 278.823 202.137L278.97 202.178C278.973 202.182 278.976 202.187 278.98 202.193C279.009 202.233 279.059 202.304 279.127 202.329C279.311 202.385 279.519 202.405 279.769 202.431L279.777 202.431C279.818 202.435 279.857 202.436 279.896 202.438C279.97 202.44 280.043 202.443 280.126 202.458C280.145 202.461 280.169 202.467 280.193 202.473C280.206 202.476 280.22 202.479 280.231 202.482C280.445 202.531 280.583 202.72 280.538 202.905C280.494 203.09 280.285 203.203 280.07 203.159C280.068 203.159 280.066 203.158 280.064 203.158C280.062 203.158 280.06 203.156 280.057 203.156C280.047 203.154 280.035 203.151 280.023 203.149C280.002 203.145 279.98 203.141 279.964 203.137C279.882 203.116 279.815 203.088 279.747 203.06C279.712 203.045 279.676 203.03 279.638 203.016L279.627 203.012C279.391 202.932 279.196 202.865 279.005 202.838C278.92 202.832 278.871 202.864 278.824 202.896C278.816 202.9 278.809 202.905 278.802 202.91C278.775 202.905 278.693 202.891 278.646 202.884C278.298 203.93 277.558 204.836 276.553 205.404C276.559 205.417 276.566 205.434 276.573 205.452C276.588 205.491 276.605 205.534 276.614 205.544C276.611 205.552 276.607 205.56 276.604 205.568C276.583 205.619 276.561 205.671 276.586 205.749C276.656 205.924 276.77 206.095 276.908 206.301C276.931 206.333 276.954 206.363 276.976 206.393C277.02 206.45 277.063 206.506 277.103 206.578C277.113 206.596 277.125 206.62 277.136 206.643C277.141 206.653 277.146 206.663 277.15 206.671C277.243 206.862 277.175 207.082 276.996 207.165C276.815 207.248 276.59 207.16 276.494 206.968C276.489 206.96 276.485 206.951 276.48 206.942C276.469 206.92 276.457 206.897 276.449 206.879C276.415 206.804 276.395 206.737 276.375 206.668C276.365 206.633 276.355 206.597 276.343 206.561L276.34 206.551C276.259 206.324 276.192 206.136 276.094 205.976C276.046 205.908 275.989 205.892 275.934 205.876C275.925 205.874 275.917 205.871 275.909 205.869C275.903 205.859 275.888 205.833 275.872 205.806C275.858 205.781 275.842 205.754 275.831 205.735C275.628 205.809 275.42 205.869 275.208 205.915C274.266 206.119 273.323 206.036 272.481 205.727L272.398 205.869C272.337 205.885 272.278 205.901 272.242 205.942C272.149 206.048 272.095 206.2 272.038 206.36C272.014 206.428 271.989 206.498 271.961 206.567C271.948 206.604 271.938 206.64 271.928 206.676C271.909 206.744 271.89 206.811 271.856 206.885C271.848 206.902 271.837 206.924 271.826 206.944C271.821 206.954 271.816 206.964 271.811 206.973C271.811 206.973 271.811 206.973 271.811 206.973C271.811 206.974 271.811 206.974 271.811 206.974C271.811 206.974 271.811 206.974 271.811 206.975C271.81 206.975 271.811 206.974 271.811 206.975C271.714 207.166 271.49 207.254 271.309 207.171C271.13 207.088 271.061 206.868 271.155 206.677C271.16 206.667 271.166 206.655 271.171 206.643C271.182 206.622 271.192 206.6 271.201 206.584C271.241 206.512 271.284 206.455 271.328 206.397C271.351 206.368 271.374 206.338 271.396 206.306C271.534 206.1 271.654 205.916 271.725 205.741C271.742 205.683 271.716 205.603 271.692 205.544L271.758 205.393C270.792 204.845 270.029 203.971 269.665 202.891L269.506 202.917C269.502 202.914 269.496 202.911 269.49 202.908C269.445 202.883 269.369 202.841 269.298 202.846C269.107 202.873 268.911 202.94 268.675 203.021L268.665 203.024C268.627 203.038 268.592 203.053 268.557 203.067C268.488 203.095 268.421 203.123 268.339 203.144C268.32 203.149 268.296 203.154 268.272 203.158C268.263 203.16 268.254 203.162 268.245 203.164C268.244 203.164 268.243 203.165 268.242 203.165C268.24 203.166 268.239 203.166 268.238 203.166C268.237 203.166 268.236 203.167 268.235 203.167C268.234 203.167 268.233 203.167 268.232 203.167C268.017 203.211 267.808 203.099 267.764 202.913C267.72 202.728 267.857 202.539 268.071 202.49C268.073 202.49 268.075 202.489 268.077 202.488L268.08 202.488C268.089 202.486 268.099 202.483 268.109 202.481C268.133 202.475 268.157 202.47 268.177 202.466C268.259 202.451 268.332 202.448 268.406 202.446C268.445 202.444 268.484 202.443 268.525 202.439L268.533 202.439C268.783 202.414 268.991 202.393 269.176 202.337C269.228 202.316 269.279 202.253 269.317 202.205C269.322 202.198 269.327 202.192 269.332 202.186L269.484 202.144C269.313 201.015 269.602 199.907 270.225 199.01L270.108 198.91C270.107 198.905 270.107 198.9 270.106 198.894C270.098 198.845 270.085 198.76 270.035 198.71C269.893 198.581 269.713 198.475 269.496 198.347C269.46 198.327 269.426 198.309 269.392 198.292C269.327 198.259 269.262 198.226 269.194 198.178C269.179 198.167 269.159 198.152 269.141 198.137C269.133 198.131 269.126 198.126 269.119 198.12C269.118 198.12 269.117 198.119 269.117 198.118C269.116 198.118 269.115 198.117 269.114 198.116C268.94 197.984 268.9 197.754 269.025 197.604C269.095 197.52 269.202 197.478 269.314 197.482C269.401 197.485 269.491 197.515 269.567 197.573C269.574 197.578 269.581 197.584 269.589 197.589C269.609 197.605 269.631 197.621 269.647 197.635C269.712 197.688 269.76 197.74 269.809 197.794C269.833 197.821 269.859 197.849 269.886 197.877L269.893 197.883C270.069 198.055 270.215 198.197 270.376 198.301C270.45 198.342 270.509 198.333 270.566 198.324C270.574 198.323 270.583 198.322 270.592 198.321C270.635 198.351 270.679 198.381 270.723 198.41C271.341 197.782 272.152 197.318 273.095 197.113C273.311 197.066 273.53 197.034 273.751 197.016L273.76 196.869C273.808 196.824 273.862 196.76 273.878 196.69C273.893 196.504 273.868 196.304 273.838 196.064L273.837 196.059C273.832 196.021 273.825 195.984 273.818 195.949C273.804 195.879 273.791 195.81 273.788 195.729C273.787 195.712 273.788 195.69 273.788 195.669C273.788 195.659 273.788 195.649 273.789 195.64C273.788 195.638 273.788 195.637 273.788 195.635C273.788 195.633 273.788 195.632 273.788 195.63Z" fill="white"/>
<rect x="259.564" y="141.624" width="29.2873" height="29.2873" rx="4.67351" fill="url(#paint20_linear_9684_114406)"/>
<rect x="259.564" y="141.624" width="29.2873" height="29.2873" rx="4.67351" stroke="url(#paint21_linear_9684_114406)" stroke-width="0.623134"/>
<path d="M280.438 148.79H267.975C266.942 148.79 266.105 149.627 266.105 150.659V159.383C266.105 160.416 266.942 161.253 267.975 161.253H280.438C281.47 161.253 282.307 160.416 282.307 159.383V150.659C282.307 149.627 281.47 148.79 280.438 148.79Z" fill="white"/>
<path d="M277.161 152.662L274.206 154.372L271.25 152.662C271.215 152.642 271.185 152.612 271.165 152.577C271.144 152.541 271.133 152.501 271.133 152.459C271.133 152.418 271.144 152.378 271.165 152.342C271.185 152.307 271.215 152.277 271.25 152.257L273.841 150.757C273.952 150.693 274.078 150.659 274.206 150.659C274.334 150.659 274.459 150.693 274.57 150.757L277.161 152.257C277.197 152.277 277.226 152.307 277.247 152.342C277.267 152.378 277.278 152.418 277.278 152.459C277.278 152.501 277.267 152.541 277.247 152.577C277.226 152.612 277.197 152.642 277.161 152.662ZM270.467 153.696V156.597C270.467 156.73 270.501 156.861 270.567 156.976C270.633 157.092 270.727 157.188 270.842 157.255L273.388 158.729C273.423 158.749 273.464 158.76 273.505 158.76C273.546 158.76 273.586 158.749 273.621 158.729C273.657 158.708 273.686 158.679 273.707 158.643C273.727 158.608 273.738 158.567 273.738 158.526V155.184L270.817 153.494C270.782 153.473 270.742 153.462 270.701 153.462C270.66 153.462 270.619 153.473 270.584 153.494C270.548 153.514 270.519 153.544 270.498 153.579C270.478 153.615 270.467 153.655 270.467 153.696ZM277.944 156.597V153.696C277.944 153.655 277.934 153.615 277.913 153.579C277.892 153.544 277.863 153.514 277.827 153.494C277.792 153.473 277.752 153.462 277.711 153.462C277.67 153.462 277.629 153.473 277.594 153.494L274.673 155.184V158.526C274.673 158.567 274.684 158.608 274.704 158.643C274.725 158.679 274.754 158.708 274.79 158.729C274.825 158.749 274.866 158.76 274.907 158.76C274.948 158.76 274.988 158.749 275.023 158.729L277.569 157.255C277.683 157.188 277.778 157.092 277.844 156.976C277.91 156.861 277.945 156.73 277.944 156.597Z" fill="#0A0D0F"/>
<path d="M276.698 162.499H271.713C271.548 162.499 271.389 162.565 271.272 162.681C271.155 162.798 271.09 162.957 271.09 163.122C271.09 163.287 271.155 163.446 271.272 163.563C271.389 163.68 271.548 163.745 271.713 163.745H276.698C276.863 163.745 277.022 163.68 277.139 163.563C277.256 163.446 277.321 163.287 277.321 163.122C277.321 162.957 277.256 162.798 277.139 162.681C277.022 162.565 276.863 162.499 276.698 162.499Z" fill="white"/>
<rect x="11.7168" y="9.83081" width="53.2399" height="22.9701" rx="2.49254" fill="#F5F5F5"/>
<path d="M21.6984 19.6542H19.8184C19.4743 19.6542 19.1953 19.9332 19.1953 20.2773V25.6778C19.1953 26.022 19.4743 26.301 19.8184 26.301H27.118C27.4622 26.301 27.7412 26.022 27.7412 25.6778V20.2773C27.7412 19.9332 27.4622 19.6542 27.118 19.6542H25.2696M21.6984 19.6542V18.1164C21.6984 17.1303 22.4978 16.3308 23.484 16.3308V16.3308C24.4702 16.3308 25.2696 17.1303 25.2696 18.1164V19.6542M21.6984 19.6542H25.2696" stroke="#0A0D0F"/>
<circle cx="23.4676" cy="22.9709" r="0.957826" stroke="#0A0D0F"/>
<path d="M38.8385 19.2359C39.2652 19.2359 39.6452 19.3259 39.9785 19.5059C40.3118 19.6793 40.5752 19.9426 40.7685 20.2959C40.9618 20.6493 41.0585 21.0793 41.0585 21.5859V24.8159H40.1585V21.7159C40.1585 21.1693 40.0218 20.7526 39.7485 20.4659C39.4818 20.1726 39.1185 20.0259 38.6585 20.0259C38.1852 20.0259 37.8085 20.1793 37.5285 20.4859C37.2485 20.7859 37.1085 21.2226 37.1085 21.7959V24.8159H36.2085V21.7159C36.2085 21.1693 36.0718 20.7526 35.7985 20.4659C35.5318 20.1726 35.1685 20.0259 34.7085 20.0259C34.2352 20.0259 33.8585 20.1793 33.5785 20.4859C33.2985 20.7859 33.1585 21.2226 33.1585 21.7959V24.8159H32.2485V19.3359H33.1585V20.1259C33.3385 19.8393 33.5785 19.6193 33.8785 19.4659C34.1852 19.3126 34.5218 19.2359 34.8885 19.2359C35.3485 19.2359 35.7552 19.3393 36.1085 19.5459C36.4618 19.7526 36.7252 20.0559 36.8985 20.4559C37.0518 20.0693 37.3052 19.7693 37.6585 19.5559C38.0118 19.3426 38.4052 19.2359 38.8385 19.2359ZM46.8413 17.8459V18.5859H44.9413V24.8159H44.0313V18.5859H42.1213V17.8459H46.8413ZM48.8714 24.0759H51.3114V24.8159H47.9614V17.8459H48.8714V24.0759ZM54.4878 24.8859C54.0278 24.8859 53.6145 24.8059 53.2478 24.6459C52.8878 24.4793 52.6045 24.2526 52.3978 23.9659C52.1911 23.6726 52.0845 23.3359 52.0778 22.9559H53.0478C53.0811 23.2826 53.2145 23.5593 53.4478 23.7859C53.6878 24.0059 54.0345 24.1159 54.4878 24.1159C54.9211 24.1159 55.2611 24.0093 55.5078 23.7959C55.7611 23.5759 55.8878 23.2959 55.8878 22.9559C55.8878 22.6893 55.8145 22.4726 55.6678 22.3059C55.5211 22.1393 55.3378 22.0126 55.1178 21.9259C54.8978 21.8393 54.6011 21.7459 54.2278 21.6459C53.7678 21.5259 53.3978 21.4059 53.1178 21.2859C52.8445 21.1659 52.6078 20.9793 52.4078 20.7259C52.2145 20.4659 52.1178 20.1193 52.1178 19.6859C52.1178 19.3059 52.2145 18.9693 52.4078 18.6759C52.6011 18.3826 52.8711 18.1559 53.2178 17.9959C53.5711 17.8359 53.9745 17.7559 54.4278 17.7559C55.0811 17.7559 55.6145 17.9193 56.0278 18.2459C56.4478 18.5726 56.6845 19.0059 56.7378 19.5459H55.7378C55.7045 19.2793 55.5645 19.0459 55.3178 18.8459C55.0711 18.6393 54.7445 18.5359 54.3378 18.5359C53.9578 18.5359 53.6478 18.6359 53.4078 18.8359C53.1678 19.0293 53.0478 19.3026 53.0478 19.6559C53.0478 19.9093 53.1178 20.1159 53.2578 20.2759C53.4045 20.4359 53.5811 20.5593 53.7878 20.6459C54.0011 20.7259 54.2978 20.8193 54.6778 20.9259C55.1378 21.0526 55.5078 21.1793 55.7878 21.3059C56.0678 21.4259 56.3078 21.6159 56.5078 21.8759C56.7078 22.1293 56.8078 22.4759 56.8078 22.9159C56.8078 23.2559 56.7178 23.5759 56.5378 23.8759C56.3578 24.1759 56.0911 24.4193 55.7378 24.6059C55.3845 24.7926 54.9678 24.8859 54.4878 24.8859Z" fill="#0A0D0F"/>
<rect x="66.8262" y="9.83081" width="64.4089" height="22.9701" rx="2.49254" fill="#F5F5F5"/>
<path d="M78.7197 16.8041L78.7988 16.8226L78.7998 16.8236L82.2021 17.933H82.2031C82.3689 17.9868 82.47 18.1157 82.4932 18.2484L82.498 18.3051V18.306L82.5195 21.6156C82.525 22.4417 82.2279 23.301 81.6934 23.9554L81.583 24.0834C81.382 24.3056 81.1324 24.5111 80.8184 24.7045L80.4824 24.8939L78.6953 25.8217L76.8945 24.9144H76.8936C76.4716 24.7017 76.1451 24.4741 75.8887 24.225L75.7832 24.1166H75.7822C75.21 23.5 74.8751 22.6575 74.8311 21.8236L74.8262 21.6576L74.8047 18.35C74.8038 18.1984 74.9064 18.0385 75.0957 17.974L75.0947 17.973L78.4844 16.8246L78.5625 16.8051C78.6135 16.7965 78.667 16.7959 78.7197 16.8041Z" stroke="#0A0D0F"/>
<path d="M80.7187 19.9833L78.416 22.286C78.3854 22.3166 78.3491 22.3409 78.3092 22.3574C78.2693 22.374 78.2265 22.3825 78.1832 22.3825C78.14 22.3825 78.0972 22.374 78.0572 22.3574C78.0173 22.3409 77.981 22.3166 77.9505 22.286L76.9636 21.2991C76.9019 21.2374 76.8672 21.1537 76.8672 21.0664C76.8672 20.9791 76.9019 20.8954 76.9636 20.8336C77.0253 20.7719 77.109 20.7372 77.1963 20.7372C77.2836 20.7372 77.3673 20.7719 77.4291 20.8336L78.1832 21.5878L80.2532 19.5178C80.2838 19.4872 80.3201 19.463 80.36 19.4464C80.3999 19.4299 80.4427 19.4214 80.486 19.4214C80.5292 19.4214 80.572 19.4299 80.6119 19.4464C80.6518 19.463 80.6881 19.4872 80.7187 19.5178C80.7493 19.5484 80.7735 19.5846 80.79 19.6246C80.8066 19.6645 80.8151 19.7073 80.8151 19.7505C80.8151 19.7938 80.8066 19.8366 80.79 19.8765C80.7735 19.9164 80.7493 19.9527 80.7187 19.9833Z" fill="#0A0D0F"/>
<path d="M90.6878 24.8859C90.0411 24.8859 89.4511 24.7359 88.9178 24.4359C88.3845 24.1293 87.9611 23.7059 87.6478 23.1659C87.3411 22.6193 87.1878 22.0059 87.1878 21.3259C87.1878 20.6459 87.3411 20.0359 87.6478 19.4959C87.9611 18.9493 88.3845 18.5259 88.9178 18.2259C89.4511 17.9193 90.0411 17.7659 90.6878 17.7659C91.3411 17.7659 91.9345 17.9193 92.4678 18.2259C93.0011 18.5259 93.4211 18.9459 93.7278 19.4859C94.0345 20.0259 94.1878 20.6393 94.1878 21.3259C94.1878 22.0126 94.0345 22.6259 93.7278 23.1659C93.4211 23.7059 93.0011 24.1293 92.4678 24.4359C91.9345 24.7359 91.3411 24.8859 90.6878 24.8859ZM90.6878 24.0959C91.1745 24.0959 91.6111 23.9826 91.9978 23.7559C92.3911 23.5293 92.6978 23.2059 92.9178 22.7859C93.1445 22.3659 93.2578 21.8793 93.2578 21.3259C93.2578 20.7659 93.1445 20.2793 92.9178 19.8659C92.6978 19.4459 92.3945 19.1226 92.0078 18.8959C91.6211 18.6693 91.1811 18.5559 90.6878 18.5559C90.1945 18.5559 89.7545 18.6693 89.3678 18.8959C88.9811 19.1226 88.6745 19.4459 88.4478 19.8659C88.2278 20.2793 88.1178 20.7659 88.1178 21.3259C88.1178 21.8793 88.2278 22.3659 88.4478 22.7859C88.6745 23.2059 88.9811 23.5293 89.3678 23.7559C89.7611 23.9826 90.2011 24.0959 90.6878 24.0959ZM99.5091 23.2659H96.4691L95.9091 24.8159H94.9491L97.4691 17.8859H98.5191L101.029 24.8159H100.069L99.5091 23.2659ZM99.2491 22.5259L97.9891 19.0059L96.7291 22.5259H99.2491ZM106.987 19.3359V24.8159H106.077V24.0059C105.904 24.2859 105.661 24.5059 105.347 24.6659C105.041 24.8193 104.701 24.8959 104.327 24.8959C103.901 24.8959 103.517 24.8093 103.177 24.6359C102.837 24.4559 102.567 24.1893 102.367 23.8359C102.174 23.4826 102.077 23.0526 102.077 22.5459V19.3359H102.977V22.4259C102.977 22.9659 103.114 23.3826 103.387 23.6759C103.661 23.9626 104.034 24.1059 104.507 24.1059C104.994 24.1059 105.377 23.9559 105.657 23.6559C105.937 23.3559 106.077 22.9193 106.077 22.3459V19.3359H106.987ZM109.634 20.0859V23.3159C109.634 23.5826 109.691 23.7726 109.804 23.8859C109.917 23.9926 110.114 24.0459 110.394 24.0459H111.064V24.8159H110.244C109.737 24.8159 109.357 24.6993 109.104 24.4659C108.851 24.2326 108.724 23.8493 108.724 23.3159V20.0859H108.014V19.3359H108.724V17.9559H109.634V19.3359H111.064V20.0859H109.634ZM114.886 19.2359C115.3 19.2359 115.673 19.3259 116.006 19.5059C116.34 19.6793 116.6 19.9426 116.786 20.2959C116.98 20.6493 117.076 21.0793 117.076 21.5859V24.8159H116.176V21.7159C116.176 21.1693 116.04 20.7526 115.766 20.4659C115.493 20.1726 115.12 20.0259 114.646 20.0259C114.166 20.0259 113.783 20.1759 113.496 20.4759C113.216 20.7759 113.076 21.2126 113.076 21.7859V24.8159H112.166V17.4159H113.076V20.1159C113.256 19.8359 113.503 19.6193 113.816 19.4659C114.136 19.3126 114.493 19.2359 114.886 19.2359ZM118.303 24.0859C119.15 23.4059 119.813 22.8493 120.293 22.4159C120.773 21.9759 121.176 21.5193 121.503 21.0459C121.836 20.5659 122.003 20.0959 122.003 19.6359C122.003 19.2026 121.896 18.8626 121.683 18.6159C121.476 18.3626 121.14 18.2359 120.673 18.2359C120.22 18.2359 119.866 18.3793 119.613 18.6659C119.366 18.9459 119.233 19.3226 119.213 19.7959H118.333C118.36 19.0493 118.586 18.4726 119.013 18.0659C119.44 17.6593 119.99 17.4559 120.663 17.4559C121.35 17.4559 121.893 17.6459 122.293 18.0259C122.7 18.4059 122.903 18.9293 122.903 19.5959C122.903 20.1493 122.736 20.6893 122.403 21.2159C122.076 21.7359 121.703 22.1959 121.283 22.5959C120.863 22.9893 120.326 23.4493 119.673 23.9759H123.113V24.7359H118.303V24.0859Z" fill="#242424"/>
</g>
<rect x="0.811567" y="0.796675" width="333.377" height="241.776" rx="9.65858" stroke="url(#paint22_linear_9684_114406)" stroke-opacity="0.47" stroke-width="0.623134"/>
<defs>
<linearGradient id="paint0_linear_9684_114406" x1="167.5" y1="0.485107" x2="167.5" y2="242.884" gradientUnits="userSpaceOnUse">
<stop stop-color="#161C20"/>
<stop offset="1" stop-color="#0A0D0F"/>
</linearGradient>
<radialGradient id="paint1_radial_9684_114406" cx="0" cy="0" r="1" gradientUnits="userSpaceOnUse" gradientTransform="translate(169.047 132.719) scale(172.227 157.483)">
<stop stop-color="#D9D9D9" stop-opacity="0.8"/>
<stop offset="1" stop-color="#737373"/>
</radialGradient>
<linearGradient id="paint2_linear_9684_114406" x1="291.453" y1="54.5013" x2="338.754" y2="36.8105" gradientUnits="userSpaceOnUse">
<stop stop-color="#33373A"/>
<stop offset="1" stop-color="#33373A" stop-opacity="0"/>
</linearGradient>
<linearGradient id="paint3_linear_9684_114406" x1="328.451" y1="85.0892" x2="286.326" y2="68.5071" gradientUnits="userSpaceOnUse">
<stop stop-color="#33373A" stop-opacity="0"/>
<stop offset="1" stop-color="#33373A"/>
</linearGradient>
<linearGradient id="paint4_linear_9684_114406" x1="324.515" y1="91.3628" x2="270.854" y2="91.3628" gradientUnits="userSpaceOnUse">
<stop stop-color="#33373A" stop-opacity="0"/>
<stop offset="1" stop-color="#33373A"/>
</linearGradient>
<linearGradient id="paint5_linear_9684_114406" x1="291.453" y1="154.203" x2="338.754" y2="136.513" gradientUnits="userSpaceOnUse">
<stop stop-color="#33373A"/>
<stop offset="1" stop-color="#33373A" stop-opacity="0"/>
</linearGradient>
<linearGradient id="paint6_linear_9684_114406" x1="328.451" y1="184.792" x2="286.326" y2="168.21" gradientUnits="userSpaceOnUse">
<stop stop-color="#33373A" stop-opacity="0"/>
<stop offset="1" stop-color="#33373A"/>
</linearGradient>
<linearGradient id="paint7_linear_9684_114406" x1="324.443" y1="191.757" x2="270.782" y2="191.757" gradientUnits="userSpaceOnUse">
<stop stop-color="#33373A" stop-opacity="0"/>
<stop offset="1" stop-color="#33373A"/>
</linearGradient>
<linearGradient id="paint8_linear_9684_114406" x1="51.2736" y1="113.271" x2="51.2736" y2="143.181" gradientUnits="userSpaceOnUse">
<stop stop-color="#161C20"/>
<stop offset="1" stop-color="#0A0D0F"/>
</linearGradient>
<linearGradient id="paint9_linear_9684_114406" x1="51.2736" y1="128.216" x2="51.2736" y2="143.181" gradientUnits="userSpaceOnUse">
<stop stop-color="#3B3D3F" stop-opacity="0.5"/>
<stop offset="1" stop-color="#3B3D3F" stop-opacity="0.89"/>
</linearGradient>
<linearGradient id="paint10_linear_9684_114406" x1="162.815" y1="62.797" x2="162.815" y2="92.7074" gradientUnits="userSpaceOnUse">
<stop stop-color="#161C20"/>
<stop offset="1" stop-color="#0A0D0F"/>
</linearGradient>
<linearGradient id="paint11_linear_9684_114406" x1="162.815" y1="77.7422" x2="162.815" y2="92.7074" gradientUnits="userSpaceOnUse">
<stop stop-color="#3B3D3F" stop-opacity="0.5"/>
<stop offset="1" stop-color="#3B3D3F" stop-opacity="0.89"/>
</linearGradient>
<linearGradient id="paint12_linear_9684_114406" x1="162.815" y1="163.745" x2="162.815" y2="193.655" gradientUnits="userSpaceOnUse">
<stop stop-color="#161C20"/>
<stop offset="1" stop-color="#0A0D0F"/>
</linearGradient>
<linearGradient id="paint13_linear_9684_114406" x1="162.815" y1="178.69" x2="162.815" y2="193.655" gradientUnits="userSpaceOnUse">
<stop stop-color="#3B3D3F" stop-opacity="0.5"/>
<stop offset="1" stop-color="#3B3D3F" stop-opacity="0.89"/>
</linearGradient>
<linearGradient id="paint14_linear_9684_114406" x1="274.207" y1="41.6104" x2="274.207" y2="71.5208" gradientUnits="userSpaceOnUse">
<stop stop-color="#161C20"/>
<stop offset="1" stop-color="#0A0D0F"/>
</linearGradient>
<linearGradient id="paint15_linear_9684_114406" x1="274.207" y1="56.5556" x2="274.207" y2="71.5208" gradientUnits="userSpaceOnUse">
<stop stop-color="#3B3D3F" stop-opacity="0.5"/>
<stop offset="1" stop-color="#3B3D3F" stop-opacity="0.89"/>
</linearGradient>
<linearGradient id="paint16_linear_9684_114406" x1="274.207" y1="85.8531" x2="274.207" y2="115.764" gradientUnits="userSpaceOnUse">
<stop stop-color="#161C20"/>
<stop offset="1" stop-color="#0A0D0F"/>
</linearGradient>
<linearGradient id="paint17_linear_9684_114406" x1="274.207" y1="100.798" x2="274.207" y2="115.764" gradientUnits="userSpaceOnUse">
<stop stop-color="#3B3D3F" stop-opacity="0.5"/>
<stop offset="1" stop-color="#3B3D3F" stop-opacity="0.89"/>
</linearGradient>
<linearGradient id="paint18_linear_9684_114406" x1="274.207" y1="186.178" x2="274.207" y2="216.088" gradientUnits="userSpaceOnUse">
<stop stop-color="#161C20"/>
<stop offset="1" stop-color="#0A0D0F"/>
</linearGradient>
<linearGradient id="paint19_linear_9684_114406" x1="274.207" y1="201.123" x2="274.207" y2="216.088" gradientUnits="userSpaceOnUse">
<stop stop-color="#3B3D3F" stop-opacity="0.5"/>
<stop offset="1" stop-color="#3B3D3F" stop-opacity="0.89"/>
</linearGradient>
<linearGradient id="paint20_linear_9684_114406" x1="274.207" y1="141.312" x2="274.207" y2="171.223" gradientUnits="userSpaceOnUse">
<stop stop-color="#161C20"/>
<stop offset="1" stop-color="#0A0D0F"/>
</linearGradient>
<linearGradient id="paint21_linear_9684_114406" x1="274.207" y1="156.257" x2="274.207" y2="171.223" gradientUnits="userSpaceOnUse">
<stop stop-color="#3B3D3F" stop-opacity="0.5"/>
<stop offset="1" stop-color="#3B3D3F" stop-opacity="0.89"/>
</linearGradient>
<linearGradient id="paint22_linear_9684_114406" x1="167.5" y1="0.485107" x2="167.5" y2="242.884" gradientUnits="userSpaceOnUse">
<stop stop-color="#3B3D3F" stop-opacity="0.4"/>
<stop offset="1" stop-color="#3B3D3F"/>
</linearGradient>
<clipPath id="clip0_9684_114406">
<rect x="0.5" y="0.485107" width="334" height="242.399" rx="9.97015" fill="white"/>
</clipPath>
<clipPath id="clip1_9684_114406">
<rect width="17.4478" height="17.4478" fill="white" transform="translate(42.5488 119.503)"/>
</clipPath>
<clipPath id="clip2_9684_114406">
<rect width="17.4478" height="17.4478" fill="white" transform="translate(154.09 69.0276)"/>
</clipPath>
<clipPath id="clip3_9684_114406">
<rect width="17.4478" height="17.4478" fill="white" transform="translate(154.09 169.976)"/>
</clipPath>
</defs>
</svg>
