<svg width="24" height="25" viewBox="0 0 24 25" fill="none" xmlns="http://www.w3.org/2000/svg">
<path d="M19.5 4.63428L12.4545 2.99032C12.1555 2.92056 11.8445 2.92056 11.5455 2.99032L4.5 4.63428C4.10218 4.63428 3.72064 4.79231 3.43934 5.07362C3.15804 5.35492 3 5.73645 3 6.13428V11.6449C3 20.0458 10.1081 22.833 11.5312 23.3065C11.8352 23.4098 12.1648 23.4098 12.4688 23.3065C13.8938 22.833 21 20.0458 21 11.6449V6.13428C21 5.73645 20.842 5.35492 20.5607 5.07362C20.2794 4.79231 19.8978 4.63428 19.5 4.63428ZM19.5 11.6458C19.5 18.9977 13.2797 21.454 12 21.8815C10.7316 21.4587 4.5 19.0043 4.5 11.6458V6.13428L11.5455 4.49032C11.8445 4.42056 12.1555 4.42056 12.4545 4.49032L19.5 6.13428V11.6458ZM7.71937 14.1649C7.57864 14.0242 7.49958 13.8333 7.49958 13.6343C7.49958 13.4353 7.57864 13.2444 7.71937 13.1037C7.86011 12.9629 8.05098 12.8839 8.25 12.8839C8.44902 12.8839 8.63989 12.9629 8.78063 13.1037L10.5 14.823L15.2194 10.1037C15.2891 10.034 15.3718 9.97869 15.4628 9.94098C15.5539 9.90327 15.6515 9.88386 15.75 9.88386C15.8485 9.88386 15.9461 9.90327 16.0372 9.94098C16.1282 9.97869 16.2109 10.034 16.2806 10.1037C16.3503 10.1733 16.4056 10.2561 16.4433 10.3471C16.481 10.4381 16.5004 10.5357 16.5004 10.6343C16.5004 10.7328 16.481 10.8304 16.4433 10.9214C16.4056 11.0125 16.3503 11.0952 16.2806 11.1649L11.0306 16.4149C10.961 16.4846 10.8783 16.54 10.7872 16.5777C10.6962 16.6154 10.5986 16.6349 10.5 16.6349C10.4014 16.6349 10.3038 16.6154 10.2128 16.5777C10.1217 16.54 10.039 16.4846 9.96937 16.4149L7.71937 14.1649Z" fill="#FF5500"/>
</svg>
