<svg width="24" height="25" viewBox="0 0 24 25" fill="none" xmlns="http://www.w3.org/2000/svg">
<path d="M8.25 10.6343H3.75C3.55109 10.6343 3.36032 10.5553 3.21967 10.4146C3.07902 10.274 3 10.0832 3 9.88428V5.38428C3 5.18536 3.07902 4.9946 3.21967 4.85395C3.36032 4.7133 3.55109 4.63428 3.75 4.63428C3.94891 4.63428 4.13968 4.7133 4.28033 4.85395C4.42098 4.9946 4.5 5.18536 4.5 5.38428V7.62021C5.95031 5.98428 8.49469 3.88428 12 3.88428C16.0144 3.88428 18.4294 6.25334 18.5306 6.35365C18.6716 6.49413 18.751 6.68487 18.7514 6.88389C18.7517 7.08291 18.673 7.27392 18.5325 7.4149C18.392 7.55588 18.2013 7.63528 18.0023 7.63563C17.8032 7.63598 17.6122 7.55726 17.4713 7.41678C17.4459 7.39146 15.3675 5.38428 12 5.38428C8.71875 5.38428 6.35344 7.69521 5.1975 9.13428H8.25C8.44891 9.13428 8.63968 9.21329 8.78033 9.35395C8.92098 9.4946 9 9.68537 9 9.88428C9 10.0832 8.92098 10.274 8.78033 10.4146C8.63968 10.5553 8.44891 10.6343 8.25 10.6343ZM20.25 15.1343H15.75C15.5511 15.1343 15.3603 15.2133 15.2197 15.3539C15.079 15.4946 15 15.6854 15 15.8843C15 16.0832 15.079 16.274 15.2197 16.4146C15.3603 16.5553 15.5511 16.6343 15.75 16.6343H18.8025C17.6466 18.0733 15.2812 20.3843 12 20.3843C8.6325 20.3843 6.55406 18.3771 6.52875 18.3518C6.38777 18.2113 6.19676 18.1326 5.99774 18.1329C5.79871 18.1333 5.60798 18.2127 5.4675 18.3537C5.32702 18.4946 5.24829 18.6856 5.24865 18.8847C5.249 19.0837 5.3284 19.2744 5.46938 19.4149C5.57063 19.5152 7.98563 21.8843 12 21.8843C15.5053 21.8843 18.0497 19.7843 19.5 18.1483V20.3843C19.5 20.5832 19.579 20.774 19.7197 20.9146C19.8603 21.0553 20.0511 21.1343 20.25 21.1343C20.4489 21.1343 20.6397 21.0553 20.7803 20.9146C20.921 20.774 21 20.5832 21 20.3843V15.8843C21 15.6854 20.921 15.4946 20.7803 15.3539C20.6397 15.2133 20.4489 15.1343 20.25 15.1343Z" fill="#FF5500"/>
</svg>
