<svg width="24" height="25" viewBox="0 0 24 25" fill="none" xmlns="http://www.w3.org/2000/svg">
<path d="M18.5306 2.60421L21.5306 5.60421C21.6004 5.67387 21.6557 5.75658 21.6934 5.84763C21.7312 5.93868 21.7506 6.03627 21.7506 6.13484C21.7506 6.2334 21.7312 6.33099 21.6934 6.42204C21.6557 6.51309 21.6004 6.59581 21.5306 6.66546L18.5306 9.66546C18.3899 9.80619 18.199 9.88525 18 9.88525C17.801 9.88525 17.6101 9.80619 17.4694 9.66546C17.3286 9.52473 17.2496 9.33386 17.2496 9.13484C17.2496 8.93581 17.3286 8.74494 17.4694 8.60421L19.1897 6.88484L13.8103 6.88484L8.56031 12.1348L13.8103 17.3848L19.1897 17.3848L17.4694 15.6655C17.3286 15.5247 17.2496 15.3339 17.2496 15.1348C17.2496 14.9358 17.3286 14.7449 17.4694 14.6042C17.6101 14.4635 17.801 14.3844 18 14.3844C18.199 14.3844 18.3899 14.4635 18.5306 14.6042L21.5306 17.6042C21.6004 17.6739 21.6557 17.7566 21.6934 17.8476C21.7312 17.9387 21.7506 18.0363 21.7506 18.1348C21.7506 18.2334 21.7312 18.331 21.6934 18.422C21.6557 18.5131 21.6004 18.5958 21.5306 18.6655L18.5306 21.6655C18.4609 21.7351 18.3782 21.7904 18.2872 21.8281C18.1961 21.8658 18.0985 21.8853 18 21.8853C17.9015 21.8853 17.8039 21.8658 17.7128 21.8281C17.6218 21.7904 17.5391 21.7351 17.4694 21.6655C17.3286 21.5247 17.2496 21.3339 17.2496 21.1348C17.2496 21.0363 17.269 20.9387 17.3067 20.8477C17.3444 20.7566 17.3997 20.6739 17.4694 20.6042L19.1897 18.8848L13.5 18.8848C13.4015 18.8849 13.3039 18.8656 13.2129 18.8279C13.1218 18.7903 13.0391 18.7351 12.9694 18.6655L7.18969 12.8848L3 12.8848C2.80109 12.8848 2.61032 12.8058 2.46967 12.6652C2.32902 12.5245 2.25 12.3337 2.25 12.1348C2.25 11.9359 2.32902 11.7452 2.46967 11.6045C2.61032 11.4639 2.80109 11.3848 3 11.3848L7.18969 11.3848L12.9694 5.60421C13.0391 5.53459 13.1218 5.47937 13.2129 5.44173C13.3039 5.40409 13.4015 5.38476 13.5 5.38484L19.1897 5.38484L17.4694 3.66546C17.3286 3.52473 17.2496 3.33386 17.2496 3.13484C17.2496 2.93581 17.3286 2.74494 17.4694 2.60421C17.6101 2.46348 17.801 2.38442 18 2.38442C18.199 2.38442 18.3899 2.46348 18.5306 2.60421Z" fill="#FF5500"/>
</svg>
