<svg width="387" height="272" viewBox="0 0 387 272" fill="none" xmlns="http://www.w3.org/2000/svg">
<mask id="mask0_10157_85483" style="mask-type:alpha" maskUnits="userSpaceOnUse" x="0" y="-5" width="590" height="310">
<path d="M590 5.29721V294.631C590 300.2 585.45 304.696 579.881 304.63L9.88136 297.867C4.40518 297.802 0 293.345 0 287.868V7.98131C0 2.47684 4.44848 -1.99266 9.95289 -2.01858L579.953 -4.70269C585.494 -4.72878 590 -0.244036 590 5.29721Z" fill="url(#paint0_radial_10157_85483)"/>
</mask>
<g mask="url(#mask0_10157_85483)">
<path d="M383.835 -250.75L687.247 274.775" stroke="#165ECA" stroke-width="0.5"/>
<path d="M380.371 -248.75L683.783 276.775" stroke="#165ECA" stroke-width="0.5"/>
<path d="M376.907 -246.75L680.319 278.775" stroke="#165ECA" stroke-width="0.5"/>
<path d="M373.443 -244.75L676.855 280.775" stroke="#165ECA" stroke-width="0.5"/>
<path d="M369.979 -242.75L673.39 282.775" stroke="#165ECA" stroke-width="0.5"/>
<path d="M366.515 -240.75L669.927 284.775" stroke="#165ECA" stroke-width="0.5"/>
<path d="M363.051 -238.75L666.463 286.775" stroke="#165ECA" stroke-width="0.5"/>
<path d="M359.587 -236.75L662.999 288.775" stroke="#165ECA" stroke-width="0.5"/>
<path d="M356.122 -234.75L659.534 290.775" stroke="#165ECA" stroke-width="0.5"/>
<path d="M352.658 -232.75L656.07 292.775" stroke="#165ECA" stroke-width="0.5"/>
<path d="M349.194 -230.75L652.606 294.775" stroke="#165ECA" stroke-width="0.5"/>
<path d="M345.73 -228.75L649.142 296.775" stroke="#165ECA" stroke-width="0.5"/>
<path d="M342.267 -226.75L645.678 298.775" stroke="#165ECA" stroke-width="0.5"/>
<path d="M338.802 -224.75L642.214 300.775" stroke="#165ECA" stroke-width="0.5"/>
<path d="M335.338 -222.75L638.75 302.775" stroke="#165ECA" stroke-width="0.5"/>
<path d="M331.874 -220.75L635.286 304.775" stroke="#165ECA" stroke-width="0.5"/>
<path d="M328.41 -218.75L631.822 306.775" stroke="#165ECA" stroke-width="0.5"/>
<path d="M324.945 -216.75L628.357 308.775" stroke="#165ECA" stroke-width="0.5"/>
<path d="M321.481 -214.75L624.893 310.775" stroke="#165ECA" stroke-width="0.5"/>
<path d="M318.018 -212.75L621.429 312.775" stroke="#165ECA" stroke-width="0.5"/>
<path d="M314.554 -210.75L617.966 314.775" stroke="#165ECA" stroke-width="0.5"/>
<path d="M311.089 -208.75L614.501 316.775" stroke="#165ECA" stroke-width="0.5"/>
<path d="M307.625 -206.75L611.037 318.775" stroke="#165ECA" stroke-width="0.5"/>
<path d="M304.161 -204.75L607.573 320.775" stroke="#165ECA" stroke-width="0.5"/>
<path d="M300.697 -202.75L604.109 322.775" stroke="#165ECA" stroke-width="0.5"/>
<path d="M297.232 -200.75L600.644 324.775" stroke="#165ECA" stroke-width="0.5"/>
<path d="M293.769 -198.75L597.18 326.775" stroke="#165ECA" stroke-width="0.5"/>
<path d="M290.305 -196.75L593.717 328.775" stroke="#165ECA" stroke-width="0.5"/>
<path d="M286.841 -194.75L590.253 330.775" stroke="#165ECA" stroke-width="0.5"/>
<path d="M283.376 -192.75L586.788 332.775" stroke="#165ECA" stroke-width="0.5"/>
<path d="M279.912 -190.75L583.324 334.775" stroke="#165ECA" stroke-width="0.5"/>
<path d="M276.448 -188.75L579.86 336.775" stroke="#165ECA" stroke-width="0.5"/>
<path d="M272.984 -186.75L576.396 338.775" stroke="#165ECA" stroke-width="0.5"/>
<path d="M269.52 -184.75L572.931 340.775" stroke="#165ECA" stroke-width="0.5"/>
<path d="M266.056 -182.75L569.468 342.775" stroke="#165ECA" stroke-width="0.5"/>
<path d="M262.592 -180.75L566.004 344.775" stroke="#165ECA" stroke-width="0.5"/>
<path d="M259.128 -178.75L562.54 346.775" stroke="#165ECA" stroke-width="0.5"/>
<path d="M255.664 -176.75L559.076 348.775" stroke="#165ECA" stroke-width="0.5"/>
<path d="M252.199 -174.75L555.611 350.775" stroke="#165ECA" stroke-width="0.5"/>
<path d="M248.735 -172.75L552.147 352.775" stroke="#165ECA" stroke-width="0.5"/>
<path d="M245.271 -170.75L548.683 354.775" stroke="#165ECA" stroke-width="0.5"/>
<path d="M241.808 -168.75L545.219 356.775" stroke="#165ECA" stroke-width="0.5"/>
<path d="M238.343 -166.75L541.755 358.775" stroke="#165ECA" stroke-width="0.5"/>
<path d="M234.879 -164.75L538.291 360.775" stroke="#165ECA" stroke-width="0.5"/>
<path d="M231.415 -162.75L534.827 362.775" stroke="#165ECA" stroke-width="0.5"/>
<path d="M227.951 -160.75L531.363 364.775" stroke="#165ECA" stroke-width="0.5"/>
<path d="M224.486 -158.75L527.898 366.775" stroke="#165ECA" stroke-width="0.5"/>
<path d="M221.022 -156.75L524.434 368.775" stroke="#165ECA" stroke-width="0.5"/>
<path d="M217.559 -154.75L520.97 370.775" stroke="#165ECA" stroke-width="0.5"/>
<path d="M214.095 -152.75L517.507 372.775" stroke="#165ECA" stroke-width="0.5"/>
<path d="M210.63 -150.75L514.042 374.775" stroke="#165ECA" stroke-width="0.5"/>
<path d="M207.166 -148.75L510.578 376.775" stroke="#165ECA" stroke-width="0.5"/>
<path d="M203.702 -146.75L507.114 378.775" stroke="#165ECA" stroke-width="0.5"/>
<path d="M200.238 -144.75L503.65 380.775" stroke="#165ECA" stroke-width="0.5"/>
<path d="M196.773 -142.75L500.185 382.775" stroke="#165ECA" stroke-width="0.5"/>
<path d="M193.31 -140.75L496.721 384.775" stroke="#165ECA" stroke-width="0.5"/>
<path d="M189.846 -138.75L493.258 386.775" stroke="#165ECA" stroke-width="0.5"/>
<path d="M186.382 -136.75L489.794 388.775" stroke="#165ECA" stroke-width="0.5"/>
<path d="M182.917 -134.75L486.329 390.775" stroke="#165ECA" stroke-width="0.5"/>
<path d="M179.453 -132.75L482.865 392.775" stroke="#165ECA" stroke-width="0.5"/>
<path d="M175.989 -130.75L479.401 394.775" stroke="#165ECA" stroke-width="0.5"/>
<path d="M172.525 -128.75L475.937 396.775" stroke="#165ECA" stroke-width="0.5"/>
<path d="M169.062 -126.75L472.473 398.775" stroke="#165ECA" stroke-width="0.5"/>
<path d="M165.597 -124.75L469.009 400.775" stroke="#165ECA" stroke-width="0.5"/>
<path d="M162.133 -122.75L465.545 402.775" stroke="#165ECA" stroke-width="0.5"/>
<path d="M158.669 -120.75L462.081 404.775" stroke="#165ECA" stroke-width="0.5"/>
<path d="M155.205 -118.75L458.617 406.775" stroke="#165ECA" stroke-width="0.5"/>
<path d="M151.74 -116.75L455.152 408.775" stroke="#165ECA" stroke-width="0.5"/>
<path d="M148.276 -114.75L451.688 410.775" stroke="#165ECA" stroke-width="0.5"/>
<path d="M144.812 -112.75L448.224 412.775" stroke="#165ECA" stroke-width="0.5"/>
<path d="M141.349 -110.75L444.76 414.775" stroke="#165ECA" stroke-width="0.5"/>
<path d="M137.884 -108.75L441.296 416.775" stroke="#165ECA" stroke-width="0.5"/>
<path d="M134.42 -106.75L437.832 418.775" stroke="#165ECA" stroke-width="0.5"/>
<path d="M130.956 -104.75L434.368 420.775" stroke="#165ECA" stroke-width="0.5"/>
<path d="M127.492 -102.75L430.904 422.775" stroke="#165ECA" stroke-width="0.5"/>
<path d="M124.027 -100.75L427.439 424.775" stroke="#165ECA" stroke-width="0.5"/>
<path d="M120.563 -98.75L423.975 426.775" stroke="#165ECA" stroke-width="0.5"/>
<path d="M117.1 -96.75L420.511 428.775" stroke="#165ECA" stroke-width="0.5"/>
<path d="M113.636 -94.75L417.048 430.775" stroke="#165ECA" stroke-width="0.5"/>
<path d="M110.171 -92.75L413.583 432.775" stroke="#165ECA" stroke-width="0.5"/>
<path d="M106.707 -90.75L410.119 434.775" stroke="#165ECA" stroke-width="0.5"/>
<path d="M103.243 -88.75L406.655 436.775" stroke="#165ECA" stroke-width="0.5"/>
<path d="M99.7793 -86.75L403.191 438.775" stroke="#165ECA" stroke-width="0.5"/>
<path d="M96.3145 -84.75L399.726 440.775" stroke="#165ECA" stroke-width="0.5"/>
<path d="M92.8506 -82.75L396.262 442.775" stroke="#165ECA" stroke-width="0.5"/>
<path d="M89.3867 -80.75L392.799 444.775" stroke="#165ECA" stroke-width="0.5"/>
<path d="M85.9229 -78.75L389.335 446.775" stroke="#165ECA" stroke-width="0.5"/>
<path d="M82.459 -76.75L385.871 448.775" stroke="#165ECA" stroke-width="0.5"/>
<path d="M78.9941 -74.75L382.406 450.775" stroke="#165ECA" stroke-width="0.5"/>
<path d="M75.5303 -72.75L378.942 452.775" stroke="#165ECA" stroke-width="0.5"/>
<path d="M72.0664 -70.75L375.478 454.775" stroke="#165ECA" stroke-width="0.5"/>
<path d="M68.6025 -68.75L372.014 456.775" stroke="#165ECA" stroke-width="0.5"/>
<path d="M65.1377 -66.75L368.55 458.775" stroke="#165ECA" stroke-width="0.5"/>
<path d="M61.6738 -64.75L365.086 460.775" stroke="#165ECA" stroke-width="0.5"/>
<path d="M58.21 -62.75L361.622 462.775" stroke="#165ECA" stroke-width="0.5"/>
<path d="M54.7461 -60.75L358.158 464.775" stroke="#165ECA" stroke-width="0.5"/>
<path d="M51.2812 -58.75L354.693 466.775" stroke="#165ECA" stroke-width="0.5"/>
<path d="M47.8174 -56.75L351.229 468.775" stroke="#165ECA" stroke-width="0.5"/>
<path d="M44.3535 -54.75L347.765 470.775" stroke="#165ECA" stroke-width="0.5"/>
<path d="M40.8896 -52.75L344.302 472.775" stroke="#165ECA" stroke-width="0.5"/>
<path d="M37.4248 -50.75L340.837 474.775" stroke="#165ECA" stroke-width="0.5"/>
<path d="M33.9609 -48.75L337.373 476.775" stroke="#165ECA" stroke-width="0.5"/>
<path d="M30.4971 -46.75L333.909 478.775" stroke="#165ECA" stroke-width="0.5"/>
<path d="M27.0332 -44.75L330.445 480.775" stroke="#165ECA" stroke-width="0.5"/>
<path d="M23.5684 -42.75L326.98 482.775" stroke="#165ECA" stroke-width="0.5"/>
<path d="M20.1045 -40.75L323.516 484.775" stroke="#165ECA" stroke-width="0.5"/>
<path d="M16.6406 -38.75L320.052 486.775" stroke="#165ECA" stroke-width="0.5"/>
<path d="M13.1768 -36.75L316.589 488.775" stroke="#165ECA" stroke-width="0.5"/>
<path d="M9.71191 -34.75L313.124 490.775" stroke="#165ECA" stroke-width="0.5"/>
<path d="M6.24805 -32.75L309.66 492.775" stroke="#165ECA" stroke-width="0.5"/>
<path d="M2.78418 -30.75L306.196 494.775" stroke="#165ECA" stroke-width="0.5"/>
<path d="M-0.679688 -28.75L302.732 496.775" stroke="#165ECA" stroke-width="0.5"/>
<path d="M-4.14355 -26.75L299.268 498.775" stroke="#165ECA" stroke-width="0.5"/>
<path d="M-7.6084 -24.75L295.803 500.775" stroke="#165ECA" stroke-width="0.5"/>
<path d="M-11.0723 -22.75L292.34 502.775" stroke="#165ECA" stroke-width="0.5"/>
<path d="M-14.5361 -20.75L288.876 504.775" stroke="#165ECA" stroke-width="0.5"/>
<path d="M-18 -18.75L285.412 506.775" stroke="#165ECA" stroke-width="0.5"/>
<path d="M-21.4648 -16.75L281.947 508.775" stroke="#165ECA" stroke-width="0.5"/>
<path d="M-24.9287 -14.75L278.483 510.775" stroke="#165ECA" stroke-width="0.5"/>
<path d="M-28.3926 -12.75L275.019 512.775" stroke="#165ECA" stroke-width="0.5"/>
<path d="M-31.8564 -10.75L271.555 514.775" stroke="#165ECA" stroke-width="0.5"/>
<path d="M-35.3213 -8.75L268.091 516.775" stroke="#165ECA" stroke-width="0.5"/>
<path d="M-38.7852 -6.75L264.627 518.775" stroke="#165ECA" stroke-width="0.5"/>
<path d="M-42.249 -4.75L261.163 520.775" stroke="#165ECA" stroke-width="0.5"/>
<path d="M-45.7129 -2.75L257.699 522.775" stroke="#165ECA" stroke-width="0.5"/>
<path d="M-49.1777 -0.75L254.234 524.775" stroke="#165ECA" stroke-width="0.5"/>
<path d="M-52.6416 1.25L250.77 526.775" stroke="#165ECA" stroke-width="0.5"/>
<path d="M-56.1055 3.25L247.306 528.775" stroke="#165ECA" stroke-width="0.5"/>
<path d="M-59.5693 5.25L243.843 530.775" stroke="#165ECA" stroke-width="0.5"/>
<path d="M-63.0342 7.25L240.378 532.775" stroke="#165ECA" stroke-width="0.5"/>
<path d="M-66.498 9.25L236.914 534.775" stroke="#165ECA" stroke-width="0.5"/>
<path d="M-69.9619 11.25L233.45 536.775" stroke="#165ECA" stroke-width="0.5"/>
<path d="M-73.4258 13.25L229.986 538.775" stroke="#165ECA" stroke-width="0.5"/>
<path d="M-76.8906 15.25L226.521 540.775" stroke="#165ECA" stroke-width="0.5"/>
<path d="M-80.3545 17.25L223.057 542.775" stroke="#165ECA" stroke-width="0.5"/>
<path d="M-83.8184 19.25L219.593 544.775" stroke="#165ECA" stroke-width="0.5"/>
<path d="M-87.2822 21.25L216.13 546.775" stroke="#165ECA" stroke-width="0.5"/>
<path d="M-90.7461 23.25L212.666 548.775" stroke="#165ECA" stroke-width="0.5"/>
<path d="M-94.2109 25.25L209.201 550.775" stroke="#165ECA" stroke-width="0.5"/>
<path d="M-97.6748 27.25L205.737 552.775" stroke="#165ECA" stroke-width="0.5"/>
<path d="M-101.139 29.25L202.273 554.775" stroke="#165ECA" stroke-width="0.5"/>
<path d="M-104.603 31.25L198.809 556.775" stroke="#165ECA" stroke-width="0.5"/>
<path d="M-108.067 33.25L195.344 558.775" stroke="#165ECA" stroke-width="0.5"/>
<path d="M-111.531 35.25L191.881 560.775" stroke="#165ECA" stroke-width="0.5"/>
<path d="M-114.995 37.25L188.417 562.775" stroke="#165ECA" stroke-width="0.5"/>
<path d="M-118.459 39.25L184.953 564.775" stroke="#165ECA" stroke-width="0.5"/>
<path d="M-121.924 41.25L181.488 566.775" stroke="#165ECA" stroke-width="0.5"/>
<path d="M-125.388 43.25L178.024 568.775" stroke="#165ECA" stroke-width="0.5"/>
<path d="M-128.852 45.25L174.56 570.775" stroke="#165ECA" stroke-width="0.5"/>
<path d="M-132.315 47.25L171.096 572.775" stroke="#165ECA" stroke-width="0.5"/>
<path d="M-135.78 49.25L167.632 574.775" stroke="#165ECA" stroke-width="0.5"/>
<path d="M-139.244 51.25L164.168 576.775" stroke="#165ECA" stroke-width="0.5"/>
<path d="M-142.708 53.25L160.704 578.775" stroke="#165ECA" stroke-width="0.5"/>
</g>
<defs>
<radialGradient id="paint0_radial_10157_85483" cx="0" cy="0" r="1" gradientUnits="userSpaceOnUse" gradientTransform="translate(-94 -140.25) rotate(58.7834) scale(408.085 988.422)">
<stop stop-color="white"/>
<stop offset="1" stop-color="#F5F6F7" stop-opacity="0.1"/>
</radialGradient>
</defs>
</svg>
