<svg width="299" height="175" viewBox="0 0 299 175" fill="none" xmlns="http://www.w3.org/2000/svg">
<path fill-rule="evenodd" clip-rule="evenodd" d="M123.813 34.0014C131.67 38.6514 140.81 40.0945 149.629 38.491C167.107 36.2462 179.774 55.3272 170.795 70.5605C162.136 85.9536 139.206 84.35 132.472 68.1549C116.597 27.1065 57.9106 27.1065 41.8761 68.1549C35.3019 84.35 12.212 85.9536 3.55332 70.5605C-5.26572 55.3272 7.40162 36.2462 24.719 38.491C33.5381 40.0945 42.6778 38.4911 50.535 34.0014C58.5519 29.5117 64.3244 22.4564 67.3714 13.958C74.4266 -3.51971 99.9213 -3.51971 106.977 13.958C110.023 22.2961 115.956 29.5117 123.813 34.0014ZM87.2543 56.1293C104.732 56.1293 114.994 76.4933 104.251 90.6037C98.4784 97.3384 95.2717 105.997 95.2717 115.137C95.2717 124.116 98.4784 132.775 104.251 139.67C115.155 153.78 104.732 174.305 87.2543 174.144C69.7765 174.144 59.5142 153.78 70.2577 139.67C76.0302 132.935 79.2368 124.276 79.2368 115.137C79.2368 106.157 76.0302 97.4986 70.2577 90.6037C59.354 76.4933 69.7765 55.969 87.2543 56.1293Z" fill="url(#paint0_linear_8985_218298)"/>
<path fill-rule="evenodd" clip-rule="evenodd" d="M174.957 140.993C167.1 136.343 157.96 134.9 149.141 136.504C131.664 138.748 118.997 119.667 127.976 104.434C136.635 89.0411 159.564 90.6446 166.299 106.84C182.173 147.888 240.86 147.888 256.894 106.84C263.468 90.6446 286.558 89.041 295.217 104.434C304.036 119.667 291.369 138.748 274.051 136.504C265.232 134.9 256.092 136.504 248.235 140.993C240.218 145.483 234.446 152.538 231.399 161.037C224.344 178.514 198.849 178.514 191.793 161.037C188.747 152.699 182.814 145.483 174.957 140.993ZM211.516 118.865C194.038 118.865 183.776 98.5014 194.519 84.391C200.292 77.6562 203.499 68.9979 203.499 59.858C203.499 50.8789 200.292 42.2201 194.519 35.3251C183.616 21.2147 194.038 0.690007 211.516 0.850695C228.994 0.850694 239.256 21.2147 228.513 35.3251C222.74 42.0594 219.533 50.7182 219.533 59.858C219.533 68.8372 222.74 77.496 228.513 84.391C239.416 98.5014 228.994 119.026 211.516 118.865Z" fill="url(#paint1_linear_8985_218298)"/>
<defs>
<linearGradient id="paint0_linear_8985_218298" x1="180.347" y1="92.719" x2="-16.4362" y2="54.8444" gradientUnits="userSpaceOnUse">
<stop stop-color="#EBECEC"/>
<stop offset="1" stop-color="#EBECEC" stop-opacity="0"/>
</linearGradient>
<linearGradient id="paint1_linear_8985_218298" x1="211.554" y1="174.145" x2="211.554" y2="0.849765" gradientUnits="userSpaceOnUse">
<stop stop-color="#EBECEC"/>
<stop offset="1" stop-color="#EBECEC"/>
</linearGradient>
</defs>
</svg>
