<svg width="110" height="110" viewBox="0 0 110 110" fill="none" xmlns="http://www.w3.org/2000/svg">
<path d="M110 55C110 85.0995 85.3757 109.5 55 109.5C24.6243 109.5 0 85.0995 0 55C0 24.9005 24.6243 0.5 55 0.5C85.3757 0.5 110 24.9005 110 55Z" fill="#FDFDFD"/>
<path fill-rule="evenodd" clip-rule="evenodd" d="M109.998 55.4966L108.998 55.4876C108.999 55.3252 109 55.1627 109 55C109 54.8373 108.999 54.6747 108.998 54.5124L109.998 54.5034C109.999 54.6687 110 54.8343 110 55C110 55.1657 109.999 55.3312 109.998 55.4966ZM109.944 52.5275L108.945 52.5725C108.931 52.2484 108.913 51.9251 108.893 51.6025L109.891 51.5394C109.912 51.868 109.93 52.1974 109.944 52.5275ZM109.73 49.5706L108.735 49.6699C108.703 49.3468 108.668 49.0246 108.63 48.7033L109.623 48.5858C109.662 48.9132 109.698 49.2414 109.73 49.5706ZM109.355 46.6292L108.367 46.7829C108.317 46.4621 108.264 46.1422 108.209 45.8233L109.194 45.6515C109.251 45.9764 109.304 46.3023 109.355 46.6292ZM108.819 43.7118L107.841 43.9197C107.773 43.6025 107.703 43.2863 107.63 42.9712L108.604 42.7454C108.678 43.0664 108.75 43.3886 108.819 43.7118ZM108.122 40.8287L107.157 41.0903C107.072 40.7776 106.985 40.4661 106.895 40.1557L107.855 39.8764C107.947 40.1926 108.036 40.5101 108.122 40.8287ZM107.268 37.9887L106.319 38.3032C106.217 37.9959 106.112 37.6898 106.005 37.385L106.948 37.0532C107.058 37.3638 107.164 37.6756 107.268 37.9887ZM106.258 35.2004L105.327 35.5668C105.209 35.2657 105.088 34.966 104.964 34.6677L105.888 34.2843C106.014 34.5883 106.137 34.8937 106.258 35.2004ZM105.096 32.4721L104.187 32.8891C104.052 32.5951 103.915 32.3026 103.775 32.0115L104.676 31.578C104.819 31.8746 104.959 32.1726 105.096 32.4721ZM103.786 29.8118L102.902 30.278C102.751 29.9918 102.598 29.7073 102.442 29.4242L103.318 28.942C103.477 29.2304 103.633 29.5203 103.786 29.8118ZM102.333 27.2272L101.475 27.741C101.309 27.4634 101.14 27.1874 100.969 26.9131L101.817 26.3838C101.992 26.6633 102.163 26.9444 102.333 27.2272ZM100.741 24.7256L99.9119 25.2853C99.7308 25.0171 99.5472 24.7506 99.3614 24.4859L100.18 23.9113C100.369 24.1809 100.556 24.4524 100.741 24.7256ZM99.0147 22.3141L98.2176 22.9179C98.0222 22.6599 97.8245 22.4038 97.6245 22.1494L98.4105 21.5313C98.6143 21.7904 98.8157 22.0513 99.0147 22.3141ZM97.1607 19.9995L96.3974 20.6455C96.1883 20.3985 95.9771 20.1534 95.7637 19.9103L96.5152 19.2506C96.7326 19.4983 96.9478 19.7479 97.1607 19.9995ZM95.1845 17.7884L94.4571 18.4746C94.2351 18.2393 94.0109 18.006 93.7847 17.7746L94.4996 17.0754C94.73 17.311 94.9583 17.5487 95.1845 17.7884ZM93.0921 15.687L92.4027 16.4114C92.1683 16.1883 91.9319 15.9674 91.6935 15.7485L92.3698 15.0119C92.6126 15.2348 92.8534 15.4598 93.0921 15.687ZM90.8897 13.7012L90.2403 14.4616C89.9942 14.2514 89.7462 14.0434 89.4963 13.8376L90.132 13.0657C90.3865 13.2753 90.6391 13.4871 90.8897 13.7012ZM88.5837 11.8365L87.9761 12.6307C87.7191 12.4341 87.4603 12.2397 87.1996 12.0476L87.793 11.2427C88.0584 11.4383 88.322 11.6363 88.5837 11.8365ZM86.1808 10.0984L85.6167 10.9241C85.3497 10.7417 85.0809 10.5616 84.8104 10.3838L85.3596 9.54809C85.6351 9.72915 85.9088 9.9126 86.1808 10.0984ZM83.6878 8.4919L83.169 9.34676C82.8926 9.17905 82.6147 9.01373 82.3352 8.85084L82.8386 7.98682C83.1233 8.15272 83.4064 8.32109 83.6878 8.4919ZM81.1121 7.02193C80.822 6.86659 80.5304 6.71377 80.2372 6.56347L79.7811 7.45336C80.0689 7.60092 80.3552 7.75097 80.64 7.90348L81.1121 7.02193ZM78.4615 5.69308L78.0376 6.59879C77.7449 6.46183 77.4508 6.32739 77.1553 6.19551L77.5629 5.28233C77.8639 5.41665 78.1634 5.55358 78.4615 5.69308ZM75.743 4.50908L75.3686 5.43634C75.0689 5.31533 74.7679 5.1969 74.4655 5.0811L74.8232 4.14726C75.1312 4.26521 75.4378 4.38583 75.743 4.50908ZM72.9646 3.47348L72.6408 4.41959C72.3349 4.31489 72.0277 4.21284 71.7194 4.11346L72.0261 3.16167C72.3402 3.26289 72.653 3.36683 72.9646 3.47348ZM70.1343 2.58931L69.8619 3.55152C69.5507 3.46344 69.2383 3.37805 68.9247 3.29538L69.1797 2.32842C69.499 2.41262 69.8172 2.49959 70.1343 2.58931ZM67.2602 1.85905L67.0402 2.83454C66.7244 2.7633 66.4076 2.69481 66.0897 2.62908L66.2922 1.6498C66.616 1.71674 66.9386 1.7865 67.2602 1.85905ZM64.3509 1.28449L64.1836 2.2704C63.8642 2.21619 63.5439 2.16477 63.2226 2.11614L63.3723 1.1274C63.6994 1.17692 64.0257 1.22929 64.3509 1.28449ZM61.4149 0.866745L61.3005 1.86019C60.979 1.82318 60.6566 1.78897 60.3334 1.75758L60.4301 0.76226C60.7592 0.794222 61.0875 0.829059 61.4149 0.866745ZM58.4606 0.606132L58.3992 1.60425C58.0765 1.58439 57.753 1.56735 57.4288 1.55313L57.4726 0.55409C57.8027 0.568563 58.132 0.585918 58.4606 0.606132ZM55.4966 0.502175L55.4878 1.50214C55.3254 1.50071 55.1628 1.5 55 1.5C54.8372 1.5 54.6746 1.50071 54.5121 1.50214L54.5033 0.502176C54.6687 0.500726 54.8343 0.5 55 0.5C55.1657 0.5 55.3312 0.500726 55.4966 0.502175ZM52.5274 0.554092L52.5712 1.55313C52.2469 1.56735 51.9235 1.58439 51.6007 1.60425L51.5393 0.606135C51.8679 0.58592 52.1973 0.568565 52.5274 0.554092ZM49.5699 0.762264L49.6665 1.75758C49.3433 1.78897 49.0209 1.82318 48.6994 1.86019L48.5851 0.86675C48.9125 0.829064 49.2407 0.794227 49.5699 0.762264ZM46.6277 1.12741L46.7773 2.11615C46.4561 2.16477 46.1357 2.2162 45.8163 2.2704L45.649 1.2845C45.9743 1.2293 46.3005 1.17692 46.6277 1.12741ZM43.7077 1.64981L43.9102 2.62909C43.5924 2.69482 43.2756 2.76331 42.9598 2.83454L42.7397 1.85906C43.0613 1.78651 43.384 1.71675 43.7077 1.64981ZM40.8203 2.32843L41.0752 3.29539C40.7617 3.37805 40.4493 3.46344 40.138 3.55153L39.8657 2.58932C40.1827 2.4996 40.5009 2.41263 40.8203 2.32843ZM37.9739 3.16168L38.2806 4.11347C37.9722 4.21285 37.6651 4.3149 37.3592 4.4196L37.0354 3.47349C37.3469 3.36684 37.6598 3.2629 37.9739 3.16168ZM35.1768 4.14727L35.5344 5.08111C35.2321 5.19692 34.9311 5.31534 34.6314 5.43635L34.257 4.50909C34.5622 4.38584 34.8688 4.26522 35.1768 4.14727ZM32.4371 5.28234L32.8446 6.19552C32.5491 6.3274 32.2551 6.46184 31.9624 6.5988L31.5385 5.6931C31.8366 5.55359 32.1361 5.41666 32.4371 5.28234ZM29.7627 6.56349L30.2189 7.45337C29.9311 7.60093 29.6448 7.75098 29.36 7.90349L28.8879 7.02194C29.1779 6.86661 29.4696 6.71378 29.7627 6.56349ZM27.1614 7.98683L27.6648 8.85086C27.3853 9.01375 27.1073 9.17906 26.831 9.34677L26.3122 8.49191C26.5936 8.32111 26.8767 8.15274 27.1614 7.98683ZM24.6404 9.54811L25.1896 10.3838C24.9191 10.5616 24.6503 10.7417 24.3832 10.9241L23.8191 10.0984C24.0911 9.91262 24.3649 9.72917 24.6404 9.54811ZM22.207 11.2427L22.8003 12.0476C22.5397 12.2397 22.2809 12.4341 22.0239 12.6308L21.4162 11.8365C21.678 11.6363 21.9416 11.4383 22.207 11.2427ZM19.868 13.0657L20.5037 13.8377C20.2538 14.0435 20.0058 14.2514 19.7597 14.4616L19.1103 13.7012C19.3609 13.4872 19.6135 13.2753 19.868 13.0657ZM17.6302 15.0119L18.3065 15.7485C18.0681 15.9674 17.8317 16.1884 17.5973 16.4114L16.9079 15.687C17.1466 15.4598 17.3874 15.2348 17.6302 15.0119ZM15.5004 17.0754L16.2153 17.7746C15.989 18.006 15.7649 18.2393 15.5429 18.4747L14.8155 17.7884C15.0416 17.5487 15.2699 17.311 15.5004 17.0754ZM13.4848 19.2506L14.2363 19.9103C14.0229 20.1534 13.8116 20.3985 13.6026 20.6455L12.8393 19.9995C13.0522 19.7479 13.2674 19.4983 13.4848 19.2506ZM11.5894 21.5313L12.3755 22.1495C12.1755 22.4038 11.9778 22.66 11.7824 22.9179L10.9853 22.3141C11.1843 22.0513 11.3857 21.7904 11.5894 21.5313ZM9.82021 23.9113L10.6386 24.4859C10.4527 24.7507 10.2692 25.0171 10.0881 25.2853L9.25938 24.7256C9.44391 24.4524 9.63086 24.181 9.82021 23.9113ZM8.18269 26.3838L9.03113 26.9131C8.86 27.1874 8.69131 27.4634 8.52507 27.741L7.66715 27.2272C7.8365 26.9444 8.00835 26.6633 8.18269 26.3838ZM6.68216 28.942L7.55823 29.4242C7.40244 29.7073 7.24915 29.9919 7.09841 30.278L6.2137 29.8118C6.36728 29.5203 6.52344 29.2304 6.68216 28.942ZM5.32393 31.5781L6.22509 32.0116C6.08507 32.3026 5.94763 32.5952 5.81279 32.8891L4.90386 32.4722C5.04124 32.1727 5.18127 31.8746 5.32393 31.5781ZM4.11246 34.2844L5.03607 34.6677C4.91224 34.966 4.79106 35.2658 4.67254 35.5668L3.74205 35.2005C3.86281 34.8937 3.98629 34.5884 4.11246 34.2844ZM3.05172 37.0532L3.99504 37.3851C3.88781 37.6899 3.78328 37.9959 3.68149 38.3032L2.73221 37.9888C2.83594 37.6757 2.94245 37.3638 3.05172 37.0532ZM2.14524 39.8764L3.10544 40.1557C3.01515 40.4661 2.92762 40.7776 2.84288 41.0903L1.8777 40.8287C1.96405 40.5101 2.05324 40.1927 2.14524 39.8764ZM1.39594 42.7454L2.3701 42.9713C2.29703 43.2864 2.22678 43.6025 2.15936 43.9197L1.18121 43.7118C1.24991 43.3886 1.3215 43.0665 1.39594 42.7454ZM0.806028 45.6515L1.79115 45.8234C1.73552 46.1423 1.68274 46.4621 1.63283 46.7829L0.644718 46.6292C0.695566 46.3023 0.749345 45.9764 0.806028 45.6515ZM0.376891 48.5858L1.36996 48.7033C1.33195 49.0247 1.2968 49.3469 1.26456 49.6699L0.269503 49.5706C0.302353 49.2415 0.338158 48.9132 0.376891 48.5858ZM0.109082 51.5395L1.10709 51.6026C1.08669 51.9251 1.06918 52.2485 1.05457 52.5726L0.0555882 52.5276C0.0704638 52.1974 0.0883035 51.868 0.109082 51.5395ZM0.00223583 54.5034C0.000746328 54.6688 0 54.8343 0 55C0 55.1657 0.000746448 55.3313 0.0022362 55.4966L1.0022 55.4876C1.00073 55.3253 1 55.1627 1 55C1 54.8373 1.00073 54.6748 1.0022 54.5124L0.00223583 54.5034ZM0.0555899 57.4725L1.05458 57.4275C1.06918 57.7516 1.08669 58.0749 1.10709 58.3975L0.109084 58.4606C0.0883056 58.132 0.0704656 57.8026 0.0555899 57.4725ZM0.269507 60.4294L1.26456 60.3301C1.29681 60.6532 1.33195 60.9754 1.36997 61.2967L0.376895 61.4142C0.338162 61.0868 0.302357 60.7586 0.269507 60.4294ZM0.644724 63.3708L1.63284 63.2171C1.68274 63.5379 1.73553 63.8578 1.79116 64.1767L0.806034 64.3485C0.749351 64.0236 0.695572 63.6977 0.644724 63.3708ZM1.18122 66.2882L2.15937 66.0803C2.22679 66.3975 2.29704 66.7137 2.37011 67.0288L1.39595 67.2546C1.3215 66.9336 1.24992 66.6114 1.18122 66.2882ZM1.87771 69.1713L2.84289 68.9097C2.92763 69.2224 3.01516 69.534 3.10545 69.8443L2.14525 70.1236C2.05325 69.8074 1.96406 69.4899 1.87771 69.1713ZM2.73223 72.0113L3.6815 71.6968C3.78329 72.0041 3.88782 72.3102 3.99505 72.615L3.05173 72.9468C2.94246 72.6362 2.83595 72.3244 2.73223 72.0113ZM3.74207 74.7996L4.67256 74.4332C4.79107 74.7343 4.91225 75.034 5.03608 75.3323L4.11247 75.7157C3.9863 75.4117 3.86282 75.1063 3.74207 74.7996ZM4.90387 77.5279L5.81281 77.1109C5.94764 77.4049 6.08508 77.6974 6.2251 77.9885L5.32395 78.422C5.18129 78.1254 5.04125 77.8274 4.90387 77.5279ZM6.21371 80.1882L7.09842 79.7221C7.24917 80.0082 7.40245 80.2927 7.55824 80.5758L6.68218 81.058C6.52346 80.7696 6.36729 80.4797 6.21371 80.1882ZM7.66716 82.7728L8.52509 82.259C8.69132 82.5366 8.86002 82.8126 9.03115 83.0869L8.1827 83.6162C8.00837 83.3367 7.83651 83.0556 7.66716 82.7728ZM9.2594 85.2744L10.0881 84.7147C10.2692 84.9829 10.4528 85.2494 10.6386 85.5141L9.82023 86.0887C9.63088 85.8191 9.44393 85.5476 9.2594 85.2744ZM10.9853 87.6859L11.7824 87.0821C11.9778 87.34 12.1755 87.5962 12.3755 87.8506L11.5895 88.4687C11.3857 88.2096 11.1843 87.9487 10.9853 87.6859ZM12.8393 90.0005L13.6026 89.3545C13.8117 89.6015 14.0229 89.8466 14.2363 90.0897L13.4848 90.7494C13.2674 90.5017 13.0522 90.2521 12.8393 90.0005ZM14.8155 92.2116L15.5429 91.5254C15.7649 91.7607 15.9891 91.994 16.2153 92.2254L15.5004 92.9246C15.27 92.689 15.0417 92.4513 14.8155 92.2116ZM16.9079 94.313L17.5973 93.5886C17.8317 93.8117 18.0681 94.0326 18.3065 94.2515L17.6302 94.9881C17.3874 94.7652 17.1466 94.5402 16.9079 94.313ZM19.1103 96.2988L19.7597 95.5384C20.0058 95.7486 20.2538 95.9566 20.5037 96.1624L19.868 96.9343C19.6135 96.7247 19.3609 96.5129 19.1103 96.2988ZM21.4163 98.1635L22.0239 97.3693C22.2809 97.5659 22.5397 97.7603 22.8004 97.9524L22.207 98.7573C21.9416 98.5617 21.678 98.3637 21.4163 98.1635ZM23.8192 99.9016L24.3833 99.0759C24.6503 99.2583 24.9191 99.4384 25.1896 99.6162L24.6404 100.452C24.3649 100.271 24.0912 100.087 23.8192 99.9016ZM26.3122 101.508L26.831 100.653C27.1074 100.821 27.3853 100.986 27.6648 101.149L27.1614 102.013C26.8767 101.847 26.5936 101.679 26.3122 101.508ZM28.8879 102.978L29.36 102.097C29.6448 102.249 29.9311 102.399 30.2189 102.547L29.7628 103.437C29.4696 103.286 29.178 103.133 28.8879 102.978ZM31.5385 104.307L31.9624 103.401C32.2551 103.538 32.5492 103.673 32.8447 103.804L32.4371 104.718C32.1361 104.583 31.8366 104.446 31.5385 104.307ZM34.257 105.491L34.6314 104.564C34.9311 104.685 35.2321 104.803 35.5345 104.919L35.1768 105.853C34.8688 105.735 34.5622 105.614 34.257 105.491ZM37.0354 106.527L37.3592 105.58C37.6651 105.685 37.9723 105.787 38.2806 105.887L37.9739 106.838C37.6598 106.737 37.347 106.633 37.0354 106.527ZM39.8657 107.411L40.1381 106.448C40.4493 106.537 40.7617 106.622 41.0753 106.705L40.8203 107.672C40.501 107.587 40.1828 107.5 39.8657 107.411ZM42.7398 108.141L42.9598 107.165C43.2756 107.237 43.5924 107.305 43.9103 107.371L43.7078 108.35C43.384 108.283 43.0614 108.214 42.7398 108.141ZM45.6491 108.716L45.8164 107.73C46.1358 107.784 46.4561 107.835 46.7774 107.884L46.6277 108.873C46.3006 108.823 45.9743 108.771 45.6491 108.716ZM48.5851 109.133L48.6995 108.14C49.021 108.177 49.3434 108.211 49.6666 108.242L49.5699 109.238C49.2408 109.206 48.9125 109.171 48.5851 109.133ZM51.5394 109.394L51.6008 108.396C51.9235 108.416 52.247 108.433 52.5712 108.447L52.5274 109.446C52.1973 109.431 51.868 109.414 51.5394 109.394ZM54.5034 109.498L54.5122 108.498C54.6746 108.499 54.8372 108.5 55 108.5C55.1628 108.5 55.3254 108.499 55.4879 108.498L55.4967 109.498C55.3313 109.499 55.1657 109.5 55 109.5C54.8343 109.5 54.6688 109.499 54.5034 109.498ZM57.4726 109.446L57.4288 108.447C57.7531 108.433 58.0765 108.416 58.3993 108.396L58.4607 109.394C58.1321 109.414 57.8027 109.431 57.4726 109.446ZM60.4301 109.238L60.3335 108.242C60.6567 108.211 60.9791 108.177 61.3006 108.14L61.4149 109.133C61.0875 109.171 60.7593 109.206 60.4301 109.238ZM63.3723 108.873L63.2227 107.884C63.5439 107.835 63.8643 107.784 64.1837 107.73L64.351 108.715C64.0257 108.771 63.6995 108.823 63.3723 108.873ZM66.2923 108.35L66.0898 107.371C66.4076 107.305 66.7244 107.237 67.0402 107.165L67.2603 108.141C66.9387 108.213 66.616 108.283 66.2923 108.35ZM69.1797 107.672L68.9248 106.705C69.2383 106.622 69.5507 106.537 69.862 106.448L70.1343 107.411C69.8173 107.5 69.4991 107.587 69.1797 107.672ZM72.0261 106.838L71.7194 105.887C72.0278 105.787 72.3349 105.685 72.6408 105.58L72.9646 106.527C72.6531 106.633 72.3402 106.737 72.0261 106.838ZM74.8232 105.853L74.4656 104.919C74.7679 104.803 75.0689 104.685 75.3686 104.564L75.743 105.491C75.4378 105.614 75.1312 105.735 74.8232 105.853ZM77.5629 104.718L77.1554 103.804C77.4509 103.673 77.7449 103.538 78.0376 103.401L78.4615 104.307C78.1634 104.446 77.8639 104.583 77.5629 104.718ZM80.2373 103.437L79.7811 102.547C80.0689 102.399 80.3552 102.249 80.64 102.097L81.1121 102.978C80.8221 103.133 80.5304 103.286 80.2373 103.437ZM82.8386 102.013L82.3352 101.149C82.6147 100.986 82.8927 100.821 83.169 100.653L83.6878 101.508C83.4064 101.679 83.1234 101.847 82.8386 102.013ZM85.3596 100.452L84.8104 99.6162C85.0809 99.4384 85.3497 99.2583 85.6168 99.0759L86.1809 99.9016C85.9089 100.087 85.6351 100.271 85.3596 100.452ZM87.793 98.7573L87.1997 97.9524C87.4603 97.7603 87.7191 97.5659 87.9761 97.3692L88.5838 98.1635C88.322 98.3637 88.0584 98.5617 87.793 98.7573ZM90.132 96.9343C90.3865 96.7247 90.6391 96.5128 90.8897 96.2988L90.2403 95.5384C89.9942 95.7486 89.7462 95.9565 89.4963 96.1623L90.132 96.9343ZM92.3698 94.9881L91.6935 94.2515C91.9319 94.0326 92.1684 93.8116 92.4027 93.5886L93.0921 94.313C92.8534 94.5402 92.6126 94.7652 92.3698 94.9881ZM94.4996 92.9246L93.7847 92.2254C94.011 91.994 94.2351 91.7607 94.4571 91.5253L95.1845 92.2116C94.9584 92.4513 94.7301 92.6889 94.4996 92.9246ZM96.5152 90.7494L95.7637 90.0897C95.9771 89.8466 96.1884 89.6015 96.3974 89.3545L97.1607 90.0005C96.9478 90.2521 96.7326 90.5017 96.5152 90.7494ZM98.4106 88.4687L97.6245 87.8505C97.8245 87.5962 98.0222 87.34 98.2176 87.082L99.0147 87.6859C98.8157 87.9487 98.6143 88.2096 98.4106 88.4687ZM100.18 86.0887L99.3614 85.5141C99.5472 85.2494 99.7308 84.9829 99.9119 84.7147L100.741 85.2744C100.556 85.5476 100.369 85.819 100.18 86.0887ZM101.817 83.6162C101.992 83.3367 102.164 83.0556 102.333 82.7728L101.475 82.259C101.309 82.5366 101.14 82.8126 100.969 83.0869L101.817 83.6162ZM103.318 81.058L102.442 80.5758C102.598 80.2927 102.751 80.0081 102.902 79.722L103.786 80.1882C103.633 80.4797 103.477 80.7696 103.318 81.058ZM104.676 78.4219L103.775 77.9884C103.915 77.6974 104.052 77.4048 104.187 77.1109L105.096 77.5278C104.959 77.8273 104.819 78.1254 104.676 78.4219ZM105.888 75.7156L104.964 75.3323C105.088 75.034 105.209 74.7342 105.327 74.4332L106.258 74.7995C106.137 75.1063 106.014 75.4116 105.888 75.7156ZM106.948 72.9468L106.005 72.6149C106.112 72.3101 106.217 72.0041 106.319 71.6968L107.268 72.0112C107.164 72.3243 107.058 72.6362 106.948 72.9468ZM107.855 70.1236L106.895 69.8443C106.985 69.5339 107.072 69.2224 107.157 68.9097L108.122 69.1713C108.036 69.4899 107.947 69.8073 107.855 70.1236ZM108.604 67.2546L107.63 67.0287C107.703 66.7136 107.773 66.3975 107.841 66.0803L108.819 66.2882C108.75 66.6114 108.679 66.9335 108.604 67.2546ZM109.194 64.3485L108.209 64.1766C108.264 63.8577 108.317 63.5379 108.367 63.2171L109.355 63.3708C109.304 63.6977 109.251 64.0236 109.194 64.3485ZM109.623 61.4142L108.63 61.2967C108.668 60.9753 108.703 60.6531 108.735 60.3301L109.73 60.4294C109.698 60.7585 109.662 61.0868 109.623 61.4142ZM109.891 58.4605L108.893 58.3974C108.913 58.0749 108.931 57.7515 108.945 57.4274L109.944 57.4724C109.93 57.8026 109.912 58.132 109.891 58.4605Z" fill="#9D9E9F"/>
<g filter="url(#filter0_i_8985_226353)">
<circle cx="55" cy="55.0538" r="40.4527" fill="#F5F5F5"/>
</g>
<path fill-rule="evenodd" clip-rule="evenodd" d="M106.999 55.25L96.9995 55.2038C96.9998 55.1359 97 55.068 97 55C97 54.932 96.9998 54.8641 96.9995 54.7961L106.999 54.75C107 54.8333 107 54.9166 107 55C107 55.0834 107 55.1667 106.999 55.25ZM106.954 52.7598L96.9622 53.1752C96.9566 53.0408 96.9504 52.9065 96.9435 52.7725L106.931 52.2648C106.939 52.4296 106.947 52.5946 106.954 52.7598ZM106.792 50.2774L96.8312 51.157C96.8194 51.0232 96.807 50.8896 96.7939 50.7561L106.747 49.7838C106.763 49.9481 106.778 50.1127 106.792 50.2774ZM106.516 47.8056L96.6067 49.1506C96.5886 49.0175 96.5699 48.8847 96.5507 48.7521L106.447 47.3142C106.471 47.4777 106.494 47.6415 106.516 47.8056ZM106.123 45.3496L96.2885 47.1595C96.2642 47.0275 96.2393 46.8957 96.2138 46.7641L106.031 44.8617C106.063 45.024 106.093 45.1867 106.123 45.3496ZM105.616 42.9149L95.8772 45.1873C95.8467 45.0566 95.8157 44.9262 95.784 44.796L105.5 42.4316C105.54 42.5924 105.578 42.7535 105.616 42.9149ZM104.993 40.507L95.3734 43.2379C95.3368 43.1088 95.2995 42.98 95.2617 42.8514L104.855 40.0296C104.902 40.1884 104.948 40.3476 104.993 40.507ZM104.258 38.1314L94.778 41.3152C94.7353 41.1879 94.692 41.061 94.6481 40.9343L104.097 37.6608C104.151 37.8173 104.205 37.9742 104.258 38.1314ZM103.41 35.7932L94.0921 39.4229C94.0434 39.2979 93.9941 39.1731 93.9443 39.0486L103.227 35.3307C103.289 35.4845 103.35 35.6387 103.41 35.7932ZM102.453 33.4979L93.3173 37.5652C93.2627 37.4426 93.2075 37.3203 93.1518 37.1982L102.248 33.0445C102.317 33.1952 102.385 33.3464 102.453 33.4979ZM101.388 31.2505L92.4551 35.746C92.3947 35.6261 92.3338 35.5064 92.2723 35.3871L101.162 30.8072C101.238 30.9546 101.313 31.1023 101.388 31.2505ZM100.217 29.056L91.5075 33.9692C91.4415 33.8522 91.375 33.7356 91.3079 33.6193L99.9709 28.6239C100.054 28.7675 100.136 28.9116 100.217 29.056ZM98.9445 26.9194L90.4767 32.2389C90.4053 32.1251 90.3333 32.0117 90.2608 31.8987L98.6779 26.4994C98.7674 26.6389 98.8563 26.7789 98.9445 26.9194ZM97.5721 24.8452L89.3651 30.5588C89.2883 30.4485 89.2111 30.3386 89.1333 30.2291L97.2859 24.4383C97.382 24.5735 97.4774 24.7091 97.5721 24.8452ZM96.1033 22.8382L88.1752 28.9329C88.0933 28.8264 88.0109 28.7202 87.9281 28.6145L95.7982 22.4452C95.9005 22.5757 96.0022 22.7067 96.1033 22.8382ZM94.5414 20.9028L86.9099 27.365C86.823 27.2624 86.7357 27.1603 86.648 27.0586L94.2181 20.5246C94.3264 20.6502 94.4342 20.7762 94.5414 20.9028ZM92.8898 19.0432L85.572 25.8587C85.4805 25.7604 85.3885 25.6625 85.296 25.5651L92.549 18.6808C92.6632 18.8011 92.7768 18.9219 92.8898 19.0432ZM91.1522 17.2638L84.1648 24.4176C84.0688 24.3238 83.9723 24.2304 83.8753 24.1375L90.7947 16.9179C90.9144 17.0326 91.0336 17.148 91.1522 17.2638ZM89.3323 15.5686L82.6915 23.0452C82.5912 22.9561 82.4904 22.8675 82.3893 22.7793L88.9588 15.24C89.0839 15.349 89.2084 15.4585 89.3323 15.5686ZM87.4342 13.9616L81.1556 21.7449C81.0513 21.6607 80.9465 21.577 80.8413 21.4937L87.0455 13.6511C87.1756 13.754 87.3051 13.8575 87.4342 13.9616ZM85.4618 12.4465L79.5607 20.5197C79.4525 20.4406 79.3439 20.3621 79.2349 20.284L85.0588 12.1549C85.1936 12.2515 85.328 12.3487 85.4618 12.4465ZM83.4195 11.0272L77.9103 19.3728C77.7986 19.299 77.6865 19.2258 77.574 19.153L83.0031 10.7551C83.1423 10.8452 83.2812 10.9359 83.4195 11.0272ZM81.3117 9.70707L76.2084 18.3068C76.0933 18.2386 75.9779 18.1708 75.8622 18.1036L80.8828 9.4553C81.0262 9.53856 81.1692 9.62248 81.3117 9.70707ZM79.143 8.48955L74.4586 17.3245C74.3406 17.2619 74.2221 17.1999 74.1034 17.1384L78.7025 8.25871C78.8498 8.33497 78.9966 8.41192 79.143 8.48955ZM76.9183 7.37779L72.6651 16.4282C72.5442 16.3714 72.4231 16.3152 72.3016 16.2595L76.4672 7.16847C76.618 7.23754 76.7683 7.30731 76.9183 7.37779ZM74.6425 6.37468L70.8316 15.6201C70.7083 15.5693 70.5847 15.519 70.4607 15.4693L74.1819 6.18744C74.3358 6.24914 74.4893 6.31155 74.6425 6.37468ZM72.3208 5.48286L68.9623 14.902C68.8367 14.8573 68.7109 14.8131 68.5848 14.7695L71.8518 5.3182C72.0084 5.37235 72.1648 5.42724 72.3208 5.48286ZM69.9585 4.70466L67.0611 14.2757C66.9335 14.2371 66.8058 14.1991 66.6777 14.1617L69.4822 4.56299C69.6413 4.60947 69.8 4.65669 69.9585 4.70466ZM67.5612 4.04202L65.1318 13.7424C65.0026 13.7101 64.8732 13.6783 64.7436 13.6472L67.0788 3.92369C67.2399 3.96238 67.4007 4.00182 67.5612 4.04202ZM65.1344 3.4965L63.1785 13.3034C63.048 13.2773 62.9172 13.2519 62.7862 13.2271L64.6471 3.40175C64.8098 3.43257 64.9723 3.46415 65.1344 3.4965ZM62.684 3.0692L61.205 12.9592C61.0734 12.9395 60.9415 12.9205 60.8094 12.902L62.193 2.9982C62.3569 3.02109 62.5205 3.04476 62.684 3.0692ZM60.2155 2.76077L59.2151 12.7106C59.0826 12.6973 58.9499 12.6846 58.817 12.6725L59.722 2.71355C59.8867 2.72851 60.0512 2.74426 60.2155 2.76077ZM57.7352 2.57138L57.2127 12.5577C57.0795 12.5508 56.9461 12.5444 56.8125 12.5387L57.24 2.54783C57.4053 2.55491 57.5704 2.56276 57.7352 2.57138ZM55.25 2.50059L55.2025 12.5005C55.135 12.5002 55.0675 12.5 55 12.5C54.9325 12.5 54.865 12.5002 54.7975 12.5005L54.75 2.50059C54.8333 2.5002 54.9166 2.5 55 2.5C55.0834 2.5 55.1667 2.5002 55.25 2.50059ZM52.7599 2.54784L53.1874 12.5387C53.0538 12.5444 52.9204 12.5508 52.7872 12.5577L52.2647 2.57138C52.4296 2.56276 52.5947 2.55491 52.7599 2.54784ZM50.2779 2.71355L51.183 12.6725C51.0501 12.6846 50.9174 12.6973 50.7849 12.7106L49.7845 2.76077C49.9488 2.74426 50.1132 2.72852 50.2779 2.71355ZM47.807 2.9982L49.1906 12.902C49.0585 12.9205 48.9266 12.9395 48.7949 12.9592L47.316 3.06921C47.4794 3.04477 47.6431 3.0211 47.807 2.9982ZM45.3529 3.40176L47.2138 13.2271C47.0828 13.2519 46.952 13.2773 46.8215 13.3034L44.8655 3.4965C45.0277 3.46416 45.1902 3.43257 45.3529 3.40176ZM42.9212 3.92369L45.2564 13.6472C45.1268 13.6783 44.9973 13.7101 44.8682 13.7424L42.4388 4.04202C42.5993 4.00182 42.7601 3.96238 42.9212 3.92369ZM40.5178 4.56299L43.3222 14.1617C43.1942 14.1991 43.0665 14.2371 42.939 14.2757L40.0415 4.70466C40.2 4.65669 40.3587 4.60947 40.5178 4.56299ZM38.1482 5.3182L41.4152 14.7695C41.2891 14.8131 41.1633 14.8573 41.0377 14.902L37.6792 5.48286C37.8352 5.42724 37.9916 5.37235 38.1482 5.3182ZM35.8181 6.18744L39.5393 15.4693C39.4153 15.519 39.2917 15.5692 39.1684 15.6201L35.3575 6.37467C35.5107 6.31154 35.6642 6.24913 35.8181 6.18744ZM33.5328 7.16846L37.6984 16.2595C37.5769 16.3152 37.4558 16.3714 37.3349 16.4282L33.0817 7.37778C33.2317 7.30731 33.382 7.23753 33.5328 7.16846ZM31.2975 8.2587L35.8966 17.1384C35.7779 17.1999 35.6594 17.2619 35.5414 17.3245L30.857 8.48955C31.0034 8.41192 31.1502 8.33497 31.2975 8.2587ZM29.1172 9.4553L34.1378 18.1036C34.0221 18.1708 33.9067 18.2386 33.7916 18.3068L28.6883 9.70707C28.8309 9.62248 28.9738 9.53855 29.1172 9.4553ZM26.9969 10.7551L32.426 19.153C32.3135 19.2258 32.2014 19.299 32.0897 19.3728L26.5805 11.0272C26.7188 10.9358 26.8577 10.8452 26.9969 10.7551ZM24.9412 12.1549L30.7651 20.284C30.6561 20.3621 30.5475 20.4406 30.4393 20.5197L24.5382 12.4465C24.672 12.3487 24.8064 12.2515 24.9412 12.1549ZM22.9545 13.6511L29.1587 21.4937C29.0535 21.577 28.9488 21.6607 28.8444 21.7449L22.5658 13.9616C22.6949 13.8575 22.8244 13.754 22.9545 13.6511ZM21.0412 15.24L27.6107 22.7793C27.5096 22.8675 27.4088 22.9561 27.3085 23.0452L20.6677 15.5686C20.7916 15.4585 20.9161 15.349 21.0412 15.24ZM19.2053 16.9179L26.1247 24.1375C26.0277 24.2304 25.9312 24.3238 25.8352 24.4176L18.8478 17.2638C18.9664 17.148 19.0856 17.0326 19.2053 16.9179ZM17.451 18.6808L24.704 25.5651C24.6115 25.6625 24.5195 25.7604 24.428 25.8587L17.1102 19.0432C17.2232 18.9219 17.3368 18.8011 17.451 18.6808ZM15.7819 20.5246L23.352 27.0586C23.2643 27.1603 23.177 27.2624 23.0901 27.365L15.4586 20.9028C15.5658 20.7762 15.6736 20.6502 15.7819 20.5246ZM14.2018 22.4452L22.0719 28.6145C21.9891 28.7202 21.9067 28.8264 21.8248 28.9329L13.8967 22.8382C13.9978 22.7067 14.0995 22.5757 14.2018 22.4452ZM12.7141 24.4383L20.8667 30.2291C20.789 30.3386 20.7117 30.4485 20.6349 30.5588L12.4279 24.8452C12.5226 24.7091 12.618 24.5735 12.7141 24.4383ZM11.3221 26.4994L19.7392 31.8987C19.6667 32.0117 19.5947 32.1251 19.5233 32.2388L11.0555 26.9194C11.1437 26.7789 11.2326 26.6389 11.3221 26.4994ZM10.0291 28.6239L18.6921 33.6193C18.625 33.7356 18.5585 33.8522 18.4925 33.9692L9.78269 29.056C9.86418 28.9116 9.94633 28.7675 10.0291 28.6239ZM8.83809 30.8072L17.7277 35.3871C17.6662 35.5064 17.6053 35.626 17.5449 35.746L8.61237 31.2505C8.68693 31.1023 8.76217 30.9546 8.83809 30.8072ZM7.75172 33.0445L16.8482 37.1982C16.7925 37.3203 16.7373 37.4426 16.6827 37.5652L7.54727 33.4979C7.61473 33.3464 7.68288 33.1952 7.75172 33.0445ZM6.77257 35.3307L16.0557 39.0486C16.0059 39.1731 15.9566 39.2979 15.9079 39.4229L6.58987 35.7932C6.65007 35.6387 6.71096 35.4845 6.77257 35.3307ZM5.9029 37.6608L15.3519 40.9343C15.308 41.061 15.2647 41.1879 15.222 41.3151L5.74238 38.1313C5.79517 37.9742 5.84868 37.8173 5.9029 37.6608ZM5.14469 40.0295L14.7383 42.8514C14.7005 42.98 14.6632 43.1088 14.6266 43.2379L5.00669 40.507C5.05196 40.3476 5.09796 40.1884 5.14469 40.0295ZM4.49956 42.4316L14.216 44.796C14.1844 44.9262 14.1533 45.0566 14.1228 45.1873L4.38438 42.9149C4.42203 42.7535 4.46043 42.5924 4.49956 42.4316ZM3.96879 44.8617L13.7862 46.7641C13.7607 46.8957 13.7358 47.0275 13.7115 47.1595L3.87662 45.3496C3.9066 45.1867 3.93733 45.024 3.96879 44.8617ZM3.55326 47.3142L13.4493 48.7521C13.4301 48.8847 13.4114 49.0176 13.3933 49.1506L3.48422 47.8056C3.50648 47.6415 3.5295 47.4777 3.55326 47.3142ZM3.25344 49.7838L13.2061 50.7562C13.193 50.8896 13.1806 51.0232 13.1688 51.1571L3.20753 50.2774C3.22208 50.1127 3.23738 49.9481 3.25344 49.7838ZM3.06936 52.2648L13.0565 52.7725C13.0496 52.9066 13.0434 53.0408 13.0379 53.1752L3.04649 52.7598C3.05335 52.5946 3.06098 52.4296 3.06936 52.2648ZM3.00058 54.75C3.00019 54.8333 3 54.9166 3 55C3 55.0834 3.00019 55.1667 3.00058 55.25L13.0005 55.2039C13.0002 55.1359 13 55.068 13 55C13 54.932 13.0002 54.8641 13.0005 54.7962L3.00058 54.75ZM3.04649 57.2402L13.0379 56.8248C13.0434 56.9592 13.0496 57.0935 13.0565 57.2275L3.06936 57.7352C3.06098 57.5704 3.05336 57.4054 3.04649 57.2402ZM3.20753 59.7226L13.1688 58.843C13.1806 58.9768 13.193 59.1104 13.2061 59.2439L3.25344 60.2162C3.23738 60.0519 3.22208 59.8873 3.20753 59.7226ZM3.48422 62.1944L13.3934 60.8494C13.4114 60.9825 13.4301 61.1153 13.4494 61.2479L3.55326 62.6858C3.5295 62.5223 3.50649 62.3585 3.48422 62.1944ZM3.87662 64.6504L13.7115 62.8405C13.7358 62.9725 13.7607 63.1043 13.7862 63.2359L3.96879 65.1383C3.93733 64.976 3.9066 64.8133 3.87662 64.6504ZM4.38438 67.0851L14.1228 64.8127C14.1533 64.9434 14.1844 65.0738 14.216 65.204L4.49956 67.5684C4.46043 67.4076 4.42203 67.2465 4.38438 67.0851ZM5.00669 69.493L14.6266 66.7621C14.6632 66.8912 14.7005 67.02 14.7383 67.1486L5.14468 69.9704C5.09796 69.8116 5.05196 69.6524 5.00669 69.493ZM5.74237 71.8686L15.222 68.6848C15.2647 68.8121 15.308 68.939 15.3519 69.0657L5.9029 72.3392C5.84867 72.1827 5.79516 72.0258 5.74237 71.8686ZM6.58986 74.2068L15.9079 70.5771C15.9566 70.7021 16.0059 70.8269 16.0557 70.9514L6.77256 74.6693C6.71096 74.5155 6.65006 74.3613 6.58986 74.2068ZM7.54726 76.5021L16.6827 72.4348C16.7373 72.5574 16.7925 72.6797 16.8482 72.8018L7.75171 76.9555C7.68287 76.8047 7.61472 76.6536 7.54726 76.5021ZM8.61236 78.7495L17.5449 74.254C17.6053 74.3739 17.6662 74.4936 17.7277 74.6129L8.83808 79.1928C8.76217 79.0454 8.68693 78.8977 8.61236 78.7495ZM9.78268 80.944L18.4925 76.0308C18.5585 76.1478 18.625 76.2644 18.6921 76.3807L10.0291 81.3761C9.94633 81.2325 9.86418 81.0884 9.78268 80.944ZM11.0555 83.0806L19.5233 77.7611C19.5947 77.8749 19.6667 77.9883 19.7392 78.1013L11.3221 83.5006C11.2326 83.3611 11.1437 83.2211 11.0555 83.0806ZM12.4279 85.1548L20.6349 79.4412C20.7117 79.5515 20.789 79.6614 20.8667 79.7709L12.714 85.5617C12.618 85.4265 12.5226 85.2909 12.4279 85.1548ZM13.8967 87.1618L21.8248 81.0671C21.9067 81.1736 21.9891 81.2798 22.0719 81.3855L14.2018 87.5548C14.0995 87.4243 13.9978 87.2933 13.8967 87.1618ZM15.4586 89.0972L23.0901 82.635C23.177 82.7376 23.2643 82.8397 23.352 82.9414L15.7819 89.4754C15.6736 89.3498 15.5658 89.2238 15.4586 89.0972ZM17.1102 90.9568L24.428 84.1413C24.5195 84.2396 24.6115 84.3375 24.704 84.4349L17.451 91.3192C17.3368 91.1989 17.2232 91.0781 17.1102 90.9568ZM18.8478 92.7362L25.8352 85.5824C25.9312 85.6762 26.0277 85.7696 26.1247 85.8625L19.2053 93.0821C19.0856 92.9674 18.9664 92.852 18.8478 92.7362ZM20.6677 94.4314L27.3085 86.9548C27.4088 87.0439 27.5096 87.1325 27.6107 87.2207L21.0412 94.76C20.9161 94.651 20.7916 94.5415 20.6677 94.4314ZM22.5658 96.0384L28.8444 88.2551C28.9487 88.3393 29.0535 88.423 29.1587 88.5063L22.9545 96.3489C22.8244 96.246 22.6949 96.1425 22.5658 96.0384ZM24.5382 97.5535L30.4393 89.4803C30.5475 89.5594 30.6561 89.6379 30.7651 89.716L24.9412 97.8451C24.8064 97.7485 24.672 97.6513 24.5382 97.5535ZM26.5805 98.9728C26.7188 99.0641 26.8577 99.1548 26.9969 99.2449L32.426 90.847C32.3135 90.7742 32.2014 90.701 32.0897 90.6272L26.5805 98.9728ZM28.6883 100.293L33.7916 91.6932C33.9067 91.7614 34.0221 91.8292 34.1378 91.8964L29.1172 100.545C28.9738 100.461 28.8308 100.378 28.6883 100.293ZM30.857 101.51L35.5414 92.6755C35.6594 92.7381 35.7779 92.8001 35.8966 92.8616L31.2975 101.741C31.1502 101.665 31.0034 101.588 30.857 101.51ZM33.0817 102.622L37.3349 93.5718C37.4558 93.6286 37.5769 93.6848 37.6984 93.7405L33.5328 102.832C33.382 102.762 33.2317 102.693 33.0817 102.622ZM35.3575 103.625L39.1684 94.3799C39.2917 94.4307 39.4153 94.481 39.5393 94.5307L35.8181 103.813C35.6642 103.751 35.5107 103.688 35.3575 103.625ZM37.6792 104.517L41.0377 95.098C41.1633 95.1427 41.2891 95.1869 41.4152 95.2305L38.1482 104.682C37.9916 104.628 37.8352 104.573 37.6792 104.517ZM40.0415 105.295L42.939 95.7243C43.0665 95.7629 43.1942 95.8009 43.3223 95.8383L40.5178 105.437C40.3587 105.391 40.1999 105.343 40.0415 105.295ZM42.4388 105.958L44.8682 96.2576C44.9974 96.2899 45.1268 96.3217 45.2564 96.3528L42.9212 106.076C42.7601 106.038 42.5993 105.998 42.4388 105.958ZM44.8656 106.504L46.8215 96.6966C46.952 96.7227 47.0828 96.7481 47.2138 96.7729L45.3529 106.598C45.1902 106.567 45.0277 106.536 44.8656 106.504ZM47.316 106.931L48.795 97.0408C48.9266 97.0605 49.0585 97.0795 49.1906 97.098L47.807 107.002C47.6431 106.979 47.4795 106.955 47.316 106.931ZM49.7845 107.239L50.7849 97.2894C50.9174 97.3027 51.0501 97.3154 51.183 97.3275L50.278 107.286C50.1133 107.271 49.9488 107.256 49.7845 107.239ZM52.2648 107.429L52.7873 97.4423C52.9205 97.4492 53.0539 97.4556 53.1875 97.4613L52.76 107.452C52.5947 107.445 52.4296 107.437 52.2648 107.429ZM54.75 107.499L54.7975 97.4995C54.865 97.4998 54.9325 97.5 55 97.5C55.0373 97.5 55.0745 97.4999 55.1117 97.4998C55.142 97.4998 55.1722 97.4997 55.2025 97.4995L55.25 107.499C55.1667 107.5 55.0834 107.5 55 107.5C54.9166 107.5 54.8333 107.5 54.75 107.499ZM57.2401 107.452L56.8126 97.4613C56.9462 97.4556 57.0796 97.4492 57.2128 97.4423L57.7353 107.429C57.5704 107.437 57.4053 107.445 57.2401 107.452ZM59.7221 107.286L58.817 97.3275C58.8966 97.3203 58.9762 97.3128 59.0557 97.3051C59.1089 97.3 59.162 97.2947 59.2151 97.2894L60.2155 107.239C60.0512 107.256 59.8868 107.271 59.7221 107.286ZM62.193 107.002L60.8094 97.098C60.8831 97.0877 60.9568 97.0772 61.0303 97.0665C61.0886 97.058 61.1469 97.0495 61.2051 97.0408L62.684 106.931C62.5206 106.955 62.3569 106.979 62.193 107.002ZM64.6471 106.598L62.7862 96.7729C62.9172 96.7481 63.048 96.7227 63.1785 96.6966L65.1345 106.504C64.9723 106.536 64.8098 106.567 64.6471 106.598ZM67.0788 106.076L64.7436 96.3528C64.8732 96.3217 65.0027 96.2899 65.1318 96.2576L67.5612 105.958C67.4007 105.998 67.2399 106.038 67.0788 106.076ZM69.4822 105.437L66.6778 95.8383C66.8058 95.8009 66.9335 95.7629 67.061 95.7243L69.9585 105.295C69.8001 105.343 69.6413 105.391 69.4822 105.437ZM71.8518 104.682C72.0084 104.628 72.1648 104.573 72.3207 104.517L68.9623 95.098C68.8367 95.1427 68.7109 95.1869 68.5848 95.2305L71.8518 104.682ZM74.1819 103.813L70.4607 94.5307C70.5847 94.481 70.7083 94.4308 70.8316 94.3799L74.6425 103.625C74.4893 103.688 74.3358 103.751 74.1819 103.813ZM76.4672 102.832L72.3016 93.7405C72.4231 93.6848 72.5442 93.6286 72.6651 93.5718L76.9183 102.622C76.7683 102.693 76.6179 102.762 76.4672 102.832ZM78.7025 101.741L74.1034 92.8616C74.2221 92.8001 74.3406 92.7381 74.4586 92.6755L79.143 101.51C78.9966 101.588 78.8498 101.665 78.7025 101.741ZM80.8828 100.545L75.8622 91.8964C75.9779 91.8292 76.0933 91.7614 76.2084 91.6932L81.3117 100.293C81.1692 100.378 81.0262 100.461 80.8828 100.545ZM83.0031 99.2449L77.574 90.847C77.6865 90.7742 77.7986 90.701 77.9103 90.6272L83.4195 98.9728C83.2812 99.0641 83.1423 99.1548 83.0031 99.2449ZM85.0588 97.8451L79.2349 89.716C79.3439 89.6379 79.4525 89.5594 79.5607 89.4803L85.4618 97.5535C85.328 97.6513 85.1936 97.7485 85.0588 97.8451ZM87.0455 96.3489L80.8413 88.5063C80.9465 88.423 81.0512 88.3393 81.1556 88.2551L87.4342 96.0384C87.3051 96.1425 87.1756 96.246 87.0455 96.3489ZM88.9588 94.76L82.3893 87.2207C82.4904 87.1325 82.5912 87.0439 82.6915 86.9548L89.3323 94.4314C89.2084 94.5415 89.0839 94.651 88.9588 94.76ZM90.7947 93.0821L83.8753 85.8625C83.9723 85.7696 84.0687 85.6762 84.1648 85.5824L91.1522 92.7362C91.0336 92.8521 90.9144 92.9674 90.7947 93.0821ZM92.549 91.3192L85.296 84.4349C85.3588 84.3687 85.4214 84.3024 85.4837 84.2358C85.5132 84.2044 85.5426 84.1729 85.572 84.1413L92.8898 90.9568C92.7768 91.0781 92.6632 91.1989 92.549 91.3192ZM94.2181 89.4754L86.648 82.9414C86.7357 82.8397 86.823 82.7376 86.9099 82.635L94.5414 89.0972C94.4342 89.2238 94.3264 89.3498 94.2181 89.4754ZM95.7982 87.5548L87.9281 81.3855C88.0109 81.2798 88.0933 81.1736 88.1752 81.0671L96.1033 87.1618C96.0022 87.2933 95.9005 87.4243 95.7982 87.5548ZM97.2859 85.5617L89.1333 79.7709C89.211 79.6614 89.2883 79.5515 89.3651 79.4412L97.5721 85.1548C97.4774 85.2909 97.382 85.4265 97.2859 85.5617ZM98.6779 83.5006L90.2608 78.1013C90.3333 77.9883 90.4053 77.8749 90.4767 77.7612L98.9445 83.0806C98.8563 83.2211 98.7674 83.3611 98.6779 83.5006ZM99.9709 81.3761L91.3079 76.3807C91.375 76.2644 91.4415 76.1478 91.5075 76.0308L100.217 80.944C100.136 81.0884 100.054 81.2325 99.9709 81.3761ZM101.162 79.1928L92.2723 74.6129C92.3338 74.4936 92.3947 74.374 92.4551 74.254L101.388 78.7495C101.313 78.8977 101.238 79.0454 101.162 79.1928ZM102.248 76.9555L93.1518 72.8018C93.2075 72.6797 93.2627 72.5574 93.3173 72.4348L102.453 76.5021C102.385 76.6536 102.317 76.8048 102.248 76.9555ZM103.227 74.6693L93.9443 70.9514C93.971 70.8847 93.9975 70.818 94.0239 70.7512C94.0467 70.6932 94.0695 70.6352 94.0921 70.5771L103.41 74.2068C103.35 74.3613 103.289 74.5155 103.227 74.6693ZM104.097 72.3392L94.6481 69.0657C94.692 68.939 94.7353 68.8121 94.778 68.6849L104.258 71.8687C104.205 72.0258 104.151 72.1827 104.097 72.3392ZM104.855 69.9705L95.2617 67.1486C95.2995 67.02 95.3368 66.8912 95.3734 66.7621L104.993 69.493C104.948 69.6525 104.902 69.8116 104.855 69.9705ZM105.5 67.5684L95.784 65.204C95.8037 65.123 95.8232 65.0418 95.8424 64.9606C95.8541 64.9113 95.8657 64.862 95.8772 64.8127L105.616 67.0851C105.578 67.2465 105.54 67.4076 105.5 67.5684ZM106.031 65.1383L96.2138 63.2359C96.2393 63.1043 96.2642 62.9725 96.2885 62.8405L106.123 64.6504C106.093 64.8133 106.063 64.976 106.031 65.1383ZM106.447 62.6858L96.5507 61.2479C96.5699 61.1153 96.5886 60.9824 96.6067 60.8494L106.516 62.1944C106.494 62.3585 106.471 62.5223 106.447 62.6858ZM106.747 60.2162L96.7939 59.2438C96.807 59.1104 96.8194 58.9768 96.8312 58.8429L106.792 59.7226C106.778 59.8873 106.763 60.0519 106.747 60.2162ZM106.931 57.7352L96.9435 57.2275C96.9504 57.0934 96.9566 56.9592 96.9622 56.8248L106.954 57.2402C106.947 57.4054 106.939 57.5704 106.931 57.7352Z" fill="url(#paint0_linear_8985_226353)"/>
<g filter="url(#filter1_d_8985_226353)">
<circle cx="54.9998" cy="55.053" r="33.845" fill="url(#paint1_linear_8985_226353)"/>
</g>
<g filter="url(#filter2_i_8985_226353)">
<path fill-rule="evenodd" clip-rule="evenodd" d="M63.3531 42.8439C65.1466 43.9053 67.2328 44.2347 69.2458 43.8687C73.2352 43.3563 76.1265 47.7116 74.0769 51.1887C72.1005 54.7022 66.8668 54.3362 65.3296 50.6396C61.7062 41.2701 48.3106 41.2701 44.6507 50.6396C43.1501 54.3362 37.8797 54.7022 35.9033 51.1887C33.8903 47.7116 36.7817 43.3563 40.7345 43.8687C42.7475 44.2347 44.8337 43.8687 46.6271 42.8439C48.457 41.8191 49.7746 40.2087 50.4701 38.2689C52.0805 34.2795 57.8998 34.2795 59.5103 38.2689C60.2056 40.1721 61.5598 41.8191 63.3531 42.8439ZM55.0085 47.8947C58.9978 47.8947 61.3403 52.5429 58.888 55.7636C57.5704 57.3009 56.8385 59.2772 56.8385 61.3634C56.8385 63.4129 57.5704 65.3894 58.888 66.9632C61.3768 70.1839 58.9978 74.8688 55.0085 74.8321C51.0191 74.8321 48.6766 70.1839 51.1289 66.9632C52.4465 65.426 53.1784 63.4496 53.1784 61.3634C53.1784 59.3139 52.4465 57.3374 51.1289 55.7636C48.6401 52.5429 51.0191 47.8581 55.0085 47.8947Z" fill="#FF5500"/>
</g>
<defs>
<filter id="filter0_i_8985_226353" x="14.5474" y="14.6011" width="80.9053" height="80.9054" filterUnits="userSpaceOnUse" color-interpolation-filters="sRGB">
<feFlood flood-opacity="0" result="BackgroundImageFix"/>
<feBlend mode="normal" in="SourceGraphic" in2="BackgroundImageFix" result="shape"/>
<feColorMatrix in="SourceAlpha" type="matrix" values="0 0 0 0 0 0 0 0 0 0 0 0 0 0 0 0 0 0 127 0" result="hardAlpha"/>
<feOffset/>
<feGaussianBlur stdDeviation="1.64358"/>
<feComposite in2="hardAlpha" operator="arithmetic" k2="-1" k3="1"/>
<feColorMatrix type="matrix" values="0 0 0 0 0 0 0 0 0 0 0 0 0 0 0 0 0 0 0.3 0"/>
<feBlend mode="normal" in2="shape" result="effect1_innerShadow_8985_226353"/>
</filter>
<filter id="filter1_d_8985_226353" x="18.3572" y="19.1098" width="73.2854" height="73.2853" filterUnits="userSpaceOnUse" color-interpolation-filters="sRGB">
<feFlood flood-opacity="0" result="BackgroundImageFix"/>
<feColorMatrix in="SourceAlpha" type="matrix" values="0 0 0 0 0 0 0 0 0 0 0 0 0 0 0 0 0 0 127 0" result="hardAlpha"/>
<feOffset dy="0.699402"/>
<feGaussianBlur stdDeviation="1.3988"/>
<feComposite in2="hardAlpha" operator="out"/>
<feColorMatrix type="matrix" values="0 0 0 0 0 0 0 0 0 0 0 0 0 0 0 0 0 0 0.15 0"/>
<feBlend mode="normal" in2="BackgroundImageFix" result="effect1_dropShadow_8985_226353"/>
<feBlend mode="normal" in="SourceGraphic" in2="effect1_dropShadow_8985_226353" result="shape"/>
</filter>
<filter id="filter2_i_8985_226353" x="35.2456" y="35.2769" width="39.5083" height="42.4154" filterUnits="userSpaceOnUse" color-interpolation-filters="sRGB">
<feFlood flood-opacity="0" result="BackgroundImageFix"/>
<feBlend mode="normal" in="SourceGraphic" in2="BackgroundImageFix" result="shape"/>
<feColorMatrix in="SourceAlpha" type="matrix" values="0 0 0 0 0 0 0 0 0 0 0 0 0 0 0 0 0 0 127 0" result="hardAlpha"/>
<feOffset dy="2.85999"/>
<feGaussianBlur stdDeviation="2.09821"/>
<feComposite in2="hardAlpha" operator="arithmetic" k2="-1" k3="1"/>
<feColorMatrix type="matrix" values="0 0 0 0 0.6 0 0 0 0 0.2 0 0 0 0 0 0 0 0 0.8 0"/>
<feBlend mode="normal" in2="shape" result="effect1_innerShadow_8985_226353"/>
</filter>
<linearGradient id="paint0_linear_8985_226353" x1="55" y1="2.5" x2="55" y2="107.5" gradientUnits="userSpaceOnUse">
<stop stop-color="#D8D9D9"/>
<stop offset="1" stop-color="#9D9E9F"/>
</linearGradient>
<linearGradient id="paint1_linear_8985_226353" x1="54.9998" y1="21.208" x2="54.9998" y2="88.8981" gradientUnits="userSpaceOnUse">
<stop stop-color="white"/>
<stop offset="1" stop-color="#F5F6F7"/>
</linearGradient>
</defs>
</svg>
