<svg width="298" height="174" viewBox="0 0 298 174" fill="none" xmlns="http://www.w3.org/2000/svg">
<path fill-rule="evenodd" clip-rule="evenodd" d="M123.155 33.4581C131.012 38.1081 140.152 39.5512 148.971 37.9477C166.448 35.7029 179.115 54.7839 170.136 70.0172C161.478 85.4103 138.548 83.8067 131.813 67.6116C115.939 26.5631 57.2523 26.5631 41.2178 67.6116C34.6436 83.8067 11.5538 85.4103 2.89506 70.0172C-5.92399 54.7839 6.74336 35.7029 24.0608 37.9477C32.8798 39.5512 42.0196 37.9478 49.8767 33.4581C57.8937 28.9683 63.6662 21.9131 66.7131 13.4147C73.7683 -4.06304 99.263 -4.06304 106.319 13.4147C109.365 21.7527 115.298 28.9683 123.155 33.4581ZM86.596 55.5859C104.074 55.5859 114.336 75.9499 103.593 90.0603C97.8201 96.7951 94.6135 105.453 94.6135 114.593C94.6135 123.572 97.8201 132.231 103.593 139.126C114.496 153.237 104.074 173.761 86.596 173.601C69.1183 173.601 58.8559 153.237 69.5994 139.126C75.3719 132.392 78.5786 123.733 78.5786 114.593C78.5786 105.614 75.3719 96.9553 69.5994 90.0603C58.6957 75.9499 69.1183 55.4257 86.596 55.5859Z" fill="url(#paint0_linear_8985_218295)"/>
<path fill-rule="evenodd" clip-rule="evenodd" d="M247.493 140.45C255.35 135.8 264.49 134.357 273.309 135.96C290.787 138.205 303.454 119.124 294.475 103.891C285.816 88.4977 262.886 90.1013 256.152 106.296C240.277 147.345 181.591 147.345 165.556 106.296C158.982 90.1013 135.892 88.4977 127.233 103.891C118.414 119.124 131.082 138.205 148.399 135.96C157.218 134.357 166.358 135.96 174.215 140.45C182.232 144.94 188.004 151.995 191.051 160.493C198.107 177.971 223.601 177.971 230.657 160.493C233.703 152.155 239.636 144.94 247.493 140.45ZM210.934 118.322C228.412 118.322 238.674 97.958 227.931 83.8476C222.158 77.1129 218.952 68.4546 218.952 59.3147C218.952 50.3355 222.158 41.6767 227.931 34.7817C238.835 20.6714 228.412 0.146652 210.934 0.307343C193.456 0.307343 183.194 20.6714 193.938 34.7817C199.71 41.516 202.917 50.1748 202.917 59.3147C202.917 68.2939 199.71 76.9527 193.938 83.8476C183.034 97.958 193.456 118.482 210.934 118.322Z" fill="url(#paint1_linear_8985_218295)"/>
<defs>
<linearGradient id="paint0_linear_8985_218295" x1="86.5578" y1="0.306396" x2="86.5578" y2="173.602" gradientUnits="userSpaceOnUse">
<stop stop-color="#EBECEC"/>
<stop offset="1" stop-color="#EBECEC"/>
</linearGradient>
<linearGradient id="paint1_linear_8985_218295" x1="304.027" y1="81.7323" x2="107.244" y2="119.607" gradientUnits="userSpaceOnUse">
<stop stop-color="#F5F5F5"/>
<stop offset="1" stop-color="#EBECEC"/>
</linearGradient>
</defs>
</svg>
