<svg width="20" height="20" viewBox="0 0 20 20" fill="none" xmlns="http://www.w3.org/2000/svg">
<g clip-path="url(#clip0_9049_26574)">
<path d="M4.21666 12.6433C4.21666 13.8057 3.27792 14.7452 2.11645 14.7452C0.954965 14.7452 0.0162354 13.8057 0.0162354 12.6433C0.0162354 11.4809 0.954965 10.5414 2.11645 10.5414H4.21666V12.6433ZM5.26676 12.6433C5.26676 11.4809 6.20549 10.5414 7.36697 10.5414C8.52845 10.5414 9.46718 11.4809 9.46718 12.6433V17.8981C9.46718 19.0605 8.52845 20 7.36697 20C6.20549 20 5.26676 19.0605 5.26676 17.8981V12.6433Z" fill="#0A0D0F"/>
<path d="M7.36665 4.20382C6.20517 4.20382 5.26644 3.26433 5.26644 2.10191C5.26644 0.939491 6.20517 0 7.36665 0C8.52813 0 9.46686 0.939491 9.46686 2.10191V4.20382H7.36665ZM7.36665 5.2707C8.52813 5.2707 9.46686 6.21019 9.46686 7.37261C9.46686 8.53504 8.52813 9.47453 7.36665 9.47453H2.10021C0.93873 9.47453 0 8.53504 0 7.37261C0 6.21019 0.93873 5.2707 2.10021 5.2707H7.36665Z" fill="#0A0D0F"/>
<path d="M15.7837 7.37255C15.7837 6.21013 16.7225 5.27064 17.8839 5.27064C19.0454 5.27064 19.9841 6.21013 19.9841 7.37255C19.9841 8.53498 19.0454 9.47447 17.8839 9.47447H15.7837V7.37255ZM14.7336 7.37255C14.7336 8.53498 13.7949 9.47447 12.6334 9.47447C11.4719 9.47447 10.5332 8.53498 10.5332 7.37255V2.10185C10.5332 0.93943 11.4719 -6.10352e-05 12.6334 -6.10352e-05C13.7949 -6.10352e-05 14.7336 0.93943 14.7336 2.10185V7.37255Z" fill="#0A0D0F"/>
<path d="M12.6334 15.7962C13.7949 15.7962 14.7336 16.7357 14.7336 17.8981C14.7336 19.0605 13.7949 20 12.6334 20C11.4719 20 10.5332 19.0605 10.5332 17.8981V15.7962H12.6334ZM12.6334 14.7452C11.4719 14.7452 10.5332 13.8057 10.5332 12.6433C10.5332 11.4809 11.4719 10.5414 12.6334 10.5414H17.8998C19.0613 10.5414 20.0001 11.4809 20.0001 12.6433C20.0001 13.8057 19.0613 14.7452 17.8998 14.7452H12.6334Z" fill="#0A0D0F"/>
</g>
<defs>
<clipPath id="clip0_9049_26574">
<rect width="20" height="20" fill="white"/>
</clipPath>
</defs>
</svg>
