<svg width="19" height="18" viewBox="0 0 19 18" fill="none" xmlns="http://www.w3.org/2000/svg">
<path fill-rule="evenodd" clip-rule="evenodd" d="M1.09239 0.546009C0.983398 0.759921 0.983398 1.03995 0.983398 1.6V16.4C0.983398 16.9601 0.983398 17.2401 1.09239 17.454C1.18827 17.6422 1.34125 17.7951 1.52941 17.891C1.74332 18 2.02335 18 2.5834 18H17.3834C17.9435 18 18.2235 18 18.4374 17.891C18.6256 17.7951 18.7785 17.6422 18.8744 17.454C18.9834 17.2401 18.9834 16.9601 18.9834 16.4V1.6C18.9834 1.03995 18.9834 0.759921 18.8744 0.546009C18.7785 0.357847 18.6256 0.204867 18.4374 0.108993C18.2235 0 17.9435 0 17.3834 0H2.5834C2.02335 0 1.74332 0 1.52941 0.108993C1.34125 0.204867 1.18827 0.357847 1.09239 0.546009ZM15.4026 3.5625H13.5625L10.5304 7.07742L7.90878 3.5625H4.11182L8.6486 9.57865L4.34878 14.5625H6.18997L9.50856 10.717L12.4089 14.5625H16.1118L11.3826 8.22199L15.4026 3.5625ZM13.9363 13.4456H12.9167L6.26061 4.62076H7.35476L13.9363 13.4456Z" fill="#0A0D0F"/>
</svg>
