<svg width="314" height="258" viewBox="0 0 314 258" fill="none" xmlns="http://www.w3.org/2000/svg">
<rect x="157.049" y="0.140625" width="115.582" height="115.582" rx="14.384" transform="rotate(45 157.049 0.140625)" fill="url(#paint0_linear_10672_163428)"/>
<rect x="81.7441" y="94.0391" width="115.582" height="115.582" rx="21.378" transform="rotate(45 81.7441 94.0391)" fill="#EBECEC"/>
<mask id="mask0_10672_163428" style="mask-type:alpha" maskUnits="userSpaceOnUse" x="159" y="102" width="146" height="147">
<rect x="232.088" y="93.6016" width="115.582" height="115.582" rx="21.378" transform="rotate(45 232.088 93.6016)" fill="#EEEFF1"/>
</mask>
<g mask="url(#mask0_10672_163428)">
<path d="M159.252 43.0052L79.4911 181.155" stroke="#CECFCF" stroke-width="0.542321"/>
<path d="M163.008 45.1746L83.247 183.324" stroke="#CECFCF" stroke-width="0.542321"/>
<path d="M166.766 47.3438L87.0048 185.494" stroke="#CECFCF" stroke-width="0.542321"/>
<path d="M170.523 49.5131L90.7626 187.663" stroke="#CECFCF" stroke-width="0.542321"/>
<path d="M174.281 51.6824L94.5204 189.832" stroke="#CECFCF" stroke-width="0.542321"/>
<path d="M178.037 53.8517L98.2763 192.001" stroke="#CECFCF" stroke-width="0.542321"/>
<path d="M181.795 56.0209L102.034 194.171" stroke="#CECFCF" stroke-width="0.542321"/>
<path d="M185.553 58.1902L105.792 196.34" stroke="#CECFCF" stroke-width="0.542321"/>
<path d="M189.311 60.3595L109.55 198.509" stroke="#CECFCF" stroke-width="0.542321"/>
<path d="M193.066 62.5288L113.306 200.679" stroke="#CECFCF" stroke-width="0.542321"/>
<path d="M196.824 64.6981L117.063 202.848" stroke="#CECFCF" stroke-width="0.542321"/>
<path d="M200.582 66.8673L120.821 205.017" stroke="#CECFCF" stroke-width="0.542321"/>
<path d="M204.34 69.0366L124.579 207.186" stroke="#CECFCF" stroke-width="0.542321"/>
<path d="M208.096 71.2059L128.335 209.356" stroke="#CECFCF" stroke-width="0.542321"/>
<path d="M211.854 73.3752L132.093 211.525" stroke="#CECFCF" stroke-width="0.542321"/>
<path d="M215.611 75.5446L135.85 213.694" stroke="#CECFCF" stroke-width="0.542321"/>
<path d="M219.369 77.7137L139.608 215.864" stroke="#CECFCF" stroke-width="0.542321"/>
<path d="M223.125 79.8831L143.364 218.033" stroke="#CECFCF" stroke-width="0.542321"/>
<path d="M226.883 82.0524L147.122 220.202" stroke="#CECFCF" stroke-width="0.542321"/>
<path d="M230.641 84.2217L150.88 222.371" stroke="#CECFCF" stroke-width="0.542321"/>
<path d="M234.398 86.3909L154.638 224.541" stroke="#CECFCF" stroke-width="0.542321"/>
<path d="M238.154 88.5602L158.393 226.71" stroke="#CECFCF" stroke-width="0.542321"/>
<path d="M241.912 90.7295L162.151 228.879" stroke="#CECFCF" stroke-width="0.542321"/>
<path d="M245.67 92.8988L165.909 231.049" stroke="#CECFCF" stroke-width="0.542321"/>
<path d="M249.428 95.0681L169.667 233.218" stroke="#CECFCF" stroke-width="0.542321"/>
<path d="M253.184 97.2373L173.423 235.387" stroke="#CECFCF" stroke-width="0.542321"/>
<path d="M256.941 99.4066L177.181 237.556" stroke="#CECFCF" stroke-width="0.542321"/>
<path d="M260.699 101.576L180.938 239.726" stroke="#CECFCF" stroke-width="0.542321"/>
<path d="M264.457 103.745L184.696 241.895" stroke="#CECFCF" stroke-width="0.542321"/>
<path d="M268.213 105.915L188.452 244.064" stroke="#CECFCF" stroke-width="0.542321"/>
<path d="M271.971 108.084L192.21 246.234" stroke="#CECFCF" stroke-width="0.542321"/>
<path d="M275.729 110.253L195.968 248.403" stroke="#CECFCF" stroke-width="0.542321"/>
<path d="M279.486 112.422L199.725 250.572" stroke="#CECFCF" stroke-width="0.542321"/>
<path d="M283.242 114.592L203.481 252.741" stroke="#CECFCF" stroke-width="0.542321"/>
<path d="M287 116.761L207.239 254.911" stroke="#CECFCF" stroke-width="0.542321"/>
<path d="M290.758 118.93L210.997 257.08" stroke="#CECFCF" stroke-width="0.542321"/>
<path d="M294.516 121.099L214.755 259.249" stroke="#CECFCF" stroke-width="0.542321"/>
<path d="M298.271 123.269L218.511 261.419" stroke="#CECFCF" stroke-width="0.542321"/>
<path d="M302.029 125.438L222.268 263.588" stroke="#CECFCF" stroke-width="0.542321"/>
<path d="M305.787 127.607L226.026 265.757" stroke="#CECFCF" stroke-width="0.542321"/>
<path d="M309.545 129.777L229.784 267.926" stroke="#CECFCF" stroke-width="0.542321"/>
<path d="M313.301 131.946L233.54 270.096" stroke="#CECFCF" stroke-width="0.542321"/>
<path d="M317.059 134.115L237.298 272.265" stroke="#CECFCF" stroke-width="0.542321"/>
<path d="M320.816 136.285L241.056 274.434" stroke="#CECFCF" stroke-width="0.542321"/>
<path d="M324.574 138.454L244.813 276.604" stroke="#CECFCF" stroke-width="0.542321"/>
<path d="M328.33 140.623L248.569 278.773" stroke="#CECFCF" stroke-width="0.542321"/>
<path d="M332.088 142.792L252.327 280.942" stroke="#CECFCF" stroke-width="0.542321"/>
<path d="M335.846 144.962L256.085 283.111" stroke="#CECFCF" stroke-width="0.542321"/>
<path d="M339.604 147.131L259.843 285.281" stroke="#CECFCF" stroke-width="0.542321"/>
<path d="M343.359 149.3L263.599 287.45" stroke="#CECFCF" stroke-width="0.542321"/>
<path d="M347.117 151.47L267.356 289.619" stroke="#CECFCF" stroke-width="0.542321"/>
<path d="M350.875 153.639L271.114 291.789" stroke="#CECFCF" stroke-width="0.542321"/>
<path d="M354.631 155.808L274.87 293.958" stroke="#CECFCF" stroke-width="0.542321"/>
<path d="M358.389 157.977L278.628 296.127" stroke="#CECFCF" stroke-width="0.542321"/>
<path d="M362.146 160.147L282.386 298.297" stroke="#CECFCF" stroke-width="0.542321"/>
<path d="M365.904 162.316L286.143 300.466" stroke="#CECFCF" stroke-width="0.542321"/>
<path d="M369.66 164.485L289.899 302.635" stroke="#CECFCF" stroke-width="0.542321"/>
<path d="M373.418 166.655L293.657 304.804" stroke="#CECFCF" stroke-width="0.542321"/>
<path d="M377.176 168.824L297.415 306.974" stroke="#CECFCF" stroke-width="0.542321"/>
<path d="M380.934 170.993L301.173 309.143" stroke="#CECFCF" stroke-width="0.542321"/>
<path d="M384.689 173.162L304.929 311.312" stroke="#CECFCF" stroke-width="0.542321"/>
</g>
<defs>
<linearGradient id="paint0_linear_10672_163428" x1="213.738" y1="-24.5559" x2="217.593" y2="97.7395" gradientUnits="userSpaceOnUse">
<stop stop-color="#F5F5F5"/>
<stop offset="1" stop-color="#EBECEC"/>
</linearGradient>
</defs>
</svg>
