<svg width="126" height="126" viewBox="0 0 126 126" fill="none" xmlns="http://www.w3.org/2000/svg">
<mask id="path-1-inside-1_10672_163226" fill="white">
<path d="M56.4622 1.80856C60.7115 0.427896 65.2892 0.427923 69.5384 1.80856C74.3692 3.37816 78.5584 7.56779 86.9369 15.9463L110.077 39.0869C118.456 47.4653 122.645 51.6547 124.215 56.4853C125.596 60.7346 125.596 65.3122 124.215 69.5615C122.646 74.3923 118.456 78.5813 110.077 86.9599L86.9369 110.101C78.5583 118.479 74.3692 122.669 69.5384 124.238C65.2891 125.619 60.7115 125.619 56.4622 124.238C51.6316 122.669 47.4422 118.479 39.0638 110.101L15.9232 86.9599C7.54472 78.5815 3.35509 74.3922 1.78549 69.5615C0.404851 65.3122 0.404825 60.7346 1.78549 56.4853C3.35516 51.6546 7.54472 47.4653 15.9232 39.0869L39.0638 15.9463C47.4423 7.56779 51.6316 3.37824 56.4622 1.80856Z"/>
</mask>
<path d="M56.4622 1.80856C60.7115 0.427896 65.2892 0.427923 69.5384 1.80856C74.3692 3.37816 78.5584 7.56779 86.9369 15.9463L110.077 39.0869C118.456 47.4653 122.645 51.6547 124.215 56.4853C125.596 60.7346 125.596 65.3122 124.215 69.5615C122.646 74.3923 118.456 78.5813 110.077 86.9599L86.9369 110.101C78.5583 118.479 74.3692 122.669 69.5384 124.238C65.2891 125.619 60.7115 125.619 56.4622 124.238C51.6316 122.669 47.4422 118.479 39.0638 110.101L15.9232 86.9599C7.54472 78.5815 3.35509 74.3922 1.78549 69.5615C0.404851 65.3122 0.404825 60.7346 1.78549 56.4853C3.35516 51.6546 7.54472 47.4653 15.9232 39.0869L39.0638 15.9463C47.4423 7.56779 51.6316 3.37824 56.4622 1.80856Z" fill="#FEFEFE"/>
<path d="M56.4622 1.80856L56.1374 0.808843L56.1374 0.808849L56.4622 1.80856ZM69.5384 1.80856L69.8632 0.808843L69.8632 0.808841L69.5384 1.80856ZM86.9369 15.9463L87.6801 15.203L86.9369 15.9463ZM124.215 56.4853L125.215 56.1605L125.215 56.1605L124.215 56.4853ZM124.215 69.5615L125.215 69.8863L125.215 69.8863L124.215 69.5615ZM86.9369 110.101L87.6801 110.844L86.9369 110.101ZM69.5384 124.238L69.8632 125.238L69.8632 125.238L69.5384 124.238ZM56.4622 124.238L56.1374 125.238L56.1374 125.238L56.4622 124.238ZM15.9232 86.9599L15.1799 87.7032L15.9232 86.9599ZM1.78549 69.5615L0.785771 69.8863L0.785773 69.8863L1.78549 69.5615ZM1.78549 56.4853L0.785778 56.1605L0.785773 56.1605L1.78549 56.4853ZM15.9232 39.0869L15.1799 38.3436L15.9232 39.0869ZM39.0638 15.9463L38.3205 15.203L39.0638 15.9463ZM56.4622 1.80856L56.7871 2.80827C60.8252 1.49621 65.1755 1.49623 69.2136 2.80827L69.5384 1.80856L69.8632 0.808841C65.4029 -0.640384 60.5978 -0.640415 56.1374 0.808843L56.4622 1.80856ZM69.5384 1.80856L69.2136 2.80827C71.4444 3.53311 73.5782 4.8767 76.2269 7.12541C78.8851 9.38209 81.9921 12.488 86.1936 16.6895L86.9369 15.9463L87.6801 15.203C83.5032 11.026 80.3263 7.84791 77.5875 5.52275C74.8394 3.18964 72.4632 1.65361 69.8632 0.808843L69.5384 1.80856ZM86.9369 15.9463L86.1936 16.6895L109.334 39.8302L110.077 39.0869L110.821 38.3436L87.6801 15.203L86.9369 15.9463ZM110.077 39.0869L109.334 39.8302C113.536 44.0316 116.642 47.1387 118.898 49.7968C121.147 52.4456 122.491 54.5794 123.215 56.8102L124.215 56.4853L125.215 56.1605C124.37 53.5606 122.834 51.1844 120.501 48.4362C118.176 45.6974 114.998 42.5205 110.821 38.3436L110.077 39.0869ZM124.215 56.4853L123.215 56.8101C124.528 60.8483 124.528 65.1985 123.215 69.2367L124.215 69.5615L125.215 69.8863C126.664 65.4259 126.664 60.6209 125.215 56.1605L124.215 56.4853ZM124.215 69.5615L123.215 69.2367C122.491 71.4675 121.147 73.6012 118.898 76.25C116.642 78.9081 113.536 82.0151 109.334 86.2166L110.077 86.9599L110.821 87.7032C114.998 83.5262 118.176 80.3493 120.501 77.6106C122.834 74.8624 124.37 72.4863 125.215 69.8863L124.215 69.5615ZM110.077 86.9599L109.334 86.2166L86.1936 109.357L86.9369 110.101L87.6801 110.844L110.821 87.7032L110.077 86.9599ZM86.9369 110.101L86.1936 109.357C81.992 113.559 78.885 116.665 76.2269 118.921C73.5782 121.17 71.4444 122.514 69.2136 123.239L69.5384 124.238L69.8632 125.238C72.4632 124.393 74.8394 122.857 77.5875 120.524C80.3263 118.199 83.5031 115.021 87.6801 110.844L86.9369 110.101ZM69.5384 124.238L69.2136 123.239C65.1754 124.551 60.8252 124.551 56.7871 123.239L56.4622 124.238L56.1374 125.238C60.5978 126.687 65.4028 126.687 69.8632 125.238L69.5384 124.238ZM56.4622 124.238L56.7871 123.239C54.5563 122.514 52.4225 121.17 49.7737 118.921C47.1156 116.665 44.0086 113.559 39.8071 109.357L39.0638 110.101L38.3205 110.844C42.4975 115.021 45.6743 118.199 48.4131 120.524C51.1613 122.857 53.5375 124.393 56.1374 125.238L56.4622 124.238ZM39.0638 110.101L39.8071 109.357L16.6665 86.2166L15.9232 86.9599L15.1799 87.7032L38.3205 110.844L39.0638 110.101ZM15.9232 86.9599L16.6665 86.2166C12.465 82.0151 9.35902 78.9081 7.10234 76.25C4.85363 73.6013 3.51004 71.4675 2.7852 69.2367L1.78549 69.5615L0.785773 69.8863C1.63054 72.4862 3.16657 74.8624 5.49968 77.6106C7.82484 80.3494 11.0029 83.5262 15.1799 87.7032L15.9232 86.9599ZM1.78549 69.5615L2.7852 69.2367C1.47316 65.1985 1.47314 60.8483 2.7852 56.8101L1.78549 56.4853L0.785773 56.1605C-0.663486 60.6208 -0.663456 65.426 0.785771 69.8863L1.78549 69.5615ZM1.78549 56.4853L2.78519 56.8102C3.51007 54.5794 4.85366 52.4456 7.10237 49.7968C9.35904 47.1387 12.465 44.0317 16.6665 39.8302L15.9232 39.0869L15.1799 38.3436C11.0029 42.5206 7.82485 45.6974 5.49971 48.4362C3.1666 51.1844 1.63058 53.5606 0.785778 56.1605L1.78549 56.4853ZM15.9232 39.0869L16.6665 39.8302L39.8071 16.6895L39.0638 15.9463L38.3205 15.203L15.1799 38.3436L15.9232 39.0869ZM39.0638 15.9463L39.8071 16.6895C44.0086 12.488 47.1156 9.38211 49.7737 7.12544C52.4225 4.87674 54.5563 3.53314 56.7871 2.80826L56.4622 1.80856L56.1374 0.808849C53.5375 1.65365 51.1613 3.18967 48.4131 5.52278C45.6743 7.84793 42.4975 11.026 38.3205 15.203L39.0638 15.9463Z" fill="#EBECEC" mask="url(#path-1-inside-1_10672_163226)"/>
<g filter="url(#filter0_i_10672_163226)">
<path d="M57.9485 5.87647C61.2318 4.80976 64.7687 4.8097 68.052 5.87647C71.7849 7.08935 75.022 10.3269 81.4964 16.8013L109.231 44.5347C115.705 51.0091 118.942 54.2471 120.155 57.98C121.221 61.2635 121.221 64.8 120.155 68.0835C118.942 71.8163 115.705 75.0536 109.231 81.5278L81.4964 109.262C75.0221 115.736 71.7849 118.974 68.052 120.187C64.7687 121.254 61.2318 121.254 57.9485 120.187C54.2156 118.974 50.9776 115.737 44.5032 109.262L16.7698 81.5278C10.2955 75.0535 7.05786 71.8164 5.84498 68.0835C4.77821 64.8002 4.77826 61.2633 5.84498 57.98C7.05786 54.2471 10.2955 51.0099 16.7698 44.5357L44.5032 16.8013C50.9776 10.3269 54.2156 7.08936 57.9485 5.87647Z" fill="url(#paint0_linear_10672_163226)"/>
</g>
<g filter="url(#filter1_d_10672_163226)">
<path d="M59.432 10.1801C61.7498 9.42696 64.247 9.42696 66.5648 10.1801C69.1997 11.0363 71.485 13.3219 76.0551 17.892L108.126 49.9633C112.696 54.5333 114.981 56.8186 115.837 59.4535C116.59 61.7713 116.59 64.2685 115.837 66.5863C114.981 69.2211 112.696 71.5066 108.126 76.0765L76.0551 108.148C71.4852 112.718 69.1996 115.003 66.5648 115.859C64.247 116.612 61.7498 116.612 59.432 115.859C56.7971 115.003 54.5118 112.718 49.9418 108.148L17.8705 76.0765C13.3005 71.5065 11.0148 69.2212 10.1586 66.5863C9.40548 64.2685 9.40548 61.7713 10.1586 59.4535C11.0147 56.8185 13.3003 54.5334 17.8705 49.9633L49.9418 17.892C54.5119 13.3218 56.797 11.0362 59.432 10.1801Z" fill="url(#paint1_linear_10672_163226)"/>
</g>
<g filter="url(#filter2_i_10672_163226)">
<path d="M62.9375 106.046L57.002 96.1528H68.874L62.9375 106.046ZM79.252 78.0347C79.2783 78.0399 79.2959 78.0644 79.292 78.0913C79.2905 78.1013 79.2853 78.1116 79.2783 78.1187L79.2656 78.1284L58.9248 84.3228L58.9102 84.3257L58.8896 84.3228L46.5986 78.1284C46.5742 78.1173 46.5627 78.088 46.5732 78.063C46.5783 78.052 46.5886 78.0426 46.5996 78.0386L46.6201 78.0347H79.252ZM61.0029 34.4419C61.0274 34.4299 61.0563 34.4404 61.0684 34.4653L79.4561 76.1499L79.46 76.1636V76.1753C79.4569 76.2033 79.4333 76.2231 79.4062 76.2202L61.0186 74.1353C60.994 74.1322 60.9756 74.1115 60.9756 74.0864V34.4858L60.9785 34.4673C60.983 34.4562 60.9919 34.4469 61.0029 34.4419ZM58.8789 48.2974C58.8889 48.3023 58.8968 48.3109 58.9014 48.3208L58.9072 48.3423L58.9062 74.0327C58.9066 74.0566 58.8897 74.0775 58.8662 74.0815L46.5898 76.2173C46.5634 76.2211 46.5382 76.2032 46.5342 76.1763C46.5327 76.1663 46.5346 76.1569 46.5381 76.1489L58.8135 48.3208C58.8255 48.2969 58.8544 48.2856 58.8789 48.2974ZM29.9814 68.5864L20.0879 62.6509L29.9814 56.7144V68.5864ZM105.911 62.6509L96.0176 68.5864V56.7144L105.911 62.6509ZM68.874 29.896H57.002L62.9375 20.0024L68.874 29.896Z" fill="#FF5500"/>
</g>
<defs>
<filter id="filter0_i_10672_163226" x="5.04492" y="5.07642" width="115.91" height="115.911" filterUnits="userSpaceOnUse" color-interpolation-filters="sRGB">
<feFlood flood-opacity="0" result="BackgroundImageFix"/>
<feBlend mode="normal" in="SourceGraphic" in2="BackgroundImageFix" result="shape"/>
<feColorMatrix in="SourceAlpha" type="matrix" values="0 0 0 0 0 0 0 0 0 0 0 0 0 0 0 0 0 0 127 0" result="hardAlpha"/>
<feOffset/>
<feGaussianBlur stdDeviation="2.10232"/>
<feComposite in2="hardAlpha" operator="arithmetic" k2="-1" k3="1"/>
<feColorMatrix type="matrix" values="0 0 0 0 0 0 0 0 0 0 0 0 0 0 0 0 0 0 0.2 0"/>
<feBlend mode="normal" in2="shape" result="effect1_innerShadow_10672_163226"/>
</filter>
<filter id="filter1_d_10672_163226" x="5.97064" y="6.8979" width="114.055" height="114.055" filterUnits="userSpaceOnUse" color-interpolation-filters="sRGB">
<feFlood flood-opacity="0" result="BackgroundImageFix"/>
<feColorMatrix in="SourceAlpha" type="matrix" values="0 0 0 0 0 0 0 0 0 0 0 0 0 0 0 0 0 0 127 0" result="hardAlpha"/>
<feOffset dy="0.905778"/>
<feGaussianBlur stdDeviation="1.81156"/>
<feComposite in2="hardAlpha" operator="out"/>
<feColorMatrix type="matrix" values="0 0 0 0 0 0 0 0 0 0 0 0 0 0 0 0 0 0 0.15 0"/>
<feBlend mode="normal" in2="BackgroundImageFix" result="effect1_dropShadow_10672_163226"/>
<feBlend mode="normal" in="SourceGraphic" in2="effect1_dropShadow_10672_163226" result="shape"/>
</filter>
<filter id="filter2_i_10672_163226" x="20.0879" y="20.0024" width="85.8223" height="89.3076" filterUnits="userSpaceOnUse" color-interpolation-filters="sRGB">
<feFlood flood-opacity="0" result="BackgroundImageFix"/>
<feBlend mode="normal" in="SourceGraphic" in2="BackgroundImageFix" result="shape"/>
<feColorMatrix in="SourceAlpha" type="matrix" values="0 0 0 0 0 0 0 0 0 0 0 0 0 0 0 0 0 0 127 0" result="hardAlpha"/>
<feOffset dy="3.26363"/>
<feGaussianBlur stdDeviation="3.26363"/>
<feComposite in2="hardAlpha" operator="arithmetic" k2="-1" k3="1"/>
<feColorMatrix type="matrix" values="0 0 0 0 0.70599 0 0 0 0 0.23533 0 0 0 0 0 0 0 0 0.5 0"/>
<feBlend mode="normal" in2="shape" result="effect1_innerShadow_10672_163226"/>
</filter>
<linearGradient id="paint0_linear_10672_163226" x1="5.04492" y1="63.0317" x2="120.955" y2="63.0317" gradientUnits="userSpaceOnUse">
<stop stop-color="#E5E8EF" stop-opacity="0"/>
<stop offset="1" stop-color="#F5F5F5"/>
</linearGradient>
<linearGradient id="paint1_linear_10672_163226" x1="62.9979" y1="9.61523" x2="62.9979" y2="116.423" gradientUnits="userSpaceOnUse">
<stop stop-color="white"/>
<stop offset="1" stop-color="#F5F6F7"/>
</linearGradient>
</defs>
</svg>
