<svg width="84" height="84" viewBox="0 0 84 84" fill="none" xmlns="http://www.w3.org/2000/svg">
<rect x="0.661219" y="0.661219" width="82.6776" height="82.6776" rx="23.3388" fill="#FEFEFE"/>
<rect x="0.661219" y="0.661219" width="82.6776" height="82.6776" rx="23.3388" stroke="#EBECEC" stroke-width="1.32244"/>
<g filter="url(#filter0_i_11814_92137)">
<rect x="4.5" y="4.5" width="75" height="75" rx="21" fill="#F3F3F5"/>
<rect x="4.83061" y="4.83061" width="74.3388" height="74.3388" rx="20.6694" stroke="url(#paint0_linear_11814_92137)" stroke-width="0.661219"/>
</g>
<rect x="9.66122" y="9.66122" width="64.6776" height="64.6776" rx="17.3388" fill="#FEFEFE"/>
<rect x="9.66122" y="9.66122" width="64.6776" height="64.6776" rx="17.3388" stroke="#EBECEC" stroke-width="1.32244"/>
<path d="M22.465 39.6787C22.3528 40.529 22.2949 41.3964 22.2949 42.2773C22.2949 53.144 31.1041 61.9531 41.9707 61.9531C45.9446 61.9531 49.6433 60.775 52.7367 58.7491M22.465 39.6787C23.2306 33.876 26.525 28.8705 31.2047 25.8056M22.465 39.6787C28.7746 38.3211 41.6351 37.9057 51.9409 44.0775M59.7022 50.8159C60.9482 48.2333 61.6465 45.3369 61.6465 42.2773C61.6465 37.6456 60.0461 33.3877 57.3681 30.0264M59.7022 50.8159C58.1412 54.0516 55.7206 56.7948 52.7367 58.7491M59.7022 50.8159C57.4378 47.9883 54.7867 45.7817 51.9409 44.0775M57.3681 30.0264C56.0608 28.3855 54.4967 26.9583 52.7367 25.8056M57.3681 30.0264C56.892 33.5652 55.3074 38.9083 51.9409 44.0775M52.7367 25.8056C49.6433 23.7796 45.9446 22.6016 41.9707 22.6016C37.9968 22.6016 34.2981 23.7796 31.2047 25.8056M52.7367 25.8056C30.4622 33.1207 28.8863 50.6722 30.8827 58.5336C41.2623 56.2631 47.891 50.2962 51.9409 44.0775M31.2047 25.8056C39.867 28.0464 56.6744 37.8953 52.7367 58.7491" stroke="#FF5500" stroke-width="1.5"/>
<circle cx="30.8203" cy="25.9062" r="2.25" fill="white" stroke="#FF5500" stroke-width="1.5"/>
<circle cx="22.2949" cy="39.8516" r="2.25" fill="white" stroke="#FF5500" stroke-width="1.5"/>
<circle cx="34.5039" cy="39.2812" r="2.25" fill="white" stroke="#FF5500" stroke-width="1.5"/>
<circle cx="41.9707" cy="31.4375" r="2.25" fill="white" stroke="#FF5500" stroke-width="1.5"/>
<circle cx="52.4688" cy="25.9062" r="2.25" fill="white" stroke="#FF5500" stroke-width="1.5"/>
<circle cx="57.5449" cy="31.0312" r="2.25" fill="white" stroke="#FF5500" stroke-width="1.5"/>
<circle cx="51.9453" cy="44.2812" r="2.25" fill="white" stroke="#FF5500" stroke-width="1.5"/>
<circle cx="52.4688" cy="59" r="2.25" fill="white" stroke="#FF5500" stroke-width="1.5"/>
<circle cx="30.2969" cy="58.625" r="2.25" fill="white" stroke="#FF5500" stroke-width="1.5"/>
<defs>
<filter id="filter0_i_11814_92137" x="4.5" y="4.5" width="75" height="76.3224" filterUnits="userSpaceOnUse" color-interpolation-filters="sRGB">
<feFlood flood-opacity="0" result="BackgroundImageFix"/>
<feBlend mode="normal" in="SourceGraphic" in2="BackgroundImageFix" result="shape"/>
<feColorMatrix in="SourceAlpha" type="matrix" values="0 0 0 0 0 0 0 0 0 0 0 0 0 0 0 0 0 0 127 0" result="hardAlpha"/>
<feOffset dy="1.32244"/>
<feGaussianBlur stdDeviation="1.98366"/>
<feComposite in2="hardAlpha" operator="arithmetic" k2="-1" k3="1"/>
<feColorMatrix type="matrix" values="0 0 0 0 0 0 0 0 0 0 0 0 0 0 0 0 0 0 0.15 0"/>
<feBlend mode="normal" in2="shape" result="effect1_innerShadow_11814_92137"/>
</filter>
<linearGradient id="paint0_linear_11814_92137" x1="42" y1="4.5" x2="42" y2="79.5" gradientUnits="userSpaceOnUse">
<stop stop-color="white" stop-opacity="0"/>
<stop offset="1" stop-color="white"/>
</linearGradient>
</defs>
</svg>
