<svg width="278" height="197" viewBox="0 0 278 197" fill="none" xmlns="http://www.w3.org/2000/svg">
<mask id="mask0_10834_83684" style="mask-type:alpha" maskUnits="userSpaceOnUse" x="142" y="61" width="136" height="136">
<rect x="142" y="61" width="136" height="136" rx="19" fill="#EBECEC"/>
</mask>
<g mask="url(#mask0_10834_83684)">
<path d="M143.268 -23.1484L49.2732 139.655" stroke="#CECFCF" stroke-width="0.542321"/>
<path d="M147.025 -20.9785L53.031 141.825" stroke="#CECFCF" stroke-width="0.542321"/>
<path d="M150.782 -18.8105L56.7878 143.993" stroke="#CECFCF" stroke-width="0.542321"/>
<path d="M154.54 -16.6406L60.5456 146.162" stroke="#CECFCF" stroke-width="0.542321"/>
<path d="M158.297 -14.4707L64.3025 148.332" stroke="#CECFCF" stroke-width="0.542321"/>
<path d="M162.055 -12.3027L68.0603 150.5" stroke="#CECFCF" stroke-width="0.542321"/>
<path d="M165.812 -10.1328L71.8171 152.67" stroke="#CECFCF" stroke-width="0.542321"/>
<path d="M169.569 -7.96289L75.5749 154.84" stroke="#CECFCF" stroke-width="0.542321"/>
<path d="M173.326 -5.79492L79.3318 157.008" stroke="#CECFCF" stroke-width="0.542321"/>
<path d="M177.084 -3.625L83.0896 159.178" stroke="#CECFCF" stroke-width="0.542321"/>
<path d="M180.841 -1.45508L86.8464 161.348" stroke="#CECFCF" stroke-width="0.542321"/>
<path d="M184.599 0.712891L90.6042 163.516" stroke="#CECFCF" stroke-width="0.542321"/>
<path d="M188.355 2.88281L94.3611 165.686" stroke="#CECFCF" stroke-width="0.542321"/>
<path d="M192.113 5.05273L98.1189 167.856" stroke="#CECFCF" stroke-width="0.542321"/>
<path d="M195.87 7.2207L101.876 170.024" stroke="#CECFCF" stroke-width="0.542321"/>
<path d="M199.628 9.39062L105.634 172.194" stroke="#CECFCF" stroke-width="0.542321"/>
<path d="M203.385 11.5605L109.39 174.364" stroke="#CECFCF" stroke-width="0.542321"/>
<path d="M207.143 13.7285L113.148 176.532" stroke="#CECFCF" stroke-width="0.542321"/>
<path d="M210.899 15.8984L116.905 178.702" stroke="#CECFCF" stroke-width="0.542321"/>
<path d="M214.657 18.0684L120.663 180.871" stroke="#CECFCF" stroke-width="0.542321"/>
<path d="M218.414 20.2383L124.42 183.041" stroke="#CECFCF" stroke-width="0.542321"/>
<path d="M222.172 22.4062L128.177 185.209" stroke="#CECFCF" stroke-width="0.542321"/>
<path d="M225.929 24.5762L131.934 187.379" stroke="#CECFCF" stroke-width="0.542321"/>
<path d="M229.687 26.7461L135.692 189.549" stroke="#CECFCF" stroke-width="0.542321"/>
<path d="M233.443 28.9141L139.449 191.717" stroke="#CECFCF" stroke-width="0.542321"/>
<path d="M237.201 31.084L143.207 193.887" stroke="#CECFCF" stroke-width="0.542321"/>
<path d="M240.958 33.2539L146.964 196.057" stroke="#CECFCF" stroke-width="0.542321"/>
<path d="M244.716 35.4219L150.721 198.225" stroke="#CECFCF" stroke-width="0.542321"/>
<path d="M248.473 37.5918L154.478 200.395" stroke="#CECFCF" stroke-width="0.542321"/>
<path d="M252.23 39.7617L158.236 202.565" stroke="#CECFCF" stroke-width="0.542321"/>
<path d="M255.987 41.9297L161.993 204.733" stroke="#CECFCF" stroke-width="0.542321"/>
<path d="M259.745 44.0996L165.751 206.903" stroke="#CECFCF" stroke-width="0.542321"/>
<path d="M263.502 46.2695L169.508 209.073" stroke="#CECFCF" stroke-width="0.542321"/>
<path d="M267.26 48.4375L173.265 211.241" stroke="#CECFCF" stroke-width="0.542321"/>
<path d="M271.017 50.6074L177.022 213.41" stroke="#CECFCF" stroke-width="0.542321"/>
<path d="M274.774 52.7773L180.78 215.58" stroke="#CECFCF" stroke-width="0.542321"/>
<path d="M278.531 54.9453L184.537 217.748" stroke="#CECFCF" stroke-width="0.542321"/>
<path d="M282.289 57.1152L188.295 219.918" stroke="#CECFCF" stroke-width="0.542321"/>
<path d="M286.046 59.2852L192.052 222.088" stroke="#CECFCF" stroke-width="0.542321"/>
<path d="M289.804 61.4531L195.809 224.256" stroke="#CECFCF" stroke-width="0.542321"/>
<path d="M293.561 63.623L199.566 226.426" stroke="#CECFCF" stroke-width="0.542321"/>
<path d="M297.318 65.793L203.324 228.596" stroke="#CECFCF" stroke-width="0.542321"/>
<path d="M301.075 67.9609L207.081 230.764" stroke="#CECFCF" stroke-width="0.542321"/>
<path d="M304.833 70.1309L210.839 232.934" stroke="#CECFCF" stroke-width="0.542321"/>
<path d="M308.59 72.3008L214.595 235.104" stroke="#CECFCF" stroke-width="0.542321"/>
<path d="M312.348 74.4688L218.353 237.272" stroke="#CECFCF" stroke-width="0.542321"/>
<path d="M316.104 76.6387L222.11 239.442" stroke="#CECFCF" stroke-width="0.542321"/>
<path d="M319.861 78.8086L225.867 241.612" stroke="#CECFCF" stroke-width="0.542321"/>
<path d="M323.619 80.9766L229.625 243.78" stroke="#CECFCF" stroke-width="0.542321"/>
<path d="M327.376 83.1465L233.382 245.95" stroke="#CECFCF" stroke-width="0.542321"/>
<path d="M331.134 85.3164L237.139 248.119" stroke="#CECFCF" stroke-width="0.542321"/>
<path d="M334.891 87.4844L240.896 250.287" stroke="#CECFCF" stroke-width="0.542321"/>
<path d="M338.648 89.6543L244.654 252.457" stroke="#CECFCF" stroke-width="0.542321"/>
<path d="M342.405 91.8242L248.411 254.627" stroke="#CECFCF" stroke-width="0.542321"/>
<path d="M346.163 93.9922L252.169 256.795" stroke="#CECFCF" stroke-width="0.542321"/>
<path d="M349.92 96.1621L255.926 258.965" stroke="#CECFCF" stroke-width="0.542321"/>
<path d="M353.678 98.332L259.683 261.135" stroke="#CECFCF" stroke-width="0.542321"/>
<path d="M357.435 100.5L263.44 263.303" stroke="#CECFCF" stroke-width="0.542321"/>
<path d="M361.192 102.67L267.198 265.473" stroke="#CECFCF" stroke-width="0.542321"/>
<path d="M364.949 104.84L270.955 267.643" stroke="#CECFCF" stroke-width="0.542321"/>
</g>
<rect width="136" height="136" rx="19" transform="matrix(-1 0 0 1 136 0)" fill="url(#paint0_linear_10834_83684)"/>
<defs>
<linearGradient id="paint0_linear_10834_83684" x1="126.5" y1="101" x2="-45.9716" y2="36.9235" gradientUnits="userSpaceOnUse">
<stop stop-color="#EBECEC"/>
<stop offset="1" stop-color="#F5F5F5"/>
</linearGradient>
</defs>
</svg>
