<svg width="282" height="379" viewBox="0 0 282 379" fill="none" xmlns="http://www.w3.org/2000/svg">
<path d="M141.656 115.104L78.593 151.514V224.333L141.656 260.742L204.719 224.333V151.514L141.656 115.104Z" fill="url(#paint0_linear_8269_78746)"/>
<mask id="mask0_8269_78746" style="mask-type:alpha" maskUnits="userSpaceOnUse" x="10" y="235" width="127" height="142">
<path d="M65.9119 237.515C70.3624 234.945 75.8455 234.945 80.2959 237.515L128.975 265.619C133.425 268.189 136.167 272.937 136.167 278.076V334.286C136.167 339.425 133.425 344.173 128.975 346.743L80.2959 374.848C75.8455 377.417 70.3623 377.417 65.9119 374.848L17.233 346.743C12.7826 344.173 10.041 339.425 10.041 334.286V278.076C10.041 272.937 12.7826 268.189 17.233 265.619L65.9119 237.515Z" fill="#EEEFF1"/>
</mask>
<g mask="url(#mask0_8269_78746)">
<path d="M18.4824 144.526L-86.5375 326.426" stroke="#D8D9D9" stroke-width="0.714067"/>
<path d="M23.4297 147.383L-81.5903 329.283" stroke="#D8D9D9" stroke-width="0.714067"/>
<path d="M28.377 150.239L-76.643 332.139" stroke="#D8D9D9" stroke-width="0.714067"/>
<path d="M33.3242 153.095L-71.6957 334.995" stroke="#D8D9D9" stroke-width="0.714067"/>
<path d="M38.2715 155.951L-66.7485 337.851" stroke="#D8D9D9" stroke-width="0.714067"/>
<path d="M43.2188 158.808L-61.8012 340.708" stroke="#D8D9D9" stroke-width="0.714067"/>
<path d="M48.166 161.664L-56.8539 343.564" stroke="#D8D9D9" stroke-width="0.714067"/>
<path d="M53.1133 164.52L-51.9067 346.42" stroke="#D8D9D9" stroke-width="0.714067"/>
<path d="M58.0605 167.376L-46.9594 349.276" stroke="#D8D9D9" stroke-width="0.714067"/>
<path d="M63.0078 170.233L-42.0122 352.133" stroke="#D8D9D9" stroke-width="0.714067"/>
<path d="M67.9551 173.089L-37.0649 354.989" stroke="#D8D9D9" stroke-width="0.714067"/>
<path d="M72.9023 175.945L-32.1176 357.845" stroke="#D8D9D9" stroke-width="0.714067"/>
<path d="M77.8496 178.802L-27.1704 360.702" stroke="#D8D9D9" stroke-width="0.714067"/>
<path d="M82.7969 181.658L-22.2231 363.558" stroke="#D8D9D9" stroke-width="0.714067"/>
<path d="M87.7441 184.514L-17.2758 366.414" stroke="#D8D9D9" stroke-width="0.714067"/>
<path d="M92.6895 187.37L-12.3305 369.27" stroke="#D8D9D9" stroke-width="0.714067"/>
<path d="M97.6367 190.227L-7.38324 372.126" stroke="#D8D9D9" stroke-width="0.714067"/>
<path d="M102.584 193.083L-2.43598 374.983" stroke="#D8D9D9" stroke-width="0.714067"/>
<path d="M107.531 195.939L2.51129 377.839" stroke="#D8D9D9" stroke-width="0.714067"/>
<path d="M112.479 198.795L7.45855 380.695" stroke="#D8D9D9" stroke-width="0.714067"/>
<path d="M117.426 201.652L12.4058 383.552" stroke="#D8D9D9" stroke-width="0.714067"/>
<path d="M122.373 204.508L17.3531 386.408" stroke="#D8D9D9" stroke-width="0.714067"/>
<path d="M127.32 207.364L22.3003 389.264" stroke="#D8D9D9" stroke-width="0.714067"/>
<path d="M132.268 210.22L27.2476 392.12" stroke="#D8D9D9" stroke-width="0.714067"/>
<path d="M137.215 213.077L32.1949 394.977" stroke="#D8D9D9" stroke-width="0.714067"/>
<path d="M142.162 215.933L37.1421 397.833" stroke="#D8D9D9" stroke-width="0.714067"/>
<path d="M147.109 218.789L42.0894 400.689" stroke="#D8D9D9" stroke-width="0.714067"/>
<path d="M152.057 221.646L47.0367 403.545" stroke="#D8D9D9" stroke-width="0.714067"/>
<path d="M157.004 224.502L51.9839 406.402" stroke="#D8D9D9" stroke-width="0.714067"/>
<path d="M161.951 227.358L56.9312 409.258" stroke="#D8D9D9" stroke-width="0.714067"/>
<path d="M166.898 230.214L61.8785 412.114" stroke="#D8D9D9" stroke-width="0.714067"/>
<path d="M171.846 233.071L66.8257 414.97" stroke="#D8D9D9" stroke-width="0.714067"/>
<path d="M176.793 235.927L71.773 417.827" stroke="#D8D9D9" stroke-width="0.714067"/>
<path d="M181.74 238.783L76.7203 420.683" stroke="#D8D9D9" stroke-width="0.714067"/>
<path d="M186.688 241.639L81.6675 423.539" stroke="#D8D9D9" stroke-width="0.714067"/>
<path d="M191.635 244.496L86.6148 426.396" stroke="#D8D9D9" stroke-width="0.714067"/>
<path d="M196.582 247.352L91.5621 429.252" stroke="#D8D9D9" stroke-width="0.714067"/>
<path d="M201.529 250.208L96.5093 432.108" stroke="#D8D9D9" stroke-width="0.714067"/>
<path d="M206.477 253.064L101.457 434.964" stroke="#D8D9D9" stroke-width="0.714067"/>
<path d="M211.424 255.921L106.404 437.821" stroke="#D8D9D9" stroke-width="0.714067"/>
<path d="M216.371 258.777L111.351 440.677" stroke="#D8D9D9" stroke-width="0.714067"/>
<path d="M221.318 261.633L116.298 443.533" stroke="#D8D9D9" stroke-width="0.714067"/>
<path d="M226.266 264.49L121.246 446.39" stroke="#D8D9D9" stroke-width="0.714067"/>
<path d="M231.213 267.346L126.193 449.246" stroke="#D8D9D9" stroke-width="0.714067"/>
<path d="M236.16 270.202L131.14 452.102" stroke="#D8D9D9" stroke-width="0.714067"/>
<path d="M241.107 273.058L136.087 454.958" stroke="#D8D9D9" stroke-width="0.714067"/>
</g>
<path d="M201.59 234.351C206.04 231.781 211.523 231.781 215.974 234.351L264.653 262.455C269.103 265.025 271.845 269.773 271.845 274.912V331.122C271.845 336.261 269.103 341.009 264.653 343.579L215.974 371.683C211.523 374.253 206.04 374.253 201.59 371.683L152.911 343.579C148.46 341.009 145.719 336.261 145.719 331.122V274.912C145.719 269.773 148.46 265.025 152.911 262.455L201.59 234.351Z" fill="#EBECEC"/>
<path d="M208.91 0.729492L145.847 37.1389V109.958L208.91 146.367L271.973 109.958V37.1389L208.91 0.729492Z" fill="url(#paint1_linear_8269_78746)"/>
<defs>
<linearGradient id="paint0_linear_8269_78746" x1="72.3683" y1="130.706" x2="194.743" y2="263.839" gradientUnits="userSpaceOnUse">
<stop stop-color="#F5F5F5"/>
<stop offset="1" stop-color="#EBECEC"/>
</linearGradient>
<linearGradient id="paint1_linear_8269_78746" x1="124.557" y1="77.9742" x2="289.809" y2="56.156" gradientUnits="userSpaceOnUse">
<stop stop-color="#F5F5F5"/>
<stop offset="1" stop-color="#EBECEC"/>
</linearGradient>
</defs>
</svg>
