<svg width="21" height="20" viewBox="0 0 21 20" fill="none" xmlns="http://www.w3.org/2000/svg">
<path d="M4.3335 9.8125C3.91928 9.8125 3.5835 10.1483 3.5835 10.5625C3.5835 10.9767 3.91928 11.3125 4.3335 11.3125L4.3335 9.8125ZM17.8638 11.0928C18.1567 10.7999 18.1567 10.3251 17.8638 10.0322L13.0909 5.2592C12.798 4.96631 12.3231 4.96631 12.0302 5.2592C11.7373 5.55209 11.7373 6.02697 12.0302 6.31986L16.2728 10.5625L12.0302 14.8051C11.7373 15.098 11.7373 15.5729 12.0302 15.8658C12.3231 16.1587 12.798 16.1587 13.0909 15.8658L17.8638 11.0928ZM4.3335 11.3125L17.3335 11.3125L17.3335 9.8125L4.3335 9.8125L4.3335 11.3125Z" fill="white"/>
</svg>
