<svg width="1440" height="50" viewBox="0 0 1440 50" fill="none" xmlns="http://www.w3.org/2000/svg">
<mask id="mask0_9780_4937" style="mask-type:alpha" maskUnits="userSpaceOnUse" x="-51" y="-93" width="1493" height="146">
<path d="M-40.2764 -92.5621L1429.85 -92.5625C1435.32 -92.5625 1439.78 -88.1596 1439.84 -82.6849L1441.38 42.3635C1441.44 47.9393 1436.94 52.4937 1431.36 52.486L-40.2902 50.4513C-45.8076 50.4437 -50.2764 45.9688 -50.2764 40.4513V-82.5621C-50.2764 -88.0849 -45.7992 -92.5621 -40.2764 -92.5621Z" fill="url(#paint0_linear_9780_4937)"/>
</mask>
<g mask="url(#mask0_9780_4937)">
<path d="M232.84 -754.516L-211.16 14.5149" stroke="#1C76FD" stroke-width="0.5"/>
<path d="M236.304 -752.516L-207.696 16.5149" stroke="#1C76FD" stroke-width="0.5"/>
<path d="M239.769 -750.516L-204.231 18.5149" stroke="#1C76FD" stroke-width="0.5"/>
<path d="M243.233 -748.516L-200.767 20.5149" stroke="#1C76FD" stroke-width="0.5"/>
<path d="M246.697 -746.516L-197.303 22.5149" stroke="#1C76FD" stroke-width="0.5"/>
<path d="M250.161 -744.516L-193.839 24.5149" stroke="#1C76FD" stroke-width="0.5"/>
<path d="M253.625 -742.516L-190.375 26.5149" stroke="#1C76FD" stroke-width="0.5"/>
<path d="M257.089 -740.516L-186.911 28.5149" stroke="#1C76FD" stroke-width="0.5"/>
<path d="M260.553 -738.516L-183.447 30.5149" stroke="#1C76FD" stroke-width="0.5"/>
<path d="M264.017 -736.516L-179.983 32.5149" stroke="#1C76FD" stroke-width="0.5"/>
<path d="M267.481 -734.516L-176.519 34.5149" stroke="#1C76FD" stroke-width="0.5"/>
<path d="M270.945 -732.516L-173.055 36.5149" stroke="#1C76FD" stroke-width="0.5"/>
<path d="M274.41 -730.516L-169.59 38.5149" stroke="#1C76FD" stroke-width="0.5"/>
<path d="M277.874 -728.516L-166.126 40.5149" stroke="#1C76FD" stroke-width="0.5"/>
<path d="M281.338 -726.516L-162.662 42.5149" stroke="#1C76FD" stroke-width="0.5"/>
<path d="M284.802 -724.516L-159.198 44.5149" stroke="#1C76FD" stroke-width="0.5"/>
<path d="M288.266 -722.516L-155.734 46.5149" stroke="#1C76FD" stroke-width="0.5"/>
<path d="M291.73 -720.516L-152.27 48.5149" stroke="#1C76FD" stroke-width="0.5"/>
<path d="M295.194 -718.516L-148.806 50.5149" stroke="#1C76FD" stroke-width="0.5"/>
<path d="M298.658 -716.516L-145.342 52.5149" stroke="#1C76FD" stroke-width="0.5"/>
<path d="M302.122 -714.516L-141.878 54.5149" stroke="#1C76FD" stroke-width="0.5"/>
<path d="M305.586 -712.516L-138.414 56.5149" stroke="#1C76FD" stroke-width="0.5"/>
<path d="M309.051 -710.516L-134.949 58.5149" stroke="#1C76FD" stroke-width="0.5"/>
<path d="M312.515 -708.516L-131.485 60.5149" stroke="#1C76FD" stroke-width="0.5"/>
<path d="M315.979 -706.516L-128.021 62.5149" stroke="#1C76FD" stroke-width="0.5"/>
<path d="M319.443 -704.516L-124.557 64.5149" stroke="#1C76FD" stroke-width="0.5"/>
<path d="M322.907 -702.516L-121.093 66.5149" stroke="#1C76FD" stroke-width="0.5"/>
<path d="M326.371 -700.516L-117.629 68.5149" stroke="#1C76FD" stroke-width="0.5"/>
<path d="M329.835 -698.516L-114.165 70.5149" stroke="#1C76FD" stroke-width="0.5"/>
<path d="M333.299 -696.516L-110.701 72.5149" stroke="#1C76FD" stroke-width="0.5"/>
<path d="M336.763 -694.516L-107.237 74.5149" stroke="#1C76FD" stroke-width="0.5"/>
<path d="M340.228 -692.516L-103.772 76.5149" stroke="#1C76FD" stroke-width="0.5"/>
<path d="M343.692 -690.516L-100.308 78.5149" stroke="#1C76FD" stroke-width="0.5"/>
<path d="M347.156 -688.516L-96.8443 80.5149" stroke="#1C76FD" stroke-width="0.5"/>
<path d="M350.62 -686.516L-93.3802 82.5149" stroke="#1C76FD" stroke-width="0.5"/>
<path d="M354.084 -684.516L-89.9161 84.5149" stroke="#1C76FD" stroke-width="0.5"/>
<path d="M357.548 -682.516L-86.452 86.5149" stroke="#1C76FD" stroke-width="0.5"/>
<path d="M361.012 -680.516L-82.9879 88.5149" stroke="#1C76FD" stroke-width="0.5"/>
<path d="M364.476 -678.516L-79.5238 90.5149" stroke="#1C76FD" stroke-width="0.5"/>
<path d="M367.94 -676.516L-76.0597 92.5149" stroke="#1C76FD" stroke-width="0.5"/>
<path d="M371.404 -674.516L-72.5956 94.5149" stroke="#1C76FD" stroke-width="0.5"/>
<path d="M374.868 -672.516L-69.1315 96.5149" stroke="#1C76FD" stroke-width="0.5"/>
<path d="M378.333 -670.516L-65.6674 98.5149" stroke="#1C76FD" stroke-width="0.5"/>
<path d="M381.797 -668.516L-62.2033 100.515" stroke="#1C76FD" stroke-width="0.5"/>
<path d="M385.261 -666.516L-58.7392 102.515" stroke="#1C76FD" stroke-width="0.5"/>
<path d="M388.725 -664.516L-55.2751 104.515" stroke="#1C76FD" stroke-width="0.5"/>
<path d="M392.189 -662.516L-51.811 106.515" stroke="#1C76FD" stroke-width="0.5"/>
<path d="M395.653 -660.516L-48.3469 108.515" stroke="#1C76FD" stroke-width="0.5"/>
<path d="M399.117 -658.516L-44.8828 110.515" stroke="#1C76FD" stroke-width="0.5"/>
<path d="M402.581 -656.516L-41.4187 112.515" stroke="#1C76FD" stroke-width="0.5"/>
<path d="M406.045 -654.516L-37.9546 114.515" stroke="#1C76FD" stroke-width="0.5"/>
<path d="M409.51 -652.516L-34.4905 116.515" stroke="#1C76FD" stroke-width="0.5"/>
<path d="M412.974 -650.516L-31.0264 118.515" stroke="#1C76FD" stroke-width="0.5"/>
<path d="M416.438 -648.516L-27.5622 120.515" stroke="#1C76FD" stroke-width="0.5"/>
<path d="M419.902 -646.516L-24.0982 122.515" stroke="#1C76FD" stroke-width="0.5"/>
<path d="M423.366 -644.516L-20.6341 124.515" stroke="#1C76FD" stroke-width="0.5"/>
<path d="M426.83 -642.516L-17.17 126.515" stroke="#1C76FD" stroke-width="0.5"/>
<path d="M430.294 -640.516L-13.7059 128.515" stroke="#1C76FD" stroke-width="0.5"/>
<path d="M433.758 -638.516L-10.2417 130.515" stroke="#1C76FD" stroke-width="0.5"/>
<path d="M437.222 -636.516L-6.77764 132.515" stroke="#1C76FD" stroke-width="0.5"/>
<path d="M440.686 -634.516L-3.31359 134.515" stroke="#1C76FD" stroke-width="0.5"/>
<path d="M444.151 -632.516L0.150525 136.515" stroke="#1C76FD" stroke-width="0.5"/>
<path d="M447.615 -630.516L3.61464 138.515" stroke="#1C76FD" stroke-width="0.5"/>
<path d="M451.079 -628.516L7.07875 140.515" stroke="#1C76FD" stroke-width="0.5"/>
<path d="M454.543 -626.516L10.5429 142.515" stroke="#1C76FD" stroke-width="0.5"/>
<path d="M458.007 -624.516L14.007 144.515" stroke="#1C76FD" stroke-width="0.5"/>
<path d="M461.471 -622.516L17.471 146.515" stroke="#1C76FD" stroke-width="0.5"/>
<path d="M464.935 -620.516L20.9351 148.515" stroke="#1C76FD" stroke-width="0.5"/>
<path d="M468.399 -618.516L24.3992 150.515" stroke="#1C76FD" stroke-width="0.5"/>
<path d="M471.863 -616.516L27.8634 152.515" stroke="#1C76FD" stroke-width="0.5"/>
<path d="M475.327 -614.516L31.3275 154.515" stroke="#1C76FD" stroke-width="0.5"/>
<path d="M478.792 -612.516L34.7916 156.515" stroke="#1C76FD" stroke-width="0.5"/>
<path d="M482.256 -610.516L38.2556 158.515" stroke="#1C76FD" stroke-width="0.5"/>
<path d="M485.72 -608.516L41.7197 160.515" stroke="#1C76FD" stroke-width="0.5"/>
<path d="M489.184 -606.516L45.1839 162.515" stroke="#1C76FD" stroke-width="0.5"/>
<path d="M492.648 -604.516L48.648 164.515" stroke="#1C76FD" stroke-width="0.5"/>
<path d="M496.112 -602.516L52.1121 166.515" stroke="#1C76FD" stroke-width="0.5"/>
<path d="M499.576 -600.516L55.5762 168.515" stroke="#1C76FD" stroke-width="0.5"/>
<path d="M503.04 -598.516L59.0403 170.515" stroke="#1C76FD" stroke-width="0.5"/>
<path d="M506.504 -596.516L62.5043 172.515" stroke="#1C76FD" stroke-width="0.5"/>
<path d="M509.968 -594.516L65.9685 174.515" stroke="#1C76FD" stroke-width="0.5"/>
<path d="M513.433 -592.516L69.4326 176.515" stroke="#1C76FD" stroke-width="0.5"/>
<path d="M516.897 -590.516L72.8967 178.515" stroke="#1C76FD" stroke-width="0.5"/>
<path d="M520.361 -588.516L76.3608 180.515" stroke="#1C76FD" stroke-width="0.5"/>
<path d="M523.825 -586.516L79.8249 182.515" stroke="#1C76FD" stroke-width="0.5"/>
<path d="M527.289 -584.516L83.289 184.515" stroke="#1C76FD" stroke-width="0.5"/>
<path d="M530.753 -582.516L86.7531 186.515" stroke="#1C76FD" stroke-width="0.5"/>
<path d="M534.217 -580.516L90.2172 188.515" stroke="#1C76FD" stroke-width="0.5"/>
<path d="M537.681 -578.516L93.6813 190.515" stroke="#1C76FD" stroke-width="0.5"/>
<path d="M541.145 -576.516L97.1454 192.515" stroke="#1C76FD" stroke-width="0.5"/>
<path d="M544.609 -574.516L100.61 194.515" stroke="#1C76FD" stroke-width="0.5"/>
<path d="M548.074 -572.516L104.074 196.515" stroke="#1C76FD" stroke-width="0.5"/>
<path d="M551.538 -570.516L107.538 198.515" stroke="#1C76FD" stroke-width="0.5"/>
<path d="M555.002 -568.516L111.002 200.515" stroke="#1C76FD" stroke-width="0.5"/>
<path d="M558.466 -566.516L114.466 202.515" stroke="#1C76FD" stroke-width="0.5"/>
<path d="M561.93 -564.516L117.93 204.515" stroke="#1C76FD" stroke-width="0.5"/>
<path d="M565.394 -562.516L121.394 206.515" stroke="#1C76FD" stroke-width="0.5"/>
<path d="M568.858 -560.516L124.858 208.515" stroke="#1C76FD" stroke-width="0.5"/>
<path d="M572.322 -558.516L128.322 210.515" stroke="#1C76FD" stroke-width="0.5"/>
<path d="M575.786 -556.516L131.786 212.515" stroke="#1C76FD" stroke-width="0.5"/>
<path d="M579.25 -554.516L135.251 214.515" stroke="#1C76FD" stroke-width="0.5"/>
<path d="M582.715 -552.516L138.715 216.515" stroke="#1C76FD" stroke-width="0.5"/>
<path d="M586.179 -550.516L142.179 218.515" stroke="#1C76FD" stroke-width="0.5"/>
<path d="M589.643 -548.516L145.643 220.515" stroke="#1C76FD" stroke-width="0.5"/>
<path d="M593.107 -546.516L149.107 222.515" stroke="#1C76FD" stroke-width="0.5"/>
<path d="M596.571 -544.516L152.571 224.515" stroke="#1C76FD" stroke-width="0.5"/>
<path d="M600.035 -542.516L156.035 226.515" stroke="#1C76FD" stroke-width="0.5"/>
<path d="M603.499 -540.516L159.499 228.515" stroke="#1C76FD" stroke-width="0.5"/>
<path d="M606.963 -538.516L162.963 230.515" stroke="#1C76FD" stroke-width="0.5"/>
<path d="M610.427 -536.516L166.427 232.515" stroke="#1C76FD" stroke-width="0.5"/>
<path d="M613.891 -534.516L169.891 234.515" stroke="#1C76FD" stroke-width="0.5"/>
<path d="M617.356 -532.516L173.356 236.515" stroke="#1C76FD" stroke-width="0.5"/>
<path d="M620.82 -530.516L176.82 238.515" stroke="#1C76FD" stroke-width="0.5"/>
<path d="M624.284 -528.516L180.284 240.515" stroke="#1C76FD" stroke-width="0.5"/>
<path d="M627.748 -526.516L183.748 242.515" stroke="#1C76FD" stroke-width="0.5"/>
<path d="M631.212 -524.516L187.212 244.515" stroke="#1C76FD" stroke-width="0.5"/>
<path d="M634.676 -522.516L190.676 246.515" stroke="#1C76FD" stroke-width="0.5"/>
<path d="M638.14 -520.516L194.14 248.515" stroke="#1C76FD" stroke-width="0.5"/>
<path d="M641.604 -518.516L197.604 250.515" stroke="#1C76FD" stroke-width="0.5"/>
<path d="M645.068 -516.516L201.068 252.515" stroke="#1C76FD" stroke-width="0.5"/>
<path d="M648.533 -514.516L204.533 254.515" stroke="#1C76FD" stroke-width="0.5"/>
<path d="M651.997 -512.516L207.997 256.515" stroke="#1C76FD" stroke-width="0.5"/>
<path d="M655.461 -510.516L211.461 258.515" stroke="#1C76FD" stroke-width="0.5"/>
<path d="M658.925 -508.516L214.925 260.515" stroke="#1C76FD" stroke-width="0.5"/>
<path d="M662.389 -506.516L218.389 262.515" stroke="#1C76FD" stroke-width="0.5"/>
<path d="M665.853 -504.516L221.853 264.515" stroke="#1C76FD" stroke-width="0.5"/>
<path d="M669.317 -502.516L225.317 266.515" stroke="#1C76FD" stroke-width="0.5"/>
<path d="M672.781 -500.516L228.781 268.515" stroke="#1C76FD" stroke-width="0.5"/>
<path d="M676.245 -498.516L232.245 270.515" stroke="#1C76FD" stroke-width="0.5"/>
<path d="M679.709 -496.516L235.709 272.515" stroke="#1C76FD" stroke-width="0.5"/>
<path d="M683.174 -494.516L239.174 274.515" stroke="#1C76FD" stroke-width="0.5"/>
<path d="M686.638 -492.516L242.638 276.515" stroke="#1C76FD" stroke-width="0.5"/>
<path d="M690.102 -490.516L246.102 278.515" stroke="#1C76FD" stroke-width="0.5"/>
<path d="M693.566 -488.516L249.566 280.515" stroke="#1C76FD" stroke-width="0.5"/>
<path d="M697.03 -486.516L253.03 282.515" stroke="#1C76FD" stroke-width="0.5"/>
<path d="M700.494 -484.516L256.494 284.515" stroke="#1C76FD" stroke-width="0.5"/>
<path d="M703.958 -482.516L259.958 286.515" stroke="#1C76FD" stroke-width="0.5"/>
<path d="M707.422 -480.516L263.422 288.515" stroke="#1C76FD" stroke-width="0.5"/>
<path d="M710.886 -478.516L266.886 290.515" stroke="#1C76FD" stroke-width="0.5"/>
<path d="M714.35 -476.516L270.35 292.515" stroke="#1C76FD" stroke-width="0.5"/>
<path d="M717.815 -474.516L273.815 294.515" stroke="#1C76FD" stroke-width="0.5"/>
<path d="M721.279 -472.516L277.279 296.515" stroke="#1C76FD" stroke-width="0.5"/>
<path d="M724.743 -470.516L280.743 298.515" stroke="#1C76FD" stroke-width="0.5"/>
<path d="M728.207 -468.516L284.207 300.515" stroke="#1C76FD" stroke-width="0.5"/>
<path d="M731.671 -466.516L287.671 302.515" stroke="#1C76FD" stroke-width="0.5"/>
<path d="M735.135 -464.516L291.135 304.515" stroke="#1C76FD" stroke-width="0.5"/>
<path d="M738.599 -462.516L294.599 306.515" stroke="#1C76FD" stroke-width="0.5"/>
<path d="M742.063 -460.516L298.063 308.515" stroke="#1C76FD" stroke-width="0.5"/>
<path d="M745.527 -458.516L301.527 310.515" stroke="#1C76FD" stroke-width="0.5"/>
<path d="M748.991 -456.516L304.991 312.515" stroke="#1C76FD" stroke-width="0.5"/>
<path d="M752.456 -454.516L308.456 314.515" stroke="#1C76FD" stroke-width="0.5"/>
<path d="M755.92 -452.516L311.92 316.515" stroke="#1C76FD" stroke-width="0.5"/>
<path d="M759.384 -450.516L315.384 318.515" stroke="#1C76FD" stroke-width="0.5"/>
<path d="M762.848 -448.516L318.848 320.515" stroke="#1C76FD" stroke-width="0.5"/>
<path d="M766.312 -446.516L322.312 322.515" stroke="#1C76FD" stroke-width="0.5"/>
<path d="M769.776 -444.516L325.776 324.515" stroke="#1C76FD" stroke-width="0.5"/>
<path d="M773.24 -442.516L329.24 326.515" stroke="#1C76FD" stroke-width="0.5"/>
<path d="M776.704 -440.516L332.704 328.515" stroke="#1C76FD" stroke-width="0.5"/>
<path d="M780.168 -438.516L336.168 330.515" stroke="#1C76FD" stroke-width="0.5"/>
<path d="M783.633 -436.516L339.633 332.515" stroke="#1C76FD" stroke-width="0.5"/>
<path d="M787.097 -434.516L343.097 334.515" stroke="#1C76FD" stroke-width="0.5"/>
<path d="M790.561 -432.516L346.561 336.515" stroke="#1C76FD" stroke-width="0.5"/>
<path d="M794.025 -430.516L350.025 338.515" stroke="#1C76FD" stroke-width="0.5"/>
<path d="M797.489 -428.516L353.489 340.515" stroke="#1C76FD" stroke-width="0.5"/>
<path d="M800.953 -426.516L356.953 342.515" stroke="#1C76FD" stroke-width="0.5"/>
<path d="M804.417 -424.516L360.417 344.515" stroke="#1C76FD" stroke-width="0.5"/>
<path d="M807.881 -422.516L363.881 346.515" stroke="#1C76FD" stroke-width="0.5"/>
<path d="M811.345 -420.516L367.345 348.515" stroke="#1C76FD" stroke-width="0.5"/>
<path d="M814.809 -418.516L370.809 350.515" stroke="#1C76FD" stroke-width="0.5"/>
<path d="M818.273 -416.516L374.274 352.515" stroke="#1C76FD" stroke-width="0.5"/>
<path d="M821.738 -414.516L377.738 354.515" stroke="#1C76FD" stroke-width="0.5"/>
<path d="M825.202 -412.516L381.202 356.515" stroke="#1C76FD" stroke-width="0.5"/>
<path d="M828.666 -410.516L384.666 358.515" stroke="#1C76FD" stroke-width="0.5"/>
<path d="M832.13 -408.516L388.13 360.515" stroke="#1C76FD" stroke-width="0.5"/>
<path d="M835.594 -406.516L391.594 362.515" stroke="#1C76FD" stroke-width="0.5"/>
<path d="M839.058 -404.516L395.058 364.515" stroke="#1C76FD" stroke-width="0.5"/>
<path d="M842.522 -402.516L398.522 366.515" stroke="#1C76FD" stroke-width="0.5"/>
<path d="M845.986 -400.516L401.986 368.515" stroke="#1C76FD" stroke-width="0.5"/>
<path d="M849.45 -398.516L405.45 370.515" stroke="#1C76FD" stroke-width="0.5"/>
<path d="M852.914 -396.516L408.915 372.515" stroke="#1C76FD" stroke-width="0.5"/>
<path d="M856.379 -394.516L412.379 374.515" stroke="#1C76FD" stroke-width="0.5"/>
<path d="M859.843 -392.516L415.843 376.515" stroke="#1C76FD" stroke-width="0.5"/>
<path d="M863.307 -390.516L419.307 378.515" stroke="#1C76FD" stroke-width="0.5"/>
<path d="M866.771 -388.516L422.771 380.515" stroke="#1C76FD" stroke-width="0.5"/>
<path d="M870.235 -386.516L426.235 382.515" stroke="#1C76FD" stroke-width="0.5"/>
<path d="M873.699 -384.516L429.699 384.515" stroke="#1C76FD" stroke-width="0.5"/>
<path d="M877.163 -382.516L433.163 386.515" stroke="#1C76FD" stroke-width="0.5"/>
<path d="M880.627 -380.516L436.627 388.515" stroke="#1C76FD" stroke-width="0.5"/>
<path d="M884.091 -378.516L440.091 390.515" stroke="#1C76FD" stroke-width="0.5"/>
<path d="M887.556 -376.516L443.556 392.515" stroke="#1C76FD" stroke-width="0.5"/>
<path d="M891.02 -374.516L447.02 394.515" stroke="#1C76FD" stroke-width="0.5"/>
<path d="M894.484 -372.516L450.484 396.515" stroke="#1C76FD" stroke-width="0.5"/>
<path d="M897.948 -370.516L453.948 398.515" stroke="#1C76FD" stroke-width="0.5"/>
<path d="M901.412 -368.516L457.412 400.515" stroke="#1C76FD" stroke-width="0.5"/>
<path d="M904.876 -366.516L460.876 402.515" stroke="#1C76FD" stroke-width="0.5"/>
<path d="M908.34 -364.516L464.34 404.515" stroke="#1C76FD" stroke-width="0.5"/>
<path d="M911.804 -362.516L467.804 406.515" stroke="#1C76FD" stroke-width="0.5"/>
<path d="M915.268 -360.516L471.268 408.515" stroke="#1C76FD" stroke-width="0.5"/>
<path d="M918.732 -358.516L474.732 410.515" stroke="#1C76FD" stroke-width="0.5"/>
<path d="M922.197 -356.516L478.197 412.515" stroke="#1C76FD" stroke-width="0.5"/>
<path d="M925.661 -354.516L481.661 414.515" stroke="#1C76FD" stroke-width="0.5"/>
<path d="M929.125 -352.516L485.125 416.515" stroke="#1C76FD" stroke-width="0.5"/>
<path d="M932.589 -350.516L488.589 418.515" stroke="#1C76FD" stroke-width="0.5"/>
<path d="M936.053 -348.516L492.053 420.515" stroke="#1C76FD" stroke-width="0.5"/>
<path d="M939.517 -346.516L495.517 422.515" stroke="#1C76FD" stroke-width="0.5"/>
<path d="M942.981 -344.516L498.981 424.515" stroke="#1C76FD" stroke-width="0.5"/>
<path d="M946.445 -342.516L502.445 426.515" stroke="#1C76FD" stroke-width="0.5"/>
<path d="M949.909 -340.516L505.909 428.515" stroke="#1C76FD" stroke-width="0.5"/>
<path d="M953.373 -338.516L509.373 430.515" stroke="#1C76FD" stroke-width="0.5"/>
<path d="M956.838 -336.516L512.838 432.515" stroke="#1C76FD" stroke-width="0.5"/>
<path d="M960.302 -334.516L516.302 434.515" stroke="#1C76FD" stroke-width="0.5"/>
<path d="M963.766 -332.516L519.766 436.515" stroke="#1C76FD" stroke-width="0.5"/>
<path d="M967.23 -330.516L523.23 438.515" stroke="#1C76FD" stroke-width="0.5"/>
<path d="M970.694 -328.516L526.694 440.515" stroke="#1C76FD" stroke-width="0.5"/>
<path d="M974.158 -326.516L530.158 442.515" stroke="#1C76FD" stroke-width="0.5"/>
<path d="M977.622 -324.516L533.622 444.515" stroke="#1C76FD" stroke-width="0.5"/>
<path d="M981.086 -322.516L537.086 446.515" stroke="#1C76FD" stroke-width="0.5"/>
<path d="M984.55 -320.516L540.55 448.515" stroke="#1C76FD" stroke-width="0.5"/>
<path d="M988.014 -318.516L544.014 450.515" stroke="#1C76FD" stroke-width="0.5"/>
<path d="M991.479 -316.516L547.479 452.515" stroke="#1C76FD" stroke-width="0.5"/>
<path d="M994.943 -314.516L550.943 454.515" stroke="#1C76FD" stroke-width="0.5"/>
<path d="M998.407 -312.516L554.407 456.515" stroke="#1C76FD" stroke-width="0.5"/>
<path d="M1001.87 -310.516L557.871 458.515" stroke="#1C76FD" stroke-width="0.5"/>
<path d="M1005.33 -308.516L561.335 460.515" stroke="#1C76FD" stroke-width="0.5"/>
<path d="M1008.8 -306.516L564.799 462.515" stroke="#1C76FD" stroke-width="0.5"/>
<path d="M1012.26 -304.516L568.263 464.515" stroke="#1C76FD" stroke-width="0.5"/>
<path d="M1015.73 -302.516L571.727 466.515" stroke="#1C76FD" stroke-width="0.5"/>
<path d="M1019.19 -300.516L575.191 468.515" stroke="#1C76FD" stroke-width="0.5"/>
<path d="M1022.66 -298.516L578.655 470.515" stroke="#1C76FD" stroke-width="0.5"/>
<path d="M1026.12 -296.516L582.12 472.515" stroke="#1C76FD" stroke-width="0.5"/>
<path d="M1029.58 -294.516L585.584 474.515" stroke="#1C76FD" stroke-width="0.5"/>
<path d="M1033.05 -292.516L589.048 476.515" stroke="#1C76FD" stroke-width="0.5"/>
<path d="M1036.51 -290.516L592.512 478.515" stroke="#1C76FD" stroke-width="0.5"/>
<path d="M1039.98 -288.516L595.976 480.515" stroke="#1C76FD" stroke-width="0.5"/>
<path d="M1043.44 -286.516L599.44 482.515" stroke="#1C76FD" stroke-width="0.5"/>
<path d="M1046.9 -284.516L602.904 484.515" stroke="#1C76FD" stroke-width="0.5"/>
<path d="M1050.37 -282.516L606.368 486.515" stroke="#1C76FD" stroke-width="0.5"/>
<path d="M1053.83 -280.516L609.832 488.515" stroke="#1C76FD" stroke-width="0.5"/>
<path d="M1057.3 -278.516L613.297 490.515" stroke="#1C76FD" stroke-width="0.5"/>
<path d="M1060.76 -276.516L616.761 492.515" stroke="#1C76FD" stroke-width="0.5"/>
<path d="M1064.22 -274.516L620.225 494.515" stroke="#1C76FD" stroke-width="0.5"/>
<path d="M1067.69 -272.516L623.689 496.515" stroke="#1C76FD" stroke-width="0.5"/>
<path d="M1071.15 -270.516L627.153 498.515" stroke="#1C76FD" stroke-width="0.5"/>
<path d="M1074.62 -268.516L630.617 500.515" stroke="#1C76FD" stroke-width="0.5"/>
<path d="M1078.08 -266.516L634.081 502.515" stroke="#1C76FD" stroke-width="0.5"/>
<path d="M1081.55 -264.516L637.545 504.515" stroke="#1C76FD" stroke-width="0.5"/>
<path d="M1085.01 -262.516L641.009 506.515" stroke="#1C76FD" stroke-width="0.5"/>
<path d="M1088.47 -260.516L644.473 508.515" stroke="#1C76FD" stroke-width="0.5"/>
<path d="M1091.94 -258.516L647.938 510.515" stroke="#1C76FD" stroke-width="0.5"/>
<path d="M1095.4 -256.516L651.402 512.515" stroke="#1C76FD" stroke-width="0.5"/>
<path d="M1098.87 -254.516L654.866 514.515" stroke="#1C76FD" stroke-width="0.5"/>
<path d="M1102.33 -252.516L658.33 516.515" stroke="#1C76FD" stroke-width="0.5"/>
<path d="M1105.79 -250.516L661.794 518.515" stroke="#1C76FD" stroke-width="0.5"/>
<path d="M1109.26 -248.516L665.258 520.515" stroke="#1C76FD" stroke-width="0.5"/>
<path d="M1112.72 -246.516L668.722 522.515" stroke="#1C76FD" stroke-width="0.5"/>
<path d="M1116.19 -244.516L672.186 524.515" stroke="#1C76FD" stroke-width="0.5"/>
<path d="M1119.65 -242.516L675.65 526.515" stroke="#1C76FD" stroke-width="0.5"/>
<path d="M1123.11 -240.516L679.114 528.515" stroke="#1C76FD" stroke-width="0.5"/>
<path d="M1126.58 -238.516L682.579 530.515" stroke="#1C76FD" stroke-width="0.5"/>
<path d="M1130.04 -236.516L686.043 532.515" stroke="#1C76FD" stroke-width="0.5"/>
<path d="M1133.51 -234.516L689.507 534.515" stroke="#1C76FD" stroke-width="0.5"/>
<path d="M1136.97 -232.516L692.971 536.515" stroke="#1C76FD" stroke-width="0.5"/>
<path d="M1140.43 -230.516L696.435 538.515" stroke="#1C76FD" stroke-width="0.5"/>
<path d="M1143.9 -228.516L699.899 540.515" stroke="#1C76FD" stroke-width="0.5"/>
<path d="M1147.36 -226.516L703.363 542.515" stroke="#1C76FD" stroke-width="0.5"/>
<path d="M1150.83 -224.516L706.827 544.515" stroke="#1C76FD" stroke-width="0.5"/>
<path d="M1154.29 -222.516L710.291 546.515" stroke="#1C76FD" stroke-width="0.5"/>
<path d="M1157.76 -220.516L713.755 548.515" stroke="#1C76FD" stroke-width="0.5"/>
<path d="M1161.22 -218.516L717.22 550.515" stroke="#1C76FD" stroke-width="0.5"/>
<path d="M1164.68 -216.516L720.684 552.515" stroke="#1C76FD" stroke-width="0.5"/>
<path d="M1168.15 -214.516L724.148 554.515" stroke="#1C76FD" stroke-width="0.5"/>
<path d="M1171.61 -212.516L727.612 556.515" stroke="#1C76FD" stroke-width="0.5"/>
<path d="M1175.08 -210.516L731.076 558.515" stroke="#1C76FD" stroke-width="0.5"/>
<path d="M1178.54 -208.516L734.54 560.515" stroke="#1C76FD" stroke-width="0.5"/>
<path d="M1182 -206.516L738.004 562.515" stroke="#1C76FD" stroke-width="0.5"/>
<path d="M1185.47 -204.516L741.468 564.515" stroke="#1C76FD" stroke-width="0.5"/>
<path d="M1188.93 -202.516L744.932 566.515" stroke="#1C76FD" stroke-width="0.5"/>
<path d="M1192.4 -200.516L748.396 568.515" stroke="#1C76FD" stroke-width="0.5"/>
<path d="M1195.86 -198.516L751.861 570.515" stroke="#1C76FD" stroke-width="0.5"/>
<path d="M1199.32 -196.516L755.325 572.515" stroke="#1C76FD" stroke-width="0.5"/>
<path d="M1202.79 -194.516L758.789 574.515" stroke="#1C76FD" stroke-width="0.5"/>
<path d="M1206.25 -192.516L762.253 576.515" stroke="#1C76FD" stroke-width="0.5"/>
<path d="M1209.72 -190.516L765.717 578.515" stroke="#1C76FD" stroke-width="0.5"/>
<path d="M1213.18 -188.516L769.181 580.515" stroke="#1C76FD" stroke-width="0.5"/>
<path d="M1216.65 -186.516L772.645 582.515" stroke="#1C76FD" stroke-width="0.5"/>
<path d="M1220.11 -184.516L776.109 584.515" stroke="#1C76FD" stroke-width="0.5"/>
<path d="M1223.57 -182.516L779.573 586.515" stroke="#1C76FD" stroke-width="0.5"/>
<path d="M1227.04 -180.516L783.037 588.515" stroke="#1C76FD" stroke-width="0.5"/>
<path d="M1230.5 -178.516L786.502 590.515" stroke="#1C76FD" stroke-width="0.5"/>
<path d="M1233.97 -176.516L789.966 592.515" stroke="#1C76FD" stroke-width="0.5"/>
<path d="M1237.43 -174.516L793.43 594.515" stroke="#1C76FD" stroke-width="0.5"/>
<path d="M1240.89 -172.516L796.894 596.515" stroke="#1C76FD" stroke-width="0.5"/>
<path d="M1244.36 -170.516L800.358 598.515" stroke="#1C76FD" stroke-width="0.5"/>
<path d="M1247.82 -168.516L803.822 600.515" stroke="#1C76FD" stroke-width="0.5"/>
<path d="M1251.29 -166.516L807.286 602.515" stroke="#1C76FD" stroke-width="0.5"/>
<path d="M1254.75 -164.516L810.75 604.515" stroke="#1C76FD" stroke-width="0.5"/>
<path d="M1258.21 -162.516L814.214 606.515" stroke="#1C76FD" stroke-width="0.5"/>
<path d="M1261.68 -160.516L817.679 608.515" stroke="#1C76FD" stroke-width="0.5"/>
<path d="M1265.14 -158.516L821.143 610.515" stroke="#1C76FD" stroke-width="0.5"/>
<path d="M1268.61 -156.516L824.607 612.515" stroke="#1C76FD" stroke-width="0.5"/>
<path d="M1272.07 -154.516L828.071 614.515" stroke="#1C76FD" stroke-width="0.5"/>
<path d="M1275.53 -152.516L831.535 616.515" stroke="#1C76FD" stroke-width="0.5"/>
<path d="M1279 -150.516L834.999 618.515" stroke="#1C76FD" stroke-width="0.5"/>
<path d="M1282.46 -148.516L838.463 620.515" stroke="#1C76FD" stroke-width="0.5"/>
<path d="M1285.93 -146.516L841.927 622.515" stroke="#1C76FD" stroke-width="0.5"/>
<path d="M1289.39 -144.516L845.391 624.515" stroke="#1C76FD" stroke-width="0.5"/>
<path d="M1292.86 -142.516L848.855 626.515" stroke="#1C76FD" stroke-width="0.5"/>
<path d="M1296.32 -140.516L852.32 628.515" stroke="#1C76FD" stroke-width="0.5"/>
<path d="M1299.78 -138.516L855.784 630.515" stroke="#1C76FD" stroke-width="0.5"/>
<path d="M1303.25 -136.516L859.248 632.515" stroke="#1C76FD" stroke-width="0.5"/>
<path d="M1306.71 -134.516L862.712 634.515" stroke="#1C76FD" stroke-width="0.5"/>
<path d="M1310.18 -132.516L866.176 636.515" stroke="#1C76FD" stroke-width="0.5"/>
<path d="M1313.64 -130.516L869.64 638.515" stroke="#1C76FD" stroke-width="0.5"/>
<path d="M1317.1 -128.516L873.104 640.515" stroke="#1C76FD" stroke-width="0.5"/>
<path d="M1320.57 -126.516L876.568 642.515" stroke="#1C76FD" stroke-width="0.5"/>
<path d="M1324.03 -124.516L880.032 644.515" stroke="#1C76FD" stroke-width="0.5"/>
<path d="M1327.5 -122.516L883.496 646.515" stroke="#1C76FD" stroke-width="0.5"/>
<path d="M1330.96 -120.516L886.961 648.515" stroke="#1C76FD" stroke-width="0.5"/>
<path d="M1334.42 -118.516L890.425 650.515" stroke="#1C76FD" stroke-width="0.5"/>
<path d="M1337.89 -116.516L893.889 652.515" stroke="#1C76FD" stroke-width="0.5"/>
<path d="M1341.35 -114.516L897.353 654.515" stroke="#1C76FD" stroke-width="0.5"/>
<path d="M1344.82 -112.516L900.817 656.515" stroke="#1C76FD" stroke-width="0.5"/>
<path d="M1348.28 -110.516L904.281 658.515" stroke="#1C76FD" stroke-width="0.5"/>
<path d="M1351.75 -108.516L907.745 660.515" stroke="#1C76FD" stroke-width="0.5"/>
<path d="M1355.21 -106.516L911.209 662.515" stroke="#1C76FD" stroke-width="0.5"/>
<path d="M1358.67 -104.516L914.673 664.515" stroke="#1C76FD" stroke-width="0.5"/>
<path d="M1362.14 -102.516L918.137 666.515" stroke="#1C76FD" stroke-width="0.5"/>
<path d="M1365.6 -100.516L921.602 668.515" stroke="#1C76FD" stroke-width="0.5"/>
<path d="M1369.07 -98.5156L925.066 670.515" stroke="#1C76FD" stroke-width="0.5"/>
<path d="M1372.53 -96.5156L928.53 672.515" stroke="#1C76FD" stroke-width="0.5"/>
<path d="M1375.99 -94.5156L931.994 674.515" stroke="#1C76FD" stroke-width="0.5"/>
<path d="M1379.46 -92.5156L935.458 676.515" stroke="#1C76FD" stroke-width="0.5"/>
<path d="M1382.92 -90.5156L938.922 678.515" stroke="#1C76FD" stroke-width="0.5"/>
<path d="M1386.39 -88.5156L942.386 680.515" stroke="#1C76FD" stroke-width="0.5"/>
<path d="M1389.85 -86.5156L945.85 682.515" stroke="#1C76FD" stroke-width="0.5"/>
<path d="M1393.31 -84.5156L949.314 684.515" stroke="#1C76FD" stroke-width="0.5"/>
<path d="M1396.78 -82.5156L952.778 686.515" stroke="#1C76FD" stroke-width="0.5"/>
<path d="M1400.24 -80.5156L956.243 688.515" stroke="#1C76FD" stroke-width="0.5"/>
<path d="M1403.71 -78.5156L959.707 690.515" stroke="#1C76FD" stroke-width="0.5"/>
<path d="M1407.17 -76.5156L963.171 692.515" stroke="#1C76FD" stroke-width="0.5"/>
<path d="M1410.63 -74.5156L966.635 694.515" stroke="#1C76FD" stroke-width="0.5"/>
<path d="M1414.1 -72.5156L970.099 696.515" stroke="#1C76FD" stroke-width="0.5"/>
<path d="M1417.56 -70.5156L973.563 698.515" stroke="#1C76FD" stroke-width="0.5"/>
<path d="M1421.03 -68.5156L977.027 700.515" stroke="#1C76FD" stroke-width="0.5"/>
<path d="M1424.49 -66.5156L980.491 702.515" stroke="#1C76FD" stroke-width="0.5"/>
<path d="M1427.96 -64.5156L983.955 704.515" stroke="#1C76FD" stroke-width="0.5"/>
<path d="M1431.42 -62.5156L987.419 706.515" stroke="#1C76FD" stroke-width="0.5"/>
<path d="M1434.88 -60.5156L990.884 708.515" stroke="#1C76FD" stroke-width="0.5"/>
<path d="M1438.35 -58.5156L994.348 710.515" stroke="#1C76FD" stroke-width="0.5"/>
<path d="M1441.81 -56.5156L997.812 712.515" stroke="#1C76FD" stroke-width="0.5"/>
<path d="M1445.28 -54.5156L1001.28 714.515" stroke="#1C76FD" stroke-width="0.5"/>
<path d="M1448.74 -52.5156L1004.74 716.515" stroke="#1C76FD" stroke-width="0.5"/>
<path d="M1452.2 -50.5156L1008.2 718.515" stroke="#1C76FD" stroke-width="0.5"/>
<path d="M1455.67 -48.5156L1011.67 720.515" stroke="#1C76FD" stroke-width="0.5"/>
<path d="M1459.13 -46.5156L1015.13 722.515" stroke="#1C76FD" stroke-width="0.5"/>
<path d="M1462.6 -44.5156L1018.6 724.515" stroke="#1C76FD" stroke-width="0.5"/>
<path d="M1466.06 -42.5156L1022.06 726.515" stroke="#1C76FD" stroke-width="0.5"/>
<path d="M1469.52 -40.5156L1025.52 728.515" stroke="#1C76FD" stroke-width="0.5"/>
<path d="M1472.99 -38.5156L1028.99 730.515" stroke="#1C76FD" stroke-width="0.5"/>
<path d="M1476.45 -36.5156L1032.45 732.515" stroke="#1C76FD" stroke-width="0.5"/>
<path d="M1479.92 -34.5156L1035.92 734.515" stroke="#1C76FD" stroke-width="0.5"/>
<path d="M1483.38 -32.5156L1039.38 736.515" stroke="#1C76FD" stroke-width="0.5"/>
<path d="M1486.85 -30.5156L1042.85 738.515" stroke="#1C76FD" stroke-width="0.5"/>
<path d="M1490.31 -28.5156L1046.31 740.515" stroke="#1C76FD" stroke-width="0.5"/>
<path d="M1493.77 -26.5156L1049.77 742.515" stroke="#1C76FD" stroke-width="0.5"/>
<path d="M1497.24 -24.5156L1053.24 744.515" stroke="#1C76FD" stroke-width="0.5"/>
<path d="M1500.7 -22.5156L1056.7 746.515" stroke="#1C76FD" stroke-width="0.5"/>
<path d="M1504.17 -20.5156L1060.17 748.515" stroke="#1C76FD" stroke-width="0.5"/>
<path d="M1507.63 -18.5156L1063.63 750.515" stroke="#1C76FD" stroke-width="0.5"/>
<path d="M1511.09 -16.5156L1067.09 752.515" stroke="#1C76FD" stroke-width="0.5"/>
<path d="M1514.56 -14.5156L1070.56 754.515" stroke="#1C76FD" stroke-width="0.5"/>
<path d="M1518.02 -12.5156L1074.02 756.515" stroke="#1C76FD" stroke-width="0.5"/>
<path d="M1521.49 -10.5156L1077.49 758.515" stroke="#1C76FD" stroke-width="0.5"/>
<path d="M1524.95 -8.51562L1080.95 760.515" stroke="#1C76FD" stroke-width="0.5"/>
<path d="M1528.41 -6.51562L1084.41 762.515" stroke="#1C76FD" stroke-width="0.5"/>
<path d="M1531.88 -4.51562L1087.88 764.515" stroke="#1C76FD" stroke-width="0.5"/>
<path d="M1535.34 -2.51562L1091.34 766.515" stroke="#1C76FD" stroke-width="0.5"/>
<path d="M1538.81 -0.515625L1094.81 768.515" stroke="#1C76FD" stroke-width="0.5"/>
<path d="M1542.27 1.48438L1098.27 770.515" stroke="#1C76FD" stroke-width="0.5"/>
<path d="M1545.73 3.48438L1101.73 772.515" stroke="#1C76FD" stroke-width="0.5"/>
<path d="M1549.2 5.48438L1105.2 774.515" stroke="#1C76FD" stroke-width="0.5"/>
<path d="M1552.66 7.48438L1108.66 776.515" stroke="#1C76FD" stroke-width="0.5"/>
<path d="M1556.13 9.48438L1112.13 778.515" stroke="#1C76FD" stroke-width="0.5"/>
<path d="M1559.59 11.4844L1115.59 780.515" stroke="#1C76FD" stroke-width="0.5"/>
<path d="M1563.06 13.4844L1119.06 782.515" stroke="#1C76FD" stroke-width="0.5"/>
<path d="M1566.52 15.4844L1122.52 784.515" stroke="#1C76FD" stroke-width="0.5"/>
<path d="M1569.98 17.4844L1125.98 786.515" stroke="#1C76FD" stroke-width="0.5"/>
<path d="M1573.45 19.4844L1129.45 788.515" stroke="#1C76FD" stroke-width="0.5"/>
<path d="M1576.91 21.4844L1132.91 790.515" stroke="#1C76FD" stroke-width="0.5"/>
<path d="M1580.38 23.4844L1136.38 792.515" stroke="#1C76FD" stroke-width="0.5"/>
<path d="M1583.84 25.4844L1139.84 794.515" stroke="#1C76FD" stroke-width="0.5"/>
<path d="M1587.3 27.4844L1143.3 796.515" stroke="#1C76FD" stroke-width="0.5"/>
<path d="M1590.77 29.4844L1146.77 798.515" stroke="#1C76FD" stroke-width="0.5"/>
<path d="M1594.23 31.4844L1150.23 800.515" stroke="#1C76FD" stroke-width="0.5"/>
<path d="M1597.7 33.4844L1153.7 802.515" stroke="#1C76FD" stroke-width="0.5"/>
<path d="M1601.16 35.4844L1157.16 804.515" stroke="#1C76FD" stroke-width="0.5"/>
</g>
<defs>
<linearGradient id="paint0_linear_9780_4937" x1="1464" y1="-3.99992" x2="238.684" y2="555.774" gradientUnits="userSpaceOnUse">
<stop stop-color="#FF5500"/>
<stop offset="0.236246" stop-color="#FF5500" stop-opacity="0.3"/>
<stop offset="0.500604" stop-color="#FF5500" stop-opacity="0"/>
<stop offset="0.757591" stop-color="#FF5500" stop-opacity="0.3"/>
<stop offset="1" stop-color="#FF5500"/>
</linearGradient>
</defs>
</svg>
