<svg width="152" height="41" viewBox="0 0 152 41" fill="none" xmlns="http://www.w3.org/2000/svg">
<path fill-rule="evenodd" clip-rule="evenodd" d="M42.0649 11.592H46.8174V16.505H52.6936V20.551H46.8174V27.3906C46.8174 28.5144 46.9779 29.1567 47.3954 29.6383C47.7807 30.12 48.6155 30.5375 49.8037 30.5375C50.478 30.5375 51.1202 30.4732 51.7624 30.3448L52.501 34.3908C51.5376 34.6155 50.5422 34.744 49.5467 34.744C46.6889 34.744 44.6017 33.7806 43.3816 32.1751C42.4824 30.9549 42.0649 29.3815 42.0649 26.8447V11.592ZM78.7034 11.592H73.951V26.8447C73.951 29.3815 74.3684 30.9549 75.2675 32.1751C76.4877 33.7806 78.5749 34.744 81.4328 34.744C82.4282 34.744 83.4237 34.6155 84.4191 34.3908L83.6806 30.3448C83.0384 30.4732 82.3961 30.5375 81.754 30.5375C80.5658 30.5375 79.7309 30.12 79.3456 29.6383C78.9281 29.1567 78.7676 28.5144 78.7676 27.3906V20.551H84.6439V16.505H78.7676V11.592H78.7034ZM62.937 16.1518C57.6708 16.1518 54.2992 20.4867 54.2992 25.4318C54.2992 31.0191 58.313 34.6797 63.6112 34.6797C64.992 34.7118 66.3407 34.4228 67.593 33.8769C68.8453 33.331 69.9692 32.5283 70.9004 31.5008L68.2031 28.8035C67.6251 29.4136 66.9508 29.9273 66.1801 30.2805C65.4095 30.6337 64.5746 30.8264 63.7397 30.8585C62.5516 30.8906 61.3956 30.4732 60.4965 29.7025C59.5974 28.9319 59.0515 27.808 58.9231 26.6199H71.2536C71.3178 26.1703 71.35 25.7208 71.35 25.2712C71.35 20.2941 67.8499 16.1518 62.937 16.1518ZM59.1158 23.1519C59.2763 22.285 59.7579 21.4822 60.4644 20.9042C61.1708 20.3262 62.0378 20.0371 62.937 20.0371C63.8039 20.0371 64.6388 20.3583 65.281 20.9363C65.9232 21.5143 66.3407 22.3171 66.437 23.1519H59.1158ZM92.3504 18.3353V16.5372H87.7585V34.3265H92.511V23.1198C92.9605 22.3813 93.6027 21.7391 94.3413 21.2895C95.1119 20.8399 95.9468 20.5831 96.8138 20.551C97.3918 20.551 97.9693 20.5831 98.5478 20.7437L99.0932 16.3124C98.5799 16.216 98.0345 16.1838 97.5202 16.1838C95.3688 16.1518 93.4101 17.0188 92.3504 18.3353ZM108.277 16.1518C110.172 16.1197 112.003 16.7618 113.48 17.95V16.505H118.071V34.2944H113.48V32.8494C112.099 34.0375 110.364 34.6797 108.535 34.6476C107.249 34.6476 105.997 34.3908 104.841 33.8769C103.685 33.3632 102.658 32.5925 101.823 31.6613C100.346 29.9273 99.5434 27.7116 99.5434 25.4318C99.5434 20.1978 103.428 16.1518 108.277 16.1518ZM111.424 29.7347C112.163 29.3493 112.805 28.7713 113.287 28.097H113.351V22.7987C112.837 22.0923 112.195 21.5464 111.424 21.1611C110.653 20.7758 109.819 20.5831 108.952 20.5831C106.159 20.5831 104.36 22.8951 104.36 25.4639C104.328 26.1061 104.424 26.7483 104.649 27.3263C104.873 27.9043 105.195 28.4503 105.644 28.8997C106.061 29.3493 106.608 29.7025 107.185 29.9595C107.764 30.1842 108.373 30.3127 109.016 30.3127C109.851 30.3127 110.685 30.12 111.424 29.7347ZM125.907 11.592H121.153V26.8447C121.153 29.3815 121.572 30.9549 122.471 32.1751C123.691 33.7806 125.777 34.744 128.636 34.744C129.631 34.744 130.627 34.6155 131.59 34.3908L130.852 30.3448C130.209 30.4732 129.567 30.5375 128.893 30.5375C127.704 30.5375 126.869 30.12 126.484 29.6383C126.067 29.1567 125.907 28.5144 125.907 27.3906V20.551H131.783V16.505H125.907V11.592ZM141.03 16.1518C145.944 16.1518 149.444 20.2941 149.444 25.2391C149.444 25.6604 149.387 26.0818 149.327 26.5295L149.314 26.6199H137.017C137.145 27.808 137.69 28.9319 138.59 29.7025C139.489 30.4732 140.645 30.8906 141.833 30.8585C142.668 30.8264 143.502 30.6337 144.273 30.2805C145.044 29.9273 145.718 29.4136 146.297 28.8035L148.994 31.5008C148.062 32.5283 146.938 33.331 145.686 33.8769C144.434 34.4228 143.085 34.7118 141.705 34.6797C136.406 34.6797 132.393 31.0191 132.393 25.4318C132.393 20.4867 135.764 16.1518 141.03 16.1518ZM138.558 20.9042C137.852 21.4822 137.37 22.285 137.209 23.1519H144.53C144.434 22.3171 144.017 21.5143 143.374 20.9363C142.732 20.3583 141.897 20.0371 141.03 20.0371C140.132 20.0371 139.264 20.3262 138.558 20.9042Z" fill="#0A0D0F"/>
<path fill-rule="evenodd" clip-rule="evenodd" d="M24.7248 6.64868C26.2983 7.57989 28.1286 7.86889 29.8947 7.54777C33.3948 7.09823 35.9314 10.9194 34.1333 13.97C32.3993 17.0526 27.8075 16.7314 26.4588 13.4882C23.2798 5.26791 11.5272 5.26791 8.3162 13.4882C6.99966 16.7314 2.3757 17.0526 0.641721 13.97C-1.12437 10.9194 1.41238 7.09823 4.88034 7.54777C6.64644 7.86889 8.47676 7.54778 10.0502 6.64868C11.6557 5.74957 12.8117 4.3367 13.4219 2.63482C14.8347 -0.865254 19.9403 -0.865254 21.3532 2.63482C21.9633 4.30458 23.1514 5.74957 24.7248 6.64868ZM17.4036 11.08C20.9037 11.08 22.9588 15.1581 20.8073 17.9838C19.6513 19.3325 19.0091 21.0664 19.0091 22.8967C19.0091 24.6949 19.6513 26.4289 20.8073 27.8097C22.9909 30.6354 20.9037 34.7457 17.4036 34.7135C13.9035 34.7135 11.8484 30.6354 13.9999 27.8097C15.1559 26.4611 15.798 24.7271 15.798 22.8967C15.798 21.0986 15.1559 19.3646 13.9999 17.9838C11.8163 15.1581 13.9035 11.0479 17.4036 11.08Z" fill="#FF5500"/>
</svg>
