<svg width="100" height="24" viewBox="0 0 100 24" fill="none" xmlns="http://www.w3.org/2000/svg">
<g clip-path="url(#clip0_7539_8971)">
<path fill-rule="evenodd" clip-rule="evenodd" d="M27.7344 8.10449H30.8678V11.3437H34.7421V14.0114H30.8678V18.5209C30.8678 19.2619 30.9736 19.6853 31.2489 20.0029C31.5029 20.3205 32.0533 20.5957 32.8367 20.5957C33.2813 20.5957 33.7048 20.5533 34.1282 20.4687L34.6151 23.1363C33.98 23.2845 33.3237 23.3692 32.6673 23.3692C30.7831 23.3692 29.4069 22.734 28.6025 21.6755C28.0096 20.8709 27.7344 19.8335 27.7344 18.161V8.10449ZM51.891 8.10449H48.7577V18.161C48.7577 19.8335 49.0329 20.8709 49.6257 21.6755C50.4302 22.734 51.8064 23.3692 53.6907 23.3692C54.3469 23.3692 55.0033 23.2845 55.6596 23.1363L55.1726 20.4687C54.7492 20.5533 54.3258 20.5957 53.9024 20.5957C53.119 20.5957 52.5685 20.3205 52.3145 20.0029C52.0392 19.6853 51.9334 19.2619 51.9334 18.5209V14.0114H55.8078V11.3437H51.9334V8.10449H51.891ZM41.4958 11.1108C38.0237 11.1108 35.8007 13.969 35.8007 17.2294C35.8007 20.9133 38.4471 23.3268 41.9404 23.3268C42.8508 23.348 43.74 23.1574 44.5657 22.7975C45.3914 22.4376 46.1324 21.9083 46.7464 21.2308L44.968 19.4524C44.5869 19.8547 44.1423 20.1934 43.6341 20.4263C43.126 20.6592 42.5756 20.7862 42.0251 20.8074C41.2417 20.8285 40.4796 20.5533 39.8868 20.0452C39.294 19.5371 38.9341 18.7961 38.8494 18.0128H46.9792C47.0216 17.7164 47.0428 17.4199 47.0428 17.1235C47.0428 13.842 44.7351 11.1108 41.4958 11.1108ZM38.9764 15.7262C39.0823 15.1546 39.3998 14.6253 39.8656 14.2442C40.3314 13.8631 40.903 13.6726 41.4958 13.6726C42.0674 13.6726 42.6179 13.8843 43.0414 14.2654C43.4648 14.6465 43.74 15.1758 43.8035 15.7262H38.9764ZM60.8889 12.5505V11.3649H57.8614V23.0939H60.9948V15.7051C61.2912 15.2181 61.7146 14.7947 62.2015 14.4983C62.7096 14.2019 63.2601 14.0325 63.8317 14.0114C64.2128 14.0114 64.5936 14.0325 64.975 14.1384L65.3346 11.2167C64.9962 11.1532 64.6366 11.132 64.2974 11.132C62.879 11.1108 61.5876 11.6825 60.8889 12.5505ZM71.3898 11.1108C72.6391 11.0897 73.8462 11.5131 74.8199 12.2965V11.3437H77.8475V23.0728H74.8199V22.12C73.9096 22.9033 72.766 23.3268 71.5596 23.3056C70.7122 23.3056 69.8866 23.1363 69.1244 22.7975C68.3622 22.4588 67.6853 21.9506 67.1346 21.3367C66.1609 20.1934 65.6314 18.7326 65.6314 17.2294C65.6314 13.7785 68.193 11.1108 71.3898 11.1108ZM73.4648 20.0664C73.9519 19.8123 74.375 19.4312 74.693 18.9867H74.7353V15.4933C74.3962 15.0276 73.9731 14.6676 73.4648 14.4136C72.9564 14.1596 72.4064 14.0325 71.8346 14.0325C69.993 14.0325 68.8071 15.5569 68.8071 17.2506C68.7859 17.674 68.8494 18.0974 68.9975 18.4785C69.1455 18.8596 69.3577 19.2196 69.6539 19.5159C69.9289 19.8123 70.2891 20.0452 70.6699 20.2146C71.0513 20.3628 71.4532 20.4475 71.8769 20.4475C72.4276 20.4475 72.9776 20.3205 73.4648 20.0664ZM83.0135 8.10449H79.8795V18.161C79.8795 19.8335 80.1551 20.8709 80.7481 21.6755C81.5526 22.734 82.9282 23.3692 84.8128 23.3692C85.4692 23.3692 86.1256 23.2845 86.7603 23.1363L86.2737 20.4687C85.85 20.5533 85.4269 20.5957 84.9821 20.5957C84.1987 20.5957 83.6481 20.3205 83.3942 20.0029C83.1192 19.6853 83.0135 19.2619 83.0135 18.5209V14.0114H86.8878V11.3437H83.0135V8.10449ZM92.9846 11.1108C96.2244 11.1108 98.5321 13.842 98.5321 17.1024C98.5321 17.3801 98.4949 17.658 98.4551 17.9531L98.4468 18.0128H90.3385C90.4231 18.7961 90.7827 19.5371 91.3757 20.0452C91.9686 20.5533 92.7308 20.8285 93.5141 20.8074C94.0648 20.7862 94.6148 20.6592 95.1231 20.4263C95.6314 20.1934 96.0757 19.8547 96.4571 19.4524L98.2353 21.2308C97.6212 21.9083 96.8801 22.4376 96.0545 22.7975C95.2289 23.1574 94.3398 23.348 93.4295 23.3268C89.9359 23.3268 87.2898 20.9133 87.2898 17.2294C87.2898 13.969 89.5128 11.1108 92.9846 11.1108ZM91.3545 14.2442C90.8891 14.6253 90.5712 15.1546 90.4654 15.7262H95.2923C95.2289 15.1758 94.9538 14.6465 94.5301 14.2654C94.1071 13.8843 93.5564 13.6726 92.9846 13.6726C92.3923 13.6726 91.8205 13.8631 91.3545 14.2442Z" fill="#0A0D0F"/>
<path fill-rule="evenodd" clip-rule="evenodd" d="M16.3016 4.84517C17.3391 5.45914 18.5459 5.64968 19.7103 5.43796C22.018 5.14156 23.6905 7.66094 22.5049 9.67229C21.3616 11.7047 18.3341 11.493 17.4449 9.35466C15.3489 3.93479 7.60016 3.93479 5.48303 9.35466C4.615 11.493 1.56631 11.7047 0.423049 9.67229C-0.741382 7.66094 0.931163 5.14156 3.21768 5.43796C4.38212 5.64968 5.58889 5.43797 6.62632 4.84517C7.68484 4.25236 8.44702 3.32082 8.84933 2.19873C9.78087 -0.108967 13.1471 -0.108967 14.0787 2.19873C14.4809 3.29964 15.2643 4.25236 16.3016 4.84517ZM11.4746 7.76684C13.7823 7.76684 15.1373 10.4556 13.7188 12.3187C12.9566 13.2079 12.5332 14.3511 12.5332 15.5579C12.5332 16.7435 12.9566 17.8868 13.7188 18.7972C15.1584 20.6602 13.7823 23.3702 11.4746 23.349C9.16689 23.349 7.81189 20.6602 9.23042 18.7972C9.9926 17.908 10.416 16.7647 10.416 15.5579C10.416 14.3724 9.9926 13.2291 9.23042 12.3187C7.79074 10.4556 9.16689 7.74569 11.4746 7.76684Z" fill="#FF5500"/>
</g>
<defs>
<clipPath id="clip0_7539_8971">
<rect width="100" height="23.0769" fill="white" transform="translate(0 0.461548)"/>
</clipPath>
</defs>
</svg>
