<svg width="334" height="430" viewBox="0 0 334 430" fill="none" xmlns="http://www.w3.org/2000/svg">
<g clip-path="url(#clip0_9684_114904)">
<rect y="0.339966" width="334" height="429" rx="9.97015" fill="url(#paint0_linear_9684_114904)"/>
<mask id="mask0_9684_114904" style="mask-type:alpha" maskUnits="userSpaceOnUse" x="-4" y="-8" width="340" height="447">
<path d="M-3.92773 -7.99988H335.354V438H-3.92773V-7.99988Z" fill="url(#paint1_radial_9684_114904)"/>
</mask>
<g mask="url(#mask0_9684_114904)">
<path d="M20.168 -0.646851V445.387" stroke="#181E22" stroke-width="0.623134"/>
<path d="M61.918 -0.646851V445.387" stroke="#181E22" stroke-width="0.623134"/>
<path d="M103.668 -0.646851V445.387" stroke="#181E22" stroke-width="0.623134"/>
<path d="M145.418 -0.646851V445.387" stroke="#181E22" stroke-width="0.623134"/>
<path d="M187.168 -0.646851V445.387" stroke="#181E22" stroke-width="0.623134"/>
<path d="M228.918 -0.646851V445.387" stroke="#181E22" stroke-width="0.623134"/>
<path d="M270.668 -0.646851V445.387" stroke="#181E22" stroke-width="0.623134"/>
<path d="M312.418 -0.646851V445.387" stroke="#181E22" stroke-width="0.623134"/>
<rect x="-48.2212" y="18.2803" width="387.278" height="0.311567" fill="#2E2E38" stroke="#181E22" stroke-width="0.311567"/>
<rect x="-48.2212" y="43.8288" width="387.278" height="0.311567" fill="#2E2E38" stroke="#181E22" stroke-width="0.311567"/>
<rect x="-48.2212" y="69.3773" width="387.278" height="0.311567" fill="#2E2E38" stroke="#181E22" stroke-width="0.311567"/>
<rect x="-48.2212" y="94.9258" width="387.278" height="0.311567" fill="#2E2E38" stroke="#181E22" stroke-width="0.311567"/>
<rect x="-48.2212" y="120.474" width="387.278" height="0.311567" fill="#2E2E38" stroke="#181E22" stroke-width="0.311567"/>
<rect x="-48.2212" y="146.023" width="387.278" height="0.311567" fill="#2E2E38" stroke="#181E22" stroke-width="0.311567"/>
<rect x="-48.2212" y="171.571" width="387.278" height="0.311567" fill="#2E2E38" stroke="#181E22" stroke-width="0.311567"/>
<rect x="-48.2212" y="197.12" width="387.278" height="0.311567" fill="#2E2E38" stroke="#181E22" stroke-width="0.311567"/>
<rect x="-48.2212" y="222.668" width="387.278" height="0.311567" fill="#2E2E38" stroke="#181E22" stroke-width="0.311567"/>
<rect x="-48.2212" y="248.217" width="387.278" height="0.311567" fill="#2E2E38" stroke="#181E22" stroke-width="0.311567"/>
<rect x="-48.2212" y="273.765" width="387.278" height="0.311567" fill="#2E2E38" stroke="#181E22" stroke-width="0.311567"/>
<rect x="-48.2212" y="299.314" width="387.278" height="0.311567" fill="#2E2E38" stroke="#181E22" stroke-width="0.311567"/>
<rect x="-48.2212" y="324.862" width="387.278" height="0.311567" fill="#2E2E38" stroke="#181E22" stroke-width="0.311567"/>
<rect x="-48.2212" y="350.411" width="387.278" height="0.311567" fill="#2E2E38" stroke="#181E22" stroke-width="0.311567"/>
<rect x="-48.2212" y="375.959" width="387.278" height="0.311567" fill="#2E2E38" stroke="#181E22" stroke-width="0.311567"/>
<rect x="-48.2212" y="401.508" width="387.278" height="0.311567" fill="#2E2E38" stroke="#181E22" stroke-width="0.311567"/>
<rect x="-48.2212" y="427.057" width="387.278" height="0.311567" fill="#2E2E38" stroke="#181E22" stroke-width="0.311567"/>
</g>
<path d="M164.243 258.981C164.404 258.819 164.666 258.819 164.827 258.981L167.458 261.611C167.619 261.773 167.619 262.034 167.458 262.196C167.296 262.357 167.035 262.357 166.873 262.196L164.535 259.858L162.197 262.196C162.036 262.357 161.774 262.357 161.612 262.196C161.451 262.034 161.451 261.773 161.612 261.611L164.243 258.981ZM276.55 309.7C276.55 309.928 276.365 310.114 276.136 310.114C275.908 310.114 275.723 309.928 275.723 309.7H276.55ZM164.948 259.273V285.545H164.122V259.273H164.948ZM171.149 291.745H269.523V292.571H171.149V291.745ZM276.55 298.771V309.7H275.723V298.771H276.55ZM269.523 291.745C273.404 291.745 276.55 294.891 276.55 298.771H275.723C275.723 295.347 272.947 292.571 269.523 292.571V291.745ZM164.948 285.545C164.948 288.969 167.724 291.745 171.149 291.745V292.571C167.268 292.571 164.122 289.425 164.122 285.545H164.948Z" fill="#33373A"/>
<path d="M164.535 276.633V285.832C164.535 289.485 161.574 292.446 157.922 292.446H59.5474C55.8949 292.446 52.934 295.407 52.934 299.059V309.7" stroke="#33373A" stroke-width="0.826675" stroke-linecap="round"/>
<path d="M164.243 165.932C164.404 166.094 164.666 166.094 164.827 165.932L167.458 163.302C167.619 163.14 167.619 162.879 167.458 162.717C167.296 162.556 167.035 162.556 166.873 162.717L164.535 165.055L162.197 162.717C162.036 162.556 161.774 162.556 161.612 162.717C161.451 162.879 161.451 163.14 161.612 163.302L164.243 165.932ZM164.948 118.519C164.948 118.291 164.763 118.106 164.535 118.106C164.307 118.106 164.122 118.291 164.122 118.519L164.948 118.519ZM164.948 165.64L164.948 118.519L164.122 118.519L164.122 165.64L164.948 165.64Z" fill="#33373A"/>
<path d="M117.706 212.468C117.868 212.629 117.868 212.891 117.706 213.052L115.076 215.683C114.914 215.844 114.653 215.844 114.491 215.683C114.33 215.521 114.33 215.26 114.491 215.098L116.83 212.76L114.491 210.422C114.33 210.26 114.33 209.999 114.491 209.837C114.653 209.676 114.914 209.676 115.076 209.837L117.706 212.468ZM53.3467 120.172C53.3467 119.944 53.5318 119.759 53.7601 119.759C53.9884 119.759 54.1734 119.944 54.1734 120.172H53.3467ZM117.414 213.173H60.3735V212.347H117.414V213.173ZM53.3467 206.147V120.172H54.1734V206.147H53.3467ZM60.3735 213.173C56.4927 213.173 53.3467 210.027 53.3467 206.147H54.1734C54.1734 209.571 56.9493 212.347 60.3735 212.347V213.173Z" fill="#33373A"/>
<path d="M210.536 212.468C210.374 212.629 210.374 212.891 210.536 213.052L213.166 215.683C213.328 215.844 213.589 215.844 213.751 215.683C213.912 215.521 213.912 215.26 213.751 215.098L211.413 212.76L213.751 210.422C213.912 210.26 213.912 209.999 213.751 209.837C213.589 209.676 213.328 209.676 213.166 209.837L210.536 212.468ZM277.375 120.172C277.375 119.944 277.19 119.759 276.962 119.759C276.734 119.759 276.549 119.944 276.549 120.172H277.375ZM210.828 213.173H270.349V212.347H210.828V213.173ZM277.375 206.147V120.172H276.549V206.147H277.375ZM270.349 213.173C274.229 213.173 277.375 210.027 277.375 206.147H276.549C276.549 209.571 273.773 212.347 270.349 212.347V213.173Z" fill="#33373A"/>
<rect x="118.515" y="166.992" width="91.214" height="91.214" rx="45.607" fill="#0A0D0F" stroke="url(#paint2_linear_9684_114904)" stroke-width="0.826675"/>
<rect x="105.066" y="153.539" width="118.111" height="118.111" rx="59.0556" stroke="#3B3D3F" stroke-width="0.826675" stroke-dasharray="0.83 3.31"/>
<g filter="url(#filter0_i_9684_114904)">
<rect x="122.842" y="171.315" width="82.5589" height="82.5589" rx="41.2795" fill="#060809"/>
</g>
<rect x="123.255" y="171.728" width="81.7322" height="81.7322" rx="40.8661" stroke="url(#paint3_linear_9684_114904)" stroke-width="0.826675"/>
<rect x="128.031" y="176.167" width="72.1835" height="72.8595" rx="36.0917" fill="#0A0D0F" stroke="url(#paint4_linear_9684_114904)" stroke-width="0.826675"/>
<path d="M164.166 190.257C164.834 190.257 165.376 190.798 165.376 191.466V192.664C165.376 192.739 165.369 192.812 165.356 192.883C165.627 192.946 165.892 193.032 166.149 193.139C166.779 193.399 167.35 193.782 167.832 194.264C168.313 194.745 168.695 195.316 168.956 195.945C169.162 196.443 169.289 196.969 169.333 197.504H170.237C170.929 197.504 171.49 198.065 171.49 198.757C171.49 199.449 170.929 200.009 170.237 200.01H169.549L169.785 203.142H170.237C170.929 203.143 171.49 203.704 171.49 204.395C171.49 205.087 170.929 205.648 170.237 205.648H169.975L171.738 229.032H172.942C173.659 229.032 174.24 229.614 174.24 230.331C174.24 231.048 173.659 231.629 172.942 231.629H155.298C154.581 231.629 154 231.048 154 230.331C154 229.614 154.581 229.032 155.298 229.032H156.63L158.333 205.648H158.134C157.442 205.648 156.881 205.087 156.881 204.395C156.881 203.703 157.442 203.142 158.134 203.142H158.516L158.744 200.01H158.134C157.442 200.01 156.881 199.449 156.881 198.757C156.881 198.065 157.442 197.504 158.134 197.504H158.996C159.04 196.969 159.167 196.443 159.373 195.945C159.634 195.316 160.016 194.745 160.497 194.264C160.979 193.782 161.551 193.399 162.18 193.139C162.438 193.031 162.705 192.946 162.977 192.882C162.964 192.811 162.957 192.738 162.957 192.664V191.466C162.957 190.798 163.498 190.257 164.166 190.257ZM163.347 224.278C163.119 224.278 162.934 224.463 162.934 224.691V228.702C162.934 228.93 163.119 229.115 163.347 229.115H165.032C165.26 229.115 165.446 228.93 165.446 228.702V224.691C165.446 224.463 165.261 224.278 165.032 224.278H163.347ZM161.594 199.95C161.376 199.95 161.195 200.12 161.182 200.338L161.025 202.792C161.011 203.03 161.2 203.231 161.438 203.231H166.938C167.177 203.231 167.367 203.027 167.35 202.788L167.171 200.334C167.155 200.118 166.975 199.95 166.759 199.95H161.594Z" fill="#FFCB5C"/>
<path d="M55.6914 79.3605C64.0888 79.3605 70.8974 86.183 70.8975 94.6007C70.8975 96.3243 72.1865 97.9718 73.998 97.9718H74.5352C80.3685 97.9718 85.0986 102.712 85.0986 108.56C85.0984 114.408 80.3684 119.147 74.5352 119.147H37.9404C36.1555 119.147 34.4745 118.704 33.001 117.921L32.9902 117.915L32.9795 117.91L32.5234 117.694C27.8559 115.387 24.6455 110.569 24.6455 105.001C24.6456 97.1881 30.9658 90.8556 38.7598 90.8556C39.906 90.8554 40.9665 90.1923 41.4678 89.171L41.5605 88.962C43.7977 83.3357 49.2819 79.3605 55.6914 79.3605Z" fill="url(#paint5_linear_9684_114904)" stroke="url(#paint6_linear_9684_114904)" stroke-width="0.720863"/>
<g clip-path="url(#clip1_9684_114904)">
<path d="M51.933 95.1304H56.4173L51.7621 108.923C51.7143 109.065 51.6232 109.188 51.5017 109.275C51.3802 109.363 51.2343 109.41 51.0848 109.41H47.5948C47.4815 109.41 47.3698 109.383 47.2689 109.331C47.1681 109.279 47.081 109.204 47.0149 109.112C46.9488 109.02 46.9055 108.914 46.8887 108.802C46.8719 108.689 46.8821 108.575 46.9183 108.468L51.2554 95.6167C51.3033 95.4749 51.3944 95.3517 51.5159 95.2644C51.6375 95.1771 51.7833 95.1304 51.933 95.1304Z" fill="url(#paint7_linear_9684_114904)"/>
<path d="M58.4504 104.383H51.3392C51.2731 104.383 51.2085 104.403 51.1539 104.44C51.0992 104.477 51.057 104.53 51.0327 104.591C51.0085 104.653 51.0033 104.72 51.0179 104.785C51.0325 104.849 51.0661 104.908 51.1145 104.953L55.6839 109.218C55.817 109.342 55.9922 109.411 56.1741 109.411H60.2007L58.4504 104.383Z" fill="#EBECEC"/>
<path d="M51.934 95.1302C51.7827 95.1296 51.6352 95.1774 51.5131 95.2666C51.3909 95.3558 51.3004 95.4818 51.2549 95.626L46.9247 108.456C46.886 108.563 46.8739 108.679 46.8893 108.792C46.9047 108.906 46.9472 109.014 47.0133 109.108C47.0793 109.201 47.1669 109.277 47.2686 109.33C47.3703 109.382 47.4832 109.41 47.5977 109.409H51.1778C51.3111 109.386 51.4357 109.327 51.5389 109.239C51.6421 109.151 51.7201 109.038 51.7651 108.91L52.6286 106.365L55.7131 109.242C55.8424 109.349 56.0045 109.408 56.1723 109.409H60.1839L58.4244 104.382L53.2954 104.383L56.4346 95.1302H51.934Z" fill="url(#paint8_linear_9684_114904)"/>
<path d="M57.6606 95.6159C57.6128 95.4743 57.5219 95.3513 57.4005 95.2642C57.2791 95.177 57.1335 95.1302 56.9841 95.1302H51.9863C52.1357 95.1302 52.2814 95.1771 52.4027 95.2642C52.5241 95.3513 52.615 95.4743 52.6628 95.6159L57.0001 108.467C57.0364 108.575 57.0465 108.689 57.0298 108.801C57.013 108.913 56.9697 109.02 56.9036 109.112C56.8375 109.204 56.7504 109.279 56.6496 109.331C56.5487 109.383 56.437 109.41 56.3236 109.41H61.3216C61.4349 109.41 61.5466 109.383 61.6475 109.331C61.7483 109.279 61.8354 109.204 61.9015 109.112C61.9675 109.02 62.0108 108.913 62.0275 108.801C62.0443 108.689 62.0341 108.575 61.9979 108.467L57.6606 95.6159Z" fill="white"/>
</g>
<path d="M277.781 79.3605C286.179 79.3605 292.987 86.183 292.987 94.6007C292.987 96.3243 294.276 97.9718 296.088 97.9718H296.625C302.458 97.9718 307.188 102.712 307.188 108.56C307.188 114.408 302.458 119.147 296.625 119.147H260.03C258.245 119.147 256.564 118.704 255.091 117.921L255.08 117.915L255.069 117.91L254.613 117.694C249.946 115.387 246.735 110.569 246.735 105.001C246.735 97.1881 253.056 90.8556 260.85 90.8556C261.996 90.8554 263.056 90.1923 263.558 89.171L263.65 88.962C265.888 83.3357 271.372 79.3605 277.781 79.3605Z" fill="url(#paint9_linear_9684_114904)" stroke="url(#paint10_linear_9684_114904)" stroke-width="0.720863"/>
<g clip-path="url(#clip2_9684_114904)">
<path d="M274.8 93.9799C276.044 93.6621 277.351 93.6341 278.611 93.8998L278.862 93.9574C280.111 94.261 281.268 94.8465 282.236 95.6683L282.333 95.7513L282.318 95.8773L282.232 96.5922L282.223 96.6761L282.161 96.7347L280.411 98.4174L280.343 98.4838H279.633V98.2621L279.5 98.434C278.732 97.8366 277.768 97.5236 276.782 97.5502L276.584 97.5599C275.531 97.6371 274.55 98.099 273.842 98.847L273.753 98.9408L273.709 98.932C273.702 98.9401 273.692 98.9486 273.684 98.9594C273.661 98.9871 273.64 99.0173 273.624 99.0404C273.616 99.0516 273.61 99.0605 273.605 99.0668C273.603 99.0699 273.602 99.0731 273.602 99.0746L273.601 99.0756L273.543 99.1664L273.437 99.184L269.937 99.7386L269.887 99.7465L269.839 99.7338C269.684 99.6928 269.52 99.7019 269.372 99.7601L268.928 99.9359L269.057 99.476C269.418 98.1948 270.114 97.0241 271.075 96.0746L271.259 95.8998C272.187 95.0395 273.316 94.4036 274.552 94.0472L274.8 93.9799Z" fill="white" stroke="#0A0D0F" stroke-width="0.473862"/>
<path d="M282.269 95.675C283.429 96.6648 284.27 97.9547 284.693 99.3908C285.711 100.074 286.482 101.048 286.895 102.178L286.969 102.396C287.318 103.492 287.317 104.666 286.962 105.765C286.607 106.863 285.917 107.829 284.985 108.54L284.796 108.679C283.77 109.4 282.53 109.782 281.262 109.773V109.774H276.794L276.725 109.708L276.289 109.288L276.216 109.219V106.496L276.288 106.427L276.724 106.002L276.793 105.935H281.262C281.519 105.935 281.774 105.886 282.011 105.791C282.248 105.697 282.463 105.559 282.644 105.385L282.771 105.249C282.892 105.108 282.991 104.95 283.063 104.78L283.128 104.608C283.183 104.433 283.211 104.252 283.211 104.07C283.211 103.887 283.183 103.705 283.128 103.53L283.063 103.359C282.991 103.189 282.892 103.031 282.771 102.89L282.644 102.754C282.508 102.624 282.353 102.513 282.184 102.426L282.011 102.347C281.774 102.252 281.519 102.204 281.262 102.204H281.024V101.543L281.022 101.32C281.005 100.872 280.909 100.431 280.737 100.014L280.646 99.8078C280.384 99.2642 279.997 98.7837 279.513 98.4035L279.298 98.2356L279.494 98.0471L281.951 95.6848L282.105 95.5363L282.269 95.675Z" fill="white" stroke="#0A0D0F" stroke-width="0.473862"/>
<path d="M271.703 105.739L271.897 105.812C272.095 105.875 272.302 105.908 272.511 105.908H277.12V109.748H272.511V109.747C271.304 109.752 270.125 109.4 269.135 108.74L268.938 108.604L268.809 108.509L268.849 108.352L269.002 107.762L269.02 107.697L269.068 107.65L270.83 105.967L270.872 105.928L270.927 105.912L271.541 105.728L271.624 105.704L271.703 105.739Z" fill="white" stroke="#0A0D0F" stroke-width="0.473862"/>
<path d="M272.851 98.3712C273.644 98.4126 274.423 98.6077 275.139 98.9464L275.44 99.0997C276.133 99.4765 276.742 99.9849 277.228 100.596L277.361 100.765L277.206 100.914L274.67 103.353L274.432 103.582L274.291 103.282C274.162 103.008 273.966 102.767 273.718 102.58C273.531 102.44 273.32 102.334 273.095 102.267L272.865 102.213C272.631 102.172 272.392 102.172 272.16 102.213L271.931 102.268C271.704 102.336 271.493 102.443 271.308 102.582L271.132 102.732C270.965 102.892 270.831 103.08 270.735 103.284L270.652 103.494C270.559 103.781 270.54 104.086 270.596 104.381L270.651 104.599C270.721 104.813 270.83 105.014 270.975 105.192L271.131 105.361C271.297 105.521 271.492 105.652 271.708 105.746L272.034 105.888L271.777 106.134L269.241 108.572L269.098 108.711L268.937 108.592C268.019 107.914 267.329 106.992 266.949 105.941L266.878 105.73C266.518 104.591 266.537 103.372 266.932 102.244L267.01 102.034C267.421 100.995 268.14 100.093 269.077 99.4415L269.267 99.3155C270.227 98.7012 271.354 98.369 272.509 98.3624L272.851 98.3712Z" fill="white" stroke="#0A0D0F" stroke-width="0.473862"/>
</g>
<path d="M55.4062 310.003C63.8036 310.003 70.6122 316.826 70.6123 325.244C70.6123 326.967 71.9014 328.615 73.7129 328.615H74.25C80.0833 328.615 84.8135 333.355 84.8135 339.203C84.8133 345.05 80.0832 349.789 74.25 349.789H37.6553C35.8704 349.789 34.1894 349.346 32.7158 348.564L32.7051 348.558L32.6943 348.553L32.2383 348.337C27.5708 346.029 24.3604 341.212 24.3604 335.644C24.3605 327.831 30.6806 321.498 38.4746 321.498C39.6209 321.498 40.6814 320.835 41.1826 319.814L41.2754 319.605C43.5126 313.979 48.9968 310.003 55.4062 310.003Z" fill="url(#paint11_linear_9684_114904)" stroke="url(#paint12_linear_9684_114904)" stroke-width="0.720863"/>
<g clip-path="url(#clip3_9684_114904)">
<path d="M48.5223 332.255C48.5223 332.593 48.558 332.868 48.6205 333.069C48.6919 333.27 48.7811 333.49 48.9061 333.728C48.9507 333.801 48.9686 333.874 48.9686 333.938C48.9686 334.03 48.915 334.121 48.799 334.213L48.2366 334.597C48.1563 334.652 48.0759 334.679 48.0045 334.679C47.9153 334.679 47.826 334.634 47.7367 334.551C47.6118 334.414 47.5046 334.268 47.4154 334.121C47.3261 333.966 47.2368 333.792 47.1387 333.581C46.4424 334.423 45.5676 334.844 44.5142 334.844C43.7644 334.844 43.1663 334.624 42.7289 334.185C42.2915 333.746 42.0684 333.16 42.0684 332.428C42.0684 331.651 42.3362 331.019 42.8807 330.544C43.4252 330.068 44.1483 329.83 45.0677 329.83C45.3712 329.83 45.6836 329.857 46.0139 329.903C46.3442 329.949 46.6834 330.022 47.0405 330.104V329.437C47.0405 328.741 46.8976 328.256 46.6209 327.973C46.3353 327.689 45.8532 327.552 45.1659 327.552C44.8534 327.552 44.5321 327.588 44.2018 327.671C43.8715 327.753 43.5502 327.854 43.2377 327.982C43.0949 328.046 42.9878 328.082 42.9253 328.101C42.8628 328.119 42.8182 328.128 42.7825 328.128C42.6575 328.128 42.595 328.037 42.595 327.845V327.396C42.595 327.25 42.6129 327.14 42.6575 327.076C42.7021 327.012 42.7825 326.948 42.9075 326.884C43.2199 326.719 43.5948 326.582 44.0322 326.472C44.4696 326.353 44.9338 326.298 45.4248 326.298C46.487 326.298 47.2636 326.545 47.7635 327.039C48.2545 327.533 48.5044 328.284 48.5044 329.29V332.255H48.5223ZM44.8981 333.645C45.1927 333.645 45.4962 333.59 45.8175 333.481C46.1389 333.371 46.4245 333.17 46.6655 332.895C46.8084 332.721 46.9155 332.529 46.969 332.31C47.0226 332.09 47.0583 331.825 47.0583 331.514V331.129C46.7994 331.065 46.5227 331.01 46.2371 330.974C45.9514 330.937 45.6747 330.919 45.398 330.919C44.7999 330.919 44.3625 331.038 44.0679 331.285C43.7733 331.532 43.6305 331.88 43.6305 332.337C43.6305 332.767 43.7376 333.087 43.9608 333.307C44.175 333.536 44.4875 333.645 44.8981 333.645ZM52.0661 334.634C51.9054 334.634 51.7983 334.606 51.7269 334.542C51.6555 334.487 51.593 334.359 51.5395 334.185L49.4417 327.113C49.3881 326.93 49.3614 326.811 49.3614 326.747C49.3614 326.6 49.4328 326.518 49.5756 326.518H50.4504C50.62 326.518 50.7361 326.545 50.7985 326.609C50.87 326.664 50.9235 326.792 50.9771 326.966L52.4767 333.023L53.8693 326.966C53.9139 326.783 53.9675 326.664 54.0389 326.609C54.1103 326.554 54.2353 326.518 54.396 326.518H55.1101C55.2797 326.518 55.3957 326.545 55.4671 326.609C55.5386 326.664 55.601 326.792 55.6367 326.966L57.0471 333.096L58.5914 326.966C58.645 326.783 58.7075 326.664 58.77 326.609C58.8414 326.554 58.9574 326.518 59.1181 326.518H59.9483C60.0911 326.518 60.1714 326.591 60.1714 326.747C60.1714 326.792 60.1625 326.838 60.1536 326.893C60.1447 326.948 60.1268 327.021 60.0911 327.122L57.9398 334.194C57.8862 334.377 57.8238 334.496 57.7523 334.551C57.6809 334.606 57.5649 334.643 57.4131 334.643H56.6454C56.4758 334.643 56.3598 334.615 56.2884 334.551C56.217 334.487 56.1545 334.368 56.1188 334.185L54.7352 328.284L53.3605 334.176C53.3158 334.359 53.2623 334.478 53.1909 334.542C53.1195 334.606 52.9945 334.634 52.8338 334.634H52.0661ZM63.5368 334.881C63.0726 334.881 62.6084 334.826 62.1621 334.716C61.7157 334.606 61.3676 334.487 61.1355 334.35C60.9927 334.268 60.8945 334.176 60.8588 334.094C60.8231 334.011 60.8052 333.92 60.8052 333.837V333.371C60.8052 333.179 60.8766 333.087 61.0105 333.087C61.0641 333.087 61.1177 333.096 61.1712 333.115C61.2248 333.133 61.3051 333.17 61.3944 333.206C61.6979 333.343 62.0282 333.453 62.3763 333.526C62.7334 333.6 63.0815 333.636 63.4386 333.636C64.0009 333.636 64.4383 333.536 64.7418 333.334C65.0454 333.133 65.206 332.84 65.206 332.465C65.206 332.209 65.1257 331.998 64.965 331.825C64.8043 331.651 64.5008 331.495 64.0634 331.349L62.7691 330.937C62.1174 330.727 61.6354 330.416 61.3408 330.004C61.0462 329.601 60.8945 329.153 60.8945 328.677C60.8945 328.293 60.9748 327.954 61.1355 327.662C61.2962 327.369 61.5104 327.113 61.7782 326.911C62.046 326.701 62.3495 326.545 62.7066 326.436C63.0637 326.326 63.4386 326.28 63.8313 326.28C64.0277 326.28 64.233 326.289 64.4294 326.317C64.6347 326.344 64.8222 326.381 65.0096 326.417C65.1882 326.463 65.3578 326.509 65.5185 326.564C65.6791 326.619 65.8041 326.673 65.8934 326.728C66.0183 326.802 66.1076 326.875 66.1612 326.957C66.2147 327.03 66.2415 327.131 66.2415 327.259V327.689C66.2415 327.881 66.1701 327.982 66.0362 327.982C65.9648 327.982 65.8487 327.945 65.697 327.872C65.1882 327.634 64.6169 327.515 63.9831 327.515C63.4743 327.515 63.0726 327.598 62.7959 327.771C62.5191 327.945 62.3763 328.211 62.3763 328.586C62.3763 328.842 62.4656 329.061 62.6441 329.235C62.8226 329.409 63.1529 329.583 63.626 329.739L64.8936 330.15C65.5363 330.361 66.0005 330.653 66.2772 331.029C66.5539 331.404 66.6878 331.834 66.6878 332.31C66.6878 332.703 66.6075 333.06 66.4557 333.371C66.2951 333.682 66.0808 333.956 65.8041 334.176C65.5274 334.405 65.1971 334.569 64.8133 334.688C64.4116 334.816 63.992 334.881 63.5368 334.881Z" fill="white"/>
<path fill-rule="evenodd" clip-rule="evenodd" d="M65.2243 339.347C62.2874 341.57 58.0205 342.75 54.3517 342.75C49.21 342.75 44.5771 340.802 41.0779 337.563C40.8012 337.306 41.0511 336.959 41.3814 337.16C45.1663 339.411 49.8349 340.774 54.6641 340.774C57.9223 340.774 61.5019 340.079 64.7958 338.651C65.2868 338.423 65.7063 338.981 65.2243 339.347Z" fill="white"/>
<path fill-rule="evenodd" clip-rule="evenodd" d="M66.4465 337.915C66.0716 337.42 63.9649 337.677 63.0098 337.796C62.7241 337.832 62.6795 337.576 62.9384 337.384C64.6166 336.176 67.3749 336.524 67.6962 336.926C68.0176 337.338 67.607 340.165 66.0359 341.519C65.7949 341.73 65.5628 341.62 65.6699 341.346C66.027 340.44 66.8214 338.399 66.4465 337.915Z" fill="white"/>
</g>
<rect x="258.31" y="310.004" width="39.6377" height="38.9595" rx="6.25297" fill="url(#paint13_linear_9684_114904)"/>
<rect x="258.31" y="310.004" width="39.6377" height="38.9595" rx="6.25297" stroke="url(#paint14_linear_9684_114904)" stroke-width="0.720863"/>
<path fill-rule="evenodd" clip-rule="evenodd" d="M267.904 322.65C267.388 322.65 266.969 323.069 266.969 323.586V327.672C266.969 328.189 267.388 328.608 267.904 328.608H286.996C287.513 328.608 287.932 328.189 287.932 327.672V323.586C287.932 323.069 287.513 322.65 286.996 322.65H267.904ZM285.784 325.631C285.784 326.302 285.241 326.845 284.57 326.845C283.9 326.845 283.357 326.302 283.357 325.631C283.357 324.961 283.9 324.417 284.57 324.417C285.241 324.417 285.784 324.961 285.784 325.631ZM268.604 325.631C268.604 325.373 268.813 325.164 269.071 325.164H274.554C274.812 325.164 275.022 325.373 275.022 325.631C275.022 325.89 274.812 326.099 274.554 326.099H269.071C268.813 326.099 268.604 325.89 268.604 325.631Z" fill="white"/>
<path fill-rule="evenodd" clip-rule="evenodd" d="M267.904 330.479C267.388 330.479 266.969 330.897 266.969 331.414V335.501C266.969 336.017 267.388 336.436 267.904 336.436H286.996C287.513 336.436 287.932 336.017 287.932 335.501V331.414C287.932 330.897 287.513 330.479 286.996 330.479H267.904ZM285.784 333.456C285.784 334.127 285.241 334.67 284.57 334.67C283.9 334.67 283.356 334.127 283.356 333.456C283.356 332.786 283.9 332.242 284.57 332.242C285.241 332.242 285.784 332.786 285.784 333.456ZM268.604 333.456C268.604 333.198 268.813 332.989 269.071 332.989H274.554C274.812 332.989 275.022 333.198 275.022 333.456C275.022 333.715 274.812 333.924 274.554 333.924H269.071C268.813 333.924 268.604 333.715 268.604 333.456Z" fill="white"/>
<rect x="145.056" y="80.2001" width="38.9595" height="38.9595" rx="6.25297" fill="url(#paint15_linear_9684_114904)"/>
<rect x="145.056" y="80.2001" width="38.9595" height="38.9595" rx="6.25297" stroke="url(#paint16_linear_9684_114904)" stroke-width="0.720863"/>
<path d="M163.716 97.8599L163.859 95.442C163.686 95.4618 163.515 95.4901 163.345 95.5267C162.406 95.7306 161.592 96.1734 160.955 96.7726L163.027 98.178L163.031 98.1761C163.101 98.2251 163.188 98.2539 163.281 98.2539C163.51 98.2539 163.696 98.0811 163.705 97.8648L163.716 97.8599Z" fill="white"/>
<path d="M167.952 96.7736C167.175 96.0458 166.162 95.5709 165.066 95.442L165.209 97.856L165.211 97.8569C165.215 97.9429 165.247 98.0253 165.304 98.0924C165.446 98.2632 165.703 98.2949 165.886 98.1672L165.893 98.1702L167.952 96.7736Z" fill="white"/>
<path d="M162.096 99.2949L160.204 97.6757C159.643 98.551 159.377 99.6007 159.5 100.681L161.925 100.011L161.927 100.003C162.014 99.9803 162.091 99.9317 162.147 99.8642C162.29 99.6933 162.264 99.4468 162.094 99.3048L162.096 99.2949Z" fill="white"/>
<path d="M169.327 99.1275C169.2 98.5996 168.987 98.1127 168.706 97.6767L166.825 99.288L166.826 99.2929C166.758 99.3493 166.711 99.4248 166.691 99.5087C166.64 99.7217 166.774 99.9342 166.992 99.9912L166.994 100.001L169.432 100.673C169.483 100.17 169.452 99.649 169.327 99.1275Z" fill="white"/>
<path d="M164.849 99.42H164.074L163.591 99.9952L163.764 100.714L164.462 101.035L165.157 100.715L165.33 99.9962L164.849 99.42Z" fill="white"/>
<path d="M166.656 101.399C166.624 101.393 166.591 101.39 166.558 101.392C166.503 101.394 166.448 101.408 166.395 101.432C166.19 101.527 166.1 101.76 166.19 101.959L166.187 101.963L167.16 104.214C168.099 103.641 168.801 102.786 169.168 101.8L166.66 101.394L166.656 101.399Z" fill="white"/>
<path d="M162.753 101.718C162.709 101.531 162.537 101.404 162.346 101.402C162.318 101.401 162.29 101.404 162.262 101.409L162.258 101.404L159.772 101.807C160.156 102.823 160.873 103.652 161.774 104.205L162.737 101.977L162.73 101.968C162.764 101.892 162.774 101.805 162.753 101.718Z" fill="white"/>
<path d="M164.645 102.418C164.583 102.389 164.515 102.375 164.446 102.378C164.372 102.38 164.3 102.402 164.237 102.439C164.174 102.477 164.122 102.53 164.087 102.592H164.085L162.862 104.708C163.709 104.984 164.643 105.046 165.58 104.842C165.746 104.806 165.909 104.762 166.07 104.711L164.845 102.591H164.835C164.794 102.518 164.729 102.457 164.645 102.418Z" fill="white"/>
<path fill-rule="evenodd" clip-rule="evenodd" d="M163.79 89.2083C163.975 89.1239 164.175 89.0754 164.38 89.0655C164.637 89.053 164.894 89.1021 165.126 89.2083L173.174 92.886C173.382 92.9812 173.565 93.1197 173.71 93.2912C173.854 93.4627 173.955 93.6629 174.007 93.8768L175.995 102.142C176.046 102.356 176.046 102.578 175.995 102.792C175.944 103.006 175.842 103.207 175.698 103.378L170.13 110.007C169.986 110.178 169.803 110.316 169.594 110.411C169.386 110.506 169.158 110.555 168.927 110.555L159.995 110.557C159.764 110.557 159.535 110.508 159.327 110.413C159.119 110.318 158.936 110.179 158.792 110.008L153.222 103.38C153.191 103.343 153.161 103.304 153.134 103.264C153.022 103.1 152.946 102.916 152.91 102.724C152.874 102.532 152.88 102.335 152.925 102.144L154.911 93.8787C154.962 93.6648 155.064 93.4647 155.208 93.2932C155.352 93.1216 155.535 92.9831 155.743 92.8879L163.79 89.2083ZM163.98 92.3789C163.98 92.0961 164.196 91.8668 164.462 91.8667C164.728 91.8667 164.943 92.0961 164.943 92.3789C164.943 92.3933 164.944 92.4094 164.944 92.4259C164.945 92.4554 164.945 92.4861 164.944 92.5099C164.94 92.6175 164.923 92.7085 164.905 92.8011C164.895 92.8488 164.886 92.897 164.879 92.9482L164.875 92.9732C164.836 93.2837 164.804 93.543 164.824 93.7844C164.84 93.8914 164.899 93.9426 164.955 93.9915C164.964 93.9993 164.973 94.007 164.981 94.0148C164.983 94.0483 164.988 94.1593 164.993 94.2207C166.524 94.3509 167.946 95.0211 168.991 96.0694L169.174 95.9443C169.182 95.9447 169.19 95.9453 169.199 95.946C169.268 95.9511 169.384 95.9596 169.466 95.9138C169.677 95.7783 169.869 95.5917 170.098 95.3683L170.116 95.3514C170.152 95.3145 170.185 95.2783 170.218 95.2424C170.283 95.1706 170.348 95.1003 170.434 95.0293C170.455 95.0118 170.484 94.9901 170.511 94.9701C170.521 94.9622 170.532 94.9546 170.541 94.9475C170.772 94.7711 171.093 94.7899 171.259 94.9889C171.425 95.1879 171.372 95.4921 171.141 95.6685C171.13 95.6768 171.118 95.6861 171.106 95.6957C171.082 95.7151 171.056 95.7355 171.035 95.7502C170.945 95.8137 170.86 95.8569 170.774 95.9007C170.728 95.9238 170.682 95.9472 170.635 95.9738C170.347 96.1441 170.108 96.2852 169.918 96.4554C169.841 96.5348 169.835 96.6104 169.83 96.683C169.83 96.6942 169.829 96.7054 169.828 96.7164C169.815 96.7278 169.786 96.7523 169.754 96.7794C169.72 96.8085 169.683 96.8407 169.657 96.8632C170.072 97.4546 170.383 98.1257 170.559 98.8596C170.734 99.5867 170.761 100.313 170.66 101.012L170.855 101.066C170.859 101.071 170.864 101.078 170.869 101.085C170.907 101.139 170.974 101.233 171.063 101.266C171.308 101.34 171.584 101.367 171.916 101.401L171.926 101.402C171.981 101.406 172.032 101.408 172.084 101.41C172.182 101.414 172.278 101.417 172.388 101.437C172.413 101.442 172.446 101.449 172.477 101.457C172.495 101.461 172.513 101.465 172.528 101.469C172.812 101.534 172.994 101.784 172.936 102.03C172.877 102.276 172.6 102.426 172.314 102.367C172.312 102.366 172.309 102.366 172.307 102.366C172.304 102.365 172.301 102.364 172.298 102.363C172.283 102.36 172.267 102.357 172.251 102.354C172.224 102.348 172.195 102.343 172.173 102.337C172.065 102.31 171.976 102.273 171.886 102.235C171.839 102.216 171.792 102.196 171.741 102.178L171.726 102.173C171.414 102.066 171.154 101.976 170.901 101.941C170.789 101.933 170.723 101.976 170.661 102.017C170.651 102.024 170.641 102.031 170.631 102.037C170.596 102.03 170.488 102.012 170.426 102.002C169.964 103.39 168.981 104.592 167.649 105.345C167.656 105.362 167.665 105.385 167.675 105.41C167.695 105.461 167.717 105.518 167.729 105.531C167.725 105.542 167.721 105.553 167.716 105.563C167.688 105.631 167.659 105.7 167.692 105.803C167.786 106.035 167.937 106.262 168.119 106.535C168.15 106.578 168.18 106.618 168.21 106.657C168.268 106.733 168.325 106.807 168.378 106.902C168.391 106.926 168.407 106.959 168.422 106.989C168.428 107.003 168.435 107.015 168.44 107.026C168.564 107.28 168.473 107.572 168.236 107.681C167.996 107.792 167.698 107.675 167.57 107.42C167.564 107.409 167.558 107.397 167.552 107.385C167.537 107.357 167.521 107.326 167.51 107.302C167.465 107.203 167.439 107.113 167.413 107.022C167.4 106.975 167.386 106.928 167.37 106.88L167.365 106.867C167.258 106.566 167.169 106.316 167.04 106.105C166.976 106.014 166.9 105.993 166.827 105.972C166.816 105.968 166.805 105.965 166.794 105.962C166.786 105.949 166.766 105.915 166.745 105.878C166.726 105.845 166.705 105.809 166.691 105.784C166.421 105.882 166.145 105.962 165.864 106.023C164.615 106.294 163.364 106.184 162.246 105.774L162.137 105.963C162.056 105.984 161.977 106.005 161.929 106.059C161.806 106.2 161.735 106.401 161.659 106.614C161.627 106.704 161.594 106.796 161.556 106.888C161.54 106.937 161.526 106.985 161.513 107.032C161.487 107.123 161.462 107.212 161.417 107.31C161.407 107.333 161.392 107.361 161.378 107.389C161.371 107.402 161.364 107.415 161.358 107.427C161.358 107.427 161.358 107.427 161.358 107.427C161.358 107.428 161.358 107.428 161.358 107.428C161.358 107.429 161.357 107.429 161.357 107.429C161.357 107.429 161.357 107.429 161.357 107.429C161.228 107.683 160.931 107.8 160.692 107.689C160.454 107.58 160.363 107.288 160.487 107.034C160.494 107.021 160.501 107.005 160.509 106.989C160.523 106.962 160.537 106.932 160.549 106.91C160.602 106.815 160.659 106.74 160.717 106.663C160.747 106.624 160.777 106.585 160.807 106.542C160.989 106.269 161.15 106.024 161.243 105.792C161.267 105.715 161.232 105.609 161.2 105.531L161.288 105.33C160.006 104.603 158.993 103.445 158.51 102.011L158.3 102.046C158.294 102.042 158.287 102.038 158.279 102.034C158.218 102.001 158.119 101.945 158.023 101.952C157.77 101.987 157.51 102.076 157.198 102.184L157.183 102.189C157.134 102.207 157.087 102.226 157.041 102.245C156.95 102.282 156.86 102.319 156.751 102.347C156.726 102.354 156.694 102.36 156.663 102.366C156.65 102.369 156.638 102.371 156.627 102.374C156.625 102.374 156.624 102.375 156.622 102.375C156.621 102.376 156.619 102.376 156.617 102.377C156.616 102.377 156.615 102.377 156.614 102.377C156.613 102.377 156.611 102.377 156.61 102.378C156.325 102.437 156.047 102.287 155.989 102.041C155.93 101.795 156.112 101.545 156.396 101.479C156.398 101.479 156.401 101.478 156.403 101.477L156.407 101.476C156.42 101.474 156.433 101.471 156.447 101.467C156.478 101.46 156.51 101.453 156.536 101.448C156.646 101.428 156.742 101.424 156.84 101.421C156.892 101.419 156.944 101.417 156.998 101.412L157.009 101.411C157.341 101.378 157.617 101.35 157.862 101.277C157.931 101.249 157.998 101.165 158.049 101.101C158.056 101.092 158.062 101.084 158.069 101.077L158.27 101.02C158.044 99.5225 158.427 98.0524 159.253 96.8622L159.099 96.7302C159.098 96.7239 159.097 96.7167 159.095 96.7088C159.085 96.6443 159.068 96.5315 159.002 96.4643C158.813 96.2941 158.574 96.153 158.286 95.9829C158.239 95.9565 158.193 95.9331 158.148 95.9102C158.062 95.8661 157.977 95.8228 157.886 95.7591C157.866 95.7444 157.84 95.7242 157.815 95.7048C157.805 95.697 157.796 95.6894 157.787 95.6823C157.785 95.6815 157.784 95.6807 157.783 95.68C157.782 95.6791 157.781 95.6783 157.779 95.6773C157.548 95.501 157.495 95.1968 157.661 94.9978C157.754 94.8858 157.897 94.8304 158.045 94.8353C158.16 94.839 158.279 94.8793 158.38 94.9564C158.389 94.9632 158.399 94.9706 158.409 94.9783C158.437 94.9985 158.466 95.0206 158.487 95.0381C158.573 95.1086 158.636 95.1784 158.701 95.2496C158.734 95.2861 158.768 95.3228 158.804 95.3602L158.813 95.3683C159.046 95.5956 159.241 95.7844 159.454 95.9216C159.552 95.9764 159.63 95.9645 159.706 95.9531C159.717 95.9514 159.729 95.9497 159.74 95.9482C159.797 95.9883 159.855 96.0277 159.914 96.0664C160.734 95.234 161.81 94.6175 163.061 94.3457C163.348 94.2836 163.639 94.2408 163.932 94.2177L163.943 94.0227C164.007 93.9633 164.079 93.8778 164.099 93.7844C164.12 93.5381 164.087 93.2733 164.047 92.9544L164.046 92.9482C164.038 92.8971 164.029 92.849 164.02 92.8013C164.002 92.7086 163.984 92.6176 163.98 92.5099C163.979 92.4872 163.98 92.4586 163.98 92.4305C163.981 92.4172 163.981 92.404 163.981 92.3917C163.981 92.3896 163.981 92.3876 163.981 92.3856C163.98 92.3834 163.98 92.3812 163.98 92.3789Z" fill="white"/>
<g clip-path="url(#clip4_9684_114904)">
<rect width="26.4019" height="18.8585" transform="translate(96.502 281.199)" fill="#0E1214"/>
<mask id="mask1_9684_114904" style="mask-type:luminance" maskUnits="userSpaceOnUse" x="98" y="283" width="23" height="26">
<path d="M98.2988 283.272H120.998V308.009H98.2988V283.272Z" fill="white"/>
</mask>
<g mask="url(#mask1_9684_114904)">
<path d="M106.133 291.127L104.939 290.384L104.964 291.52L106.158 292.263L106.133 291.127ZM107.853 295.103L107.828 293.992L106.784 293.34C106.768 293.332 106.751 293.315 106.743 293.307L106.768 294.426L107.853 295.103ZM104.12 296.597L101.389 294.902L101.323 292.063L102.659 291.486L102.634 290.351L100.496 291.269C100.329 291.344 100.228 291.495 100.237 291.67L100.32 295.078C100.32 295.253 100.429 295.428 100.596 295.528L103.87 297.558C104.02 297.65 104.204 297.675 104.362 297.633C104.379 297.625 104.396 297.625 104.413 297.616L106.425 296.748L105.331 296.071L104.12 296.597Z" fill="#33373A"/>
</g>
<mask id="mask2_9684_114904" style="mask-type:luminance" maskUnits="userSpaceOnUse" x="98" y="283" width="23" height="26">
<path d="M98.2988 283.272H120.998V308.009H98.2988V283.272Z" fill="white"/>
</mask>
<g mask="url(#mask2_9684_114904)">
<path d="M112.944 290.319C112.936 290.119 112.819 289.91 112.619 289.793L108.643 287.329L108.518 287.379L108.543 288.574L111.692 290.528L111.767 293.718L112.969 294.462L113.036 294.436L112.944 290.319ZM108.184 295.923L104.484 293.635L104.392 289.793L106.079 289.066L106.046 287.739L103.432 288.866C103.24 288.95 103.123 289.125 103.131 289.334L103.24 293.844C103.24 294.052 103.365 294.253 103.566 294.37L107.9 297.059C108.075 297.167 108.293 297.201 108.476 297.142C108.493 297.134 108.51 297.126 108.526 297.126L111.082 296.023L109.812 295.238L108.184 295.923Z" fill="#33373A"/>
</g>
<mask id="mask3_9684_114904" style="mask-type:luminance" maskUnits="userSpaceOnUse" x="98" y="283" width="23" height="26">
<path d="M98.2988 283.272H120.998V308.009H98.2988V283.272Z" fill="white"/>
</mask>
<g mask="url(#mask3_9684_114904)">
<path d="M118.586 287.159L113.032 283.719C112.823 283.593 112.581 283.56 112.372 283.627C112.355 283.635 112.33 283.643 112.314 283.652L106.894 285.99C106.676 286.082 106.543 286.283 106.551 286.525L106.685 292.304C106.693 292.538 106.835 292.772 107.061 292.905L112.614 296.346C112.815 296.471 113.065 296.505 113.274 296.438C113.291 296.43 113.316 296.421 113.333 296.413L118.753 294.074C118.97 293.983 119.103 293.774 119.095 293.54L118.961 287.761C118.953 287.527 118.811 287.301 118.586 287.159ZM112.94 295.052L108.113 292.062L107.996 287.042L112.706 285.013L117.533 288.003L117.65 293.022L112.94 295.052Z" fill="#33373A"/>
</g>
</g>
<g clip-path="url(#clip5_9684_114904)">
<rect width="26.4019" height="18.8585" transform="translate(207.818 281.199)" fill="#0E1214"/>
<mask id="mask4_9684_114904" style="mask-type:luminance" maskUnits="userSpaceOnUse" x="209" y="283" width="24" height="26">
<path d="M209.615 283.272H232.315V308.009H209.615V283.272Z" fill="white"/>
</mask>
<g mask="url(#mask4_9684_114904)">
<path d="M217.449 291.127L216.255 290.384L216.28 291.52L217.474 292.263L217.449 291.127ZM219.17 295.103L219.145 293.992L218.101 293.34C218.084 293.332 218.067 293.315 218.059 293.307L218.084 294.426L219.17 295.103ZM215.437 296.597L212.706 294.902L212.639 292.063L213.975 291.486L213.95 290.351L211.812 291.269C211.645 291.344 211.545 291.495 211.553 291.67L211.637 295.078C211.637 295.253 211.745 295.428 211.912 295.528L215.186 297.558C215.336 297.65 215.52 297.675 215.679 297.633C215.696 297.625 215.712 297.625 215.729 297.616L217.742 296.748L216.648 296.071L215.437 296.597Z" fill="#33373A"/>
</g>
<mask id="mask5_9684_114904" style="mask-type:luminance" maskUnits="userSpaceOnUse" x="209" y="283" width="24" height="26">
<path d="M209.615 283.272H232.315V308.009H209.615V283.272Z" fill="white"/>
</mask>
<g mask="url(#mask5_9684_114904)">
<path d="M224.261 290.319C224.252 290.119 224.135 289.91 223.935 289.793L219.96 287.329L219.834 287.379L219.859 288.574L223.008 290.528L223.083 293.718L224.286 294.462L224.353 294.436L224.261 290.319ZM219.5 295.923L215.801 293.635L215.709 289.793L217.396 289.066L217.362 287.739L214.748 288.866C214.556 288.95 214.439 289.125 214.448 289.334L214.556 293.844C214.556 294.052 214.682 294.253 214.882 294.37L219.216 297.059C219.392 297.167 219.609 297.201 219.793 297.142C219.809 297.134 219.826 297.126 219.843 297.126L222.398 296.023L221.129 295.238L219.5 295.923Z" fill="#33373A"/>
</g>
<mask id="mask6_9684_114904" style="mask-type:luminance" maskUnits="userSpaceOnUse" x="209" y="283" width="24" height="26">
<path d="M209.615 283.272H232.315V308.009H209.615V283.272Z" fill="white"/>
</mask>
<g mask="url(#mask6_9684_114904)">
<path d="M229.902 287.159L224.348 283.719C224.14 283.593 223.897 283.56 223.689 283.627C223.672 283.635 223.647 283.643 223.63 283.652L218.21 285.99C217.993 286.082 217.859 286.283 217.868 286.525L218.001 292.304C218.01 292.538 218.152 292.772 218.377 292.905L223.931 296.346C224.131 296.471 224.382 296.505 224.591 296.438C224.607 296.43 224.632 296.421 224.649 296.413L230.069 294.074C230.286 293.983 230.42 293.774 230.412 293.54L230.278 287.761C230.27 287.527 230.128 287.301 229.902 287.159ZM224.256 295.052L219.429 292.062L219.312 287.042L224.023 285.013L228.85 288.003L228.967 293.022L224.256 295.052Z" fill="#33373A"/>
</g>
</g>
</g>
<rect x="0.311567" y="0.651533" width="333.377" height="428.377" rx="9.65858" stroke="url(#paint17_linear_9684_114904)" stroke-opacity="0.47" stroke-width="0.623134"/>
<defs>
<filter id="filter0_i_9684_114904" x="122.842" y="171.315" width="82.5586" height="83.3856" filterUnits="userSpaceOnUse" color-interpolation-filters="sRGB">
<feFlood flood-opacity="0" result="BackgroundImageFix"/>
<feBlend mode="normal" in="SourceGraphic" in2="BackgroundImageFix" result="shape"/>
<feColorMatrix in="SourceAlpha" type="matrix" values="0 0 0 0 0 0 0 0 0 0 0 0 0 0 0 0 0 0 127 0" result="hardAlpha"/>
<feOffset dy="0.826675"/>
<feGaussianBlur stdDeviation="0.826675"/>
<feComposite in2="hardAlpha" operator="arithmetic" k2="-1" k3="1"/>
<feColorMatrix type="matrix" values="0 0 0 0 0 0 0 0 0 0 0 0 0 0 0 0 0 0 1 0"/>
<feBlend mode="normal" in2="shape" result="effect1_innerShadow_9684_114904"/>
</filter>
<linearGradient id="paint0_linear_9684_114904" x1="167" y1="0.339966" x2="167" y2="429.34" gradientUnits="userSpaceOnUse">
<stop stop-color="#161C20"/>
<stop offset="1" stop-color="#0A0D0F"/>
</linearGradient>
<radialGradient id="paint1_radial_9684_114904" cx="0" cy="0" r="1" gradientUnits="userSpaceOnUse" gradientTransform="translate(165.713 215) rotate(90) scale(223 199.689)">
<stop stop-color="#D9D9D9" stop-opacity="0.3"/>
<stop offset="1" stop-color="#737373"/>
</radialGradient>
<linearGradient id="paint2_linear_9684_114904" x1="164.122" y1="212.568" x2="164.122" y2="258.619" gradientUnits="userSpaceOnUse">
<stop stop-color="#3B3D3F" stop-opacity="0.5"/>
<stop offset="1" stop-color="#3B3D3F" stop-opacity="0.89"/>
</linearGradient>
<linearGradient id="paint3_linear_9684_114904" x1="164.109" y1="170.924" x2="164.142" y2="253.874" gradientUnits="userSpaceOnUse">
<stop stop-color="#1E1E1F" stop-opacity="0"/>
<stop offset="1" stop-color="#1E1E1F" stop-opacity="0.8"/>
</linearGradient>
<linearGradient id="paint4_linear_9684_114904" x1="164.122" y1="175.753" x2="164.122" y2="249.439" gradientUnits="userSpaceOnUse">
<stop stop-color="#3B3D3F" stop-opacity="0.2"/>
<stop offset="1" stop-color="#3B3D3F" stop-opacity="0.4"/>
</linearGradient>
<linearGradient id="paint5_linear_9684_114904" x1="54.8721" y1="79.0001" x2="54.8721" y2="119.507" gradientUnits="userSpaceOnUse">
<stop stop-color="#161C20"/>
<stop offset="1" stop-color="#0A0D0F"/>
</linearGradient>
<linearGradient id="paint6_linear_9684_114904" x1="54.8721" y1="99.2401" x2="54.8721" y2="119.507" gradientUnits="userSpaceOnUse">
<stop stop-color="#3B3D3F" stop-opacity="0.5"/>
<stop offset="1" stop-color="#3B3D3F" stop-opacity="0.89"/>
</linearGradient>
<linearGradient id="paint7_linear_9684_114904" x1="53.5674" y1="96.1885" x2="48.9103" y2="109.947" gradientUnits="userSpaceOnUse">
<stop stop-color="#C5C5C5"/>
<stop offset="1" stop-color="#EBECEC"/>
</linearGradient>
<linearGradient id="paint8_linear_9684_114904" x1="55.0232" y1="102.6" x2="53.9459" y2="102.964" gradientUnits="userSpaceOnUse">
<stop stop-opacity="0.3"/>
<stop offset="0.071" stop-opacity="0.2"/>
<stop offset="0.321" stop-opacity="0.1"/>
<stop offset="0.623" stop-opacity="0.05"/>
<stop offset="1" stop-opacity="0"/>
</linearGradient>
<linearGradient id="paint9_linear_9684_114904" x1="276.962" y1="79.0001" x2="276.962" y2="119.507" gradientUnits="userSpaceOnUse">
<stop stop-color="#161C20"/>
<stop offset="1" stop-color="#0A0D0F"/>
</linearGradient>
<linearGradient id="paint10_linear_9684_114904" x1="276.962" y1="99.2401" x2="276.962" y2="119.507" gradientUnits="userSpaceOnUse">
<stop stop-color="#3B3D3F" stop-opacity="0.5"/>
<stop offset="1" stop-color="#3B3D3F" stop-opacity="0.89"/>
</linearGradient>
<linearGradient id="paint11_linear_9684_114904" x1="54.587" y1="309.643" x2="54.587" y2="350.15" gradientUnits="userSpaceOnUse">
<stop stop-color="#161C20"/>
<stop offset="1" stop-color="#0A0D0F"/>
</linearGradient>
<linearGradient id="paint12_linear_9684_114904" x1="54.587" y1="329.883" x2="54.587" y2="350.15" gradientUnits="userSpaceOnUse">
<stop stop-color="#3B3D3F" stop-opacity="0.5"/>
<stop offset="1" stop-color="#3B3D3F" stop-opacity="0.89"/>
</linearGradient>
<linearGradient id="paint13_linear_9684_114904" x1="278.128" y1="309.644" x2="278.128" y2="349.324" gradientUnits="userSpaceOnUse">
<stop stop-color="#161C20"/>
<stop offset="1" stop-color="#0A0D0F"/>
</linearGradient>
<linearGradient id="paint14_linear_9684_114904" x1="278.128" y1="329.471" x2="278.128" y2="349.324" gradientUnits="userSpaceOnUse">
<stop stop-color="#3B3D3F" stop-opacity="0.5"/>
<stop offset="1" stop-color="#3B3D3F" stop-opacity="0.89"/>
</linearGradient>
<linearGradient id="paint15_linear_9684_114904" x1="164.536" y1="79.8396" x2="164.536" y2="119.52" gradientUnits="userSpaceOnUse">
<stop stop-color="#161C20"/>
<stop offset="1" stop-color="#0A0D0F"/>
</linearGradient>
<linearGradient id="paint16_linear_9684_114904" x1="164.536" y1="99.6665" x2="164.536" y2="119.52" gradientUnits="userSpaceOnUse">
<stop stop-color="#3B3D3F" stop-opacity="0.5"/>
<stop offset="1" stop-color="#3B3D3F" stop-opacity="0.89"/>
</linearGradient>
<linearGradient id="paint17_linear_9684_114904" x1="167" y1="0.339966" x2="167" y2="429.34" gradientUnits="userSpaceOnUse">
<stop stop-color="#3B3D3F" stop-opacity="0.4"/>
<stop offset="1" stop-color="#3B3D3F"/>
</linearGradient>
<clipPath id="clip0_9684_114904">
<rect y="0.339966" width="334" height="429" rx="9.97015" fill="white"/>
</clipPath>
<clipPath id="clip1_9684_114904">
<rect width="16.5335" height="16.5335" fill="white" transform="translate(46.1914 94.0026)"/>
</clipPath>
<clipPath id="clip2_9684_114904">
<rect width="21.4936" height="16.5335" fill="white" transform="translate(266.215 93.8808)"/>
</clipPath>
<clipPath id="clip3_9684_114904">
<rect width="27.1368" height="16.6521" fill="white" transform="translate(40.8086 326.177)"/>
</clipPath>
<clipPath id="clip4_9684_114904">
<rect width="26.4019" height="18.8585" fill="white" transform="translate(96.502 281.199)"/>
</clipPath>
<clipPath id="clip5_9684_114904">
<rect width="26.4019" height="18.8585" fill="white" transform="translate(207.818 281.199)"/>
</clipPath>
</defs>
</svg>
