<svg width="335" height="256" viewBox="0 0 335 256" fill="none" xmlns="http://www.w3.org/2000/svg">
<g clip-path="url(#clip0_9684_114771)">
<rect x="0.5" width="334" height="255.485" rx="9.97015" fill="url(#paint0_linear_9684_114771)"/>
<mask id="mask0_9684_114771" style="mask-type:alpha" maskUnits="userSpaceOnUse" x="-4" y="-8" width="340" height="306">
<path d="M-3.42773 -7.61621H335.854V297.073H-3.42773V-7.61621Z" fill="url(#paint1_radial_9684_114771)"/>
</mask>
<g mask="url(#mask0_9684_114771)">
<path d="M20.668 3.01282V296.509" stroke="#181E22" stroke-width="0.623134"/>
<path d="M62.418 3.01282V296.509" stroke="#181E22" stroke-width="0.623134"/>
<path d="M104.168 3.01282V296.509" stroke="#181E22" stroke-width="0.623134"/>
<path d="M145.918 3.01282V296.509" stroke="#181E22" stroke-width="0.623134"/>
<path d="M187.668 3.01282V296.509" stroke="#181E22" stroke-width="0.623134"/>
<path d="M229.418 3.01282V296.509" stroke="#181E22" stroke-width="0.623134"/>
<path d="M271.168 3.01282V296.509" stroke="#181E22" stroke-width="0.623134"/>
<path d="M312.918 3.01282V296.509" stroke="#181E22" stroke-width="0.623134"/>
<rect x="-47.7212" y="9.3998" width="387.278" height="0.311567" fill="#2E2E38" stroke="#181E22" stroke-width="0.311567"/>
<rect x="-47.7212" y="34.9483" width="387.278" height="0.311567" fill="#2E2E38" stroke="#181E22" stroke-width="0.311567"/>
<rect x="-47.7212" y="60.4968" width="387.278" height="0.311567" fill="#2E2E38" stroke="#181E22" stroke-width="0.311567"/>
<rect x="-47.7212" y="86.0453" width="387.278" height="0.311567" fill="#2E2E38" stroke="#181E22" stroke-width="0.311567"/>
<rect x="-47.7212" y="111.594" width="387.278" height="0.311567" fill="#2E2E38" stroke="#181E22" stroke-width="0.311567"/>
<rect x="-47.7212" y="137.142" width="387.278" height="0.311567" fill="#2E2E38" stroke="#181E22" stroke-width="0.311567"/>
<rect x="-47.7212" y="162.691" width="387.278" height="0.311567" fill="#2E2E38" stroke="#181E22" stroke-width="0.311567"/>
<rect x="-47.7212" y="188.239" width="387.278" height="0.311567" fill="#2E2E38" stroke="#181E22" stroke-width="0.311567"/>
<rect x="-47.7212" y="213.788" width="387.278" height="0.311567" fill="#2E2E38" stroke="#181E22" stroke-width="0.311567"/>
<rect x="-47.7212" y="239.336" width="387.278" height="0.311567" fill="#2E2E38" stroke="#181E22" stroke-width="0.311567"/>
</g>
<path d="M166.657 163.707C166.778 163.586 166.976 163.586 167.097 163.707L169.08 165.69C169.202 165.812 169.202 166.009 169.08 166.131C168.958 166.252 168.761 166.252 168.639 166.131L166.877 164.368L165.114 166.131C164.993 166.252 164.796 166.252 164.674 166.131C164.552 166.009 164.552 165.812 164.674 165.69L166.657 163.707ZM251.312 201.939C251.312 202.111 251.172 202.25 251 202.25C250.828 202.25 250.689 202.111 250.689 201.939H251.312ZM167.189 163.928V183.731H166.565V163.928H167.189ZM171.862 188.404H246.015V189.027H171.862V188.404ZM251.312 193.701V201.939H250.689V193.701H251.312ZM246.015 188.404C248.94 188.404 251.312 190.776 251.312 193.701H250.689C250.689 191.12 248.596 189.027 246.015 189.027V188.404ZM167.189 183.731C167.189 186.312 169.281 188.404 171.862 188.404V189.027C168.937 189.027 166.565 186.656 166.565 183.731H167.189Z" fill="#33373A"/>
<path d="M166.877 177.013V183.947C166.877 186.701 164.645 188.933 161.892 188.933H87.7389C84.9857 188.933 82.7538 191.164 82.7538 193.918V201.939" stroke="#33373A" stroke-width="0.623134" stroke-linecap="round"/>
<path d="M166.657 93.5675C166.778 93.6891 166.976 93.6891 167.097 93.5675L169.08 91.5847C169.202 91.463 169.202 91.2657 169.08 91.144C168.958 91.0224 168.761 91.0224 168.639 91.144L166.877 92.9065L165.114 91.144C164.993 91.0224 164.796 91.0224 164.674 91.144C164.552 91.2657 164.552 91.463 164.674 91.5847L166.657 93.5675ZM167.189 57.8285C167.189 57.6564 167.049 57.5169 166.877 57.5169C166.705 57.5169 166.565 57.6564 166.565 57.8285L167.189 57.8285ZM167.189 93.3471L167.189 57.8285L166.565 57.8285L166.565 93.3471L167.189 93.3471Z" fill="#33373A"/>
<path d="M131.578 128.646C131.699 128.767 131.699 128.964 131.578 129.086L129.595 131.069C129.473 131.191 129.276 131.191 129.154 131.069C129.033 130.947 129.033 130.75 129.154 130.628L130.917 128.866L129.154 127.103C129.033 126.982 129.033 126.784 129.154 126.663C129.276 126.541 129.473 126.541 129.595 126.663L131.578 128.646ZM83.0645 59.0748C83.0645 58.9027 83.204 58.7632 83.3761 58.7632C83.5482 58.7632 83.6876 58.9027 83.6876 59.0748H83.0645ZM131.357 129.177H88.3612V128.554H131.357V129.177ZM83.0645 123.881V59.0748H83.6876V123.881H83.0645ZM88.3612 129.177C85.4359 129.177 83.0645 126.806 83.0645 123.881H83.6876C83.6876 126.462 85.7801 128.554 88.3612 128.554V129.177Z" fill="#33373A"/>
<path d="M201.553 128.646C201.431 128.767 201.431 128.964 201.553 129.086L203.536 131.069C203.658 131.191 203.855 131.191 203.977 131.069C204.098 130.947 204.098 130.75 203.977 130.628L202.214 128.866L203.977 127.103C204.098 126.982 204.098 126.784 203.977 126.663C203.855 126.541 203.658 126.541 203.536 126.663L201.553 128.646ZM251.936 59.0748C251.936 58.9027 251.796 58.7632 251.624 58.7632C251.452 58.7632 251.313 58.9027 251.313 59.0748H251.936ZM201.773 129.177H246.639V128.554H201.773V129.177ZM251.936 123.881V59.0748H251.313V123.881H251.936ZM246.639 129.177C249.564 129.177 251.936 126.806 251.936 123.881H251.313C251.313 126.462 249.22 128.554 246.639 128.554V129.177Z" fill="#33373A"/>
<rect x="132.189" y="94.367" width="68.7556" height="68.7556" rx="34.3778" fill="#0A0D0F" stroke="url(#paint2_linear_9684_114771)" stroke-width="0.623134"/>
<rect x="122.05" y="84.2265" width="89.0303" height="89.0303" rx="44.5152" stroke="#3B3D3F" stroke-width="0.623134" stroke-dasharray="0.62 2.49"/>
<g filter="url(#filter0_i_9684_114771)">
<rect x="135.449" y="97.6263" width="62.2316" height="62.2316" rx="31.1158" fill="#060809"/>
</g>
<rect x="135.761" y="97.9379" width="61.6084" height="61.6084" rx="30.8042" stroke="url(#paint3_linear_9684_114771)" stroke-width="0.623134"/>
<rect x="139.36" y="101.282" width="54.4107" height="54.9203" rx="27.2054" fill="#0A0D0F" stroke="url(#paint4_linear_9684_114771)" stroke-width="0.623134"/>
<path d="M166.599 111.902C167.102 111.902 167.511 112.31 167.511 112.814V113.717C167.511 113.773 167.506 113.828 167.496 113.881C167.7 113.929 167.9 113.994 168.095 114.074C168.569 114.271 169 114.559 169.363 114.922C169.726 115.285 170.014 115.716 170.21 116.19C170.365 116.565 170.461 116.961 170.494 117.364H171.175C171.696 117.364 172.119 117.787 172.119 118.309C172.119 118.83 171.696 119.253 171.175 119.253H170.657L170.835 121.614H171.175C171.696 121.614 172.119 122.037 172.119 122.559C172.119 123.08 171.696 123.503 171.175 123.503H170.978L172.308 141.131H173.214C173.754 141.131 174.192 141.569 174.192 142.109C174.192 142.65 173.754 143.088 173.214 143.088H159.914C159.374 143.088 158.936 142.65 158.936 142.109C158.936 141.569 159.374 141.131 159.914 141.131H160.919L162.203 123.503H162.052C161.53 123.503 161.107 123.08 161.107 122.559C161.108 122.037 161.53 121.614 162.052 121.614H162.341L162.513 119.253H162.052C161.53 119.253 161.107 118.83 161.107 118.309C161.108 117.787 161.53 117.364 162.052 117.364H162.703C162.736 116.961 162.832 116.565 162.987 116.19C163.184 115.716 163.471 115.285 163.834 114.922C164.197 114.559 164.628 114.271 165.103 114.074C165.297 113.994 165.498 113.929 165.702 113.881C165.693 113.828 165.688 113.773 165.688 113.717V112.814C165.688 112.31 166.096 111.903 166.599 111.902ZM165.979 137.549C165.807 137.549 165.668 137.688 165.668 137.86V140.884C165.668 141.056 165.808 141.195 165.979 141.195H167.25C167.422 141.195 167.561 141.056 167.562 140.884V137.86C167.562 137.688 167.422 137.549 167.25 137.549H165.979ZM164.66 119.21C164.496 119.21 164.359 119.338 164.349 119.502L164.231 121.352C164.22 121.531 164.363 121.683 164.543 121.683H168.688C168.869 121.683 169.012 121.529 168.999 121.349L168.864 119.499C168.852 119.336 168.717 119.21 168.554 119.21H164.66Z" fill="#FFCB5C"/>
<path d="M84.832 28.3115C91.1617 28.3117 96.2939 33.4548 96.2939 39.7998C96.294 41.0989 97.2655 42.3408 98.6309 42.3408H99.0361C103.433 42.341 106.998 45.9132 106.998 50.3213C106.998 54.7293 103.433 58.3016 99.0361 58.3018H71.4512C70.1057 58.3018 68.8383 57.9679 67.7275 57.3779L67.7119 57.3701L67.3682 57.207C63.85 55.4675 61.4298 51.8369 61.4297 47.6396C61.4297 41.7504 66.1934 36.9767 72.0684 36.9766C72.9327 36.9766 73.7326 36.4763 74.1104 35.7061L74.1797 35.5488C75.8661 31.3078 80.0007 28.3115 84.832 28.3115Z" fill="url(#paint5_linear_9684_114771)" stroke="url(#paint6_linear_9684_114771)" stroke-width="0.543375"/>
<path d="M81.9996 40.1986H85.3798L81.8708 50.5954C81.8348 50.7023 81.7661 50.7951 81.6745 50.8609C81.5829 50.9266 81.473 50.962 81.3602 50.962H78.7296C78.6441 50.962 78.5599 50.9417 78.4839 50.9027C78.4079 50.8637 78.3423 50.8072 78.2924 50.7378C78.2426 50.6684 78.21 50.5881 78.1973 50.5037C78.1847 50.4192 78.1923 50.3329 78.2196 50.2519L81.4889 40.5652C81.5249 40.4583 81.5936 40.3654 81.6852 40.2996C81.7769 40.2338 81.8868 40.1986 81.9996 40.1986Z" fill="url(#paint7_linear_9684_114771)"/>
<path d="M86.9113 47.1734H81.5511C81.5013 47.1733 81.4526 47.1883 81.4114 47.2163C81.3701 47.2443 81.3383 47.2841 81.32 47.3305C81.3018 47.3768 81.2979 47.4276 81.3088 47.4762C81.3198 47.5248 81.3452 47.569 81.3817 47.603L84.8261 50.8178C84.9263 50.9114 85.0584 50.9634 85.1955 50.9634H88.2307L86.9113 47.1734Z" fill="#EBECEC"/>
<path d="M82.0009 40.1984C81.8868 40.198 81.7757 40.234 81.6836 40.3013C81.5915 40.3685 81.5233 40.4634 81.489 40.5722L78.2249 50.243C78.1958 50.3242 78.1866 50.4113 78.1983 50.4968C78.2099 50.5823 78.2419 50.6638 78.2917 50.7343C78.3415 50.8049 78.4075 50.8624 78.4842 50.902C78.5608 50.9416 78.646 50.9621 78.7323 50.9619H81.4308C81.5313 50.9439 81.6253 50.8996 81.703 50.8335C81.7808 50.7674 81.8396 50.6817 81.8735 50.5854L82.5244 48.6671L84.8495 50.8357C84.9469 50.9163 85.0692 50.9609 85.1956 50.9619H88.2195L86.8932 47.172L83.0271 47.1729L85.3933 40.1984H82.0009Z" fill="url(#paint8_linear_9684_114771)"/>
<path d="M86.3162 40.5645C86.2802 40.4578 86.2117 40.3651 86.1202 40.2994C86.0287 40.2337 85.9189 40.1984 85.8063 40.1984H82.0391C82.1517 40.1984 82.2614 40.2338 82.3529 40.2994C82.4444 40.3651 82.513 40.4578 82.549 40.5645L85.8184 50.2517C85.8457 50.3326 85.8534 50.4189 85.8407 50.5034C85.8281 50.588 85.7955 50.6682 85.7457 50.7377C85.6958 50.8071 85.6302 50.8636 85.5541 50.9027C85.4781 50.9417 85.3939 50.962 85.3084 50.962H89.0758C89.1613 50.962 89.2455 50.9416 89.3215 50.9026C89.3975 50.8636 89.4631 50.807 89.5129 50.7376C89.5627 50.6682 89.5953 50.5879 89.608 50.5034C89.6206 50.4189 89.6129 50.3326 89.5856 50.2517L86.3162 40.5645Z" fill="white"/>
<path d="M252.24 28.3115C258.57 28.3117 263.702 33.4548 263.702 39.7998C263.702 41.0989 264.674 42.3408 266.039 42.3408H266.444C270.841 42.341 274.406 45.9132 274.406 50.3213C274.406 54.7293 270.841 58.3016 266.444 58.3018H238.859C237.514 58.3018 236.247 57.9679 235.136 57.3779L235.12 57.3701L234.776 57.207C231.258 55.4675 228.838 51.8369 228.838 47.6396C228.838 41.7504 233.602 36.9767 239.477 36.9766C240.341 36.9766 241.141 36.4763 241.519 35.7061L241.588 35.5488C243.274 31.3078 247.409 28.3115 252.24 28.3115Z" fill="url(#paint9_linear_9684_114771)" stroke="url(#paint10_linear_9684_114771)" stroke-width="0.543375"/>
<g clip-path="url(#clip1_9684_114771)">
<path d="M250.181 39.2859C251.062 39.0895 251.98 39.0843 252.866 39.2713L253.242 39.3621C254.112 39.6021 254.917 40.026 255.599 40.6043L255.672 40.6658L255.66 40.7615L255.596 41.3006L255.588 41.3631L255.542 41.408L254.223 42.6756L254.171 42.7264H253.636V42.5594L253.535 42.6883C252.995 42.268 252.326 42.0351 251.635 42.0223L251.338 42.0301C250.544 42.0882 249.804 42.4359 249.271 42.9998L249.203 43.0701L249.17 43.0633C249.164 43.0694 249.158 43.0766 249.151 43.0848C249.134 43.1057 249.118 43.1279 249.106 43.1453C249.101 43.1538 249.096 43.1611 249.093 43.1658C249.091 43.1682 249.09 43.1696 249.089 43.1707V43.1717L249.046 43.241L248.966 43.2537L246.327 43.6717L246.289 43.6776L246.253 43.6678C246.137 43.637 246.013 43.6444 245.901 43.6883L245.566 43.8201L245.664 43.4734C245.937 42.5078 246.461 41.6257 247.186 40.91C247.91 40.1944 248.812 39.6682 249.806 39.3817L250.181 39.2859Z" fill="white" stroke="#0A0D0F" stroke-width="0.35719"/>
<path d="M255.622 40.61L255.786 40.7556C256.577 41.4814 257.152 42.3988 257.451 43.4138C258.217 43.9285 258.798 44.6604 259.108 45.5114L259.214 45.8415C259.396 46.5086 259.409 47.2084 259.252 47.8815L259.159 48.2145C258.91 48.9871 258.44 49.6732 257.808 50.197L257.527 50.4118C256.753 50.9553 255.819 51.243 254.862 51.236V51.237H251.495L251.443 51.1872L251.114 50.8718L251.06 50.819V48.7663L251.113 48.7145L251.442 48.3942L251.494 48.3434H254.862C255.056 48.3434 255.249 48.3063 255.428 48.235L255.559 48.1755C255.686 48.11 255.802 48.0265 255.904 47.9284L256.001 47.8259C256.092 47.7191 256.167 47.5998 256.222 47.4724L256.27 47.3434C256.311 47.2119 256.332 47.075 256.332 46.9372C256.332 46.7995 256.311 46.6625 256.27 46.5309L256.222 46.4011C256.167 46.2735 256.092 46.1544 256.001 46.0475L255.904 45.945C255.802 45.847 255.686 45.7643 255.559 45.6989L255.428 45.6393C255.249 45.5681 255.056 45.5309 254.862 45.5309H254.685V45.0329L254.683 44.864C254.669 44.527 254.597 44.1944 254.468 43.8806L254.398 43.7253C254.201 43.3154 253.909 42.9533 253.544 42.6667L253.383 42.5397L253.531 42.3972L255.383 40.6169L255.499 40.5046L255.622 40.61Z" fill="white" stroke="#0A0D0F" stroke-width="0.35719"/>
<path d="M247.658 48.1954C247.849 48.2792 248.057 48.3223 248.268 48.3223H251.742V51.2169H248.268C247.297 51.2208 246.351 50.9179 245.575 50.3546L245.477 50.2833L245.507 50.1651L245.623 49.7198L245.636 49.671L245.672 49.6358L247.001 48.3672L247.031 48.338L247.073 48.3253L247.536 48.1876L247.599 48.169L247.658 48.1954Z" fill="white" stroke="#0A0D0F" stroke-width="0.35719"/>
<path d="M248.523 42.6417C249.122 42.6729 249.708 42.82 250.248 43.0753L250.476 43.1905C250.998 43.4746 251.456 43.858 251.822 44.3184L251.924 44.4454L251.807 44.5577L249.895 46.3965L249.716 46.5684L249.609 46.3438C249.512 46.1371 249.364 45.9552 249.177 45.8145C248.99 45.6738 248.769 45.5784 248.534 45.5372C248.299 45.496 248.058 45.5099 247.83 45.5782C247.659 45.6295 247.5 45.7103 247.36 45.8155L247.228 45.9278C247.102 46.0487 247.001 46.1905 246.929 46.3448L246.866 46.503C246.796 46.7192 246.781 46.9484 246.823 47.171L246.865 47.335C246.917 47.4966 247 47.6486 247.109 47.7833L247.227 47.9102C247.352 48.0308 247.499 48.1294 247.662 48.2003L247.908 48.3067L247.715 48.4922L245.803 50.3311L245.694 50.4356L245.573 50.3458C244.928 49.8686 244.432 49.2316 244.136 48.5049L244.021 48.1876C243.749 47.3293 243.764 46.4107 244.062 45.5606L244.186 45.2471C244.504 44.5293 245.019 43.9068 245.679 43.4483L245.969 43.2628C246.659 42.8574 247.453 42.6395 248.266 42.6348L248.523 42.6417Z" fill="white" stroke="#0A0D0F" stroke-width="0.35719"/>
</g>
<path d="M84.6172 202.167C90.9469 202.167 96.0791 207.31 96.0791 213.655C96.0792 214.954 97.0506 216.196 98.416 216.196H98.8213C103.218 216.196 106.783 219.769 106.783 224.177C106.783 228.585 103.218 232.157 98.8213 232.157H71.2363C69.8908 232.157 68.6235 231.823 67.5127 231.233L67.4971 231.226L67.1533 231.062C63.6351 229.323 61.215 225.692 61.2148 221.495C61.2148 215.606 65.9786 210.832 71.8535 210.832C72.7179 210.832 73.5178 210.332 73.8955 209.562L73.9648 209.404C75.6512 205.163 79.7858 202.167 84.6172 202.167Z" fill="url(#paint11_linear_9684_114771)" stroke="url(#paint12_linear_9684_114771)" stroke-width="0.543375"/>
<g clip-path="url(#clip2_9684_114771)">
<path d="M79.4274 218.94C79.4274 219.195 79.4543 219.402 79.5014 219.554C79.5552 219.705 79.6225 219.871 79.7167 220.05C79.7503 220.105 79.7638 220.16 79.7638 220.209C79.7638 220.278 79.7234 220.347 79.6359 220.416L79.212 220.705C79.1515 220.747 79.0909 220.767 79.0371 220.767C78.9698 220.767 78.9025 220.733 78.8352 220.671C78.741 220.567 78.6603 220.457 78.593 220.347C78.5257 220.229 78.4584 220.098 78.3844 219.94C77.8596 220.574 77.2002 220.892 76.4062 220.892C75.841 220.892 75.3901 220.726 75.0604 220.395C74.7307 220.064 74.5625 219.623 74.5625 219.071C74.5625 218.485 74.7644 218.009 75.1748 217.65C75.5853 217.291 76.1303 217.112 76.8233 217.112C77.0521 217.112 77.2876 217.133 77.5366 217.167C77.7855 217.202 78.0412 217.257 78.3104 217.319V216.816C78.3104 216.291 78.2027 215.926 77.9941 215.712C77.7788 215.498 77.4155 215.395 76.8974 215.395C76.6619 215.395 76.4196 215.422 76.1707 215.484C75.9217 215.547 75.6795 215.622 75.444 215.719C75.3363 215.767 75.2556 215.795 75.2085 215.809C75.1614 215.822 75.1277 215.829 75.1008 215.829C75.0066 215.829 74.9595 215.76 74.9595 215.616V215.278C74.9595 215.167 74.973 215.084 75.0066 215.036C75.0402 214.988 75.1008 214.94 75.195 214.891C75.4305 214.767 75.7131 214.664 76.0428 214.581C76.3725 214.491 76.7224 214.45 77.0925 214.45C77.8932 214.45 78.4786 214.636 78.8554 215.009C79.2255 215.381 79.4139 215.947 79.4139 216.705V218.94H79.4274ZM76.6955 219.988C76.9175 219.988 77.1463 219.947 77.3886 219.864C77.6308 219.781 77.8461 219.629 78.0278 219.423C78.1354 219.291 78.2162 219.147 78.2566 218.981C78.2969 218.816 78.3238 218.616 78.3238 218.381V218.091C78.1287 218.043 77.9201 218.002 77.7048 217.974C77.4895 217.947 77.2809 217.933 77.0723 217.933C76.6215 217.933 76.2918 218.022 76.0697 218.209C75.8477 218.395 75.74 218.657 75.74 219.002C75.74 219.326 75.8208 219.567 75.989 219.733C76.1505 219.905 76.386 219.988 76.6955 219.988ZM82.0986 220.733C81.9775 220.733 81.8968 220.712 81.843 220.664C81.7891 220.623 81.742 220.526 81.7017 220.395L80.1204 215.064C80.08 214.926 80.0599 214.836 80.0599 214.788C80.0599 214.678 80.1137 214.615 80.2213 214.615H80.8808C81.0086 214.615 81.0961 214.636 81.1432 214.684C81.197 214.726 81.2374 214.822 81.2777 214.953L82.4082 219.519L83.4578 214.953C83.4915 214.815 83.5319 214.726 83.5857 214.684C83.6395 214.643 83.7337 214.615 83.8548 214.615H84.3931C84.521 214.615 84.6085 214.636 84.6623 214.684C84.7161 214.726 84.7632 214.822 84.7901 214.953L85.8533 219.574L87.0173 214.953C87.0577 214.815 87.1048 214.726 87.1519 214.684C87.2057 214.643 87.2932 214.615 87.4143 214.615H88.0401C88.1478 214.615 88.2083 214.671 88.2083 214.788C88.2083 214.822 88.2016 214.857 88.1949 214.898C88.1881 214.94 88.1747 214.995 88.1478 215.071L86.5261 220.402C86.4858 220.54 86.4387 220.629 86.3848 220.671C86.331 220.712 86.2435 220.74 86.1291 220.74H85.5505C85.4226 220.74 85.3352 220.719 85.2813 220.671C85.2275 220.623 85.1804 220.533 85.1535 220.395L84.1105 215.947L83.0743 220.388C83.0407 220.526 83.0003 220.616 82.9465 220.664C82.8926 220.712 82.7984 220.733 82.6773 220.733H82.0986ZM90.745 220.919C90.3951 220.919 90.0452 220.878 89.7088 220.795C89.3724 220.712 89.11 220.623 88.935 220.519C88.8274 220.457 88.7533 220.388 88.7264 220.326C88.6995 220.264 88.686 220.195 88.686 220.133V219.781C88.686 219.636 88.7399 219.567 88.8408 219.567C88.8812 219.567 88.9216 219.574 88.9619 219.588C89.0023 219.602 89.0629 219.629 89.1301 219.657C89.3589 219.76 89.6079 219.843 89.8703 219.898C90.1395 219.954 90.4019 219.981 90.671 219.981C91.0949 219.981 91.4246 219.905 91.6534 219.754C91.8822 219.602 92.0033 219.381 92.0033 219.098C92.0033 218.905 91.9427 218.747 91.8216 218.616C91.7005 218.485 91.4717 218.367 91.142 218.257L90.1664 217.947C89.6752 217.788 89.3118 217.553 89.0898 217.243C88.8677 216.94 88.7533 216.602 88.7533 216.243C88.7533 215.953 88.8139 215.698 88.935 215.478C89.0561 215.257 89.2176 215.064 89.4195 214.912C89.6213 214.753 89.8501 214.636 90.1193 214.553C90.3884 214.471 90.671 214.436 90.9671 214.436C91.1151 214.436 91.2699 214.443 91.4179 214.464C91.5727 214.484 91.714 214.512 91.8553 214.54C91.9898 214.574 92.1177 214.609 92.2388 214.65C92.3599 214.691 92.4541 214.733 92.5214 214.774C92.6156 214.829 92.6829 214.884 92.7233 214.947C92.7636 215.002 92.7838 215.078 92.7838 215.174V215.498C92.7838 215.643 92.73 215.719 92.6291 215.719C92.5752 215.719 92.4878 215.691 92.3734 215.636C91.9898 215.457 91.5592 215.367 91.0815 215.367C90.6979 215.367 90.3951 215.429 90.1866 215.56C89.978 215.691 89.8703 215.891 89.8703 216.174C89.8703 216.367 89.9376 216.533 90.0722 216.664C90.2067 216.795 90.4557 216.926 90.8123 217.043L91.7678 217.353C92.2523 217.512 92.6022 217.733 92.8107 218.016C93.0193 218.298 93.1203 218.622 93.1203 218.981C93.1203 219.278 93.0597 219.547 92.9453 219.781C92.8242 220.016 92.6627 220.223 92.4541 220.388C92.2455 220.56 91.9966 220.685 91.7072 220.774C91.4044 220.871 91.0882 220.919 90.745 220.919Z" fill="white"/>
<path fill-rule="evenodd" clip-rule="evenodd" d="M92.0173 224.286C89.8036 225.962 86.5873 226.851 83.8218 226.851C79.946 226.851 76.4538 225.382 73.8162 222.941C73.6076 222.748 73.796 222.486 74.045 222.637C76.8979 224.334 80.417 225.362 84.0573 225.362C86.5133 225.362 89.2115 224.838 91.6944 223.762C92.0644 223.589 92.3807 224.01 92.0173 224.286Z" fill="white"/>
<path fill-rule="evenodd" clip-rule="evenodd" d="M92.9391 223.206C92.6565 222.834 91.0686 223.027 90.3486 223.117C90.1333 223.144 90.0996 222.951 90.2948 222.806C91.5598 221.896 93.6389 222.158 93.8812 222.462C94.1234 222.772 93.8139 224.903 92.6296 225.924C92.4479 226.082 92.273 226 92.3537 225.793C92.6229 225.11 93.2217 223.572 92.9391 223.206Z" fill="white"/>
</g>
<rect x="237.563" y="202.166" width="29.8782" height="29.3671" rx="4.71339" fill="url(#paint13_linear_9684_114771)"/>
<rect x="237.563" y="202.166" width="29.8782" height="29.3671" rx="4.71339" stroke="url(#paint14_linear_9684_114771)" stroke-width="0.543375"/>
<path fill-rule="evenodd" clip-rule="evenodd" d="M244.795 211.7C244.406 211.7 244.09 212.016 244.09 212.405V215.486C244.09 215.875 244.406 216.191 244.795 216.191H259.186C259.576 216.191 259.891 215.875 259.891 215.486V212.405C259.891 212.016 259.576 211.7 259.186 211.7H244.795ZM258.273 213.947C258.273 214.452 257.863 214.862 257.358 214.862C256.852 214.862 256.443 214.452 256.443 213.947C256.443 213.441 256.852 213.032 257.358 213.032C257.863 213.032 258.273 213.441 258.273 213.947ZM245.322 213.946C245.322 213.752 245.48 213.594 245.675 213.594H249.807C250.002 213.594 250.16 213.752 250.16 213.946C250.16 214.141 250.002 214.299 249.807 214.299H245.675C245.48 214.299 245.322 214.141 245.322 213.946Z" fill="white"/>
<path fill-rule="evenodd" clip-rule="evenodd" d="M244.795 217.601C244.406 217.601 244.09 217.916 244.09 218.306V221.386C244.09 221.776 244.406 222.091 244.795 222.091H259.186C259.576 222.091 259.891 221.776 259.891 221.386V218.306C259.891 217.916 259.576 217.601 259.186 217.601H244.795ZM258.273 219.847C258.273 220.352 257.863 220.762 257.358 220.762C256.852 220.762 256.443 220.352 256.443 219.847C256.443 219.341 256.852 218.932 257.358 218.932C257.863 218.932 258.273 219.341 258.273 219.847ZM245.322 219.847C245.322 219.652 245.48 219.494 245.675 219.494H249.807C250.002 219.494 250.16 219.652 250.16 219.847C250.16 220.041 250.002 220.199 249.807 220.199H245.675C245.48 220.199 245.322 220.041 245.322 219.847Z" fill="white"/>
<rect x="152.194" y="28.9449" width="29.3671" height="29.3671" rx="4.71339" fill="url(#paint15_linear_9684_114771)"/>
<rect x="152.194" y="28.9449" width="29.3671" height="29.3671" rx="4.71339" stroke="url(#paint16_linear_9684_114771)" stroke-width="0.543375"/>
<path d="M166.258 42.2578L166.366 40.4352C166.236 40.4501 166.107 40.4714 165.979 40.499C165.272 40.6527 164.658 40.9865 164.178 41.4381L165.739 42.4976L165.742 42.4961C165.795 42.5331 165.86 42.5547 165.931 42.5547C166.103 42.5547 166.243 42.4245 166.251 42.2615L166.258 42.2578Z" fill="white"/>
<path d="M169.451 41.4389C168.866 40.8903 168.102 40.5324 167.276 40.4352L167.384 42.2548L167.385 42.2555C167.388 42.3203 167.413 42.3825 167.455 42.433C167.563 42.5618 167.757 42.5857 167.894 42.4894L167.9 42.4916L169.451 41.4389Z" fill="white"/>
<path d="M165.037 43.3395L163.611 42.119C163.188 42.7787 162.988 43.57 163.081 44.384L164.908 43.8792L164.91 43.8732C164.976 43.8561 165.034 43.8194 165.076 43.7686C165.183 43.6398 165.164 43.454 165.036 43.3469L165.037 43.3395Z" fill="white"/>
<path d="M170.488 43.2133C170.392 42.8153 170.232 42.4483 170.02 42.1197L168.602 43.3343L168.603 43.338C168.552 43.3804 168.516 43.4374 168.501 43.5006C168.463 43.6612 168.564 43.8213 168.728 43.8643L168.73 43.8718L170.567 44.3781C170.606 43.9988 170.582 43.6064 170.488 43.2133Z" fill="white"/>
<path d="M167.112 43.4337H166.528L166.164 43.8673L166.295 44.4093L166.821 44.6513L167.345 44.41L167.475 43.8681L167.112 43.4337Z" fill="white"/>
<path d="M168.475 44.9253C168.45 44.921 168.426 44.9189 168.401 44.9201C168.36 44.922 168.318 44.9322 168.278 44.9505C168.123 45.022 168.056 45.1978 168.123 45.3477L168.121 45.3506L168.855 47.047C169.562 46.6158 170.092 45.9713 170.368 45.2274L168.478 44.9215L168.475 44.9253Z" fill="white"/>
<path d="M165.533 45.1658C165.499 45.0252 165.37 44.9294 165.226 44.9275C165.205 44.9272 165.184 44.929 165.163 44.9327L165.16 44.929L163.286 45.2333C163.575 45.9992 164.116 46.6235 164.794 47.0404L165.521 45.361L165.515 45.3544C165.541 45.2968 165.549 45.2316 165.533 45.1658Z" fill="white"/>
<path d="M166.959 45.6936C166.912 45.6719 166.861 45.6615 166.809 45.6632C166.753 45.6652 166.699 45.6812 166.651 45.7096C166.604 45.738 166.565 45.7778 166.538 45.8251H166.537L165.615 47.4197C166.253 47.6277 166.957 47.6743 167.664 47.5207C167.789 47.4937 167.912 47.4608 168.033 47.422L167.109 45.8243H167.102C167.071 45.769 167.022 45.7229 166.959 45.6936Z" fill="white"/>
<path fill-rule="evenodd" clip-rule="evenodd" d="M166.315 35.7363C166.454 35.6727 166.605 35.6361 166.759 35.6287C166.953 35.6193 167.147 35.6563 167.322 35.7363L173.388 38.5085C173.545 38.5802 173.683 38.6846 173.792 38.8139C173.9 38.9432 173.977 39.0941 174.016 39.2553L175.514 45.4856C175.553 45.6469 175.553 45.8145 175.514 45.9758C175.476 46.1371 175.399 46.288 175.29 46.4174L171.093 51.4138C170.985 51.5429 170.847 51.6471 170.69 51.7187C170.533 51.7903 170.361 51.8274 170.186 51.8273L163.454 51.8288C163.279 51.8288 163.107 51.7916 162.95 51.7198C162.793 51.6481 162.655 51.5437 162.547 51.4145L158.348 46.4188C158.325 46.3907 158.303 46.3614 158.282 46.3312C158.198 46.2077 158.141 46.0693 158.113 45.9243C158.086 45.7793 158.09 45.6307 158.125 45.4871L159.621 39.2568C159.66 39.0956 159.737 38.9447 159.845 38.8154C159.954 38.6861 160.092 38.5817 160.249 38.51L166.315 35.7363ZM166.458 38.1263C166.458 37.9131 166.62 37.7402 166.821 37.7402C167.021 37.7402 167.184 37.9131 167.184 38.1263C167.184 38.1371 167.184 38.1493 167.184 38.1617C167.185 38.184 167.185 38.2071 167.185 38.225C167.181 38.3061 167.168 38.3747 167.155 38.4445C167.148 38.4805 167.141 38.5168 167.135 38.5554L167.133 38.5742C167.103 38.8083 167.078 39.0037 167.094 39.1857C167.106 39.2664 167.15 39.305 167.193 39.3418C167.199 39.3477 167.206 39.3535 167.212 39.3594C167.214 39.3846 167.218 39.4683 167.221 39.5146C168.375 39.6127 169.447 40.1179 170.235 40.9081L170.373 40.8138C170.378 40.8141 170.385 40.8146 170.392 40.8151C170.444 40.8189 170.531 40.8254 170.593 40.7908C170.752 40.6887 170.896 40.548 171.07 40.3796L171.083 40.3669C171.11 40.3391 171.135 40.3118 171.16 40.2847C171.209 40.2306 171.258 40.1776 171.322 40.1241C171.338 40.1109 171.36 40.0946 171.381 40.0795C171.388 40.0735 171.396 40.0678 171.403 40.0625C171.577 39.9295 171.82 39.9437 171.945 40.0937C172.07 40.2437 172.03 40.473 171.855 40.6059C171.847 40.6122 171.838 40.6192 171.829 40.6264C171.811 40.6411 171.791 40.6565 171.776 40.6675C171.708 40.7154 171.644 40.7479 171.579 40.7809C171.544 40.7984 171.509 40.816 171.474 40.8361C171.257 40.9644 171.077 41.0708 170.934 41.1991C170.875 41.2589 170.871 41.3159 170.868 41.3707C170.867 41.3791 170.866 41.3875 170.866 41.3958C170.856 41.4044 170.834 41.4228 170.81 41.4433C170.785 41.4653 170.756 41.4895 170.737 41.5065C171.05 41.9522 171.284 42.4582 171.417 43.0113C171.549 43.5594 171.569 44.1072 171.493 44.6335L171.64 44.6743C171.643 44.6785 171.646 44.6834 171.65 44.6888C171.679 44.7295 171.729 44.8001 171.796 44.825C171.981 44.8807 172.189 44.9016 172.439 44.9267L172.447 44.9275C172.488 44.9307 172.527 44.9322 172.566 44.9337C172.64 44.9364 172.713 44.9392 172.796 44.9542C172.815 44.9576 172.839 44.9635 172.862 44.969C172.876 44.9723 172.89 44.9754 172.901 44.978C173.115 45.0274 173.253 45.2157 173.208 45.4011C173.164 45.5866 172.955 45.6994 172.74 45.655C172.738 45.6547 172.736 45.6546 172.734 45.6543C172.732 45.6538 172.73 45.6526 172.727 45.6521C172.716 45.6498 172.705 45.6475 172.693 45.6452C172.672 45.6411 172.65 45.637 172.634 45.6328C172.552 45.6118 172.485 45.5841 172.417 45.556C172.382 45.5413 172.346 45.5265 172.308 45.5125L172.296 45.5086C172.061 45.4279 171.865 45.3607 171.675 45.3343C171.59 45.3279 171.541 45.3605 171.494 45.3917C171.486 45.3967 171.479 45.4016 171.471 45.4063C171.445 45.4012 171.363 45.3874 171.316 45.3803C170.968 46.4266 170.228 47.3326 169.223 47.9001C169.229 47.9129 169.236 47.9303 169.243 47.9486C169.258 47.9875 169.274 48.0301 169.284 48.0404C169.281 48.0485 169.277 48.0565 169.274 48.0646C169.253 48.1151 169.23 48.1675 169.256 48.2453C169.326 48.4202 169.44 48.5911 169.578 48.7969C169.601 48.8294 169.623 48.8593 169.646 48.889C169.69 48.9461 169.733 49.0022 169.773 49.0738C169.782 49.0919 169.795 49.1167 169.806 49.1393C169.811 49.1493 169.816 49.1589 169.82 49.1674C169.913 49.3584 169.845 49.5784 169.665 49.6611C169.485 49.7443 169.26 49.6564 169.164 49.4643C169.159 49.4561 169.155 49.447 169.15 49.4377C169.139 49.4162 169.127 49.3932 169.119 49.3752C169.084 49.3005 169.065 49.2328 169.045 49.1639C169.035 49.1289 169.025 49.0935 169.013 49.0567L169.009 49.0468C168.929 48.8201 168.862 48.6319 168.764 48.4725C168.716 48.4046 168.659 48.388 168.604 48.3722C168.595 48.3698 168.587 48.3674 168.579 48.3648C168.573 48.3549 168.558 48.3294 168.542 48.3017C168.527 48.2767 168.512 48.2498 168.501 48.2312C168.298 48.3047 168.09 48.3648 167.878 48.4109C166.936 48.6156 165.993 48.5325 165.15 48.223L165.068 48.3656C165.007 48.3812 164.948 48.3972 164.912 48.4385C164.819 48.5446 164.765 48.6957 164.708 48.8564C164.684 48.9244 164.659 48.994 164.631 49.0627C164.618 49.1001 164.608 49.136 164.598 49.1717C164.579 49.2399 164.56 49.3071 164.526 49.3812C164.518 49.3982 164.507 49.4199 164.496 49.4404C164.491 49.4506 164.486 49.4605 164.481 49.4695C164.481 49.4696 164.481 49.4694 164.481 49.4695C164.481 49.4697 164.481 49.4701 164.481 49.4703C164.481 49.4704 164.481 49.4706 164.48 49.4708C164.48 49.4708 164.481 49.4707 164.48 49.4708C164.384 49.6622 164.159 49.7501 163.979 49.667C163.8 49.5844 163.731 49.3644 163.825 49.1733C163.83 49.1632 163.835 49.1515 163.841 49.1394C163.851 49.1184 163.862 49.0963 163.871 49.0798C163.911 49.0078 163.954 48.9512 163.998 48.8935C164.021 48.864 164.043 48.8343 164.066 48.8021C164.203 48.5963 164.324 48.4117 164.395 48.2369C164.412 48.1788 164.386 48.0992 164.362 48.0404L164.428 47.8889C163.462 47.3409 162.699 46.4676 162.334 45.387L162.176 45.413C162.171 45.4104 162.166 45.4075 162.16 45.4043C162.115 45.3789 162.039 45.3371 161.968 45.3425C161.777 45.3689 161.581 45.4362 161.345 45.517L161.335 45.5207C161.297 45.5345 161.262 45.5489 161.227 45.5632C161.158 45.5914 161.091 45.6191 161.009 45.6402C160.99 45.645 160.966 45.6499 160.942 45.6546C160.933 45.6565 160.923 45.6584 160.915 45.6602C160.914 45.6605 160.913 45.6609 160.911 45.6613C160.91 45.6617 160.909 45.6622 160.908 45.6625C160.907 45.6626 160.906 45.6627 160.905 45.6628C160.904 45.6629 160.903 45.663 160.902 45.6632C160.687 45.7076 160.478 45.5948 160.434 45.4093C160.39 45.2238 160.527 45.0356 160.741 44.9861C160.743 44.9858 160.745 44.985 160.746 44.9846L160.75 44.9839C160.759 44.9818 160.769 44.9795 160.779 44.9771C160.803 44.9716 160.827 44.9659 160.847 44.9624C160.929 44.9474 161.002 44.9446 161.076 44.9418C161.115 44.9404 161.154 44.9389 161.195 44.9356L161.203 44.9348C161.453 44.9097 161.661 44.8889 161.846 44.8332C161.898 44.8126 161.948 44.7493 161.987 44.7007C161.992 44.6943 161.997 44.6882 162.002 44.6825L162.154 44.6402C161.983 43.511 162.272 42.4029 162.895 41.5057L162.778 41.4062C162.777 41.4015 162.777 41.3961 162.776 41.3901C162.768 41.3415 162.755 41.2564 162.705 41.2058C162.563 41.0775 162.383 40.9712 162.166 40.8429C162.13 40.823 162.096 40.8054 162.062 40.7881C161.996 40.7549 161.932 40.7223 161.864 40.6742C161.849 40.6631 161.829 40.6479 161.811 40.6333C161.803 40.6274 161.796 40.6217 161.789 40.6163C161.788 40.6157 161.787 40.6151 161.787 40.6146C161.786 40.6139 161.785 40.6133 161.784 40.6126C161.609 40.4797 161.569 40.2504 161.694 40.1003C161.765 40.016 161.872 39.9742 161.984 39.9779C162.071 39.9807 162.161 40.011 162.237 40.0692C162.244 40.0743 162.251 40.0799 162.259 40.0856C162.279 40.1009 162.301 40.1175 162.317 40.1308C162.382 40.1839 162.43 40.2365 162.478 40.2902C162.503 40.3176 162.529 40.3454 162.556 40.3735L162.563 40.3796C162.739 40.5509 162.885 40.6933 163.046 40.7967C163.12 40.838 163.179 40.8291 163.236 40.8205C163.244 40.8192 163.253 40.8179 163.262 40.8168C163.305 40.847 163.349 40.8767 163.393 40.9058C164.011 40.2784 164.822 39.8137 165.765 39.6089C165.981 39.562 166.2 39.5298 166.421 39.5124L166.43 39.3653C166.478 39.3206 166.532 39.2561 166.548 39.1857C166.563 39.0001 166.538 38.8005 166.508 38.5601L166.507 38.5554C166.502 38.5169 166.495 38.4806 166.488 38.4447C166.474 38.3748 166.461 38.3062 166.458 38.225C166.457 38.2079 166.457 38.1863 166.458 38.1652C166.458 38.1552 166.458 38.1452 166.458 38.1359C166.458 38.1344 166.458 38.1328 166.458 38.1313C166.458 38.1296 166.458 38.128 166.458 38.1263Z" fill="white"/>
<g clip-path="url(#clip3_9684_114771)">
<rect width="19.9014" height="14.2153" transform="translate(115.596 180.455)" fill="#0E1214"/>
<mask id="mask1_9684_114771" style="mask-type:luminance" maskUnits="userSpaceOnUse" x="116" y="182" width="19" height="19">
<path d="M116.951 182.018H134.062V200.665H116.951V182.018Z" fill="white"/>
</mask>
<g mask="url(#mask1_9684_114771)">
<path d="M122.855 187.94L121.955 187.38L121.974 188.236L122.874 188.796L122.855 187.94ZM124.152 190.937L124.133 190.099L123.346 189.608C123.333 189.602 123.321 189.59 123.315 189.583L123.333 190.427L124.152 190.937ZM121.338 192.064L119.279 190.786L119.229 188.645L120.236 188.211L120.217 187.355L118.606 188.047C118.48 188.104 118.404 188.217 118.411 188.349L118.473 190.918C118.473 191.05 118.555 191.182 118.681 191.258L121.149 192.788C121.262 192.857 121.401 192.876 121.52 192.844C121.533 192.838 121.546 192.838 121.558 192.832L123.075 192.177L122.251 191.667L121.338 192.064Z" fill="#33373A"/>
</g>
<mask id="mask2_9684_114771" style="mask-type:luminance" maskUnits="userSpaceOnUse" x="116" y="182" width="19" height="19">
<path d="M116.951 182.018H134.062V200.665H116.951V182.018Z" fill="white"/>
</mask>
<g mask="url(#mask2_9684_114771)">
<path d="M127.991 187.33C127.985 187.179 127.897 187.022 127.745 186.934L124.749 185.076L124.654 185.114L124.673 186.014L127.047 187.487L127.103 189.892L128.01 190.453L128.06 190.434L127.991 187.33ZM124.403 191.554L121.614 189.829L121.545 186.934L122.816 186.386L122.791 185.385L120.821 186.235C120.676 186.298 120.588 186.43 120.594 186.587L120.676 189.987C120.676 190.144 120.77 190.295 120.921 190.383L124.189 192.41C124.321 192.492 124.485 192.517 124.623 192.473C124.636 192.467 124.648 192.461 124.661 192.461L126.587 191.63L125.63 191.038L124.403 191.554Z" fill="#33373A"/>
</g>
<mask id="mask3_9684_114771" style="mask-type:luminance" maskUnits="userSpaceOnUse" x="116" y="182" width="19" height="19">
<path d="M116.951 182.018H134.062V200.665H116.951V182.018Z" fill="white"/>
</mask>
<g mask="url(#mask3_9684_114771)">
<path d="M132.244 184.948L128.057 182.355C127.9 182.26 127.717 182.235 127.56 182.286C127.547 182.292 127.528 182.298 127.516 182.304L123.43 184.067C123.267 184.136 123.166 184.287 123.172 184.47L123.273 188.826C123.279 189.003 123.386 189.179 123.556 189.28L127.742 191.873C127.894 191.968 128.082 191.993 128.24 191.942C128.252 191.936 128.271 191.93 128.284 191.924L132.369 190.161C132.533 190.092 132.634 189.934 132.628 189.758L132.527 185.402C132.521 185.225 132.414 185.055 132.244 184.948ZM127.988 190.897L124.349 188.644L124.261 184.86L127.812 183.331L131.45 185.584L131.539 189.368L127.988 190.897Z" fill="#33373A"/>
</g>
</g>
<g clip-path="url(#clip4_9684_114771)">
<rect width="19.9014" height="14.2153" transform="translate(199.504 180.455)" fill="#0E1214"/>
<mask id="mask4_9684_114771" style="mask-type:luminance" maskUnits="userSpaceOnUse" x="200" y="182" width="18" height="19">
<path d="M200.859 182.018H217.97V200.665H200.859V182.018Z" fill="white"/>
</mask>
<g mask="url(#mask4_9684_114771)">
<path d="M206.763 187.94L205.863 187.38L205.882 188.236L206.782 188.796L206.763 187.94ZM208.06 190.937L208.041 190.099L207.254 189.608C207.242 189.602 207.229 189.59 207.223 189.583L207.242 190.427L208.06 190.937ZM205.246 192.064L203.187 190.786L203.137 188.645L204.144 188.211L204.125 187.355L202.514 188.047C202.388 188.104 202.312 188.217 202.319 188.349L202.382 190.918C202.382 191.05 202.464 191.182 202.589 191.258L205.057 192.788C205.17 192.857 205.309 192.876 205.429 192.844C205.441 192.838 205.454 192.838 205.466 192.832L206.983 192.177L206.159 191.667L205.246 192.064Z" fill="#33373A"/>
</g>
<mask id="mask5_9684_114771" style="mask-type:luminance" maskUnits="userSpaceOnUse" x="200" y="182" width="18" height="19">
<path d="M200.859 182.018H217.97V200.665H200.859V182.018Z" fill="white"/>
</mask>
<g mask="url(#mask5_9684_114771)">
<path d="M211.899 187.33C211.893 187.179 211.805 187.022 211.654 186.934L208.657 185.076L208.563 185.114L208.582 186.014L210.955 187.487L211.012 189.892L211.918 190.453L211.968 190.434L211.899 187.33ZM208.311 191.554L205.522 189.829L205.453 186.934L206.724 186.386L206.699 185.385L204.729 186.235C204.584 186.298 204.496 186.43 204.502 186.587L204.584 189.987C204.584 190.144 204.679 190.295 204.83 190.383L208.097 192.41C208.229 192.492 208.393 192.517 208.531 192.473C208.544 192.467 208.556 192.461 208.569 192.461L210.495 191.63L209.538 191.038L208.311 191.554Z" fill="#33373A"/>
</g>
<mask id="mask6_9684_114771" style="mask-type:luminance" maskUnits="userSpaceOnUse" x="200" y="182" width="18" height="19">
<path d="M200.859 182.018H217.97V200.665H200.859V182.018Z" fill="white"/>
</mask>
<g mask="url(#mask6_9684_114771)">
<path d="M216.152 184.948L211.965 182.355C211.808 182.26 211.626 182.235 211.468 182.286C211.456 182.292 211.437 182.298 211.424 182.304L207.338 184.067C207.175 184.136 207.074 184.287 207.08 184.47L207.181 188.826C207.187 189.003 207.294 189.179 207.464 189.28L211.651 191.873C211.802 191.968 211.991 191.993 212.148 191.942C212.161 191.936 212.179 191.93 212.192 191.924L216.278 190.161C216.441 190.092 216.542 189.934 216.536 189.758L216.435 185.402C216.429 185.225 216.322 185.055 216.152 184.948ZM211.896 190.897L208.258 188.644L208.169 184.86L211.72 183.331L215.359 185.584L215.447 189.368L211.896 190.897Z" fill="#33373A"/>
</g>
</g>
</g>
<rect x="0.811567" y="0.311567" width="333.377" height="254.862" rx="9.65858" stroke="url(#paint17_linear_9684_114771)" stroke-opacity="0.47" stroke-width="0.623134"/>
<defs>
<filter id="filter0_i_9684_114771" x="135.449" y="97.6263" width="62.2324" height="62.8547" filterUnits="userSpaceOnUse" color-interpolation-filters="sRGB">
<feFlood flood-opacity="0" result="BackgroundImageFix"/>
<feBlend mode="normal" in="SourceGraphic" in2="BackgroundImageFix" result="shape"/>
<feColorMatrix in="SourceAlpha" type="matrix" values="0 0 0 0 0 0 0 0 0 0 0 0 0 0 0 0 0 0 127 0" result="hardAlpha"/>
<feOffset dy="0.623134"/>
<feGaussianBlur stdDeviation="0.623134"/>
<feComposite in2="hardAlpha" operator="arithmetic" k2="-1" k3="1"/>
<feColorMatrix type="matrix" values="0 0 0 0 0 0 0 0 0 0 0 0 0 0 0 0 0 0 1 0"/>
<feBlend mode="normal" in2="shape" result="effect1_innerShadow_9684_114771"/>
</filter>
<linearGradient id="paint0_linear_9684_114771" x1="167.5" y1="0" x2="167.5" y2="255.485" gradientUnits="userSpaceOnUse">
<stop stop-color="#161C20"/>
<stop offset="1" stop-color="#0A0D0F"/>
</linearGradient>
<radialGradient id="paint1_radial_9684_114771" cx="0" cy="0" r="1" gradientUnits="userSpaceOnUse" gradientTransform="translate(166.213 144.728) rotate(90) scale(152.345 199.689)">
<stop stop-color="#D9D9D9" stop-opacity="0.3"/>
<stop offset="1" stop-color="#737373"/>
</radialGradient>
<linearGradient id="paint2_linear_9684_114771" x1="166.566" y1="128.722" x2="166.566" y2="163.434" gradientUnits="userSpaceOnUse">
<stop stop-color="#3B3D3F" stop-opacity="0.5"/>
<stop offset="1" stop-color="#3B3D3F" stop-opacity="0.89"/>
</linearGradient>
<linearGradient id="paint3_linear_9684_114771" x1="166.556" y1="97.3317" x2="166.58" y2="159.858" gradientUnits="userSpaceOnUse">
<stop stop-color="#1E1E1F" stop-opacity="0"/>
<stop offset="1" stop-color="#1E1E1F" stop-opacity="0.8"/>
</linearGradient>
<linearGradient id="paint4_linear_9684_114771" x1="166.566" y1="100.971" x2="166.566" y2="156.514" gradientUnits="userSpaceOnUse">
<stop stop-color="#3B3D3F" stop-opacity="0.2"/>
<stop offset="1" stop-color="#3B3D3F" stop-opacity="0.4"/>
</linearGradient>
<linearGradient id="paint5_linear_9684_114771" x1="84.2142" y1="28.04" x2="84.2142" y2="58.5736" gradientUnits="userSpaceOnUse">
<stop stop-color="#161C20"/>
<stop offset="1" stop-color="#0A0D0F"/>
</linearGradient>
<linearGradient id="paint6_linear_9684_114771" x1="84.2142" y1="43.2966" x2="84.2142" y2="58.5736" gradientUnits="userSpaceOnUse">
<stop stop-color="#3B3D3F" stop-opacity="0.5"/>
<stop offset="1" stop-color="#3B3D3F" stop-opacity="0.89"/>
</linearGradient>
<linearGradient id="paint7_linear_9684_114771" x1="83.2316" y1="40.9962" x2="79.7211" y2="51.3669" gradientUnits="userSpaceOnUse">
<stop stop-color="#C5C5C5"/>
<stop offset="1" stop-color="#EBECEC"/>
</linearGradient>
<linearGradient id="paint8_linear_9684_114771" x1="84.3294" y1="45.8291" x2="83.5174" y2="46.1037" gradientUnits="userSpaceOnUse">
<stop stop-opacity="0.3"/>
<stop offset="0.071" stop-opacity="0.2"/>
<stop offset="0.321" stop-opacity="0.1"/>
<stop offset="0.623" stop-opacity="0.05"/>
<stop offset="1" stop-opacity="0"/>
</linearGradient>
<linearGradient id="paint9_linear_9684_114771" x1="251.622" y1="28.04" x2="251.622" y2="58.5736" gradientUnits="userSpaceOnUse">
<stop stop-color="#161C20"/>
<stop offset="1" stop-color="#0A0D0F"/>
</linearGradient>
<linearGradient id="paint10_linear_9684_114771" x1="251.622" y1="43.2966" x2="251.622" y2="58.5736" gradientUnits="userSpaceOnUse">
<stop stop-color="#3B3D3F" stop-opacity="0.5"/>
<stop offset="1" stop-color="#3B3D3F" stop-opacity="0.89"/>
</linearGradient>
<linearGradient id="paint11_linear_9684_114771" x1="83.9993" y1="201.896" x2="83.9993" y2="232.429" gradientUnits="userSpaceOnUse">
<stop stop-color="#161C20"/>
<stop offset="1" stop-color="#0A0D0F"/>
</linearGradient>
<linearGradient id="paint12_linear_9684_114771" x1="83.9993" y1="217.152" x2="83.9993" y2="232.429" gradientUnits="userSpaceOnUse">
<stop stop-color="#3B3D3F" stop-opacity="0.5"/>
<stop offset="1" stop-color="#3B3D3F" stop-opacity="0.89"/>
</linearGradient>
<linearGradient id="paint13_linear_9684_114771" x1="252.502" y1="201.895" x2="252.502" y2="231.805" gradientUnits="userSpaceOnUse">
<stop stop-color="#161C20"/>
<stop offset="1" stop-color="#0A0D0F"/>
</linearGradient>
<linearGradient id="paint14_linear_9684_114771" x1="252.502" y1="216.84" x2="252.502" y2="231.805" gradientUnits="userSpaceOnUse">
<stop stop-color="#3B3D3F" stop-opacity="0.5"/>
<stop offset="1" stop-color="#3B3D3F" stop-opacity="0.89"/>
</linearGradient>
<linearGradient id="paint15_linear_9684_114771" x1="166.877" y1="28.6732" x2="166.877" y2="58.5837" gradientUnits="userSpaceOnUse">
<stop stop-color="#161C20"/>
<stop offset="1" stop-color="#0A0D0F"/>
</linearGradient>
<linearGradient id="paint16_linear_9684_114771" x1="166.877" y1="43.6184" x2="166.877" y2="58.5837" gradientUnits="userSpaceOnUse">
<stop stop-color="#3B3D3F" stop-opacity="0.5"/>
<stop offset="1" stop-color="#3B3D3F" stop-opacity="0.89"/>
</linearGradient>
<linearGradient id="paint17_linear_9684_114771" x1="167.5" y1="0" x2="167.5" y2="255.485" gradientUnits="userSpaceOnUse">
<stop stop-color="#3B3D3F" stop-opacity="0.4"/>
<stop offset="1" stop-color="#3B3D3F"/>
</linearGradient>
<clipPath id="clip0_9684_114771">
<rect x="0.5" width="334" height="255.485" rx="9.97015" fill="white"/>
</clipPath>
<clipPath id="clip1_9684_114771">
<rect width="16.2015" height="12.4627" fill="white" transform="translate(243.521 39.2565)"/>
</clipPath>
<clipPath id="clip2_9684_114771">
<rect width="20.4553" height="12.5521" fill="white" transform="translate(73.6133 214.358)"/>
</clipPath>
<clipPath id="clip3_9684_114771">
<rect width="19.9014" height="14.2153" fill="white" transform="translate(115.596 180.455)"/>
</clipPath>
<clipPath id="clip4_9684_114771">
<rect width="19.9014" height="14.2153" fill="white" transform="translate(199.504 180.455)"/>
</clipPath>
</defs>
</svg>
