<svg width="24" height="25" viewBox="0 0 24 25" fill="none" xmlns="http://www.w3.org/2000/svg">
<path d="M21 4.98511H15C14.4178 4.98511 13.8437 5.12065 13.3229 5.38101C12.8022 5.64136 12.3493 6.01937 12 6.48511C11.6507 6.01937 11.1978 5.64136 10.6771 5.38101C10.1563 5.12065 9.58217 4.98511 9 4.98511H3C2.60218 4.98511 2.22064 5.14314 1.93934 5.42445C1.65804 5.70575 1.5 6.08728 1.5 6.48511V18.4851C1.5 18.8829 1.65804 19.2645 1.93934 19.5458C2.22064 19.8271 2.60218 19.9851 3 19.9851H9C9.59674 19.9851 10.169 20.2222 10.591 20.6441C11.0129 21.0661 11.25 21.6384 11.25 22.2351C11.25 22.434 11.329 22.6248 11.4697 22.7654C11.6103 22.9061 11.8011 22.9851 12 22.9851C12.1989 22.9851 12.3897 22.9061 12.5303 22.7654C12.671 22.6248 12.75 22.434 12.75 22.2351C12.75 21.6384 12.9871 21.0661 13.409 20.6441C13.831 20.2222 14.4033 19.9851 15 19.9851H21C21.3978 19.9851 21.7794 19.8271 22.0607 19.5458C22.342 19.2645 22.5 18.8829 22.5 18.4851V6.48511C22.5 6.08728 22.342 5.70575 22.0607 5.42445C21.7794 5.14314 21.3978 4.98511 21 4.98511ZM9 18.4851H3V6.48511H9C9.59674 6.48511 10.169 6.72216 10.591 7.14412C11.0129 7.56607 11.25 8.13837 11.25 8.73511V19.2351C10.6015 18.7471 9.8116 18.4838 9 18.4851ZM21 18.4851H15C14.1884 18.4838 13.3985 18.7471 12.75 19.2351V8.73511C12.75 8.13837 12.9871 7.56607 13.409 7.14412C13.831 6.72216 14.4033 6.48511 15 6.48511H21V18.4851ZM15 8.73511H18.75C18.9489 8.73511 19.1397 8.81413 19.2803 8.95478C19.421 9.09543 19.5 9.2862 19.5 9.48511C19.5 9.68402 19.421 9.87478 19.2803 10.0154C19.1397 10.1561 18.9489 10.2351 18.75 10.2351H15C14.8011 10.2351 14.6103 10.1561 14.4697 10.0154C14.329 9.87478 14.25 9.68402 14.25 9.48511C14.25 9.2862 14.329 9.09543 14.4697 8.95478C14.6103 8.81413 14.8011 8.73511 15 8.73511ZM19.5 12.4851C19.5 12.684 19.421 12.8748 19.2803 13.0154C19.1397 13.1561 18.9489 13.2351 18.75 13.2351H15C14.8011 13.2351 14.6103 13.1561 14.4697 13.0154C14.329 12.8748 14.25 12.684 14.25 12.4851C14.25 12.2862 14.329 12.0954 14.4697 11.9548C14.6103 11.8141 14.8011 11.7351 15 11.7351H18.75C18.9489 11.7351 19.1397 11.8141 19.2803 11.9548C19.421 12.0954 19.5 12.2862 19.5 12.4851ZM19.5 15.4851C19.5 15.684 19.421 15.8748 19.2803 16.0154C19.1397 16.1561 18.9489 16.2351 18.75 16.2351H15C14.8011 16.2351 14.6103 16.1561 14.4697 16.0154C14.329 15.8748 14.25 15.684 14.25 15.4851C14.25 15.2862 14.329 15.0954 14.4697 14.9548C14.6103 14.8141 14.8011 14.7351 15 14.7351H18.75C18.9489 14.7351 19.1397 14.8141 19.2803 14.9548C19.421 15.0954 19.5 15.2862 19.5 15.4851Z" fill="#FF5500"/>
</svg>
