<svg width="375" height="85" viewBox="0 0 375 85" fill="none" xmlns="http://www.w3.org/2000/svg">
<mask id="mask0_11610_10124" style="mask-type:alpha" maskUnits="userSpaceOnUse" x="-381" y="-43" width="827" height="144">
<path d="M-371 -42.5621L435.276 -42.5625C440.799 -42.5625 445.276 -38.0853 445.276 -32.5625V90.4371C445.276 95.9599 440.799 100.437 435.276 100.437L-371 100.438C-376.523 100.438 -381 95.9604 -381 90.4375V-32.5621C-381 -38.0849 -376.523 -42.5621 -371 -42.5621Z" fill="url(#paint0_linear_11610_10124)"/>
</mask>
<g mask="url(#mask0_11610_10124)">
<path d="M2.22412 -320.516L-441.776 448.515" stroke="#1C76FD" stroke-width="0.5"/>
<path d="M5.68823 -318.516L-438.312 450.515" stroke="#1C76FD" stroke-width="0.5"/>
<path d="M9.15234 -316.516L-434.848 452.515" stroke="#1C76FD" stroke-width="0.5"/>
<path d="M12.6165 -314.516L-431.384 454.515" stroke="#1C76FD" stroke-width="0.5"/>
<path d="M16.0806 -312.516L-427.919 456.515" stroke="#1C76FD" stroke-width="0.5"/>
<path d="M19.5447 -310.516L-424.455 458.515" stroke="#1C76FD" stroke-width="0.5"/>
<path d="M23.0088 -308.516L-420.991 460.515" stroke="#1C76FD" stroke-width="0.5"/>
<path d="M26.4729 -306.516L-417.527 462.515" stroke="#1C76FD" stroke-width="0.5"/>
<path d="M29.937 -304.516L-414.063 464.515" stroke="#1C76FD" stroke-width="0.5"/>
<path d="M33.4011 -302.516L-410.599 466.515" stroke="#1C76FD" stroke-width="0.5"/>
<path d="M36.8652 -300.516L-407.135 468.515" stroke="#1C76FD" stroke-width="0.5"/>
<path d="M40.3293 -298.516L-403.671 470.515" stroke="#1C76FD" stroke-width="0.5"/>
<path d="M43.7935 -296.516L-400.207 472.515" stroke="#1C76FD" stroke-width="0.5"/>
<path d="M47.2576 -294.516L-396.742 474.515" stroke="#1C76FD" stroke-width="0.5"/>
<path d="M50.7217 -292.516L-393.278 476.515" stroke="#1C76FD" stroke-width="0.5"/>
<path d="M54.1858 -290.516L-389.814 478.515" stroke="#1C76FD" stroke-width="0.5"/>
<path d="M57.6499 -288.516L-386.35 480.515" stroke="#1C76FD" stroke-width="0.5"/>
<path d="M61.114 -286.516L-382.886 482.515" stroke="#1C76FD" stroke-width="0.5"/>
<path d="M64.5781 -284.516L-379.422 484.515" stroke="#1C76FD" stroke-width="0.5"/>
<path d="M68.0422 -282.516L-375.958 486.515" stroke="#1C76FD" stroke-width="0.5"/>
<path d="M71.5063 -280.516L-372.494 488.515" stroke="#1C76FD" stroke-width="0.5"/>
<path d="M74.9702 -278.516L-369.03 490.515" stroke="#1C76FD" stroke-width="0.5"/>
<path d="M78.4343 -276.516L-365.566 492.515" stroke="#1C76FD" stroke-width="0.5"/>
<path d="M81.8984 -274.516L-362.102 494.515" stroke="#1C76FD" stroke-width="0.5"/>
<path d="M85.3625 -272.516L-358.637 496.515" stroke="#1C76FD" stroke-width="0.5"/>
<path d="M88.8267 -270.516L-355.173 498.515" stroke="#1C76FD" stroke-width="0.5"/>
<path d="M92.2908 -268.516L-351.709 500.515" stroke="#1C76FD" stroke-width="0.5"/>
<path d="M95.7549 -266.516L-348.245 502.515" stroke="#1C76FD" stroke-width="0.5"/>
<path d="M99.219 -264.516L-344.781 504.515" stroke="#1C76FD" stroke-width="0.5"/>
<path d="M102.683 -262.516L-341.317 506.515" stroke="#1C76FD" stroke-width="0.5"/>
<path d="M106.147 -260.516L-337.853 508.515" stroke="#1C76FD" stroke-width="0.5"/>
<path d="M109.611 -258.516L-334.389 510.515" stroke="#1C76FD" stroke-width="0.5"/>
<path d="M113.075 -256.516L-330.925 512.515" stroke="#1C76FD" stroke-width="0.5"/>
<path d="M116.54 -254.516L-327.46 514.515" stroke="#1C76FD" stroke-width="0.5"/>
<path d="M120.004 -252.516L-323.996 516.515" stroke="#1C76FD" stroke-width="0.5"/>
<path d="M123.468 -250.516L-320.532 518.515" stroke="#1C76FD" stroke-width="0.5"/>
<path d="M126.932 -248.516L-317.068 520.515" stroke="#1C76FD" stroke-width="0.5"/>
<path d="M130.396 -246.516L-313.604 522.515" stroke="#1C76FD" stroke-width="0.5"/>
<path d="M133.86 -244.516L-310.14 524.515" stroke="#1C76FD" stroke-width="0.5"/>
<path d="M137.324 -242.516L-306.676 526.515" stroke="#1C76FD" stroke-width="0.5"/>
<path d="M140.788 -240.516L-303.212 528.515" stroke="#1C76FD" stroke-width="0.5"/>
<path d="M144.252 -238.516L-299.748 530.515" stroke="#1C76FD" stroke-width="0.5"/>
<path d="M147.717 -236.516L-296.283 532.515" stroke="#1C76FD" stroke-width="0.5"/>
<path d="M151.181 -234.516L-292.819 534.515" stroke="#1C76FD" stroke-width="0.5"/>
<path d="M154.645 -232.516L-289.355 536.515" stroke="#1C76FD" stroke-width="0.5"/>
<path d="M158.109 -230.516L-285.891 538.515" stroke="#1C76FD" stroke-width="0.5"/>
<path d="M161.573 -228.516L-282.427 540.515" stroke="#1C76FD" stroke-width="0.5"/>
<path d="M165.037 -226.516L-278.963 542.515" stroke="#1C76FD" stroke-width="0.5"/>
<path d="M168.501 -224.516L-275.499 544.515" stroke="#1C76FD" stroke-width="0.5"/>
<path d="M171.965 -222.516L-272.035 546.515" stroke="#1C76FD" stroke-width="0.5"/>
<path d="M175.429 -220.516L-268.571 548.515" stroke="#1C76FD" stroke-width="0.5"/>
<path d="M178.893 -218.516L-265.107 550.515" stroke="#1C76FD" stroke-width="0.5"/>
<path d="M182.357 -216.516L-261.643 552.515" stroke="#1C76FD" stroke-width="0.5"/>
<path d="M185.822 -214.516L-258.178 554.515" stroke="#1C76FD" stroke-width="0.5"/>
<path d="M189.286 -212.516L-254.714 556.515" stroke="#1C76FD" stroke-width="0.5"/>
<path d="M192.75 -210.516L-251.25 558.515" stroke="#1C76FD" stroke-width="0.5"/>
<path d="M196.214 -208.516L-247.786 560.515" stroke="#1C76FD" stroke-width="0.5"/>
<path d="M199.678 -206.516L-244.322 562.515" stroke="#1C76FD" stroke-width="0.5"/>
<path d="M203.142 -204.516L-240.858 564.515" stroke="#1C76FD" stroke-width="0.5"/>
<path d="M206.606 -202.516L-237.394 566.515" stroke="#1C76FD" stroke-width="0.5"/>
<path d="M210.07 -200.516L-233.93 568.515" stroke="#1C76FD" stroke-width="0.5"/>
<path d="M213.534 -198.516L-230.466 570.515" stroke="#1C76FD" stroke-width="0.5"/>
<path d="M216.999 -196.516L-227.001 572.515" stroke="#1C76FD" stroke-width="0.5"/>
<path d="M220.463 -194.516L-223.537 574.515" stroke="#1C76FD" stroke-width="0.5"/>
<path d="M223.927 -192.516L-220.073 576.515" stroke="#1C76FD" stroke-width="0.5"/>
<path d="M227.391 -190.516L-216.609 578.515" stroke="#1C76FD" stroke-width="0.5"/>
<path d="M230.855 -188.516L-213.145 580.515" stroke="#1C76FD" stroke-width="0.5"/>
<path d="M234.319 -186.516L-209.681 582.515" stroke="#1C76FD" stroke-width="0.5"/>
<path d="M237.783 -184.516L-206.217 584.515" stroke="#1C76FD" stroke-width="0.5"/>
<path d="M241.247 -182.516L-202.753 586.515" stroke="#1C76FD" stroke-width="0.5"/>
<path d="M244.711 -180.516L-199.289 588.515" stroke="#1C76FD" stroke-width="0.5"/>
<path d="M248.175 -178.516L-195.825 590.515" stroke="#1C76FD" stroke-width="0.5"/>
<path d="M251.639 -176.516L-192.361 592.515" stroke="#1C76FD" stroke-width="0.5"/>
<path d="M255.104 -174.516L-188.896 594.515" stroke="#1C76FD" stroke-width="0.5"/>
<path d="M258.568 -172.516L-185.432 596.515" stroke="#1C76FD" stroke-width="0.5"/>
<path d="M262.032 -170.516L-181.968 598.515" stroke="#1C76FD" stroke-width="0.5"/>
<path d="M265.496 -168.516L-178.504 600.515" stroke="#1C76FD" stroke-width="0.5"/>
<path d="M268.96 -166.516L-175.04 602.515" stroke="#1C76FD" stroke-width="0.5"/>
<path d="M272.424 -164.516L-171.576 604.515" stroke="#1C76FD" stroke-width="0.5"/>
<path d="M275.888 -162.516L-168.112 606.515" stroke="#1C76FD" stroke-width="0.5"/>
<path d="M279.352 -160.516L-164.648 608.515" stroke="#1C76FD" stroke-width="0.5"/>
<path d="M282.816 -158.516L-161.184 610.515" stroke="#1C76FD" stroke-width="0.5"/>
<path d="M286.281 -156.516L-157.719 612.515" stroke="#1C76FD" stroke-width="0.5"/>
<path d="M289.745 -154.516L-154.255 614.515" stroke="#1C76FD" stroke-width="0.5"/>
<path d="M293.209 -152.516L-150.791 616.515" stroke="#1C76FD" stroke-width="0.5"/>
<path d="M296.673 -150.516L-147.327 618.515" stroke="#1C76FD" stroke-width="0.5"/>
<path d="M300.137 -148.516L-143.863 620.515" stroke="#1C76FD" stroke-width="0.5"/>
<path d="M303.601 -146.516L-140.399 622.515" stroke="#1C76FD" stroke-width="0.5"/>
<path d="M307.065 -144.516L-136.935 624.515" stroke="#1C76FD" stroke-width="0.5"/>
<path d="M310.529 -142.516L-133.471 626.515" stroke="#1C76FD" stroke-width="0.5"/>
<path d="M313.993 -140.516L-130.007 628.515" stroke="#1C76FD" stroke-width="0.5"/>
<path d="M317.458 -138.516L-126.542 630.515" stroke="#1C76FD" stroke-width="0.5"/>
<path d="M320.922 -136.516L-123.078 632.515" stroke="#1C76FD" stroke-width="0.5"/>
<path d="M324.386 -134.516L-119.614 634.515" stroke="#1C76FD" stroke-width="0.5"/>
<path d="M327.85 -132.516L-116.15 636.515" stroke="#1C76FD" stroke-width="0.5"/>
<path d="M331.314 -130.516L-112.686 638.515" stroke="#1C76FD" stroke-width="0.5"/>
<path d="M334.778 -128.516L-109.222 640.515" stroke="#1C76FD" stroke-width="0.5"/>
<path d="M338.242 -126.516L-105.758 642.515" stroke="#1C76FD" stroke-width="0.5"/>
<path d="M341.706 -124.516L-102.294 644.515" stroke="#1C76FD" stroke-width="0.5"/>
<path d="M345.17 -122.516L-98.8298 646.515" stroke="#1C76FD" stroke-width="0.5"/>
<path d="M348.634 -120.516L-95.3657 648.515" stroke="#1C76FD" stroke-width="0.5"/>
<path d="M352.098 -118.516L-91.9016 650.515" stroke="#1C76FD" stroke-width="0.5"/>
<path d="M355.562 -116.516L-88.4375 652.515" stroke="#1C76FD" stroke-width="0.5"/>
<path d="M359.027 -114.516L-84.9734 654.515" stroke="#1C76FD" stroke-width="0.5"/>
<path d="M362.491 -112.516L-81.5093 656.515" stroke="#1C76FD" stroke-width="0.5"/>
<path d="M365.955 -110.516L-78.0452 658.515" stroke="#1C76FD" stroke-width="0.5"/>
<path d="M369.419 -108.516L-74.581 660.515" stroke="#1C76FD" stroke-width="0.5"/>
<path d="M372.883 -106.516L-71.1169 662.515" stroke="#1C76FD" stroke-width="0.5"/>
<path d="M376.347 -104.516L-67.6528 664.515" stroke="#1C76FD" stroke-width="0.5"/>
<path d="M379.811 -102.516L-64.1887 666.515" stroke="#1C76FD" stroke-width="0.5"/>
<path d="M383.275 -100.516L-60.7246 668.515" stroke="#1C76FD" stroke-width="0.5"/>
<path d="M386.74 -98.5156L-57.2605 670.515" stroke="#1C76FD" stroke-width="0.5"/>
<path d="M390.204 -96.5156L-53.7964 672.515" stroke="#1C76FD" stroke-width="0.5"/>
<path d="M393.668 -94.5156L-50.3323 674.515" stroke="#1C76FD" stroke-width="0.5"/>
<path d="M397.132 -92.5156L-46.8682 676.515" stroke="#1C76FD" stroke-width="0.5"/>
<path d="M400.596 -90.5156L-43.404 678.515" stroke="#1C76FD" stroke-width="0.5"/>
<path d="M404.06 -88.5156L-39.9399 680.515" stroke="#1C76FD" stroke-width="0.5"/>
<path d="M407.524 -86.5156L-36.4758 682.515" stroke="#1C76FD" stroke-width="0.5"/>
<path d="M410.988 -84.5156L-33.0117 684.515" stroke="#1C76FD" stroke-width="0.5"/>
<path d="M414.452 -82.5156L-29.5476 686.515" stroke="#1C76FD" stroke-width="0.5"/>
<path d="M417.917 -80.5156L-26.0835 688.515" stroke="#1C76FD" stroke-width="0.5"/>
<path d="M421.38 -78.5156L-22.6196 690.515" stroke="#1C76FD" stroke-width="0.5"/>
<path d="M424.844 -76.5156L-19.1555 692.515" stroke="#1C76FD" stroke-width="0.5"/>
<path d="M428.309 -74.5156L-15.6914 694.515" stroke="#1C76FD" stroke-width="0.5"/>
<path d="M431.773 -72.5156L-12.2273 696.515" stroke="#1C76FD" stroke-width="0.5"/>
<path d="M435.237 -70.5156L-8.76317 698.515" stroke="#1C76FD" stroke-width="0.5"/>
<path d="M438.701 -68.5156L-5.29906 700.515" stroke="#1C76FD" stroke-width="0.5"/>
<path d="M442.165 -66.5156L-1.83495 702.515" stroke="#1C76FD" stroke-width="0.5"/>
<path d="M445.629 -64.5156L1.62916 704.515" stroke="#1C76FD" stroke-width="0.5"/>
<path d="M449.093 -62.5156L5.09327 706.515" stroke="#1C76FD" stroke-width="0.5"/>
<path d="M452.557 -60.5156L8.55739 708.515" stroke="#1C76FD" stroke-width="0.5"/>
<path d="M456.021 -58.5156L12.0215 710.515" stroke="#1C76FD" stroke-width="0.5"/>
<path d="M459.486 -56.5156L15.4856 712.515" stroke="#1C76FD" stroke-width="0.5"/>
<path d="M462.95 -54.5156L18.9497 714.515" stroke="#1C76FD" stroke-width="0.5"/>
<path d="M466.414 -52.5156L22.4138 716.515" stroke="#1C76FD" stroke-width="0.5"/>
<path d="M469.878 -50.5156L25.8779 718.515" stroke="#1C76FD" stroke-width="0.5"/>
<path d="M473.342 -48.5156L29.3421 720.515" stroke="#1C76FD" stroke-width="0.5"/>
<path d="M476.806 -46.5156L32.8062 722.515" stroke="#1C76FD" stroke-width="0.5"/>
<path d="M480.27 -44.5156L36.2703 724.515" stroke="#1C76FD" stroke-width="0.5"/>
<path d="M483.734 -42.5156L39.7344 726.515" stroke="#1C76FD" stroke-width="0.5"/>
<path d="M487.198 -40.5156L43.1985 728.515" stroke="#1C76FD" stroke-width="0.5"/>
<path d="M490.663 -38.5156L46.6626 730.515" stroke="#1C76FD" stroke-width="0.5"/>
<path d="M494.127 -36.5156L50.1267 732.515" stroke="#1C76FD" stroke-width="0.5"/>
<path d="M497.591 -34.5156L53.5908 734.515" stroke="#1C76FD" stroke-width="0.5"/>
<path d="M501.055 -32.5156L57.0549 736.515" stroke="#1C76FD" stroke-width="0.5"/>
<path d="M504.519 -30.5156L60.5191 738.515" stroke="#1C76FD" stroke-width="0.5"/>
<path d="M507.983 -28.5156L63.9829 740.515" stroke="#1C76FD" stroke-width="0.5"/>
<path d="M511.447 -26.5156L67.447 742.515" stroke="#1C76FD" stroke-width="0.5"/>
<path d="M514.911 -24.5156L70.9111 744.515" stroke="#1C76FD" stroke-width="0.5"/>
<path d="M518.375 -22.5156L74.3753 746.515" stroke="#1C76FD" stroke-width="0.5"/>
<path d="M521.839 -20.5156L77.8394 748.515" stroke="#1C76FD" stroke-width="0.5"/>
<path d="M525.303 -18.5156L81.3035 750.515" stroke="#1C76FD" stroke-width="0.5"/>
<path d="M528.768 -16.5156L84.7676 752.515" stroke="#1C76FD" stroke-width="0.5"/>
<path d="M532.232 -14.5156L88.2317 754.515" stroke="#1C76FD" stroke-width="0.5"/>
<path d="M535.696 -12.5156L91.6958 756.515" stroke="#1C76FD" stroke-width="0.5"/>
<path d="M539.16 -10.5156L95.1599 758.515" stroke="#1C76FD" stroke-width="0.5"/>
<path d="M542.624 -8.51562L98.624 760.515" stroke="#1C76FD" stroke-width="0.5"/>
<path d="M546.088 -6.51562L102.088 762.515" stroke="#1C76FD" stroke-width="0.5"/>
<path d="M549.552 -4.51562L105.552 764.515" stroke="#1C76FD" stroke-width="0.5"/>
<path d="M553.016 -2.51562L109.016 766.515" stroke="#1C76FD" stroke-width="0.5"/>
<path d="M556.48 -0.515625L112.48 768.515" stroke="#1C76FD" stroke-width="0.5"/>
<path d="M559.945 1.48438L115.945 770.515" stroke="#1C76FD" stroke-width="0.5"/>
<path d="M563.409 3.48438L119.409 772.515" stroke="#1C76FD" stroke-width="0.5"/>
<path d="M566.873 5.48438L122.873 774.515" stroke="#1C76FD" stroke-width="0.5"/>
<path d="M570.337 7.48438L126.337 776.515" stroke="#1C76FD" stroke-width="0.5"/>
<path d="M573.801 9.48438L129.801 778.515" stroke="#1C76FD" stroke-width="0.5"/>
<path d="M577.265 11.4844L133.265 780.515" stroke="#1C76FD" stroke-width="0.5"/>
<path d="M580.729 13.4844L136.729 782.515" stroke="#1C76FD" stroke-width="0.5"/>
<path d="M584.193 15.4844L140.193 784.515" stroke="#1C76FD" stroke-width="0.5"/>
<path d="M587.657 17.4844L143.657 786.515" stroke="#1C76FD" stroke-width="0.5"/>
<path d="M591.122 19.4844L147.122 788.515" stroke="#1C76FD" stroke-width="0.5"/>
<path d="M594.585 21.4844L150.585 790.515" stroke="#1C76FD" stroke-width="0.5"/>
<path d="M598.05 23.4844L154.05 792.515" stroke="#1C76FD" stroke-width="0.5"/>
<path d="M601.514 25.4844L157.514 794.515" stroke="#1C76FD" stroke-width="0.5"/>
<path d="M604.978 27.4844L160.978 796.515" stroke="#1C76FD" stroke-width="0.5"/>
<path d="M608.442 29.4844L164.442 798.515" stroke="#1C76FD" stroke-width="0.5"/>
<path d="M611.906 31.4844L167.906 800.515" stroke="#1C76FD" stroke-width="0.5"/>
<path d="M615.37 33.4844L171.37 802.515" stroke="#1C76FD" stroke-width="0.5"/>
<path d="M618.834 35.4844L174.834 804.515" stroke="#1C76FD" stroke-width="0.5"/>
<path d="M622.298 37.4844L178.298 806.515" stroke="#1C76FD" stroke-width="0.5"/>
<path d="M625.762 39.4844L181.762 808.515" stroke="#1C76FD" stroke-width="0.5"/>
<path d="M629.227 41.4844L185.227 810.515" stroke="#1C76FD" stroke-width="0.5"/>
<path d="M632.691 43.4844L188.691 812.515" stroke="#1C76FD" stroke-width="0.5"/>
<path d="M636.155 45.4844L192.155 814.515" stroke="#1C76FD" stroke-width="0.5"/>
<path d="M639.619 47.4844L195.619 816.515" stroke="#1C76FD" stroke-width="0.5"/>
<path d="M643.083 49.4844L199.083 818.515" stroke="#1C76FD" stroke-width="0.5"/>
<path d="M646.547 51.4844L202.547 820.515" stroke="#1C76FD" stroke-width="0.5"/>
<path d="M650.011 53.4844L206.011 822.515" stroke="#1C76FD" stroke-width="0.5"/>
<path d="M653.475 55.4844L209.475 824.515" stroke="#1C76FD" stroke-width="0.5"/>
<path d="M656.939 57.4844L212.939 826.515" stroke="#1C76FD" stroke-width="0.5"/>
<path d="M660.404 59.4844L216.404 828.515" stroke="#1C76FD" stroke-width="0.5"/>
<path d="M663.868 61.4844L219.868 830.515" stroke="#1C76FD" stroke-width="0.5"/>
<path d="M667.332 63.4844L223.332 832.515" stroke="#1C76FD" stroke-width="0.5"/>
<path d="M670.796 65.4844L226.796 834.515" stroke="#1C76FD" stroke-width="0.5"/>
<path d="M674.26 67.4844L230.26 836.515" stroke="#1C76FD" stroke-width="0.5"/>
<path d="M677.724 69.4844L233.724 838.515" stroke="#1C76FD" stroke-width="0.5"/>
<path d="M681.188 71.4844L237.188 840.515" stroke="#1C76FD" stroke-width="0.5"/>
<path d="M684.652 73.4844L240.652 842.515" stroke="#1C76FD" stroke-width="0.5"/>
<path d="M688.116 75.4844L244.116 844.515" stroke="#1C76FD" stroke-width="0.5"/>
<path d="M691.58 77.4844L247.58 846.515" stroke="#1C76FD" stroke-width="0.5"/>
<path d="M695.044 79.4844L251.044 848.515" stroke="#1C76FD" stroke-width="0.5"/>
<path d="M698.509 81.4844L254.509 850.515" stroke="#1C76FD" stroke-width="0.5"/>
<path d="M701.973 83.4844L257.973 852.515" stroke="#1C76FD" stroke-width="0.5"/>
</g>
<defs>
<linearGradient id="paint0_linear_11610_10124" x1="460.776" y1="45.5" x2="71.1496" y2="222.815" gradientUnits="userSpaceOnUse">
<stop stop-color="#FF5500"/>
<stop offset="1" stop-color="#FF5500" stop-opacity="0"/>
</linearGradient>
</defs>
</svg>
