<svg width="1920" height="50" viewBox="0 0 1920 50" fill="none" xmlns="http://www.w3.org/2000/svg">
<mask id="mask0_11610_20640" style="mask-type:alpha" maskUnits="userSpaceOnUse" x="-50" y="-93" width="1981" height="146">
<path d="M-39.9999 -92.9996L1918.8 -93C1924.26 -93 1928.71 -88.6207 1928.8 -83.1615L1930.84 42.8278C1930.93 48.4172 1926.42 52.9952 1920.83 52.9893L-40.0105 50.9346C-45.5292 50.9288 -50 46.4534 -50 40.9346V-82.9996C-50 -88.5224 -45.5228 -92.9996 -39.9999 -92.9996Z" fill="url(#paint0_linear_11610_20640)"/>
</mask>
<g mask="url(#mask0_11610_20640)">
<path d="M873.821 -1076.41L-205.062 2.46833" stroke="#1C76FD" stroke-width="0.5"/>
<path d="M876.65 -1073.59L-202.233 5.29694" stroke="#1C76FD" stroke-width="0.5"/>
<path d="M879.478 -1070.76L-199.405 8.12531" stroke="#1C76FD" stroke-width="0.5"/>
<path d="M882.307 -1067.93L-196.576 10.9537" stroke="#1C76FD" stroke-width="0.5"/>
<path d="M885.135 -1065.1L-193.748 13.7821" stroke="#1C76FD" stroke-width="0.5"/>
<path d="M887.964 -1062.27L-190.919 16.6107" stroke="#1C76FD" stroke-width="0.5"/>
<path d="M890.792 -1059.44L-188.091 19.439" stroke="#1C76FD" stroke-width="0.5"/>
<path d="M893.62 -1056.62L-185.263 22.2674" stroke="#1C76FD" stroke-width="0.5"/>
<path d="M896.449 -1053.79L-182.434 25.0958" stroke="#1C76FD" stroke-width="0.5"/>
<path d="M899.277 -1050.96L-179.606 27.9244" stroke="#1C76FD" stroke-width="0.5"/>
<path d="M902.106 -1048.13L-176.777 30.7528" stroke="#1C76FD" stroke-width="0.5"/>
<path d="M904.934 -1045.3L-173.949 33.5811" stroke="#1C76FD" stroke-width="0.5"/>
<path d="M907.762 -1042.47L-171.12 36.4095" stroke="#1C76FD" stroke-width="0.5"/>
<path d="M910.591 -1039.64L-168.292 39.2381" stroke="#1C76FD" stroke-width="0.5"/>
<path d="M913.419 -1036.82L-165.463 42.0665" stroke="#1C76FD" stroke-width="0.5"/>
<path d="M916.248 -1033.99L-162.635 44.8948" stroke="#1C76FD" stroke-width="0.5"/>
<path d="M919.076 -1031.16L-159.807 47.7232" stroke="#1C76FD" stroke-width="0.5"/>
<path d="M921.905 -1028.33L-156.978 50.5518" stroke="#1C76FD" stroke-width="0.5"/>
<path d="M924.733 -1025.5L-154.15 53.3802" stroke="#1C76FD" stroke-width="0.5"/>
<path d="M927.562 -1022.67L-151.321 56.2086" stroke="#1C76FD" stroke-width="0.5"/>
<path d="M930.39 -1019.85L-148.493 59.0369" stroke="#1C76FD" stroke-width="0.5"/>
<path d="M933.218 -1017.02L-145.665 61.8653" stroke="#1C76FD" stroke-width="0.5"/>
<path d="M936.047 -1014.19L-142.836 64.6939" stroke="#1C76FD" stroke-width="0.5"/>
<path d="M938.875 -1011.36L-140.008 67.5223" stroke="#1C76FD" stroke-width="0.5"/>
<path d="M941.704 -1008.53L-137.179 70.3507" stroke="#1C76FD" stroke-width="0.5"/>
<path d="M944.532 -1005.7L-134.351 73.179" stroke="#1C76FD" stroke-width="0.5"/>
<path d="M947.361 -1002.88L-131.522 76.0076" stroke="#1C76FD" stroke-width="0.5"/>
<path d="M950.189 -1000.05L-128.694 78.836" stroke="#1C76FD" stroke-width="0.5"/>
<path d="M953.017 -997.219L-125.866 81.6644" stroke="#1C76FD" stroke-width="0.5"/>
<path d="M955.846 -994.39L-123.037 84.4927" stroke="#1C76FD" stroke-width="0.5"/>
<path d="M958.674 -991.562L-120.209 87.3214" stroke="#1C76FD" stroke-width="0.5"/>
<path d="M961.503 -988.733L-117.38 90.1497" stroke="#1C76FD" stroke-width="0.5"/>
<path d="M964.331 -985.905L-114.552 92.9781" stroke="#1C76FD" stroke-width="0.5"/>
<path d="M967.159 -983.076L-111.723 95.8065" stroke="#1C76FD" stroke-width="0.5"/>
<path d="M969.988 -980.248L-108.895 98.6351" stroke="#1C76FD" stroke-width="0.5"/>
<path d="M972.816 -977.419L-106.066 101.463" stroke="#1C76FD" stroke-width="0.5"/>
<path d="M975.645 -974.591L-103.238 104.292" stroke="#1C76FD" stroke-width="0.5"/>
<path d="M978.473 -971.763L-100.41 107.12" stroke="#1C76FD" stroke-width="0.5"/>
<path d="M981.302 -968.934L-97.5814 109.949" stroke="#1C76FD" stroke-width="0.5"/>
<path d="M984.13 -966.106L-94.7528 112.777" stroke="#1C76FD" stroke-width="0.5"/>
<path d="M986.958 -963.277L-91.9244 115.606" stroke="#1C76FD" stroke-width="0.5"/>
<path d="M989.787 -960.449L-89.096 118.434" stroke="#1C76FD" stroke-width="0.5"/>
<path d="M992.615 -957.621L-86.2676 121.262" stroke="#1C76FD" stroke-width="0.5"/>
<path d="M995.444 -954.792L-83.439 124.091" stroke="#1C76FD" stroke-width="0.5"/>
<path d="M998.272 -951.964L-80.6107 126.919" stroke="#1C76FD" stroke-width="0.5"/>
<path d="M1001.1 -949.135L-77.7823 129.748" stroke="#1C76FD" stroke-width="0.5"/>
<path d="M1003.93 -946.307L-74.9539 132.576" stroke="#1C76FD" stroke-width="0.5"/>
<path d="M1006.76 -943.478L-72.1253 135.405" stroke="#1C76FD" stroke-width="0.5"/>
<path d="M1009.59 -940.65L-69.2969 138.233" stroke="#1C76FD" stroke-width="0.5"/>
<path d="M1012.41 -937.822L-66.4686 141.061" stroke="#1C76FD" stroke-width="0.5"/>
<path d="M1015.24 -934.993L-63.6402 143.89" stroke="#1C76FD" stroke-width="0.5"/>
<path d="M1018.07 -932.165L-60.8116 146.718" stroke="#1C76FD" stroke-width="0.5"/>
<path d="M1020.9 -929.336L-57.9832 149.547" stroke="#1C76FD" stroke-width="0.5"/>
<path d="M1023.73 -926.508L-55.1549 152.375" stroke="#1C76FD" stroke-width="0.5"/>
<path d="M1026.56 -923.679L-52.3265 155.203" stroke="#1C76FD" stroke-width="0.5"/>
<path d="M1029.39 -920.851L-49.4979 158.032" stroke="#1C76FD" stroke-width="0.5"/>
<path d="M1032.21 -918.022L-46.6695 160.86" stroke="#1C76FD" stroke-width="0.5"/>
<path d="M1035.04 -915.194L-43.8411 163.689" stroke="#1C76FD" stroke-width="0.5"/>
<path d="M1037.87 -912.366L-41.0128 166.517" stroke="#1C76FD" stroke-width="0.5"/>
<path d="M1040.7 -909.537L-38.1844 169.346" stroke="#1C76FD" stroke-width="0.5"/>
<path d="M1043.53 -906.709L-35.3558 172.174" stroke="#1C76FD" stroke-width="0.5"/>
<path d="M1046.36 -903.88L-32.5274 175.003" stroke="#1C76FD" stroke-width="0.5"/>
<path d="M1049.18 -901.052L-29.699 177.831" stroke="#1C76FD" stroke-width="0.5"/>
<path d="M1052.01 -898.224L-26.8707 180.659" stroke="#1C76FD" stroke-width="0.5"/>
<path d="M1054.84 -895.395L-24.0421 183.488" stroke="#1C76FD" stroke-width="0.5"/>
<path d="M1057.67 -892.567L-21.2137 186.316" stroke="#1C76FD" stroke-width="0.5"/>
<path d="M1060.5 -889.738L-18.3853 189.145" stroke="#1C76FD" stroke-width="0.5"/>
<path d="M1063.33 -886.91L-15.557 191.973" stroke="#1C76FD" stroke-width="0.5"/>
<path d="M1066.15 -884.081L-12.7283 194.802" stroke="#1C76FD" stroke-width="0.5"/>
<path d="M1068.98 -881.253L-9.89997 197.63" stroke="#1C76FD" stroke-width="0.5"/>
<path d="M1071.81 -878.425L-7.0716 200.458" stroke="#1C76FD" stroke-width="0.5"/>
<path d="M1074.64 -875.596L-4.24323 203.287" stroke="#1C76FD" stroke-width="0.5"/>
<path d="M1077.47 -872.768L-1.41462 206.115" stroke="#1C76FD" stroke-width="0.5"/>
<path d="M1080.3 -869.939L1.41375 208.944" stroke="#1C76FD" stroke-width="0.5"/>
<path d="M1083.12 -867.111L4.24212 211.772" stroke="#1C76FD" stroke-width="0.5"/>
<path d="M1085.95 -864.282L7.07049 214.6" stroke="#1C76FD" stroke-width="0.5"/>
<path d="M1088.78 -861.454L9.8991 217.429" stroke="#1C76FD" stroke-width="0.5"/>
<path d="M1091.61 -858.625L12.7275 220.257" stroke="#1C76FD" stroke-width="0.5"/>
<path d="M1094.44 -855.797L15.5558 223.086" stroke="#1C76FD" stroke-width="0.5"/>
<path d="M1097.27 -852.969L18.3842 225.914" stroke="#1C76FD" stroke-width="0.5"/>
<path d="M1100.1 -850.14L21.2126 228.743" stroke="#1C76FD" stroke-width="0.5"/>
<path d="M1102.92 -847.312L24.0412 231.571" stroke="#1C76FD" stroke-width="0.5"/>
<path d="M1105.75 -844.483L26.8696 234.399" stroke="#1C76FD" stroke-width="0.5"/>
<path d="M1108.58 -841.655L29.6979 237.228" stroke="#1C76FD" stroke-width="0.5"/>
<path d="M1111.41 -838.827L32.5263 240.056" stroke="#1C76FD" stroke-width="0.5"/>
<path d="M1114.24 -835.998L35.3549 242.885" stroke="#1C76FD" stroke-width="0.5"/>
<path d="M1117.07 -833.17L38.1833 245.713" stroke="#1C76FD" stroke-width="0.5"/>
<path d="M1119.89 -830.341L41.0116 248.542" stroke="#1C76FD" stroke-width="0.5"/>
<path d="M1122.72 -827.513L43.84 251.37" stroke="#1C76FD" stroke-width="0.5"/>
<path d="M1125.55 -824.684L46.6686 254.199" stroke="#1C76FD" stroke-width="0.5"/>
<path d="M1128.38 -821.856L49.497 257.027" stroke="#1C76FD" stroke-width="0.5"/>
<path d="M1131.21 -819.028L52.3254 259.855" stroke="#1C76FD" stroke-width="0.5"/>
<path d="M1134.04 -816.199L55.1537 262.684" stroke="#1C76FD" stroke-width="0.5"/>
<path d="M1136.87 -813.371L57.9824 265.512" stroke="#1C76FD" stroke-width="0.5"/>
<path d="M1139.69 -810.542L60.8107 268.341" stroke="#1C76FD" stroke-width="0.5"/>
<path d="M1142.52 -807.714L63.6391 271.169" stroke="#1C76FD" stroke-width="0.5"/>
<path d="M1145.35 -804.885L66.4675 273.997" stroke="#1C76FD" stroke-width="0.5"/>
<path d="M1148.18 -802.057L69.2958 276.826" stroke="#1C76FD" stroke-width="0.5"/>
<path d="M1151.01 -799.229L72.1244 279.654" stroke="#1C76FD" stroke-width="0.5"/>
<path d="M1153.84 -796.4L74.9528 282.483" stroke="#1C76FD" stroke-width="0.5"/>
<path d="M1156.66 -793.572L77.7812 285.311" stroke="#1C76FD" stroke-width="0.5"/>
<path d="M1159.49 -790.743L80.6096 288.139" stroke="#1C76FD" stroke-width="0.5"/>
<path d="M1162.32 -787.915L83.4382 290.968" stroke="#1C76FD" stroke-width="0.5"/>
<path d="M1165.15 -785.086L86.2665 293.796" stroke="#1C76FD" stroke-width="0.5"/>
<path d="M1167.98 -782.258L89.0949 296.625" stroke="#1C76FD" stroke-width="0.5"/>
<path d="M1170.81 -779.43L91.9233 299.453" stroke="#1C76FD" stroke-width="0.5"/>
<path d="M1173.63 -776.601L94.7519 302.282" stroke="#1C76FD" stroke-width="0.5"/>
<path d="M1176.46 -773.773L97.5803 305.11" stroke="#1C76FD" stroke-width="0.5"/>
<path d="M1179.29 -770.944L100.409 307.939" stroke="#1C76FD" stroke-width="0.5"/>
<path d="M1182.12 -768.116L103.237 310.767" stroke="#1C76FD" stroke-width="0.5"/>
<path d="M1184.95 -765.287L106.066 313.596" stroke="#1C76FD" stroke-width="0.5"/>
<path d="M1187.78 -762.459L108.894 316.424" stroke="#1C76FD" stroke-width="0.5"/>
<path d="M1190.61 -759.631L111.722 319.252" stroke="#1C76FD" stroke-width="0.5"/>
<path d="M1193.43 -756.802L114.551 322.081" stroke="#1C76FD" stroke-width="0.5"/>
<path d="M1196.26 -753.974L117.379 324.909" stroke="#1C76FD" stroke-width="0.5"/>
<path d="M1199.09 -751.145L120.208 327.738" stroke="#1C76FD" stroke-width="0.5"/>
<path d="M1201.92 -748.317L123.036 330.566" stroke="#1C76FD" stroke-width="0.5"/>
<path d="M1204.75 -745.489L125.864 333.394" stroke="#1C76FD" stroke-width="0.5"/>
<path d="M1207.58 -742.66L128.693 336.223" stroke="#1C76FD" stroke-width="0.5"/>
<path d="M1210.4 -739.832L131.521 339.051" stroke="#1C76FD" stroke-width="0.5"/>
<path d="M1213.23 -737.003L134.35 341.88" stroke="#1C76FD" stroke-width="0.5"/>
<path d="M1216.06 -734.175L137.178 344.708" stroke="#1C76FD" stroke-width="0.5"/>
<path d="M1218.89 -731.346L140.007 347.536" stroke="#1C76FD" stroke-width="0.5"/>
<path d="M1221.72 -728.518L142.835 350.365" stroke="#1C76FD" stroke-width="0.5"/>
<path d="M1224.55 -725.689L145.664 353.193" stroke="#1C76FD" stroke-width="0.5"/>
<path d="M1227.37 -722.861L148.492 356.022" stroke="#1C76FD" stroke-width="0.5"/>
<path d="M1230.2 -720.033L151.32 358.85" stroke="#1C76FD" stroke-width="0.5"/>
<path d="M1233.03 -717.204L154.149 361.679" stroke="#1C76FD" stroke-width="0.5"/>
<path d="M1235.86 -714.376L156.977 364.507" stroke="#1C76FD" stroke-width="0.5"/>
<path d="M1238.69 -711.547L159.806 367.336" stroke="#1C76FD" stroke-width="0.5"/>
<path d="M1241.52 -708.719L162.634 370.164" stroke="#1C76FD" stroke-width="0.5"/>
<path d="M1244.35 -705.89L165.463 372.993" stroke="#1C76FD" stroke-width="0.5"/>
<path d="M1247.17 -703.062L168.291 375.821" stroke="#1C76FD" stroke-width="0.5"/>
<path d="M1250 -700.234L171.119 378.649" stroke="#1C76FD" stroke-width="0.5"/>
<path d="M1252.83 -697.405L173.948 381.478" stroke="#1C76FD" stroke-width="0.5"/>
<path d="M1255.66 -694.577L176.776 384.306" stroke="#1C76FD" stroke-width="0.5"/>
<path d="M1258.49 -691.748L179.605 387.135" stroke="#1C76FD" stroke-width="0.5"/>
<path d="M1261.32 -688.92L182.433 389.963" stroke="#1C76FD" stroke-width="0.5"/>
<path d="M1264.14 -686.092L185.261 392.791" stroke="#1C76FD" stroke-width="0.5"/>
<path d="M1266.97 -683.263L188.09 395.62" stroke="#1C76FD" stroke-width="0.5"/>
<path d="M1269.8 -680.435L190.918 398.448" stroke="#1C76FD" stroke-width="0.5"/>
<path d="M1272.63 -677.606L193.747 401.277" stroke="#1C76FD" stroke-width="0.5"/>
<path d="M1275.46 -674.778L196.575 404.105" stroke="#1C76FD" stroke-width="0.5"/>
<path d="M1278.29 -671.949L199.403 406.933" stroke="#1C76FD" stroke-width="0.5"/>
<path d="M1281.11 -669.121L202.232 409.762" stroke="#1C76FD" stroke-width="0.5"/>
<path d="M1283.94 -666.292L205.06 412.59" stroke="#1C76FD" stroke-width="0.5"/>
<path d="M1286.77 -663.464L207.889 415.419" stroke="#1C76FD" stroke-width="0.5"/>
<path d="M1289.6 -660.636L210.717 418.247" stroke="#1C76FD" stroke-width="0.5"/>
<path d="M1292.43 -657.807L213.546 421.076" stroke="#1C76FD" stroke-width="0.5"/>
<path d="M1295.26 -654.979L216.374 423.904" stroke="#1C76FD" stroke-width="0.5"/>
<path d="M1298.09 -652.15L219.203 426.732" stroke="#1C76FD" stroke-width="0.5"/>
<path d="M1300.91 -649.322L222.031 429.561" stroke="#1C76FD" stroke-width="0.5"/>
<path d="M1303.74 -646.493L224.86 432.389" stroke="#1C76FD" stroke-width="0.5"/>
<path d="M1306.57 -643.665L227.688 435.218" stroke="#1C76FD" stroke-width="0.5"/>
<path d="M1309.4 -640.837L230.516 438.046" stroke="#1C76FD" stroke-width="0.5"/>
<path d="M1312.23 -638.008L233.345 440.875" stroke="#1C76FD" stroke-width="0.5"/>
<path d="M1315.06 -635.18L236.173 443.703" stroke="#1C76FD" stroke-width="0.5"/>
<path d="M1317.88 -632.351L239.002 446.532" stroke="#1C76FD" stroke-width="0.5"/>
<path d="M1320.71 -629.523L241.83 449.36" stroke="#1C76FD" stroke-width="0.5"/>
<path d="M1323.54 -626.695L244.658 452.188" stroke="#1C76FD" stroke-width="0.5"/>
<path d="M1326.37 -623.866L247.487 455.017" stroke="#1C76FD" stroke-width="0.5"/>
<path d="M1329.2 -621.038L250.315 457.845" stroke="#1C76FD" stroke-width="0.5"/>
<path d="M1332.03 -618.209L253.144 460.674" stroke="#1C76FD" stroke-width="0.5"/>
<path d="M1334.85 -615.381L255.972 463.502" stroke="#1C76FD" stroke-width="0.5"/>
<path d="M1337.68 -612.552L258.8 466.33" stroke="#1C76FD" stroke-width="0.5"/>
<path d="M1340.51 -609.724L261.629 469.159" stroke="#1C76FD" stroke-width="0.5"/>
<path d="M1343.34 -606.896L264.457 471.987" stroke="#1C76FD" stroke-width="0.5"/>
<path d="M1346.17 -604.067L267.286 474.816" stroke="#1C76FD" stroke-width="0.5"/>
<path d="M1349 -601.239L270.114 477.644" stroke="#1C76FD" stroke-width="0.5"/>
<path d="M1351.83 -598.41L272.943 480.473" stroke="#1C76FD" stroke-width="0.5"/>
<path d="M1354.65 -595.582L275.771 483.301" stroke="#1C76FD" stroke-width="0.5"/>
<path d="M1357.48 -592.753L278.6 486.129" stroke="#1C76FD" stroke-width="0.5"/>
<path d="M1360.31 -589.925L281.428 488.958" stroke="#1C76FD" stroke-width="0.5"/>
<path d="M1363.14 -587.096L284.257 491.786" stroke="#1C76FD" stroke-width="0.5"/>
<path d="M1365.97 -584.268L287.085 494.615" stroke="#1C76FD" stroke-width="0.5"/>
<path d="M1368.8 -581.44L289.913 497.443" stroke="#1C76FD" stroke-width="0.5"/>
<path d="M1371.62 -578.611L292.742 500.272" stroke="#1C76FD" stroke-width="0.5"/>
<path d="M1374.45 -575.783L295.57 503.1" stroke="#1C76FD" stroke-width="0.5"/>
<path d="M1377.28 -572.954L298.399 505.929" stroke="#1C76FD" stroke-width="0.5"/>
<path d="M1380.11 -570.126L301.227 508.757" stroke="#1C76FD" stroke-width="0.5"/>
<path d="M1382.94 -567.298L304.055 511.585" stroke="#1C76FD" stroke-width="0.5"/>
<path d="M1385.77 -564.469L306.884 514.414" stroke="#1C76FD" stroke-width="0.5"/>
<path d="M1388.6 -561.641L309.712 517.242" stroke="#1C76FD" stroke-width="0.5"/>
<path d="M1391.42 -558.812L312.541 520.071" stroke="#1C76FD" stroke-width="0.5"/>
<path d="M1394.25 -555.984L315.369 522.899" stroke="#1C76FD" stroke-width="0.5"/>
<path d="M1397.08 -553.156L318.197 525.727" stroke="#1C76FD" stroke-width="0.5"/>
<path d="M1399.91 -550.327L321.026 528.556" stroke="#1C76FD" stroke-width="0.5"/>
<path d="M1402.74 -547.499L323.854 531.384" stroke="#1C76FD" stroke-width="0.5"/>
<path d="M1405.57 -544.67L326.683 534.213" stroke="#1C76FD" stroke-width="0.5"/>
<path d="M1408.39 -541.842L329.511 537.041" stroke="#1C76FD" stroke-width="0.5"/>
<path d="M1411.22 -539.013L332.34 539.87" stroke="#1C76FD" stroke-width="0.5"/>
<path d="M1414.05 -536.185L335.168 542.698" stroke="#1C76FD" stroke-width="0.5"/>
<path d="M1416.88 -533.356L337.997 545.526" stroke="#1C76FD" stroke-width="0.5"/>
<path d="M1419.71 -530.528L340.825 548.355" stroke="#1C76FD" stroke-width="0.5"/>
<path d="M1422.54 -527.699L343.653 551.183" stroke="#1C76FD" stroke-width="0.5"/>
<path d="M1425.36 -524.871L346.482 554.012" stroke="#1C76FD" stroke-width="0.5"/>
<path d="M1428.19 -522.043L349.31 556.84" stroke="#1C76FD" stroke-width="0.5"/>
<path d="M1431.02 -519.214L352.139 559.669" stroke="#1C76FD" stroke-width="0.5"/>
<path d="M1433.85 -516.386L354.967 562.497" stroke="#1C76FD" stroke-width="0.5"/>
<path d="M1436.68 -513.557L357.796 565.326" stroke="#1C76FD" stroke-width="0.5"/>
<path d="M1439.51 -510.729L360.624 568.154" stroke="#1C76FD" stroke-width="0.5"/>
<path d="M1442.34 -507.901L363.452 570.982" stroke="#1C76FD" stroke-width="0.5"/>
<path d="M1445.16 -505.072L366.281 573.811" stroke="#1C76FD" stroke-width="0.5"/>
<path d="M1447.99 -502.244L369.109 576.639" stroke="#1C76FD" stroke-width="0.5"/>
<path d="M1450.82 -499.415L371.938 579.468" stroke="#1C76FD" stroke-width="0.5"/>
<path d="M1453.65 -496.587L374.766 582.296" stroke="#1C76FD" stroke-width="0.5"/>
<path d="M1456.48 -493.759L377.594 585.124" stroke="#1C76FD" stroke-width="0.5"/>
<path d="M1459.31 -490.93L380.423 587.953" stroke="#1C76FD" stroke-width="0.5"/>
<path d="M1462.13 -488.102L383.251 590.781" stroke="#1C76FD" stroke-width="0.5"/>
<path d="M1464.96 -485.273L386.08 593.61" stroke="#1C76FD" stroke-width="0.5"/>
<path d="M1467.79 -482.445L388.908 596.438" stroke="#1C76FD" stroke-width="0.5"/>
<path d="M1470.62 -479.616L391.737 599.267" stroke="#1C76FD" stroke-width="0.5"/>
<path d="M1473.45 -476.788L394.565 602.095" stroke="#1C76FD" stroke-width="0.5"/>
<path d="M1476.28 -473.959L397.393 604.923" stroke="#1C76FD" stroke-width="0.5"/>
<path d="M1479.1 -471.131L400.222 607.752" stroke="#1C76FD" stroke-width="0.5"/>
<path d="M1481.93 -468.303L403.05 610.58" stroke="#1C76FD" stroke-width="0.5"/>
<path d="M1484.76 -465.474L405.879 613.409" stroke="#1C76FD" stroke-width="0.5"/>
<path d="M1487.59 -462.646L408.707 616.237" stroke="#1C76FD" stroke-width="0.5"/>
<path d="M1490.42 -459.817L411.536 619.065" stroke="#1C76FD" stroke-width="0.5"/>
<path d="M1493.25 -456.989L414.364 621.894" stroke="#1C76FD" stroke-width="0.5"/>
<path d="M1496.08 -454.16L417.193 624.722" stroke="#1C76FD" stroke-width="0.5"/>
<path d="M1498.9 -451.332L420.021 627.551" stroke="#1C76FD" stroke-width="0.5"/>
<path d="M1501.73 -448.504L422.849 630.379" stroke="#1C76FD" stroke-width="0.5"/>
<path d="M1504.56 -445.675L425.678 633.208" stroke="#1C76FD" stroke-width="0.5"/>
<path d="M1507.39 -442.847L428.506 636.036" stroke="#1C76FD" stroke-width="0.5"/>
<path d="M1510.22 -440.018L431.335 638.865" stroke="#1C76FD" stroke-width="0.5"/>
<path d="M1513.05 -437.19L434.163 641.693" stroke="#1C76FD" stroke-width="0.5"/>
<path d="M1515.87 -434.362L436.991 644.521" stroke="#1C76FD" stroke-width="0.5"/>
<path d="M1518.7 -431.533L439.82 647.35" stroke="#1C76FD" stroke-width="0.5"/>
<path d="M1521.53 -428.705L442.648 650.178" stroke="#1C76FD" stroke-width="0.5"/>
<path d="M1524.36 -425.876L445.477 653.007" stroke="#1C76FD" stroke-width="0.5"/>
<path d="M1527.19 -423.048L448.305 655.835" stroke="#1C76FD" stroke-width="0.5"/>
<path d="M1530.02 -420.219L451.134 658.664" stroke="#1C76FD" stroke-width="0.5"/>
<path d="M1532.84 -417.391L453.962 661.492" stroke="#1C76FD" stroke-width="0.5"/>
<path d="M1535.67 -414.562L456.79 664.32" stroke="#1C76FD" stroke-width="0.5"/>
<path d="M1538.5 -411.734L459.619 667.149" stroke="#1C76FD" stroke-width="0.5"/>
<path d="M1541.33 -408.906L462.447 669.977" stroke="#1C76FD" stroke-width="0.5"/>
<path d="M1544.16 -406.077L465.276 672.806" stroke="#1C76FD" stroke-width="0.5"/>
<path d="M1546.99 -403.249L468.104 675.634" stroke="#1C76FD" stroke-width="0.5"/>
<path d="M1549.82 -400.42L470.933 678.462" stroke="#1C76FD" stroke-width="0.5"/>
<path d="M1552.64 -397.592L473.761 681.291" stroke="#1C76FD" stroke-width="0.5"/>
<path d="M1555.47 -394.763L476.59 684.119" stroke="#1C76FD" stroke-width="0.5"/>
<path d="M1558.3 -391.935L479.418 686.948" stroke="#1C76FD" stroke-width="0.5"/>
<path d="M1561.13 -389.107L482.246 689.776" stroke="#1C76FD" stroke-width="0.5"/>
<path d="M1563.96 -386.278L485.075 692.605" stroke="#1C76FD" stroke-width="0.5"/>
<path d="M1566.79 -383.45L487.903 695.433" stroke="#1C76FD" stroke-width="0.5"/>
<path d="M1569.61 -380.621L490.732 698.262" stroke="#1C76FD" stroke-width="0.5"/>
<path d="M1572.44 -377.793L493.56 701.09" stroke="#1C76FD" stroke-width="0.5"/>
<path d="M1575.27 -374.965L496.388 703.918" stroke="#1C76FD" stroke-width="0.5"/>
<path d="M1578.1 -372.136L499.217 706.747" stroke="#1C76FD" stroke-width="0.5"/>
<path d="M1580.93 -369.308L502.045 709.575" stroke="#1C76FD" stroke-width="0.5"/>
<path d="M1583.76 -366.479L504.874 712.404" stroke="#1C76FD" stroke-width="0.5"/>
<path d="M1586.58 -363.651L507.702 715.232" stroke="#1C76FD" stroke-width="0.5"/>
<path d="M1589.41 -360.822L510.531 718.061" stroke="#1C76FD" stroke-width="0.5"/>
<path d="M1592.24 -357.994L513.359 720.889" stroke="#1C76FD" stroke-width="0.5"/>
<path d="M1595.07 -355.166L516.187 723.717" stroke="#1C76FD" stroke-width="0.5"/>
<path d="M1597.9 -352.337L519.016 726.546" stroke="#1C76FD" stroke-width="0.5"/>
<path d="M1600.73 -349.509L521.844 729.374" stroke="#1C76FD" stroke-width="0.5"/>
<path d="M1603.56 -346.68L524.673 732.203" stroke="#1C76FD" stroke-width="0.5"/>
<path d="M1606.38 -343.852L527.501 735.031" stroke="#1C76FD" stroke-width="0.5"/>
<path d="M1609.21 -341.023L530.33 737.859" stroke="#1C76FD" stroke-width="0.5"/>
<path d="M1612.04 -338.195L533.158 740.688" stroke="#1C76FD" stroke-width="0.5"/>
<path d="M1614.87 -335.366L535.987 743.516" stroke="#1C76FD" stroke-width="0.5"/>
<path d="M1617.7 -332.538L538.815 746.345" stroke="#1C76FD" stroke-width="0.5"/>
<path d="M1620.53 -329.71L541.643 749.173" stroke="#1C76FD" stroke-width="0.5"/>
<path d="M1623.35 -326.881L544.472 752.002" stroke="#1C76FD" stroke-width="0.5"/>
<path d="M1626.18 -324.053L547.3 754.83" stroke="#1C76FD" stroke-width="0.5"/>
<path d="M1629.01 -321.224L550.129 757.659" stroke="#1C76FD" stroke-width="0.5"/>
<path d="M1631.84 -318.396L552.957 760.487" stroke="#1C76FD" stroke-width="0.5"/>
<path d="M1634.67 -315.568L555.785 763.315" stroke="#1C76FD" stroke-width="0.5"/>
<path d="M1637.5 -312.739L558.614 766.144" stroke="#1C76FD" stroke-width="0.5"/>
<path d="M1640.33 -309.911L561.442 768.972" stroke="#1C76FD" stroke-width="0.5"/>
<path d="M1643.15 -307.082L564.271 771.801" stroke="#1C76FD" stroke-width="0.5"/>
<path d="M1645.98 -304.254L567.099 774.629" stroke="#1C76FD" stroke-width="0.5"/>
<path d="M1648.81 -301.426L569.927 777.457" stroke="#1C76FD" stroke-width="0.5"/>
<path d="M1651.64 -298.597L572.756 780.286" stroke="#1C76FD" stroke-width="0.5"/>
<path d="M1654.47 -295.769L575.584 783.114" stroke="#1C76FD" stroke-width="0.5"/>
<path d="M1657.3 -292.94L578.413 785.943" stroke="#1C76FD" stroke-width="0.5"/>
<path d="M1660.12 -290.112L581.241 788.771" stroke="#1C76FD" stroke-width="0.5"/>
<path d="M1662.95 -287.283L584.07 791.6" stroke="#1C76FD" stroke-width="0.5"/>
<path d="M1665.78 -284.455L586.898 794.428" stroke="#1C76FD" stroke-width="0.5"/>
<path d="M1668.61 -281.626L589.726 797.256" stroke="#1C76FD" stroke-width="0.5"/>
<path d="M1671.44 -278.798L592.555 800.085" stroke="#1C76FD" stroke-width="0.5"/>
<path d="M1674.27 -275.969L595.383 802.913" stroke="#1C76FD" stroke-width="0.5"/>
<path d="M1677.09 -273.141L598.212 805.742" stroke="#1C76FD" stroke-width="0.5"/>
<path d="M1679.92 -270.313L601.04 808.57" stroke="#1C76FD" stroke-width="0.5"/>
<path d="M1682.75 -267.484L603.869 811.399" stroke="#1C76FD" stroke-width="0.5"/>
<path d="M1685.58 -264.656L606.697 814.227" stroke="#1C76FD" stroke-width="0.5"/>
<path d="M1688.41 -261.827L609.526 817.055" stroke="#1C76FD" stroke-width="0.5"/>
<path d="M1691.24 -258.999L612.354 819.884" stroke="#1C76FD" stroke-width="0.5"/>
<path d="M1694.07 -256.171L615.182 822.712" stroke="#1C76FD" stroke-width="0.5"/>
<path d="M1696.89 -253.342L618.011 825.541" stroke="#1C76FD" stroke-width="0.5"/>
<path d="M1699.72 -250.514L620.839 828.369" stroke="#1C76FD" stroke-width="0.5"/>
<path d="M1702.55 -247.685L623.668 831.198" stroke="#1C76FD" stroke-width="0.5"/>
<path d="M1705.38 -244.857L626.496 834.026" stroke="#1C76FD" stroke-width="0.5"/>
<path d="M1708.21 -242.029L629.325 836.854" stroke="#1C76FD" stroke-width="0.5"/>
<path d="M1711.04 -239.2L632.153 839.683" stroke="#1C76FD" stroke-width="0.5"/>
<path d="M1713.86 -236.372L634.981 842.511" stroke="#1C76FD" stroke-width="0.5"/>
<path d="M1716.69 -233.543L637.81 845.34" stroke="#1C76FD" stroke-width="0.5"/>
<path d="M1719.52 -230.715L640.638 848.168" stroke="#1C76FD" stroke-width="0.5"/>
<path d="M1722.35 -227.886L643.467 850.997" stroke="#1C76FD" stroke-width="0.5"/>
<path d="M1725.18 -225.058L646.295 853.825" stroke="#1C76FD" stroke-width="0.5"/>
<path d="M1728.01 -222.229L649.123 856.653" stroke="#1C76FD" stroke-width="0.5"/>
<path d="M1730.83 -219.401L651.952 859.482" stroke="#1C76FD" stroke-width="0.5"/>
<path d="M1733.66 -216.573L654.78 862.31" stroke="#1C76FD" stroke-width="0.5"/>
<path d="M1736.49 -213.744L657.609 865.139" stroke="#1C76FD" stroke-width="0.5"/>
<path d="M1739.32 -210.916L660.437 867.967" stroke="#1C76FD" stroke-width="0.5"/>
<path d="M1742.15 -208.087L663.266 870.795" stroke="#1C76FD" stroke-width="0.5"/>
<path d="M1744.98 -205.259L666.094 873.624" stroke="#1C76FD" stroke-width="0.5"/>
<path d="M1747.81 -202.43L668.923 876.452" stroke="#1C76FD" stroke-width="0.5"/>
<path d="M1750.63 -199.602L671.751 879.281" stroke="#1C76FD" stroke-width="0.5"/>
<path d="M1753.46 -196.774L674.579 882.109" stroke="#1C76FD" stroke-width="0.5"/>
<path d="M1756.29 -193.945L677.408 884.938" stroke="#1C76FD" stroke-width="0.5"/>
<path d="M1759.12 -191.117L680.236 887.766" stroke="#1C76FD" stroke-width="0.5"/>
<path d="M1761.95 -188.288L683.065 890.595" stroke="#1C76FD" stroke-width="0.5"/>
<path d="M1764.78 -185.46L685.893 893.423" stroke="#1C76FD" stroke-width="0.5"/>
<path d="M1767.6 -182.632L688.721 896.251" stroke="#1C76FD" stroke-width="0.5"/>
<path d="M1770.43 -179.803L691.55 899.08" stroke="#1C76FD" stroke-width="0.5"/>
<path d="M1773.26 -176.975L694.378 901.908" stroke="#1C76FD" stroke-width="0.5"/>
<path d="M1776.09 -174.146L697.207 904.737" stroke="#1C76FD" stroke-width="0.5"/>
<path d="M1778.92 -171.318L700.035 907.565" stroke="#1C76FD" stroke-width="0.5"/>
<path d="M1781.75 -168.489L702.864 910.394" stroke="#1C76FD" stroke-width="0.5"/>
<path d="M1784.57 -165.661L705.692 913.222" stroke="#1C76FD" stroke-width="0.5"/>
<path d="M1787.4 -162.833L708.52 916.05" stroke="#1C76FD" stroke-width="0.5"/>
<path d="M1790.23 -160.004L711.349 918.879" stroke="#1C76FD" stroke-width="0.5"/>
<path d="M1793.06 -157.176L714.177 921.707" stroke="#1C76FD" stroke-width="0.5"/>
<path d="M1795.89 -154.347L717.006 924.536" stroke="#1C76FD" stroke-width="0.5"/>
<path d="M1798.72 -151.519L719.834 927.364" stroke="#1C76FD" stroke-width="0.5"/>
<path d="M1801.55 -148.69L722.663 930.192" stroke="#1C76FD" stroke-width="0.5"/>
<path d="M1804.37 -145.862L725.491 933.021" stroke="#1C76FD" stroke-width="0.5"/>
<path d="M1807.2 -143.033L728.32 935.849" stroke="#1C76FD" stroke-width="0.5"/>
<path d="M1810.03 -140.205L731.148 938.678" stroke="#1C76FD" stroke-width="0.5"/>
<path d="M1812.86 -137.377L733.976 941.506" stroke="#1C76FD" stroke-width="0.5"/>
<path d="M1815.69 -134.548L736.805 944.335" stroke="#1C76FD" stroke-width="0.5"/>
<path d="M1818.52 -131.72L739.633 947.163" stroke="#1C76FD" stroke-width="0.5"/>
<path d="M1821.34 -128.891L742.462 949.992" stroke="#1C76FD" stroke-width="0.5"/>
<path d="M1824.17 -126.063L745.29 952.82" stroke="#1C76FD" stroke-width="0.5"/>
<path d="M1827 -123.235L748.118 955.648" stroke="#1C76FD" stroke-width="0.5"/>
<path d="M1829.83 -120.406L750.947 958.477" stroke="#1C76FD" stroke-width="0.5"/>
<path d="M1832.66 -117.578L753.775 961.305" stroke="#1C76FD" stroke-width="0.5"/>
<path d="M1835.49 -114.749L756.604 964.134" stroke="#1C76FD" stroke-width="0.5"/>
<path d="M1838.32 -111.921L759.432 966.962" stroke="#1C76FD" stroke-width="0.5"/>
<path d="M1841.14 -109.092L762.261 969.791" stroke="#1C76FD" stroke-width="0.5"/>
<path d="M1843.97 -106.264L765.089 972.619" stroke="#1C76FD" stroke-width="0.5"/>
<path d="M1846.8 -103.436L767.917 975.447" stroke="#1C76FD" stroke-width="0.5"/>
<path d="M1849.63 -100.607L770.746 978.276" stroke="#1C76FD" stroke-width="0.5"/>
<path d="M1852.46 -97.7786L773.574 981.104" stroke="#1C76FD" stroke-width="0.5"/>
<path d="M1855.29 -94.9502L776.403 983.933" stroke="#1C76FD" stroke-width="0.5"/>
<path d="M1858.11 -92.1218L779.231 986.761" stroke="#1C76FD" stroke-width="0.5"/>
<path d="M1860.94 -89.2935L782.06 989.589" stroke="#1C76FD" stroke-width="0.5"/>
<path d="M1863.77 -86.4648L784.888 992.418" stroke="#1C76FD" stroke-width="0.5"/>
<path d="M1866.6 -83.6365L787.716 995.246" stroke="#1C76FD" stroke-width="0.5"/>
<path d="M1869.43 -80.8081L790.545 998.075" stroke="#1C76FD" stroke-width="0.5"/>
<path d="M1872.26 -77.9797L793.373 1000.9" stroke="#1C76FD" stroke-width="0.5"/>
<path d="M1875.08 -75.1514L796.202 1003.73" stroke="#1C76FD" stroke-width="0.5"/>
<path d="M1877.91 -72.3228L799.03 1006.56" stroke="#1C76FD" stroke-width="0.5"/>
<path d="M1880.74 -69.4944L801.859 1009.39" stroke="#1C76FD" stroke-width="0.5"/>
<path d="M1883.57 -66.666L804.687 1012.22" stroke="#1C76FD" stroke-width="0.5"/>
<path d="M1886.4 -63.8376L807.515 1015.05" stroke="#1C76FD" stroke-width="0.5"/>
<path d="M1889.23 -61.009L810.344 1017.87" stroke="#1C76FD" stroke-width="0.5"/>
<path d="M1892.06 -58.1807L813.172 1020.7" stroke="#1C76FD" stroke-width="0.5"/>
<path d="M1894.88 -55.3523L816.001 1023.53" stroke="#1C76FD" stroke-width="0.5"/>
<path d="M1897.71 -52.5239L818.829 1026.36" stroke="#1C76FD" stroke-width="0.5"/>
<path d="M1900.54 -49.6953L821.658 1029.19" stroke="#1C76FD" stroke-width="0.5"/>
<path d="M1903.37 -46.8669L824.486 1032.02" stroke="#1C76FD" stroke-width="0.5"/>
<path d="M1906.2 -44.0386L827.314 1034.84" stroke="#1C76FD" stroke-width="0.5"/>
<path d="M1909.03 -41.2102L830.143 1037.67" stroke="#1C76FD" stroke-width="0.5"/>
<path d="M1911.85 -38.3816L832.971 1040.5" stroke="#1C76FD" stroke-width="0.5"/>
<path d="M1914.68 -35.5532L835.8 1043.33" stroke="#1C76FD" stroke-width="0.5"/>
<path d="M1917.51 -32.7249L838.628 1046.16" stroke="#1C76FD" stroke-width="0.5"/>
<path d="M1920.34 -29.8965L841.457 1048.99" stroke="#1C76FD" stroke-width="0.5"/>
<path d="M1923.17 -27.0679L844.285 1051.82" stroke="#1C76FD" stroke-width="0.5"/>
<path d="M1926 -24.2395L847.113 1054.64" stroke="#1C76FD" stroke-width="0.5"/>
<path d="M1928.82 -21.4111L849.942 1057.47" stroke="#1C76FD" stroke-width="0.5"/>
<path d="M1931.65 -18.5828L852.77 1060.3" stroke="#1C76FD" stroke-width="0.5"/>
<path d="M1934.48 -15.7544L855.599 1063.13" stroke="#1C76FD" stroke-width="0.5"/>
<path d="M1937.31 -12.9258L858.427 1065.96" stroke="#1C76FD" stroke-width="0.5"/>
<path d="M1940.14 -10.0974L861.256 1068.79" stroke="#1C76FD" stroke-width="0.5"/>
<path d="M1942.97 -7.26904L864.084 1071.61" stroke="#1C76FD" stroke-width="0.5"/>
<path d="M1945.8 -4.44067L866.912 1074.44" stroke="#1C76FD" stroke-width="0.5"/>
<path d="M1948.62 -1.61206L869.741 1077.27" stroke="#1C76FD" stroke-width="0.5"/>
<path d="M1951.45 1.21631L872.569 1080.1" stroke="#1C76FD" stroke-width="0.5"/>
<path d="M1954.28 4.04468L875.398 1082.93" stroke="#1C76FD" stroke-width="0.5"/>
<path d="M1957.11 6.87305L878.226 1085.76" stroke="#1C76FD" stroke-width="0.5"/>
<path d="M1959.94 9.70166L881.054 1088.58" stroke="#1C76FD" stroke-width="0.5"/>
<path d="M1962.77 12.53L883.883 1091.41" stroke="#1C76FD" stroke-width="0.5"/>
<path d="M1965.59 15.3584L886.711 1094.24" stroke="#1C76FD" stroke-width="0.5"/>
<path d="M1968.42 18.1868L889.54 1097.07" stroke="#1C76FD" stroke-width="0.5"/>
<path d="M1971.25 21.0154L892.368 1099.9" stroke="#1C76FD" stroke-width="0.5"/>
<path d="M1974.08 23.8438L895.197 1102.73" stroke="#1C76FD" stroke-width="0.5"/>
<path d="M1976.91 26.6721L898.025 1105.56" stroke="#1C76FD" stroke-width="0.5"/>
<path d="M1979.74 29.5005L900.854 1108.38" stroke="#1C76FD" stroke-width="0.5"/>
<path d="M1982.56 32.3289L903.682 1111.21" stroke="#1C76FD" stroke-width="0.5"/>
<path d="M1985.39 35.1575L906.51 1114.04" stroke="#1C76FD" stroke-width="0.5"/>
<path d="M1988.22 37.9858L909.339 1116.87" stroke="#1C76FD" stroke-width="0.5"/>
<path d="M1991.05 40.8142L912.167 1119.7" stroke="#1C76FD" stroke-width="0.5"/>
<path d="M1993.88 43.6426L914.996 1122.53" stroke="#1C76FD" stroke-width="0.5"/>
<path d="M1996.71 46.4712L917.824 1125.35" stroke="#1C76FD" stroke-width="0.5"/>
<path d="M1999.54 49.2996L920.653 1128.18" stroke="#1C76FD" stroke-width="0.5"/>
</g>
<defs>
<linearGradient id="paint0_linear_11610_20640" x1="1960.88" y1="-3.86506" x2="518.268" y2="865.689" gradientUnits="userSpaceOnUse">
<stop stop-color="#FF5500"/>
<stop offset="0.236246" stop-color="#FF5500" stop-opacity="0.3"/>
<stop offset="0.500604" stop-color="#FF5500" stop-opacity="0"/>
<stop offset="0.757591" stop-color="#FF5500" stop-opacity="0.3"/>
<stop offset="1" stop-color="#FF5500"/>
</linearGradient>
</defs>
</svg>
