<svg width="24" height="24" viewBox="0 0 24 24" fill="none" xmlns="http://www.w3.org/2000/svg">
<path d="M6 11.8125C5.58579 11.8125 5.25 12.1483 5.25 12.5625C5.25 12.9767 5.58579 13.3125 6 13.3125L6 11.8125ZM19.5303 13.0928C19.8232 12.7999 19.8232 12.3251 19.5303 12.0322L14.7574 7.2592C14.4645 6.96631 13.9896 6.96631 13.6967 7.2592C13.4038 7.55209 13.4038 8.02697 13.6967 8.31986L17.9393 12.5625L13.6967 16.8051C13.4038 17.098 13.4038 17.5729 13.6967 17.8658C13.9896 18.1587 14.4645 18.1587 14.7574 17.8658L19.5303 13.0928ZM6 13.3125L19 13.3125L19 11.8125L6 11.8125L6 13.3125Z" fill="#9D9E9F"/>
</svg>
