<svg width="108" height="95" viewBox="0 0 108 95" fill="none" xmlns="http://www.w3.org/2000/svg">
<g filter="url(#filter0_f_8233_49333)">
<rect x="30" y="46.5" width="48" height="39" rx="9" fill="#FF5500" fill-opacity="0.35"/>
</g>
<g filter="url(#filter1_f_8233_49333)">
<rect x="18" y="18" width="72" height="69" rx="18" fill="white"/>
</g>
<rect x="12.6612" y="0.661219" width="82.6776" height="82.6776" rx="23.3388" fill="#FEFEFE"/>
<rect x="12.6612" y="0.661219" width="82.6776" height="82.6776" rx="23.3388" stroke="#EBECEC" stroke-width="1.32244"/>
<g filter="url(#filter2_i_8233_49333)">
<rect x="16.5" y="4.5" width="75" height="75" rx="21" fill="#F3F3F5"/>
<rect x="16.8306" y="4.83061" width="74.3388" height="74.3388" rx="20.6694" stroke="url(#paint0_linear_8233_49333)" stroke-width="0.661219"/>
</g>
<rect x="21.6612" y="9.66122" width="64.6776" height="64.6776" rx="17.3388" fill="#FEFEFE"/>
<rect x="21.6612" y="9.66122" width="64.6776" height="64.6776" rx="17.3388" stroke="#EBECEC" stroke-width="1.32244"/>
<path d="M39.8897 45.7433L40.4053 45.1987L39.8454 44.6686L39.331 45.2429L39.8897 45.7433ZM35.8203 49.1624C35.5439 49.4709 35.57 49.9451 35.8785 50.2214C36.187 50.4978 36.6612 50.4717 36.9376 50.1632L35.8203 49.1624ZM43.5142 50.2074C43.815 50.4922 44.2897 50.4792 44.5745 50.1784C44.8592 49.8776 44.8462 49.4029 44.5454 49.1181L43.5142 50.2074ZM55.5837 59.498C55.9979 59.498 56.3337 59.1623 56.3337 58.748C56.3337 58.3338 55.9979 57.998 55.5837 57.998V59.498ZM39.331 45.2429L35.8203 49.1624L36.9376 50.1632L40.4484 46.2437L39.331 45.2429ZM39.3741 46.288L43.5142 50.2074L44.5454 49.1181L40.4053 45.1987L39.3741 46.288ZM39.1397 45.7433V52.748H40.6397V45.7433H39.1397ZM45.8897 59.498H55.5837V57.998H45.8897V59.498ZM39.1397 52.748C39.1397 56.476 42.1618 59.498 45.8897 59.498V57.998C42.9902 57.998 40.6397 55.6475 40.6397 52.748H39.1397Z" fill="#FF5500"/>
<path d="M66.8935 41.8332L70.4043 37.9137M66.8935 41.8332L62.7534 37.9137M66.8935 41.8332V38.4285C66.8935 35.0682 66.8935 33.388 66.2395 32.1046C65.6643 30.9756 64.7464 30.0577 63.6174 29.4825C62.334 28.8285 60.6538 28.8285 57.2935 28.8285H51.1995" stroke="#FF5500" stroke-width="1.5" stroke-linecap="round"/>
<rect width="18.9663" height="18.9663" transform="translate(31.5 25.25)" fill="white"/>
<path d="M48.0968 27.6112H33.8721V33.5382H48.0968V27.6112Z" stroke="#FF5500" stroke-width="1.5" stroke-linecap="round" stroke-linejoin="round"/>
<path d="M48.0968 35.9081H33.8721V41.835H48.0968V35.9081Z" stroke="#FF5500" stroke-width="1.5" stroke-linecap="round" stroke-linejoin="round"/>
<path d="M45.4062 31.5868C45.9585 31.5868 46.4062 31.139 46.4062 30.5868C46.4062 30.0345 45.9585 29.5868 45.4062 29.5868C44.854 29.5868 44.4062 30.0345 44.4062 30.5868C44.4062 31.139 44.854 31.5868 45.4062 31.5868Z" fill="#FF5500"/>
<path d="M45.4062 39.8836C45.9585 39.8836 46.4062 39.4359 46.4062 38.8836C46.4062 38.3314 45.9585 37.8836 45.4062 37.8836C44.854 37.8836 44.4062 38.3314 44.4062 38.8836C44.4062 39.4359 44.854 39.8836 45.4062 39.8836Z" fill="#FF5500"/>
<rect width="18.9663" height="18.9663" transform="translate(55.5 42.7473)" fill="white"/>
<path d="M72.0968 45.1085H57.8721V51.0354H72.0968V45.1085Z" stroke="#FF5500" stroke-width="1.5" stroke-linecap="round" stroke-linejoin="round"/>
<path d="M72.0968 53.4053H57.8721V59.3323H72.0968V53.4053Z" stroke="#FF5500" stroke-width="1.5" stroke-linecap="round" stroke-linejoin="round"/>
<path d="M69.4053 49.085C69.9576 49.085 70.4053 48.6373 70.4053 48.085C70.4053 47.5327 69.9576 47.085 69.4053 47.085C68.853 47.085 68.4053 47.5327 68.4053 48.085C68.4053 48.6373 68.853 49.085 69.4053 49.085Z" fill="#FF5500"/>
<path d="M69.4053 57.3819C69.9576 57.3819 70.4053 56.9342 70.4053 56.3819C70.4053 55.8296 69.9576 55.3819 69.4053 55.3819C68.853 55.3819 68.4053 55.8296 68.4053 56.3819C68.4053 56.9342 68.853 57.3819 69.4053 57.3819Z" fill="#FF5500"/>
<defs>
<filter id="filter0_f_8233_49333" x="0" y="16.5" width="108" height="99" filterUnits="userSpaceOnUse" color-interpolation-filters="sRGB">
<feFlood flood-opacity="0" result="BackgroundImageFix"/>
<feBlend mode="normal" in="SourceGraphic" in2="BackgroundImageFix" result="shape"/>
<feGaussianBlur stdDeviation="15" result="effect1_foregroundBlur_8233_49333"/>
</filter>
<filter id="filter1_f_8233_49333" x="9" y="9" width="90" height="87" filterUnits="userSpaceOnUse" color-interpolation-filters="sRGB">
<feFlood flood-opacity="0" result="BackgroundImageFix"/>
<feBlend mode="normal" in="SourceGraphic" in2="BackgroundImageFix" result="shape"/>
<feGaussianBlur stdDeviation="4.5" result="effect1_foregroundBlur_8233_49333"/>
</filter>
<filter id="filter2_i_8233_49333" x="16.5" y="4.5" width="75" height="76.3224" filterUnits="userSpaceOnUse" color-interpolation-filters="sRGB">
<feFlood flood-opacity="0" result="BackgroundImageFix"/>
<feBlend mode="normal" in="SourceGraphic" in2="BackgroundImageFix" result="shape"/>
<feColorMatrix in="SourceAlpha" type="matrix" values="0 0 0 0 0 0 0 0 0 0 0 0 0 0 0 0 0 0 127 0" result="hardAlpha"/>
<feOffset dy="1.32244"/>
<feGaussianBlur stdDeviation="1.98366"/>
<feComposite in2="hardAlpha" operator="arithmetic" k2="-1" k3="1"/>
<feColorMatrix type="matrix" values="0 0 0 0 0 0 0 0 0 0 0 0 0 0 0 0 0 0 0.15 0"/>
<feBlend mode="normal" in2="shape" result="effect1_innerShadow_8233_49333"/>
</filter>
<linearGradient id="paint0_linear_8233_49333" x1="54" y1="4.5" x2="54" y2="79.5" gradientUnits="userSpaceOnUse">
<stop stop-color="white" stop-opacity="0"/>
<stop offset="1" stop-color="white"/>
</linearGradient>
</defs>
</svg>
