<svg width="60" height="63" viewBox="0 0 60 63" fill="none" xmlns="http://www.w3.org/2000/svg">
<g filter="url(#filter0_f_8925_64548)">
<rect x="12.4648" y="12" width="35.0703" height="39" rx="8" fill="#CECECE" fill-opacity="0.6"/>
</g>
<path d="M10.4007 25.4545C10.4007 22.3931 10.4011 20.1211 10.548 18.3221C10.6946 16.5278 10.9852 15.2393 11.5461 14.1384C12.5536 12.1611 14.1611 10.5536 16.1384 9.54608C17.2393 8.98515 18.5278 8.69464 20.3221 8.54804C22.1211 8.40105 24.3931 8.40074 27.4545 8.40074H32.5455C35.6069 8.40074 37.8789 8.40105 39.6779 8.54804C41.4722 8.69464 42.7607 8.98515 43.8616 9.54608C45.8389 10.5536 47.4464 12.1611 48.4539 14.1384C49.0148 15.2393 49.3054 16.5278 49.452 18.3221C49.5989 20.1211 49.5993 22.3931 49.5993 25.4545V30.5455C49.5993 33.6069 49.5989 35.8789 49.452 37.6779C49.3054 39.4722 49.0148 40.7607 48.4539 41.8616C47.4464 43.8389 45.8389 45.4464 43.8616 46.4539C42.7607 47.0148 41.4722 47.3054 39.6779 47.452C37.8789 47.5989 35.6069 47.5993 32.5455 47.5993H27.4545C24.3931 47.5993 22.1211 47.5989 20.3221 47.452C18.5278 47.3054 17.2393 47.0148 16.1384 46.4539C14.1611 45.4464 12.5536 43.8389 11.5461 41.8616C10.9852 40.7607 10.6946 39.4722 10.548 37.6779C10.4011 35.8789 10.4007 33.6069 10.4007 30.5455V25.4545Z" fill="#FEFEFE" stroke="#EBECEC" stroke-width="0.801477"/>
<path d="M32.7699 16.75L32.7693 16.75L21.6923 16.75C21.4016 16.75 21.1228 16.8655 20.9172 17.0711C20.7117 17.2766 20.5962 17.5554 20.5962 17.8462V38.1538C20.5962 38.4446 20.7117 38.7234 20.9172 38.9289C21.1228 39.1345 21.4016 39.25 21.6923 39.25H38.3077C38.5984 39.25 38.8773 39.1345 39.0828 38.9289C39.2884 38.7234 39.4039 38.4446 39.4039 38.1538V23.3846V23.384C39.4039 23.3613 39.3994 23.3388 39.3908 23.3178C39.3821 23.2969 39.3695 23.2779 39.3536 23.2619L32.7699 16.75ZM32.7699 16.75C32.7926 16.75 32.8151 16.7544 32.8361 16.7631C32.8571 16.7718 32.8762 16.7846 32.8923 16.8006L39.3533 23.2616L32.7699 16.75ZM32.0193 23.3846C32.0193 23.7988 32.3551 24.1346 32.7693 24.1346H37.8462C38.1495 24.1346 38.423 23.9519 38.5391 23.6716C38.6552 23.3914 38.591 23.0688 38.3765 22.8543L33.2996 17.7774C33.0851 17.5629 32.7625 17.4987 32.4823 17.6148C32.202 17.7309 32.0193 18.0043 32.0193 18.3077V23.3846Z" stroke="#6C6E6F" stroke-width="1.5" stroke-linejoin="round"/>
<path d="M33.6925 33.5385H26.3078C26.063 33.5385 25.8282 33.4412 25.6551 33.2681C25.482 33.095 25.3848 32.8602 25.3848 32.6154C25.3848 32.3706 25.482 32.1358 25.6551 31.9627C25.8282 31.7896 26.063 31.6923 26.3078 31.6923H33.6925C33.9373 31.6923 34.1721 31.7896 34.3452 31.9627C34.5183 32.1358 34.6155 32.3706 34.6155 32.6154C34.6155 32.8602 34.5183 33.095 34.3452 33.2681C34.1721 33.4412 33.9373 33.5385 33.6925 33.5385ZM33.6925 29.8462H26.3078C26.063 29.8462 25.8282 29.7489 25.6551 29.5758C25.482 29.4027 25.3848 29.1679 25.3848 28.9231C25.3848 28.6783 25.482 28.4435 25.6551 28.2704C25.8282 28.0973 26.063 28 26.3078 28H33.6925C33.9373 28 34.1721 28.0973 34.3452 28.2704C34.5183 28.4435 34.6155 28.6783 34.6155 28.9231C34.6155 29.1679 34.5183 29.4027 34.3452 29.5758C34.1721 29.7489 33.9373 29.8462 33.6925 29.8462Z" fill="#6C6E6F"/>
<defs>
<filter id="filter0_f_8925_64548" x="0.464844" y="0" width="59.0703" height="63" filterUnits="userSpaceOnUse" color-interpolation-filters="sRGB">
<feFlood flood-opacity="0" result="BackgroundImageFix"/>
<feBlend mode="normal" in="SourceGraphic" in2="BackgroundImageFix" result="shape"/>
<feGaussianBlur stdDeviation="6" result="effect1_foregroundBlur_8925_64548"/>
</filter>
</defs>
</svg>
