<svg width="60" height="63" viewBox="0 0 60 63" fill="none" xmlns="http://www.w3.org/2000/svg">
<g filter="url(#filter0_f_8912_42582)">
<rect x="12.4648" y="12" width="35.0703" height="39" rx="8" fill="#CECECE" fill-opacity="0.6"/>
</g>
<path d="M10.4007 25.4545C10.4007 22.3931 10.4011 20.1211 10.548 18.3221C10.6946 16.5278 10.9852 15.2393 11.5461 14.1384C12.5536 12.1611 14.1611 10.5536 16.1384 9.54608C17.2393 8.98515 18.5278 8.69464 20.3221 8.54804C22.1211 8.40105 24.3931 8.40074 27.4545 8.40074H32.5455C35.6069 8.40074 37.8789 8.40105 39.6779 8.54804C41.4722 8.69464 42.7607 8.98515 43.8616 9.54608C45.8389 10.5536 47.4464 12.1611 48.4539 14.1384C49.0148 15.2393 49.3054 16.5278 49.452 18.3221C49.5989 20.1211 49.5993 22.3931 49.5993 25.4545V30.5455C49.5993 33.6069 49.5989 35.8789 49.452 37.6779C49.3054 39.4722 49.0148 40.7607 48.4539 41.8616C47.4464 43.8389 45.8389 45.4464 43.8616 46.4539C42.7607 47.0148 41.4722 47.3054 39.6779 47.452C37.8789 47.5989 35.6069 47.5993 32.5455 47.5993H27.4545C24.3931 47.5993 22.1211 47.5989 20.3221 47.452C18.5278 47.3054 17.2393 47.0148 16.1384 46.4539C14.1611 45.4464 12.5536 43.8389 11.5461 41.8616C10.9852 40.7607 10.6946 39.4722 10.548 37.6779C10.4011 35.8789 10.4007 33.6069 10.4007 30.5455V25.4545Z" fill="#FEFEFE" stroke="#EBECEC" stroke-width="0.801477"/>
<path d="M40.9038 27.7084L40.5124 27.9214C37.2868 29.6772 33.6726 30.5968 30.0001 30.5962L40.9038 27.7084ZM40.9038 27.7084V27.2627M40.9038 27.7084V27.2627M40.9038 27.2627V22.4616V21.7116M40.9038 27.2627V21.7116M40.9038 21.7116H40.1538M40.9038 21.7116H40.1538M40.1538 21.7116H19.8462H19.0962M40.1538 21.7116H19.0962M19.0962 21.7116V22.4616M19.0962 21.7116V22.4616M19.0962 22.4616V27.2627V27.7084M19.0962 22.4616V27.7084M19.0962 27.7084L19.4876 27.9214M19.0962 27.7084L19.4876 27.9214M19.4876 27.9214C22.7132 29.6772 26.3274 30.5968 29.9999 30.5962L19.4876 27.9214ZM19.0711 38.0059L18.5407 38.5362L19.0711 38.0059C18.8655 37.8003 18.75 37.5215 18.75 37.2308V22.4616C18.75 22.1708 18.8655 21.892 19.0711 21.6865C19.2766 21.4809 19.5554 21.3654 19.8462 21.3654H24.4615H25.2115V20.6154V19.6923C25.2115 19.1568 25.4243 18.6432 25.803 18.2645C26.1816 17.8858 26.6952 17.6731 27.2308 17.6731H32.7692C33.3048 17.6731 33.8184 17.8858 34.197 18.2645C34.5757 18.6432 34.7885 19.1568 34.7885 19.6923V20.6154V21.3654H35.5385H40.1538C40.4446 21.3654 40.7234 21.4809 40.9289 21.6865C41.1345 21.892 41.25 22.1708 41.25 22.4616V37.2308C41.25 37.5215 41.1345 37.8003 40.9289 38.0059C40.7234 38.2115 40.4446 38.3269 40.1538 38.3269H19.8462C19.5554 38.3269 19.2766 38.2115 19.0711 38.0059ZM25.5577 20.6154V21.3654H26.3077H33.6923H34.4423V20.6154V19.6923C34.4423 19.2486 34.266 18.823 33.9523 18.5093C33.6385 18.1955 33.213 18.0192 32.7692 18.0192H27.2308C26.787 18.0192 26.3615 18.1955 26.0477 18.5093C25.734 18.823 25.5577 19.2486 25.5577 19.6923V20.6154ZM32.0192 27.0769C32.0192 27.1228 32.001 27.1669 31.9685 27.1993C31.9361 27.2318 31.8921 27.25 31.8462 27.25H28.1538C28.1079 27.25 28.0639 27.2318 28.0315 27.1993C27.999 27.1669 27.9808 27.1228 27.9808 27.0769C27.9808 27.031 27.999 26.987 28.0315 26.9546C28.0639 26.9221 28.1079 26.9039 28.1538 26.9039H31.8462C31.8921 26.9039 31.9361 26.9221 31.9685 26.9546C32.001 26.987 32.0192 27.031 32.0192 27.0769Z" stroke="#6C6E6F" stroke-width="1.5"/>
<path d="M24.4615 21.3654H25.2115V20.6154V19.6923C25.2115 19.1568 25.4243 18.6432 25.803 18.2645C26.1816 17.8858 26.6952 17.6731 27.2308 17.6731H32.7692C33.3048 17.6731 33.8184 17.8858 34.197 18.2645C34.5757 18.6432 34.7885 19.1568 34.7885 19.6923V20.6154V21.3654H35.5385H40.1538C40.4446 21.3654 40.7234 21.4809 40.9289 21.6865C41.1345 21.892 41.25 22.1708 41.25 22.4616V37.2308C41.25 37.5215 41.1345 37.8003 40.9289 38.0059C40.7234 38.2115 40.4446 38.3269 40.1538 38.3269H19.8462C19.5554 38.3269 19.2766 38.2115 19.0711 38.0059L18.5407 38.5362L19.0711 38.0059C18.8655 37.8003 18.75 37.5215 18.75 37.2308V22.4616C18.75 22.1708 18.8655 21.892 19.0711 21.6865C19.2766 21.4809 19.5554 21.3654 19.8462 21.3654H24.4615ZM25.5577 20.6154V21.3654H26.3077H33.6923H34.4423V20.6154V19.6923C34.4423 19.2486 34.266 18.823 33.9523 18.5093C33.6385 18.1955 33.213 18.0192 32.7692 18.0192H27.2308C26.787 18.0192 26.3615 18.1955 26.0477 18.5093C25.734 18.823 25.5577 19.2486 25.5577 19.6923V20.6154Z" stroke="#6C6E6F" stroke-width="1.5"/>
<defs>
<filter id="filter0_f_8912_42582" x="0.464844" y="0" width="59.0703" height="63" filterUnits="userSpaceOnUse" color-interpolation-filters="sRGB">
<feFlood flood-opacity="0" result="BackgroundImageFix"/>
<feBlend mode="normal" in="SourceGraphic" in2="BackgroundImageFix" result="shape"/>
<feGaussianBlur stdDeviation="6" result="effect1_foregroundBlur_8912_42582"/>
</filter>
</defs>
</svg>
