<svg width="60" height="63" viewBox="0 0 60 63" fill="none" xmlns="http://www.w3.org/2000/svg">
<g filter="url(#filter0_f_8919_26674)">
<rect x="12.4648" y="12" width="35.0703" height="39" rx="8" fill="#CECECE" fill-opacity="0.6"/>
</g>
<path d="M10.4007 25.4545C10.4007 22.3931 10.4011 20.1211 10.548 18.3221C10.6946 16.5278 10.9852 15.2393 11.5461 14.1384C12.5536 12.1611 14.1611 10.5536 16.1384 9.54608C17.2393 8.98515 18.5278 8.69464 20.3221 8.54804C22.1211 8.40105 24.3931 8.40074 27.4545 8.40074H32.5455C35.6069 8.40074 37.8789 8.40105 39.6779 8.54804C41.4722 8.69464 42.7607 8.98515 43.8616 9.54608C45.8389 10.5536 47.4464 12.1611 48.4539 14.1384C49.0148 15.2393 49.3054 16.5278 49.452 18.3221C49.5989 20.1211 49.5993 22.3931 49.5993 25.4545V30.5455C49.5993 33.6069 49.5989 35.8789 49.452 37.6779C49.3054 39.4722 49.0148 40.7607 48.4539 41.8616C47.4464 43.8389 45.8389 45.4464 43.8616 46.4539C42.7607 47.0148 41.4722 47.3054 39.6779 47.452C37.8789 47.5989 35.6069 47.5993 32.5455 47.5993H27.4545C24.3931 47.5993 22.1211 47.5989 20.3221 47.452C18.5278 47.3054 17.2393 47.0148 16.1384 46.4539C14.1611 45.4464 12.5536 43.8389 11.5461 41.8616C10.9852 40.7607 10.6946 39.4722 10.548 37.6779C10.4011 35.8789 10.4007 33.6069 10.4007 30.5455V25.4545Z" fill="#FEFEFE" stroke="#EBECEC" stroke-width="0.801477"/>
<path d="M33.6924 24.4808H26.3078C26.2619 24.4808 26.2179 24.4626 26.1855 24.4301C26.153 24.3976 26.1348 24.3536 26.1348 24.3077C26.1348 24.2618 26.153 24.2178 26.1855 24.1853C26.2179 24.1529 26.2619 24.1346 26.3078 24.1346H33.6924C33.7383 24.1346 33.7824 24.1529 33.8148 24.1853C33.8473 24.2178 33.8655 24.2618 33.8655 24.3077C33.8655 24.3536 33.8473 24.3976 33.8148 24.4301C33.7824 24.4626 33.7383 24.4808 33.6924 24.4808ZM33.6924 28.1731H26.3078C26.2619 28.1731 26.2179 28.1549 26.1855 28.1224C26.153 28.0899 26.1348 28.0459 26.1348 28C26.1348 27.9541 26.153 27.9101 26.1855 27.8776C26.2179 27.8452 26.2619 27.8269 26.3078 27.8269H33.6924C33.7384 27.8269 33.7824 27.8452 33.8148 27.8776C33.8473 27.9101 33.8655 27.9541 33.8655 28C33.8655 28.0459 33.8473 28.0899 33.8148 28.1224C33.7824 28.1549 33.7384 28.1731 33.6924 28.1731Z" fill="#D9D9D9" stroke="#6C6E6F" stroke-width="1.5" stroke-linejoin="round"/>
<path d="M24.75 34.6346C24.5683 34.6346 24.3928 34.7006 24.2561 34.8202L20.5519 38.062C20.549 38.0644 20.5461 38.0668 20.5433 38.0692C20.3485 38.2346 20.1015 38.3259 19.846 38.3269C19.6863 38.3265 19.5287 38.2913 19.3839 38.2239L19.3794 38.2218C19.1906 38.1355 19.0308 37.9964 18.9191 37.8214C18.8075 37.6464 18.7488 37.4429 18.75 37.2353V37.2308V18.7692C18.75 18.4785 18.8655 18.1997 19.0711 17.9942C19.2767 17.7886 19.5555 17.6731 19.8462 17.6731H40.1538C40.4446 17.6731 40.7234 17.7886 40.9289 17.9942C41.1345 18.1997 41.25 18.4785 41.25 18.7692V33.5385C41.25 33.8292 41.1345 34.108 40.9289 34.3136C40.7234 34.5191 40.4446 34.6346 40.1538 34.6346H24.75Z" stroke="#6C6E6F" stroke-width="1.5" stroke-linejoin="round"/>
<defs>
<filter id="filter0_f_8919_26674" x="0.464844" y="0" width="59.0703" height="63" filterUnits="userSpaceOnUse" color-interpolation-filters="sRGB">
<feFlood flood-opacity="0" result="BackgroundImageFix"/>
<feBlend mode="normal" in="SourceGraphic" in2="BackgroundImageFix" result="shape"/>
<feGaussianBlur stdDeviation="6" result="effect1_foregroundBlur_8919_26674"/>
</filter>
</defs>
</svg>
