<svg width="60" height="63" viewBox="0 0 60 63" fill="none" xmlns="http://www.w3.org/2000/svg">
<g filter="url(#filter0_f_8925_64957)">
<rect x="12.4648" y="12" width="35.0703" height="39" rx="8" fill="#CECECE" fill-opacity="0.6"/>
</g>
<path d="M10.4007 25.4545C10.4007 22.3931 10.4011 20.1211 10.548 18.3221C10.6946 16.5278 10.9852 15.2393 11.5461 14.1384C12.5536 12.1611 14.1611 10.5536 16.1384 9.54608C17.2393 8.98515 18.5278 8.69464 20.3221 8.54804C22.1211 8.40105 24.3931 8.40074 27.4545 8.40074H32.5455C35.6069 8.40074 37.8789 8.40105 39.6779 8.54804C41.4722 8.69464 42.7607 8.98515 43.8616 9.54608C45.8389 10.5536 47.4464 12.1611 48.4539 14.1384C49.0148 15.2393 49.3054 16.5278 49.452 18.3221C49.5989 20.1211 49.5993 22.3931 49.5993 25.4545V30.5455C49.5993 33.6069 49.5989 35.8789 49.452 37.6779C49.3054 39.4722 49.0148 40.7607 48.4539 41.8616C47.4464 43.8389 45.8389 45.4464 43.8616 46.4539C42.7607 47.0148 41.4722 47.3054 39.6779 47.452C37.8789 47.5989 35.6069 47.5993 32.5455 47.5993H27.4545C24.3931 47.5993 22.1211 47.5989 20.3221 47.452C18.5278 47.3054 17.2393 47.0148 16.1384 46.4539C14.1611 45.4464 12.5536 43.8389 11.5461 41.8616C10.9852 40.7607 10.6946 39.4722 10.548 37.6779C10.4011 35.8789 10.4007 33.6069 10.4007 30.5455V25.4545Z" fill="#FEFEFE" stroke="#EBECEC" stroke-width="0.801477"/>
<path d="M33.6925 32.7692H26.3078C26.063 32.7692 25.8282 32.672 25.6551 32.4989C25.482 32.3258 25.3848 32.091 25.3848 31.8462C25.3848 31.6013 25.482 31.3666 25.6551 31.1934C25.8282 31.0203 26.063 30.9231 26.3078 30.9231H33.6925C33.9373 30.9231 34.1721 31.0203 34.3452 31.1934C34.5183 31.3666 34.6155 31.6013 34.6155 31.8462C34.6155 32.091 34.5183 32.3258 34.3452 32.4989C34.1721 32.672 33.9373 32.7692 33.6925 32.7692ZM33.6925 29.0769H26.3078C26.063 29.0769 25.8282 28.9797 25.6551 28.8066C25.482 28.6335 25.3848 28.3987 25.3848 28.1539C25.3848 27.909 25.482 27.6742 25.6551 27.5011C25.8282 27.328 26.063 27.2308 26.3078 27.2308H33.6925C33.9373 27.2308 34.1721 27.328 34.3452 27.5011C34.5183 27.6742 34.6155 27.909 34.6155 28.1539C34.6155 28.3987 34.5183 28.6335 34.3452 28.8066C34.1721 28.9797 33.9373 29.0769 33.6925 29.0769Z" fill="#6C6E6F"/>
<path d="M26.3078 25.0769H33.6925C33.9373 25.0769 34.1721 24.9797 34.3452 24.8066C34.5183 24.6335 34.6155 24.3987 34.6155 24.1539C34.6155 23.909 34.5183 23.6742 34.3452 23.5011C34.1721 23.328 33.9373 23.2308 33.6925 23.2308H26.3078C26.063 23.2308 25.8282 23.328 25.6551 23.5011C25.482 23.6742 25.3848 23.909 25.3848 24.1539C25.3848 24.3987 25.482 24.6335 25.6551 24.8066C25.8282 24.9797 26.063 25.0769 26.3078 25.0769Z" fill="#6C6E6F"/>
<rect x="20.75" y="16.7499" width="18.5" height="22.5" rx="1.25" stroke="#6C6E6F" stroke-width="1.5" stroke-linejoin="round"/>
<defs>
<filter id="filter0_f_8925_64957" x="0.464844" y="0" width="59.0703" height="63" filterUnits="userSpaceOnUse" color-interpolation-filters="sRGB">
<feFlood flood-opacity="0" result="BackgroundImageFix"/>
<feBlend mode="normal" in="SourceGraphic" in2="BackgroundImageFix" result="shape"/>
<feGaussianBlur stdDeviation="6" result="effect1_foregroundBlur_8925_64957"/>
</filter>
</defs>
</svg>
