<svg width="60" height="63" viewBox="0 0 60 63" fill="none" xmlns="http://www.w3.org/2000/svg">
<g filter="url(#filter0_f_8925_64991)">
<rect x="12.4648" y="12" width="35.0703" height="39" rx="8" fill="#CECECE" fill-opacity="0.6"/>
</g>
<path d="M10.4007 25.4545C10.4007 22.3931 10.4011 20.1211 10.548 18.3221C10.6946 16.5278 10.9852 15.2393 11.5461 14.1384C12.5536 12.1611 14.1611 10.5536 16.1384 9.54608C17.2393 8.98515 18.5278 8.69464 20.3221 8.54804C22.1211 8.40105 24.3931 8.40074 27.4545 8.40074H32.5455C35.6069 8.40074 37.8789 8.40105 39.6779 8.54804C41.4722 8.69464 42.7607 8.98515 43.8616 9.54608C45.8389 10.5536 47.4464 12.1611 48.4539 14.1384C49.0148 15.2393 49.3054 16.5278 49.452 18.3221C49.5989 20.1211 49.5993 22.3931 49.5993 25.4545V30.5455C49.5993 33.6069 49.5989 35.8789 49.452 37.6779C49.3054 39.4722 49.0148 40.7607 48.4539 41.8616C47.4464 43.8389 45.8389 45.4464 43.8616 46.4539C42.7607 47.0148 41.4722 47.3054 39.6779 47.452C37.8789 47.5989 35.6069 47.5993 32.5455 47.5993H27.4545C24.3931 47.5993 22.1211 47.5989 20.3221 47.452C18.5278 47.3054 17.2393 47.0148 16.1384 46.4539C14.1611 45.4464 12.5536 43.8389 11.5461 41.8616C10.9852 40.7607 10.6946 39.4722 10.548 37.6779C10.4011 35.8789 10.4007 33.6069 10.4007 30.5455V25.4545Z" fill="#FEFEFE" stroke="#EBECEC" stroke-width="0.801477"/>
<rect x="23.6997" y="17.8525" width="15.6001" height="17.295" rx="1.25" stroke="#6C6E6F" stroke-width="1.5" stroke-linejoin="round"/>
<path d="M35.1876 30.7088H27.803C27.5581 30.7088 27.3234 30.6116 27.1502 30.4384C26.9771 30.2653 26.8799 30.0305 26.8799 29.7857C26.8799 29.5409 26.9771 29.3061 27.1502 29.133C27.3234 28.9599 27.5581 28.8627 27.803 28.8627H35.1876C35.4324 28.8627 35.6672 28.9599 35.8403 29.133C36.0134 29.3061 36.1107 29.5409 36.1107 29.7857C36.1107 30.0305 36.0134 30.2653 35.8403 30.4384C35.6672 30.6116 35.4324 30.7088 35.1876 30.7088ZM35.1876 27.0165H27.803C27.5581 27.0165 27.3234 26.9193 27.1502 26.7461C26.9771 26.573 26.8799 26.3382 26.8799 26.0934C26.8799 25.8486 26.9771 25.6138 27.1502 25.4407C27.3234 25.2676 27.5581 25.1703 27.803 25.1703H35.1876C35.4324 25.1703 35.6672 25.2676 35.8403 25.4407C36.0134 25.6138 36.1107 25.8486 36.1107 26.0934C36.1107 26.3382 36.0134 26.573 35.8403 26.7461C35.6672 26.9193 35.4324 27.0165 35.1876 27.0165Z" fill="#6C6E6F"/>
<path d="M27.803 23.0165H35.1876C35.4324 23.0165 35.6672 22.9193 35.8403 22.7461C36.0134 22.573 36.1107 22.3382 36.1107 22.0934C36.1107 21.8486 36.0134 21.6138 35.8403 21.4407C35.6672 21.2676 35.4324 21.1703 35.1876 21.1703H27.803C27.5581 21.1703 27.3234 21.2676 27.1502 21.4407C26.9771 21.6138 26.8799 21.8486 26.8799 22.0934C26.8799 22.3382 26.9771 22.573 27.1502 22.7461C27.3234 22.9193 27.5581 23.0165 27.803 23.0165Z" fill="#6C6E6F"/>
<path d="M19.9497 21.1703V35.6975C19.9497 36.8176 19.9497 37.3776 20.1677 37.8054C20.3594 38.1818 20.6654 38.4877 21.0417 38.6795C21.4695 38.8975 22.0296 38.8975 23.1497 38.8975H36.1108" stroke="#6C6E6F" stroke-width="1.5" stroke-linecap="round" stroke-linejoin="round"/>
<defs>
<filter id="filter0_f_8925_64991" x="0.464844" y="0" width="59.0703" height="63" filterUnits="userSpaceOnUse" color-interpolation-filters="sRGB">
<feFlood flood-opacity="0" result="BackgroundImageFix"/>
<feBlend mode="normal" in="SourceGraphic" in2="BackgroundImageFix" result="shape"/>
<feGaussianBlur stdDeviation="6" result="effect1_foregroundBlur_8925_64991"/>
</filter>
</defs>
</svg>
