<svg width="20" height="20" viewBox="0 0 20 20" fill="none" xmlns="http://www.w3.org/2000/svg">
<path fill-rule="evenodd" clip-rule="evenodd" d="M1.10899 1.54601C1 1.75992 1 2.03995 1 2.6V17.4C1 17.9601 1 18.2401 1.10899 18.454C1.20487 18.6422 1.35785 18.7951 1.54601 18.891C1.75992 19 2.03995 19 2.6 19H17.4C17.9601 19 18.2401 19 18.454 18.891C18.6422 18.7951 18.7951 18.6422 18.891 18.454C19 18.2401 19 17.9601 19 17.4V2.6C19 2.03995 19 1.75992 18.891 1.54601C18.7951 1.35785 18.6422 1.20487 18.454 1.10899C18.2401 1 17.9601 1 17.4 1H2.6C2.03995 1 1.75992 1 1.54601 1.10899C1.35785 1.20487 1.20487 1.35785 1.10899 1.54601ZM8.49338 10.4468V16.3309H11.0991V10.4468H13.2725L13.5978 8.15361H11.0991V6.68953C11.0991 6.02559 11.302 5.57314 12.3497 5.57314L13.6858 5.57259V3.5216C13.4546 3.4937 12.6616 3.43126 11.7388 3.43126C9.81234 3.43126 8.49338 4.49991 8.49338 6.46247V8.15361H6.31453V10.4468H8.49338Z" fill="#0A0D0F"/>
</svg>
