<svg width="60" height="63" viewBox="0 0 60 63" fill="none" xmlns="http://www.w3.org/2000/svg">
<g filter="url(#filter0_f_8925_64977)">
<rect x="12.4648" y="12" width="35.0703" height="39" rx="8" fill="#CECECE" fill-opacity="0.6"/>
</g>
<path d="M10.4007 25.4545C10.4007 22.3931 10.4011 20.1211 10.548 18.3221C10.6946 16.5278 10.9852 15.2393 11.5461 14.1384C12.5536 12.1611 14.1611 10.5536 16.1384 9.54608C17.2393 8.98515 18.5278 8.69464 20.3221 8.54804C22.1211 8.40105 24.3931 8.40074 27.4545 8.40074H32.5455C35.6069 8.40074 37.8789 8.40105 39.6779 8.54804C41.4722 8.69464 42.7607 8.98515 43.8616 9.54608C45.8389 10.5536 47.4464 12.1611 48.4539 14.1384C49.0148 15.2393 49.3054 16.5278 49.452 18.3221C49.5989 20.1211 49.5993 22.3931 49.5993 25.4545V30.5455C49.5993 33.6069 49.5989 35.8789 49.452 37.6779C49.3054 39.4722 49.0148 40.7607 48.4539 41.8616C47.4464 43.8389 45.8389 45.4464 43.8616 46.4539C42.7607 47.0148 41.4722 47.3054 39.6779 47.452C37.8789 47.5989 35.6069 47.5993 32.5455 47.5993H27.4545C24.3931 47.5993 22.1211 47.5989 20.3221 47.452C18.5278 47.3054 17.2393 47.0148 16.1384 46.4539C14.1611 45.4464 12.5536 43.8389 11.5461 41.8616C10.9852 40.7607 10.6946 39.4722 10.548 37.6779C10.4011 35.8789 10.4007 33.6069 10.4007 30.5455V25.4545Z" fill="#FEFEFE" stroke="#EBECEC" stroke-width="0.801477"/>
<path d="M28.9772 29.962V29.8419C28.9803 29.2849 29.0326 28.8417 29.1341 28.5124C29.2388 28.1831 29.3865 27.9184 29.5773 27.7184C29.7681 27.5152 30.0005 27.329 30.2744 27.1598C30.4622 27.0428 30.6299 26.9151 30.7776 26.7766C30.9284 26.635 31.0469 26.4781 31.1331 26.3057C31.2193 26.1303 31.2623 25.9349 31.2623 25.7194C31.2623 25.4763 31.2054 25.2655 31.0915 25.087C30.9777 24.9085 30.8238 24.77 30.6299 24.6715C30.4391 24.573 30.2252 24.5238 29.9882 24.5238C29.7697 24.5238 29.5619 24.5715 29.365 24.6669C29.1711 24.7592 29.0095 24.9008 28.8802 25.0916C28.7541 25.2793 28.6833 25.5178 28.6679 25.8071H27.0244C27.0398 25.2224 27.1814 24.733 27.4491 24.3391C27.72 23.9452 28.077 23.6497 28.5202 23.4527C28.9664 23.2558 29.4588 23.1573 29.9974 23.1573C30.5853 23.1573 31.1023 23.2604 31.5486 23.4666C31.9979 23.6728 32.3472 23.9667 32.5965 24.3483C32.8489 24.7269 32.9751 25.1762 32.9751 25.6964C32.9751 26.0472 32.9181 26.3611 32.8042 26.6381C32.6934 26.9151 32.5349 27.1613 32.3287 27.3767C32.1225 27.5922 31.8779 27.7845 31.5947 27.9538C31.3454 28.1077 31.1408 28.2677 30.9807 28.4339C30.8238 28.6001 30.7068 28.7955 30.6299 29.0202C30.556 29.2418 30.5175 29.5157 30.5145 29.8419V29.962H28.9772ZM29.7805 32.8427C29.5035 32.8427 29.2649 32.7442 29.0649 32.5472C28.8648 32.3502 28.7648 32.1102 28.7648 31.827C28.7648 31.55 28.8648 31.3131 29.0649 31.1161C29.2649 30.9191 29.5035 30.8206 29.7805 30.8206C30.0544 30.8206 30.2913 30.9191 30.4914 31.1161C30.6945 31.3131 30.7961 31.55 30.7961 31.827C30.7961 32.0148 30.7484 32.1856 30.653 32.3395C30.5606 32.4933 30.4375 32.6164 30.2836 32.7088C30.1328 32.798 29.9651 32.8427 29.7805 32.8427Z" fill="#6C6E6F"/>
<circle cx="29.9999" cy="28" r="10.1215" stroke="#6C6E6F" stroke-width="1.5"/>
<defs>
<filter id="filter0_f_8925_64977" x="0.464844" y="0" width="59.0703" height="63" filterUnits="userSpaceOnUse" color-interpolation-filters="sRGB">
<feFlood flood-opacity="0" result="BackgroundImageFix"/>
<feBlend mode="normal" in="SourceGraphic" in2="BackgroundImageFix" result="shape"/>
<feGaussianBlur stdDeviation="6" result="effect1_foregroundBlur_8925_64977"/>
</filter>
</defs>
</svg>
