<svg width="60" height="63" viewBox="0 0 60 63" fill="none" xmlns="http://www.w3.org/2000/svg">
<g filter="url(#filter0_f_8894_87541)">
<rect x="12.4648" y="12" width="35.0703" height="39" rx="8" fill="#CECECE" fill-opacity="0.6"/>
</g>
<path d="M10.4007 25.4545C10.4007 22.3931 10.4011 20.1211 10.548 18.3221C10.6946 16.5278 10.9852 15.2393 11.5461 14.1384C12.5536 12.1611 14.1611 10.5536 16.1384 9.54608C17.2393 8.98515 18.5278 8.69464 20.3221 8.54804C22.1211 8.40105 24.3931 8.40074 27.4545 8.40074H32.5455C35.6069 8.40074 37.8789 8.40105 39.6779 8.54804C41.4722 8.69464 42.7607 8.98515 43.8616 9.54608C45.8389 10.5536 47.4464 12.1611 48.4539 14.1384C49.0148 15.2393 49.3054 16.5278 49.452 18.3221C49.5989 20.1211 49.5993 22.3931 49.5993 25.4545V30.5455C49.5993 33.6069 49.5989 35.8789 49.452 37.6779C49.3054 39.4722 49.0148 40.7607 48.4539 41.8616C47.4464 43.8389 45.8389 45.4464 43.8616 46.4539C42.7607 47.0148 41.4722 47.3054 39.6779 47.452C37.8789 47.5989 35.6069 47.5993 32.5455 47.5993H27.4545C24.3931 47.5993 22.1211 47.5989 20.3221 47.452C18.5278 47.3054 17.2393 47.0148 16.1384 46.4539C14.1611 45.4464 12.5536 43.8389 11.5461 41.8616C10.9852 40.7607 10.6946 39.4722 10.548 37.6779C10.4011 35.8789 10.4007 33.6069 10.4007 30.5455V25.4545Z" fill="#FEFEFE" stroke="#EBECEC" stroke-width="0.801477"/>
<path d="M20.6934 21.3207H39.3963L30.4729 16.0813C30.1579 15.8964 29.7671 15.8979 29.4535 16.0853L20.6934 21.3207Z" fill="#6C6E6F"/>
<path d="M19.9102 36.295C19.9102 35.7428 20.3579 35.295 20.9102 35.295H24.2695C24.8218 35.295 25.2695 35.7428 25.2695 36.295V36.924H19.9102V36.295Z" fill="#6C6E6F"/>
<path d="M19.9102 25.1661C19.9102 25.7184 20.3579 26.1661 20.9102 26.1661H24.2695C24.8218 26.1661 25.2695 25.7184 25.2695 25.1661V24.5372H19.9102V25.1661Z" fill="#6C6E6F"/>
<path d="M34.6758 36.295C34.6758 35.7428 35.1235 35.295 35.6758 35.295H39.0352C39.5874 35.295 40.0352 35.7428 40.0352 36.295V36.924H34.6758V36.295Z" fill="#6C6E6F"/>
<path d="M34.6758 25.1661C34.6758 25.7184 35.1235 26.1661 35.6758 26.1661H39.0352C39.5874 26.1661 40.0352 25.7184 40.0352 25.1661V24.5372H34.6758V25.1661Z" fill="#6C6E6F"/>
<rect x="20.4375" y="26.6954" width="4.34375" height="8.10156" fill="#6C6E6F" stroke="white"/>
<rect x="35.4375" y="26.6954" width="4.34375" height="8.10156" fill="#6C6E6F" stroke="white"/>
<path d="M30.002 35.0685C32.3977 35.0685 34.3398 33.1263 34.3398 30.7306C34.3398 28.3348 32.3977 26.3927 30.002 26.3927C27.6062 26.3927 25.6641 28.3348 25.6641 30.7306C25.6641 33.1263 27.6062 35.0685 30.002 35.0685Z" fill="#6C6E6F"/>
<path d="M28.668 31.6615C28.668 32.1772 29.0637 32.5929 29.5554 32.5929H30.5587C30.9865 32.5929 31.3342 32.2291 31.3342 31.7814C31.3342 31.2937 31.1224 31.1218 30.8066 31.0099L29.1956 30.4503C28.8798 30.3384 28.668 30.1665 28.668 29.6788C28.668 29.2311 29.0157 28.8673 29.4435 28.8673H30.4468C30.9385 28.8673 31.3342 29.283 31.3342 29.7987" stroke="white" stroke-width="0.599609" stroke-linecap="round" stroke-linejoin="round"/>
<path d="M29.998 28.3322V33.129" stroke="white" stroke-width="0.599609" stroke-linecap="round" stroke-linejoin="round"/>
<rect x="18.3535" y="20.7443" width="23.2949" height="3.48047" rx="1.5" fill="#6C6E6F" stroke="white"/>
<rect x="18.3535" y="37.5079" width="23.2949" height="3.20898" rx="1.5" fill="#6C6E6F" stroke="white"/>
<defs>
<filter id="filter0_f_8894_87541" x="0.464844" y="0" width="59.0703" height="63" filterUnits="userSpaceOnUse" color-interpolation-filters="sRGB">
<feFlood flood-opacity="0" result="BackgroundImageFix"/>
<feBlend mode="normal" in="SourceGraphic" in2="BackgroundImageFix" result="shape"/>
<feGaussianBlur stdDeviation="6" result="effect1_foregroundBlur_8894_87541"/>
</filter>
</defs>
</svg>
