<svg width="60" height="63" viewBox="0 0 60 63" fill="none" xmlns="http://www.w3.org/2000/svg">
<g filter="url(#filter0_f_8894_85656)">
<rect x="12.4648" y="12" width="35.0703" height="39" rx="8" fill="#CECECE" fill-opacity="0.6"/>
</g>
<path d="M10.4007 25.4545C10.4007 22.3931 10.4011 20.1211 10.548 18.3221C10.6946 16.5278 10.9852 15.2393 11.5461 14.1384C12.5536 12.1611 14.1611 10.5536 16.1384 9.54608C17.2393 8.98515 18.5278 8.69464 20.3221 8.54804C22.1211 8.40105 24.3931 8.40074 27.4545 8.40074H32.5455C35.6069 8.40074 37.8789 8.40105 39.6779 8.54804C41.4722 8.69464 42.7607 8.98515 43.8616 9.54608C45.8389 10.5536 47.4464 12.1611 48.4539 14.1384C49.0148 15.2393 49.3054 16.5278 49.452 18.3221C49.5989 20.1211 49.5993 22.3931 49.5993 25.4545V30.5455C49.5993 33.6069 49.5989 35.8789 49.452 37.6779C49.3054 39.4722 49.0148 40.7607 48.4539 41.8616C47.4464 43.8389 45.8389 45.4464 43.8616 46.4539C42.7607 47.0148 41.4722 47.3054 39.6779 47.452C37.8789 47.5989 35.6069 47.5993 32.5455 47.5993H27.4545C24.3931 47.5993 22.1211 47.5989 20.3221 47.452C18.5278 47.3054 17.2393 47.0148 16.1384 46.4539C14.1611 45.4464 12.5536 43.8389 11.5461 41.8616C10.9852 40.7607 10.6946 39.4722 10.548 37.6779C10.4011 35.8789 10.4007 33.6069 10.4007 30.5455V25.4545Z" fill="#FEFEFE" stroke="#EBECEC" stroke-width="0.801477"/>
<path d="M42.6668 17.8486V25.4892C42.6668 37.1392 32.6628 41.0044 30.6599 41.6609C30.2321 41.8043 29.7682 41.8043 29.3404 41.6609C27.3349 41.0044 17.3335 37.1392 17.3335 25.4892V17.8486C17.3335 17.2969 17.5559 16.7678 17.9518 16.3777C18.3477 15.9876 18.8847 15.7684 19.4446 15.7684H40.5557C41.1156 15.7684 41.6526 15.9876 42.0485 16.3777C42.4444 16.7678 42.6668 17.2969 42.6668 17.8486Z" fill="#6C6E6F"/>
<path d="M30.3253 38.9648L30.3253 38.9648L30.3206 38.9663C30.1133 39.0358 29.8881 39.0358 29.6807 38.9663L29.6758 38.9647C28.0141 38.4207 20.0327 35.3113 20.0327 25.9937V19.5285C20.0327 19.2643 20.1392 19.0085 20.3323 18.8182C20.5258 18.6275 20.7906 18.5184 21.069 18.5184H38.9323C39.2107 18.5184 39.4755 18.6275 39.669 18.8182C39.8622 19.0085 39.9686 19.2643 39.9686 19.5285V25.9937C39.9686 35.3113 31.9852 38.4207 30.3253 38.9648Z" stroke="white" stroke-width="1.5"/>
<path d="M26.3728 25.56V26.3223H24.4098V27.5297H25.9141V28.2785H24.4098V30.2684H23.4654V25.56H26.3728ZM27.9868 25.56V30.2684H27.0425V25.56H27.9868ZM32.3534 27.017C32.3534 27.2689 32.2927 27.505 32.1713 27.7253C32.0544 27.9457 31.8677 28.1233 31.6114 28.2582C31.3596 28.3932 31.0403 28.4606 30.6535 28.4606H29.8643V30.2684H28.9199V25.56H30.6535C31.0178 25.56 31.3281 25.623 31.5844 25.7489C31.8408 25.8748 32.0319 26.0479 32.1578 26.2683C32.2882 26.4886 32.3534 26.7382 32.3534 27.017ZM30.6131 27.6984C30.8739 27.6984 31.0673 27.6399 31.1932 27.523C31.3191 27.4015 31.3821 27.2329 31.3821 27.017C31.3821 26.5583 31.1257 26.329 30.6131 26.329H29.8643V27.6984H30.6131ZM34.6496 30.3157C34.3213 30.3157 34.0245 30.2594 33.7592 30.147C33.4984 30.0346 33.2915 29.8727 33.1386 29.6613C32.9857 29.45 32.907 29.2004 32.9025 28.9126H33.9143C33.9278 29.1059 33.9953 29.2588 34.1167 29.3713C34.2426 29.4837 34.4135 29.5399 34.6294 29.5399C34.8497 29.5399 35.0229 29.4882 35.1488 29.3848C35.2747 29.2768 35.3377 29.1374 35.3377 28.9665C35.3377 28.8271 35.2949 28.7124 35.2095 28.6225C35.1241 28.5326 35.0161 28.4629 34.8857 28.4134C34.7598 28.3594 34.5844 28.301 34.3596 28.238C34.0538 28.1481 33.8042 28.0604 33.6108 27.9749C33.4219 27.885 33.2578 27.7523 33.1184 27.5769C32.9834 27.3971 32.916 27.1587 32.916 26.8619C32.916 26.5831 32.9857 26.3402 33.1251 26.1334C33.2645 25.9265 33.4601 25.7691 33.712 25.6612C33.9638 25.5488 34.2516 25.4925 34.5754 25.4925C35.0611 25.4925 35.4546 25.6117 35.7559 25.8501C36.0617 26.0839 36.2303 26.4122 36.2618 26.8349H35.223C35.214 26.673 35.1443 26.5404 35.0139 26.4369C34.888 26.329 34.7193 26.275 34.508 26.275C34.3236 26.275 34.1752 26.3223 34.0627 26.4167C33.9548 26.5111 33.9009 26.6483 33.9009 26.8282C33.9009 26.9541 33.9413 27.0598 34.0223 27.1452C34.1077 27.2262 34.2111 27.2936 34.3326 27.3476C34.4585 27.3971 34.6339 27.4555 34.8587 27.523C35.1645 27.6129 35.4141 27.7029 35.6075 27.7928C35.8009 27.8827 35.9673 28.0176 36.1067 28.1975C36.2461 28.3774 36.3158 28.6135 36.3158 28.9058C36.3158 29.1577 36.2506 29.3915 36.1202 29.6074C35.9897 29.8232 35.7986 29.9964 35.5468 30.1268C35.2949 30.2527 34.9959 30.3157 34.6496 30.3157Z" fill="white"/>
<defs>
<filter id="filter0_f_8894_85656" x="0.464844" y="0" width="59.0703" height="63" filterUnits="userSpaceOnUse" color-interpolation-filters="sRGB">
<feFlood flood-opacity="0" result="BackgroundImageFix"/>
<feBlend mode="normal" in="SourceGraphic" in2="BackgroundImageFix" result="shape"/>
<feGaussianBlur stdDeviation="6" result="effect1_foregroundBlur_8894_85656"/>
</filter>
</defs>
</svg>
