<svg width="60" height="63" viewBox="0 0 60 63" fill="none" xmlns="http://www.w3.org/2000/svg">
<g filter="url(#filter0_f_8919_25312)">
<rect x="12.4648" y="12" width="35.0703" height="39" rx="8" fill="#CECECE" fill-opacity="0.6"/>
</g>
<path d="M10.4007 25.4545C10.4007 22.3931 10.4011 20.1211 10.548 18.3221C10.6946 16.5278 10.9852 15.2393 11.5461 14.1384C12.5536 12.1611 14.1611 10.5536 16.1384 9.54608C17.2393 8.98515 18.5278 8.69464 20.3221 8.54804C22.1211 8.40105 24.3931 8.40074 27.4545 8.40074H32.5455C35.6069 8.40074 37.8789 8.40105 39.6779 8.54804C41.4722 8.69464 42.7607 8.98515 43.8616 9.54608C45.8389 10.5536 47.4464 12.1611 48.4539 14.1384C49.0148 15.2393 49.3054 16.5278 49.452 18.3221C49.5989 20.1211 49.5993 22.3931 49.5993 25.4545V30.5455C49.5993 33.6069 49.5989 35.8789 49.452 37.6779C49.3054 39.4722 49.0148 40.7607 48.4539 41.8616C47.4464 43.8389 45.8389 45.4464 43.8616 46.4539C42.7607 47.0148 41.4722 47.3054 39.6779 47.452C37.8789 47.5989 35.6069 47.5993 32.5455 47.5993H27.4545C24.3931 47.5993 22.1211 47.5989 20.3221 47.452C18.5278 47.3054 17.2393 47.0148 16.1384 46.4539C14.1611 45.4464 12.5536 43.8389 11.5461 41.8616C10.9852 40.7607 10.6946 39.4722 10.548 37.6779C10.4011 35.8789 10.4007 33.6069 10.4007 30.5455V25.4545Z" fill="#FEFEFE" stroke="#EBECEC" stroke-width="0.801477"/>
<path d="M40.8572 27.1041V27.1069V36.0356C40.8572 37.0208 40.4659 37.9655 39.7693 38.6621C39.0727 39.3587 38.128 39.75 37.1429 39.75H30.8928C30.8549 39.75 30.8185 39.7349 30.7917 39.7082C30.7649 39.6814 30.7499 39.645 30.7499 39.6071C30.7499 39.5692 30.7649 39.5329 30.7917 39.5061C30.8185 39.4793 30.8549 39.4643 30.8928 39.4643H37.1429C38.0522 39.4643 38.9243 39.103 39.5673 38.46C40.2102 37.8171 40.5715 36.945 40.5715 36.0356V35.2856H39.8215H37.1429C36.6314 35.2856 36.1408 35.0825 35.7791 34.7208C35.4174 34.3591 35.2142 33.8685 35.2142 33.357V28.8927C35.2142 28.3812 35.4174 27.8906 35.7791 27.529C36.1408 27.1673 36.6314 26.9641 37.1429 26.9641H39.7824H40.6038L40.5293 26.1461C40.3474 24.1482 39.6009 22.2434 38.3768 20.654C37.1527 19.0646 35.5017 17.8563 33.6165 17.1703C31.7313 16.4842 29.6899 16.3487 27.7306 16.7796C25.7717 17.2104 23.9758 18.1896 22.5526 19.6028C20.7821 21.3503 19.69 23.6701 19.4714 26.1482L19.3994 26.9641H20.2185H22.8569C23.3684 26.9641 23.859 27.1673 24.2207 27.529C24.5823 27.8906 24.7855 28.3812 24.7855 28.8927V33.357C24.7855 33.8685 24.5823 34.3591 24.2207 34.7208C23.859 35.0825 23.3684 35.2856 22.8569 35.2856H21.0712C20.5597 35.2856 20.0691 35.0825 19.7075 34.7208C19.3458 34.3591 19.1426 33.8685 19.1426 33.357V27.1074C19.145 24.9567 19.7854 22.855 20.9827 21.0684C22.1801 19.2817 23.8807 17.8903 25.8692 17.0705C27.8576 16.2507 30.0447 16.0393 32.1534 16.463C34.262 16.8867 36.1976 17.9264 37.715 19.4506C38.7165 20.4569 39.5095 21.6509 40.0487 22.9643C40.5879 24.2776 40.8626 25.6844 40.8572 27.1041Z" stroke="#6C6E6F" stroke-width="1.5"/>
<defs>
<filter id="filter0_f_8919_25312" x="0.464844" y="0" width="59.0703" height="63" filterUnits="userSpaceOnUse" color-interpolation-filters="sRGB">
<feFlood flood-opacity="0" result="BackgroundImageFix"/>
<feBlend mode="normal" in="SourceGraphic" in2="BackgroundImageFix" result="shape"/>
<feGaussianBlur stdDeviation="6" result="effect1_foregroundBlur_8919_25312"/>
</filter>
</defs>
</svg>
