<svg width="107" height="95" viewBox="0 0 107 95" fill="none" xmlns="http://www.w3.org/2000/svg">
<g filter="url(#filter0_f_8233_49313)">
<rect x="29" y="46.5" width="48" height="39" rx="9" fill="#FF5500" fill-opacity="0.35"/>
</g>
<g filter="url(#filter1_f_8233_49313)">
<rect x="17" y="18" width="72" height="69" rx="18" fill="white"/>
</g>
<rect x="11.6612" y="0.661219" width="82.6776" height="82.6776" rx="23.3388" fill="#FEFEFE"/>
<rect x="11.6612" y="0.661219" width="82.6776" height="82.6776" rx="23.3388" stroke="#EBECEC" stroke-width="1.32244"/>
<g filter="url(#filter2_i_8233_49313)">
<rect x="15.5" y="4.5" width="75" height="75" rx="21" fill="#F3F3F5"/>
<rect x="15.8306" y="4.83061" width="74.3388" height="74.3388" rx="20.6694" stroke="url(#paint0_linear_8233_49313)" stroke-width="0.661219"/>
</g>
<rect x="20.6612" y="9.66122" width="64.6776" height="64.6776" rx="17.3388" fill="#FEFEFE"/>
<rect x="20.6612" y="9.66122" width="64.6776" height="64.6776" rx="17.3388" stroke="#EBECEC" stroke-width="1.32244"/>
<path d="M33.465 39.6787C33.3528 40.529 33.2949 41.3964 33.2949 42.2773C33.2949 53.144 42.1041 61.9531 52.9707 61.9531C56.9446 61.9531 60.6433 60.775 63.7367 58.7491M33.465 39.6787C34.2306 33.876 37.525 28.8705 42.2047 25.8056M33.465 39.6787C39.7746 38.3211 52.6351 37.9057 62.9409 44.0775M70.7022 50.8159C71.9482 48.2333 72.6465 45.3369 72.6465 42.2773C72.6465 37.6456 71.0461 33.3877 68.3681 30.0264M70.7022 50.8159C69.1412 54.0516 66.7206 56.7948 63.7367 58.7491M70.7022 50.8159C68.4378 47.9883 65.7867 45.7817 62.9409 44.0775M68.3681 30.0264C67.0608 28.3855 65.4967 26.9583 63.7367 25.8056M68.3681 30.0264C67.892 33.5652 66.3074 38.9083 62.9409 44.0775M63.7367 25.8056C60.6433 23.7796 56.9446 22.6016 52.9707 22.6016C48.9968 22.6016 45.2981 23.7796 42.2047 25.8056M63.7367 25.8056C41.4622 33.1207 39.8863 50.6722 41.8827 58.5336C52.2623 56.2631 58.891 50.2962 62.9409 44.0775M42.2047 25.8056C50.867 28.0464 67.6744 37.8953 63.7367 58.7491" stroke="#FF5500" stroke-width="1.5"/>
<circle cx="41.8203" cy="25.9062" r="2.25" fill="white" stroke="#FF5500" stroke-width="1.5"/>
<circle cx="33.2949" cy="39.8516" r="2.25" fill="white" stroke="#FF5500" stroke-width="1.5"/>
<circle cx="45.5039" cy="39.2812" r="2.25" fill="white" stroke="#FF5500" stroke-width="1.5"/>
<circle cx="52.9707" cy="31.4375" r="2.25" fill="white" stroke="#FF5500" stroke-width="1.5"/>
<circle cx="63.4688" cy="25.9062" r="2.25" fill="white" stroke="#FF5500" stroke-width="1.5"/>
<circle cx="68.5449" cy="31.0312" r="2.25" fill="white" stroke="#FF5500" stroke-width="1.5"/>
<circle cx="62.9453" cy="44.2812" r="2.25" fill="white" stroke="#FF5500" stroke-width="1.5"/>
<circle cx="63.4688" cy="59" r="2.25" fill="white" stroke="#FF5500" stroke-width="1.5"/>
<circle cx="41.2969" cy="58.625" r="2.25" fill="white" stroke="#FF5500" stroke-width="1.5"/>
<defs>
<filter id="filter0_f_8233_49313" x="-1" y="16.5" width="108" height="99" filterUnits="userSpaceOnUse" color-interpolation-filters="sRGB">
<feFlood flood-opacity="0" result="BackgroundImageFix"/>
<feBlend mode="normal" in="SourceGraphic" in2="BackgroundImageFix" result="shape"/>
<feGaussianBlur stdDeviation="15" result="effect1_foregroundBlur_8233_49313"/>
</filter>
<filter id="filter1_f_8233_49313" x="8" y="9" width="90" height="87" filterUnits="userSpaceOnUse" color-interpolation-filters="sRGB">
<feFlood flood-opacity="0" result="BackgroundImageFix"/>
<feBlend mode="normal" in="SourceGraphic" in2="BackgroundImageFix" result="shape"/>
<feGaussianBlur stdDeviation="4.5" result="effect1_foregroundBlur_8233_49313"/>
</filter>
<filter id="filter2_i_8233_49313" x="15.5" y="4.5" width="75" height="76.3224" filterUnits="userSpaceOnUse" color-interpolation-filters="sRGB">
<feFlood flood-opacity="0" result="BackgroundImageFix"/>
<feBlend mode="normal" in="SourceGraphic" in2="BackgroundImageFix" result="shape"/>
<feColorMatrix in="SourceAlpha" type="matrix" values="0 0 0 0 0 0 0 0 0 0 0 0 0 0 0 0 0 0 127 0" result="hardAlpha"/>
<feOffset dy="1.32244"/>
<feGaussianBlur stdDeviation="1.98366"/>
<feComposite in2="hardAlpha" operator="arithmetic" k2="-1" k3="1"/>
<feColorMatrix type="matrix" values="0 0 0 0 0 0 0 0 0 0 0 0 0 0 0 0 0 0 0.15 0"/>
<feBlend mode="normal" in2="shape" result="effect1_innerShadow_8233_49313"/>
</filter>
<linearGradient id="paint0_linear_8233_49313" x1="53" y1="4.5" x2="53" y2="79.5" gradientUnits="userSpaceOnUse">
<stop stop-color="white" stop-opacity="0"/>
<stop offset="1" stop-color="white"/>
</linearGradient>
</defs>
</svg>
