<svg width="60" height="63" viewBox="0 0 60 63" fill="none" xmlns="http://www.w3.org/2000/svg">
<g filter="url(#filter0_f_8894_87621)">
<rect x="12.4648" y="12" width="35.0703" height="39" rx="8" fill="#CECECE" fill-opacity="0.6"/>
</g>
<path d="M10.4007 25.4545C10.4007 22.3931 10.4011 20.1211 10.548 18.3221C10.6946 16.5278 10.9852 15.2393 11.5461 14.1384C12.5536 12.1611 14.1611 10.5536 16.1384 9.54608C17.2393 8.98515 18.5278 8.69464 20.3221 8.54804C22.1211 8.40105 24.3931 8.40074 27.4545 8.40074H32.5455C35.6069 8.40074 37.8789 8.40105 39.6779 8.54804C41.4722 8.69464 42.7607 8.98515 43.8616 9.54608C45.8389 10.5536 47.4464 12.1611 48.4539 14.1384C49.0148 15.2393 49.3054 16.5278 49.452 18.3221C49.5989 20.1211 49.5993 22.3931 49.5993 25.4545V30.5455C49.5993 33.6069 49.5989 35.8789 49.452 37.6779C49.3054 39.4722 49.0148 40.7607 48.4539 41.8616C47.4464 43.8389 45.8389 45.4464 43.8616 46.4539C42.7607 47.0148 41.4722 47.3054 39.6779 47.452C37.8789 47.5989 35.6069 47.5993 32.5455 47.5993H27.4545C24.3931 47.5993 22.1211 47.5989 20.3221 47.452C18.5278 47.3054 17.2393 47.0148 16.1384 46.4539C14.1611 45.4464 12.5536 43.8389 11.5461 41.8616C10.9852 40.7607 10.6946 39.4722 10.548 37.6779C10.4011 35.8789 10.4007 33.6069 10.4007 30.5455V25.4545Z" fill="#FEFEFE" stroke="#EBECEC" stroke-width="0.801477"/>
<path d="M29.5054 15.2826H33.4768C33.5543 15.2826 33.5993 15.3702 33.5542 15.4332L32.8464 16.4218C32.8231 16.4545 32.8227 16.4984 32.8456 16.5314L33.5587 17.5617C33.6024 17.6249 33.5572 17.7111 33.4804 17.7111H29.5054V15.2826Z" fill="#6C6E6F"/>
<path d="M29.9813 14.1839C29.9813 13.9211 29.7682 13.708 29.5054 13.708C29.2425 13.708 29.0295 13.9211 29.0295 14.1839H29.9813ZM33.5587 17.5617L33.1673 17.8326L33.5587 17.5617ZM32.8464 16.4218L33.2334 16.6989L32.8464 16.4218ZM33.5542 15.4332L33.9412 15.7102L33.5542 15.4332ZM29.9813 15.2826V14.1839H29.0295V15.2826H29.9813ZM29.5054 15.7585H33.4768V14.8067H29.5054V15.7585ZM33.1673 15.1561L32.4595 16.1448L33.2334 16.6989L33.9412 15.7102L33.1673 15.1561ZM32.4542 16.8023L33.1673 17.8326L33.95 17.2909L33.2369 16.2606L32.4542 16.8023ZM29.9813 19.973V17.7111H29.0295V19.973H29.9813ZM29.9813 17.7111V15.2826H29.0295V17.7111H29.9813ZM33.4804 17.2352H29.5054V18.187H33.4804V17.2352ZM33.1673 17.8326C32.9926 17.58 33.1733 17.2352 33.4804 17.2352V18.187C33.9411 18.187 34.2122 17.6697 33.95 17.2909L33.1673 17.8326ZM32.4595 16.1448C32.3191 16.3409 32.317 16.604 32.4542 16.8023L33.2369 16.2606C33.3284 16.3928 33.327 16.5682 33.2334 16.6989L32.4595 16.1448ZM33.4768 15.7585C33.167 15.7585 32.9869 15.4081 33.1673 15.1561L33.9412 15.7102C34.2118 15.3323 33.9416 14.8067 33.4768 14.8067V15.7585Z" fill="#6C6E6F"/>
<rect x="19.9458" y="28.0739" width="3.03955" height="10.3605" fill="#6C6E6F"/>
<rect x="25.4458" y="28.0739" width="3.03955" height="10.3605" fill="#6C6E6F"/>
<rect x="30.9478" y="28.0739" width="3.03955" height="10.3605" fill="#6C6E6F"/>
<rect x="36.2095" y="28.0739" width="3.03955" height="10.3605" fill="#6C6E6F"/>
<path d="M37.9423 25.2129C37.4884 24.1487 36.8233 23.1817 35.9847 22.3672C35.1462 21.5526 34.1507 20.9065 33.0551 20.4657C31.9594 20.0249 30.7852 19.798 29.5993 19.798C28.4134 19.798 27.2391 20.0249 26.1435 20.4657C25.0479 20.9065 24.0524 21.5526 23.2139 22.3672C22.3753 23.1817 21.7102 24.1487 21.2563 25.2129C21.0292 25.7454 20.8573 26.2971 20.7422 26.8597H38.4564C38.3413 26.2971 38.1693 25.7454 37.9423 25.2129Z" fill="#6C6E6F"/>
<rect x="17.8774" y="25.4212" width="23.5262" height="3.32" rx="1.66" fill="#6C6E6F" stroke="white"/>
<path d="M18.1084 37.3979C17.28 37.3979 16.6084 38.0695 16.6084 38.8979V39.217C16.6084 40.0454 17.28 40.717 18.1084 40.717H41.8953C42.7238 40.717 43.3953 40.0454 43.3953 39.217V38.8979C43.3953 38.0695 42.7238 37.3979 41.8953 37.3979H18.1084Z" fill="#6C6E6F" stroke="white"/>
<defs>
<filter id="filter0_f_8894_87621" x="0.464844" y="0" width="59.0703" height="63" filterUnits="userSpaceOnUse" color-interpolation-filters="sRGB">
<feFlood flood-opacity="0" result="BackgroundImageFix"/>
<feBlend mode="normal" in="SourceGraphic" in2="BackgroundImageFix" result="shape"/>
<feGaussianBlur stdDeviation="6" result="effect1_foregroundBlur_8894_87621"/>
</filter>
</defs>
</svg>
