<svg width="60" height="63" viewBox="0 0 60 63" fill="none" xmlns="http://www.w3.org/2000/svg">
<g filter="url(#filter0_f_8919_25224)">
<rect x="12.4648" y="12" width="35.0703" height="39" rx="8" fill="#CECECE" fill-opacity="0.6"/>
</g>
<path d="M10.4007 25.4545C10.4007 22.3931 10.4011 20.1211 10.548 18.3221C10.6946 16.5278 10.9852 15.2393 11.5461 14.1384C12.5536 12.1611 14.1611 10.5536 16.1384 9.54608C17.2393 8.98515 18.5278 8.69464 20.3221 8.54804C22.1211 8.40105 24.3931 8.40074 27.4545 8.40074H32.5455C35.6069 8.40074 37.8789 8.40105 39.6779 8.54804C41.4722 8.69464 42.7607 8.98515 43.8616 9.54608C45.8389 10.5536 47.4464 12.1611 48.4539 14.1384C49.0148 15.2393 49.3054 16.5278 49.452 18.3221C49.5989 20.1211 49.5993 22.3931 49.5993 25.4545V30.5455C49.5993 33.6069 49.5989 35.8789 49.452 37.6779C49.3054 39.4722 49.0148 40.7607 48.4539 41.8616C47.4464 43.8389 45.8389 45.4464 43.8616 46.4539C42.7607 47.0148 41.4722 47.3054 39.6779 47.452C37.8789 47.5989 35.6069 47.5993 32.5455 47.5993H27.4545C24.3931 47.5993 22.1211 47.5989 20.3221 47.452C18.5278 47.3054 17.2393 47.0148 16.1384 46.4539C14.1611 45.4464 12.5536 43.8389 11.5461 41.8616C10.9852 40.7607 10.6946 39.4722 10.548 37.6779C10.4011 35.8789 10.4007 33.6069 10.4007 30.5455V25.4545Z" fill="#FEFEFE" stroke="#EBECEC" stroke-width="0.801477"/>
<path d="M28.467 35.6813L28.4635 35.6813C28.4612 35.6813 28.4589 35.6811 28.4566 35.6805C28.4566 35.6805 28.4565 35.6805 28.4564 35.6805L25.3927 34.9145C25.3909 34.9141 25.3892 34.9133 25.3877 34.9123L25.3866 34.9116L23.0878 33.379C23.0841 33.3766 23.0816 33.3728 23.0808 33.3686C23.0799 33.3643 23.0808 33.3599 23.0832 33.3563C23.0856 33.3527 23.0894 33.3502 23.0936 33.3493L22.9468 32.6138L23.0936 33.3493C23.0979 33.3485 23.1023 33.3494 23.1059 33.3518L23.1061 33.3519L25.294 34.8108L25.4021 34.8829L25.5281 34.9144L28.4652 35.6492L28.4652 35.6492L28.4705 35.6505C28.4726 35.651 28.4746 35.6519 28.4763 35.6532C28.4768 35.6535 28.4773 35.6539 28.4777 35.6543C28.4788 35.6553 28.4798 35.6565 28.4806 35.6579C28.481 35.6585 28.4813 35.6592 28.4816 35.6598C28.4822 35.6611 28.4826 35.6625 28.4828 35.6639C28.4831 35.6658 28.4831 35.6677 28.4827 35.6696C28.4817 35.6729 28.4798 35.6757 28.4771 35.6778C28.4742 35.6801 28.4706 35.6813 28.467 35.6813ZM41.2102 26.3727L41.2091 26.3759C41.1772 26.4728 41.1264 26.5624 41.0597 26.6395L41.5794 27.089L41.0597 26.6395C40.993 26.7167 40.9116 26.7798 40.8204 26.8254L40.8197 26.8257L38.5513 27.9599L38.4423 28.0144L38.3562 28.1006L36.9118 29.5459L36.9116 29.5461L33.0803 33.3775C33.0797 33.3781 33.079 33.3786 33.0784 33.3791C33.0768 33.3803 33.075 33.3811 33.0731 33.3817C33.0704 33.3824 33.0675 33.3824 33.0647 33.3818L33.0642 33.3816L26.934 31.8491C26.934 31.8491 26.934 31.8491 26.934 31.8491C26.9314 31.8484 26.929 31.8473 26.9268 31.8458C26.9267 31.8457 26.9267 31.8457 26.9266 31.8457L21.6091 28.0491L21.5613 28.0149L21.5087 27.9886L19.1828 26.8257L19.1827 26.8257C18.9971 26.7329 18.8559 26.5701 18.7902 26.3733C18.7246 26.1764 18.7397 25.9615 18.8325 25.7758L21.2128 21.0162L21.2128 21.0161C21.3056 20.8304 21.4684 20.6892 21.6652 20.6236C21.8621 20.5579 22.077 20.5731 22.2627 20.6658L22.2631 20.666L24.3763 21.7197L24.6369 21.8497L24.917 21.7697L29.9941 20.3194L29.9944 20.3193C29.9973 20.3185 30.0004 20.3185 30.0034 20.3193L30.0036 20.3194L35.0807 21.7697L35.3608 21.8497L35.6214 21.7197L37.7347 20.666L37.7351 20.6658C37.9207 20.5731 38.1356 20.5579 38.3325 20.6236C38.5294 20.6892 38.6921 20.8304 38.7849 21.0161L38.785 21.0162L41.1655 25.7762L41.1669 25.779C41.213 25.8702 41.2405 25.9697 41.248 26.0716C41.2554 26.1735 41.2425 26.2758 41.2102 26.3727ZM36.2781 30.1274L36.8698 29.5351L36.2163 29.0119L33.5619 26.8862L33.0878 26.5065L32.6179 26.8913C30.9776 28.2344 28.9541 28.3868 27.2782 27.3182L27.2775 27.3178C27.2137 27.2771 27.1562 27.2276 27.1068 27.1707L27.2969 27.2922C28.0224 27.7558 28.9609 28.0567 29.9835 27.978C31.018 27.8984 32.0845 27.4342 33.0536 26.4576L33.0536 26.4575C33.0564 26.4547 33.0602 26.4529 33.0643 26.4527C33.0682 26.4525 33.0722 26.4537 33.0753 26.4562C33.0753 26.4562 33.0754 26.4562 33.0754 26.4563L36.3716 29.0972L36.8989 29.5198L37.374 29.0392L38.0282 28.3772L38.4057 27.9953L38.1658 27.5149L35.5621 22.3017L35.3549 21.8868H34.8911H31.8429H31.5386L31.3204 22.0988L27.1782 26.1222L27.0076 26.288C27.0438 26.2203 27.0899 26.1581 27.1445 26.1036L27.1485 26.0995L31.4416 21.9356L32.3731 21.0322L31.1253 20.676L30.2057 20.4136L29.9997 20.3548L29.7937 20.4136L24.9637 21.794L24.6466 21.8847L24.4991 22.1797L21.8771 27.4226L21.5905 27.9957L22.112 28.3683L26.8251 31.7355L26.941 31.8183L27.0792 31.8528L32.6487 33.2447L33.0609 33.3477L33.3612 33.0472L36.2781 30.1274Z" stroke="#6C6E6F" stroke-width="1.5"/>
<defs>
<filter id="filter0_f_8919_25224" x="0.464844" y="0" width="59.0703" height="63" filterUnits="userSpaceOnUse" color-interpolation-filters="sRGB">
<feFlood flood-opacity="0" result="BackgroundImageFix"/>
<feBlend mode="normal" in="SourceGraphic" in2="BackgroundImageFix" result="shape"/>
<feGaussianBlur stdDeviation="6" result="effect1_foregroundBlur_8919_25224"/>
</filter>
</defs>
</svg>
