<svg width="60" height="63" viewBox="0 0 60 63" fill="none" xmlns="http://www.w3.org/2000/svg">
<g filter="url(#filter0_f_8894_85465)">
<rect x="12.4648" y="12" width="35.0703" height="39" rx="8" fill="#CECECE" fill-opacity="0.6"/>
</g>
<path d="M10.4007 25.4545C10.4007 22.3931 10.4011 20.1211 10.548 18.3221C10.6946 16.5278 10.9852 15.2393 11.5461 14.1384C12.5536 12.1611 14.1611 10.5536 16.1384 9.54608C17.2393 8.98515 18.5278 8.69464 20.3221 8.54804C22.1211 8.40105 24.3931 8.40074 27.4545 8.40074H32.5455C35.6069 8.40074 37.8789 8.40105 39.6779 8.54804C41.4722 8.69464 42.7607 8.98515 43.8616 9.54608C45.8389 10.5536 47.4464 12.1611 48.4539 14.1384C49.0148 15.2393 49.3054 16.5278 49.452 18.3221C49.5989 20.1211 49.5993 22.3931 49.5993 25.4545V30.5455C49.5993 33.6069 49.5989 35.8789 49.452 37.6779C49.3054 39.4722 49.0148 40.7607 48.4539 41.8616C47.4464 43.8389 45.8389 45.4464 43.8616 46.4539C42.7607 47.0148 41.4722 47.3054 39.6779 47.452C37.8789 47.5989 35.6069 47.5993 32.5455 47.5993H27.4545C24.3931 47.5993 22.1211 47.5989 20.3221 47.452C18.5278 47.3054 17.2393 47.0148 16.1384 46.4539C14.1611 45.4464 12.5536 43.8389 11.5461 41.8616C10.9852 40.7607 10.6946 39.4722 10.548 37.6779C10.4011 35.8789 10.4007 33.6069 10.4007 30.5455V25.4545Z" fill="#FEFEFE" stroke="#EBECEC" stroke-width="0.801477"/>
<path fill-rule="evenodd" clip-rule="evenodd" d="M29.3536 15.1685C29.5628 15.0702 29.7899 15.0137 30.0218 15.0022C30.3134 14.9877 30.6041 15.0448 30.8672 15.1684L39.9856 19.4499C40.2216 19.5607 40.429 19.722 40.5923 19.9216C40.7556 20.1213 40.8706 20.3543 40.929 20.6034L43.1817 30.2257C43.24 30.4748 43.24 30.7335 43.1816 30.9827C43.1233 31.2318 43.0082 31.4649 42.8447 31.6647L36.5364 39.3813C36.373 39.5807 36.1656 39.7417 35.9296 39.8523C35.6936 39.9628 35.4351 40.0202 35.1734 40.02L25.0533 40.0222C24.7914 40.0223 24.5329 39.9648 24.2969 39.854C24.0609 39.7433 23.8536 39.5821 23.6902 39.3824L17.3796 31.667C17.3443 31.6235 17.3113 31.5783 17.2805 31.5317C17.1537 31.3408 17.0674 31.1271 17.0267 30.9032C16.9861 30.6793 16.9919 30.4497 17.0438 30.228L19.2931 20.6057C19.3514 20.3567 19.4665 20.1236 19.6298 19.9239C19.7931 19.7242 20.0004 19.563 20.2364 19.4522L29.3536 15.1685ZM29.5663 18.8716C29.5662 18.5424 29.8106 18.2754 30.112 18.2754C30.4133 18.2754 30.6576 18.5424 30.6577 18.8716C30.6577 18.8884 30.6581 18.9072 30.6585 18.9264C30.6592 18.9607 30.6599 18.9964 30.6588 19.0241C30.6541 19.1494 30.6342 19.2553 30.6139 19.3631C30.6034 19.4187 30.5928 19.4748 30.5842 19.5344L30.5806 19.5635C30.5363 19.925 30.4993 20.2268 30.5224 20.5078C30.541 20.6325 30.6075 20.692 30.671 20.749C30.6811 20.758 30.6911 20.767 30.7008 20.7761C30.7025 20.8151 30.7088 20.9443 30.7136 21.0158C32.4487 21.1674 34.0601 21.9476 35.2437 23.168L35.4512 23.0223C35.4595 23.0228 35.469 23.0235 35.4794 23.0243C35.5574 23.0302 35.689 23.0402 35.7824 22.9868C36.0206 22.8291 36.2381 22.6119 36.4984 22.3518L36.5182 22.3321C36.5593 22.2892 36.5967 22.247 36.6339 22.2052C36.708 22.1217 36.7808 22.0398 36.8785 21.9571C36.9025 21.9368 36.9353 21.9116 36.9657 21.8882C36.9777 21.879 36.9892 21.8702 36.9997 21.862C37.2615 21.6566 37.6257 21.6785 37.8136 21.9101C38.0016 22.1418 37.9413 22.496 37.6795 22.7013C37.6674 22.7109 37.654 22.7218 37.6402 22.7329C37.6123 22.7555 37.583 22.7793 37.5594 22.7965C37.4577 22.8703 37.3613 22.9206 37.2634 22.9716C37.2116 22.9986 37.1594 23.0257 37.1058 23.0567C36.7795 23.255 36.5089 23.4193 36.2943 23.6174C36.2065 23.7098 36.2004 23.7979 36.1946 23.8824C36.1937 23.8954 36.1929 23.9084 36.1917 23.9213C36.1771 23.9345 36.1446 23.963 36.1086 23.9946C36.07 24.0285 36.0273 24.066 35.9981 24.0921C36.4685 24.7806 36.8211 25.562 37.0207 26.4163C37.2185 27.2627 37.2492 28.1087 37.135 28.9216L37.3554 28.9847C37.36 28.9911 37.3652 28.9987 37.371 29.007C37.4145 29.07 37.4899 29.1789 37.5909 29.2174C37.8687 29.3035 38.1811 29.3357 38.5572 29.3745L38.5692 29.3757C38.6308 29.3807 38.6894 29.383 38.7476 29.3852C38.8587 29.3895 38.9681 29.3937 39.0928 29.417C39.1213 29.4223 39.1582 29.4313 39.1932 29.4398C39.2139 29.4449 39.234 29.4498 39.2514 29.4537C39.573 29.53 39.7795 29.8208 39.7131 30.1072C39.6466 30.3937 39.3324 30.5678 39.0088 30.4994C39.0065 30.4988 39.0031 30.4987 39.0006 30.4982C38.9988 30.4978 38.997 30.4971 38.9953 30.4965C38.9936 30.4958 38.9919 30.4952 38.9902 30.4948C38.9738 30.4912 38.9558 30.4877 38.9378 30.4841C38.9062 30.4779 38.8742 30.4716 38.8491 30.4649C38.7263 30.4326 38.6258 30.3899 38.5237 30.3464C38.4705 30.3237 38.4168 30.3009 38.3593 30.2792L38.3424 30.2732C37.9889 30.1486 37.6946 30.0448 37.4079 30.004C37.2802 29.9941 37.2066 30.0444 37.1361 30.0926C37.1248 30.1003 37.1136 30.1079 37.1023 30.1152C37.0625 30.1074 36.9398 30.086 36.8691 30.0751C36.3462 31.691 35.2328 33.0902 33.7232 33.9667C33.7315 33.9865 33.7417 34.0134 33.7524 34.0417C33.7751 34.1017 33.8001 34.1675 33.8141 34.1834C33.8094 34.1959 33.8043 34.2083 33.7991 34.2208C33.7671 34.2988 33.734 34.3798 33.7721 34.4998C33.8781 34.7699 34.0494 35.034 34.2561 35.3518C34.2902 35.402 34.3247 35.4482 34.3589 35.494C34.4247 35.5822 34.4893 35.6689 34.5487 35.7795C34.5637 35.8074 34.5821 35.8456 34.5989 35.8806C34.6063 35.8961 34.6135 35.9109 34.6199 35.9239C34.7602 36.219 34.6572 36.5588 34.3878 36.6864C34.1163 36.815 33.7787 36.6792 33.6334 36.3826C33.6271 36.3699 33.62 36.3559 33.6128 36.3415C33.596 36.3082 33.578 36.2727 33.5658 36.245C33.5145 36.1296 33.4854 36.025 33.4558 35.9186C33.4407 35.8645 33.4255 35.8099 33.4072 35.7531L33.4018 35.7377C33.2803 35.3876 33.1794 35.097 33.0329 34.8507C32.9607 34.7458 32.8744 34.7203 32.7918 34.6959C32.7791 34.6921 32.7666 34.6884 32.7542 34.6844C32.7451 34.6691 32.723 34.6297 32.699 34.587C32.6773 34.5483 32.6541 34.5068 32.6376 34.4781C32.3324 34.5917 32.0195 34.6844 31.7013 34.7556C30.2853 35.0717 28.8678 34.9434 27.6015 34.4654L27.4779 34.6856C27.3859 34.7098 27.2971 34.7344 27.2427 34.7982C27.103 34.9621 27.0224 35.1955 26.9366 35.4436C26.9004 35.5486 26.8632 35.6562 26.8202 35.7623C26.8016 35.82 26.7863 35.8755 26.7712 35.9306C26.7421 36.036 26.7136 36.1397 26.6628 36.2541C26.6511 36.2805 26.6341 36.3139 26.6179 36.3457C26.6099 36.3614 26.602 36.3767 26.5952 36.3906C26.5951 36.3908 26.5951 36.391 26.5952 36.3912C26.5952 36.3914 26.5952 36.3916 26.5952 36.3917C26.595 36.3922 26.5942 36.3925 26.594 36.3929C26.4484 36.6886 26.1119 36.8239 25.8408 36.6956C25.5713 36.568 25.4685 36.2282 25.6087 35.9331C25.6163 35.9176 25.6249 35.8995 25.6337 35.8808C25.6489 35.8483 25.665 35.8141 25.6787 35.7886C25.7384 35.6775 25.8034 35.59 25.8695 35.501C25.9034 35.4555 25.9375 35.4095 25.9714 35.3598C26.178 35.042 26.3594 34.7569 26.4653 34.4868C26.4919 34.3971 26.4525 34.2742 26.4168 34.1834L26.5159 33.9495C25.0633 33.1031 23.9162 31.7542 23.3688 30.0854L23.1309 30.1256C23.1237 30.1216 23.1157 30.117 23.107 30.112C23.0383 30.0729 22.9252 30.0083 22.8172 30.0166C22.5302 30.0575 22.2357 30.1613 21.8819 30.2861L21.8658 30.2918C21.8092 30.3131 21.7563 30.3354 21.704 30.3576C21.6009 30.4011 21.4998 30.4438 21.376 30.4764C21.3479 30.4838 21.3112 30.4914 21.2761 30.4987C21.2619 30.5017 21.2479 30.5046 21.2349 30.5074C21.2332 30.5078 21.2315 30.5084 21.2299 30.509C21.2281 30.5097 21.2263 30.5104 21.2244 30.5108C21.222 30.5113 21.2186 30.5114 21.2162 30.5119C20.8927 30.5805 20.5785 30.4063 20.512 30.1198C20.4455 29.8334 20.6521 29.5427 20.9737 29.4662C20.9749 29.466 20.9763 29.4656 20.9778 29.4651C20.9792 29.4647 20.9806 29.4642 20.9819 29.464L20.9865 29.4628C21.0005 29.4596 21.0156 29.456 21.0311 29.4522C21.0663 29.4438 21.1033 29.435 21.1323 29.4296C21.2567 29.4064 21.366 29.4022 21.477 29.3979C21.5353 29.3956 21.5941 29.3933 21.6559 29.3883L21.6686 29.387C22.0444 29.3482 22.3565 29.3161 22.6341 29.2301C22.7128 29.1983 22.7885 29.1006 22.8466 29.0255C22.8542 29.0156 22.8616 29.0062 22.8685 28.9973L23.0971 28.9319C22.841 27.1881 23.2743 25.4766 24.2106 24.091L24.0357 23.9373C24.0345 23.93 24.0333 23.9216 24.0319 23.9124C24.0205 23.8373 24.0008 23.706 23.9261 23.6277C23.7116 23.4296 23.4411 23.2654 23.1149 23.0673L23.1146 23.0671C23.0615 23.0364 23.0099 23.0094 22.9588 22.9827C22.8607 22.9314 22.7643 22.881 22.6621 22.8068C22.6386 22.7897 22.6094 22.7661 22.5816 22.7436C22.5704 22.7345 22.5594 22.7256 22.549 22.7174C22.5478 22.7164 22.5465 22.7155 22.5452 22.7146C22.5437 22.7137 22.5423 22.7127 22.5409 22.7116C22.279 22.5063 22.2189 22.1522 22.4068 21.9205C22.5125 21.7901 22.674 21.7256 22.8417 21.7313C22.9722 21.7356 23.1073 21.7825 23.2218 21.8723C23.232 21.8802 23.2432 21.8888 23.2548 21.8977C23.2856 21.9214 23.319 21.947 23.3431 21.9675C23.44 22.0494 23.5119 22.1308 23.5851 22.2136C23.6226 22.2561 23.6605 22.2989 23.7022 22.3424L23.7116 22.3518C23.9766 22.6164 24.1966 22.8362 24.438 22.9959C24.5493 23.0597 24.6381 23.0459 24.7233 23.0327C24.7363 23.0306 24.7493 23.0286 24.7622 23.0269C24.8273 23.0736 24.8929 23.1195 24.9592 23.1645C25.888 22.1955 27.108 21.4778 28.525 21.1614C28.8498 21.089 29.1795 21.0392 29.5115 21.0123L29.5243 20.7853C29.5969 20.7161 29.6784 20.6166 29.7015 20.5078C29.7251 20.2212 29.6873 19.9128 29.6418 19.5416L29.6409 19.5344C29.6323 19.4749 29.6217 19.4189 29.6113 19.3634C29.5909 19.2555 29.571 19.1495 29.5663 19.0241C29.5653 18.9977 29.5659 18.9644 29.5666 18.9317C29.5669 18.9162 29.5673 18.9009 29.5674 18.8865C29.5673 18.8841 29.5671 18.8818 29.5668 18.8794C29.5665 18.8768 29.5663 18.8743 29.5663 18.8716ZM29.2666 25.2525L29.4287 22.4376C29.2331 22.4606 29.0389 22.4936 28.8468 22.5362C27.7834 22.7736 26.8606 23.2891 26.1393 23.9866L28.4865 25.6228L28.4912 25.6206C28.5707 25.6776 28.6685 25.7111 28.7745 25.7111C29.0333 25.7111 29.244 25.51 29.2549 25.2582L29.2666 25.2525ZM34.066 23.9878C33.1861 23.1405 32.038 22.5877 30.7964 22.4376L30.9585 25.2479L30.9608 25.249C30.9652 25.349 31.002 25.4451 31.0658 25.5231C31.2271 25.722 31.5188 25.7589 31.7258 25.6102L31.7339 25.6137L34.066 23.9878ZM27.4312 26.9231L25.288 25.0381C24.652 26.057 24.3507 27.2791 24.4905 28.5363L27.2377 27.7566L27.24 27.7475C27.3385 27.721 27.4259 27.6644 27.4895 27.5858C27.6509 27.3869 27.6224 27.0999 27.4289 26.9345L27.4312 26.9231ZM35.6238 26.7282C35.4803 26.1136 35.2391 25.5467 34.9207 25.0392V25.0392L32.7892 26.9151L32.7903 26.9208C32.7135 26.9863 32.66 27.0743 32.6376 27.1719C32.58 27.42 32.732 27.6673 32.9792 27.7337L32.9816 27.7452L35.7428 28.5272C35.8012 27.9414 35.7656 27.3353 35.6238 26.7282ZM30.5504 27.0687H29.6723L29.1255 27.7383L29.3214 28.5753L30.112 28.9491L30.9002 28.5765L31.0961 27.7395L30.5504 27.0687ZM32.598 29.3722C32.5616 29.3657 32.5245 29.3624 32.4872 29.3642C32.425 29.3673 32.3626 29.383 32.3029 29.4112C32.0698 29.5216 31.9684 29.7931 32.0697 30.0246L32.0662 30.0292L33.1693 32.6492C34.2326 31.9831 35.0284 30.9878 35.4443 29.8389L32.6026 29.3665L32.598 29.3722ZM28.1763 29.7437C28.1259 29.5267 27.9314 29.3787 27.7146 29.3757C27.6836 29.3752 27.6517 29.378 27.6201 29.3837L27.6155 29.378L24.7983 29.8481C25.2331 31.0309 26.0458 31.995 27.0663 32.6389L28.1577 30.0453L28.1495 30.035C28.1884 29.946 28.1999 29.8454 28.1763 29.7437ZM30.3195 30.5589C30.2495 30.5254 30.1722 30.5093 30.0944 30.512L30.0945 30.5119C30.0103 30.515 29.9285 30.5397 29.8571 30.5836C29.7857 30.6274 29.7272 30.6889 29.6875 30.7619H29.6852L28.3 33.2248C29.2586 33.546 30.3173 33.6179 31.3794 33.3808C31.5669 33.3391 31.7522 33.2882 31.9345 33.2282L30.5457 30.7608H30.5352C30.4888 30.6754 30.415 30.6042 30.3195 30.5589Z" fill="#6C6E6F"/>
<defs>
<filter id="filter0_f_8894_85465" x="0.464844" y="0" width="59.0703" height="63" filterUnits="userSpaceOnUse" color-interpolation-filters="sRGB">
<feFlood flood-opacity="0" result="BackgroundImageFix"/>
<feBlend mode="normal" in="SourceGraphic" in2="BackgroundImageFix" result="shape"/>
<feGaussianBlur stdDeviation="6" result="effect1_foregroundBlur_8894_85465"/>
</filter>
</defs>
</svg>
