<svg width="60" height="63" viewBox="0 0 60 63" fill="none" xmlns="http://www.w3.org/2000/svg">
<g filter="url(#filter0_f_8919_25098)">
<rect x="12.4648" y="12" width="35.0703" height="39" rx="8" fill="#CECECE" fill-opacity="0.6"/>
</g>
<path d="M10.4007 25.4545C10.4007 22.3931 10.4011 20.1211 10.548 18.3221C10.6946 16.5278 10.9852 15.2393 11.5461 14.1384C12.5536 12.1611 14.1611 10.5536 16.1384 9.54608C17.2393 8.98515 18.5278 8.69464 20.3221 8.54804C22.1211 8.40105 24.3931 8.40074 27.4545 8.40074H32.5455C35.6069 8.40074 37.8789 8.40105 39.6779 8.54804C41.4722 8.69464 42.7607 8.98515 43.8616 9.54608C45.8389 10.5536 47.4464 12.1611 48.4539 14.1384C49.0148 15.2393 49.3054 16.5278 49.452 18.3221C49.5989 20.1211 49.5993 22.3931 49.5993 25.4545V30.5455C49.5993 33.6069 49.5989 35.8789 49.452 37.6779C49.3054 39.4722 49.0148 40.7607 48.4539 41.8616C47.4464 43.8389 45.8389 45.4464 43.8616 46.4539C42.7607 47.0148 41.4722 47.3054 39.6779 47.452C37.8789 47.5989 35.6069 47.5993 32.5455 47.5993H27.4545C24.3931 47.5993 22.1211 47.5989 20.3221 47.452C18.5278 47.3054 17.2393 47.0148 16.1384 46.4539C14.1611 45.4464 12.5536 43.8389 11.5461 41.8616C10.9852 40.7607 10.6946 39.4722 10.548 37.6779C10.4011 35.8789 10.4007 33.6069 10.4007 30.5455V25.4545Z" fill="#FEFEFE" stroke="#EBECEC" stroke-width="0.801477"/>
<circle cx="30.0601" cy="28.9265" r="4.55177" stroke="#6C6E6F" stroke-width="1.33481"/>
<path d="M36.4625 37.0031C35.1194 34.8845 32.7537 33.4783 30.0596 33.4783C27.3656 33.4783 24.9999 34.8845 23.6567 37.0031" stroke="#6C6E6F" stroke-width="1.33481" stroke-linecap="round"/>
<path d="M25.7702 21.9949C25.8432 22.3561 26.1953 22.5898 26.5566 22.5167C26.9179 22.4436 27.1515 22.0915 27.0785 21.7302L25.7702 21.9949ZM22.9164 25.4875C21.3084 25.4875 20.0048 24.1839 20.0048 22.5759H18.67C18.67 24.9211 20.5712 26.8223 22.9164 26.8223V25.4875ZM20.0048 22.5759C20.0048 20.9679 21.3084 19.6643 22.9164 19.6643V18.3295C20.5712 18.3295 18.67 20.2307 18.67 22.5759H20.0048ZM22.9164 19.6643C24.3249 19.6643 25.5012 20.6651 25.7702 21.9949L27.0785 21.7302C26.6861 19.7902 24.9726 18.3295 22.9164 18.3295V19.6643Z" fill="#6C6E6F"/>
<path d="M22.7255 26.1549C20.5268 26.1549 18.5962 27.2606 17.5 28.9264" stroke="#6C6E6F" stroke-width="1.33481" stroke-linecap="round"/>
<path d="M34.2298 21.9949C34.1568 22.3561 33.8047 22.5898 33.4434 22.5167C33.0821 22.4436 32.8485 22.0915 32.9215 21.7302L34.2298 21.9949ZM37.0836 25.4875C38.6916 25.4875 39.9952 24.1839 39.9952 22.5759H41.33C41.33 24.9211 39.4288 26.8223 37.0836 26.8223V25.4875ZM39.9952 22.5759C39.9952 20.9679 38.6916 19.6643 37.0836 19.6643V18.3295C39.4288 18.3295 41.33 20.2307 41.33 22.5759H39.9952ZM37.0836 19.6643C35.6751 19.6643 34.4988 20.6651 34.2298 21.9949L32.9215 21.7302C33.3139 19.7902 35.0274 18.3295 37.0836 18.3295V19.6643Z" fill="#6C6E6F"/>
<path d="M37.2745 26.1549C39.4732 26.1549 41.4038 27.2606 42.5 28.9264" stroke="#6C6E6F" stroke-width="1.33481" stroke-linecap="round"/>
<defs>
<filter id="filter0_f_8919_25098" x="0.464844" y="0" width="59.0703" height="63" filterUnits="userSpaceOnUse" color-interpolation-filters="sRGB">
<feFlood flood-opacity="0" result="BackgroundImageFix"/>
<feBlend mode="normal" in="SourceGraphic" in2="BackgroundImageFix" result="shape"/>
<feGaussianBlur stdDeviation="6" result="effect1_foregroundBlur_8919_25098"/>
</filter>
</defs>
</svg>
