<svg width="20" height="20" viewBox="0 0 20 20" fill="none" xmlns="http://www.w3.org/2000/svg">
<path fill-rule="evenodd" clip-rule="evenodd" d="M1.09239 1.54601C0.983398 1.75992 0.983398 2.03995 0.983398 2.6V17.4C0.983398 17.9601 0.983398 18.2401 1.09239 18.454C1.18827 18.6422 1.34125 18.7951 1.52941 18.891C1.74332 19 2.02335 19 2.5834 19H17.3834C17.9435 19 18.2235 19 18.4374 18.891C18.6256 18.7951 18.7785 18.6422 18.8744 18.454C18.9834 18.2401 18.9834 17.9601 18.9834 17.4V2.6C18.9834 2.03995 18.9834 1.75992 18.8744 1.54601C18.7785 1.35785 18.6256 1.20487 18.4374 1.10899C18.2235 1 17.9435 1 17.3834 1H2.5834C2.02335 1 1.74332 1 1.52941 1.10899C1.34125 1.20487 1.18827 1.35785 1.09239 1.54601ZM9.92223 5.43291C8.67453 4.13679 6.64332 4.13679 5.39561 5.43291C4.15932 6.71716 4.15187 8.79788 5.38815 10.0821L6.08239 10.8033C6.29457 11.0237 6.64524 11.0304 6.86564 10.8182C7.08605 10.606 7.09272 10.2554 6.88055 10.035L6.18631 9.31379C5.36299 8.45853 5.36299 7.06426 6.18631 6.209L6.19377 6.20125C7.00567 5.35785 8.31218 5.35785 9.12408 6.20125L10.746 7.88607C11.5693 8.74133 11.5693 10.1356 10.746 10.9909L10.7378 10.9993C10.5654 11.1791 10.3713 11.3192 10.166 11.421C9.89187 11.5569 9.77983 11.8892 9.91573 12.1633C10.0516 12.4374 10.384 12.5495 10.6581 12.4136C10.9777 12.2551 11.2758 12.0389 11.5373 11.7663L11.5441 11.7592C12.7804 10.4749 12.7804 8.40198 11.5441 7.11772L9.92223 5.43291ZM9.83428 8.57903C10.1084 8.44313 10.2204 8.11077 10.0845 7.83668C9.94862 7.56258 9.61626 7.45055 9.34217 7.58644C9.02258 7.74489 8.72444 7.96114 8.46293 8.23374L8.45612 8.2408C7.21984 9.52506 7.21984 11.598 8.45613 12.8823L10.078 14.5671C11.3257 15.8632 13.3569 15.8632 14.6046 14.5671L14.6121 14.5594C15.8484 13.2751 15.8484 11.2021 14.6121 9.91787L13.9179 9.19669C13.7057 8.97629 13.355 8.96961 13.1346 9.18178C12.9142 9.39396 12.9075 9.74463 13.1197 9.96503L13.8139 10.6862C14.6373 11.5415 14.6373 12.9357 13.8139 13.791L13.8065 13.7988C12.9946 14.6422 11.6881 14.6422 10.8762 13.7988L9.25429 12.1139C8.43097 11.2587 8.43097 9.8644 9.25429 9.00914L9.2624 9.00071C9.43488 8.82093 9.6289 8.68085 9.83428 8.57903Z" fill="#0A0D0F"/>
</svg>
