<svg width="20" height="20" viewBox="0 0 20 20" fill="none" xmlns="http://www.w3.org/2000/svg">
<path d="M18.1563 1H1.73135C1.28135 1 0.943848 1.3375 0.943848 1.7875V18.325C0.943848 18.6625 1.28135 19 1.73135 19H18.2688C18.7188 19 19.0563 18.6625 19.0563 18.2125V1.7875C18.9438 1.3375 18.6063 1 18.1563 1ZM6.23135 16.3H3.64385V7.75H6.34385V16.3H6.23135ZM4.99385 6.625C4.09385 6.625 3.41885 5.8375 3.41885 5.05C3.41885 4.15 4.09385 3.475 4.99385 3.475C5.89385 3.475 6.56885 4.15 6.56885 5.05C6.45635 5.8375 5.78135 6.625 4.99385 6.625ZM16.2438 16.3H13.5438V12.1375C13.5438 11.125 13.5438 9.8875 12.1938 9.8875C10.8438 9.8875 10.6188 11.0125 10.6188 12.1375V16.4125H7.91885V7.75H10.5063V8.875C10.8438 8.2 11.7438 7.525 12.9813 7.525C15.6813 7.525 16.1313 9.325 16.1313 11.575V16.3H16.2438Z" fill="#0A0D0F"/>
</svg>
