<svg width="60" height="63" viewBox="0 0 60 63" fill="none" xmlns="http://www.w3.org/2000/svg">
<g filter="url(#filter0_f_8912_41662)">
<rect x="12.4648" y="12" width="35.0703" height="39" rx="8" fill="#CECECE" fill-opacity="0.6"/>
</g>
<path d="M10.4007 25.4545C10.4007 22.3931 10.4011 20.1211 10.548 18.3221C10.6946 16.5278 10.9852 15.2393 11.5461 14.1384C12.5536 12.1611 14.1611 10.5536 16.1384 9.54608C17.2393 8.98515 18.5278 8.69464 20.3221 8.54804C22.1211 8.40105 24.3931 8.40074 27.4545 8.40074H32.5455C35.6069 8.40074 37.8789 8.40105 39.6779 8.54804C41.4722 8.69464 42.7607 8.98515 43.8616 9.54608C45.8389 10.5536 47.4464 12.1611 48.4539 14.1384C49.0148 15.2393 49.3054 16.5278 49.452 18.3221C49.5989 20.1211 49.5993 22.3931 49.5993 25.4545V30.5455C49.5993 33.6069 49.5989 35.8789 49.452 37.6779C49.3054 39.4722 49.0148 40.7607 48.4539 41.8616C47.4464 43.8389 45.8389 45.4464 43.8616 46.4539C42.7607 47.0148 41.4722 47.3054 39.6779 47.452C37.8789 47.5989 35.6069 47.5993 32.5455 47.5993H27.4545C24.3931 47.5993 22.1211 47.5989 20.3221 47.452C18.5278 47.3054 17.2393 47.0148 16.1384 46.4539C14.1611 45.4464 12.5536 43.8389 11.5461 41.8616C10.9852 40.7607 10.6946 39.4722 10.548 37.6779C10.4011 35.8789 10.4007 33.6069 10.4007 30.5455V25.4545Z" fill="#FEFEFE" stroke="#EBECEC" stroke-width="0.801477"/>
<path fill-rule="evenodd" clip-rule="evenodd" d="M23.5265 16.1936C22.7086 16.1936 22.0455 16.8567 22.0455 17.6746V22.32H18.9234C18.1055 22.32 17.4424 22.9831 17.4424 23.801V35.9407C17.4424 37.6261 18.8086 38.9923 20.494 38.9923C20.5131 38.9923 20.5322 38.9921 20.5513 38.9918C20.5638 38.9924 20.5764 38.9927 20.5891 38.9927H22.7955H37.4858C40.5243 38.9927 42.9874 36.5296 42.9874 33.4911V17.6746C42.9874 16.8567 42.3244 16.1936 41.5064 16.1936H23.5265ZM23.122 37.4927H37.4858C39.6959 37.4927 41.4874 35.7012 41.4874 33.4911V17.6936H23.5455V22.32H23.5456V23.07V35.9407C23.5456 36.5074 23.3911 37.038 23.122 37.4927ZM26.9276 28.7822V23.4001H32.1521V28.7822H26.9276ZM26.7259 21.9001C26.0089 21.9001 25.4276 22.4814 25.4276 23.1984V28.984C25.4276 29.701 26.0089 30.2822 26.7259 30.2822H32.3538C33.0708 30.2822 33.6521 29.701 33.6521 28.984V23.1984C33.6521 22.4814 33.0709 21.9001 32.3538 21.9001H26.7259ZM34.952 22.3204C34.5378 22.3204 34.202 22.6562 34.202 23.0704C34.202 23.4846 34.5378 23.8204 34.952 23.8204H38.6284C39.0426 23.8204 39.3784 23.4846 39.3784 23.0704C39.3784 22.6562 39.0426 22.3204 38.6284 22.3204H34.952ZM34.952 25.3675C34.5378 25.3675 34.202 25.7032 34.202 26.1175C34.202 26.5317 34.5378 26.8675 34.952 26.8675H38.6284C39.0426 26.8675 39.3784 26.5317 39.3784 26.1175C39.3784 25.7032 39.0426 25.3675 38.6284 25.3675H34.952ZM34.952 28.467C34.5378 28.467 34.202 28.8028 34.202 29.217C34.202 29.6312 34.5378 29.967 34.952 29.967H38.6284C39.0426 29.967 39.3784 29.6312 39.3784 29.217C39.3784 28.8028 39.0426 28.467 38.6284 28.467H34.952ZM26.1776 31.5666C25.7634 31.5666 25.4276 31.9024 25.4276 32.3166C25.4276 32.7308 25.7634 33.0666 26.1776 33.0666H38.6284C39.0426 33.0666 39.3784 32.7308 39.3784 32.3166C39.3784 31.9024 39.0426 31.5666 38.6284 31.5666H26.1776ZM18.9424 35.9407V23.82H22.0456V35.9407C22.0456 36.7977 21.3509 37.4923 20.494 37.4923C19.6371 37.4923 18.9424 36.7977 18.9424 35.9407Z" fill="#6C6E6F"/>
<defs>
<filter id="filter0_f_8912_41662" x="0.464844" y="0" width="59.0703" height="63" filterUnits="userSpaceOnUse" color-interpolation-filters="sRGB">
<feFlood flood-opacity="0" result="BackgroundImageFix"/>
<feBlend mode="normal" in="SourceGraphic" in2="BackgroundImageFix" result="shape"/>
<feGaussianBlur stdDeviation="6" result="effect1_foregroundBlur_8912_41662"/>
</filter>
</defs>
</svg>
