<svg width="20" height="20" viewBox="0 0 20 20" fill="none" xmlns="http://www.w3.org/2000/svg">
<g clip-path="url(#clip0_7534_1870)">
<path d="M4.21653 12.6433C4.21653 13.8057 3.2778 14.7452 2.11632 14.7452C0.954843 14.7452 0.0161133 13.8057 0.0161133 12.6433C0.0161133 11.4808 0.954843 10.5414 2.11632 10.5414H4.21653V12.6433ZM5.26664 12.6433C5.26664 11.4808 6.20537 10.5414 7.36685 10.5414C8.52833 10.5414 9.46706 11.4808 9.46706 12.6433V17.898C9.46706 19.0605 8.52833 20 7.36685 20C6.20537 20 5.26664 19.0605 5.26664 17.898V12.6433Z" fill="#0A0D0F"/>
<path d="M7.36665 4.20382C6.20517 4.20382 5.26644 3.26433 5.26644 2.10191C5.26644 0.939491 6.20517 0 7.36665 0C8.52813 0 9.46686 0.939491 9.46686 2.10191V4.20382H7.36665ZM7.36665 5.2707C8.52813 5.2707 9.46686 6.21019 9.46686 7.37261C9.46686 8.53504 8.52813 9.47453 7.36665 9.47453H2.10021C0.93873 9.47453 0 8.53504 0 7.37261C0 6.21019 0.93873 5.2707 2.10021 5.2707H7.36665Z" fill="#0A0D0F"/>
<path d="M15.7837 7.37257C15.7837 6.21015 16.7225 5.27066 17.8839 5.27066C19.0454 5.27066 19.9841 6.21015 19.9841 7.37257C19.9841 8.53499 19.0454 9.47448 17.8839 9.47448H15.7837V7.37257ZM14.7336 7.37257C14.7336 8.53499 13.7949 9.47448 12.6334 9.47448C11.4719 9.47448 10.5332 8.53499 10.5332 7.37257V2.10187C10.5332 0.939445 11.4719 -4.57764e-05 12.6334 -4.57764e-05C13.7949 -4.57764e-05 14.7336 0.939445 14.7336 2.10187V7.37257Z" fill="#0A0D0F"/>
<path d="M12.6334 15.7961C13.7949 15.7961 14.7336 16.7356 14.7336 17.898C14.7336 19.0605 13.7949 20 12.6334 20C11.4719 20 10.5332 19.0605 10.5332 17.898V15.7961H12.6334ZM12.6334 14.7452C11.4719 14.7452 10.5332 13.8057 10.5332 12.6433C10.5332 11.4808 11.4719 10.5414 12.6334 10.5414H17.8998C19.0613 10.5414 20.0001 11.4808 20.0001 12.6433C20.0001 13.8057 19.0613 14.7452 17.8998 14.7452H12.6334Z" fill="#0A0D0F"/>
</g>
<defs>
<clipPath id="clip0_7534_1870">
<rect width="20" height="20" fill="white"/>
</clipPath>
</defs>
</svg>
