<svg width="60" height="63" viewBox="0 0 60 63" fill="none" xmlns="http://www.w3.org/2000/svg">
<g filter="url(#filter0_f_9409_25344)">
<rect x="12.4648" y="12" width="35.0703" height="39" rx="8" fill="#CECECE" fill-opacity="0.6"/>
</g>
<path d="M27.4545 8.40074H32.5455C35.6069 8.40074 37.8789 8.40105 39.6779 8.54804C41.4722 8.69464 42.7607 8.98515 43.8616 9.54608C45.8389 10.5536 47.4464 12.1611 48.4539 14.1384C49.0148 15.2393 49.3054 16.5278 49.452 18.3221C49.5989 20.1211 49.5993 22.3931 49.5993 25.4545V30.5455C49.5993 33.6069 49.5989 35.8789 49.452 37.6779C49.3054 39.4722 49.0148 40.7607 48.4539 41.8616C47.4464 43.8389 45.8389 45.4464 43.8616 46.4539C42.7607 47.0148 41.4722 47.3054 39.6779 47.452C37.8789 47.5989 35.6069 47.5993 32.5455 47.5993H27.4545C24.3931 47.5993 22.1211 47.5989 20.3221 47.452C18.5278 47.3054 17.2393 47.0148 16.1384 46.4539C14.1611 45.4464 12.5536 43.8389 11.5461 41.8616C10.9852 40.7607 10.6946 39.4722 10.548 37.6779C10.4011 35.8789 10.4007 33.6069 10.4007 30.5455V25.4545C10.4007 22.3931 10.4011 20.1211 10.548 18.3221C10.6946 16.5278 10.9852 15.2393 11.5461 14.1384C12.5536 12.1611 14.1611 10.5536 16.1384 9.54608C17.2393 8.98515 18.5278 8.69464 20.3221 8.54804C22.1211 8.40105 24.3931 8.40074 27.4545 8.40074Z" fill="#FEFEFE" stroke="#EBECEC" stroke-width="0.801477"/>
<path fill-rule="evenodd" clip-rule="evenodd" d="M27.5887 19.0138L30.005 17.6187L33.723 19.7653V22.5949L35.6126 23.6973V18.9102C35.6126 18.7643 35.5347 18.6294 35.4083 18.5564L30.2093 15.5547C30.0829 15.4818 29.9271 15.4818 29.8007 15.5547L25.7089 17.9171L27.5887 19.0138ZM24.9169 18.6118L29.0371 20.9906L27.1573 22.0872L24.7126 20.6757L20.9946 22.8223V25.6825L19.105 26.7849V21.9672C19.105 21.8213 19.1829 21.6864 19.3093 21.6134L24.5083 18.6118C24.6347 18.5388 24.7905 18.5388 24.9169 18.6118ZM23.5111 25.2417L19.3093 27.6676C19.1829 27.7406 19.105 27.8755 19.105 28.0214V34.0248C19.105 34.1707 19.1829 34.3056 19.3093 34.3786L23.511 36.8045V34.6226L20.9946 33.1697V28.8765L23.5111 27.4236V25.2417ZM24.3974 37.0898V32.3086L26.287 33.411V36.2347L30.005 38.3813L32.4186 36.9878L34.2984 38.0844L30.2093 40.4453C30.0829 40.5182 29.9271 40.5182 29.8007 40.4453L24.6017 37.4436C24.4753 37.3706 24.3974 37.2357 24.3974 37.0898ZM30.9637 35.0208L35.0753 37.3946C35.2017 37.4676 35.3574 37.4676 35.4839 37.3946L40.6829 34.393C40.8093 34.32 40.8872 34.1851 40.8872 34.0391V29.2318L38.9976 30.3342V33.1841L35.2796 35.3307L32.8434 33.9242L30.9637 35.0208ZM40.6903 28.3116L36.499 30.7315V28.5496L39.005 27.1028V22.8096L36.499 21.3627V19.1808L40.6903 21.6007C40.8167 21.6736 40.8946 21.8085 40.8946 21.9545V27.9578C40.8946 28.1038 40.8167 28.2387 40.6903 28.3116ZM30.211 34.0844C30.0838 34.1586 29.9265 34.1586 29.7993 34.0844L24.8929 31.2221C24.7674 31.1488 24.6902 31.0145 24.6902 30.8692V25.1371C24.6902 24.9918 24.7674 24.8574 24.8929 24.7842L29.7993 21.9218C29.9265 21.8476 30.0838 21.8476 30.211 21.9218L35.1174 24.7842C35.2429 24.8574 35.3201 24.9918 35.3201 25.1371V30.8692C35.3201 31.0145 35.2429 31.1488 35.1174 31.2221L30.211 34.0844ZM34.0944 30.3999L30.618 32.428V28.3551L34.0944 26.327V30.3999ZM33.4958 25.2572L30.0051 27.2936L26.5144 25.2572L30.0051 23.2207L33.4958 25.2572ZM25.9159 30.3999V26.327L29.3923 28.3551V32.428L25.9159 30.3999Z" fill="#6C6E6F"/>
<defs>
<filter id="filter0_f_9409_25344" x="0.464844" y="0" width="59.0703" height="63" filterUnits="userSpaceOnUse" color-interpolation-filters="sRGB">
<feFlood flood-opacity="0" result="BackgroundImageFix"/>
<feBlend mode="normal" in="SourceGraphic" in2="BackgroundImageFix" result="shape"/>
<feGaussianBlur stdDeviation="6" result="effect1_foregroundBlur_9409_25344"/>
</filter>
</defs>
</svg>
