<svg width="60" height="63" viewBox="0 0 60 63" fill="none" xmlns="http://www.w3.org/2000/svg">
<g filter="url(#filter0_f_8919_23467)">
<rect x="12.4648" y="12" width="35.0703" height="39" rx="8" fill="#CECECE" fill-opacity="0.6"/>
</g>
<path d="M10.4007 25.4545C10.4007 22.3931 10.4011 20.1211 10.548 18.3221C10.6946 16.5278 10.9852 15.2393 11.5461 14.1384C12.5536 12.1611 14.1611 10.5536 16.1384 9.54608C17.2393 8.98515 18.5278 8.69464 20.3221 8.54804C22.1211 8.40105 24.3931 8.40074 27.4545 8.40074H32.5455C35.6069 8.40074 37.8789 8.40105 39.6779 8.54804C41.4722 8.69464 42.7607 8.98515 43.8616 9.54608C45.8389 10.5536 47.4464 12.1611 48.4539 14.1384C49.0148 15.2393 49.3054 16.5278 49.452 18.3221C49.5989 20.1211 49.5993 22.3931 49.5993 25.4545V30.5455C49.5993 33.6069 49.5989 35.8789 49.452 37.6779C49.3054 39.4722 49.0148 40.7607 48.4539 41.8616C47.4464 43.8389 45.8389 45.4464 43.8616 46.4539C42.7607 47.0148 41.4722 47.3054 39.6779 47.452C37.8789 47.5989 35.6069 47.5993 32.5455 47.5993H27.4545C24.3931 47.5993 22.1211 47.5989 20.3221 47.452C18.5278 47.3054 17.2393 47.0148 16.1384 46.4539C14.1611 45.4464 12.5536 43.8389 11.5461 41.8616C10.9852 40.7607 10.6946 39.4722 10.548 37.6779C10.4011 35.8789 10.4007 33.6069 10.4007 30.5455V25.4545Z" fill="#FEFEFE" stroke="#EBECEC" stroke-width="0.801477"/>
<path fill-rule="evenodd" clip-rule="evenodd" d="M34.7219 20.7812C35.7647 21.3983 36.9778 21.5899 38.1482 21.377C40.4679 21.0791 42.1491 23.6116 40.9574 25.6334C39.8081 27.6763 36.7649 27.4635 35.8711 25.3141C33.7642 19.8661 25.9752 19.8661 23.8471 25.3141C22.9746 27.4635 19.91 27.6763 18.7608 25.6334C17.5904 23.6116 19.2716 21.0791 21.57 21.377C22.7405 21.5899 23.9535 21.377 24.9963 20.7812C26.0603 20.1853 26.8265 19.2489 27.2309 18.121C28.1672 15.8013 31.5509 15.8013 32.4874 18.121C32.8917 19.2276 33.6791 20.1853 34.7219 20.7812ZM29.8698 23.718C32.1894 23.718 33.5515 26.4208 32.1256 28.2935C31.3594 29.1874 30.9338 30.3365 30.9338 31.5496C30.9338 32.7413 31.3594 33.8905 32.1256 34.8056C33.5727 36.6784 32.1894 39.4024 29.8698 39.3811C27.5501 39.3811 26.188 36.6784 27.6139 34.8056C28.3801 33.9118 28.8057 32.7626 28.8057 31.5496C28.8057 30.3578 28.3801 29.2086 27.6139 28.2935C26.1668 26.4208 27.5501 23.6967 29.8698 23.718Z" fill="#6C6E6F"/>
<defs>
<filter id="filter0_f_8919_23467" x="0.464844" y="0" width="59.0703" height="63" filterUnits="userSpaceOnUse" color-interpolation-filters="sRGB">
<feFlood flood-opacity="0" result="BackgroundImageFix"/>
<feBlend mode="normal" in="SourceGraphic" in2="BackgroundImageFix" result="shape"/>
<feGaussianBlur stdDeviation="6" result="effect1_foregroundBlur_8919_23467"/>
</filter>
</defs>
</svg>
