<svg width="60" height="63" viewBox="0 0 60 63" fill="none" xmlns="http://www.w3.org/2000/svg">
<g filter="url(#filter0_f_8571_112664)">
<rect x="12.4648" y="12" width="35.0703" height="39" rx="8" fill="#CECECE" fill-opacity="0.6"/>
</g>
<path d="M10.4007 25.4545C10.4007 22.3931 10.4011 20.1211 10.548 18.3221C10.6946 16.5278 10.9852 15.2393 11.5461 14.1384C12.5536 12.1611 14.1611 10.5536 16.1384 9.54608C17.2393 8.98515 18.5278 8.69464 20.3221 8.54804C22.1211 8.40105 24.3931 8.40074 27.4545 8.40074H32.5455C35.6069 8.40074 37.8789 8.40105 39.6779 8.54804C41.4722 8.69464 42.7607 8.98515 43.8616 9.54608C45.8389 10.5536 47.4464 12.1611 48.4539 14.1384C49.0148 15.2393 49.3054 16.5278 49.452 18.3221C49.5989 20.1211 49.5993 22.3931 49.5993 25.4545V30.5455C49.5993 33.6069 49.5989 35.8789 49.452 37.6779C49.3054 39.4722 49.0148 40.7607 48.4539 41.8616C47.4464 43.8389 45.8389 45.4464 43.8616 46.4539C42.7607 47.0148 41.4722 47.3054 39.6779 47.452C37.8789 47.5989 35.6069 47.5993 32.5455 47.5993H27.4545C24.3931 47.5993 22.1211 47.5989 20.3221 47.452C18.5278 47.3054 17.2393 47.0148 16.1384 46.4539C14.1611 45.4464 12.5536 43.8389 11.5461 41.8616C10.9852 40.7607 10.6946 39.4722 10.548 37.6779C10.4011 35.8789 10.4007 33.6069 10.4007 30.5455V25.4545Z" fill="#FEFEFE" stroke="#EBECEC" stroke-width="0.801477"/>
<mask id="path-3-inside-1_8571_112664" fill="white">
<path d="M32.1231 32.3528C32.3187 31.1407 33.1381 30.1377 34.2419 29.6839L29.322 18.5299C29.3179 18.5217 29.308 18.518 29.2995 18.5222C29.294 18.5249 29.2902 18.5305 29.2899 18.5368V32.0167C29.2902 32.0251 29.2964 32.0323 29.3049 32.0335L32.1231 32.3528Z"/>
<path d="M24.3757 32.7181C24.3745 32.7212 24.3742 32.7245 24.3747 32.7275C24.376 32.7371 24.3845 32.7434 24.3935 32.7419L28.572 32.0148C28.5799 32.0136 28.5859 32.0063 28.5856 31.9982L28.5859 23.2533C28.5859 23.2469 28.5822 23.2411 28.5763 23.2384C28.5683 23.2342 28.5584 23.2378 28.5544 23.2462L24.3757 32.7181Z"/>
<path d="M28.5799 35.5004C28.5838 35.5023 28.5883 35.5023 28.5921 35.5004L32.3859 34.3452C32.2472 34.0382 32.152 33.7073 32.1074 33.3603H24.4035C24.3968 33.3599 24.3907 33.3641 24.3878 33.3703C24.3841 33.3787 24.388 33.3884 24.3963 33.3923L28.5799 35.5004Z"/>
<path fill-rule="evenodd" clip-rule="evenodd" d="M32.6014 32.9119C32.6014 34.55 33.9294 35.8782 35.5675 35.8782C37.2056 35.8782 38.5335 34.55 38.5335 32.9119C38.5335 31.2741 37.2056 29.946 35.5675 29.946C33.9294 29.946 32.6014 31.2741 32.6014 32.9119ZM35.2793 31.6609H35.8475V32.6292H36.8155V33.1973H35.8475V34.165H35.2793V33.1973H34.3115V32.6292H35.2793V31.6609Z"/>
<path d="M29.9782 13.375L27.9323 16.785H32.0242L29.9782 13.375Z"/>
<path d="M29.9782 43.0312L27.9323 39.6212H32.0242L29.9782 43.0312Z"/>
<path d="M41.3795 26.0283L44.7895 28.0743L41.3795 30.1202V26.0283Z"/>
<path d="M15.2095 28.0743L18.6194 26.0283V30.1202L15.2095 28.0743Z"/>
</mask>
<path d="M32.1231 32.3528C32.3187 31.1407 33.1381 30.1377 34.2419 29.6839L29.322 18.5299C29.3179 18.5217 29.308 18.518 29.2995 18.5222C29.294 18.5249 29.2902 18.5305 29.2899 18.5368V32.0167C29.2902 32.0251 29.2964 32.0323 29.3049 32.0335L32.1231 32.3528Z" fill="#6C6E6F"/>
<path d="M24.3757 32.7181C24.3745 32.7212 24.3742 32.7245 24.3747 32.7275C24.376 32.7371 24.3845 32.7434 24.3935 32.7419L28.572 32.0148C28.5799 32.0136 28.5859 32.0063 28.5856 31.9982L28.5859 23.2533C28.5859 23.2469 28.5822 23.2411 28.5763 23.2384C28.5683 23.2342 28.5584 23.2378 28.5544 23.2462L24.3757 32.7181Z" fill="#6C6E6F"/>
<path d="M28.5799 35.5004C28.5838 35.5023 28.5883 35.5023 28.5921 35.5004L32.3859 34.3452C32.2472 34.0382 32.152 33.7073 32.1074 33.3603H24.4035C24.3968 33.3599 24.3907 33.3641 24.3878 33.3703C24.3841 33.3787 24.388 33.3884 24.3963 33.3923L28.5799 35.5004Z" fill="#6C6E6F"/>
<path fill-rule="evenodd" clip-rule="evenodd" d="M32.6014 32.9119C32.6014 34.55 33.9294 35.8782 35.5675 35.8782C37.2056 35.8782 38.5335 34.55 38.5335 32.9119C38.5335 31.2741 37.2056 29.946 35.5675 29.946C33.9294 29.946 32.6014 31.2741 32.6014 32.9119ZM35.2793 31.6609H35.8475V32.6292H36.8155V33.1973H35.8475V34.165H35.2793V33.1973H34.3115V32.6292H35.2793V31.6609Z" fill="#6C6E6F"/>
<path d="M29.9782 13.375L27.9323 16.785H32.0242L29.9782 13.375Z" fill="#6C6E6F"/>
<path d="M29.9782 43.0312L27.9323 39.6212H32.0242L29.9782 43.0312Z" fill="#6C6E6F"/>
<path d="M41.3795 26.0283L44.7895 28.0743L41.3795 30.1202V26.0283Z" fill="#6C6E6F"/>
<path d="M15.2095 28.0743L18.6194 26.0283V30.1202L15.2095 28.0743Z" fill="#6C6E6F"/>
<path d="M34.2419 29.6839L34.5273 30.3783L35.2396 30.0855L34.9288 29.3809L34.2419 29.6839ZM32.1231 32.3528L32.0385 33.0988L32.7502 33.1795L32.8643 32.4725L32.1231 32.3528ZM29.322 18.5299L30.0089 18.2269L30.0027 18.2129L29.9959 18.1991L29.322 18.5299ZM29.2995 18.5222L29.6279 19.1973L29.6306 19.196L29.2995 18.5222ZM29.2899 18.5368L28.54 18.5013L28.5392 18.519V18.5368H29.2899ZM29.2899 32.0167H28.5392V32.0301L28.5396 32.0434L29.2899 32.0167ZM29.3049 32.0335L29.2006 32.777L29.2105 32.7784L29.2204 32.7795L29.3049 32.0335ZM24.3747 32.7275L25.1181 32.6229L25.1172 32.6163L24.3747 32.7275ZM24.3757 32.7181L23.6888 32.415L23.681 32.4327L23.6742 32.4506L24.3757 32.7181ZM24.3935 32.7419L24.5169 33.4824L24.5222 33.4815L24.3935 32.7419ZM28.572 32.0148L28.46 31.2724L28.4517 31.2737L28.4433 31.2751L28.572 32.0148ZM28.5856 31.9982L27.8348 31.9982L27.8348 32.0121L27.8354 32.026L28.5856 31.9982ZM28.5859 23.2533L29.3367 23.2534V23.2533H28.5859ZM28.5763 23.2384L28.2308 23.9049L28.2461 23.9128L28.2617 23.92L28.5763 23.2384ZM28.5544 23.2462L27.8781 22.9201L27.8726 22.9315L27.8675 22.9431L28.5544 23.2462ZM28.5921 35.5004L28.3734 34.7821L28.3071 34.8023L28.2456 34.8343L28.5921 35.5004ZM28.5799 35.5004L28.2421 36.1708L28.2442 36.1719L28.5799 35.5004ZM32.3859 34.3452L32.6046 35.0635L33.4216 34.8147L33.0701 34.0363L32.3859 34.3452ZM32.1074 33.3603L32.852 33.2647L32.7679 32.6095H32.1074V33.3603ZM24.4035 33.3603L24.3535 34.1094L24.3785 34.1111H24.4035V33.3603ZM24.3878 33.3703L23.7037 33.061L23.7023 33.0643L24.3878 33.3703ZM24.3963 33.3923L24.7342 32.7219L24.7234 32.7165L24.7125 32.7114L24.3963 33.3923ZM27.9323 16.785L27.2885 16.3987L26.6063 17.5357H27.9323V16.785ZM29.9782 13.375L30.622 12.9887L29.9782 11.9157L29.3345 12.9887L29.9782 13.375ZM32.0242 16.785V17.5357H33.3502L32.668 16.3987L32.0242 16.785ZM27.9323 39.6212V38.8704H26.6063L27.2885 40.0075L27.9323 39.6212ZM29.9782 43.0312L29.3345 43.4175L29.9782 44.4904L30.622 43.4175L29.9782 43.0312ZM32.0242 39.6212L32.668 40.0075L33.3502 38.8704H32.0242V39.6212ZM44.7895 28.0743L45.1758 28.7181L46.2487 28.0743L45.1758 27.4305L44.7895 28.0743ZM41.3795 26.0283L41.7658 25.3845L40.6287 24.7023V26.0283H41.3795ZM41.3795 30.1202H40.6287V31.4463L41.7658 30.764L41.3795 30.1202ZM18.6194 26.0283H19.3702V24.7023L18.2332 25.3845L18.6194 26.0283ZM15.2095 28.0743L14.8232 27.4305L13.7502 28.0743L14.8232 28.7181L15.2095 28.0743ZM18.6194 30.1202L18.2332 30.764L19.3702 31.4463V30.1202H18.6194ZM35.8475 31.6609H36.5982V30.9101H35.8475V31.6609ZM35.2793 31.6609V30.9101H34.5285V31.6609H35.2793ZM35.8475 32.6292H35.0967V33.38H35.8475V32.6292ZM36.8155 32.6292H37.5663V31.8785H36.8155V32.6292ZM36.8155 33.1973V33.9481H37.5663V33.1973H36.8155ZM35.8475 33.1973V32.4465H35.0967V33.1973H35.8475ZM35.8475 34.165V34.9158H36.5982V34.165H35.8475ZM35.2793 34.165H34.5285V34.9158H35.2793V34.165ZM35.2793 33.1973H36.03V32.4465H35.2793V33.1973ZM34.3115 33.1973H33.5608V33.9481H34.3115V33.1973ZM34.3115 32.6292V31.8785H33.5608V32.6292H34.3115ZM35.2793 32.6292V33.38H36.03V32.6292H35.2793ZM33.9564 28.9895C32.6158 29.5407 31.62 30.7583 31.3819 32.2332L32.8643 32.4725C33.0175 31.5232 33.6603 30.7348 34.5273 30.3783L33.9564 28.9895ZM28.635 18.8329L33.555 29.9869L34.9288 29.3809L30.0089 18.2269L28.635 18.8329ZM29.6306 19.196C29.2498 19.3831 28.8182 19.2075 28.648 18.8608L29.9959 18.1991C29.8176 17.8359 29.3663 17.6529 28.9685 17.8483L29.6306 19.196ZM30.0399 18.5724C30.0274 18.8365 29.8727 19.0783 29.6279 19.1973L28.9711 17.847C28.7153 17.9715 28.5531 18.2246 28.54 18.5013L30.0399 18.5724ZM30.0407 32.0167V18.5368H28.5392V32.0167H30.0407ZM29.4092 31.29C29.7756 31.3414 30.0281 31.649 30.0402 31.9901L28.5396 32.0434C28.5524 32.4013 28.8171 32.7232 29.2006 32.777L29.4092 31.29ZM32.2076 31.6068L29.3894 31.2875L29.2204 32.7795L32.0385 33.0988L32.2076 31.6068ZM25.1172 32.6163C25.1354 32.7384 25.1229 32.8657 25.0772 32.9855L23.6742 32.4506C23.6261 32.5768 23.613 32.7106 23.6322 32.8387L25.1172 32.6163ZM24.2701 32.0013C24.6961 31.9303 25.0633 32.2334 25.1181 32.6229L23.6312 32.8321C23.6887 33.2407 24.0729 33.5564 24.5169 33.4824L24.2701 32.0013ZM28.4433 31.2751L24.2648 32.0022L24.5222 33.4815L28.7007 32.7545L28.4433 31.2751ZM27.8354 32.026C27.8218 31.6604 28.0824 31.3294 28.46 31.2724L28.684 32.7572C29.0775 32.6978 29.35 32.3522 29.3359 31.9704L27.8354 32.026ZM27.8351 23.2533L27.8348 31.9982L29.3364 31.9982L29.3367 23.2534L27.8351 23.2533ZM28.2617 23.92C28.0021 23.8002 27.8351 23.5402 27.8351 23.2533H29.3367C29.3367 22.9536 29.1623 22.6819 28.891 22.5567L28.2617 23.92ZM29.2306 23.5723C29.0642 23.9174 28.6251 24.1093 28.2308 23.9049L28.9219 22.5718C28.5114 22.3591 28.0526 22.5582 27.8781 22.9201L29.2306 23.5723ZM25.0626 33.0211L29.2413 23.5492L27.8675 22.9431L23.6888 32.415L25.0626 33.0211ZM28.2456 34.8343C28.4632 34.7211 28.7125 34.7273 28.9157 34.8288L28.2442 36.1719C28.4551 36.2774 28.7135 36.2835 28.9385 36.1664L28.2456 34.8343ZM32.1672 33.627L28.3734 34.7821L28.8107 36.2186L32.6046 35.0635L32.1672 33.627ZM31.3627 33.456C31.4169 33.8775 31.5327 34.2802 31.7016 34.6542L33.0701 34.0363C32.9617 33.7962 32.887 33.5371 32.852 33.2647L31.3627 33.456ZM24.4035 34.1111H32.1074V32.6095H24.4035V34.1111ZM25.0719 33.6797C24.9648 33.9165 24.7031 34.1328 24.3535 34.1094L24.4536 32.6112C24.0904 32.587 23.8165 32.8117 23.7037 33.061L25.0719 33.6797ZM24.7125 32.7114C25.0569 32.8713 25.2455 33.2909 25.0734 33.6764L23.7023 33.0643C23.5227 33.4665 23.719 33.9056 24.0801 34.0733L24.7125 32.7114ZM28.9178 34.8299L24.7342 32.7219L24.0585 34.0628L28.2421 36.1708L28.9178 34.8299ZM35.5675 35.1274C34.3441 35.1274 33.3522 34.1354 33.3522 32.9119H31.8506C31.8506 34.9646 33.5147 36.629 35.5675 36.629V35.1274ZM37.7827 32.9119C37.7827 34.1355 36.7908 35.1274 35.5675 35.1274V36.629C37.6203 36.629 39.2842 34.9645 39.2842 32.9119H37.7827ZM35.5675 30.6967C36.7909 30.6967 37.7827 31.6887 37.7827 32.9119H39.2842C39.2842 30.8595 37.6203 29.1952 35.5675 29.1952V30.6967ZM33.3522 32.9119C33.3522 31.6888 34.3441 30.6967 35.5675 30.6967V29.1952C33.5148 29.1952 31.8506 30.8595 31.8506 32.9119H33.3522ZM28.5761 17.1712L30.622 13.7613L29.3345 12.9887L27.2885 16.3987L28.5761 17.1712ZM32.0242 16.0342H27.9323V17.5357H32.0242V16.0342ZM29.3345 13.7613L31.3804 17.1712L32.668 16.3987L30.622 12.9887L29.3345 13.7613ZM27.2885 40.0075L29.3345 43.4175L30.622 42.6449L28.5761 39.235L27.2885 40.0075ZM32.0242 38.8704H27.9323V40.372H32.0242V38.8704ZM30.622 43.4175L32.668 40.0075L31.3804 39.235L29.3345 42.6449L30.622 43.4175ZM45.1758 27.4305L41.7658 25.3845L40.9932 26.6721L44.4032 28.7181L45.1758 27.4305ZM41.7658 30.764L45.1758 28.7181L44.4032 27.4305L40.9932 29.4765L41.7658 30.764ZM40.6287 26.0283V30.1202H42.1303V26.0283H40.6287ZM18.2332 25.3845L14.8232 27.4305L15.5957 28.7181L19.0057 26.6721L18.2332 25.3845ZM19.3702 30.1202V26.0283H17.8686V30.1202H19.3702ZM14.8232 28.7181L18.2332 30.764L19.0057 29.4765L15.5957 27.4305L14.8232 28.7181ZM35.8475 30.9101H35.2793V32.4117H35.8475V30.9101ZM36.5982 32.6292V31.6609H35.0967V32.6292H36.5982ZM36.8155 31.8785H35.8475V33.38H36.8155V31.8785ZM37.5663 33.1973V32.6292H36.0647V33.1973H37.5663ZM35.8475 33.9481H36.8155V32.4465H35.8475V33.9481ZM36.5982 34.165V33.1973H35.0967V34.165H36.5982ZM35.2793 34.9158H35.8475V33.4142H35.2793V34.9158ZM34.5285 33.1973V34.165H36.03V33.1973H34.5285ZM34.3115 33.9481H35.2793V32.4465H34.3115V33.9481ZM33.5608 32.6292V33.1973H35.0623V32.6292H33.5608ZM35.2793 31.8785H34.3115V33.38H35.2793V31.8785ZM34.5285 31.6609V32.6292H36.03V31.6609H34.5285Z" fill="#6C6E6F" mask="url(#path-3-inside-1_8571_112664)"/>
<path d="M31.0962 32.9119C31.0962 35.3815 33.0984 37.384 35.5681 37.384C38.0379 37.384 40.0399 35.3815 40.0399 32.9119C40.0399 30.4426 38.0379 28.4401 35.5681 28.4401C33.0984 28.4401 31.0962 30.4425 31.0962 32.9119Z" fill="#6C6E6F" stroke="white" stroke-width="1.13769"/>
<rect x="35.0649" y="30.803" width="1.0032" height="4.21436" fill="white"/>
<rect x="37.6733" y="32.4086" width="1.0032" height="4.21436" transform="rotate(90 37.6733 32.4086)" fill="white"/>
<defs>
<filter id="filter0_f_8571_112664" x="0.464844" y="0" width="59.0703" height="63" filterUnits="userSpaceOnUse" color-interpolation-filters="sRGB">
<feFlood flood-opacity="0" result="BackgroundImageFix"/>
<feBlend mode="normal" in="SourceGraphic" in2="BackgroundImageFix" result="shape"/>
<feGaussianBlur stdDeviation="6" result="effect1_foregroundBlur_8571_112664"/>
</filter>
</defs>
</svg>
