<svg width="60" height="63" viewBox="0 0 60 63" fill="none" xmlns="http://www.w3.org/2000/svg">
<g filter="url(#filter0_f_8620_57990)">
<rect x="12.4648" y="12" width="35.0703" height="39" rx="8" fill="#CECECE" fill-opacity="0.6"/>
</g>
<path d="M10.4007 25.4545C10.4007 22.3931 10.4011 20.1211 10.548 18.3221C10.6946 16.5278 10.9852 15.2393 11.5461 14.1384C12.5536 12.1611 14.1611 10.5536 16.1384 9.54608C17.2393 8.98515 18.5278 8.69464 20.3221 8.54804C22.1211 8.40105 24.3931 8.40074 27.4545 8.40074H32.5455C35.6069 8.40074 37.8789 8.40105 39.6779 8.54804C41.4722 8.69464 42.7607 8.98515 43.8616 9.54608C45.8389 10.5536 47.4464 12.1611 48.4539 14.1384C49.0148 15.2393 49.3054 16.5278 49.452 18.3221C49.5989 20.1211 49.5993 22.3931 49.5993 25.4545V30.5455C49.5993 33.6069 49.5989 35.8789 49.452 37.6779C49.3054 39.4722 49.0148 40.7607 48.4539 41.8616C47.4464 43.8389 45.8389 45.4464 43.8616 46.4539C42.7607 47.0148 41.4722 47.3054 39.6779 47.452C37.8789 47.5989 35.6069 47.5993 32.5455 47.5993H27.4545C24.3931 47.5993 22.1211 47.5989 20.3221 47.452C18.5278 47.3054 17.2393 47.0148 16.1384 46.4539C14.1611 45.4464 12.5536 43.8389 11.5461 41.8616C10.9852 40.7607 10.6946 39.4722 10.548 37.6779C10.4011 35.8789 10.4007 33.6069 10.4007 30.5455V25.4545Z" fill="#FEFEFE" stroke="#EBECEC" stroke-width="0.801477"/>
<path d="M31.3961 16.1113H28.5603L29.9782 13.7481L31.3961 16.1113ZM31.3962 40.2949L29.9782 42.6581L28.5603 40.2949H31.3962ZM42.0527 29.489V26.6531L44.4159 28.071L42.0527 29.489ZM17.9472 29.4889L15.584 28.071L17.9472 26.6531V29.4889Z" fill="#6C6E6F" stroke="#6C6E6F" stroke-width="0.769766"/>
<path d="M28.5542 32.0913C28.5544 32.0998 28.5484 32.1073 28.5401 32.1087L24.202 32.8634C24.1926 32.8649 24.1838 32.8585 24.1823 32.8489C24.1818 32.8454 24.1823 32.8422 24.1836 32.8393L28.5214 23.0054C28.5257 22.9969 28.536 22.993 28.5447 22.9972C28.5482 22.999 28.5511 23.0018 28.5526 23.0054L28.5544 23.0128L28.5542 32.0913Z" fill="#6C6E6F"/>
<path d="M29.2854 32.1104C29.2854 32.1193 29.292 32.1267 29.3007 32.1278L35.7985 32.8645C35.808 32.8656 35.8165 32.8585 35.8176 32.8485L35.8174 32.8443L35.8162 32.8397L29.3184 18.1091C29.3142 18.1003 29.3039 18.0967 29.2952 18.101C29.2913 18.1027 29.2883 18.1059 29.2867 18.1098L29.2854 18.1162V32.1104Z" fill="#6C6E6F"/>
<path d="M35.7486 33.5388L28.5608 35.7276L28.5557 35.7286L28.5484 35.7276L24.205 33.5388C24.1963 33.5349 24.1924 33.5246 24.1962 33.5157C24.1979 33.5118 24.2013 33.5083 24.2052 33.5069L24.2125 33.5055H35.7439C35.7533 33.5072 35.7596 33.5161 35.7582 33.5257C35.7577 33.5292 35.7559 33.5328 35.7534 33.5352L35.7486 33.5388Z" fill="#6C6E6F"/>
<defs>
<filter id="filter0_f_8620_57990" x="0.464844" y="0" width="59.0703" height="63" filterUnits="userSpaceOnUse" color-interpolation-filters="sRGB">
<feFlood flood-opacity="0" result="BackgroundImageFix"/>
<feBlend mode="normal" in="SourceGraphic" in2="BackgroundImageFix" result="shape"/>
<feGaussianBlur stdDeviation="6" result="effect1_foregroundBlur_8620_57990"/>
</filter>
</defs>
</svg>
