<svg width="60" height="63" viewBox="0 0 60 63" fill="none" xmlns="http://www.w3.org/2000/svg">
<g filter="url(#filter0_f_8620_58049)">
<rect x="12.4648" y="12" width="35.0703" height="39" rx="8" fill="#CECECE" fill-opacity="0.6"/>
</g>
<path d="M10.4007 25.4545C10.4007 22.3931 10.4011 20.1211 10.548 18.3221C10.6946 16.5278 10.9852 15.2393 11.5461 14.1384C12.5536 12.1611 14.1611 10.5536 16.1384 9.54608C17.2393 8.98515 18.5278 8.69464 20.3221 8.54804C22.1211 8.40105 24.3931 8.40074 27.4545 8.40074H32.5455C35.6069 8.40074 37.8789 8.40105 39.6779 8.54804C41.4722 8.69464 42.7607 8.98515 43.8616 9.54608C45.8389 10.5536 47.4464 12.1611 48.4539 14.1384C49.0148 15.2393 49.3054 16.5278 49.452 18.3221C49.5989 20.1211 49.5993 22.3931 49.5993 25.4545V30.5455C49.5993 33.6069 49.5989 35.8789 49.452 37.6779C49.3054 39.4722 49.0148 40.7607 48.4539 41.8616C47.4464 43.8389 45.8389 45.4464 43.8616 46.4539C42.7607 47.0148 41.4722 47.3054 39.6779 47.452C37.8789 47.5989 35.6069 47.5993 32.5455 47.5993H27.4545C24.3931 47.5993 22.1211 47.5989 20.3221 47.452C18.5278 47.3054 17.2393 47.0148 16.1384 46.4539C14.1611 45.4464 12.5536 43.8389 11.5461 41.8616C10.9852 40.7607 10.6946 39.4722 10.548 37.6779C10.4011 35.8789 10.4007 33.6069 10.4007 30.5455V25.4545Z" fill="#FEFEFE" stroke="#EBECEC" stroke-width="0.801477"/>
<path fill-rule="evenodd" clip-rule="evenodd" d="M36.6777 19.162L30.1051 15.4918L23.6343 19.1643V25.8266L17.5781 29.2887V36.6569L24.0985 40.4918L30.2997 36.9033L35.8688 40.1812L42.4227 36.3858V29.0854L36.6777 25.8518V19.162ZM35.376 32.4615L29.8253 35.5758L24.6001 32.6936V26.4448L30.109 23.3784L35.376 26.2629V32.4615ZM35.376 25.1191L35.6861 25.2937V20.2932L31.1349 22.8102L35.376 25.1329V25.1191ZM30.6027 21.9718L35.1617 19.4506L30.6027 16.9049V21.9718ZM29.6113 21.9651V16.9117L25.1377 19.4506L29.6113 21.9651ZM29.0919 22.8102L24.6259 20.2999V25.2961L29.0919 22.8102ZM23.6009 27.0024V32.1316L19.0931 29.5793L23.6009 27.0024ZM23.0776 32.9892L18.5773 30.4414V35.5125L23.0776 32.9892ZM23.6009 39.0342L19.0858 36.3786L23.6009 33.8471V39.0342ZM24.6001 33.8404V39.0414L29.2015 36.3786L24.6001 33.8404ZM35.376 33.602L30.9095 36.108L35.376 38.7369V33.602ZM36.3657 38.7439L40.9174 36.108L36.3657 33.5955V38.7439ZM36.8962 32.752L41.433 35.2564V30.223L36.8962 32.752ZM40.91 29.3755L36.3657 31.9087V26.8178L40.91 29.3755ZM29.3792 29.9838V34.1248L25.6525 32.0546V27.9136L29.3792 29.9838ZM30.4666 34.1248L34.3485 32.0546V27.9136L30.4666 29.9838V34.1248ZM29.9998 24.808L33.8821 26.9043L29.9998 29.0006L26.1181 26.9043L29.9998 24.808Z" fill="#6C6E6F"/>
<defs>
<filter id="filter0_f_8620_58049" x="0.464844" y="0" width="59.0703" height="63" filterUnits="userSpaceOnUse" color-interpolation-filters="sRGB">
<feFlood flood-opacity="0" result="BackgroundImageFix"/>
<feBlend mode="normal" in="SourceGraphic" in2="BackgroundImageFix" result="shape"/>
<feGaussianBlur stdDeviation="6" result="effect1_foregroundBlur_8620_58049"/>
</filter>
</defs>
</svg>
