<svg width="60" height="63" viewBox="0 0 60 63" fill="none" xmlns="http://www.w3.org/2000/svg">
<g filter="url(#filter0_f_8925_65092)">
<rect x="12.4648" y="12" width="35.0703" height="39" rx="8" fill="#CECECE" fill-opacity="0.6"/>
</g>
<path d="M10.4007 25.4545C10.4007 22.3931 10.4011 20.1211 10.548 18.3221C10.6946 16.5278 10.9852 15.2393 11.5461 14.1384C12.5536 12.1611 14.1611 10.5536 16.1384 9.54608C17.2393 8.98515 18.5278 8.69464 20.3221 8.54804C22.1211 8.40105 24.3931 8.40074 27.4545 8.40074H32.5455C35.6069 8.40074 37.8789 8.40105 39.6779 8.54804C41.4722 8.69464 42.7607 8.98515 43.8616 9.54608C45.8389 10.5536 47.4464 12.1611 48.4539 14.1384C49.0148 15.2393 49.3054 16.5278 49.452 18.3221C49.5989 20.1211 49.5993 22.3931 49.5993 25.4545V30.5455C49.5993 33.6069 49.5989 35.8789 49.452 37.6779C49.3054 39.4722 49.0148 40.7607 48.4539 41.8616C47.4464 43.8389 45.8389 45.4464 43.8616 46.4539C42.7607 47.0148 41.4722 47.3054 39.6779 47.452C37.8789 47.5989 35.6069 47.5993 32.5455 47.5993H27.4545C24.3931 47.5993 22.1211 47.5989 20.3221 47.452C18.5278 47.3054 17.2393 47.0148 16.1384 46.4539C14.1611 45.4464 12.5536 43.8389 11.5461 41.8616C10.9852 40.7607 10.6946 39.4722 10.548 37.6779C10.4011 35.8789 10.4007 33.6069 10.4007 30.5455V25.4545Z" fill="#FEFEFE" stroke="#EBECEC" stroke-width="0.801477"/>
<path d="M35.4544 26.0093L39.2118 23.3596C39.543 23.1261 39.9999 23.363 39.9999 23.7683V32.2317C39.9999 32.637 39.543 32.8739 39.2118 32.6404L35.4544 29.9907M35.4544 26.0093C35.4477 26.014 35.4386 26.0093 35.4386 26.0012V25C35.4386 23.3431 34.0955 22 32.4386 22H23C21.3431 22 20 23.3431 20 25V31C20 32.6569 21.3431 34 23 34H32.4386C34.0955 34 35.4386 32.6569 35.4386 31V29.9988C35.4386 29.9907 35.4477 29.986 35.4544 29.9907M35.4544 26.0093V29.9907" stroke="#6C6E6F" stroke-width="1.5"/>
<defs>
<filter id="filter0_f_8925_65092" x="0.464844" y="0" width="59.0703" height="63" filterUnits="userSpaceOnUse" color-interpolation-filters="sRGB">
<feFlood flood-opacity="0" result="BackgroundImageFix"/>
<feBlend mode="normal" in="SourceGraphic" in2="BackgroundImageFix" result="shape"/>
<feGaussianBlur stdDeviation="6" result="effect1_foregroundBlur_8925_65092"/>
</filter>
</defs>
</svg>
