<svg width="60" height="63" viewBox="0 0 60 63" fill="none" xmlns="http://www.w3.org/2000/svg">
<g filter="url(#filter0_f_8925_65086)">
<rect x="12.4648" y="12" width="35.0703" height="39" rx="8" fill="#CECECE" fill-opacity="0.6"/>
</g>
<path d="M10.4007 25.4545C10.4007 22.3931 10.4011 20.1211 10.548 18.3221C10.6946 16.5278 10.9852 15.2393 11.5461 14.1384C12.5536 12.1611 14.1611 10.5536 16.1384 9.54608C17.2393 8.98515 18.5278 8.69464 20.3221 8.54804C22.1211 8.40105 24.3931 8.40074 27.4545 8.40074H32.5455C35.6069 8.40074 37.8789 8.40105 39.6779 8.54804C41.4722 8.69464 42.7607 8.98515 43.8616 9.54608C45.8389 10.5536 47.4464 12.1611 48.4539 14.1384C49.0148 15.2393 49.3054 16.5278 49.452 18.3221C49.5989 20.1211 49.5993 22.3931 49.5993 25.4545V30.5455C49.5993 33.6069 49.5989 35.8789 49.452 37.6779C49.3054 39.4722 49.0148 40.7607 48.4539 41.8616C47.4464 43.8389 45.8389 45.4464 43.8616 46.4539C42.7607 47.0148 41.4722 47.3054 39.6779 47.452C37.8789 47.5989 35.6069 47.5993 32.5455 47.5993H27.4545C24.3931 47.5993 22.1211 47.5989 20.3221 47.452C18.5278 47.3054 17.2393 47.0148 16.1384 46.4539C14.1611 45.4464 12.5536 43.8389 11.5461 41.8616C10.9852 40.7607 10.6946 39.4722 10.548 37.6779C10.4011 35.8789 10.4007 33.6069 10.4007 30.5455V25.4545Z" fill="#FEFEFE" stroke="#EBECEC" stroke-width="0.801477"/>
<path d="M32.7699 16.75L32.7693 16.75L21.6923 16.75C21.4016 16.75 21.1228 16.8655 20.9172 17.0711C20.7117 17.2766 20.5962 17.5554 20.5962 17.8462V38.1538C20.5962 38.4446 20.7117 38.7234 20.9172 38.9289C21.1228 39.1345 21.4016 39.25 21.6923 39.25H38.3077C38.5984 39.25 38.8773 39.1345 39.0828 38.9289C39.2884 38.7234 39.4039 38.4446 39.4039 38.1538V23.3846V23.384C39.4039 23.3613 39.3994 23.3388 39.3908 23.3178C39.3821 23.2969 39.3695 23.2779 39.3536 23.2619L32.7699 16.75ZM32.7699 16.75C32.7926 16.75 32.8151 16.7544 32.8361 16.7631C32.8571 16.7718 32.8762 16.7846 32.8923 16.8006L39.3533 23.2616L32.7699 16.75Z" stroke="#6C6E6F" stroke-width="1.5" stroke-linejoin="round"/>
<path d="M26.8882 30.1729C26.8882 31.3766 27.8119 32.3469 28.9596 32.3469H31.3015C32.2999 32.3469 33.1117 31.4979 33.1117 30.4528C33.1117 29.3145 32.6171 28.9133 31.88 28.6521L28.1198 27.3458C27.3827 27.0845 26.8882 26.6833 26.8882 25.545C26.8882 24.5 27.6999 23.6509 28.6983 23.6509H31.0403C32.1879 23.6509 33.1117 24.6213 33.1117 25.8249" stroke="#6C6E6F" stroke-width="1.5" stroke-linecap="round" stroke-linejoin="round"/>
<path d="M29.9927 22.4017V33.5983" stroke="#6C6E6F" stroke-width="1.5" stroke-linecap="round" stroke-linejoin="round"/>
<defs>
<filter id="filter0_f_8925_65086" x="0.464844" y="0" width="59.0703" height="63" filterUnits="userSpaceOnUse" color-interpolation-filters="sRGB">
<feFlood flood-opacity="0" result="BackgroundImageFix"/>
<feBlend mode="normal" in="SourceGraphic" in2="BackgroundImageFix" result="shape"/>
<feGaussianBlur stdDeviation="6" result="effect1_foregroundBlur_8925_65086"/>
</filter>
</defs>
</svg>
