<svg width="20" height="20" viewBox="0 0 20 20" fill="none" xmlns="http://www.w3.org/2000/svg">
<path fill-rule="evenodd" clip-rule="evenodd" d="M1.09239 1.54601C0.983398 1.75992 0.983398 2.03995 0.983398 2.6V17.4C0.983398 17.9601 0.983398 18.2401 1.09239 18.454C1.18827 18.6422 1.34125 18.7951 1.52941 18.891C1.74332 19 2.02335 19 2.5834 19H17.3834C17.9435 19 18.2235 19 18.4374 18.891C18.6256 18.7951 18.7785 18.6422 18.8744 18.454C18.9834 18.2401 18.9834 17.9601 18.9834 17.4V2.6C18.9834 2.03995 18.9834 1.75992 18.8744 1.54601C18.7785 1.35785 18.6256 1.20487 18.4374 1.10899C18.2235 1 17.9435 1 17.3834 1H2.5834C2.02335 1 1.74332 1 1.52941 1.10899C1.34125 1.20487 1.18827 1.35785 1.09239 1.54601ZM15.4026 4.5625H13.5625L10.5304 8.07742L7.90878 4.5625H4.11182L8.6486 10.5787L4.34878 15.5625H6.18997L9.50856 11.717L12.4089 15.5625H16.1118L11.3826 9.22199L15.4026 4.5625ZM13.9363 14.4456H12.9167L6.26061 5.62076H7.35476L13.9363 14.4456Z" fill="#0A0D0F"/>
</svg>
