<svg width="60" height="63" viewBox="0 0 60 63" fill="none" xmlns="http://www.w3.org/2000/svg">
<g filter="url(#filter0_f_8894_85596)">
<rect x="12.4648" y="12" width="35.0703" height="39" rx="8" fill="#CECECE" fill-opacity="0.6"/>
</g>
<path d="M10.4007 25.4545C10.4007 22.3931 10.4011 20.1211 10.548 18.3221C10.6946 16.5278 10.9852 15.2393 11.5461 14.1384C12.5536 12.1611 14.1611 10.5536 16.1384 9.54608C17.2393 8.98515 18.5278 8.69464 20.3221 8.54804C22.1211 8.40105 24.3931 8.40074 27.4545 8.40074H32.5455C35.6069 8.40074 37.8789 8.40105 39.6779 8.54804C41.4722 8.69464 42.7607 8.98515 43.8616 9.54608C45.8389 10.5536 47.4464 12.1611 48.4539 14.1384C49.0148 15.2393 49.3054 16.5278 49.452 18.3221C49.5989 20.1211 49.5993 22.3931 49.5993 25.4545V30.5455C49.5993 33.6069 49.5989 35.8789 49.452 37.6779C49.3054 39.4722 49.0148 40.7607 48.4539 41.8616C47.4464 43.8389 45.8389 45.4464 43.8616 46.4539C42.7607 47.0148 41.4722 47.3054 39.6779 47.452C37.8789 47.5989 35.6069 47.5993 32.5455 47.5993H27.4545C24.3931 47.5993 22.1211 47.5989 20.3221 47.452C18.5278 47.3054 17.2393 47.0148 16.1384 46.4539C14.1611 45.4464 12.5536 43.8389 11.5461 41.8616C10.9852 40.7607 10.6946 39.4722 10.548 37.6779C10.4011 35.8789 10.4007 33.6069 10.4007 30.5455V25.4545Z" fill="#FEFEFE" stroke="#EBECEC" stroke-width="0.801477"/>
<path d="M30.0959 41C29.9357 41 29.7754 40.9633 29.6308 40.8886L24.9706 38.4817C23.6482 37.798 22.6137 37.0307 21.806 36.1368C20.038 34.1819 19.0704 31.4963 19.0548 28.8931L19 20.3252C18.9935 19.3364 19.6332 18.4488 20.5895 18.1146L29.1466 15.1379C29.6547 14.9568 30.2214 14.9543 30.7386 15.129L39.3282 18.0044C40.2897 18.3247 40.9399 19.206 40.9451 20.1935L40.9998 28.7677C41.0167 31.3671 40.0509 34.0629 38.3103 36.0393C37.5117 36.9459 36.4864 37.7245 35.177 38.4209L30.5584 40.8822C30.4151 40.9595 30.2562 40.9987 30.0959 41Z" fill="#6C6E6F"/>
<path d="M30.0513 38.2442L30.0513 38.2442L26.2387 36.2077C25.2199 35.663 24.4504 35.0666 23.8606 34.3915L23.8604 34.3913C22.5426 32.8843 21.8066 30.7899 21.7948 28.7513L21.7948 28.7511L21.75 21.5013L21.75 21.5012C21.7467 20.9811 22.0726 20.5155 22.555 20.3409C22.5551 20.3408 22.5553 20.3408 22.5555 20.3407L29.5556 17.8224L29.5556 17.8224L29.5611 17.8204C29.8105 17.7285 30.095 17.7257 30.357 17.8172L30.359 17.8179L37.3868 20.2509L37.3879 20.2513C37.8709 20.4177 38.2024 20.8789 38.2051 21.3984L38.2051 21.3992L38.2498 28.6543L38.2498 28.6544C38.2626 30.6835 37.5299 32.7878 36.2283 34.3162C35.6451 35.0009 34.8827 35.6059 33.8743 36.1605L33.8737 36.1608L30.0949 38.2435L30.0918 38.2452C30.0874 38.2477 30.082 38.2495 30.0751 38.2499C30.0638 38.2495 30.0559 38.2466 30.0513 38.2442Z" stroke="white" stroke-width="1.5"/>
<path d="M27 28L28.9976 30L33 26" stroke="white" stroke-width="1.5" stroke-linecap="round" stroke-linejoin="round"/>
<defs>
<filter id="filter0_f_8894_85596" x="0.464844" y="0" width="59.0703" height="63" filterUnits="userSpaceOnUse" color-interpolation-filters="sRGB">
<feFlood flood-opacity="0" result="BackgroundImageFix"/>
<feBlend mode="normal" in="SourceGraphic" in2="BackgroundImageFix" result="shape"/>
<feGaussianBlur stdDeviation="6" result="effect1_foregroundBlur_8894_85596"/>
</filter>
</defs>
</svg>
