<svg width="66" height="72" viewBox="0 0 66 72" fill="none" xmlns="http://www.w3.org/2000/svg">
<g filter="url(#filter0_f_9494_171497)">
<rect x="6.69727" y="6.75" width="52.6055" height="58.5" rx="26.3027" fill="#0A0D0F"/>
</g>
<rect x="3.75" y="1.5" width="58.5" height="58.5" rx="29.25" fill="#FF5500" stroke="url(#paint0_linear_9494_171497)" stroke-width="1.5"/>
<path fill-rule="evenodd" clip-rule="evenodd" d="M40.0828 19.928C41.647 20.8538 43.4666 21.1411 45.2223 20.8218C48.7019 20.3749 51.2236 24.1736 49.436 27.2063C47.7122 30.2708 43.1474 29.9516 41.8066 26.7274C38.6464 18.5554 26.9628 18.5554 23.7706 26.7274C22.4618 29.9516 17.8651 30.2708 16.1413 27.2063C14.3855 24.1736 16.9074 20.3749 20.355 20.8218C22.1107 21.1411 23.9303 20.8219 25.4945 19.928C27.0905 19.0342 28.2397 17.6296 28.8463 15.9378C30.2509 12.4582 35.3264 12.4582 36.7311 15.9378C37.3376 17.5977 38.5187 19.0342 40.0828 19.928ZM32.8046 24.3333C36.2842 24.3333 38.3272 28.3874 36.1884 31.1965C35.0392 32.5373 34.4008 34.261 34.4008 36.0806C34.4008 37.8682 35.0392 39.592 36.1884 40.9647C38.3591 43.7738 36.2842 47.8599 32.8046 47.8279C29.3251 47.8279 27.2821 43.7738 29.4209 40.9647C30.5701 39.624 31.2085 37.9002 31.2085 36.0806C31.2085 34.293 30.5701 32.5692 29.4209 31.1965C27.2502 28.3874 29.3251 24.3014 32.8046 24.3333Z" fill="#0A0D0F"/>
<defs>
<filter id="filter0_f_9494_171497" x="0.697266" y="0.75" width="64.6055" height="70.5" filterUnits="userSpaceOnUse" color-interpolation-filters="sRGB">
<feFlood flood-opacity="0" result="BackgroundImageFix"/>
<feBlend mode="normal" in="SourceGraphic" in2="BackgroundImageFix" result="shape"/>
<feGaussianBlur stdDeviation="3" result="effect1_foregroundBlur_9494_171497"/>
</filter>
<linearGradient id="paint0_linear_9494_171497" x1="33" y1="0.75" x2="33" y2="60.75" gradientUnits="userSpaceOnUse">
<stop stop-color="#3B3D3F" stop-opacity="0.2"/>
<stop offset="1" stop-color="#3B3D3F" stop-opacity="0.4"/>
</linearGradient>
</defs>
</svg>
