<svg width="66" height="72" viewBox="0 0 66 72" fill="none" xmlns="http://www.w3.org/2000/svg">
<g filter="url(#filter0_f_9494_171898)">
<rect x="6.69531" y="6.75" width="52.6055" height="58.5" rx="26.3027" fill="#0A0D0F"/>
</g>
<rect x="3.5" y="1.25" width="59" height="59" rx="29.5" fill="#1C76FD" stroke="url(#paint0_linear_9494_171898)"/>
<path d="M35.0942 12.917H30.8404L32.9673 9.37212L35.0942 12.917ZM35.0942 49.1923L32.9673 52.7372L30.8404 49.1923H35.0942ZM51.0791 32.9834V28.7296L54.6239 30.8565L51.0791 32.9834ZM14.9209 32.9834L11.376 30.8565L14.9209 28.7296V32.9834Z" fill="#0A0D0F" stroke="#0A0D0F" stroke-width="1.15465"/>
<path d="M30.8316 36.8866C30.8319 36.8994 30.8228 36.9105 30.8103 36.9127L24.3033 38.0448C24.2892 38.0469 24.2759 38.0374 24.2737 38.023C24.2729 38.0177 24.2737 38.0129 24.2756 38.0087L30.7824 23.2577C30.7888 23.245 30.8042 23.2391 30.8173 23.2455C30.8226 23.2481 30.8268 23.2524 30.8292 23.2577L30.8319 23.2689L30.8316 36.8866Z" fill="#0A0D0F"/>
<path d="M31.9284 36.9153C31.9284 36.9286 31.9382 36.9398 31.9513 36.9414L41.6979 38.0464C41.7123 38.048 41.725 38.0374 41.7266 38.0225L41.7264 38.0161L41.7245 38.0092L31.9779 15.9134C31.9715 15.9001 31.9561 15.8947 31.943 15.9011C31.9372 15.9038 31.9327 15.9086 31.9303 15.9144L31.9284 15.924V36.9153Z" fill="#0A0D0F"/>
<path d="M41.6232 39.0579L30.8414 42.341L30.8337 42.3426L30.8228 42.341L24.3078 39.0579C24.2948 39.052 24.2889 39.0366 24.2945 39.0233C24.2971 39.0174 24.3022 39.0121 24.308 39.01L24.3189 39.0079H41.616C41.6301 39.0105 41.6397 39.0238 41.6376 39.0382C41.6368 39.0435 41.6341 39.0488 41.6304 39.0525L41.6232 39.0579Z" fill="#0A0D0F"/>
<defs>
<filter id="filter0_f_9494_171898" x="0.695312" y="0.75" width="64.6055" height="70.5" filterUnits="userSpaceOnUse" color-interpolation-filters="sRGB">
<feFlood flood-opacity="0" result="BackgroundImageFix"/>
<feBlend mode="normal" in="SourceGraphic" in2="BackgroundImageFix" result="shape"/>
<feGaussianBlur stdDeviation="3" result="effect1_foregroundBlur_9494_171898"/>
</filter>
<linearGradient id="paint0_linear_9494_171898" x1="33" y1="0.75" x2="33" y2="60.75" gradientUnits="userSpaceOnUse">
<stop stop-color="#3B3D3F" stop-opacity="0.2"/>
<stop offset="1" stop-color="#3B3D3F" stop-opacity="0.4"/>
</linearGradient>
</defs>
</svg>
