<svg width="66" height="72" viewBox="0 0 66 72" fill="none" xmlns="http://www.w3.org/2000/svg">
<g filter="url(#filter0_f_9494_172136)">
<rect x="6.69727" y="6.75" width="52.6055" height="58.5" rx="26.3027" fill="#0A0D0F"/>
</g>
<path d="M33 60.1489C16.7634 60.1489 3.60111 46.9866 3.60111 30.75C3.60111 14.5134 16.7634 1.35111 33 1.35111C49.2366 1.35111 62.3989 14.5134 62.3989 30.75C62.3989 46.9866 49.2366 60.1489 33 60.1489Z" fill="#6DC28B" stroke="url(#paint0_linear_9494_172136)" stroke-width="1.20222"/>
<path d="M25.1196 37.7628C25.12 37.7654 25.1203 37.7679 25.1206 37.7705L24.6362 37.8548L24.5902 37.8373L24.5897 37.8371L25.1196 37.7628ZM25.484 37.1357L30.3157 26.1835L30.3154 36.2951L25.484 37.1357ZM26.8681 39.3536H35.6873C35.728 39.541 35.7777 39.7251 35.8361 39.9054L30.9286 41.3996L26.8681 39.3536ZM42.3343 36.2414V35.6783H41.7712H40.9189H40.3558V36.2414V37.1308H39.4673H38.9042V37.6938V38.5459V39.109H39.4673H40.3558V39.9975V40.5606H40.9189H41.7712H42.3343V39.9975V39.109H43.2232H43.7863V38.5459V37.6938V37.1308H43.2232H42.3343V36.2414ZM32.498 36.2948V19.1079L38.6262 33.0011C37.2136 33.7549 36.1499 35.0762 35.7393 36.6621L32.498 36.2948ZM41.3513 42.0042C39.2052 42.0042 37.4652 40.264 37.4652 38.1179C37.4652 35.9722 39.2051 34.232 41.3513 34.232C43.4974 34.232 45.2371 35.9721 45.2371 38.1179C45.2371 40.2641 43.4973 42.0042 41.3513 42.0042ZM30.8929 13.3643L32.9674 9.90694L35.0418 13.3643H30.8929ZM35.0418 48.7449L32.9674 52.2023L30.8929 48.7449H35.0418ZM50.6324 32.9358V28.787L54.0898 30.8614L50.6324 32.9358ZM11.9086 30.8614L15.3661 28.787V32.9358L11.9086 30.8614Z" fill="#0A0D0F" stroke="#0A0D0F" stroke-width="1.12617"/>
<path d="M34.6438 38.12C34.6438 41.8245 37.6471 44.8282 41.3517 44.8282C45.0564 44.8282 48.0593 41.8244 48.0593 38.12C48.0593 34.416 45.0563 31.4124 41.3517 31.4124C37.6471 31.4124 34.6438 34.416 34.6438 38.12Z" fill="#0A0D0F" stroke="#6DC28B" stroke-width="1.70654"/>
<rect x="40.5972" y="34.9531" width="1.5048" height="6.32153" fill="#6DC28B"/>
<rect x="44.5103" y="37.3594" width="1.5048" height="6.32153" transform="rotate(90 44.5103 37.3594)" fill="#6DC28B"/>
<defs>
<filter id="filter0_f_9494_172136" x="0.697266" y="0.75" width="64.6055" height="70.5" filterUnits="userSpaceOnUse" color-interpolation-filters="sRGB">
<feFlood flood-opacity="0" result="BackgroundImageFix"/>
<feBlend mode="normal" in="SourceGraphic" in2="BackgroundImageFix" result="shape"/>
<feGaussianBlur stdDeviation="3" result="effect1_foregroundBlur_9494_172136"/>
</filter>
<linearGradient id="paint0_linear_9494_172136" x1="33" y1="0.75" x2="33" y2="60.75" gradientUnits="userSpaceOnUse">
<stop stop-color="#3B3D3F" stop-opacity="0.2"/>
<stop offset="1" stop-color="#3B3D3F" stop-opacity="0.4"/>
</linearGradient>
</defs>
</svg>
