<svg width="84" height="37" viewBox="0 0 84 37" fill="none" xmlns="http://www.w3.org/2000/svg">
<path d="M41.36 1.58545L31.919 17.4725C30.9363 19.0869 30.4215 20.7482 30.2461 22.3626H26.5609C26.7949 20.3504 27.6021 18.4435 29.2048 15.6826L35.8264 4.58035C37.1484 2.39267 38.4703 1.58545 40.8335 1.58545H41.3482H41.36ZM40.6112 18.268C39.921 18.8997 38.599 19.8824 37.4408 19.9409C36.6336 19.8824 36.6336 19.1922 37.1484 18.151C39.1606 14.2904 41.2313 12.2782 43.8284 12.2782H44.2847L40.5995 18.268H40.6112ZM44.1209 10.1607C39.3477 10.1607 36.3528 12.9801 33.7557 19.0869C33.124 20.6429 32.7145 22.5381 34.9607 22.4796C36.2242 22.4796 38.3533 21.7893 39.7923 20.7482C39.6753 21.2629 39.6168 21.9531 39.6753 22.3626H43.0095C43.1265 21.0406 43.6412 19.4262 44.7409 17.414L48.9993 10.3947C47.3849 10.2192 45.7821 10.1607 44.1092 10.1607H44.1209ZM75.2632 18.268C74.573 18.8997 73.251 19.8824 72.0928 19.9409C71.2856 19.8824 71.2856 19.1922 71.8003 18.151C73.8125 14.2904 75.8832 12.2782 78.4804 12.2782H78.9366L75.2515 18.268H75.2632ZM78.7143 10.1607C73.9412 10.1607 70.9463 12.9801 68.3492 19.0869C67.7174 20.6429 67.308 22.5381 69.5542 22.4796C70.8176 22.4796 72.9468 21.7893 74.3858 20.7482C74.2688 21.2629 74.2103 21.9531 74.2688 22.3626H77.603C77.72 21.0406 78.2347 19.4262 79.3344 17.414L83.5928 10.3947C81.9783 10.2192 80.3756 10.1607 78.7027 10.1607H78.7143Z" fill="#D2E4FF"/>
<path d="M67.7759 25.6968H66.6879C65.249 25.6968 63.9855 24.7141 63.6345 23.3336L61.9616 17.0046L58.8497 22.2456H55.2816L65.2958 5.32911C66.5592 3.14143 67.9397 2.33421 70.3029 2.33421H70.6538L63.9738 13.5534L68.9809 10.1022H73.0053L64.6055 15.9751L67.7759 25.6968ZM34.7384 0.602783C31.3457 0.602783 29.6143 1.52699 26.2801 3.87846L15.1194 11.9975H7.92465C5.85395 11.9975 4.18102 12.0559 2.85905 13.3194L1.02233 15.0509C1.02233 15.0509 6.42719 14.8169 11.4343 14.6531L0.729858 22.3626H5.386L16.3244 14.4191C18.4536 14.3606 19.9511 14.3021 19.9511 14.3021C22.478 14.2436 23.917 11.9975 23.917 11.9975H19.7171L28.5848 5.55139L22.0217 16.2558C20.5828 18.736 19.9511 20.4557 19.7171 22.3509H23.5192C23.6947 20.7365 24.2094 19.1337 25.1921 17.4608L34.1651 2.498C34.7969 1.4568 35.3116 0.602783 35.3116 0.602783H34.7384ZM52.6376 13.5534C52.5791 13.9044 52.6961 14.0681 53.3863 14.4776L54.4275 15.1678C55.5155 15.9166 55.9835 17.0046 55.8665 17.9288C55.5155 20.4557 53.6203 22.4796 49.7129 22.4796C47.9815 22.4796 47.2328 22.4211 45.1621 22.0819L46.6595 19.4964C48.0985 19.7304 48.9057 19.8942 49.9352 19.8474C51.4326 19.8474 52.0059 19.1571 52.0644 18.6424C52.1229 18.2914 51.9474 17.9522 51.2572 17.4374L50.4499 16.8642C49.128 15.94 48.777 15.1912 48.9525 14.0448C49.3035 11.7986 51.8304 10.1256 55.3986 10.1256C56.4865 10.1256 57.7617 10.1841 59.0837 10.3596L57.7032 12.7813C56.8375 12.7228 55.3985 12.6643 54.369 12.6643C53.3863 12.7228 52.6961 13.062 52.6376 13.5885V13.5534ZM81.5338 20.1164C82.1655 20.1164 82.7387 20.6312 82.7387 21.3214C82.7387 21.9532 82.224 22.5264 81.5338 22.5264C80.902 22.5264 80.3873 22.0117 80.3873 21.3214C80.3873 20.6897 80.902 20.1164 81.5338 20.1164ZM81.5338 22.2456C82.0485 22.2456 82.458 21.8479 82.458 21.2629C82.458 20.7482 82.0602 20.2802 81.5338 20.2802C81.0073 20.2802 80.6096 20.678 80.6096 21.2629C80.6096 21.8479 81.0073 22.2456 81.5338 22.2456ZM81.4168 21.9532H81.1828V20.6897H81.639C81.873 20.6897 82.0953 20.8652 82.0953 21.0875C82.0953 21.2629 81.9783 21.4384 81.8028 21.4852L82.0953 22H81.8028L81.5104 21.5437H81.3934V21.9415L81.4168 21.9532ZM81.5922 21.2629C81.7677 21.2629 81.8262 21.2044 81.8262 21.0875C81.8262 20.9705 81.7677 20.912 81.5922 20.912H81.4168V21.3097H81.5922V21.2512V21.2629ZM11.1418 34.7283H8.49789L7.98314 36.2258H6.66117L9.14133 29.7212H10.6388L13.1189 36.2258H11.7385L11.1652 34.7283H11.1418ZM8.95415 33.5818H10.7441L9.81986 31.1017L8.95415 33.5818ZM17.5879 36.2258V29.7212H18.8514V36.2258H17.5879ZM26.2801 33.7573H25.6484V36.2842H24.3849V29.7212H26.9119C28.1753 29.7212 28.9826 30.5869 28.9826 31.7334C28.9826 32.6576 28.4678 33.3478 27.6021 33.5701L28.9826 36.2141H27.5436L26.2801 33.7339V33.7573ZM26.6896 32.6576C27.3213 32.6576 27.7308 32.3066 27.7308 31.7334C27.7308 31.1602 27.333 30.8092 26.6896 30.8092H25.6484V32.5991H26.6896V32.6576ZM34.1067 36.2258V29.7212H35.3701V35.0208H38.248V36.2258H34.1067ZM43.2084 36.2258V29.7212H44.4718V36.2258H43.2084ZM54.1936 36.2258L51.2572 31.6164V36.2258H49.9937V29.7212H51.5496L54.2521 34.0381V29.7212H55.5155V36.2258H54.1936ZM61.0491 36.2258V29.7212H65.132V30.9262H62.3126V32.4236H64.8395V33.5701H62.3126V35.0676H65.132V36.2725H61.0491V36.2141V36.2258ZM73.5902 31.6281C73.5318 31.2771 73.2393 30.7039 72.3853 30.7039C71.7535 30.7039 71.3441 31.1017 71.3441 31.5111C71.3441 31.8621 71.578 32.1429 72.0343 32.2598L72.9585 32.4353C74.1635 32.6693 74.7952 33.418 74.7952 34.3305C74.7952 35.3132 73.9295 36.3427 72.4321 36.3427C70.7006 36.3427 69.9519 35.2547 69.8466 34.3305L70.9931 34.0381C71.0516 34.6698 71.5079 35.2431 72.4321 35.2431C73.1223 35.2431 73.4733 34.8921 73.4733 34.4358C73.4733 34.0381 73.1808 33.7456 72.666 33.6871L71.7418 33.5116C70.7006 33.2776 70.0104 32.6459 70.0104 31.6749C70.0104 30.5284 71.0516 29.6627 72.2566 29.6627C73.8125 29.6627 74.4443 30.6454 74.6197 31.3356L73.5785 31.6281H73.5902Z" fill="#D2E4FF"/>
</svg>
