<svg width="100" height="31" viewBox="0 0 100 31" fill="none" xmlns="http://www.w3.org/2000/svg">
<path d="M36.0148 1.21484H1.31938V30.2486H36.0148V1.21484Z" fill="#0A0D0F"/>
<path d="M50.9176 14.5836H52.2979C53.2572 14.5836 54.2164 14.7941 54.2164 15.9405C54.2164 16.9816 53.2104 17.3208 52.2511 17.3208H50.8942V14.5836H50.9176ZM46.0748 20.1166H53.8654C56.6612 20.1166 59.3751 19.7657 59.3751 16.3967C59.3751 15.0632 58.2287 13.601 56.3687 13.3436V13.3202C58.1468 12.864 59.1294 11.8814 59.1294 10.0449C59.1294 7.49475 56.8484 6.74609 54.5322 6.74609H46.0748V20.1166ZM50.9176 9.24941H52.3213C53.2572 9.24941 54.0994 9.54185 54.0994 10.5479C54.0994 11.5539 53.1168 11.8229 52.2161 11.8229H50.941L50.9176 9.24941Z" fill="#D2E4FF"/>
<path d="M67.189 16.0241C67.189 16.878 66.686 17.8021 65.7034 17.8021C64.9548 17.8021 64.557 17.5331 64.557 16.8429C64.557 15.8018 65.7034 15.6965 66.7094 15.6965H67.189V16.0124V16.0241ZM61.2817 13.2634C62.2409 12.7838 63.4575 12.4095 64.6272 12.4095C65.797 12.4095 67.1539 12.5732 67.1773 13.8483C66.7211 13.7898 65.9491 13.7196 65.294 13.7196C62.896 13.7196 60.1353 14.3279 60.1353 17.4161C60.1353 19.5217 61.9484 20.3405 63.8084 20.3405C65.1653 20.3405 66.417 19.8141 67.0837 18.6678H67.1071V20.1066H71.5991V14.0121C71.5991 10.3741 68.2535 9.85938 65.4812 9.85938C63.5978 9.85938 62.7439 10.0231 61.3051 10.4443L61.2817 13.2634Z" fill="#D2E4FF"/>
<path d="M72.9795 10.1285H77.5533V11.8597H77.5767C78.1616 10.456 79.46 9.89453 80.852 9.89453C83.4255 9.89453 84.3614 11.2515 84.3614 13.1699V20.1066H79.5185V14.3397C79.5185 13.7548 79.5185 12.9827 78.6646 12.9827C77.8106 12.9827 77.7872 13.7782 77.7872 14.3397V20.1066H72.9444L72.9678 10.1402L72.9795 10.1285Z" fill="#D2E4FF"/>
<path d="M90.8536 14.0826H90.877L93.6494 10.1288H99.1239L95.7433 14.5388L99.2526 20.1186H93.6143L90.877 15.2524H90.8536V20.1186H86.0108V5.70703H90.8536V14.0826Z" fill="#D2E4FF"/>
<path d="M0.875046 30.6456H36.3776V0.816406H0.875046V30.6456ZM24.1652 24.1885H15.8949V10.1746H20.0476V21.7202H24.0365C26.7972 21.7202 27.9436 19.9071 27.9436 15.2865C27.9436 10.6659 26.61 9.27386 23.826 9.27386H14.7368V24.1885H10.6192V9.27386H4.60662V6.80564H25.1361C30.0843 6.80564 32.4472 9.20368 32.4472 15.2631C32.4472 23.2409 28.9379 24.2002 24.1769 24.2002" fill="#D2E4FF"/>
</svg>
