<svg width="375" height="694" viewBox="0 0 375 694" fill="none" xmlns="http://www.w3.org/2000/svg">
<g clip-path="url(#clip0_10817_91007)">
<mask id="mask0_10817_91007" style="mask-type:alpha" maskUnits="userSpaceOnUse" x="276" y="420" width="86" height="86">
<rect x="276.156" y="420.035" width="85.3561" height="85.3561" rx="19.1363" fill="#EEEFF1"/>
</mask>
<g mask="url(#mask0_10817_91007)">
<path d="M295.312 386.945L242.104 479.105" stroke="#CECFCF" stroke-width="0.25945"/>
<path d="M297.11 387.982L243.902 480.142" stroke="#CECFCF" stroke-width="0.25945"/>
<path d="M298.907 389.021L245.699 481.181" stroke="#CECFCF" stroke-width="0.25945"/>
<path d="M300.705 390.059L247.496 482.219" stroke="#CECFCF" stroke-width="0.25945"/>
<path d="M302.503 391.096L249.294 483.256" stroke="#CECFCF" stroke-width="0.25945"/>
<path d="M304.3 392.135L251.091 484.295" stroke="#CECFCF" stroke-width="0.25945"/>
<path d="M306.098 393.172L252.889 485.332" stroke="#CECFCF" stroke-width="0.25945"/>
<path d="M307.896 394.209L254.687 486.369" stroke="#CECFCF" stroke-width="0.25945"/>
<path d="M309.692 395.248L256.484 487.408" stroke="#CECFCF" stroke-width="0.25945"/>
<path d="M311.49 396.285L258.282 488.445" stroke="#CECFCF" stroke-width="0.25945"/>
<path d="M313.288 397.324L260.079 489.484" stroke="#CECFCF" stroke-width="0.25945"/>
<path d="M315.085 398.361L261.876 490.521" stroke="#CECFCF" stroke-width="0.25945"/>
<path d="M316.883 399.398L263.674 491.558" stroke="#CECFCF" stroke-width="0.25945"/>
<path d="M318.681 400.438L265.472 492.598" stroke="#CECFCF" stroke-width="0.25945"/>
<path d="M320.478 401.475L267.269 493.635" stroke="#CECFCF" stroke-width="0.25945"/>
<path d="M322.275 402.512L269.067 494.672" stroke="#CECFCF" stroke-width="0.25945"/>
<path d="M324.073 403.551L270.865 495.711" stroke="#CECFCF" stroke-width="0.25945"/>
<path d="M325.87 404.588L272.662 496.748" stroke="#CECFCF" stroke-width="0.25945"/>
<path d="M327.668 405.625L274.459 497.785" stroke="#CECFCF" stroke-width="0.25945"/>
<path d="M329.466 406.664L276.257 498.824" stroke="#CECFCF" stroke-width="0.25945"/>
<path d="M331.263 407.701L278.054 499.861" stroke="#CECFCF" stroke-width="0.25945"/>
<path d="M333.061 408.738L279.852 500.898" stroke="#CECFCF" stroke-width="0.25945"/>
<path d="M334.858 409.777L281.65 501.937" stroke="#CECFCF" stroke-width="0.25945"/>
<path d="M336.655 410.814L283.447 502.974" stroke="#CECFCF" stroke-width="0.25945"/>
<path d="M338.453 411.852L285.245 504.012" stroke="#CECFCF" stroke-width="0.25945"/>
<path d="M340.251 412.891L287.042 505.051" stroke="#CECFCF" stroke-width="0.25945"/>
<path d="M342.048 413.928L288.839 506.088" stroke="#CECFCF" stroke-width="0.25945"/>
<path d="M343.846 414.967L290.637 507.127" stroke="#CECFCF" stroke-width="0.25945"/>
<path d="M345.644 416.004L292.435 508.164" stroke="#CECFCF" stroke-width="0.25945"/>
<path d="M347.44 417.041L294.232 509.201" stroke="#CECFCF" stroke-width="0.25945"/>
<path d="M349.238 418.08L296.03 510.24" stroke="#CECFCF" stroke-width="0.25945"/>
<path d="M351.036 419.117L297.828 511.277" stroke="#CECFCF" stroke-width="0.25945"/>
<path d="M352.833 420.154L299.624 512.314" stroke="#CECFCF" stroke-width="0.25945"/>
<path d="M354.631 421.193L301.422 513.353" stroke="#CECFCF" stroke-width="0.25945"/>
<path d="M356.429 422.23L303.22 514.39" stroke="#CECFCF" stroke-width="0.25945"/>
<path d="M358.226 423.268L305.017 515.428" stroke="#CECFCF" stroke-width="0.25945"/>
<path d="M360.023 424.307L306.815 516.467" stroke="#CECFCF" stroke-width="0.25945"/>
<path d="M361.821 425.344L308.613 517.504" stroke="#CECFCF" stroke-width="0.25945"/>
<path d="M363.618 426.381L310.41 518.541" stroke="#CECFCF" stroke-width="0.25945"/>
<path d="M365.416 427.42L312.207 519.58" stroke="#CECFCF" stroke-width="0.25945"/>
<path d="M367.214 428.457L314.005 520.617" stroke="#CECFCF" stroke-width="0.25945"/>
<path d="M369.011 429.494L315.802 521.654" stroke="#CECFCF" stroke-width="0.25945"/>
<path d="M370.809 430.533L317.6 522.693" stroke="#CECFCF" stroke-width="0.25945"/>
<path d="M372.605 431.57L319.397 523.73" stroke="#CECFCF" stroke-width="0.25945"/>
<path d="M374.403 432.609L321.195 524.769" stroke="#CECFCF" stroke-width="0.25945"/>
<path d="M376.201 433.646L322.993 525.806" stroke="#CECFCF" stroke-width="0.25945"/>
<path d="M377.998 434.684L324.789 526.844" stroke="#CECFCF" stroke-width="0.25945"/>
<path d="M379.796 435.723L326.587 527.883" stroke="#CECFCF" stroke-width="0.25945"/>
<path d="M381.594 436.76L328.385 528.92" stroke="#CECFCF" stroke-width="0.25945"/>
<path d="M383.391 437.797L330.182 529.957" stroke="#CECFCF" stroke-width="0.25945"/>
<path d="M385.188 438.836L331.98 530.996" stroke="#CECFCF" stroke-width="0.25945"/>
<path d="M386.986 439.873L333.778 532.033" stroke="#CECFCF" stroke-width="0.25945"/>
<path d="M388.783 440.91L335.575 533.07" stroke="#CECFCF" stroke-width="0.25945"/>
<path d="M390.581 441.949L337.372 534.109" stroke="#CECFCF" stroke-width="0.25945"/>
<path d="M392.379 442.986L339.17 535.146" stroke="#CECFCF" stroke-width="0.25945"/>
<path d="M394.176 444.023L340.967 536.183" stroke="#CECFCF" stroke-width="0.25945"/>
<path d="M395.974 445.062L342.765 537.223" stroke="#CECFCF" stroke-width="0.25945"/>
<path d="M397.771 446.1L344.563 538.26" stroke="#CECFCF" stroke-width="0.25945"/>
<path d="M399.568 447.139L346.36 539.299" stroke="#CECFCF" stroke-width="0.25945"/>
<path d="M401.366 448.176L348.158 540.336" stroke="#CECFCF" stroke-width="0.25945"/>
<path d="M403.164 449.213L349.955 541.373" stroke="#CECFCF" stroke-width="0.25945"/>
<path d="M404.961 450.252L351.752 542.412" stroke="#CECFCF" stroke-width="0.25945"/>
<path d="M406.759 451.289L353.55 543.449" stroke="#CECFCF" stroke-width="0.25945"/>
</g>
<g filter="url(#filter0_d_10817_91007)">
<rect x="-90" y="590.914" width="85.3561" height="85.3561" rx="11.4818" fill="#F5F5F5"/>
</g>
<rect x="-76.875" y="373.73" width="85.3561" height="85.3561" rx="11.4818" fill="#EEEFF1"/>
<rect x="11.3516" y="333.73" width="85.3561" height="85.3561" rx="11.4818" fill="#EEEFF1"/>
<g filter="url(#filter1_d_10817_91007)">
<rect x="34.3516" y="376.129" width="85.3561" height="85.3561" rx="11.4818" fill="#EEEFF1"/>
<rect x="34.3516" y="376.129" width="85.3561" height="85.3561" rx="11.4818" fill="url(#paint0_linear_10817_91007)"/>
</g>
<path opacity="0.4" d="M77.0146 402.625C78.0085 402.625 78.8144 403.431 78.8145 404.425V405.855H79.6924L80.0674 405.865C83.9099 406.068 86.8183 409.366 86.8184 413.246C86.8183 414.24 86.0132 415.046 85.0195 415.046C84.0256 415.046 83.2197 414.24 83.2197 413.246C83.2197 411.129 81.6696 409.556 79.8672 409.46L79.6924 409.455H78.8145V417.556L82.4424 418.816L82.4531 418.82L82.8604 418.973C83.8179 419.353 84.8071 419.912 85.5625 420.876C86.4424 421.998 86.8183 423.426 86.8184 425.147C86.8184 428.751 84.0013 431.818 80.3643 431.818H78.8145V433.219C78.8144 434.213 78.0084 435.018 77.0146 435.019C76.0208 435.019 75.2149 434.213 75.2148 433.219V431.818H74.3418C70.3151 431.818 67.2149 428.433 67.2148 424.428C67.2149 423.434 68.0208 422.628 69.0146 422.628C70.0085 422.628 70.8144 423.434 70.8145 424.428C70.8145 426.613 72.4658 428.219 74.3418 428.219H75.2148V420.115L71.5918 418.857L71.5811 418.854C70.5034 418.472 69.3339 417.899 68.4707 416.798C67.5909 415.675 67.2149 414.247 67.2148 412.526C67.2149 408.923 70.0328 405.855 73.6699 405.855H75.2148V404.425C75.2149 403.431 76.0208 402.625 77.0146 402.625ZM78.8145 428.219H80.3643C81.8619 428.219 83.2197 426.918 83.2197 425.147C83.2197 423.942 82.9602 423.39 82.7305 423.097C82.4851 422.784 82.0722 422.505 81.2617 422.217L78.8145 421.366V428.219ZM73.6699 409.455C72.1722 409.455 70.8145 410.755 70.8145 412.526C70.8145 413.732 71.0739 414.284 71.3037 414.577C71.5492 414.89 71.9617 415.169 72.7725 415.457L75.2148 416.305V409.455H73.6699Z" fill="#CED1DA"/>
<rect x="99.5781" y="508.469" width="85.3561" height="85.3561" rx="11.4818" fill="#EEEFF1"/>
<rect x="99.5781" y="596.914" width="85.3561" height="85.3561" rx="11.4818" fill="#EEEFF1"/>
<rect x="187.812" y="376.129" width="85.3561" height="85.3561" rx="11.4818" fill="#EEEFF1"/>
<rect x="187.812" y="464.359" width="85.3561" height="85.3561" rx="11.4818" fill="#EEEFF1"/>
<rect x="187.812" y="552.582" width="85.3561" height="85.3561" rx="11.4818" fill="#EEEFF1"/>
<g filter="url(#filter2_dd_10817_91007)">
<rect x="187.812" y="640.914" width="85.3561" height="85.3561" rx="11.4818" fill="#F5F5F5"/>
</g>
<rect x="276.039" y="508.469" width="85.3561" height="85.3561" rx="11.4818" fill="#EEEFF1"/>
<g filter="url(#filter3_d_10817_91007)">
<rect x="291.859" y="474.383" width="54.0359" height="54.0359" rx="11.4818" fill="url(#paint1_linear_10817_91007)"/>
</g>
<path d="M319.062 490.648C319.733 490.648 320.277 491.192 320.277 491.863V492.836H320.864C323.583 492.836 325.676 495.121 325.676 497.825C325.676 498.496 325.132 499.04 324.461 499.04C323.79 499.04 323.246 498.496 323.246 497.825C323.246 496.35 322.131 495.266 320.864 495.266H320.277V500.736L322.721 501.586L322.729 501.588L323.004 501.691C323.65 501.948 324.317 502.325 324.827 502.976C325.421 503.733 325.676 504.697 325.676 505.859C325.676 508.292 323.774 510.362 321.318 510.362H320.277V511.302C320.277 511.973 319.733 512.517 319.062 512.517C318.392 512.517 317.848 511.973 317.848 511.302V510.362H317.252C314.534 510.362 312.442 508.078 312.441 505.374C312.441 504.703 312.985 504.158 313.656 504.158C314.327 504.158 314.871 504.703 314.871 505.374C314.871 506.849 315.986 507.932 317.252 507.933H317.848V502.465L315.396 501.613L315.389 501.61C314.661 501.352 313.872 500.966 313.289 500.223C312.695 499.465 312.441 498.501 312.441 497.339C312.442 494.906 314.343 492.836 316.799 492.836H317.848V491.863C317.848 491.192 318.392 490.648 319.062 490.648ZM320.277 507.933H321.318C322.329 507.933 323.246 507.055 323.246 505.859C323.246 505.045 323.07 504.673 322.915 504.475C322.749 504.263 322.471 504.075 321.924 503.88V503.881L320.277 503.309V507.933ZM316.799 495.266C315.788 495.266 314.871 496.143 314.871 497.339C314.871 498.153 315.046 498.526 315.201 498.724C315.367 498.935 315.646 499.123 316.192 499.317H316.193L317.848 499.892V495.266H316.799Z" fill="#CED1DA"/>
<rect x="11.3516" y="640.914" width="85.3561" height="85.3561" rx="11.4818" fill="#EEEFF1"/>
<rect x="11.3516" y="552.582" width="85.3561" height="85.3561" rx="11.4818" fill="#EEEFF1"/>
<rect x="363.422" y="376.129" width="85.3561" height="85.3561" rx="11.5625" fill="#EEEFF1"/>
<rect x="363.422" y="552.582" width="85.3561" height="85.3561" rx="11.5625" fill="#EEEFF1"/>
<g filter="url(#filter4_dddd_10817_91007)">
<rect x="131.383" y="446.922" width="113.043" height="113.043" rx="20.6673" fill="#FEFEFE" stroke="#EBECEC" stroke-width="0.765235"/>
<g filter="url(#filter5_i_10817_91007)">
<rect x="136.023" y="451.566" width="103.754" height="103.754" rx="16.2658" fill="url(#paint2_linear_10817_91007)"/>
</g>
<g filter="url(#filter6_d_10817_91007)">
<rect x="141.203" y="456.75" width="93.3906" height="93.3906" rx="11.4818" fill="url(#paint3_linear_10817_91007)"/>
</g>
<g filter="url(#filter7_i_10817_91007)">
<path d="M214.747 530.024C216.201 530.024 217.38 531.202 217.38 532.656V533.207C217.38 534.661 216.201 535.839 214.747 535.839H161.32C159.867 535.839 158.688 534.661 158.688 533.207V532.656C158.688 531.202 159.867 530.024 161.32 530.024H214.747ZM172.945 522.892C174.399 522.892 175.577 524.07 175.577 525.523V527.18H161.469V525.523C161.469 524.07 162.648 522.892 164.102 522.892H172.945ZM211.812 522.892C213.266 522.892 214.444 524.07 214.444 525.523V527.18H200.336V525.523C200.336 524.07 201.515 522.892 202.969 522.892H211.812ZM188.037 499.466C194.344 499.466 199.457 504.579 199.457 510.886C199.457 517.192 194.344 522.305 188.037 522.306C181.73 522.306 176.618 517.192 176.617 510.886C176.617 504.579 181.73 499.466 188.037 499.466ZM172.92 520.254H164.117V501.559H172.92V520.254ZM211.795 520.254H202.992V501.559H211.795V520.254ZM188.039 503.774C187.603 503.774 187.25 504.128 187.25 504.563V505.196H186.581C184.986 505.196 183.75 506.542 183.75 508.122C183.75 508.876 183.915 509.503 184.301 509.995C184.679 510.478 185.192 510.729 185.664 510.896L185.669 510.898L187.25 511.447V515.004H186.875C186.052 515.004 185.328 514.299 185.328 513.341C185.328 512.905 184.975 512.552 184.539 512.552C184.103 512.552 183.75 512.905 183.75 513.341C183.75 515.097 185.109 516.582 186.875 516.582H187.25V517.191C187.25 517.627 187.603 517.98 188.039 517.98C188.475 517.98 188.828 517.627 188.828 517.191V516.582H189.517C191.111 516.582 192.347 515.237 192.348 513.657C192.348 512.902 192.183 512.275 191.797 511.783C191.466 511.361 191.031 511.116 190.611 510.949L190.433 510.882L190.428 510.88L188.828 510.324V506.774H189.222L189.375 506.783C190.132 506.864 190.769 507.539 190.769 508.437C190.769 508.873 191.123 509.226 191.559 509.226C191.994 509.226 192.347 508.873 192.348 508.437C192.348 506.736 191.072 505.289 189.387 505.2L189.222 505.196H188.828V504.563C188.828 504.128 188.475 503.774 188.039 503.774ZM189.905 512.369V512.37C190.263 512.497 190.446 512.619 190.554 512.757C190.654 512.885 190.769 513.129 190.769 513.657C190.768 514.433 190.173 515.004 189.517 515.004H188.828V511.995L189.905 512.369ZM187.25 509.775L186.19 509.408H186.191C185.833 509.281 185.651 509.159 185.543 509.021C185.442 508.893 185.328 508.65 185.328 508.122C185.328 507.345 185.924 506.774 186.581 506.774H187.25V509.775ZM175.577 496.239C175.577 497.693 174.399 498.872 172.945 498.872H164.102C162.648 498.872 161.469 497.693 161.469 496.239V494.584H175.577V496.239ZM214.444 496.239C214.444 497.693 213.266 498.872 211.812 498.872H202.969C201.515 498.872 200.336 497.693 200.336 496.239V494.584H214.444V496.239ZM214.767 485.435C216.212 485.446 217.38 486.619 217.38 488.066V489.332C217.38 490.786 216.201 491.964 214.747 491.964H161.32C159.867 491.964 158.688 490.786 158.688 489.332V488.066C158.688 486.619 159.856 485.446 161.301 485.435H214.767ZM186.593 471.84C187.418 471.346 188.447 471.342 189.276 471.829L207.941 482.789H168.272L186.593 471.84Z" fill="#FF5500"/>
</g>
</g>
<rect y="597" width="375" height="97" fill="url(#paint4_linear_10817_91007)"/>
<path d="M0 411H375V0H0V411Z" fill="url(#paint5_linear_10817_91007)"/>
<g filter="url(#filter8_d_10817_91007)">
<rect x="21.5469" y="538.797" width="62.1928" height="62.1928" rx="11.4818" fill="url(#paint6_linear_10817_91007)"/>
</g>
<path d="M53.4336 557.219C53.974 557.219 54.2441 557.219 54.4639 557.306C54.7448 557.416 54.9762 557.625 55.1143 557.894C55.2223 558.104 55.2491 558.373 55.3027 558.911C55.4042 559.928 55.4549 560.437 55.667 560.717C55.9382 561.074 56.381 561.258 56.8252 561.197C57.1731 561.15 57.5696 560.826 58.3613 560.179C58.7792 559.837 58.9882 559.666 59.2129 559.594C59.5005 559.502 59.8119 559.517 60.0889 559.638C60.3054 559.732 60.4969 559.923 60.8789 560.305L61.9902 561.416C62.3736 561.799 62.5659 561.992 62.6602 562.209C62.7797 562.485 62.7956 562.796 62.7041 563.082C62.632 563.308 62.4598 563.518 62.1162 563.938C61.4659 564.732 61.1407 565.13 61.0938 565.479C61.0345 565.922 61.2174 566.362 61.5723 566.633C61.8525 566.847 62.3632 566.898 63.3848 567C63.9241 567.054 64.1937 567.082 64.4043 567.19C64.6716 567.328 64.8806 567.558 64.9912 567.838C65.0784 568.058 65.0781 568.33 65.0781 568.872V570.446C65.0781 570.985 65.0783 571.255 64.9922 571.475C64.8815 571.756 64.6715 571.988 64.4023 572.126C64.1926 572.234 63.9242 572.261 63.3877 572.314C62.3716 572.416 61.8633 572.467 61.584 572.679C61.226 572.95 61.0424 573.394 61.1035 573.839C61.1514 574.186 61.4749 574.582 62.1221 575.373C62.4647 575.792 62.6359 576.002 62.708 576.227C62.8 576.514 62.7852 576.825 62.665 577.102C62.5709 577.318 62.3793 577.509 61.9971 577.892L60.8848 579.004C60.5016 579.387 60.3101 579.579 60.0928 579.673C59.8167 579.793 59.5064 579.808 59.2197 579.717C58.9941 579.645 58.7836 579.473 58.3643 579.13C57.5707 578.481 57.1741 578.156 56.8252 578.108C56.3822 578.049 55.941 578.232 55.6699 578.587C55.4564 578.867 55.4047 579.379 55.3027 580.4C55.2488 580.941 55.2222 581.212 55.1133 581.423C54.9754 581.69 54.7451 581.897 54.4658 582.008C54.2451 582.095 53.9737 582.096 53.4307 582.096H51.8613C51.3179 582.096 51.0461 582.095 50.8252 582.008C50.5465 581.897 50.3165 581.69 50.1787 581.424C50.0694 581.213 50.0425 580.942 49.9883 580.4C49.8857 579.376 49.8342 578.864 49.6191 578.583C49.3484 578.23 48.9099 578.048 48.4688 578.106C48.1183 578.153 47.7198 578.48 46.9229 579.132C46.5019 579.476 46.291 579.649 46.0645 579.721C45.7789 579.812 45.4695 579.796 45.1943 579.678C44.9759 579.583 44.7832 579.391 44.3984 579.006L43.2891 577.896C42.906 577.513 42.7143 577.322 42.6201 577.104C42.5004 576.828 42.4847 576.518 42.5762 576.231C42.6483 576.006 42.82 575.795 43.1631 575.376C43.8126 574.582 44.1376 574.185 44.1846 573.836C44.2441 573.393 44.0613 572.953 43.7061 572.682C43.426 572.468 42.9154 572.416 41.8945 572.314C41.3553 572.261 41.0856 572.234 40.875 572.125C40.6075 571.987 40.3987 571.756 40.2881 571.477C40.2012 571.256 40.2012 570.985 40.2012 570.443V568.875C40.2012 568.33 40.2011 568.057 40.2891 567.836C40.3996 567.558 40.6073 567.329 40.873 567.191C41.0845 567.082 41.356 567.054 41.8984 567C42.9233 566.897 43.4362 566.846 43.7168 566.631C44.0699 566.36 44.2517 565.922 44.1934 565.48C44.1469 565.13 43.8205 564.731 43.1689 563.935C42.825 563.514 42.6531 563.304 42.5811 563.077C42.4902 562.791 42.5053 562.482 42.624 562.207C42.7182 561.989 42.9107 561.796 43.2949 561.412L44.4043 560.303C44.7877 559.919 44.9798 559.727 45.1973 559.633C45.4732 559.513 45.7838 559.497 46.0703 559.589C46.2962 559.661 46.5064 559.834 46.9268 560.178C47.7203 560.827 48.1173 561.152 48.4658 561.199C48.9091 561.259 49.3508 561.076 49.6221 560.721C49.8352 560.441 49.8862 559.931 49.9883 558.911C50.0422 558.373 50.0694 558.103 50.1777 557.893C50.3158 557.625 50.5468 557.416 50.8271 557.306C51.0472 557.219 51.3182 557.219 51.8594 557.219H53.4336ZM52.6396 564.684C49.8918 564.684 47.6641 566.911 47.6641 569.659C47.6641 572.407 49.8918 574.635 52.6396 574.635C55.3874 574.635 57.6151 572.407 57.6152 569.659C57.6152 566.911 55.3874 564.684 52.6396 564.684Z" fill="#D9DBE1"/>
</g>
<defs>
<filter id="filter0_d_10817_91007" x="-94.4697" y="586.444" width="98.7655" height="98.7645" filterUnits="userSpaceOnUse" color-interpolation-filters="sRGB">
<feFlood flood-opacity="0" result="BackgroundImageFix"/>
<feColorMatrix in="SourceAlpha" type="matrix" values="0 0 0 0 0 0 0 0 0 0 0 0 0 0 0 0 0 0 127 0" result="hardAlpha"/>
<feOffset dx="2.23483" dy="2.23483"/>
<feGaussianBlur stdDeviation="3.35225"/>
<feComposite in2="hardAlpha" operator="out"/>
<feColorMatrix type="matrix" values="0 0 0 0 0.878431 0 0 0 0 0.835294 0 0 0 0 0.815686 0 0 0 0.4 0"/>
<feBlend mode="normal" in2="BackgroundImageFix" result="effect1_dropShadow_10817_91007"/>
<feBlend mode="normal" in="SourceGraphic" in2="effect1_dropShadow_10817_91007" result="shape"/>
</filter>
<filter id="filter1_d_10817_91007" x="24.2109" y="365.988" width="115.779" height="115.778" filterUnits="userSpaceOnUse" color-interpolation-filters="sRGB">
<feFlood flood-opacity="0" result="BackgroundImageFix"/>
<feColorMatrix in="SourceAlpha" type="matrix" values="0 0 0 0 0 0 0 0 0 0 0 0 0 0 0 0 0 0 127 0" result="hardAlpha"/>
<feOffset dx="5.07034" dy="5.07034"/>
<feGaussianBlur stdDeviation="7.60552"/>
<feComposite in2="hardAlpha" operator="out"/>
<feColorMatrix type="matrix" values="0 0 0 0 0.878385 0 0 0 0 0.835505 0 0 0 0 0.814065 0 0 0 1 0"/>
<feBlend mode="normal" in2="BackgroundImageFix" result="effect1_dropShadow_10817_91007"/>
<feBlend mode="normal" in="SourceGraphic" in2="effect1_dropShadow_10817_91007" result="shape"/>
</filter>
<filter id="filter2_dd_10817_91007" x="178.873" y="631.975" width="103.235" height="103.234" filterUnits="userSpaceOnUse" color-interpolation-filters="sRGB">
<feFlood flood-opacity="0" result="BackgroundImageFix"/>
<feColorMatrix in="SourceAlpha" type="matrix" values="0 0 0 0 0 0 0 0 0 0 0 0 0 0 0 0 0 0 127 0" result="hardAlpha"/>
<feOffset dx="2.23483" dy="2.23483"/>
<feGaussianBlur stdDeviation="3.35225"/>
<feComposite in2="hardAlpha" operator="out"/>
<feColorMatrix type="matrix" values="0 0 0 0 0.878431 0 0 0 0 0.835294 0 0 0 0 0.815686 0 0 0 0.4 0"/>
<feBlend mode="normal" in2="BackgroundImageFix" result="effect1_dropShadow_10817_91007"/>
<feColorMatrix in="SourceAlpha" type="matrix" values="0 0 0 0 0 0 0 0 0 0 0 0 0 0 0 0 0 0 127 0" result="hardAlpha"/>
<feOffset dx="-2.23483" dy="-2.23483"/>
<feGaussianBlur stdDeviation="3.35225"/>
<feComposite in2="hardAlpha" operator="out"/>
<feColorMatrix type="matrix" values="0 0 0 0 1 0 0 0 0 1 0 0 0 0 1 0 0 0 1 0"/>
<feBlend mode="normal" in2="effect1_dropShadow_10817_91007" result="effect2_dropShadow_10817_91007"/>
<feBlend mode="normal" in="SourceGraphic" in2="effect2_dropShadow_10817_91007" result="shape"/>
</filter>
<filter id="filter3_d_10817_91007" x="281.719" y="464.242" width="84.4582" height="84.4572" filterUnits="userSpaceOnUse" color-interpolation-filters="sRGB">
<feFlood flood-opacity="0" result="BackgroundImageFix"/>
<feColorMatrix in="SourceAlpha" type="matrix" values="0 0 0 0 0 0 0 0 0 0 0 0 0 0 0 0 0 0 127 0" result="hardAlpha"/>
<feOffset dx="5.07034" dy="5.07034"/>
<feGaussianBlur stdDeviation="7.60552"/>
<feComposite in2="hardAlpha" operator="out"/>
<feColorMatrix type="matrix" values="0 0 0 0 0.878385 0 0 0 0 0.835505 0 0 0 0 0.814065 0 0 0 1 0"/>
<feBlend mode="normal" in2="BackgroundImageFix" result="effect1_dropShadow_10817_91007"/>
<feBlend mode="normal" in="SourceGraphic" in2="effect1_dropShadow_10817_91007" result="shape"/>
</filter>
<filter id="filter4_dddd_10817_91007" x="110.429" y="442.712" width="154.952" height="189.397" filterUnits="userSpaceOnUse" color-interpolation-filters="sRGB">
<feFlood flood-opacity="0" result="BackgroundImageFix"/>
<feColorMatrix in="SourceAlpha" type="matrix" values="0 0 0 0 0 0 0 0 0 0 0 0 0 0 0 0 0 0 127 0" result="hardAlpha"/>
<feOffset dy="3.34885"/>
<feGaussianBlur stdDeviation="3.58805"/>
<feColorMatrix type="matrix" values="0 0 0 0 0.537255 0 0 0 0 0.47451 0 0 0 0 0.439216 0 0 0 0.17 0"/>
<feBlend mode="normal" in2="BackgroundImageFix" result="effect1_dropShadow_10817_91007"/>
<feColorMatrix in="SourceAlpha" type="matrix" values="0 0 0 0 0 0 0 0 0 0 0 0 0 0 0 0 0 0 127 0" result="hardAlpha"/>
<feOffset dy="12.917"/>
<feGaussianBlur stdDeviation="6.45849"/>
<feColorMatrix type="matrix" values="0 0 0 0 0.537255 0 0 0 0 0.47451 0 0 0 0 0.439216 0 0 0 0.14 0"/>
<feBlend mode="normal" in2="effect1_dropShadow_10817_91007" result="effect2_dropShadow_10817_91007"/>
<feColorMatrix in="SourceAlpha" type="matrix" values="0 0 0 0 0 0 0 0 0 0 0 0 0 0 0 0 0 0 127 0" result="hardAlpha"/>
<feOffset dy="28.7044"/>
<feGaussianBlur stdDeviation="8.61132"/>
<feColorMatrix type="matrix" values="0 0 0 0 0.537255 0 0 0 0 0.47451 0 0 0 0 0.439216 0 0 0 0.08 0"/>
<feBlend mode="normal" in2="effect2_dropShadow_10817_91007" result="effect3_dropShadow_10817_91007"/>
<feColorMatrix in="SourceAlpha" type="matrix" values="0 0 0 0 0 0 0 0 0 0 0 0 0 0 0 0 0 0 127 0" result="hardAlpha"/>
<feOffset dy="51.1895"/>
<feGaussianBlur stdDeviation="10.2857"/>
<feColorMatrix type="matrix" values="0 0 0 0 0.537255 0 0 0 0 0.47451 0 0 0 0 0.439216 0 0 0 0.03 0"/>
<feBlend mode="normal" in2="effect3_dropShadow_10817_91007" result="effect4_dropShadow_10817_91007"/>
<feBlend mode="normal" in="SourceGraphic" in2="effect4_dropShadow_10817_91007" result="shape"/>
</filter>
<filter id="filter5_i_10817_91007" x="136.023" y="451.566" width="103.754" height="103.754" filterUnits="userSpaceOnUse" color-interpolation-filters="sRGB">
<feFlood flood-opacity="0" result="BackgroundImageFix"/>
<feBlend mode="normal" in="SourceGraphic" in2="BackgroundImageFix" result="shape"/>
<feColorMatrix in="SourceAlpha" type="matrix" values="0 0 0 0 0 0 0 0 0 0 0 0 0 0 0 0 0 0 127 0" result="hardAlpha"/>
<feOffset/>
<feGaussianBlur stdDeviation="1.53047"/>
<feComposite in2="hardAlpha" operator="arithmetic" k2="-1" k3="1"/>
<feColorMatrix type="matrix" values="0 0 0 0 0 0 0 0 0 0 0 0 0 0 0 0 0 0 0.2 0"/>
<feBlend mode="normal" in2="shape" result="effect1_innerShadow_10817_91007"/>
</filter>
<filter id="filter6_d_10817_91007" x="138.142" y="454.454" width="99.5125" height="99.5125" filterUnits="userSpaceOnUse" color-interpolation-filters="sRGB">
<feFlood flood-opacity="0" result="BackgroundImageFix"/>
<feColorMatrix in="SourceAlpha" type="matrix" values="0 0 0 0 0 0 0 0 0 0 0 0 0 0 0 0 0 0 127 0" result="hardAlpha"/>
<feOffset dy="0.765235"/>
<feGaussianBlur stdDeviation="1.53047"/>
<feComposite in2="hardAlpha" operator="out"/>
<feColorMatrix type="matrix" values="0 0 0 0 0 0 0 0 0 0 0 0 0 0 0 0 0 0 0.15 0"/>
<feBlend mode="normal" in2="BackgroundImageFix" result="effect1_dropShadow_10817_91007"/>
<feBlend mode="normal" in="SourceGraphic" in2="effect1_dropShadow_10817_91007" result="shape"/>
</filter>
<filter id="filter7_i_10817_91007" x="158.688" y="471.467" width="58.6924" height="67.6182" filterUnits="userSpaceOnUse" color-interpolation-filters="sRGB">
<feFlood flood-opacity="0" result="BackgroundImageFix"/>
<feBlend mode="normal" in="SourceGraphic" in2="BackgroundImageFix" result="shape"/>
<feColorMatrix in="SourceAlpha" type="matrix" values="0 0 0 0 0 0 0 0 0 0 0 0 0 0 0 0 0 0 127 0" result="hardAlpha"/>
<feOffset dy="3.24708"/>
<feGaussianBlur stdDeviation="3.24708"/>
<feComposite in2="hardAlpha" operator="arithmetic" k2="-1" k3="1"/>
<feColorMatrix type="matrix" values="0 0 0 0 0.70599 0 0 0 0 0.23533 0 0 0 0 0 0 0 0 0.5 0"/>
<feBlend mode="normal" in2="shape" result="effect1_innerShadow_10817_91007"/>
</filter>
<filter id="filter8_d_10817_91007" x="11.4062" y="528.656" width="92.6145" height="92.6154" filterUnits="userSpaceOnUse" color-interpolation-filters="sRGB">
<feFlood flood-opacity="0" result="BackgroundImageFix"/>
<feColorMatrix in="SourceAlpha" type="matrix" values="0 0 0 0 0 0 0 0 0 0 0 0 0 0 0 0 0 0 127 0" result="hardAlpha"/>
<feOffset dx="5.07034" dy="5.07034"/>
<feGaussianBlur stdDeviation="7.60552"/>
<feComposite in2="hardAlpha" operator="out"/>
<feColorMatrix type="matrix" values="0 0 0 0 0.878385 0 0 0 0 0.835505 0 0 0 0 0.814065 0 0 0 1 0"/>
<feBlend mode="normal" in2="BackgroundImageFix" result="effect1_dropShadow_10817_91007"/>
<feBlend mode="normal" in="SourceGraphic" in2="effect1_dropShadow_10817_91007" result="shape"/>
</filter>
<linearGradient id="paint0_linear_10817_91007" x1="18.3814" y1="492.274" x2="93.5177" y2="385.79" gradientUnits="userSpaceOnUse">
<stop stop-color="#E8E7E7"/>
<stop offset="1" stop-color="#FAFAFA"/>
</linearGradient>
<linearGradient id="paint1_linear_10817_91007" x1="330.51" y1="471.923" x2="306.459" y2="528.551" gradientUnits="userSpaceOnUse">
<stop stop-color="white"/>
<stop offset="1" stop-color="#EBECEC"/>
</linearGradient>
<linearGradient id="paint2_linear_10817_91007" x1="136.023" y1="503.443" x2="239.778" y2="503.443" gradientUnits="userSpaceOnUse">
<stop stop-color="#E5E8EF" stop-opacity="0"/>
<stop offset="1" stop-color="#F5F5F5"/>
</linearGradient>
<linearGradient id="paint3_linear_10817_91007" x1="187.898" y1="456.75" x2="187.898" y2="550.141" gradientUnits="userSpaceOnUse">
<stop stop-color="white"/>
<stop offset="1" stop-color="#F5F6F7"/>
</linearGradient>
<linearGradient id="paint4_linear_10817_91007" x1="102.214" y1="597" x2="102.214" y2="694" gradientUnits="userSpaceOnUse">
<stop stop-color="#F5F5F5" stop-opacity="0"/>
<stop offset="1" stop-color="#EBECEC"/>
</linearGradient>
<linearGradient id="paint5_linear_10817_91007" x1="193.325" y1="435.673" x2="193.325" y2="-104.215" gradientUnits="userSpaceOnUse">
<stop stop-color="white" stop-opacity="0"/>
<stop offset="1" stop-color="white"/>
</linearGradient>
<linearGradient id="paint6_linear_10817_91007" x1="66.0315" y1="535.966" x2="38.3503" y2="601.143" gradientUnits="userSpaceOnUse">
<stop stop-color="white"/>
<stop offset="1" stop-color="#EBECEC"/>
</linearGradient>
<clipPath id="clip0_10817_91007">
<rect width="375" height="694" fill="white"/>
</clipPath>
</defs>
</svg>
