<svg width="1440" height="715" viewBox="0 0 1440 715" fill="none" xmlns="http://www.w3.org/2000/svg">
<mask id="mask0_10157_82903" style="mask-type:alpha" maskUnits="userSpaceOnUse" x="1256" y="180" width="179" height="179">
<rect x="1256.18" y="180.414" width="178.417" height="178.417" rx="40" fill="#EEEFF1"/>
</mask>
<g mask="url(#mask0_10157_82903)">
<path d="M1296.22 99.1641L1185 291.804" stroke="#CECFCF" stroke-width="0.542321"/>
<path d="M1299.98 101.334L1188.76 293.974" stroke="#CECFCF" stroke-width="0.542321"/>
<path d="M1303.74 103.502L1192.51 296.141" stroke="#CECFCF" stroke-width="0.542321"/>
<path d="M1307.49 105.672L1196.27 298.311" stroke="#CECFCF" stroke-width="0.542321"/>
<path d="M1311.25 107.842L1200.03 300.481" stroke="#CECFCF" stroke-width="0.542321"/>
<path d="M1315.01 110.01L1203.79 302.649" stroke="#CECFCF" stroke-width="0.542321"/>
<path d="M1318.76 112.18L1207.54 304.819" stroke="#CECFCF" stroke-width="0.542321"/>
<path d="M1322.52 114.35L1211.3 306.989" stroke="#CECFCF" stroke-width="0.542321"/>
<path d="M1326.28 116.518L1215.06 309.157" stroke="#CECFCF" stroke-width="0.542321"/>
<path d="M1330.04 118.688L1218.82 311.327" stroke="#CECFCF" stroke-width="0.542321"/>
<path d="M1333.79 120.857L1222.57 313.497" stroke="#CECFCF" stroke-width="0.542321"/>
<path d="M1337.55 123.025L1226.33 315.665" stroke="#CECFCF" stroke-width="0.542321"/>
<path d="M1341.31 125.195L1230.09 317.835" stroke="#CECFCF" stroke-width="0.542321"/>
<path d="M1345.07 127.365L1233.84 320.005" stroke="#CECFCF" stroke-width="0.542321"/>
<path d="M1348.82 129.533L1237.6 322.173" stroke="#CECFCF" stroke-width="0.542321"/>
<path d="M1352.58 131.703L1241.36 324.343" stroke="#CECFCF" stroke-width="0.542321"/>
<path d="M1356.34 133.873L1245.12 326.513" stroke="#CECFCF" stroke-width="0.542321"/>
<path d="M1360.09 136.041L1248.87 328.681" stroke="#CECFCF" stroke-width="0.542321"/>
<path d="M1363.85 138.211L1252.63 330.85" stroke="#CECFCF" stroke-width="0.542321"/>
<path d="M1367.61 140.381L1256.39 333.02" stroke="#CECFCF" stroke-width="0.542321"/>
<path d="M1371.37 142.549L1260.15 335.188" stroke="#CECFCF" stroke-width="0.542321"/>
<path d="M1375.12 144.719L1263.9 337.358" stroke="#CECFCF" stroke-width="0.542321"/>
<path d="M1378.88 146.889L1267.66 339.528" stroke="#CECFCF" stroke-width="0.542321"/>
<path d="M1382.64 149.059L1271.42 341.698" stroke="#CECFCF" stroke-width="0.542321"/>
<path d="M1386.4 151.227L1275.18 343.866" stroke="#CECFCF" stroke-width="0.542321"/>
<path d="M1390.15 153.396L1278.93 346.036" stroke="#CECFCF" stroke-width="0.542321"/>
<path d="M1393.91 155.566L1282.69 348.206" stroke="#CECFCF" stroke-width="0.542321"/>
<path d="M1397.67 157.734L1286.45 350.374" stroke="#CECFCF" stroke-width="0.542321"/>
<path d="M1401.43 159.904L1290.21 352.544" stroke="#CECFCF" stroke-width="0.542321"/>
<path d="M1405.18 162.074L1293.96 354.714" stroke="#CECFCF" stroke-width="0.542321"/>
<path d="M1408.94 164.242L1297.72 356.882" stroke="#CECFCF" stroke-width="0.542321"/>
<path d="M1412.7 166.412L1301.48 359.052" stroke="#CECFCF" stroke-width="0.542321"/>
<path d="M1416.46 168.582L1305.23 361.222" stroke="#CECFCF" stroke-width="0.542321"/>
<path d="M1420.21 170.75L1308.99 363.39" stroke="#CECFCF" stroke-width="0.542321"/>
<path d="M1423.97 172.92L1312.75 365.559" stroke="#CECFCF" stroke-width="0.542321"/>
<path d="M1427.73 175.09L1316.51 367.729" stroke="#CECFCF" stroke-width="0.542321"/>
<path d="M1431.48 177.258L1320.26 369.897" stroke="#CECFCF" stroke-width="0.542321"/>
<path d="M1435.24 179.428L1324.02 372.067" stroke="#CECFCF" stroke-width="0.542321"/>
<path d="M1439 181.598L1327.78 374.237" stroke="#CECFCF" stroke-width="0.542321"/>
<path d="M1442.76 183.766L1331.54 376.405" stroke="#CECFCF" stroke-width="0.542321"/>
<path d="M1446.51 185.936L1335.29 378.575" stroke="#CECFCF" stroke-width="0.542321"/>
<path d="M1450.27 188.105L1339.05 380.745" stroke="#CECFCF" stroke-width="0.542321"/>
<path d="M1454.03 190.273L1342.81 382.913" stroke="#CECFCF" stroke-width="0.542321"/>
<path d="M1457.79 192.443L1346.56 385.083" stroke="#CECFCF" stroke-width="0.542321"/>
<path d="M1461.54 194.613L1350.32 387.253" stroke="#CECFCF" stroke-width="0.542321"/>
<path d="M1465.3 196.781L1354.08 389.421" stroke="#CECFCF" stroke-width="0.542321"/>
<path d="M1469.06 198.951L1357.84 391.591" stroke="#CECFCF" stroke-width="0.542321"/>
<path d="M1472.81 201.121L1361.59 393.761" stroke="#CECFCF" stroke-width="0.542321"/>
<path d="M1476.57 203.289L1365.35 395.929" stroke="#CECFCF" stroke-width="0.542321"/>
<path d="M1480.33 205.459L1369.11 398.099" stroke="#CECFCF" stroke-width="0.542321"/>
<path d="M1484.09 207.629L1372.87 400.268" stroke="#CECFCF" stroke-width="0.542321"/>
<path d="M1487.84 209.797L1376.62 402.436" stroke="#CECFCF" stroke-width="0.542321"/>
<path d="M1491.6 211.967L1380.38 404.606" stroke="#CECFCF" stroke-width="0.542321"/>
<path d="M1495.36 214.137L1384.14 406.776" stroke="#CECFCF" stroke-width="0.542321"/>
<path d="M1499.12 216.305L1387.89 408.944" stroke="#CECFCF" stroke-width="0.542321"/>
<path d="M1502.87 218.475L1391.65 411.114" stroke="#CECFCF" stroke-width="0.542321"/>
<path d="M1506.63 220.645L1395.41 413.284" stroke="#CECFCF" stroke-width="0.542321"/>
<path d="M1510.39 222.812L1399.17 415.452" stroke="#CECFCF" stroke-width="0.542321"/>
<path d="M1514.14 224.982L1402.92 417.622" stroke="#CECFCF" stroke-width="0.542321"/>
<path d="M1517.9 227.152L1406.68 419.792" stroke="#CECFCF" stroke-width="0.542321"/>
<path d="M1521.66 229.32L1410.44 421.96" stroke="#CECFCF" stroke-width="0.542321"/>
<path d="M1525.42 231.49L1414.2 424.13" stroke="#CECFCF" stroke-width="0.542321"/>
<path d="M1529.17 233.66L1417.95 426.3" stroke="#CECFCF" stroke-width="0.542321"/>
</g>
<rect x="333.835" y="-95.791" width="178.417" height="178.417" rx="24" fill="#EEEFF1"/>
<g filter="url(#filter0_dd_10157_82903)">
<rect x="333.835" y="641.879" width="178.417" height="178.417" rx="24" fill="#F5F5F5"/>
</g>
<rect x="518.253" y="-3.58203" width="178.417" height="178.417" rx="24" fill="#EEEFF1"/>
<rect x="702.67" y="-95.791" width="178.417" height="178.417" rx="24" fill="#EEEFF1"/>
<g filter="url(#filter1_d_10157_82903)">
<rect x="702.67" y="88.627" width="178.417" height="178.417" rx="24" fill="#EEEFF1"/>
<rect x="702.67" y="88.627" width="178.417" height="178.417" rx="24" fill="url(#paint0_linear_10157_82903)"/>
</g>
<path opacity="0.4" d="M791.854 144C793.931 144 795.615 145.684 795.615 147.762V150.764H797.455C805.872 150.764 812.352 157.839 812.352 166.212C812.351 168.289 810.667 169.973 808.59 169.974C806.512 169.974 804.828 168.289 804.828 166.212C804.828 161.645 801.376 158.287 797.455 158.287H795.615V175.219L803.203 177.855L803.226 177.863C805.478 178.662 807.921 179.858 809.726 182.16C811.565 184.506 812.352 187.491 812.352 191.089C812.352 198.622 806.462 205.032 798.859 205.032H795.615V207.948C795.615 210.026 793.931 211.71 791.854 211.71C789.776 211.71 788.092 210.026 788.092 207.948V205.032H786.271C777.854 205.032 771.374 197.957 771.374 189.584C771.374 187.507 773.058 185.822 775.136 185.822C777.213 185.822 778.897 187.507 778.897 189.584C778.897 194.151 782.349 197.509 786.271 197.509H788.092V180.569L780.521 177.94C780.514 177.938 780.507 177.935 780.5 177.933C778.247 177.134 775.804 175.937 774 173.636C772.161 171.289 771.374 168.305 771.374 164.707C771.374 157.174 777.264 150.764 784.866 150.764H788.092V147.762C788.092 145.684 789.776 144 791.854 144ZM795.615 197.509H798.859C801.99 197.509 804.828 194.791 804.828 191.089C804.828 188.568 804.285 187.415 803.805 186.802C803.289 186.144 802.422 185.56 800.712 184.954H800.711L795.615 183.184V197.509ZM784.866 158.287C781.736 158.287 778.897 161.005 778.897 164.707C778.897 167.228 779.44 168.381 779.921 168.994C780.436 169.651 781.303 170.235 783.012 170.841L788.092 172.605V158.287H784.866Z" fill="#CED1DA"/>
<rect x="887.088" y="365.252" width="178.417" height="178.417" rx="24" fill="#EEEFF1"/>
<rect x="887.088" y="549.67" width="178.417" height="178.417" rx="24" fill="#EEEFF1"/>
<rect x="1071.5" y="88.627" width="178.417" height="178.417" rx="24" fill="#EEEFF1"/>
<rect x="1071.5" y="273.043" width="178.417" height="178.417" rx="24" fill="#EEEFF1"/>
<rect x="1071.5" y="457.461" width="178.417" height="178.417" rx="24" fill="#EEEFF1"/>
<g filter="url(#filter2_dd_10157_82903)">
<rect x="1071.5" y="641.879" width="178.417" height="178.417" rx="24" fill="#F5F5F5"/>
</g>
<rect x="1255.92" y="365.252" width="178.417" height="178.417" rx="24" fill="#EEEFF1"/>
<g filter="url(#filter3_d_10157_82903)">
<rect x="1289" y="294" width="112.95" height="112.95" rx="24" fill="url(#paint1_linear_10157_82903)"/>
</g>
<path d="M1345.83 328C1347.23 328 1348.37 329.137 1348.37 330.539V332.564H1349.61C1355.29 332.564 1359.66 337.341 1359.66 342.993C1359.66 344.395 1358.53 345.532 1357.12 345.532C1355.72 345.532 1354.58 344.395 1354.58 342.993C1354.58 339.91 1352.25 337.643 1349.61 337.643H1348.37V349.074L1353.49 350.854L1353.5 350.858C1355.02 351.397 1356.67 352.206 1357.89 353.76C1359.13 355.344 1359.66 357.359 1359.66 359.787C1359.66 364.872 1355.69 369.2 1350.55 369.2H1348.37V371.17C1348.37 372.572 1347.23 373.71 1345.83 373.71C1344.42 373.71 1343.29 372.572 1343.29 371.17V369.2H1342.06C1336.37 369.2 1332 364.424 1332 358.771C1332 357.369 1333.14 356.231 1334.54 356.231C1335.94 356.231 1337.08 357.369 1337.08 358.771C1337.08 361.854 1339.41 364.121 1342.06 364.121H1343.29V352.687L1338.17 350.911C1338.17 350.909 1338.17 350.907 1338.16 350.905C1336.64 350.366 1334.99 349.559 1333.77 348.005C1332.53 346.421 1332 344.405 1332 341.977C1332 336.892 1335.98 332.565 1341.11 332.564H1343.29V330.539C1343.29 329.137 1344.42 328 1345.83 328ZM1348.37 364.121H1350.55C1352.67 364.121 1354.58 362.286 1354.58 359.787C1354.58 358.085 1354.22 357.306 1353.89 356.893C1353.55 356.451 1352.96 356.058 1351.82 355.65V355.651L1348.37 354.451V364.121ZM1341.11 337.643C1338.99 337.643 1337.08 339.478 1337.08 341.977C1337.08 343.679 1337.45 344.457 1337.77 344.871C1338.12 345.315 1338.7 345.709 1339.86 346.118H1339.86L1343.29 347.311V337.643H1341.11Z" fill="#CED1DA"/>
<rect x="702.672" y="641.875" width="178.417" height="178.417" rx="24" fill="#EEEFF1"/>
<rect x="702.672" y="457.461" width="178.417" height="178.417" rx="24" fill="#EEEFF1"/>
<g filter="url(#filter4_dddd_10157_82903)">
<rect x="954.925" y="236.597" width="236.29" height="236.29" rx="43.2002" fill="#FEFEFE" stroke="#EBECEC" stroke-width="1.59955"/>
<g filter="url(#filter5_i_10157_82903)">
<rect x="964.633" y="246.305" width="216.874" height="216.874" rx="34" fill="url(#paint2_linear_10157_82903)"/>
</g>
<g filter="url(#filter6_d_10157_82903)">
<rect x="975.465" y="257.141" width="195.212" height="195.212" rx="24" fill="url(#paint3_linear_10157_82903)"/>
</g>
<g filter="url(#filter7_i_10157_82903)">
<path d="M1129.18 410.306C1132.22 410.306 1134.68 412.77 1134.68 415.809V416.959C1134.68 419.998 1132.22 422.461 1129.18 422.462H1017.5C1014.46 422.462 1012 419.998 1012 416.959V415.809C1012 412.77 1014.46 410.306 1017.5 410.306H1129.18ZM1041.79 395.392C1044.83 395.392 1047.3 397.856 1047.3 400.895V404.356H1017.8V400.895C1017.8 397.856 1020.27 395.392 1023.31 395.392H1041.79ZM1123.04 395.392C1126.08 395.392 1128.55 397.856 1128.55 400.895V404.356H1099.05V400.895C1099.05 397.856 1101.52 395.392 1104.56 395.392H1123.04ZM1073.33 346.425C1086.52 346.425 1097.2 357.112 1097.21 370.295C1097.21 383.479 1086.52 394.166 1073.33 394.166C1060.15 394.166 1049.46 383.479 1049.46 370.295C1049.46 357.112 1060.15 346.425 1073.33 346.425ZM1041.75 389.884H1023.35V350.806H1041.75V389.884ZM1123 389.884H1104.6V350.806H1123V389.884ZM1073.33 355.432C1072.41 355.432 1071.68 356.171 1071.68 357.082V358.401H1070.26C1066.93 358.401 1064.34 361.212 1064.34 364.515C1064.34 366.093 1064.69 367.402 1065.5 368.431C1066.29 369.441 1067.36 369.966 1068.35 370.316L1068.36 370.32L1071.68 371.473V378.902H1070.88C1069.16 378.902 1067.64 377.429 1067.64 375.426C1067.64 374.515 1066.9 373.776 1065.99 373.776C1065.08 373.776 1064.34 374.515 1064.34 375.426C1064.34 379.098 1067.18 382.201 1070.88 382.201H1071.68V383.477C1071.68 384.388 1072.41 385.128 1073.33 385.128C1074.24 385.128 1074.97 384.388 1074.97 383.477V382.201H1076.4C1079.73 382.201 1082.31 379.389 1082.31 376.086C1082.31 374.508 1081.97 373.199 1081.16 372.17C1080.47 371.287 1079.56 370.774 1078.69 370.425L1078.31 370.286L1078.3 370.282L1074.97 369.126V361.7H1075.78C1077.5 361.7 1079.02 363.173 1079.02 365.175C1079.02 366.087 1079.75 366.826 1080.67 366.826C1081.58 366.826 1082.31 366.086 1082.31 365.175C1082.31 361.503 1079.47 358.401 1075.78 358.401H1074.97V357.082C1074.97 356.171 1074.24 355.432 1073.33 355.432ZM1077.22 373.399V373.398C1077.96 373.663 1078.34 373.919 1078.57 374.206C1078.78 374.474 1079.02 374.98 1079.02 376.086C1079.02 377.709 1077.77 378.902 1076.4 378.902H1074.97V372.619L1077.22 373.399ZM1071.68 367.979L1069.45 367.206H1069.45C1068.7 366.94 1068.32 366.684 1068.09 366.396C1067.88 366.127 1067.64 365.621 1067.64 364.515C1067.64 362.892 1068.89 361.7 1070.26 361.7H1071.68V367.979ZM1047.3 339.678C1047.3 342.717 1044.83 345.181 1041.79 345.181H1023.31C1020.27 345.181 1017.8 342.717 1017.8 339.678V336.217H1047.3V339.678ZM1128.55 339.678C1128.55 342.717 1126.08 345.181 1123.04 345.181H1104.56C1101.52 345.181 1099.05 342.717 1099.05 339.678V336.217H1128.55V339.678ZM1129.26 317.099C1132.26 317.143 1134.68 319.588 1134.68 322.6V325.244C1134.68 328.283 1132.22 330.746 1129.18 330.747H1017.5C1014.46 330.747 1012 328.283 1012 325.244V322.6C1012 319.588 1014.42 317.142 1017.42 317.099H1129.26ZM1070.33 288.675C1072.06 287.645 1074.21 287.636 1075.94 288.654L1114.96 311.568H1032.03L1070.33 288.675Z" fill="#FF5500"/>
</g>
</g>
<rect y="495" width="1440" height="220" fill="url(#paint4_linear_10157_82903)"/>
<rect width="1440" height="220" transform="matrix(1 0 0 -1 0 215)" fill="url(#paint5_linear_10157_82903)"/>
<g filter="url(#filter8_d_10157_82903)">
<rect x="655" y="437" width="130" height="130" rx="24" fill="url(#paint6_linear_10157_82903)"/>
</g>
<path d="M721.646 475.5C722.776 475.5 723.341 475.5 723.801 475.682C724.388 475.913 724.871 476.349 725.159 476.91C725.385 477.35 725.441 477.912 725.554 479.037C725.766 481.166 725.873 482.231 726.317 482.815C726.884 483.561 727.808 483.944 728.736 483.818C729.464 483.72 730.294 483.041 731.952 481.685C732.83 480.966 733.269 480.607 733.741 480.456C734.34 480.265 734.988 480.297 735.565 480.547C736.02 480.744 736.421 481.145 737.223 481.946L739.543 484.267C740.346 485.069 740.747 485.471 740.944 485.927C741.194 486.503 741.226 487.15 741.035 487.748C740.884 488.221 740.525 488.66 739.806 489.539C738.445 491.202 737.765 492.034 737.667 492.766C737.544 493.689 737.924 494.609 738.664 495.175C739.25 495.623 740.32 495.73 742.458 495.944C743.588 496.057 744.153 496.114 744.594 496.342C745.151 496.63 745.586 497.11 745.817 497.693C746 498.155 746 498.723 746 499.858V503.145C746 504.275 746 504.84 745.818 505.3C745.587 505.887 745.151 506.37 744.59 506.658C744.151 506.884 743.588 506.94 742.463 507.053C740.334 507.266 739.27 507.372 738.686 507.816C737.94 508.383 737.556 509.308 737.683 510.236C737.782 510.964 738.459 511.792 739.813 513.447C740.529 514.322 740.887 514.759 741.038 515.229C741.231 515.83 741.198 516.481 740.946 517.06C740.749 517.513 740.351 517.912 739.552 518.711L737.227 521.036C736.425 521.838 736.024 522.239 735.569 522.436C734.993 522.685 734.345 522.717 733.746 522.526C733.274 522.376 732.835 522.017 731.957 521.299C730.296 519.94 729.465 519.26 728.734 519.162C727.809 519.038 726.889 519.419 726.322 520.161C725.875 520.747 725.768 521.816 725.555 523.954C725.441 525.086 725.385 525.653 725.156 526.095C724.868 526.652 724.388 527.085 723.806 527.316C723.344 527.5 722.775 527.5 721.639 527.5H718.359C717.224 527.5 716.656 527.5 716.194 527.317C715.611 527.086 715.131 526.651 714.843 526.094C714.615 525.653 714.559 525.087 714.445 523.956C714.231 521.819 714.124 520.75 713.678 520.165C713.111 519.422 712.189 519.041 711.264 519.166C710.534 519.264 709.704 519.943 708.044 521.301C707.167 522.018 706.729 522.378 706.257 522.528C705.658 522.72 705.009 522.688 704.432 522.438C703.977 522.241 703.577 521.839 702.775 521.038L700.451 518.714C699.651 517.914 699.252 517.514 699.055 517.061C698.804 516.482 698.772 515.833 698.964 515.232C699.115 514.762 699.473 514.324 700.188 513.449C701.544 511.792 702.222 510.963 702.32 510.234C702.446 509.307 702.063 508.383 701.318 507.816C700.733 507.371 699.668 507.265 697.538 507.053C696.413 506.94 695.85 506.884 695.41 506.657C694.85 506.369 694.413 505.886 694.182 505.3C694 504.84 694 504.274 694 503.144V499.859C694 498.723 694 498.155 694.183 497.693C694.414 497.11 694.849 496.63 695.406 496.342C695.847 496.114 696.413 496.057 697.543 495.944C699.683 495.73 700.752 495.623 701.339 495.175C702.079 494.609 702.46 493.69 702.337 492.767C702.239 492.035 701.558 491.202 700.196 489.538C699.477 488.659 699.116 488.218 698.966 487.745C698.776 487.148 698.808 486.501 699.057 485.926C699.254 485.47 699.656 485.068 700.459 484.265L702.78 481.943C703.581 481.143 703.981 480.743 704.436 480.546C705.013 480.295 705.662 480.262 706.262 480.454C706.733 480.605 707.172 480.964 708.049 481.682C709.706 483.037 710.534 483.715 711.262 483.814C712.19 483.941 713.115 483.558 713.683 482.812C714.127 482.227 714.234 481.164 714.446 479.036C714.559 477.912 714.615 477.35 714.841 476.911C715.129 476.35 715.612 475.912 716.199 475.681C716.659 475.5 717.224 475.5 718.354 475.5H721.646ZM720 491.1C714.256 491.1 709.6 495.756 709.6 501.5C709.6 507.244 714.256 511.899 720 511.899C725.743 511.899 730.399 507.243 730.399 501.5C730.399 495.756 725.744 491.1 720 491.1Z" fill="#D9DBE1"/>
<defs>
<filter id="filter0_dd_10157_82903" x="315.149" y="623.193" width="215.789" height="215.789" filterUnits="userSpaceOnUse" color-interpolation-filters="sRGB">
<feFlood flood-opacity="0" result="BackgroundImageFix"/>
<feColorMatrix in="SourceAlpha" type="matrix" values="0 0 0 0 0 0 0 0 0 0 0 0 0 0 0 0 0 0 127 0" result="hardAlpha"/>
<feOffset dx="4.67141" dy="4.67141"/>
<feGaussianBlur stdDeviation="7.00712"/>
<feComposite in2="hardAlpha" operator="out"/>
<feColorMatrix type="matrix" values="0 0 0 0 0.878431 0 0 0 0 0.835294 0 0 0 0 0.815686 0 0 0 0.4 0"/>
<feBlend mode="normal" in2="BackgroundImageFix" result="effect1_dropShadow_10157_82903"/>
<feColorMatrix in="SourceAlpha" type="matrix" values="0 0 0 0 0 0 0 0 0 0 0 0 0 0 0 0 0 0 127 0" result="hardAlpha"/>
<feOffset dx="-4.67141" dy="-4.67141"/>
<feGaussianBlur stdDeviation="7.00712"/>
<feComposite in2="hardAlpha" operator="out"/>
<feColorMatrix type="matrix" values="0 0 0 0 1 0 0 0 0 1 0 0 0 0 1 0 0 0 1 0"/>
<feBlend mode="normal" in2="effect1_dropShadow_10157_82903" result="effect2_dropShadow_10157_82903"/>
<feBlend mode="normal" in="SourceGraphic" in2="effect2_dropShadow_10157_82903" result="shape"/>
</filter>
<filter id="filter1_d_10157_82903" x="681.473" y="67.4301" width="242.008" height="242.008" filterUnits="userSpaceOnUse" color-interpolation-filters="sRGB">
<feFlood flood-opacity="0" result="BackgroundImageFix"/>
<feColorMatrix in="SourceAlpha" type="matrix" values="0 0 0 0 0 0 0 0 0 0 0 0 0 0 0 0 0 0 127 0" result="hardAlpha"/>
<feOffset dx="10.5984" dy="10.5984"/>
<feGaussianBlur stdDeviation="15.8976"/>
<feComposite in2="hardAlpha" operator="out"/>
<feColorMatrix type="matrix" values="0 0 0 0 0.878385 0 0 0 0 0.835505 0 0 0 0 0.814065 0 0 0 1 0"/>
<feBlend mode="normal" in2="BackgroundImageFix" result="effect1_dropShadow_10157_82903"/>
<feBlend mode="normal" in="SourceGraphic" in2="effect1_dropShadow_10157_82903" result="shape"/>
</filter>
<filter id="filter2_dd_10157_82903" x="1052.82" y="623.193" width="215.789" height="215.789" filterUnits="userSpaceOnUse" color-interpolation-filters="sRGB">
<feFlood flood-opacity="0" result="BackgroundImageFix"/>
<feColorMatrix in="SourceAlpha" type="matrix" values="0 0 0 0 0 0 0 0 0 0 0 0 0 0 0 0 0 0 127 0" result="hardAlpha"/>
<feOffset dx="4.67141" dy="4.67141"/>
<feGaussianBlur stdDeviation="7.00712"/>
<feComposite in2="hardAlpha" operator="out"/>
<feColorMatrix type="matrix" values="0 0 0 0 0.878431 0 0 0 0 0.835294 0 0 0 0 0.815686 0 0 0 0.4 0"/>
<feBlend mode="normal" in2="BackgroundImageFix" result="effect1_dropShadow_10157_82903"/>
<feColorMatrix in="SourceAlpha" type="matrix" values="0 0 0 0 0 0 0 0 0 0 0 0 0 0 0 0 0 0 127 0" result="hardAlpha"/>
<feOffset dx="-4.67141" dy="-4.67141"/>
<feGaussianBlur stdDeviation="7.00712"/>
<feComposite in2="hardAlpha" operator="out"/>
<feColorMatrix type="matrix" values="0 0 0 0 1 0 0 0 0 1 0 0 0 0 1 0 0 0 1 0"/>
<feBlend mode="normal" in2="effect1_dropShadow_10157_82903" result="effect2_dropShadow_10157_82903"/>
<feBlend mode="normal" in="SourceGraphic" in2="effect2_dropShadow_10157_82903" result="shape"/>
</filter>
<filter id="filter3_d_10157_82903" x="1267.8" y="272.803" width="176.54" height="176.54" filterUnits="userSpaceOnUse" color-interpolation-filters="sRGB">
<feFlood flood-opacity="0" result="BackgroundImageFix"/>
<feColorMatrix in="SourceAlpha" type="matrix" values="0 0 0 0 0 0 0 0 0 0 0 0 0 0 0 0 0 0 127 0" result="hardAlpha"/>
<feOffset dx="10.5984" dy="10.5984"/>
<feGaussianBlur stdDeviation="15.8976"/>
<feComposite in2="hardAlpha" operator="out"/>
<feColorMatrix type="matrix" values="0 0 0 0 0.878385 0 0 0 0 0.835505 0 0 0 0 0.814065 0 0 0 1 0"/>
<feBlend mode="normal" in2="BackgroundImageFix" result="effect1_dropShadow_10157_82903"/>
<feBlend mode="normal" in="SourceGraphic" in2="effect1_dropShadow_10157_82903" result="shape"/>
</filter>
<filter id="filter4_dddd_10157_82903" x="911.125" y="227.797" width="323.89" height="395.891" filterUnits="userSpaceOnUse" color-interpolation-filters="sRGB">
<feFlood flood-opacity="0" result="BackgroundImageFix"/>
<feColorMatrix in="SourceAlpha" type="matrix" values="0 0 0 0 0 0 0 0 0 0 0 0 0 0 0 0 0 0 127 0" result="hardAlpha"/>
<feOffset dy="7"/>
<feGaussianBlur stdDeviation="7.5"/>
<feColorMatrix type="matrix" values="0 0 0 0 0.537255 0 0 0 0 0.47451 0 0 0 0 0.439216 0 0 0 0.17 0"/>
<feBlend mode="normal" in2="BackgroundImageFix" result="effect1_dropShadow_10157_82903"/>
<feColorMatrix in="SourceAlpha" type="matrix" values="0 0 0 0 0 0 0 0 0 0 0 0 0 0 0 0 0 0 127 0" result="hardAlpha"/>
<feOffset dy="27"/>
<feGaussianBlur stdDeviation="13.5"/>
<feColorMatrix type="matrix" values="0 0 0 0 0.537255 0 0 0 0 0.47451 0 0 0 0 0.439216 0 0 0 0.14 0"/>
<feBlend mode="normal" in2="effect1_dropShadow_10157_82903" result="effect2_dropShadow_10157_82903"/>
<feColorMatrix in="SourceAlpha" type="matrix" values="0 0 0 0 0 0 0 0 0 0 0 0 0 0 0 0 0 0 127 0" result="hardAlpha"/>
<feOffset dy="60"/>
<feGaussianBlur stdDeviation="18"/>
<feColorMatrix type="matrix" values="0 0 0 0 0.537255 0 0 0 0 0.47451 0 0 0 0 0.439216 0 0 0 0.08 0"/>
<feBlend mode="normal" in2="effect2_dropShadow_10157_82903" result="effect3_dropShadow_10157_82903"/>
<feColorMatrix in="SourceAlpha" type="matrix" values="0 0 0 0 0 0 0 0 0 0 0 0 0 0 0 0 0 0 127 0" result="hardAlpha"/>
<feOffset dy="107"/>
<feGaussianBlur stdDeviation="21.5"/>
<feColorMatrix type="matrix" values="0 0 0 0 0.537255 0 0 0 0 0.47451 0 0 0 0 0.439216 0 0 0 0.03 0"/>
<feBlend mode="normal" in2="effect3_dropShadow_10157_82903" result="effect4_dropShadow_10157_82903"/>
<feBlend mode="normal" in="SourceGraphic" in2="effect4_dropShadow_10157_82903" result="shape"/>
</filter>
<filter id="filter5_i_10157_82903" x="964.633" y="246.305" width="216.874" height="216.875" filterUnits="userSpaceOnUse" color-interpolation-filters="sRGB">
<feFlood flood-opacity="0" result="BackgroundImageFix"/>
<feBlend mode="normal" in="SourceGraphic" in2="BackgroundImageFix" result="shape"/>
<feColorMatrix in="SourceAlpha" type="matrix" values="0 0 0 0 0 0 0 0 0 0 0 0 0 0 0 0 0 0 127 0" result="hardAlpha"/>
<feOffset/>
<feGaussianBlur stdDeviation="3.1991"/>
<feComposite in2="hardAlpha" operator="arithmetic" k2="-1" k3="1"/>
<feColorMatrix type="matrix" values="0 0 0 0 0 0 0 0 0 0 0 0 0 0 0 0 0 0 0.2 0"/>
<feBlend mode="normal" in2="shape" result="effect1_innerShadow_10157_82903"/>
</filter>
<filter id="filter6_d_10157_82903" x="969.067" y="252.342" width="208.008" height="208.007" filterUnits="userSpaceOnUse" color-interpolation-filters="sRGB">
<feFlood flood-opacity="0" result="BackgroundImageFix"/>
<feColorMatrix in="SourceAlpha" type="matrix" values="0 0 0 0 0 0 0 0 0 0 0 0 0 0 0 0 0 0 127 0" result="hardAlpha"/>
<feOffset dy="1.59955"/>
<feGaussianBlur stdDeviation="3.1991"/>
<feComposite in2="hardAlpha" operator="out"/>
<feColorMatrix type="matrix" values="0 0 0 0 0 0 0 0 0 0 0 0 0 0 0 0 0 0 0.15 0"/>
<feBlend mode="normal" in2="BackgroundImageFix" result="effect1_dropShadow_10157_82903"/>
<feBlend mode="normal" in="SourceGraphic" in2="effect1_dropShadow_10157_82903" result="shape"/>
</filter>
<filter id="filter7_i_10157_82903" x="1012" y="287.896" width="122.683" height="141.352" filterUnits="userSpaceOnUse" color-interpolation-filters="sRGB">
<feFlood flood-opacity="0" result="BackgroundImageFix"/>
<feBlend mode="normal" in="SourceGraphic" in2="BackgroundImageFix" result="shape"/>
<feColorMatrix in="SourceAlpha" type="matrix" values="0 0 0 0 0 0 0 0 0 0 0 0 0 0 0 0 0 0 127 0" result="hardAlpha"/>
<feOffset dy="6.78728"/>
<feGaussianBlur stdDeviation="6.78728"/>
<feComposite in2="hardAlpha" operator="arithmetic" k2="-1" k3="1"/>
<feColorMatrix type="matrix" values="0 0 0 0 0.70599 0 0 0 0 0.23533 0 0 0 0 0 0 0 0 0.5 0"/>
<feBlend mode="normal" in2="shape" result="effect1_innerShadow_10157_82903"/>
</filter>
<filter id="filter8_d_10157_82903" x="633.803" y="415.803" width="193.59" height="193.59" filterUnits="userSpaceOnUse" color-interpolation-filters="sRGB">
<feFlood flood-opacity="0" result="BackgroundImageFix"/>
<feColorMatrix in="SourceAlpha" type="matrix" values="0 0 0 0 0 0 0 0 0 0 0 0 0 0 0 0 0 0 127 0" result="hardAlpha"/>
<feOffset dx="10.5984" dy="10.5984"/>
<feGaussianBlur stdDeviation="15.8976"/>
<feComposite in2="hardAlpha" operator="out"/>
<feColorMatrix type="matrix" values="0 0 0 0 0.878385 0 0 0 0 0.835505 0 0 0 0 0.814065 0 0 0 1 0"/>
<feBlend mode="normal" in2="BackgroundImageFix" result="effect1_dropShadow_10157_82903"/>
<feBlend mode="normal" in="SourceGraphic" in2="effect1_dropShadow_10157_82903" result="shape"/>
</filter>
<linearGradient id="paint0_linear_10157_82903" x1="669.288" y1="331.403" x2="826.343" y2="108.821" gradientUnits="userSpaceOnUse">
<stop stop-color="#E8E7E7"/>
<stop offset="1" stop-color="#FAFAFA"/>
</linearGradient>
<linearGradient id="paint1_linear_10157_82903" x1="1369.79" y1="288.858" x2="1319.52" y2="407.227" gradientUnits="userSpaceOnUse">
<stop stop-color="white"/>
<stop offset="1" stop-color="#EBECEC"/>
</linearGradient>
<linearGradient id="paint2_linear_10157_82903" x1="964.633" y1="354.742" x2="1181.51" y2="354.742" gradientUnits="userSpaceOnUse">
<stop stop-color="#E5E8EF" stop-opacity="0"/>
<stop offset="1" stop-color="#F5F5F5"/>
</linearGradient>
<linearGradient id="paint3_linear_10157_82903" x1="1073.07" y1="257.141" x2="1073.07" y2="452.352" gradientUnits="userSpaceOnUse">
<stop stop-color="white"/>
<stop offset="1" stop-color="#F5F6F7"/>
</linearGradient>
<linearGradient id="paint4_linear_10157_82903" x1="392.5" y1="495" x2="392.5" y2="715" gradientUnits="userSpaceOnUse">
<stop stop-color="#F5F5F5" stop-opacity="0"/>
<stop offset="1" stop-color="#EBECEC"/>
</linearGradient>
<linearGradient id="paint5_linear_10157_82903" x1="742.369" y1="-13.2068" x2="742.369" y2="275.784" gradientUnits="userSpaceOnUse">
<stop stop-color="white" stop-opacity="0"/>
<stop offset="1" stop-color="white"/>
</linearGradient>
<linearGradient id="paint6_linear_10157_82903" x1="747.985" y1="431.082" x2="690.124" y2="567.32" gradientUnits="userSpaceOnUse">
<stop stop-color="white"/>
<stop offset="1" stop-color="#EBECEC"/>
</linearGradient>
</defs>
</svg>
