<svg width="1920" height="715" viewBox="0 0 1920 715" fill="none" xmlns="http://www.w3.org/2000/svg">
<mask id="mask0_10157_87299" style="mask-type:alpha" maskUnits="userSpaceOnUse" x="1496" y="180" width="179" height="179">
<rect x="1496.18" y="180.414" width="178.417" height="178.417" rx="40" fill="#EEEFF1"/>
</mask>
<g mask="url(#mask0_10157_87299)">
<path d="M1536.22 99.1641L1425 291.804" stroke="#CECFCF" stroke-width="0.542321"/>
<path d="M1539.98 101.334L1428.76 293.974" stroke="#CECFCF" stroke-width="0.542321"/>
<path d="M1543.74 103.502L1432.51 296.141" stroke="#CECFCF" stroke-width="0.542321"/>
<path d="M1547.49 105.672L1436.27 298.311" stroke="#CECFCF" stroke-width="0.542321"/>
<path d="M1551.25 107.842L1440.03 300.481" stroke="#CECFCF" stroke-width="0.542321"/>
<path d="M1555.01 110.01L1443.79 302.649" stroke="#CECFCF" stroke-width="0.542321"/>
<path d="M1558.76 112.18L1447.54 304.819" stroke="#CECFCF" stroke-width="0.542321"/>
<path d="M1562.52 114.35L1451.3 306.989" stroke="#CECFCF" stroke-width="0.542321"/>
<path d="M1566.28 116.518L1455.06 309.157" stroke="#CECFCF" stroke-width="0.542321"/>
<path d="M1570.04 118.688L1458.82 311.327" stroke="#CECFCF" stroke-width="0.542321"/>
<path d="M1573.79 120.857L1462.57 313.497" stroke="#CECFCF" stroke-width="0.542321"/>
<path d="M1577.55 123.025L1466.33 315.665" stroke="#CECFCF" stroke-width="0.542321"/>
<path d="M1581.31 125.195L1470.09 317.835" stroke="#CECFCF" stroke-width="0.542321"/>
<path d="M1585.07 127.365L1473.84 320.005" stroke="#CECFCF" stroke-width="0.542321"/>
<path d="M1588.82 129.533L1477.6 322.173" stroke="#CECFCF" stroke-width="0.542321"/>
<path d="M1592.58 131.703L1481.36 324.343" stroke="#CECFCF" stroke-width="0.542321"/>
<path d="M1596.34 133.873L1485.12 326.513" stroke="#CECFCF" stroke-width="0.542321"/>
<path d="M1600.09 136.041L1488.87 328.681" stroke="#CECFCF" stroke-width="0.542321"/>
<path d="M1603.85 138.211L1492.63 330.85" stroke="#CECFCF" stroke-width="0.542321"/>
<path d="M1607.61 140.381L1496.39 333.02" stroke="#CECFCF" stroke-width="0.542321"/>
<path d="M1611.37 142.549L1500.15 335.188" stroke="#CECFCF" stroke-width="0.542321"/>
<path d="M1615.12 144.719L1503.9 337.358" stroke="#CECFCF" stroke-width="0.542321"/>
<path d="M1618.88 146.889L1507.66 339.528" stroke="#CECFCF" stroke-width="0.542321"/>
<path d="M1622.64 149.059L1511.42 341.698" stroke="#CECFCF" stroke-width="0.542321"/>
<path d="M1626.4 151.227L1515.18 343.866" stroke="#CECFCF" stroke-width="0.542321"/>
<path d="M1630.15 153.396L1518.93 346.036" stroke="#CECFCF" stroke-width="0.542321"/>
<path d="M1633.91 155.566L1522.69 348.206" stroke="#CECFCF" stroke-width="0.542321"/>
<path d="M1637.67 157.734L1526.45 350.374" stroke="#CECFCF" stroke-width="0.542321"/>
<path d="M1641.43 159.904L1530.21 352.544" stroke="#CECFCF" stroke-width="0.542321"/>
<path d="M1645.18 162.074L1533.96 354.714" stroke="#CECFCF" stroke-width="0.542321"/>
<path d="M1648.94 164.242L1537.72 356.882" stroke="#CECFCF" stroke-width="0.542321"/>
<path d="M1652.7 166.412L1541.48 359.052" stroke="#CECFCF" stroke-width="0.542321"/>
<path d="M1656.46 168.582L1545.23 361.222" stroke="#CECFCF" stroke-width="0.542321"/>
<path d="M1660.21 170.75L1548.99 363.39" stroke="#CECFCF" stroke-width="0.542321"/>
<path d="M1663.97 172.92L1552.75 365.559" stroke="#CECFCF" stroke-width="0.542321"/>
<path d="M1667.73 175.09L1556.51 367.729" stroke="#CECFCF" stroke-width="0.542321"/>
<path d="M1671.48 177.258L1560.26 369.897" stroke="#CECFCF" stroke-width="0.542321"/>
<path d="M1675.24 179.428L1564.02 372.067" stroke="#CECFCF" stroke-width="0.542321"/>
<path d="M1679 181.598L1567.78 374.237" stroke="#CECFCF" stroke-width="0.542321"/>
<path d="M1682.76 183.766L1571.54 376.405" stroke="#CECFCF" stroke-width="0.542321"/>
<path d="M1686.51 185.936L1575.29 378.575" stroke="#CECFCF" stroke-width="0.542321"/>
<path d="M1690.27 188.105L1579.05 380.745" stroke="#CECFCF" stroke-width="0.542321"/>
<path d="M1694.03 190.273L1582.81 382.913" stroke="#CECFCF" stroke-width="0.542321"/>
<path d="M1697.79 192.443L1586.56 385.083" stroke="#CECFCF" stroke-width="0.542321"/>
<path d="M1701.54 194.613L1590.32 387.253" stroke="#CECFCF" stroke-width="0.542321"/>
<path d="M1705.3 196.781L1594.08 389.421" stroke="#CECFCF" stroke-width="0.542321"/>
<path d="M1709.06 198.951L1597.84 391.591" stroke="#CECFCF" stroke-width="0.542321"/>
<path d="M1712.81 201.121L1601.59 393.761" stroke="#CECFCF" stroke-width="0.542321"/>
<path d="M1716.57 203.289L1605.35 395.929" stroke="#CECFCF" stroke-width="0.542321"/>
<path d="M1720.33 205.459L1609.11 398.099" stroke="#CECFCF" stroke-width="0.542321"/>
<path d="M1724.09 207.629L1612.87 400.268" stroke="#CECFCF" stroke-width="0.542321"/>
<path d="M1727.84 209.797L1616.62 402.436" stroke="#CECFCF" stroke-width="0.542321"/>
<path d="M1731.6 211.967L1620.38 404.606" stroke="#CECFCF" stroke-width="0.542321"/>
<path d="M1735.36 214.137L1624.14 406.776" stroke="#CECFCF" stroke-width="0.542321"/>
<path d="M1739.12 216.305L1627.89 408.944" stroke="#CECFCF" stroke-width="0.542321"/>
<path d="M1742.87 218.475L1631.65 411.114" stroke="#CECFCF" stroke-width="0.542321"/>
<path d="M1746.63 220.645L1635.41 413.284" stroke="#CECFCF" stroke-width="0.542321"/>
<path d="M1750.39 222.812L1639.17 415.452" stroke="#CECFCF" stroke-width="0.542321"/>
<path d="M1754.14 224.982L1642.92 417.622" stroke="#CECFCF" stroke-width="0.542321"/>
<path d="M1757.9 227.152L1646.68 419.792" stroke="#CECFCF" stroke-width="0.542321"/>
<path d="M1761.66 229.32L1650.44 421.96" stroke="#CECFCF" stroke-width="0.542321"/>
<path d="M1765.42 231.49L1654.2 424.13" stroke="#CECFCF" stroke-width="0.542321"/>
<path d="M1769.17 233.66L1657.95 426.3" stroke="#CECFCF" stroke-width="0.542321"/>
</g>
<rect x="573.836" y="-95.793" width="178.417" height="178.417" rx="24" fill="#EEEFF1"/>
<g filter="url(#filter0_dd_10157_87299)">
<rect x="573.836" y="641.879" width="178.417" height="178.417" rx="24" fill="#F5F5F5"/>
</g>
<rect x="758.252" y="-3.58203" width="178.417" height="178.417" rx="24" fill="#EEEFF1"/>
<rect x="942.67" y="-95.793" width="178.417" height="178.417" rx="24" fill="#EEEFF1"/>
<g filter="url(#filter1_d_10157_87299)">
<rect x="942.67" y="88.625" width="178.417" height="178.417" rx="24" fill="#EEEFF1"/>
<rect x="942.67" y="88.625" width="178.417" height="178.417" rx="24" fill="url(#paint0_linear_10157_87299)"/>
</g>
<path opacity="0.4" d="M1031.85 144C1033.93 144 1035.61 145.684 1035.61 147.762V150.766H1037.45C1045.87 150.766 1052.35 157.841 1052.35 166.214C1052.35 168.291 1050.67 169.975 1048.59 169.976C1046.51 169.976 1044.83 168.291 1044.83 166.214C1044.83 161.647 1041.38 158.289 1037.45 158.289H1035.61V175.221L1043.2 177.857L1043.22 177.865C1045.48 178.664 1047.92 179.86 1049.72 182.162C1051.56 184.508 1052.35 187.493 1052.35 191.091C1052.35 198.624 1046.46 205.034 1038.86 205.034H1035.61V207.948C1035.61 210.026 1033.93 211.71 1031.85 211.71C1029.77 211.71 1028.09 210.026 1028.09 207.948V205.034H1026.27C1017.85 205.034 1011.37 197.959 1011.37 189.586C1011.37 187.509 1013.06 185.824 1015.13 185.824C1017.21 185.824 1018.9 187.509 1018.9 189.586C1018.9 194.153 1022.35 197.511 1026.27 197.511H1028.09V180.571L1020.52 177.942L1020.5 177.935C1018.25 177.136 1015.8 175.939 1014 173.638C1012.16 171.291 1011.37 168.307 1011.37 164.709C1011.37 157.176 1017.26 150.766 1024.87 150.766H1028.09V147.762C1028.09 145.684 1029.77 144 1031.85 144ZM1035.61 197.511H1038.86C1041.99 197.511 1044.83 194.793 1044.83 191.091C1044.83 188.57 1044.28 187.417 1043.8 186.804C1043.29 186.146 1042.42 185.562 1040.71 184.956H1040.71L1035.61 183.185V197.511ZM1024.87 158.289C1021.73 158.289 1018.9 161.007 1018.9 164.709C1018.9 167.23 1019.44 168.383 1019.92 168.996C1020.44 169.653 1021.3 170.237 1023.01 170.843L1028.09 172.606V158.289H1024.87Z" fill="#CED1DA"/>
<rect x="1127.09" y="365.254" width="178.417" height="178.417" rx="24" fill="#EEEFF1"/>
<rect x="1127.09" y="549.672" width="178.417" height="178.417" rx="24" fill="#EEEFF1"/>
<rect x="1311.51" y="88.625" width="178.417" height="178.417" rx="24" fill="#EEEFF1"/>
<rect x="1311.51" y="273.043" width="178.417" height="178.417" rx="24" fill="#EEEFF1"/>
<rect x="1311.51" y="457.461" width="178.417" height="178.417" rx="24" fill="#EEEFF1"/>
<g filter="url(#filter2_dd_10157_87299)">
<rect x="1311.51" y="641.879" width="178.417" height="178.417" rx="24" fill="#F5F5F5"/>
</g>
<rect x="1495.92" y="365.254" width="178.417" height="178.417" rx="24" fill="#EEEFF1"/>
<g filter="url(#filter3_d_10157_87299)">
<rect x="1529" y="294" width="112.95" height="112.95" rx="24" fill="url(#paint1_linear_10157_87299)"/>
</g>
<path d="M1585.83 328C1587.23 328 1588.37 329.137 1588.37 330.539V332.566H1589.61C1595.29 332.566 1599.66 337.343 1599.66 342.995C1599.66 344.397 1598.53 345.534 1597.12 345.534C1595.72 345.534 1594.58 344.397 1594.58 342.995C1594.58 339.912 1592.25 337.645 1589.61 337.645H1588.37V349.076L1593.49 350.855L1593.5 350.86L1594.08 351.076C1595.43 351.613 1596.82 352.402 1597.89 353.762C1599.13 355.346 1599.66 357.36 1599.66 359.789C1599.66 364.874 1595.69 369.202 1590.55 369.202H1588.37V371.17C1588.37 372.572 1587.23 373.71 1585.83 373.71C1584.43 373.71 1583.29 372.572 1583.29 371.17V369.202H1582.06C1576.37 369.202 1572 364.426 1572 358.773C1572 357.371 1573.14 356.233 1574.54 356.233C1575.94 356.233 1577.08 357.371 1577.08 358.773C1577.08 361.856 1579.41 364.123 1582.06 364.123H1583.29V352.689L1578.17 350.913L1578.16 350.907C1576.64 350.368 1574.99 349.561 1573.77 348.007C1572.53 346.423 1572 344.407 1572 341.979C1572 336.894 1575.98 332.567 1581.11 332.566H1583.29V330.539C1583.29 329.137 1584.43 328 1585.83 328ZM1588.37 364.123H1590.55C1592.67 364.123 1594.58 362.288 1594.58 359.789C1594.58 358.087 1594.22 357.308 1593.89 356.895C1593.55 356.453 1592.96 356.06 1591.82 355.652V355.653L1588.37 354.453V364.123ZM1581.11 337.645C1578.99 337.645 1577.08 339.48 1577.08 341.979C1577.08 343.681 1577.45 344.459 1577.77 344.873C1578.12 345.317 1578.7 345.711 1579.86 346.12H1579.86L1583.29 347.312V337.645H1581.11Z" fill="#CED1DA"/>
<rect x="942.672" y="641.875" width="178.417" height="178.417" rx="24" fill="#EEEFF1"/>
<rect x="942.672" y="457.461" width="178.417" height="178.417" rx="24" fill="#EEEFF1"/>
<rect x="1678.59" y="88.625" width="178.417" height="178.417" rx="24" fill="#EEEFF1"/>
<rect x="1678.59" y="457.461" width="178.417" height="178.417" rx="24" fill="#EEEFF1"/>
<rect x="1863.59" y="-4" width="178.417" height="178.417" rx="24" fill="#EEEFF1"/>
<rect x="1863.59" y="365.254" width="178.417" height="178.417" rx="24" fill="#EEEFF1"/>
<g filter="url(#filter4_dddd_10157_87299)">
<rect x="1194.92" y="236.597" width="236.29" height="236.29" rx="43.2002" fill="#FEFEFE" stroke="#EBECEC" stroke-width="1.59955"/>
<g filter="url(#filter5_i_10157_87299)">
<rect x="1204.63" y="246.305" width="216.874" height="216.874" rx="34" fill="url(#paint2_linear_10157_87299)"/>
</g>
<g filter="url(#filter6_d_10157_87299)">
<rect x="1215.46" y="257.141" width="195.212" height="195.212" rx="24" fill="url(#paint3_linear_10157_87299)"/>
</g>
<g filter="url(#filter7_i_10157_87299)">
<path d="M1369.18 410.304C1372.22 410.304 1374.68 412.768 1374.68 415.807V416.957C1374.68 419.996 1372.22 422.459 1369.18 422.46H1257.5C1254.46 422.46 1252 419.996 1252 416.957V415.807C1252 412.768 1254.46 410.304 1257.5 410.304H1369.18ZM1281.79 395.39C1284.83 395.39 1287.3 397.854 1287.3 400.893V404.354H1257.8V400.893C1257.8 397.854 1260.27 395.39 1263.31 395.39H1281.79ZM1363.04 395.39C1366.08 395.39 1368.55 397.854 1368.55 400.893V404.354H1339.05V400.893C1339.05 397.854 1341.52 395.39 1344.56 395.39H1363.04ZM1313.33 346.421C1326.52 346.421 1337.2 357.108 1337.21 370.292C1337.21 383.475 1326.52 394.162 1313.33 394.162C1300.15 394.162 1289.46 383.475 1289.46 370.292C1289.46 357.109 1300.15 346.422 1313.33 346.421ZM1281.75 389.882H1263.35V350.804H1281.75V389.882ZM1363 389.882H1344.6V350.804H1363V389.882ZM1313.32 355.428C1312.41 355.428 1311.67 356.167 1311.67 357.078V358.397H1310.26C1306.93 358.397 1304.34 361.208 1304.34 364.511C1304.34 366.089 1304.69 367.398 1305.49 368.427C1306.29 369.437 1307.36 369.962 1308.34 370.312L1308.35 370.316L1311.67 371.469V378.898H1310.88C1309.16 378.898 1307.64 377.425 1307.64 375.422C1307.64 374.511 1306.9 373.772 1305.99 373.772C1305.08 373.772 1304.34 374.511 1304.34 375.422C1304.34 379.094 1307.18 382.197 1310.88 382.197H1311.67V383.473C1311.67 384.384 1312.41 385.124 1313.32 385.124C1314.24 385.124 1314.97 384.384 1314.97 383.473V382.197H1316.4C1319.73 382.197 1322.31 379.385 1322.31 376.082C1322.31 374.504 1321.97 373.195 1321.16 372.167C1320.47 371.283 1319.56 370.77 1318.69 370.421L1318.31 370.282L1318.3 370.278L1314.97 369.122V361.696H1315.78C1317.5 361.696 1319.01 363.169 1319.01 365.171C1319.01 366.083 1319.75 366.822 1320.66 366.822C1321.58 366.822 1322.31 366.083 1322.31 365.171C1322.31 361.499 1319.47 358.397 1315.78 358.397H1314.97V357.078C1314.97 356.167 1314.24 355.428 1313.32 355.428ZM1317.22 373.395V373.394C1317.96 373.659 1318.34 373.915 1318.57 374.202C1318.78 374.471 1319.01 374.976 1319.01 376.082C1319.01 377.705 1317.77 378.898 1316.4 378.898H1314.97V372.615L1317.22 373.395ZM1311.67 367.975L1309.45 367.202H1309.45C1308.7 366.936 1308.32 366.68 1308.09 366.392C1307.88 366.123 1307.64 365.617 1307.64 364.511C1307.64 362.888 1308.89 361.696 1310.26 361.696H1311.67V367.975ZM1287.3 339.676C1287.3 342.715 1284.83 345.179 1281.79 345.179H1263.31C1260.27 345.179 1257.8 342.715 1257.8 339.676V336.215H1287.3V339.676ZM1368.55 339.676C1368.55 342.715 1366.08 345.179 1363.04 345.179H1344.56C1341.52 345.179 1339.05 342.715 1339.05 339.676V336.215H1368.55V339.676ZM1369.34 317.097C1372.31 317.183 1374.68 319.612 1374.68 322.596V325.24C1374.68 328.279 1372.22 330.743 1369.18 330.743H1257.5C1254.46 330.743 1252 328.279 1252 325.24V322.596C1252 319.611 1254.38 317.183 1257.34 317.097H1369.34ZM1310.33 288.671C1312.06 287.641 1314.21 287.633 1315.94 288.65L1354.97 311.566H1272.02L1310.33 288.671Z" fill="#FF5500"/>
</g>
</g>
<rect y="495" width="1920" height="220" fill="url(#paint4_linear_10157_87299)"/>
<rect width="1920" height="220" transform="matrix(1 0 0 -1 0 215)" fill="url(#paint5_linear_10157_87299)"/>
<g filter="url(#filter8_d_10157_87299)">
<rect x="895" y="437" width="130" height="130" rx="24" fill="url(#paint6_linear_10157_87299)"/>
</g>
<path d="M961.644 475.5C962.774 475.5 963.34 475.5 963.8 475.682C964.386 475.913 964.869 476.35 965.157 476.91C965.384 477.35 965.44 477.913 965.553 479.038C965.765 481.168 965.871 482.233 966.316 482.818C966.883 483.563 967.807 483.946 968.734 483.82C969.463 483.722 970.292 483.043 971.951 481.686C972.829 480.967 973.268 480.609 973.74 480.458C974.339 480.267 974.987 480.299 975.564 480.549C976.019 480.746 976.42 481.147 977.222 481.948L979.543 484.27C980.345 485.072 980.746 485.473 980.943 485.929C981.193 486.505 981.225 487.153 981.034 487.751C980.883 488.223 980.524 488.663 979.806 489.541C978.445 491.203 977.766 492.035 977.668 492.766C977.544 493.69 977.925 494.61 978.666 495.176C979.252 495.624 980.321 495.731 982.458 495.944C983.587 496.057 984.153 496.114 984.594 496.342C985.152 496.63 985.586 497.111 985.817 497.694C986 498.156 986 498.723 986 499.858V503.145C986 504.275 986 504.84 985.818 505.3C985.587 505.886 985.151 506.37 984.59 506.658C984.15 506.884 983.588 506.94 982.463 507.053C980.334 507.266 979.269 507.372 978.685 507.816C977.939 508.383 977.556 509.308 977.682 510.236C977.781 510.964 978.458 511.792 979.812 513.447C980.528 514.322 980.886 514.759 981.037 515.229C981.23 515.83 981.197 516.481 980.945 517.06C980.748 517.513 980.35 517.912 979.551 518.711L977.226 521.036C976.424 521.838 976.023 522.239 975.568 522.436C974.992 522.685 974.344 522.717 973.745 522.526C973.273 522.376 972.834 522.017 971.956 521.299C970.295 519.94 969.464 519.26 968.733 519.162C967.808 519.038 966.888 519.419 966.321 520.161C965.874 520.747 965.767 521.816 965.554 523.954C965.441 525.086 965.384 525.653 965.155 526.095C964.867 526.652 964.387 527.085 963.805 527.316C963.343 527.5 962.774 527.5 961.638 527.5H958.358C957.223 527.5 956.655 527.5 956.193 527.317C955.61 527.086 955.13 526.651 954.842 526.094C954.614 525.653 954.558 525.088 954.444 523.957C954.231 521.821 954.123 520.752 953.677 520.167C953.11 519.424 952.189 519.042 951.263 519.167C950.533 519.265 949.703 519.945 948.043 521.303C947.166 522.02 946.728 522.38 946.256 522.53C945.657 522.722 945.008 522.689 944.431 522.438C943.976 522.242 943.576 521.841 942.774 521.04L940.45 518.716C939.651 517.916 939.251 517.516 939.054 517.062C938.803 516.485 938.77 515.835 938.962 515.235C939.113 514.764 939.471 514.325 940.188 513.449C941.543 511.791 942.222 510.963 942.32 510.234C942.446 509.307 942.063 508.383 941.318 507.816C940.733 507.372 939.668 507.265 937.538 507.053C936.412 506.94 935.85 506.884 935.41 506.657C934.85 506.369 934.413 505.887 934.182 505.301C934 504.841 934 504.275 934 503.144V499.859C934 498.723 934 498.155 934.183 497.693C934.414 497.11 934.849 496.63 935.406 496.342C935.847 496.114 936.413 496.057 937.543 495.944C939.682 495.73 940.752 495.623 941.338 495.175C942.078 494.609 942.459 493.69 942.336 492.767C942.238 492.035 941.557 491.202 940.195 489.538C939.476 488.659 939.115 488.218 938.965 487.745C938.775 487.148 938.807 486.501 939.056 485.926C939.253 485.47 939.655 485.068 940.458 484.265L942.779 481.943C943.58 481.143 943.98 480.743 944.435 480.546C945.012 480.295 945.661 480.262 946.261 480.454C946.732 480.605 947.171 480.964 948.048 481.682C949.705 483.037 950.534 483.715 951.261 483.814C952.189 483.941 953.114 483.558 953.682 482.812C954.126 482.227 954.233 481.164 954.445 479.036C954.558 477.912 954.614 477.35 954.84 476.911C955.128 476.35 955.611 475.912 956.198 475.681C956.658 475.5 957.223 475.5 958.353 475.5H961.644ZM960 491.102C954.256 491.102 949.6 495.758 949.6 501.502C949.6 507.246 954.256 511.901 960 511.901C965.743 511.901 970.399 507.245 970.399 501.502C970.399 495.758 965.744 491.102 960 491.102Z" fill="#D9DBE1"/>
<defs>
<filter id="filter0_dd_10157_87299" x="555.15" y="623.193" width="215.789" height="215.789" filterUnits="userSpaceOnUse" color-interpolation-filters="sRGB">
<feFlood flood-opacity="0" result="BackgroundImageFix"/>
<feColorMatrix in="SourceAlpha" type="matrix" values="0 0 0 0 0 0 0 0 0 0 0 0 0 0 0 0 0 0 127 0" result="hardAlpha"/>
<feOffset dx="4.67141" dy="4.67141"/>
<feGaussianBlur stdDeviation="7.00712"/>
<feComposite in2="hardAlpha" operator="out"/>
<feColorMatrix type="matrix" values="0 0 0 0 0.878431 0 0 0 0 0.835294 0 0 0 0 0.815686 0 0 0 0.4 0"/>
<feBlend mode="normal" in2="BackgroundImageFix" result="effect1_dropShadow_10157_87299"/>
<feColorMatrix in="SourceAlpha" type="matrix" values="0 0 0 0 0 0 0 0 0 0 0 0 0 0 0 0 0 0 127 0" result="hardAlpha"/>
<feOffset dx="-4.67141" dy="-4.67141"/>
<feGaussianBlur stdDeviation="7.00712"/>
<feComposite in2="hardAlpha" operator="out"/>
<feColorMatrix type="matrix" values="0 0 0 0 1 0 0 0 0 1 0 0 0 0 1 0 0 0 1 0"/>
<feBlend mode="normal" in2="effect1_dropShadow_10157_87299" result="effect2_dropShadow_10157_87299"/>
<feBlend mode="normal" in="SourceGraphic" in2="effect2_dropShadow_10157_87299" result="shape"/>
</filter>
<filter id="filter1_d_10157_87299" x="921.473" y="67.4282" width="242.008" height="242.008" filterUnits="userSpaceOnUse" color-interpolation-filters="sRGB">
<feFlood flood-opacity="0" result="BackgroundImageFix"/>
<feColorMatrix in="SourceAlpha" type="matrix" values="0 0 0 0 0 0 0 0 0 0 0 0 0 0 0 0 0 0 127 0" result="hardAlpha"/>
<feOffset dx="10.5984" dy="10.5984"/>
<feGaussianBlur stdDeviation="15.8976"/>
<feComposite in2="hardAlpha" operator="out"/>
<feColorMatrix type="matrix" values="0 0 0 0 0.878385 0 0 0 0 0.835505 0 0 0 0 0.814065 0 0 0 1 0"/>
<feBlend mode="normal" in2="BackgroundImageFix" result="effect1_dropShadow_10157_87299"/>
<feBlend mode="normal" in="SourceGraphic" in2="effect1_dropShadow_10157_87299" result="shape"/>
</filter>
<filter id="filter2_dd_10157_87299" x="1292.82" y="623.193" width="215.789" height="215.789" filterUnits="userSpaceOnUse" color-interpolation-filters="sRGB">
<feFlood flood-opacity="0" result="BackgroundImageFix"/>
<feColorMatrix in="SourceAlpha" type="matrix" values="0 0 0 0 0 0 0 0 0 0 0 0 0 0 0 0 0 0 127 0" result="hardAlpha"/>
<feOffset dx="4.67141" dy="4.67141"/>
<feGaussianBlur stdDeviation="7.00712"/>
<feComposite in2="hardAlpha" operator="out"/>
<feColorMatrix type="matrix" values="0 0 0 0 0.878431 0 0 0 0 0.835294 0 0 0 0 0.815686 0 0 0 0.4 0"/>
<feBlend mode="normal" in2="BackgroundImageFix" result="effect1_dropShadow_10157_87299"/>
<feColorMatrix in="SourceAlpha" type="matrix" values="0 0 0 0 0 0 0 0 0 0 0 0 0 0 0 0 0 0 127 0" result="hardAlpha"/>
<feOffset dx="-4.67141" dy="-4.67141"/>
<feGaussianBlur stdDeviation="7.00712"/>
<feComposite in2="hardAlpha" operator="out"/>
<feColorMatrix type="matrix" values="0 0 0 0 1 0 0 0 0 1 0 0 0 0 1 0 0 0 1 0"/>
<feBlend mode="normal" in2="effect1_dropShadow_10157_87299" result="effect2_dropShadow_10157_87299"/>
<feBlend mode="normal" in="SourceGraphic" in2="effect2_dropShadow_10157_87299" result="shape"/>
</filter>
<filter id="filter3_d_10157_87299" x="1507.8" y="272.803" width="176.54" height="176.54" filterUnits="userSpaceOnUse" color-interpolation-filters="sRGB">
<feFlood flood-opacity="0" result="BackgroundImageFix"/>
<feColorMatrix in="SourceAlpha" type="matrix" values="0 0 0 0 0 0 0 0 0 0 0 0 0 0 0 0 0 0 127 0" result="hardAlpha"/>
<feOffset dx="10.5984" dy="10.5984"/>
<feGaussianBlur stdDeviation="15.8976"/>
<feComposite in2="hardAlpha" operator="out"/>
<feColorMatrix type="matrix" values="0 0 0 0 0.878385 0 0 0 0 0.835505 0 0 0 0 0.814065 0 0 0 1 0"/>
<feBlend mode="normal" in2="BackgroundImageFix" result="effect1_dropShadow_10157_87299"/>
<feBlend mode="normal" in="SourceGraphic" in2="effect1_dropShadow_10157_87299" result="shape"/>
</filter>
<filter id="filter4_dddd_10157_87299" x="1151.12" y="227.797" width="323.89" height="395.891" filterUnits="userSpaceOnUse" color-interpolation-filters="sRGB">
<feFlood flood-opacity="0" result="BackgroundImageFix"/>
<feColorMatrix in="SourceAlpha" type="matrix" values="0 0 0 0 0 0 0 0 0 0 0 0 0 0 0 0 0 0 127 0" result="hardAlpha"/>
<feOffset dy="7"/>
<feGaussianBlur stdDeviation="7.5"/>
<feColorMatrix type="matrix" values="0 0 0 0 0.537255 0 0 0 0 0.47451 0 0 0 0 0.439216 0 0 0 0.17 0"/>
<feBlend mode="normal" in2="BackgroundImageFix" result="effect1_dropShadow_10157_87299"/>
<feColorMatrix in="SourceAlpha" type="matrix" values="0 0 0 0 0 0 0 0 0 0 0 0 0 0 0 0 0 0 127 0" result="hardAlpha"/>
<feOffset dy="27"/>
<feGaussianBlur stdDeviation="13.5"/>
<feColorMatrix type="matrix" values="0 0 0 0 0.537255 0 0 0 0 0.47451 0 0 0 0 0.439216 0 0 0 0.14 0"/>
<feBlend mode="normal" in2="effect1_dropShadow_10157_87299" result="effect2_dropShadow_10157_87299"/>
<feColorMatrix in="SourceAlpha" type="matrix" values="0 0 0 0 0 0 0 0 0 0 0 0 0 0 0 0 0 0 127 0" result="hardAlpha"/>
<feOffset dy="60"/>
<feGaussianBlur stdDeviation="18"/>
<feColorMatrix type="matrix" values="0 0 0 0 0.537255 0 0 0 0 0.47451 0 0 0 0 0.439216 0 0 0 0.08 0"/>
<feBlend mode="normal" in2="effect2_dropShadow_10157_87299" result="effect3_dropShadow_10157_87299"/>
<feColorMatrix in="SourceAlpha" type="matrix" values="0 0 0 0 0 0 0 0 0 0 0 0 0 0 0 0 0 0 127 0" result="hardAlpha"/>
<feOffset dy="107"/>
<feGaussianBlur stdDeviation="21.5"/>
<feColorMatrix type="matrix" values="0 0 0 0 0.537255 0 0 0 0 0.47451 0 0 0 0 0.439216 0 0 0 0.03 0"/>
<feBlend mode="normal" in2="effect3_dropShadow_10157_87299" result="effect4_dropShadow_10157_87299"/>
<feBlend mode="normal" in="SourceGraphic" in2="effect4_dropShadow_10157_87299" result="shape"/>
</filter>
<filter id="filter5_i_10157_87299" x="1204.63" y="246.305" width="216.874" height="216.875" filterUnits="userSpaceOnUse" color-interpolation-filters="sRGB">
<feFlood flood-opacity="0" result="BackgroundImageFix"/>
<feBlend mode="normal" in="SourceGraphic" in2="BackgroundImageFix" result="shape"/>
<feColorMatrix in="SourceAlpha" type="matrix" values="0 0 0 0 0 0 0 0 0 0 0 0 0 0 0 0 0 0 127 0" result="hardAlpha"/>
<feOffset/>
<feGaussianBlur stdDeviation="3.1991"/>
<feComposite in2="hardAlpha" operator="arithmetic" k2="-1" k3="1"/>
<feColorMatrix type="matrix" values="0 0 0 0 0 0 0 0 0 0 0 0 0 0 0 0 0 0 0.2 0"/>
<feBlend mode="normal" in2="shape" result="effect1_innerShadow_10157_87299"/>
</filter>
<filter id="filter6_d_10157_87299" x="1209.07" y="252.342" width="208.008" height="208.007" filterUnits="userSpaceOnUse" color-interpolation-filters="sRGB">
<feFlood flood-opacity="0" result="BackgroundImageFix"/>
<feColorMatrix in="SourceAlpha" type="matrix" values="0 0 0 0 0 0 0 0 0 0 0 0 0 0 0 0 0 0 127 0" result="hardAlpha"/>
<feOffset dy="1.59955"/>
<feGaussianBlur stdDeviation="3.1991"/>
<feComposite in2="hardAlpha" operator="out"/>
<feColorMatrix type="matrix" values="0 0 0 0 0 0 0 0 0 0 0 0 0 0 0 0 0 0 0.15 0"/>
<feBlend mode="normal" in2="BackgroundImageFix" result="effect1_dropShadow_10157_87299"/>
<feBlend mode="normal" in="SourceGraphic" in2="effect1_dropShadow_10157_87299" result="shape"/>
</filter>
<filter id="filter7_i_10157_87299" x="1252" y="287.893" width="122.683" height="141.354" filterUnits="userSpaceOnUse" color-interpolation-filters="sRGB">
<feFlood flood-opacity="0" result="BackgroundImageFix"/>
<feBlend mode="normal" in="SourceGraphic" in2="BackgroundImageFix" result="shape"/>
<feColorMatrix in="SourceAlpha" type="matrix" values="0 0 0 0 0 0 0 0 0 0 0 0 0 0 0 0 0 0 127 0" result="hardAlpha"/>
<feOffset dy="6.78728"/>
<feGaussianBlur stdDeviation="6.78728"/>
<feComposite in2="hardAlpha" operator="arithmetic" k2="-1" k3="1"/>
<feColorMatrix type="matrix" values="0 0 0 0 0.70599 0 0 0 0 0.23533 0 0 0 0 0 0 0 0 0.5 0"/>
<feBlend mode="normal" in2="shape" result="effect1_innerShadow_10157_87299"/>
</filter>
<filter id="filter8_d_10157_87299" x="873.803" y="415.803" width="193.59" height="193.59" filterUnits="userSpaceOnUse" color-interpolation-filters="sRGB">
<feFlood flood-opacity="0" result="BackgroundImageFix"/>
<feColorMatrix in="SourceAlpha" type="matrix" values="0 0 0 0 0 0 0 0 0 0 0 0 0 0 0 0 0 0 127 0" result="hardAlpha"/>
<feOffset dx="10.5984" dy="10.5984"/>
<feGaussianBlur stdDeviation="15.8976"/>
<feComposite in2="hardAlpha" operator="out"/>
<feColorMatrix type="matrix" values="0 0 0 0 0.878385 0 0 0 0 0.835505 0 0 0 0 0.814065 0 0 0 1 0"/>
<feBlend mode="normal" in2="BackgroundImageFix" result="effect1_dropShadow_10157_87299"/>
<feBlend mode="normal" in="SourceGraphic" in2="effect1_dropShadow_10157_87299" result="shape"/>
</filter>
<linearGradient id="paint0_linear_10157_87299" x1="909.288" y1="331.401" x2="1066.34" y2="108.819" gradientUnits="userSpaceOnUse">
<stop stop-color="#E8E7E7"/>
<stop offset="1" stop-color="#FAFAFA"/>
</linearGradient>
<linearGradient id="paint1_linear_10157_87299" x1="1609.79" y1="288.858" x2="1559.52" y2="407.227" gradientUnits="userSpaceOnUse">
<stop stop-color="white"/>
<stop offset="1" stop-color="#EBECEC"/>
</linearGradient>
<linearGradient id="paint2_linear_10157_87299" x1="1204.63" y1="354.742" x2="1421.51" y2="354.742" gradientUnits="userSpaceOnUse">
<stop stop-color="#E5E8EF" stop-opacity="0"/>
<stop offset="1" stop-color="#F5F5F5"/>
</linearGradient>
<linearGradient id="paint3_linear_10157_87299" x1="1313.07" y1="257.141" x2="1313.07" y2="452.352" gradientUnits="userSpaceOnUse">
<stop stop-color="white"/>
<stop offset="1" stop-color="#F5F6F7"/>
</linearGradient>
<linearGradient id="paint4_linear_10157_87299" x1="523.333" y1="495" x2="523.333" y2="715" gradientUnits="userSpaceOnUse">
<stop stop-color="#F5F5F5" stop-opacity="0"/>
<stop offset="1" stop-color="#EBECEC"/>
</linearGradient>
<linearGradient id="paint5_linear_10157_87299" x1="989.825" y1="-13.2068" x2="989.825" y2="275.784" gradientUnits="userSpaceOnUse">
<stop stop-color="white" stop-opacity="0"/>
<stop offset="1" stop-color="white"/>
</linearGradient>
<linearGradient id="paint6_linear_10157_87299" x1="987.985" y1="431.082" x2="930.124" y2="567.32" gradientUnits="userSpaceOnUse">
<stop stop-color="white"/>
<stop offset="1" stop-color="#EBECEC"/>
</linearGradient>
</defs>
</svg>
