<svg width="768" height="717" viewBox="0 0 768 717" fill="none" xmlns="http://www.w3.org/2000/svg">
<g clip-path="url(#clip0_10157_91927)">
<mask id="mask0_10157_91927" style="mask-type:alpha" maskUnits="userSpaceOnUse" x="506" y="425" width="119" height="119">
<rect x="506.682" y="425.434" width="118.114" height="118.114" rx="26.4804" fill="#EEEFF1"/>
</mask>
<g mask="url(#mask0_10157_91927)">
<path d="M533.193 379.645L459.564 507.174" stroke="#CECFCF" stroke-width="0.359023"/>
<path d="M535.681 381.08L462.051 508.61" stroke="#CECFCF" stroke-width="0.359023"/>
<path d="M538.168 382.518L464.539 510.047" stroke="#CECFCF" stroke-width="0.359023"/>
<path d="M540.655 383.953L467.026 511.483" stroke="#CECFCF" stroke-width="0.359023"/>
<path d="M543.143 385.389L469.513 512.918" stroke="#CECFCF" stroke-width="0.359023"/>
<path d="M545.63 386.824L472.001 514.354" stroke="#CECFCF" stroke-width="0.359023"/>
<path d="M548.117 388.262L474.488 515.791" stroke="#CECFCF" stroke-width="0.359023"/>
<path d="M550.605 389.697L476.976 517.227" stroke="#CECFCF" stroke-width="0.359023"/>
<path d="M553.093 391.133L479.464 518.662" stroke="#CECFCF" stroke-width="0.359023"/>
<path d="M555.58 392.57L481.951 520.1" stroke="#CECFCF" stroke-width="0.359023"/>
<path d="M558.067 394.006L484.438 521.535" stroke="#CECFCF" stroke-width="0.359023"/>
<path d="M560.555 395.441L486.925 522.971" stroke="#CECFCF" stroke-width="0.359023"/>
<path d="M563.042 396.877L489.413 524.406" stroke="#CECFCF" stroke-width="0.359023"/>
<path d="M565.529 398.314L491.9 525.844" stroke="#CECFCF" stroke-width="0.359023"/>
<path d="M568.017 399.75L494.387 527.28" stroke="#CECFCF" stroke-width="0.359023"/>
<path d="M570.504 401.186L496.875 528.715" stroke="#CECFCF" stroke-width="0.359023"/>
<path d="M572.991 402.621L499.362 530.151" stroke="#CECFCF" stroke-width="0.359023"/>
<path d="M575.479 404.059L501.849 531.588" stroke="#CECFCF" stroke-width="0.359023"/>
<path d="M577.966 405.494L504.337 533.024" stroke="#CECFCF" stroke-width="0.359023"/>
<path d="M580.454 406.93L506.825 534.459" stroke="#CECFCF" stroke-width="0.359023"/>
<path d="M582.941 408.367L509.312 535.897" stroke="#CECFCF" stroke-width="0.359023"/>
<path d="M585.429 409.803L511.8 537.332" stroke="#CECFCF" stroke-width="0.359023"/>
<path d="M587.916 411.238L514.287 538.768" stroke="#CECFCF" stroke-width="0.359023"/>
<path d="M590.403 412.674L516.774 540.203" stroke="#CECFCF" stroke-width="0.359023"/>
<path d="M592.891 414.111L519.261 541.641" stroke="#CECFCF" stroke-width="0.359023"/>
<path d="M595.378 415.547L521.749 543.076" stroke="#CECFCF" stroke-width="0.359023"/>
<path d="M597.865 416.982L524.236 544.512" stroke="#CECFCF" stroke-width="0.359023"/>
<path d="M600.353 418.42L526.723 545.949" stroke="#CECFCF" stroke-width="0.359023"/>
<path d="M602.84 419.855L529.211 547.385" stroke="#CECFCF" stroke-width="0.359023"/>
<path d="M605.327 421.291L531.698 548.821" stroke="#CECFCF" stroke-width="0.359023"/>
<path d="M607.814 422.727L534.185 550.256" stroke="#CECFCF" stroke-width="0.359023"/>
<path d="M610.302 424.164L536.673 551.694" stroke="#CECFCF" stroke-width="0.359023"/>
<path d="M612.79 425.6L539.161 553.129" stroke="#CECFCF" stroke-width="0.359023"/>
<path d="M615.277 427.035L541.648 554.565" stroke="#CECFCF" stroke-width="0.359023"/>
<path d="M617.765 428.471L544.135 556" stroke="#CECFCF" stroke-width="0.359023"/>
<path d="M620.252 429.908L546.623 557.438" stroke="#CECFCF" stroke-width="0.359023"/>
<path d="M622.739 431.344L549.11 558.873" stroke="#CECFCF" stroke-width="0.359023"/>
<path d="M625.227 432.779L551.597 560.309" stroke="#CECFCF" stroke-width="0.359023"/>
<path d="M627.714 434.217L554.085 561.746" stroke="#CECFCF" stroke-width="0.359023"/>
<path d="M630.201 435.652L556.572 563.182" stroke="#CECFCF" stroke-width="0.359023"/>
<path d="M632.688 437.088L559.059 564.617" stroke="#CECFCF" stroke-width="0.359023"/>
<path d="M635.176 438.523L561.547 566.053" stroke="#CECFCF" stroke-width="0.359023"/>
<path d="M637.663 439.961L564.034 567.49" stroke="#CECFCF" stroke-width="0.359023"/>
<path d="M640.15 441.396L566.521 568.926" stroke="#CECFCF" stroke-width="0.359023"/>
<path d="M642.639 442.832L569.009 570.362" stroke="#CECFCF" stroke-width="0.359023"/>
<path d="M645.126 444.27L571.497 571.799" stroke="#CECFCF" stroke-width="0.359023"/>
<path d="M647.613 445.705L573.984 573.235" stroke="#CECFCF" stroke-width="0.359023"/>
<path d="M650.101 447.141L576.471 574.67" stroke="#CECFCF" stroke-width="0.359023"/>
<path d="M652.588 448.576L578.959 576.106" stroke="#CECFCF" stroke-width="0.359023"/>
<path d="M655.075 450.014L581.446 577.543" stroke="#CECFCF" stroke-width="0.359023"/>
<path d="M657.562 451.449L583.933 578.979" stroke="#CECFCF" stroke-width="0.359023"/>
<path d="M660.05 452.885L586.421 580.414" stroke="#CECFCF" stroke-width="0.359023"/>
<path d="M662.537 454.32L588.908 581.85" stroke="#CECFCF" stroke-width="0.359023"/>
<path d="M665.024 455.758L591.395 583.287" stroke="#CECFCF" stroke-width="0.359023"/>
<path d="M667.512 457.193L593.883 584.723" stroke="#CECFCF" stroke-width="0.359023"/>
<path d="M669.999 458.629L596.37 586.158" stroke="#CECFCF" stroke-width="0.359023"/>
<path d="M672.487 460.066L598.858 587.596" stroke="#CECFCF" stroke-width="0.359023"/>
<path d="M674.975 461.502L601.345 589.031" stroke="#CECFCF" stroke-width="0.359023"/>
<path d="M677.462 462.938L603.833 590.467" stroke="#CECFCF" stroke-width="0.359023"/>
<path d="M679.949 464.373L606.32 591.903" stroke="#CECFCF" stroke-width="0.359023"/>
<path d="M682.437 465.811L608.807 593.34" stroke="#CECFCF" stroke-width="0.359023"/>
<path d="M684.924 467.246L611.295 594.776" stroke="#CECFCF" stroke-width="0.359023"/>
<path d="M687.411 468.682L613.782 596.211" stroke="#CECFCF" stroke-width="0.359023"/>
</g>
<rect x="-103.934" y="306" width="118.114" height="118.114" rx="15.8883" fill="#EEEFF1"/>
<g filter="url(#filter0_dd_10157_91927)">
<rect x="-38.9336" y="669.887" width="118.114" height="118.114" rx="15.8883" fill="#F5F5F5"/>
</g>
<rect x="18.168" y="306" width="118.114" height="118.114" rx="15.8883" fill="#EEEFF1"/>
<rect x="140.254" y="243" width="118.114" height="118.114" rx="15.8883" fill="#EEEFF1"/>
<g filter="url(#filter1_d_10157_91927)">
<rect x="140.254" y="364.668" width="118.114" height="118.114" rx="15.8883" fill="#EEEFF1"/>
<rect x="140.254" y="364.668" width="118.114" height="118.114" rx="15.8883" fill="url(#paint0_linear_10157_91927)"/>
</g>
<path opacity="0.4" d="M199.295 401.33C200.67 401.33 201.785 402.445 201.785 403.82V405.807H203.004C208.576 405.807 212.865 410.49 212.865 416.033C212.865 417.409 211.75 418.523 210.375 418.523C209 418.523 207.885 417.408 207.885 416.033C207.885 413.01 205.6 410.787 203.004 410.787H201.785V421.995L206.81 423.741L206.824 423.747L207.389 423.958C208.714 424.485 210.082 425.258 211.127 426.592C212.344 428.145 212.865 430.12 212.865 432.502C212.865 437.489 208.967 441.733 203.934 441.733H201.785V443.665C201.785 445.04 200.67 446.155 199.295 446.155C197.92 446.155 196.805 445.04 196.805 443.665V441.733H195.6C190.028 441.733 185.738 437.049 185.738 431.506C185.738 430.131 186.853 429.016 188.229 429.016C189.604 429.016 190.719 430.131 190.719 431.506C190.719 434.529 193.004 436.752 195.6 436.752H196.805V425.538L191.794 423.798L191.779 423.793C190.288 423.264 188.671 422.472 187.477 420.948C186.259 419.395 185.738 417.419 185.738 415.037C185.738 410.05 189.637 405.807 194.67 405.807H196.805V403.82C196.805 402.445 197.92 401.33 199.295 401.33ZM201.785 436.752H203.934C206.006 436.752 207.885 434.953 207.885 432.502C207.885 430.833 207.526 430.07 207.208 429.664C206.867 429.229 206.292 428.843 205.16 428.441V428.44L201.785 427.268V436.752ZM194.67 410.787C192.597 410.787 190.719 412.586 190.719 415.037C190.719 416.706 191.078 417.469 191.396 417.875C191.736 418.308 192.306 418.694 193.428 419.093H193.429L196.805 420.265V410.787H194.67Z" fill="#CED1DA"/>
<rect x="262.342" y="547.801" width="118.114" height="118.114" rx="15.8883" fill="#EEEFF1"/>
<rect x="262.342" y="669.887" width="118.114" height="118.114" rx="15.8883" fill="#EEEFF1"/>
<rect x="384.428" y="364.668" width="118.114" height="118.114" rx="15.8883" fill="#EEEFF1"/>
<rect x="384.428" y="486.758" width="118.114" height="118.114" rx="15.8883" fill="#EEEFF1"/>
<rect x="384.428" y="608.844" width="118.114" height="118.114" rx="15.8883" fill="#EEEFF1"/>
<rect x="506.514" y="547.801" width="118.114" height="118.114" rx="15.8883" fill="#EEEFF1"/>
<g filter="url(#filter2_d_10157_91927)">
<rect x="528.41" y="500.629" width="74.774" height="74.774" rx="15.8883" fill="url(#paint1_linear_10157_91927)"/>
</g>
<path d="M566.031 523.137C566.96 523.137 567.712 523.889 567.712 524.817V526.16H568.533C572.295 526.16 575.19 529.321 575.19 533.063C575.19 533.992 574.438 534.745 573.51 534.745C572.581 534.745 571.828 533.992 571.828 533.063C571.828 531.022 570.286 529.521 568.533 529.521H567.712V537.089L571.103 538.268L571.112 538.271L571.493 538.414C572.388 538.77 573.312 539.291 574.018 540.191C574.839 541.24 575.19 542.574 575.19 544.182C575.19 547.548 572.559 550.413 569.161 550.413H567.712V551.716C567.712 552.644 566.96 553.396 566.031 553.396C565.103 553.396 564.351 552.644 564.351 551.716V550.413H563.535C559.773 550.413 556.878 547.251 556.878 543.509C556.878 542.58 557.63 541.828 558.559 541.828C559.487 541.828 560.239 542.58 560.239 543.509C560.239 545.55 561.783 547.051 563.535 547.051H564.351V539.48L560.966 538.306L560.956 538.302C559.949 537.945 558.857 537.41 558.051 536.382C557.229 535.333 556.878 533.999 556.878 532.392C556.878 529.025 559.509 526.16 562.907 526.16H564.351V524.817C564.351 523.889 565.103 523.137 566.031 523.137ZM567.712 547.051H569.161C570.56 547.051 571.828 545.836 571.828 544.182C571.828 543.055 571.586 542.54 571.371 542.266C571.141 541.972 570.753 541.711 569.989 541.44V541.439L567.712 540.648V547.051ZM562.907 529.521C561.508 529.521 560.239 530.737 560.239 532.392C560.239 533.518 560.483 534.034 560.697 534.308C560.927 534.6 561.312 534.86 562.068 535.129H562.069L564.351 535.921V529.521H562.907Z" fill="#CED1DA"/>
<rect x="140.256" y="608.844" width="118.114" height="118.114" rx="15.8883" fill="#EEEFF1"/>
<rect x="627.441" y="364.668" width="118.114" height="118.114" rx="16" fill="#EEEFF1"/>
<rect x="627.441" y="608.844" width="118.114" height="118.114" rx="16" fill="#EEEFF1"/>
<rect x="749.914" y="303.352" width="118.114" height="118.114" rx="16" fill="#EEEFF1"/>
<rect x="749.914" y="547.801" width="118.114" height="118.114" rx="16" fill="#EEEFF1"/>
<g filter="url(#filter3_dddd_10157_91927)">
<rect x="305.786" y="462.627" width="156.427" height="156.427" rx="28.599" fill="#FEFEFE" stroke="#EBECEC" stroke-width="1.05892"/>
<g filter="url(#filter4_i_10157_91927)">
<rect x="312.212" y="469.055" width="143.573" height="143.573" rx="22.5084" fill="url(#paint2_linear_10157_91927)"/>
</g>
<g filter="url(#filter5_d_10157_91927)">
<rect x="319.384" y="476.227" width="129.232" height="129.232" rx="15.8883" fill="url(#paint3_linear_10157_91927)"/>
</g>
<g filter="url(#filter6_i_10157_91927)">
<path d="M421.144 577.625C423.155 577.625 424.787 579.256 424.787 581.268V582.03C424.787 584.041 423.155 585.672 421.144 585.672H347.212C345.2 585.672 343.569 584.041 343.569 582.03V581.268C343.569 579.256 345.2 577.625 347.212 577.625H421.144ZM363.294 567.754C365.306 567.754 366.936 569.385 366.937 571.397V573.688H347.413V571.397C347.413 569.385 349.044 567.754 351.056 567.754H363.294ZM417.081 567.754C419.093 567.754 420.723 569.385 420.724 571.397V573.688H401.2V571.397C401.2 569.385 402.831 567.754 404.843 567.754H417.081ZM384.175 535.336C392.902 535.336 399.977 542.412 399.977 551.139C399.976 559.866 392.902 566.941 384.175 566.941C375.448 566.941 368.372 559.866 368.372 551.139C368.372 542.412 375.447 535.336 384.175 535.336ZM363.264 564.109H351.083V538.239H363.264V564.109ZM417.053 564.109H404.872V538.239H417.053V564.109ZM384.167 541.299C383.564 541.299 383.075 541.788 383.075 542.391V543.268H382.139C379.931 543.268 378.222 545.129 378.222 547.316C378.222 548.36 378.449 549.227 378.983 549.908C379.507 550.577 380.217 550.924 380.871 551.156L380.877 551.158L383.075 551.92V556.839H382.546C381.408 556.839 380.405 555.864 380.405 554.538C380.405 553.935 379.917 553.447 379.313 553.447C378.71 553.447 378.222 553.935 378.222 554.538C378.222 556.969 380.102 559.024 382.546 559.024H383.075V559.866C383.075 560.469 383.564 560.957 384.167 560.957C384.77 560.957 385.259 560.469 385.259 559.866V559.024H386.201C388.409 559.024 390.118 557.162 390.118 554.975C390.118 553.931 389.89 553.064 389.356 552.383C388.898 551.798 388.298 551.459 387.717 551.228L387.469 551.135L387.463 551.133L385.259 550.367V545.451H385.794C386.932 545.452 387.934 546.427 387.935 547.752C387.935 548.355 388.423 548.845 389.026 548.845C389.63 548.845 390.118 548.355 390.118 547.752C390.118 545.322 388.237 543.268 385.794 543.268H385.259V542.391C385.259 541.788 384.77 541.299 384.167 541.299ZM386.739 553.194V553.195C387.235 553.371 387.487 553.54 387.637 553.731C387.776 553.909 387.935 554.243 387.935 554.975C387.935 556.05 387.11 556.839 386.201 556.839H385.259V552.679L386.739 553.194ZM383.075 549.609L381.6 549.097H381.601C381.105 548.921 380.853 548.752 380.703 548.561C380.564 548.383 380.405 548.048 380.405 547.316C380.405 546.241 381.23 545.451 382.139 545.451H383.075V549.609ZM366.937 530.873C366.936 532.885 365.306 534.516 363.294 534.516H351.056C349.044 534.516 347.413 532.885 347.413 530.873V528.582H366.937V530.873ZM420.724 530.873C420.723 532.885 419.093 534.516 417.081 534.516H404.843C402.831 534.516 401.2 532.885 401.2 530.873V528.582H420.724V530.873ZM421.219 515.924C423.196 515.964 424.787 517.578 424.787 519.565V521.316C424.787 523.327 423.155 524.958 421.144 524.958H347.212C345.2 524.958 343.57 523.327 343.569 521.316V519.565C343.569 517.578 345.16 515.964 347.137 515.924H421.219ZM382.185 497.108C383.327 496.425 384.75 496.419 385.897 497.093L411.732 512.262H356.827L382.185 497.108Z" fill="#FF5500"/>
</g>
</g>
<rect y="633.695" width="768" height="145.642" fill="url(#paint4_linear_10157_91927)"/>
<g filter="url(#filter7_d_10157_91927)">
<rect x="108.695" y="595.297" width="86.0615" height="86.0615" rx="15.8883" fill="url(#paint5_linear_10157_91927)"/>
</g>
<path d="M152.814 620.785C153.563 620.785 153.939 620.785 154.243 620.905C154.631 621.058 154.951 621.348 155.142 621.719C155.291 622.01 155.328 622.383 155.402 623.128C155.543 624.538 155.614 625.244 155.909 625.631C156.284 626.124 156.896 626.377 157.51 626.294C157.992 626.228 158.542 625.779 159.64 624.881C160.221 624.406 160.511 624.167 160.823 624.067C161.22 623.941 161.649 623.962 162.031 624.128C162.332 624.258 162.597 624.524 163.128 625.055L164.665 626.591C165.197 627.122 165.462 627.389 165.593 627.69C165.758 628.072 165.779 628.501 165.653 628.896C165.553 629.21 165.315 629.5 164.839 630.082C163.938 631.183 163.487 631.734 163.423 632.219C163.341 632.83 163.593 633.439 164.083 633.813C164.471 634.11 165.18 634.181 166.596 634.323C167.344 634.398 167.719 634.436 168.011 634.587C168.379 634.778 168.667 635.095 168.82 635.48C168.942 635.786 168.941 636.163 168.941 636.915V639.089C168.941 639.837 168.941 640.212 168.821 640.517C168.668 640.905 168.379 641.224 168.008 641.415C167.717 641.565 167.344 641.602 166.599 641.677C165.19 641.817 164.485 641.888 164.099 642.182C163.604 642.557 163.351 643.17 163.435 643.785C163.5 644.266 163.948 644.814 164.844 645.909C165.317 646.488 165.554 646.777 165.654 647.088C165.782 647.486 165.761 647.917 165.594 648.301C165.463 648.6 165.198 648.864 164.67 649.393L163.131 650.933C162.6 651.463 162.334 651.729 162.033 651.859C161.651 652.025 161.223 652.045 160.826 651.919C160.514 651.819 160.223 651.582 159.642 651.106C158.542 650.207 157.991 649.756 157.508 649.691C156.896 649.609 156.286 649.862 155.911 650.354C155.615 650.741 155.545 651.449 155.403 652.864C155.329 653.613 155.291 653.987 155.14 654.279C154.949 654.648 154.631 654.936 154.245 655.089C153.94 655.21 153.563 655.21 152.812 655.21H150.641C149.889 655.21 149.513 655.21 149.208 655.089C148.822 654.936 148.503 654.648 148.312 654.279C148.162 653.987 148.124 653.613 148.049 652.864C147.907 651.451 147.837 650.744 147.541 650.356C147.166 649.865 146.555 649.612 145.942 649.694C145.459 649.76 144.91 650.21 143.812 651.108C143.231 651.583 142.941 651.821 142.629 651.921C142.232 652.048 141.802 652.026 141.42 651.86C141.119 651.73 140.854 651.465 140.324 650.935L138.784 649.395C138.255 648.866 137.991 648.601 137.86 648.301C137.694 647.918 137.673 647.487 137.801 647.09C137.901 646.778 138.137 646.488 138.61 645.909C139.507 644.813 139.956 644.266 140.021 643.784C140.105 643.169 139.851 642.557 139.357 642.182C138.971 641.888 138.266 641.818 136.857 641.677C136.113 641.602 135.741 641.565 135.45 641.415C135.079 641.224 134.79 640.904 134.637 640.516C134.517 640.212 134.517 639.838 134.517 639.09V636.914C134.517 636.163 134.517 635.787 134.638 635.481C134.791 635.095 135.078 634.777 135.447 634.586C135.739 634.435 136.113 634.398 136.861 634.323C138.277 634.182 138.985 634.111 139.373 633.814C139.863 633.44 140.116 632.831 140.034 632.22C139.97 631.735 139.518 631.184 138.616 630.082C138.139 629.499 137.901 629.207 137.801 628.894C137.675 628.498 137.697 628.07 137.861 627.689C137.992 627.387 138.258 627.121 138.79 626.589L140.327 625.052C140.857 624.522 141.122 624.256 141.423 624.126C141.805 623.96 142.235 623.939 142.632 624.066C142.944 624.166 143.235 624.403 143.815 624.878C144.912 625.775 145.461 626.224 145.942 626.29C146.557 626.374 147.169 626.12 147.544 625.627C147.838 625.24 147.909 624.535 148.05 623.126C148.124 622.382 148.162 622.009 148.312 621.719C148.503 621.348 148.822 621.058 149.211 620.905C149.515 620.786 149.889 620.785 150.637 620.785H152.814ZM151.725 631.113C147.922 631.113 144.84 634.196 144.84 637.998C144.84 641.8 147.922 644.883 151.725 644.883C155.527 644.883 158.609 641.8 158.609 637.998C158.609 634.196 155.527 631.113 151.725 631.113Z" fill="#D9DBE1"/>
<rect x="-1" y="567" width="769" height="165" fill="url(#paint6_linear_10157_91927)"/>
<rect width="768" height="395" transform="matrix(1 0 0 -1 0 390)" fill="url(#paint7_linear_10157_91927)"/>
</g>
<defs>
<filter id="filter0_dd_10157_91927" x="-51.3037" y="657.517" width="142.854" height="142.855" filterUnits="userSpaceOnUse" color-interpolation-filters="sRGB">
<feFlood flood-opacity="0" result="BackgroundImageFix"/>
<feColorMatrix in="SourceAlpha" type="matrix" values="0 0 0 0 0 0 0 0 0 0 0 0 0 0 0 0 0 0 127 0" result="hardAlpha"/>
<feOffset dx="3.09253" dy="3.09253"/>
<feGaussianBlur stdDeviation="4.63879"/>
<feComposite in2="hardAlpha" operator="out"/>
<feColorMatrix type="matrix" values="0 0 0 0 0.878431 0 0 0 0 0.835294 0 0 0 0 0.815686 0 0 0 0.4 0"/>
<feBlend mode="normal" in2="BackgroundImageFix" result="effect1_dropShadow_10157_91927"/>
<feColorMatrix in="SourceAlpha" type="matrix" values="0 0 0 0 0 0 0 0 0 0 0 0 0 0 0 0 0 0 127 0" result="hardAlpha"/>
<feOffset dx="-3.09253" dy="-3.09253"/>
<feGaussianBlur stdDeviation="4.63879"/>
<feComposite in2="hardAlpha" operator="out"/>
<feColorMatrix type="matrix" values="0 0 0 0 1 0 0 0 0 1 0 0 0 0 1 0 0 0 1 0"/>
<feBlend mode="normal" in2="effect1_dropShadow_10157_91927" result="effect2_dropShadow_10157_91927"/>
<feBlend mode="normal" in="SourceGraphic" in2="effect2_dropShadow_10157_91927" result="shape"/>
</filter>
<filter id="filter1_d_10157_91927" x="126.221" y="350.635" width="160.212" height="160.213" filterUnits="userSpaceOnUse" color-interpolation-filters="sRGB">
<feFlood flood-opacity="0" result="BackgroundImageFix"/>
<feColorMatrix in="SourceAlpha" type="matrix" values="0 0 0 0 0 0 0 0 0 0 0 0 0 0 0 0 0 0 127 0" result="hardAlpha"/>
<feOffset dx="7.01626" dy="7.01626"/>
<feGaussianBlur stdDeviation="10.5244"/>
<feComposite in2="hardAlpha" operator="out"/>
<feColorMatrix type="matrix" values="0 0 0 0 0.878385 0 0 0 0 0.835505 0 0 0 0 0.814065 0 0 0 1 0"/>
<feBlend mode="normal" in2="BackgroundImageFix" result="effect1_dropShadow_10157_91927"/>
<feBlend mode="normal" in="SourceGraphic" in2="effect1_dropShadow_10157_91927" result="shape"/>
</filter>
<filter id="filter2_d_10157_91927" x="514.378" y="486.596" width="116.872" height="116.871" filterUnits="userSpaceOnUse" color-interpolation-filters="sRGB">
<feFlood flood-opacity="0" result="BackgroundImageFix"/>
<feColorMatrix in="SourceAlpha" type="matrix" values="0 0 0 0 0 0 0 0 0 0 0 0 0 0 0 0 0 0 127 0" result="hardAlpha"/>
<feOffset dx="7.01626" dy="7.01626"/>
<feGaussianBlur stdDeviation="10.5244"/>
<feComposite in2="hardAlpha" operator="out"/>
<feColorMatrix type="matrix" values="0 0 0 0 0.878385 0 0 0 0 0.835505 0 0 0 0 0.814065 0 0 0 1 0"/>
<feBlend mode="normal" in2="BackgroundImageFix" result="effect1_dropShadow_10157_91927"/>
<feBlend mode="normal" in="SourceGraphic" in2="effect1_dropShadow_10157_91927" result="shape"/>
</filter>
<filter id="filter3_dddd_10157_91927" x="276.79" y="456.802" width="214.418" height="262.084" filterUnits="userSpaceOnUse" color-interpolation-filters="sRGB">
<feFlood flood-opacity="0" result="BackgroundImageFix"/>
<feColorMatrix in="SourceAlpha" type="matrix" values="0 0 0 0 0 0 0 0 0 0 0 0 0 0 0 0 0 0 127 0" result="hardAlpha"/>
<feOffset dy="4.63408"/>
<feGaussianBlur stdDeviation="4.96508"/>
<feColorMatrix type="matrix" values="0 0 0 0 0.537255 0 0 0 0 0.47451 0 0 0 0 0.439216 0 0 0 0.17 0"/>
<feBlend mode="normal" in2="BackgroundImageFix" result="effect1_dropShadow_10157_91927"/>
<feColorMatrix in="SourceAlpha" type="matrix" values="0 0 0 0 0 0 0 0 0 0 0 0 0 0 0 0 0 0 127 0" result="hardAlpha"/>
<feOffset dy="17.8743"/>
<feGaussianBlur stdDeviation="8.93715"/>
<feColorMatrix type="matrix" values="0 0 0 0 0.537255 0 0 0 0 0.47451 0 0 0 0 0.439216 0 0 0 0.14 0"/>
<feBlend mode="normal" in2="effect1_dropShadow_10157_91927" result="effect2_dropShadow_10157_91927"/>
<feColorMatrix in="SourceAlpha" type="matrix" values="0 0 0 0 0 0 0 0 0 0 0 0 0 0 0 0 0 0 127 0" result="hardAlpha"/>
<feOffset dy="39.7207"/>
<feGaussianBlur stdDeviation="11.9162"/>
<feColorMatrix type="matrix" values="0 0 0 0 0.537255 0 0 0 0 0.47451 0 0 0 0 0.439216 0 0 0 0.08 0"/>
<feBlend mode="normal" in2="effect2_dropShadow_10157_91927" result="effect3_dropShadow_10157_91927"/>
<feColorMatrix in="SourceAlpha" type="matrix" values="0 0 0 0 0 0 0 0 0 0 0 0 0 0 0 0 0 0 127 0" result="hardAlpha"/>
<feOffset dy="70.8352"/>
<feGaussianBlur stdDeviation="14.2332"/>
<feColorMatrix type="matrix" values="0 0 0 0 0.537255 0 0 0 0 0.47451 0 0 0 0 0.439216 0 0 0 0.03 0"/>
<feBlend mode="normal" in2="effect3_dropShadow_10157_91927" result="effect4_dropShadow_10157_91927"/>
<feBlend mode="normal" in="SourceGraphic" in2="effect4_dropShadow_10157_91927" result="shape"/>
</filter>
<filter id="filter4_i_10157_91927" x="312.212" y="469.055" width="143.573" height="143.574" filterUnits="userSpaceOnUse" color-interpolation-filters="sRGB">
<feFlood flood-opacity="0" result="BackgroundImageFix"/>
<feBlend mode="normal" in="SourceGraphic" in2="BackgroundImageFix" result="shape"/>
<feColorMatrix in="SourceAlpha" type="matrix" values="0 0 0 0 0 0 0 0 0 0 0 0 0 0 0 0 0 0 127 0" result="hardAlpha"/>
<feOffset/>
<feGaussianBlur stdDeviation="2.11784"/>
<feComposite in2="hardAlpha" operator="arithmetic" k2="-1" k3="1"/>
<feColorMatrix type="matrix" values="0 0 0 0 0 0 0 0 0 0 0 0 0 0 0 0 0 0 0.2 0"/>
<feBlend mode="normal" in2="shape" result="effect1_innerShadow_10157_91927"/>
</filter>
<filter id="filter5_d_10157_91927" x="315.148" y="473.05" width="137.704" height="137.704" filterUnits="userSpaceOnUse" color-interpolation-filters="sRGB">
<feFlood flood-opacity="0" result="BackgroundImageFix"/>
<feColorMatrix in="SourceAlpha" type="matrix" values="0 0 0 0 0 0 0 0 0 0 0 0 0 0 0 0 0 0 127 0" result="hardAlpha"/>
<feOffset dy="1.05892"/>
<feGaussianBlur stdDeviation="2.11784"/>
<feComposite in2="hardAlpha" operator="out"/>
<feColorMatrix type="matrix" values="0 0 0 0 0 0 0 0 0 0 0 0 0 0 0 0 0 0 0.15 0"/>
<feBlend mode="normal" in2="BackgroundImageFix" result="effect1_dropShadow_10157_91927"/>
<feBlend mode="normal" in="SourceGraphic" in2="effect1_dropShadow_10157_91927" result="shape"/>
</filter>
<filter id="filter6_i_10157_91927" x="343.569" y="496.592" width="81.2178" height="93.5733" filterUnits="userSpaceOnUse" color-interpolation-filters="sRGB">
<feFlood flood-opacity="0" result="BackgroundImageFix"/>
<feBlend mode="normal" in="SourceGraphic" in2="BackgroundImageFix" result="shape"/>
<feColorMatrix in="SourceAlpha" type="matrix" values="0 0 0 0 0 0 0 0 0 0 0 0 0 0 0 0 0 0 127 0" result="hardAlpha"/>
<feOffset dy="4.49325"/>
<feGaussianBlur stdDeviation="4.49325"/>
<feComposite in2="hardAlpha" operator="arithmetic" k2="-1" k3="1"/>
<feColorMatrix type="matrix" values="0 0 0 0 0.70599 0 0 0 0 0.23533 0 0 0 0 0 0 0 0 0.5 0"/>
<feBlend mode="normal" in2="shape" result="effect1_innerShadow_10157_91927"/>
</filter>
<filter id="filter7_d_10157_91927" x="94.6628" y="581.264" width="128.159" height="128.158" filterUnits="userSpaceOnUse" color-interpolation-filters="sRGB">
<feFlood flood-opacity="0" result="BackgroundImageFix"/>
<feColorMatrix in="SourceAlpha" type="matrix" values="0 0 0 0 0 0 0 0 0 0 0 0 0 0 0 0 0 0 127 0" result="hardAlpha"/>
<feOffset dx="7.01626" dy="7.01626"/>
<feGaussianBlur stdDeviation="10.5244"/>
<feComposite in2="hardAlpha" operator="out"/>
<feColorMatrix type="matrix" values="0 0 0 0 0.878385 0 0 0 0 0.835505 0 0 0 0 0.814065 0 0 0 1 0"/>
<feBlend mode="normal" in2="BackgroundImageFix" result="effect1_dropShadow_10157_91927"/>
<feBlend mode="normal" in="SourceGraphic" in2="effect1_dropShadow_10157_91927" result="shape"/>
</filter>
<linearGradient id="paint0_linear_10157_91927" x1="118.155" y1="525.388" x2="222.127" y2="378.037" gradientUnits="userSpaceOnUse">
<stop stop-color="#E8E7E7"/>
<stop offset="1" stop-color="#FAFAFA"/>
</linearGradient>
<linearGradient id="paint1_linear_10157_91927" x1="581.894" y1="497.225" x2="548.613" y2="575.587" gradientUnits="userSpaceOnUse">
<stop stop-color="white"/>
<stop offset="1" stop-color="#EBECEC"/>
</linearGradient>
<linearGradient id="paint2_linear_10157_91927" x1="312.212" y1="540.841" x2="455.785" y2="540.841" gradientUnits="userSpaceOnUse">
<stop stop-color="#E5E8EF" stop-opacity="0"/>
<stop offset="1" stop-color="#F5F5F5"/>
</linearGradient>
<linearGradient id="paint3_linear_10157_91927" x1="384" y1="476.227" x2="384" y2="605.459" gradientUnits="userSpaceOnUse">
<stop stop-color="white"/>
<stop offset="1" stop-color="#F5F6F7"/>
</linearGradient>
<linearGradient id="paint4_linear_10157_91927" x1="209.333" y1="633.695" x2="209.333" y2="779.338" gradientUnits="userSpaceOnUse">
<stop stop-color="#F5F5F5" stop-opacity="0"/>
<stop offset="1" stop-color="#EBECEC"/>
</linearGradient>
<linearGradient id="paint5_linear_10157_91927" x1="170.252" y1="591.379" x2="131.948" y2="681.57" gradientUnits="userSpaceOnUse">
<stop stop-color="white"/>
<stop offset="1" stop-color="#EBECEC"/>
</linearGradient>
<linearGradient id="paint6_linear_10157_91927" x1="208.606" y1="567" x2="208.606" y2="732" gradientUnits="userSpaceOnUse">
<stop stop-color="#F5F5F5" stop-opacity="0"/>
<stop offset="1" stop-color="#EBECEC"/>
</linearGradient>
<linearGradient id="paint7_linear_10157_91927" x1="395.93" y1="-23.7122" x2="395.93" y2="495.158" gradientUnits="userSpaceOnUse">
<stop stop-color="white" stop-opacity="0"/>
<stop offset="1" stop-color="white"/>
</linearGradient>
<clipPath id="clip0_10157_91927">
<rect width="768" height="717" fill="white"/>
</clipPath>
</defs>
</svg>
