<svg width="24" height="25" viewBox="0 0 24 25" fill="none" xmlns="http://www.w3.org/2000/svg">
<path d="M12.8796 2.27905C12.6724 2.26098 12.4637 2.28619 12.2668 2.35309C12.0699 2.41998 11.889 2.52709 11.7357 2.66762C11.5824 2.80815 11.46 2.97902 11.3763 3.16939C11.2925 3.35975 11.2493 3.56545 11.2493 3.77342V7.58624C11.2467 7.94003 11.3703 8.28315 11.598 8.55396C11.8257 8.82477 12.1425 9.00552 12.4915 9.06374C13.0491 9.15728 13.5689 9.40649 13.991 9.78264C14.4131 10.1588 14.7203 10.6466 14.8772 11.1897C15.0341 11.7329 15.0344 12.3093 14.8779 12.8526C14.7214 13.3959 14.4146 13.884 13.9928 14.2605C13.571 14.637 13.0514 14.8866 12.4939 14.9806C11.9364 15.0746 11.3637 15.0092 10.8418 14.7918C10.3198 14.5745 9.86994 14.2141 9.54396 13.7521C9.21797 13.2902 9.02916 12.7455 8.99928 12.1809C8.96084 11.4103 9.11834 10.7747 9.46803 10.2815C9.67355 9.99486 9.77045 9.64445 9.74143 9.2929C9.7124 8.94136 9.55934 8.61158 9.30959 8.36249L6.72022 5.71217C6.57262 5.56457 6.39584 5.4494 6.20119 5.37402C6.00653 5.29865 5.79829 5.26473 5.58978 5.27443C5.38127 5.28414 5.17708 5.33726 4.99027 5.43039C4.80346 5.52352 4.63815 5.65462 4.5049 5.8153C2.94207 7.68841 2.14133 10.081 2.26187 12.5175C2.38242 14.954 3.41543 17.2559 5.15553 18.9656C6.97502 20.7708 9.43624 21.7806 11.9993 21.7734H12.139C14.6745 21.7303 17.094 20.7038 18.8871 18.9106C20.6801 17.1173 21.7064 14.6977 21.7493 12.1622C21.8196 7.07155 17.9233 2.73092 12.8796 2.27905ZM5.65428 6.7678L8.24272 9.41061V9.41624C7.8585 9.96761 7.61721 10.6058 7.54053 11.2734H3.78303C3.93323 9.61599 4.58611 8.04398 5.65428 6.7678ZM3.78396 12.7734H7.56209C7.71762 13.6949 8.15621 14.5452 8.81695 15.2061C9.47769 15.867 10.3278 16.3058 11.2493 16.4615V20.2397C9.32838 20.0642 7.5297 19.2212 6.16585 17.8572C4.802 16.4931 3.95921 14.6943 3.78396 12.7734ZM17.8249 17.849C16.4664 19.217 14.6693 20.0625 12.7493 20.2369V16.4615C13.6184 16.3169 14.4252 15.9179 15.0677 15.315C15.682 14.7427 16.1239 14.01 16.3435 13.1997C16.5631 12.3894 16.5517 11.5338 16.3105 10.7297C16.0693 9.92555 15.608 9.20492 14.9786 8.64925C14.3493 8.09359 13.5771 7.72505 12.7493 7.5853V3.77342C17.0168 4.15592 20.3121 7.83092 20.2493 12.1406C20.2198 14.2875 19.3493 16.3371 17.8249 17.849Z" fill="#FF5500"/>
</svg>
