<svg width="24" height="25" viewBox="0 0 24 25" fill="none" xmlns="http://www.w3.org/2000/svg">
<path d="M12 2.27344C10.0716 2.27344 8.18657 2.84527 6.58319 3.91661C4.97982 4.98795 3.73013 6.51069 2.99218 8.29227C2.25422 10.0739 2.06114 12.0343 2.43735 13.9256C2.81355 15.8169 3.74215 17.5542 5.10571 18.9177C6.46928 20.2813 8.20656 21.2099 10.0979 21.5861C11.9892 21.9623 13.9496 21.7692 15.7312 21.0313C17.5127 20.2933 19.0355 19.0436 20.1068 17.4402C21.1782 15.8369 21.75 13.9518 21.75 12.0234C21.7473 9.43841 20.7192 6.96005 18.8913 5.13216C17.0634 3.30427 14.585 2.27617 12 2.27344ZM20.2153 11.2734H16.4813C16.3491 8.60531 15.5184 6.07313 14.1263 4.05469C15.7568 4.49244 17.2142 5.41879 18.3027 6.70926C19.3912 7.99973 20.0587 9.59247 20.2153 11.2734ZM12 20.2631C10.2441 18.3628 9.17907 15.6694 9.02157 12.7734H14.9784C14.8209 15.6675 13.7559 18.3628 12 20.2631ZM9.02157 11.2734C9.17907 8.37937 10.2403 5.68406 12 3.78375C13.7559 5.68406 14.8209 8.3775 14.9784 11.2734H9.02157ZM9.87375 4.05469C8.48157 6.07313 7.65094 8.60531 7.51875 11.2734H3.78469C3.94133 9.59247 4.60876 7.99973 5.69728 6.70926C6.7858 5.41879 8.24324 4.49244 9.87375 4.05469ZM3.78469 12.7734H7.51875C7.65094 15.4416 8.48157 17.9737 9.87375 19.9922C8.24324 19.5544 6.7858 18.6281 5.69728 17.3376C4.60876 16.0471 3.94133 14.4544 3.78469 12.7734ZM14.1263 19.9922C15.5184 17.9709 16.3491 15.4388 16.4813 12.7734H20.2153C20.0587 14.4544 19.3912 16.0471 18.3027 17.3376C17.2142 18.6281 15.7568 19.5544 14.1263 19.9922Z" fill="#FF5500"/>
</svg>
