<svg width="24" height="25" viewBox="0 0 24 25" fill="none" xmlns="http://www.w3.org/2000/svg">
<path d="M15.9038 12.6169L20.101 10.7925C20.3775 10.6699 20.6104 10.4666 20.7693 10.2092C20.9282 9.95186 21.0056 9.65248 20.9913 9.35037C20.977 9.04826 20.8717 8.75753 20.6892 8.51632C20.5068 8.27511 20.2556 8.0947 19.9688 7.99875L4.96131 3.09844C4.69885 3.01432 4.41828 3.00413 4.15041 3.06901C3.88253 3.13389 3.63772 3.27131 3.44283 3.4662C3.24794 3.66109 3.11051 3.90591 3.04563 4.17378C2.98076 4.44166 2.99094 4.72222 3.07506 4.98469L7.97537 19.9922C8.06784 20.2817 8.24699 20.5359 8.4886 20.7203C8.73021 20.9048 9.02263 21.0106 9.32631 21.0234H9.40037C9.69156 21.0244 9.9766 20.9397 10.22 20.7798C10.4634 20.6199 10.6543 20.392 10.7691 20.1244L12.5935 15.9272L17.2501 20.5837C17.3894 20.7231 17.5547 20.8336 17.7367 20.909C17.9187 20.9844 18.1138 21.0232 18.3108 21.0232C18.5079 21.0232 18.7029 20.9844 18.8849 20.909C19.067 20.8336 19.2323 20.7231 19.3716 20.5837L20.5604 19.395C20.6997 19.2557 20.8102 19.0903 20.8856 18.9083C20.961 18.7263 20.9998 18.5312 20.9998 18.3342C20.9998 18.1372 20.961 17.9421 20.8856 17.7601C20.8102 17.5781 20.6997 17.4127 20.5604 17.2734L15.9038 12.6169ZM18.3104 19.5234L13.6547 14.8669C13.4819 14.6938 13.2692 14.5656 13.0354 14.4935C12.8017 14.4214 12.5538 14.4075 12.3134 14.4532C12.073 14.4989 11.8475 14.6026 11.6564 14.7555C11.4654 14.9083 11.3146 15.1055 11.2172 15.33L9.39662 19.5159L4.50006 4.52344L19.4879 9.41812L15.3029 11.2378C15.0784 11.3352 14.8812 11.4859 14.7283 11.677C14.5755 11.8681 14.4717 12.0936 14.4261 12.334C14.3804 12.5743 14.3942 12.8222 14.4663 13.056C14.5384 13.2898 14.6666 13.5024 14.8397 13.6753L19.5001 18.3337L18.3104 19.5234ZM8.25006 2.27344V1.52344C8.25006 1.32453 8.32908 1.13376 8.46973 0.993108C8.61038 0.852456 8.80115 0.773438 9.00006 0.773438C9.19897 0.773438 9.38974 0.852456 9.53039 0.993108C9.67104 1.13376 9.75006 1.32453 9.75006 1.52344V2.27344C9.75006 2.47235 9.67104 2.66312 9.53039 2.80377C9.38974 2.94442 9.19897 3.02344 9.00006 3.02344C8.80115 3.02344 8.61038 2.94442 8.46973 2.80377C8.32908 2.66312 8.25006 2.47235 8.25006 2.27344ZM0.750062 9.02344C0.750062 8.82452 0.829079 8.63376 0.969732 8.49311C1.11038 8.35246 1.30115 8.27344 1.50006 8.27344H2.25006C2.44897 8.27344 2.63974 8.35246 2.78039 8.49311C2.92104 8.63376 3.00006 8.82452 3.00006 9.02344C3.00006 9.22235 2.92104 9.41311 2.78039 9.55377C2.63974 9.69442 2.44897 9.77344 2.25006 9.77344H1.50006C1.30115 9.77344 1.11038 9.69442 0.969732 9.55377C0.829079 9.41311 0.750062 9.22235 0.750062 9.02344ZM11.3297 2.68781L12.0797 1.18781C12.1688 1.00991 12.3248 0.874656 12.5135 0.811802C12.7023 0.748948 12.9083 0.763644 13.0862 0.852657C13.2641 0.94167 13.3993 1.09771 13.4622 1.28645C13.525 1.47518 13.5103 1.68116 13.4213 1.85906L12.6713 3.35906C12.6272 3.44715 12.5662 3.5257 12.4918 3.59021C12.4174 3.65473 12.331 3.70395 12.2375 3.73507C12.1441 3.7662 12.0454 3.77861 11.9471 3.7716C11.8489 3.76459 11.753 3.73829 11.6649 3.69422C11.5768 3.65014 11.4983 3.58915 11.4338 3.51472C11.3692 3.44029 11.32 3.35388 11.2889 3.26043C11.2578 3.16698 11.2454 3.06831 11.2524 2.97006C11.2594 2.87181 11.2857 2.7759 11.3297 2.68781ZM3.67131 11.6878C3.71545 11.7759 3.74178 11.8719 3.7488 11.9702C3.75582 12.0686 3.74339 12.1673 3.71222 12.2608C3.68105 12.3543 3.63175 12.4408 3.56714 12.5152C3.50253 12.5897 3.42388 12.6507 3.33569 12.6947L1.83569 13.4447C1.65778 13.5337 1.45181 13.5484 1.26307 13.4855C1.07433 13.4227 0.918294 13.2874 0.82928 13.1095C0.740267 12.9316 0.725571 12.7257 0.788425 12.5369C0.851279 12.3482 0.986534 12.1921 1.16444 12.1031L2.66444 11.3531C2.75252 11.309 2.84844 11.2826 2.94672 11.2755C3.045 11.2684 3.14372 11.2807 3.23723 11.3118C3.33073 11.3429 3.4172 11.3921 3.49168 11.4566C3.56616 11.5211 3.6272 11.5997 3.67131 11.6878Z" fill="#FF5500"/>
</svg>
