<svg width="590" height="305" viewBox="0 0 590 305" fill="none" xmlns="http://www.w3.org/2000/svg">
<mask id="mask0_9494_171324" style="mask-type:alpha" maskUnits="userSpaceOnUse" x="0" y="-4" width="590" height="310">
<path d="M590 6.04721V295.381C590 300.95 585.45 305.446 579.881 305.38L9.88136 298.617C4.40518 298.552 0 294.095 0 288.618V8.73131C0 3.22684 4.44848 -1.24266 9.95289 -1.26858L579.953 -3.95269C585.494 -3.97878 590 0.505964 590 6.04721Z" fill="url(#paint0_radial_9494_171324)"/>
</mask>
<g mask="url(#mask0_9494_171324)">
<path d="M435.793 -280L739.205 245.525" stroke="#CC4400" stroke-width="0.5"/>
<path d="M432.329 -278L735.741 247.525" stroke="#CC4400" stroke-width="0.5"/>
<path d="M428.865 -276L732.277 249.525" stroke="#CC4400" stroke-width="0.5"/>
<path d="M425.401 -274L728.812 251.525" stroke="#CC4400" stroke-width="0.5"/>
<path d="M421.937 -272L725.348 253.525" stroke="#CC4400" stroke-width="0.5"/>
<path d="M418.472 -270L721.884 255.525" stroke="#CC4400" stroke-width="0.5"/>
<path d="M415.008 -268L718.42 257.525" stroke="#CC4400" stroke-width="0.5"/>
<path d="M411.544 -266L714.956 259.525" stroke="#CC4400" stroke-width="0.5"/>
<path d="M408.08 -264L711.492 261.525" stroke="#CC4400" stroke-width="0.5"/>
<path d="M404.616 -262L708.028 263.525" stroke="#CC4400" stroke-width="0.5"/>
<path d="M401.152 -260L704.564 265.525" stroke="#CC4400" stroke-width="0.5"/>
<path d="M397.688 -258L701.1 267.525" stroke="#CC4400" stroke-width="0.5"/>
<path d="M394.224 -256L697.635 269.525" stroke="#CC4400" stroke-width="0.5"/>
<path d="M390.76 -254L694.172 271.525" stroke="#CC4400" stroke-width="0.5"/>
<path d="M387.296 -252L690.708 273.525" stroke="#CC4400" stroke-width="0.5"/>
<path d="M383.832 -250L687.243 275.525" stroke="#CC4400" stroke-width="0.5"/>
<path d="M380.367 -248L683.779 277.525" stroke="#CC4400" stroke-width="0.5"/>
<path d="M376.903 -246L680.315 279.525" stroke="#CC4400" stroke-width="0.5"/>
<path d="M373.439 -244L676.851 281.525" stroke="#CC4400" stroke-width="0.5"/>
<path d="M369.975 -242L673.387 283.525" stroke="#CC4400" stroke-width="0.5"/>
<path d="M366.511 -240L669.923 285.525" stroke="#CC4400" stroke-width="0.5"/>
<path d="M363.047 -238L666.459 287.525" stroke="#CC4400" stroke-width="0.5"/>
<path d="M359.583 -236L662.995 289.525" stroke="#CC4400" stroke-width="0.5"/>
<path d="M356.119 -234L659.531 291.525" stroke="#CC4400" stroke-width="0.5"/>
<path d="M352.655 -232L656.066 293.525" stroke="#CC4400" stroke-width="0.5"/>
<path d="M349.19 -230L652.602 295.525" stroke="#CC4400" stroke-width="0.5"/>
<path d="M345.726 -228L649.138 297.525" stroke="#CC4400" stroke-width="0.5"/>
<path d="M342.262 -226L645.674 299.525" stroke="#CC4400" stroke-width="0.5"/>
<path d="M338.798 -224L642.21 301.525" stroke="#CC4400" stroke-width="0.5"/>
<path d="M335.334 -222L638.746 303.525" stroke="#CC4400" stroke-width="0.5"/>
<path d="M331.87 -220L635.282 305.525" stroke="#CC4400" stroke-width="0.5"/>
<path d="M328.406 -218L631.818 307.525" stroke="#CC4400" stroke-width="0.5"/>
<path d="M324.942 -216L628.354 309.525" stroke="#CC4400" stroke-width="0.5"/>
<path d="M321.478 -214L624.889 311.525" stroke="#CC4400" stroke-width="0.5"/>
<path d="M318.013 -212L621.425 313.525" stroke="#CC4400" stroke-width="0.5"/>
<path d="M314.549 -210L617.961 315.525" stroke="#CC4400" stroke-width="0.5"/>
<path d="M311.085 -208L614.497 317.525" stroke="#CC4400" stroke-width="0.5"/>
<path d="M307.621 -206L611.033 319.525" stroke="#CC4400" stroke-width="0.5"/>
<path d="M304.157 -204L607.569 321.525" stroke="#CC4400" stroke-width="0.5"/>
<path d="M300.693 -202L604.105 323.525" stroke="#CC4400" stroke-width="0.5"/>
<path d="M297.229 -200L600.641 325.525" stroke="#CC4400" stroke-width="0.5"/>
<path d="M293.765 -198L597.177 327.525" stroke="#CC4400" stroke-width="0.5"/>
<path d="M290.301 -196L593.713 329.525" stroke="#CC4400" stroke-width="0.5"/>
<path d="M286.837 -194L590.249 331.525" stroke="#CC4400" stroke-width="0.5"/>
<path d="M283.373 -192L586.784 333.525" stroke="#CC4400" stroke-width="0.5"/>
<path d="M279.908 -190L583.32 335.525" stroke="#CC4400" stroke-width="0.5"/>
<path d="M276.444 -188L579.856 337.525" stroke="#CC4400" stroke-width="0.5"/>
<path d="M272.98 -186L576.392 339.525" stroke="#CC4400" stroke-width="0.5"/>
<path d="M269.516 -184L572.928 341.525" stroke="#CC4400" stroke-width="0.5"/>
<path d="M266.052 -182L569.464 343.525" stroke="#CC4400" stroke-width="0.5"/>
<path d="M262.588 -180L566 345.525" stroke="#CC4400" stroke-width="0.5"/>
<path d="M259.124 -178L562.536 347.525" stroke="#CC4400" stroke-width="0.5"/>
<path d="M255.66 -176L559.072 349.525" stroke="#CC4400" stroke-width="0.5"/>
<path d="M252.196 -174L555.607 351.525" stroke="#CC4400" stroke-width="0.5"/>
<path d="M248.731 -172L552.143 353.525" stroke="#CC4400" stroke-width="0.5"/>
<path d="M245.267 -170L548.679 355.525" stroke="#CC4400" stroke-width="0.5"/>
<path d="M241.803 -168L545.215 357.525" stroke="#CC4400" stroke-width="0.5"/>
<path d="M238.339 -166L541.751 359.525" stroke="#CC4400" stroke-width="0.5"/>
<path d="M234.875 -164L538.287 361.525" stroke="#CC4400" stroke-width="0.5"/>
<path d="M231.411 -162L534.823 363.525" stroke="#CC4400" stroke-width="0.5"/>
<path d="M227.947 -160L531.359 365.525" stroke="#CC4400" stroke-width="0.5"/>
<path d="M224.483 -158L527.895 367.525" stroke="#CC4400" stroke-width="0.5"/>
<path d="M221.019 -156L524.43 369.525" stroke="#CC4400" stroke-width="0.5"/>
<path d="M217.555 -154L520.967 371.525" stroke="#CC4400" stroke-width="0.5"/>
<path d="M214.091 -152L517.502 373.525" stroke="#CC4400" stroke-width="0.5"/>
<path d="M210.626 -150L514.038 375.525" stroke="#CC4400" stroke-width="0.5"/>
<path d="M207.162 -148L510.574 377.525" stroke="#CC4400" stroke-width="0.5"/>
<path d="M203.698 -146L507.11 379.525" stroke="#CC4400" stroke-width="0.5"/>
<path d="M200.234 -144L503.646 381.525" stroke="#CC4400" stroke-width="0.5"/>
<path d="M196.77 -142L500.182 383.525" stroke="#CC4400" stroke-width="0.5"/>
<path d="M193.306 -140L496.718 385.525" stroke="#CC4400" stroke-width="0.5"/>
<path d="M189.842 -138L493.254 387.525" stroke="#CC4400" stroke-width="0.5"/>
<path d="M186.378 -136L489.79 389.525" stroke="#CC4400" stroke-width="0.5"/>
<path d="M182.914 -134L486.325 391.525" stroke="#CC4400" stroke-width="0.5"/>
<path d="M179.449 -132L482.861 393.525" stroke="#CC4400" stroke-width="0.5"/>
<path d="M175.985 -130L479.397 395.525" stroke="#CC4400" stroke-width="0.5"/>
<path d="M172.521 -128L475.933 397.525" stroke="#CC4400" stroke-width="0.5"/>
<path d="M169.057 -126L472.469 399.525" stroke="#CC4400" stroke-width="0.5"/>
<path d="M165.593 -124L469.005 401.525" stroke="#CC4400" stroke-width="0.5"/>
<path d="M162.129 -122L465.541 403.525" stroke="#CC4400" stroke-width="0.5"/>
<path d="M158.665 -120L462.077 405.525" stroke="#CC4400" stroke-width="0.5"/>
<path d="M155.201 -118L458.613 407.525" stroke="#CC4400" stroke-width="0.5"/>
<path d="M151.737 -116L455.148 409.525" stroke="#CC4400" stroke-width="0.5"/>
<path d="M148.272 -114L451.684 411.525" stroke="#CC4400" stroke-width="0.5"/>
<path d="M144.808 -112L448.22 413.525" stroke="#CC4400" stroke-width="0.5"/>
<path d="M141.344 -110L444.756 415.525" stroke="#CC4400" stroke-width="0.5"/>
<path d="M137.88 -108L441.292 417.525" stroke="#CC4400" stroke-width="0.5"/>
<path d="M134.416 -106L437.828 419.525" stroke="#CC4400" stroke-width="0.5"/>
<path d="M130.952 -104L434.364 421.525" stroke="#CC4400" stroke-width="0.5"/>
<path d="M127.488 -102L430.9 423.525" stroke="#CC4400" stroke-width="0.5"/>
<path d="M124.024 -100L427.436 425.525" stroke="#CC4400" stroke-width="0.5"/>
<path d="M120.56 -98L423.972 427.525" stroke="#CC4400" stroke-width="0.5"/>
<path d="M117.096 -96L420.508 429.525" stroke="#CC4400" stroke-width="0.5"/>
<path d="M113.632 -94L417.043 431.525" stroke="#CC4400" stroke-width="0.5"/>
<path d="M110.167 -92L413.579 433.525" stroke="#CC4400" stroke-width="0.5"/>
<path d="M106.703 -90L410.115 435.525" stroke="#CC4400" stroke-width="0.5"/>
<path d="M103.239 -88L406.651 437.525" stroke="#CC4400" stroke-width="0.5"/>
<path d="M99.7751 -86L403.187 439.525" stroke="#CC4400" stroke-width="0.5"/>
<path d="M96.311 -84L399.723 441.525" stroke="#CC4400" stroke-width="0.5"/>
<path d="M92.8469 -82L396.259 443.525" stroke="#CC4400" stroke-width="0.5"/>
<path d="M89.3828 -80L392.795 445.525" stroke="#CC4400" stroke-width="0.5"/>
<path d="M85.9187 -78L389.331 447.525" stroke="#CC4400" stroke-width="0.5"/>
<path d="M82.4546 -76L385.866 449.525" stroke="#CC4400" stroke-width="0.5"/>
<path d="M78.9905 -74L382.402 451.525" stroke="#CC4400" stroke-width="0.5"/>
<path d="M75.5264 -72L378.938 453.525" stroke="#CC4400" stroke-width="0.5"/>
<path d="M72.0623 -70L375.474 455.525" stroke="#CC4400" stroke-width="0.5"/>
<path d="M68.5981 -68L372.01 457.525" stroke="#CC4400" stroke-width="0.5"/>
<path d="M65.134 -66L368.546 459.525" stroke="#CC4400" stroke-width="0.5"/>
<path d="M61.6699 -64L365.082 461.525" stroke="#CC4400" stroke-width="0.5"/>
<path d="M58.2058 -62L361.618 463.525" stroke="#CC4400" stroke-width="0.5"/>
<path d="M54.7417 -60L358.154 465.525" stroke="#CC4400" stroke-width="0.5"/>
<path d="M51.2776 -58L354.689 467.525" stroke="#CC4400" stroke-width="0.5"/>
<path d="M47.8135 -56L351.225 469.525" stroke="#CC4400" stroke-width="0.5"/>
<path d="M44.3496 -54L347.761 471.525" stroke="#CC4400" stroke-width="0.5"/>
<path d="M40.8855 -52L344.297 473.525" stroke="#CC4400" stroke-width="0.5"/>
<path d="M37.4214 -50L340.833 475.525" stroke="#CC4400" stroke-width="0.5"/>
<path d="M33.9573 -48L337.369 477.525" stroke="#CC4400" stroke-width="0.5"/>
<path d="M30.4932 -46L333.905 479.525" stroke="#CC4400" stroke-width="0.5"/>
<path d="M27.0291 -44L330.441 481.525" stroke="#CC4400" stroke-width="0.5"/>
<path d="M23.5649 -42L326.977 483.525" stroke="#CC4400" stroke-width="0.5"/>
<path d="M20.1008 -40L323.513 485.525" stroke="#CC4400" stroke-width="0.5"/>
<path d="M16.6367 -38L320.049 487.525" stroke="#CC4400" stroke-width="0.5"/>
<path d="M13.1726 -36L316.584 489.525" stroke="#CC4400" stroke-width="0.5"/>
<path d="M9.7085 -34L313.12 491.525" stroke="#CC4400" stroke-width="0.5"/>
<path d="M6.24438 -32L309.656 493.525" stroke="#CC4400" stroke-width="0.5"/>
<path d="M2.78027 -30L306.192 495.525" stroke="#CC4400" stroke-width="0.5"/>
<path d="M-0.683838 -28L302.728 497.525" stroke="#CC4400" stroke-width="0.5"/>
<path d="M-4.14795 -26L299.264 499.525" stroke="#CC4400" stroke-width="0.5"/>
<path d="M-7.61206 -24L295.8 501.525" stroke="#CC4400" stroke-width="0.5"/>
<path d="M-11.0762 -22L292.336 503.525" stroke="#CC4400" stroke-width="0.5"/>
<path d="M-14.5403 -20L288.872 505.525" stroke="#CC4400" stroke-width="0.5"/>
<path d="M-18.0044 -18L285.407 507.525" stroke="#CC4400" stroke-width="0.5"/>
<path d="M-21.4685 -16L281.943 509.525" stroke="#CC4400" stroke-width="0.5"/>
<path d="M-24.9326 -14L278.479 511.525" stroke="#CC4400" stroke-width="0.5"/>
<path d="M-28.3967 -12L275.015 513.525" stroke="#CC4400" stroke-width="0.5"/>
<path d="M-31.8608 -10L271.551 515.525" stroke="#CC4400" stroke-width="0.5"/>
<path d="M-35.325 -8L268.087 517.525" stroke="#CC4400" stroke-width="0.5"/>
<path d="M-38.7891 -6L264.623 519.525" stroke="#CC4400" stroke-width="0.5"/>
<path d="M-42.2529 -4L261.159 521.525" stroke="#CC4400" stroke-width="0.5"/>
<path d="M-45.717 -2L257.695 523.525" stroke="#CC4400" stroke-width="0.5"/>
<path d="M-49.1812 0L254.231 525.525" stroke="#CC4400" stroke-width="0.5"/>
<path d="M-52.6453 2L250.767 527.525" stroke="#CC4400" stroke-width="0.5"/>
<path d="M-56.1094 4L247.302 529.525" stroke="#CC4400" stroke-width="0.5"/>
<path d="M-59.5735 6L243.838 531.525" stroke="#CC4400" stroke-width="0.5"/>
<path d="M-63.0376 8L240.374 533.525" stroke="#CC4400" stroke-width="0.5"/>
<path d="M-66.5017 10L236.91 535.525" stroke="#CC4400" stroke-width="0.5"/>
<path d="M-69.9658 12L233.446 537.525" stroke="#CC4400" stroke-width="0.5"/>
<path d="M-73.4299 14L229.982 539.525" stroke="#CC4400" stroke-width="0.5"/>
<path d="M-76.894 16L226.518 541.525" stroke="#CC4400" stroke-width="0.5"/>
<path d="M-80.3582 18L223.054 543.525" stroke="#CC4400" stroke-width="0.5"/>
<path d="M-83.8223 20L219.59 545.525" stroke="#CC4400" stroke-width="0.5"/>
<path d="M-87.2864 22L216.125 547.525" stroke="#CC4400" stroke-width="0.5"/>
<path d="M-90.7505 24L212.661 549.525" stroke="#CC4400" stroke-width="0.5"/>
<path d="M-94.2146 26L209.197 551.525" stroke="#CC4400" stroke-width="0.5"/>
<path d="M-97.6787 28L205.733 553.525" stroke="#CC4400" stroke-width="0.5"/>
<path d="M-101.143 30L202.269 555.525" stroke="#CC4400" stroke-width="0.5"/>
<path d="M-104.607 32L198.805 557.525" stroke="#CC4400" stroke-width="0.5"/>
<path d="M-108.071 34L195.341 559.525" stroke="#CC4400" stroke-width="0.5"/>
<path d="M-111.535 36L191.877 561.525" stroke="#CC4400" stroke-width="0.5"/>
<path d="M-114.999 38L188.413 563.525" stroke="#CC4400" stroke-width="0.5"/>
<path d="M-118.463 40L184.948 565.525" stroke="#CC4400" stroke-width="0.5"/>
<path d="M-121.927 42L181.484 567.525" stroke="#CC4400" stroke-width="0.5"/>
<path d="M-125.392 44L178.02 569.525" stroke="#CC4400" stroke-width="0.5"/>
<path d="M-128.855 46L174.556 571.525" stroke="#CC4400" stroke-width="0.5"/>
<path d="M-132.32 48L171.092 573.525" stroke="#CC4400" stroke-width="0.5"/>
<path d="M-135.784 50L167.628 575.525" stroke="#CC4400" stroke-width="0.5"/>
<path d="M-139.248 52L164.164 577.525" stroke="#CC4400" stroke-width="0.5"/>
<path d="M-142.712 54L160.7 579.525" stroke="#CC4400" stroke-width="0.5"/>
</g>
<defs>
<radialGradient id="paint0_radial_9494_171324" cx="0" cy="0" r="1" gradientUnits="userSpaceOnUse" gradientTransform="translate(-94 -139.5) rotate(58.7834) scale(408.085 988.422)">
<stop stop-color="white"/>
<stop offset="1" stop-color="#F5F6F7" stop-opacity="0.1"/>
</radialGradient>
</defs>
</svg>
