<svg width="590" height="450" viewBox="0 0 590 450" fill="none" xmlns="http://www.w3.org/2000/svg">
<mask id="mask0_9494_171922" style="mask-type:alpha" maskUnits="userSpaceOnUse" x="0" y="-4" width="590" height="467">
<path d="M590 6.07131V452.819C590 458.412 585.413 462.918 579.821 462.818L9.82101 452.614C4.36881 452.516 0 448.068 0 442.615V10.1213C0 4.62619 4.43396 0.160605 9.92894 0.121562L579.929 -3.92844C585.479 -3.96788 590 0.520694 590 6.07131Z" fill="url(#paint0_radial_9494_171922)"/>
</mask>
<g mask="url(#mask0_9494_171922)">
<path d="M435.793 -280L796.166 344.184" stroke="#417453" stroke-width="0.5"/>
<path d="M432.329 -278L792.702 346.184" stroke="#417453" stroke-width="0.5"/>
<path d="M428.865 -276L789.237 348.184" stroke="#417453" stroke-width="0.5"/>
<path d="M425.401 -274L785.774 350.184" stroke="#417453" stroke-width="0.5"/>
<path d="M421.937 -272L782.309 352.184" stroke="#417453" stroke-width="0.5"/>
<path d="M418.473 -270L778.845 354.184" stroke="#417453" stroke-width="0.5"/>
<path d="M415.008 -268L775.381 356.184" stroke="#417453" stroke-width="0.5"/>
<path d="M411.544 -266L771.917 358.184" stroke="#417453" stroke-width="0.5"/>
<path d="M408.08 -264L768.453 360.184" stroke="#417453" stroke-width="0.5"/>
<path d="M404.616 -262L764.989 362.184" stroke="#417453" stroke-width="0.5"/>
<path d="M401.152 -260L761.525 364.184" stroke="#417453" stroke-width="0.5"/>
<path d="M397.688 -258L758.06 366.184" stroke="#417453" stroke-width="0.5"/>
<path d="M394.224 -256L754.596 368.184" stroke="#417453" stroke-width="0.5"/>
<path d="M390.76 -254L751.132 370.184" stroke="#417453" stroke-width="0.5"/>
<path d="M387.296 -252L747.668 372.184" stroke="#417453" stroke-width="0.5"/>
<path d="M383.832 -250L744.204 374.184" stroke="#417453" stroke-width="0.5"/>
<path d="M380.367 -248L740.74 376.184" stroke="#417453" stroke-width="0.5"/>
<path d="M376.903 -246L737.276 378.184" stroke="#417453" stroke-width="0.5"/>
<path d="M373.439 -244L733.812 380.184" stroke="#417453" stroke-width="0.5"/>
<path d="M369.975 -242L730.348 382.184" stroke="#417453" stroke-width="0.5"/>
<path d="M366.511 -240L726.884 384.184" stroke="#417453" stroke-width="0.5"/>
<path d="M363.047 -238L723.42 386.184" stroke="#417453" stroke-width="0.5"/>
<path d="M359.583 -236L719.955 388.184" stroke="#417453" stroke-width="0.5"/>
<path d="M356.119 -234L716.491 390.184" stroke="#417453" stroke-width="0.5"/>
<path d="M352.655 -232L713.027 392.184" stroke="#417453" stroke-width="0.5"/>
<path d="M349.19 -230L709.563 394.184" stroke="#417453" stroke-width="0.5"/>
<path d="M345.726 -228L706.099 396.184" stroke="#417453" stroke-width="0.5"/>
<path d="M342.262 -226L702.635 398.184" stroke="#417453" stroke-width="0.5"/>
<path d="M338.798 -224L699.171 400.184" stroke="#417453" stroke-width="0.5"/>
<path d="M335.334 -222L695.707 402.184" stroke="#417453" stroke-width="0.5"/>
<path d="M331.87 -220L692.243 404.184" stroke="#417453" stroke-width="0.5"/>
<path d="M328.406 -218L688.778 406.184" stroke="#417453" stroke-width="0.5"/>
<path d="M324.942 -216L685.314 408.184" stroke="#417453" stroke-width="0.5"/>
<path d="M321.478 -214L681.85 410.184" stroke="#417453" stroke-width="0.5"/>
<path d="M318.013 -212L678.386 412.184" stroke="#417453" stroke-width="0.5"/>
<path d="M314.549 -210L674.922 414.184" stroke="#417453" stroke-width="0.5"/>
<path d="M311.085 -208L671.458 416.184" stroke="#417453" stroke-width="0.5"/>
<path d="M307.621 -206L667.994 418.184" stroke="#417453" stroke-width="0.5"/>
<path d="M304.157 -204L664.53 420.184" stroke="#417453" stroke-width="0.5"/>
<path d="M300.693 -202L661.066 422.184" stroke="#417453" stroke-width="0.5"/>
<path d="M297.229 -200L657.602 424.184" stroke="#417453" stroke-width="0.5"/>
<path d="M293.765 -198L654.138 426.184" stroke="#417453" stroke-width="0.5"/>
<path d="M290.301 -196L650.674 428.184" stroke="#417453" stroke-width="0.5"/>
<path d="M286.837 -194L647.209 430.184" stroke="#417453" stroke-width="0.5"/>
<path d="M283.373 -192L643.745 432.184" stroke="#417453" stroke-width="0.5"/>
<path d="M279.908 -190L640.281 434.184" stroke="#417453" stroke-width="0.5"/>
<path d="M276.444 -188L636.817 436.184" stroke="#417453" stroke-width="0.5"/>
<path d="M272.98 -186L633.353 438.184" stroke="#417453" stroke-width="0.5"/>
<path d="M269.516 -184L629.889 440.184" stroke="#417453" stroke-width="0.5"/>
<path d="M266.052 -182L626.425 442.184" stroke="#417453" stroke-width="0.5"/>
<path d="M262.588 -180L622.961 444.184" stroke="#417453" stroke-width="0.5"/>
<path d="M259.124 -178L619.497 446.184" stroke="#417453" stroke-width="0.5"/>
<path d="M255.66 -176L616.032 448.184" stroke="#417453" stroke-width="0.5"/>
<path d="M252.196 -174L612.568 450.184" stroke="#417453" stroke-width="0.5"/>
<path d="M248.731 -172L609.104 452.184" stroke="#417453" stroke-width="0.5"/>
<path d="M245.267 -170L605.64 454.184" stroke="#417453" stroke-width="0.5"/>
<path d="M241.803 -168L602.176 456.184" stroke="#417453" stroke-width="0.5"/>
<path d="M238.339 -166L598.712 458.184" stroke="#417453" stroke-width="0.5"/>
<path d="M234.875 -164L595.248 460.184" stroke="#417453" stroke-width="0.5"/>
<path d="M231.411 -162L591.784 462.184" stroke="#417453" stroke-width="0.5"/>
<path d="M227.947 -160L588.32 464.184" stroke="#417453" stroke-width="0.5"/>
<path d="M224.483 -158L584.855 466.184" stroke="#417453" stroke-width="0.5"/>
<path d="M221.019 -156L581.391 468.184" stroke="#417453" stroke-width="0.5"/>
<path d="M217.555 -154L577.927 470.184" stroke="#417453" stroke-width="0.5"/>
<path d="M214.091 -152L574.463 472.184" stroke="#417453" stroke-width="0.5"/>
<path d="M210.626 -150L570.999 474.184" stroke="#417453" stroke-width="0.5"/>
<path d="M207.162 -148L567.535 476.184" stroke="#417453" stroke-width="0.5"/>
<path d="M203.698 -146L564.071 478.184" stroke="#417453" stroke-width="0.5"/>
<path d="M200.234 -144L560.607 480.184" stroke="#417453" stroke-width="0.5"/>
<path d="M196.77 -142L557.143 482.184" stroke="#417453" stroke-width="0.5"/>
<path d="M193.306 -140L553.679 484.184" stroke="#417453" stroke-width="0.5"/>
<path d="M189.842 -138L550.215 486.184" stroke="#417453" stroke-width="0.5"/>
<path d="M186.378 -136L546.75 488.184" stroke="#417453" stroke-width="0.5"/>
<path d="M182.914 -134L543.286 490.184" stroke="#417453" stroke-width="0.5"/>
<path d="M179.449 -132L539.822 492.184" stroke="#417453" stroke-width="0.5"/>
<path d="M175.985 -130L536.358 494.184" stroke="#417453" stroke-width="0.5"/>
<path d="M172.521 -128L532.894 496.184" stroke="#417453" stroke-width="0.5"/>
<path d="M169.057 -126L529.43 498.184" stroke="#417453" stroke-width="0.5"/>
<path d="M165.593 -124L525.966 500.184" stroke="#417453" stroke-width="0.5"/>
<path d="M162.129 -122L522.502 502.184" stroke="#417453" stroke-width="0.5"/>
<path d="M158.665 -120L519.038 504.184" stroke="#417453" stroke-width="0.5"/>
<path d="M155.201 -118L515.573 506.184" stroke="#417453" stroke-width="0.5"/>
<path d="M151.737 -116L512.109 508.184" stroke="#417453" stroke-width="0.5"/>
<path d="M148.272 -114L508.645 510.184" stroke="#417453" stroke-width="0.5"/>
<path d="M144.808 -112L505.181 512.184" stroke="#417453" stroke-width="0.5"/>
<path d="M141.344 -110L501.717 514.184" stroke="#417453" stroke-width="0.5"/>
<path d="M137.88 -108L498.253 516.184" stroke="#417453" stroke-width="0.5"/>
<path d="M134.416 -106L494.789 518.184" stroke="#417453" stroke-width="0.5"/>
<path d="M130.952 -104L491.325 520.184" stroke="#417453" stroke-width="0.5"/>
<path d="M127.488 -102L487.861 522.184" stroke="#417453" stroke-width="0.5"/>
<path d="M124.024 -100L484.397 524.184" stroke="#417453" stroke-width="0.5"/>
<path d="M120.56 -98L480.933 526.184" stroke="#417453" stroke-width="0.5"/>
<path d="M117.096 -96L477.468 528.184" stroke="#417453" stroke-width="0.5"/>
<path d="M113.632 -94L474.004 530.184" stroke="#417453" stroke-width="0.5"/>
<path d="M110.167 -92L470.54 532.184" stroke="#417453" stroke-width="0.5"/>
<path d="M106.703 -90L467.076 534.184" stroke="#417453" stroke-width="0.5"/>
<path d="M103.239 -88L463.612 536.184" stroke="#417453" stroke-width="0.5"/>
<path d="M99.7751 -86L460.148 538.184" stroke="#417453" stroke-width="0.5"/>
<path d="M96.311 -84L456.684 540.184" stroke="#417453" stroke-width="0.5"/>
<path d="M92.8469 -82L453.22 542.184" stroke="#417453" stroke-width="0.5"/>
<path d="M89.3828 -80L449.756 544.184" stroke="#417453" stroke-width="0.5"/>
<path d="M85.9187 -78L446.291 546.184" stroke="#417453" stroke-width="0.5"/>
<path d="M82.4546 -76L442.827 548.184" stroke="#417453" stroke-width="0.5"/>
<path d="M78.9905 -74L439.363 550.184" stroke="#417453" stroke-width="0.5"/>
<path d="M75.5264 -72L435.899 552.184" stroke="#417453" stroke-width="0.5"/>
<path d="M72.0623 -70L432.435 554.184" stroke="#417453" stroke-width="0.5"/>
<path d="M68.5981 -68L428.971 556.184" stroke="#417453" stroke-width="0.5"/>
<path d="M65.134 -66L425.507 558.184" stroke="#417453" stroke-width="0.5"/>
<path d="M61.6699 -64L422.043 560.184" stroke="#417453" stroke-width="0.5"/>
<path d="M58.2058 -62L418.579 562.184" stroke="#417453" stroke-width="0.5"/>
<path d="M54.7417 -60L415.114 564.184" stroke="#417453" stroke-width="0.5"/>
<path d="M51.2776 -58L411.65 566.184" stroke="#417453" stroke-width="0.5"/>
<path d="M47.8135 -56L408.186 568.184" stroke="#417453" stroke-width="0.5"/>
<path d="M44.3496 -54L404.722 570.184" stroke="#417453" stroke-width="0.5"/>
<path d="M40.8855 -52L401.258 572.184" stroke="#417453" stroke-width="0.5"/>
<path d="M37.4214 -50L397.794 574.184" stroke="#417453" stroke-width="0.5"/>
<path d="M33.9573 -48L394.33 576.184" stroke="#417453" stroke-width="0.5"/>
<path d="M30.4932 -46L390.866 578.184" stroke="#417453" stroke-width="0.5"/>
<path d="M27.0291 -44L387.402 580.184" stroke="#417453" stroke-width="0.5"/>
<path d="M23.5649 -42L383.938 582.184" stroke="#417453" stroke-width="0.5"/>
<path d="M20.1008 -40L380.474 584.184" stroke="#417453" stroke-width="0.5"/>
<path d="M16.6367 -38L377.009 586.184" stroke="#417453" stroke-width="0.5"/>
<path d="M13.1726 -36L373.545 588.184" stroke="#417453" stroke-width="0.5"/>
<path d="M9.7085 -34L370.081 590.184" stroke="#417453" stroke-width="0.5"/>
<path d="M6.24438 -32L366.617 592.184" stroke="#417453" stroke-width="0.5"/>
<path d="M2.78027 -30L363.153 594.184" stroke="#417453" stroke-width="0.5"/>
<path d="M-0.683838 -28L359.689 596.184" stroke="#417453" stroke-width="0.5"/>
<path d="M-4.14795 -26L356.225 598.184" stroke="#417453" stroke-width="0.5"/>
<path d="M-7.61206 -24L352.761 600.184" stroke="#417453" stroke-width="0.5"/>
<path d="M-11.0762 -22L349.297 602.184" stroke="#417453" stroke-width="0.5"/>
<path d="M-14.5403 -20L345.832 604.184" stroke="#417453" stroke-width="0.5"/>
<path d="M-18.0044 -18L342.368 606.184" stroke="#417453" stroke-width="0.5"/>
<path d="M-21.4685 -16L338.904 608.184" stroke="#417453" stroke-width="0.5"/>
<path d="M-24.9326 -14L335.44 610.184" stroke="#417453" stroke-width="0.5"/>
<path d="M-28.3967 -12L331.976 612.184" stroke="#417453" stroke-width="0.5"/>
<path d="M-31.8608 -10L328.512 614.184" stroke="#417453" stroke-width="0.5"/>
<path d="M-35.325 -8L325.048 616.184" stroke="#417453" stroke-width="0.5"/>
<path d="M-38.7891 -6L321.584 618.184" stroke="#417453" stroke-width="0.5"/>
<path d="M-42.2529 -4L318.12 620.184" stroke="#417453" stroke-width="0.5"/>
<path d="M-45.717 -2L314.656 622.184" stroke="#417453" stroke-width="0.5"/>
<path d="M-49.1812 0L311.192 624.184" stroke="#417453" stroke-width="0.5"/>
<path d="M-52.6453 2L307.727 626.184" stroke="#417453" stroke-width="0.5"/>
<path d="M-56.1094 4L304.263 628.184" stroke="#417453" stroke-width="0.5"/>
<path d="M-59.5735 6L300.799 630.184" stroke="#417453" stroke-width="0.5"/>
<path d="M-63.0376 8L297.335 632.184" stroke="#417453" stroke-width="0.5"/>
<path d="M-66.5017 10L293.871 634.184" stroke="#417453" stroke-width="0.5"/>
<path d="M-69.9658 12L290.407 636.184" stroke="#417453" stroke-width="0.5"/>
<path d="M-73.4299 14L286.943 638.184" stroke="#417453" stroke-width="0.5"/>
<path d="M-76.894 16L283.479 640.184" stroke="#417453" stroke-width="0.5"/>
<path d="M-80.3582 18L280.015 642.184" stroke="#417453" stroke-width="0.5"/>
<path d="M-83.8223 20L276.55 644.184" stroke="#417453" stroke-width="0.5"/>
<path d="M-87.2864 22L273.086 646.184" stroke="#417453" stroke-width="0.5"/>
<path d="M-90.7505 24L269.622 648.184" stroke="#417453" stroke-width="0.5"/>
<path d="M-94.2146 26L266.158 650.184" stroke="#417453" stroke-width="0.5"/>
<path d="M-97.6787 28L262.694 652.184" stroke="#417453" stroke-width="0.5"/>
<path d="M-101.143 30L259.23 654.184" stroke="#417453" stroke-width="0.5"/>
<path d="M-104.607 32L255.766 656.184" stroke="#417453" stroke-width="0.5"/>
<path d="M-108.071 34L252.302 658.184" stroke="#417453" stroke-width="0.5"/>
<path d="M-111.535 36L248.838 660.184" stroke="#417453" stroke-width="0.5"/>
<path d="M-114.999 38L245.373 662.184" stroke="#417453" stroke-width="0.5"/>
<path d="M-118.463 40L241.909 664.184" stroke="#417453" stroke-width="0.5"/>
<path d="M-121.927 42L238.445 666.184" stroke="#417453" stroke-width="0.5"/>
<path d="M-125.392 44L234.981 668.184" stroke="#417453" stroke-width="0.5"/>
<path d="M-128.855 46L231.517 670.184" stroke="#417453" stroke-width="0.5"/>
<path d="M-132.32 48L228.053 672.184" stroke="#417453" stroke-width="0.5"/>
<path d="M-135.784 50L224.589 674.184" stroke="#417453" stroke-width="0.5"/>
<path d="M-139.248 52L221.125 676.184" stroke="#417453" stroke-width="0.5"/>
<path d="M-142.712 54L217.661 678.184" stroke="#417453" stroke-width="0.5"/>
<path d="M-146.176 56L214.197 680.184" stroke="#417453" stroke-width="0.5"/>
<path d="M-149.64 58L210.733 682.184" stroke="#417453" stroke-width="0.5"/>
<path d="M-153.104 60L207.268 684.184" stroke="#417453" stroke-width="0.5"/>
<path d="M-156.568 62L203.804 686.184" stroke="#417453" stroke-width="0.5"/>
<path d="M-160.032 64L200.34 688.184" stroke="#417453" stroke-width="0.5"/>
<path d="M-163.497 66L196.876 690.184" stroke="#417453" stroke-width="0.5"/>
<path d="M-166.961 68L193.412 692.184" stroke="#417453" stroke-width="0.5"/>
<path d="M-170.425 70L189.948 694.184" stroke="#417453" stroke-width="0.5"/>
<path d="M-173.889 72L186.484 696.184" stroke="#417453" stroke-width="0.5"/>
<path d="M-177.353 74L183.02 698.184" stroke="#417453" stroke-width="0.5"/>
<path d="M-180.817 76L179.556 700.184" stroke="#417453" stroke-width="0.5"/>
<path d="M-184.281 78L176.091 702.184" stroke="#417453" stroke-width="0.5"/>
<path d="M-187.745 80L172.627 704.184" stroke="#417453" stroke-width="0.5"/>
<path d="M-191.209 82L169.163 706.184" stroke="#417453" stroke-width="0.5"/>
<path d="M-194.674 84L165.699 708.184" stroke="#417453" stroke-width="0.5"/>
<path d="M-198.138 86L162.235 710.184" stroke="#417453" stroke-width="0.5"/>
<path d="M-201.602 88L158.771 712.184" stroke="#417453" stroke-width="0.5"/>
<path d="M-205.066 90L155.307 714.184" stroke="#417453" stroke-width="0.5"/>
<path d="M-208.53 92L151.843 716.184" stroke="#417453" stroke-width="0.5"/>
<path d="M-211.994 94L148.379 718.184" stroke="#417453" stroke-width="0.5"/>
<path d="M-215.458 96L144.915 720.184" stroke="#417453" stroke-width="0.5"/>
<path d="M-218.922 98L141.451 722.184" stroke="#417453" stroke-width="0.5"/>
<path d="M-222.386 100L137.986 724.184" stroke="#417453" stroke-width="0.5"/>
<path d="M-225.85 102L134.522 726.184" stroke="#417453" stroke-width="0.5"/>
<path d="M-229.314 104L131.058 728.184" stroke="#417453" stroke-width="0.5"/>
<path d="M-232.779 106L127.594 730.184" stroke="#417453" stroke-width="0.5"/>
<path d="M-236.243 108L124.13 732.184" stroke="#417453" stroke-width="0.5"/>
<path d="M-239.707 110L120.666 734.184" stroke="#417453" stroke-width="0.5"/>
<path d="M-243.171 112L117.202 736.184" stroke="#417453" stroke-width="0.5"/>
<path d="M-246.635 114L113.738 738.184" stroke="#417453" stroke-width="0.5"/>
<path d="M-250.099 116L110.274 740.184" stroke="#417453" stroke-width="0.5"/>
<path d="M-253.563 118L106.809 742.184" stroke="#417453" stroke-width="0.5"/>
<path d="M-257.027 120L103.345 744.184" stroke="#417453" stroke-width="0.5"/>
<path d="M-260.491 122L99.8813 746.184" stroke="#417453" stroke-width="0.5"/>
<path d="M-263.956 124L96.4172 748.184" stroke="#417453" stroke-width="0.5"/>
<path d="M-267.42 126L92.953 750.184" stroke="#417453" stroke-width="0.5"/>
<path d="M-270.884 128L89.4889 752.184" stroke="#417453" stroke-width="0.5"/>
<path d="M-274.348 130L86.0248 754.184" stroke="#417453" stroke-width="0.5"/>
<path d="M-277.812 132L82.5607 756.184" stroke="#417453" stroke-width="0.5"/>
<path d="M-281.276 134L79.0966 758.184" stroke="#417453" stroke-width="0.5"/>
<path d="M-284.74 136L75.6325 760.184" stroke="#417453" stroke-width="0.5"/>
<path d="M-288.204 138L72.1684 762.184" stroke="#417453" stroke-width="0.5"/>
</g>
<defs>
<radialGradient id="paint0_radial_9494_171922" cx="0" cy="0" r="1" gradientUnits="userSpaceOnUse" gradientTransform="translate(-94 -208.454) rotate(68.118) scale(567.486 1072.49)">
<stop stop-color="white"/>
<stop offset="1" stop-color="#F5F6F7" stop-opacity="0.1"/>
</radialGradient>
</defs>
</svg>
