<svg width="286" height="280" viewBox="0 0 286 280" fill="none" xmlns="http://www.w3.org/2000/svg">
<mask id="mask0_8985_215656" style="mask-type:alpha" maskUnits="userSpaceOnUse" x="-18" y="20" width="323" height="275">
<rect x="-17.8627" y="20.0789" width="322.73" height="274.35" fill="url(#paint0_linear_8985_215656)"/>
</mask>
<g mask="url(#mask0_8985_215656)">
<path d="M1.60712 27.1588L1.60712 285.579" stroke="#E2E2E2" stroke-width="0.295"/>
<path d="M3.96704 27.1588L3.96704 285.579" stroke="#E2E2E2" stroke-width="0.295"/>
<path d="M6.32709 27.1588L6.32709 285.579" stroke="#E2E2E2" stroke-width="0.295"/>
<path d="M8.68713 27.1588L8.68713 285.579" stroke="#E2E2E2" stroke-width="0.295"/>
<path d="M11.0471 27.1588L11.0471 285.579" stroke="#E2E2E2" stroke-width="0.295"/>
<path d="M13.407 27.1588L13.407 285.579" stroke="#E2E2E2" stroke-width="0.295"/>
<path d="M15.7672 27.1588L15.7672 285.579" stroke="#E2E2E2" stroke-width="0.295"/>
<path d="M18.1272 27.1588L18.1272 285.579" stroke="#E2E2E2" stroke-width="0.295"/>
<path d="M20.4871 27.1588L20.4871 285.579" stroke="#E2E2E2" stroke-width="0.295"/>
<path d="M22.8472 27.1588L22.8472 285.579" stroke="#E2E2E2" stroke-width="0.295"/>
<path d="M25.2073 27.1588L25.2073 285.579" stroke="#E2E2E2" stroke-width="0.295"/>
<path d="M27.5671 27.1588L27.5671 285.579" stroke="#E2E2E2" stroke-width="0.295"/>
<path d="M29.9273 27.1588L29.9273 285.579" stroke="#E2E2E2" stroke-width="0.295"/>
<path d="M32.2872 27.1588L32.2872 285.579" stroke="#E2E2E2" stroke-width="0.295"/>
<path d="M34.6471 27.1588L34.6471 285.579" stroke="#E2E2E2" stroke-width="0.295"/>
<path d="M37.0071 27.1588L37.0071 285.579" stroke="#E2E2E2" stroke-width="0.295"/>
<path d="M39.3672 27.1588L39.3672 285.579" stroke="#E2E2E2" stroke-width="0.295"/>
<path d="M41.7272 27.1588L41.7272 285.579" stroke="#E2E2E2" stroke-width="0.295"/>
<path d="M44.0871 27.1588L44.0871 285.579" stroke="#E2E2E2" stroke-width="0.295"/>
<path d="M46.4472 27.1588L46.4472 285.579" stroke="#E2E2E2" stroke-width="0.295"/>
<path d="M48.8073 27.1588L48.8073 285.579" stroke="#E2E2E2" stroke-width="0.295"/>
<path d="M51.1672 27.1588L51.1672 285.579" stroke="#E2E2E2" stroke-width="0.295"/>
<path d="M53.5273 27.1588L53.5273 285.579" stroke="#E2E2E2" stroke-width="0.295"/>
<path d="M55.8873 27.1588L55.8873 285.579" stroke="#E2E2E2" stroke-width="0.295"/>
<path d="M58.2472 27.1588L58.2472 285.579" stroke="#E2E2E2" stroke-width="0.295"/>
<path d="M60.6071 27.1588L60.6071 285.579" stroke="#E2E2E2" stroke-width="0.295"/>
<path d="M62.9673 27.1588L62.9673 285.579" stroke="#E2E2E2" stroke-width="0.295"/>
<path d="M65.327 27.1588L65.327 285.579" stroke="#E2E2E2" stroke-width="0.295"/>
<path d="M67.6871 27.1588L67.6871 285.579" stroke="#E2E2E2" stroke-width="0.295"/>
<path d="M70.0472 27.1588L70.0472 285.579" stroke="#E2E2E2" stroke-width="0.295"/>
<path d="M72.4071 27.1588L72.4071 285.579" stroke="#E2E2E2" stroke-width="0.295"/>
<path d="M74.7672 27.1588L74.7672 285.579" stroke="#E2E2E2" stroke-width="0.295"/>
<path d="M77.1273 27.1588L77.1273 285.579" stroke="#E2E2E2" stroke-width="0.295"/>
<path d="M79.4872 27.1588L79.4872 285.579" stroke="#E2E2E2" stroke-width="0.295"/>
<path d="M81.8472 27.1588L81.8472 285.579" stroke="#E2E2E2" stroke-width="0.295"/>
<path d="M84.2073 27.1588L84.2073 285.579" stroke="#E2E2E2" stroke-width="0.295"/>
<path d="M86.5674 27.1588L86.5674 285.579" stroke="#E2E2E2" stroke-width="0.295"/>
<path d="M88.9271 27.1588L88.9271 285.579" stroke="#E2E2E2" stroke-width="0.295"/>
<path d="M91.2872 27.1588L91.2872 285.579" stroke="#E2E2E2" stroke-width="0.295"/>
<path d="M93.6471 27.1588L93.6471 285.579" stroke="#E2E2E2" stroke-width="0.295"/>
<path d="M96.0072 27.1588L96.0072 285.579" stroke="#E2E2E2" stroke-width="0.295"/>
<path d="M98.3671 27.1588L98.3671 285.579" stroke="#E2E2E2" stroke-width="0.295"/>
<path d="M100.727 27.1588L100.727 285.579" stroke="#E2E2E2" stroke-width="0.295"/>
<path d="M103.087 27.1588L103.087 285.579" stroke="#E2E2E2" stroke-width="0.295"/>
<path d="M105.447 27.1588L105.447 285.579" stroke="#E2E2E2" stroke-width="0.295"/>
<path d="M107.807 27.1588L107.807 285.579" stroke="#E2E2E2" stroke-width="0.295"/>
<path d="M110.167 27.1588L110.167 285.579" stroke="#E2E2E2" stroke-width="0.295"/>
<path d="M112.527 27.1588L112.527 285.579" stroke="#E2E2E2" stroke-width="0.295"/>
<path d="M114.887 27.1588L114.887 285.579" stroke="#E2E2E2" stroke-width="0.295"/>
<path d="M117.247 27.1588L117.247 285.579" stroke="#E2E2E2" stroke-width="0.295"/>
<path d="M119.607 27.1588L119.607 285.579" stroke="#E2E2E2" stroke-width="0.295"/>
<path d="M121.967 27.1588L121.967 285.579" stroke="#E2E2E2" stroke-width="0.295"/>
<path d="M124.327 27.1588L124.327 285.579" stroke="#E2E2E2" stroke-width="0.295"/>
<path d="M126.687 27.1588L126.687 285.579" stroke="#E2E2E2" stroke-width="0.295"/>
<path d="M129.047 27.1588L129.047 285.579" stroke="#E2E2E2" stroke-width="0.295"/>
<path d="M131.407 27.1588L131.407 285.579" stroke="#E2E2E2" stroke-width="0.295"/>
<path d="M133.767 27.1588L133.767 285.579" stroke="#E2E2E2" stroke-width="0.295"/>
<path d="M136.127 27.1588L136.127 285.579" stroke="#E2E2E2" stroke-width="0.295"/>
<path d="M138.487 27.1588L138.487 285.579" stroke="#E2E2E2" stroke-width="0.295"/>
<path d="M140.847 27.1588L140.847 285.579" stroke="#E2E2E2" stroke-width="0.295"/>
<path d="M143.207 27.1588L143.207 285.579" stroke="#E2E2E2" stroke-width="0.295"/>
<path d="M145.567 27.1588L145.567 285.579" stroke="#E2E2E2" stroke-width="0.295"/>
<path d="M147.927 27.1588L147.927 285.579" stroke="#E2E2E2" stroke-width="0.295"/>
<path d="M150.287 27.1588L150.287 285.579" stroke="#E2E2E2" stroke-width="0.295"/>
<path d="M152.647 27.1588L152.647 285.579" stroke="#E2E2E2" stroke-width="0.295"/>
<path d="M155.007 27.1588L155.007 285.579" stroke="#E2E2E2" stroke-width="0.295"/>
<path d="M157.367 27.1588L157.367 285.579" stroke="#E2E2E2" stroke-width="0.295"/>
<path d="M159.727 27.1588L159.727 285.579" stroke="#E2E2E2" stroke-width="0.295"/>
<path d="M162.087 27.1588L162.087 285.579" stroke="#E2E2E2" stroke-width="0.295"/>
<path d="M164.447 27.1588L164.447 285.579" stroke="#E2E2E2" stroke-width="0.295"/>
<path d="M166.807 27.1588L166.807 285.579" stroke="#E2E2E2" stroke-width="0.295"/>
<path d="M169.167 27.1588L169.167 285.579" stroke="#E2E2E2" stroke-width="0.295"/>
<path d="M171.527 27.1588L171.527 285.579" stroke="#E2E2E2" stroke-width="0.295"/>
<path d="M173.887 27.1588L173.887 285.579" stroke="#E2E2E2" stroke-width="0.295"/>
<path d="M176.247 27.1588L176.247 285.579" stroke="#E2E2E2" stroke-width="0.295"/>
<path d="M178.607 27.1588L178.607 285.579" stroke="#E2E2E2" stroke-width="0.295"/>
<path d="M180.967 27.1588L180.967 285.579" stroke="#E2E2E2" stroke-width="0.295"/>
<path d="M183.327 27.1588L183.327 285.579" stroke="#E2E2E2" stroke-width="0.295"/>
<path d="M185.687 27.1588L185.687 285.579" stroke="#E2E2E2" stroke-width="0.295"/>
<path d="M188.047 27.1588L188.047 285.579" stroke="#E2E2E2" stroke-width="0.295"/>
<path d="M190.407 27.1588L190.407 285.579" stroke="#E2E2E2" stroke-width="0.295"/>
<path d="M192.767 27.1588L192.767 285.579" stroke="#E2E2E2" stroke-width="0.295"/>
<path d="M195.127 27.1588L195.127 285.579" stroke="#E2E2E2" stroke-width="0.295"/>
<path d="M197.487 27.1588L197.487 285.579" stroke="#E2E2E2" stroke-width="0.295"/>
<path d="M199.847 27.1588L199.847 285.579" stroke="#E2E2E2" stroke-width="0.295"/>
<path d="M202.207 27.1588L202.207 285.579" stroke="#E2E2E2" stroke-width="0.295"/>
<path d="M204.567 27.1588L204.567 285.579" stroke="#E2E2E2" stroke-width="0.295"/>
<path d="M206.927 27.1588L206.927 285.579" stroke="#E2E2E2" stroke-width="0.295"/>
<path d="M209.287 27.1588L209.287 285.579" stroke="#E2E2E2" stroke-width="0.295"/>
<path d="M211.647 27.1588L211.647 285.579" stroke="#E2E2E2" stroke-width="0.295"/>
<path d="M214.007 27.1588L214.007 285.579" stroke="#E2E2E2" stroke-width="0.295"/>
<path d="M216.367 27.1588L216.367 285.579" stroke="#E2E2E2" stroke-width="0.295"/>
<path d="M218.727 27.1588L218.727 285.579" stroke="#E2E2E2" stroke-width="0.295"/>
<path d="M221.087 27.1588L221.087 285.579" stroke="#E2E2E2" stroke-width="0.295"/>
<path d="M223.447 27.1588L223.447 285.579" stroke="#E2E2E2" stroke-width="0.295"/>
<path d="M225.807 27.1588L225.807 285.579" stroke="#E2E2E2" stroke-width="0.295"/>
<path d="M228.167 27.1588L228.167 285.579" stroke="#E2E2E2" stroke-width="0.295"/>
<path d="M230.527 27.1588L230.527 285.579" stroke="#E2E2E2" stroke-width="0.295"/>
<path d="M232.887 27.1588L232.887 285.579" stroke="#E2E2E2" stroke-width="0.295"/>
<path d="M235.247 27.1588L235.247 285.579" stroke="#E2E2E2" stroke-width="0.295"/>
<path d="M237.607 27.1588L237.607 285.579" stroke="#E2E2E2" stroke-width="0.295"/>
<path d="M239.967 27.1588L239.967 285.579" stroke="#E2E2E2" stroke-width="0.295"/>
<path d="M242.327 27.1588L242.327 285.579" stroke="#E2E2E2" stroke-width="0.295"/>
<path d="M244.687 27.1588L244.687 285.579" stroke="#E2E2E2" stroke-width="0.295"/>
<path d="M247.047 27.1588L247.047 285.579" stroke="#E2E2E2" stroke-width="0.295"/>
<path d="M249.407 27.1588L249.407 285.579" stroke="#E2E2E2" stroke-width="0.295"/>
<path d="M251.767 27.1588L251.767 285.579" stroke="#E2E2E2" stroke-width="0.295"/>
<path d="M254.127 27.1588L254.127 285.579" stroke="#E2E2E2" stroke-width="0.295"/>
<path d="M256.487 27.1588V285.579" stroke="#E2E2E2" stroke-width="0.295"/>
<path d="M258.847 27.1588V285.579" stroke="#E2E2E2" stroke-width="0.295"/>
<path d="M261.207 27.1588V285.579" stroke="#E2E2E2" stroke-width="0.295"/>
<path d="M263.567 27.1588V285.579" stroke="#E2E2E2" stroke-width="0.295"/>
<path d="M265.927 27.1588V285.579" stroke="#E2E2E2" stroke-width="0.295"/>
<path d="M268.287 27.1588V285.579" stroke="#E2E2E2" stroke-width="0.295"/>
<path d="M270.647 27.1588V285.579" stroke="#E2E2E2" stroke-width="0.295"/>
<path d="M273.007 27.1588V285.579" stroke="#E2E2E2" stroke-width="0.295"/>
<path d="M275.367 27.1588V285.579" stroke="#E2E2E2" stroke-width="0.295"/>
<path d="M277.727 27.1588V285.579" stroke="#E2E2E2" stroke-width="0.295"/>
<path d="M280.087 27.1588V285.579" stroke="#E2E2E2" stroke-width="0.295"/>
<path d="M282.447 27.1588V285.579" stroke="#E2E2E2" stroke-width="0.295"/>
<path d="M284.807 27.1588V285.579" stroke="#E2E2E2" stroke-width="0.295"/>
</g>
<path d="M143.37 143.027L143.37 98.0417" stroke="url(#paint1_linear_8985_215656)" stroke-width="0.59"/>
<path d="M139.24 143.027L139.24 98.0417" stroke="url(#paint2_linear_8985_215656)" stroke-width="0.59"/>
<path d="M147.5 143.027L147.5 98.0417" stroke="url(#paint3_linear_8985_215656)" stroke-width="0.59"/>
<path d="M143.37 229.611L143.37 274.596" stroke="url(#paint4_linear_8985_215656)" stroke-width="0.59"/>
<path d="M139.24 229.611L139.24 274.596" stroke="url(#paint5_linear_8985_215656)" stroke-width="0.59"/>
<path d="M147.5 229.611L147.5 274.596" stroke="url(#paint6_linear_8985_215656)" stroke-width="0.59"/>
<path d="M185.623 182.33H243.008H286.623" stroke="url(#paint7_linear_8985_215656)" stroke-width="0.59"/>
<path d="M185.623 186.46H243.008H286.623" stroke="url(#paint8_linear_8985_215656)" stroke-width="0.59"/>
<path d="M185.623 178.2H243.008H286.623" stroke="url(#paint9_linear_8985_215656)" stroke-width="0.59"/>
<path d="M-3.99945 153.514H53.8628C56.9214 153.514 59.8604 154.702 62.0604 156.827L74.4561 168.799C76.6561 170.924 79.5951 172.111 82.6536 172.111H206.184C209.683 172.111 213.001 170.559 215.243 167.873L223.69 157.753C225.932 155.067 229.25 153.514 232.749 153.514H288.38" stroke="url(#paint10_linear_8985_215656)" stroke-width="0.59" stroke-dasharray="0.59 1.18"/>
<path d="M284.84 208.101L232.924 208.101C229.523 208.101 226.287 206.633 224.047 204.074L215.331 194.121C213.09 191.562 209.855 190.094 206.453 190.094H82.452C79.3287 190.094 76.3327 191.332 74.1208 193.538L62.9674 204.657C60.7555 206.862 57.7596 208.101 54.6362 208.101H-1.63947" stroke="url(#paint11_linear_8985_215656)" stroke-width="0.59" stroke-dasharray="0.59 1.18"/>
<path d="M67.8241 211.347C67.6612 211.347 67.5293 211.215 67.5296 211.052L67.5336 208.397C67.5339 208.234 67.6661 208.102 67.8291 208.102C67.992 208.102 68.1239 208.235 68.1236 208.398L68.12 210.758L70.48 210.761C70.643 210.762 70.7748 210.894 70.7746 211.057C70.7743 211.22 70.6421 211.352 70.4791 211.351L67.8241 211.347ZM78.7977 200.112L79.006 200.321L78.7977 200.112ZM93.243 198.686H82.9633V198.096H93.243V198.686ZM67.6163 210.843L78.5894 199.903L79.006 200.321L68.0329 211.261L67.6163 210.843ZM82.9633 198.686C81.4797 198.686 80.0566 199.274 79.006 200.321L78.5894 199.903C79.7507 198.746 81.3235 198.096 82.9633 198.096V198.686Z" fill="#FF5500"/>
<path d="M218.983 211.348C219.146 211.359 219.287 211.236 219.298 211.073L219.478 208.425C219.489 208.262 219.366 208.121 219.204 208.11C219.041 208.099 218.9 208.222 218.889 208.384L218.729 210.739L216.375 210.579C216.212 210.568 216.071 210.69 216.06 210.853C216.049 211.016 216.172 211.156 216.335 211.167L218.983 211.348ZM209.173 199.787L209.395 199.593L209.173 199.787ZM192.921 198.061H204.727V197.471H192.921V198.061ZM219.226 210.859L209.395 199.593L208.95 199.981L218.781 211.247L219.226 210.859ZM204.727 198.061C206.346 198.061 207.886 198.761 208.95 199.981L209.395 199.593C208.218 198.244 206.516 197.471 204.727 197.471V198.061Z" fill="#1C76FD"/>
<path d="M67.8239 151.582C67.661 151.582 67.5291 151.714 67.5293 151.877L67.5334 154.532C67.5336 154.695 67.6659 154.827 67.8288 154.827C67.9917 154.827 68.1236 154.694 68.1234 154.532L68.1198 152.172L70.4798 152.168C70.6427 152.168 70.7746 152.035 70.7743 151.872C70.7741 151.71 70.6418 151.578 70.4789 151.578L67.8239 151.582ZM78.7975 162.817L79.0057 162.608L78.7975 162.817ZM93.2427 164.244H82.9631V164.834H93.2427V164.244ZM67.6161 152.086L78.5892 163.026L79.0057 162.608L68.0326 151.668L67.6161 152.086ZM82.9631 164.244C81.4795 164.244 80.0564 163.655 79.0057 162.608L78.5892 163.026C79.7504 164.183 81.3233 164.834 82.9631 164.834V164.244Z" fill="#1C76FD"/>
<path d="M218.983 151.583C219.146 151.572 219.287 151.694 219.298 151.857L219.478 154.506C219.489 154.668 219.366 154.809 219.204 154.82C219.041 154.831 218.9 154.708 218.889 154.546L218.729 152.191L216.375 152.352C216.212 152.363 216.071 152.24 216.06 152.077C216.049 151.915 216.172 151.774 216.335 151.763L218.983 151.583ZM209.173 163.144L209.395 163.338L209.173 163.144ZM192.921 164.87H204.727V165.46H192.921V164.87ZM219.226 152.071L209.395 163.338L208.95 162.95L218.781 151.683L219.226 152.071ZM204.727 164.87C206.346 164.87 207.886 164.17 208.95 162.95L209.395 163.338C208.218 164.686 206.516 165.46 204.727 165.46V164.87Z" fill="#FF5500"/>
<path d="M153.935 125.162C154.051 125.047 154.237 125.047 154.353 125.162L156.23 127.039C156.345 127.155 156.345 127.341 156.23 127.457C156.115 127.572 155.928 127.572 155.813 127.457L154.144 125.788L152.475 127.457C152.36 127.572 152.173 127.572 152.058 127.457C151.943 127.341 151.943 127.155 152.058 127.039L153.935 125.162ZM153.849 139.859L153.849 125.371L154.439 125.371L154.439 139.859L153.849 139.859Z" fill="#1C76FD"/>
<path d="M133.251 125.162C133.367 125.047 133.553 125.047 133.669 125.162L135.546 127.039C135.661 127.155 135.661 127.341 135.546 127.457C135.431 127.572 135.244 127.572 135.129 127.457L133.46 125.788L131.791 127.457C131.676 127.572 131.489 127.572 131.374 127.457C131.259 127.341 131.259 127.155 131.374 127.039L133.251 125.162ZM133.165 139.859L133.165 125.371L133.755 125.371L133.755 139.859L133.165 139.859Z" fill="#FF5500"/>
<path d="M133.251 248.055C133.367 248.17 133.553 248.17 133.669 248.055L135.546 246.178C135.661 246.062 135.661 245.876 135.546 245.76C135.431 245.645 135.244 245.645 135.129 245.76L133.46 247.429L131.791 245.76C131.676 245.645 131.489 245.645 131.374 245.76C131.259 245.876 131.259 246.062 131.374 246.178L133.251 248.055ZM133.165 233.358L133.165 247.846L133.755 247.846L133.755 233.358L133.165 233.358Z" fill="#1C76FD"/>
<path d="M153.935 248.055C154.051 248.17 154.237 248.17 154.353 248.055L156.23 246.178C156.345 246.062 156.345 245.876 156.23 245.76C156.115 245.645 155.928 245.645 155.813 245.76L154.144 247.429L152.475 245.76C152.36 245.645 152.173 245.645 152.058 245.76C151.943 245.876 151.943 246.062 152.058 246.178L153.935 248.055ZM153.849 233.358L153.849 247.846L154.439 247.846L154.439 233.358L153.849 233.358Z" fill="#FF5500"/>
<rect x="100.233" y="143.322" width="86.2751" height="86.2751" rx="18.585" fill="#FEFEFE" stroke="#EBECEC" stroke-width="0.59"/>
<g filter="url(#filter0_i_8985_215656)">
<rect x="104.658" y="147.747" width="77.4251" height="77.4251" rx="14.75" fill="url(#paint12_linear_8985_215656)"/>
</g>
<g filter="url(#filter1_d_8985_215656)">
<rect x="107.608" y="150.697" width="71.5251" height="71.5251" rx="11.8" fill="url(#paint13_linear_8985_215656)"/>
</g>
<g filter="url(#filter2_i_8985_215656)">
<rect x="110.558" y="153.647" width="65.6251" height="65.6251" rx="8.85" fill="#F3F3F5"/>
</g>
<rect x="110.705" y="153.794" width="65.3301" height="65.3301" rx="8.7025" stroke="url(#paint14_linear_8985_215656)" stroke-width="0.295"/>
<g filter="url(#filter3_d_8985_215656)">
<rect x="113.91" y="156.999" width="58.9208" height="58.9208" rx="5.9" fill="url(#paint15_linear_8985_215656)"/>
</g>
<g filter="url(#filter4_ii_8985_215656)">
<path fill-rule="evenodd" clip-rule="evenodd" d="M155.413 173.417H131.328C131.002 173.417 130.738 173.681 130.738 174.007V179.162C130.738 179.488 131.002 179.752 131.328 179.752H155.413C155.739 179.752 156.003 179.488 156.003 179.162V174.007C156.003 173.681 155.739 173.417 155.413 173.417ZM131.328 172.827C130.676 172.827 130.148 173.355 130.148 174.007V179.162C130.148 179.814 130.676 180.342 131.328 180.342H155.413C156.065 180.342 156.593 179.814 156.593 179.162V174.007C156.593 173.355 156.065 172.827 155.413 172.827H131.328ZM132.214 176.584C132.214 176.259 132.478 175.994 132.804 175.994H139.721C140.046 175.994 140.311 176.259 140.311 176.584C140.311 176.91 140.046 177.174 139.721 177.174H132.804C132.478 177.174 132.214 176.91 132.214 176.584ZM152.357 178.116C153.203 178.116 153.889 177.43 153.889 176.584C153.889 175.739 153.203 175.053 152.357 175.053C151.511 175.053 150.826 175.739 150.826 176.584C150.826 177.43 151.511 178.116 152.357 178.116ZM155.413 183.292H131.328C131.002 183.292 130.738 183.556 130.738 183.882V189.038C130.738 189.364 131.002 189.628 131.328 189.628H155.413C155.739 189.628 156.003 189.364 156.003 189.038V183.882C156.003 183.556 155.739 183.292 155.413 183.292ZM131.328 182.702C130.676 182.702 130.148 183.23 130.148 183.882V189.038C130.148 189.689 130.676 190.218 131.328 190.218H155.413C156.065 190.218 156.593 189.689 156.593 189.038V183.882C156.593 183.23 156.065 182.702 155.413 182.702H131.328ZM132.804 185.87C132.478 185.87 132.214 186.134 132.214 186.46C132.214 186.786 132.478 187.05 132.804 187.05H139.721C140.046 187.05 140.311 186.786 140.311 186.46C140.311 186.134 140.046 185.87 139.721 185.87H132.804ZM153.889 186.46C153.889 187.306 153.203 187.991 152.357 187.991C151.511 187.991 150.826 187.306 150.826 186.46C150.826 185.614 151.511 184.928 152.357 184.928C153.203 184.928 153.889 185.614 153.889 186.46ZM131.328 193.168H155.413C155.739 193.168 156.003 193.432 156.003 193.758V198.913C156.003 199.239 155.739 199.503 155.413 199.503H131.328C131.002 199.503 130.738 199.239 130.738 198.913V193.758C130.738 193.432 131.002 193.168 131.328 193.168ZM130.148 193.758C130.148 193.106 130.676 192.578 131.328 192.578H155.413C156.065 192.578 156.593 193.106 156.593 193.758V198.913C156.593 199.565 156.065 200.093 155.413 200.093H131.328C130.676 200.093 130.148 199.565 130.148 198.913V193.758ZM132.214 196.336C132.214 196.01 132.478 195.746 132.804 195.746H139.721C140.046 195.746 140.311 196.01 140.311 196.336C140.311 196.661 140.046 196.926 139.721 196.926H132.804C132.478 196.926 132.214 196.661 132.214 196.336ZM152.357 197.867C153.203 197.867 153.889 197.181 153.889 196.336C153.889 195.49 153.203 194.804 152.357 194.804C151.511 194.804 150.826 195.49 150.826 196.336C150.826 197.181 151.511 197.867 152.357 197.867Z" fill="#3B3D3F"/>
</g>
<path d="M99.9379 182.33L-1.84227 182.33" stroke="url(#paint16_linear_8985_215656)" stroke-width="0.59"/>
<path d="M99.9379 186.46L-1.84227 186.46" stroke="url(#paint17_linear_8985_215656)" stroke-width="0.59"/>
<path d="M99.9379 178.2L-1.84227 178.2" stroke="url(#paint18_linear_8985_215656)" stroke-width="0.59"/>
<g filter="url(#filter5_dd_8985_215656)">
<circle cx="186.14" cy="171.959" r="2.36" fill="white"/>
</g>
<circle cx="186.139" cy="171.958" r="0.786667" fill="#6C6E6F"/>
<g filter="url(#filter6_dd_8985_215656)">
<circle cx="186.14" cy="190.839" r="2.36" fill="white"/>
</g>
<circle cx="186.139" cy="190.838" r="0.786667" fill="#6C6E6F"/>
<g filter="url(#filter7_dd_8985_215656)">
<circle cx="100.589" cy="171.959" r="2.36" fill="white"/>
</g>
<circle cx="100.589" cy="171.958" r="0.786667" fill="#6C6E6F"/>
<g filter="url(#filter8_dd_8985_215656)">
<circle cx="100.589" cy="190.839" r="2.36" fill="white"/>
</g>
<circle cx="100.589" cy="190.838" r="0.786667" fill="#6C6E6F"/>
<path fill-rule="evenodd" clip-rule="evenodd" d="M263.139 250.142C264.067 250.691 265.147 250.862 266.189 250.672C268.254 250.407 269.751 252.662 268.69 254.461C267.667 256.28 264.958 256.091 264.162 254.177C262.286 249.327 255.352 249.327 253.458 254.177C252.681 256.091 249.953 256.28 248.93 254.461C247.888 252.662 249.385 250.407 251.431 250.672C252.473 250.862 253.553 250.672 254.481 250.142C255.428 249.612 256.11 248.778 256.47 247.774C257.304 245.709 260.316 245.709 261.15 247.774C261.51 248.759 262.211 249.612 263.139 250.142ZM258.819 252.756C260.884 252.756 262.097 255.162 260.828 256.83C260.146 257.625 259.767 258.648 259.767 259.728C259.767 260.789 260.146 261.812 260.828 262.627C262.116 264.294 260.884 266.719 258.819 266.7C256.754 266.7 255.542 264.294 256.811 262.627C257.493 261.831 257.872 260.808 257.872 259.728C257.872 258.667 257.493 257.644 256.811 256.83C255.523 255.162 256.754 252.737 258.819 252.756Z" fill="#EBECEC"/>
<defs>
<filter id="filter0_i_8985_215656" x="104.658" y="147.747" width="77.4251" height="77.4251" filterUnits="userSpaceOnUse" color-interpolation-filters="sRGB">
<feFlood flood-opacity="0" result="BackgroundImageFix"/>
<feBlend mode="normal" in="SourceGraphic" in2="BackgroundImageFix" result="shape"/>
<feColorMatrix in="SourceAlpha" type="matrix" values="0 0 0 0 0 0 0 0 0 0 0 0 0 0 0 0 0 0 127 0" result="hardAlpha"/>
<feOffset/>
<feGaussianBlur stdDeviation="1.18"/>
<feComposite in2="hardAlpha" operator="arithmetic" k2="-1" k3="1"/>
<feColorMatrix type="matrix" values="0 0 0 0 0 0 0 0 0 0 0 0 0 0 0 0 0 0 0.2 0"/>
<feBlend mode="normal" in2="shape" result="effect1_innerShadow_8985_215656"/>
</filter>
<filter id="filter1_d_8985_215656" x="104.068" y="148.337" width="78.6051" height="78.6051" filterUnits="userSpaceOnUse" color-interpolation-filters="sRGB">
<feFlood flood-opacity="0" result="BackgroundImageFix"/>
<feColorMatrix in="SourceAlpha" type="matrix" values="0 0 0 0 0 0 0 0 0 0 0 0 0 0 0 0 0 0 127 0" result="hardAlpha"/>
<feOffset dy="1.18"/>
<feGaussianBlur stdDeviation="1.77"/>
<feComposite in2="hardAlpha" operator="out"/>
<feColorMatrix type="matrix" values="0 0 0 0 0 0 0 0 0 0 0 0 0 0 0 0 0 0 0.25 0"/>
<feBlend mode="normal" in2="BackgroundImageFix" result="effect1_dropShadow_8985_215656"/>
<feBlend mode="normal" in="SourceGraphic" in2="effect1_dropShadow_8985_215656" result="shape"/>
</filter>
<filter id="filter2_i_8985_215656" x="110.558" y="153.647" width="65.6251" height="66.2151" filterUnits="userSpaceOnUse" color-interpolation-filters="sRGB">
<feFlood flood-opacity="0" result="BackgroundImageFix"/>
<feBlend mode="normal" in="SourceGraphic" in2="BackgroundImageFix" result="shape"/>
<feColorMatrix in="SourceAlpha" type="matrix" values="0 0 0 0 0 0 0 0 0 0 0 0 0 0 0 0 0 0 127 0" result="hardAlpha"/>
<feOffset dy="0.59"/>
<feGaussianBlur stdDeviation="0.885"/>
<feComposite in2="hardAlpha" operator="arithmetic" k2="-1" k3="1"/>
<feColorMatrix type="matrix" values="0 0 0 0 0 0 0 0 0 0 0 0 0 0 0 0 0 0 0.15 0"/>
<feBlend mode="normal" in2="shape" result="effect1_innerShadow_8985_215656"/>
</filter>
<filter id="filter3_d_8985_215656" x="111.55" y="155.229" width="63.6408" height="63.6408" filterUnits="userSpaceOnUse" color-interpolation-filters="sRGB">
<feFlood flood-opacity="0" result="BackgroundImageFix"/>
<feColorMatrix in="SourceAlpha" type="matrix" values="0 0 0 0 0 0 0 0 0 0 0 0 0 0 0 0 0 0 127 0" result="hardAlpha"/>
<feOffset dy="0.59"/>
<feGaussianBlur stdDeviation="1.18"/>
<feComposite in2="hardAlpha" operator="out"/>
<feColorMatrix type="matrix" values="0 0 0 0 0 0 0 0 0 0 0 0 0 0 0 0 0 0 0.15 0"/>
<feBlend mode="normal" in2="BackgroundImageFix" result="effect1_dropShadow_8985_215656"/>
<feBlend mode="normal" in="SourceGraphic" in2="effect1_dropShadow_8985_215656" result="shape"/>
</filter>
<filter id="filter4_ii_8985_215656" x="130.148" y="172.827" width="26.4454" height="29.0367" filterUnits="userSpaceOnUse" color-interpolation-filters="sRGB">
<feFlood flood-opacity="0" result="BackgroundImageFix"/>
<feBlend mode="normal" in="SourceGraphic" in2="BackgroundImageFix" result="shape"/>
<feColorMatrix in="SourceAlpha" type="matrix" values="0 0 0 0 0 0 0 0 0 0 0 0 0 0 0 0 0 0 127 0" result="hardAlpha"/>
<feOffset dy="0.59"/>
<feGaussianBlur stdDeviation="0.295"/>
<feComposite in2="hardAlpha" operator="arithmetic" k2="-1" k3="1"/>
<feColorMatrix type="matrix" values="0 0 0 0 0 0 0 0 0 0 0 0 0 0 0 0 0 0 0.35 0"/>
<feBlend mode="normal" in2="shape" result="effect1_innerShadow_8985_215656"/>
<feColorMatrix in="SourceAlpha" type="matrix" values="0 0 0 0 0 0 0 0 0 0 0 0 0 0 0 0 0 0 127 0" result="hardAlpha"/>
<feOffset dy="1.77"/>
<feGaussianBlur stdDeviation="1.18"/>
<feComposite in2="hardAlpha" operator="arithmetic" k2="-1" k3="1"/>
<feColorMatrix type="matrix" values="0 0 0 0 0 0 0 0 0 0 0 0 0 0 0 0 0 0 0.25 0"/>
<feBlend mode="normal" in2="effect1_innerShadow_8985_215656" result="effect2_innerShadow_8985_215656"/>
</filter>
<filter id="filter5_dd_8985_215656" x="179.896" y="167.01" width="12.4861" height="12.4861" filterUnits="userSpaceOnUse" color-interpolation-filters="sRGB">
<feFlood flood-opacity="0" result="BackgroundImageFix"/>
<feColorMatrix in="SourceAlpha" type="matrix" values="0 0 0 0 0 0 0 0 0 0 0 0 0 0 0 0 0 0 127 0" result="hardAlpha"/>
<feOffset dy="0.129436"/>
<feGaussianBlur stdDeviation="0.161795"/>
<feComposite in2="hardAlpha" operator="out"/>
<feColorMatrix type="matrix" values="0 0 0 0 0 0 0 0 0 0 0 0 0 0 0 0 0 0 0.5 0"/>
<feBlend mode="normal" in2="BackgroundImageFix" result="effect1_dropShadow_8985_215656"/>
<feColorMatrix in="SourceAlpha" type="matrix" values="0 0 0 0 0 0 0 0 0 0 0 0 0 0 0 0 0 0 127 0" result="hardAlpha"/>
<feOffset dy="1.29436"/>
<feGaussianBlur stdDeviation="1.94153"/>
<feComposite in2="hardAlpha" operator="out"/>
<feColorMatrix type="matrix" values="0 0 0 0 0 0 0 0 0 0 0 0 0 0 0 0 0 0 0.12 0"/>
<feBlend mode="normal" in2="effect1_dropShadow_8985_215656" result="effect2_dropShadow_8985_215656"/>
<feBlend mode="normal" in="SourceGraphic" in2="effect2_dropShadow_8985_215656" result="shape"/>
</filter>
<filter id="filter6_dd_8985_215656" x="179.896" y="185.89" width="12.4861" height="12.4861" filterUnits="userSpaceOnUse" color-interpolation-filters="sRGB">
<feFlood flood-opacity="0" result="BackgroundImageFix"/>
<feColorMatrix in="SourceAlpha" type="matrix" values="0 0 0 0 0 0 0 0 0 0 0 0 0 0 0 0 0 0 127 0" result="hardAlpha"/>
<feOffset dy="0.129436"/>
<feGaussianBlur stdDeviation="0.161795"/>
<feComposite in2="hardAlpha" operator="out"/>
<feColorMatrix type="matrix" values="0 0 0 0 0 0 0 0 0 0 0 0 0 0 0 0 0 0 0.5 0"/>
<feBlend mode="normal" in2="BackgroundImageFix" result="effect1_dropShadow_8985_215656"/>
<feColorMatrix in="SourceAlpha" type="matrix" values="0 0 0 0 0 0 0 0 0 0 0 0 0 0 0 0 0 0 127 0" result="hardAlpha"/>
<feOffset dy="1.29436"/>
<feGaussianBlur stdDeviation="1.94153"/>
<feComposite in2="hardAlpha" operator="out"/>
<feColorMatrix type="matrix" values="0 0 0 0 0 0 0 0 0 0 0 0 0 0 0 0 0 0 0.12 0"/>
<feBlend mode="normal" in2="effect1_dropShadow_8985_215656" result="effect2_dropShadow_8985_215656"/>
<feBlend mode="normal" in="SourceGraphic" in2="effect2_dropShadow_8985_215656" result="shape"/>
</filter>
<filter id="filter7_dd_8985_215656" x="94.3464" y="167.01" width="12.4861" height="12.4861" filterUnits="userSpaceOnUse" color-interpolation-filters="sRGB">
<feFlood flood-opacity="0" result="BackgroundImageFix"/>
<feColorMatrix in="SourceAlpha" type="matrix" values="0 0 0 0 0 0 0 0 0 0 0 0 0 0 0 0 0 0 127 0" result="hardAlpha"/>
<feOffset dy="0.129436"/>
<feGaussianBlur stdDeviation="0.161795"/>
<feComposite in2="hardAlpha" operator="out"/>
<feColorMatrix type="matrix" values="0 0 0 0 0 0 0 0 0 0 0 0 0 0 0 0 0 0 0.5 0"/>
<feBlend mode="normal" in2="BackgroundImageFix" result="effect1_dropShadow_8985_215656"/>
<feColorMatrix in="SourceAlpha" type="matrix" values="0 0 0 0 0 0 0 0 0 0 0 0 0 0 0 0 0 0 127 0" result="hardAlpha"/>
<feOffset dy="1.29436"/>
<feGaussianBlur stdDeviation="1.94153"/>
<feComposite in2="hardAlpha" operator="out"/>
<feColorMatrix type="matrix" values="0 0 0 0 0 0 0 0 0 0 0 0 0 0 0 0 0 0 0.12 0"/>
<feBlend mode="normal" in2="effect1_dropShadow_8985_215656" result="effect2_dropShadow_8985_215656"/>
<feBlend mode="normal" in="SourceGraphic" in2="effect2_dropShadow_8985_215656" result="shape"/>
</filter>
<filter id="filter8_dd_8985_215656" x="94.3464" y="185.89" width="12.4861" height="12.4861" filterUnits="userSpaceOnUse" color-interpolation-filters="sRGB">
<feFlood flood-opacity="0" result="BackgroundImageFix"/>
<feColorMatrix in="SourceAlpha" type="matrix" values="0 0 0 0 0 0 0 0 0 0 0 0 0 0 0 0 0 0 127 0" result="hardAlpha"/>
<feOffset dy="0.129436"/>
<feGaussianBlur stdDeviation="0.161795"/>
<feComposite in2="hardAlpha" operator="out"/>
<feColorMatrix type="matrix" values="0 0 0 0 0 0 0 0 0 0 0 0 0 0 0 0 0 0 0.5 0"/>
<feBlend mode="normal" in2="BackgroundImageFix" result="effect1_dropShadow_8985_215656"/>
<feColorMatrix in="SourceAlpha" type="matrix" values="0 0 0 0 0 0 0 0 0 0 0 0 0 0 0 0 0 0 127 0" result="hardAlpha"/>
<feOffset dy="1.29436"/>
<feGaussianBlur stdDeviation="1.94153"/>
<feComposite in2="hardAlpha" operator="out"/>
<feColorMatrix type="matrix" values="0 0 0 0 0 0 0 0 0 0 0 0 0 0 0 0 0 0 0.12 0"/>
<feBlend mode="normal" in2="effect1_dropShadow_8985_215656" result="effect2_dropShadow_8985_215656"/>
<feBlend mode="normal" in="SourceGraphic" in2="effect2_dropShadow_8985_215656" result="shape"/>
</filter>
<linearGradient id="paint0_linear_8985_215656" x1="101.907" y1="36.5989" x2="173.887" y2="315.374" gradientUnits="userSpaceOnUse">
<stop stop-color="#F5F6F7" stop-opacity="0"/>
<stop offset="1" stop-color="#D8D9D9" stop-opacity="0.6"/>
</linearGradient>
<linearGradient id="paint1_linear_8985_215656" x1="143.87" y1="98.0417" x2="143.87" y2="143.027" gradientUnits="userSpaceOnUse">
<stop stop-color="#CECFCF" stop-opacity="0"/>
<stop offset="1" stop-color="#CECFCF"/>
</linearGradient>
<linearGradient id="paint2_linear_8985_215656" x1="139.74" y1="98.0417" x2="139.74" y2="143.027" gradientUnits="userSpaceOnUse">
<stop stop-color="#CECFCF" stop-opacity="0"/>
<stop offset="1" stop-color="#CECFCF"/>
</linearGradient>
<linearGradient id="paint3_linear_8985_215656" x1="148" y1="98.0417" x2="148" y2="143.027" gradientUnits="userSpaceOnUse">
<stop stop-color="#CECFCF" stop-opacity="0"/>
<stop offset="1" stop-color="#CECFCF"/>
</linearGradient>
<linearGradient id="paint4_linear_8985_215656" x1="143.87" y1="274.596" x2="143.87" y2="229.611" gradientUnits="userSpaceOnUse">
<stop stop-color="#CECFCF" stop-opacity="0"/>
<stop offset="1" stop-color="#CECFCF"/>
</linearGradient>
<linearGradient id="paint5_linear_8985_215656" x1="139.74" y1="274.596" x2="139.74" y2="229.611" gradientUnits="userSpaceOnUse">
<stop stop-color="#CECFCF" stop-opacity="0"/>
<stop offset="1" stop-color="#CECFCF"/>
</linearGradient>
<linearGradient id="paint6_linear_8985_215656" x1="148" y1="274.596" x2="148" y2="229.611" gradientUnits="userSpaceOnUse">
<stop stop-color="#CECFCF" stop-opacity="0"/>
<stop offset="1" stop-color="#CECFCF"/>
</linearGradient>
<linearGradient id="paint7_linear_8985_215656" x1="286.623" y1="182.83" x2="185.623" y2="182.83" gradientUnits="userSpaceOnUse">
<stop stop-color="#CECFCF" stop-opacity="0"/>
<stop offset="1" stop-color="#CECFCF"/>
</linearGradient>
<linearGradient id="paint8_linear_8985_215656" x1="286.623" y1="186.96" x2="185.623" y2="186.96" gradientUnits="userSpaceOnUse">
<stop stop-color="#CECFCF" stop-opacity="0"/>
<stop offset="1" stop-color="#CECFCF"/>
</linearGradient>
<linearGradient id="paint9_linear_8985_215656" x1="286.623" y1="178.7" x2="185.623" y2="178.7" gradientUnits="userSpaceOnUse">
<stop stop-color="#CECFCF" stop-opacity="0"/>
<stop offset="1" stop-color="#CECFCF"/>
</linearGradient>
<linearGradient id="paint10_linear_8985_215656" x1="-3.99945" y1="162.813" x2="288.38" y2="162.813" gradientUnits="userSpaceOnUse">
<stop stop-color="#CECFCF" stop-opacity="0.1"/>
<stop offset="0.147871" stop-color="#CECFCF" stop-opacity="0.6"/>
<stop offset="0.51" stop-color="#6C6E6F"/>
<stop offset="0.895265" stop-color="#CECFCF" stop-opacity="0.6"/>
<stop offset="1" stop-color="#CECFCF" stop-opacity="0.1"/>
</linearGradient>
<linearGradient id="paint11_linear_8985_215656" x1="284.84" y1="199.098" x2="-1.63947" y2="199.098" gradientUnits="userSpaceOnUse">
<stop stop-color="#CECFCF" stop-opacity="0.1"/>
<stop offset="0.147871" stop-color="#CECFCF" stop-opacity="0.6"/>
<stop offset="0.51" stop-color="#6C6E6F"/>
<stop offset="0.895265" stop-color="#CECFCF" stop-opacity="0.6"/>
<stop offset="1" stop-color="#CECFCF" stop-opacity="0.1"/>
</linearGradient>
<linearGradient id="paint12_linear_8985_215656" x1="104.658" y1="186.46" x2="182.083" y2="186.46" gradientUnits="userSpaceOnUse">
<stop stop-color="#E5E8EF" stop-opacity="0"/>
<stop offset="1" stop-color="#F5F5F5"/>
</linearGradient>
<linearGradient id="paint13_linear_8985_215656" x1="143.37" y1="150.697" x2="143.37" y2="222.222" gradientUnits="userSpaceOnUse">
<stop stop-color="#FFFDFB"/>
<stop offset="1" stop-color="#F4F5F6"/>
</linearGradient>
<linearGradient id="paint14_linear_8985_215656" x1="143.37" y1="153.647" x2="143.37" y2="219.272" gradientUnits="userSpaceOnUse">
<stop stop-color="white" stop-opacity="0"/>
<stop offset="1" stop-color="white"/>
</linearGradient>
<linearGradient id="paint15_linear_8985_215656" x1="143.37" y1="156.999" x2="143.37" y2="215.92" gradientUnits="userSpaceOnUse">
<stop stop-color="white"/>
<stop offset="1" stop-color="#F5F6F7"/>
</linearGradient>
<linearGradient id="paint16_linear_8985_215656" x1="-1.84227" y1="181.83" x2="99.9379" y2="181.83" gradientUnits="userSpaceOnUse">
<stop stop-color="#CECFCF" stop-opacity="0"/>
<stop offset="1" stop-color="#CECFCF"/>
</linearGradient>
<linearGradient id="paint17_linear_8985_215656" x1="-1.84227" y1="185.96" x2="99.9379" y2="185.96" gradientUnits="userSpaceOnUse">
<stop stop-color="#CECFCF" stop-opacity="0"/>
<stop offset="1" stop-color="#CECFCF"/>
</linearGradient>
<linearGradient id="paint18_linear_8985_215656" x1="-1.84227" y1="177.7" x2="99.9379" y2="177.7" gradientUnits="userSpaceOnUse">
<stop stop-color="#CECFCF" stop-opacity="0"/>
<stop offset="1" stop-color="#CECFCF"/>
</linearGradient>
</defs>
</svg>
