<svg width="486" height="436" viewBox="0 0 486 436" fill="none" xmlns="http://www.w3.org/2000/svg">
<mask id="mask0_8985_201662" style="mask-type:alpha" maskUnits="userSpaceOnUse" x="-31" y="-13" width="548" height="466">
<rect x="-30.2764" y="-12.002" width="547" height="465" fill="url(#paint0_linear_8985_201662)"/>
</mask>
<g mask="url(#mask0_8985_201662)">
<path d="M2.72363 -0.00195312L2.72363 437.998" stroke="#E2E2E2" stroke-width="0.5"/>
<path d="M6.72363 -0.00195312L6.72363 437.998" stroke="#E2E2E2" stroke-width="0.5"/>
<path d="M10.7236 -0.00195312L10.7236 437.998" stroke="#E2E2E2" stroke-width="0.5"/>
<path d="M14.7236 -0.00195312L14.7236 437.998" stroke="#E2E2E2" stroke-width="0.5"/>
<path d="M18.7236 -0.00195312L18.7236 437.998" stroke="#E2E2E2" stroke-width="0.5"/>
<path d="M22.7236 -0.00195312L22.7236 437.998" stroke="#E2E2E2" stroke-width="0.5"/>
<path d="M26.7236 -0.00195312L26.7236 437.998" stroke="#E2E2E2" stroke-width="0.5"/>
<path d="M30.7236 -0.00195312L30.7236 437.998" stroke="#E2E2E2" stroke-width="0.5"/>
<path d="M34.7236 -0.00195312L34.7236 437.998" stroke="#E2E2E2" stroke-width="0.5"/>
<path d="M38.7236 -0.00195312L38.7236 437.998" stroke="#E2E2E2" stroke-width="0.5"/>
<path d="M42.7236 -0.00195312L42.7236 437.998" stroke="#E2E2E2" stroke-width="0.5"/>
<path d="M46.7236 -0.00195312L46.7236 437.998" stroke="#E2E2E2" stroke-width="0.5"/>
<path d="M50.7236 -0.00195312L50.7236 437.998" stroke="#E2E2E2" stroke-width="0.5"/>
<path d="M54.7236 -0.00195312L54.7236 437.998" stroke="#E2E2E2" stroke-width="0.5"/>
<path d="M58.7236 -0.00195312L58.7236 437.998" stroke="#E2E2E2" stroke-width="0.5"/>
<path d="M62.7236 -0.00195312L62.7236 437.998" stroke="#E2E2E2" stroke-width="0.5"/>
<path d="M66.7236 -0.00195312L66.7236 437.998" stroke="#E2E2E2" stroke-width="0.5"/>
<path d="M70.7236 -0.00195312L70.7236 437.998" stroke="#E2E2E2" stroke-width="0.5"/>
<path d="M74.7236 -0.00195312L74.7236 437.998" stroke="#E2E2E2" stroke-width="0.5"/>
<path d="M78.7236 -0.00195312L78.7236 437.998" stroke="#E2E2E2" stroke-width="0.5"/>
<path d="M82.7236 -0.00195312L82.7236 437.998" stroke="#E2E2E2" stroke-width="0.5"/>
<path d="M86.7236 -0.00195312L86.7236 437.998" stroke="#E2E2E2" stroke-width="0.5"/>
<path d="M90.7236 -0.00195312L90.7236 437.998" stroke="#E2E2E2" stroke-width="0.5"/>
<path d="M94.7236 -0.00195312L94.7236 437.998" stroke="#E2E2E2" stroke-width="0.5"/>
<path d="M98.7236 -0.00195312L98.7236 437.998" stroke="#E2E2E2" stroke-width="0.5"/>
<path d="M102.724 -0.00195312L102.724 437.998" stroke="#E2E2E2" stroke-width="0.5"/>
<path d="M106.724 -0.00195312L106.724 437.998" stroke="#E2E2E2" stroke-width="0.5"/>
<path d="M110.724 -0.00195312L110.724 437.998" stroke="#E2E2E2" stroke-width="0.5"/>
<path d="M114.724 -0.00195312L114.724 437.998" stroke="#E2E2E2" stroke-width="0.5"/>
<path d="M118.724 -0.00195312L118.724 437.998" stroke="#E2E2E2" stroke-width="0.5"/>
<path d="M122.724 -0.00195312L122.724 437.998" stroke="#E2E2E2" stroke-width="0.5"/>
<path d="M126.724 -0.00195312L126.724 437.998" stroke="#E2E2E2" stroke-width="0.5"/>
<path d="M130.724 -0.00195312L130.724 437.998" stroke="#E2E2E2" stroke-width="0.5"/>
<path d="M134.724 -0.00195312L134.724 437.998" stroke="#E2E2E2" stroke-width="0.5"/>
<path d="M138.724 -0.00195312L138.724 437.998" stroke="#E2E2E2" stroke-width="0.5"/>
<path d="M142.724 -0.00195312L142.724 437.998" stroke="#E2E2E2" stroke-width="0.5"/>
<path d="M146.724 -0.00195312L146.724 437.998" stroke="#E2E2E2" stroke-width="0.5"/>
<path d="M150.724 -0.00195312L150.724 437.998" stroke="#E2E2E2" stroke-width="0.5"/>
<path d="M154.724 -0.00195312L154.724 437.998" stroke="#E2E2E2" stroke-width="0.5"/>
<path d="M158.724 -0.00195312L158.724 437.998" stroke="#E2E2E2" stroke-width="0.5"/>
<path d="M162.724 -0.00195312L162.724 437.998" stroke="#E2E2E2" stroke-width="0.5"/>
<path d="M166.724 -0.00195312L166.724 437.998" stroke="#E2E2E2" stroke-width="0.5"/>
<path d="M170.724 -0.00195312L170.724 437.998" stroke="#E2E2E2" stroke-width="0.5"/>
<path d="M174.724 -0.00195312L174.724 437.998" stroke="#E2E2E2" stroke-width="0.5"/>
<path d="M178.724 -0.00195312L178.724 437.998" stroke="#E2E2E2" stroke-width="0.5"/>
<path d="M182.724 -0.00195312L182.724 437.998" stroke="#E2E2E2" stroke-width="0.5"/>
<path d="M186.724 -0.00195312L186.724 437.998" stroke="#E2E2E2" stroke-width="0.5"/>
<path d="M190.724 -0.00195312L190.724 437.998" stroke="#E2E2E2" stroke-width="0.5"/>
<path d="M194.724 -0.00195312L194.724 437.998" stroke="#E2E2E2" stroke-width="0.5"/>
<path d="M198.724 -0.00195312L198.724 437.998" stroke="#E2E2E2" stroke-width="0.5"/>
<path d="M202.724 -0.00195312L202.724 437.998" stroke="#E2E2E2" stroke-width="0.5"/>
<path d="M206.724 -0.00195312L206.724 437.998" stroke="#E2E2E2" stroke-width="0.5"/>
<path d="M210.724 -0.00195312L210.724 437.998" stroke="#E2E2E2" stroke-width="0.5"/>
<path d="M214.724 -0.00195312L214.724 437.998" stroke="#E2E2E2" stroke-width="0.5"/>
<path d="M218.724 -0.00195312L218.724 437.998" stroke="#E2E2E2" stroke-width="0.5"/>
<path d="M222.724 -0.00195312L222.724 437.998" stroke="#E2E2E2" stroke-width="0.5"/>
<path d="M226.724 -0.00195312L226.724 437.998" stroke="#E2E2E2" stroke-width="0.5"/>
<path d="M230.724 -0.00195312L230.724 437.998" stroke="#E2E2E2" stroke-width="0.5"/>
<path d="M234.724 -0.00195312L234.724 437.998" stroke="#E2E2E2" stroke-width="0.5"/>
<path d="M238.724 -0.00195312L238.724 437.998" stroke="#E2E2E2" stroke-width="0.5"/>
<path d="M242.724 -0.00195312L242.724 437.998" stroke="#E2E2E2" stroke-width="0.5"/>
<path d="M246.724 -0.00195312L246.724 437.998" stroke="#E2E2E2" stroke-width="0.5"/>
<path d="M250.724 -0.00195312L250.724 437.998" stroke="#E2E2E2" stroke-width="0.5"/>
<path d="M254.724 -0.00195312L254.724 437.998" stroke="#E2E2E2" stroke-width="0.5"/>
<path d="M258.724 -0.00195312V437.998" stroke="#E2E2E2" stroke-width="0.5"/>
<path d="M262.724 -0.00195312V437.998" stroke="#E2E2E2" stroke-width="0.5"/>
<path d="M266.724 -0.00195312V437.998" stroke="#E2E2E2" stroke-width="0.5"/>
<path d="M270.724 -0.00195312L270.724 437.998" stroke="#E2E2E2" stroke-width="0.5"/>
<path d="M274.724 -0.00195312L274.724 437.998" stroke="#E2E2E2" stroke-width="0.5"/>
<path d="M278.724 -0.00195312V437.998" stroke="#E2E2E2" stroke-width="0.5"/>
<path d="M282.724 -0.00195312V437.998" stroke="#E2E2E2" stroke-width="0.5"/>
<path d="M286.724 -0.00195312V437.998" stroke="#E2E2E2" stroke-width="0.5"/>
<path d="M290.724 -0.00195312V437.998" stroke="#E2E2E2" stroke-width="0.5"/>
<path d="M294.724 -0.00195312V437.998" stroke="#E2E2E2" stroke-width="0.5"/>
<path d="M298.724 -0.00195312V437.998" stroke="#E2E2E2" stroke-width="0.5"/>
<path d="M302.724 -0.00195312V437.998" stroke="#E2E2E2" stroke-width="0.5"/>
<path d="M306.724 -0.00195312V437.998" stroke="#E2E2E2" stroke-width="0.5"/>
<path d="M310.724 -0.00195312V437.998" stroke="#E2E2E2" stroke-width="0.5"/>
<path d="M314.724 -0.00195312V437.998" stroke="#E2E2E2" stroke-width="0.5"/>
<path d="M318.724 -0.00195312V437.998" stroke="#E2E2E2" stroke-width="0.5"/>
<path d="M322.724 -0.00195312V437.998" stroke="#E2E2E2" stroke-width="0.5"/>
<path d="M326.724 -0.00195312V437.998" stroke="#E2E2E2" stroke-width="0.5"/>
<path d="M330.724 -0.00195312V437.998" stroke="#E2E2E2" stroke-width="0.5"/>
<path d="M334.724 -0.00195312V437.998" stroke="#E2E2E2" stroke-width="0.5"/>
<path d="M338.724 -0.00195312V437.998" stroke="#E2E2E2" stroke-width="0.5"/>
<path d="M342.724 -0.00195312V437.998" stroke="#E2E2E2" stroke-width="0.5"/>
<path d="M346.724 -0.00195312V437.998" stroke="#E2E2E2" stroke-width="0.5"/>
<path d="M350.724 -0.00195312V437.998" stroke="#E2E2E2" stroke-width="0.5"/>
<path d="M354.724 -0.00195312V437.998" stroke="#E2E2E2" stroke-width="0.5"/>
<path d="M358.724 -0.00195312V437.998" stroke="#E2E2E2" stroke-width="0.5"/>
<path d="M362.724 -0.00195312V437.998" stroke="#E2E2E2" stroke-width="0.5"/>
<path d="M366.724 -0.00195312V437.998" stroke="#E2E2E2" stroke-width="0.5"/>
<path d="M370.724 -0.00195312L370.724 437.998" stroke="#E2E2E2" stroke-width="0.5"/>
<path d="M374.724 -0.00195312L374.724 437.998" stroke="#E2E2E2" stroke-width="0.5"/>
<path d="M378.724 -0.00195312V437.998" stroke="#E2E2E2" stroke-width="0.5"/>
<path d="M382.724 -0.00195312V437.998" stroke="#E2E2E2" stroke-width="0.5"/>
<path d="M386.724 -0.00195312V437.998" stroke="#E2E2E2" stroke-width="0.5"/>
<path d="M390.724 -0.00195312V437.998" stroke="#E2E2E2" stroke-width="0.5"/>
<path d="M394.724 -0.00195312V437.998" stroke="#E2E2E2" stroke-width="0.5"/>
<path d="M398.724 -0.00195312V437.998" stroke="#E2E2E2" stroke-width="0.5"/>
<path d="M402.724 -0.00195312V437.998" stroke="#E2E2E2" stroke-width="0.5"/>
<path d="M406.724 -0.00195312V437.998" stroke="#E2E2E2" stroke-width="0.5"/>
<path d="M410.724 -0.00195312V437.998" stroke="#E2E2E2" stroke-width="0.5"/>
<path d="M414.724 -0.00195312V437.998" stroke="#E2E2E2" stroke-width="0.5"/>
<path d="M418.724 -0.00195312V437.998" stroke="#E2E2E2" stroke-width="0.5"/>
<path d="M422.724 -0.00195312V437.998" stroke="#E2E2E2" stroke-width="0.5"/>
<path d="M426.724 -0.00195312V437.998" stroke="#E2E2E2" stroke-width="0.5"/>
<path d="M430.724 -0.00195312V437.998" stroke="#E2E2E2" stroke-width="0.5"/>
<path d="M434.724 -0.00195312V437.998" stroke="#E2E2E2" stroke-width="0.5"/>
<path d="M438.724 -0.00195312V437.998" stroke="#E2E2E2" stroke-width="0.5"/>
<path d="M442.724 -0.00195312V437.998" stroke="#E2E2E2" stroke-width="0.5"/>
<path d="M446.724 -0.00195312V437.998" stroke="#E2E2E2" stroke-width="0.5"/>
<path d="M450.724 -0.00195312V437.998" stroke="#E2E2E2" stroke-width="0.5"/>
<path d="M454.724 -0.00195312V437.998" stroke="#E2E2E2" stroke-width="0.5"/>
<path d="M458.724 -0.00195312V437.998" stroke="#E2E2E2" stroke-width="0.5"/>
<path d="M462.724 -0.00195312V437.998" stroke="#E2E2E2" stroke-width="0.5"/>
<path d="M466.724 -0.00195312V437.998" stroke="#E2E2E2" stroke-width="0.5"/>
<path d="M470.724 -0.00195312L470.724 437.998" stroke="#E2E2E2" stroke-width="0.5"/>
<path d="M474.724 -0.00195312L474.724 437.998" stroke="#E2E2E2" stroke-width="0.5"/>
<path d="M478.724 -0.00195312V437.998" stroke="#E2E2E2" stroke-width="0.5"/>
<path d="M482.724 -0.00195312V437.998" stroke="#E2E2E2" stroke-width="0.5"/>
</g>
<path d="M243 196.385L243 120.139" stroke="url(#paint1_linear_8985_201662)"/>
<path d="M236 196.385L236 120.139" stroke="url(#paint2_linear_8985_201662)"/>
<path d="M250 196.385L250 120.139" stroke="url(#paint3_linear_8985_201662)"/>
<path d="M243 343.137L243 419.383" stroke="url(#paint4_linear_8985_201662)"/>
<path d="M236 343.137L236 419.383" stroke="url(#paint5_linear_8985_201662)"/>
<path d="M250 343.137L250 419.383" stroke="url(#paint6_linear_8985_201662)"/>
<path d="M314.615 263H411.878H485.802" stroke="url(#paint7_linear_8985_201662)"/>
<path d="M314.615 270H411.878H485.802" stroke="url(#paint8_linear_8985_201662)"/>
<path d="M314.615 256H411.878H485.802" stroke="url(#paint9_linear_8985_201662)"/>
<path d="M-6.7793 214.16H91.2924C96.4763 214.16 101.458 216.173 105.186 219.774L126.196 240.066C129.925 243.667 134.906 245.68 140.09 245.68H349.464C355.394 245.68 361.018 243.048 364.818 238.496L379.134 221.344C382.934 216.792 388.559 214.16 394.488 214.16H488.78" stroke="url(#paint10_linear_8985_201662)" stroke-dasharray="1 2"/>
<path d="M482.78 306.679L394.786 306.68C389.021 306.68 383.537 304.192 379.739 299.855L364.967 282.984C361.17 278.647 355.685 276.16 349.92 276.16H139.749C134.455 276.16 129.377 278.259 125.628 281.996L106.724 300.843C102.975 304.581 97.8971 306.679 92.6033 306.679H-2.7793" stroke="url(#paint11_linear_8985_201662)" stroke-dasharray="1 2"/>
<path d="M114.956 312.182C114.68 312.181 114.456 311.957 114.457 311.681L114.463 307.181C114.464 306.905 114.688 306.681 114.964 306.682C115.24 306.682 115.464 306.906 115.463 307.182L115.457 311.182L119.457 311.188C119.733 311.189 119.957 311.413 119.957 311.689C119.956 311.965 119.732 312.189 119.456 312.188L114.956 312.182ZM133.555 293.139L133.908 293.494H133.908L133.555 293.139ZM158.039 290.721H140.615V289.721H158.039V290.721ZM114.604 311.328L133.202 292.785L133.908 293.494L115.31 312.036L114.604 311.328ZM140.615 290.721C138.101 290.721 135.689 291.718 133.908 293.494L133.202 292.785C135.17 290.823 137.836 289.721 140.615 289.721V290.721Z" fill="#FF5500"/>
<path d="M371.158 312.182C371.434 312.201 371.672 311.993 371.691 311.718L371.997 307.228C372.016 306.952 371.807 306.714 371.532 306.695C371.256 306.676 371.018 306.885 370.999 307.16L370.727 311.151L366.737 310.879C366.461 310.86 366.223 311.069 366.204 311.344C366.185 311.62 366.393 311.858 366.669 311.877L371.158 312.182ZM354.53 292.587L354.907 292.259L354.53 292.587ZM326.985 289.662H346.995V288.662H326.985V289.662ZM371.569 311.355L354.907 292.259L354.153 292.916L370.816 312.012L371.569 311.355ZM346.995 289.662C349.739 289.662 352.349 290.849 354.153 292.916L354.907 292.259C352.913 289.973 350.028 288.662 346.995 288.662V289.662Z" fill="#1C76FD"/>
<path d="M114.955 210.885C114.679 210.885 114.456 211.109 114.456 211.386L114.463 215.886C114.463 216.162 114.687 216.385 114.964 216.385C115.24 216.384 115.463 216.16 115.463 215.884L115.457 211.884L119.457 211.878C119.733 211.878 119.956 211.653 119.956 211.377C119.956 211.101 119.731 210.878 119.455 210.878L114.955 210.885ZM133.555 229.927L133.908 229.573H133.908L133.555 229.927ZM158.038 232.345H140.615V233.345H158.038V232.345ZM114.603 211.739L133.202 230.281L133.908 229.573L115.309 211.031L114.603 211.739ZM140.615 232.345C138.1 232.345 135.688 231.348 133.908 229.573L133.202 230.281C135.17 232.243 137.836 233.345 140.615 233.345V232.345Z" fill="#1C76FD"/>
<path d="M371.158 210.886C371.434 210.867 371.672 211.075 371.691 211.351L371.997 215.84C372.016 216.116 371.807 216.354 371.532 216.373C371.256 216.392 371.018 216.184 370.999 215.908L370.727 211.918L366.737 212.189C366.461 212.208 366.223 212 366.204 211.724C366.185 211.449 366.393 211.21 366.669 211.191L371.158 210.886ZM354.53 230.481L354.907 230.81L354.53 230.481ZM326.985 233.406H346.995V234.406H326.985V233.406ZM371.569 211.713L354.907 230.81L354.153 230.152L370.816 211.056L371.569 211.713ZM346.995 233.406C349.739 233.406 352.349 232.22 354.153 230.152L354.907 230.81C352.913 233.095 350.028 234.406 346.995 234.406V233.406Z" fill="#FF5500"/>
<path d="M260.907 166.105C261.102 165.91 261.419 165.91 261.614 166.105L264.796 169.287C264.992 169.483 264.992 169.799 264.796 169.995C264.601 170.19 264.284 170.19 264.089 169.995L261.261 167.166L258.432 169.995C258.237 170.19 257.92 170.19 257.725 169.995C257.53 169.799 257.53 169.483 257.725 169.287L260.907 166.105ZM260.761 191.015L260.761 166.459L261.761 166.459L261.761 191.015L260.761 191.015Z" fill="#1C76FD"/>
<path d="M225.85 166.105C226.045 165.91 226.361 165.91 226.557 166.105L229.739 169.287C229.934 169.483 229.934 169.799 229.739 169.995C229.543 170.19 229.227 170.19 229.032 169.995L226.203 167.166L223.375 169.995C223.179 170.19 222.863 170.19 222.668 169.995C222.472 169.799 222.472 169.483 222.668 169.287L225.85 166.105ZM225.703 191.015L225.703 166.459L226.703 166.459L226.703 191.015L225.703 191.015Z" fill="#FF5500"/>
<path d="M225.85 374.398C226.045 374.594 226.361 374.594 226.557 374.398L229.739 371.216C229.934 371.021 229.934 370.705 229.739 370.509C229.543 370.314 229.227 370.314 229.032 370.509L226.203 373.338L223.375 370.509C223.179 370.314 222.863 370.314 222.668 370.509C222.472 370.705 222.472 371.021 222.668 371.216L225.85 374.398ZM225.703 349.489L225.703 374.045L226.703 374.045L226.703 349.489L225.703 349.489Z" fill="#1C76FD"/>
<path d="M260.907 374.398C261.102 374.594 261.419 374.594 261.614 374.398L264.796 371.216C264.992 371.021 264.992 370.705 264.796 370.509C264.601 370.314 264.284 370.314 264.089 370.509L261.261 373.338L258.432 370.509C258.237 370.314 257.92 370.314 257.725 370.509C257.53 370.705 257.53 371.021 257.725 371.216L260.907 374.398ZM260.761 349.489L260.761 374.045L261.761 374.045L261.761 349.489L260.761 349.489Z" fill="#FF5500"/>
<rect x="169.886" y="196.885" width="146.229" height="146.229" rx="31.5" fill="#FEFEFE" stroke="#EBECEC"/>
<g filter="url(#filter0_i_8985_201662)">
<rect x="177.386" y="204.385" width="131.229" height="131.229" rx="25" fill="url(#paint12_linear_8985_201662)"/>
</g>
<g filter="url(#filter1_d_8985_201662)">
<rect x="182.386" y="209.385" width="121.229" height="121.229" rx="20" fill="url(#paint13_linear_8985_201662)"/>
</g>
<g filter="url(#filter2_i_8985_201662)">
<rect x="187.386" y="214.385" width="111.229" height="111.229" rx="15" fill="#F3F3F5"/>
</g>
<rect x="187.636" y="214.635" width="110.729" height="110.729" rx="14.75" stroke="url(#paint14_linear_8985_201662)" stroke-width="0.5"/>
<g filter="url(#filter3_d_8985_201662)">
<rect x="193.067" y="220.066" width="99.8657" height="99.8657" rx="10" fill="url(#paint15_linear_8985_201662)"/>
</g>
<g filter="url(#filter4_ii_8985_201662)">
<path fill-rule="evenodd" clip-rule="evenodd" d="M263.412 247.893H222.589C222.037 247.893 221.589 248.34 221.589 248.893V257.631C221.589 258.183 222.037 258.631 222.589 258.631H263.412C263.964 258.631 264.412 258.183 264.412 257.631V248.893C264.412 248.34 263.964 247.893 263.412 247.893ZM222.589 246.893C221.484 246.893 220.589 247.788 220.589 248.893V257.631C220.589 258.735 221.484 259.631 222.589 259.631H263.412C264.516 259.631 265.412 258.735 265.412 257.631V248.893C265.412 247.788 264.516 246.893 263.412 246.893H222.589ZM224.092 253.262C224.092 252.709 224.54 252.262 225.092 252.262H236.814C237.367 252.262 237.814 252.709 237.814 253.262C237.814 253.814 237.367 254.262 236.814 254.262H225.092C224.54 254.262 224.092 253.814 224.092 253.262ZM258.232 255.857C259.666 255.857 260.828 254.695 260.828 253.262C260.828 251.828 259.666 250.666 258.232 250.666C256.799 250.666 255.637 251.828 255.637 253.262C255.637 254.695 256.799 255.857 258.232 255.857ZM263.412 264.631H222.589C222.037 264.631 221.589 265.079 221.589 265.631V274.369C221.589 274.921 222.037 275.369 222.589 275.369H263.412C263.964 275.369 264.412 274.921 264.412 274.369V265.631C264.412 265.079 263.964 264.631 263.412 264.631ZM222.589 263.631C221.484 263.631 220.589 264.526 220.589 265.631V274.369C220.589 275.474 221.484 276.369 222.589 276.369H263.412C264.516 276.369 265.412 275.474 265.412 274.369V265.631C265.412 264.526 264.516 263.631 263.412 263.631H222.589ZM225.092 269C224.54 269 224.092 269.448 224.092 270C224.092 270.552 224.54 271 225.092 271H236.814C237.367 271 237.814 270.552 237.814 270C237.814 269.448 237.367 269 236.814 269H225.092ZM260.828 270C260.828 271.434 259.666 272.596 258.232 272.596C256.799 272.596 255.637 271.434 255.637 270C255.637 268.566 256.799 267.404 258.232 267.404C259.666 267.404 260.828 268.566 260.828 270ZM222.589 281.369H263.412C263.964 281.369 264.412 281.817 264.412 282.369V291.107C264.412 291.66 263.964 292.107 263.412 292.107H222.589C222.037 292.107 221.589 291.66 221.589 291.107V282.369C221.589 281.817 222.037 281.369 222.589 281.369ZM220.589 282.369C220.589 281.265 221.484 280.369 222.589 280.369H263.412C264.516 280.369 265.412 281.265 265.412 282.369V291.107C265.412 292.212 264.516 293.107 263.412 293.107H222.589C221.484 293.107 220.589 292.212 220.589 291.107V282.369ZM224.092 286.738C224.092 286.186 224.54 285.738 225.092 285.738H236.814C237.367 285.738 237.814 286.186 237.814 286.738C237.814 287.291 237.367 287.738 236.814 287.738H225.092C224.54 287.738 224.092 287.291 224.092 286.738ZM258.232 289.334C259.666 289.334 260.828 288.172 260.828 286.738C260.828 285.305 259.666 284.143 258.232 284.143C256.799 284.143 255.637 285.305 255.637 286.738C255.637 288.172 256.799 289.334 258.232 289.334Z" fill="#3B3D3F"/>
</g>
<path d="M169.386 263L-3.12304 263" stroke="url(#paint16_linear_8985_201662)"/>
<path d="M169.386 270L-3.12304 270" stroke="url(#paint17_linear_8985_201662)"/>
<path d="M169.386 256L-3.12304 256" stroke="url(#paint18_linear_8985_201662)"/>
<g filter="url(#filter5_dd_8985_201662)">
<circle cx="315.49" cy="245.422" r="4" fill="white"/>
</g>
<circle cx="315.49" cy="245.421" r="1.33333" fill="#6C6E6F"/>
<g filter="url(#filter6_dd_8985_201662)">
<circle cx="315.49" cy="277.422" r="4" fill="white"/>
</g>
<circle cx="315.49" cy="277.421" r="1.33333" fill="#6C6E6F"/>
<g filter="url(#filter7_dd_8985_201662)">
<circle cx="170.49" cy="245.422" r="4" fill="white"/>
</g>
<circle cx="170.49" cy="245.421" r="1.33333" fill="#6C6E6F"/>
<g filter="url(#filter8_dd_8985_201662)">
<circle cx="170.49" cy="277.422" r="4" fill="white"/>
</g>
<circle cx="170.49" cy="277.421" r="1.33333" fill="#6C6E6F"/>
<path fill-rule="evenodd" clip-rule="evenodd" d="M445.998 377.936C447.572 378.867 449.402 379.156 451.168 378.835C454.668 378.385 457.205 382.206 455.406 385.257C453.672 388.339 449.081 388.018 447.732 384.775C444.553 376.555 432.801 376.555 429.59 384.775C428.273 388.018 423.65 388.339 421.916 385.257C420.15 382.206 422.686 378.385 426.154 378.835C427.92 379.156 429.75 378.835 431.324 377.936C432.929 377.037 434.085 375.624 434.695 373.922C436.108 370.422 441.214 370.422 442.627 373.922C443.237 375.592 444.425 377.037 445.998 377.936ZM438.677 382.367C442.177 382.367 444.232 386.445 442.081 389.271C440.925 390.619 440.283 392.353 440.283 394.183C440.283 395.981 440.925 397.715 442.081 399.096C444.264 401.922 442.177 406.032 438.677 406C435.177 406 433.122 401.922 435.273 399.096C436.429 397.748 437.072 396.014 437.072 394.183C437.072 392.385 436.429 390.651 435.273 389.271C433.09 386.445 435.177 382.335 438.677 382.367Z" fill="#EBECEC"/>
<defs>
<filter id="filter0_i_8985_201662" x="177.386" y="204.385" width="131.229" height="131.229" filterUnits="userSpaceOnUse" color-interpolation-filters="sRGB">
<feFlood flood-opacity="0" result="BackgroundImageFix"/>
<feBlend mode="normal" in="SourceGraphic" in2="BackgroundImageFix" result="shape"/>
<feColorMatrix in="SourceAlpha" type="matrix" values="0 0 0 0 0 0 0 0 0 0 0 0 0 0 0 0 0 0 127 0" result="hardAlpha"/>
<feOffset/>
<feGaussianBlur stdDeviation="2"/>
<feComposite in2="hardAlpha" operator="arithmetic" k2="-1" k3="1"/>
<feColorMatrix type="matrix" values="0 0 0 0 0 0 0 0 0 0 0 0 0 0 0 0 0 0 0.2 0"/>
<feBlend mode="normal" in2="shape" result="effect1_innerShadow_8985_201662"/>
</filter>
<filter id="filter1_d_8985_201662" x="176.386" y="205.385" width="133.229" height="133.229" filterUnits="userSpaceOnUse" color-interpolation-filters="sRGB">
<feFlood flood-opacity="0" result="BackgroundImageFix"/>
<feColorMatrix in="SourceAlpha" type="matrix" values="0 0 0 0 0 0 0 0 0 0 0 0 0 0 0 0 0 0 127 0" result="hardAlpha"/>
<feOffset dy="2"/>
<feGaussianBlur stdDeviation="3"/>
<feComposite in2="hardAlpha" operator="out"/>
<feColorMatrix type="matrix" values="0 0 0 0 0 0 0 0 0 0 0 0 0 0 0 0 0 0 0.25 0"/>
<feBlend mode="normal" in2="BackgroundImageFix" result="effect1_dropShadow_8985_201662"/>
<feBlend mode="normal" in="SourceGraphic" in2="effect1_dropShadow_8985_201662" result="shape"/>
</filter>
<filter id="filter2_i_8985_201662" x="187.386" y="214.385" width="111.229" height="112.229" filterUnits="userSpaceOnUse" color-interpolation-filters="sRGB">
<feFlood flood-opacity="0" result="BackgroundImageFix"/>
<feBlend mode="normal" in="SourceGraphic" in2="BackgroundImageFix" result="shape"/>
<feColorMatrix in="SourceAlpha" type="matrix" values="0 0 0 0 0 0 0 0 0 0 0 0 0 0 0 0 0 0 127 0" result="hardAlpha"/>
<feOffset dy="1"/>
<feGaussianBlur stdDeviation="1.5"/>
<feComposite in2="hardAlpha" operator="arithmetic" k2="-1" k3="1"/>
<feColorMatrix type="matrix" values="0 0 0 0 0 0 0 0 0 0 0 0 0 0 0 0 0 0 0.15 0"/>
<feBlend mode="normal" in2="shape" result="effect1_innerShadow_8985_201662"/>
</filter>
<filter id="filter3_d_8985_201662" x="189.067" y="217.066" width="107.866" height="107.866" filterUnits="userSpaceOnUse" color-interpolation-filters="sRGB">
<feFlood flood-opacity="0" result="BackgroundImageFix"/>
<feColorMatrix in="SourceAlpha" type="matrix" values="0 0 0 0 0 0 0 0 0 0 0 0 0 0 0 0 0 0 127 0" result="hardAlpha"/>
<feOffset dy="1"/>
<feGaussianBlur stdDeviation="2"/>
<feComposite in2="hardAlpha" operator="out"/>
<feColorMatrix type="matrix" values="0 0 0 0 0 0 0 0 0 0 0 0 0 0 0 0 0 0 0.15 0"/>
<feBlend mode="normal" in2="BackgroundImageFix" result="effect1_dropShadow_8985_201662"/>
<feBlend mode="normal" in="SourceGraphic" in2="effect1_dropShadow_8985_201662" result="shape"/>
</filter>
<filter id="filter4_ii_8985_201662" x="220.589" y="246.893" width="44.8228" height="49.2148" filterUnits="userSpaceOnUse" color-interpolation-filters="sRGB">
<feFlood flood-opacity="0" result="BackgroundImageFix"/>
<feBlend mode="normal" in="SourceGraphic" in2="BackgroundImageFix" result="shape"/>
<feColorMatrix in="SourceAlpha" type="matrix" values="0 0 0 0 0 0 0 0 0 0 0 0 0 0 0 0 0 0 127 0" result="hardAlpha"/>
<feOffset dy="1"/>
<feGaussianBlur stdDeviation="0.5"/>
<feComposite in2="hardAlpha" operator="arithmetic" k2="-1" k3="1"/>
<feColorMatrix type="matrix" values="0 0 0 0 0 0 0 0 0 0 0 0 0 0 0 0 0 0 0.35 0"/>
<feBlend mode="normal" in2="shape" result="effect1_innerShadow_8985_201662"/>
<feColorMatrix in="SourceAlpha" type="matrix" values="0 0 0 0 0 0 0 0 0 0 0 0 0 0 0 0 0 0 127 0" result="hardAlpha"/>
<feOffset dy="3"/>
<feGaussianBlur stdDeviation="2"/>
<feComposite in2="hardAlpha" operator="arithmetic" k2="-1" k3="1"/>
<feColorMatrix type="matrix" values="0 0 0 0 0 0 0 0 0 0 0 0 0 0 0 0 0 0 0.25 0"/>
<feBlend mode="normal" in2="effect1_innerShadow_8985_201662" result="effect2_innerShadow_8985_201662"/>
</filter>
<filter id="filter5_dd_8985_201662" x="304.909" y="237.034" width="21.1629" height="21.1629" filterUnits="userSpaceOnUse" color-interpolation-filters="sRGB">
<feFlood flood-opacity="0" result="BackgroundImageFix"/>
<feColorMatrix in="SourceAlpha" type="matrix" values="0 0 0 0 0 0 0 0 0 0 0 0 0 0 0 0 0 0 127 0" result="hardAlpha"/>
<feOffset dy="0.219382"/>
<feGaussianBlur stdDeviation="0.274228"/>
<feComposite in2="hardAlpha" operator="out"/>
<feColorMatrix type="matrix" values="0 0 0 0 0 0 0 0 0 0 0 0 0 0 0 0 0 0 0.5 0"/>
<feBlend mode="normal" in2="BackgroundImageFix" result="effect1_dropShadow_8985_201662"/>
<feColorMatrix in="SourceAlpha" type="matrix" values="0 0 0 0 0 0 0 0 0 0 0 0 0 0 0 0 0 0 127 0" result="hardAlpha"/>
<feOffset dy="2.19382"/>
<feGaussianBlur stdDeviation="3.29074"/>
<feComposite in2="hardAlpha" operator="out"/>
<feColorMatrix type="matrix" values="0 0 0 0 0 0 0 0 0 0 0 0 0 0 0 0 0 0 0.12 0"/>
<feBlend mode="normal" in2="effect1_dropShadow_8985_201662" result="effect2_dropShadow_8985_201662"/>
<feBlend mode="normal" in="SourceGraphic" in2="effect2_dropShadow_8985_201662" result="shape"/>
</filter>
<filter id="filter6_dd_8985_201662" x="304.909" y="269.034" width="21.1629" height="21.1629" filterUnits="userSpaceOnUse" color-interpolation-filters="sRGB">
<feFlood flood-opacity="0" result="BackgroundImageFix"/>
<feColorMatrix in="SourceAlpha" type="matrix" values="0 0 0 0 0 0 0 0 0 0 0 0 0 0 0 0 0 0 127 0" result="hardAlpha"/>
<feOffset dy="0.219382"/>
<feGaussianBlur stdDeviation="0.274228"/>
<feComposite in2="hardAlpha" operator="out"/>
<feColorMatrix type="matrix" values="0 0 0 0 0 0 0 0 0 0 0 0 0 0 0 0 0 0 0.5 0"/>
<feBlend mode="normal" in2="BackgroundImageFix" result="effect1_dropShadow_8985_201662"/>
<feColorMatrix in="SourceAlpha" type="matrix" values="0 0 0 0 0 0 0 0 0 0 0 0 0 0 0 0 0 0 127 0" result="hardAlpha"/>
<feOffset dy="2.19382"/>
<feGaussianBlur stdDeviation="3.29074"/>
<feComposite in2="hardAlpha" operator="out"/>
<feColorMatrix type="matrix" values="0 0 0 0 0 0 0 0 0 0 0 0 0 0 0 0 0 0 0.12 0"/>
<feBlend mode="normal" in2="effect1_dropShadow_8985_201662" result="effect2_dropShadow_8985_201662"/>
<feBlend mode="normal" in="SourceGraphic" in2="effect2_dropShadow_8985_201662" result="shape"/>
</filter>
<filter id="filter7_dd_8985_201662" x="159.909" y="237.034" width="21.1629" height="21.1629" filterUnits="userSpaceOnUse" color-interpolation-filters="sRGB">
<feFlood flood-opacity="0" result="BackgroundImageFix"/>
<feColorMatrix in="SourceAlpha" type="matrix" values="0 0 0 0 0 0 0 0 0 0 0 0 0 0 0 0 0 0 127 0" result="hardAlpha"/>
<feOffset dy="0.219382"/>
<feGaussianBlur stdDeviation="0.274228"/>
<feComposite in2="hardAlpha" operator="out"/>
<feColorMatrix type="matrix" values="0 0 0 0 0 0 0 0 0 0 0 0 0 0 0 0 0 0 0.5 0"/>
<feBlend mode="normal" in2="BackgroundImageFix" result="effect1_dropShadow_8985_201662"/>
<feColorMatrix in="SourceAlpha" type="matrix" values="0 0 0 0 0 0 0 0 0 0 0 0 0 0 0 0 0 0 127 0" result="hardAlpha"/>
<feOffset dy="2.19382"/>
<feGaussianBlur stdDeviation="3.29074"/>
<feComposite in2="hardAlpha" operator="out"/>
<feColorMatrix type="matrix" values="0 0 0 0 0 0 0 0 0 0 0 0 0 0 0 0 0 0 0.12 0"/>
<feBlend mode="normal" in2="effect1_dropShadow_8985_201662" result="effect2_dropShadow_8985_201662"/>
<feBlend mode="normal" in="SourceGraphic" in2="effect2_dropShadow_8985_201662" result="shape"/>
</filter>
<filter id="filter8_dd_8985_201662" x="159.909" y="269.034" width="21.1629" height="21.1629" filterUnits="userSpaceOnUse" color-interpolation-filters="sRGB">
<feFlood flood-opacity="0" result="BackgroundImageFix"/>
<feColorMatrix in="SourceAlpha" type="matrix" values="0 0 0 0 0 0 0 0 0 0 0 0 0 0 0 0 0 0 127 0" result="hardAlpha"/>
<feOffset dy="0.219382"/>
<feGaussianBlur stdDeviation="0.274228"/>
<feComposite in2="hardAlpha" operator="out"/>
<feColorMatrix type="matrix" values="0 0 0 0 0 0 0 0 0 0 0 0 0 0 0 0 0 0 0.5 0"/>
<feBlend mode="normal" in2="BackgroundImageFix" result="effect1_dropShadow_8985_201662"/>
<feColorMatrix in="SourceAlpha" type="matrix" values="0 0 0 0 0 0 0 0 0 0 0 0 0 0 0 0 0 0 127 0" result="hardAlpha"/>
<feOffset dy="2.19382"/>
<feGaussianBlur stdDeviation="3.29074"/>
<feComposite in2="hardAlpha" operator="out"/>
<feColorMatrix type="matrix" values="0 0 0 0 0 0 0 0 0 0 0 0 0 0 0 0 0 0 0.12 0"/>
<feBlend mode="normal" in2="effect1_dropShadow_8985_201662" result="effect2_dropShadow_8985_201662"/>
<feBlend mode="normal" in="SourceGraphic" in2="effect2_dropShadow_8985_201662" result="shape"/>
</filter>
<linearGradient id="paint0_linear_8985_201662" x1="172.724" y1="15.9981" x2="294.724" y2="488.498" gradientUnits="userSpaceOnUse">
<stop stop-color="#F5F6F7" stop-opacity="0"/>
<stop offset="1" stop-color="#D8D9D9" stop-opacity="0.6"/>
</linearGradient>
<linearGradient id="paint1_linear_8985_201662" x1="243.5" y1="120.139" x2="243.5" y2="196.385" gradientUnits="userSpaceOnUse">
<stop stop-color="#CECFCF" stop-opacity="0"/>
<stop offset="1" stop-color="#CECFCF"/>
</linearGradient>
<linearGradient id="paint2_linear_8985_201662" x1="236.5" y1="120.139" x2="236.5" y2="196.385" gradientUnits="userSpaceOnUse">
<stop stop-color="#CECFCF" stop-opacity="0"/>
<stop offset="1" stop-color="#CECFCF"/>
</linearGradient>
<linearGradient id="paint3_linear_8985_201662" x1="250.5" y1="120.139" x2="250.5" y2="196.385" gradientUnits="userSpaceOnUse">
<stop stop-color="#CECFCF" stop-opacity="0"/>
<stop offset="1" stop-color="#CECFCF"/>
</linearGradient>
<linearGradient id="paint4_linear_8985_201662" x1="243.5" y1="419.383" x2="243.5" y2="343.137" gradientUnits="userSpaceOnUse">
<stop stop-color="#CECFCF" stop-opacity="0"/>
<stop offset="1" stop-color="#CECFCF"/>
</linearGradient>
<linearGradient id="paint5_linear_8985_201662" x1="236.5" y1="419.383" x2="236.5" y2="343.137" gradientUnits="userSpaceOnUse">
<stop stop-color="#CECFCF" stop-opacity="0"/>
<stop offset="1" stop-color="#CECFCF"/>
</linearGradient>
<linearGradient id="paint6_linear_8985_201662" x1="250.5" y1="419.383" x2="250.5" y2="343.137" gradientUnits="userSpaceOnUse">
<stop stop-color="#CECFCF" stop-opacity="0"/>
<stop offset="1" stop-color="#CECFCF"/>
</linearGradient>
<linearGradient id="paint7_linear_8985_201662" x1="485.802" y1="263.5" x2="314.615" y2="263.5" gradientUnits="userSpaceOnUse">
<stop stop-color="#CECFCF" stop-opacity="0"/>
<stop offset="1" stop-color="#CECFCF"/>
</linearGradient>
<linearGradient id="paint8_linear_8985_201662" x1="485.802" y1="270.5" x2="314.615" y2="270.5" gradientUnits="userSpaceOnUse">
<stop stop-color="#CECFCF" stop-opacity="0"/>
<stop offset="1" stop-color="#CECFCF"/>
</linearGradient>
<linearGradient id="paint9_linear_8985_201662" x1="485.802" y1="256.5" x2="314.615" y2="256.5" gradientUnits="userSpaceOnUse">
<stop stop-color="#CECFCF" stop-opacity="0"/>
<stop offset="1" stop-color="#CECFCF"/>
</linearGradient>
<linearGradient id="paint10_linear_8985_201662" x1="-6.7793" y1="229.92" x2="488.78" y2="229.92" gradientUnits="userSpaceOnUse">
<stop stop-color="#CECFCF" stop-opacity="0.1"/>
<stop offset="0.147871" stop-color="#CECFCF" stop-opacity="0.6"/>
<stop offset="0.51" stop-color="#6C6E6F"/>
<stop offset="0.895265" stop-color="#CECFCF" stop-opacity="0.6"/>
<stop offset="1" stop-color="#CECFCF" stop-opacity="0.1"/>
</linearGradient>
<linearGradient id="paint11_linear_8985_201662" x1="482.78" y1="291.42" x2="-2.7793" y2="291.42" gradientUnits="userSpaceOnUse">
<stop stop-color="#CECFCF" stop-opacity="0.1"/>
<stop offset="0.147871" stop-color="#CECFCF" stop-opacity="0.6"/>
<stop offset="0.51" stop-color="#6C6E6F"/>
<stop offset="0.895265" stop-color="#CECFCF" stop-opacity="0.6"/>
<stop offset="1" stop-color="#CECFCF" stop-opacity="0.1"/>
</linearGradient>
<linearGradient id="paint12_linear_8985_201662" x1="177.386" y1="269.999" x2="308.615" y2="269.999" gradientUnits="userSpaceOnUse">
<stop stop-color="#E5E8EF" stop-opacity="0"/>
<stop offset="1" stop-color="#F5F5F5"/>
</linearGradient>
<linearGradient id="paint13_linear_8985_201662" x1="243" y1="209.385" x2="243" y2="330.614" gradientUnits="userSpaceOnUse">
<stop stop-color="#FFFDFB"/>
<stop offset="1" stop-color="#F4F5F6"/>
</linearGradient>
<linearGradient id="paint14_linear_8985_201662" x1="243" y1="214.385" x2="243" y2="325.614" gradientUnits="userSpaceOnUse">
<stop stop-color="white" stop-opacity="0"/>
<stop offset="1" stop-color="white"/>
</linearGradient>
<linearGradient id="paint15_linear_8985_201662" x1="243" y1="220.066" x2="243" y2="319.932" gradientUnits="userSpaceOnUse">
<stop stop-color="white"/>
<stop offset="1" stop-color="#F5F6F7"/>
</linearGradient>
<linearGradient id="paint16_linear_8985_201662" x1="-3.12305" y1="262.5" x2="169.386" y2="262.5" gradientUnits="userSpaceOnUse">
<stop stop-color="#CECFCF" stop-opacity="0"/>
<stop offset="1" stop-color="#CECFCF"/>
</linearGradient>
<linearGradient id="paint17_linear_8985_201662" x1="-3.12305" y1="269.5" x2="169.386" y2="269.5" gradientUnits="userSpaceOnUse">
<stop stop-color="#CECFCF" stop-opacity="0"/>
<stop offset="1" stop-color="#CECFCF"/>
</linearGradient>
<linearGradient id="paint18_linear_8985_201662" x1="-3.12305" y1="255.5" x2="169.386" y2="255.5" gradientUnits="userSpaceOnUse">
<stop stop-color="#CECFCF" stop-opacity="0"/>
<stop offset="1" stop-color="#CECFCF"/>
</linearGradient>
</defs>
</svg>
