<svg width="335" height="369" viewBox="0 0 335 369" fill="none" xmlns="http://www.w3.org/2000/svg">
<mask id="mask0_8985_208123" style="mask-type:alpha" maskUnits="userSpaceOnUse" x="-37" y="27" width="411" height="349">
<rect x="-36.9573" y="27.0139" width="410.25" height="348.75" fill="url(#paint0_linear_8985_208123)"/>
</mask>
<g mask="url(#mask0_8985_208123)">
<path d="M0 -1L0 372" stroke="#E2E2E2" stroke-width="0.375"/>
<path d="M3 -1L3 372" stroke="#E2E2E2" stroke-width="0.375"/>
<path d="M6 -1L6 372" stroke="#E2E2E2" stroke-width="0.375"/>
<path d="M9 -1L9 372" stroke="#E2E2E2" stroke-width="0.375"/>
<path d="M12 -1L12 372" stroke="#E2E2E2" stroke-width="0.375"/>
<path d="M15 -1L15 372" stroke="#E2E2E2" stroke-width="0.375"/>
<path d="M18 -1L18 372" stroke="#E2E2E2" stroke-width="0.375"/>
<path d="M21 -1L21 372" stroke="#E2E2E2" stroke-width="0.375"/>
<path d="M24 -1L24 372" stroke="#E2E2E2" stroke-width="0.375"/>
<path d="M27 -1L27 372" stroke="#E2E2E2" stroke-width="0.375"/>
<path d="M30 -1L30 372" stroke="#E2E2E2" stroke-width="0.375"/>
<path d="M33 -1L33 372" stroke="#E2E2E2" stroke-width="0.375"/>
<path d="M36 -1L36 372" stroke="#E2E2E2" stroke-width="0.375"/>
<path d="M39 -1L39 372" stroke="#E2E2E2" stroke-width="0.375"/>
<path d="M42 -1L42 372" stroke="#E2E2E2" stroke-width="0.375"/>
<path d="M45 -1L45 372" stroke="#E2E2E2" stroke-width="0.375"/>
<path d="M48 -1L48 372" stroke="#E2E2E2" stroke-width="0.375"/>
<path d="M51 -1L51 372" stroke="#E2E2E2" stroke-width="0.375"/>
<path d="M54 -1L54 372" stroke="#E2E2E2" stroke-width="0.375"/>
<path d="M57 -1L57 372" stroke="#E2E2E2" stroke-width="0.375"/>
<path d="M60 -1L60 372" stroke="#E2E2E2" stroke-width="0.375"/>
<path d="M63 -1L63 372" stroke="#E2E2E2" stroke-width="0.375"/>
<path d="M66 -1L66 372" stroke="#E2E2E2" stroke-width="0.375"/>
<path d="M69 -1L69 372" stroke="#E2E2E2" stroke-width="0.375"/>
<path d="M72 -1L72 372" stroke="#E2E2E2" stroke-width="0.375"/>
<path d="M75 -1L75 372" stroke="#E2E2E2" stroke-width="0.375"/>
<path d="M78 -1L78 372" stroke="#E2E2E2" stroke-width="0.375"/>
<path d="M81 -1L81 372" stroke="#E2E2E2" stroke-width="0.375"/>
<path d="M84 -1L84 372" stroke="#E2E2E2" stroke-width="0.375"/>
<path d="M87 -1L87 372" stroke="#E2E2E2" stroke-width="0.375"/>
<path d="M90 -1L90 372" stroke="#E2E2E2" stroke-width="0.375"/>
<path d="M93 -1L93 372" stroke="#E2E2E2" stroke-width="0.375"/>
<path d="M96 -1L96 372" stroke="#E2E2E2" stroke-width="0.375"/>
<path d="M99 -1L99 372" stroke="#E2E2E2" stroke-width="0.375"/>
<path d="M102 -1L102 372" stroke="#E2E2E2" stroke-width="0.375"/>
<path d="M105 -1L105 372" stroke="#E2E2E2" stroke-width="0.375"/>
<path d="M108 -1L108 372" stroke="#E2E2E2" stroke-width="0.375"/>
<path d="M111 -1L111 372" stroke="#E2E2E2" stroke-width="0.375"/>
<path d="M114 -1L114 372" stroke="#E2E2E2" stroke-width="0.375"/>
<path d="M117 -1L117 372" stroke="#E2E2E2" stroke-width="0.375"/>
<path d="M120 -1L120 372" stroke="#E2E2E2" stroke-width="0.375"/>
<path d="M123 -1L123 372" stroke="#E2E2E2" stroke-width="0.375"/>
<path d="M126 -1L126 372" stroke="#E2E2E2" stroke-width="0.375"/>
<path d="M129 -1L129 372" stroke="#E2E2E2" stroke-width="0.375"/>
<path d="M132 -1L132 372" stroke="#E2E2E2" stroke-width="0.375"/>
<path d="M135 -1L135 372" stroke="#E2E2E2" stroke-width="0.375"/>
<path d="M138 -1L138 372" stroke="#E2E2E2" stroke-width="0.375"/>
<path d="M141 -1L141 372" stroke="#E2E2E2" stroke-width="0.375"/>
<path d="M144 -1L144 372" stroke="#E2E2E2" stroke-width="0.375"/>
<path d="M147 -1L147 372" stroke="#E2E2E2" stroke-width="0.375"/>
<path d="M150 -1L150 372" stroke="#E2E2E2" stroke-width="0.375"/>
<path d="M153 -1L153 372" stroke="#E2E2E2" stroke-width="0.375"/>
<path d="M156 -1L156 372" stroke="#E2E2E2" stroke-width="0.375"/>
<path d="M159 -1L159 372" stroke="#E2E2E2" stroke-width="0.375"/>
<path d="M162 -1L162 372" stroke="#E2E2E2" stroke-width="0.375"/>
<path d="M165 -1L165 372" stroke="#E2E2E2" stroke-width="0.375"/>
<path d="M168 -1L168 372" stroke="#E2E2E2" stroke-width="0.375"/>
<path d="M171 -1L171 372" stroke="#E2E2E2" stroke-width="0.375"/>
<path d="M174 -1L174 372" stroke="#E2E2E2" stroke-width="0.375"/>
<path d="M177 -1L177 372" stroke="#E2E2E2" stroke-width="0.375"/>
<path d="M180 -1L180 372" stroke="#E2E2E2" stroke-width="0.375"/>
<path d="M183 -1L183 372" stroke="#E2E2E2" stroke-width="0.375"/>
<path d="M186 -1L186 372" stroke="#E2E2E2" stroke-width="0.375"/>
<path d="M189 -1L189 372" stroke="#E2E2E2" stroke-width="0.375"/>
<path d="M192 -1L192 372" stroke="#E2E2E2" stroke-width="0.375"/>
<path d="M195 -1L195 372" stroke="#E2E2E2" stroke-width="0.375"/>
<path d="M198 -1L198 372" stroke="#E2E2E2" stroke-width="0.375"/>
<path d="M201 -1L201 372" stroke="#E2E2E2" stroke-width="0.375"/>
<path d="M204 -1L204 372" stroke="#E2E2E2" stroke-width="0.375"/>
<path d="M207 -1L207 372" stroke="#E2E2E2" stroke-width="0.375"/>
<path d="M210 -1L210 372" stroke="#E2E2E2" stroke-width="0.375"/>
<path d="M213 -1L213 372" stroke="#E2E2E2" stroke-width="0.375"/>
<path d="M216 -1L216 372" stroke="#E2E2E2" stroke-width="0.375"/>
<path d="M219 -1L219 372" stroke="#E2E2E2" stroke-width="0.375"/>
<path d="M222 -1L222 372" stroke="#E2E2E2" stroke-width="0.375"/>
<path d="M225 -1L225 372" stroke="#E2E2E2" stroke-width="0.375"/>
<path d="M228 -1L228 372" stroke="#E2E2E2" stroke-width="0.375"/>
<path d="M231 -1L231 372" stroke="#E2E2E2" stroke-width="0.375"/>
<path d="M234 -1L234 372" stroke="#E2E2E2" stroke-width="0.375"/>
<path d="M237 -1L237 372" stroke="#E2E2E2" stroke-width="0.375"/>
<path d="M240 -1L240 372" stroke="#E2E2E2" stroke-width="0.375"/>
<path d="M243 -1L243 372" stroke="#E2E2E2" stroke-width="0.375"/>
<path d="M246 -1L246 372" stroke="#E2E2E2" stroke-width="0.375"/>
<path d="M249 -1L249 372" stroke="#E2E2E2" stroke-width="0.375"/>
<path d="M252 -1L252 372" stroke="#E2E2E2" stroke-width="0.375"/>
<path d="M255 -1L255 372" stroke="#E2E2E2" stroke-width="0.375"/>
<path d="M258 -1V372" stroke="#E2E2E2" stroke-width="0.375"/>
<path d="M261 -1V372" stroke="#E2E2E2" stroke-width="0.375"/>
<path d="M264 -1L264 372" stroke="#E2E2E2" stroke-width="0.375"/>
<path d="M267 -1L267 372" stroke="#E2E2E2" stroke-width="0.375"/>
<path d="M270 -1V372" stroke="#E2E2E2" stroke-width="0.375"/>
<path d="M273 -1V372" stroke="#E2E2E2" stroke-width="0.375"/>
<path d="M276 -1V372" stroke="#E2E2E2" stroke-width="0.375"/>
<path d="M279 -1V372" stroke="#E2E2E2" stroke-width="0.375"/>
<path d="M282 -1V372" stroke="#E2E2E2" stroke-width="0.375"/>
<path d="M285 -1V372" stroke="#E2E2E2" stroke-width="0.375"/>
<path d="M288 -1V372" stroke="#E2E2E2" stroke-width="0.375"/>
<path d="M291 -1V372" stroke="#E2E2E2" stroke-width="0.375"/>
<path d="M294 -1V372" stroke="#E2E2E2" stroke-width="0.375"/>
<path d="M297 -1V372" stroke="#E2E2E2" stroke-width="0.375"/>
<path d="M300 -1V372" stroke="#E2E2E2" stroke-width="0.375"/>
<path d="M303 -1V372" stroke="#E2E2E2" stroke-width="0.375"/>
<path d="M306 -1V372" stroke="#E2E2E2" stroke-width="0.375"/>
<path d="M309 -1V372" stroke="#E2E2E2" stroke-width="0.375"/>
<path d="M312 -1V372" stroke="#E2E2E2" stroke-width="0.375"/>
<path d="M315 -1V372" stroke="#E2E2E2" stroke-width="0.375"/>
<path d="M318 -1V372" stroke="#E2E2E2" stroke-width="0.375"/>
<path d="M321 -1V372" stroke="#E2E2E2" stroke-width="0.375"/>
<path d="M324 -1V372" stroke="#E2E2E2" stroke-width="0.375"/>
<path d="M327 -1V372" stroke="#E2E2E2" stroke-width="0.375"/>
<path d="M330 -1V372" stroke="#E2E2E2" stroke-width="0.375"/>
<path d="M333 -1V372" stroke="#E2E2E2" stroke-width="0.375"/>
</g>
<path d="M168 183.304L168 126.119" stroke="url(#paint1_linear_8985_208123)" stroke-width="0.75"/>
<path d="M162.75 183.304L162.75 126.119" stroke="url(#paint2_linear_8985_208123)" stroke-width="0.75"/>
<path d="M173.25 183.304L173.25 126.119" stroke="url(#paint3_linear_8985_208123)" stroke-width="0.75"/>
<path d="M168 293.368L168 350.552" stroke="url(#paint4_linear_8985_208123)" stroke-width="0.75"/>
<path d="M162.75 293.368L162.75 350.552" stroke="url(#paint5_linear_8985_208123)" stroke-width="0.75"/>
<path d="M173.25 293.368L173.25 350.552" stroke="url(#paint6_linear_8985_208123)" stroke-width="0.75"/>
<path d="M221.711 233.265H294.659H350.101" stroke="url(#paint7_linear_8985_208123)" stroke-width="0.75"/>
<path d="M221.711 238.515H294.659H350.101" stroke="url(#paint8_linear_8985_208123)" stroke-width="0.75"/>
<path d="M221.711 228.015H294.659H350.101" stroke="url(#paint9_linear_8985_208123)" stroke-width="0.75"/>
<path d="M-19.3344 196.635H54.2193C58.1073 196.635 61.8433 198.145 64.6399 200.846L80.3972 216.065C83.1938 218.766 86.9298 220.275 90.8178 220.275H247.848C252.295 220.275 256.513 218.302 259.363 214.887L270.101 202.023C272.951 198.609 277.169 196.635 281.616 196.635H352.335" stroke="url(#paint10_linear_8985_208123)" stroke-width="0.75" stroke-dasharray="0.75 1.5"/>
<path d="M347.835 266.025L281.84 266.025C277.516 266.025 273.403 264.159 270.554 260.907L259.475 248.254C256.627 245.001 252.514 243.135 248.19 243.135H90.5615C86.5911 243.135 82.7827 244.709 79.971 247.512L65.793 261.648C62.9812 264.451 59.1728 266.025 55.2025 266.025H-16.3345" stroke="url(#paint11_linear_8985_208123)" stroke-width="0.75" stroke-dasharray="0.75 1.5"/>
<path d="M71.9667 270.152C71.7596 270.151 71.592 269.983 71.5923 269.776L71.5974 266.401C71.5977 266.194 71.7659 266.026 71.973 266.027C72.1801 266.027 72.3477 266.195 72.3474 266.402L72.3429 269.402L75.3429 269.407C75.55 269.407 75.7176 269.575 75.7173 269.782C75.717 269.989 75.5488 270.157 75.3417 270.157L71.9667 270.152ZM85.9162 255.87L85.6514 255.604L85.9162 255.87ZM104.279 254.056H91.2114V253.306H104.279V254.056ZM71.7025 269.511L85.6514 255.604L86.1809 256.136L72.232 270.042L71.7025 269.511ZM91.2114 254.056C89.3255 254.056 87.5165 254.804 86.1809 256.136L85.6514 255.604C87.1276 254.133 89.127 253.306 91.2114 253.306V254.056Z" fill="#FF5500"/>
<path d="M264.119 270.152C264.325 270.166 264.504 270.01 264.518 269.804L264.748 266.436C264.762 266.23 264.606 266.051 264.399 266.037C264.192 266.023 264.013 266.179 263.999 266.385L263.796 269.378L260.803 269.175C260.596 269.161 260.417 269.317 260.403 269.523C260.389 269.73 260.545 269.909 260.752 269.923L264.119 270.152ZM251.648 255.456L251.365 255.703L251.648 255.456ZM230.989 253.262H245.996V252.512H230.989V253.262ZM264.427 269.532L251.93 255.209L251.365 255.703L263.862 270.025L264.427 269.532ZM245.996 253.262C248.054 253.262 250.012 254.152 251.365 255.703L251.93 255.209C250.435 253.495 248.271 252.512 245.996 252.512V253.262Z" fill="#1C76FD"/>
<path d="M71.9665 194.179C71.7594 194.179 71.5917 194.347 71.592 194.555L71.5972 197.93C71.5975 198.137 71.7656 198.304 71.9727 198.304C72.1798 198.304 72.3475 198.135 72.3472 197.928L72.3426 194.928L75.3426 194.924C75.5497 194.924 75.7174 194.755 75.717 194.548C75.7167 194.341 75.5486 194.174 75.3415 194.174L71.9665 194.179ZM85.9159 208.461L85.6512 208.726L85.9159 208.461ZM104.279 210.274H91.2112V211.024H104.279V210.274ZM71.7023 194.82L85.6512 208.726L86.1807 208.195L72.2318 194.288L71.7023 194.82ZM91.2112 210.274C89.3253 210.274 87.5163 209.527 86.1807 208.195L85.6512 208.726C87.1273 210.198 89.1267 211.024 91.2112 211.024V210.274Z" fill="#1C76FD"/>
<path d="M264.119 194.18C264.325 194.166 264.504 194.322 264.518 194.528L264.748 197.896C264.762 198.102 264.606 198.281 264.399 198.295C264.192 198.309 264.013 198.153 263.999 197.947L263.796 194.954L260.803 195.157C260.596 195.171 260.417 195.015 260.403 194.809C260.389 194.602 260.545 194.423 260.752 194.409L264.119 194.18ZM251.648 208.876L251.365 208.63L251.648 208.876ZM230.989 211.07H245.996V211.82H230.989V211.07ZM264.427 194.801L251.93 209.123L251.365 208.63L263.862 194.307L264.427 194.801ZM245.996 211.07C248.054 211.07 250.012 210.18 251.365 208.63L251.93 209.123C250.435 210.837 248.271 211.82 245.996 211.82V211.07Z" fill="#FF5500"/>
<path d="M181.43 160.594C181.577 160.448 181.814 160.448 181.961 160.594L184.347 162.981C184.494 163.127 184.494 163.365 184.347 163.511C184.201 163.658 183.963 163.658 183.817 163.511L181.696 161.39L179.574 163.511C179.428 163.658 179.19 163.658 179.044 163.511C178.897 163.365 178.897 163.127 179.044 162.981L181.43 160.594ZM181.321 179.277L181.321 160.86L182.071 160.86L182.071 179.277L181.321 179.277Z" fill="#1C76FD"/>
<path d="M155.137 160.594C155.284 160.448 155.521 160.448 155.668 160.594L158.054 162.981C158.2 163.127 158.2 163.365 158.054 163.511C157.908 163.658 157.67 163.658 157.524 163.511L155.402 161.39L153.281 163.511C153.135 163.658 152.897 163.658 152.751 163.511C152.604 163.365 152.604 163.127 152.751 162.981L155.137 160.594ZM155.027 179.277L155.027 160.86L155.777 160.86L155.777 179.277L155.027 179.277Z" fill="#FF5500"/>
<path d="M155.137 316.814C155.284 316.961 155.521 316.961 155.668 316.814L158.054 314.428C158.2 314.281 158.2 314.044 158.054 313.897C157.908 313.751 157.67 313.751 157.524 313.897L155.402 316.019L153.281 313.897C153.135 313.751 152.897 313.751 152.751 313.897C152.604 314.044 152.604 314.281 152.751 314.428L155.137 316.814ZM155.027 298.132L155.027 316.549L155.777 316.549L155.777 298.132L155.027 298.132Z" fill="#1C76FD"/>
<path d="M181.43 316.814C181.577 316.961 181.814 316.961 181.961 316.814L184.347 314.428C184.494 314.281 184.494 314.044 184.347 313.897C184.201 313.751 183.963 313.751 183.817 313.897L181.696 316.019L179.574 313.897C179.428 313.751 179.19 313.751 179.044 313.897C178.897 314.044 178.897 314.281 179.044 314.428L181.43 316.814ZM181.321 298.132L181.321 316.549L182.071 316.549L182.071 298.132L181.321 298.132Z" fill="#FF5500"/>
<rect x="113.164" y="183.679" width="109.672" height="109.672" rx="23.625" fill="#FEFEFE" stroke="#EBECEC" stroke-width="0.75"/>
<g filter="url(#filter0_i_8985_208123)">
<rect x="118.789" y="189.304" width="98.4218" height="98.4218" rx="18.75" fill="url(#paint12_linear_8985_208123)"/>
</g>
<g filter="url(#filter1_d_8985_208123)">
<rect x="122.539" y="193.054" width="90.9218" height="90.9218" rx="15" fill="url(#paint13_linear_8985_208123)"/>
</g>
<g filter="url(#filter2_i_8985_208123)">
<rect x="126.289" y="196.804" width="83.4218" height="83.4218" rx="11.25" fill="#F3F3F5"/>
</g>
<rect x="126.477" y="196.991" width="83.0468" height="83.0468" rx="11.0625" stroke="url(#paint14_linear_8985_208123)" stroke-width="0.375"/>
<g filter="url(#filter3_d_8985_208123)">
<rect x="130.551" y="201.065" width="74.8993" height="74.8993" rx="7.5" fill="url(#paint15_linear_8985_208123)"/>
</g>
<g filter="url(#filter4_ii_8985_208123)">
<path fill-rule="evenodd" clip-rule="evenodd" d="M183.309 221.935H152.692C152.277 221.935 151.942 222.271 151.942 222.685V229.239C151.942 229.653 152.277 229.989 152.692 229.989H183.309C183.723 229.989 184.059 229.653 184.059 229.239V222.685C184.059 222.271 183.723 221.935 183.309 221.935ZM152.692 221.185C151.863 221.185 151.192 221.856 151.192 222.685V229.239C151.192 230.067 151.863 230.739 152.692 230.739H183.309C184.137 230.739 184.809 230.067 184.809 229.239V222.685C184.809 221.856 184.137 221.185 183.309 221.185H152.692ZM153.819 225.962C153.819 225.547 154.155 225.212 154.569 225.212H163.361C163.775 225.212 164.111 225.547 164.111 225.962C164.111 226.376 163.775 226.712 163.361 226.712H154.569C154.155 226.712 153.819 226.376 153.819 225.962ZM179.424 227.908C180.499 227.908 181.371 227.037 181.371 225.962C181.371 224.886 180.499 224.015 179.424 224.015C178.349 224.015 177.477 224.886 177.477 225.962C177.477 227.037 178.349 227.908 179.424 227.908ZM183.309 234.489H152.692C152.277 234.489 151.942 234.824 151.942 235.239V241.792C151.942 242.206 152.277 242.542 152.692 242.542H183.309C183.723 242.542 184.059 242.206 184.059 241.792V235.239C184.059 234.824 183.723 234.489 183.309 234.489ZM152.692 233.739C151.863 233.739 151.192 234.41 151.192 235.239V241.792C151.192 242.621 151.863 243.292 152.692 243.292H183.309C184.137 243.292 184.809 242.621 184.809 241.792V235.239C184.809 234.41 184.137 233.739 183.309 233.739H152.692ZM154.569 237.765C154.155 237.765 153.819 238.101 153.819 238.515C153.819 238.93 154.155 239.265 154.569 239.265H163.361C163.775 239.265 164.111 238.93 164.111 238.515C164.111 238.101 163.775 237.765 163.361 237.765H154.569ZM181.371 238.515C181.371 239.591 180.499 240.462 179.424 240.462C178.349 240.462 177.477 239.591 177.477 238.515C177.477 237.44 178.349 236.569 179.424 236.569C180.499 236.569 181.371 237.44 181.371 238.515ZM152.692 247.042H183.309C183.723 247.042 184.059 247.378 184.059 247.792V254.346C184.059 254.76 183.723 255.096 183.309 255.096H152.692C152.277 255.096 151.942 254.76 151.942 254.346V247.792C151.942 247.378 152.277 247.042 152.692 247.042ZM151.192 247.792C151.192 246.964 151.863 246.292 152.692 246.292H183.309C184.137 246.292 184.809 246.964 184.809 247.792V254.346C184.809 255.174 184.137 255.846 183.309 255.846H152.692C151.863 255.846 151.192 255.174 151.192 254.346V247.792ZM153.819 251.069C153.819 250.655 154.155 250.319 154.569 250.319H163.361C163.775 250.319 164.111 250.655 164.111 251.069C164.111 251.483 163.775 251.819 163.361 251.819H154.569C154.155 251.819 153.819 251.483 153.819 251.069ZM179.424 253.016C180.499 253.016 181.371 252.144 181.371 251.069C181.371 249.994 180.499 249.122 179.424 249.122C178.349 249.122 177.477 249.994 177.477 251.069C177.477 252.144 178.349 253.016 179.424 253.016Z" fill="#3B3D3F"/>
</g>
<path d="M112.789 233.265L-16.5923 233.265" stroke="url(#paint16_linear_8985_208123)" stroke-width="0.75"/>
<path d="M112.789 238.515L-16.5923 238.515" stroke="url(#paint17_linear_8985_208123)" stroke-width="0.75"/>
<path d="M112.789 228.015L-16.5923 228.015" stroke="url(#paint18_linear_8985_208123)" stroke-width="0.75"/>
<g filter="url(#filter5_dd_8985_208123)">
<circle cx="222.368" cy="220.082" r="3" fill="white"/>
</g>
<circle cx="222.368" cy="220.081" r="1" fill="#6C6E6F"/>
<g filter="url(#filter6_dd_8985_208123)">
<circle cx="222.368" cy="244.082" r="3" fill="white"/>
</g>
<circle cx="222.368" cy="244.081" r="1" fill="#6C6E6F"/>
<g filter="url(#filter7_dd_8985_208123)">
<circle cx="113.618" cy="220.082" r="3" fill="white"/>
</g>
<circle cx="113.618" cy="220.081" r="1" fill="#6C6E6F"/>
<g filter="url(#filter8_dd_8985_208123)">
<circle cx="113.618" cy="244.082" r="3" fill="white"/>
</g>
<circle cx="113.618" cy="244.081" r="1" fill="#6C6E6F"/>
<path fill-rule="evenodd" clip-rule="evenodd" d="M309.249 323.467C310.429 324.166 311.801 324.382 313.126 324.141C315.751 323.804 317.653 326.67 316.305 328.958C315.004 331.27 311.561 331.029 310.549 328.597C308.165 322.432 299.351 322.432 296.942 328.597C295.955 331.029 292.487 331.27 291.187 328.958C289.862 326.67 291.765 323.804 294.366 324.141C295.69 324.382 297.063 324.141 298.243 323.467C299.447 322.793 300.314 321.733 300.772 320.457C301.831 317.832 305.66 317.832 306.72 320.457C307.178 321.709 308.069 322.793 309.249 323.467ZM303.758 326.791C306.383 326.791 307.924 329.849 306.311 331.968C305.444 332.98 304.962 334.28 304.962 335.653C304.962 337.001 305.444 338.302 306.311 339.338C307.948 341.457 306.383 344.539 303.758 344.515C301.133 344.515 299.591 341.457 301.205 339.338C302.072 338.326 302.554 337.026 302.554 335.653C302.554 334.304 302.072 333.004 301.205 331.968C299.567 329.849 301.133 326.766 303.758 326.791Z" fill="#EBECEC"/>
<defs>
<filter id="filter0_i_8985_208123" x="118.789" y="189.304" width="98.4216" height="98.4218" filterUnits="userSpaceOnUse" color-interpolation-filters="sRGB">
<feFlood flood-opacity="0" result="BackgroundImageFix"/>
<feBlend mode="normal" in="SourceGraphic" in2="BackgroundImageFix" result="shape"/>
<feColorMatrix in="SourceAlpha" type="matrix" values="0 0 0 0 0 0 0 0 0 0 0 0 0 0 0 0 0 0 127 0" result="hardAlpha"/>
<feOffset/>
<feGaussianBlur stdDeviation="1.5"/>
<feComposite in2="hardAlpha" operator="arithmetic" k2="-1" k3="1"/>
<feColorMatrix type="matrix" values="0 0 0 0 0 0 0 0 0 0 0 0 0 0 0 0 0 0 0.2 0"/>
<feBlend mode="normal" in2="shape" result="effect1_innerShadow_8985_208123"/>
</filter>
<filter id="filter1_d_8985_208123" x="118.039" y="190.054" width="99.9216" height="99.9218" filterUnits="userSpaceOnUse" color-interpolation-filters="sRGB">
<feFlood flood-opacity="0" result="BackgroundImageFix"/>
<feColorMatrix in="SourceAlpha" type="matrix" values="0 0 0 0 0 0 0 0 0 0 0 0 0 0 0 0 0 0 127 0" result="hardAlpha"/>
<feOffset dy="1.5"/>
<feGaussianBlur stdDeviation="2.25"/>
<feComposite in2="hardAlpha" operator="out"/>
<feColorMatrix type="matrix" values="0 0 0 0 0 0 0 0 0 0 0 0 0 0 0 0 0 0 0.25 0"/>
<feBlend mode="normal" in2="BackgroundImageFix" result="effect1_dropShadow_8985_208123"/>
<feBlend mode="normal" in="SourceGraphic" in2="effect1_dropShadow_8985_208123" result="shape"/>
</filter>
<filter id="filter2_i_8985_208123" x="126.289" y="196.804" width="83.4216" height="84.1718" filterUnits="userSpaceOnUse" color-interpolation-filters="sRGB">
<feFlood flood-opacity="0" result="BackgroundImageFix"/>
<feBlend mode="normal" in="SourceGraphic" in2="BackgroundImageFix" result="shape"/>
<feColorMatrix in="SourceAlpha" type="matrix" values="0 0 0 0 0 0 0 0 0 0 0 0 0 0 0 0 0 0 127 0" result="hardAlpha"/>
<feOffset dy="0.75"/>
<feGaussianBlur stdDeviation="1.125"/>
<feComposite in2="hardAlpha" operator="arithmetic" k2="-1" k3="1"/>
<feColorMatrix type="matrix" values="0 0 0 0 0 0 0 0 0 0 0 0 0 0 0 0 0 0 0.15 0"/>
<feBlend mode="normal" in2="shape" result="effect1_innerShadow_8985_208123"/>
</filter>
<filter id="filter3_d_8985_208123" x="127.551" y="198.815" width="80.8992" height="80.8993" filterUnits="userSpaceOnUse" color-interpolation-filters="sRGB">
<feFlood flood-opacity="0" result="BackgroundImageFix"/>
<feColorMatrix in="SourceAlpha" type="matrix" values="0 0 0 0 0 0 0 0 0 0 0 0 0 0 0 0 0 0 127 0" result="hardAlpha"/>
<feOffset dy="0.75"/>
<feGaussianBlur stdDeviation="1.5"/>
<feComposite in2="hardAlpha" operator="out"/>
<feColorMatrix type="matrix" values="0 0 0 0 0 0 0 0 0 0 0 0 0 0 0 0 0 0 0.15 0"/>
<feBlend mode="normal" in2="BackgroundImageFix" result="effect1_dropShadow_8985_208123"/>
<feBlend mode="normal" in="SourceGraphic" in2="effect1_dropShadow_8985_208123" result="shape"/>
</filter>
<filter id="filter4_ii_8985_208123" x="151.192" y="221.185" width="33.6169" height="36.9111" filterUnits="userSpaceOnUse" color-interpolation-filters="sRGB">
<feFlood flood-opacity="0" result="BackgroundImageFix"/>
<feBlend mode="normal" in="SourceGraphic" in2="BackgroundImageFix" result="shape"/>
<feColorMatrix in="SourceAlpha" type="matrix" values="0 0 0 0 0 0 0 0 0 0 0 0 0 0 0 0 0 0 127 0" result="hardAlpha"/>
<feOffset dy="0.75"/>
<feGaussianBlur stdDeviation="0.375"/>
<feComposite in2="hardAlpha" operator="arithmetic" k2="-1" k3="1"/>
<feColorMatrix type="matrix" values="0 0 0 0 0 0 0 0 0 0 0 0 0 0 0 0 0 0 0.35 0"/>
<feBlend mode="normal" in2="shape" result="effect1_innerShadow_8985_208123"/>
<feColorMatrix in="SourceAlpha" type="matrix" values="0 0 0 0 0 0 0 0 0 0 0 0 0 0 0 0 0 0 127 0" result="hardAlpha"/>
<feOffset dy="2.25"/>
<feGaussianBlur stdDeviation="1.5"/>
<feComposite in2="hardAlpha" operator="arithmetic" k2="-1" k3="1"/>
<feColorMatrix type="matrix" values="0 0 0 0 0 0 0 0 0 0 0 0 0 0 0 0 0 0 0.25 0"/>
<feBlend mode="normal" in2="effect1_innerShadow_8985_208123" result="effect2_innerShadow_8985_208123"/>
</filter>
<filter id="filter5_dd_8985_208123" x="214.432" y="213.791" width="15.8722" height="15.8722" filterUnits="userSpaceOnUse" color-interpolation-filters="sRGB">
<feFlood flood-opacity="0" result="BackgroundImageFix"/>
<feColorMatrix in="SourceAlpha" type="matrix" values="0 0 0 0 0 0 0 0 0 0 0 0 0 0 0 0 0 0 127 0" result="hardAlpha"/>
<feOffset dy="0.164537"/>
<feGaussianBlur stdDeviation="0.205671"/>
<feComposite in2="hardAlpha" operator="out"/>
<feColorMatrix type="matrix" values="0 0 0 0 0 0 0 0 0 0 0 0 0 0 0 0 0 0 0.5 0"/>
<feBlend mode="normal" in2="BackgroundImageFix" result="effect1_dropShadow_8985_208123"/>
<feColorMatrix in="SourceAlpha" type="matrix" values="0 0 0 0 0 0 0 0 0 0 0 0 0 0 0 0 0 0 127 0" result="hardAlpha"/>
<feOffset dy="1.64537"/>
<feGaussianBlur stdDeviation="2.46805"/>
<feComposite in2="hardAlpha" operator="out"/>
<feColorMatrix type="matrix" values="0 0 0 0 0 0 0 0 0 0 0 0 0 0 0 0 0 0 0.12 0"/>
<feBlend mode="normal" in2="effect1_dropShadow_8985_208123" result="effect2_dropShadow_8985_208123"/>
<feBlend mode="normal" in="SourceGraphic" in2="effect2_dropShadow_8985_208123" result="shape"/>
</filter>
<filter id="filter6_dd_8985_208123" x="214.432" y="237.791" width="15.8722" height="15.8722" filterUnits="userSpaceOnUse" color-interpolation-filters="sRGB">
<feFlood flood-opacity="0" result="BackgroundImageFix"/>
<feColorMatrix in="SourceAlpha" type="matrix" values="0 0 0 0 0 0 0 0 0 0 0 0 0 0 0 0 0 0 127 0" result="hardAlpha"/>
<feOffset dy="0.164537"/>
<feGaussianBlur stdDeviation="0.205671"/>
<feComposite in2="hardAlpha" operator="out"/>
<feColorMatrix type="matrix" values="0 0 0 0 0 0 0 0 0 0 0 0 0 0 0 0 0 0 0.5 0"/>
<feBlend mode="normal" in2="BackgroundImageFix" result="effect1_dropShadow_8985_208123"/>
<feColorMatrix in="SourceAlpha" type="matrix" values="0 0 0 0 0 0 0 0 0 0 0 0 0 0 0 0 0 0 127 0" result="hardAlpha"/>
<feOffset dy="1.64537"/>
<feGaussianBlur stdDeviation="2.46805"/>
<feComposite in2="hardAlpha" operator="out"/>
<feColorMatrix type="matrix" values="0 0 0 0 0 0 0 0 0 0 0 0 0 0 0 0 0 0 0.12 0"/>
<feBlend mode="normal" in2="effect1_dropShadow_8985_208123" result="effect2_dropShadow_8985_208123"/>
<feBlend mode="normal" in="SourceGraphic" in2="effect2_dropShadow_8985_208123" result="shape"/>
</filter>
<filter id="filter7_dd_8985_208123" x="105.682" y="213.791" width="15.8722" height="15.8722" filterUnits="userSpaceOnUse" color-interpolation-filters="sRGB">
<feFlood flood-opacity="0" result="BackgroundImageFix"/>
<feColorMatrix in="SourceAlpha" type="matrix" values="0 0 0 0 0 0 0 0 0 0 0 0 0 0 0 0 0 0 127 0" result="hardAlpha"/>
<feOffset dy="0.164537"/>
<feGaussianBlur stdDeviation="0.205671"/>
<feComposite in2="hardAlpha" operator="out"/>
<feColorMatrix type="matrix" values="0 0 0 0 0 0 0 0 0 0 0 0 0 0 0 0 0 0 0.5 0"/>
<feBlend mode="normal" in2="BackgroundImageFix" result="effect1_dropShadow_8985_208123"/>
<feColorMatrix in="SourceAlpha" type="matrix" values="0 0 0 0 0 0 0 0 0 0 0 0 0 0 0 0 0 0 127 0" result="hardAlpha"/>
<feOffset dy="1.64537"/>
<feGaussianBlur stdDeviation="2.46805"/>
<feComposite in2="hardAlpha" operator="out"/>
<feColorMatrix type="matrix" values="0 0 0 0 0 0 0 0 0 0 0 0 0 0 0 0 0 0 0.12 0"/>
<feBlend mode="normal" in2="effect1_dropShadow_8985_208123" result="effect2_dropShadow_8985_208123"/>
<feBlend mode="normal" in="SourceGraphic" in2="effect2_dropShadow_8985_208123" result="shape"/>
</filter>
<filter id="filter8_dd_8985_208123" x="105.682" y="237.791" width="15.8722" height="15.8722" filterUnits="userSpaceOnUse" color-interpolation-filters="sRGB">
<feFlood flood-opacity="0" result="BackgroundImageFix"/>
<feColorMatrix in="SourceAlpha" type="matrix" values="0 0 0 0 0 0 0 0 0 0 0 0 0 0 0 0 0 0 127 0" result="hardAlpha"/>
<feOffset dy="0.164537"/>
<feGaussianBlur stdDeviation="0.205671"/>
<feComposite in2="hardAlpha" operator="out"/>
<feColorMatrix type="matrix" values="0 0 0 0 0 0 0 0 0 0 0 0 0 0 0 0 0 0 0.5 0"/>
<feBlend mode="normal" in2="BackgroundImageFix" result="effect1_dropShadow_8985_208123"/>
<feColorMatrix in="SourceAlpha" type="matrix" values="0 0 0 0 0 0 0 0 0 0 0 0 0 0 0 0 0 0 127 0" result="hardAlpha"/>
<feOffset dy="1.64537"/>
<feGaussianBlur stdDeviation="2.46805"/>
<feComposite in2="hardAlpha" operator="out"/>
<feColorMatrix type="matrix" values="0 0 0 0 0 0 0 0 0 0 0 0 0 0 0 0 0 0 0.12 0"/>
<feBlend mode="normal" in2="effect1_dropShadow_8985_208123" result="effect2_dropShadow_8985_208123"/>
<feBlend mode="normal" in="SourceGraphic" in2="effect2_dropShadow_8985_208123" result="shape"/>
</filter>
<linearGradient id="paint0_linear_8985_208123" x1="115.293" y1="48.0139" x2="206.793" y2="402.389" gradientUnits="userSpaceOnUse">
<stop stop-color="#F5F6F7" stop-opacity="0"/>
<stop offset="1" stop-color="#D8D9D9" stop-opacity="0.6"/>
</linearGradient>
<linearGradient id="paint1_linear_8985_208123" x1="168.5" y1="126.119" x2="168.5" y2="183.304" gradientUnits="userSpaceOnUse">
<stop stop-color="#CECFCF" stop-opacity="0"/>
<stop offset="1" stop-color="#CECFCF"/>
</linearGradient>
<linearGradient id="paint2_linear_8985_208123" x1="163.25" y1="126.119" x2="163.25" y2="183.304" gradientUnits="userSpaceOnUse">
<stop stop-color="#CECFCF" stop-opacity="0"/>
<stop offset="1" stop-color="#CECFCF"/>
</linearGradient>
<linearGradient id="paint3_linear_8985_208123" x1="173.75" y1="126.119" x2="173.75" y2="183.304" gradientUnits="userSpaceOnUse">
<stop stop-color="#CECFCF" stop-opacity="0"/>
<stop offset="1" stop-color="#CECFCF"/>
</linearGradient>
<linearGradient id="paint4_linear_8985_208123" x1="168.5" y1="350.552" x2="168.5" y2="293.368" gradientUnits="userSpaceOnUse">
<stop stop-color="#CECFCF" stop-opacity="0"/>
<stop offset="1" stop-color="#CECFCF"/>
</linearGradient>
<linearGradient id="paint5_linear_8985_208123" x1="163.25" y1="350.552" x2="163.25" y2="293.368" gradientUnits="userSpaceOnUse">
<stop stop-color="#CECFCF" stop-opacity="0"/>
<stop offset="1" stop-color="#CECFCF"/>
</linearGradient>
<linearGradient id="paint6_linear_8985_208123" x1="173.75" y1="350.552" x2="173.75" y2="293.368" gradientUnits="userSpaceOnUse">
<stop stop-color="#CECFCF" stop-opacity="0"/>
<stop offset="1" stop-color="#CECFCF"/>
</linearGradient>
<linearGradient id="paint7_linear_8985_208123" x1="350.101" y1="233.765" x2="221.711" y2="233.765" gradientUnits="userSpaceOnUse">
<stop stop-color="#CECFCF" stop-opacity="0"/>
<stop offset="1" stop-color="#CECFCF"/>
</linearGradient>
<linearGradient id="paint8_linear_8985_208123" x1="350.101" y1="239.015" x2="221.711" y2="239.015" gradientUnits="userSpaceOnUse">
<stop stop-color="#CECFCF" stop-opacity="0"/>
<stop offset="1" stop-color="#CECFCF"/>
</linearGradient>
<linearGradient id="paint9_linear_8985_208123" x1="350.101" y1="228.515" x2="221.711" y2="228.515" gradientUnits="userSpaceOnUse">
<stop stop-color="#CECFCF" stop-opacity="0"/>
<stop offset="1" stop-color="#CECFCF"/>
</linearGradient>
<linearGradient id="paint10_linear_8985_208123" x1="-19.3344" y1="208.455" x2="352.335" y2="208.455" gradientUnits="userSpaceOnUse">
<stop stop-color="#CECFCF" stop-opacity="0.1"/>
<stop offset="0.147871" stop-color="#CECFCF" stop-opacity="0.6"/>
<stop offset="0.51" stop-color="#6C6E6F"/>
<stop offset="0.895265" stop-color="#CECFCF" stop-opacity="0.6"/>
<stop offset="1" stop-color="#CECFCF" stop-opacity="0.1"/>
</linearGradient>
<linearGradient id="paint11_linear_8985_208123" x1="347.835" y1="254.58" x2="-16.3345" y2="254.58" gradientUnits="userSpaceOnUse">
<stop stop-color="#CECFCF" stop-opacity="0.1"/>
<stop offset="0.147871" stop-color="#CECFCF" stop-opacity="0.6"/>
<stop offset="0.51" stop-color="#6C6E6F"/>
<stop offset="0.895265" stop-color="#CECFCF" stop-opacity="0.6"/>
<stop offset="1" stop-color="#CECFCF" stop-opacity="0.1"/>
</linearGradient>
<linearGradient id="paint12_linear_8985_208123" x1="118.789" y1="238.515" x2="217.211" y2="238.515" gradientUnits="userSpaceOnUse">
<stop stop-color="#E5E8EF" stop-opacity="0"/>
<stop offset="1" stop-color="#F5F5F5"/>
</linearGradient>
<linearGradient id="paint13_linear_8985_208123" x1="168" y1="193.054" x2="168" y2="283.976" gradientUnits="userSpaceOnUse">
<stop stop-color="#FFFDFB"/>
<stop offset="1" stop-color="#F4F5F6"/>
</linearGradient>
<linearGradient id="paint14_linear_8985_208123" x1="168" y1="196.804" x2="168" y2="280.226" gradientUnits="userSpaceOnUse">
<stop stop-color="white" stop-opacity="0"/>
<stop offset="1" stop-color="white"/>
</linearGradient>
<linearGradient id="paint15_linear_8985_208123" x1="168" y1="201.065" x2="168" y2="275.964" gradientUnits="userSpaceOnUse">
<stop stop-color="white"/>
<stop offset="1" stop-color="#F5F6F7"/>
</linearGradient>
<linearGradient id="paint16_linear_8985_208123" x1="-16.5923" y1="232.765" x2="112.789" y2="232.765" gradientUnits="userSpaceOnUse">
<stop stop-color="#CECFCF" stop-opacity="0"/>
<stop offset="1" stop-color="#CECFCF"/>
</linearGradient>
<linearGradient id="paint17_linear_8985_208123" x1="-16.5923" y1="238.015" x2="112.789" y2="238.015" gradientUnits="userSpaceOnUse">
<stop stop-color="#CECFCF" stop-opacity="0"/>
<stop offset="1" stop-color="#CECFCF"/>
</linearGradient>
<linearGradient id="paint18_linear_8985_208123" x1="-16.5923" y1="227.515" x2="112.789" y2="227.515" gradientUnits="userSpaceOnUse">
<stop stop-color="#CECFCF" stop-opacity="0"/>
<stop offset="1" stop-color="#CECFCF"/>
</linearGradient>
</defs>
</svg>
