<svg width="387" height="326" viewBox="0 0 387 326" fill="none" xmlns="http://www.w3.org/2000/svg">
<g opacity="0.1">
<path d="M-230.334 11.0312H617.666" stroke="#3B3D3F" stroke-linecap="square" stroke-linejoin="round"/>
<path d="M-230.334 27.0312H617.666" stroke="#3B3D3F" stroke-linecap="square" stroke-linejoin="round"/>
<path d="M-230.334 43.0312H617.666" stroke="#3B3D3F" stroke-linecap="square" stroke-linejoin="round"/>
<path d="M-230.334 59.0312H617.666" stroke="#3B3D3F" stroke-linecap="square" stroke-linejoin="round"/>
<path d="M-230.334 75.0312H617.666" stroke="#3B3D3F" stroke-linecap="square" stroke-linejoin="round"/>
<path d="M-230.334 91.0312H617.666" stroke="#3B3D3F" stroke-linecap="square" stroke-linejoin="round"/>
<path d="M-230.334 107.031H617.666" stroke="#3B3D3F" stroke-linecap="square" stroke-linejoin="round"/>
<path d="M-230.334 123.031H617.666" stroke="#3B3D3F" stroke-linecap="square" stroke-linejoin="round"/>
<path d="M-230.334 139.031H617.666" stroke="#3B3D3F" stroke-linecap="square" stroke-linejoin="round"/>
<path d="M-230.334 155.031H617.666" stroke="#3B3D3F" stroke-linecap="square" stroke-linejoin="round"/>
<path d="M-230.334 171.031H617.666" stroke="#3B3D3F" stroke-linecap="square" stroke-linejoin="round"/>
<path d="M-230.334 187.031H617.666" stroke="#3B3D3F" stroke-linecap="square" stroke-linejoin="round"/>
<path d="M-230.334 203.031H617.666" stroke="#3B3D3F" stroke-linecap="square" stroke-linejoin="round"/>
<path d="M-230.334 219.031H617.666" stroke="#3B3D3F" stroke-linecap="square" stroke-linejoin="round"/>
<path d="M-230.334 235.031H617.666" stroke="#3B3D3F" stroke-linecap="square" stroke-linejoin="round"/>
<path d="M-230.334 251.031H617.666" stroke="#3B3D3F" stroke-linecap="square" stroke-linejoin="round"/>
<path d="M-230.334 267.031H617.666" stroke="#3B3D3F" stroke-linecap="square" stroke-linejoin="round"/>
<path d="M-230.334 283.031H617.666" stroke="#3B3D3F" stroke-linecap="square" stroke-linejoin="round"/>
<path d="M9.66602 -4.96875L9.66603 302.031" stroke="#3B3D3F" stroke-linecap="square" stroke-linejoin="round"/>
<path d="M25.666 -4.96875L25.666 302.031" stroke="#3B3D3F" stroke-linecap="square" stroke-linejoin="round"/>
<path d="M41.666 -4.96875L41.666 302.031" stroke="#3B3D3F" stroke-linecap="square" stroke-linejoin="round"/>
<path d="M57.666 -4.96875L57.666 302.031" stroke="#3B3D3F" stroke-linecap="square" stroke-linejoin="round"/>
<path d="M73.666 -4.96875L73.666 302.031" stroke="#3B3D3F" stroke-linecap="square" stroke-linejoin="round"/>
<path d="M89.666 -4.96875L89.666 302.031" stroke="#3B3D3F" stroke-linecap="square" stroke-linejoin="round"/>
<path d="M105.666 -4.96875L105.666 302.031" stroke="#3B3D3F" stroke-linecap="square" stroke-linejoin="round"/>
<path d="M121.666 -4.96875L121.666 302.031" stroke="#3B3D3F" stroke-linecap="square" stroke-linejoin="round"/>
<path d="M137.666 -4.96875L137.666 302.031" stroke="#3B3D3F" stroke-linecap="square" stroke-linejoin="round"/>
<path d="M153.666 -4.96875L153.666 302.031" stroke="#3B3D3F" stroke-linecap="square" stroke-linejoin="round"/>
<path d="M169.666 -4.96875L169.666 302.031" stroke="#3B3D3F" stroke-linecap="square" stroke-linejoin="round"/>
<path d="M185.666 -4.96875L185.666 302.031" stroke="#3B3D3F" stroke-linecap="square" stroke-linejoin="round"/>
<path d="M201.666 -4.96875L201.666 302.031" stroke="#3B3D3F" stroke-linecap="square" stroke-linejoin="round"/>
<path d="M217.666 -4.96875L217.666 302.031" stroke="#3B3D3F" stroke-linecap="square" stroke-linejoin="round"/>
<path d="M233.666 -4.96875L233.666 302.031" stroke="#3B3D3F" stroke-linecap="square" stroke-linejoin="round"/>
<path d="M249.666 -4.96875L249.666 302.031" stroke="#3B3D3F" stroke-linecap="square" stroke-linejoin="round"/>
<path d="M265.666 -4.96875L265.666 302.031" stroke="#3B3D3F" stroke-linecap="square" stroke-linejoin="round"/>
<path d="M281.666 -4.96875L281.666 302.031" stroke="#3B3D3F" stroke-linecap="square" stroke-linejoin="round"/>
<path d="M297.666 -4.96875L297.666 302.031" stroke="#3B3D3F" stroke-linecap="square" stroke-linejoin="round"/>
<path d="M313.666 -4.96875L313.666 302.031" stroke="#3B3D3F" stroke-linecap="square" stroke-linejoin="round"/>
<path d="M329.666 -4.96875L329.666 302.031" stroke="#3B3D3F" stroke-linecap="square" stroke-linejoin="round"/>
<path d="M345.666 -4.96875L345.666 302.031" stroke="#3B3D3F" stroke-linecap="square" stroke-linejoin="round"/>
<path d="M361.666 -4.96875L361.666 302.031" stroke="#3B3D3F" stroke-linecap="square" stroke-linejoin="round"/>
<path d="M377.666 -4.96875L377.666 302.031" stroke="#3B3D3F" stroke-linecap="square" stroke-linejoin="round"/>
</g>
<path d="M79.2773 43.9999L308.055 44" stroke="url(#paint0_linear_8559_7457)" stroke-linecap="round"/>
<path d="M130.334 155H81.334C76.9157 155 73.334 158.582 73.334 163V279" stroke="#25292C" stroke-linecap="round"/>
<path d="M193.67 41.3447L193.67 78.8129" stroke="#25292C" stroke-linecap="round"/>
<path d="M257.473 155H306.666C311.084 155 314.666 158.582 314.666 163V279" stroke="#25292C" stroke-linecap="round"/>
<rect x="69.77" y="152.436" width="7.97175" height="7.97175" rx="3.98587" fill="url(#paint1_linear_8559_7457)" stroke="url(#paint2_linear_8559_7457)" stroke-width="0.872003"/>
<rect x="310.77" y="153.436" width="7.97175" height="7.97175" rx="3.98587" fill="url(#paint3_linear_8559_7457)" stroke="url(#paint4_linear_8559_7457)" stroke-width="0.872003"/>
<rect x="189.514" y="39.0454" width="7.97175" height="7.97175" rx="3.98587" fill="url(#paint5_linear_8559_7457)" stroke="url(#paint6_linear_8559_7457)" stroke-width="0.872003"/>
<rect x="-6.33398" y="223.383" width="400" height="102.617" fill="url(#paint7_linear_8559_7457)"/>
<g filter="url(#filter0_f_8559_7457)">
<path d="M188.44 82.6266C191.674 80.7595 195.658 80.7595 198.892 82.6266L258.59 117.093C261.824 118.96 263.816 122.411 263.816 126.145V195.078C263.816 198.812 261.824 202.263 258.59 204.13L198.892 238.597C195.658 240.464 191.674 240.464 188.44 238.597L128.742 204.13C125.508 202.263 123.516 198.812 123.516 195.078V126.145C123.516 122.411 125.508 118.96 128.742 117.093L188.44 82.6266Z" fill="#0A0D0F"/>
</g>
<path d="M191.602 76.7393C192.792 76.4862 194.018 76.4547 195.218 76.6445L195.73 76.7393C196.87 76.9814 197.964 77.5058 199.738 78.502L201.766 79.6631L255.192 110.509C258.077 112.174 259.518 113.012 260.543 114.062L260.742 114.274C261.557 115.179 262.197 116.225 262.633 117.359L262.807 117.851C263.286 119.327 263.293 120.987 263.293 124.539V186.231C263.293 189.562 263.288 191.228 262.892 192.641L262.807 192.92C262.43 194.078 261.845 195.156 261.081 196.1L260.742 196.496C259.963 197.362 258.962 198.048 257.212 199.086L255.192 200.262L201.766 231.107C198.882 232.773 197.436 233.602 196.015 233.965L195.73 234.031C194.539 234.284 193.313 234.316 192.113 234.126L191.602 234.031C190.462 233.789 189.367 233.265 187.593 232.269L185.565 231.107L132.139 200.262C129.254 198.596 127.813 197.758 126.788 196.709L126.589 196.496C125.774 195.591 125.134 194.545 124.698 193.411L124.524 192.92C124.045 191.443 124.038 189.784 124.038 186.231V124.539C124.038 121.209 124.043 119.542 124.439 118.13L124.524 117.851C124.901 116.693 125.486 115.615 126.25 114.671L126.589 114.274C127.368 113.409 128.369 112.723 130.119 111.685L132.139 110.509L185.565 79.6631C188.45 77.9979 189.895 77.1688 191.316 76.8057L191.602 76.7393Z" fill="#0A0D0F" stroke="url(#paint8_linear_8559_7457)" stroke-width="1.04519"/>
<g filter="url(#filter1_i_8559_7457)">
<path d="M191.994 83.7105C192.603 83.3587 192.907 83.1829 193.231 83.114C193.518 83.0531 193.814 83.0531 194.1 83.114C194.424 83.1829 194.729 83.3587 195.338 83.7105L254.898 118.097C255.507 118.448 255.812 118.624 256.033 118.87C256.229 119.088 256.377 119.345 256.468 119.623C256.57 119.938 256.57 120.29 256.57 120.993V189.766C256.57 190.469 256.57 190.821 256.468 191.136C256.377 191.414 256.229 191.671 256.033 191.889C255.812 192.135 255.507 192.311 254.898 192.662L195.338 227.049C194.729 227.4 194.424 227.576 194.1 227.645C193.814 227.706 193.518 227.706 193.231 227.645C192.907 227.576 192.603 227.4 191.994 227.049L132.434 192.662C131.825 192.311 131.52 192.135 131.299 191.889C131.103 191.671 130.955 191.414 130.864 191.136C130.762 190.821 130.762 190.469 130.762 189.766V120.993C130.762 120.29 130.762 119.938 130.864 119.623C130.955 119.345 131.103 119.088 131.299 118.87C131.52 118.624 131.825 118.448 132.434 118.097L191.994 83.7105Z" fill="#060809"/>
</g>
<path d="M193.829 83.5996L193.992 83.625C194.16 83.6607 194.326 83.7378 194.669 83.9297L195.077 84.1631L254.637 118.55C255.116 118.827 255.358 118.97 255.513 119.096L255.645 119.22C255.755 119.342 255.845 119.481 255.912 119.631L255.971 119.784C256.041 120.002 256.048 120.255 256.048 120.993V189.766C256.048 190.32 256.044 190.6 256.013 190.798L255.971 190.975C255.92 191.131 255.844 191.278 255.748 191.411L255.645 191.539C255.53 191.666 255.38 191.772 255.042 191.973L254.637 192.21L195.077 226.596C194.597 226.873 194.353 227.011 194.166 227.082L193.992 227.134C193.831 227.168 193.665 227.176 193.502 227.159L193.34 227.134C193.172 227.098 193.006 227.021 192.663 226.829L192.255 226.596L132.695 192.21C132.215 191.933 131.974 191.789 131.819 191.663L131.688 191.539H131.687C131.576 191.417 131.487 191.278 131.42 191.128L131.361 190.975C131.291 190.757 131.284 190.504 131.284 189.766V120.993C131.284 120.439 131.288 120.158 131.319 119.961L131.361 119.784C131.429 119.575 131.541 119.383 131.688 119.22L131.687 119.219C131.801 119.092 131.952 118.987 132.289 118.786L132.695 118.55L192.255 84.1631C192.735 83.8861 192.979 83.7491 193.166 83.6777L193.34 83.625C193.501 83.5908 193.666 83.5825 193.829 83.5996Z" stroke="url(#paint9_linear_8559_7457)" stroke-width="1.04519"/>
<path d="M193.829 88.8253L193.991 88.8506C194.159 88.8863 194.326 88.9632 194.669 89.1553L195.076 89.3887L250.11 121.163C250.59 121.44 250.831 121.583 250.986 121.709L251.118 121.833C251.228 121.955 251.319 122.094 251.386 122.244L251.444 122.398V122.398C251.515 122.616 251.521 122.868 251.521 123.607V187.154C251.521 187.709 251.518 187.989 251.486 188.187L251.444 188.363C251.393 188.52 251.318 188.667 251.222 188.8L251.118 188.928C251.003 189.055 250.854 189.161 250.517 189.361L250.11 189.599L195.076 221.372C194.596 221.649 194.352 221.787 194.165 221.858L193.991 221.91C193.83 221.944 193.665 221.953 193.502 221.936L193.34 221.91C193.172 221.875 193.005 221.798 192.662 221.606L192.255 221.372L137.221 189.599C136.741 189.322 136.5 189.178 136.345 189.052L136.212 188.928C136.102 188.805 136.012 188.666 135.945 188.517L135.887 188.363C135.816 188.146 135.81 187.893 135.81 187.154V123.607C135.81 123.052 135.813 122.772 135.845 122.574L135.887 122.398C135.938 122.241 136.013 122.094 136.109 121.961L136.212 121.833C136.327 121.706 136.477 121.6 136.814 121.399L137.221 121.163L192.255 89.3887C192.735 89.1117 192.979 88.9747 193.166 88.9034L193.34 88.8506C193.501 88.8165 193.666 88.8081 193.829 88.8253Z" fill="#0A0D0F" stroke="url(#paint10_linear_8559_7457)" stroke-width="1.04519"/>
<g filter="url(#filter2_i_8559_7457)">
<path d="M191.966 94.2087C192.585 93.8435 192.894 93.6609 193.224 93.5895C193.515 93.5263 193.817 93.5263 194.109 93.5895C194.438 93.6609 194.748 93.8435 195.366 94.2087L244.687 123.322C245.286 123.676 245.586 123.853 245.804 124.098C245.997 124.315 246.142 124.57 246.231 124.846C246.331 125.158 246.331 125.507 246.331 126.203V184.559C246.331 185.255 246.331 185.603 246.231 185.916C246.142 186.192 245.997 186.447 245.804 186.664C245.586 186.909 245.286 187.086 244.687 187.44L195.366 216.553C194.748 216.918 194.438 217.101 194.109 217.172C193.817 217.236 193.515 217.236 193.224 217.172C192.894 217.101 192.585 216.918 191.966 216.553L142.645 187.44C142.046 187.086 141.746 186.909 141.528 186.664C141.336 186.447 141.19 186.192 141.101 185.916C141.001 185.603 141.001 185.255 141.001 184.559V126.203C141.001 125.507 141.001 125.158 141.101 124.846C141.19 124.57 141.336 124.315 141.528 124.098C141.746 123.853 142.046 123.676 142.645 123.322L191.966 94.2087Z" fill="#060809"/>
</g>
<path d="M193.833 94.0732L193.998 94.1006C194.169 94.1376 194.338 94.2174 194.687 94.417L195.101 94.6592L244.422 123.772C244.894 124.051 245.131 124.195 245.283 124.321L245.413 124.445C245.522 124.567 245.61 124.706 245.676 124.854L245.733 125.006C245.803 125.221 245.809 125.472 245.809 126.202V184.56C245.809 185.107 245.805 185.385 245.774 185.58L245.733 185.756C245.683 185.911 245.609 186.057 245.515 186.189L245.413 186.316C245.3 186.443 245.153 186.549 244.82 186.751L244.422 186.989L195.101 216.104C194.613 216.391 194.365 216.533 194.175 216.607L193.998 216.662C193.834 216.698 193.666 216.706 193.5 216.688L193.334 216.662C193.163 216.625 192.994 216.545 192.646 216.346L192.231 216.104L142.911 186.989C142.439 186.71 142.201 186.567 142.049 186.44L141.919 186.316C141.811 186.194 141.722 186.057 141.656 185.908L141.599 185.756C141.529 185.54 141.523 185.29 141.523 184.56V126.202C141.523 125.654 141.527 125.377 141.558 125.182L141.599 125.006C141.649 124.851 141.723 124.704 141.817 124.572L141.919 124.445C142.032 124.318 142.18 124.213 142.512 124.011L142.911 123.772L192.231 94.6592C192.719 94.3716 192.967 94.2284 193.157 94.1543L193.334 94.1006C193.498 94.065 193.667 94.0555 193.833 94.0732Z" stroke="url(#paint11_linear_8559_7457)" stroke-width="1.04519"/>
<g filter="url(#filter3_i_8559_7457)">
<path d="M191.994 94.1753C192.603 93.8236 192.908 93.6477 193.232 93.5789C193.518 93.518 193.814 93.518 194.101 93.5789C194.425 93.6477 194.729 93.8236 195.339 94.1753L245.842 123.332C246.451 123.684 246.756 123.86 246.977 124.106C247.173 124.324 247.322 124.58 247.412 124.859C247.514 125.174 247.514 125.525 247.514 126.229V184.543C247.514 185.246 247.514 185.598 247.412 185.913C247.322 186.191 247.173 186.448 246.977 186.665C246.756 186.912 246.451 187.087 245.842 187.439L195.339 216.596C194.729 216.948 194.425 217.124 194.101 217.193C193.814 217.253 193.518 217.253 193.232 217.193C192.908 217.124 192.603 216.948 191.994 216.596L141.491 187.439C140.881 187.087 140.577 186.912 140.355 186.665C140.159 186.448 140.011 186.191 139.921 185.913C139.818 185.598 139.818 185.246 139.818 184.543V126.229C139.818 125.525 139.818 125.174 139.921 124.859C140.011 124.58 140.159 124.324 140.355 124.106C140.577 123.86 140.881 123.684 141.491 123.332L191.994 94.1753Z" fill="#060809"/>
</g>
<path d="M193.83 94.0645L193.992 94.0898C194.16 94.1255 194.327 94.2026 194.669 94.3945L195.077 94.6279L245.581 123.785C246.061 124.062 246.302 124.205 246.457 124.331L246.589 124.456C246.699 124.579 246.79 124.717 246.856 124.867L246.915 125.021C246.986 125.238 246.992 125.49 246.992 126.229V184.543C246.992 185.096 246.988 185.377 246.957 185.574L246.915 185.751C246.864 185.908 246.789 186.056 246.692 186.188L246.589 186.315C246.474 186.443 246.324 186.549 245.986 186.75L245.581 186.986L195.077 216.144C194.597 216.421 194.353 216.558 194.166 216.629L193.992 216.682C193.831 216.716 193.666 216.724 193.503 216.707L193.341 216.682C193.173 216.646 193.006 216.569 192.663 216.377L192.256 216.144L141.752 186.986C141.272 186.709 141.031 186.566 140.876 186.44L140.744 186.315C140.634 186.193 140.543 186.054 140.477 185.904L140.418 185.751C140.347 185.534 140.341 185.281 140.341 184.543V126.229C140.341 125.675 140.345 125.395 140.376 125.197L140.418 125.021C140.469 124.864 140.544 124.716 140.641 124.583L140.744 124.456C140.859 124.329 141.008 124.222 141.346 124.021L141.752 123.785L192.256 94.6279C192.735 94.3513 192.979 94.214 193.166 94.1426L193.341 94.0898C193.502 94.0557 193.667 94.0473 193.83 94.0645Z" stroke="url(#paint12_linear_8559_7457)" stroke-width="1.04519"/>
<path d="M193.831 99.3096L193.993 99.335C194.161 99.3706 194.327 99.4477 194.67 99.6396L195.078 99.873L241.041 126.409C241.681 126.779 241.897 126.91 242.05 127.08V127.079C242.16 127.202 242.251 127.341 242.317 127.491L242.376 127.645C242.447 127.862 242.452 128.114 242.452 128.853V181.924C242.452 182.478 242.449 182.759 242.418 182.956L242.376 183.133C242.325 183.289 242.25 183.437 242.153 183.569L242.05 183.697C241.935 183.825 241.785 183.931 241.447 184.132L241.041 184.368L195.078 210.904C194.598 211.181 194.354 211.318 194.167 211.39L193.993 211.441C193.778 211.487 193.556 211.487 193.341 211.441H193.34C193.173 211.406 193.006 211.329 192.664 211.138L192.256 210.904L146.293 184.368C145.813 184.091 145.572 183.948 145.417 183.822L145.285 183.697C145.175 183.575 145.084 183.436 145.018 183.286L144.959 183.133C144.888 182.915 144.882 182.663 144.882 181.924V128.853C144.882 128.299 144.886 128.019 144.917 127.821L144.959 127.645C145.01 127.488 145.085 127.34 145.182 127.207L145.285 127.079C145.4 126.952 145.55 126.846 145.887 126.646L146.293 126.409L192.256 99.873C192.896 99.5037 193.118 99.3825 193.342 99.335L193.341 99.334C193.502 99.2997 193.668 99.2924 193.831 99.3096Z" fill="#0A0D0F" stroke="url(#paint13_linear_8559_7457)" stroke-width="1.04519"/>
<g clip-path="url(#clip0_8559_7457)">
<mask id="mask0_8559_7457" style="mask-type:luminance" maskUnits="userSpaceOnUse" x="160" y="133" width="66" height="72">
<path d="M160.785 133.964H225.783V204.797H160.785V133.964Z" fill="white"/>
</mask>
<g mask="url(#mask0_8559_7457)">
<path d="M183.217 156.443L179.797 154.315L179.869 157.567L183.288 159.695L183.217 156.443ZM188.143 167.826L188.071 164.646L185.082 162.78C185.034 162.756 184.986 162.709 184.962 162.685L185.034 165.889L188.143 167.826ZM177.453 172.107L169.634 167.252L169.442 159.121L173.268 157.471L173.197 154.219L167.075 156.85C166.596 157.065 166.31 157.495 166.333 157.998L166.573 167.754C166.573 168.257 166.883 168.759 167.362 169.046L176.736 174.857C177.166 175.12 177.693 175.192 178.147 175.072C178.195 175.048 178.243 175.048 178.29 175.024L184.054 172.537L180.921 170.6L177.453 172.107Z" fill="#1C76FD"/>
</g>
<mask id="mask1_8559_7457" style="mask-type:luminance" maskUnits="userSpaceOnUse" x="160" y="133" width="66" height="72">
<path d="M160.785 133.964H225.783V204.797H160.785V133.964Z" fill="white"/>
</mask>
<g mask="url(#mask1_8559_7457)">
<path d="M202.731 154.123C202.707 153.55 202.372 152.952 201.798 152.617L190.415 145.562L190.057 145.706L190.128 149.125L199.144 154.721L199.359 163.856L202.803 165.985L202.994 165.913L202.731 154.123ZM189.1 170.17L178.506 163.617L178.243 152.617L183.074 150.536L182.978 146.734L175.493 149.962C174.943 150.202 174.608 150.704 174.632 151.302L174.943 164.215C174.943 164.813 175.302 165.387 175.876 165.722L188.287 173.422C188.789 173.733 189.411 173.829 189.937 173.661C189.985 173.637 190.033 173.613 190.08 173.613L197.398 170.457L193.763 168.209L189.1 170.17Z" fill="#1C76FD"/>
</g>
<mask id="mask2_8559_7457" style="mask-type:luminance" maskUnits="userSpaceOnUse" x="160" y="133" width="66" height="72">
<path d="M160.785 133.964H225.783V204.797H160.785V133.964Z" fill="white"/>
</mask>
<g mask="url(#mask2_8559_7457)">
<path d="M218.871 145.084L202.968 135.232C202.371 134.873 201.677 134.777 201.079 134.968C201.031 134.992 200.96 135.016 200.912 135.04L185.392 141.736C184.77 141.999 184.387 142.573 184.411 143.267L184.794 159.815C184.818 160.485 185.224 161.154 185.87 161.537L201.773 171.389C202.347 171.748 203.064 171.844 203.662 171.652C203.71 171.628 203.781 171.605 203.829 171.581L219.349 164.885C219.971 164.622 220.354 164.024 220.33 163.354L219.947 146.806C219.923 146.136 219.517 145.491 218.871 145.084ZM202.705 167.683L188.883 159.121L188.548 144.749L202.036 138.938L215.858 147.499L216.193 161.872L202.705 167.683Z" fill="#1C76FD"/>
</g>
</g>
<rect x="292.192" y="253.436" width="47.128" height="47.128" rx="7.564" fill="url(#paint14_linear_8559_7457)"/>
<rect x="292.192" y="253.436" width="47.128" height="47.128" rx="7.564" stroke="url(#paint15_linear_8559_7457)" stroke-width="0.872003"/>
<g clip-path="url(#clip1_8559_7457)">
<mask id="mask3_8559_7457" style="mask-type:luminance" maskUnits="userSpaceOnUse" x="298" y="266" width="35" height="37">
<path d="M298.879 266.091H332.582V302.819H298.879V266.091Z" fill="white"/>
</mask>
<g mask="url(#mask3_8559_7457)">
<path d="M310.511 277.747L308.738 276.644L308.775 278.33L310.548 279.434L310.511 277.747ZM313.065 283.65L313.028 282L311.478 281.033C311.453 281.021 311.428 280.996 311.416 280.984L311.453 282.645L313.065 283.65ZM307.522 285.869L303.468 283.352L303.369 279.136L305.353 278.28L305.315 276.594L302.141 277.958C301.893 278.07 301.744 278.293 301.757 278.553L301.881 283.612C301.881 283.873 302.042 284.133 302.29 284.282L307.15 287.295C307.374 287.432 307.646 287.469 307.882 287.407C307.907 287.394 307.932 287.394 307.956 287.382L310.945 286.092L309.32 285.088L307.522 285.869Z" fill="white"/>
</g>
<mask id="mask4_8559_7457" style="mask-type:luminance" maskUnits="userSpaceOnUse" x="298" y="266" width="35" height="37">
<path d="M298.879 266.091H332.582V302.819H298.879V266.091Z" fill="white"/>
</mask>
<g mask="url(#mask4_8559_7457)">
<path d="M320.629 276.545C320.617 276.247 320.443 275.937 320.145 275.764L314.243 272.106L314.057 272.18L314.094 273.953L318.769 276.855L318.881 281.592L320.666 282.695L320.765 282.658L320.629 276.545ZM313.561 284.865L308.068 281.468L307.932 275.764L310.436 274.685L310.387 272.713L306.506 274.387C306.22 274.511 306.047 274.772 306.059 275.082L306.22 281.778C306.22 282.088 306.406 282.385 306.704 282.559L313.14 286.551C313.4 286.713 313.722 286.762 313.995 286.675C314.02 286.663 314.045 286.651 314.069 286.651L317.864 285.014L315.979 283.848L313.561 284.865Z" fill="white"/>
</g>
<mask id="mask5_8559_7457" style="mask-type:luminance" maskUnits="userSpaceOnUse" x="298" y="266" width="35" height="37">
<path d="M298.879 266.091H332.582V302.819H298.879V266.091Z" fill="white"/>
</mask>
<g mask="url(#mask5_8559_7457)">
<path d="M328.998 271.858L320.752 266.749C320.442 266.563 320.082 266.513 319.772 266.613C319.747 266.625 319.71 266.637 319.685 266.65L311.638 270.122C311.315 270.258 311.117 270.556 311.129 270.915L311.328 279.496C311.34 279.843 311.551 280.19 311.886 280.389L320.132 285.497C320.429 285.683 320.801 285.733 321.111 285.634C321.136 285.621 321.173 285.609 321.198 285.597L329.246 282.125C329.568 281.988 329.766 281.678 329.754 281.331L329.556 272.75C329.543 272.403 329.332 272.068 328.998 271.858ZM320.615 283.575L313.448 279.136L313.275 271.684L320.268 268.671L327.435 273.11L327.609 280.562L320.615 283.575Z" fill="white"/>
</g>
</g>
<rect x="50.1919" y="253.436" width="47.128" height="47.128" rx="7.564" fill="url(#paint16_linear_8559_7457)"/>
<rect x="50.1919" y="253.436" width="47.128" height="47.128" rx="7.564" stroke="url(#paint17_linear_8559_7457)" stroke-width="0.872003"/>
<g clip-path="url(#clip2_8559_7457)">
<mask id="mask6_8559_7457" style="mask-type:luminance" maskUnits="userSpaceOnUse" x="56" y="266" width="35" height="37">
<path d="M56.8789 266.091H90.5816V302.819H56.8789V266.091Z" fill="white"/>
</mask>
<g mask="url(#mask6_8559_7457)">
<path d="M68.5108 277.747L66.7377 276.644L66.7749 278.33L68.548 279.434L68.5108 277.747ZM71.0652 283.65L71.028 282L69.478 281.033C69.4532 281.021 69.4284 280.996 69.416 280.984L69.4532 282.645L71.0652 283.65ZM65.5225 285.869L61.4678 283.352L61.3686 279.136L63.3525 278.28L63.3153 276.594L60.141 277.958C59.893 278.07 59.7442 278.293 59.7566 278.553L59.8806 283.612C59.8806 283.873 60.0418 284.133 60.2898 284.282L65.1505 287.295C65.3737 287.432 65.6465 287.469 65.8821 287.407C65.9069 287.394 65.9317 287.394 65.9565 287.382L68.9448 286.092L67.3205 285.088L65.5225 285.869Z" fill="white"/>
</g>
<mask id="mask7_8559_7457" style="mask-type:luminance" maskUnits="userSpaceOnUse" x="56" y="266" width="35" height="37">
<path d="M56.8789 266.091H90.5816V302.819H56.8789V266.091Z" fill="white"/>
</mask>
<g mask="url(#mask7_8559_7457)">
<path d="M78.629 276.545C78.6166 276.247 78.443 275.937 78.1454 275.764L72.2431 272.106L72.0571 272.18L72.0943 273.953L76.769 276.855L76.8806 281.592L78.6662 282.695L78.7654 282.658L78.629 276.545ZM71.5611 284.865L66.068 281.468L65.9316 275.764L68.4363 274.685L68.3867 272.713L64.5056 274.387C64.2204 274.511 64.0468 274.772 64.0592 275.082L64.2204 281.778C64.2204 282.088 64.4064 282.385 64.704 282.559L71.1395 286.551C71.3999 286.713 71.7223 286.762 71.9951 286.675C72.0199 286.663 72.0447 286.651 72.0695 286.651L75.8638 285.014L73.9791 283.848L71.5611 284.865Z" fill="white"/>
</g>
<mask id="mask8_8559_7457" style="mask-type:luminance" maskUnits="userSpaceOnUse" x="56" y="266" width="35" height="37">
<path d="M56.8789 266.091H90.5816V302.819H56.8789V266.091Z" fill="white"/>
</mask>
<g mask="url(#mask8_8559_7457)">
<path d="M86.9976 271.858L78.7517 266.749C78.4417 266.563 78.0821 266.513 77.7721 266.613C77.7473 266.625 77.7101 266.637 77.6853 266.65L69.6378 270.122C69.3155 270.258 69.1171 270.556 69.1295 270.915L69.3279 279.496C69.3403 279.843 69.551 280.19 69.8858 280.389L78.1317 285.497C78.4293 285.683 78.8013 285.733 79.1113 285.634C79.1361 285.621 79.1733 285.609 79.1981 285.597L87.2456 282.125C87.568 281.988 87.7664 281.678 87.754 281.331L87.5556 272.75C87.5432 272.403 87.3324 272.068 86.9976 271.858ZM78.6153 283.575L71.4482 279.136L71.2746 271.684L78.2681 268.671L85.4352 273.11L85.6088 280.562L78.6153 283.575Z" fill="white"/>
</g>
</g>
<defs>
<filter id="filter0_f_8559_7457" x="117.244" y="74.9551" width="152.843" height="171.313" filterUnits="userSpaceOnUse" color-interpolation-filters="sRGB">
<feFlood flood-opacity="0" result="BackgroundImageFix"/>
<feBlend mode="normal" in="SourceGraphic" in2="BackgroundImageFix" result="shape"/>
<feGaussianBlur stdDeviation="3.13557" result="effect1_foregroundBlur_8559_7457"/>
</filter>
<filter id="filter1_i_8559_7457" x="130.762" y="83.0684" width="125.809" height="145.668" filterUnits="userSpaceOnUse" color-interpolation-filters="sRGB">
<feFlood flood-opacity="0" result="BackgroundImageFix"/>
<feBlend mode="normal" in="SourceGraphic" in2="BackgroundImageFix" result="shape"/>
<feColorMatrix in="SourceAlpha" type="matrix" values="0 0 0 0 0 0 0 0 0 0 0 0 0 0 0 0 0 0 127 0" result="hardAlpha"/>
<feOffset dy="1.04519"/>
<feGaussianBlur stdDeviation="1.04519"/>
<feComposite in2="hardAlpha" operator="arithmetic" k2="-1" k3="1"/>
<feColorMatrix type="matrix" values="0 0 0 0 0 0 0 0 0 0 0 0 0 0 0 0 0 0 1 0"/>
<feBlend mode="normal" in2="shape" result="effect1_innerShadow_8559_7457"/>
</filter>
<filter id="filter2_i_8559_7457" x="141" y="93.5421" width="105.332" height="124.723" filterUnits="userSpaceOnUse" color-interpolation-filters="sRGB">
<feFlood flood-opacity="0" result="BackgroundImageFix"/>
<feBlend mode="normal" in="SourceGraphic" in2="BackgroundImageFix" result="shape"/>
<feColorMatrix in="SourceAlpha" type="matrix" values="0 0 0 0 0 0 0 0 0 0 0 0 0 0 0 0 0 0 127 0" result="hardAlpha"/>
<feOffset dy="1.04519"/>
<feGaussianBlur stdDeviation="1.04519"/>
<feComposite in2="hardAlpha" operator="arithmetic" k2="-1" k3="1"/>
<feColorMatrix type="matrix" values="0 0 0 0 0 0 0 0 0 0 0 0 0 0 0 0 0 0 1 0"/>
<feBlend mode="normal" in2="shape" result="effect1_innerShadow_8559_7457"/>
</filter>
<filter id="filter3_i_8559_7457" x="139.818" y="93.5332" width="107.695" height="124.75" filterUnits="userSpaceOnUse" color-interpolation-filters="sRGB">
<feFlood flood-opacity="0" result="BackgroundImageFix"/>
<feBlend mode="normal" in="SourceGraphic" in2="BackgroundImageFix" result="shape"/>
<feColorMatrix in="SourceAlpha" type="matrix" values="0 0 0 0 0 0 0 0 0 0 0 0 0 0 0 0 0 0 127 0" result="hardAlpha"/>
<feOffset dy="1.04519"/>
<feGaussianBlur stdDeviation="1.04519"/>
<feComposite in2="hardAlpha" operator="arithmetic" k2="-1" k3="1"/>
<feColorMatrix type="matrix" values="0 0 0 0 0 0 0 0 0 0 0 0 0 0 0 0 0 0 1 0"/>
<feBlend mode="normal" in2="shape" result="effect1_innerShadow_8559_7457"/>
</filter>
<linearGradient id="paint0_linear_8559_7457" x1="79.2773" y1="43.9999" x2="308.055" y2="44" gradientUnits="userSpaceOnUse">
<stop stop-color="#25292C" stop-opacity="0"/>
<stop offset="0.5" stop-color="#25292C"/>
<stop offset="1" stop-color="#25292C" stop-opacity="0"/>
</linearGradient>
<linearGradient id="paint1_linear_8559_7457" x1="73.7559" y1="152" x2="73.7559" y2="160.844" gradientUnits="userSpaceOnUse">
<stop stop-color="#161C20"/>
<stop offset="1" stop-color="#0A0D0F"/>
</linearGradient>
<linearGradient id="paint2_linear_8559_7457" x1="73.7559" y1="156.419" x2="73.7559" y2="160.844" gradientUnits="userSpaceOnUse">
<stop stop-color="#3B3D3F" stop-opacity="0.5"/>
<stop offset="1" stop-color="#3B3D3F" stop-opacity="0.89"/>
</linearGradient>
<linearGradient id="paint3_linear_8559_7457" x1="314.756" y1="153" x2="314.756" y2="161.844" gradientUnits="userSpaceOnUse">
<stop stop-color="#161C20"/>
<stop offset="1" stop-color="#0A0D0F"/>
</linearGradient>
<linearGradient id="paint4_linear_8559_7457" x1="314.756" y1="157.419" x2="314.756" y2="161.844" gradientUnits="userSpaceOnUse">
<stop stop-color="#3B3D3F" stop-opacity="0.5"/>
<stop offset="1" stop-color="#3B3D3F" stop-opacity="0.89"/>
</linearGradient>
<linearGradient id="paint5_linear_8559_7457" x1="193.5" y1="38.6094" x2="193.5" y2="47.4531" gradientUnits="userSpaceOnUse">
<stop stop-color="#161C20"/>
<stop offset="1" stop-color="#0A0D0F"/>
</linearGradient>
<linearGradient id="paint6_linear_8559_7457" x1="193.5" y1="43.0283" x2="193.5" y2="47.4531" gradientUnits="userSpaceOnUse">
<stop stop-color="#3B3D3F" stop-opacity="0.5"/>
<stop offset="1" stop-color="#3B3D3F" stop-opacity="0.89"/>
</linearGradient>
<linearGradient id="paint7_linear_8559_7457" x1="193.666" y1="223.383" x2="193.666" y2="326" gradientUnits="userSpaceOnUse">
<stop stop-color="#161C20" stop-opacity="0"/>
<stop offset="1" stop-color="#0E1114"/>
</linearGradient>
<linearGradient id="paint8_linear_8559_7457" x1="193.666" y1="155.331" x2="193.666" y2="236.387" gradientUnits="userSpaceOnUse">
<stop stop-color="#3B3D3F" stop-opacity="0.5"/>
<stop offset="1" stop-color="#3B3D3F" stop-opacity="0.89"/>
</linearGradient>
<linearGradient id="paint9_linear_8559_7457" x1="193.644" y1="82.0573" x2="193.701" y2="228.014" gradientUnits="userSpaceOnUse">
<stop stop-color="#1E1E1F" stop-opacity="0"/>
<stop offset="1" stop-color="#1E1E1F" stop-opacity="0.8"/>
</linearGradient>
<linearGradient id="paint10_linear_8559_7457" x1="193.665" y1="87.9706" x2="193.665" y2="222.79" gradientUnits="userSpaceOnUse">
<stop stop-color="#3B3D3F" stop-opacity="0.5"/>
<stop offset="1" stop-color="#3B3D3F" stop-opacity="0.8"/>
</linearGradient>
<linearGradient id="paint11_linear_8559_7457" x1="193.648" y1="92.6164" x2="193.698" y2="217.557" gradientUnits="userSpaceOnUse">
<stop stop-color="#1E1E1F" stop-opacity="0"/>
<stop offset="1" stop-color="#1E1E1F" stop-opacity="0.8"/>
</linearGradient>
<linearGradient id="paint12_linear_8559_7457" x1="193.647" y1="92.6211" x2="193.697" y2="217.561" gradientUnits="userSpaceOnUse">
<stop stop-color="#1E1E1F" stop-opacity="0"/>
<stop offset="1" stop-color="#1E1E1F" stop-opacity="0.8"/>
</linearGradient>
<linearGradient id="paint13_linear_8559_7457" x1="193.667" y1="98.455" x2="193.667" y2="212.322" gradientUnits="userSpaceOnUse">
<stop stop-color="#3B3D3F" stop-opacity="0.2"/>
<stop offset="1" stop-color="#3B3D3F" stop-opacity="0.4"/>
</linearGradient>
<linearGradient id="paint14_linear_8559_7457" x1="315.756" y1="253" x2="315.756" y2="301" gradientUnits="userSpaceOnUse">
<stop stop-color="#161C20"/>
<stop offset="1" stop-color="#0A0D0F"/>
</linearGradient>
<linearGradient id="paint15_linear_8559_7457" x1="315.756" y1="276.984" x2="315.756" y2="301" gradientUnits="userSpaceOnUse">
<stop stop-color="#3B3D3F" stop-opacity="0.5"/>
<stop offset="1" stop-color="#3B3D3F" stop-opacity="0.89"/>
</linearGradient>
<linearGradient id="paint16_linear_8559_7457" x1="73.7559" y1="253" x2="73.7559" y2="301" gradientUnits="userSpaceOnUse">
<stop stop-color="#161C20"/>
<stop offset="1" stop-color="#0A0D0F"/>
</linearGradient>
<linearGradient id="paint17_linear_8559_7457" x1="73.7559" y1="276.984" x2="73.7559" y2="301" gradientUnits="userSpaceOnUse">
<stop stop-color="#3B3D3F" stop-opacity="0.5"/>
<stop offset="1" stop-color="#3B3D3F" stop-opacity="0.89"/>
</linearGradient>
<clipPath id="clip0_8559_7457">
<rect width="54" height="54" fill="white" transform="translate(166.332 128)"/>
</clipPath>
<clipPath id="clip1_8559_7457">
<rect width="28" height="28" fill="white" transform="translate(301.756 263)"/>
</clipPath>
<clipPath id="clip2_8559_7457">
<rect width="28" height="28" fill="white" transform="translate(59.7559 263)"/>
</clipPath>
</defs>
</svg>
