<svg width="386" height="326" viewBox="0 0 386 326" fill="none" xmlns="http://www.w3.org/2000/svg">
<g clip-path="url(#clip0_8557_13213)">
<rect x="70.8105" y="32.8125" width="243.375" height="243.375" rx="121.688" stroke="#3B3D3F" stroke-dasharray="1 4"/>
<rect opacity="0.1" x="23" y="-15" width="339" height="339" rx="169.5" stroke="url(#paint0_linear_8557_13213)" stroke-linecap="square" stroke-linejoin="round"/>
<rect opacity="0.1" x="43" y="5" width="299" height="299" rx="149.5" stroke="#3B3D3F" stroke-linecap="square" stroke-linejoin="round"/>
<path opacity="0.1" d="M3 154.5C3 49.842 87.842 -35 192.5 -35V-35C297.158 -35 382 49.842 382 154.5V154.5C382 259.158 297.158 344 192.5 344V344C87.842 344 3 259.158 3 154.5V154.5Z" stroke="url(#paint1_linear_8557_13213)" stroke-linecap="square" stroke-linejoin="round"/>
<path opacity="0.1" d="M-17 154.5C-17 38.7963 76.7963 -55 192.5 -55V-55C308.204 -55 402 38.7963 402 154.5V154.5C402 270.204 308.204 364 192.5 364V364C76.7963 364 -17 270.204 -17 154.5V154.5Z" stroke="url(#paint2_linear_8557_13213)" stroke-linecap="square" stroke-linejoin="round"/>
<path opacity="0.1" d="M-37 154.5C-37 27.7507 65.7507 -75 192.5 -75V-75C319.249 -75 422 27.7507 422 154.5V154.5C422 281.249 319.249 384 192.5 384V384C65.7507 384 -37 281.249 -37 154.5V154.5Z" stroke="url(#paint3_linear_8557_13213)" stroke-linecap="square" stroke-linejoin="round"/>
<path opacity="0.1" d="M-47 154.5C-47 22.2278 60.2278 -85 192.5 -85V-85C324.772 -85 432 22.2278 432 154.5V154.5C432 286.772 324.772 394 192.5 394V394C60.2278 394 -47 286.772 -47 154.5V154.5Z" stroke="url(#paint4_linear_8557_13213)" stroke-linecap="square" stroke-linejoin="round"/>
<g filter="url(#filter0_f_8557_13213)">
<path d="M190.778 83.6305C194.012 81.7634 197.996 81.7634 201.23 83.6305L260.928 118.097C264.162 119.964 266.154 123.415 266.154 127.149V196.082C266.154 199.816 264.162 203.267 260.928 205.134L201.23 239.6C197.996 241.467 194.012 241.467 190.778 239.6L131.08 205.134C127.846 203.267 125.854 199.816 125.854 196.082V127.149C125.854 123.415 127.846 119.964 131.08 118.097L190.778 83.6305Z" fill="#0A0D0F"/>
</g>
<path d="M193.941 77.7432C195.132 77.4901 196.358 77.4586 197.558 77.6484L198.07 77.7432C199.209 77.9854 200.304 78.5097 202.078 79.5059L204.105 80.667L257.532 111.513C260.417 113.178 261.858 114.016 262.883 115.065L263.082 115.278C263.897 116.183 264.537 117.229 264.973 118.363L265.146 118.854C265.626 120.331 265.633 121.991 265.633 125.543V187.235C265.633 190.566 265.627 192.232 265.231 193.645L265.146 193.924C264.77 195.082 264.185 196.16 263.421 197.104L263.082 197.5C262.303 198.365 261.302 199.052 259.552 200.09L257.532 201.266L204.105 232.111C201.221 233.776 199.776 234.606 198.354 234.969L198.07 235.035C196.879 235.288 195.653 235.32 194.453 235.13L193.941 235.035C192.802 234.793 191.707 234.269 189.933 233.272L187.905 232.111L134.479 201.266C131.594 199.6 130.153 198.762 129.128 197.713L128.929 197.5C128.114 196.595 127.474 195.549 127.038 194.415L126.864 193.924C126.384 192.447 126.378 190.788 126.378 187.235V125.543C126.378 122.213 126.383 120.546 126.779 119.134L126.864 118.854C127.24 117.697 127.826 116.619 128.59 115.675L128.929 115.278C129.708 114.413 130.709 113.727 132.459 112.688L134.479 111.513L187.905 80.667C190.789 79.0019 192.235 78.1727 193.656 77.8096L193.941 77.7432Z" fill="#0A0D0F" stroke="url(#paint5_linear_8557_13213)" stroke-width="1.04519"/>
<g filter="url(#filter1_i_8557_13213)">
<path d="M194.331 84.7144C194.941 84.3626 195.245 84.1868 195.569 84.1179C195.856 84.057 196.152 84.057 196.438 84.1179C196.762 84.1868 197.067 84.3626 197.676 84.7144L257.236 119.101C257.845 119.452 258.149 119.628 258.371 119.874C258.567 120.092 258.715 120.348 258.806 120.627C258.908 120.942 258.908 121.294 258.908 121.997V190.77C258.908 191.473 258.908 191.825 258.806 192.14C258.715 192.418 258.567 192.675 258.371 192.893C258.149 193.139 257.845 193.314 257.236 193.666L197.676 228.052C197.067 228.404 196.762 228.58 196.438 228.649C196.152 228.71 195.856 228.71 195.569 228.649C195.245 228.58 194.941 228.404 194.331 228.052L134.772 193.666C134.163 193.314 133.858 193.139 133.637 192.893C133.441 192.675 133.292 192.418 133.202 192.14C133.1 191.825 133.1 191.473 133.1 190.77V121.997C133.1 121.294 133.1 120.942 133.202 120.627C133.292 120.348 133.441 120.092 133.637 119.874C133.858 119.628 134.163 119.452 134.772 119.101L194.331 84.7144Z" fill="#060809"/>
</g>
<path d="M196.167 84.6035L196.33 84.6289C196.498 84.6646 196.664 84.7417 197.007 84.9336L197.415 85.167L256.975 119.554C257.454 119.831 257.695 119.974 257.851 120.1L257.982 120.224C258.093 120.346 258.183 120.485 258.25 120.635L258.309 120.788C258.379 121.006 258.386 121.258 258.386 121.997V190.77C258.386 191.324 258.382 191.604 258.351 191.802L258.309 191.979C258.258 192.135 258.182 192.282 258.086 192.415L257.982 192.543C257.868 192.67 257.718 192.776 257.38 192.977L256.975 193.214L197.415 227.6C196.935 227.877 196.691 228.015 196.504 228.086L196.33 228.138C196.169 228.172 196.003 228.18 195.84 228.163L195.678 228.138C195.51 228.102 195.344 228.025 195.001 227.833L194.593 227.6L135.033 193.214C134.553 192.937 134.312 192.793 134.157 192.667L134.025 192.543H134.024C133.914 192.421 133.825 192.282 133.758 192.132L133.699 191.979C133.629 191.761 133.622 191.508 133.622 190.77V121.997C133.622 121.443 133.626 121.162 133.657 120.965L133.699 120.788C133.767 120.579 133.878 120.387 134.025 120.224L134.024 120.223C134.139 120.095 134.29 119.99 134.627 119.79L135.033 119.554L194.593 85.167C195.073 84.89 195.317 84.753 195.504 84.6816L195.678 84.6289C195.839 84.5947 196.004 84.5864 196.167 84.6035Z" stroke="url(#paint6_linear_8557_13213)" stroke-width="1.04519"/>
<path d="M196.167 89.8292L196.329 89.8546C196.497 89.8902 196.664 89.9671 197.007 90.1592L197.414 90.3926L252.448 122.167C252.928 122.444 253.169 122.587 253.324 122.713L253.456 122.837C253.566 122.959 253.657 123.098 253.724 123.248L253.782 123.401V123.402C253.853 123.62 253.859 123.872 253.859 124.61V188.158C253.859 188.712 253.856 188.993 253.824 189.19L253.782 189.367C253.731 189.524 253.656 189.671 253.56 189.804L253.456 189.932C253.341 190.059 253.192 190.165 252.854 190.365L252.448 190.603L197.414 222.376C196.934 222.653 196.69 222.791 196.503 222.862L196.329 222.914C196.168 222.948 196.003 222.957 195.84 222.94L195.678 222.914C195.51 222.878 195.343 222.802 195 222.609L194.593 222.376L139.559 190.603C139.079 190.326 138.838 190.182 138.683 190.056L138.55 189.932C138.44 189.809 138.35 189.67 138.283 189.521L138.225 189.367C138.154 189.15 138.147 188.897 138.147 188.158V124.61C138.147 124.056 138.151 123.776 138.183 123.578L138.225 123.401C138.276 123.245 138.351 123.098 138.447 122.965L138.55 122.837C138.665 122.71 138.815 122.604 139.152 122.403L139.559 122.167L194.593 90.3926C195.073 90.1156 195.317 89.9786 195.504 89.9073L195.678 89.8546C195.839 89.8204 196.004 89.812 196.167 89.8292Z" fill="#0A0D0F" stroke="url(#paint7_linear_8557_13213)" stroke-width="1.04519"/>
<g filter="url(#filter2_i_8557_13213)">
<path d="M194.304 95.2126C194.923 94.8474 195.232 94.6648 195.562 94.5934C195.853 94.5302 196.155 94.5302 196.447 94.5934C196.776 94.6648 197.086 94.8474 197.704 95.2126L247.025 124.326C247.624 124.68 247.924 124.857 248.142 125.102C248.335 125.319 248.48 125.574 248.569 125.85C248.669 126.162 248.669 126.51 248.669 127.206V185.563C248.669 186.259 248.669 186.607 248.569 186.92C248.48 187.196 248.335 187.451 248.142 187.668C247.924 187.913 247.624 188.09 247.025 188.443L197.704 217.557C197.086 217.922 196.776 218.105 196.447 218.176C196.155 218.239 195.853 218.239 195.562 218.176C195.232 218.105 194.923 217.922 194.304 217.557L144.983 188.443C144.384 188.09 144.084 187.913 143.866 187.668C143.674 187.451 143.528 187.196 143.439 186.92C143.339 186.607 143.339 186.259 143.339 185.563V127.206C143.339 126.51 143.339 126.162 143.439 125.85C143.528 125.574 143.674 125.319 143.866 125.102C144.084 124.857 144.384 124.68 144.983 124.326L194.304 95.2126Z" fill="#060809"/>
</g>
<path d="M196.171 95.0771L196.336 95.1045C196.507 95.1415 196.676 95.2213 197.024 95.4209L197.438 95.6631L246.76 124.776C247.232 125.055 247.469 125.199 247.621 125.325L247.751 125.449C247.859 125.571 247.948 125.709 248.014 125.858L248.071 126.01C248.141 126.225 248.146 126.475 248.146 127.206V185.563C248.146 186.111 248.143 186.389 248.112 186.584L248.071 186.76C248.021 186.915 247.947 187.061 247.853 187.193L247.751 187.32C247.638 187.447 247.49 187.553 247.158 187.755L246.76 187.993L197.438 217.107C196.951 217.395 196.703 217.537 196.513 217.611L196.336 217.666C196.172 217.701 196.004 217.71 195.838 217.692L195.672 217.666C195.501 217.629 195.332 217.549 194.984 217.35L194.569 217.107L145.249 187.993C144.777 187.714 144.539 187.57 144.387 187.444L144.257 187.32C144.149 187.198 144.06 187.061 143.994 186.912L143.937 186.76C143.867 186.544 143.861 186.294 143.861 185.563V127.206C143.861 126.658 143.865 126.381 143.896 126.186L143.937 126.01C143.987 125.854 144.061 125.708 144.155 125.576L144.257 125.449C144.37 125.322 144.517 125.216 144.85 125.015L145.249 124.776L194.569 95.6631C195.057 95.3755 195.305 95.2323 195.495 95.1582L195.672 95.1045C195.836 95.069 196.005 95.0594 196.171 95.0771Z" stroke="url(#paint8_linear_8557_13213)" stroke-width="1.04519"/>
<g filter="url(#filter3_i_8557_13213)">
<path d="M194.332 95.1792C194.941 94.8275 195.246 94.6516 195.57 94.5828C195.856 94.5219 196.152 94.5219 196.439 94.5828C196.763 94.6516 197.067 94.8275 197.677 95.1792L248.18 124.336C248.789 124.688 249.094 124.864 249.315 125.11C249.511 125.328 249.659 125.584 249.75 125.863C249.852 126.177 249.852 126.529 249.852 127.233V185.546C249.852 186.25 249.852 186.602 249.75 186.917C249.659 187.195 249.511 187.452 249.315 187.669C249.094 187.915 248.789 188.091 248.18 188.443L197.677 217.6C197.067 217.952 196.763 218.128 196.439 218.196C196.152 218.257 195.856 218.257 195.57 218.196C195.246 218.128 194.941 217.952 194.332 217.6L143.829 188.443C143.219 188.091 142.915 187.915 142.693 187.669C142.497 187.452 142.349 187.195 142.259 186.917C142.156 186.602 142.156 186.25 142.156 185.546V127.233C142.156 126.529 142.156 126.177 142.259 125.863C142.349 125.584 142.497 125.328 142.693 125.11C142.915 124.864 143.219 124.688 143.829 124.336L194.332 95.1792Z" fill="#060809"/>
</g>
<path d="M196.168 95.0684L196.33 95.0938C196.498 95.1294 196.664 95.2065 197.007 95.3984L197.415 95.6318L247.919 124.789C248.399 125.066 248.64 125.209 248.795 125.335L248.927 125.46C249.037 125.583 249.128 125.721 249.194 125.871L249.253 126.024C249.323 126.242 249.33 126.494 249.33 127.232V185.547C249.33 186.1 249.326 186.381 249.295 186.578L249.253 186.755C249.202 186.912 249.127 187.06 249.03 187.192L248.927 187.319C248.812 187.447 248.662 187.553 248.324 187.754L247.919 187.99L197.415 217.147C196.935 217.424 196.691 217.561 196.504 217.633L196.33 217.686C196.169 217.72 196.004 217.728 195.841 217.711L195.679 217.686C195.511 217.65 195.344 217.573 195.001 217.381L194.594 217.147L144.09 187.99C143.61 187.713 143.369 187.57 143.214 187.444L143.082 187.319C142.972 187.197 142.881 187.058 142.814 186.908L142.756 186.755C142.685 186.537 142.679 186.285 142.679 185.547V127.232C142.679 126.679 142.682 126.398 142.714 126.201L142.756 126.024C142.807 125.868 142.882 125.72 142.979 125.587L143.082 125.46C143.197 125.333 143.346 125.226 143.684 125.025L144.09 124.789L194.594 95.6318C195.073 95.3552 195.317 95.2179 195.504 95.1465L195.679 95.0938C195.84 95.0596 196.005 95.0512 196.168 95.0684Z" stroke="url(#paint9_linear_8557_13213)" stroke-width="1.04519"/>
<path d="M196.167 100.313L196.329 100.339C196.497 100.375 196.663 100.452 197.006 100.644L197.414 100.877L243.377 127.413C244.017 127.782 244.233 127.914 244.386 128.084V128.083C244.496 128.206 244.587 128.345 244.653 128.495L244.712 128.648C244.782 128.866 244.788 129.118 244.788 129.856V182.928C244.788 183.482 244.785 183.763 244.754 183.96L244.712 184.137C244.661 184.293 244.586 184.441 244.489 184.573L244.386 184.701C244.271 184.829 244.121 184.935 243.783 185.136L243.377 185.372L197.414 211.908C196.934 212.185 196.69 212.322 196.503 212.394L196.329 212.445C196.114 212.491 195.892 212.491 195.677 212.445H195.676C195.509 212.41 195.342 212.333 195 212.142L194.592 211.908L148.629 185.372C148.149 185.095 147.908 184.952 147.753 184.826L147.621 184.701C147.511 184.579 147.42 184.44 147.354 184.29L147.295 184.137C147.224 183.919 147.218 183.666 147.218 182.928V129.856C147.218 129.303 147.221 129.023 147.253 128.825L147.295 128.648C147.346 128.492 147.421 128.344 147.518 128.211L147.621 128.083C147.736 127.956 147.886 127.85 148.223 127.649L148.629 127.413L194.592 100.877C195.232 100.508 195.454 100.386 195.678 100.339L195.677 100.338C195.838 100.304 196.004 100.296 196.167 100.313Z" fill="#0A0D0F" stroke="url(#paint10_linear_8557_13213)" stroke-width="1.04519"/>
<path d="M212.881 136.146H179.131C176.335 136.146 174.068 138.412 174.068 141.208V164.833C174.068 167.629 176.335 169.896 179.131 169.896H212.881C215.677 169.896 217.943 167.629 217.943 164.833V141.208C217.943 138.412 215.677 136.146 212.881 136.146Z" fill="#FFCB5C"/>
<path d="M191.668 154.889C191.881 155.049 192.021 155.285 192.058 155.548C192.096 155.811 192.027 156.077 191.868 156.289C191.709 156.502 191.472 156.642 191.21 156.679C190.947 156.717 190.681 156.649 190.468 156.489L186.468 153.489C186.344 153.396 186.243 153.275 186.174 153.137C186.105 152.998 186.068 152.845 186.068 152.689C186.068 152.534 186.105 152.381 186.174 152.242C186.243 152.103 186.344 151.983 186.468 151.889L190.468 148.889C190.681 148.73 190.947 148.662 191.21 148.699C191.472 148.737 191.709 148.877 191.868 149.089C192.027 149.302 192.096 149.568 192.058 149.831C192.021 150.093 191.881 150.33 191.668 150.489L188.735 152.689L191.668 154.889Z" fill="#0A0D0F"/>
<path d="M199.03 145.964L195.03 159.964C194.996 160.093 194.936 160.213 194.855 160.319C194.774 160.424 194.672 160.512 194.557 160.578C194.441 160.643 194.314 160.685 194.182 160.701C194.05 160.717 193.916 160.706 193.788 160.669C193.66 160.633 193.541 160.571 193.437 160.488C193.334 160.405 193.247 160.302 193.184 160.185C193.121 160.068 193.081 159.94 193.068 159.807C193.055 159.675 193.068 159.542 193.107 159.414L197.107 145.414C197.184 145.164 197.356 144.954 197.586 144.829C197.816 144.704 198.086 144.675 198.338 144.747C198.59 144.819 198.803 144.987 198.933 145.214C199.062 145.442 199.097 145.711 199.03 145.964Z" fill="#0A0D0F"/>
<path d="M205.668 153.489L201.668 156.489C201.456 156.649 201.189 156.717 200.927 156.679C200.664 156.642 200.427 156.502 200.268 156.289C200.109 156.077 200.041 155.811 200.078 155.548C200.116 155.285 200.256 155.049 200.468 154.889L203.402 152.689L200.468 150.489C200.363 150.411 200.275 150.312 200.208 150.199C200.141 150.086 200.097 149.961 200.078 149.831C200.06 149.701 200.067 149.568 200.1 149.441C200.132 149.314 200.19 149.194 200.268 149.089C200.347 148.984 200.446 148.896 200.559 148.829C200.672 148.762 200.797 148.718 200.927 148.699C201.057 148.681 201.189 148.688 201.317 148.721C201.444 148.753 201.563 148.811 201.668 148.889L205.668 151.889C205.793 151.983 205.893 152.103 205.963 152.242C206.032 152.381 206.068 152.534 206.068 152.689C206.068 152.845 206.032 152.998 205.963 153.137C205.893 153.275 205.793 153.396 205.668 153.489Z" fill="#0A0D0F"/>
<path d="M202.818 173.271H189.318C188.871 173.271 188.442 173.448 188.125 173.765C187.809 174.081 187.631 174.51 187.631 174.958C187.631 175.406 187.809 175.835 188.125 176.151C188.442 176.468 188.871 176.646 189.318 176.646H202.818C203.266 176.646 203.695 176.468 204.012 176.151C204.328 175.835 204.506 175.406 204.506 174.958C204.506 174.51 204.328 174.081 204.012 173.765C203.695 173.448 203.266 173.271 202.818 173.271Z" fill="#FFCB5C"/>
<circle cx="77.998" cy="194.865" r="2" fill="#3B3D3F"/>
<circle cx="258.998" cy="52.03" r="2" fill="#3B3D3F"/>
<rect x="67.438" y="60.5063" width="47.128" height="47.128" rx="7.564" fill="url(#paint11_linear_8557_13213)"/>
<rect x="67.438" y="60.5063" width="47.128" height="47.128" rx="7.564" stroke="url(#paint12_linear_8557_13213)" stroke-width="0.872003"/>
<path d="M102.243 92.7007C102.243 92.9314 102.152 93.1525 101.989 93.3156C101.826 93.4787 101.605 93.5703 101.374 93.5703H80.5043C80.2737 93.5703 80.0525 93.4787 79.8895 93.3156C79.7264 93.1525 79.6348 92.9314 79.6348 92.7007C79.6348 92.4701 79.7264 92.2489 79.8895 92.0859C80.0525 91.9228 80.2737 91.8312 80.5043 91.8312H81.3739V84.8747C81.3739 84.644 81.4655 84.4229 81.6286 84.2598C81.7917 84.0967 82.0128 84.0051 82.2435 84.0051H84.8522C85.0828 84.0051 85.304 84.0967 85.467 84.2598C85.6301 84.4229 85.7217 84.644 85.7217 84.8747V91.8312H87.4609V79.6573C87.4609 79.4266 87.5525 79.2055 87.7155 79.0424C87.8786 78.8793 88.0998 78.7877 88.3304 78.7877H91.8087C92.0393 78.7877 92.2605 78.8793 92.4236 79.0424C92.5866 79.2055 92.6782 79.4266 92.6782 79.6573V91.8312H94.4174V74.4399C94.4174 74.2093 94.509 73.9881 94.6721 73.825C94.8351 73.6619 95.0563 73.5703 95.2869 73.5703H99.6348C99.8654 73.5703 100.087 73.6619 100.25 73.825C100.413 73.9881 100.504 74.2093 100.504 74.4399V91.8312H101.374C101.605 91.8312 101.826 91.9228 101.989 92.0859C102.152 92.2489 102.243 92.4701 102.243 92.7007Z" fill="white"/>
<rect x="285.09" y="94.0063" width="47.128" height="47.128" rx="7.564" fill="url(#paint13_linear_8557_13213)"/>
<rect x="285.09" y="94.0063" width="47.128" height="47.128" rx="7.564" stroke="url(#paint14_linear_8557_13213)" stroke-width="0.872003"/>
<path d="M320.03 117.758C319.996 117.682 319.186 115.886 317.386 114.085C314.987 111.687 311.958 110.419 308.623 110.419C305.288 110.419 302.259 111.687 299.86 114.085C298.06 115.886 297.246 117.685 297.216 117.758C297.173 117.855 297.15 117.961 297.15 118.068C297.15 118.175 297.173 118.281 297.216 118.379C297.25 118.455 298.06 120.25 299.86 122.05C302.259 124.448 305.288 125.716 308.623 125.716C311.958 125.716 314.987 124.448 317.386 122.05C319.186 120.25 319.996 118.455 320.03 118.379C320.073 118.281 320.096 118.175 320.096 118.068C320.096 117.961 320.073 117.855 320.03 117.758ZM308.623 121.892C307.867 121.892 307.127 121.667 306.498 121.247C305.87 120.827 305.379 120.23 305.09 119.531C304.8 118.832 304.725 118.063 304.872 117.321C305.02 116.579 305.384 115.898 305.919 115.363C306.454 114.828 307.135 114.464 307.877 114.317C308.619 114.169 309.388 114.245 310.087 114.534C310.785 114.824 311.383 115.314 311.803 115.943C312.223 116.572 312.447 117.311 312.447 118.067C312.447 119.082 312.044 120.054 311.327 120.772C310.61 121.489 309.637 121.892 308.623 121.892Z" fill="white"/>
<rect x="169.436" y="253.124" width="47.128" height="47.128" rx="7.564" fill="url(#paint15_linear_8557_13213)"/>
<rect x="169.436" y="253.124" width="47.128" height="47.128" rx="7.564" stroke="url(#paint16_linear_8557_13213)" stroke-width="0.872003"/>
<path d="M201.561 276.9C201.565 276.76 201.565 276.62 201.561 276.48L203.013 274.666C203.089 274.571 203.142 274.459 203.167 274.34C203.192 274.22 203.189 274.097 203.157 273.979C202.919 273.085 202.563 272.226 202.098 271.425C202.038 271.32 201.953 271.231 201.852 271.164C201.75 271.098 201.635 271.056 201.515 271.042L199.207 270.785C199.111 270.684 199.013 270.587 198.915 270.494L198.642 268.18C198.628 268.059 198.586 267.944 198.52 267.842C198.453 267.741 198.364 267.657 198.259 267.596C197.458 267.132 196.599 266.777 195.705 266.539C195.587 266.508 195.463 266.504 195.344 266.529C195.225 266.554 195.113 266.607 195.018 266.683L193.209 268.127C193.069 268.127 192.928 268.127 192.788 268.127L190.975 266.678C190.879 266.602 190.768 266.549 190.648 266.524C190.529 266.499 190.405 266.503 190.288 266.534C189.393 266.773 188.534 267.129 187.733 267.593C187.629 267.654 187.539 267.738 187.473 267.84C187.407 267.941 187.365 268.056 187.351 268.177L187.094 270.489C186.993 270.585 186.896 270.683 186.802 270.781L184.488 271.046C184.368 271.06 184.252 271.102 184.151 271.169C184.05 271.235 183.965 271.325 183.904 271.43C183.441 272.231 183.085 273.089 182.847 273.984C182.815 274.102 182.812 274.225 182.837 274.345C182.863 274.464 182.915 274.576 182.992 274.671L184.436 276.48C184.436 276.62 184.436 276.76 184.436 276.9L182.987 278.714C182.911 278.809 182.858 278.921 182.833 279.04C182.808 279.16 182.811 279.283 182.843 279.401C183.081 280.295 183.437 281.154 183.901 281.955C183.962 282.06 184.047 282.149 184.148 282.215C184.249 282.282 184.365 282.324 184.485 282.338L186.793 282.594C186.89 282.696 186.987 282.793 187.085 282.886L187.355 285.2C187.369 285.321 187.411 285.436 187.477 285.538C187.544 285.639 187.633 285.723 187.738 285.784C188.539 286.248 189.398 286.604 190.292 286.842C190.41 286.873 190.534 286.876 190.653 286.851C190.773 286.826 190.884 286.773 190.979 286.697L192.788 285.253C192.928 285.257 193.069 285.257 193.209 285.253L195.022 286.705C195.118 286.781 195.229 286.833 195.349 286.858C195.468 286.883 195.592 286.88 195.709 286.849C196.604 286.611 197.463 286.255 198.264 285.79C198.368 285.729 198.458 285.645 198.524 285.543C198.59 285.442 198.632 285.326 198.646 285.206L198.903 282.898C199.004 282.802 199.101 282.705 199.195 282.606L201.509 282.334C201.629 282.32 201.745 282.278 201.846 282.211C201.948 282.145 202.032 282.055 202.093 281.95C202.556 281.149 202.912 280.29 203.15 279.396C203.182 279.278 203.185 279.155 203.16 279.035C203.135 278.916 203.082 278.804 203.005 278.709L201.561 276.9ZM192.999 280.582C192.229 280.582 191.476 280.354 190.836 279.926C190.196 279.498 189.697 278.891 189.403 278.179C189.108 277.468 189.031 276.686 189.181 275.931C189.331 275.176 189.702 274.482 190.246 273.938C190.791 273.393 191.484 273.023 192.239 272.873C192.994 272.722 193.777 272.799 194.488 273.094C195.199 273.389 195.807 273.887 196.235 274.528C196.662 275.168 196.891 275.92 196.891 276.69C196.891 277.722 196.481 278.712 195.751 279.442C195.021 280.172 194.031 280.582 192.999 280.582Z" fill="white"/>
</g>
<defs>
<filter id="filter0_f_8557_13213" x="119.582" y="75.959" width="152.843" height="171.313" filterUnits="userSpaceOnUse" color-interpolation-filters="sRGB">
<feFlood flood-opacity="0" result="BackgroundImageFix"/>
<feBlend mode="normal" in="SourceGraphic" in2="BackgroundImageFix" result="shape"/>
<feGaussianBlur stdDeviation="3.13557" result="effect1_foregroundBlur_8557_13213"/>
</filter>
<filter id="filter1_i_8557_13213" x="133.1" y="84.0723" width="125.809" height="145.668" filterUnits="userSpaceOnUse" color-interpolation-filters="sRGB">
<feFlood flood-opacity="0" result="BackgroundImageFix"/>
<feBlend mode="normal" in="SourceGraphic" in2="BackgroundImageFix" result="shape"/>
<feColorMatrix in="SourceAlpha" type="matrix" values="0 0 0 0 0 0 0 0 0 0 0 0 0 0 0 0 0 0 127 0" result="hardAlpha"/>
<feOffset dy="1.04519"/>
<feGaussianBlur stdDeviation="1.04519"/>
<feComposite in2="hardAlpha" operator="arithmetic" k2="-1" k3="1"/>
<feColorMatrix type="matrix" values="0 0 0 0 0 0 0 0 0 0 0 0 0 0 0 0 0 0 1 0"/>
<feBlend mode="normal" in2="shape" result="effect1_innerShadow_8557_13213"/>
</filter>
<filter id="filter2_i_8557_13213" x="143.338" y="94.546" width="105.332" height="124.723" filterUnits="userSpaceOnUse" color-interpolation-filters="sRGB">
<feFlood flood-opacity="0" result="BackgroundImageFix"/>
<feBlend mode="normal" in="SourceGraphic" in2="BackgroundImageFix" result="shape"/>
<feColorMatrix in="SourceAlpha" type="matrix" values="0 0 0 0 0 0 0 0 0 0 0 0 0 0 0 0 0 0 127 0" result="hardAlpha"/>
<feOffset dy="1.04519"/>
<feGaussianBlur stdDeviation="1.04519"/>
<feComposite in2="hardAlpha" operator="arithmetic" k2="-1" k3="1"/>
<feColorMatrix type="matrix" values="0 0 0 0 0 0 0 0 0 0 0 0 0 0 0 0 0 0 1 0"/>
<feBlend mode="normal" in2="shape" result="effect1_innerShadow_8557_13213"/>
</filter>
<filter id="filter3_i_8557_13213" x="142.156" y="94.5371" width="107.695" height="124.75" filterUnits="userSpaceOnUse" color-interpolation-filters="sRGB">
<feFlood flood-opacity="0" result="BackgroundImageFix"/>
<feBlend mode="normal" in="SourceGraphic" in2="BackgroundImageFix" result="shape"/>
<feColorMatrix in="SourceAlpha" type="matrix" values="0 0 0 0 0 0 0 0 0 0 0 0 0 0 0 0 0 0 127 0" result="hardAlpha"/>
<feOffset dy="1.04519"/>
<feGaussianBlur stdDeviation="1.04519"/>
<feComposite in2="hardAlpha" operator="arithmetic" k2="-1" k3="1"/>
<feColorMatrix type="matrix" values="0 0 0 0 0 0 0 0 0 0 0 0 0 0 0 0 0 0 1 0"/>
<feBlend mode="normal" in2="shape" result="effect1_innerShadow_8557_13213"/>
</filter>
<linearGradient id="paint0_linear_8557_13213" x1="192.5" y1="-15" x2="192.5" y2="387.961" gradientUnits="userSpaceOnUse">
<stop offset="0.723597" stop-color="#3B3D3F"/>
<stop offset="1" stop-color="#3B3D3F" stop-opacity="0"/>
</linearGradient>
<linearGradient id="paint1_linear_8557_13213" x1="192.5" y1="-35" x2="192.5" y2="356.138" gradientUnits="userSpaceOnUse">
<stop offset="0.67127" stop-color="#3B3D3F"/>
<stop offset="1" stop-color="#3B3D3F" stop-opacity="0"/>
</linearGradient>
<linearGradient id="paint2_linear_8557_13213" x1="192.5" y1="-55" x2="192.5" y2="347.233" gradientUnits="userSpaceOnUse">
<stop offset="0.654622" stop-color="#3B3D3F"/>
<stop offset="1" stop-color="#3B3D3F" stop-opacity="0"/>
</linearGradient>
<linearGradient id="paint3_linear_8557_13213" x1="192.5" y1="-75" x2="192.5" y2="384" gradientUnits="userSpaceOnUse">
<stop stop-color="#3B3D3F"/>
<stop offset="1" stop-color="#3B3D3F" stop-opacity="0"/>
</linearGradient>
<linearGradient id="paint4_linear_8557_13213" x1="192.5" y1="-85" x2="192.5" y2="394" gradientUnits="userSpaceOnUse">
<stop stop-color="#3B3D3F"/>
<stop offset="1" stop-color="#3B3D3F" stop-opacity="0"/>
</linearGradient>
<linearGradient id="paint5_linear_8557_13213" x1="196.005" y1="156.335" x2="196.005" y2="237.391" gradientUnits="userSpaceOnUse">
<stop stop-color="#3B3D3F" stop-opacity="0.5"/>
<stop offset="1" stop-color="#3B3D3F" stop-opacity="0.89"/>
</linearGradient>
<linearGradient id="paint6_linear_8557_13213" x1="195.981" y1="83.0612" x2="196.039" y2="229.018" gradientUnits="userSpaceOnUse">
<stop stop-color="#1E1E1F" stop-opacity="0"/>
<stop offset="1" stop-color="#1E1E1F" stop-opacity="0.8"/>
</linearGradient>
<linearGradient id="paint7_linear_8557_13213" x1="196.003" y1="88.9745" x2="196.003" y2="223.794" gradientUnits="userSpaceOnUse">
<stop stop-color="#3B3D3F" stop-opacity="0.5"/>
<stop offset="1" stop-color="#3B3D3F" stop-opacity="0.8"/>
</linearGradient>
<linearGradient id="paint8_linear_8557_13213" x1="195.986" y1="93.6203" x2="196.036" y2="218.561" gradientUnits="userSpaceOnUse">
<stop stop-color="#1E1E1F" stop-opacity="0"/>
<stop offset="1" stop-color="#1E1E1F" stop-opacity="0.8"/>
</linearGradient>
<linearGradient id="paint9_linear_8557_13213" x1="195.985" y1="93.625" x2="196.035" y2="218.565" gradientUnits="userSpaceOnUse">
<stop stop-color="#1E1E1F" stop-opacity="0"/>
<stop offset="1" stop-color="#1E1E1F" stop-opacity="0.8"/>
</linearGradient>
<linearGradient id="paint10_linear_8557_13213" x1="196.003" y1="99.4589" x2="196.003" y2="213.326" gradientUnits="userSpaceOnUse">
<stop stop-color="#3B3D3F" stop-opacity="0.2"/>
<stop offset="1" stop-color="#3B3D3F" stop-opacity="0.4"/>
</linearGradient>
<linearGradient id="paint11_linear_8557_13213" x1="91.002" y1="60.0703" x2="91.002" y2="108.07" gradientUnits="userSpaceOnUse">
<stop stop-color="#161C20"/>
<stop offset="1" stop-color="#0A0D0F"/>
</linearGradient>
<linearGradient id="paint12_linear_8557_13213" x1="91.002" y1="84.0542" x2="91.002" y2="108.07" gradientUnits="userSpaceOnUse">
<stop stop-color="#3B3D3F" stop-opacity="0.5"/>
<stop offset="1" stop-color="#3B3D3F" stop-opacity="0.89"/>
</linearGradient>
<linearGradient id="paint13_linear_8557_13213" x1="308.654" y1="93.5703" x2="308.654" y2="141.57" gradientUnits="userSpaceOnUse">
<stop stop-color="#161C20"/>
<stop offset="1" stop-color="#0A0D0F"/>
</linearGradient>
<linearGradient id="paint14_linear_8557_13213" x1="308.654" y1="117.554" x2="308.654" y2="141.57" gradientUnits="userSpaceOnUse">
<stop stop-color="#3B3D3F" stop-opacity="0.5"/>
<stop offset="1" stop-color="#3B3D3F" stop-opacity="0.89"/>
</linearGradient>
<linearGradient id="paint15_linear_8557_13213" x1="193" y1="252.688" x2="193" y2="300.688" gradientUnits="userSpaceOnUse">
<stop stop-color="#161C20"/>
<stop offset="1" stop-color="#0A0D0F"/>
</linearGradient>
<linearGradient id="paint16_linear_8557_13213" x1="193" y1="276.671" x2="193" y2="300.687" gradientUnits="userSpaceOnUse">
<stop stop-color="#3B3D3F" stop-opacity="0.5"/>
<stop offset="1" stop-color="#3B3D3F" stop-opacity="0.89"/>
</linearGradient>
<clipPath id="clip0_8557_13213">
<rect width="386" height="326" fill="white"/>
</clipPath>
</defs>
</svg>
