<svg width="1920" height="717" viewBox="0 0 1920 717" fill="none" xmlns="http://www.w3.org/2000/svg">
<mask id="mask0_11805_92046" style="mask-type:alpha" maskUnits="userSpaceOnUse" x="-151" y="-931" width="2220" height="2220">
<circle cx="959" cy="179" r="1110" fill="url(#paint0_radial_11805_92046)" fill-opacity="0.6"/>
</mask>
<g mask="url(#mask0_11805_92046)">
<path fill-rule="evenodd" clip-rule="evenodd" d="M959.239 1289L959.239 -931L959.739 -931L959.739 1289L959.239 1289Z" fill="#CECFCF"/>
<path fill-rule="evenodd" clip-rule="evenodd" d="M-150.511 178.75L2069.49 178.75L2069.49 179.25L-150.511 179.25L-150.511 178.75Z" fill="#CECFCF"/>
<path fill-rule="evenodd" clip-rule="evenodd" d="M404.273 1140.16L1514.27 -782.413L1514.71 -782.163L404.706 1140.41L404.273 1140.16Z" fill="#CECFCF"/>
<path fill-rule="evenodd" clip-rule="evenodd" d="M-1.67402 -376.217L1920.9 733.783L1920.65 734.216L-1.92402 -375.784L-1.67402 -376.217Z" fill="#CECFCF"/>
<path fill-rule="evenodd" clip-rule="evenodd" d="M-1.92402 733.784L1920.65 -376.217L1920.9 -375.784L-1.67402 734.217L-1.92402 733.784Z" fill="#CECFCF"/>
<path fill-rule="evenodd" clip-rule="evenodd" d="M404.706 -782.413L1514.71 1140.16L1514.27 1140.41L404.273 -782.163L404.706 -782.413Z" fill="#CECFCF"/>
<path fill-rule="evenodd" clip-rule="evenodd" d="M174.424 963.712L1744.2 -606.065L1744.55 -605.712L174.778 964.065L174.424 963.712Z" fill="#CECFCF"/>
<path fill-rule="evenodd" clip-rule="evenodd" d="M174.778 -606.065L1744.55 963.712L1744.2 964.065L174.424 -605.712L174.778 -606.065Z" fill="#CECFCF"/>
<path fill-rule="evenodd" clip-rule="evenodd" d="M-112.753 466.048L2031.6 -108.531L2031.73 -108.048L-112.624 466.531L-112.753 466.048Z" fill="#CECFCF"/>
<path fill-rule="evenodd" clip-rule="evenodd" d="M672.442 -893.243L1247.02 1251.11L1246.54 1251.24L671.959 -893.113L672.442 -893.243Z" fill="#CECFCF"/>
<path fill-rule="evenodd" clip-rule="evenodd" d="M-112.624 -108.531L2031.73 466.048L2031.6 466.531L-112.753 -108.048L-112.624 -108.531Z" fill="#CECFCF"/>
<path fill-rule="evenodd" clip-rule="evenodd" d="M1247.02 -893.113L672.442 1251.24L671.959 1251.11L1246.54 -893.242L1247.02 -893.113Z" fill="#CECFCF"/>
<path fill-rule="evenodd" clip-rule="evenodd" d="M-146.265 82.0081L2065.29 275.494L2065.24 275.992L-146.309 82.5062L-146.265 82.0081Z" fill="#CECFCF"/>
<path fill-rule="evenodd" clip-rule="evenodd" d="M1056.48 -926.755L862.995 1284.8L862.497 1284.75L1055.98 -926.798L1056.48 -926.755Z" fill="#CECFCF"/>
<path fill-rule="evenodd" clip-rule="evenodd" d="M50.3739 -457.875L1868.89 815.465L1868.6 815.874L50.0871 -457.465L50.3739 -457.875Z" fill="#CECFCF"/>
<path fill-rule="evenodd" clip-rule="evenodd" d="M1596.36 -730.115L323.024 1088.4L322.615 1088.12L1595.95 -730.402L1596.36 -730.115Z" fill="#CECFCF"/>
<path fill-rule="evenodd" clip-rule="evenodd" d="M490.609 -827.107L1428.82 1184.9L1428.37 1185.11L490.156 -826.896L490.609 -827.107Z" fill="#CECFCF"/>
<path fill-rule="evenodd" clip-rule="evenodd" d="M1965.6 -289.88L-46.407 648.333L-46.6183 647.879L1965.39 -290.333L1965.6 -289.88Z" fill="#CECFCF"/>
<path fill-rule="evenodd" clip-rule="evenodd" d="M246.187 -671.47L1673.17 1029.15L1672.79 1029.47L245.803 -671.148L246.187 -671.47Z" fill="#CECFCF"/>
<path fill-rule="evenodd" clip-rule="evenodd" d="M1809.96 -534.303L109.34 892.686L109.019 892.303L1809.64 -534.686L1809.96 -534.303Z" fill="#CECFCF"/>
<path fill-rule="evenodd" clip-rule="evenodd" d="M766.985 -914.18L1152.48 1272.09L1151.99 1272.18L766.493 -914.093L766.985 -914.18Z" fill="#CECFCF"/>
<path fill-rule="evenodd" clip-rule="evenodd" d="M2052.67 -13.5032L-133.604 371.996L-133.691 371.503L2052.58 -13.9956L2052.67 -13.5032Z" fill="#CECFCF"/>
<path fill-rule="evenodd" clip-rule="evenodd" d="M1339.37 -863.973L580.082 1222.14L579.612 1221.97L1338.9 -864.144L1339.37 -863.973Z" fill="#CECFCF"/>
<path fill-rule="evenodd" clip-rule="evenodd" d="M2002.46 558.877L-83.6548 -200.408L-83.4838 -200.878L2002.63 558.407L2002.46 558.877Z" fill="#CECFCF"/>
<path fill-rule="evenodd" clip-rule="evenodd" d="M-146.309 275.494L2065.24 82.0078L2065.29 82.5059L-146.265 275.992L-146.309 275.494Z" fill="#CECFCF"/>
<path fill-rule="evenodd" clip-rule="evenodd" d="M862.995 -926.798L1056.48 1284.75L1055.98 1284.8L862.497 -926.754L862.995 -926.798Z" fill="#CECFCF"/>
<path fill-rule="evenodd" clip-rule="evenodd" d="M-46.4068 -290.333L1965.6 647.879L1965.39 648.333L-46.6181 -289.88L-46.4068 -290.333Z" fill="#CECFCF"/>
<path fill-rule="evenodd" clip-rule="evenodd" d="M1428.82 -826.896L490.609 1185.11L490.156 1184.9L1428.37 -827.107L1428.82 -826.896Z" fill="#CECFCF"/>
<path fill-rule="evenodd" clip-rule="evenodd" d="M323.024 -730.402L1596.36 1088.12L1595.95 1088.4L322.615 -730.115L323.024 -730.402Z" fill="#CECFCF"/>
<path fill-rule="evenodd" clip-rule="evenodd" d="M1868.89 -457.465L50.3738 815.875L50.087 815.465L1868.6 -457.875L1868.89 -457.465Z" fill="#CECFCF"/>
<path fill-rule="evenodd" clip-rule="evenodd" d="M109.341 -534.686L1809.96 892.303L1809.64 892.686L109.02 -534.303L109.341 -534.686Z" fill="#CECFCF"/>
<path fill-rule="evenodd" clip-rule="evenodd" d="M1673.17 -671.149L246.187 1029.47L245.804 1029.15L1672.79 -671.47L1673.17 -671.149Z" fill="#CECFCF"/>
<path fill-rule="evenodd" clip-rule="evenodd" d="M580.082 -864.144L1339.37 1221.97L1338.9 1222.14L579.612 -863.973L580.082 -864.144Z" fill="#CECFCF"/>
<path fill-rule="evenodd" clip-rule="evenodd" d="M2002.63 -200.407L-83.4839 558.877L-83.6549 558.408L2002.46 -200.877L2002.63 -200.407Z" fill="#CECFCF"/>
<path fill-rule="evenodd" clip-rule="evenodd" d="M1152.48 -914.093L766.985 1272.18L766.493 1272.09L1151.99 -914.18L1152.48 -914.093Z" fill="#CECFCF"/>
<path fill-rule="evenodd" clip-rule="evenodd" d="M2052.58 371.996L-133.691 -13.5034L-133.604 -13.9958L2052.67 371.503L2052.58 371.996Z" fill="#CECFCF"/>
<path fill-rule="evenodd" clip-rule="evenodd" d="M939.867 1288.83L978.611 -930.835L979.111 -930.827L940.367 1288.84L939.867 1288.83Z" fill="#CECFCF"/>
<path fill-rule="evenodd" clip-rule="evenodd" d="M-150.337 159.378L2069.32 198.122L2069.32 198.622L-150.346 159.878L-150.337 159.378Z" fill="#CECFCF"/>
<path fill-rule="evenodd" clip-rule="evenodd" d="M387.583 1130.33L1530.97 -772.584L1531.4 -772.327L388.011 1130.58L387.583 1130.33Z" fill="#CECFCF"/>
<path fill-rule="evenodd" clip-rule="evenodd" d="M8.1622 -392.907L1911.07 750.478L1910.82 750.906L7.90469 -392.478L8.1622 -392.907Z" fill="#CECFCF"/>
<path fill-rule="evenodd" clip-rule="evenodd" d="M-11.4599 716.92L1930.2 -359.357L1930.44 -358.92L-11.2174 717.357L-11.4599 716.92Z" fill="#CECFCF"/>
<path fill-rule="evenodd" clip-rule="evenodd" d="M421.569 -791.949L1497.85 1149.71L1497.41 1149.95L421.132 -791.707L421.569 -791.949Z" fill="#CECFCF"/>
<path fill-rule="evenodd" clip-rule="evenodd" d="M160.849 949.891L1757.78 -592.251L1758.13 -591.891L161.196 950.25L160.849 949.891Z" fill="#CECFCF"/>
<path fill-rule="evenodd" clip-rule="evenodd" d="M188.598 -619.641L1730.74 977.293L1730.38 977.641L188.239 -619.294L188.598 -619.641Z" fill="#CECFCF"/>
<path fill-rule="evenodd" clip-rule="evenodd" d="M-117.599 447.291L2036.46 -89.7759L2036.58 -89.2907L-117.478 447.776L-117.599 447.291Z" fill="#CECFCF"/>
<path fill-rule="evenodd" clip-rule="evenodd" d="M691.199 -898.089L1228.27 1255.97L1227.78 1256.09L690.714 -897.968L691.199 -898.089Z" fill="#CECFCF"/>
<path fill-rule="evenodd" clip-rule="evenodd" d="M-107.442 -127.198L2026.56 484.717L2026.42 485.197L-107.58 -126.718L-107.442 -127.198Z" fill="#CECFCF"/>
<path fill-rule="evenodd" clip-rule="evenodd" d="M1265.69 -887.932L653.772 1246.07L653.292 1245.93L1265.21 -888.069L1265.69 -887.932Z" fill="#CECFCF"/>
<path fill-rule="evenodd" clip-rule="evenodd" d="M-144.404 62.7248L2063.43 294.778L2063.38 295.275L-144.456 63.2221L-144.404 62.7248Z" fill="#CECFCF"/>
<path fill-rule="evenodd" clip-rule="evenodd" d="M1075.76 -924.893L843.71 1282.95L843.213 1282.89L1075.27 -924.946L1075.76 -924.893Z" fill="#CECFCF"/>
<path fill-rule="evenodd" clip-rule="evenodd" d="M61.6273 -473.644L1857.65 831.239L1857.35 831.643L61.3334 -473.24L61.6273 -473.644Z" fill="#CECFCF"/>
<path fill-rule="evenodd" clip-rule="evenodd" d="M1612.13 -718.862L307.25 1077.16L306.845 1076.86L1611.73 -719.156L1612.13 -718.862Z" fill="#CECFCF"/>
<path fill-rule="evenodd" clip-rule="evenodd" d="M508.24 -835.137L1411.2 1192.93L1410.74 1193.14L507.783 -834.934L508.24 -835.137Z" fill="#CECFCF"/>
<path fill-rule="evenodd" clip-rule="evenodd" d="M1973.63 -272.249L-54.4443 630.706L-54.6477 630.249L1973.42 -272.706L1973.63 -272.249Z" fill="#CECFCF"/>
<path fill-rule="evenodd" clip-rule="evenodd" d="M261.138 -683.789L1658.23 1041.47L1657.84 1041.79L260.749 -683.475L261.138 -683.789Z" fill="#CECFCF"/>
<path fill-rule="evenodd" clip-rule="evenodd" d="M1822.28 -519.351L97.0137 877.74L96.699 877.351L1821.96 -519.74L1822.28 -519.351Z" fill="#CECFCF"/>
<path fill-rule="evenodd" clip-rule="evenodd" d="M786.093 -917.373L1133.38 1275.29L1132.88 1275.37L785.6 -917.295L786.093 -917.373Z" fill="#CECFCF"/>
<path fill-rule="evenodd" clip-rule="evenodd" d="M2055.86 5.60485L-136.806 352.889L-136.884 352.395L2055.78 5.11101L2055.86 5.60485Z" fill="#CECFCF"/>
<path fill-rule="evenodd" clip-rule="evenodd" d="M1357.51 -857.185L561.934 1215.36L561.467 1215.18L1357.04 -857.364L1357.51 -857.185Z" fill="#CECFCF"/>
<path fill-rule="evenodd" clip-rule="evenodd" d="M1995.67 577.022L-76.8748 -218.555L-76.6956 -219.022L1995.85 576.555L1995.67 577.022Z" fill="#CECFCF"/>
<path fill-rule="evenodd" clip-rule="evenodd" d="M-147.824 256.18L2066.77 101.32L2066.8 101.819L-147.789 256.679L-147.824 256.18Z" fill="#CECFCF"/>
<path fill-rule="evenodd" clip-rule="evenodd" d="M882.309 -928.314L1037.17 1286.28L1036.67 1286.31L881.81 -928.279L882.309 -928.314Z" fill="#CECFCF"/>
<path fill-rule="evenodd" clip-rule="evenodd" d="M-38.0627 -307.817L1957.26 665.367L1957.04 665.816L-38.2818 -307.367L-38.0627 -307.817Z" fill="#CECFCF"/>
<path fill-rule="evenodd" clip-rule="evenodd" d="M1446.31 -818.552L473.122 1176.77L472.673 1176.55L1445.86 -818.771L1446.31 -818.552Z" fill="#CECFCF"/>
<path fill-rule="evenodd" clip-rule="evenodd" d="M338.992 -741.371L1580.4 1099.09L1579.99 1099.37L338.578 -741.092L338.992 -741.371Z" fill="#CECFCF"/>
<path fill-rule="evenodd" clip-rule="evenodd" d="M1879.86 -441.497L39.3977 799.911L39.1181 799.497L1879.58 -441.911L1879.86 -441.497Z" fill="#CECFCF"/>
<path fill-rule="evenodd" clip-rule="evenodd" d="M121.926 -549.414L1797.38 907.037L1797.05 907.414L121.598 -549.037L121.926 -549.414Z" fill="#CECFCF"/>
<path fill-rule="evenodd" clip-rule="evenodd" d="M1687.9 -658.563L231.452 1016.89L231.075 1016.56L1687.53 -658.891L1687.9 -658.563Z" fill="#CECFCF"/>
<path fill-rule="evenodd" clip-rule="evenodd" d="M598.345 -870.607L1321.11 1228.44L1320.63 1228.61L597.872 -870.444L598.345 -870.607Z" fill="#CECFCF"/>
<path fill-rule="evenodd" clip-rule="evenodd" d="M2009.1 -182.144L-89.9548 540.617L-90.1176 540.144L2008.93 -182.617L2009.1 -182.144Z" fill="#CECFCF"/>
<path fill-rule="evenodd" clip-rule="evenodd" d="M1171.53 -910.558L747.937 1268.65L747.446 1268.56L1171.04 -910.654L1171.53 -910.558Z" fill="#CECFCF"/>
<path fill-rule="evenodd" clip-rule="evenodd" d="M2049.05 391.044L-130.165 -32.5525L-130.069 -33.0433L2049.14 390.553L2049.05 391.044Z" fill="#CECFCF"/>
<path fill-rule="evenodd" clip-rule="evenodd" d="M920.501 1288.32L997.978 -930.333L998.477 -930.315L921 1288.33L920.501 1288.32Z" fill="#CECFCF"/>
<path fill-rule="evenodd" clip-rule="evenodd" d="M-149.826 140.011L2068.82 217.488L2068.8 217.988L-149.844 140.511L-149.826 140.011Z" fill="#CECFCF"/>
<path fill-rule="evenodd" clip-rule="evenodd" d="M371.067 1120.2L1547.49 -762.466L1547.91 -762.201L371.491 1120.47L371.067 1120.2Z" fill="#CECFCF"/>
<path fill-rule="evenodd" clip-rule="evenodd" d="M18.2882 -409.423L1900.95 766.998L1900.69 767.422L18.0232 -408.999L18.2882 -409.423Z" fill="#CECFCF"/>
<path fill-rule="evenodd" clip-rule="evenodd" d="M-20.7005 699.893L1939.44 -342.334L1939.68 -341.893L-20.4657 700.334L-20.7005 699.893Z" fill="#CECFCF"/>
<path fill-rule="evenodd" clip-rule="evenodd" d="M438.597 -801.189L1480.82 1158.95L1480.38 1159.19L438.155 -800.955L438.597 -801.189Z" fill="#CECFCF"/>
<path fill-rule="evenodd" clip-rule="evenodd" d="M147.516 935.835L1771.12 -578.201L1771.46 -577.836L147.857 936.201L147.516 935.835Z" fill="#CECFCF"/>
<path fill-rule="evenodd" clip-rule="evenodd" d="M202.654 -632.973L1716.69 990.632L1716.32 990.973L202.288 -632.632L202.654 -632.973Z" fill="#CECFCF"/>
<path fill-rule="evenodd" clip-rule="evenodd" d="M-122.118 428.452L2040.98 -70.9395L2041.1 -70.4523L-122.005 428.939L-122.118 428.452Z" fill="#CECFCF"/>
<path fill-rule="evenodd" clip-rule="evenodd" d="M710.037 -902.607L1209.43 1260.49L1208.94 1260.61L709.55 -902.495L710.037 -902.607Z" fill="#CECFCF"/>
<path fill-rule="evenodd" clip-rule="evenodd" d="M-101.936 -145.772L2021.06 503.293L2020.91 503.771L-102.082 -145.294L-101.936 -145.772Z" fill="#CECFCF"/>
<path fill-rule="evenodd" clip-rule="evenodd" d="M1284.26 -882.425L635.195 1240.57L634.717 1240.42L1283.78 -882.571L1284.26 -882.425Z" fill="#CECFCF"/>
<path fill-rule="evenodd" clip-rule="evenodd" d="M-142.207 43.4766L2061.25 314.026L2061.18 314.523L-142.268 43.9729L-142.207 43.4766Z" fill="#CECFCF"/>
<path fill-rule="evenodd" clip-rule="evenodd" d="M1095.01 -922.696L824.462 1280.76L823.966 1280.7L1094.52 -922.757L1095.01 -922.696Z" fill="#CECFCF"/>
<path fill-rule="evenodd" clip-rule="evenodd" d="M73.1544 -489.215L1846.13 846.814L1845.82 847.214L72.8534 -488.815L73.1544 -489.215Z" fill="#CECFCF"/>
<path fill-rule="evenodd" clip-rule="evenodd" d="M1627.7 -707.335L291.673 1065.64L291.274 1065.33L1627.3 -707.636L1627.7 -707.335Z" fill="#CECFCF"/>
<path fill-rule="evenodd" clip-rule="evenodd" d="M526.007 -842.858L1393.43 1200.66L1392.97 1200.86L525.547 -842.663L526.007 -842.858Z" fill="#CECFCF"/>
<path fill-rule="evenodd" clip-rule="evenodd" d="M1981.35 -254.482L-62.1738 612.941L-62.3692 612.481L1981.15 -254.942L1981.35 -254.482Z" fill="#CECFCF"/>
<path fill-rule="evenodd" clip-rule="evenodd" d="M276.302 -695.846L1643.07 1053.54L1642.68 1053.85L275.908 -695.538L276.302 -695.846Z" fill="#CECFCF"/>
<path fill-rule="evenodd" clip-rule="evenodd" d="M1834.33 -504.187L84.9507 862.581L84.6429 862.187L1834.03 -504.581L1834.33 -504.187Z" fill="#CECFCF"/>
<path fill-rule="evenodd" clip-rule="evenodd" d="M805.254 -920.232L1114.22 1278.16L1113.72 1278.23L804.759 -920.163L805.254 -920.232Z" fill="#CECFCF"/>
<path fill-rule="evenodd" clip-rule="evenodd" d="M2058.72 24.7654L-139.673 333.729L-139.743 333.234L2058.65 24.2703L2058.72 24.7654Z" fill="#CECFCF"/>
<path fill-rule="evenodd" clip-rule="evenodd" d="M1375.53 -850.08L543.908 1208.27L543.444 1208.08L1375.07 -850.267L1375.53 -850.08Z" fill="#CECFCF"/>
<path fill-rule="evenodd" clip-rule="evenodd" d="M1988.57 595.045L-69.7793 -236.582L-69.592 -237.045L1988.76 594.582L1988.57 595.045Z" fill="#CECFCF"/>
<path fill-rule="evenodd" clip-rule="evenodd" d="M-149.003 236.843L2067.95 120.657L2067.98 121.157L-148.977 237.343L-149.003 236.843Z" fill="#CECFCF"/>
<path fill-rule="evenodd" clip-rule="evenodd" d="M901.646 -929.492L1017.83 1287.47L1017.33 1287.49L901.146 -929.466L901.646 -929.492Z" fill="#CECFCF"/>
<path fill-rule="evenodd" clip-rule="evenodd" d="M-29.415 -325.152L1948.62 682.706L1948.39 683.152L-29.642 -324.707L-29.415 -325.152Z" fill="#CECFCF"/>
<path fill-rule="evenodd" clip-rule="evenodd" d="M1463.64 -809.904L455.782 1168.13L455.337 1167.9L1463.2 -810.131L1463.64 -809.904Z" fill="#CECFCF"/>
<path fill-rule="evenodd" clip-rule="evenodd" d="M355.149 -752.06L1564.25 1109.79L1563.83 1110.06L354.73 -751.788L355.149 -752.06Z" fill="#CECFCF"/>
<path fill-rule="evenodd" clip-rule="evenodd" d="M1890.55 -425.34L28.7007 783.759L28.4284 783.339L1890.28 -425.759L1890.55 -425.34Z" fill="#CECFCF"/>
<path fill-rule="evenodd" clip-rule="evenodd" d="M134.766 -563.921L1784.55 921.549L1784.21 921.921L134.431 -563.549L134.766 -563.921Z" fill="#CECFCF"/>
<path fill-rule="evenodd" clip-rule="evenodd" d="M1702.41 -645.724L216.94 1004.06L216.568 1003.72L1702.04 -646.058L1702.41 -645.724Z" fill="#CECFCF"/>
<path fill-rule="evenodd" clip-rule="evenodd" d="M616.717 -876.75L1302.73 1234.6L1302.26 1234.75L616.242 -876.595L616.717 -876.75Z" fill="#CECFCF"/>
<path fill-rule="evenodd" clip-rule="evenodd" d="M2015.24 -163.771L-96.1064 522.247L-96.261 521.771L2015.08 -164.246L2015.24 -163.771Z" fill="#CECFCF"/>
<path fill-rule="evenodd" clip-rule="evenodd" d="M1190.52 -906.691L728.952 1264.8L728.463 1264.69L1190.03 -906.795L1190.52 -906.691Z" fill="#CECFCF"/>
<path fill-rule="evenodd" clip-rule="evenodd" d="M2045.18 410.026L-126.307 -51.5376L-126.203 -52.0267L2045.28 409.537L2045.18 410.026Z" fill="#CECFCF"/>
<path fill-rule="evenodd" clip-rule="evenodd" d="M901.147 1287.47L1017.33 -929.492L1017.83 -929.466L901.646 1287.49L901.147 1287.47Z" fill="#CECFCF"/>
<path fill-rule="evenodd" clip-rule="evenodd" d="M-148.977 120.657L2067.98 236.843L2067.95 237.343L-149.003 121.157L-148.977 120.657Z" fill="#CECFCF"/>
<path fill-rule="evenodd" clip-rule="evenodd" d="M354.73 1109.79L1563.83 -752.061L1564.25 -751.788L355.149 1110.06L354.73 1109.79Z" fill="#CECFCF"/>
<path fill-rule="evenodd" clip-rule="evenodd" d="M28.7006 -425.759L1890.55 783.339L1890.28 783.759L28.4282 -425.34L28.7006 -425.759Z" fill="#CECFCF"/>
<path fill-rule="evenodd" clip-rule="evenodd" d="M-29.6415 682.707L1948.39 -325.152L1948.62 -324.707L-29.4145 683.152L-29.6415 682.707Z" fill="#CECFCF"/>
<path fill-rule="evenodd" clip-rule="evenodd" d="M455.783 -810.131L1463.64 1167.9L1463.2 1168.13L455.337 -809.904L455.783 -810.131Z" fill="#CECFCF"/>
<path fill-rule="evenodd" clip-rule="evenodd" d="M134.431 921.549L1784.21 -563.921L1784.55 -563.55L134.766 921.92L134.431 921.549Z" fill="#CECFCF"/>
<path fill-rule="evenodd" clip-rule="evenodd" d="M216.941 -646.058L1702.41 1003.72L1702.04 1004.06L216.569 -645.724L216.941 -646.058Z" fill="#CECFCF"/>
<path fill-rule="evenodd" clip-rule="evenodd" d="M-126.306 409.537L2045.18 -52.0269L2045.29 -51.5378L-126.202 410.026L-126.306 409.537Z" fill="#CECFCF"/>
<path fill-rule="evenodd" clip-rule="evenodd" d="M728.951 -906.796L1190.52 1264.69L1190.03 1264.8L728.462 -906.692L728.951 -906.796Z" fill="#CECFCF"/>
<path fill-rule="evenodd" clip-rule="evenodd" d="M-96.1061 -164.247L2015.24 521.771L2015.08 522.247L-96.2606 -163.771L-96.1061 -164.247Z" fill="#CECFCF"/>
<path fill-rule="evenodd" clip-rule="evenodd" d="M1302.74 -876.596L616.718 1234.75L616.243 1234.6L1302.26 -876.75L1302.74 -876.596Z" fill="#CECFCF"/>
<path fill-rule="evenodd" clip-rule="evenodd" d="M-139.674 24.2698L2058.72 333.234L2058.65 333.729L-139.743 24.7649L-139.674 24.2698Z" fill="#CECFCF"/>
<path fill-rule="evenodd" clip-rule="evenodd" d="M1114.22 -920.163L805.254 1278.23L804.759 1278.16L1113.72 -920.233L1114.22 -920.163Z" fill="#CECFCF"/>
<path fill-rule="evenodd" clip-rule="evenodd" d="M84.9512 -504.582L1834.34 862.187L1834.03 862.581L84.6433 -504.188L84.9512 -504.582Z" fill="#CECFCF"/>
<path fill-rule="evenodd" clip-rule="evenodd" d="M1643.07 -695.538L276.302 1053.85L275.908 1053.54L1642.68 -695.846L1643.07 -695.538Z" fill="#CECFCF"/>
<path fill-rule="evenodd" clip-rule="evenodd" d="M543.907 -850.268L1375.53 1208.08L1375.07 1208.27L543.443 -850.081L543.907 -850.268Z" fill="#CECFCF"/>
<path fill-rule="evenodd" clip-rule="evenodd" d="M1988.76 -236.582L-69.5908 595.044L-69.7781 594.581L1988.57 -237.046L1988.76 -236.582Z" fill="#CECFCF"/>
<path fill-rule="evenodd" clip-rule="evenodd" d="M291.674 -707.636L1627.7 1065.33L1627.3 1065.64L291.275 -707.335L291.674 -707.636Z" fill="#CECFCF"/>
<path fill-rule="evenodd" clip-rule="evenodd" d="M1846.12 -488.815L73.1533 847.214L72.8524 846.815L1845.82 -489.215L1846.12 -488.815Z" fill="#CECFCF"/>
<path fill-rule="evenodd" clip-rule="evenodd" d="M824.462 -922.757L1095.01 1280.7L1094.52 1280.76L823.966 -922.696L824.462 -922.757Z" fill="#CECFCF"/>
<path fill-rule="evenodd" clip-rule="evenodd" d="M2061.25 43.9732L-142.207 314.523L-142.268 314.027L2061.18 43.4769L2061.25 43.9732Z" fill="#CECFCF"/>
<path fill-rule="evenodd" clip-rule="evenodd" d="M1393.43 -842.663L526.007 1200.86L525.547 1200.66L1392.97 -842.858L1393.43 -842.663Z" fill="#CECFCF"/>
<path fill-rule="evenodd" clip-rule="evenodd" d="M1981.15 612.941L-62.3691 -254.482L-62.1738 -254.942L1981.35 612.481L1981.15 612.941Z" fill="#CECFCF"/>
<path fill-rule="evenodd" clip-rule="evenodd" d="M-149.844 217.488L2068.8 140.011L2068.82 140.51L-149.826 217.987L-149.844 217.488Z" fill="#CECFCF"/>
<path fill-rule="evenodd" clip-rule="evenodd" d="M921.001 -930.333L998.478 1288.31L997.978 1288.33L920.501 -930.315L921.001 -930.333Z" fill="#CECFCF"/>
<path fill-rule="evenodd" clip-rule="evenodd" d="M-20.4656 -342.334L1939.68 699.892L1939.44 700.334L-20.7003 -341.893L-20.4656 -342.334Z" fill="#CECFCF"/>
<path fill-rule="evenodd" clip-rule="evenodd" d="M1480.82 -800.955L438.597 1159.19L438.155 1158.95L1480.38 -801.189L1480.82 -800.955Z" fill="#CECFCF"/>
<path fill-rule="evenodd" clip-rule="evenodd" d="M371.491 -762.466L1547.91 1120.2L1547.49 1120.47L371.067 -762.201L371.491 -762.466Z" fill="#CECFCF"/>
<path fill-rule="evenodd" clip-rule="evenodd" d="M1900.95 -408.999L18.2878 767.422L18.0229 766.998L1900.69 -409.423L1900.95 -408.999Z" fill="#CECFCF"/>
<path fill-rule="evenodd" clip-rule="evenodd" d="M147.857 -578.201L1771.46 935.835L1771.12 936.201L147.516 -577.836L147.857 -578.201Z" fill="#CECFCF"/>
<path fill-rule="evenodd" clip-rule="evenodd" d="M1716.69 -632.632L202.655 990.973L202.289 990.632L1716.33 -632.973L1716.69 -632.632Z" fill="#CECFCF"/>
<path fill-rule="evenodd" clip-rule="evenodd" d="M635.196 -882.571L1284.26 1240.43L1283.78 1240.57L634.717 -882.425L635.196 -882.571Z" fill="#CECFCF"/>
<path fill-rule="evenodd" clip-rule="evenodd" d="M2021.06 -145.293L-101.936 503.772L-102.082 503.294L2020.91 -145.771L2021.06 -145.293Z" fill="#CECFCF"/>
<path fill-rule="evenodd" clip-rule="evenodd" d="M1209.43 -902.495L710.038 1260.61L709.55 1260.49L1208.94 -902.607L1209.43 -902.495Z" fill="#CECFCF"/>
<path fill-rule="evenodd" clip-rule="evenodd" d="M2040.98 428.939L-122.118 -70.4521L-122.005 -70.9393L2041.1 428.452L2040.98 428.939Z" fill="#CECFCF"/>
<path fill-rule="evenodd" clip-rule="evenodd" d="M881.81 1286.28L1036.67 -928.314L1037.17 -928.279L882.309 1286.31L881.81 1286.28Z" fill="#CECFCF"/>
<path fill-rule="evenodd" clip-rule="evenodd" d="M-147.79 101.32L2066.8 256.18L2066.77 256.678L-147.825 101.819L-147.79 101.32Z" fill="#CECFCF"/>
<path fill-rule="evenodd" clip-rule="evenodd" d="M338.578 1099.09L1579.99 -741.372L1580.4 -741.092L338.993 1099.37L338.578 1099.09Z" fill="#CECFCF"/>
<path fill-rule="evenodd" clip-rule="evenodd" d="M39.3971 -441.912L1879.86 799.496L1879.58 799.911L39.1175 -441.498L39.3971 -441.912Z" fill="#CECFCF"/>
<path fill-rule="evenodd" clip-rule="evenodd" d="M-38.2819 665.367L1957.04 -307.817L1957.26 -307.367L-38.0627 665.817L-38.2819 665.367Z" fill="#CECFCF"/>
<path fill-rule="evenodd" clip-rule="evenodd" d="M473.122 -818.771L1446.31 1176.55L1445.86 1176.77L472.673 -818.552L473.122 -818.771Z" fill="#CECFCF"/>
<path fill-rule="evenodd" clip-rule="evenodd" d="M121.598 907.036L1797.05 -549.415L1797.38 -549.037L121.926 907.414L121.598 907.036Z" fill="#CECFCF"/>
<path fill-rule="evenodd" clip-rule="evenodd" d="M231.453 -658.892L1687.9 1016.56L1687.53 1016.89L231.075 -658.564L231.453 -658.892Z" fill="#CECFCF"/>
<path fill-rule="evenodd" clip-rule="evenodd" d="M-130.164 390.552L2049.05 -33.0437L2049.14 -32.5529L-130.069 391.043L-130.164 390.552Z" fill="#CECFCF"/>
<path fill-rule="evenodd" clip-rule="evenodd" d="M747.937 -910.654L1171.53 1268.56L1171.04 1268.65L747.446 -910.559L747.937 -910.654Z" fill="#CECFCF"/>
<path fill-rule="evenodd" clip-rule="evenodd" d="M-89.9548 -182.617L2009.1 540.144L2008.93 540.617L-90.1175 -182.145L-89.9548 -182.617Z" fill="#CECFCF"/>
<path fill-rule="evenodd" clip-rule="evenodd" d="M1321.11 -870.445L598.345 1228.61L597.872 1228.44L1320.63 -870.607L1321.11 -870.445Z" fill="#CECFCF"/>
<path fill-rule="evenodd" clip-rule="evenodd" d="M-136.806 5.11019L2055.86 352.395L2055.78 352.888L-136.884 5.60404L-136.806 5.11019Z" fill="#CECFCF"/>
<path fill-rule="evenodd" clip-rule="evenodd" d="M1133.38 -917.295L786.094 1275.37L785.6 1275.29L1132.88 -917.374L1133.38 -917.295Z" fill="#CECFCF"/>
<path fill-rule="evenodd" clip-rule="evenodd" d="M97.0144 -519.74L1822.28 877.351L1821.96 877.739L96.6997 -519.352L97.0144 -519.74Z" fill="#CECFCF"/>
<path fill-rule="evenodd" clip-rule="evenodd" d="M1658.23 -683.475L261.138 1041.79L260.749 1041.47L1657.84 -683.79L1658.23 -683.475Z" fill="#CECFCF"/>
<path fill-rule="evenodd" clip-rule="evenodd" d="M561.934 -857.364L1357.51 1215.18L1357.04 1215.36L561.467 -857.185L561.934 -857.364Z" fill="#CECFCF"/>
<path fill-rule="evenodd" clip-rule="evenodd" d="M1995.85 -218.556L-76.6956 577.021L-76.8747 576.554L1995.67 -219.023L1995.85 -218.556Z" fill="#CECFCF"/>
<path fill-rule="evenodd" clip-rule="evenodd" d="M307.25 -719.156L1612.13 1076.86L1611.73 1077.16L306.845 -718.862L307.25 -719.156Z" fill="#CECFCF"/>
<path fill-rule="evenodd" clip-rule="evenodd" d="M1857.65 -473.24L61.6274 831.643L61.3335 831.239L1857.35 -473.644L1857.65 -473.24Z" fill="#CECFCF"/>
<path fill-rule="evenodd" clip-rule="evenodd" d="M843.711 -924.946L1075.76 1282.89L1075.27 1282.95L843.214 -924.893L843.711 -924.946Z" fill="#CECFCF"/>
<path fill-rule="evenodd" clip-rule="evenodd" d="M2063.43 63.2219L-144.405 295.275L-144.457 294.778L2063.38 62.7246L2063.43 63.2219Z" fill="#CECFCF"/>
<path fill-rule="evenodd" clip-rule="evenodd" d="M1411.2 -834.934L508.24 1193.14L507.783 1192.93L1410.74 -835.137L1411.2 -834.934Z" fill="#CECFCF"/>
<path fill-rule="evenodd" clip-rule="evenodd" d="M1973.42 630.705L-54.6475 -272.25L-54.4441 -272.707L1973.63 630.249L1973.42 630.705Z" fill="#CECFCF"/>
<path fill-rule="evenodd" clip-rule="evenodd" d="M-150.346 198.121L2069.32 159.377L2069.32 159.877L-150.337 198.621L-150.346 198.121Z" fill="#CECFCF"/>
<path fill-rule="evenodd" clip-rule="evenodd" d="M940.367 -930.836L979.111 1288.83L978.611 1288.83L939.867 -930.827L940.367 -930.836Z" fill="#CECFCF"/>
<path fill-rule="evenodd" clip-rule="evenodd" d="M-11.2172 -359.358L1930.44 716.92L1930.2 717.357L-11.4596 -358.92L-11.2172 -359.358Z" fill="#CECFCF"/>
<path fill-rule="evenodd" clip-rule="evenodd" d="M1497.85 -791.707L421.569 1149.95L421.132 1149.71L1497.41 -791.949L1497.85 -791.707Z" fill="#CECFCF"/>
<path fill-rule="evenodd" clip-rule="evenodd" d="M388.011 -772.585L1531.4 1130.33L1530.97 1130.58L387.583 -772.327L388.011 -772.585Z" fill="#CECFCF"/>
<path fill-rule="evenodd" clip-rule="evenodd" d="M1911.07 -392.478L8.16284 750.906L7.90532 750.478L1910.82 -392.907L1911.07 -392.478Z" fill="#CECFCF"/>
<path fill-rule="evenodd" clip-rule="evenodd" d="M161.197 -592.251L1758.13 949.891L1757.78 950.25L160.849 -591.891L161.197 -592.251Z" fill="#CECFCF"/>
<path fill-rule="evenodd" clip-rule="evenodd" d="M1730.74 -619.294L188.599 977.64L188.239 977.293L1730.38 -619.641L1730.74 -619.294Z" fill="#CECFCF"/>
<path fill-rule="evenodd" clip-rule="evenodd" d="M653.772 -888.069L1265.69 1245.93L1265.21 1246.07L653.291 -887.931L653.772 -888.069Z" fill="#CECFCF"/>
<path fill-rule="evenodd" clip-rule="evenodd" d="M2026.56 -126.717L-107.442 485.198L-107.58 484.717L2026.42 -127.197L2026.56 -126.717Z" fill="#CECFCF"/>
<path fill-rule="evenodd" clip-rule="evenodd" d="M1228.27 -897.968L691.199 1256.09L690.714 1255.97L1227.78 -898.089L1228.27 -897.968Z" fill="#CECFCF"/>
<path fill-rule="evenodd" clip-rule="evenodd" d="M2036.46 447.776L-117.6 -89.291L-117.479 -89.7762L2036.58 447.291L2036.46 447.776Z" fill="#CECFCF"/>
<path fill-rule="evenodd" clip-rule="evenodd" d="M945.874 1288.92L972.605 -930.922L973.105 -930.916L946.374 1288.92L945.874 1288.92Z" fill="#CECFCF"/>
<path fill-rule="evenodd" clip-rule="evenodd" d="M-150.427 165.384L2069.41 192.116L2069.41 192.616L-150.433 165.884L-150.427 165.384Z" fill="#CECFCF"/>
<path fill-rule="evenodd" clip-rule="evenodd" d="M392.74 1133.41L1525.81 -775.663L1526.24 -775.408L393.17 1133.66L392.74 1133.41Z" fill="#CECFCF"/>
<path fill-rule="evenodd" clip-rule="evenodd" d="M5.08108 -387.75L1914.15 745.32L1913.9 745.75L4.82589 -387.32L5.08108 -387.75Z" fill="#CECFCF"/>
<path fill-rule="evenodd" clip-rule="evenodd" d="M-8.53459 722.166L1927.27 -364.603L1927.51 -364.167L-8.28982 722.602L-8.53459 722.166Z" fill="#CECFCF"/>
<path fill-rule="evenodd" clip-rule="evenodd" d="M416.323 -789.024L1503.09 1146.78L1502.66 1147.02L415.887 -788.779L416.323 -789.024Z" fill="#CECFCF"/>
<path fill-rule="evenodd" clip-rule="evenodd" d="M165.032 954.201L1753.6 -596.56L1753.95 -596.202L165.381 954.559L165.032 954.201Z" fill="#CECFCF"/>
<path fill-rule="evenodd" clip-rule="evenodd" d="M184.288 -615.458L1735.05 973.108L1734.69 973.457L183.93 -615.108L184.288 -615.458Z" fill="#CECFCF"/>
<path fill-rule="evenodd" clip-rule="evenodd" d="M-116.132 453.116L2034.99 -95.5996L2035.11 -95.1151L-116.008 453.6L-116.132 453.116Z" fill="#CECFCF"/>
<path fill-rule="evenodd" clip-rule="evenodd" d="M685.373 -896.621L1234.09 1254.5L1233.6 1254.62L684.889 -896.498L685.373 -896.621Z" fill="#CECFCF"/>
<path fill-rule="evenodd" clip-rule="evenodd" d="M-109.084 -121.42L2028.2 478.938L2028.06 479.419L-109.219 -120.938L-109.084 -121.42Z" fill="#CECFCF"/>
<path fill-rule="evenodd" clip-rule="evenodd" d="M1259.91 -889.573L659.551 1247.71L659.07 1247.57L1259.43 -889.708L1259.91 -889.573Z" fill="#CECFCF"/>
<path fill-rule="evenodd" clip-rule="evenodd" d="M-145.017 68.7003L2064.04 288.802L2064 289.3L-145.067 69.1978L-145.017 68.7003Z" fill="#CECFCF"/>
<path fill-rule="evenodd" clip-rule="evenodd" d="M1069.79 -925.506L849.687 1283.56L849.19 1283.51L1069.29 -925.556L1069.79 -925.506Z" fill="#CECFCF"/>
<path fill-rule="evenodd" clip-rule="evenodd" d="M58.1086 -468.776L1861.16 826.369L1860.87 826.775L57.8169 -468.369L58.1086 -468.776Z" fill="#CECFCF"/>
<path fill-rule="evenodd" clip-rule="evenodd" d="M1607.26 -722.381L312.12 1080.67L311.714 1080.38L1606.86 -722.672L1607.26 -722.381Z" fill="#CECFCF"/>
<path fill-rule="evenodd" clip-rule="evenodd" d="M502.758 -832.68L1416.68 1190.47L1416.22 1190.68L502.302 -832.475L502.758 -832.68Z" fill="#CECFCF"/>
<path fill-rule="evenodd" clip-rule="evenodd" d="M1971.17 -277.731L-51.9858 636.186L-52.1917 635.731L1970.96 -278.187L1971.17 -277.731Z" fill="#CECFCF"/>
<path fill-rule="evenodd" clip-rule="evenodd" d="M256.479 -679.997L1662.89 1037.68L1662.5 1038L256.092 -679.68L256.479 -679.997Z" fill="#CECFCF"/>
<path fill-rule="evenodd" clip-rule="evenodd" d="M1818.49 -524.01L100.808 882.397L100.491 882.01L1818.17 -524.397L1818.49 -524.01Z" fill="#CECFCF"/>
<path fill-rule="evenodd" clip-rule="evenodd" d="M780.163 -916.419L1139.31 1274.34L1138.81 1274.42L779.669 -916.338L780.163 -916.419Z" fill="#CECFCF"/>
<path fill-rule="evenodd" clip-rule="evenodd" d="M2054.91 -0.325714L-135.849 358.819L-135.93 358.326L2054.83 -0.819127L2054.91 -0.325714Z" fill="#CECFCF"/>
<path fill-rule="evenodd" clip-rule="evenodd" d="M1351.9 -859.323L567.548 1217.5L567.081 1217.32L1351.43 -859.5L1351.9 -859.323Z" fill="#CECFCF"/>
<path fill-rule="evenodd" clip-rule="evenodd" d="M1997.81 571.409L-79.0112 -212.941L-78.8346 -213.409L1997.99 570.941L1997.81 571.409Z" fill="#CECFCF"/>
<path fill-rule="evenodd" clip-rule="evenodd" d="M-147.391 262.172L2066.33 95.3298L2066.37 95.8284L-147.353 262.67L-147.391 262.172Z" fill="#CECFCF"/>
<path fill-rule="evenodd" clip-rule="evenodd" d="M876.318 -927.88L1043.16 1285.84L1042.66 1285.88L875.819 -927.842L876.318 -927.88Z" fill="#CECFCF"/>
<path fill-rule="evenodd" clip-rule="evenodd" d="M-40.6825 -302.411L1959.88 659.96L1959.66 660.411L-40.8993 -301.961L-40.6825 -302.411Z" fill="#CECFCF"/>
<path fill-rule="evenodd" clip-rule="evenodd" d="M1440.9 -821.172L478.529 1179.39L478.078 1179.17L1440.45 -821.388L1440.9 -821.172Z" fill="#CECFCF"/>
<path fill-rule="evenodd" clip-rule="evenodd" d="M334.021 -738L1585.37 1095.72L1584.96 1096L333.608 -737.718L334.021 -738Z" fill="#CECFCF"/>
<path fill-rule="evenodd" clip-rule="evenodd" d="M1876.49 -446.468L42.7708 804.881L42.4889 804.468L1876.21 -446.881L1876.49 -446.468Z" fill="#CECFCF"/>
<path fill-rule="evenodd" clip-rule="evenodd" d="M117.996 -544.871L1801.31 902.492L1800.98 902.871L117.67 -544.492L117.996 -544.871Z" fill="#CECFCF"/>
<path fill-rule="evenodd" clip-rule="evenodd" d="M1683.36 -662.493L235.997 1020.82L235.618 1020.49L1682.98 -662.819L1683.36 -662.493Z" fill="#CECFCF"/>
<path fill-rule="evenodd" clip-rule="evenodd" d="M592.67 -868.637L1326.78 1226.47L1326.31 1226.64L592.198 -868.472L592.67 -868.637Z" fill="#CECFCF"/>
<path fill-rule="evenodd" clip-rule="evenodd" d="M2007.13 -187.819L-87.9827 546.291L-88.148 545.819L2006.96 -188.29L2007.13 -187.819Z" fill="#CECFCF"/>
<path fill-rule="evenodd" clip-rule="evenodd" d="M1165.63 -911.69L753.836 1269.78L753.345 1269.69L1165.14 -911.782L1165.63 -911.69Z" fill="#CECFCF"/>
<path fill-rule="evenodd" clip-rule="evenodd" d="M2050.18 385.144L-131.293 -26.6528L-131.201 -27.1442L2050.27 384.653L2050.18 385.144Z" fill="#CECFCF"/>
<path fill-rule="evenodd" clip-rule="evenodd" d="M926.504 1288.51L991.974 -930.525L992.473 -930.51L927.004 1288.52L926.504 1288.51Z" fill="#CECFCF"/>
<path fill-rule="evenodd" clip-rule="evenodd" d="M-150.02 146.015L2069.01 211.484L2069 211.984L-150.035 146.515L-150.02 146.015Z" fill="#CECFCF"/>
<path fill-rule="evenodd" clip-rule="evenodd" d="M376.169 1123.37L1542.38 -765.634L1542.81 -765.371L376.594 1123.63L376.169 1123.37Z" fill="#CECFCF"/>
<path fill-rule="evenodd" clip-rule="evenodd" d="M15.1181 -404.321L1904.12 761.895L1903.86 762.32L14.8555 -403.895L15.1181 -404.321Z" fill="#CECFCF"/>
<path fill-rule="evenodd" clip-rule="evenodd" d="M-17.8669 705.189L1936.61 -347.63L1936.85 -347.19L-17.6297 705.63L-17.8669 705.189Z" fill="#CECFCF"/>
<path fill-rule="evenodd" clip-rule="evenodd" d="M433.301 -798.356L1486.12 1156.12L1485.68 1156.36L432.86 -798.119L433.301 -798.356Z" fill="#CECFCF"/>
<path fill-rule="evenodd" clip-rule="evenodd" d="M151.624 940.218L1767.01 -582.582L1767.36 -582.218L151.967 940.582L151.624 940.218Z" fill="#CECFCF"/>
<path fill-rule="evenodd" clip-rule="evenodd" d="M198.271 -628.866L1721.07 986.522L1720.71 986.865L197.907 -628.523L198.271 -628.866Z" fill="#CECFCF"/>
<path fill-rule="evenodd" clip-rule="evenodd" d="M-120.752 434.302L2039.62 -76.7881L2039.73 -76.3015L-120.637 434.788L-120.752 434.302Z" fill="#CECFCF"/>
<path fill-rule="evenodd" clip-rule="evenodd" d="M704.188 -901.241L1215.28 1259.13L1214.79 1259.24L703.701 -901.126L704.188 -901.241Z" fill="#CECFCF"/>
<path fill-rule="evenodd" clip-rule="evenodd" d="M-103.678 -140.023L2022.8 497.544L2022.66 498.023L-103.821 -139.544L-103.678 -140.023Z" fill="#CECFCF"/>
<path fill-rule="evenodd" clip-rule="evenodd" d="M1278.51 -884.167L640.946 1242.31L640.467 1242.17L1278.03 -884.311L1278.51 -884.167Z" fill="#CECFCF"/>
<path fill-rule="evenodd" clip-rule="evenodd" d="M-142.924 49.4406L2061.96 308.062L2061.9 308.559L-142.982 49.9372L-142.924 49.4406Z" fill="#CECFCF"/>
<path fill-rule="evenodd" clip-rule="evenodd" d="M1089.05 -923.413L830.427 1281.47L829.93 1281.41L1088.55 -923.471L1089.05 -923.413Z" fill="#CECFCF"/>
<path fill-rule="evenodd" clip-rule="evenodd" d="M69.5511 -484.408L1849.73 842.007L1849.43 842.408L69.2524 -484.007L69.5511 -484.408Z" fill="#CECFCF"/>
<path fill-rule="evenodd" clip-rule="evenodd" d="M1622.9 -710.938L296.483 1069.24L296.082 1068.94L1622.5 -711.237L1622.9 -710.938Z" fill="#CECFCF"/>
<path fill-rule="evenodd" clip-rule="evenodd" d="M520.484 -840.497L1398.95 1198.3L1398.49 1198.5L520.025 -840.299L520.484 -840.497Z" fill="#CECFCF"/>
<path fill-rule="evenodd" clip-rule="evenodd" d="M1978.99 -260.005L-59.8103 618.464L-60.0082 618.005L1978.79 -260.464L1978.99 -260.005Z" fill="#CECFCF"/>
<path fill-rule="evenodd" clip-rule="evenodd" d="M271.578 -692.136L1647.79 1049.83L1647.4 1050.14L271.185 -691.826L271.578 -692.136Z" fill="#CECFCF"/>
<path fill-rule="evenodd" clip-rule="evenodd" d="M1830.62 -508.912L88.6628 867.304L88.3529 866.911L1830.31 -509.304L1830.62 -508.912Z" fill="#CECFCF"/>
<path fill-rule="evenodd" clip-rule="evenodd" d="M799.308 -919.381L1120.16 1277.31L1119.67 1277.38L798.813 -919.309L799.308 -919.381Z" fill="#CECFCF"/>
<path fill-rule="evenodd" clip-rule="evenodd" d="M2057.87 18.8192L-138.82 339.676L-138.893 339.181L2057.8 18.3244L2057.87 18.8192Z" fill="#CECFCF"/>
<path fill-rule="evenodd" clip-rule="evenodd" d="M1369.96 -852.317L549.483 1210.5L549.019 1210.32L1369.49 -852.502L1369.96 -852.317Z" fill="#CECFCF"/>
<path fill-rule="evenodd" clip-rule="evenodd" d="M1990.81 589.47L-72.0122 -231.005L-71.8274 -231.47L1990.99 589.006L1990.81 589.47Z" fill="#CECFCF"/>
<path fill-rule="evenodd" clip-rule="evenodd" d="M-148.673 242.841L2067.62 114.659L2067.65 115.158L-148.644 243.34L-148.673 242.841Z" fill="#CECFCF"/>
<path fill-rule="evenodd" clip-rule="evenodd" d="M895.648 -929.163L1023.83 1287.13L1023.33 1287.16L895.149 -929.134L895.648 -929.163Z" fill="#CECFCF"/>
<path fill-rule="evenodd" clip-rule="evenodd" d="M-32.1285 -319.793L1951.33 677.346L1951.11 677.793L-32.3531 -319.346L-32.1285 -319.793Z" fill="#CECFCF"/>
<path fill-rule="evenodd" clip-rule="evenodd" d="M1458.28 -812.618L461.142 1170.84L460.696 1170.62L1457.84 -812.842L1458.28 -812.618Z" fill="#CECFCF"/>
<path fill-rule="evenodd" clip-rule="evenodd" d="M350.12 -748.776L1569.28 1106.5L1568.86 1106.78L349.702 -748.502L350.12 -748.776Z" fill="#CECFCF"/>
<path fill-rule="evenodd" clip-rule="evenodd" d="M1887.27 -430.369L31.9878 788.787L31.7132 788.369L1886.99 -430.787L1887.27 -430.369Z" fill="#CECFCF"/>
<path fill-rule="evenodd" clip-rule="evenodd" d="M130.757 -559.447L1788.55 917.073L1788.22 917.447L130.425 -559.073L130.757 -559.447Z" fill="#CECFCF"/>
<path fill-rule="evenodd" clip-rule="evenodd" d="M1697.94 -649.732L221.416 1008.06L221.043 1007.73L1697.56 -650.064L1697.94 -649.732Z" fill="#CECFCF"/>
<path fill-rule="evenodd" clip-rule="evenodd" d="M611.01 -874.88L1308.44 1232.72L1307.97 1232.88L610.535 -874.722L611.01 -874.88Z" fill="#CECFCF"/>
<path fill-rule="evenodd" clip-rule="evenodd" d="M2013.37 -169.479L-94.2329 527.954L-94.39 527.479L2013.21 -169.954L2013.37 -169.479Z" fill="#CECFCF"/>
<path fill-rule="evenodd" clip-rule="evenodd" d="M1184.64 -907.926L734.832 1266.03L734.342 1265.93L1184.15 -908.027L1184.64 -907.926Z" fill="#CECFCF"/>
<path fill-rule="evenodd" clip-rule="evenodd" d="M2046.42 404.148L-127.538 -45.658L-127.437 -46.1476L2046.52 403.659L2046.42 404.148Z" fill="#CECFCF"/>
<path fill-rule="evenodd" clip-rule="evenodd" d="M907.146 1287.77L1011.33 -929.789L1011.83 -929.765L907.646 1287.79L907.146 1287.77Z" fill="#CECFCF"/>
<path fill-rule="evenodd" clip-rule="evenodd" d="M-149.276 126.657L2068.28 230.844L2068.25 231.343L-149.3 127.156L-149.276 126.657Z" fill="#CECFCF"/>
<path fill-rule="evenodd" clip-rule="evenodd" d="M359.775 1113.05L1558.78 -755.317L1559.2 -755.047L360.196 1113.32L359.775 1113.05Z" fill="#CECFCF"/>
<path fill-rule="evenodd" clip-rule="evenodd" d="M25.4415 -420.714L1893.81 778.292L1893.54 778.713L25.1714 -420.293L25.4415 -420.714Z" fill="#CECFCF"/>
<path fill-rule="evenodd" clip-rule="evenodd" d="M-26.9014 688.052L1945.65 -330.496L1945.88 -330.052L-26.672 688.497L-26.9014 688.052Z" fill="#CECFCF"/>
<path fill-rule="evenodd" clip-rule="evenodd" d="M450.438 -807.391L1468.99 1165.16L1468.54 1165.39L449.993 -807.161L450.438 -807.391Z" fill="#CECFCF"/>
<path fill-rule="evenodd" clip-rule="evenodd" d="M138.462 926.003L1780.18 -568.373L1780.52 -568.004L138.798 926.373L138.462 926.003Z" fill="#CECFCF"/>
<path fill-rule="evenodd" clip-rule="evenodd" d="M212.486 -642.028L1706.86 999.691L1706.49 1000.03L212.116 -641.691L212.486 -642.028Z" fill="#CECFCF"/>
<path fill-rule="evenodd" clip-rule="evenodd" d="M-125.043 415.41L2043.92 -57.8984L2044.02 -57.4099L-124.936 415.898L-125.043 415.41Z" fill="#CECFCF"/>
<path fill-rule="evenodd" clip-rule="evenodd" d="M723.08 -905.532L1196.39 1263.43L1195.9 1263.53L722.591 -905.426L723.08 -905.532Z" fill="#CECFCF"/>
<path fill-rule="evenodd" clip-rule="evenodd" d="M-97.948 -158.53L2017.08 516.052L2016.93 516.529L-98.0999 -158.053L-97.948 -158.53Z" fill="#CECFCF"/>
<path fill-rule="evenodd" clip-rule="evenodd" d="M1297.02 -878.437L622.437 1236.59L621.96 1236.44L1296.54 -878.589L1297.02 -878.437Z" fill="#CECFCF"/>
<path fill-rule="evenodd" clip-rule="evenodd" d="M-140.496 30.2202L2059.54 327.283L2059.47 327.778L-140.563 30.7157L-140.496 30.2202Z" fill="#CECFCF"/>
<path fill-rule="evenodd" clip-rule="evenodd" d="M1108.27 -920.984L811.206 1279.05L810.71 1278.98L1107.77 -921.051L1108.27 -920.984Z" fill="#CECFCF"/>
<path fill-rule="evenodd" clip-rule="evenodd" d="M81.2644 -499.839L1838.02 857.443L1837.71 857.838L80.9587 -499.443L81.2644 -499.839Z" fill="#CECFCF"/>
<path fill-rule="evenodd" clip-rule="evenodd" d="M1638.33 -699.225L281.046 1057.53L280.651 1057.22L1637.93 -699.53L1638.33 -699.225Z" fill="#CECFCF"/>
<path fill-rule="evenodd" clip-rule="evenodd" d="M538.343 -848.004L1381.1 1205.81L1380.63 1206L537.881 -847.814L538.343 -848.004Z" fill="#CECFCF"/>
<path fill-rule="evenodd" clip-rule="evenodd" d="M1986.49 -242.146L-67.325 600.607L-67.5148 600.145L1986.3 -242.609L1986.49 -242.146Z" fill="#CECFCF"/>
<path fill-rule="evenodd" clip-rule="evenodd" d="M286.885 -704.009L1632.49 1061.71L1632.09 1062.01L286.488 -703.706L286.885 -704.009Z" fill="#CECFCF"/>
<path fill-rule="evenodd" clip-rule="evenodd" d="M1842.5 -493.603L76.7834 852.001L76.4804 851.603L1842.2 -494.001L1842.5 -493.603Z" fill="#CECFCF"/>
<path fill-rule="evenodd" clip-rule="evenodd" d="M818.502 -922.01L1100.97 1279.95L1100.48 1280.01L818.006 -921.946L818.502 -922.01Z" fill="#CECFCF"/>
<path fill-rule="evenodd" clip-rule="evenodd" d="M2060.5 38.0129L-141.458 320.483L-141.521 319.987L2060.43 37.517L2060.5 38.0129Z" fill="#CECFCF"/>
<path fill-rule="evenodd" clip-rule="evenodd" d="M1387.9 -844.996L531.544 1203.19L531.083 1203L1387.43 -845.189L1387.9 -844.996Z" fill="#CECFCF"/>
<path fill-rule="evenodd" clip-rule="evenodd" d="M1983.48 607.407L-64.7009 -248.945L-64.5081 -249.406L1983.68 606.945L1983.48 607.407Z" fill="#CECFCF"/>
<path fill-rule="evenodd" clip-rule="evenodd" d="M-149.619 223.491L2068.58 134.009L2068.6 134.509L-149.599 223.991L-149.619 223.491Z" fill="#CECFCF"/>
<path fill-rule="evenodd" clip-rule="evenodd" d="M914.998 -930.108L1004.48 1288.09L1003.98 1288.11L914.499 -930.088L914.998 -930.108Z" fill="#CECFCF"/>
<path fill-rule="evenodd" clip-rule="evenodd" d="M-23.2726 -337.023L1942.48 694.58L1942.25 695.023L-23.5049 -336.581L-23.2726 -337.023Z" fill="#CECFCF"/>
<path fill-rule="evenodd" clip-rule="evenodd" d="M1475.51 -803.761L443.908 1161.99L443.465 1161.76L1475.07 -803.994L1475.51 -803.761Z" fill="#CECFCF"/>
<path fill-rule="evenodd" clip-rule="evenodd" d="M366.404 -759.27L1553 1117L1552.57 1117.27L365.981 -759.003L366.404 -759.27Z" fill="#CECFCF"/>
<path fill-rule="evenodd" clip-rule="evenodd" d="M1897.76 -414.085L21.4861 772.507L21.2188 772.084L1897.49 -414.507L1897.76 -414.085Z" fill="#CECFCF"/>
<path fill-rule="evenodd" clip-rule="evenodd" d="M143.771 -573.798L1775.55 931.43L1775.21 931.798L143.432 -573.43L143.771 -573.798Z" fill="#CECFCF"/>
<path fill-rule="evenodd" clip-rule="evenodd" d="M1712.29 -636.718L207.059 995.057L206.691 994.718L1711.92 -637.057L1712.29 -636.718Z" fill="#CECFCF"/>
<path fill-rule="evenodd" clip-rule="evenodd" d="M629.455 -880.801L1290 1238.65L1289.52 1238.8L628.978 -880.652L629.455 -880.801Z" fill="#CECFCF"/>
<path fill-rule="evenodd" clip-rule="evenodd" d="M2019.29 -151.033L-100.163 509.511L-100.312 509.034L2019.14 -151.51L2019.29 -151.033Z" fill="#CECFCF"/>
<path fill-rule="evenodd" clip-rule="evenodd" d="M1203.57 -903.831L715.893 1261.94L715.406 1261.83L1203.08 -903.941L1203.57 -903.831Z" fill="#CECFCF"/>
<path fill-rule="evenodd" clip-rule="evenodd" d="M2042.32 423.083L-123.452 -64.5955L-123.343 -65.0832L2042.43 422.595L2042.32 423.083Z" fill="#CECFCF"/>
<path fill-rule="evenodd" clip-rule="evenodd" d="M887.803 1286.68L1030.68 -928.715L1031.17 -928.683L888.302 1286.71L887.803 1286.68Z" fill="#CECFCF"/>
<path fill-rule="evenodd" clip-rule="evenodd" d="M-148.194 107.314L2067.2 250.187L2067.17 250.685L-148.226 107.813L-148.194 107.314Z" fill="#CECFCF"/>
<path fill-rule="evenodd" clip-rule="evenodd" d="M343.566 1102.44L1575 -744.716L1575.41 -744.438L343.982 1102.72L343.566 1102.44Z" fill="#CECFCF"/>
<path fill-rule="evenodd" clip-rule="evenodd" d="M36.0501 -436.923L1883.2 794.507L1882.93 794.923L35.7727 -436.507L36.0501 -436.923Z" fill="#CECFCF"/>
<path fill-rule="evenodd" clip-rule="evenodd" d="M-35.6349 670.76L1954.39 -313.208L1954.61 -312.76L-35.4133 671.208L-35.6349 670.76Z" fill="#CECFCF"/>
<path fill-rule="evenodd" clip-rule="evenodd" d="M467.73 -816.125L1451.7 1173.9L1451.25 1174.12L467.282 -815.903L467.73 -816.125Z" fill="#CECFCF"/>
<path fill-rule="evenodd" clip-rule="evenodd" d="M125.55 911.56L1793.1 -553.936L1793.43 -553.561L125.88 911.936L125.55 911.56Z" fill="#CECFCF"/>
<path fill-rule="evenodd" clip-rule="evenodd" d="M226.93 -654.94L1692.43 1012.61L1692.05 1012.94L226.554 -654.61L226.93 -654.94Z" fill="#CECFCF"/>
<path fill-rule="evenodd" clip-rule="evenodd" d="M-129.004 396.446L2047.88 -38.9365L2047.98 -38.4462L-128.905 396.936L-129.004 396.446Z" fill="#CECFCF"/>
<path fill-rule="evenodd" clip-rule="evenodd" d="M742.043 -909.494L1177.43 1267.39L1176.94 1267.49L741.553 -909.395L742.043 -909.494Z" fill="#CECFCF"/>
<path fill-rule="evenodd" clip-rule="evenodd" d="M-91.8966 -176.933L2011.04 534.459L2010.87 534.933L-92.0569 -176.459L-91.8966 -176.933Z" fill="#CECFCF"/>
<path fill-rule="evenodd" clip-rule="evenodd" d="M1315.42 -872.386L604.031 1230.55L603.557 1230.39L1314.95 -872.546L1315.42 -872.386Z" fill="#CECFCF"/>
<path fill-rule="evenodd" clip-rule="evenodd" d="M-137.731 11.0455L2056.78 346.459L2056.71 346.953L-137.807 11.5398L-137.731 11.0455Z" fill="#CECFCF"/>
<path fill-rule="evenodd" clip-rule="evenodd" d="M1127.44 -918.22L792.029 1276.29L791.535 1276.22L1126.95 -918.296L1127.44 -918.22Z" fill="#CECFCF"/>
<path fill-rule="evenodd" clip-rule="evenodd" d="M93.2456 -515.063L1826.04 872.671L1825.73 873.062L92.9331 -514.673L93.2456 -515.063Z" fill="#CECFCF"/>
<path fill-rule="evenodd" clip-rule="evenodd" d="M1653.55 -687.244L265.817 1045.56L265.427 1045.24L1653.16 -687.556L1653.55 -687.244Z" fill="#CECFCF"/>
<path fill-rule="evenodd" clip-rule="evenodd" d="M556.332 -855.197L1363.11 1213.02L1362.65 1213.2L555.866 -855.016L556.332 -855.197Z" fill="#CECFCF"/>
<path fill-rule="evenodd" clip-rule="evenodd" d="M1993.69 -224.158L-74.5264 582.623L-74.7081 582.157L1993.5 -224.624L1993.69 -224.158Z" fill="#CECFCF"/>
<path fill-rule="evenodd" clip-rule="evenodd" d="M302.399 -715.613L1616.98 1073.32L1616.58 1073.61L301.996 -715.317L302.399 -715.613Z" fill="#CECFCF"/>
<path fill-rule="evenodd" clip-rule="evenodd" d="M1854.1 -478.091L65.1724 836.493L64.8763 836.09L1853.81 -478.493L1854.1 -478.091Z" fill="#CECFCF"/>
<path fill-rule="evenodd" clip-rule="evenodd" d="M837.738 -924.303L1081.74 1282.25L1081.24 1282.3L837.241 -924.248L837.738 -924.303Z" fill="#CECFCF"/>
<path fill-rule="evenodd" clip-rule="evenodd" d="M2062.79 57.25L-143.759 301.248L-143.813 300.751L2062.74 56.7531L2062.79 57.25Z" fill="#CECFCF"/>
<path fill-rule="evenodd" clip-rule="evenodd" d="M1405.7 -837.364L513.734 1195.56L513.276 1195.36L1405.24 -837.565L1405.7 -837.364Z" fill="#CECFCF"/>
<path fill-rule="evenodd" clip-rule="evenodd" d="M1975.85 625.212L-57.0759 -266.755L-56.875 -267.213L1976.05 624.754L1975.85 625.212Z" fill="#CECFCF"/>
<path fill-rule="evenodd" clip-rule="evenodd" d="M-150.227 204.127L2069.19 153.371L2069.2 153.871L-150.216 204.627L-150.227 204.127Z" fill="#CECFCF"/>
<path fill-rule="evenodd" clip-rule="evenodd" d="M934.362 -930.716L985.117 1288.7L984.617 1288.72L933.862 -930.704L934.362 -930.716Z" fill="#CECFCF"/>
<path fill-rule="evenodd" clip-rule="evenodd" d="M-14.1167 -354.097L1933.33 711.657L1933.09 712.096L-14.3567 -353.658L-14.1167 -354.097Z" fill="#CECFCF"/>
<path fill-rule="evenodd" clip-rule="evenodd" d="M1492.59 -794.606L426.832 1152.85L426.393 1152.61L1492.15 -794.846L1492.59 -794.606Z" fill="#CECFCF"/>
<path fill-rule="evenodd" clip-rule="evenodd" d="M382.87 -769.478L1536.54 1127.22L1536.11 1127.48L382.443 -769.218L382.87 -769.478Z" fill="#CECFCF"/>
<path fill-rule="evenodd" clip-rule="evenodd" d="M1907.97 -397.62L11.2715 756.046L11.0116 755.618L1907.71 -398.047L1907.97 -397.62Z" fill="#CECFCF"/>
<path fill-rule="evenodd" clip-rule="evenodd" d="M157.034 -587.919L1762.29 945.557L1761.95 945.919L156.689 -587.558L157.034 -587.919Z" fill="#CECFCF"/>
<path fill-rule="evenodd" clip-rule="evenodd" d="M1726.41 -623.456L192.932 981.8L192.57 981.455L1726.05 -623.801L1726.41 -623.456Z" fill="#CECFCF"/>
<path fill-rule="evenodd" clip-rule="evenodd" d="M648.002 -886.4L1271.46 1244.26L1270.98 1244.4L647.522 -886.259L648.002 -886.4Z" fill="#CECFCF"/>
<path fill-rule="evenodd" clip-rule="evenodd" d="M2024.89 -132.487L-105.77 490.968L-105.91 490.488L2024.75 -132.966L2024.89 -132.487Z" fill="#CECFCF"/>
<path fill-rule="evenodd" clip-rule="evenodd" d="M1222.43 -899.406L697.031 1257.52L696.545 1257.41L1221.95 -899.525L1222.43 -899.406Z" fill="#CECFCF"/>
<path fill-rule="evenodd" clip-rule="evenodd" d="M2037.9 441.944L-119.036 -83.4583L-118.917 -83.944L2038.01 441.458L2037.9 441.944Z" fill="#CECFCF"/>
<path fill-rule="evenodd" clip-rule="evenodd" d="M868.483 1285.26L1050 -927.304L1050.5 -927.263L868.982 1285.3L868.483 1285.26Z" fill="#CECFCF"/>
<path fill-rule="evenodd" clip-rule="evenodd" d="M-146.774 87.9928L2065.79 269.508L2065.75 270.006L-146.815 88.4911L-146.774 87.9928Z" fill="#CECFCF"/>
<path fill-rule="evenodd" clip-rule="evenodd" d="M327.544 1091.55L1591.02 -733.833L1591.44 -733.549L327.955 1091.83L327.544 1091.55Z" fill="#CECFCF"/>
<path fill-rule="evenodd" clip-rule="evenodd" d="M46.9409 -452.946L1872.32 810.534L1872.04 810.945L46.6563 -452.535L46.9409 -452.946Z" fill="#CECFCF"/>
<path fill-rule="evenodd" clip-rule="evenodd" d="M-44.0659 653.317L1962.83 -295.77L1963.04 -295.318L-43.8522 653.769L-44.0659 653.317Z" fill="#CECFCF"/>
<path fill-rule="evenodd" clip-rule="evenodd" d="M485.172 -824.556L1434.26 1182.34L1433.81 1182.55L484.72 -824.342L485.172 -824.556Z" fill="#CECFCF"/>
<path fill-rule="evenodd" clip-rule="evenodd" d="M112.892 896.894L1805.76 -539.277L1806.09 -538.895L113.216 897.275L112.892 896.894Z" fill="#CECFCF"/>
<path fill-rule="evenodd" clip-rule="evenodd" d="M241.595 -667.598L1677.77 1025.27L1677.38 1025.6L241.214 -667.275L241.595 -667.598Z" fill="#CECFCF"/>
<path fill-rule="evenodd" clip-rule="evenodd" d="M-132.632 377.416L2051.52 -19.9087L2051.61 -19.4168L-132.543 377.908L-132.632 377.416Z" fill="#CECFCF"/>
<path fill-rule="evenodd" clip-rule="evenodd" d="M761.073 -913.122L1158.4 1271.03L1157.91 1271.12L760.581 -913.033L761.073 -913.122Z" fill="#CECFCF"/>
<path fill-rule="evenodd" clip-rule="evenodd" d="M-85.5239 -195.228L2004.67 552.756L2004.5 553.227L-85.6924 -194.757L-85.5239 -195.228Z" fill="#CECFCF"/>
<path fill-rule="evenodd" clip-rule="evenodd" d="M1333.72 -866.014L585.732 1224.18L585.262 1224.01L1333.25 -866.182L1333.72 -866.014Z" fill="#CECFCF"/>
<path fill-rule="evenodd" clip-rule="evenodd" d="M-134.633 -8.07795L2053.69 365.584L2053.61 366.077L-134.717 -7.58508L-134.633 -8.07795Z" fill="#CECFCF"/>
<path fill-rule="evenodd" clip-rule="evenodd" d="M1146.57 -915.122L772.905 1273.21L772.412 1273.12L1146.07 -915.206L1146.57 -915.122Z" fill="#CECFCF"/>
<path fill-rule="evenodd" clip-rule="evenodd" d="M105.491 -530.075L1813.81 887.689L1813.49 888.074L105.172 -529.69L105.491 -530.075Z" fill="#CECFCF"/>
<path fill-rule="evenodd" clip-rule="evenodd" d="M1668.56 -674.999L250.799 1033.32L250.414 1033L1668.18 -675.318L1668.56 -674.999Z" fill="#CECFCF"/>
<path fill-rule="evenodd" clip-rule="evenodd" d="M574.442 -862.076L1345 1219.9L1344.54 1220.08L573.973 -861.902L574.442 -862.076Z" fill="#CECFCF"/>
<path fill-rule="evenodd" clip-rule="evenodd" d="M2000.56 -206.047L-81.4133 564.515L-81.5869 564.046L2000.39 -206.516L2000.56 -206.047Z" fill="#CECFCF"/>
<path fill-rule="evenodd" clip-rule="evenodd" d="M318.112 -726.945L1601.27 1084.66L1600.87 1084.94L317.704 -726.656L318.112 -726.945Z" fill="#CECFCF"/>
<path fill-rule="evenodd" clip-rule="evenodd" d="M1865.43 -462.377L53.833 820.785L53.544 820.377L1865.14 -462.785L1865.43 -462.377Z" fill="#CECFCF"/>
<path fill-rule="evenodd" clip-rule="evenodd" d="M857.012 -926.26L1062.46 1284.21L1061.97 1284.26L856.514 -926.214L857.012 -926.26Z" fill="#CECFCF"/>
<path fill-rule="evenodd" clip-rule="evenodd" d="M2064.75 76.5234L-145.724 281.974L-145.77 281.476L2064.7 76.0255L2064.75 76.5234Z" fill="#CECFCF"/>
<path fill-rule="evenodd" clip-rule="evenodd" d="M1423.37 -829.421L496.061 1187.63L495.607 1187.42L1422.92 -829.63L1423.37 -829.421Z" fill="#CECFCF"/>
<path fill-rule="evenodd" clip-rule="evenodd" d="M1967.91 642.882L-49.1406 -284.429L-48.9318 -284.883L1968.12 642.428L1967.91 642.882Z" fill="#CECFCF"/>
<path fill-rule="evenodd" clip-rule="evenodd" d="M-150.496 184.757L2069.47 172.743L2069.47 173.243L-150.494 185.257L-150.496 184.757Z" fill="#CECFCF"/>
<path fill-rule="evenodd" clip-rule="evenodd" d="M953.732 -930.986L965.746 1288.98L965.246 1288.98L953.232 -930.983L953.732 -930.986Z" fill="#CECFCF"/>
<path fill-rule="evenodd" clip-rule="evenodd" d="M-4.6647 -371.007L1923.89 728.572L1923.64 729.007L-4.91235 -370.573L-4.6647 -371.007Z" fill="#CECFCF"/>
<path fill-rule="evenodd" clip-rule="evenodd" d="M1509.5 -785.154L409.917 1143.4L409.482 1143.15L1509.06 -785.402L1509.5 -785.154Z" fill="#CECFCF"/>
<path fill-rule="evenodd" clip-rule="evenodd" d="M399.511 -779.397L1519.9 1137.14L1519.47 1137.4L399.08 -779.145L399.511 -779.397Z" fill="#CECFCF"/>
<path fill-rule="evenodd" clip-rule="evenodd" d="M1917.89 -380.978L1.34497 739.409L1.09263 738.978L1917.63 -381.41L1917.89 -380.978Z" fill="#CECFCF"/>
<path fill-rule="evenodd" clip-rule="evenodd" d="M170.541 -601.807L1748.79 959.451L1748.44 959.807L170.189 -601.452L170.541 -601.807Z" fill="#CECFCF"/>
<path fill-rule="evenodd" clip-rule="evenodd" d="M1740.3 -609.949L179.038 968.3L178.683 967.948L1739.94 -610.301L1740.3 -609.949Z" fill="#CECFCF"/>
<path fill-rule="evenodd" clip-rule="evenodd" d="M666.643 -891.673L1252.82 1249.54L1252.34 1249.67L666.161 -891.541L666.643 -891.673Z" fill="#CECFCF"/>
<path fill-rule="evenodd" clip-rule="evenodd" d="M2030.16 -113.846L-111.052 472.328L-111.184 471.846L2030.03 -114.328L2030.16 -113.846Z" fill="#CECFCF"/>
<path fill-rule="evenodd" clip-rule="evenodd" d="M1241.21 -894.653L678.249 1252.78L677.765 1252.65L1240.73 -894.78L1241.21 -894.653Z" fill="#CECFCF"/>
<path fill-rule="evenodd" clip-rule="evenodd" d="M2033.14 460.724L-114.291 -102.242L-114.164 -102.725L2033.27 460.24L2033.14 460.724Z" fill="#CECFCF"/>
<path fill-rule="evenodd" clip-rule="evenodd" d="M951.942 1288.97L966.537 -930.978L967.037 -930.974L952.442 1288.98L951.942 1288.97Z" fill="#CECFCF"/>
<path fill-rule="evenodd" clip-rule="evenodd" d="M-150.485 171.452L2069.47 186.048L2069.46 186.548L-150.488 171.952L-150.485 171.452Z" fill="#CECFCF"/>
<path fill-rule="evenodd" clip-rule="evenodd" d="M397.966 1136.49L1520.58 -778.745L1521.01 -778.492L398.397 1136.74L397.966 1136.49Z" fill="#CECFCF"/>
<path fill-rule="evenodd" clip-rule="evenodd" d="M1.99678 -382.524L1917.23 740.092L1916.98 740.524L1.74394 -382.093L1.99678 -382.524Z" fill="#CECFCF"/>
<path fill-rule="evenodd" clip-rule="evenodd" d="M-5.55091 727.451L1924.28 -369.885L1924.53 -369.451L-5.30377 727.885L-5.55091 727.451Z" fill="#CECFCF"/>
<path fill-rule="evenodd" clip-rule="evenodd" d="M411.039 -786.04L1508.37 1143.79L1507.94 1144.04L410.604 -785.793L411.039 -786.04Z" fill="#CECFCF"/>
<path fill-rule="evenodd" clip-rule="evenodd" d="M169.282 958.533L1749.35 -600.889L1749.7 -600.534L169.633 958.889L169.282 958.533Z" fill="#CECFCF"/>
<path fill-rule="evenodd" clip-rule="evenodd" d="M179.956 -611.208L1739.38 968.856L1739.02 969.207L179.6 -610.857L179.956 -611.208Z" fill="#CECFCF"/>
<path fill-rule="evenodd" clip-rule="evenodd" d="M-114.617 458.992L2033.47 -101.476L2033.6 -100.992L-114.491 459.476L-114.617 458.992Z" fill="#CECFCF"/>
<path fill-rule="evenodd" clip-rule="evenodd" d="M679.497 -895.107L1239.96 1252.98L1239.48 1253.11L679.013 -894.981L679.497 -895.107Z" fill="#CECFCF"/>
<path fill-rule="evenodd" clip-rule="evenodd" d="M-110.71 -115.573L2029.82 473.091L2029.69 473.573L-110.843 -115.091L-110.71 -115.573Z" fill="#CECFCF"/>
<path fill-rule="evenodd" clip-rule="evenodd" d="M1254.06 -891.2L665.398 1249.33L664.916 1249.2L1253.58 -891.332L1254.06 -891.2Z" fill="#CECFCF"/>
<path fill-rule="evenodd" clip-rule="evenodd" d="M-145.604 74.7403L2064.63 282.762L2064.58 283.26L-145.65 75.2381L-145.604 74.7403Z" fill="#CECFCF"/>
<path fill-rule="evenodd" clip-rule="evenodd" d="M1063.75 -926.093L855.727 1284.14L855.229 1284.09L1063.25 -926.14L1063.75 -926.093Z" fill="#CECFCF"/>
<path fill-rule="evenodd" clip-rule="evenodd" d="M54.5806 -463.838L1864.69 821.43L1864.4 821.837L54.2911 -463.431L54.5806 -463.838Z" fill="#CECFCF"/>
<path fill-rule="evenodd" clip-rule="evenodd" d="M1602.33 -725.909L317.058 1084.2L316.651 1083.91L1601.92 -726.198L1602.33 -725.909Z" fill="#CECFCF"/>
<path fill-rule="evenodd" clip-rule="evenodd" d="M497.234 -830.168L1422.2 1187.96L1421.74 1188.17L496.779 -829.96L497.234 -830.168Z" fill="#CECFCF"/>
<path fill-rule="evenodd" clip-rule="evenodd" d="M1968.66 -283.255L-49.4709 641.709L-49.6793 641.254L1968.45 -283.71L1968.66 -283.255Z" fill="#CECFCF"/>
<path fill-rule="evenodd" clip-rule="evenodd" d="M251.793 -676.141L1667.57 1033.82L1667.18 1034.14L251.408 -675.822L251.793 -676.141Z" fill="#CECFCF"/>
<path fill-rule="evenodd" clip-rule="evenodd" d="M1814.63 -528.696L104.666 887.081L104.347 886.696L1814.31 -529.081L1814.63 -528.696Z" fill="#CECFCF"/>
<path fill-rule="evenodd" clip-rule="evenodd" d="M774.177 -915.422L1145.29 1273.34L1144.8 1273.42L773.684 -915.338L774.177 -915.422Z" fill="#CECFCF"/>
<path fill-rule="evenodd" clip-rule="evenodd" d="M2053.91 -6.31147L-134.85 364.805L-134.933 364.312L2053.83 -6.80443L2053.91 -6.31147Z" fill="#CECFCF"/>
<path fill-rule="evenodd" clip-rule="evenodd" d="M1346.22 -861.453L573.231 1219.63L572.763 1219.45L1345.75 -861.627L1346.22 -861.453Z" fill="#CECFCF"/>
<path fill-rule="evenodd" clip-rule="evenodd" d="M1999.94 565.726L-81.1389 -207.258L-80.9648 -207.727L2000.12 565.257L1999.94 565.726Z" fill="#CECFCF"/>
<path fill-rule="evenodd" clip-rule="evenodd" d="M-146.92 268.221L2065.86 89.2795L2065.9 89.7779L-146.88 268.72L-146.92 268.221Z" fill="#CECFCF"/>
<path fill-rule="evenodd" clip-rule="evenodd" d="M870.267 -927.409L1049.21 1285.37L1048.71 1285.41L869.769 -927.368L870.267 -927.409Z" fill="#CECFCF"/>
<path fill-rule="evenodd" clip-rule="evenodd" d="M-43.2995 -296.936L1962.49 654.484L1962.28 654.936L-43.5138 -296.484L-43.2995 -296.936Z" fill="#CECFCF"/>
<path fill-rule="evenodd" clip-rule="evenodd" d="M1435.42 -823.789L484.004 1182L483.552 1181.79L1434.97 -824.003L1435.42 -823.789Z" fill="#CECFCF"/>
<path fill-rule="evenodd" clip-rule="evenodd" d="M329.016 -734.567L1590.37 1092.28L1589.96 1092.57L328.605 -734.283L329.016 -734.567Z" fill="#CECFCF"/>
<path fill-rule="evenodd" clip-rule="evenodd" d="M1873.06 -451.473L46.2065 809.883L45.9225 809.472L1872.77 -451.884L1873.06 -451.473Z" fill="#CECFCF"/>
<path fill-rule="evenodd" clip-rule="evenodd" d="M114.052 -540.26L1805.25 897.879L1804.93 898.26L113.728 -539.879L114.052 -540.26Z" fill="#CECFCF"/>
<path fill-rule="evenodd" clip-rule="evenodd" d="M1678.75 -666.438L240.61 1024.76L240.229 1024.44L1678.37 -666.762L1678.75 -666.438Z" fill="#CECFCF"/>
<path fill-rule="evenodd" clip-rule="evenodd" d="M586.948 -866.616L1332.5 1224.45L1332.03 1224.62L586.477 -866.448L586.948 -866.616Z" fill="#CECFCF"/>
<path fill-rule="evenodd" clip-rule="evenodd" d="M2005.11 -193.541L-85.959 552.012L-86.1269 551.541L2004.94 -194.012L2005.11 -193.541Z" fill="#CECFCF"/>
<path fill-rule="evenodd" clip-rule="evenodd" d="M1159.67 -912.801L759.803 1270.89L759.312 1270.8L1159.18 -912.891L1159.67 -912.801Z" fill="#CECFCF"/>
<path fill-rule="evenodd" clip-rule="evenodd" d="M2051.29 379.178L-132.401 -20.6868L-132.311 -21.1786L2051.38 378.686L2051.29 379.178Z" fill="#CECFCF"/>
<path fill-rule="evenodd" clip-rule="evenodd" d="M932.571 1288.67L985.907 -930.686L986.407 -930.674L933.07 1288.69L932.571 1288.67Z" fill="#CECFCF"/>
<path fill-rule="evenodd" clip-rule="evenodd" d="M-150.184 152.081L2069.18 205.418L2069.16 205.918L-150.196 152.581L-150.184 152.081Z" fill="#CECFCF"/>
<path fill-rule="evenodd" clip-rule="evenodd" d="M381.341 1126.55L1537.21 -768.807L1537.64 -768.547L381.768 1126.81L381.341 1126.55Z" fill="#CECFCF"/>
<path fill-rule="evenodd" clip-rule="evenodd" d="M11.9426 -399.149L1907.3 756.722L1907.04 757.148L11.6823 -398.722L11.9426 -399.149Z" fill="#CECFCF"/>
<path fill-rule="evenodd" clip-rule="evenodd" d="M-14.9757 710.525L1933.71 -352.964L1933.95 -352.525L-14.7361 710.963L-14.9757 710.525Z" fill="#CECFCF"/>
<path fill-rule="evenodd" clip-rule="evenodd" d="M427.964 -795.465L1491.45 1153.22L1491.01 1153.46L427.526 -795.226L427.964 -795.465Z" fill="#CECFCF"/>
<path fill-rule="evenodd" clip-rule="evenodd" d="M155.798 944.623L1762.84 -586.986L1763.18 -586.624L156.143 944.985L155.798 944.623Z" fill="#CECFCF"/>
<path fill-rule="evenodd" clip-rule="evenodd" d="M193.866 -624.692L1725.47 982.347L1725.11 982.692L193.504 -624.347L193.866 -624.692Z" fill="#CECFCF"/>
<path fill-rule="evenodd" clip-rule="evenodd" d="M-119.34 440.204L2038.2 -82.6892L2038.32 -82.2033L-119.222 440.69L-119.34 440.204Z" fill="#CECFCF"/>
<path fill-rule="evenodd" clip-rule="evenodd" d="M698.286 -899.829L1221.18 1257.71L1220.69 1257.83L697.8 -899.712L698.286 -899.829Z" fill="#CECFCF"/>
<path fill-rule="evenodd" clip-rule="evenodd" d="M-105.406 -134.206L2024.53 491.725L2024.38 492.205L-105.547 -133.727L-105.406 -134.206Z" fill="#CECFCF"/>
<path fill-rule="evenodd" clip-rule="evenodd" d="M1272.7 -885.895L646.763 1244.04L646.283 1243.9L1272.22 -886.036L1272.7 -885.895Z" fill="#CECFCF"/>
<path fill-rule="evenodd" clip-rule="evenodd" d="M-143.616 55.4691L2062.65 302.033L2062.59 302.53L-143.671 55.966L-143.616 55.4691Z" fill="#CECFCF"/>
<path fill-rule="evenodd" clip-rule="evenodd" d="M1083.02 -924.105L836.456 1282.16L835.959 1282.1L1082.52 -924.161L1083.02 -924.105Z" fill="#CECFCF"/>
<path fill-rule="evenodd" clip-rule="evenodd" d="M65.9378 -479.533L1853.34 837.13L1853.04 837.532L65.6412 -479.131L65.9378 -479.533Z" fill="#CECFCF"/>
<path fill-rule="evenodd" clip-rule="evenodd" d="M1618.02 -714.552L301.359 1072.85L300.957 1072.55L1617.62 -714.848L1618.02 -714.552Z" fill="#CECFCF"/>
<path fill-rule="evenodd" clip-rule="evenodd" d="M514.917 -838.082L1404.52 1195.88L1404.06 1196.08L514.459 -837.882L514.917 -838.082Z" fill="#CECFCF"/>
<path fill-rule="evenodd" clip-rule="evenodd" d="M1976.57 -265.572L-57.3931 624.03L-57.5934 623.572L1976.37 -266.03L1976.57 -265.572Z" fill="#CECFCF"/>
<path fill-rule="evenodd" clip-rule="evenodd" d="M266.825 -688.362L1652.54 1046.05L1652.15 1046.36L266.435 -688.05L266.825 -688.362Z" fill="#CECFCF"/>
<path fill-rule="evenodd" clip-rule="evenodd" d="M1826.85 -513.664L92.4382 872.054L92.1261 871.664L1826.54 -514.054L1826.85 -513.664Z" fill="#CECFCF"/>
<path fill-rule="evenodd" clip-rule="evenodd" d="M793.305 -918.49L1126.17 1276.41L1125.67 1276.49L792.811 -918.415L793.305 -918.49Z" fill="#CECFCF"/>
<path fill-rule="evenodd" clip-rule="evenodd" d="M2056.98 12.8163L-137.925 345.677L-138 345.183L2056.9 12.3219L2056.98 12.8163Z" fill="#CECFCF"/>
<path fill-rule="evenodd" clip-rule="evenodd" d="M1364.32 -854.546L555.129 1212.73L554.664 1212.55L1363.85 -854.728L1364.32 -854.546Z" fill="#CECFCF"/>
<path fill-rule="evenodd" clip-rule="evenodd" d="M1993.03 583.826L-74.2385 -225.36L-74.0563 -225.826L1993.22 583.36L1993.03 583.826Z" fill="#CECFCF"/>
<path fill-rule="evenodd" clip-rule="evenodd" d="M-148.308 248.898L2067.25 108.602L2067.29 109.101L-148.276 249.397L-148.308 248.898Z" fill="#CECFCF"/>
<path fill-rule="evenodd" clip-rule="evenodd" d="M889.591 -928.797L1029.89 1286.76L1029.39 1286.8L889.092 -928.766L889.591 -928.797Z" fill="#CECFCF"/>
<path fill-rule="evenodd" clip-rule="evenodd" d="M-34.8406 -314.364L1954.04 671.917L1953.82 672.365L-35.0627 -313.916L-34.8406 -314.364Z" fill="#CECFCF"/>
<path fill-rule="evenodd" clip-rule="evenodd" d="M1452.85 -815.33L466.573 1173.55L466.125 1173.33L1452.41 -815.552L1452.85 -815.33Z" fill="#CECFCF"/>
<path fill-rule="evenodd" clip-rule="evenodd" d="M345.057 -745.431L1574.34 1103.15L1573.92 1103.43L344.64 -745.154L345.057 -745.431Z" fill="#CECFCF"/>
<path fill-rule="evenodd" clip-rule="evenodd" d="M1883.92 -435.433L35.3347 793.848L35.0579 793.432L1883.64 -435.849L1883.92 -435.433Z" fill="#CECFCF"/>
<path fill-rule="evenodd" clip-rule="evenodd" d="M126.733 -554.905L1792.58 912.53L1792.25 912.905L126.402 -554.53L126.733 -554.905Z" fill="#CECFCF"/>
<path fill-rule="evenodd" clip-rule="evenodd" d="M1693.39 -653.757L225.959 1012.09L225.584 1011.76L1693.02 -654.087L1693.39 -653.757Z" fill="#CECFCF"/>
<path fill-rule="evenodd" clip-rule="evenodd" d="M605.253 -872.959L1314.2 1230.8L1313.72 1230.96L604.78 -872.799L605.253 -872.959Z" fill="#CECFCF"/>
<path fill-rule="evenodd" clip-rule="evenodd" d="M2011.45 -175.235L-92.3098 533.71L-92.4695 533.236L2011.29 -175.709L2011.45 -175.235Z" fill="#CECFCF"/>
<path fill-rule="evenodd" clip-rule="evenodd" d="M1178.69 -909.141L740.777 1267.24L740.287 1267.14L1178.2 -909.239L1178.69 -909.141Z" fill="#CECFCF"/>
<path fill-rule="evenodd" clip-rule="evenodd" d="M2047.63 398.202L-128.75 -39.7119L-128.652 -40.2021L2047.73 397.712L2047.63 398.202Z" fill="#CECFCF"/>
<path fill-rule="evenodd" clip-rule="evenodd" d="M913.209 1288.03L1005.27 -930.056L1005.77 -930.035L913.709 1288.06L913.209 1288.03Z" fill="#CECFCF"/>
<path fill-rule="evenodd" clip-rule="evenodd" d="M-149.546 132.719L2068.54 224.781L2068.52 225.281L-149.567 133.219L-149.546 132.719Z" fill="#CECFCF"/>
<path fill-rule="evenodd" clip-rule="evenodd" d="M364.891 1116.31L1553.66 -758.58L1554.09 -758.312L365.313 1116.58L364.891 1116.31Z" fill="#CECFCF"/>
<path fill-rule="evenodd" clip-rule="evenodd" d="M22.177 -415.598L1897.07 773.175L1896.8 773.597L21.9092 -415.176L22.177 -415.598Z" fill="#CECFCF"/>
<path fill-rule="evenodd" clip-rule="evenodd" d="M-24.1041 693.437L1942.85 -335.88L1943.08 -335.437L-23.8722 693.88L-24.1041 693.437Z" fill="#CECFCF"/>
<path fill-rule="evenodd" clip-rule="evenodd" d="M445.052 -804.593L1474.37 1162.36L1473.93 1162.59L444.609 -804.361L445.052 -804.593Z" fill="#CECFCF"/>
<path fill-rule="evenodd" clip-rule="evenodd" d="M142.558 930.48L1776.08 -572.849L1776.42 -572.481L142.897 930.848L142.558 930.48Z" fill="#CECFCF"/>
<path fill-rule="evenodd" clip-rule="evenodd" d="M208.008 -637.932L1711.34 995.593L1710.97 995.931L207.64 -637.593L208.008 -637.932Z" fill="#CECFCF"/>
<path fill-rule="evenodd" clip-rule="evenodd" d="M-123.734 421.335L2042.6 -63.824L2042.71 -63.3361L-123.625 421.823L-123.734 421.335Z" fill="#CECFCF"/>
<path fill-rule="evenodd" clip-rule="evenodd" d="M717.153 -904.224L1202.31 1262.11L1201.82 1262.22L716.665 -904.115L717.153 -904.224Z" fill="#CECFCF"/>
<path fill-rule="evenodd" clip-rule="evenodd" d="M-99.7779 -152.744L2018.91 510.265L2018.76 510.742L-99.9272 -152.267L-99.7779 -152.744Z" fill="#CECFCF"/>
<path fill-rule="evenodd" clip-rule="evenodd" d="M1291.23 -880.267L628.223 1238.42L627.746 1238.27L1290.75 -880.416L1291.23 -880.267Z" fill="#CECFCF"/>
<path fill-rule="evenodd" clip-rule="evenodd" d="M-141.292 36.2359L2060.33 321.267L2060.27 321.762L-141.357 36.7318L-141.292 36.2359Z" fill="#CECFCF"/>
<path fill-rule="evenodd" clip-rule="evenodd" d="M1102.25 -921.782L817.222 1279.84L816.726 1279.78L1101.76 -921.846L1102.25 -921.782Z" fill="#CECFCF"/>
<path fill-rule="evenodd" clip-rule="evenodd" d="M77.5665 -495.027L1841.72 852.629L1841.41 853.027L77.263 -494.63L77.5665 -495.027Z" fill="#CECFCF"/>
<path fill-rule="evenodd" clip-rule="evenodd" d="M1633.52 -702.923L285.859 1061.23L285.462 1060.92L1633.12 -703.226L1633.52 -702.923Z" fill="#CECFCF"/>
<path fill-rule="evenodd" clip-rule="evenodd" d="M532.735 -845.686L1386.7 1203.49L1386.24 1203.69L532.274 -845.494L532.735 -845.686Z" fill="#CECFCF"/>
<path fill-rule="evenodd" clip-rule="evenodd" d="M1984.18 -247.754L-65.0044 606.215L-65.1967 605.753L1983.98 -248.216L1984.18 -247.754Z" fill="#CECFCF"/>
<path fill-rule="evenodd" clip-rule="evenodd" d="M282.068 -700.319L1637.31 1058.01L1636.91 1058.32L281.672 -700.013L282.068 -700.319Z" fill="#CECFCF"/>
<path fill-rule="evenodd" clip-rule="evenodd" d="M1838.81 -498.421L80.4758 856.816L80.1706 856.42L1838.5 -498.817L1838.81 -498.421Z" fill="#CECFCF"/>
<path fill-rule="evenodd" clip-rule="evenodd" d="M812.484 -921.223L1106.99 1279.16L1106.49 1279.22L811.988 -921.157L812.484 -921.223Z" fill="#CECFCF"/>
<path fill-rule="evenodd" clip-rule="evenodd" d="M2059.71 31.9958L-140.667 326.5L-140.733 326.004L2059.65 31.5002L2059.71 31.9958Z" fill="#CECFCF"/>
<path fill-rule="evenodd" clip-rule="evenodd" d="M1382.29 -847.323L537.15 1205.51L536.688 1205.32L1381.83 -847.513L1382.29 -847.323Z" fill="#CECFCF"/>
<path fill-rule="evenodd" clip-rule="evenodd" d="M1985.81 601.801L-67.0249 -243.34L-66.8346 -243.802L1986 601.339L1985.81 601.801Z" fill="#CECFCF"/>
<path fill-rule="evenodd" clip-rule="evenodd" d="M-149.359 229.553L2068.31 127.946L2068.34 128.445L-149.336 230.053L-149.359 229.553Z" fill="#CECFCF"/>
<path fill-rule="evenodd" clip-rule="evenodd" d="M908.935 -929.848L1010.54 1287.82L1010.04 1287.85L908.436 -929.825L908.935 -929.848Z" fill="#CECFCF"/>
<path fill-rule="evenodd" clip-rule="evenodd" d="M-26.0791 -331.643L1945.29 689.198L1945.06 689.642L-26.309 -331.199L-26.0791 -331.643Z" fill="#CECFCF"/>
<path fill-rule="evenodd" clip-rule="evenodd" d="M1470.13 -806.568L449.29 1164.8L448.846 1164.57L1469.69 -806.798L1470.13 -806.568Z" fill="#CECFCF"/>
<path fill-rule="evenodd" clip-rule="evenodd" d="M361.283 -756.014L1558.11 1113.74L1557.69 1114.01L360.862 -755.744L361.283 -756.014Z" fill="#CECFCF"/>
<path fill-rule="evenodd" clip-rule="evenodd" d="M1894.5 -419.205L24.7451 777.626L24.4756 777.205L1894.23 -419.627L1894.5 -419.205Z" fill="#CECFCF"/>
<path fill-rule="evenodd" clip-rule="evenodd" d="M139.668 -569.327L1779.65 926.957L1779.31 927.327L139.331 -568.958L139.668 -569.327Z" fill="#CECFCF"/>
<path fill-rule="evenodd" clip-rule="evenodd" d="M1707.82 -640.822L211.531 999.158L211.162 998.821L1707.45 -641.159L1707.82 -640.822Z" fill="#CECFCF"/>
<path fill-rule="evenodd" clip-rule="evenodd" d="M623.666 -878.981L1295.79 1236.83L1295.31 1236.98L623.19 -878.829L623.666 -878.981Z" fill="#CECFCF"/>
<path fill-rule="evenodd" clip-rule="evenodd" d="M2017.47 -156.823L-98.3403 515.299L-98.4917 514.822L2017.32 -157.299L2017.47 -156.823Z" fill="#CECFCF"/>
<path fill-rule="evenodd" clip-rule="evenodd" d="M1197.65 -905.149L721.817 1263.26L721.329 1263.15L1197.16 -905.257L1197.65 -905.149Z" fill="#CECFCF"/>
<path fill-rule="evenodd" clip-rule="evenodd" d="M2043.64 417.159L-124.767 -58.6714L-124.66 -59.1598L2043.75 416.671L2043.64 417.159Z" fill="#CECFCF"/>
<path fill-rule="evenodd" clip-rule="evenodd" d="M893.86 1287.06L1024.62 -929.088L1025.12 -929.058L894.359 1287.09L893.86 1287.06Z" fill="#CECFCF"/>
<path fill-rule="evenodd" clip-rule="evenodd" d="M-148.57 113.37L2067.58 244.129L2067.55 244.629L-148.599 113.87L-148.57 113.37Z" fill="#CECFCF"/>
<path fill-rule="evenodd" clip-rule="evenodd" d="M348.623 1105.79L1569.94 -748.067L1570.35 -747.792L349.041 1106.07L348.623 1105.79Z" fill="#CECFCF"/>
<path fill-rule="evenodd" clip-rule="evenodd" d="M32.6964 -431.866L1886.56 789.448L1886.28 789.865L32.4213 -431.448L32.6964 -431.866Z" fill="#CECFCF"/>
<path fill-rule="evenodd" clip-rule="evenodd" d="M-32.9321 676.192L1951.69 -318.64L1951.91 -318.193L-32.7081 676.639L-32.9321 676.192Z" fill="#CECFCF"/>
<path fill-rule="evenodd" clip-rule="evenodd" d="M462.297 -813.421L1457.13 1171.2L1456.68 1171.42L461.85 -813.197L462.297 -813.421Z" fill="#CECFCF"/>
<path fill-rule="evenodd" clip-rule="evenodd" d="M129.567 916.108L1789.08 -558.483L1789.41 -558.109L129.899 916.482L129.567 916.108Z" fill="#CECFCF"/>
<path fill-rule="evenodd" clip-rule="evenodd" d="M222.381 -650.923L1696.97 1008.59L1696.6 1008.92L222.007 -650.591L222.381 -650.923Z" fill="#CECFCF"/>
<path fill-rule="evenodd" clip-rule="evenodd" d="M-127.798 402.393L2046.68 -44.884L2046.78 -44.3943L-127.697 402.883L-127.798 402.393Z" fill="#CECFCF"/>
<path fill-rule="evenodd" clip-rule="evenodd" d="M736.096 -908.289L1183.37 1266.19L1182.88 1266.29L735.606 -908.188L736.096 -908.289Z" fill="#CECFCF"/>
<path fill-rule="evenodd" clip-rule="evenodd" d="M-93.8269 -171.18L2012.96 528.705L2012.81 529.179L-93.9845 -170.705L-93.8269 -171.18Z" fill="#CECFCF"/>
<path fill-rule="evenodd" clip-rule="evenodd" d="M1309.67 -874.316L609.785 1232.47L609.311 1232.32L1309.19 -874.474L1309.67 -874.316Z" fill="#CECFCF"/>
<path fill-rule="evenodd" clip-rule="evenodd" d="M-138.632 17.0463L2057.68 340.457L2057.61 340.952L-138.705 17.541L-138.632 17.0463Z" fill="#CECFCF"/>
<path fill-rule="evenodd" clip-rule="evenodd" d="M1121.44 -919.122L798.031 1277.19L797.536 1277.12L1120.95 -919.195L1121.44 -919.122Z" fill="#CECFCF"/>
<path fill-rule="evenodd" clip-rule="evenodd" d="M89.4638 -510.317L1829.82 867.923L1829.51 868.315L89.1533 -509.925L89.4638 -510.317Z" fill="#CECFCF"/>
<path fill-rule="evenodd" clip-rule="evenodd" d="M1648.81 -691.026L270.565 1049.33L270.173 1049.02L1648.41 -691.336L1648.81 -691.026Z" fill="#CECFCF"/>
<path fill-rule="evenodd" clip-rule="evenodd" d="M550.683 -852.978L1368.76 1210.79L1368.29 1210.98L550.218 -852.794L550.683 -852.978Z" fill="#CECFCF"/>
<path fill-rule="evenodd" clip-rule="evenodd" d="M1991.47 -229.806L-72.3044 588.27L-72.4887 587.805L1991.28 -230.271L1991.47 -229.806Z" fill="#CECFCF"/>
<path fill-rule="evenodd" clip-rule="evenodd" d="M297.518 -712.008L1621.86 1069.71L1621.46 1070.01L297.117 -711.709L297.518 -712.008Z" fill="#CECFCF"/>
<path fill-rule="evenodd" clip-rule="evenodd" d="M1850.5 -482.972L68.78 841.372L68.4818 840.971L1850.2 -483.373L1850.5 -482.972Z" fill="#CECFCF"/>
<path fill-rule="evenodd" clip-rule="evenodd" d="M831.709 -923.621L1087.77 1281.56L1087.27 1281.62L831.212 -923.563L831.709 -923.621Z" fill="#CECFCF"/>
<path fill-rule="evenodd" clip-rule="evenodd" d="M2062.11 51.2194L-143.074 307.277L-143.131 306.78L2062.05 50.7228L2062.11 51.2194Z" fill="#CECFCF"/>
<path fill-rule="evenodd" clip-rule="evenodd" d="M1400.14 -839.788L519.299 1197.99L518.84 1197.79L1399.68 -839.986L1400.14 -839.788Z" fill="#CECFCF"/>
<path fill-rule="evenodd" clip-rule="evenodd" d="M1978.28 619.649L-59.4966 -261.191L-59.2982 -261.65L1978.48 619.19L1978.28 619.649Z" fill="#CECFCF"/>
<path fill-rule="evenodd" clip-rule="evenodd" d="M-150.073 210.193L2069.04 147.305L2069.05 147.804L-150.059 210.693L-150.073 210.193Z" fill="#CECFCF"/>
<path fill-rule="evenodd" clip-rule="evenodd" d="M928.295 -930.562L991.184 1288.55L990.684 1288.56L927.795 -930.548L928.295 -930.562Z" fill="#CECFCF"/>
<path fill-rule="evenodd" clip-rule="evenodd" d="M-17.0169 -348.766L1936.23 706.325L1935.99 706.765L-17.2545 -348.326L-17.0169 -348.766Z" fill="#CECFCF"/>
<path fill-rule="evenodd" clip-rule="evenodd" d="M1487.25 -797.506L432.163 1155.74L431.723 1155.51L1486.81 -797.744L1487.25 -797.506Z" fill="#CECFCF"/>
<path fill-rule="evenodd" clip-rule="evenodd" d="M377.693 -766.312L1541.71 1124.05L1541.29 1124.31L377.268 -766.05L377.693 -766.312Z" fill="#CECFCF"/>
<path fill-rule="evenodd" clip-rule="evenodd" d="M1904.8 -402.796L14.4397 761.221L14.1775 760.795L1904.54 -403.222L1904.8 -402.796Z" fill="#CECFCF"/>
<path fill-rule="evenodd" clip-rule="evenodd" d="M152.853 -583.521L1766.47 941.157L1766.13 941.52L152.51 -583.158L152.853 -583.521Z" fill="#CECFCF"/>
<path fill-rule="evenodd" clip-rule="evenodd" d="M1722.01 -627.637L197.332 985.979L196.969 985.636L1721.65 -627.98L1722.01 -627.637Z" fill="#CECFCF"/>
<path fill-rule="evenodd" clip-rule="evenodd" d="M642.182 -884.681L1277.28 1242.54L1276.8 1242.68L641.703 -884.538L642.182 -884.681Z" fill="#CECFCF"/>
<path fill-rule="evenodd" clip-rule="evenodd" d="M2023.17 -138.307L-104.049 496.786L-104.192 496.307L2023.03 -138.786L2023.17 -138.307Z" fill="#CECFCF"/>
<path fill-rule="evenodd" clip-rule="evenodd" d="M1216.53 -900.828L702.932 1258.94L702.445 1258.83L1216.05 -900.944L1216.53 -900.828Z" fill="#CECFCF"/>
<path fill-rule="evenodd" clip-rule="evenodd" d="M2039.32 436.044L-120.454 -77.5581L-120.339 -78.0445L2039.43 435.558L2039.32 436.044Z" fill="#CECFCF"/>
<path fill-rule="evenodd" clip-rule="evenodd" d="M874.532 1285.74L1043.95 -927.783L1044.45 -927.745L875.031 1285.78L874.532 1285.74Z" fill="#CECFCF"/>
<path fill-rule="evenodd" clip-rule="evenodd" d="M-147.255 94.0422L2066.27 263.458L2066.23 263.957L-147.293 94.5407L-147.255 94.0422Z" fill="#CECFCF"/>
<path fill-rule="evenodd" clip-rule="evenodd" d="M332.543 1094.99L1586.02 -737.272L1586.44 -736.99L332.955 1095.27L332.543 1094.99Z" fill="#CECFCF"/>
<path fill-rule="evenodd" clip-rule="evenodd" d="M43.4993 -447.948L1875.76 805.534L1875.48 805.947L43.217 -447.535L43.4993 -447.948Z" fill="#CECFCF"/>
<path fill-rule="evenodd" clip-rule="evenodd" d="M-41.4579 658.796L1960.22 -301.248L1960.44 -300.797L-41.2416 659.247L-41.4579 658.796Z" fill="#CECFCF"/>
<path fill-rule="evenodd" clip-rule="evenodd" d="M479.693 -821.948L1439.74 1179.73L1439.29 1179.95L479.242 -821.731L479.693 -821.948Z" fill="#CECFCF"/>
<path fill-rule="evenodd" clip-rule="evenodd" d="M116.83 901.512L1801.82 -543.892L1802.15 -543.513L117.155 901.891L116.83 901.512Z" fill="#CECFCF"/>
<path fill-rule="evenodd" clip-rule="evenodd" d="M236.977 -663.661L1682.38 1021.33L1682 1021.66L236.598 -663.335L236.977 -663.661Z" fill="#CECFCF"/>
<path fill-rule="evenodd" clip-rule="evenodd" d="M-131.531 383.384L2050.42 -25.8755L2050.51 -25.3841L-131.439 383.875L-131.531 383.384Z" fill="#CECFCF"/>
<path fill-rule="evenodd" clip-rule="evenodd" d="M755.105 -912.022L1164.36 1269.93L1163.87 1270.02L754.614 -911.929L755.105 -912.022Z" fill="#CECFCF"/>
<path fill-rule="evenodd" clip-rule="evenodd" d="M-87.5549 -189.509L2006.7 547.037L2006.53 547.508L-87.7208 -189.038L-87.5549 -189.509Z" fill="#CECFCF"/>
<path fill-rule="evenodd" clip-rule="evenodd" d="M1328 -868.045L591.452 1226.21L590.98 1226.04L1327.53 -868.21L1328 -868.045Z" fill="#CECFCF"/>
<path fill-rule="evenodd" clip-rule="evenodd" d="M-135.639 -2.09356L2054.7 359.599L2054.62 360.092L-135.72 -1.60024L-135.639 -2.09356Z" fill="#CECFCF"/>
<path fill-rule="evenodd" clip-rule="evenodd" d="M1140.58 -916.129L778.889 1274.21L778.396 1274.13L1140.09 -916.21L1140.58 -916.129Z" fill="#CECFCF"/>
<path fill-rule="evenodd" clip-rule="evenodd" d="M101.627 -525.396L1817.67 883.008L1817.35 883.394L101.31 -525.009L101.627 -525.396Z" fill="#CECFCF"/>
<path fill-rule="evenodd" clip-rule="evenodd" d="M1663.88 -678.863L255.48 1037.18L255.094 1036.86L1663.5 -679.18L1663.88 -678.863Z" fill="#CECFCF"/>
<path fill-rule="evenodd" clip-rule="evenodd" d="M568.756 -859.956L1350.69 1217.78L1350.22 1217.95L568.288 -859.78L568.756 -859.956Z" fill="#CECFCF"/>
<path fill-rule="evenodd" clip-rule="evenodd" d="M1998.44 -211.734L-79.2898 570.2L-79.4659 569.732L1998.27 -212.202L1998.44 -211.734Z" fill="#CECFCF"/>
<path fill-rule="evenodd" clip-rule="evenodd" d="M313.169 -723.425L1606.22 1081.13L1605.81 1081.42L312.763 -723.134L313.169 -723.425Z" fill="#CECFCF"/>
<path fill-rule="evenodd" clip-rule="evenodd" d="M1861.91 -467.321L57.3555 825.726L57.0642 825.32L1861.62 -467.727L1861.91 -467.321Z" fill="#CECFCF"/>
<path fill-rule="evenodd" clip-rule="evenodd" d="M850.971 -925.683L1068.5 1283.63L1068.01 1283.68L850.473 -925.634L850.971 -925.683Z" fill="#CECFCF"/>
<path fill-rule="evenodd" clip-rule="evenodd" d="M2064.17 70.482L-145.145 288.014L-145.194 287.517L2064.12 69.9844L2064.17 70.482Z" fill="#CECFCF"/>
<path fill-rule="evenodd" clip-rule="evenodd" d="M1417.85 -831.942L501.582 1190.15L501.127 1189.94L1417.4 -832.149L1417.85 -831.942Z" fill="#CECFCF"/>
<path fill-rule="evenodd" clip-rule="evenodd" d="M1970.43 637.362L-51.6589 -278.908L-51.4526 -279.363L1970.64 636.906L1970.43 637.362Z" fill="#CECFCF"/>
<path fill-rule="evenodd" clip-rule="evenodd" d="M-150.448 190.824L2069.42 166.674L2069.43 167.174L-150.443 191.324L-150.448 190.824Z" fill="#CECFCF"/>
<path fill-rule="evenodd" clip-rule="evenodd" d="M947.664 -930.938L971.814 1288.93L971.314 1288.94L947.164 -930.932L947.664 -930.938Z" fill="#CECFCF"/>
<path fill-rule="evenodd" clip-rule="evenodd" d="M-7.6574 -365.728L1926.88 723.291L1926.64 723.727L-7.90267 -365.293L-7.6574 -365.728Z" fill="#CECFCF"/>
<path fill-rule="evenodd" clip-rule="evenodd" d="M1504.22 -788.147L415.197 1146.39L414.762 1146.15L1503.78 -788.392L1504.22 -788.147Z" fill="#CECFCF"/>
<path fill-rule="evenodd" clip-rule="evenodd" d="M394.28 -776.322L1525.13 1134.07L1524.7 1134.32L393.85 -776.067L394.28 -776.322Z" fill="#CECFCF"/>
<path fill-rule="evenodd" clip-rule="evenodd" d="M1914.81 -386.21L4.42334 744.639L4.16864 744.209L1914.56 -386.64L1914.81 -386.21Z" fill="#CECFCF"/>
<path fill-rule="evenodd" clip-rule="evenodd" d="M166.284 -597.483L1753.04 955.125L1752.7 955.482L165.934 -597.125L166.284 -597.483Z" fill="#CECFCF"/>
<path fill-rule="evenodd" clip-rule="evenodd" d="M1735.97 -614.206L183.364 972.554L183.007 972.205L1735.61 -614.556L1735.97 -614.206Z" fill="#CECFCF"/>
<path fill-rule="evenodd" clip-rule="evenodd" d="M660.794 -890.057L1258.67 1247.92L1258.18 1248.06L660.312 -889.922L660.794 -890.057Z" fill="#CECFCF"/>
<path fill-rule="evenodd" clip-rule="evenodd" d="M2028.55 -119.695L-109.432 478.176L-109.566 477.695L2028.41 -120.177L2028.55 -119.695Z" fill="#CECFCF"/>
<path fill-rule="evenodd" clip-rule="evenodd" d="M1235.34 -896.178L684.123 1254.3L683.639 1254.18L1234.86 -896.302L1235.34 -896.178Z" fill="#CECFCF"/>
<path fill-rule="evenodd" clip-rule="evenodd" d="M2034.67 454.85L-115.812 -96.3667L-115.688 -96.851L2034.79 454.366L2034.67 454.85Z" fill="#CECFCF"/>
</g>
<g opacity="0.7">
<path fill-rule="evenodd" clip-rule="evenodd" d="M-15.4812 334.92C-29.7207 326.493 -46.2848 323.877 -62.2674 326.783C-93.9421 330.851 -116.898 296.271 -100.625 268.664C-84.9332 240.767 -43.3787 243.674 -31.1734 273.024C-2.40481 347.415 103.953 347.415 133.012 273.024C144.926 243.674 186.772 240.767 202.464 268.664C218.446 296.271 195.489 330.851 164.105 326.783C148.123 323.877 131.559 326.783 117.319 334.92C102.79 343.056 92.329 355.842 86.807 371.244C74.021 402.919 27.8173 402.919 15.0304 371.244C9.50928 356.133 -1.24252 343.056 -15.4812 334.92ZM50.7735 294.818C19.0988 294.818 0.500485 257.912 19.9707 232.34C30.4322 220.135 36.2436 204.444 36.2436 187.879C36.2436 171.607 30.4322 155.914 19.9708 143.419C0.210138 117.847 19.0988 80.6499 50.7735 80.9412C82.4482 80.9412 101.047 117.847 81.5763 143.419C71.1148 155.623 65.3034 171.315 65.3034 187.879C65.3034 204.152 71.1148 219.844 81.5763 232.34C101.337 257.912 82.4482 295.108 50.7735 294.818Z" fill="url(#paint1_linear_11805_92046)"/>
<path fill-rule="evenodd" clip-rule="evenodd" d="M342.503 141.02C356.743 149.447 373.307 152.062 389.289 149.156C420.964 145.088 443.92 179.668 427.647 207.275C411.955 235.172 370.401 232.266 358.195 202.916C329.427 128.524 223.069 128.524 194.01 202.916C182.096 232.266 140.25 235.172 124.558 207.275C108.576 179.668 131.533 145.088 162.917 149.156C178.899 152.062 195.463 149.156 209.703 141.02C224.232 132.883 234.693 120.097 240.215 104.695C253.001 73.0208 299.205 73.0208 311.992 104.695C317.513 119.806 328.264 132.883 342.503 141.02ZM276.248 181.122C307.923 181.122 326.521 218.027 307.051 243.599C296.59 255.805 290.778 271.496 290.778 288.06C290.778 304.333 296.59 320.025 307.051 332.521C326.812 358.093 307.923 395.289 276.248 394.998C244.574 394.998 225.975 358.093 245.446 332.521C255.907 320.316 261.719 304.624 261.719 288.06C261.719 271.787 255.907 256.095 245.446 243.599C225.685 218.027 244.574 180.831 276.248 181.122Z" fill="url(#paint2_linear_11805_92046)"/>
<path fill-rule="evenodd" clip-rule="evenodd" d="M435.192 334.92C420.952 326.493 404.388 323.877 388.405 326.783C356.731 330.851 333.775 296.271 350.047 268.664C365.74 240.767 407.294 243.674 419.499 273.024C448.268 347.415 554.626 347.415 583.685 273.024C595.599 243.674 637.444 240.767 653.137 268.664C669.119 296.271 646.162 330.851 614.778 326.783C598.795 323.877 582.232 326.783 567.992 334.92C553.463 343.056 543.002 355.842 537.48 371.244C524.694 402.919 478.49 402.919 465.703 371.244C460.182 356.133 449.43 343.056 435.192 334.92ZM501.446 294.818C469.772 294.818 451.173 257.912 470.644 232.34C481.105 220.135 486.916 204.444 486.916 187.879C486.916 171.607 481.105 155.914 470.644 143.419C450.883 117.847 469.772 80.6499 501.446 80.9412C533.121 80.9412 551.719 117.847 532.249 143.419C521.788 155.623 515.976 171.315 515.976 187.879C515.976 204.152 521.788 219.844 532.249 232.34C552.01 257.912 533.121 295.108 501.446 294.818Z" fill="url(#paint3_linear_11805_92046)"/>
<path fill-rule="evenodd" clip-rule="evenodd" d="M793.176 141.02C807.416 149.447 823.98 152.062 839.962 149.156C871.637 145.088 894.593 179.668 878.32 207.275C862.628 235.172 821.074 232.266 808.868 202.916C780.1 128.524 673.742 128.524 644.683 202.916C632.769 232.266 590.923 235.172 575.231 207.275C559.249 179.668 582.205 145.088 613.589 149.156C629.572 152.062 646.136 149.156 660.375 141.02C674.904 132.883 685.366 120.097 690.888 104.695C703.674 73.0208 749.878 73.0208 762.664 104.695C768.186 119.806 778.937 132.883 793.176 141.02ZM726.921 181.122C758.596 181.122 777.194 218.027 757.724 243.599C747.263 255.805 741.451 271.496 741.451 288.06C741.451 304.333 747.263 320.025 757.724 332.521C777.485 358.093 758.596 395.289 726.921 394.998C695.247 394.998 676.648 358.093 696.119 332.521C706.58 320.316 712.391 304.624 712.391 288.06C712.391 271.787 706.58 256.095 696.119 243.599C676.358 218.027 695.247 180.831 726.921 181.122Z" fill="url(#paint4_linear_11805_92046)"/>
</g>
<g opacity="0.6">
<path fill-rule="evenodd" clip-rule="evenodd" d="M1680.83 141.02C1666.59 149.447 1650.03 152.062 1634.05 149.156C1602.37 145.088 1579.42 179.668 1595.69 207.275C1611.38 235.172 1652.94 232.266 1665.14 202.916C1693.91 128.524 1800.27 128.524 1829.33 202.916C1841.24 232.266 1883.09 235.172 1898.78 207.275C1914.76 179.668 1891.8 145.088 1860.42 149.156C1844.44 152.062 1827.87 149.156 1813.63 141.02C1799.1 132.883 1788.64 120.097 1783.12 104.695C1770.34 73.0208 1724.13 73.0208 1711.34 104.695C1705.82 119.806 1695.07 132.883 1680.83 141.02ZM1747.09 181.122C1715.41 181.122 1696.81 218.027 1716.29 243.599C1726.75 255.805 1732.56 271.496 1732.56 288.06C1732.56 304.333 1726.75 320.025 1716.29 332.521C1696.52 358.093 1715.41 395.289 1747.09 394.998C1778.76 394.998 1797.36 358.093 1777.89 332.521C1767.43 320.316 1761.62 304.624 1761.62 288.06C1761.62 271.787 1767.43 256.095 1777.89 243.599C1797.65 218.027 1778.76 180.831 1747.09 181.122Z" fill="url(#paint5_linear_11805_92046)"/>
<path fill-rule="evenodd" clip-rule="evenodd" d="M1588.14 334.92C1602.38 326.493 1618.95 323.877 1634.93 326.783C1666.61 330.851 1689.56 296.271 1673.29 268.664C1657.6 240.767 1616.04 243.674 1603.84 273.024C1575.07 347.415 1468.71 347.415 1439.65 273.024C1427.74 243.674 1385.89 240.767 1370.2 268.664C1354.22 296.271 1377.17 330.851 1408.56 326.783C1424.54 323.877 1441.1 326.783 1455.34 334.92C1469.87 343.056 1480.33 355.842 1485.86 371.244C1498.64 402.919 1544.85 402.919 1557.63 371.244C1563.15 356.133 1573.91 343.056 1588.14 334.92ZM1521.89 294.818C1553.56 294.818 1572.16 257.912 1552.69 232.34C1542.23 220.135 1536.42 204.444 1536.42 187.879C1536.42 171.607 1542.23 155.914 1552.69 143.419C1572.45 117.847 1553.56 80.6499 1521.89 80.9412C1490.22 80.9412 1471.62 117.847 1491.09 143.419C1501.55 155.623 1507.36 171.315 1507.36 187.879C1507.36 204.152 1501.55 219.844 1491.09 232.34C1471.33 257.912 1490.22 295.108 1521.89 294.818Z" fill="url(#paint6_linear_11805_92046)"/>
<path fill-rule="evenodd" clip-rule="evenodd" d="M1230.16 141.02C1215.92 149.447 1199.36 152.062 1183.37 149.156C1151.7 145.088 1128.74 179.668 1145.02 207.275C1160.71 235.172 1202.26 232.266 1214.47 202.916C1243.24 128.524 1349.59 128.524 1378.65 202.916C1390.57 232.266 1432.41 235.172 1448.11 207.275C1464.09 179.668 1441.13 145.088 1409.75 149.156C1393.76 152.062 1377.2 149.156 1362.96 141.02C1348.43 132.883 1337.97 120.097 1332.45 104.695C1319.66 73.0208 1273.46 73.0208 1260.67 104.695C1255.15 119.806 1244.4 132.883 1230.16 141.02ZM1296.42 181.122C1264.74 181.122 1246.14 218.027 1265.61 243.599C1276.07 255.805 1281.89 271.496 1281.89 288.06C1281.89 304.333 1276.07 320.025 1265.61 332.521C1245.85 358.093 1264.74 395.289 1296.42 394.998C1328.09 394.998 1346.69 358.093 1327.22 332.521C1316.76 320.316 1310.95 304.624 1310.95 288.06C1310.95 271.787 1316.76 256.095 1327.22 243.599C1346.98 218.027 1328.09 180.831 1296.42 181.122Z" fill="url(#paint7_linear_11805_92046)"/>
</g>
<g opacity="0.6">
<path fill-rule="evenodd" clip-rule="evenodd" d="M442.167 653.92C456.406 645.493 472.97 642.877 488.953 645.783C520.628 649.851 543.584 615.271 527.311 587.664C511.619 559.767 470.064 562.674 457.859 592.024C429.09 666.415 322.733 666.415 293.674 592.024C281.759 562.674 239.914 559.767 224.222 587.664C208.239 615.271 231.196 649.851 262.58 645.783C278.563 642.877 295.127 645.783 309.366 653.92C323.895 662.056 334.357 674.842 339.879 690.244C352.665 721.919 398.868 721.919 411.655 690.244C417.176 675.133 427.928 662.056 442.167 653.92ZM375.912 613.818C407.587 613.818 426.185 576.912 406.715 551.34C396.253 539.135 390.442 523.444 390.442 506.879C390.442 490.607 396.253 474.914 406.715 462.419C426.475 436.847 407.587 399.65 375.912 399.941C344.237 399.941 325.639 436.847 345.109 462.419C355.571 474.623 361.382 490.315 361.382 506.879C361.382 523.152 355.571 538.844 345.109 551.34C325.349 576.912 344.237 614.108 375.912 613.818Z" fill="url(#paint8_linear_11805_92046)"/>
<path fill-rule="evenodd" clip-rule="evenodd" d="M667.503 460.02C681.743 468.447 698.307 471.062 714.289 468.156C745.964 464.088 768.92 498.668 752.647 526.275C736.955 554.172 695.401 551.266 683.195 521.916C654.427 447.524 548.069 447.524 519.01 521.916C507.096 551.266 465.25 554.172 449.558 526.275C433.576 498.668 456.533 464.088 487.917 468.156C503.899 471.062 520.463 468.156 534.703 460.02C549.232 451.883 559.693 439.097 565.215 423.695C578.001 392.021 624.205 392.021 636.992 423.695C642.513 438.806 653.264 451.883 667.503 460.02ZM601.248 500.122C632.923 500.122 651.521 537.027 632.051 562.599C621.59 574.805 615.778 590.496 615.778 607.06C615.778 623.333 621.59 639.025 632.051 651.521C651.812 677.093 632.923 714.289 601.248 713.998C569.574 713.998 550.975 677.093 570.446 651.521C580.907 639.316 586.719 623.624 586.719 607.06C586.719 590.787 580.907 575.095 570.446 562.599C550.685 537.027 569.574 499.831 601.248 500.122Z" fill="url(#paint9_linear_11805_92046)"/>
</g>
<g opacity="0.6">
<path fill-rule="evenodd" clip-rule="evenodd" d="M1436.84 658.212C1422.6 649.785 1406.03 647.169 1390.05 650.075C1358.38 654.144 1335.42 619.563 1351.69 591.956C1367.38 564.059 1408.94 566.965 1421.14 596.316C1449.91 670.707 1556.27 670.707 1585.33 596.316C1597.24 566.965 1639.09 564.059 1654.78 591.956C1670.76 619.563 1647.81 654.144 1616.42 650.075C1600.44 647.169 1583.88 650.075 1569.64 658.212C1555.11 666.349 1544.65 679.135 1539.13 694.536C1526.34 726.211 1480.14 726.211 1467.35 694.536C1461.83 679.425 1451.08 666.349 1436.84 658.212ZM1503.09 618.11C1471.42 618.11 1452.82 581.204 1472.29 555.632C1482.75 543.427 1488.56 527.735 1488.56 511.171C1488.56 494.898 1482.75 479.206 1472.29 466.71C1452.53 441.138 1471.42 403.941 1503.09 404.233C1534.77 404.233 1553.36 441.138 1533.89 466.71C1523.43 478.915 1517.62 494.607 1517.62 511.171C1517.62 527.444 1523.43 543.136 1533.89 555.632C1553.66 581.204 1534.77 618.4 1503.09 618.11Z" fill="url(#paint10_linear_11805_92046)"/>
<path fill-rule="evenodd" clip-rule="evenodd" d="M1344.15 464.311C1358.39 472.739 1374.95 475.354 1390.93 472.448C1422.61 468.38 1445.57 502.96 1429.29 530.567C1413.6 558.464 1372.05 555.558 1359.84 526.208C1331.07 451.816 1224.71 451.816 1195.65 526.208C1183.74 555.558 1141.89 558.464 1126.2 530.567C1110.22 502.96 1133.18 468.38 1164.56 472.448C1180.54 475.354 1197.11 472.448 1211.35 464.311C1225.88 456.175 1236.34 443.389 1241.86 427.987C1254.65 396.312 1300.85 396.312 1313.64 427.987C1319.16 443.098 1329.91 456.175 1344.15 464.311ZM1277.89 504.414C1309.57 504.414 1328.17 541.319 1308.7 566.891C1298.23 579.097 1292.42 594.788 1292.42 611.352C1292.42 627.625 1298.23 643.317 1308.7 655.813C1328.46 681.385 1309.57 718.582 1277.89 718.29C1246.22 718.29 1227.62 681.385 1247.09 655.813C1257.55 643.608 1263.36 627.916 1263.36 611.352C1263.36 595.079 1257.55 579.387 1247.09 566.891C1227.33 541.319 1246.22 504.123 1277.89 504.414Z" fill="url(#paint11_linear_11805_92046)"/>
<path fill-rule="evenodd" clip-rule="evenodd" d="M986.163 658.212C971.923 649.785 955.359 647.169 939.376 650.075C907.702 654.144 884.745 619.563 901.018 591.956C916.71 564.059 958.265 566.965 970.47 596.316C999.239 670.707 1105.6 670.707 1134.66 596.316C1146.57 566.965 1188.42 564.059 1204.11 591.956C1220.09 619.563 1197.13 654.144 1165.75 650.075C1149.77 647.169 1133.2 650.075 1118.96 658.212C1104.43 666.349 1093.97 679.135 1088.45 694.536C1075.66 726.211 1029.46 726.211 1016.67 694.536C1011.15 679.425 1000.4 666.349 986.163 658.212ZM1052.42 618.11C1020.74 618.11 1002.14 581.204 1021.61 555.632C1032.08 543.427 1037.89 527.735 1037.89 511.171C1037.89 494.898 1032.08 479.206 1021.61 466.71C1001.85 441.138 1020.74 403.941 1052.42 404.233C1084.09 404.233 1102.69 441.138 1083.22 466.71C1072.76 478.915 1066.95 494.607 1066.95 511.171C1066.95 527.444 1072.76 543.136 1083.22 555.632C1102.98 581.204 1084.09 618.4 1052.42 618.11Z" fill="url(#paint12_linear_11805_92046)"/>
</g>
<defs>
<radialGradient id="paint0_radial_11805_92046" cx="0" cy="0" r="1" gradientUnits="userSpaceOnUse" gradientTransform="translate(910.311 -665.24) rotate(90.3745) scale(1880.72)">
<stop offset="0.473494" stop-color="#CECFCF" stop-opacity="0"/>
<stop offset="1" stop-color="#CECFCF"/>
</radialGradient>
<linearGradient id="paint1_linear_11805_92046" x1="-117.937" y1="228.507" x2="238.69" y2="297.146" gradientUnits="userSpaceOnUse">
<stop stop-color="#EBECEC" stop-opacity="0"/>
<stop offset="1" stop-color="#EBECEC"/>
</linearGradient>
<linearGradient id="paint2_linear_11805_92046" x1="276.179" y1="80.9395" x2="276.179" y2="395" gradientUnits="userSpaceOnUse">
<stop stop-color="#EBECEC"/>
<stop offset="1" stop-color="#EBECEC"/>
</linearGradient>
<linearGradient id="paint3_linear_11805_92046" x1="501.516" y1="395" x2="501.516" y2="80.9395" gradientUnits="userSpaceOnUse">
<stop stop-color="#EBECEC"/>
<stop offset="1" stop-color="#EBECEC"/>
</linearGradient>
<linearGradient id="paint4_linear_11805_92046" x1="895.632" y1="247.433" x2="539.005" y2="178.793" gradientUnits="userSpaceOnUse">
<stop stop-color="#EBECEC" stop-opacity="0"/>
<stop offset="1" stop-color="#EBECEC"/>
</linearGradient>
<linearGradient id="paint5_linear_11805_92046" x1="1747.16" y1="80.9395" x2="1747.16" y2="395" gradientUnits="userSpaceOnUse">
<stop stop-color="#EBECEC"/>
<stop offset="1" stop-color="#EBECEC"/>
</linearGradient>
<linearGradient id="paint6_linear_11805_92046" x1="1521.82" y1="395" x2="1521.82" y2="80.9395" gradientUnits="userSpaceOnUse">
<stop stop-color="#EBECEC"/>
<stop offset="1" stop-color="#EBECEC"/>
</linearGradient>
<linearGradient id="paint7_linear_11805_92046" x1="1127.7" y1="247.433" x2="1484.33" y2="178.793" gradientUnits="userSpaceOnUse">
<stop stop-color="#EBECEC" stop-opacity="0"/>
<stop offset="1" stop-color="#EBECEC"/>
</linearGradient>
<linearGradient id="paint8_linear_11805_92046" x1="375.843" y1="714" x2="375.843" y2="399.939" gradientUnits="userSpaceOnUse">
<stop stop-color="#EBECEC"/>
<stop offset="1" stop-color="#EBECEC"/>
</linearGradient>
<linearGradient id="paint9_linear_11805_92046" x1="769.959" y1="566.433" x2="413.332" y2="497.793" gradientUnits="userSpaceOnUse">
<stop stop-color="#EBECEC" stop-opacity="0"/>
<stop offset="1" stop-color="#EBECEC"/>
</linearGradient>
<linearGradient id="paint10_linear_11805_92046" x1="1503.16" y1="718.292" x2="1503.16" y2="404.231" gradientUnits="userSpaceOnUse">
<stop stop-color="#EBECEC"/>
<stop offset="1" stop-color="#EBECEC"/>
</linearGradient>
<linearGradient id="paint11_linear_11805_92046" x1="1277.82" y1="404.231" x2="1277.82" y2="718.292" gradientUnits="userSpaceOnUse">
<stop stop-color="#EBECEC"/>
<stop offset="1" stop-color="#EBECEC"/>
</linearGradient>
<linearGradient id="paint12_linear_11805_92046" x1="883.706" y1="551.798" x2="1240.33" y2="620.438" gradientUnits="userSpaceOnUse">
<stop stop-color="#EBECEC" stop-opacity="0"/>
<stop offset="1" stop-color="#EBECEC"/>
</linearGradient>
</defs>
</svg>
