<svg width="60" height="63" viewBox="0 0 60 63" fill="none" xmlns="http://www.w3.org/2000/svg">
<g filter="url(#filter0_f_8571_112644)">
<rect x="12.4648" y="12" width="35.0703" height="39" rx="8" fill="#CECECE" fill-opacity="0.6"/>
</g>
<path d="M27.4541 8.40039H32.5459C35.607 8.40039 37.8788 8.40089 39.6777 8.54785C41.4719 8.69444 42.7605 8.98507 43.8613 9.5459C45.8386 10.5534 47.4466 12.1614 48.4541 14.1387C49.0149 15.2395 49.3056 16.5281 49.4521 18.3223C49.5991 20.1212 49.5996 22.393 49.5996 25.4541V30.5459C49.5996 33.607 49.5991 35.8788 49.4521 37.6777C49.3056 39.4719 49.0149 40.7605 48.4541 41.8613C47.4466 43.8386 45.8386 45.4466 43.8613 46.4541C42.7605 47.0149 41.4719 47.3056 39.6777 47.4521C37.8788 47.5991 35.607 47.5996 32.5459 47.5996H27.4541C24.393 47.5996 22.1212 47.5991 20.3223 47.4521C18.5281 47.3056 17.2395 47.0149 16.1387 46.4541C14.1614 45.4466 12.5534 43.8386 11.5459 41.8613C10.9851 40.7605 10.6944 39.4719 10.5479 37.6777C10.4009 35.8788 10.4004 33.607 10.4004 30.5459V25.4541C10.4004 22.393 10.4009 20.1212 10.5479 18.3223C10.6944 16.5281 10.9851 15.2395 11.5459 14.1387C12.5534 12.1614 14.1614 10.5534 16.1387 9.5459C17.2395 8.98507 18.5281 8.69444 20.3223 8.54785C22.1212 8.40089 24.393 8.40039 27.4541 8.40039Z" fill="#FEFEFE" stroke="#EBECEC" stroke-width="0.801477"/>
<path d="M27.5887 19.0138L30.005 17.6187L33.723 19.7653V22.5949L35.6126 23.6973V18.9102C35.6126 18.7643 35.5347 18.6294 35.4083 18.5564L30.2093 15.5547C30.0829 15.4818 29.9271 15.4818 29.8007 15.5547L25.7089 17.9171L27.5887 19.0138Z" fill="#6C6E6F"/>
<path d="M24.9169 18.6118L29.0371 20.9906L27.1573 22.0872L24.7126 20.6757L20.9946 22.8223V25.6825L19.105 26.7849V21.9672C19.105 21.8213 19.1829 21.6864 19.3093 21.6134L24.5083 18.6118C24.6347 18.5388 24.7905 18.5388 24.9169 18.6118Z" fill="#6C6E6F"/>
<path d="M23.5111 25.2417L19.3093 27.6676C19.1829 27.7406 19.105 27.8755 19.105 28.0214V34.0248C19.105 34.1707 19.1829 34.3056 19.3093 34.3786L23.511 36.8045V34.6226L20.9946 33.1697V28.8765L23.5111 27.4236V25.2417Z" fill="#6C6E6F"/>
<path d="M24.3974 37.0898V32.3086L26.287 33.411V36.2347L30.005 38.3813L32.4186 36.9878L34.2984 38.0844L30.2093 40.4453C30.0829 40.5182 29.9271 40.5182 29.8007 40.4453L24.6017 37.4436C24.4753 37.3706 24.3974 37.2357 24.3974 37.0898Z" fill="#6C6E6F"/>
<path d="M30.9637 35.0208L35.0753 37.3946C35.2017 37.4676 35.3574 37.4676 35.4839 37.3946L40.6829 34.393C40.8093 34.32 40.8872 34.1851 40.8872 34.0391V29.2318L38.9976 30.3342V33.1841L35.2796 35.3307L32.8434 33.9242L30.9637 35.0208Z" fill="#6C6E6F"/>
<path d="M40.6903 28.3116L36.499 30.7315V28.5496L39.005 27.1028V22.8096L36.499 21.3627V19.1808L40.6903 21.6007C40.8167 21.6736 40.8946 21.8085 40.8946 21.9545V27.9578C40.8946 28.1038 40.8167 28.2387 40.6903 28.3116Z" fill="#6C6E6F"/>
<path fill-rule="evenodd" clip-rule="evenodd" d="M30.211 34.0844C30.0838 34.1586 29.9265 34.1586 29.7993 34.0844L24.8929 31.2221C24.7674 31.1488 24.6902 31.0145 24.6902 30.8692V25.1371C24.6902 24.9918 24.7674 24.8574 24.8929 24.7842L29.7993 21.9218C29.9265 21.8476 30.0838 21.8476 30.211 21.9218L35.1174 24.7842C35.2429 24.8574 35.3201 24.9918 35.3201 25.1371V30.8692C35.3201 31.0145 35.2429 31.1488 35.1174 31.2221L30.211 34.0844ZM34.0944 30.3999L30.618 32.428V28.3551L34.0944 26.327V30.3999ZM33.4958 25.2572L30.0051 27.2936L26.5144 25.2572L30.0051 23.2207L33.4958 25.2572ZM25.9159 30.3999V26.327L29.3923 28.3551V32.428L25.9159 30.3999Z" fill="#6C6E6F"/>
<defs>
<filter id="filter0_f_8571_112644" x="0.464844" y="0" width="59.0703" height="63" filterUnits="userSpaceOnUse" color-interpolation-filters="sRGB">
<feFlood flood-opacity="0" result="BackgroundImageFix"/>
<feBlend mode="normal" in="SourceGraphic" in2="BackgroundImageFix" result="shape"/>
<feGaussianBlur stdDeviation="6" result="effect1_foregroundBlur_8571_112644"/>
</filter>
</defs>
</svg>
