<svg width="32" height="33" viewBox="0 0 32 33" fill="none" xmlns="http://www.w3.org/2000/svg">
<path d="M20.7076 25.4889C20.8005 25.5818 20.8742 25.6921 20.9244 25.8135C20.9747 25.9349 21.0006 26.065 21.0006 26.1964C21.0006 26.3278 20.9747 26.4579 20.9244 26.5793C20.8742 26.7006 20.8005 26.8109 20.7076 26.9039C20.6146 26.9968 20.5043 27.0705 20.383 27.1208C20.2616 27.171 20.1314 27.1969 20.0001 27.1969C19.8687 27.1969 19.7386 27.171 19.6172 27.1208C19.4958 27.0705 19.3855 26.9968 19.2926 26.9039L9.29255 16.9039C9.19958 16.811 9.12582 16.7007 9.07549 16.5793C9.02517 16.4579 8.99927 16.3278 8.99927 16.1964C8.99927 16.0649 9.02517 15.9348 9.07549 15.8134C9.12582 15.692 9.19958 15.5817 9.29255 15.4889L19.2926 5.48886C19.4802 5.30122 19.7347 5.1958 20.0001 5.1958C20.2654 5.1958 20.5199 5.30122 20.7076 5.48886C20.8952 5.6765 21.0006 5.93099 21.0006 6.19636C21.0006 6.46172 20.8952 6.71622 20.7076 6.90386L11.4138 16.1964L20.7076 25.4889Z" fill="#343330"/>
</svg>
