<svg width="122" height="28" viewBox="0 0 122 28" fill="none" xmlns="http://www.w3.org/2000/svg">
<g clip-path="url(#clip0_7505_6965)">
<path fill-rule="evenodd" clip-rule="evenodd" d="M33.9844 9.27344H37.7862V13.2037H42.4871V16.4404H37.7862V21.912C37.7862 22.811 37.9146 23.3248 38.2486 23.7102C38.5569 24.0955 39.2247 24.4295 40.1753 24.4295C40.7146 24.4295 41.2284 24.378 41.7422 24.2753L42.333 27.512C41.5623 27.6918 40.7661 27.7946 39.9697 27.7946C37.6835 27.7946 36.0138 27.0239 35.0376 25.7395C34.3184 24.7633 33.9844 23.5047 33.9844 21.4753V9.27344ZM63.2945 9.27344H59.4927V21.4753C59.4927 23.5047 59.8266 24.7633 60.5459 25.7395C61.522 27.0239 63.1917 27.7946 65.478 27.7946C66.2743 27.7946 67.0707 27.6918 67.8669 27.512L67.2761 24.2753C66.7624 24.378 66.2486 24.4295 65.7349 24.4295C64.7844 24.4295 64.1165 24.0955 63.8083 23.7102C63.4743 23.3248 63.3459 22.811 63.3459 21.912V16.4404H68.0468V13.2037H63.3459V9.27344H63.2945ZM50.6816 12.9211C46.4688 12.9211 43.7715 16.389 43.7715 20.345C43.7715 24.8148 46.9825 27.7432 51.221 27.7432C52.3256 27.7688 53.4046 27.5377 54.4064 27.101C55.4082 26.6642 56.3073 26.0221 57.0523 25.2001L54.8945 23.0423C54.4321 23.5303 53.8926 23.9413 53.2761 24.2239C52.6596 24.5064 51.9917 24.6606 51.3238 24.6863C50.3733 24.7119 49.4485 24.378 48.7293 23.7615C48.01 23.145 47.5733 22.2459 47.4706 21.2955H57.3348C57.3862 20.9358 57.4119 20.5762 57.4119 20.2165C57.4119 16.2349 54.6119 12.9211 50.6816 12.9211ZM47.6247 18.5211C47.7531 17.8276 48.1385 17.1854 48.7036 16.723C49.2687 16.2606 49.9623 16.0294 50.6816 16.0294C51.3752 16.0294 52.0431 16.2863 52.5569 16.7487C53.0706 17.211 53.4046 17.8533 53.4816 18.5211H47.6247ZM74.2119 14.6679V13.2294H70.5385V27.4606H74.3403V18.4955C74.7 17.9047 75.2137 17.3909 75.8046 17.0312C76.421 16.6716 77.0889 16.4661 77.7825 16.4404C78.2449 16.4404 78.7069 16.4661 79.1697 16.5946L79.606 13.0496C79.1954 12.9725 78.759 12.9468 78.3476 12.9468C76.6265 12.9211 75.0596 13.6148 74.2119 14.6679ZM86.9529 12.9211C88.4688 12.8955 89.9333 13.4092 91.1148 14.3597V13.2037H94.7882V27.4349H91.1148V26.2789C90.0103 27.2294 88.6228 27.7432 87.159 27.7175C86.1308 27.7175 85.129 27.512 84.2042 27.101C83.2795 26.69 82.4581 26.0734 81.79 25.3285C80.6086 23.9413 79.9661 22.1688 79.9661 20.345C79.9661 16.1579 83.0741 12.9211 86.9529 12.9211ZM89.4706 23.7872C90.0617 23.4789 90.575 23.0165 90.9608 22.4771H91.0121V18.2386C90.6007 17.6734 90.0873 17.2367 89.4706 16.9285C88.8538 16.6202 88.1865 16.4661 87.4927 16.4661C85.2581 16.4661 83.8192 18.3156 83.8192 20.3707C83.7936 20.8844 83.8706 21.3982 84.0502 21.8606C84.2299 22.323 84.4874 22.7597 84.8467 23.1193C85.1804 23.4789 85.6175 23.7615 86.0795 23.9671C86.5422 24.1468 87.0299 24.2496 87.544 24.2496C88.2121 24.2496 88.8795 24.0955 89.4706 23.7872ZM101.056 9.27344H97.2538V21.4753C97.2538 23.5047 97.5882 24.7633 98.3077 25.7395C99.2838 27.0239 100.953 27.7946 103.24 27.7946C104.036 27.7946 104.832 27.6918 105.602 27.512L105.012 24.2753C104.498 24.378 103.985 24.4295 103.445 24.4295C102.494 24.4295 101.826 24.0955 101.518 23.7102C101.185 23.3248 101.056 22.811 101.056 21.912V16.4404H105.757V13.2037H101.056V9.27344ZM113.155 12.9211C117.086 12.9211 119.886 16.2349 119.886 20.1909C119.886 20.5279 119.84 20.865 119.792 21.2231L119.782 21.2955H109.944C110.047 22.2459 110.483 23.145 111.202 23.7615C111.922 24.378 112.847 24.7119 113.797 24.6863C114.465 24.6606 115.133 24.5064 115.749 24.2239C116.366 23.9413 116.905 23.5303 117.368 23.0423L119.525 25.2001C118.78 26.0221 117.881 26.6642 116.879 27.101C115.878 27.5377 114.799 27.7688 113.694 27.7432C109.456 27.7432 106.245 24.8148 106.245 20.345C106.245 16.389 108.942 12.9211 113.155 12.9211ZM111.177 16.723C110.612 17.1854 110.226 17.8276 110.098 18.5211H115.955C115.878 17.8533 115.544 17.211 115.03 16.7487C114.517 16.2863 113.848 16.0294 113.155 16.0294C112.436 16.0294 111.742 16.2606 111.177 16.723Z" fill="#0A0D0F"/>
<path fill-rule="evenodd" clip-rule="evenodd" d="M20.1128 5.31883C21.3715 6.06378 22.8358 6.29497 24.2486 6.03809C27.0486 5.67846 29.0779 8.7353 27.6394 11.1757C26.2522 13.6418 22.5789 13.3849 21.4999 10.7903C18.9568 4.21424 9.55497 4.21424 6.98619 10.7903C5.93298 13.3849 2.2339 13.6418 0.846741 11.1757C-0.566103 8.7353 1.46325 5.67846 4.23756 6.03809C5.65041 6.29497 7.11463 6.03809 8.37337 5.31883C9.65772 4.59956 10.5825 3.46928 11.0706 2.10781C12.2009 -0.692188 16.2852 -0.692188 17.4156 2.10781C17.9036 3.44359 18.8541 4.59956 20.1128 5.31883ZM14.2559 8.86379C17.0559 8.86379 18.7 12.1262 16.9789 14.3867C16.0541 15.4656 15.5404 16.8527 15.5404 18.317C15.5404 19.7555 16.0541 21.1427 16.9789 22.2473C18.7257 24.5078 17.0559 27.7959 14.2559 27.7702C11.4559 27.7702 9.81187 24.5078 11.533 22.2473C12.4578 21.1684 12.9715 19.7812 12.9715 18.317C12.9715 16.8785 12.4578 15.4913 11.533 14.3867C9.7862 12.1262 11.4559 8.83813 14.2559 8.86379Z" fill="#FF5500"/>
</g>
<defs>
<clipPath id="clip0_7505_6965">
<rect width="121.333" height="28" fill="white" transform="translate(0.333374)"/>
</clipPath>
</defs>
</svg>
