<svg width="32" height="32" viewBox="0 0 32 32" fill="none" xmlns="http://www.w3.org/2000/svg">
<rect width="32" height="32" rx="16" fill="#FF5500"/>
<path fill-rule="evenodd" clip-rule="evenodd" d="M20.619 9.12944C21.6107 9.71633 22.7642 9.89847 23.8773 9.69609C26.0832 9.41277 27.6819 11.821 26.5486 13.7436C25.4558 15.6864 22.5618 15.484 21.7118 13.44C19.7083 8.25922 12.3013 8.25922 10.2776 13.44C9.44786 15.484 6.53364 15.6864 5.44081 13.7436C4.32775 11.821 5.92651 9.41277 8.11217 9.69609C9.22524 9.89847 10.3788 9.69609 11.3705 9.12944C12.3823 8.56278 13.1108 7.67233 13.4954 6.59974C14.3859 4.39384 17.6036 4.39384 18.4941 6.59974C18.8786 7.65209 19.6274 8.56278 20.619 9.12944ZM16.0049 11.9222C18.2108 11.9222 19.506 14.4924 18.15 16.2733C17.4215 17.1233 17.0168 18.2161 17.0168 19.3697C17.0168 20.5029 17.4215 21.5958 18.15 22.466C19.5262 24.2469 18.2108 26.8374 16.0049 26.8171C13.799 26.8171 12.5037 24.2469 13.8597 22.466C14.5882 21.6161 14.993 20.5232 14.993 19.3697C14.993 18.2364 14.5882 17.1435 13.8597 16.2733C12.4835 14.4924 13.799 11.902 16.0049 11.9222Z" fill="white"/>
</svg>
