<svg width="335" height="369" viewBox="0 0 335 369" fill="none" xmlns="http://www.w3.org/2000/svg">
<rect opacity="0.15" x="40.0195" y="38.4219" width="253.385" height="253.385" rx="126.692" stroke="#3B3D3F" stroke-width="0.847441" stroke-linecap="square" stroke-linejoin="round"/>
<path opacity="0.15" d="M12.9531 165.119C12.9531 80.1997 81.7935 11.3594 166.712 11.3594V11.3594C251.631 11.3594 320.472 80.1997 320.472 165.119V165.119C320.472 250.037 251.631 318.878 166.712 318.878V318.878C81.7935 318.878 12.9531 250.037 12.9531 165.119V165.119Z" stroke="url(#paint0_linear_10672_171094)" stroke-width="0.847441" stroke-linecap="square" stroke-linejoin="round"/>
<path opacity="0.15" d="M-13.668 165.116C-13.668 65.496 67.0898 -15.2617 166.71 -15.2617V-15.2617C266.329 -15.2617 347.087 65.496 347.087 165.116V165.116C347.087 264.735 266.329 345.493 166.71 345.493V345.493C67.0898 345.493 -13.668 264.735 -13.668 165.116V165.116Z" stroke="url(#paint1_linear_10672_171094)" stroke-width="0.847441" stroke-linecap="square" stroke-linejoin="round"/>
<path opacity="0.1" d="M-36.25 165.114C-36.25 53.0216 54.6193 -37.8477 166.712 -37.8477V-37.8477C278.805 -37.8477 369.674 53.0216 369.674 165.114V165.114C369.674 277.207 278.805 368.077 166.712 368.077V368.077C54.6193 368.077 -36.25 277.207 -36.25 165.114V165.114Z" stroke="url(#paint2_linear_10672_171094)" stroke-width="0.847441" stroke-linecap="square" stroke-linejoin="round"/>
<rect x="273.065" y="276.725" width="211.013" height="211.013" rx="105.506" transform="rotate(-180 273.065 276.725)" stroke="#3B3D3F" stroke-width="0.847441" stroke-dasharray="0.85 3.39"/>
<circle cx="146.281" cy="275.453" r="1.69488" fill="#3B3D3F"/>
<circle cx="271.796" cy="162.507" r="1.69488" fill="#3B3D3F"/>
<circle cx="92.1636" cy="97.1558" r="1.69488" fill="#3B3D3F"/>
<g filter="url(#filter0_f_10672_171094)">
<path d="M185.342 240.155L238.193 187.304C243.529 181.968 239.754 172.844 232.208 172.838L102.431 172.732C94.8781 172.726 91.0912 181.858 96.4321 187.199L149.389 240.155C159.317 250.084 175.414 250.084 185.342 240.155Z" fill="#0A0D0F"/>
</g>
<rect x="167.738" y="77.8805" width="123.92" height="123.92" rx="26.6944" transform="rotate(45 167.738 77.8805)" fill="#0A0D0F" stroke="url(#paint3_linear_10672_171094)" stroke-width="0.847441"/>
<g filter="url(#filter1_i_10672_171094)">
<rect x="167.738" y="86.8672" width="111.209" height="111.209" rx="21.186" transform="rotate(45 167.738 86.8672)" fill="#060809"/>
</g>
<rect x="167.738" y="87.4664" width="110.361" height="110.361" rx="20.7623" transform="rotate(45 167.738 87.4664)" stroke="url(#paint4_linear_10672_171094)" stroke-width="0.847441"/>
<rect x="167.738" y="93.4625" width="101.887" height="101.887" rx="16.5251" transform="rotate(45 167.738 93.4625)" fill="#0A0D0F" stroke="url(#paint5_linear_10672_171094)" stroke-width="0.847441"/>
<g filter="url(#filter2_i_10672_171094)">
<rect x="167.738" y="98.8516" width="94.26" height="94.26" rx="12.7116" transform="rotate(45 167.738 98.8516)" fill="#060809"/>
</g>
<rect x="167.738" y="99.4508" width="93.4126" height="93.4126" rx="12.2879" transform="rotate(45 167.738 99.4508)" stroke="url(#paint6_linear_10672_171094)" stroke-width="0.847441"/>
<rect x="167.984" y="105.755" width="83.8967" height="84.7441" rx="8.05069" transform="rotate(45 167.984 105.755)" fill="#0A0D0F" stroke="url(#paint7_linear_10672_171094)" stroke-width="0.847441"/>
<path d="M180.455 158.441H175.158V154.468C175.158 152.361 174.321 150.34 172.832 148.85C171.342 147.36 169.321 146.523 167.214 146.523C165.107 146.523 163.086 147.36 161.596 148.85C160.106 150.34 159.269 152.361 159.269 154.468V158.441H153.972C153.27 158.441 152.597 158.72 152.1 159.216C151.603 159.713 151.324 160.386 151.324 161.089V179.627C151.324 180.329 151.603 181.002 152.1 181.499C152.597 181.996 153.27 182.275 153.972 182.275H180.455C181.157 182.275 181.831 181.996 182.328 181.499C182.824 181.002 183.103 180.329 183.103 179.627V161.089C183.103 160.386 182.824 159.713 182.328 159.216C181.831 158.72 181.157 158.441 180.455 158.441ZM168.538 171.455V175.654C168.538 176.005 168.398 176.342 168.15 176.59C167.902 176.839 167.565 176.978 167.214 176.978C166.863 176.978 166.526 176.839 166.277 176.59C166.029 176.342 165.89 176.005 165.89 175.654V171.455C165.006 171.143 164.262 170.528 163.787 169.72C163.313 168.912 163.14 167.962 163.299 167.038C163.457 166.115 163.937 165.277 164.653 164.673C165.37 164.069 166.277 163.737 167.214 163.737C168.151 163.737 169.058 164.069 169.774 164.673C170.491 165.277 170.97 166.115 171.129 167.038C171.287 167.962 171.114 168.912 170.64 169.72C170.166 170.528 169.421 171.143 168.538 171.455ZM172.51 158.441H161.917V154.468C161.917 153.063 162.475 151.716 163.469 150.723C164.462 149.73 165.809 149.172 167.214 149.172C168.618 149.172 169.966 149.73 170.959 150.723C171.952 151.716 172.51 153.063 172.51 154.468V158.441Z" fill="#1C76FD"/>
<rect x="43.1039" y="196.733" width="39.9382" height="39.9382" rx="6.41004" fill="url(#paint8_linear_10672_171094)"/>
<rect x="43.1039" y="196.733" width="39.9382" height="39.9382" rx="6.41004" stroke="url(#paint9_linear_10672_171094)" stroke-width="0.738971"/>
<path d="M69.4453 208.597L64.0076 206.56C63.444 206.352 62.5246 206.352 61.961 206.56L56.5233 208.597C55.4753 208.992 54.625 210.218 54.625 211.335V219.344C54.625 220.144 55.149 221.202 55.7916 221.677L61.2294 225.74C62.1884 226.462 63.7604 226.462 64.7194 225.74L70.1572 221.677C70.7998 221.192 71.3238 220.144 71.3238 219.344V211.335C71.3337 210.218 70.4834 208.992 69.4453 208.597ZM66.42 214.133L62.1686 218.385C62.0203 218.533 61.8325 218.602 61.6446 218.602C61.4568 218.602 61.2689 218.533 61.1206 218.385L59.5387 216.783C59.252 216.496 59.252 216.022 59.5387 215.735C59.8255 215.448 60.3 215.448 60.5867 215.735L61.6545 216.803L65.3819 213.075C65.6686 212.789 66.1431 212.789 66.4299 213.075C66.7166 213.362 66.7166 213.847 66.42 214.133Z" fill="white"/>
<rect x="233.182" y="72.8891" width="39.9382" height="39.9382" rx="6.41004" fill="url(#paint10_linear_10672_171094)"/>
<rect x="233.182" y="72.8891" width="39.9382" height="39.9382" rx="6.41004" stroke="url(#paint11_linear_10672_171094)" stroke-width="0.738971"/>
<path d="M255.907 83.8193C254.859 83.8202 253.827 84.0688 252.894 84.5448C251.962 85.0208 251.154 85.7106 250.539 86.558C249.924 87.4054 249.517 88.3863 249.354 89.4207C249.19 90.455 249.273 91.5135 249.596 92.5096L244.821 97.2836C244.759 97.3452 244.711 97.4184 244.677 97.499C244.644 97.5795 244.627 97.6659 244.627 97.753V101.071C244.627 101.247 244.697 101.415 244.821 101.54C244.946 101.664 245.114 101.734 245.29 101.734H248.608C248.784 101.734 248.953 101.664 249.077 101.54C249.202 101.415 249.272 101.247 249.272 101.071V99.7436H250.599C250.775 99.7436 250.943 99.6736 251.068 99.5492C251.192 99.4248 251.262 99.256 251.262 99.08V97.753H252.589C252.676 97.7531 252.763 97.736 252.843 97.7027C252.924 97.6694 252.997 97.6205 253.059 97.5589L253.851 96.7652C254.763 97.0613 255.729 97.1562 256.681 97.0435C257.633 96.9307 258.549 96.6129 259.367 96.112C260.184 95.6111 260.884 94.9389 261.416 94.1418C261.949 93.3448 262.303 92.4416 262.453 91.4947C262.604 90.5478 262.547 89.5795 262.287 88.6566C262.028 87.7337 261.571 86.878 260.949 86.1485C260.326 85.419 259.553 84.8331 258.683 84.431C257.813 84.0289 256.865 83.8202 255.907 83.8193ZM257.565 90.1226C257.303 90.1226 257.046 90.0448 256.828 89.899C256.61 89.7532 256.44 89.5459 256.339 89.3034C256.239 89.061 256.213 88.7941 256.264 88.5367C256.315 88.2793 256.441 88.0429 256.627 87.8573C256.813 87.6717 257.049 87.5453 257.307 87.4941C257.564 87.4429 257.831 87.4692 258.073 87.5696C258.316 87.67 258.523 87.8401 258.669 88.0584C258.815 88.2766 258.892 88.5332 258.892 88.7956C258.892 89.1476 258.753 89.4851 258.504 89.734C258.255 89.9828 257.917 90.1226 257.565 90.1226Z" fill="white"/>
<rect x="229.791" y="226.592" width="39.9382" height="39.9382" rx="6.41004" fill="url(#paint12_linear_10672_171094)"/>
<rect x="229.791" y="226.592" width="39.9382" height="39.9382" rx="6.41004" stroke="url(#paint13_linear_10672_171094)" stroke-width="0.738971"/>
<path d="M239.797 252.395C239.274 251.332 239.013 250.159 239.037 248.974C239.06 247.79 239.367 246.628 239.932 245.587C240.497 244.545 241.303 243.654 242.283 242.988C243.263 242.323 244.388 241.901 245.564 241.76C245.954 240.85 246.522 240.028 247.235 239.342C247.948 238.655 248.791 238.119 249.714 237.763C250.637 237.407 251.623 237.24 252.612 237.271C253.601 237.302 254.573 237.531 255.473 237.944C256.372 238.357 257.179 238.946 257.847 239.675C258.516 240.405 259.031 241.261 259.363 242.193C259.695 243.125 259.838 244.115 259.782 245.102C259.726 246.09 259.473 247.057 259.037 247.946L259.747 250.431C259.811 250.654 259.813 250.889 259.755 251.113C259.697 251.337 259.58 251.541 259.417 251.705C259.253 251.868 259.049 251.985 258.825 252.043C258.601 252.101 258.366 252.098 258.144 252.035L255.658 251.325C254.908 251.693 254.101 251.932 253.271 252.032C252.876 252.959 252.295 253.795 251.566 254.49C250.836 255.185 249.973 255.724 249.028 256.074C248.084 256.424 247.078 256.578 246.071 256.527C245.065 256.475 244.08 256.219 243.176 255.774L240.69 256.484C240.468 256.547 240.233 256.55 240.009 256.492C239.785 256.434 239.581 256.317 239.417 256.154C239.254 255.99 239.137 255.786 239.079 255.562C239.021 255.338 239.024 255.103 239.087 254.881L239.797 252.395ZM241.304 252.519L240.604 254.967L243.052 254.267C243.239 254.215 243.438 254.237 243.608 254.33C244.975 255.074 246.579 255.251 248.076 254.824C249.572 254.397 250.841 253.399 251.609 252.046C250.594 251.94 249.611 251.626 248.723 251.123C247.835 250.619 247.061 249.938 246.448 249.121C245.836 248.304 245.399 247.369 245.165 246.376C244.931 245.382 244.905 244.351 245.088 243.346C244.2 243.556 243.372 243.967 242.668 244.549C241.965 245.131 241.405 245.867 241.033 246.701C240.661 247.534 240.486 248.443 240.522 249.355C240.558 250.267 240.804 251.158 241.241 251.96C241.335 252.131 241.357 252.331 241.304 252.519Z" fill="white"/>
<defs>
<filter id="filter0_f_10672_171094" x="88.8489" y="167.647" width="156.927" height="85.0387" filterUnits="userSpaceOnUse" color-interpolation-filters="sRGB">
<feFlood flood-opacity="0" result="BackgroundImageFix"/>
<feBlend mode="normal" in="SourceGraphic" in2="BackgroundImageFix" result="shape"/>
<feGaussianBlur stdDeviation="2.54232" result="effect1_foregroundBlur_10672_171094"/>
</filter>
<filter id="filter1_i_10672_171094" x="97.877" y="95.6427" width="139.723" height="140.569" filterUnits="userSpaceOnUse" color-interpolation-filters="sRGB">
<feFlood flood-opacity="0" result="BackgroundImageFix"/>
<feBlend mode="normal" in="SourceGraphic" in2="BackgroundImageFix" result="shape"/>
<feColorMatrix in="SourceAlpha" type="matrix" values="0 0 0 0 0 0 0 0 0 0 0 0 0 0 0 0 0 0 127 0" result="hardAlpha"/>
<feOffset dy="0.847441"/>
<feGaussianBlur stdDeviation="0.847441"/>
<feComposite in2="hardAlpha" operator="arithmetic" k2="-1" k3="1"/>
<feColorMatrix type="matrix" values="0 0 0 0 0 0 0 0 0 0 0 0 0 0 0 0 0 0 1 0"/>
<feBlend mode="normal" in2="shape" result="effect1_innerShadow_10672_171094"/>
</filter>
<filter id="filter2_i_10672_171094" x="106.352" y="104.117" width="122.773" height="123.621" filterUnits="userSpaceOnUse" color-interpolation-filters="sRGB">
<feFlood flood-opacity="0" result="BackgroundImageFix"/>
<feBlend mode="normal" in="SourceGraphic" in2="BackgroundImageFix" result="shape"/>
<feColorMatrix in="SourceAlpha" type="matrix" values="0 0 0 0 0 0 0 0 0 0 0 0 0 0 0 0 0 0 127 0" result="hardAlpha"/>
<feOffset dy="0.847441"/>
<feGaussianBlur stdDeviation="0.847441"/>
<feComposite in2="hardAlpha" operator="arithmetic" k2="-1" k3="1"/>
<feColorMatrix type="matrix" values="0 0 0 0 0 0 0 0 0 0 0 0 0 0 0 0 0 0 1 0"/>
<feBlend mode="normal" in2="shape" result="effect1_innerShadow_10672_171094"/>
</filter>
<linearGradient id="paint0_linear_10672_171094" x1="166.712" y1="11.3594" x2="166.712" y2="328.726" gradientUnits="userSpaceOnUse">
<stop offset="0.67127" stop-color="#3B3D3F"/>
<stop offset="1" stop-color="#3B3D3F" stop-opacity="0"/>
</linearGradient>
<linearGradient id="paint1_linear_10672_171094" x1="166.71" y1="-15.2617" x2="166.71" y2="331.057" gradientUnits="userSpaceOnUse">
<stop offset="0.654622" stop-color="#3B3D3F"/>
<stop offset="1" stop-color="#3B3D3F" stop-opacity="0"/>
</linearGradient>
<linearGradient id="paint2_linear_10672_171094" x1="166.712" y1="-37.8477" x2="166.712" y2="368.077" gradientUnits="userSpaceOnUse">
<stop stop-color="#3B3D3F"/>
<stop offset="1" stop-color="#3B3D3F" stop-opacity="0"/>
</linearGradient>
<linearGradient id="paint3_linear_10672_171094" x1="230.122" y1="139.623" x2="230.122" y2="202.049" gradientUnits="userSpaceOnUse">
<stop stop-color="#3B3D3F" stop-opacity="0.5"/>
<stop offset="1" stop-color="#3B3D3F" stop-opacity="0.89"/>
</linearGradient>
<linearGradient id="paint4_linear_10672_171094" x1="223.326" y1="86.3407" x2="223.37" y2="198.076" gradientUnits="userSpaceOnUse">
<stop stop-color="#1E1E1F" stop-opacity="0"/>
<stop offset="1" stop-color="#1E1E1F" stop-opacity="0.8"/>
</linearGradient>
<linearGradient id="paint5_linear_10672_171094" x1="219.105" y1="92.8633" x2="219.105" y2="195.598" gradientUnits="userSpaceOnUse">
<stop stop-color="#3B3D3F" stop-opacity="0.5"/>
<stop offset="1" stop-color="#3B3D3F" stop-opacity="0.8"/>
</linearGradient>
<linearGradient id="paint6_linear_10672_171094" x1="214.854" y1="98.4053" x2="214.891" y2="193.112" gradientUnits="userSpaceOnUse">
<stop stop-color="#1E1E1F" stop-opacity="0"/>
<stop offset="1" stop-color="#1E1E1F" stop-opacity="0.8"/>
</linearGradient>
<linearGradient id="paint7_linear_10672_171094" x1="210.356" y1="105.156" x2="210.356" y2="190.748" gradientUnits="userSpaceOnUse">
<stop stop-color="#3B3D3F" stop-opacity="0.2"/>
<stop offset="1" stop-color="#3B3D3F" stop-opacity="0.4"/>
</linearGradient>
<linearGradient id="paint8_linear_10672_171094" x1="63.073" y1="196.363" x2="63.073" y2="237.04" gradientUnits="userSpaceOnUse">
<stop stop-color="#161C20"/>
<stop offset="1" stop-color="#0A0D0F"/>
</linearGradient>
<linearGradient id="paint9_linear_10672_171094" x1="63.073" y1="216.688" x2="63.073" y2="237.04" gradientUnits="userSpaceOnUse">
<stop stop-color="#3B3D3F" stop-opacity="0.5"/>
<stop offset="1" stop-color="#3B3D3F" stop-opacity="0.89"/>
</linearGradient>
<linearGradient id="paint10_linear_10672_171094" x1="253.151" y1="72.5196" x2="253.151" y2="113.197" gradientUnits="userSpaceOnUse">
<stop stop-color="#161C20"/>
<stop offset="1" stop-color="#0A0D0F"/>
</linearGradient>
<linearGradient id="paint11_linear_10672_171094" x1="253.151" y1="92.8445" x2="253.151" y2="113.197" gradientUnits="userSpaceOnUse">
<stop stop-color="#3B3D3F" stop-opacity="0.5"/>
<stop offset="1" stop-color="#3B3D3F" stop-opacity="0.89"/>
</linearGradient>
<linearGradient id="paint12_linear_10672_171094" x1="249.76" y1="226.223" x2="249.76" y2="266.9" gradientUnits="userSpaceOnUse">
<stop stop-color="#161C20"/>
<stop offset="1" stop-color="#0A0D0F"/>
</linearGradient>
<linearGradient id="paint13_linear_10672_171094" x1="249.76" y1="246.548" x2="249.76" y2="266.9" gradientUnits="userSpaceOnUse">
<stop stop-color="#3B3D3F" stop-opacity="0.5"/>
<stop offset="1" stop-color="#3B3D3F" stop-opacity="0.89"/>
</linearGradient>
</defs>
</svg>
