<svg width="388" height="327" viewBox="0 0 388 327" fill="none" xmlns="http://www.w3.org/2000/svg">
<mask id="mask0_10672_161533" style="mask-type:alpha" maskUnits="userSpaceOnUse" x="0" y="0" width="387" height="324">
<rect x="0.658203" y="0.921875" width="386.15" height="322.602" fill="url(#paint0_linear_10672_161533)"/>
</mask>
<g mask="url(#mask0_10672_161533)">
<path d="M38.3223 -0.476562V336.523" stroke="#181E22"/>
<path d="M91.3223 -0.476562V336.523" stroke="#181E22"/>
<path d="M144.322 -0.476562V336.523" stroke="#181E22"/>
<path d="M197.322 -0.476562V336.523" stroke="#181E22"/>
<path d="M250.322 -0.476562V336.523" stroke="#181E22"/>
<path d="M303.322 -0.476562V336.523" stroke="#181E22"/>
<path d="M356.322 -0.476562V336.523" stroke="#181E22"/>
<rect x="-3.23242" y="27.7734" width="389.5" height="0.5" fill="#2E2E38" stroke="#181E22" stroke-width="0.5"/>
<rect x="-3.23242" y="56.7734" width="389.5" height="0.5" fill="#2E2E38" stroke="#181E22" stroke-width="0.5"/>
<rect x="-3.23242" y="85.7734" width="389.5" height="0.5" fill="#2E2E38" stroke="#181E22" stroke-width="0.5"/>
<rect x="-3.23242" y="114.773" width="389.5" height="0.5" fill="#2E2E38" stroke="#181E22" stroke-width="0.5"/>
<rect x="-3.23242" y="143.773" width="389.5" height="0.5" fill="#2E2E38" stroke="#181E22" stroke-width="0.5"/>
<rect x="-3.23242" y="172.773" width="389.5" height="0.5" fill="#2E2E38" stroke="#181E22" stroke-width="0.5"/>
<rect x="-3.23242" y="201.773" width="389.5" height="0.5" fill="#2E2E38" stroke="#181E22" stroke-width="0.5"/>
<rect x="-3.23242" y="230.773" width="389.5" height="0.5" fill="#2E2E38" stroke="#181E22" stroke-width="0.5"/>
<rect x="-3.23242" y="259.773" width="389.5" height="0.5" fill="#2E2E38" stroke="#181E22" stroke-width="0.5"/>
<rect x="-3.23242" y="288.773" width="389.5" height="0.5" fill="#2E2E38" stroke="#181E22" stroke-width="0.5"/>
<circle cx="144.658" cy="182.523" r="2" fill="#3B3D3F"/>
<circle cx="197.658" cy="109.523" r="2" fill="#3B3D3F"/>
<circle cx="91.2363" cy="144.598" r="2" fill="#3B3D3F"/>
<circle cx="62.7832" cy="230.895" r="2" fill="#3B3D3F"/>
<circle opacity="0.5" cx="250.658" cy="36.5234" r="2" fill="#3B3D3F"/>
<circle cx="250.658" cy="162.523" r="2" fill="#3B3D3F"/>
<circle cx="328.205" cy="86.7422" r="2" fill="#3B3D3F"/>
<circle cx="146.658" cy="149.524" r="2" fill="#3B3D3F"/>
<circle cx="197.658" cy="179.524" r="2" fill="#3B3D3F"/>
<circle cx="250.658" cy="121.524" r="2" fill="#3B3D3F"/>
<circle cx="232.65" cy="259.328" r="2" fill="#3B3D3F"/>
<path opacity="0.5" d="M63.3477 208.105C71.646 208.105 78.373 214.833 78.373 223.131V273.498C78.373 281.796 71.646 288.523 63.3477 288.523C55.0494 288.523 48.3223 281.796 48.3223 273.498V223.131C48.3223 214.833 55.0494 208.105 63.3477 208.105ZM116.402 176.898C124.701 176.898 131.428 183.626 131.428 191.924V273.498C131.428 281.796 124.701 288.523 116.402 288.523C108.104 288.523 101.377 281.796 101.377 273.498V191.924C101.377 183.626 108.104 176.898 116.402 176.898ZM169.449 208.105C177.748 208.105 184.475 214.833 184.475 223.131V273.498C184.475 281.796 177.748 288.523 169.449 288.523C161.151 288.523 154.424 281.796 154.424 273.498V223.131C154.424 214.833 161.151 208.105 169.449 208.105ZM222.496 208.105C230.794 208.105 237.521 214.833 237.521 223.131V273.498C237.521 281.796 230.794 288.523 222.496 288.523C214.198 288.523 207.471 281.796 207.471 273.498V223.131C207.471 214.833 214.198 208.105 222.496 208.105ZM275.551 118.051C283.849 118.051 290.576 124.778 290.576 133.076V273.498C290.576 281.796 283.849 288.523 275.551 288.523C267.252 288.523 260.525 281.796 260.525 273.498V133.076C260.525 124.778 267.252 118.051 275.551 118.051ZM328.605 57.9492C336.904 57.9492 343.631 64.6763 343.631 72.9746V273.498C343.631 281.796 336.904 288.523 328.605 288.523C320.307 288.523 313.58 281.796 313.58 273.498V72.9746C313.58 64.6763 320.307 57.9492 328.605 57.9492Z" fill="url(#paint1_linear_10672_161533)"/>
</g>
<g filter="url(#filter0_f_10672_161533)">
<path d="M214.332 243.57L276.697 181.205C282.994 174.908 278.54 164.141 269.634 164.133L116.495 164.009C107.582 164.002 103.114 174.777 109.416 181.08L171.906 243.57C183.622 255.285 202.616 255.285 214.332 243.57Z" fill="#0A0D0F"/>
</g>
<rect x="194.549" y="52.0821" width="146.229" height="146.229" rx="31.5" transform="rotate(45 194.549 52.0821)" fill="#0A0D0F" stroke="url(#paint2_linear_10672_161533)"/>
<g filter="url(#filter1_i_10672_161533)">
<rect x="194.549" y="62.6914" width="131.229" height="131.229" rx="25" transform="rotate(45 194.549 62.6914)" fill="#060809"/>
</g>
<rect x="194.549" y="63.3985" width="130.229" height="130.229" rx="24.5" transform="rotate(45 194.549 63.3985)" stroke="url(#paint3_linear_10672_161533)"/>
<rect x="194.549" y="70.4688" width="120.229" height="120.229" rx="19.5" transform="rotate(45 194.549 70.4688)" fill="#0A0D0F" stroke="url(#paint4_linear_10672_161533)"/>
<g filter="url(#filter2_i_10672_161533)">
<rect x="194.549" y="76.8281" width="111.229" height="111.229" rx="15" transform="rotate(45 194.549 76.8281)" fill="#060809"/>
</g>
<rect x="194.549" y="77.5352" width="110.229" height="110.229" rx="14.5" transform="rotate(45 194.549 77.5352)" stroke="url(#paint5_linear_10672_161533)"/>
<rect x="194.838" y="84.9766" width="99" height="100" rx="9.5" transform="rotate(45 194.838 84.9766)" fill="#0A0D0F" stroke="url(#paint6_linear_10672_161533)"/>
<path d="M217.522 156.011C217.844 156.228 217.945 156.651 217.765 156.987L217.725 157.052L214.503 161.839L214.476 161.873C214.472 161.879 214.469 161.885 214.464 161.891C214.221 162.193 213.79 162.257 213.471 162.05L213.41 162.005L209.151 158.572C208.829 158.312 208.777 157.839 209.037 157.517C209.297 157.194 209.769 157.144 210.091 157.404L213.031 159.773C213.064 157.694 212.853 155.484 212.231 153.162C209.282 142.157 197.979 135.632 186.974 138.58C175.945 141.536 169.419 152.839 172.368 163.844C175.317 174.849 186.619 181.375 197.625 178.426C198.025 178.319 198.436 178.557 198.544 178.957C198.65 179.357 198.413 179.768 198.013 179.875C186.208 183.038 174.082 176.037 170.919 164.232C167.755 152.426 174.758 140.301 186.586 137.131C198.392 133.968 210.517 140.969 213.68 152.774C214.274 154.989 214.515 157.107 214.534 159.107L216.482 156.214L216.528 156.153C216.771 155.861 217.2 155.794 217.522 156.011Z" fill="#FFCB5C"/>
<path d="M194.296 144.776C197.011 145.1 199.573 146.21 201.665 147.971C201.9 148.166 202.092 148.408 202.228 148.681C202.364 148.954 202.442 149.252 202.456 149.557C202.47 149.862 202.421 150.167 202.31 150.451C202.2 150.736 202.032 150.994 201.816 151.21L197.942 155.003C197.578 155.368 197.095 155.592 196.581 155.634C196.067 155.677 195.554 155.535 195.135 155.234C194.812 155.007 194.453 154.835 194.073 154.727C193.961 154.693 193.862 154.624 193.793 154.529C193.723 154.435 193.685 154.321 193.685 154.204V145.321C193.685 145.244 193.701 145.168 193.733 145.097C193.764 145.026 193.81 144.963 193.868 144.911C193.926 144.86 193.994 144.821 194.068 144.798C194.141 144.774 194.219 144.767 194.296 144.776ZM206.835 160.216C206.862 159.913 206.825 159.608 206.727 159.32C206.629 159.032 206.473 158.767 206.267 158.543C206.062 158.319 205.812 158.14 205.534 158.018C205.255 157.895 204.955 157.832 204.651 157.832H199.076C198.559 157.828 198.057 158.009 197.661 158.342C197.265 158.675 197.001 159.138 196.916 159.648C196.757 160.609 196.283 161.49 195.569 162.151C194.855 162.813 193.941 163.219 192.971 163.304C192.001 163.389 191.03 163.148 190.211 162.621C189.393 162.093 188.773 161.308 188.45 160.39C188.411 160.283 188.34 160.19 188.246 160.125C188.153 160.06 188.042 160.025 187.928 160.025H178.987C178.909 160.025 178.832 160.041 178.761 160.072C178.69 160.103 178.627 160.149 178.575 160.207C178.523 160.265 178.484 160.333 178.461 160.407C178.437 160.481 178.43 160.559 178.438 160.636C178.861 164.057 180.505 167.211 183.067 169.516C185.63 171.822 188.939 173.124 192.385 173.184C199.827 173.287 206.175 167.59 206.835 160.216ZM188.454 157.455C188.673 156.842 189.025 156.285 189.486 155.825C189.946 155.366 190.503 155.014 191.116 154.796C191.225 154.758 191.319 154.688 191.387 154.595C191.454 154.502 191.491 154.39 191.492 154.275V145.32C191.492 145.243 191.476 145.166 191.445 145.095C191.414 145.024 191.368 144.961 191.31 144.909C191.252 144.857 191.184 144.818 191.111 144.794C191.037 144.771 190.959 144.763 190.882 144.772C187.713 145.156 184.765 146.591 182.509 148.847C180.252 151.104 178.817 154.052 178.433 157.221C178.424 157.298 178.432 157.376 178.456 157.449C178.479 157.523 178.518 157.591 178.57 157.649C178.622 157.706 178.685 157.752 178.756 157.784C178.827 157.815 178.904 157.831 178.981 157.831H187.928C188.044 157.831 188.157 157.795 188.251 157.727C188.346 157.66 188.417 157.565 188.454 157.455Z" fill="#FFCB5C"/>
<rect x="49.2036" y="46.1938" width="47.128" height="47.128" rx="7.564" fill="url(#paint7_linear_10672_161533)"/>
<rect x="49.2036" y="46.1938" width="47.128" height="47.128" rx="7.564" stroke="url(#paint8_linear_10672_161533)" stroke-width="0.872003"/>
<path d="M83.8926 78.2734C83.8926 78.5055 83.8004 78.7281 83.6363 78.8922C83.4722 79.0563 83.2496 79.1484 83.0176 79.1484H62.0176C61.7855 79.1484 61.563 79.0563 61.3989 78.8922C61.2348 78.7281 61.1426 78.5055 61.1426 78.2734C61.1426 78.0414 61.2348 77.8188 61.3989 77.6547C61.563 77.4906 61.7855 77.3984 62.0176 77.3984H62.8926V70.3984C62.8926 70.1664 62.9848 69.9438 63.1489 69.7797C63.313 69.6156 63.5355 69.5234 63.7676 69.5234H66.3926C66.6246 69.5234 66.8472 69.6156 67.0113 69.7797C67.1754 69.9438 67.2676 70.1664 67.2676 70.3984V77.3984H69.0176V65.1484C69.0176 64.9164 69.1098 64.6938 69.2739 64.5297C69.438 64.3656 69.6605 64.2734 69.8926 64.2734H73.3926C73.6246 64.2734 73.8472 64.3656 74.0113 64.5297C74.1754 64.6938 74.2676 64.9164 74.2676 65.1484V77.3984H76.0176V59.8984C76.0176 59.6664 76.1098 59.4438 76.2739 59.2797C76.438 59.1156 76.6605 59.0234 76.8926 59.0234H81.2676C81.4996 59.0234 81.7222 59.1156 81.8863 59.2797C82.0504 59.4438 82.1426 59.6664 82.1426 59.8984V77.3984H83.0176C83.2496 77.3984 83.4722 77.4906 83.6363 77.6547C83.8004 77.8188 83.8926 78.0414 83.8926 78.2734Z" fill="white"/>
<rect x="280.704" y="217.639" width="47.128" height="47.128" rx="7.564" fill="url(#paint9_linear_10672_161533)"/>
<rect x="280.704" y="217.639" width="47.128" height="47.128" rx="7.564" stroke="url(#paint10_linear_10672_161533)" stroke-width="0.872003"/>
<path d="M313.455 231.578H294.205C293.741 231.578 293.296 231.762 292.968 232.091C292.639 232.419 292.455 232.864 292.455 233.328V249.078C292.455 249.542 292.639 249.987 292.968 250.316C293.296 250.644 293.741 250.828 294.205 250.828H313.455C313.919 250.828 314.364 250.644 314.693 250.316C315.021 249.987 315.205 249.542 315.205 249.078V233.328C315.205 232.864 315.021 232.419 314.693 232.091C314.364 231.762 313.919 231.578 313.455 231.578ZM311.705 246.453C311.937 246.453 312.16 246.545 312.324 246.709C312.488 246.874 312.58 247.096 312.58 247.328C312.58 247.56 312.488 247.783 312.324 247.947C312.16 248.111 311.937 248.203 311.705 248.203H295.955C295.723 248.203 295.5 248.111 295.336 247.947C295.172 247.783 295.08 247.56 295.08 247.328V235.078C295.08 234.846 295.172 234.624 295.336 234.459C295.5 234.295 295.723 234.203 295.955 234.203C296.187 234.203 296.41 234.295 296.574 234.459C296.738 234.624 296.83 234.846 296.83 235.078V241.96L300.645 238.78C300.79 238.66 300.97 238.589 301.159 238.579C301.347 238.569 301.534 238.62 301.691 238.725L306.394 241.863L311.142 237.905C311.32 237.757 311.55 237.685 311.781 237.707C312.013 237.728 312.226 237.84 312.374 238.018C312.523 238.197 312.595 238.427 312.573 238.658C312.552 238.889 312.44 239.102 312.262 239.251L307.012 243.626C306.867 243.747 306.687 243.817 306.498 243.827C306.31 243.837 306.123 243.786 305.966 243.682L301.263 240.544L296.83 244.238V246.453H311.705Z" fill="white"/>
<defs>
<filter id="filter0_f_10672_161533" x="100.467" y="158.009" width="185.18" height="100.348" filterUnits="userSpaceOnUse" color-interpolation-filters="sRGB">
<feFlood flood-opacity="0" result="BackgroundImageFix"/>
<feBlend mode="normal" in="SourceGraphic" in2="BackgroundImageFix" result="shape"/>
<feGaussianBlur stdDeviation="3" result="effect1_foregroundBlur_10672_161533"/>
</filter>
<filter id="filter1_i_10672_161533" x="112.111" y="73.0468" width="164.875" height="165.875" filterUnits="userSpaceOnUse" color-interpolation-filters="sRGB">
<feFlood flood-opacity="0" result="BackgroundImageFix"/>
<feBlend mode="normal" in="SourceGraphic" in2="BackgroundImageFix" result="shape"/>
<feColorMatrix in="SourceAlpha" type="matrix" values="0 0 0 0 0 0 0 0 0 0 0 0 0 0 0 0 0 0 127 0" result="hardAlpha"/>
<feOffset dy="1"/>
<feGaussianBlur stdDeviation="1"/>
<feComposite in2="hardAlpha" operator="arithmetic" k2="-1" k3="1"/>
<feColorMatrix type="matrix" values="0 0 0 0 0 0 0 0 0 0 0 0 0 0 0 0 0 0 1 0"/>
<feBlend mode="normal" in2="shape" result="effect1_innerShadow_10672_161533"/>
</filter>
<filter id="filter2_i_10672_161533" x="122.111" y="83.0413" width="144.875" height="145.875" filterUnits="userSpaceOnUse" color-interpolation-filters="sRGB">
<feFlood flood-opacity="0" result="BackgroundImageFix"/>
<feBlend mode="normal" in="SourceGraphic" in2="BackgroundImageFix" result="shape"/>
<feColorMatrix in="SourceAlpha" type="matrix" values="0 0 0 0 0 0 0 0 0 0 0 0 0 0 0 0 0 0 127 0" result="hardAlpha"/>
<feOffset dy="1"/>
<feGaussianBlur stdDeviation="1"/>
<feComposite in2="hardAlpha" operator="arithmetic" k2="-1" k3="1"/>
<feColorMatrix type="matrix" values="0 0 0 0 0 0 0 0 0 0 0 0 0 0 0 0 0 0 1 0"/>
<feBlend mode="normal" in2="shape" result="effect1_innerShadow_10672_161533"/>
</filter>
<linearGradient id="paint0_linear_10672_161533" x1="193.733" y1="-16.3306" x2="193.733" y2="358.853" gradientUnits="userSpaceOnUse">
<stop offset="0.481106" stop-color="#737373"/>
<stop offset="1" stop-color="#737373" stop-opacity="0"/>
</linearGradient>
<linearGradient id="paint1_linear_10672_161533" x1="390.655" y1="187.67" x2="13.7037" y2="193.979" gradientUnits="userSpaceOnUse">
<stop stop-color="#3B3D3F" stop-opacity="0"/>
<stop offset="0.5" stop-color="#3B3D3F" stop-opacity="0.6"/>
<stop offset="1" stop-color="#3B3D3F" stop-opacity="0"/>
</linearGradient>
<linearGradient id="paint2_linear_10672_161533" x1="268.163" y1="124.94" x2="268.163" y2="198.604" gradientUnits="userSpaceOnUse">
<stop stop-color="#3B3D3F" stop-opacity="0.5"/>
<stop offset="1" stop-color="#3B3D3F" stop-opacity="0.89"/>
</linearGradient>
<linearGradient id="paint3_linear_10672_161533" x1="260.143" y1="62.0702" x2="260.196" y2="193.92" gradientUnits="userSpaceOnUse">
<stop stop-color="#1E1E1F" stop-opacity="0"/>
<stop offset="1" stop-color="#1E1E1F" stop-opacity="0.8"/>
</linearGradient>
<linearGradient id="paint4_linear_10672_161533" x1="255.163" y1="69.7617" x2="255.163" y2="190.991" gradientUnits="userSpaceOnUse">
<stop stop-color="#3B3D3F" stop-opacity="0.5"/>
<stop offset="1" stop-color="#3B3D3F" stop-opacity="0.8"/>
</linearGradient>
<linearGradient id="paint5_linear_10672_161533" x1="250.146" y1="76.3016" x2="250.191" y2="188.057" gradientUnits="userSpaceOnUse">
<stop stop-color="#1E1E1F" stop-opacity="0"/>
<stop offset="1" stop-color="#1E1E1F" stop-opacity="0.8"/>
</linearGradient>
<linearGradient id="paint6_linear_10672_161533" x1="244.838" y1="84.2695" x2="244.838" y2="185.27" gradientUnits="userSpaceOnUse">
<stop stop-color="#3B3D3F" stop-opacity="0.2"/>
<stop offset="1" stop-color="#3B3D3F" stop-opacity="0.4"/>
</linearGradient>
<linearGradient id="paint7_linear_10672_161533" x1="72.7676" y1="45.7578" x2="72.7676" y2="93.7578" gradientUnits="userSpaceOnUse">
<stop stop-color="#161C20"/>
<stop offset="1" stop-color="#0A0D0F"/>
</linearGradient>
<linearGradient id="paint8_linear_10672_161533" x1="72.7676" y1="69.7417" x2="72.7676" y2="93.7578" gradientUnits="userSpaceOnUse">
<stop stop-color="#3B3D3F" stop-opacity="0.5"/>
<stop offset="1" stop-color="#3B3D3F" stop-opacity="0.89"/>
</linearGradient>
<linearGradient id="paint9_linear_10672_161533" x1="304.268" y1="217.203" x2="304.268" y2="265.203" gradientUnits="userSpaceOnUse">
<stop stop-color="#161C20"/>
<stop offset="1" stop-color="#0A0D0F"/>
</linearGradient>
<linearGradient id="paint10_linear_10672_161533" x1="304.268" y1="241.187" x2="304.268" y2="265.203" gradientUnits="userSpaceOnUse">
<stop stop-color="#3B3D3F" stop-opacity="0.5"/>
<stop offset="1" stop-color="#3B3D3F" stop-opacity="0.89"/>
</linearGradient>
</defs>
</svg>
