<svg width="387" height="327" viewBox="0 0 387 327" fill="none" xmlns="http://www.w3.org/2000/svg">
<mask id="mask0_10672_161608" style="mask-type:alpha" maskUnits="userSpaceOnUse" x="0" y="0" width="388" height="324">
<rect x="0.998047" y="0.921875" width="386.15" height="322.602" fill="url(#paint0_linear_10672_161608)"/>
</mask>
<g mask="url(#mask0_10672_161608)">
<g opacity="0.1">
<path d="M-13.3301 10.5234H391.67" stroke="#3B3D3F" stroke-linecap="square" stroke-linejoin="round"/>
<path d="M-13.3301 26.5234H391.67" stroke="#3B3D3F" stroke-linecap="square" stroke-linejoin="round"/>
<path d="M-13.3301 42.5234H391.67" stroke="#3B3D3F" stroke-linecap="square" stroke-linejoin="round"/>
<path d="M-13.3301 58.5234H391.67" stroke="#3B3D3F" stroke-linecap="square" stroke-linejoin="round"/>
<path d="M-13.3301 74.5234H391.67" stroke="#3B3D3F" stroke-linecap="square" stroke-linejoin="round"/>
<path d="M-13.3301 90.5234H391.67" stroke="#3B3D3F" stroke-linecap="square" stroke-linejoin="round"/>
<path d="M-13.3301 106.523H391.67" stroke="#3B3D3F" stroke-linecap="square" stroke-linejoin="round"/>
<path d="M-13.3301 122.523H391.67" stroke="#3B3D3F" stroke-linecap="square" stroke-linejoin="round"/>
<path d="M-13.3301 138.523H391.67" stroke="#3B3D3F" stroke-linecap="square" stroke-linejoin="round"/>
<path d="M-13.3301 154.523H391.67" stroke="#3B3D3F" stroke-linecap="square" stroke-linejoin="round"/>
<path d="M-13.3301 170.523H391.67" stroke="#3B3D3F" stroke-linecap="square" stroke-linejoin="round"/>
<path d="M-13.3301 186.523H391.67" stroke="#3B3D3F" stroke-linecap="square" stroke-linejoin="round"/>
<path d="M-13.3301 202.523H391.67" stroke="#3B3D3F" stroke-linecap="square" stroke-linejoin="round"/>
<path d="M-13.3301 218.523H391.67" stroke="#3B3D3F" stroke-linecap="square" stroke-linejoin="round"/>
<path d="M-13.3301 234.523H391.67" stroke="#3B3D3F" stroke-linecap="square" stroke-linejoin="round"/>
<path d="M-13.3301 250.523H391.67" stroke="#3B3D3F" stroke-linecap="square" stroke-linejoin="round"/>
<path d="M-13.3301 266.523H391.67" stroke="#3B3D3F" stroke-linecap="square" stroke-linejoin="round"/>
<path d="M-13.3301 282.523H391.67" stroke="#3B3D3F" stroke-linecap="square" stroke-linejoin="round"/>
<path d="M-13.3301 298.523H391.67" stroke="#3B3D3F" stroke-linecap="square" stroke-linejoin="round"/>
<path d="M-13.3301 314.523H391.67" stroke="#3B3D3F" stroke-linecap="square" stroke-linejoin="round"/>
<path d="M10.6699 -5.47656L10.6699 330.523" stroke="#3B3D3F" stroke-linecap="square" stroke-linejoin="round"/>
<path d="M26.6699 -5.47656L26.6699 330.523" stroke="#3B3D3F" stroke-linecap="square" stroke-linejoin="round"/>
<path d="M42.6699 -5.47656L42.6699 330.523" stroke="#3B3D3F" stroke-linecap="square" stroke-linejoin="round"/>
<path d="M58.6699 -5.47656L58.6699 330.523" stroke="#3B3D3F" stroke-linecap="square" stroke-linejoin="round"/>
<path d="M74.6699 -5.47656L74.6699 330.523" stroke="#3B3D3F" stroke-linecap="square" stroke-linejoin="round"/>
<path d="M90.6699 -5.47656L90.6699 330.523" stroke="#3B3D3F" stroke-linecap="square" stroke-linejoin="round"/>
<path d="M106.67 -5.47656L106.67 330.523" stroke="#3B3D3F" stroke-linecap="square" stroke-linejoin="round"/>
<path d="M122.67 -5.47656L122.67 330.523" stroke="#3B3D3F" stroke-linecap="square" stroke-linejoin="round"/>
<path d="M138.67 -5.47656L138.67 330.523" stroke="#3B3D3F" stroke-linecap="square" stroke-linejoin="round"/>
<path d="M154.67 -5.47656L154.67 330.523" stroke="#3B3D3F" stroke-linecap="square" stroke-linejoin="round"/>
<path d="M170.67 -5.47656L170.67 330.523" stroke="#3B3D3F" stroke-linecap="square" stroke-linejoin="round"/>
<path d="M186.67 -5.47656L186.67 330.523" stroke="#3B3D3F" stroke-linecap="square" stroke-linejoin="round"/>
<path d="M202.67 -5.47656L202.67 330.523" stroke="#3B3D3F" stroke-linecap="square" stroke-linejoin="round"/>
<path d="M218.67 -5.47656L218.67 330.523" stroke="#3B3D3F" stroke-linecap="square" stroke-linejoin="round"/>
<path d="M234.67 -5.47656L234.67 330.523" stroke="#3B3D3F" stroke-linecap="square" stroke-linejoin="round"/>
<path d="M250.67 -5.47656L250.67 330.523" stroke="#3B3D3F" stroke-linecap="square" stroke-linejoin="round"/>
<path d="M266.67 -5.47656L266.67 330.523" stroke="#3B3D3F" stroke-linecap="square" stroke-linejoin="round"/>
<path d="M282.67 -5.47656L282.67 330.523" stroke="#3B3D3F" stroke-linecap="square" stroke-linejoin="round"/>
<path d="M298.67 -5.47656L298.67 330.523" stroke="#3B3D3F" stroke-linecap="square" stroke-linejoin="round"/>
<path d="M314.67 -5.47656L314.67 330.523" stroke="#3B3D3F" stroke-linecap="square" stroke-linejoin="round"/>
<path d="M330.67 -5.47656L330.67 330.523" stroke="#3B3D3F" stroke-linecap="square" stroke-linejoin="round"/>
<path d="M346.67 -5.47656L346.67 330.523" stroke="#3B3D3F" stroke-linecap="square" stroke-linejoin="round"/>
<path d="M362.67 -5.47656L362.67 330.523" stroke="#3B3D3F" stroke-linecap="square" stroke-linejoin="round"/>
<path d="M378.67 -5.47656L378.67 330.523" stroke="#3B3D3F" stroke-linecap="square" stroke-linejoin="round"/>
</g>
</g>
<path d="M74.3027 69.0977L74.3029 153.399C74.3029 154.503 75.1983 155.399 76.3029 155.399L194.68 155.399L313.057 155.399C314.161 155.399 315.057 156.294 315.057 157.399L315.057 250.31" stroke="#3B3D3F" stroke-dasharray="1 4"/>
<path d="M74.3105 259.586L74.3105 157.449C74.3105 156.344 75.206 155.449 76.3105 155.449L194.687 155.449L313.064 155.449C314.169 155.449 315.064 154.554 315.064 153.449L315.064 89.0644" stroke="#25292C"/>
<rect x="310.934" y="151.495" width="7.97175" height="7.97175" rx="3.98587" fill="url(#paint1_linear_10672_161608)" stroke="url(#paint2_linear_10672_161608)" stroke-width="0.872003"/>
<rect x="70.7465" y="151.499" width="7.97175" height="7.97175" rx="3.98587" fill="url(#paint3_linear_10672_161608)" stroke="url(#paint4_linear_10672_161608)" stroke-width="0.872003"/>
<rect x="310.036" y="245.428" width="9.76862" height="9.76862" rx="4.88431" fill="url(#paint5_linear_10672_161608)" stroke="url(#paint6_linear_10672_161608)" stroke-width="0.872003"/>
<circle cx="314.92" cy="250.277" r="2" fill="#3B3D3F"/>
<rect x="69.7465" y="62.8735" width="9.76862" height="9.76862" rx="4.88431" fill="url(#paint7_linear_10672_161608)" stroke="url(#paint8_linear_10672_161608)" stroke-width="0.872003"/>
<circle cx="74.6309" cy="67.7578" r="2" fill="#3B3D3F"/>
<g filter="url(#filter0_f_10672_161608)">
<path d="M214.172 243.57L276.537 181.205C282.834 174.908 278.379 164.141 269.474 164.133L116.335 164.009C107.422 164.002 102.953 174.777 109.256 181.08L171.746 243.57C183.461 255.285 202.456 255.285 214.172 243.57Z" fill="#0A0D0F"/>
</g>
<rect x="194.389" y="52.0821" width="146.229" height="146.229" rx="31.5" transform="rotate(45 194.389 52.0821)" fill="#0A0D0F" stroke="url(#paint9_linear_10672_161608)"/>
<g filter="url(#filter1_i_10672_161608)">
<rect x="194.389" y="62.6875" width="131.229" height="131.229" rx="25" transform="rotate(45 194.389 62.6875)" fill="#060809"/>
</g>
<rect x="194.389" y="63.3946" width="130.229" height="130.229" rx="24.5" transform="rotate(45 194.389 63.3946)" stroke="url(#paint10_linear_10672_161608)"/>
<rect x="194.389" y="70.4688" width="120.229" height="120.229" rx="19.5" transform="rotate(45 194.389 70.4688)" fill="#0A0D0F" stroke="url(#paint11_linear_10672_161608)"/>
<g filter="url(#filter2_i_10672_161608)">
<rect x="194.389" y="76.8281" width="111.229" height="111.229" rx="15" transform="rotate(45 194.389 76.8281)" fill="#060809"/>
</g>
<rect x="194.389" y="77.5352" width="110.229" height="110.229" rx="14.5" transform="rotate(45 194.389 77.5352)" stroke="url(#paint12_linear_10672_161608)"/>
<rect x="194.678" y="84.9766" width="99" height="100" rx="9.5" transform="rotate(45 194.678 84.9766)" fill="#0A0D0F" stroke="url(#paint13_linear_10672_161608)"/>
<path d="M194.486 143.151C191.351 143.151 188.286 144.08 185.679 145.823C183.072 147.565 181.04 150.041 179.84 152.937C178.64 155.834 178.326 159.022 178.937 162.097C179.549 165.173 181.059 167.997 183.276 170.215C185.493 172.432 188.318 173.942 191.394 174.553C194.469 175.165 197.657 174.851 200.553 173.651C203.45 172.451 205.926 170.419 207.668 167.812C209.41 165.205 210.34 162.14 210.34 159.004C210.336 154.801 208.664 150.771 205.692 147.799C202.72 144.827 198.69 143.155 194.486 143.151ZM201.447 156.209L192.91 164.745C192.797 164.859 192.663 164.949 192.514 165.01C192.366 165.071 192.208 165.103 192.047 165.103C191.887 165.103 191.729 165.071 191.58 165.01C191.432 164.949 191.298 164.859 191.185 164.745L187.526 161.087C187.297 160.858 187.169 160.547 187.169 160.224C187.169 159.9 187.297 159.59 187.526 159.361C187.755 159.132 188.065 159.004 188.389 159.004C188.713 159.004 189.023 159.132 189.252 159.361L192.047 162.158L199.721 154.483C199.835 154.37 199.969 154.28 200.117 154.219C200.265 154.157 200.424 154.126 200.584 154.126C200.744 154.126 200.903 154.157 201.051 154.219C201.199 154.28 201.334 154.37 201.447 154.483C201.56 154.596 201.65 154.731 201.711 154.879C201.773 155.027 201.804 155.186 201.804 155.346C201.804 155.506 201.773 155.665 201.711 155.813C201.65 155.961 201.56 156.095 201.447 156.209Z" fill="#6DC28B"/>
<path d="M217.932 158.523C218.521 158.523 219 158.046 218.975 157.458C218.851 154.539 218.215 151.661 217.095 148.956C215.839 145.923 213.997 143.167 211.676 140.846C209.354 138.524 206.598 136.683 203.565 135.426C200.861 134.306 197.983 133.671 195.064 133.546C194.476 133.521 193.998 134.001 193.998 134.589V134.589C193.998 135.178 194.476 135.653 195.064 135.68C197.703 135.803 200.303 136.383 202.749 137.396C205.524 138.545 208.045 140.23 210.168 142.353C212.292 144.477 213.976 146.998 215.125 149.772C216.138 152.218 216.718 154.819 216.841 157.458C216.869 158.046 217.343 158.523 217.932 158.523V158.523Z" fill="#6DC28B"/>
<path d="M170.065 158.523C169.476 158.523 168.996 159.001 169.021 159.59C169.145 162.509 169.781 165.386 170.901 168.091C172.157 171.124 173.999 173.88 176.32 176.201C178.642 178.523 181.398 180.364 184.431 181.62C187.135 182.741 190.012 183.376 192.931 183.501C193.52 183.526 193.998 183.046 193.998 182.456V182.456C193.998 181.867 193.52 181.392 192.931 181.364C190.293 181.241 187.693 180.661 185.248 179.649C182.473 178.5 179.953 176.815 177.83 174.692C175.706 172.569 174.022 170.048 172.873 167.274C171.86 164.829 171.28 162.229 171.157 159.59C171.13 159.001 170.655 158.523 170.065 158.523V158.523Z" fill="#6DC28B"/>
<rect x="49.5434" y="229.959" width="47.128" height="47.128" rx="7.564" fill="url(#paint14_linear_10672_161608)"/>
<rect x="49.5434" y="229.959" width="47.128" height="47.128" rx="7.564" stroke="url(#paint15_linear_10672_161608)" stroke-width="0.872003"/>
<path d="M81.6649 253.736C81.6688 253.596 81.6688 253.456 81.6649 253.316L83.1167 251.502C83.1928 251.407 83.2455 251.295 83.2705 251.176C83.2955 251.056 83.2922 250.933 83.2607 250.815C83.0223 249.92 82.6663 249.062 82.202 248.261C82.1412 248.156 82.0567 248.067 81.9554 248C81.854 247.934 81.7385 247.892 81.6182 247.878L79.3101 247.621C79.2141 247.52 79.1168 247.423 79.0182 247.329L78.7457 245.016C78.7317 244.895 78.6898 244.78 78.6232 244.678C78.5566 244.577 78.4673 244.492 78.3623 244.432C77.5615 243.968 76.7026 243.612 75.8081 243.375C75.6903 243.344 75.5668 243.34 75.4475 243.365C75.3281 243.39 75.2163 243.443 75.1211 243.519L73.3122 244.963C73.1721 244.963 73.032 244.963 72.8919 244.963L71.0781 243.514C70.9829 243.438 70.8711 243.385 70.7518 243.36C70.6324 243.335 70.5089 243.339 70.3911 243.37C69.4966 243.609 68.6377 243.965 67.8369 244.429C67.7321 244.49 67.6429 244.574 67.5766 244.675C67.5102 244.777 67.4684 244.892 67.4544 245.013L67.1976 247.325C67.0964 247.421 66.9991 247.519 66.9056 247.617L64.5917 247.882C64.4713 247.896 64.3558 247.938 64.2544 248.005C64.153 248.071 64.0686 248.161 64.0079 248.266C63.5441 249.067 63.1884 249.925 62.9502 250.82C62.9189 250.938 62.9157 251.061 62.9408 251.181C62.966 251.3 63.0189 251.412 63.0952 251.507L64.5392 253.316C64.5392 253.456 64.5392 253.596 64.5392 253.736L63.0903 255.55C63.0142 255.645 62.9615 255.757 62.9365 255.876C62.9115 255.995 62.9148 256.119 62.9463 256.237C63.1847 257.131 63.5407 257.99 64.005 258.791C64.0658 258.896 64.1503 258.985 64.2516 259.051C64.353 259.118 64.4684 259.16 64.5888 259.173L66.8969 259.43C66.9935 259.532 67.0908 259.629 67.1888 259.722L67.4583 262.036C67.4724 262.157 67.5143 262.272 67.5809 262.373C67.6474 262.475 67.7368 262.559 67.8417 262.62C68.6427 263.084 69.5016 263.439 70.396 263.678C70.5138 263.709 70.6374 263.712 70.7567 263.687C70.8761 263.662 70.9878 263.609 71.083 263.533L72.8919 262.089C73.032 262.093 73.1721 262.093 73.3122 262.089L75.126 263.541C75.2212 263.617 75.333 263.669 75.4523 263.694C75.5716 263.719 75.6952 263.716 75.813 263.685C76.7076 263.447 77.5665 263.091 78.3672 262.626C78.472 262.565 78.5611 262.481 78.6275 262.379C78.6939 262.278 78.7357 262.162 78.7496 262.042L79.0065 259.734C79.1077 259.638 79.205 259.541 79.2984 259.442L81.6123 259.17C81.7328 259.156 81.8483 259.114 81.9497 259.047C82.051 258.98 82.1354 258.891 82.1962 258.786C82.66 257.985 83.0156 257.126 83.2539 256.232C83.2852 256.114 83.2884 255.99 83.2632 255.871C83.2381 255.752 83.1852 255.64 83.1089 255.545L81.6649 253.736ZM73.102 257.418C72.3322 257.418 71.5797 257.19 70.9396 256.762C70.2996 256.334 69.8007 255.727 69.5061 255.015C69.2115 254.304 69.1344 253.522 69.2846 252.767C69.4348 252.012 69.8055 251.318 70.3498 250.774C70.8942 250.229 71.5877 249.859 72.3427 249.708C73.0977 249.558 73.8803 249.635 74.5915 249.93C75.3027 250.225 75.9106 250.723 76.3383 251.363C76.766 252.004 76.9942 252.756 76.9942 253.526C76.9942 254.558 76.5842 255.548 75.8542 256.278C75.1243 257.008 74.1343 257.418 73.102 257.418Z" fill="white"/>
<rect x="291.356" y="46.1938" width="47.128" height="47.128" rx="7.564" fill="url(#paint16_linear_10672_161608)"/>
<rect x="291.356" y="46.1938" width="47.128" height="47.128" rx="7.564" stroke="url(#paint17_linear_10672_161608)" stroke-width="0.872003"/>
<path d="M324.623 59.8984H305.373C304.909 59.8984 304.464 60.0828 304.136 60.411C303.807 60.7392 303.623 61.1843 303.623 61.6484V77.3984C303.623 77.8626 303.807 78.3077 304.136 78.6359C304.464 78.9641 304.909 79.1484 305.373 79.1484H324.623C325.087 79.1484 325.532 78.9641 325.86 78.6359C326.189 78.3077 326.373 77.8626 326.373 77.3984V61.6484C326.373 61.1843 326.189 60.7392 325.86 60.411C325.532 60.0828 325.087 59.8984 324.623 59.8984ZM311.148 71.4484C311.334 71.5877 311.456 71.795 311.489 72.0247C311.522 72.2544 311.462 72.4878 311.323 72.6734C311.184 72.8591 310.977 72.9818 310.747 73.0146C310.517 73.0475 310.284 72.9877 310.098 72.8484L306.598 70.2234C306.489 70.1419 306.401 70.0362 306.34 69.9147C306.28 69.7933 306.248 69.6593 306.248 69.5234C306.248 69.3876 306.28 69.2536 306.34 69.1321C306.401 69.0106 306.489 68.9049 306.598 68.8234L310.098 66.1984C310.284 66.0592 310.517 65.9994 310.747 66.0322C310.977 66.0651 311.184 66.1878 311.323 66.3734C311.462 66.5591 311.522 66.7924 311.489 67.0222C311.456 67.2519 311.334 67.4592 311.148 67.5984L308.581 69.5234L311.148 71.4484ZM317.589 63.6391L314.089 75.8891C314.059 76.0015 314.007 76.1069 313.936 76.199C313.865 76.2911 313.777 76.3681 313.675 76.4256C313.574 76.483 313.463 76.5197 313.347 76.5335C313.232 76.5473 313.115 76.5379 313.003 76.5059C312.891 76.4739 312.787 76.42 312.696 76.3472C312.605 76.2744 312.53 76.1842 312.474 76.082C312.419 75.9797 312.384 75.8674 312.373 75.7517C312.361 75.6359 312.373 75.519 312.407 75.4078L315.907 63.1578C315.974 62.9388 316.125 62.7549 316.326 62.6456C316.528 62.5363 316.764 62.5104 316.984 62.5734C317.204 62.6365 317.391 62.7834 317.504 62.9826C317.617 63.1819 317.648 63.4176 317.589 63.6391ZM323.398 70.2234L319.898 72.8484C319.712 72.9877 319.479 73.0475 319.249 73.0146C319.02 72.9818 318.812 72.8591 318.673 72.6734C318.534 72.4878 318.474 72.2544 318.507 72.0247C318.54 71.795 318.662 71.5877 318.848 71.4484L321.415 69.5234L318.848 67.5984C318.756 67.5295 318.679 67.4431 318.62 67.3442C318.562 67.2454 318.523 67.1359 318.507 67.0222C318.491 66.9084 318.497 66.7926 318.525 66.6813C318.554 66.57 318.604 66.4654 318.673 66.3734C318.742 66.2815 318.828 66.2041 318.927 66.1455C319.026 66.087 319.136 66.0485 319.249 66.0322C319.363 66.016 319.479 66.0223 319.59 66.0508C319.702 66.0793 319.806 66.1295 319.898 66.1984L323.398 68.8234C323.507 68.9049 323.595 69.0106 323.656 69.1321C323.716 69.2536 323.748 69.3876 323.748 69.5234C323.748 69.6593 323.716 69.7933 323.656 69.9147C323.595 70.0362 323.507 70.1419 323.398 70.2234Z" fill="white"/>
<defs>
<filter id="filter0_f_10672_161608" x="100.307" y="158.009" width="185.18" height="100.348" filterUnits="userSpaceOnUse" color-interpolation-filters="sRGB">
<feFlood flood-opacity="0" result="BackgroundImageFix"/>
<feBlend mode="normal" in="SourceGraphic" in2="BackgroundImageFix" result="shape"/>
<feGaussianBlur stdDeviation="3" result="effect1_foregroundBlur_10672_161608"/>
</filter>
<filter id="filter1_i_10672_161608" x="111.951" y="73.0428" width="164.875" height="165.875" filterUnits="userSpaceOnUse" color-interpolation-filters="sRGB">
<feFlood flood-opacity="0" result="BackgroundImageFix"/>
<feBlend mode="normal" in="SourceGraphic" in2="BackgroundImageFix" result="shape"/>
<feColorMatrix in="SourceAlpha" type="matrix" values="0 0 0 0 0 0 0 0 0 0 0 0 0 0 0 0 0 0 127 0" result="hardAlpha"/>
<feOffset dy="1"/>
<feGaussianBlur stdDeviation="1"/>
<feComposite in2="hardAlpha" operator="arithmetic" k2="-1" k3="1"/>
<feColorMatrix type="matrix" values="0 0 0 0 0 0 0 0 0 0 0 0 0 0 0 0 0 0 1 0"/>
<feBlend mode="normal" in2="shape" result="effect1_innerShadow_10672_161608"/>
</filter>
<filter id="filter2_i_10672_161608" x="121.951" y="83.0413" width="144.875" height="145.875" filterUnits="userSpaceOnUse" color-interpolation-filters="sRGB">
<feFlood flood-opacity="0" result="BackgroundImageFix"/>
<feBlend mode="normal" in="SourceGraphic" in2="BackgroundImageFix" result="shape"/>
<feColorMatrix in="SourceAlpha" type="matrix" values="0 0 0 0 0 0 0 0 0 0 0 0 0 0 0 0 0 0 127 0" result="hardAlpha"/>
<feOffset dy="1"/>
<feGaussianBlur stdDeviation="1"/>
<feComposite in2="hardAlpha" operator="arithmetic" k2="-1" k3="1"/>
<feColorMatrix type="matrix" values="0 0 0 0 0 0 0 0 0 0 0 0 0 0 0 0 0 0 1 0"/>
<feBlend mode="normal" in2="shape" result="effect1_innerShadow_10672_161608"/>
</filter>
<linearGradient id="paint0_linear_10672_161608" x1="194.073" y1="0.921875" x2="194.073" y2="347.304" gradientUnits="userSpaceOnUse">
<stop offset="0.58585" stop-color="#737373"/>
<stop offset="1" stop-color="#737373" stop-opacity="0"/>
</linearGradient>
<linearGradient id="paint1_linear_10672_161608" x1="314.92" y1="151.059" x2="314.92" y2="159.902" gradientUnits="userSpaceOnUse">
<stop stop-color="#161C20"/>
<stop offset="1" stop-color="#0A0D0F"/>
</linearGradient>
<linearGradient id="paint2_linear_10672_161608" x1="314.92" y1="155.478" x2="314.92" y2="159.902" gradientUnits="userSpaceOnUse">
<stop stop-color="#3B3D3F" stop-opacity="0.5"/>
<stop offset="1" stop-color="#3B3D3F" stop-opacity="0.89"/>
</linearGradient>
<linearGradient id="paint3_linear_10672_161608" x1="74.7324" y1="151.062" x2="74.7324" y2="159.906" gradientUnits="userSpaceOnUse">
<stop stop-color="#161C20"/>
<stop offset="1" stop-color="#0A0D0F"/>
</linearGradient>
<linearGradient id="paint4_linear_10672_161608" x1="74.7324" y1="155.481" x2="74.7324" y2="159.906" gradientUnits="userSpaceOnUse">
<stop stop-color="#3B3D3F" stop-opacity="0.5"/>
<stop offset="1" stop-color="#3B3D3F" stop-opacity="0.89"/>
</linearGradient>
<linearGradient id="paint5_linear_10672_161608" x1="314.92" y1="244.992" x2="314.92" y2="255.633" gradientUnits="userSpaceOnUse">
<stop stop-color="#161C20"/>
<stop offset="1" stop-color="#0A0D0F"/>
</linearGradient>
<linearGradient id="paint6_linear_10672_161608" x1="314.92" y1="250.309" x2="314.92" y2="255.633" gradientUnits="userSpaceOnUse">
<stop stop-color="#3B3D3F" stop-opacity="0.5"/>
<stop offset="1" stop-color="#3B3D3F" stop-opacity="0.89"/>
</linearGradient>
<linearGradient id="paint7_linear_10672_161608" x1="74.6309" y1="62.4375" x2="74.6309" y2="73.0781" gradientUnits="userSpaceOnUse">
<stop stop-color="#161C20"/>
<stop offset="1" stop-color="#0A0D0F"/>
</linearGradient>
<linearGradient id="paint8_linear_10672_161608" x1="74.6309" y1="67.7542" x2="74.6309" y2="73.0781" gradientUnits="userSpaceOnUse">
<stop stop-color="#3B3D3F" stop-opacity="0.5"/>
<stop offset="1" stop-color="#3B3D3F" stop-opacity="0.89"/>
</linearGradient>
<linearGradient id="paint9_linear_10672_161608" x1="268.003" y1="124.94" x2="268.003" y2="198.604" gradientUnits="userSpaceOnUse">
<stop stop-color="#3B3D3F" stop-opacity="0.5"/>
<stop offset="1" stop-color="#3B3D3F" stop-opacity="0.89"/>
</linearGradient>
<linearGradient id="paint10_linear_10672_161608" x1="259.983" y1="62.0662" x2="260.035" y2="193.916" gradientUnits="userSpaceOnUse">
<stop stop-color="#1E1E1F" stop-opacity="0"/>
<stop offset="1" stop-color="#1E1E1F" stop-opacity="0.8"/>
</linearGradient>
<linearGradient id="paint11_linear_10672_161608" x1="255.003" y1="69.7617" x2="255.003" y2="190.991" gradientUnits="userSpaceOnUse">
<stop stop-color="#3B3D3F" stop-opacity="0.5"/>
<stop offset="1" stop-color="#3B3D3F" stop-opacity="0.8"/>
</linearGradient>
<linearGradient id="paint12_linear_10672_161608" x1="249.986" y1="76.3016" x2="250.031" y2="188.057" gradientUnits="userSpaceOnUse">
<stop stop-color="#1E1E1F" stop-opacity="0"/>
<stop offset="1" stop-color="#1E1E1F" stop-opacity="0.8"/>
</linearGradient>
<linearGradient id="paint13_linear_10672_161608" x1="244.678" y1="84.2695" x2="244.678" y2="185.27" gradientUnits="userSpaceOnUse">
<stop stop-color="#3B3D3F" stop-opacity="0.2"/>
<stop offset="1" stop-color="#3B3D3F" stop-opacity="0.4"/>
</linearGradient>
<linearGradient id="paint14_linear_10672_161608" x1="73.1074" y1="229.523" x2="73.1074" y2="277.523" gradientUnits="userSpaceOnUse">
<stop stop-color="#161C20"/>
<stop offset="1" stop-color="#0A0D0F"/>
</linearGradient>
<linearGradient id="paint15_linear_10672_161608" x1="73.1074" y1="253.507" x2="73.1074" y2="277.523" gradientUnits="userSpaceOnUse">
<stop stop-color="#3B3D3F" stop-opacity="0.5"/>
<stop offset="1" stop-color="#3B3D3F" stop-opacity="0.89"/>
</linearGradient>
<linearGradient id="paint16_linear_10672_161608" x1="314.92" y1="45.7578" x2="314.92" y2="93.7578" gradientUnits="userSpaceOnUse">
<stop stop-color="#161C20"/>
<stop offset="1" stop-color="#0A0D0F"/>
</linearGradient>
<linearGradient id="paint17_linear_10672_161608" x1="314.92" y1="69.7417" x2="314.92" y2="93.7578" gradientUnits="userSpaceOnUse">
<stop stop-color="#3B3D3F" stop-opacity="0.5"/>
<stop offset="1" stop-color="#3B3D3F" stop-opacity="0.89"/>
</linearGradient>
</defs>
</svg>
