<svg width="52" height="51" viewBox="0 0 52 51" fill="none" xmlns="http://www.w3.org/2000/svg">
<rect x="0.642926" y="0.467145" width="50.1076" height="50.1076" rx="14.1447" fill="#FEFEFE"/>
<rect x="0.642926" y="0.467145" width="50.1076" height="50.1076" rx="14.1447" stroke="#EBECEC" stroke-width="0.801477"/>
<g filter="url(#filter0_i_11814_92061)">
<rect x="2.96875" y="2.79688" width="45.4545" height="45.4545" rx="12.7273" fill="#F3F3F5"/>
<rect x="3.16912" y="2.99724" width="45.0538" height="45.0538" rx="12.5269" stroke="url(#paint0_linear_11814_92061)" stroke-width="0.400739"/>
</g>
<rect x="6.40074" y="5.81089" width="39.1985" height="39.1985" rx="10.5084" fill="#FEFEFE"/>
<rect x="6.40074" y="5.81089" width="39.1985" height="39.1985" rx="10.5084" stroke="#EBECEC" stroke-width="0.801477"/>
<path d="M24.1107 35.7764H28.5025M24.5499 25.2362H28.0633M26.3066 25.2362V30.5063M26.3066 15.2142V16.0926M17.8744 24.4457H16.9961M20.0703 18.2094L19.5432 17.6823M32.5429 18.2094L33.0701 17.6823M35.6171 24.4457H34.7387M28.9416 29.9146C31.0189 28.9278 32.455 26.8106 32.455 24.3579C32.455 20.9622 29.7023 18.2094 26.3066 18.2094C22.9109 18.2094 20.1581 20.9622 20.1581 24.3579C20.1581 26.8106 21.5943 28.9278 23.6715 29.9146V30.5063C23.6715 31.3248 23.6715 31.7341 23.8053 32.0569C23.9836 32.4874 24.3255 32.8293 24.756 33.0076C25.0788 33.1414 25.4881 33.1414 26.3066 33.1414C27.1251 33.1414 27.5344 33.1414 27.8572 33.0076C28.2876 32.8293 28.6296 32.4874 28.8079 32.0569C28.9416 31.7341 28.9416 31.3248 28.9416 30.5063V29.9146Z" stroke="#FF5500" stroke-width="0.909091" stroke-linecap="round" stroke-linejoin="round"/>
<defs>
<filter id="filter0_i_11814_92061" x="2.96875" y="2.79688" width="45.4551" height="46.2561" filterUnits="userSpaceOnUse" color-interpolation-filters="sRGB">
<feFlood flood-opacity="0" result="BackgroundImageFix"/>
<feBlend mode="normal" in="SourceGraphic" in2="BackgroundImageFix" result="shape"/>
<feColorMatrix in="SourceAlpha" type="matrix" values="0 0 0 0 0 0 0 0 0 0 0 0 0 0 0 0 0 0 127 0" result="hardAlpha"/>
<feOffset dy="0.801477"/>
<feGaussianBlur stdDeviation="1.20222"/>
<feComposite in2="hardAlpha" operator="arithmetic" k2="-1" k3="1"/>
<feColorMatrix type="matrix" values="0 0 0 0 0 0 0 0 0 0 0 0 0 0 0 0 0 0 0.15 0"/>
<feBlend mode="normal" in2="shape" result="effect1_innerShadow_11814_92061"/>
</filter>
<linearGradient id="paint0_linear_11814_92061" x1="25.696" y1="2.79687" x2="25.696" y2="48.2514" gradientUnits="userSpaceOnUse">
<stop stop-color="white" stop-opacity="0"/>
<stop offset="1" stop-color="white"/>
</linearGradient>
</defs>
</svg>
