<svg width="335" height="257" viewBox="0 0 335 257" fill="none" xmlns="http://www.w3.org/2000/svg">
<g clip-path="url(#clip0_9684_114034)">
<rect x="0.5" y="0.884277" width="334" height="255.485" rx="9.97015" fill="url(#paint0_linear_9684_114034)"/>
<mask id="mask0_9684_114034" style="mask-type:alpha" maskUnits="userSpaceOnUse" x="-14" y="0" width="357" height="270">
<rect x="-13.209" y="0.883545" width="355.435" height="268.814" fill="url(#paint1_radial_9684_114034)"/>
</mask>
<g mask="url(#mask0_9684_114034)">
<g opacity="0.1">
<path d="M251.893 -152.857L-89.3152 44.139" stroke="#3B3D3F" stroke-width="0.623134"/>
<path d="M264.355 -131.271L-76.8523 65.7249" stroke="#3B3D3F" stroke-width="0.623134"/>
<path d="M276.818 -109.685L-64.3894 87.3111" stroke="#3B3D3F" stroke-width="0.623134"/>
<path d="M289.281 -88.0994L-51.9265 108.897" stroke="#3B3D3F" stroke-width="0.623134"/>
<path d="M301.744 -66.5134L-39.4636 130.483" stroke="#3B3D3F" stroke-width="0.623134"/>
<path d="M314.205 -44.9275L-27.0027 152.069" stroke="#3B3D3F" stroke-width="0.623134"/>
<path d="M326.668 -23.3413L-14.5398 173.655" stroke="#3B3D3F" stroke-width="0.623134"/>
<path d="M339.131 -1.75537L-2.0769 195.241" stroke="#3B3D3F" stroke-width="0.623134"/>
<path d="M351.594 19.8306L10.386 216.827" stroke="#3B3D3F" stroke-width="0.623134"/>
<path d="M364.057 41.4167L22.8489 238.413" stroke="#3B3D3F" stroke-width="0.623134"/>
<path d="M376.52 63.0027L35.3118 259.999" stroke="#3B3D3F" stroke-width="0.623134"/>
<path d="M388.982 84.5886L47.7747 281.585" stroke="#3B3D3F" stroke-width="0.623134"/>
<path d="M401.445 106.175L60.2375 303.171" stroke="#3B3D3F" stroke-width="0.623134"/>
<path d="M413.908 127.761L72.7004 324.757" stroke="#3B3D3F" stroke-width="0.623134"/>
<path d="M426.371 149.347L85.1633 346.343" stroke="#3B3D3F" stroke-width="0.623134"/>
<path d="M438.832 170.933L97.6243 367.929" stroke="#3B3D3F" stroke-width="0.623134"/>
<g clip-path="url(#clip1_9684_114034)">
<rect x="268.156" y="-122.574" width="326.79" height="0.311567" transform="rotate(60 268.156 -122.574)" fill="#3B3D3F" stroke="#3B3D3F" stroke-width="0.311567"/>
<rect x="246.031" y="-109.799" width="326.79" height="0.311567" transform="rotate(60 246.031 -109.799)" fill="#3B3D3F" stroke="#3B3D3F" stroke-width="0.311567"/>
<rect x="223.904" y="-97.025" width="326.79" height="0.311567" transform="rotate(60 223.904 -97.025)" fill="#3B3D3F" stroke="#3B3D3F" stroke-width="0.311567"/>
<rect x="201.779" y="-84.2508" width="326.79" height="0.311567" transform="rotate(60 201.779 -84.2508)" fill="#3B3D3F" stroke="#3B3D3F" stroke-width="0.311567"/>
<rect x="179.654" y="-71.4766" width="326.79" height="0.311567" transform="rotate(60 179.654 -71.4766)" fill="#3B3D3F" stroke="#3B3D3F" stroke-width="0.311567"/>
<rect x="157.527" y="-58.7022" width="326.79" height="0.311567" transform="rotate(60 157.527 -58.7022)" fill="#3B3D3F" stroke="#3B3D3F" stroke-width="0.311567"/>
<rect x="135.402" y="-45.9281" width="326.79" height="0.311567" transform="rotate(60 135.402 -45.9281)" fill="#3B3D3F" stroke="#3B3D3F" stroke-width="0.311567"/>
<rect x="113.277" y="-33.1539" width="326.79" height="0.311567" transform="rotate(60 113.277 -33.1539)" fill="#3B3D3F" stroke="#3B3D3F" stroke-width="0.311567"/>
<rect x="91.15" y="-20.3795" width="326.79" height="0.311567" transform="rotate(60 91.15 -20.3795)" fill="#3B3D3F" stroke="#3B3D3F" stroke-width="0.311567"/>
<rect x="69.025" y="-7.60531" width="326.79" height="0.311567" transform="rotate(60 69.025 -7.60531)" fill="#3B3D3F" stroke="#3B3D3F" stroke-width="0.311567"/>
<rect x="46.9" y="5.16886" width="326.79" height="0.311567" transform="rotate(60 46.9 5.16886)" fill="#3B3D3F" stroke="#3B3D3F" stroke-width="0.311567"/>
<rect x="24.7731" y="17.9433" width="326.79" height="0.311567" transform="rotate(60 24.7731 17.9433)" fill="#3B3D3F" stroke="#3B3D3F" stroke-width="0.311567"/>
<rect x="2.64806" y="30.7174" width="326.79" height="0.311567" transform="rotate(60 2.64806 30.7174)" fill="#3B3D3F" stroke="#3B3D3F" stroke-width="0.311567"/>
<rect x="-19.4769" y="43.4916" width="326.79" height="0.311567" transform="rotate(60 -19.4769 43.4916)" fill="#3B3D3F" stroke="#3B3D3F" stroke-width="0.311567"/>
<rect x="-41.6039" y="56.266" width="326.79" height="0.311567" transform="rotate(60 -41.6039 56.266)" fill="#3B3D3F" stroke="#3B3D3F" stroke-width="0.311567"/>
</g>
</g>
</g>
<path d="M70.8496 144.827H86.4444C89.1976 144.827 91.4295 142.595 91.4295 139.842V100.585C91.4295 97.8315 93.6614 95.5996 96.4145 95.5996H147.842" stroke="#33373A" stroke-width="0.623134" stroke-linecap="round"/>
<path d="M147.842 194.678H96.0544C93.3012 194.678 91.0693 192.446 91.0693 189.693V149.812C91.0693 147.059 88.8374 144.827 86.0842 144.827H66.2112" stroke="#33373A" stroke-width="0.623134" stroke-linecap="round"/>
<rect x="36.5725" y="130.144" width="29.3671" height="29.3671" rx="4.71339" fill="url(#paint2_linear_9684_114034)"/>
<rect x="36.5725" y="130.144" width="29.3671" height="29.3671" rx="4.71339" stroke="url(#paint3_linear_9684_114034)" stroke-width="0.543375"/>
<g clip-path="url(#clip2_9684_114034)">
<mask id="mask1_9684_114034" style="mask-type:luminance" maskUnits="userSpaceOnUse" x="40" y="138" width="22" height="23">
<path d="M40.7383 138.03H61.7396V160.917H40.7383V138.03Z" fill="white"/>
</mask>
<g mask="url(#mask1_9684_114034)">
<path d="M47.9868 145.293L46.8819 144.605L46.905 145.656L48.01 146.343L47.9868 145.293ZM49.5785 148.97L49.5553 147.943L48.5895 147.34C48.574 147.332 48.5586 147.317 48.5508 147.309L48.574 148.345L49.5785 148.97ZM46.1246 150.354L43.598 148.785L43.5362 146.158L44.7725 145.625L44.7493 144.574L42.7712 145.424C42.6167 145.493 42.524 145.633 42.5317 145.795L42.609 148.947C42.609 149.11 42.7094 149.272 42.8639 149.365L45.8928 151.242C46.0319 151.327 46.2019 151.35 46.3487 151.312C46.3642 151.304 46.3796 151.304 46.3951 151.296L48.2572 150.493L47.245 149.867L46.1246 150.354Z" fill="#6DC28B"/>
</g>
<mask id="mask2_9684_114034" style="mask-type:luminance" maskUnits="userSpaceOnUse" x="40" y="138" width="22" height="23">
<path d="M40.7383 138.03H61.7396V160.917H40.7383V138.03Z" fill="white"/>
</mask>
<g mask="url(#mask2_9684_114034)">
<path d="M54.2902 144.544C54.2825 144.358 54.1743 144.165 53.9889 144.057L50.311 141.777L50.1951 141.824L50.2183 142.929L53.1312 144.737L53.2008 147.688L54.3134 148.376L54.3752 148.353L54.2902 144.544ZM49.886 149.728L46.4631 147.611L46.3781 144.057L47.9389 143.385L47.908 142.156L45.4895 143.199C45.3118 143.276 45.2036 143.439 45.2113 143.632L45.3118 147.804C45.3118 147.997 45.4277 148.183 45.6131 148.291L49.6233 150.779C49.7856 150.879 49.9865 150.91 50.1564 150.856C50.1719 150.849 50.1873 150.841 50.2028 150.841L52.5672 149.821L51.3927 149.095L49.886 149.728Z" fill="#6DC28B"/>
</g>
<mask id="mask3_9684_114034" style="mask-type:luminance" maskUnits="userSpaceOnUse" x="40" y="138" width="22" height="23">
<path d="M40.7383 138.03H61.7396V160.917H40.7383V138.03Z" fill="white"/>
</mask>
<g mask="url(#mask3_9684_114034)">
<path d="M59.5076 141.623L54.3693 138.439C54.1762 138.324 53.9521 138.293 53.7589 138.354C53.7435 138.362 53.7203 138.37 53.7048 138.378L48.6902 140.541C48.4893 140.626 48.3657 140.812 48.3734 141.036L48.497 146.383C48.5047 146.599 48.6361 146.815 48.8447 146.939L53.983 150.122C54.1684 150.238 54.4002 150.269 54.5934 150.207C54.6089 150.2 54.632 150.192 54.6475 150.184L59.6622 148.021C59.8631 147.936 59.9867 147.742 59.979 147.526L59.8553 142.179C59.8476 141.963 59.7162 141.754 59.5076 141.623ZM54.2843 148.925L49.8183 146.158L49.7101 141.515L54.068 139.637L58.5341 142.403L58.6422 147.047L54.2843 148.925Z" fill="#6DC28B"/>
</g>
</g>
<rect x="148.113" y="79.6706" width="29.3671" height="29.3671" rx="4.71339" fill="url(#paint4_linear_9684_114034)"/>
<rect x="148.113" y="79.6706" width="29.3671" height="29.3671" rx="4.71339" stroke="url(#paint5_linear_9684_114034)" stroke-width="0.543375"/>
<g clip-path="url(#clip3_9684_114034)">
<mask id="mask4_9684_114034" style="mask-type:luminance" maskUnits="userSpaceOnUse" x="152" y="87" width="22" height="24">
<path d="M152.279 87.5596H173.281V110.446H152.279V87.5596Z" fill="white"/>
</mask>
<g mask="url(#mask4_9684_114034)">
<path d="M159.528 94.8216L158.423 94.1339L158.446 95.1848L159.551 95.8725L159.528 94.8216ZM161.12 98.4995L161.096 97.4719L160.13 96.8692C160.115 96.8615 160.1 96.846 160.092 96.8383L160.115 97.8737L161.12 98.4995ZM157.666 99.8826L155.139 98.3141L155.077 95.687L156.313 95.1539L156.29 94.103L154.312 94.953C154.158 95.0225 154.065 95.1616 154.073 95.3239L154.15 98.4764C154.15 98.6386 154.25 98.8009 154.405 98.8936L157.434 100.771C157.573 100.856 157.743 100.879 157.89 100.841C157.905 100.833 157.921 100.833 157.936 100.825L159.798 100.022L158.786 99.3958L157.666 99.8826Z" fill="white"/>
</g>
<mask id="mask5_9684_114034" style="mask-type:luminance" maskUnits="userSpaceOnUse" x="152" y="87" width="22" height="24">
<path d="M152.279 87.5596H173.281V110.446H152.279V87.5596Z" fill="white"/>
</mask>
<g mask="url(#mask5_9684_114034)">
<path d="M165.831 94.0723C165.824 93.8869 165.715 93.6937 165.53 93.5855L161.852 91.3062L161.736 91.3525L161.759 92.4574L164.672 94.2655L164.742 97.2171L165.854 97.9048L165.916 97.8816L165.831 94.0723ZM161.427 99.257L158.004 97.1398L157.919 93.5855L159.48 92.9133L159.449 91.6848L157.031 92.7279C156.853 92.8051 156.745 92.9674 156.752 93.1606L156.853 97.333C156.853 97.5262 156.969 97.7116 157.154 97.8198L161.164 100.308C161.327 100.408 161.527 100.439 161.697 100.385C161.713 100.377 161.728 100.37 161.744 100.37L164.108 99.3497L162.934 98.6234L161.427 99.257Z" fill="white"/>
</g>
<mask id="mask6_9684_114034" style="mask-type:luminance" maskUnits="userSpaceOnUse" x="152" y="87" width="22" height="24">
<path d="M152.279 87.5596H173.281V110.446H152.279V87.5596Z" fill="white"/>
</mask>
<g mask="url(#mask6_9684_114034)">
<path d="M171.047 91.1519L165.908 87.9685C165.715 87.8526 165.491 87.8217 165.298 87.8835C165.283 87.8912 165.259 87.8989 165.244 87.9067L160.229 90.0702C160.028 90.1552 159.905 90.3406 159.912 90.5647L160.036 95.9116C160.044 96.1279 160.175 96.3443 160.384 96.4679L165.522 99.6513C165.708 99.7672 165.939 99.7981 166.132 99.7363C166.148 99.7286 166.171 99.7209 166.187 99.7131L171.201 97.5496C171.402 97.4647 171.526 97.2715 171.518 97.0551L171.394 91.7082C171.387 91.4919 171.255 91.2833 171.047 91.1519ZM165.823 98.4537L161.357 95.6875L161.249 91.0437L165.607 89.1661L170.073 91.9323L170.181 96.5761L165.823 98.4537Z" fill="white"/>
</g>
</g>
<rect x="148.113" y="180.618" width="29.3671" height="29.3671" rx="4.71339" fill="url(#paint6_linear_9684_114034)"/>
<rect x="148.113" y="180.618" width="29.3671" height="29.3671" rx="4.71339" stroke="url(#paint7_linear_9684_114034)" stroke-width="0.543375"/>
<g clip-path="url(#clip4_9684_114034)">
<mask id="mask7_9684_114034" style="mask-type:luminance" maskUnits="userSpaceOnUse" x="152" y="188" width="22" height="24">
<path d="M152.279 188.502H173.281V211.389H152.279V188.502Z" fill="white"/>
</mask>
<g mask="url(#mask7_9684_114034)">
<path d="M159.528 195.765L158.423 195.078L158.446 196.129L159.551 196.816L159.528 195.765ZM161.12 199.443L161.096 198.416L160.13 197.813C160.115 197.805 160.1 197.79 160.092 197.782L160.115 198.818L161.12 199.443ZM157.666 200.826L155.139 199.258L155.077 196.631L156.313 196.098L156.29 195.047L154.312 195.897C154.158 195.966 154.065 196.105 154.073 196.268L154.15 199.42C154.15 199.582 154.25 199.745 154.405 199.837L157.434 201.715C157.573 201.8 157.743 201.823 157.89 201.785C157.905 201.777 157.921 201.777 157.936 201.769L159.798 200.966L158.786 200.34L157.666 200.826Z" fill="white"/>
</g>
<mask id="mask8_9684_114034" style="mask-type:luminance" maskUnits="userSpaceOnUse" x="152" y="188" width="22" height="24">
<path d="M152.279 188.502H173.281V211.389H152.279V188.502Z" fill="white"/>
</mask>
<g mask="url(#mask8_9684_114034)">
<path d="M165.831 195.016C165.824 194.831 165.715 194.638 165.53 194.529L161.852 192.25L161.736 192.296L161.759 193.401L164.672 195.209L164.742 198.161L165.854 198.849L165.916 198.825L165.831 195.016ZM161.427 200.201L158.004 198.084L157.919 194.529L159.48 193.857L159.449 192.629L157.031 193.672C156.853 193.749 156.745 193.911 156.752 194.104L156.853 198.277C156.853 198.47 156.969 198.655 157.154 198.764L161.164 201.252C161.327 201.352 161.527 201.383 161.697 201.329C161.713 201.321 161.728 201.313 161.744 201.313L164.108 200.294L162.934 199.567L161.427 200.201Z" fill="white"/>
</g>
<mask id="mask9_9684_114034" style="mask-type:luminance" maskUnits="userSpaceOnUse" x="152" y="188" width="22" height="24">
<path d="M152.279 188.502H173.281V211.389H152.279V188.502Z" fill="white"/>
</mask>
<g mask="url(#mask9_9684_114034)">
<path d="M171.047 192.096L165.908 188.912C165.715 188.796 165.491 188.766 165.298 188.827C165.283 188.835 165.259 188.843 165.244 188.851L160.229 191.014C160.028 191.099 159.905 191.284 159.912 191.509L160.036 196.855C160.044 197.072 160.175 197.288 160.384 197.412L165.522 200.595C165.708 200.711 165.939 200.742 166.132 200.68C166.148 200.672 166.171 200.665 166.187 200.657L171.201 198.493C171.402 198.408 171.526 198.215 171.518 197.999L171.394 192.652C171.387 192.436 171.255 192.227 171.047 192.096ZM165.823 199.398L161.357 196.631L161.249 191.988L165.607 190.11L170.073 192.876L170.181 197.52L165.823 199.398Z" fill="white"/>
</g>
</g>
<path d="M259.383 73.0996H203.363C200.61 73.0996 198.378 75.3315 198.378 78.0847V90.5474C198.378 93.3006 196.146 95.5325 193.393 95.5325H177.282" stroke="#33373A" stroke-width="0.623134" stroke-linecap="round"/>
<path d="M259.383 117.965H203.363C200.61 117.965 198.378 115.733 198.378 112.98V100.518C198.378 97.7644 196.146 95.5325 193.393 95.5325H177.282" stroke="#33373A" stroke-width="0.623134" stroke-linecap="round"/>
<path d="M259.383 218.358H203.718C200.965 218.358 198.733 216.126 198.733 213.373V201.046C198.733 198.293 196.501 196.061 193.748 196.061H177.761" stroke="#33373A" stroke-width="0.623134" stroke-linecap="round"/>
<path d="M259.373 173.629H203.709C200.955 173.629 198.724 175.86 198.724 178.614V190.94C198.724 193.693 196.492 195.925 193.738 195.925H177.751" stroke="#33373A" stroke-width="0.623134" stroke-linecap="round"/>
<rect x="259.655" y="58.4841" width="29.3671" height="29.3671" rx="4.71339" fill="url(#paint8_linear_9684_114034)"/>
<rect x="259.655" y="58.4841" width="29.3671" height="29.3671" rx="4.71339" stroke="url(#paint9_linear_9684_114034)" stroke-width="0.543375"/>
<path fill-rule="evenodd" clip-rule="evenodd" d="M268.202 66.9353C267.571 66.9353 267.06 67.4468 267.06 68.0777V76.1735H281.428V68.0777C281.428 67.4468 280.917 66.9353 280.286 66.9353H268.202ZM283.024 78.2249C283.024 77.9095 282.769 77.6538 282.454 77.6536H266.032C265.717 77.6536 265.461 77.9094 265.461 78.2249C265.461 78.5403 265.717 78.7961 266.032 78.7961H282.454C282.769 78.7959 283.024 78.5402 283.024 78.2249Z" fill="white"/>
<rect x="259.694" y="102.766" width="29.2873" height="29.2873" rx="4.67351" fill="url(#paint10_linear_9684_114034)"/>
<rect x="259.694" y="102.766" width="29.2873" height="29.2873" rx="4.67351" stroke="url(#paint11_linear_9684_114034)" stroke-width="0.623134"/>
<path d="M274.338 122.305V124.264" stroke="white" stroke-width="1.06823" stroke-linecap="round"/>
<path d="M269.443 124.265H279.235" stroke="white" stroke-width="1.06823" stroke-linecap="round"/>
<rect x="266.504" y="110.556" width="15.6674" height="10.7713" rx="1.06823" fill="white"/>
<rect x="259.694" y="203.091" width="29.2873" height="29.2873" rx="4.67351" fill="url(#paint12_linear_9684_114034)"/>
<rect x="259.694" y="203.091" width="29.2873" height="29.2873" rx="4.67351" stroke="url(#paint13_linear_9684_114034)" stroke-width="0.623134"/>
<path d="M274.338 222.63V224.588" stroke="white" stroke-width="1.06823" stroke-linecap="round"/>
<path d="M269.443 224.589H279.235" stroke="white" stroke-width="1.06823" stroke-linecap="round"/>
<rect x="266.504" y="210.88" width="15.6674" height="10.7713" rx="1.06823" fill="white"/>
<rect x="259.655" y="158.186" width="29.3671" height="29.3671" rx="4.71339" fill="url(#paint14_linear_9684_114034)"/>
<rect x="259.655" y="158.186" width="29.3671" height="29.3671" rx="4.71339" stroke="url(#paint15_linear_9684_114034)" stroke-width="0.543375"/>
<path fill-rule="evenodd" clip-rule="evenodd" d="M268.206 166.637C267.575 166.637 267.063 167.149 267.063 167.78V175.876H281.432V167.78C281.432 167.149 280.921 166.637 280.29 166.637H268.206ZM283.028 177.927C283.028 177.612 282.773 177.356 282.458 177.356H266.036C265.721 177.356 265.465 177.612 265.465 177.927C265.465 178.242 265.721 178.498 266.036 178.498H282.458C282.773 178.498 283.028 178.242 283.028 177.927Z" fill="white"/>
<path d="M56.3972 32.888C56.4737 32.9789 56.5225 33.0897 56.5381 33.2074C56.5537 33.3251 56.5353 33.4448 56.4852 33.5524C56.435 33.66 56.3551 33.7511 56.255 33.8148C56.1548 33.8786 56.0385 33.9124 55.9197 33.9123H42.8339C42.7153 33.9122 42.5991 33.8783 42.499 33.8145C42.3989 33.7507 42.3192 33.6596 42.2691 33.5521C42.2191 33.4445 42.2007 33.3248 42.2164 33.2072C42.232 33.0895 42.2808 32.9788 42.3572 32.888C43.5209 31.5031 44.9682 30.5193 46.5766 29.9928C45.5998 29.3843 44.8477 28.4743 44.4341 27.4004C44.0205 26.3265 43.9679 25.1471 44.2843 24.0406C44.6007 22.9341 45.2689 21.9608 46.1877 21.2679C47.1065 20.575 48.226 20.2002 49.3768 20.2002C50.5277 20.2002 51.6472 20.575 52.566 21.2679C53.4848 21.9608 54.153 22.9341 54.4694 24.0406C54.7858 25.1471 54.7332 26.3265 54.3196 27.4004C53.906 28.4743 53.1539 29.3843 52.177 29.9928C53.7855 30.5193 55.2327 31.5031 56.3972 32.888ZM60.2178 29.7061C60.163 29.801 60.0842 29.8797 59.9893 29.9344C59.8944 29.9891 59.7868 30.0178 59.6772 30.0177C59.5678 30.018 59.4603 29.9892 59.3657 29.9343L59.0019 29.724C58.8278 29.8734 58.6277 29.9893 58.4115 30.066V30.485C58.4115 30.6503 58.3459 30.8088 58.229 30.9256C58.1121 31.0425 57.9536 31.1082 57.7884 31.1082C57.6231 31.1082 57.4646 31.0425 57.3477 30.9256C57.2309 30.8088 57.1652 30.6503 57.1652 30.485V30.066C56.9491 29.9893 56.7489 29.8734 56.5748 29.724L56.2111 29.9343C56.1164 29.9892 56.0089 30.018 55.8995 30.0177C55.7623 30.0177 55.6289 29.9725 55.52 29.889C55.4111 29.8055 55.3329 29.6883 55.2973 29.5558C55.2618 29.4233 55.2711 29.2827 55.3236 29.1559C55.3762 29.0292 55.4691 28.9233 55.5879 28.8548L55.9509 28.6452C55.9083 28.4198 55.9083 28.1883 55.9509 27.9629L55.5879 27.7534C55.517 27.7124 55.4549 27.658 55.4051 27.593C55.3552 27.5281 55.3187 27.454 55.2975 27.3749C55.2763 27.2959 55.2709 27.2134 55.2816 27.1323C55.2922 27.0511 55.3188 26.9729 55.3597 26.902C55.4006 26.8311 55.4551 26.769 55.52 26.7192C55.585 26.6693 55.6591 26.6328 55.7381 26.6116C55.8172 26.5904 55.8996 26.585 55.9808 26.5956C56.0619 26.6063 56.1402 26.6329 56.2111 26.6738L56.5748 26.8841C56.7489 26.7347 56.9491 26.6188 57.1652 26.5421V26.1231C57.1652 25.9578 57.2309 25.7993 57.3477 25.6825C57.4646 25.5656 57.6231 25.5 57.7884 25.5C57.9536 25.5 58.1121 25.5656 58.229 25.6825C58.3459 25.7993 58.4115 25.9578 58.4115 26.1231V26.5421C58.6277 26.6188 58.8278 26.7347 59.0019 26.8841L59.3657 26.6738C59.4366 26.6329 59.5148 26.6063 59.596 26.5956C59.6771 26.585 59.7596 26.5904 59.8386 26.6116C59.9177 26.6328 59.9918 26.6693 60.0567 26.7192C60.1216 26.769 60.1761 26.8311 60.217 26.902C60.258 26.9729 60.2845 27.0511 60.2952 27.1323C60.3059 27.2134 60.3004 27.2959 60.2792 27.3749C60.2581 27.454 60.2215 27.5281 60.1717 27.593C60.1218 27.658 60.0597 27.7124 59.9888 27.7534L59.6258 27.9629C59.6684 28.1883 59.6684 28.4198 59.6258 28.6452L59.9888 28.8548C60.0598 28.8956 60.122 28.95 60.1719 29.0149C60.2218 29.0798 60.2585 29.1539 60.2797 29.233C60.301 29.312 60.3065 29.3945 60.2959 29.4757C60.2852 29.5569 60.2587 29.6352 60.2178 29.7061ZM57.7892 28.9272C57.9124 28.9272 58.0329 28.8906 58.1353 28.8222C58.2378 28.7537 58.3177 28.6564 58.3649 28.5425C58.412 28.4287 58.4244 28.3034 58.4003 28.1825C58.3763 28.0616 58.3169 27.9506 58.2298 27.8634C58.1426 27.7763 58.0316 27.7169 57.9107 27.6929C57.7898 27.6689 57.6646 27.6812 57.5507 27.7284C57.4368 27.7755 57.3395 27.8554 57.271 27.9579C57.2026 28.0603 57.166 28.1808 57.166 28.3041C57.166 28.4693 57.2317 28.6278 57.3485 28.7447C57.4654 28.8615 57.6239 28.9272 57.7892 28.9272Z" fill="#9D9E9F"/>
<path d="M45.5075 29.7079C46.5942 30.7105 48.025 31.2531 49.5011 31.2218C50.9772 31.1905 52.3839 30.5877 53.4273 29.5399" stroke="#151B1E" stroke-width="0.934701"/>
<path d="M19.3659 44.015C19.3659 44.3684 19.2825 44.7017 19.1159 45.015C18.9492 45.3284 18.6825 45.585 18.3159 45.785C17.9492 45.9784 17.4792 46.075 16.9059 46.075H15.6459V48.895H14.5059V41.945H16.9059C17.4392 41.945 17.8892 42.0384 18.2559 42.225C18.6292 42.405 18.9059 42.6517 19.0859 42.965C19.2725 43.2784 19.3659 43.6284 19.3659 44.015ZM16.9059 45.145C17.3392 45.145 17.6625 45.0484 17.8759 44.855C18.0892 44.655 18.1959 44.375 18.1959 44.015C18.1959 43.255 17.7659 42.875 16.9059 42.875H15.6459V45.145H16.9059ZM21.5931 41.495V48.895H20.4531V41.495H21.5931ZM22.7098 46.115C22.7098 45.5617 22.8232 45.0717 23.0498 44.645C23.2832 44.2184 23.5965 43.8884 23.9898 43.655C24.3898 43.415 24.8298 43.295 25.3098 43.295C25.7432 43.295 26.1198 43.3817 26.4398 43.555C26.7665 43.7217 27.0265 43.9317 27.2198 44.185V43.385H28.3698V48.895H27.2198V48.075C27.0265 48.335 26.7632 48.5517 26.4298 48.725C26.0965 48.8984 25.7165 48.985 25.2898 48.985C24.8165 48.985 24.3832 48.865 23.9898 48.625C23.5965 48.3784 23.2832 48.0384 23.0498 47.605C22.8232 47.165 22.7098 46.6684 22.7098 46.115ZM27.2198 46.135C27.2198 45.755 27.1398 45.425 26.9798 45.145C26.8265 44.865 26.6232 44.6517 26.3698 44.505C26.1165 44.3584 25.8432 44.285 25.5498 44.285C25.2565 44.285 24.9832 44.3584 24.7298 44.505C24.4765 44.645 24.2698 44.855 24.1098 45.135C23.9565 45.4084 23.8798 45.735 23.8798 46.115C23.8798 46.495 23.9565 46.8284 24.1098 47.115C24.2698 47.4017 24.4765 47.6217 24.7298 47.775C24.9898 47.9217 25.2632 47.995 25.5498 47.995C25.8432 47.995 26.1165 47.9217 26.3698 47.775C26.6232 47.6284 26.8265 47.415 26.9798 47.135C27.1398 46.8484 27.2198 46.515 27.2198 46.135ZM31.1972 44.315V47.365C31.1972 47.5717 31.2439 47.7217 31.3372 47.815C31.4372 47.9017 31.6039 47.945 31.8372 47.945H32.5372V48.895H31.6372C31.1239 48.895 30.7305 48.775 30.4572 48.535C30.1839 48.295 30.0472 47.905 30.0472 47.365V44.315H29.3972V43.385H30.0472V42.015H31.1972V43.385H32.5372V44.315H31.1972ZM35.8979 44.315H34.8779V48.895H33.7279V44.315H33.0779V43.385H33.7279V42.995C33.7279 42.3617 33.8946 41.9017 34.2279 41.615C34.5679 41.3217 35.0979 41.175 35.8179 41.175V42.125C35.4712 42.125 35.2279 42.1917 35.0879 42.325C34.9479 42.4517 34.8779 42.675 34.8779 42.995V43.385H35.8979V44.315ZM39.2982 48.985C38.7782 48.985 38.3082 48.8684 37.8882 48.635C37.4682 48.395 37.1382 48.0617 36.8982 47.635C36.6582 47.2017 36.5382 46.7017 36.5382 46.135C36.5382 45.575 36.6615 45.0784 36.9082 44.645C37.1549 44.2117 37.4915 43.8784 37.9182 43.645C38.3449 43.4117 38.8215 43.295 39.3482 43.295C39.8749 43.295 40.3515 43.4117 40.7782 43.645C41.2049 43.8784 41.5415 44.2117 41.7882 44.645C42.0349 45.0784 42.1582 45.575 42.1582 46.135C42.1582 46.695 42.0315 47.1917 41.7782 47.625C41.5249 48.0584 41.1782 48.395 40.7382 48.635C40.3049 48.8684 39.8249 48.985 39.2982 48.985ZM39.2982 47.995C39.5915 47.995 39.8649 47.925 40.1182 47.785C40.3782 47.645 40.5882 47.435 40.7482 47.155C40.9082 46.875 40.9882 46.535 40.9882 46.135C40.9882 45.735 40.9115 45.3984 40.7582 45.125C40.6049 44.845 40.4015 44.635 40.1482 44.495C39.8949 44.355 39.6215 44.285 39.3282 44.285C39.0349 44.285 38.7615 44.355 38.5082 44.495C38.2615 44.635 38.0649 44.845 37.9182 45.125C37.7715 45.3984 37.6982 45.735 37.6982 46.135C37.6982 46.7284 37.8482 47.1884 38.1482 47.515C38.4549 47.835 38.8382 47.995 39.2982 47.995ZM44.4252 44.185C44.5918 43.905 44.8118 43.6884 45.0852 43.535C45.3652 43.375 45.6952 43.295 46.0752 43.295V44.475H45.7852C45.3385 44.475 44.9985 44.5884 44.7652 44.815C44.5385 45.0417 44.4252 45.435 44.4252 45.995V48.895H43.2852V43.385H44.4252V44.185ZM53.793 43.295C54.2264 43.295 54.613 43.385 54.953 43.565C55.2997 43.745 55.5697 44.0117 55.763 44.365C55.963 44.7184 56.063 45.145 56.063 45.645V48.895H54.933V45.815C54.933 45.3217 54.8097 44.945 54.563 44.685C54.3164 44.4184 53.9797 44.285 53.553 44.285C53.1264 44.285 52.7864 44.4184 52.533 44.685C52.2864 44.945 52.163 45.3217 52.163 45.815V48.895H51.033V45.815C51.033 45.3217 50.9097 44.945 50.663 44.685C50.4164 44.4184 50.0797 44.285 49.653 44.285C49.2264 44.285 48.8864 44.4184 48.633 44.685C48.3864 44.945 48.263 45.3217 48.263 45.815V48.895H47.123V43.385H48.263V44.015C48.4497 43.7884 48.6864 43.6117 48.973 43.485C49.2597 43.3584 49.5664 43.295 49.893 43.295C50.333 43.295 50.7264 43.3884 51.073 43.575C51.4197 43.7617 51.6864 44.0317 51.873 44.385C52.0397 44.0517 52.2997 43.7884 52.653 43.595C53.0064 43.395 53.3864 43.295 53.793 43.295ZM64.6013 41.945V42.875H62.7513V48.895H61.6113V42.875H59.7513V41.945H64.6013ZM70.8059 46.005C70.8059 46.2117 70.7925 46.3984 70.7659 46.565H66.5559C66.5892 47.005 66.7525 47.3584 67.0459 47.625C67.3392 47.8917 67.6992 48.025 68.1259 48.025C68.7392 48.025 69.1725 47.7684 69.4259 47.255H70.6559C70.4892 47.7617 70.1859 48.1784 69.7459 48.505C69.3125 48.825 68.7725 48.985 68.1259 48.985C67.5992 48.985 67.1259 48.8684 66.7059 48.635C66.2925 48.395 65.9659 48.0617 65.7259 47.635C65.4925 47.2017 65.3759 46.7017 65.3759 46.135C65.3759 45.5684 65.4892 45.0717 65.7159 44.645C65.9492 44.2117 66.2725 43.8784 66.6859 43.645C67.1059 43.4117 67.5859 43.295 68.1259 43.295C68.6459 43.295 69.1092 43.4084 69.5159 43.635C69.9225 43.8617 70.2392 44.1817 70.4659 44.595C70.6925 45.0017 70.8059 45.4717 70.8059 46.005ZM69.6159 45.645C69.6092 45.225 69.4592 44.8884 69.1659 44.635C68.8725 44.3817 68.5092 44.255 68.0759 44.255C67.6825 44.255 67.3459 44.3817 67.0659 44.635C66.7859 44.8817 66.6192 45.2184 66.5659 45.645H69.6159ZM71.5477 46.115C71.5477 45.5617 71.6611 45.0717 71.8877 44.645C72.1211 44.2184 72.4344 43.8884 72.8277 43.655C73.2277 43.415 73.6677 43.295 74.1477 43.295C74.5811 43.295 74.9577 43.3817 75.2777 43.555C75.6044 43.7217 75.8644 43.9317 76.0577 44.185V43.385H77.2077V48.895H76.0577V48.075C75.8644 48.335 75.6011 48.5517 75.2677 48.725C74.9344 48.8984 74.5544 48.985 74.1277 48.985C73.6544 48.985 73.2211 48.865 72.8277 48.625C72.4344 48.3784 72.1211 48.0384 71.8877 47.605C71.6611 47.165 71.5477 46.6684 71.5477 46.115ZM76.0577 46.135C76.0577 45.755 75.9777 45.425 75.8177 45.145C75.6644 44.865 75.4611 44.6517 75.2077 44.505C74.9544 44.3584 74.6811 44.285 74.3877 44.285C74.0944 44.285 73.8211 44.3584 73.5677 44.505C73.3144 44.645 73.1077 44.855 72.9477 45.135C72.7944 45.4084 72.7177 45.735 72.7177 46.115C72.7177 46.495 72.7944 46.8284 72.9477 47.115C73.1077 47.4017 73.3144 47.6217 73.5677 47.775C73.8277 47.9217 74.1011 47.995 74.3877 47.995C74.6811 47.995 74.9544 47.9217 75.2077 47.775C75.4611 47.6284 75.6644 47.415 75.8177 47.135C75.9777 46.8484 76.0577 46.515 76.0577 46.135ZM85.3751 43.295C85.8084 43.295 86.1951 43.385 86.5351 43.565C86.8817 43.745 87.1517 44.0117 87.3451 44.365C87.5451 44.7184 87.6451 45.145 87.6451 45.645V48.895H86.5151V45.815C86.5151 45.3217 86.3917 44.945 86.1451 44.685C85.8984 44.4184 85.5617 44.285 85.1351 44.285C84.7084 44.285 84.3684 44.4184 84.1151 44.685C83.8684 44.945 83.7451 45.3217 83.7451 45.815V48.895H82.6151V45.815C82.6151 45.3217 82.4917 44.945 82.2451 44.685C81.9984 44.4184 81.6617 44.285 81.2351 44.285C80.8084 44.285 80.4684 44.4184 80.2151 44.685C79.9684 44.945 79.8451 45.3217 79.8451 45.815V48.895H78.7051V43.385H79.8451V44.015C80.0317 43.7884 80.2684 43.6117 80.5551 43.485C80.8417 43.3584 81.1484 43.295 81.4751 43.295C81.9151 43.295 82.3084 43.3884 82.6551 43.575C83.0017 43.7617 83.2684 44.0317 83.4551 44.385C83.6217 44.0517 83.8817 43.7884 84.2351 43.595C84.5884 43.395 84.9684 43.295 85.3751 43.295Z" fill="#9D9E9F"/>
<path d="M158.421 25.784C158.757 26.7211 159.385 27.525 160.212 28.0768H165.343C166.17 27.525 166.798 26.7211 167.134 25.784C167.47 24.847 167.496 23.8264 167.208 22.8734C166.921 21.9203 166.335 21.0853 165.537 20.4918C164.739 19.8983 163.771 19.5779 162.777 19.5779C161.784 19.5779 160.816 19.8983 160.018 20.4918C159.22 21.0853 158.634 21.9203 158.347 22.8734C158.059 23.8264 158.085 24.847 158.421 25.784Z" fill="#9D9E9F"/>
<path d="M156.835 25.949L157.149 31.9274C157.167 32.2584 157.44 32.5178 157.771 32.5178H167.972C168.303 32.5178 168.577 32.2584 168.594 31.9274L168.908 25.949C168.927 25.5925 168.643 25.2932 168.286 25.2932H157.458C157.101 25.2932 156.817 25.5925 156.835 25.949Z" fill="#151B1E"/>
<path d="M155.915 26.8016L156.557 32.7018C156.592 33.0179 156.859 33.2575 157.177 33.2575H168.677C168.995 33.2575 169.262 33.0178 169.296 32.7015L169.936 26.8014C169.976 26.4328 169.687 26.1111 169.316 26.1111H156.534C156.164 26.1111 155.875 26.433 155.915 26.8016Z" fill="#9D9E9F"/>
<ellipse cx="162.93" cy="29.7069" rx="0.877592" ry="0.879307" fill="#151B1F"/>
<path d="M155.318 34.5332H170.274" stroke="#9D9E9F" stroke-width="0.729604" stroke-linecap="round"/>
<path d="M138.737 47.475H135.827L135.327 48.895H134.137L136.627 41.935H137.947L140.437 48.895H139.237L138.737 47.475ZM138.417 46.545L137.287 43.315L136.147 46.545H138.417ZM142.66 44.195C142.853 43.9417 143.116 43.7284 143.45 43.555C143.783 43.3817 144.16 43.295 144.58 43.295C145.06 43.295 145.496 43.415 145.89 43.655C146.29 43.8884 146.603 44.2184 146.83 44.645C147.056 45.0717 147.17 45.5617 147.17 46.115C147.17 46.6684 147.056 47.165 146.83 47.605C146.603 48.0384 146.29 48.3784 145.89 48.625C145.496 48.865 145.06 48.985 144.58 48.985C144.16 48.985 143.786 48.9017 143.46 48.735C143.133 48.5617 142.866 48.3484 142.66 48.095V51.515H141.52V43.385H142.66V44.195ZM146.01 46.115C146.01 45.735 145.93 45.4084 145.77 45.135C145.616 44.855 145.41 44.645 145.15 44.505C144.896 44.3584 144.623 44.285 144.33 44.285C144.043 44.285 143.77 44.3584 143.51 44.505C143.256 44.6517 143.05 44.865 142.89 45.145C142.736 45.425 142.66 45.755 142.66 46.135C142.66 46.515 142.736 46.8484 142.89 47.135C143.05 47.415 143.256 47.6284 143.51 47.775C143.77 47.9217 144.043 47.995 144.33 47.995C144.623 47.995 144.896 47.9217 145.15 47.775C145.41 47.6217 145.616 47.4017 145.77 47.115C145.93 46.8284 146.01 46.495 146.01 46.115ZM149.437 44.195C149.63 43.9417 149.894 43.7284 150.227 43.555C150.56 43.3817 150.937 43.295 151.357 43.295C151.837 43.295 152.274 43.415 152.667 43.655C153.067 43.8884 153.38 44.2184 153.607 44.645C153.834 45.0717 153.947 45.5617 153.947 46.115C153.947 46.6684 153.834 47.165 153.607 47.605C153.38 48.0384 153.067 48.3784 152.667 48.625C152.274 48.865 151.837 48.985 151.357 48.985C150.937 48.985 150.564 48.9017 150.237 48.735C149.91 48.5617 149.644 48.3484 149.437 48.095V51.515H148.297V43.385H149.437V44.195ZM152.787 46.115C152.787 45.735 152.707 45.4084 152.547 45.135C152.394 44.855 152.187 44.645 151.927 44.505C151.674 44.3584 151.4 44.285 151.107 44.285C150.82 44.285 150.547 44.3584 150.287 44.505C150.034 44.6517 149.827 44.865 149.667 45.145C149.514 45.425 149.437 45.755 149.437 46.135C149.437 46.515 149.514 46.8484 149.667 47.135C149.827 47.415 150.034 47.6284 150.287 47.775C150.547 47.9217 150.82 47.995 151.107 47.995C151.4 47.995 151.674 47.9217 151.927 47.775C152.187 47.6217 152.394 47.4017 152.547 47.115C152.707 46.8284 152.787 46.495 152.787 46.115ZM162.162 41.945V42.875H160.312V48.895H159.172V42.875H157.312V41.945H162.162ZM168.366 46.005C168.366 46.2117 168.353 46.3984 168.326 46.565H164.116C164.15 47.005 164.313 47.3584 164.606 47.625C164.9 47.8917 165.26 48.025 165.686 48.025C166.3 48.025 166.733 47.7684 166.986 47.255H168.216C168.05 47.7617 167.746 48.1784 167.306 48.505C166.873 48.825 166.333 48.985 165.686 48.985C165.16 48.985 164.686 48.8684 164.266 48.635C163.853 48.395 163.526 48.0617 163.286 47.635C163.053 47.2017 162.936 46.7017 162.936 46.135C162.936 45.5684 163.05 45.0717 163.276 44.645C163.51 44.2117 163.833 43.8784 164.246 43.645C164.666 43.4117 165.146 43.295 165.686 43.295C166.206 43.295 166.67 43.4084 167.076 43.635C167.483 43.8617 167.8 44.1817 168.026 44.595C168.253 45.0017 168.366 45.4717 168.366 46.005ZM167.176 45.645C167.17 45.225 167.02 44.8884 166.726 44.635C166.433 44.3817 166.07 44.255 165.636 44.255C165.243 44.255 164.906 44.3817 164.626 44.635C164.346 44.8817 164.18 45.2184 164.126 45.645H167.176ZM169.108 46.115C169.108 45.5617 169.222 45.0717 169.448 44.645C169.682 44.2184 169.995 43.8884 170.388 43.655C170.788 43.415 171.228 43.295 171.708 43.295C172.142 43.295 172.518 43.3817 172.838 43.555C173.165 43.7217 173.425 43.9317 173.618 44.185V43.385H174.768V48.895H173.618V48.075C173.425 48.335 173.162 48.5517 172.828 48.725C172.495 48.8984 172.115 48.985 171.688 48.985C171.215 48.985 170.782 48.865 170.388 48.625C169.995 48.3784 169.682 48.0384 169.448 47.605C169.222 47.165 169.108 46.6684 169.108 46.115ZM173.618 46.135C173.618 45.755 173.538 45.425 173.378 45.145C173.225 44.865 173.022 44.6517 172.768 44.505C172.515 44.3584 172.242 44.285 171.948 44.285C171.655 44.285 171.382 44.3584 171.128 44.505C170.875 44.645 170.668 44.855 170.508 45.135C170.355 45.4084 170.278 45.735 170.278 46.115C170.278 46.495 170.355 46.8284 170.508 47.115C170.668 47.4017 170.875 47.6217 171.128 47.775C171.388 47.9217 171.662 47.995 171.948 47.995C172.242 47.995 172.515 47.9217 172.768 47.775C173.022 47.6284 173.225 47.415 173.378 47.135C173.538 46.8484 173.618 46.515 173.618 46.135ZM182.936 43.295C183.369 43.295 183.756 43.385 184.096 43.565C184.442 43.745 184.712 44.0117 184.906 44.365C185.106 44.7184 185.206 45.145 185.206 45.645V48.895H184.076V45.815C184.076 45.3217 183.952 44.945 183.706 44.685C183.459 44.4184 183.122 44.285 182.696 44.285C182.269 44.285 181.929 44.4184 181.676 44.685C181.429 44.945 181.306 45.3217 181.306 45.815V48.895H180.176V45.815C180.176 45.3217 180.052 44.945 179.806 44.685C179.559 44.4184 179.222 44.285 178.796 44.285C178.369 44.285 178.029 44.4184 177.776 44.685C177.529 44.945 177.406 45.3217 177.406 45.815V48.895H176.266V43.385H177.406V44.015C177.592 43.7884 177.829 43.6117 178.116 43.485C178.402 43.3584 178.709 43.295 179.036 43.295C179.476 43.295 179.869 43.3884 180.216 43.575C180.562 43.7617 180.829 44.0317 181.016 44.385C181.182 44.0517 181.442 43.7884 181.796 43.595C182.149 43.395 182.529 43.295 182.936 43.295ZM188.656 48.985C188.223 48.985 187.833 48.9084 187.486 48.755C187.146 48.595 186.876 48.3817 186.676 48.115C186.476 47.8417 186.37 47.5384 186.356 47.205H187.536C187.556 47.4384 187.666 47.635 187.866 47.795C188.073 47.9484 188.33 48.025 188.636 48.025C188.956 48.025 189.203 47.965 189.376 47.845C189.556 47.7184 189.646 47.5584 189.646 47.365C189.646 47.1584 189.546 47.005 189.346 46.905C189.153 46.805 188.843 46.695 188.416 46.575C188.003 46.4617 187.666 46.3517 187.406 46.245C187.146 46.1384 186.92 45.975 186.726 45.755C186.54 45.535 186.446 45.245 186.446 44.885C186.446 44.5917 186.533 44.325 186.706 44.085C186.88 43.8384 187.126 43.645 187.446 43.505C187.773 43.365 188.146 43.295 188.566 43.295C189.193 43.295 189.696 43.455 190.076 43.775C190.463 44.0884 190.67 44.5184 190.696 45.065H189.556C189.536 44.8184 189.436 44.6217 189.256 44.475C189.076 44.3284 188.833 44.255 188.526 44.255C188.226 44.255 187.996 44.3117 187.836 44.425C187.676 44.5384 187.596 44.6884 187.596 44.875C187.596 45.0217 187.65 45.145 187.756 45.245C187.863 45.345 187.993 45.425 188.146 45.485C188.3 45.5384 188.526 45.6084 188.826 45.695C189.226 45.8017 189.553 45.9117 189.806 46.025C190.066 46.1317 190.29 46.2917 190.476 46.505C190.663 46.7184 190.76 47.0017 190.766 47.355C190.766 47.6684 190.68 47.9484 190.506 48.195C190.333 48.4417 190.086 48.635 189.766 48.775C189.453 48.915 189.083 48.985 188.656 48.985Z" fill="#9D9E9F"/>
<path d="M266.174 21.0276C267.314 20.6914 268.539 20.8027 269.601 21.3381C269.641 21.3591 269.677 21.3889 269.705 21.425C269.733 21.4612 269.752 21.5036 269.762 21.5481C269.772 21.5926 269.772 21.6384 269.762 21.6829C269.752 21.7274 269.732 21.7698 269.704 21.8059C268.915 22.7902 268.462 24.0015 268.411 25.262C268.36 26.5225 268.715 27.7661 269.422 28.8108C269.468 28.8789 269.484 28.9627 269.469 29.0432C269.453 29.1237 269.407 29.1951 269.339 29.2415C268.417 29.885 267.627 30.7006 267.014 31.6428C266.766 32.0217 266.665 32.4781 266.73 32.926C266.737 32.9706 266.734 33.0163 266.722 33.0598C266.71 33.1032 266.688 33.1437 266.659 33.178C266.63 33.2124 266.593 33.2401 266.552 33.259C266.511 33.2778 266.467 33.2873 266.422 33.2874H261.725C261.588 33.2874 261.454 33.242 261.345 33.1584C261.236 33.075 261.158 32.9578 261.122 32.8254C261.101 32.7385 261.098 32.648 261.113 32.5598C261.129 32.4714 261.164 32.3871 261.214 32.3127C262.091 30.9683 263.379 29.9422 264.885 29.387C263.899 28.7229 263.203 27.708 262.939 26.5491C262.675 25.39 262.862 24.1733 263.463 23.1477C264.064 22.1221 265.034 21.3638 266.174 21.0276ZM274.346 20.8225C275.349 20.8225 276.325 21.1455 277.131 21.7434C277.937 22.3414 278.529 23.1826 278.819 24.1428C279.11 25.1032 279.083 26.1322 278.744 27.0764C278.405 28.0205 277.771 28.83 276.936 29.386C278.446 29.9428 279.736 30.9734 280.613 32.3235C280.675 32.4175 280.709 32.5268 280.714 32.6389C280.718 32.751 280.693 32.8626 280.64 32.9612C280.586 33.0597 280.507 33.1421 280.41 33.1995C280.314 33.2567 280.204 33.2873 280.092 33.2874H268.6C268.488 33.2873 268.378 33.2567 268.281 33.1995C268.185 33.1421 268.105 33.0597 268.052 32.9612C267.998 32.8626 267.973 32.751 267.978 32.6389C267.982 32.5268 268.017 32.4175 268.078 32.3235C268.955 30.9734 270.245 29.9428 271.756 29.386C270.921 28.83 270.287 28.0205 269.947 27.0764C269.608 26.1322 269.582 25.1032 269.872 24.1428C270.163 23.1826 270.755 22.3414 271.561 21.7434C272.366 21.1455 273.343 20.8225 274.346 20.8225ZM279.073 21.3381C280.135 20.8026 281.361 20.6914 282.501 21.0276C283.641 21.3638 284.61 22.1221 285.211 23.1477C285.812 24.1733 286 25.3891 285.736 26.5481C285.472 27.7071 284.776 28.7218 283.79 29.386C285.296 29.9412 286.584 30.9674 287.461 32.3118C287.511 32.3861 287.546 32.4704 287.562 32.5588C287.577 32.6473 287.575 32.7383 287.553 32.8254C287.517 32.9578 287.439 33.075 287.33 33.1584C287.221 33.242 287.087 33.2874 286.95 33.2874H282.253C282.208 33.2873 282.163 33.2769 282.122 33.2581C282.081 33.2391 282.045 33.2112 282.016 33.177C281.987 33.1427 281.965 33.1021 281.953 33.0588C281.941 33.0156 281.938 32.9703 281.945 32.926C282.01 32.4781 281.909 32.0217 281.661 31.6428C281.048 30.7004 280.258 29.885 279.336 29.2415C279.268 29.1952 279.222 29.1238 279.206 29.0432C279.191 28.9626 279.207 28.8791 279.253 28.8108C279.96 27.766 280.315 26.5216 280.264 25.261C280.213 24.0005 279.759 22.7892 278.97 21.8049C278.942 21.769 278.923 21.7272 278.913 21.6829C278.903 21.6383 278.902 21.5917 278.912 21.5471C278.922 21.5025 278.942 21.4603 278.97 21.4241C278.998 21.3881 279.033 21.359 279.073 21.3381Z" fill="#9D9E9F"/>
<path d="M270.717 29.1283C271.677 30.0921 272.979 30.634 274.337 30.634C275.695 30.634 276.998 30.0921 277.957 29.1283" stroke="#151A1E" stroke-width="0.934701"/>
<path d="M280.044 30.489C280.895 30.6926 281.784 30.674 282.626 30.4349C283.467 30.1958 284.234 29.7442 284.852 29.1234" stroke="#151A1E" stroke-width="0.934701"/>
<path d="M264.026 29.285C264.637 29.8458 265.373 30.25 266.173 30.4627C266.973 30.6753 267.812 30.6902 268.619 30.506" stroke="#151A1E" stroke-width="0.934701"/>
<path d="M250.278 47.475H247.368L246.868 48.895H245.678L248.168 41.935H249.488L251.978 48.895H250.778L250.278 47.475ZM249.958 46.545L248.828 43.315L247.688 46.545H249.958ZM254.201 44.195C254.394 43.9417 254.657 43.7284 254.991 43.555C255.324 43.3817 255.701 43.295 256.121 43.295C256.601 43.295 257.037 43.415 257.431 43.655C257.831 43.8884 258.144 44.2184 258.371 44.645C258.597 45.0717 258.711 45.5617 258.711 46.115C258.711 46.6684 258.597 47.165 258.371 47.605C258.144 48.0384 257.831 48.3784 257.431 48.625C257.037 48.865 256.601 48.985 256.121 48.985C255.701 48.985 255.327 48.9017 255.001 48.735C254.674 48.5617 254.407 48.3484 254.201 48.095V51.515H253.061V43.385H254.201V44.195ZM257.551 46.115C257.551 45.735 257.471 45.4084 257.311 45.135C257.157 44.855 256.951 44.645 256.691 44.505C256.437 44.3584 256.164 44.285 255.871 44.285C255.584 44.285 255.311 44.3584 255.051 44.505C254.797 44.6517 254.591 44.865 254.431 45.145C254.277 45.425 254.201 45.755 254.201 46.135C254.201 46.515 254.277 46.8484 254.431 47.135C254.591 47.415 254.797 47.6284 255.051 47.775C255.311 47.9217 255.584 47.995 255.871 47.995C256.164 47.995 256.437 47.9217 256.691 47.775C256.951 47.6217 257.157 47.4017 257.311 47.115C257.471 46.8284 257.551 46.495 257.551 46.115ZM260.978 44.195C261.171 43.9417 261.435 43.7284 261.768 43.555C262.101 43.3817 262.478 43.295 262.898 43.295C263.378 43.295 263.815 43.415 264.208 43.655C264.608 43.8884 264.921 44.2184 265.148 44.645C265.375 45.0717 265.488 45.5617 265.488 46.115C265.488 46.6684 265.375 47.165 265.148 47.605C264.921 48.0384 264.608 48.3784 264.208 48.625C263.815 48.865 263.378 48.985 262.898 48.985C262.478 48.985 262.105 48.9017 261.778 48.735C261.451 48.5617 261.185 48.3484 260.978 48.095V51.515H259.838V43.385H260.978V44.195ZM264.328 46.115C264.328 45.735 264.248 45.4084 264.088 45.135C263.935 44.855 263.728 44.645 263.468 44.505C263.215 44.3584 262.941 44.285 262.648 44.285C262.361 44.285 262.088 44.3584 261.828 44.505C261.575 44.6517 261.368 44.865 261.208 45.145C261.055 45.425 260.978 45.755 260.978 46.135C260.978 46.515 261.055 46.8484 261.208 47.135C261.368 47.415 261.575 47.6284 261.828 47.775C262.088 47.9217 262.361 47.995 262.648 47.995C262.941 47.995 263.215 47.9217 263.468 47.775C263.728 47.6217 263.935 47.4017 264.088 47.115C264.248 46.8284 264.328 46.495 264.328 46.115ZM273.703 41.945V42.875H271.853V48.895H270.713V42.875H268.853V41.945H273.703ZM279.907 46.005C279.907 46.2117 279.894 46.3984 279.867 46.565H275.657C275.691 47.005 275.854 47.3584 276.147 47.625C276.441 47.8917 276.801 48.025 277.227 48.025C277.841 48.025 278.274 47.7684 278.527 47.255H279.757C279.591 47.7617 279.287 48.1784 278.847 48.505C278.414 48.825 277.874 48.985 277.227 48.985C276.701 48.985 276.227 48.8684 275.807 48.635C275.394 48.395 275.067 48.0617 274.827 47.635C274.594 47.2017 274.477 46.7017 274.477 46.135C274.477 45.5684 274.591 45.0717 274.817 44.645C275.051 44.2117 275.374 43.8784 275.787 43.645C276.207 43.4117 276.687 43.295 277.227 43.295C277.747 43.295 278.211 43.4084 278.617 43.635C279.024 43.8617 279.341 44.1817 279.567 44.595C279.794 45.0017 279.907 45.4717 279.907 46.005ZM278.717 45.645C278.711 45.225 278.561 44.8884 278.267 44.635C277.974 44.3817 277.611 44.255 277.177 44.255C276.784 44.255 276.447 44.3817 276.167 44.635C275.887 44.8817 275.721 45.2184 275.667 45.645H278.717ZM280.649 46.115C280.649 45.5617 280.763 45.0717 280.989 44.645C281.223 44.2184 281.536 43.8884 281.929 43.655C282.329 43.415 282.769 43.295 283.249 43.295C283.683 43.295 284.059 43.3817 284.379 43.555C284.706 43.7217 284.966 43.9317 285.159 44.185V43.385H286.309V48.895H285.159V48.075C284.966 48.335 284.703 48.5517 284.369 48.725C284.036 48.8984 283.656 48.985 283.229 48.985C282.756 48.985 282.323 48.865 281.929 48.625C281.536 48.3784 281.223 48.0384 280.989 47.605C280.763 47.165 280.649 46.6684 280.649 46.115ZM285.159 46.135C285.159 45.755 285.079 45.425 284.919 45.145C284.766 44.865 284.563 44.6517 284.309 44.505C284.056 44.3584 283.783 44.285 283.489 44.285C283.196 44.285 282.923 44.3584 282.669 44.505C282.416 44.645 282.209 44.855 282.049 45.135C281.896 45.4084 281.819 45.735 281.819 46.115C281.819 46.495 281.896 46.8284 282.049 47.115C282.209 47.4017 282.416 47.6217 282.669 47.775C282.929 47.9217 283.203 47.995 283.489 47.995C283.783 47.995 284.056 47.9217 284.309 47.775C284.563 47.6284 284.766 47.415 284.919 47.135C285.079 46.8484 285.159 46.515 285.159 46.135ZM294.477 43.295C294.91 43.295 295.297 43.385 295.637 43.565C295.983 43.745 296.253 44.0117 296.447 44.365C296.647 44.7184 296.747 45.145 296.747 45.645V48.895H295.617V45.815C295.617 45.3217 295.493 44.945 295.247 44.685C295 44.4184 294.663 44.285 294.237 44.285C293.81 44.285 293.47 44.4184 293.217 44.685C292.97 44.945 292.847 45.3217 292.847 45.815V48.895H291.717V45.815C291.717 45.3217 291.593 44.945 291.347 44.685C291.1 44.4184 290.763 44.285 290.337 44.285C289.91 44.285 289.57 44.4184 289.317 44.685C289.07 44.945 288.947 45.3217 288.947 45.815V48.895H287.807V43.385H288.947V44.015C289.133 43.7884 289.37 43.6117 289.657 43.485C289.943 43.3584 290.25 43.295 290.577 43.295C291.017 43.295 291.41 43.3884 291.757 43.575C292.103 43.7617 292.37 44.0317 292.557 44.385C292.723 44.0517 292.983 43.7884 293.337 43.595C293.69 43.395 294.07 43.295 294.477 43.295ZM300.197 48.985C299.764 48.985 299.374 48.9084 299.027 48.755C298.687 48.595 298.417 48.3817 298.217 48.115C298.017 47.8417 297.911 47.5384 297.897 47.205H299.077C299.097 47.4384 299.207 47.635 299.407 47.795C299.614 47.9484 299.871 48.025 300.177 48.025C300.497 48.025 300.744 47.965 300.917 47.845C301.097 47.7184 301.187 47.5584 301.187 47.365C301.187 47.1584 301.087 47.005 300.887 46.905C300.694 46.805 300.384 46.695 299.957 46.575C299.544 46.4617 299.207 46.3517 298.947 46.245C298.687 46.1384 298.461 45.975 298.267 45.755C298.081 45.535 297.987 45.245 297.987 44.885C297.987 44.5917 298.074 44.325 298.247 44.085C298.421 43.8384 298.667 43.645 298.987 43.505C299.314 43.365 299.687 43.295 300.107 43.295C300.734 43.295 301.237 43.455 301.617 43.775C302.004 44.0884 302.211 44.5184 302.237 45.065H301.097C301.077 44.8184 300.977 44.6217 300.797 44.475C300.617 44.3284 300.374 44.255 300.067 44.255C299.767 44.255 299.537 44.3117 299.377 44.425C299.217 44.5384 299.137 44.6884 299.137 44.875C299.137 45.0217 299.191 45.145 299.297 45.245C299.404 45.345 299.534 45.425 299.687 45.485C299.841 45.5384 300.067 45.6084 300.367 45.695C300.767 45.8017 301.094 45.9117 301.347 46.025C301.607 46.1317 301.831 46.2917 302.017 46.505C302.204 46.7184 302.301 47.0017 302.307 47.355C302.307 47.6684 302.221 47.9484 302.047 48.195C301.874 48.4417 301.627 48.635 301.307 48.775C300.994 48.915 300.624 48.985 300.197 48.985Z" fill="#9D9E9F"/>
<path d="M107.131 3.37646L107.131 253.876" stroke="url(#paint16_linear_9684_114034)" stroke-width="0.934701" stroke-dasharray="0.99 3.97"/>
<path d="M218.463 3.37646L218.463 253.876" stroke="url(#paint17_linear_9684_114034)" stroke-width="0.934701" stroke-dasharray="0.99 3.97"/>
<path d="M311.784 218.358H289.293" stroke="url(#paint18_linear_9684_114034)" stroke-width="0.623134" stroke-linecap="round"/>
<path d="M311.784 117.965H289.293" stroke="url(#paint19_linear_9684_114034)" stroke-width="0.623134" stroke-linecap="round"/>
</g>
<rect x="0.811567" y="1.19584" width="333.377" height="254.862" rx="9.65858" stroke="url(#paint20_linear_9684_114034)" stroke-opacity="0.47" stroke-width="0.623134"/>
<defs>
<linearGradient id="paint0_linear_9684_114034" x1="167.5" y1="0.884277" x2="167.5" y2="256.369" gradientUnits="userSpaceOnUse">
<stop stop-color="#161C20"/>
<stop offset="1" stop-color="#0A0D0F"/>
</linearGradient>
<radialGradient id="paint1_radial_9684_114034" cx="0" cy="0" r="1" gradientUnits="userSpaceOnUse" gradientTransform="translate(164.508 135.291) rotate(90) scale(134.407 209.196)">
<stop stop-color="#D9D9D9" stop-opacity="0.8"/>
<stop offset="1" stop-color="#737373"/>
</radialGradient>
<linearGradient id="paint2_linear_9684_114034" x1="51.256" y1="129.873" x2="51.256" y2="159.783" gradientUnits="userSpaceOnUse">
<stop stop-color="#161C20"/>
<stop offset="1" stop-color="#0A0D0F"/>
</linearGradient>
<linearGradient id="paint3_linear_9684_114034" x1="51.256" y1="144.818" x2="51.256" y2="159.783" gradientUnits="userSpaceOnUse">
<stop stop-color="#3B3D3F" stop-opacity="0.5"/>
<stop offset="1" stop-color="#3B3D3F" stop-opacity="0.89"/>
</linearGradient>
<linearGradient id="paint4_linear_9684_114034" x1="162.797" y1="79.3989" x2="162.797" y2="109.309" gradientUnits="userSpaceOnUse">
<stop stop-color="#161C20"/>
<stop offset="1" stop-color="#0A0D0F"/>
</linearGradient>
<linearGradient id="paint5_linear_9684_114034" x1="162.797" y1="94.3441" x2="162.797" y2="109.309" gradientUnits="userSpaceOnUse">
<stop stop-color="#3B3D3F" stop-opacity="0.5"/>
<stop offset="1" stop-color="#3B3D3F" stop-opacity="0.89"/>
</linearGradient>
<linearGradient id="paint6_linear_9684_114034" x1="162.797" y1="180.347" x2="162.797" y2="210.257" gradientUnits="userSpaceOnUse">
<stop stop-color="#161C20"/>
<stop offset="1" stop-color="#0A0D0F"/>
</linearGradient>
<linearGradient id="paint7_linear_9684_114034" x1="162.797" y1="195.292" x2="162.797" y2="210.257" gradientUnits="userSpaceOnUse">
<stop stop-color="#3B3D3F" stop-opacity="0.5"/>
<stop offset="1" stop-color="#3B3D3F" stop-opacity="0.89"/>
</linearGradient>
<linearGradient id="paint8_linear_9684_114034" x1="274.338" y1="58.2124" x2="274.338" y2="88.1229" gradientUnits="userSpaceOnUse">
<stop stop-color="#161C20"/>
<stop offset="1" stop-color="#0A0D0F"/>
</linearGradient>
<linearGradient id="paint9_linear_9684_114034" x1="274.338" y1="73.1576" x2="274.338" y2="88.1228" gradientUnits="userSpaceOnUse">
<stop stop-color="#3B3D3F" stop-opacity="0.5"/>
<stop offset="1" stop-color="#3B3D3F" stop-opacity="0.89"/>
</linearGradient>
<linearGradient id="paint10_linear_9684_114034" x1="274.338" y1="102.455" x2="274.338" y2="132.365" gradientUnits="userSpaceOnUse">
<stop stop-color="#161C20"/>
<stop offset="1" stop-color="#0A0D0F"/>
</linearGradient>
<linearGradient id="paint11_linear_9684_114034" x1="274.338" y1="117.4" x2="274.338" y2="132.365" gradientUnits="userSpaceOnUse">
<stop stop-color="#3B3D3F" stop-opacity="0.5"/>
<stop offset="1" stop-color="#3B3D3F" stop-opacity="0.89"/>
</linearGradient>
<linearGradient id="paint12_linear_9684_114034" x1="274.338" y1="202.78" x2="274.338" y2="232.69" gradientUnits="userSpaceOnUse">
<stop stop-color="#161C20"/>
<stop offset="1" stop-color="#0A0D0F"/>
</linearGradient>
<linearGradient id="paint13_linear_9684_114034" x1="274.338" y1="217.725" x2="274.338" y2="232.69" gradientUnits="userSpaceOnUse">
<stop stop-color="#3B3D3F" stop-opacity="0.5"/>
<stop offset="1" stop-color="#3B3D3F" stop-opacity="0.89"/>
</linearGradient>
<linearGradient id="paint14_linear_9684_114034" x1="274.338" y1="157.914" x2="274.338" y2="187.824" gradientUnits="userSpaceOnUse">
<stop stop-color="#161C20"/>
<stop offset="1" stop-color="#0A0D0F"/>
</linearGradient>
<linearGradient id="paint15_linear_9684_114034" x1="274.338" y1="172.859" x2="274.338" y2="187.824" gradientUnits="userSpaceOnUse">
<stop stop-color="#3B3D3F" stop-opacity="0.5"/>
<stop offset="1" stop-color="#3B3D3F" stop-opacity="0.89"/>
</linearGradient>
<linearGradient id="paint16_linear_9684_114034" x1="107.631" y1="10.6208" x2="107.631" y2="256.164" gradientUnits="userSpaceOnUse">
<stop stop-color="#6C6E6F" stop-opacity="0"/>
<stop offset="0.5" stop-color="#4B4D4E"/>
<stop offset="1" stop-color="#6C6E6F" stop-opacity="0"/>
</linearGradient>
<linearGradient id="paint17_linear_9684_114034" x1="218.963" y1="10.6208" x2="218.963" y2="256.164" gradientUnits="userSpaceOnUse">
<stop stop-color="#6C6E6F" stop-opacity="0"/>
<stop offset="0.5" stop-color="#4B4D4E"/>
<stop offset="1" stop-color="#6C6E6F" stop-opacity="0"/>
</linearGradient>
<linearGradient id="paint18_linear_9684_114034" x1="311.784" y1="208.358" x2="277.645" y2="208.358" gradientUnits="userSpaceOnUse">
<stop stop-color="#33373A" stop-opacity="0"/>
<stop offset="1" stop-color="#33373A"/>
</linearGradient>
<linearGradient id="paint19_linear_9684_114034" x1="311.784" y1="107.965" x2="277.645" y2="107.965" gradientUnits="userSpaceOnUse">
<stop stop-color="#33373A" stop-opacity="0"/>
<stop offset="1" stop-color="#33373A"/>
</linearGradient>
<linearGradient id="paint20_linear_9684_114034" x1="167.5" y1="0.884277" x2="167.5" y2="256.369" gradientUnits="userSpaceOnUse">
<stop stop-color="#3B3D3F" stop-opacity="0.4"/>
<stop offset="1" stop-color="#3B3D3F"/>
</linearGradient>
<clipPath id="clip0_9684_114034">
<rect x="0.5" y="0.884277" width="334" height="255.485" rx="9.97015" fill="white"/>
</clipPath>
<clipPath id="clip1_9684_114034">
<rect width="327.102" height="435.278" fill="white" transform="translate(268.213 -122.786) rotate(60)"/>
</clipPath>
<clipPath id="clip2_9684_114034">
<rect width="17.4478" height="17.4478" fill="white" transform="translate(42.5312 136.104)"/>
</clipPath>
<clipPath id="clip3_9684_114034">
<rect width="17.4478" height="17.4478" fill="white" transform="translate(154.072 85.6311)"/>
</clipPath>
<clipPath id="clip4_9684_114034">
<rect width="17.4478" height="17.4478" fill="white" transform="translate(154.072 186.577)"/>
</clipPath>
</defs>
</svg>
