<svg width="536" height="410" viewBox="0 0 536 410" fill="none" xmlns="http://www.w3.org/2000/svg">
<g clip-path="url(#clip0_9684_113141)">
<rect width="536" height="410" rx="16" fill="url(#paint0_linear_9684_113141)"/>
<mask id="mask0_9684_113141" style="mask-type:alpha" maskUnits="userSpaceOnUse" x="-22" y="0" width="571" height="432">
<rect x="-22" width="570.398" height="431.391" fill="url(#paint1_radial_9684_113141)"/>
</mask>
<g mask="url(#mask0_9684_113141)">
<g opacity="0.1">
<path d="M403.434 -246.722L-144.133 69.4156" stroke="#3B3D3F"/>
<path d="M423.434 -212.081L-124.133 104.057" stroke="#3B3D3F"/>
<path d="M443.434 -177.44L-104.133 138.698" stroke="#3B3D3F"/>
<path d="M463.434 -142.799L-84.1334 173.339" stroke="#3B3D3F"/>
<path d="M483.434 -108.158L-64.1334 207.98" stroke="#3B3D3F"/>
<path d="M503.434 -73.5172L-44.1334 242.621" stroke="#3B3D3F"/>
<path d="M523.434 -38.8762L-24.1334 277.262" stroke="#3B3D3F"/>
<path d="M543.434 -4.23511L-4.13336 311.903" stroke="#3B3D3F"/>
<path d="M563.434 30.4059L15.8666 346.544" stroke="#3B3D3F"/>
<path d="M583.434 65.0469L35.8666 381.185" stroke="#3B3D3F"/>
<path d="M603.434 99.6879L55.8666 415.826" stroke="#3B3D3F"/>
<path d="M623.434 134.329L75.8666 450.467" stroke="#3B3D3F"/>
<path d="M643.434 168.97L95.8666 485.108" stroke="#3B3D3F"/>
<path d="M663.434 203.611L115.867 519.749" stroke="#3B3D3F"/>
<path d="M683.434 238.252L135.867 554.39" stroke="#3B3D3F"/>
<path d="M703.434 272.893L155.867 589.031" stroke="#3B3D3F"/>
<g clip-path="url(#clip1_9684_113141)">
<rect x="429.533" y="-198.123" width="524.43" height="0.5" transform="rotate(60 429.533 -198.123)" fill="#3B3D3F" stroke="#3B3D3F" stroke-width="0.5"/>
<rect x="394.026" y="-177.623" width="524.43" height="0.5" transform="rotate(60 394.026 -177.623)" fill="#3B3D3F" stroke="#3B3D3F" stroke-width="0.5"/>
<rect x="358.52" y="-157.123" width="524.43" height="0.5" transform="rotate(60 358.52 -157.123)" fill="#3B3D3F" stroke="#3B3D3F" stroke-width="0.5"/>
<rect x="323.012" y="-136.623" width="524.43" height="0.5" transform="rotate(60 323.012 -136.623)" fill="#3B3D3F" stroke="#3B3D3F" stroke-width="0.5"/>
<rect x="287.506" y="-116.123" width="524.43" height="0.5" transform="rotate(60 287.506 -116.123)" fill="#3B3D3F" stroke="#3B3D3F" stroke-width="0.5"/>
<rect x="251.998" y="-95.623" width="524.43" height="0.5" transform="rotate(60 251.998 -95.623)" fill="#3B3D3F" stroke="#3B3D3F" stroke-width="0.5"/>
<rect x="216.491" y="-75.123" width="524.43" height="0.5" transform="rotate(60 216.491 -75.123)" fill="#3B3D3F" stroke="#3B3D3F" stroke-width="0.5"/>
<rect x="180.985" y="-54.623" width="524.43" height="0.5" transform="rotate(60 180.985 -54.623)" fill="#3B3D3F" stroke="#3B3D3F" stroke-width="0.5"/>
<rect x="145.477" y="-34.123" width="524.43" height="0.5" transform="rotate(60 145.477 -34.123)" fill="#3B3D3F" stroke="#3B3D3F" stroke-width="0.5"/>
<rect x="109.971" y="-13.623" width="524.43" height="0.5" transform="rotate(60 109.971 -13.623)" fill="#3B3D3F" stroke="#3B3D3F" stroke-width="0.5"/>
<rect x="74.4632" y="6.87703" width="524.43" height="0.5" transform="rotate(60 74.4632 6.87703)" fill="#3B3D3F" stroke="#3B3D3F" stroke-width="0.5"/>
<rect x="38.9554" y="27.377" width="524.43" height="0.5" transform="rotate(60 38.9554 27.377)" fill="#3B3D3F" stroke="#3B3D3F" stroke-width="0.5"/>
<rect x="3.44951" y="47.877" width="524.43" height="0.5" transform="rotate(60 3.44951 47.877)" fill="#3B3D3F" stroke="#3B3D3F" stroke-width="0.5"/>
<rect x="-32.0583" y="68.377" width="524.43" height="0.5" transform="rotate(60 -32.0583 68.377)" fill="#3B3D3F" stroke="#3B3D3F" stroke-width="0.5"/>
<rect x="-67.5642" y="88.877" width="524.43" height="0.5" transform="rotate(60 -67.5642 88.877)" fill="#3B3D3F" stroke="#3B3D3F" stroke-width="0.5"/>
</g>
</g>
</g>
<path d="M112.898 231H137.925C142.343 231 145.925 227.418 145.925 223V160C145.925 155.582 149.507 152 153.925 152H236.455" stroke="#33373A" stroke-linecap="round"/>
<path d="M236.453 311H153.345C148.927 311 145.345 307.418 145.345 303V239C145.345 234.582 141.763 231 137.345 231H105.453" stroke="#33373A" stroke-linecap="round"/>
<rect x="57.8891" y="207.436" width="47.128" height="47.128" rx="7.564" fill="url(#paint2_linear_9684_113141)"/>
<rect x="57.8891" y="207.436" width="47.128" height="47.128" rx="7.564" stroke="url(#paint3_linear_9684_113141)" stroke-width="0.872003"/>
<g clip-path="url(#clip2_9684_113141)">
<mask id="mask1_9684_113141" style="mask-type:luminance" maskUnits="userSpaceOnUse" x="64" y="220" width="35" height="37">
<path d="M64.5762 220.091H98.2788V256.819H64.5762V220.091Z" fill="white"/>
</mask>
<g mask="url(#mask1_9684_113141)">
<path d="M76.2081 231.747L74.4349 230.644L74.4721 232.33L76.2453 233.434L76.2081 231.747ZM78.7625 237.65L78.7253 236L77.1753 235.033C77.1505 235.021 77.1257 234.996 77.1133 234.984L77.1505 236.645L78.7625 237.65ZM73.2198 239.869L69.165 237.352L69.0658 233.136L71.0498 232.28L71.0126 230.594L67.8382 231.958C67.5902 232.07 67.4414 232.293 67.4538 232.553L67.5778 237.612C67.5778 237.873 67.739 238.133 67.987 238.282L72.8478 241.295C73.071 241.432 73.3437 241.469 73.5793 241.407C73.6041 241.394 73.6289 241.394 73.6537 241.382L76.6421 240.092L75.0177 239.088L73.2198 239.869Z" fill="#6DC28B"/>
</g>
<mask id="mask2_9684_113141" style="mask-type:luminance" maskUnits="userSpaceOnUse" x="64" y="220" width="35" height="37">
<path d="M64.5762 220.091H98.2788V256.819H64.5762V220.091Z" fill="white"/>
</mask>
<g mask="url(#mask2_9684_113141)">
<path d="M86.3262 230.545C86.3138 230.247 86.1402 229.937 85.8427 229.764L79.9403 226.106L79.7544 226.18L79.7916 227.953L84.4663 230.855L84.5779 235.592L86.3634 236.695L86.4626 236.658L86.3262 230.545ZM79.2584 238.865L73.7652 235.468L73.6289 229.764L76.1336 228.685L76.084 226.713L72.2029 228.387C71.9177 228.511 71.7441 228.772 71.7565 229.082L71.9177 235.778C71.9177 236.088 72.1037 236.385 72.4013 236.559L78.8368 240.551C79.0972 240.713 79.4196 240.762 79.6924 240.675C79.7172 240.663 79.742 240.651 79.7668 240.651L83.5611 239.014L81.6763 237.848L79.2584 238.865Z" fill="#6DC28B"/>
</g>
<mask id="mask3_9684_113141" style="mask-type:luminance" maskUnits="userSpaceOnUse" x="64" y="220" width="35" height="37">
<path d="M64.5762 220.091H98.2788V256.819H64.5762V220.091Z" fill="white"/>
</mask>
<g mask="url(#mask3_9684_113141)">
<path d="M94.6948 225.858L86.449 220.749C86.139 220.563 85.7794 220.513 85.4694 220.613C85.4446 220.625 85.4074 220.637 85.3826 220.65L77.3351 224.122C77.0127 224.258 76.8143 224.556 76.8267 224.915L77.0251 233.496C77.0375 233.843 77.2483 234.19 77.5831 234.389L85.829 239.497C86.1266 239.683 86.4986 239.733 86.8086 239.634C86.8334 239.621 86.8706 239.609 86.8954 239.597L94.9428 236.125C95.2652 235.988 95.4636 235.678 95.4512 235.331L95.2528 226.75C95.2404 226.403 95.0296 226.068 94.6948 225.858ZM86.3126 237.575L79.1455 233.136L78.9719 225.684L85.9654 222.671L93.1325 227.11L93.3061 234.562L86.3126 237.575Z" fill="#6DC28B"/>
</g>
</g>
<rect x="236.889" y="126.436" width="47.128" height="47.128" rx="7.564" fill="url(#paint4_linear_9684_113141)"/>
<rect x="236.889" y="126.436" width="47.128" height="47.128" rx="7.564" stroke="url(#paint5_linear_9684_113141)" stroke-width="0.872003"/>
<g clip-path="url(#clip3_9684_113141)">
<mask id="mask4_9684_113141" style="mask-type:luminance" maskUnits="userSpaceOnUse" x="243" y="139" width="35" height="37">
<path d="M243.576 139.091H277.279V175.819H243.576V139.091Z" fill="white"/>
</mask>
<g mask="url(#mask4_9684_113141)">
<path d="M255.208 150.747L253.435 149.644L253.472 151.33L255.245 152.434L255.208 150.747ZM257.762 156.65L257.725 155L256.175 154.033C256.15 154.021 256.126 153.996 256.113 153.984L256.15 155.645L257.762 156.65ZM252.22 158.869L248.165 156.352L248.066 152.136L250.05 151.28L250.013 149.594L246.838 150.958C246.59 151.07 246.441 151.293 246.454 151.553L246.578 156.612C246.578 156.873 246.739 157.133 246.987 157.282L251.848 160.295C252.071 160.432 252.344 160.469 252.579 160.407C252.604 160.394 252.629 160.394 252.654 160.382L255.642 159.092L254.018 158.088L252.22 158.869Z" fill="white"/>
</g>
<mask id="mask5_9684_113141" style="mask-type:luminance" maskUnits="userSpaceOnUse" x="243" y="139" width="35" height="37">
<path d="M243.576 139.091H277.279V175.819H243.576V139.091Z" fill="white"/>
</mask>
<g mask="url(#mask5_9684_113141)">
<path d="M265.326 149.545C265.314 149.247 265.14 148.937 264.843 148.764L258.94 145.106L258.754 145.18L258.792 146.953L263.466 149.855L263.578 154.592L265.363 155.695L265.463 155.658L265.326 149.545ZM258.258 157.865L252.765 154.468L252.629 148.764L255.134 147.685L255.084 145.713L251.203 147.387C250.918 147.511 250.744 147.772 250.756 148.082L250.918 154.778C250.918 155.088 251.104 155.385 251.401 155.559L257.837 159.551C258.097 159.713 258.42 159.762 258.692 159.675C258.717 159.663 258.742 159.651 258.767 159.651L262.561 158.014L260.676 156.848L258.258 157.865Z" fill="white"/>
</g>
<mask id="mask6_9684_113141" style="mask-type:luminance" maskUnits="userSpaceOnUse" x="243" y="139" width="35" height="37">
<path d="M243.576 139.091H277.279V175.819H243.576V139.091Z" fill="white"/>
</mask>
<g mask="url(#mask6_9684_113141)">
<path d="M273.695 144.858L265.449 139.749C265.139 139.563 264.779 139.513 264.469 139.613C264.445 139.625 264.407 139.637 264.383 139.65L256.335 143.122C256.013 143.258 255.814 143.556 255.827 143.915L256.025 152.496C256.038 152.843 256.248 153.19 256.583 153.389L264.829 158.497C265.127 158.683 265.499 158.733 265.809 158.634C265.833 158.621 265.871 158.609 265.895 158.597L273.943 155.125C274.265 154.988 274.464 154.678 274.451 154.331L274.253 145.75C274.24 145.403 274.03 145.068 273.695 144.858ZM265.313 156.575L258.145 152.136L257.972 144.684L264.965 141.671L272.132 146.11L272.306 153.562L265.313 156.575Z" fill="white"/>
</g>
</g>
<rect x="236.889" y="288.436" width="47.128" height="47.128" rx="7.564" fill="url(#paint6_linear_9684_113141)"/>
<rect x="236.889" y="288.436" width="47.128" height="47.128" rx="7.564" stroke="url(#paint7_linear_9684_113141)" stroke-width="0.872003"/>
<g clip-path="url(#clip4_9684_113141)">
<mask id="mask7_9684_113141" style="mask-type:luminance" maskUnits="userSpaceOnUse" x="243" y="301" width="35" height="37">
<path d="M243.576 301.091H277.279V337.819H243.576V301.091Z" fill="white"/>
</mask>
<g mask="url(#mask7_9684_113141)">
<path d="M255.208 312.747L253.435 311.644L253.472 313.33L255.245 314.434L255.208 312.747ZM257.762 318.65L257.725 317L256.175 316.033C256.15 316.021 256.126 315.996 256.113 315.984L256.15 317.645L257.762 318.65ZM252.22 320.869L248.165 318.352L248.066 314.136L250.05 313.28L250.013 311.594L246.838 312.958C246.59 313.07 246.441 313.293 246.454 313.553L246.578 318.612C246.578 318.873 246.739 319.133 246.987 319.282L251.848 322.295C252.071 322.432 252.344 322.469 252.579 322.407C252.604 322.394 252.629 322.394 252.654 322.382L255.642 321.092L254.018 320.088L252.22 320.869Z" fill="white"/>
</g>
<mask id="mask8_9684_113141" style="mask-type:luminance" maskUnits="userSpaceOnUse" x="243" y="301" width="35" height="37">
<path d="M243.576 301.091H277.279V337.819H243.576V301.091Z" fill="white"/>
</mask>
<g mask="url(#mask8_9684_113141)">
<path d="M265.326 311.545C265.314 311.247 265.14 310.937 264.843 310.764L258.94 307.106L258.754 307.18L258.792 308.953L263.466 311.855L263.578 316.592L265.363 317.695L265.463 317.658L265.326 311.545ZM258.258 319.865L252.765 316.468L252.629 310.764L255.134 309.685L255.084 307.713L251.203 309.387C250.918 309.511 250.744 309.772 250.756 310.082L250.918 316.778C250.918 317.088 251.104 317.385 251.401 317.559L257.837 321.551C258.097 321.713 258.42 321.762 258.692 321.675C258.717 321.663 258.742 321.651 258.767 321.651L262.561 320.014L260.676 318.848L258.258 319.865Z" fill="white"/>
</g>
<mask id="mask9_9684_113141" style="mask-type:luminance" maskUnits="userSpaceOnUse" x="243" y="301" width="35" height="37">
<path d="M243.576 301.091H277.279V337.819H243.576V301.091Z" fill="white"/>
</mask>
<g mask="url(#mask9_9684_113141)">
<path d="M273.695 306.858L265.449 301.749C265.139 301.563 264.779 301.513 264.469 301.613C264.445 301.625 264.407 301.637 264.383 301.65L256.335 305.122C256.013 305.258 255.814 305.556 255.827 305.915L256.025 314.496C256.038 314.843 256.248 315.19 256.583 315.389L264.829 320.497C265.127 320.683 265.499 320.733 265.809 320.634C265.833 320.621 265.871 320.609 265.895 320.597L273.943 317.125C274.265 316.988 274.464 316.678 274.451 316.331L274.253 307.75C274.24 307.403 274.03 307.068 273.695 306.858ZM265.313 318.575L258.145 314.136L257.972 306.684L264.965 303.671L272.132 308.11L272.306 315.562L265.313 318.575Z" fill="white"/>
</g>
</g>
<path d="M415.453 115.891H325.553C321.135 115.891 317.553 119.472 317.553 123.891V143.891C317.553 148.309 313.971 151.891 309.553 151.891H283.699" stroke="#33373A" stroke-linecap="round"/>
<path d="M415.453 187.891H325.553C321.135 187.891 317.553 184.309 317.553 179.891V159.891C317.553 155.472 313.971 151.891 309.553 151.891H283.699" stroke="#33373A" stroke-linecap="round"/>
<path d="M415.453 349H326.123C321.705 349 318.123 345.418 318.123 341V321.219C318.123 316.8 314.542 313.219 310.123 313.219H284.467" stroke="#33373A" stroke-linecap="round"/>
<path d="M415.439 277.219H326.11C321.691 277.219 318.11 280.8 318.11 285.219V305C318.11 309.418 314.528 313 310.11 313H284.453" stroke="#33373A" stroke-linecap="round"/>
<rect x="415.889" y="92.436" width="47.128" height="47.128" rx="7.564" fill="url(#paint8_linear_9684_113141)"/>
<rect x="415.889" y="92.436" width="47.128" height="47.128" rx="7.564" stroke="url(#paint9_linear_9684_113141)" stroke-width="0.872003"/>
<path fill-rule="evenodd" clip-rule="evenodd" d="M429.606 106C428.593 106 427.772 106.821 427.772 107.833V120.825H450.831V107.833C450.831 106.821 450.01 106 448.998 106H429.606ZM453.397 124.118C453.397 123.611 452.987 123.201 452.48 123.201H426.128C425.622 123.201 425.211 123.611 425.211 124.118C425.211 124.624 425.622 125.035 426.128 125.035H452.48C452.987 125.035 453.397 124.624 453.397 124.118Z" fill="white"/>
<rect x="415.953" y="163.5" width="47" height="47" rx="7.5" fill="url(#paint10_linear_9684_113141)"/>
<rect x="415.953" y="163.5" width="47" height="47" rx="7.5" stroke="url(#paint11_linear_9684_113141)"/>
<path d="M439.453 194.856V197.999" stroke="white" stroke-width="1.71429" stroke-linecap="round"/>
<path d="M431.598 198H447.312" stroke="white" stroke-width="1.71429" stroke-linecap="round"/>
<rect x="426.881" y="176" width="25.1429" height="17.2857" rx="1.71429" fill="white"/>
<rect x="415.953" y="324.5" width="47" height="47" rx="7.5" fill="url(#paint12_linear_9684_113141)"/>
<rect x="415.953" y="324.5" width="47" height="47" rx="7.5" stroke="url(#paint13_linear_9684_113141)"/>
<path d="M439.453 355.856V358.999" stroke="white" stroke-width="1.71429" stroke-linecap="round"/>
<path d="M431.598 359H447.312" stroke="white" stroke-width="1.71429" stroke-linecap="round"/>
<rect x="426.881" y="337" width="25.1429" height="17.2857" rx="1.71429" fill="white"/>
<rect x="415.889" y="252.436" width="47.128" height="47.128" rx="7.564" fill="url(#paint14_linear_9684_113141)"/>
<rect x="415.889" y="252.436" width="47.128" height="47.128" rx="7.564" stroke="url(#paint15_linear_9684_113141)" stroke-width="0.872003"/>
<path fill-rule="evenodd" clip-rule="evenodd" d="M429.606 266C428.593 266 427.772 266.821 427.772 267.833V280.825H450.831V267.833C450.831 266.821 450.01 266 448.998 266H429.606ZM453.397 284.118C453.397 283.611 452.987 283.201 452.48 283.201H426.128C425.622 283.201 425.211 283.611 425.211 284.118C425.211 284.624 425.622 285.035 426.128 285.035H452.48C452.987 285.035 453.397 284.624 453.397 284.118Z" fill="white"/>
<path d="M89.7035 51.3588C89.8262 51.5046 89.9046 51.6824 89.9296 51.8713C89.9546 52.0602 89.9251 52.2524 89.8446 52.4251C89.7641 52.5978 89.636 52.7439 89.4752 52.8462C89.3144 52.9485 89.1278 53.0028 88.9373 53.0026H67.9373C67.7468 53.0025 67.5604 52.9481 67.3998 52.8457C67.2392 52.7433 67.1112 52.5972 67.0309 52.4245C66.9505 52.2518 66.9211 52.0598 66.9462 51.871C66.9712 51.6823 67.0497 51.5045 67.1723 51.3588C69.0398 49.1363 71.3623 47.5576 73.9435 46.7126C72.3759 45.7362 71.1689 44.2758 70.5052 42.5524C69.8414 40.829 69.7571 38.9363 70.2648 37.1606C70.7726 35.385 71.8448 33.823 73.3194 32.711C74.7939 31.599 76.5904 30.9976 78.4373 30.9976C80.2841 30.9976 82.0807 31.599 83.5552 32.711C85.0297 33.823 86.102 35.385 86.6097 37.1606C87.1175 38.9363 87.0331 40.829 86.3693 42.5524C85.7056 44.2758 84.4986 45.7362 82.931 46.7126C85.5123 47.5576 87.8348 49.1363 89.7035 51.3588ZM95.8348 46.2526C95.7469 46.4048 95.6204 46.5312 95.4681 46.619C95.3158 46.7067 95.1431 46.7528 94.9673 46.7526C94.7917 46.7531 94.6191 46.7069 94.4673 46.6188L93.8835 46.2813C93.6042 46.521 93.2829 46.707 92.936 46.8301V47.5026C92.936 47.7678 92.8307 48.0221 92.6431 48.2097C92.4556 48.3972 92.2012 48.5026 91.936 48.5026C91.6708 48.5026 91.4164 48.3972 91.2289 48.2097C91.0414 48.0221 90.936 47.7678 90.936 47.5026V46.8301C90.5891 46.707 90.2679 46.521 89.9885 46.2813L89.4048 46.6188C89.2529 46.7069 89.0803 46.7531 88.9048 46.7526C88.6846 46.7526 88.4705 46.68 88.2958 46.546C88.121 46.412 87.9954 46.2241 87.9384 46.0113C87.8815 45.7986 87.8963 45.5731 87.9806 45.3697C88.0649 45.1662 88.214 44.9963 88.4048 44.8863L88.9873 44.5501C88.9189 44.1883 88.9189 43.8169 88.9873 43.4551L88.4048 43.1188C88.291 43.0531 88.1913 42.9657 88.1113 42.8615C88.0314 42.7573 87.9727 42.6384 87.9387 42.5115C87.9047 42.3847 87.896 42.2523 87.9131 42.1221C87.9302 41.9919 87.9729 41.8663 88.0385 41.7526C88.1042 41.6388 88.1916 41.5391 88.2958 41.4591C88.4 41.3791 88.5189 41.3205 88.6458 41.2865C88.7727 41.2525 88.905 41.2438 89.0352 41.2609C89.1654 41.278 89.291 41.3206 89.4048 41.3863L89.9885 41.7238C90.2679 41.4841 90.5891 41.2981 90.936 41.1751V40.5026C90.936 40.2373 91.0414 39.983 91.2289 39.7955C91.4164 39.6079 91.6708 39.5026 91.936 39.5026C92.2012 39.5026 92.4556 39.6079 92.6431 39.7955C92.8307 39.983 92.936 40.2373 92.936 40.5026V41.1751C93.2829 41.2981 93.6042 41.4841 93.8835 41.7238L94.4673 41.3863C94.581 41.3206 94.7066 41.278 94.8368 41.2609C94.9671 41.2438 95.0994 41.2525 95.2262 41.2865C95.3531 41.3205 95.472 41.3791 95.5762 41.4591C95.6804 41.5391 95.7679 41.6388 95.8335 41.7526C95.8992 41.8663 95.9418 41.9919 95.9589 42.1221C95.976 42.2523 95.9674 42.3847 95.9333 42.5115C95.8993 42.6384 95.8407 42.7573 95.7607 42.8615C95.6807 42.9657 95.581 43.0531 95.4673 43.1188L94.8848 43.4551C94.9531 43.8169 94.9531 44.1883 94.8848 44.5501L95.4673 44.8863C95.5811 44.9518 95.681 45.0392 95.7611 45.1433C95.8412 45.2475 95.9 45.3664 95.9341 45.4933C95.9683 45.6202 95.9771 45.7525 95.96 45.8828C95.943 46.0131 95.9004 46.1387 95.8348 46.2526ZM91.9373 45.0026C92.135 45.0026 92.3284 44.9439 92.4928 44.834C92.6573 44.7241 92.7855 44.568 92.8611 44.3852C92.9368 44.2025 92.9566 44.0014 92.9181 43.8075C92.8795 43.6135 92.7842 43.4353 92.6444 43.2955C92.5045 43.1556 92.3263 43.0604 92.1324 43.0218C91.9384 42.9832 91.7373 43.003 91.5546 43.0787C91.3719 43.1544 91.2157 43.2825 91.1058 43.447C90.9959 43.6114 90.9373 43.8048 90.9373 44.0026C90.9373 44.2678 91.0426 44.5221 91.2302 44.7097C91.4177 44.8972 91.672 45.0026 91.9373 45.0026Z" fill="#9D9E9F"/>
<path d="M72.2285 46.2559C73.9723 47.8649 76.2684 48.7357 78.6373 48.6854C81.0062 48.6352 83.2635 47.6678 84.938 45.9863" stroke="#151B1E" stroke-width="1.5"/>
<path d="M43.1851 67.144C43.1851 67.568 43.0851 67.968 42.8851 68.344C42.6851 68.72 42.3651 69.028 41.9251 69.268C41.4851 69.5 40.9211 69.616 40.2331 69.616H38.7211V73H37.3531V64.66H40.2331C40.8731 64.66 41.4131 64.772 41.8531 64.996C42.3011 65.212 42.6331 65.508 42.8491 65.884C43.0731 66.26 43.1851 66.68 43.1851 67.144ZM40.2331 68.5C40.7531 68.5 41.1411 68.384 41.3971 68.152C41.6531 67.912 41.7811 67.576 41.7811 67.144C41.7811 66.232 41.2651 65.776 40.2331 65.776H38.7211V68.5H40.2331ZM45.8578 64.12V73H44.4898V64.12H45.8578ZM47.1979 69.664C47.1979 69 47.3339 68.412 47.6059 67.9C47.8859 67.388 48.2619 66.992 48.7339 66.712C49.2139 66.424 49.7419 66.28 50.3179 66.28C50.8379 66.28 51.2899 66.384 51.6739 66.592C52.0659 66.792 52.3779 67.044 52.6099 67.348V66.388H53.9899V73H52.6099V72.016C52.3779 72.328 52.0619 72.588 51.6619 72.796C51.2619 73.004 50.8059 73.108 50.2939 73.108C49.7259 73.108 49.2059 72.964 48.7339 72.676C48.2619 72.38 47.8859 71.972 47.6059 71.452C47.3339 70.924 47.1979 70.328 47.1979 69.664ZM52.6099 69.688C52.6099 69.232 52.5139 68.836 52.3219 68.5C52.1379 68.164 51.8939 67.908 51.5899 67.732C51.2859 67.556 50.9579 67.468 50.6059 67.468C50.2539 67.468 49.9259 67.556 49.6219 67.732C49.3179 67.9 49.0699 68.152 48.8779 68.488C48.6939 68.816 48.6019 69.208 48.6019 69.664C48.6019 70.12 48.6939 70.52 48.8779 70.864C49.0699 71.208 49.3179 71.472 49.6219 71.656C49.9339 71.832 50.2619 71.92 50.6059 71.92C50.9579 71.92 51.2859 71.832 51.5899 71.656C51.8939 71.48 52.1379 71.224 52.3219 70.888C52.5139 70.544 52.6099 70.144 52.6099 69.688ZM57.3827 67.504V71.164C57.3827 71.412 57.4387 71.592 57.5507 71.704C57.6707 71.808 57.8707 71.86 58.1507 71.86H58.9907V73H57.9107C57.2947 73 56.8227 72.856 56.4947 72.568C56.1667 72.28 56.0027 71.812 56.0027 71.164V67.504H55.2227V66.388H56.0027V64.744H57.3827V66.388H58.9907V67.504H57.3827ZM63.0236 67.504H61.7996V73H60.4196V67.504H59.6396V66.388H60.4196V65.92C60.4196 65.16 60.6196 64.608 61.0196 64.264C61.4276 63.912 62.0636 63.736 62.9276 63.736V64.876C62.5116 64.876 62.2196 64.956 62.0516 65.116C61.8836 65.268 61.7996 65.536 61.7996 65.92V66.388H63.0236V67.504ZM67.1039 73.108C66.4799 73.108 65.9159 72.968 65.4119 72.688C64.9079 72.4 64.5119 72 64.2239 71.488C63.9359 70.968 63.7919 70.368 63.7919 69.688C63.7919 69.016 63.9399 68.42 64.2359 67.9C64.5319 67.38 64.9359 66.98 65.4479 66.7C65.9599 66.42 66.5319 66.28 67.1639 66.28C67.7959 66.28 68.3679 66.42 68.8799 66.7C69.3919 66.98 69.7959 67.38 70.0919 67.9C70.3879 68.42 70.5359 69.016 70.5359 69.688C70.5359 70.36 70.3839 70.956 70.0799 71.476C69.7759 71.996 69.3599 72.4 68.8319 72.688C68.3119 72.968 67.7359 73.108 67.1039 73.108ZM67.1039 71.92C67.4559 71.92 67.7839 71.836 68.0879 71.668C68.3999 71.5 68.6519 71.248 68.8439 70.912C69.0359 70.576 69.1319 70.168 69.1319 69.688C69.1319 69.208 69.0399 68.804 68.8559 68.476C68.6719 68.14 68.4279 67.888 68.1239 67.72C67.8199 67.552 67.4919 67.468 67.1399 67.468C66.7879 67.468 66.4599 67.552 66.1559 67.72C65.8599 67.888 65.6239 68.14 65.4479 68.476C65.2719 68.804 65.1839 69.208 65.1839 69.688C65.1839 70.4 65.3639 70.952 65.7239 71.344C66.0919 71.728 66.5519 71.92 67.1039 71.92ZM73.2563 67.348C73.4563 67.012 73.7203 66.752 74.0483 66.568C74.3843 66.376 74.7803 66.28 75.2363 66.28V67.696H74.8883C74.3523 67.696 73.9443 67.832 73.6643 68.104C73.3923 68.376 73.2563 68.848 73.2563 69.52V73H71.8883V66.388H73.2563V67.348ZM84.4978 66.28C85.0178 66.28 85.4818 66.388 85.8898 66.604C86.3058 66.82 86.6298 67.14 86.8618 67.564C87.1018 67.988 87.2218 68.5 87.2218 69.1V73H85.8658V69.304C85.8658 68.712 85.7178 68.26 85.4218 67.948C85.1258 67.628 84.7218 67.468 84.2098 67.468C83.6978 67.468 83.2898 67.628 82.9858 67.948C82.6898 68.26 82.5418 68.712 82.5418 69.304V73H81.1858V69.304C81.1858 68.712 81.0378 68.26 80.7418 67.948C80.4458 67.628 80.0418 67.468 79.5298 67.468C79.0178 67.468 78.6098 67.628 78.3058 67.948C78.0098 68.26 77.8618 68.712 77.8618 69.304V73H76.4938V66.388H77.8618V67.144C78.0858 66.872 78.3698 66.66 78.7138 66.508C79.0578 66.356 79.4258 66.28 79.8178 66.28C80.3458 66.28 80.8178 66.392 81.2338 66.616C81.6498 66.84 81.9698 67.164 82.1938 67.588C82.3938 67.188 82.7058 66.872 83.1298 66.64C83.5538 66.4 84.0098 66.28 84.4978 66.28ZM97.4677 64.66V65.776H95.2477V73H93.8797V65.776H91.6477V64.66H97.4677ZM104.913 69.532C104.913 69.78 104.897 70.004 104.865 70.204H99.8131C99.8531 70.732 100.049 71.156 100.401 71.476C100.753 71.796 101.185 71.956 101.697 71.956C102.433 71.956 102.953 71.648 103.257 71.032H104.733C104.533 71.64 104.169 72.14 103.641 72.532C103.121 72.916 102.473 73.108 101.697 73.108C101.065 73.108 100.497 72.968 99.9931 72.688C99.4971 72.4 99.1051 72 98.8171 71.488C98.5371 70.968 98.3971 70.368 98.3971 69.688C98.3971 69.008 98.5331 68.412 98.8051 67.9C99.0851 67.38 99.4731 66.98 99.9691 66.7C100.473 66.42 101.049 66.28 101.697 66.28C102.321 66.28 102.877 66.416 103.365 66.688C103.853 66.96 104.233 67.344 104.505 67.84C104.777 68.328 104.913 68.892 104.913 69.532ZM103.485 69.1C103.477 68.596 103.297 68.192 102.945 67.888C102.593 67.584 102.157 67.432 101.637 67.432C101.165 67.432 100.761 67.584 100.425 67.888C100.089 68.184 99.8891 68.588 99.8251 69.1H103.485ZM105.803 69.664C105.803 69 105.939 68.412 106.211 67.9C106.491 67.388 106.867 66.992 107.339 66.712C107.819 66.424 108.347 66.28 108.923 66.28C109.443 66.28 109.895 66.384 110.279 66.592C110.671 66.792 110.983 67.044 111.215 67.348V66.388H112.595V73H111.215V72.016C110.983 72.328 110.667 72.588 110.267 72.796C109.867 73.004 109.411 73.108 108.899 73.108C108.331 73.108 107.811 72.964 107.339 72.676C106.867 72.38 106.491 71.972 106.211 71.452C105.939 70.924 105.803 70.328 105.803 69.664ZM111.215 69.688C111.215 69.232 111.119 68.836 110.927 68.5C110.743 68.164 110.499 67.908 110.195 67.732C109.891 67.556 109.563 67.468 109.211 67.468C108.859 67.468 108.531 67.556 108.227 67.732C107.923 67.9 107.675 68.152 107.483 68.488C107.299 68.816 107.207 69.208 107.207 69.664C107.207 70.12 107.299 70.52 107.483 70.864C107.675 71.208 107.923 71.472 108.227 71.656C108.539 71.832 108.867 71.92 109.211 71.92C109.563 71.92 109.891 71.832 110.195 71.656C110.499 71.48 110.743 71.224 110.927 70.888C111.119 70.544 111.215 70.144 111.215 69.688ZM122.396 66.28C122.916 66.28 123.38 66.388 123.788 66.604C124.204 66.82 124.528 67.14 124.76 67.564C125 67.988 125.12 68.5 125.12 69.1V73H123.764V69.304C123.764 68.712 123.616 68.26 123.32 67.948C123.024 67.628 122.62 67.468 122.108 67.468C121.596 67.468 121.188 67.628 120.884 67.948C120.588 68.26 120.44 68.712 120.44 69.304V73H119.084V69.304C119.084 68.712 118.936 68.26 118.64 67.948C118.344 67.628 117.94 67.468 117.428 67.468C116.916 67.468 116.508 67.628 116.204 67.948C115.908 68.26 115.76 68.712 115.76 69.304V73H114.392V66.388H115.76V67.144C115.984 66.872 116.268 66.66 116.612 66.508C116.956 66.356 117.324 66.28 117.716 66.28C118.244 66.28 118.716 66.392 119.132 66.616C119.548 66.84 119.868 67.164 120.092 67.588C120.292 67.188 120.604 66.872 121.028 66.64C121.452 66.4 121.908 66.28 122.396 66.28Z" fill="#9D9E9F"/>
<path d="M253.434 39.9596C253.973 41.4634 254.981 42.7534 256.308 43.6389H264.541C265.869 42.7534 266.877 41.4634 267.416 39.9596C267.955 38.4558 267.997 36.818 267.535 35.2886C267.074 33.7591 266.133 32.419 264.853 31.4666C263.572 30.5142 262.02 30 260.425 30C258.83 30 257.278 30.5142 255.997 31.4666C254.716 32.419 253.776 33.7591 253.314 35.2886C252.853 36.818 252.894 38.4558 253.434 39.9596Z" fill="#9D9E9F"/>
<path d="M250.887 40.2243L251.391 49.8183C251.419 50.3495 251.858 50.7658 252.39 50.7658H268.759C269.291 50.7658 269.73 50.3495 269.758 49.8183L270.262 40.2243C270.292 39.6522 269.836 39.1719 269.263 39.1719H251.886C251.313 39.1719 250.857 39.6522 250.887 40.2243Z" fill="#151B1E"/>
<path d="M249.41 41.5926L250.44 51.061C250.496 51.5684 250.924 51.9528 251.434 51.9528H269.889C270.4 51.9528 270.828 51.5682 270.883 51.0606L271.91 41.5921C271.974 41.0007 271.511 40.4844 270.916 40.4844H250.404C249.809 40.4844 249.345 41.001 249.41 41.5926Z" fill="#9D9E9F"/>
<ellipse cx="260.668" cy="46.2549" rx="1.40835" ry="1.4111" fill="#151B1F"/>
<path d="M248.453 54H272.453" stroke="#9D9E9F" stroke-width="1.17086" stroke-linecap="round"/>
<path d="M231.881 71.296H228.389L227.789 73H226.361L229.349 64.648H230.933L233.921 73H232.481L231.881 71.296ZM231.497 70.18L230.141 66.304L228.773 70.18H231.497ZM236.588 67.36C236.82 67.056 237.136 66.8 237.536 66.592C237.936 66.384 238.388 66.28 238.892 66.28C239.468 66.28 239.992 66.424 240.464 66.712C240.944 66.992 241.32 67.388 241.592 67.9C241.864 68.412 242 69 242 69.664C242 70.328 241.864 70.924 241.592 71.452C241.32 71.972 240.944 72.38 240.464 72.676C239.992 72.964 239.468 73.108 238.892 73.108C238.388 73.108 237.94 73.008 237.548 72.808C237.156 72.6 236.836 72.344 236.588 72.04V76.144H235.22V66.388H236.588V67.36ZM240.608 69.664C240.608 69.208 240.512 68.816 240.32 68.488C240.136 68.152 239.888 67.9 239.576 67.732C239.272 67.556 238.944 67.468 238.592 67.468C238.248 67.468 237.92 67.556 237.608 67.732C237.304 67.908 237.056 68.164 236.864 68.5C236.68 68.836 236.588 69.232 236.588 69.688C236.588 70.144 236.68 70.544 236.864 70.888C237.056 71.224 237.304 71.48 237.608 71.656C237.92 71.832 238.248 71.92 238.592 71.92C238.944 71.92 239.272 71.832 239.576 71.656C239.888 71.472 240.136 71.208 240.32 70.864C240.512 70.52 240.608 70.12 240.608 69.664ZM244.721 67.36C244.953 67.056 245.269 66.8 245.669 66.592C246.069 66.384 246.521 66.28 247.025 66.28C247.601 66.28 248.125 66.424 248.597 66.712C249.077 66.992 249.453 67.388 249.725 67.9C249.997 68.412 250.133 69 250.133 69.664C250.133 70.328 249.997 70.924 249.725 71.452C249.453 71.972 249.077 72.38 248.597 72.676C248.125 72.964 247.601 73.108 247.025 73.108C246.521 73.108 246.073 73.008 245.681 72.808C245.289 72.6 244.969 72.344 244.721 72.04V76.144H243.353V66.388H244.721V67.36ZM248.741 69.664C248.741 69.208 248.645 68.816 248.453 68.488C248.269 68.152 248.021 67.9 247.709 67.732C247.405 67.556 247.077 67.468 246.725 67.468C246.381 67.468 246.053 67.556 245.741 67.732C245.437 67.908 245.189 68.164 244.997 68.5C244.813 68.836 244.721 69.232 244.721 69.688C244.721 70.144 244.813 70.544 244.997 70.888C245.189 71.224 245.437 71.48 245.741 71.656C246.053 71.832 246.381 71.92 246.725 71.92C247.077 71.92 247.405 71.832 247.709 71.656C248.021 71.472 248.269 71.208 248.453 70.864C248.645 70.52 248.741 70.12 248.741 69.664ZM259.991 64.66V65.776H257.771V73H256.403V65.776H254.171V64.66H259.991ZM267.437 69.532C267.437 69.78 267.421 70.004 267.389 70.204H262.337C262.377 70.732 262.573 71.156 262.925 71.476C263.277 71.796 263.709 71.956 264.221 71.956C264.957 71.956 265.477 71.648 265.781 71.032H267.257C267.057 71.64 266.693 72.14 266.165 72.532C265.645 72.916 264.997 73.108 264.221 73.108C263.589 73.108 263.021 72.968 262.517 72.688C262.021 72.4 261.629 72 261.341 71.488C261.061 70.968 260.921 70.368 260.921 69.688C260.921 69.008 261.057 68.412 261.329 67.9C261.609 67.38 261.997 66.98 262.493 66.7C262.997 66.42 263.573 66.28 264.221 66.28C264.845 66.28 265.401 66.416 265.889 66.688C266.377 66.96 266.757 67.344 267.029 67.84C267.301 68.328 267.437 68.892 267.437 69.532ZM266.009 69.1C266.001 68.596 265.821 68.192 265.469 67.888C265.117 67.584 264.681 67.432 264.161 67.432C263.689 67.432 263.285 67.584 262.949 67.888C262.613 68.184 262.413 68.588 262.349 69.1H266.009ZM268.327 69.664C268.327 69 268.463 68.412 268.735 67.9C269.015 67.388 269.391 66.992 269.863 66.712C270.343 66.424 270.871 66.28 271.447 66.28C271.967 66.28 272.419 66.384 272.803 66.592C273.195 66.792 273.507 67.044 273.739 67.348V66.388H275.119V73H273.739V72.016C273.507 72.328 273.191 72.588 272.791 72.796C272.391 73.004 271.935 73.108 271.423 73.108C270.855 73.108 270.335 72.964 269.863 72.676C269.391 72.38 269.015 71.972 268.735 71.452C268.463 70.924 268.327 70.328 268.327 69.664ZM273.739 69.688C273.739 69.232 273.643 68.836 273.451 68.5C273.267 68.164 273.023 67.908 272.719 67.732C272.415 67.556 272.087 67.468 271.735 67.468C271.383 67.468 271.055 67.556 270.751 67.732C270.447 67.9 270.199 68.152 270.007 68.488C269.823 68.816 269.731 69.208 269.731 69.664C269.731 70.12 269.823 70.52 270.007 70.864C270.199 71.208 270.447 71.472 270.751 71.656C271.063 71.832 271.391 71.92 271.735 71.92C272.087 71.92 272.415 71.832 272.719 71.656C273.023 71.48 273.267 71.224 273.451 70.888C273.643 70.544 273.739 70.144 273.739 69.688ZM284.92 66.28C285.44 66.28 285.904 66.388 286.312 66.604C286.728 66.82 287.052 67.14 287.284 67.564C287.524 67.988 287.644 68.5 287.644 69.1V73H286.288V69.304C286.288 68.712 286.14 68.26 285.844 67.948C285.548 67.628 285.144 67.468 284.632 67.468C284.12 67.468 283.712 67.628 283.408 67.948C283.112 68.26 282.964 68.712 282.964 69.304V73H281.608V69.304C281.608 68.712 281.46 68.26 281.164 67.948C280.868 67.628 280.464 67.468 279.952 67.468C279.44 67.468 279.032 67.628 278.728 67.948C278.432 68.26 278.284 68.712 278.284 69.304V73H276.916V66.388H278.284V67.144C278.508 66.872 278.792 66.66 279.136 66.508C279.48 66.356 279.848 66.28 280.24 66.28C280.768 66.28 281.24 66.392 281.656 66.616C282.072 66.84 282.392 67.164 282.616 67.588C282.816 67.188 283.128 66.872 283.552 66.64C283.976 66.4 284.432 66.28 284.92 66.28ZM291.784 73.108C291.264 73.108 290.796 73.016 290.38 72.832C289.972 72.64 289.648 72.384 289.408 72.064C289.168 71.736 289.04 71.372 289.024 70.972H290.44C290.464 71.252 290.596 71.488 290.836 71.68C291.084 71.864 291.392 71.956 291.76 71.956C292.144 71.956 292.44 71.884 292.648 71.74C292.864 71.588 292.972 71.396 292.972 71.164C292.972 70.916 292.852 70.732 292.612 70.612C292.38 70.492 292.008 70.36 291.496 70.216C291 70.08 290.596 69.948 290.284 69.82C289.972 69.692 289.7 69.496 289.468 69.232C289.244 68.968 289.132 68.62 289.132 68.188C289.132 67.836 289.236 67.516 289.444 67.228C289.652 66.932 289.948 66.7 290.332 66.532C290.724 66.364 291.172 66.28 291.676 66.28C292.428 66.28 293.032 66.472 293.488 66.856C293.952 67.232 294.2 67.748 294.232 68.404H292.864C292.84 68.108 292.72 67.872 292.504 67.696C292.288 67.52 291.996 67.432 291.628 67.432C291.268 67.432 290.992 67.5 290.8 67.636C290.608 67.772 290.512 67.952 290.512 68.176C290.512 68.352 290.576 68.5 290.704 68.62C290.832 68.74 290.988 68.836 291.172 68.908C291.356 68.972 291.628 69.056 291.988 69.16C292.468 69.288 292.86 69.42 293.164 69.556C293.476 69.684 293.744 69.876 293.968 70.132C294.192 70.388 294.308 70.728 294.316 71.152C294.316 71.528 294.212 71.864 294.004 72.16C293.796 72.456 293.5 72.688 293.116 72.856C292.74 73.024 292.296 73.108 291.784 73.108Z" fill="#9D9E9F"/>
<path d="M426.35 32.3281C428.18 31.7886 430.147 31.9658 431.85 32.8252C431.915 32.8588 431.972 32.9068 432.017 32.9648C432.061 33.0229 432.093 33.0906 432.109 33.1621C432.124 33.2335 432.124 33.3076 432.109 33.3789C432.093 33.4504 432.061 33.5172 432.016 33.5752C430.749 35.1549 430.022 37.099 429.941 39.1221C429.859 41.1451 430.427 43.1417 431.562 44.8184C431.635 44.9279 431.663 45.0619 431.638 45.1914C431.613 45.3208 431.538 45.4355 431.429 45.5098C429.949 46.5426 428.682 47.8508 427.697 49.3633C427.3 49.9714 427.138 50.703 427.241 51.4219C427.253 51.4934 427.248 51.567 427.229 51.6367C427.209 51.7063 427.175 51.7711 427.128 51.8262C427.081 51.8813 427.023 51.9257 426.957 51.9561C426.891 51.9864 426.82 52.002 426.747 52.002H419.21C418.99 52.002 418.775 51.9289 418.601 51.7949C418.426 51.6609 418.3 51.4733 418.243 51.2607C418.209 51.1209 418.203 50.9749 418.229 50.833C418.254 50.6911 418.309 50.5559 418.39 50.4365C419.798 48.2792 421.863 46.6332 424.28 45.7422C422.698 44.6764 421.582 43.0474 421.158 41.1875C420.735 39.3274 421.036 37.3754 422 35.7295C422.965 34.0837 424.52 32.8677 426.35 32.3281ZM439.462 31.998C441.072 31.998 442.64 32.516 443.933 33.4756C445.226 34.4353 446.176 35.786 446.642 37.3271C447.108 38.8681 447.065 40.5181 446.521 42.0332C445.976 43.5485 444.959 44.8489 443.618 45.7412C446.043 46.6348 448.114 48.2884 449.522 50.4551C449.62 50.6058 449.675 50.7803 449.683 50.96C449.69 51.1399 449.648 51.3191 449.563 51.4775C449.477 51.6358 449.35 51.7682 449.195 51.8604C449.041 51.9525 448.864 52.001 448.684 52.001H430.241C430.061 52.001 429.884 51.9525 429.73 51.8604C429.575 51.7682 429.448 51.6358 429.362 51.4775C429.277 51.3191 429.235 51.1399 429.242 50.96C429.25 50.7802 429.305 50.6058 429.403 50.4551C430.811 48.2885 432.882 46.6348 435.306 45.7412C433.966 44.849 432.949 43.5484 432.404 42.0332C431.86 40.5181 431.817 38.8681 432.283 37.3271C432.749 35.786 433.699 34.4353 434.992 33.4756C436.285 32.5161 437.852 31.9981 439.462 31.998ZM447.05 32.8252C448.753 31.9658 450.72 31.7876 452.55 32.3271C454.38 32.8667 455.935 34.0828 456.9 35.7285C457.864 37.3745 458.165 39.3265 457.741 41.1865C457.318 43.0466 456.201 44.6754 454.618 45.7412C457.036 46.6322 459.102 48.2789 460.51 50.4365C460.591 50.5557 460.646 50.6903 460.671 50.832C460.696 50.9739 460.691 51.1199 460.656 51.2598C460.599 51.4725 460.474 51.6609 460.299 51.7949C460.124 51.9289 459.91 52.001 459.69 52.001H452.152C452.08 52.001 452.008 51.9854 451.943 51.9551C451.877 51.9247 451.819 51.8803 451.772 51.8252C451.725 51.7701 451.691 51.7054 451.671 51.6357C451.652 51.566 451.647 51.4924 451.658 51.4209C451.761 50.7021 451.599 49.9703 451.202 49.3623C450.218 47.8499 448.951 46.5416 447.471 45.5088C447.362 45.4345 447.287 45.3198 447.262 45.1904C447.237 45.0611 447.264 44.9269 447.337 44.8174C448.472 43.1407 449.041 41.1442 448.959 39.1211C448.877 37.0983 448.15 35.1548 446.884 33.5752C446.839 33.5172 446.807 33.4495 446.791 33.3779C446.775 33.3066 446.775 33.2325 446.791 33.1611C446.807 33.0896 446.838 33.0219 446.883 32.9639C446.928 32.9058 446.985 32.8588 447.05 32.8252Z" fill="#9D9E9F"/>
<path d="M433.643 45.3259C435.184 46.8726 437.273 47.7422 439.453 47.7422C441.633 47.7422 443.723 46.8726 445.263 45.3259" stroke="#151A1E" stroke-width="1.5"/>
<path d="M448.61 47.5104C449.976 47.8372 451.402 47.8073 452.753 47.4236C454.103 47.0398 455.333 46.3151 456.326 45.3189" stroke="#151A1E" stroke-width="1.5"/>
<path d="M422.905 45.5775C423.884 46.4774 425.066 47.126 426.35 47.4673C427.633 47.8086 428.98 47.8325 430.275 47.5368" stroke="#151A1E" stroke-width="1.5"/>
<path d="M410.881 71.296H407.389L406.789 73H405.361L408.349 64.648H409.933L412.921 73H411.481L410.881 71.296ZM410.497 70.18L409.141 66.304L407.773 70.18H410.497ZM415.588 67.36C415.82 67.056 416.136 66.8 416.536 66.592C416.936 66.384 417.388 66.28 417.892 66.28C418.468 66.28 418.992 66.424 419.464 66.712C419.944 66.992 420.32 67.388 420.592 67.9C420.864 68.412 421 69 421 69.664C421 70.328 420.864 70.924 420.592 71.452C420.32 71.972 419.944 72.38 419.464 72.676C418.992 72.964 418.468 73.108 417.892 73.108C417.388 73.108 416.94 73.008 416.548 72.808C416.156 72.6 415.836 72.344 415.588 72.04V76.144H414.22V66.388H415.588V67.36ZM419.608 69.664C419.608 69.208 419.512 68.816 419.32 68.488C419.136 68.152 418.888 67.9 418.576 67.732C418.272 67.556 417.944 67.468 417.592 67.468C417.248 67.468 416.92 67.556 416.608 67.732C416.304 67.908 416.056 68.164 415.864 68.5C415.68 68.836 415.588 69.232 415.588 69.688C415.588 70.144 415.68 70.544 415.864 70.888C416.056 71.224 416.304 71.48 416.608 71.656C416.92 71.832 417.248 71.92 417.592 71.92C417.944 71.92 418.272 71.832 418.576 71.656C418.888 71.472 419.136 71.208 419.32 70.864C419.512 70.52 419.608 70.12 419.608 69.664ZM423.721 67.36C423.953 67.056 424.269 66.8 424.669 66.592C425.069 66.384 425.521 66.28 426.025 66.28C426.601 66.28 427.125 66.424 427.597 66.712C428.077 66.992 428.453 67.388 428.725 67.9C428.997 68.412 429.133 69 429.133 69.664C429.133 70.328 428.997 70.924 428.725 71.452C428.453 71.972 428.077 72.38 427.597 72.676C427.125 72.964 426.601 73.108 426.025 73.108C425.521 73.108 425.073 73.008 424.681 72.808C424.289 72.6 423.969 72.344 423.721 72.04V76.144H422.353V66.388H423.721V67.36ZM427.741 69.664C427.741 69.208 427.645 68.816 427.453 68.488C427.269 68.152 427.021 67.9 426.709 67.732C426.405 67.556 426.077 67.468 425.725 67.468C425.381 67.468 425.053 67.556 424.741 67.732C424.437 67.908 424.189 68.164 423.997 68.5C423.813 68.836 423.721 69.232 423.721 69.688C423.721 70.144 423.813 70.544 423.997 70.888C424.189 71.224 424.437 71.48 424.741 71.656C425.053 71.832 425.381 71.92 425.725 71.92C426.077 71.92 426.405 71.832 426.709 71.656C427.021 71.472 427.269 71.208 427.453 70.864C427.645 70.52 427.741 70.12 427.741 69.664ZM438.991 64.66V65.776H436.771V73H435.403V65.776H433.171V64.66H438.991ZM446.437 69.532C446.437 69.78 446.421 70.004 446.389 70.204H441.337C441.377 70.732 441.573 71.156 441.925 71.476C442.277 71.796 442.709 71.956 443.221 71.956C443.957 71.956 444.477 71.648 444.781 71.032H446.257C446.057 71.64 445.693 72.14 445.165 72.532C444.645 72.916 443.997 73.108 443.221 73.108C442.589 73.108 442.021 72.968 441.517 72.688C441.021 72.4 440.629 72 440.341 71.488C440.061 70.968 439.921 70.368 439.921 69.688C439.921 69.008 440.057 68.412 440.329 67.9C440.609 67.38 440.997 66.98 441.493 66.7C441.997 66.42 442.573 66.28 443.221 66.28C443.845 66.28 444.401 66.416 444.889 66.688C445.377 66.96 445.757 67.344 446.029 67.84C446.301 68.328 446.437 68.892 446.437 69.532ZM445.009 69.1C445.001 68.596 444.821 68.192 444.469 67.888C444.117 67.584 443.681 67.432 443.161 67.432C442.689 67.432 442.285 67.584 441.949 67.888C441.613 68.184 441.413 68.588 441.349 69.1H445.009ZM447.327 69.664C447.327 69 447.463 68.412 447.735 67.9C448.015 67.388 448.391 66.992 448.863 66.712C449.343 66.424 449.871 66.28 450.447 66.28C450.967 66.28 451.419 66.384 451.803 66.592C452.195 66.792 452.507 67.044 452.739 67.348V66.388H454.119V73H452.739V72.016C452.507 72.328 452.191 72.588 451.791 72.796C451.391 73.004 450.935 73.108 450.423 73.108C449.855 73.108 449.335 72.964 448.863 72.676C448.391 72.38 448.015 71.972 447.735 71.452C447.463 70.924 447.327 70.328 447.327 69.664ZM452.739 69.688C452.739 69.232 452.643 68.836 452.451 68.5C452.267 68.164 452.023 67.908 451.719 67.732C451.415 67.556 451.087 67.468 450.735 67.468C450.383 67.468 450.055 67.556 449.751 67.732C449.447 67.9 449.199 68.152 449.007 68.488C448.823 68.816 448.731 69.208 448.731 69.664C448.731 70.12 448.823 70.52 449.007 70.864C449.199 71.208 449.447 71.472 449.751 71.656C450.063 71.832 450.391 71.92 450.735 71.92C451.087 71.92 451.415 71.832 451.719 71.656C452.023 71.48 452.267 71.224 452.451 70.888C452.643 70.544 452.739 70.144 452.739 69.688ZM463.92 66.28C464.44 66.28 464.904 66.388 465.312 66.604C465.728 66.82 466.052 67.14 466.284 67.564C466.524 67.988 466.644 68.5 466.644 69.1V73H465.288V69.304C465.288 68.712 465.14 68.26 464.844 67.948C464.548 67.628 464.144 67.468 463.632 67.468C463.12 67.468 462.712 67.628 462.408 67.948C462.112 68.26 461.964 68.712 461.964 69.304V73H460.608V69.304C460.608 68.712 460.46 68.26 460.164 67.948C459.868 67.628 459.464 67.468 458.952 67.468C458.44 67.468 458.032 67.628 457.728 67.948C457.432 68.26 457.284 68.712 457.284 69.304V73H455.916V66.388H457.284V67.144C457.508 66.872 457.792 66.66 458.136 66.508C458.48 66.356 458.848 66.28 459.24 66.28C459.768 66.28 460.24 66.392 460.656 66.616C461.072 66.84 461.392 67.164 461.616 67.588C461.816 67.188 462.128 66.872 462.552 66.64C462.976 66.4 463.432 66.28 463.92 66.28ZM470.784 73.108C470.264 73.108 469.796 73.016 469.38 72.832C468.972 72.64 468.648 72.384 468.408 72.064C468.168 71.736 468.04 71.372 468.024 70.972H469.44C469.464 71.252 469.596 71.488 469.836 71.68C470.084 71.864 470.392 71.956 470.76 71.956C471.144 71.956 471.44 71.884 471.648 71.74C471.864 71.588 471.972 71.396 471.972 71.164C471.972 70.916 471.852 70.732 471.612 70.612C471.38 70.492 471.008 70.36 470.496 70.216C470 70.08 469.596 69.948 469.284 69.82C468.972 69.692 468.7 69.496 468.468 69.232C468.244 68.968 468.132 68.62 468.132 68.188C468.132 67.836 468.236 67.516 468.444 67.228C468.652 66.932 468.948 66.7 469.332 66.532C469.724 66.364 470.172 66.28 470.676 66.28C471.428 66.28 472.032 66.472 472.488 66.856C472.952 67.232 473.2 67.748 473.232 68.404H471.864C471.84 68.108 471.72 67.872 471.504 67.696C471.288 67.52 470.996 67.432 470.628 67.432C470.268 67.432 469.992 67.5 469.8 67.636C469.608 67.772 469.512 67.952 469.512 68.176C469.512 68.352 469.576 68.5 469.704 68.62C469.832 68.74 469.988 68.836 470.172 68.908C470.356 68.972 470.628 69.056 470.988 69.16C471.468 69.288 471.86 69.42 472.164 69.556C472.476 69.684 472.744 69.876 472.968 70.132C473.192 70.388 473.308 70.728 473.316 71.152C473.316 71.528 473.212 71.864 473.004 72.16C472.796 72.456 472.5 72.688 472.116 72.856C471.74 73.024 471.296 73.108 470.784 73.108Z" fill="#9D9E9F"/>
<path d="M171.119 4L171.119 406" stroke="url(#paint16_linear_9684_113141)" stroke-width="1.5" stroke-dasharray="1.59 6.37"/>
<path d="M349.787 4L349.787 406" stroke="url(#paint17_linear_9684_113141)" stroke-width="1.5" stroke-dasharray="1.59 6.37"/>
<path d="M499.547 349H463.453" stroke="url(#paint18_linear_9684_113141)" stroke-linecap="round"/>
<path d="M499.547 187.891H463.453" stroke="url(#paint19_linear_9684_113141)" stroke-linecap="round"/>
</g>
<rect x="0.5" y="0.5" width="535" height="409" rx="15.5" stroke="url(#paint20_linear_9684_113141)" stroke-opacity="0.47"/>
<defs>
<linearGradient id="paint0_linear_9684_113141" x1="268" y1="0" x2="268" y2="410" gradientUnits="userSpaceOnUse">
<stop stop-color="#161C20"/>
<stop offset="1" stop-color="#0A0D0F"/>
</linearGradient>
<radialGradient id="paint1_radial_9684_113141" cx="0" cy="0" r="1" gradientUnits="userSpaceOnUse" gradientTransform="translate(263.199 215.695) rotate(90) scale(215.695 335.715)">
<stop stop-color="#D9D9D9" stop-opacity="0.8"/>
<stop offset="1" stop-color="#737373"/>
</radialGradient>
<linearGradient id="paint2_linear_9684_113141" x1="81.4531" y1="207" x2="81.4531" y2="255" gradientUnits="userSpaceOnUse">
<stop stop-color="#161C20"/>
<stop offset="1" stop-color="#0A0D0F"/>
</linearGradient>
<linearGradient id="paint3_linear_9684_113141" x1="81.4531" y1="230.984" x2="81.4531" y2="255" gradientUnits="userSpaceOnUse">
<stop stop-color="#3B3D3F" stop-opacity="0.5"/>
<stop offset="1" stop-color="#3B3D3F" stop-opacity="0.89"/>
</linearGradient>
<linearGradient id="paint4_linear_9684_113141" x1="260.453" y1="126" x2="260.453" y2="174" gradientUnits="userSpaceOnUse">
<stop stop-color="#161C20"/>
<stop offset="1" stop-color="#0A0D0F"/>
</linearGradient>
<linearGradient id="paint5_linear_9684_113141" x1="260.453" y1="149.984" x2="260.453" y2="174" gradientUnits="userSpaceOnUse">
<stop stop-color="#3B3D3F" stop-opacity="0.5"/>
<stop offset="1" stop-color="#3B3D3F" stop-opacity="0.89"/>
</linearGradient>
<linearGradient id="paint6_linear_9684_113141" x1="260.453" y1="288" x2="260.453" y2="336" gradientUnits="userSpaceOnUse">
<stop stop-color="#161C20"/>
<stop offset="1" stop-color="#0A0D0F"/>
</linearGradient>
<linearGradient id="paint7_linear_9684_113141" x1="260.453" y1="311.984" x2="260.453" y2="336" gradientUnits="userSpaceOnUse">
<stop stop-color="#3B3D3F" stop-opacity="0.5"/>
<stop offset="1" stop-color="#3B3D3F" stop-opacity="0.89"/>
</linearGradient>
<linearGradient id="paint8_linear_9684_113141" x1="439.453" y1="92" x2="439.453" y2="140" gradientUnits="userSpaceOnUse">
<stop stop-color="#161C20"/>
<stop offset="1" stop-color="#0A0D0F"/>
</linearGradient>
<linearGradient id="paint9_linear_9684_113141" x1="439.453" y1="115.984" x2="439.453" y2="140" gradientUnits="userSpaceOnUse">
<stop stop-color="#3B3D3F" stop-opacity="0.5"/>
<stop offset="1" stop-color="#3B3D3F" stop-opacity="0.89"/>
</linearGradient>
<linearGradient id="paint10_linear_9684_113141" x1="439.453" y1="163" x2="439.453" y2="211" gradientUnits="userSpaceOnUse">
<stop stop-color="#161C20"/>
<stop offset="1" stop-color="#0A0D0F"/>
</linearGradient>
<linearGradient id="paint11_linear_9684_113141" x1="439.453" y1="186.984" x2="439.453" y2="211" gradientUnits="userSpaceOnUse">
<stop stop-color="#3B3D3F" stop-opacity="0.5"/>
<stop offset="1" stop-color="#3B3D3F" stop-opacity="0.89"/>
</linearGradient>
<linearGradient id="paint12_linear_9684_113141" x1="439.453" y1="324" x2="439.453" y2="372" gradientUnits="userSpaceOnUse">
<stop stop-color="#161C20"/>
<stop offset="1" stop-color="#0A0D0F"/>
</linearGradient>
<linearGradient id="paint13_linear_9684_113141" x1="439.453" y1="347.984" x2="439.453" y2="372" gradientUnits="userSpaceOnUse">
<stop stop-color="#3B3D3F" stop-opacity="0.5"/>
<stop offset="1" stop-color="#3B3D3F" stop-opacity="0.89"/>
</linearGradient>
<linearGradient id="paint14_linear_9684_113141" x1="439.453" y1="252" x2="439.453" y2="300" gradientUnits="userSpaceOnUse">
<stop stop-color="#161C20"/>
<stop offset="1" stop-color="#0A0D0F"/>
</linearGradient>
<linearGradient id="paint15_linear_9684_113141" x1="439.453" y1="275.984" x2="439.453" y2="300" gradientUnits="userSpaceOnUse">
<stop stop-color="#3B3D3F" stop-opacity="0.5"/>
<stop offset="1" stop-color="#3B3D3F" stop-opacity="0.89"/>
</linearGradient>
<linearGradient id="paint16_linear_9684_113141" x1="171.619" y1="15.6256" x2="171.619" y2="409.671" gradientUnits="userSpaceOnUse">
<stop stop-color="#6C6E6F" stop-opacity="0"/>
<stop offset="0.5" stop-color="#4B4D4E"/>
<stop offset="1" stop-color="#6C6E6F" stop-opacity="0"/>
</linearGradient>
<linearGradient id="paint17_linear_9684_113141" x1="350.287" y1="15.6256" x2="350.287" y2="409.671" gradientUnits="userSpaceOnUse">
<stop stop-color="#6C6E6F" stop-opacity="0"/>
<stop offset="0.5" stop-color="#4B4D4E"/>
<stop offset="1" stop-color="#6C6E6F" stop-opacity="0"/>
</linearGradient>
<linearGradient id="paint18_linear_9684_113141" x1="499.546" y1="339" x2="444.761" y2="339" gradientUnits="userSpaceOnUse">
<stop stop-color="#33373A" stop-opacity="0"/>
<stop offset="1" stop-color="#33373A"/>
</linearGradient>
<linearGradient id="paint19_linear_9684_113141" x1="499.546" y1="177.891" x2="444.761" y2="177.891" gradientUnits="userSpaceOnUse">
<stop stop-color="#33373A" stop-opacity="0"/>
<stop offset="1" stop-color="#33373A"/>
</linearGradient>
<linearGradient id="paint20_linear_9684_113141" x1="268" y1="0" x2="268" y2="410" gradientUnits="userSpaceOnUse">
<stop stop-color="#3B3D3F" stop-opacity="0.4"/>
<stop offset="1" stop-color="#3B3D3F"/>
</linearGradient>
<clipPath id="clip0_9684_113141">
<rect width="536" height="410" rx="16" fill="white"/>
</clipPath>
<clipPath id="clip1_9684_113141">
<rect width="524.93" height="698.531" fill="white" transform="translate(429.625 -198.464) rotate(60)"/>
</clipPath>
<clipPath id="clip2_9684_113141">
<rect width="28" height="28" fill="white" transform="translate(67.4531 217)"/>
</clipPath>
<clipPath id="clip3_9684_113141">
<rect width="28" height="28" fill="white" transform="translate(246.453 136)"/>
</clipPath>
<clipPath id="clip4_9684_113141">
<rect width="28" height="28" fill="white" transform="translate(246.453 298)"/>
</clipPath>
</defs>
</svg>
