<svg width="24" height="25" viewBox="0 0 24 25" fill="none" xmlns="http://www.w3.org/2000/svg">
<path d="M19.5 4.11938H4.5C3.90326 4.11938 3.33097 4.35644 2.90901 4.77839C2.48705 5.20035 2.25 5.77265 2.25 6.36938V16.8694C2.25 17.4661 2.48705 18.0384 2.90901 18.4604C3.33097 18.8823 3.90326 19.1194 4.5 19.1194H19.5C20.0967 19.1194 20.669 18.8823 21.091 18.4604C21.5129 18.0384 21.75 17.4661 21.75 16.8694V6.36938C21.75 5.77265 21.5129 5.20035 21.091 4.77839C20.669 4.35644 20.0967 4.11938 19.5 4.11938ZM20.25 16.8694C20.25 17.0683 20.171 17.2591 20.0303 17.3997C19.8897 17.5404 19.6989 17.6194 19.5 17.6194H4.5C4.30109 17.6194 4.11032 17.5404 3.96967 17.3997C3.82902 17.2591 3.75 17.0683 3.75 16.8694V6.36938C3.75 6.17047 3.82902 5.97971 3.96967 5.83905C4.11032 5.6984 4.30109 5.61938 4.5 5.61938H19.5C19.6989 5.61938 19.8897 5.6984 20.0303 5.83905C20.171 5.97971 20.25 6.17047 20.25 6.36938V16.8694ZM15.75 21.3694C15.75 21.5683 15.671 21.7591 15.5303 21.8997C15.3897 22.0404 15.1989 22.1194 15 22.1194H9C8.80109 22.1194 8.61032 22.0404 8.46967 21.8997C8.32902 21.7591 8.25 21.5683 8.25 21.3694C8.25 21.1705 8.32902 20.9797 8.46967 20.8391C8.61032 20.6984 8.80109 20.6194 9 20.6194H15C15.1989 20.6194 15.3897 20.6984 15.5303 20.8391C15.671 20.9797 15.75 21.1705 15.75 21.3694Z" fill="#FF5500"/>
<path d="M14.6722 12.2119L14.2353 11.9597C14.2865 11.6883 14.2865 11.4098 14.2353 11.1384L14.6722 10.8863C14.8445 10.7868 14.9702 10.623 15.0217 10.4308C15.0732 10.2386 15.0463 10.0339 14.9469 9.86157C14.8474 9.68926 14.6836 9.56352 14.4914 9.51201C14.2992 9.4605 14.0945 9.48743 13.9222 9.58688L13.4844 9.84001C13.2748 9.66025 13.0339 9.52072 12.7737 9.42845V8.92407C12.7737 8.72516 12.6947 8.53439 12.5541 8.39374C12.4134 8.25309 12.2226 8.17407 12.0237 8.17407C11.8248 8.17407 11.6341 8.25309 11.4934 8.39374C11.3527 8.53439 11.2737 8.72516 11.2737 8.92407V9.42845C11.0135 9.52072 10.7726 9.66025 10.5631 9.84001L10.1253 9.58688C10.04 9.53764 9.94579 9.50568 9.84812 9.49283C9.75045 9.47999 9.65121 9.4865 9.55606 9.51201C9.46091 9.53752 9.37171 9.58151 9.29357 9.64149C9.21542 9.70147 9.14985 9.77625 9.10061 9.86157C9.05136 9.94689 9.0194 10.0411 9.00655 10.1387C8.99371 10.2364 9.00022 10.3357 9.02573 10.4308C9.05124 10.526 9.09523 10.6152 9.15521 10.6933C9.21519 10.7714 9.28997 10.837 9.37529 10.8863L9.81217 11.1384C9.76092 11.4098 9.76092 11.6883 9.81217 11.9597L9.37529 12.2119C9.23223 12.2944 9.1204 12.4218 9.05716 12.5744C8.99392 12.727 8.98281 12.8961 9.02555 13.0557C9.06829 13.2152 9.16249 13.3562 9.29354 13.4567C9.42458 13.5572 9.58514 13.6116 9.75029 13.6116C9.88198 13.612 10.0114 13.5774 10.1253 13.5113L10.5631 13.2581C10.7726 13.4379 11.0135 13.5774 11.2737 13.6697V14.1741C11.2737 14.373 11.3527 14.5638 11.4934 14.7044C11.6341 14.8451 11.8248 14.9241 12.0237 14.9241C12.2226 14.9241 12.4134 14.8451 12.5541 14.7044C12.6947 14.5638 12.7737 14.373 12.7737 14.1741V13.6697C13.0339 13.5774 13.2748 13.4379 13.4844 13.2581L13.9222 13.5113C14.0361 13.5774 14.1655 13.612 14.2972 13.6116C14.4623 13.6116 14.6229 13.5572 14.7539 13.4567C14.885 13.3562 14.9792 13.2152 15.0219 13.0557C15.0647 12.8961 15.0535 12.727 14.9903 12.5744C14.9271 12.4218 14.8152 12.2944 14.6722 12.2119ZM11.2737 11.5491C11.2737 11.4007 11.3177 11.2557 11.4001 11.1324C11.4825 11.0091 11.5997 10.9129 11.7367 10.8562C11.8738 10.7994 12.0246 10.7845 12.17 10.8135C12.3155 10.8424 12.4492 10.9139 12.5541 11.0187C12.659 11.1236 12.7304 11.2573 12.7593 11.4028C12.7883 11.5482 12.7734 11.699 12.7166 11.8361C12.6599 11.9731 12.5637 12.0903 12.4404 12.1727C12.3171 12.2551 12.1721 12.2991 12.0237 12.2991C11.8248 12.2991 11.6341 12.2201 11.4934 12.0794C11.3527 11.9388 11.2737 11.748 11.2737 11.5491Z" fill="#FF5500"/>
</svg>
