<svg width="24" height="25" viewBox="0 0 24 25" fill="none" xmlns="http://www.w3.org/2000/svg">
<path d="M5.46996 9.90018L2.46996 6.90018C2.40023 6.83053 2.34491 6.74781 2.30717 6.65676C2.26943 6.56571 2.25 6.46812 2.25 6.36956C2.25 6.271 2.26943 6.1734 2.30717 6.08235C2.34491 5.9913 2.40023 5.90859 2.46996 5.83893L5.46996 2.83893C5.6107 2.6982 5.80157 2.61914 6.00059 2.61914C6.19961 2.61914 6.39048 2.6982 6.53122 2.83893C6.67195 2.97966 6.75101 3.17053 6.75101 3.36956C6.75101 3.56858 6.67195 3.75945 6.53122 3.90018L4.0609 6.36956L6.53122 8.83893C6.67195 8.97966 6.75101 9.17053 6.75101 9.36956C6.75101 9.56858 6.67195 9.75945 6.53121 9.90018C6.39048 10.0409 6.19961 10.12 6.00059 10.12C5.80157 10.12 5.6107 10.0409 5.46996 9.90018ZM9.21996 9.90018C9.28962 9.96992 9.37234 10.0252 9.46338 10.063C9.55443 10.1007 9.65203 10.1201 9.75059 10.1201C9.84915 10.1201 9.94675 10.1007 10.0378 10.063C10.1288 10.0252 10.2116 9.96992 10.2812 9.90018L13.2812 6.90018C13.3509 6.83053 13.4063 6.74781 13.444 6.65676C13.4818 6.56571 13.5012 6.46812 13.5012 6.36956C13.5012 6.271 13.4818 6.1734 13.444 6.08235C13.4063 5.9913 13.3509 5.90859 13.2812 5.83893L10.2812 2.83893C10.1405 2.6982 9.94961 2.61914 9.75059 2.61914C9.55157 2.61914 9.3607 2.6982 9.21996 2.83893C9.07923 2.97966 9.00017 3.17053 9.00017 3.36956C9.00017 3.56858 9.07923 3.75945 9.21996 3.90018L11.6903 6.36956L9.21996 8.83893C9.15023 8.90859 9.09491 8.9913 9.05717 9.08235C9.01943 9.1734 9 9.271 9 9.36956C9 9.46812 9.01943 9.56571 9.05717 9.65676C9.09491 9.74781 9.15023 9.83053 9.21996 9.90018ZM18.7506 4.11956H16.5006C16.3017 4.11956 16.1109 4.19858 15.9703 4.33923C15.8296 4.47988 15.7506 4.67065 15.7506 4.86956C15.7506 5.06847 15.8296 5.25924 15.9703 5.39989C16.1109 5.54054 16.3017 5.61956 16.5006 5.61956H18.7506V19.1196H5.25059V13.1196C5.25059 12.9206 5.17157 12.7299 5.03092 12.5892C4.89027 12.4486 4.6995 12.3696 4.50059 12.3696C4.30168 12.3696 4.11091 12.4486 3.97026 12.5892C3.82961 12.7299 3.75059 12.9206 3.75059 13.1196V19.1196C3.75059 19.5174 3.90863 19.8989 4.18993 20.1802C4.47123 20.4615 4.85277 20.6196 5.25059 20.6196H18.7506C19.1484 20.6196 19.5299 20.4615 19.8112 20.1802C20.0926 19.8989 20.2506 19.5174 20.2506 19.1196V5.61956C20.2506 5.22173 20.0926 4.8402 19.8112 4.5589C19.5299 4.27759 19.1484 4.11956 18.7506 4.11956Z" fill="#FF5500"/>
</svg>
