<svg width="536" height="441" viewBox="0 0 536 441" fill="none" xmlns="http://www.w3.org/2000/svg">
<g clip-path="url(#clip0_10672_165815)">
<rect y="0.5" width="536" height="440" rx="16" fill="url(#paint0_linear_10672_165815)"/>
<mask id="mask0_10672_165815" style="mask-type:alpha" maskUnits="userSpaceOnUse" x="-28" y="-28" width="629" height="490">
<path d="M601 461.172L519.469 461.172L-22.4189 461.172L-28 -27.4353L601 -27.4353L601 461.172Z" fill="url(#paint1_radial_10672_165815)"/>
</mask>
<g mask="url(#mask0_10672_165815)">
<path d="M11.7207 -108.809V564.825" stroke="#181E22" stroke-width="0.568947"/>
<path d="M62.9258 -108.809V564.825" stroke="#181E22" stroke-width="0.568947"/>
<path d="M114.131 -108.809V564.825" stroke="#181E22" stroke-width="0.568947"/>
<path d="M165.336 -108.809V564.825" stroke="#181E22" stroke-width="0.568947"/>
<path d="M216.541 -108.809V564.825" stroke="#181E22" stroke-width="0.568947"/>
<path d="M267.746 -108.809V564.825" stroke="#181E22" stroke-width="0.568947"/>
<path d="M318.953 -108.809V564.825" stroke="#181E22" stroke-width="0.568947"/>
<path d="M370.158 -108.809V564.825" stroke="#181E22" stroke-width="0.568947"/>
<path d="M421.363 -108.809V564.825" stroke="#181E22" stroke-width="0.568947"/>
<path d="M472.568 -108.809V564.825" stroke="#181E22" stroke-width="0.568947"/>
<path d="M523.773 -108.809V564.825" stroke="#181E22" stroke-width="0.568947"/>
</g>
</g>
<rect x="0.5" y="1" width="535" height="439" rx="15.5" stroke="url(#paint2_linear_10672_165815)" stroke-opacity="0.47"/>
<path d="M179 157.5C179.276 157.5 179.5 157.276 179.5 157C179.5 156.724 179.276 156.5 179 156.5V157.5ZM124.646 234.291C124.842 234.486 125.158 234.486 125.354 234.291L128.536 231.109C128.731 230.914 128.731 230.597 128.536 230.402C128.34 230.207 128.024 230.207 127.828 230.402L125 233.23L122.172 230.402C121.976 230.207 121.66 230.207 121.464 230.402C121.269 230.597 121.269 230.914 121.464 231.109L124.646 234.291ZM179 157V156.5H133V157V157.5H179V157ZM125 165H124.5V233.938H125H125.5V165H125ZM133 157V156.5C128.306 156.5 124.5 160.306 124.5 165H125H125.5C125.5 160.858 128.858 157.5 133 157.5V157Z" fill="#3B3D3F"/>
<path d="M357 157.438C356.724 157.438 356.5 157.214 356.5 156.938C356.5 156.661 356.724 156.438 357 156.438V157.438ZM411.354 234.291C411.158 234.486 410.842 234.486 410.646 234.291L407.464 231.109C407.269 230.914 407.269 230.597 407.464 230.402C407.66 230.207 407.976 230.207 408.172 230.402L411 233.23L413.828 230.402C414.024 230.207 414.34 230.207 414.536 230.402C414.731 230.597 414.731 230.914 414.536 231.109L411.354 234.291ZM357 156.938V156.438H403V156.938V157.438H357V156.938ZM411 164.938H411.5V233.938H411H410.5V164.938H411ZM403 156.938V156.438C407.694 156.438 411.5 160.243 411.5 164.938H411H410.5C410.5 160.795 407.142 157.438 403 157.438V156.938Z" fill="#3B3D3F"/>
<path d="M217.188 211.438C217.188 211.161 216.964 210.938 216.688 210.938C216.411 210.938 216.188 211.161 216.188 211.438H217.188ZM216.334 234.291C216.529 234.486 216.846 234.486 217.041 234.291L220.223 231.109C220.418 230.914 220.418 230.597 220.223 230.402C220.028 230.207 219.711 230.207 219.516 230.402L216.688 233.23L213.859 230.402C213.664 230.207 213.347 230.207 213.152 230.402C212.957 230.597 212.957 230.914 213.152 231.109L216.334 234.291ZM216.688 211.438H216.188V233.938H216.688H217.188V211.438H216.688Z" fill="#3B3D3F"/>
<path d="M204.487 235.373H227.708C229.955 235.373 231.615 235.374 232.927 235.481C234.234 235.588 235.158 235.799 235.941 236.198C237.276 236.878 238.377 237.938 239.106 239.24L239.247 239.504C239.646 240.288 239.857 241.212 239.964 242.519C240.071 243.831 240.072 245.49 240.072 247.737V270.138C240.072 272.385 240.071 274.044 239.964 275.356C239.87 276.5 239.698 277.35 239.389 278.07L239.247 278.371C238.567 279.706 237.508 280.806 236.205 281.536L235.941 281.677C235.158 282.076 234.234 282.287 232.927 282.394C231.615 282.501 229.955 282.502 227.708 282.502H204.487C202.24 282.502 200.581 282.501 199.269 282.394C198.125 282.3 197.275 282.128 196.555 281.818L196.254 281.677C194.831 280.952 193.673 279.794 192.948 278.371C192.549 277.587 192.338 276.663 192.231 275.356C192.124 274.044 192.123 272.385 192.123 270.138V247.737C192.123 245.49 192.124 243.831 192.231 242.519C192.338 241.212 192.549 240.288 192.948 239.504C193.673 238.081 194.831 236.923 196.254 236.198C197.038 235.799 197.962 235.588 199.269 235.481C200.581 235.374 202.24 235.373 204.487 235.373Z" fill="url(#paint3_linear_10672_165815)"/>
<path d="M204.487 235.373H227.708C229.955 235.373 231.615 235.374 232.927 235.481C234.234 235.588 235.158 235.799 235.941 236.198C237.276 236.878 238.377 237.938 239.106 239.24L239.247 239.504C239.646 240.288 239.857 241.212 239.964 242.519C240.071 243.831 240.072 245.49 240.072 247.737V270.138C240.072 272.385 240.071 274.044 239.964 275.356C239.87 276.5 239.698 277.35 239.389 278.07L239.247 278.371C238.567 279.706 237.508 280.806 236.205 281.536L235.941 281.677C235.158 282.076 234.234 282.287 232.927 282.394C231.615 282.501 229.955 282.502 227.708 282.502H204.487C202.24 282.502 200.581 282.501 199.269 282.394C198.125 282.3 197.275 282.128 196.555 281.818L196.254 281.677C194.831 280.952 193.673 279.794 192.948 278.371C192.549 277.587 192.338 276.663 192.231 275.356C192.124 274.044 192.123 272.385 192.123 270.138V247.737C192.123 245.49 192.124 243.831 192.231 242.519C192.338 241.212 192.549 240.288 192.948 239.504C193.673 238.081 194.831 236.923 196.254 236.198C197.038 235.799 197.962 235.588 199.269 235.481C200.581 235.374 202.24 235.373 204.487 235.373Z" stroke="url(#paint4_linear_10672_165815)" stroke-width="0.872003"/>
<path d="M225.844 255.938C225.844 255.54 225.686 255.158 225.404 254.877C225.123 254.596 224.742 254.438 224.344 254.438H221.344V251.438C221.344 251.04 221.186 250.658 220.904 250.377C220.623 250.096 220.242 249.938 219.844 249.938H207.844C207.446 249.938 207.064 250.096 206.783 250.377C206.502 250.658 206.344 251.04 206.344 251.438V263.438C206.344 263.579 206.384 263.717 206.46 263.836C206.535 263.955 206.643 264.051 206.77 264.112C206.897 264.173 207.039 264.196 207.179 264.18C207.32 264.164 207.452 264.109 207.562 264.021L210.844 261.375V264.188C210.844 264.585 211.002 264.967 211.283 265.248C211.564 265.529 211.946 265.688 212.344 265.688H221.118L224.625 268.521C224.758 268.628 224.923 268.687 225.094 268.688C225.293 268.688 225.483 268.608 225.624 268.468C225.765 268.327 225.844 268.136 225.844 267.938V255.938ZM221.855 264.354C221.722 264.247 221.557 264.188 221.386 264.188H212.344V261.188H219.844C220.242 261.188 220.623 261.029 220.904 260.748C221.186 260.467 221.344 260.085 221.344 259.688V255.938H224.344V266.367L221.855 264.354Z" fill="white"/>
<path d="M113.8 235.373H136.2C138.448 235.373 140.107 235.374 141.419 235.481C142.726 235.588 143.65 235.799 144.434 236.198C145.768 236.878 146.869 237.938 147.599 239.24L147.739 239.504C148.139 240.288 148.349 241.212 148.456 242.519C148.563 243.831 148.564 245.49 148.564 247.737V270.138C148.564 272.385 148.563 274.044 148.456 275.356C148.349 276.663 148.139 277.587 147.739 278.371C147.014 279.794 145.857 280.952 144.434 281.677C143.65 282.076 142.726 282.287 141.419 282.394C140.107 282.501 138.448 282.502 136.2 282.502H113.8C111.552 282.502 109.893 282.501 108.581 282.394C107.438 282.3 106.587 282.128 105.867 281.818L105.566 281.677C104.143 280.952 102.986 279.794 102.261 278.371C101.861 277.587 101.651 276.663 101.544 275.356C101.437 274.044 101.436 272.385 101.436 270.138V247.737C101.436 245.49 101.437 243.831 101.544 242.519C101.651 241.212 101.861 240.288 102.261 239.504C102.986 238.081 104.143 236.923 105.566 236.198C106.35 235.799 107.274 235.588 108.581 235.481C109.893 235.374 111.552 235.373 113.8 235.373Z" fill="url(#paint5_linear_10672_165815)"/>
<path d="M113.8 235.373H136.2C138.448 235.373 140.107 235.374 141.419 235.481C142.726 235.588 143.65 235.799 144.434 236.198C145.768 236.878 146.869 237.938 147.599 239.24L147.739 239.504C148.139 240.288 148.349 241.212 148.456 242.519C148.563 243.831 148.564 245.49 148.564 247.737V270.138C148.564 272.385 148.563 274.044 148.456 275.356C148.349 276.663 148.139 277.587 147.739 278.371C147.014 279.794 145.857 280.952 144.434 281.677C143.65 282.076 142.726 282.287 141.419 282.394C140.107 282.501 138.448 282.502 136.2 282.502H113.8C111.552 282.502 109.893 282.501 108.581 282.394C107.438 282.3 106.587 282.128 105.867 281.818L105.566 281.677C104.143 280.952 102.986 279.794 102.261 278.371C101.861 277.587 101.651 276.663 101.544 275.356C101.437 274.044 101.436 272.385 101.436 270.138V247.737C101.436 245.49 101.437 243.831 101.544 242.519C101.651 241.212 101.861 240.288 102.261 239.504C102.986 238.081 104.143 236.923 105.566 236.198C106.35 235.799 107.274 235.588 108.581 235.481C109.893 235.374 111.552 235.373 113.8 235.373Z" stroke="url(#paint6_linear_10672_165815)" stroke-width="0.872003"/>
<path d="M136 249.455V256.09C136 266.207 127.312 269.564 125.573 270.134C125.201 270.259 124.799 270.259 124.427 270.134C122.685 269.564 114 266.207 114 256.09V249.455C114 248.976 114.193 248.516 114.537 248.178C114.881 247.839 115.347 247.648 115.833 247.648H134.167C134.653 247.648 135.119 247.839 135.463 248.178C135.807 248.516 136 248.976 136 249.455Z" fill="white"/>
<path d="M117.247 250.042H132.76C133.001 250.042 133.231 250.137 133.399 250.303C133.567 250.468 133.659 250.69 133.659 250.919V256.533C133.659 264.119 127.565 266.967 125.616 267.683L125.285 267.798L125.281 267.8C125.101 267.86 124.905 267.86 124.726 267.8L124.519 268.417L124.726 267.799L124.721 267.798L124.389 267.683C122.438 266.967 116.347 264.119 116.347 256.533V250.919C116.347 250.69 116.439 250.468 116.606 250.303C116.753 250.158 116.948 250.066 117.156 250.046L117.247 250.042Z" stroke="#0A0D0F" stroke-width="1.30263"/>
<path d="M129.041 259.353C128.756 259.353 128.498 259.304 128.267 259.206C128.041 259.108 127.861 258.968 127.728 258.784C127.596 258.601 127.527 258.384 127.523 258.134H128.402C128.414 258.302 128.472 258.435 128.578 258.532C128.687 258.63 128.836 258.679 129.023 258.679C129.214 258.679 129.365 258.634 129.474 258.544C129.584 258.45 129.638 258.329 129.638 258.181C129.638 258.06 129.601 257.96 129.527 257.882C129.453 257.804 129.359 257.744 129.246 257.701C129.136 257.654 128.984 257.603 128.789 257.548C128.523 257.47 128.306 257.394 128.139 257.32C127.975 257.242 127.832 257.127 127.711 256.974C127.594 256.818 127.535 256.611 127.535 256.353C127.535 256.111 127.596 255.9 127.717 255.721C127.838 255.541 128.008 255.404 128.226 255.311C128.445 255.213 128.695 255.164 128.976 255.164C129.398 255.164 129.74 255.268 130.001 255.475C130.267 255.678 130.413 255.963 130.441 256.33H129.539C129.531 256.189 129.47 256.074 129.357 255.984C129.248 255.89 129.101 255.844 128.918 255.844C128.758 255.844 128.629 255.885 128.531 255.967C128.437 256.049 128.39 256.168 128.39 256.324C128.39 256.433 128.426 256.525 128.496 256.599C128.57 256.67 128.66 256.728 128.765 256.775C128.875 256.818 129.027 256.869 129.222 256.927C129.488 257.005 129.705 257.084 129.873 257.162C130.04 257.24 130.185 257.357 130.306 257.513C130.427 257.669 130.488 257.874 130.488 258.128C130.488 258.347 130.431 258.55 130.318 258.737C130.204 258.925 130.038 259.075 129.82 259.189C129.601 259.298 129.341 259.353 129.041 259.353Z" fill="#0A0D0F"/>
<path d="M127.052 256.492C127.052 256.711 126.999 256.916 126.894 257.107C126.792 257.298 126.63 257.453 126.408 257.57C126.189 257.687 125.912 257.746 125.576 257.746H124.89V259.315H124.07V255.227H125.576C125.892 255.227 126.162 255.281 126.384 255.391C126.607 255.5 126.773 255.65 126.882 255.842C126.995 256.033 127.052 256.25 127.052 256.492ZM125.541 257.084C125.767 257.084 125.935 257.033 126.044 256.931C126.154 256.826 126.208 256.679 126.208 256.492C126.208 256.094 125.986 255.894 125.541 255.894H124.89V257.084H125.541Z" fill="#0A0D0F"/>
<path d="M123.258 255.227V259.315H122.438V255.227H123.258Z" fill="#0A0D0F"/>
<path d="M121.853 255.227V255.889H120.148V256.937H121.455V257.587H120.148V259.315H119.328V255.227H121.853Z" fill="#0A0D0F"/>
<path d="M313.93 211.437C313.93 211.161 313.706 210.937 313.43 210.937C313.154 210.937 312.93 211.161 312.93 211.437H313.93ZM313.076 234.291C313.271 234.486 313.588 234.486 313.783 234.291L316.965 231.109C317.16 230.914 317.16 230.597 316.965 230.402C316.77 230.207 316.453 230.207 316.258 230.402L313.43 233.23L310.601 230.402C310.406 230.207 310.089 230.207 309.894 230.402C309.699 230.597 309.699 230.914 309.894 231.109L313.076 234.291ZM313.43 211.437H312.93V233.938H313.43H313.93V211.437H313.43Z" fill="#3B3D3F"/>
<path d="M302.05 235.373H325.271C327.518 235.373 329.177 235.374 330.489 235.481C331.796 235.588 332.72 235.799 333.504 236.198C334.838 236.878 335.939 237.938 336.669 239.24L336.81 239.504C337.209 240.288 337.42 241.212 337.526 242.519C337.634 243.831 337.635 245.49 337.635 247.737V270.138C337.635 272.385 337.634 274.044 337.526 275.356C337.433 276.5 337.26 277.35 336.951 278.07L336.81 278.371C336.13 279.706 335.07 280.806 333.768 281.536L333.504 281.677C332.72 282.076 331.796 282.287 330.489 282.394C329.177 282.501 327.518 282.502 325.271 282.502H302.05C299.802 282.502 298.143 282.501 296.831 282.394C295.688 282.3 294.837 282.128 294.117 281.818L293.816 281.677C292.393 280.952 291.236 279.794 290.511 278.371C290.111 277.587 289.901 276.663 289.794 275.356C289.687 274.044 289.686 272.385 289.686 270.138V247.737C289.686 245.49 289.687 243.831 289.794 242.519C289.901 241.212 290.111 240.288 290.511 239.504C291.236 238.081 292.393 236.923 293.816 236.198C294.6 235.799 295.524 235.588 296.831 235.481C298.143 235.374 299.802 235.373 302.05 235.373Z" fill="url(#paint7_linear_10672_165815)"/>
<path d="M302.05 235.373H325.271C327.518 235.373 329.177 235.374 330.489 235.481C331.796 235.588 332.72 235.799 333.504 236.198C334.838 236.878 335.939 237.938 336.669 239.24L336.81 239.504C337.209 240.288 337.42 241.212 337.526 242.519C337.634 243.831 337.635 245.49 337.635 247.737V270.138C337.635 272.385 337.634 274.044 337.526 275.356C337.433 276.5 337.26 277.35 336.951 278.07L336.81 278.371C336.13 279.706 335.07 280.806 333.768 281.536L333.504 281.677C332.72 282.076 331.796 282.287 330.489 282.394C329.177 282.501 327.518 282.502 325.271 282.502H302.05C299.802 282.502 298.143 282.501 296.831 282.394C295.688 282.3 294.837 282.128 294.117 281.818L293.816 281.677C292.393 280.952 291.236 279.794 290.511 278.371C290.111 277.587 289.901 276.663 289.794 275.356C289.687 274.044 289.686 272.385 289.686 270.138V247.737C289.686 245.49 289.687 243.831 289.794 242.519C289.901 241.212 290.111 240.288 290.511 239.504C291.236 238.081 292.393 236.923 293.816 236.198C294.6 235.799 295.524 235.588 296.831 235.481C298.143 235.374 299.802 235.373 302.05 235.373Z" stroke="url(#paint8_linear_10672_165815)" stroke-width="0.872003"/>
<path d="M322.656 257.437H321.156V255.937H322.656C322.855 255.937 323.046 256.017 323.187 256.157C323.327 256.298 323.406 256.489 323.406 256.687C323.406 256.886 323.327 257.077 323.187 257.218C323.046 257.358 322.855 257.437 322.656 257.437ZM304.656 255.937C304.457 255.937 304.267 256.017 304.126 256.157C303.985 256.298 303.906 256.489 303.906 256.687C303.906 256.886 303.985 257.077 304.126 257.218C304.267 257.358 304.457 257.437 304.656 257.437H306.156V255.937H304.656ZM321.156 261.187C321.156 261.441 321.143 261.691 321.119 261.937H322.656C322.855 261.937 323.046 262.017 323.187 262.157C323.327 262.298 323.406 262.489 323.406 262.687C323.406 262.886 323.327 263.077 323.187 263.218C323.046 263.358 322.855 263.437 322.656 263.437H320.811C320.333 264.96 319.381 266.291 318.094 267.235C316.807 268.18 315.252 268.689 313.656 268.689C312.06 268.689 310.505 268.18 309.219 267.235C307.932 266.291 306.98 264.96 306.501 263.437H304.656C304.457 263.437 304.267 263.358 304.126 263.218C303.985 263.077 303.906 262.886 303.906 262.687C303.906 262.489 303.985 262.298 304.126 262.157C304.267 262.017 304.457 261.937 304.656 261.937H306.194C306.169 261.691 306.156 261.441 306.156 261.187V260.437H304.656C304.457 260.437 304.267 260.358 304.126 260.218C303.985 260.077 303.906 259.886 303.906 259.687C303.906 259.489 303.985 259.298 304.126 259.157C304.267 259.017 304.457 258.937 304.656 258.937H306.156V257.437H321.156V258.937H322.656C322.855 258.937 323.046 259.017 323.187 259.157C323.327 259.298 323.406 259.489 323.406 259.687C323.406 259.886 323.327 260.077 323.187 260.218C323.046 260.358 322.855 260.437 322.656 260.437H321.156V261.187ZM314.406 259.687C314.406 259.489 314.327 259.298 314.187 259.157C314.046 259.017 313.855 258.937 313.656 258.937C313.457 258.937 313.267 259.017 313.126 259.157C312.985 259.298 312.906 259.489 312.906 259.687V265.687C312.906 265.886 312.985 266.077 313.126 266.218C313.267 266.358 313.457 266.437 313.656 266.437C313.855 266.437 314.046 266.358 314.187 266.218C314.327 266.077 314.406 265.886 314.406 265.687V259.687ZM308.204 251.545C307.066 252.747 306.359 254.291 306.194 255.937H321.119C320.953 254.291 320.246 252.747 319.109 251.545L320.937 249.718C321.007 249.648 321.062 249.566 321.1 249.475C321.137 249.384 321.157 249.286 321.157 249.187C321.157 249.089 321.137 248.991 321.1 248.9C321.062 248.809 321.007 248.727 320.937 248.657C320.867 248.587 320.784 248.532 320.693 248.494C320.602 248.456 320.505 248.437 320.406 248.437C320.308 248.437 320.21 248.456 320.119 248.494C320.028 248.532 319.945 248.587 319.876 248.657L317.973 250.56C316.711 249.667 315.203 249.187 313.656 249.187C312.11 249.187 310.602 249.667 309.339 250.56L307.437 248.657C307.296 248.516 307.105 248.437 306.906 248.437C306.707 248.437 306.516 248.516 306.376 248.657C306.235 248.798 306.156 248.988 306.156 249.187C306.156 249.387 306.235 249.577 306.376 249.718L308.204 251.545Z" fill="white"/>
<path d="M399.8 235.373H423.021C425.268 235.373 426.927 235.374 428.239 235.481C429.546 235.588 430.47 235.799 431.254 236.198C432.588 236.878 433.689 237.938 434.419 239.24L434.56 239.504C434.959 240.288 435.17 241.212 435.276 242.519C435.384 243.831 435.385 245.49 435.385 247.737V270.138C435.385 272.385 435.384 274.044 435.276 275.356C435.183 276.5 435.01 277.35 434.701 278.07L434.56 278.371C433.88 279.706 432.82 280.806 431.518 281.536L431.254 281.677C430.47 282.076 429.546 282.287 428.239 282.394C426.927 282.501 425.268 282.502 423.021 282.502H399.8C397.552 282.502 395.893 282.501 394.581 282.394C393.438 282.3 392.587 282.128 391.867 281.818L391.566 281.677C390.143 280.952 388.986 279.794 388.261 278.371C387.861 277.587 387.651 276.663 387.544 275.356C387.437 274.044 387.436 272.385 387.436 270.138V247.737C387.436 245.49 387.437 243.831 387.544 242.519C387.651 241.212 387.861 240.288 388.261 239.504C388.986 238.081 390.143 236.923 391.566 236.198C392.35 235.799 393.274 235.588 394.581 235.481C395.893 235.374 397.552 235.373 399.8 235.373Z" fill="url(#paint9_linear_10672_165815)"/>
<path d="M399.8 235.373H423.021C425.268 235.373 426.927 235.374 428.239 235.481C429.546 235.588 430.47 235.799 431.254 236.198C432.588 236.878 433.689 237.938 434.419 239.24L434.56 239.504C434.959 240.288 435.17 241.212 435.276 242.519C435.384 243.831 435.385 245.49 435.385 247.737V270.138C435.385 272.385 435.384 274.044 435.276 275.356C435.183 276.5 435.01 277.35 434.701 278.07L434.56 278.371C433.88 279.706 432.82 280.806 431.518 281.536L431.254 281.677C430.47 282.076 429.546 282.287 428.239 282.394C426.927 282.501 425.268 282.502 423.021 282.502H399.8C397.552 282.502 395.893 282.501 394.581 282.394C393.438 282.3 392.587 282.128 391.867 281.818L391.566 281.677C390.143 280.952 388.986 279.794 388.261 278.371C387.861 277.587 387.651 276.663 387.544 275.356C387.437 274.044 387.436 272.385 387.436 270.138V247.737C387.436 245.49 387.437 243.831 387.544 242.519C387.651 241.212 387.861 240.288 388.261 239.504C388.986 238.081 390.143 236.923 391.566 236.198C392.35 235.799 393.274 235.588 394.581 235.481C395.893 235.374 397.552 235.373 399.8 235.373Z" stroke="url(#paint10_linear_10672_165815)" stroke-width="0.872003"/>
<path d="M419.656 250.688H406.156C405.758 250.688 405.377 250.846 405.096 251.127C404.814 251.408 404.656 251.79 404.656 252.188V253.688H403.156C402.758 253.688 402.377 253.846 402.096 254.127C401.814 254.408 401.656 254.79 401.656 255.188V265.688C401.656 266.085 401.814 266.467 402.096 266.748C402.377 267.029 402.758 267.188 403.156 267.188H416.656C417.054 267.188 417.436 267.029 417.717 266.748C417.998 266.467 418.156 266.085 418.156 265.688V264.188H419.656C420.054 264.188 420.436 264.029 420.717 263.748C420.998 263.467 421.156 263.085 421.156 262.688V252.188C421.156 251.79 420.998 251.408 420.717 251.127C420.436 250.846 420.054 250.688 419.656 250.688ZM416.656 255.188V256.688H403.156V255.188H416.656ZM419.656 262.688H418.156V255.188C418.156 254.79 417.998 254.408 417.717 254.127C417.436 253.846 417.054 253.688 416.656 253.688H406.156V252.188H419.656V262.688Z" fill="white"/>
<rect x="179.618" y="35.2432" width="176.639" height="176.639" rx="48.8345" stroke="#6C6E6F" stroke-width="1.23632" stroke-dasharray="1.24 4.95"/>
<g filter="url(#filter0_i_10672_165815)">
<rect x="206.203" y="61.8281" width="123.469" height="123.469" rx="29.6716" fill="#060809"/>
</g>
<rect x="206.821" y="62.4463" width="122.233" height="122.233" rx="29.0534" stroke="url(#paint11_linear_10672_165815)" stroke-width="1.23632"/>
<rect x="214.438" y="69.1455" width="107.952" height="108.963" rx="24.1082" fill="#0A0D0F" stroke="url(#paint12_linear_10672_165815)" stroke-width="1.23632"/>
<path d="M289.992 90.7227H294.311C298.215 90.7227 301.38 93.8875 301.38 97.7915V106.126" stroke="#FFCB5C" stroke-width="0.916291" stroke-linecap="round"/>
<path d="M245.883 90.7227H241.564C237.66 90.7227 234.495 93.8875 234.495 97.7915V106.126" stroke="#FFCB5C" stroke-width="0.916291" stroke-linecap="round"/>
<path d="M234.492 141.004L234.492 149.338C234.492 153.242 237.657 156.407 241.561 156.407L245.88 156.407" stroke="#FFCB5C" stroke-width="0.916291" stroke-linecap="round"/>
<path d="M289.992 156.402H294.311C298.215 156.402 301.38 153.238 301.38 149.334V140.999" stroke="#FFCB5C" stroke-width="0.916291" stroke-linecap="round"/>
<path d="M263.841 138.212C263.842 138.236 263.824 138.257 263.801 138.262L251.525 140.397C251.498 140.401 251.473 140.383 251.469 140.356C251.468 140.346 251.469 140.337 251.473 140.329L263.748 112.501C263.76 112.477 263.789 112.466 263.814 112.478C263.824 112.483 263.832 112.491 263.837 112.501L263.842 112.522L263.841 138.212Z" fill="#FFCB5C"/>
<path d="M265.91 138.267C265.91 138.292 265.929 138.313 265.953 138.316L284.341 140.4C284.368 140.403 284.392 140.383 284.395 140.355L284.395 140.343L284.391 140.33L266.003 98.6453C265.991 98.6203 265.962 98.6102 265.938 98.6223C265.927 98.6273 265.918 98.6363 265.914 98.6473L265.91 98.6654V138.267Z" fill="#FFCB5C"/>
<path d="M284.2 142.309L263.86 148.502L263.845 148.505L263.824 148.502L251.534 142.309C251.509 142.297 251.498 142.268 251.508 142.243C251.513 142.232 251.523 142.222 251.534 142.218L251.555 142.214H284.186C284.213 142.219 284.231 142.244 284.227 142.271C284.225 142.281 284.22 142.291 284.213 142.298L284.2 142.309Z" fill="#FFCB5C"/>
<rect x="244.436" y="333.936" width="47.128" height="47.128" rx="7.564" fill="url(#paint13_linear_10672_165815)"/>
<rect x="244.436" y="333.936" width="47.128" height="47.128" rx="7.564" stroke="url(#paint14_linear_10672_165815)" stroke-width="0.872003"/>
<path d="M276.252 357.703C276.255 357.568 276.255 357.433 276.252 357.298L277.65 355.55C277.724 355.458 277.774 355.351 277.798 355.236C277.823 355.121 277.819 355.002 277.789 354.888C277.559 354.026 277.216 353.199 276.769 352.427C276.71 352.326 276.629 352.24 276.531 352.176C276.434 352.112 276.322 352.072 276.207 352.059L273.983 351.811C273.89 351.714 273.797 351.62 273.702 351.53L273.439 349.301C273.426 349.185 273.385 349.073 273.321 348.976C273.257 348.878 273.171 348.797 273.07 348.738C272.298 348.291 271.471 347.949 270.609 347.72C270.495 347.69 270.376 347.686 270.261 347.711C270.146 347.735 270.039 347.785 269.947 347.859L268.204 349.25C268.069 349.25 267.934 349.25 267.799 349.25L266.052 347.854C265.96 347.781 265.852 347.73 265.737 347.706C265.622 347.682 265.503 347.685 265.39 347.715C264.528 347.945 263.7 348.288 262.929 348.735C262.828 348.794 262.742 348.875 262.678 348.973C262.614 349.071 262.574 349.182 262.56 349.298L262.313 351.525C262.215 351.618 262.122 351.712 262.032 351.807L259.802 352.063C259.686 352.076 259.575 352.116 259.477 352.181C259.379 352.245 259.298 352.331 259.24 352.432C258.793 353.204 258.45 354.031 258.221 354.893C258.19 355.006 258.187 355.125 258.212 355.24C258.236 355.355 258.287 355.463 258.36 355.555L259.752 357.298C259.752 357.433 259.752 357.568 259.752 357.703L258.356 359.45C258.282 359.542 258.231 359.649 258.207 359.764C258.183 359.879 258.187 359.998 258.217 360.112C258.447 360.974 258.79 361.801 259.237 362.573C259.295 362.674 259.377 362.76 259.474 362.824C259.572 362.888 259.683 362.928 259.799 362.941L262.023 363.189C262.116 363.286 262.21 363.38 262.304 363.47L262.564 365.699C262.578 365.815 262.618 365.927 262.682 366.024C262.746 366.122 262.832 366.203 262.933 366.262C263.705 366.709 264.533 367.051 265.394 367.281C265.508 367.311 265.627 367.314 265.742 367.29C265.857 367.266 265.965 367.215 266.056 367.141L267.799 365.75C267.934 365.754 268.069 365.754 268.204 365.75L269.952 367.149C270.043 367.222 270.151 367.273 270.266 367.297C270.381 367.321 270.5 367.318 270.613 367.288C271.475 367.058 272.303 366.715 273.074 366.268C273.175 366.209 273.261 366.128 273.325 366.03C273.389 365.932 273.429 365.821 273.443 365.705L273.69 363.481C273.788 363.389 273.882 363.295 273.972 363.2L276.201 362.938C276.317 362.924 276.428 362.884 276.526 362.819C276.624 362.755 276.705 362.669 276.763 362.568C277.21 361.796 277.553 360.969 277.782 360.107C277.813 359.994 277.816 359.875 277.791 359.76C277.767 359.645 277.716 359.537 277.643 359.445L276.252 357.703ZM268.002 361.25C267.26 361.25 266.535 361.03 265.918 360.618C265.301 360.206 264.821 359.62 264.537 358.935C264.253 358.25 264.179 357.496 264.324 356.768C264.468 356.041 264.825 355.373 265.35 354.848C265.874 354.324 266.542 353.967 267.27 353.822C267.997 353.677 268.751 353.752 269.437 354.035C270.122 354.319 270.707 354.8 271.12 355.417C271.532 356.033 271.752 356.758 271.752 357.5C271.752 358.495 271.356 359.448 270.653 360.152C269.95 360.855 268.996 361.25 268.002 361.25Z" fill="#3B3D3F"/>
<rect x="154.436" y="333.936" width="47.128" height="47.128" rx="7.564" fill="url(#paint15_linear_10672_165815)"/>
<rect x="154.436" y="333.936" width="47.128" height="47.128" rx="7.564" stroke="url(#paint16_linear_10672_165815)" stroke-width="0.872003"/>
<path d="M168.32 356.332C168.541 354.475 169.301 352.723 170.505 351.292C170.638 351.131 170.804 351 170.99 350.907C171.177 350.814 171.381 350.761 171.59 350.751C171.798 350.741 172.007 350.775 172.201 350.851C172.396 350.926 172.573 351.041 172.72 351.189L175.314 353.838C175.564 354.087 175.717 354.417 175.746 354.769C175.775 355.121 175.678 355.471 175.473 355.758C175.317 355.979 175.2 356.225 175.126 356.485C175.102 356.561 175.055 356.629 174.991 356.676C174.926 356.724 174.848 356.75 174.768 356.75H168.693C168.64 356.75 168.587 356.739 168.539 356.717C168.491 356.696 168.448 356.664 168.412 356.625C168.377 356.585 168.351 356.539 168.335 356.488C168.319 356.438 168.314 356.384 168.32 356.332ZM178.88 347.756C178.672 347.738 178.464 347.763 178.267 347.83C178.07 347.897 177.889 348.004 177.736 348.144C177.582 348.285 177.46 348.456 177.376 348.646C177.293 348.836 177.249 349.042 177.249 349.25V353.063C177.247 353.417 177.37 353.76 177.598 354.031C177.826 354.301 178.143 354.482 178.492 354.54C179.149 354.649 179.751 354.973 180.204 355.461C180.656 355.95 180.934 356.575 180.992 357.238C181.05 357.902 180.886 358.566 180.525 359.126C180.164 359.685 179.627 360.109 178.999 360.33C178.926 360.357 178.862 360.406 178.818 360.47C178.773 360.534 178.749 360.61 178.749 360.687V366.803C178.749 366.856 178.76 366.908 178.781 366.957C178.803 367.006 178.834 367.049 178.874 367.084C178.913 367.12 178.96 367.147 179.011 367.163C179.061 367.179 179.115 367.184 179.167 367.178C181.507 366.889 183.664 365.765 185.241 364.012C186.818 362.259 187.709 359.996 187.749 357.639C187.82 352.549 183.923 348.207 178.88 347.756ZM176.992 360.327C176.572 360.178 176.192 359.937 175.877 359.622C175.562 359.307 175.322 358.926 175.173 358.507C175.147 358.432 175.099 358.368 175.035 358.322C174.972 358.276 174.895 358.251 174.817 358.25H168.692C168.639 358.25 168.586 358.261 168.538 358.282C168.489 358.303 168.446 358.335 168.411 358.374C168.375 358.414 168.348 358.46 168.332 358.511C168.316 358.561 168.311 358.615 168.317 358.667C168.579 360.834 169.561 362.85 171.104 364.394C172.648 365.937 174.664 366.919 176.831 367.182C176.884 367.188 176.937 367.182 176.988 367.166C177.038 367.15 177.085 367.123 177.124 367.088C177.164 367.052 177.195 367.009 177.216 366.961C177.238 366.912 177.249 366.86 177.248 366.807V360.687C177.249 360.608 177.224 360.531 177.178 360.466C177.132 360.402 177.067 360.353 176.992 360.327Z" fill="#3B3D3F"/>
<rect x="334.436" y="333.936" width="47.128" height="47.128" rx="7.564" fill="url(#paint17_linear_10672_165815)"/>
<rect x="334.436" y="333.936" width="47.128" height="47.128" rx="7.564" stroke="url(#paint18_linear_10672_165815)" stroke-width="0.872003"/>
<path d="M366.25 349.25H349.75C349.352 349.25 348.971 349.408 348.689 349.689C348.408 349.971 348.25 350.352 348.25 350.75V364.25C348.25 364.648 348.408 365.029 348.689 365.311C348.971 365.592 349.352 365.75 349.75 365.75H366.25C366.648 365.75 367.029 365.592 367.311 365.311C367.592 365.029 367.75 364.648 367.75 364.25V350.75C367.75 350.352 367.592 349.971 367.311 349.689C367.029 349.408 366.648 349.25 366.25 349.25ZM357.719 358.086L353.969 361.086C353.892 361.147 353.803 361.193 353.709 361.221C353.614 361.248 353.515 361.257 353.417 361.246C353.319 361.235 353.224 361.205 353.138 361.157C353.052 361.11 352.976 361.046 352.914 360.969C352.853 360.892 352.807 360.803 352.779 360.709C352.752 360.614 352.743 360.515 352.754 360.417C352.765 360.319 352.795 360.224 352.843 360.138C352.89 360.052 352.954 359.976 353.031 359.914L356.049 357.5L353.031 355.086C352.954 355.024 352.89 354.948 352.843 354.862C352.795 354.776 352.765 354.681 352.754 354.583C352.743 354.485 352.752 354.386 352.779 354.291C352.807 354.197 352.853 354.108 352.914 354.031C352.976 353.954 353.052 353.89 353.138 353.843C353.224 353.795 353.319 353.765 353.417 353.754C353.515 353.743 353.614 353.752 353.709 353.779C353.803 353.807 353.892 353.853 353.969 353.914L357.719 356.914C357.807 356.984 357.878 357.073 357.926 357.175C357.975 357.276 358.001 357.387 358.001 357.5C358.001 357.613 357.975 357.724 357.926 357.825C357.878 357.927 357.807 358.016 357.719 358.086ZM362.5 361.25H358.75C358.551 361.25 358.36 361.171 358.22 361.03C358.079 360.89 358 360.699 358 360.5C358 360.301 358.079 360.11 358.22 359.97C358.36 359.829 358.551 359.75 358.75 359.75H362.5C362.699 359.75 362.89 359.829 363.03 359.97C363.171 360.11 363.25 360.301 363.25 360.5C363.25 360.699 363.171 360.89 363.03 361.03C362.89 361.171 362.699 361.25 362.5 361.25Z" fill="#3B3D3F"/>
<path d="M536 308.5L0 308.5" stroke="url(#paint19_linear_10672_165815)" stroke-width="1.5" stroke-dasharray="1.59 6.37"/>
<path d="M536 405.5L0 405.5" stroke="url(#paint20_linear_10672_165815)" stroke-width="1.5" stroke-dasharray="1.59 6.37"/>
<path d="M258.364 297.216C258.812 297.296 259.192 297.532 259.504 297.924C259.816 298.316 259.972 298.76 259.972 299.256C259.972 299.68 259.86 300.064 259.636 300.408C259.42 300.744 259.104 301.012 258.688 301.212C258.272 301.404 257.788 301.5 257.236 301.5H253.9V293.16H257.08C257.648 293.16 258.136 293.256 258.544 293.448C258.952 293.64 259.26 293.9 259.468 294.228C259.676 294.548 259.78 294.908 259.78 295.308C259.78 295.788 259.652 296.188 259.396 296.508C259.14 296.828 258.796 297.064 258.364 297.216ZM255.268 296.664H256.96C257.408 296.664 257.756 296.564 258.004 296.364C258.26 296.156 258.388 295.86 258.388 295.476C258.388 295.1 258.26 294.808 258.004 294.6C257.756 294.384 257.408 294.276 256.96 294.276H255.268V296.664ZM257.116 300.384C257.58 300.384 257.944 300.272 258.208 300.048C258.472 299.824 258.604 299.512 258.604 299.112C258.604 298.704 258.464 298.38 258.184 298.14C257.904 297.9 257.532 297.78 257.068 297.78H255.268V300.384H257.116ZM261.003 298.164C261.003 297.5 261.139 296.912 261.411 296.4C261.691 295.888 262.067 295.492 262.539 295.212C263.019 294.924 263.547 294.78 264.123 294.78C264.643 294.78 265.095 294.884 265.479 295.092C265.871 295.292 266.183 295.544 266.415 295.848V294.888H267.795V301.5H266.415V300.516C266.183 300.828 265.867 301.088 265.467 301.296C265.067 301.504 264.611 301.608 264.099 301.608C263.531 301.608 263.011 301.464 262.539 301.176C262.067 300.88 261.691 300.472 261.411 299.952C261.139 299.424 261.003 298.828 261.003 298.164ZM266.415 298.188C266.415 297.732 266.319 297.336 266.127 297C265.943 296.664 265.699 296.408 265.395 296.232C265.091 296.056 264.763 295.968 264.411 295.968C264.059 295.968 263.731 296.056 263.427 296.232C263.123 296.4 262.875 296.652 262.683 296.988C262.499 297.316 262.407 297.708 262.407 298.164C262.407 298.62 262.499 299.02 262.683 299.364C262.875 299.708 263.123 299.972 263.427 300.156C263.739 300.332 264.067 300.42 264.411 300.42C264.763 300.42 265.091 300.332 265.395 300.156C265.699 299.98 265.943 299.724 266.127 299.388C266.319 299.044 266.415 298.644 266.415 298.188ZM271.991 301.608C271.471 301.608 271.003 301.516 270.587 301.332C270.179 301.14 269.855 300.884 269.615 300.564C269.375 300.236 269.247 299.872 269.231 299.472H270.647C270.671 299.752 270.803 299.988 271.043 300.18C271.291 300.364 271.599 300.456 271.967 300.456C272.351 300.456 272.647 300.384 272.855 300.24C273.071 300.088 273.179 299.896 273.179 299.664C273.179 299.416 273.059 299.232 272.819 299.112C272.587 298.992 272.215 298.86 271.703 298.716C271.207 298.58 270.803 298.448 270.491 298.32C270.179 298.192 269.907 297.996 269.675 297.732C269.451 297.468 269.339 297.12 269.339 296.688C269.339 296.336 269.443 296.016 269.651 295.728C269.859 295.432 270.155 295.2 270.539 295.032C270.931 294.864 271.379 294.78 271.883 294.78C272.635 294.78 273.239 294.972 273.695 295.356C274.159 295.732 274.407 296.248 274.439 296.904H273.071C273.047 296.608 272.927 296.372 272.711 296.196C272.495 296.02 272.203 295.932 271.835 295.932C271.475 295.932 271.199 296 271.007 296.136C270.815 296.272 270.719 296.452 270.719 296.676C270.719 296.852 270.783 297 270.911 297.12C271.039 297.24 271.195 297.336 271.379 297.408C271.563 297.472 271.835 297.556 272.195 297.66C272.675 297.788 273.067 297.92 273.371 298.056C273.683 298.184 273.951 298.376 274.175 298.632C274.399 298.888 274.515 299.228 274.523 299.652C274.523 300.028 274.419 300.364 274.211 300.66C274.003 300.956 273.707 301.188 273.323 301.356C272.947 301.524 272.503 301.608 271.991 301.608ZM282.062 298.032C282.062 298.28 282.046 298.504 282.014 298.704H276.962C277.002 299.232 277.198 299.656 277.55 299.976C277.902 300.296 278.334 300.456 278.846 300.456C279.582 300.456 280.102 300.148 280.406 299.532H281.882C281.682 300.14 281.318 300.64 280.79 301.032C280.27 301.416 279.622 301.608 278.846 301.608C278.214 301.608 277.646 301.468 277.142 301.188C276.646 300.9 276.254 300.5 275.966 299.988C275.686 299.468 275.546 298.868 275.546 298.188C275.546 297.508 275.682 296.912 275.954 296.4C276.234 295.88 276.622 295.48 277.118 295.2C277.622 294.92 278.198 294.78 278.846 294.78C279.47 294.78 280.026 294.916 280.514 295.188C281.002 295.46 281.382 295.844 281.654 296.34C281.926 296.828 282.062 297.392 282.062 298.032ZM280.634 297.6C280.626 297.096 280.446 296.692 280.094 296.388C279.742 296.084 279.306 295.932 278.786 295.932C278.314 295.932 277.91 296.084 277.574 296.388C277.238 296.684 277.038 297.088 276.974 297.6H280.634Z" fill="white"/>
<path d="M262.732 393.644C262.732 394.068 262.632 394.468 262.432 394.844C262.232 395.22 261.912 395.528 261.472 395.768C261.032 396 260.468 396.116 259.78 396.116H258.268V399.5H256.9V391.16H259.78C260.42 391.16 260.96 391.272 261.4 391.496C261.848 391.712 262.18 392.008 262.396 392.384C262.62 392.76 262.732 393.18 262.732 393.644ZM259.78 395C260.3 395 260.688 394.884 260.944 394.652C261.2 394.412 261.328 394.076 261.328 393.644C261.328 392.732 260.812 392.276 259.78 392.276H258.268V395H259.78ZM265.405 390.62V399.5H264.037V390.62H265.405ZM273.189 392.888V399.5H271.821V398.72C271.605 398.992 271.321 399.208 270.969 399.368C270.625 399.52 270.257 399.596 269.865 399.596C269.345 399.596 268.877 399.488 268.461 399.272C268.053 399.056 267.729 398.736 267.489 398.312C267.257 397.888 267.141 397.376 267.141 396.776V392.888H268.497V396.572C268.497 397.164 268.645 397.62 268.941 397.94C269.237 398.252 269.641 398.408 270.153 398.408C270.665 398.408 271.069 398.252 271.365 397.94C271.669 397.62 271.821 397.164 271.821 396.572V392.888H273.189ZM277.394 399.608C276.874 399.608 276.406 399.516 275.99 399.332C275.582 399.14 275.258 398.884 275.018 398.564C274.778 398.236 274.65 397.872 274.634 397.472H276.05C276.074 397.752 276.206 397.988 276.446 398.18C276.694 398.364 277.002 398.456 277.37 398.456C277.754 398.456 278.05 398.384 278.258 398.24C278.474 398.088 278.582 397.896 278.582 397.664C278.582 397.416 278.462 397.232 278.222 397.112C277.99 396.992 277.618 396.86 277.106 396.716C276.61 396.58 276.206 396.448 275.894 396.32C275.582 396.192 275.31 395.996 275.078 395.732C274.854 395.468 274.742 395.12 274.742 394.688C274.742 394.336 274.846 394.016 275.054 393.728C275.262 393.432 275.558 393.2 275.942 393.032C276.334 392.864 276.782 392.78 277.286 392.78C278.038 392.78 278.642 392.972 279.098 393.356C279.562 393.732 279.81 394.248 279.842 394.904H278.474C278.45 394.608 278.33 394.372 278.114 394.196C277.898 394.02 277.606 393.932 277.238 393.932C276.878 393.932 276.602 394 276.41 394.136C276.218 394.272 276.122 394.452 276.122 394.676C276.122 394.852 276.186 395 276.314 395.12C276.442 395.24 276.598 395.336 276.782 395.408C276.966 395.472 277.238 395.556 277.598 395.66C278.078 395.788 278.47 395.92 278.774 396.056C279.086 396.184 279.354 396.376 279.578 396.632C279.802 396.888 279.918 397.228 279.926 397.652C279.926 398.028 279.822 398.364 279.614 398.66C279.406 398.956 279.11 399.188 278.726 399.356C278.35 399.524 277.906 399.608 277.394 399.608Z" fill="#9D9E9F"/>
<defs>
<filter id="filter0_i_10672_165815" x="206.203" y="61.8281" width="123.469" height="124.705" filterUnits="userSpaceOnUse" color-interpolation-filters="sRGB">
<feFlood flood-opacity="0" result="BackgroundImageFix"/>
<feBlend mode="normal" in="SourceGraphic" in2="BackgroundImageFix" result="shape"/>
<feColorMatrix in="SourceAlpha" type="matrix" values="0 0 0 0 0 0 0 0 0 0 0 0 0 0 0 0 0 0 127 0" result="hardAlpha"/>
<feOffset dy="1.23632"/>
<feGaussianBlur stdDeviation="1.23632"/>
<feComposite in2="hardAlpha" operator="arithmetic" k2="-1" k3="1"/>
<feColorMatrix type="matrix" values="0 0 0 0 0 0 0 0 0 0 0 0 0 0 0 0 0 0 1 0"/>
<feBlend mode="normal" in2="shape" result="effect1_innerShadow_10672_165815"/>
</filter>
<linearGradient id="paint0_linear_10672_165815" x1="268" y1="0.5" x2="268" y2="440.5" gradientUnits="userSpaceOnUse">
<stop stop-color="#161C20"/>
<stop offset="1" stop-color="#0A0D0F"/>
</linearGradient>
<radialGradient id="paint1_radial_10672_165815" cx="0" cy="0" r="1" gradientUnits="userSpaceOnUse" gradientTransform="translate(286.5 216.868) scale(314.5 287.576)">
<stop stop-color="#D9D9D9" stop-opacity="0.8"/>
<stop offset="1" stop-color="#737373"/>
</radialGradient>
<linearGradient id="paint2_linear_10672_165815" x1="268" y1="0.5" x2="268" y2="440.5" gradientUnits="userSpaceOnUse">
<stop stop-color="#3B3D3F" stop-opacity="0.4"/>
<stop offset="1" stop-color="#3B3D3F"/>
</linearGradient>
<linearGradient id="paint3_linear_10672_165815" x1="216.098" y1="234.938" x2="216.098" y2="282.938" gradientUnits="userSpaceOnUse">
<stop stop-color="#161C20"/>
<stop offset="1" stop-color="#0A0D0F"/>
</linearGradient>
<linearGradient id="paint4_linear_10672_165815" x1="216.098" y1="258.921" x2="216.098" y2="282.937" gradientUnits="userSpaceOnUse">
<stop stop-color="#3B3D3F" stop-opacity="0.5"/>
<stop offset="1" stop-color="#3B3D3F" stop-opacity="0.89"/>
</linearGradient>
<linearGradient id="paint5_linear_10672_165815" x1="125" y1="234.938" x2="125" y2="282.938" gradientUnits="userSpaceOnUse">
<stop stop-color="#161C20"/>
<stop offset="1" stop-color="#0A0D0F"/>
</linearGradient>
<linearGradient id="paint6_linear_10672_165815" x1="125" y1="258.921" x2="125" y2="282.937" gradientUnits="userSpaceOnUse">
<stop stop-color="#3B3D3F" stop-opacity="0.5"/>
<stop offset="1" stop-color="#3B3D3F" stop-opacity="0.89"/>
</linearGradient>
<linearGradient id="paint7_linear_10672_165815" x1="313.66" y1="234.938" x2="313.66" y2="282.938" gradientUnits="userSpaceOnUse">
<stop stop-color="#161C20"/>
<stop offset="1" stop-color="#0A0D0F"/>
</linearGradient>
<linearGradient id="paint8_linear_10672_165815" x1="313.66" y1="258.921" x2="313.66" y2="282.937" gradientUnits="userSpaceOnUse">
<stop stop-color="#3B3D3F" stop-opacity="0.5"/>
<stop offset="1" stop-color="#3B3D3F" stop-opacity="0.89"/>
</linearGradient>
<linearGradient id="paint9_linear_10672_165815" x1="411.41" y1="234.938" x2="411.41" y2="282.938" gradientUnits="userSpaceOnUse">
<stop stop-color="#161C20"/>
<stop offset="1" stop-color="#0A0D0F"/>
</linearGradient>
<linearGradient id="paint10_linear_10672_165815" x1="411.41" y1="258.921" x2="411.41" y2="282.937" gradientUnits="userSpaceOnUse">
<stop stop-color="#3B3D3F" stop-opacity="0.5"/>
<stop offset="1" stop-color="#3B3D3F" stop-opacity="0.89"/>
</linearGradient>
<linearGradient id="paint11_linear_10672_165815" x1="267.919" y1="61.2436" x2="267.968" y2="185.297" gradientUnits="userSpaceOnUse">
<stop stop-color="#1E1E1F" stop-opacity="0"/>
<stop offset="1" stop-color="#1E1E1F" stop-opacity="0.8"/>
</linearGradient>
<linearGradient id="paint12_linear_10672_165815" x1="268.415" y1="68.5273" x2="268.415" y2="178.727" gradientUnits="userSpaceOnUse">
<stop stop-color="#3B3D3F" stop-opacity="0.2"/>
<stop offset="1" stop-color="#3B3D3F" stop-opacity="0.4"/>
</linearGradient>
<linearGradient id="paint13_linear_10672_165815" x1="268" y1="333.5" x2="268" y2="381.5" gradientUnits="userSpaceOnUse">
<stop stop-color="#161C20"/>
<stop offset="1" stop-color="#0A0D0F"/>
</linearGradient>
<linearGradient id="paint14_linear_10672_165815" x1="268" y1="357.484" x2="268" y2="381.5" gradientUnits="userSpaceOnUse">
<stop stop-color="#3B3D3F" stop-opacity="0.5"/>
<stop offset="1" stop-color="#3B3D3F" stop-opacity="0.89"/>
</linearGradient>
<linearGradient id="paint15_linear_10672_165815" x1="178" y1="333.5" x2="178" y2="381.5" gradientUnits="userSpaceOnUse">
<stop stop-color="#161C20"/>
<stop offset="1" stop-color="#0A0D0F"/>
</linearGradient>
<linearGradient id="paint16_linear_10672_165815" x1="178" y1="357.484" x2="178" y2="381.5" gradientUnits="userSpaceOnUse">
<stop stop-color="#3B3D3F" stop-opacity="0.5"/>
<stop offset="1" stop-color="#3B3D3F" stop-opacity="0.89"/>
</linearGradient>
<linearGradient id="paint17_linear_10672_165815" x1="358" y1="333.5" x2="358" y2="381.5" gradientUnits="userSpaceOnUse">
<stop stop-color="#161C20"/>
<stop offset="1" stop-color="#0A0D0F"/>
</linearGradient>
<linearGradient id="paint18_linear_10672_165815" x1="358" y1="357.484" x2="358" y2="381.5" gradientUnits="userSpaceOnUse">
<stop stop-color="#3B3D3F" stop-opacity="0.5"/>
<stop offset="1" stop-color="#3B3D3F" stop-opacity="0.89"/>
</linearGradient>
<linearGradient id="paint19_linear_10672_165815" x1="520.499" y1="309" x2="-4.89493" y2="309" gradientUnits="userSpaceOnUse">
<stop stop-color="#6C6E6F" stop-opacity="0"/>
<stop offset="0.5" stop-color="white"/>
<stop offset="1" stop-color="#6C6E6F" stop-opacity="0"/>
</linearGradient>
<linearGradient id="paint20_linear_10672_165815" x1="520.499" y1="406" x2="-4.89493" y2="406" gradientUnits="userSpaceOnUse">
<stop stop-color="#6C6E6F" stop-opacity="0"/>
<stop offset="0.5" stop-color="#4B4D4E"/>
<stop offset="1" stop-color="#6C6E6F" stop-opacity="0"/>
</linearGradient>
<clipPath id="clip0_10672_165815">
<rect y="0.5" width="536" height="440" rx="16" fill="white"/>
</clipPath>
</defs>
</svg>
