<svg width="24" height="25" viewBox="0 0 24 25" fill="none" xmlns="http://www.w3.org/2000/svg">
<path d="M21.1744 10.1628C20.8209 9.79344 20.4553 9.41281 20.3175 9.07812C20.19 8.77156 20.1825 8.26344 20.175 7.77125C20.1609 6.85625 20.1459 5.81937 19.425 5.09844C18.7041 4.3775 17.6672 4.3625 16.7522 4.34844C16.26 4.34094 15.7519 4.33344 15.4453 4.20594C15.1116 4.06812 14.73 3.7025 14.3606 3.34906C13.7137 2.7275 12.9787 2.02344 12 2.02344C11.0213 2.02344 10.2872 2.7275 9.63937 3.34906C9.27 3.7025 8.88937 4.06812 8.55469 4.20594C8.25 4.33344 7.74 4.34094 7.24781 4.34844C6.33281 4.3625 5.29594 4.3775 4.575 5.09844C3.85406 5.81937 3.84375 6.85625 3.825 7.77125C3.8175 8.26344 3.81 8.77156 3.6825 9.07812C3.54469 9.41187 3.17906 9.79344 2.82562 10.1628C2.20406 10.8097 1.5 11.5447 1.5 12.5234C1.5 13.5022 2.20406 14.2362 2.82562 14.8841C3.17906 15.2534 3.54469 15.6341 3.6825 15.9688C3.81 16.2753 3.8175 16.7834 3.825 17.2756C3.83906 18.1906 3.85406 19.2275 4.575 19.9484C5.29594 20.6694 6.33281 20.6844 7.24781 20.6984C7.74 20.7059 8.24813 20.7134 8.55469 20.8409C8.88844 20.9788 9.27 21.3444 9.63937 21.6978C10.2862 22.3194 11.0213 23.0234 12 23.0234C12.9787 23.0234 13.7128 22.3194 14.3606 21.6978C14.73 21.3444 15.1106 20.9788 15.4453 20.8409C15.7519 20.7134 16.26 20.7059 16.7522 20.6984C17.6672 20.6844 18.7041 20.6694 19.425 19.9484C20.1459 19.2275 20.1609 18.1906 20.175 17.2756C20.1825 16.7834 20.19 16.2753 20.3175 15.9688C20.4553 15.635 20.8209 15.2534 21.1744 14.8841C21.7959 14.2372 22.5 13.5022 22.5 12.5234C22.5 11.5447 21.7959 10.8106 21.1744 10.1628ZM20.0916 13.8463C19.6425 14.315 19.1775 14.7997 18.9309 15.395C18.6947 15.9669 18.6844 16.6203 18.675 17.2531C18.6656 17.9094 18.6553 18.5966 18.3638 18.8872C18.0722 19.1778 17.3897 19.1891 16.7297 19.1984C16.0969 19.2078 15.4434 19.2181 14.8716 19.4544C14.2763 19.7009 13.7916 20.1659 13.3228 20.615C12.8541 21.0641 12.375 21.5234 12 21.5234C11.625 21.5234 11.1422 21.0622 10.6772 20.615C10.2122 20.1678 9.72375 19.7009 9.12844 19.4544C8.55656 19.2181 7.90313 19.2078 7.27031 19.1984C6.61406 19.1891 5.92687 19.1788 5.63625 18.8872C5.34562 18.5956 5.33437 17.9131 5.325 17.2531C5.31562 16.6203 5.30531 15.9669 5.06906 15.395C4.8225 14.7997 4.3575 14.315 3.90844 13.8463C3.45937 13.3775 3 12.8984 3 12.5234C3 12.1484 3.46125 11.6656 3.90844 11.2006C4.35562 10.7356 4.8225 10.2472 5.06906 9.65188C5.30531 9.08 5.31562 8.42656 5.325 7.79375C5.33437 7.1375 5.34469 6.45031 5.63625 6.15969C5.92781 5.86906 6.61031 5.85781 7.27031 5.84844C7.90313 5.83906 8.55656 5.82875 9.12844 5.5925C9.72375 5.34594 10.2084 4.88094 10.6772 4.43187C11.1459 3.98281 11.625 3.52344 12 3.52344C12.375 3.52344 12.8578 3.98469 13.3228 4.43187C13.7878 4.87906 14.2763 5.34594 14.8716 5.5925C15.4434 5.82875 16.0969 5.83906 16.7297 5.84844C17.3859 5.85781 18.0731 5.86812 18.3638 6.15969C18.6544 6.45125 18.6656 7.13375 18.675 7.79375C18.6844 8.42656 18.6947 9.08 18.9309 9.65188C19.1775 10.2472 19.6425 10.7319 20.0916 11.2006C20.5406 11.6694 21 12.1484 21 12.5234C21 12.8984 20.5387 13.3813 20.0916 13.8463ZM13.125 17.3984C13.125 17.6209 13.059 17.8384 12.9354 18.0235C12.8118 18.2085 12.6361 18.3527 12.4305 18.4378C12.225 18.5229 11.9988 18.5452 11.7805 18.5018C11.5623 18.4584 11.3618 18.3513 11.2045 18.1939C11.0472 18.0366 10.94 17.8361 10.8966 17.6179C10.8532 17.3997 10.8755 17.1735 10.9606 16.9679C11.0458 16.7624 11.19 16.5867 11.375 16.463C11.56 16.3394 11.7775 16.2734 12 16.2734C12.2984 16.2734 12.5845 16.392 12.7955 16.6029C13.0065 16.8139 13.125 17.1001 13.125 17.3984ZM15.75 10.6484C15.75 12.2778 14.46 13.6419 12.75 13.9559V14.0234C12.75 14.2223 12.671 14.4131 12.5303 14.5538C12.3897 14.6944 12.1989 14.7734 12 14.7734C11.8011 14.7734 11.6103 14.6944 11.4697 14.5538C11.329 14.4131 11.25 14.2223 11.25 14.0234V13.2734C11.25 13.0745 11.329 12.8838 11.4697 12.7431C11.6103 12.6025 11.8011 12.5234 12 12.5234C13.2403 12.5234 14.25 11.6797 14.25 10.6484C14.25 9.61719 13.2403 8.77344 12 8.77344C10.7597 8.77344 9.75 9.61719 9.75 10.6484V11.0234C9.75 11.2223 9.67098 11.4131 9.53033 11.5538C9.38968 11.6944 9.19891 11.7734 9 11.7734C8.80109 11.7734 8.61032 11.6944 8.46967 11.5538C8.32902 11.4131 8.25 11.2223 8.25 11.0234V10.6484C8.25 8.7875 9.93188 7.27344 12 7.27344C14.0681 7.27344 15.75 8.7875 15.75 10.6484Z" fill="#FF5500"/>
</svg>
