<svg width="24" height="25" viewBox="0 0 24 25" fill="none" xmlns="http://www.w3.org/2000/svg">
<path d="M19.5 4.27344H4.5C4.10218 4.27344 3.72064 4.43147 3.43934 4.71278C3.15804 4.99408 3 5.37561 3 5.77344V11.2841C3 19.685 10.1081 22.4722 11.5312 22.9456C11.8352 23.049 12.1648 23.049 12.4688 22.9456C13.8937 22.4722 21 19.685 21 11.2841V5.77344C21 5.37561 20.842 4.99408 20.5607 4.71278C20.2794 4.43147 19.8978 4.27344 19.5 4.27344ZM19.5 11.285C19.5 18.6369 13.2797 21.0931 12 21.5206C10.7316 21.0978 4.5 18.6434 4.5 11.285V5.77344H19.5V11.285ZM7.71937 13.8041C7.57864 13.6633 7.49958 13.4725 7.49958 13.2734C7.49958 13.0744 7.57864 12.8835 7.71937 12.7428C7.86011 12.6021 8.05098 12.523 8.25 12.523C8.44902 12.523 8.63989 12.6021 8.78063 12.7428L10.5 14.4622L15.2194 9.74281C15.2891 9.67313 15.3718 9.61785 15.4628 9.58014C15.5539 9.54243 15.6515 9.52302 15.75 9.52302C15.8485 9.52302 15.9461 9.54243 16.0372 9.58014C16.1282 9.61785 16.2109 9.67313 16.2806 9.74281C16.3503 9.81249 16.4056 9.89522 16.4433 9.98627C16.481 10.0773 16.5004 10.1749 16.5004 10.2734C16.5004 10.372 16.481 10.4696 16.4433 10.5606C16.4056 10.6517 16.3503 10.7344 16.2806 10.8041L11.0306 16.0541C10.961 16.1238 10.8783 16.1791 10.7872 16.2169C10.6962 16.2546 10.5986 16.274 10.5 16.274C10.4014 16.274 10.3038 16.2546 10.2128 16.2169C10.1217 16.1791 10.039 16.1238 9.96937 16.0541L7.71937 13.8041Z" fill="#FF5500"/>
</svg>
