<svg width="24" height="25" viewBox="0 0 24 25" fill="none" xmlns="http://www.w3.org/2000/svg">
<path d="M19.5 3.52344H17.25V2.77344C17.25 2.57453 17.171 2.38376 17.0303 2.24311C16.8897 2.10246 16.6989 2.02344 16.5 2.02344C16.3011 2.02344 16.1103 2.10246 15.9697 2.24311C15.829 2.38376 15.75 2.57453 15.75 2.77344V3.52344H8.25V2.77344C8.25 2.57453 8.17098 2.38376 8.03033 2.24311C7.88968 2.10246 7.69891 2.02344 7.5 2.02344C7.30109 2.02344 7.11032 2.10246 6.96967 2.24311C6.82902 2.38376 6.75 2.57453 6.75 2.77344V3.52344H4.5C4.10218 3.52344 3.72064 3.68147 3.43934 3.96278C3.15804 4.24408 3 4.62561 3 5.02344V20.0234C3 20.4213 3.15804 20.8028 3.43934 21.0841C3.72064 21.3654 4.10218 21.5234 4.5 21.5234H19.5C19.8978 21.5234 20.2794 21.3654 20.5607 21.0841C20.842 20.8028 21 20.4213 21 20.0234V5.02344C21 4.62561 20.842 4.24408 20.5607 3.96278C20.2794 3.68147 19.8978 3.52344 19.5 3.52344ZM6.75 5.02344V5.77344C6.75 5.97235 6.82902 6.16312 6.96967 6.30377C7.11032 6.44442 7.30109 6.52344 7.5 6.52344C7.69891 6.52344 7.88968 6.44442 8.03033 6.30377C8.17098 6.16312 8.25 5.97235 8.25 5.77344V5.02344H15.75V5.77344C15.75 5.97235 15.829 6.16312 15.9697 6.30377C16.1103 6.44442 16.3011 6.52344 16.5 6.52344C16.6989 6.52344 16.8897 6.44442 17.0303 6.30377C17.171 6.16312 17.25 5.97235 17.25 5.77344V5.02344H19.5V8.02344H4.5V5.02344H6.75ZM19.5 20.0234H4.5V9.52344H19.5V20.0234ZM15.9056 11.9928C15.9754 12.0625 16.0307 12.1452 16.0684 12.2362C16.1062 12.3273 16.1256 12.4249 16.1256 12.5234C16.1256 12.622 16.1062 12.7196 16.0684 12.8106C16.0307 12.9017 15.9754 12.9844 15.9056 13.0541L11.4056 17.5541C11.336 17.6238 11.2533 17.6791 11.1622 17.7169C11.0712 17.7546 10.9736 17.774 10.875 17.774C10.7764 17.774 10.6788 17.7546 10.5878 17.7169C10.4967 17.6791 10.414 17.6238 10.3444 17.5541L8.09437 15.3041C7.95364 15.1633 7.87458 14.9725 7.87458 14.7734C7.87458 14.5744 7.95364 14.3835 8.09437 14.2428C8.23511 14.1021 8.42598 14.023 8.625 14.023C8.82402 14.023 9.01489 14.1021 9.15563 14.2428L10.875 15.9631L14.8444 11.9928C14.914 11.9231 14.9967 11.8678 15.0878 11.83C15.1788 11.7923 15.2764 11.7728 15.375 11.7728C15.4736 11.7728 15.5712 11.7923 15.6622 11.83C15.7533 11.8678 15.836 11.9231 15.9056 11.9928Z" fill="#FF5500"/>
</svg>
