<svg width="708" height="470" viewBox="0 0 708 470" fill="none" xmlns="http://www.w3.org/2000/svg">
<g clip-path="url(#clip0_10157_94306)">
<rect width="708" height="470" rx="16" fill="url(#paint0_linear_10157_94306)"/>
<mask id="mask0_10157_94306" style="mask-type:alpha" maskUnits="userSpaceOnUse" x="-14" y="-11" width="745" height="489">
<path d="M-14 -11H731V478H-14V-11Z" fill="url(#paint1_radial_10157_94306)"/>
</mask>
<g mask="url(#mask0_10157_94306)">
<path d="M58.002 6V477" stroke="#181E22"/>
<path d="M125.002 6V477" stroke="#181E22"/>
<path d="M192.002 6V477" stroke="#181E22"/>
<path d="M259.002 6V477" stroke="#181E22"/>
<path d="M326.002 6V477" stroke="#181E22"/>
<path d="M393.002 6V477" stroke="#181E22"/>
<path d="M460.002 6V477" stroke="#181E22"/>
<path d="M527.002 6V477" stroke="#181E22"/>
<path d="M594.002 6V477" stroke="#181E22"/>
<path d="M661.002 6V477" stroke="#181E22"/>
<rect x="-78.75" y="16.25" width="809.5" height="0.5" fill="#2E2E38" stroke="#181E22" stroke-width="0.5"/>
<rect x="-78.75" y="57.25" width="809.5" height="0.5" fill="#2E2E38" stroke="#181E22" stroke-width="0.5"/>
<rect x="-78.75" y="98.25" width="809.5" height="0.5" fill="#2E2E38" stroke="#181E22" stroke-width="0.5"/>
<rect x="-78.75" y="139.25" width="809.5" height="0.5" fill="#2E2E38" stroke="#181E22" stroke-width="0.5"/>
<rect x="-78.75" y="180.25" width="809.5" height="0.5" fill="#2E2E38" stroke="#181E22" stroke-width="0.5"/>
<rect x="-78.75" y="221.25" width="809.5" height="0.5" fill="#2E2E38" stroke="#181E22" stroke-width="0.5"/>
<rect x="-78.75" y="262.25" width="809.5" height="0.5" fill="#2E2E38" stroke="#181E22" stroke-width="0.5"/>
<rect x="-78.75" y="303.25" width="809.5" height="0.5" fill="#2E2E38" stroke="#181E22" stroke-width="0.5"/>
<rect x="-78.75" y="344.25" width="809.5" height="0.5" fill="#2E2E38" stroke="#181E22" stroke-width="0.5"/>
<rect x="-78.75" y="385.25" width="809.5" height="0.5" fill="#2E2E38" stroke="#181E22" stroke-width="0.5"/>
<rect x="-78.75" y="426.25" width="809.5" height="0.5" fill="#2E2E38" stroke="#181E22" stroke-width="0.5"/>
<rect x="-78.75" y="467.25" width="809.5" height="0.5" fill="#2E2E38" stroke="#181E22" stroke-width="0.5"/>
</g>
<path d="M343.715 186.008H341.439L334.594 175.65V186.008H332.319V172.118H334.594L341.439 182.456V172.118H343.715V186.008ZM348.778 172.138V186.008H346.503V172.138H348.778ZM356.135 186.148C355.204 186.148 354.365 185.988 353.62 185.669C352.875 185.336 352.29 184.87 351.864 184.272C351.439 183.673 351.226 182.974 351.226 182.176H353.66C353.714 182.775 353.946 183.267 354.359 183.653C354.785 184.039 355.377 184.232 356.135 184.232C356.92 184.232 357.532 184.045 357.971 183.673C358.41 183.287 358.63 182.795 358.63 182.196C358.63 181.73 358.49 181.351 358.21 181.059C357.944 180.766 357.605 180.54 357.193 180.38C356.794 180.22 356.235 180.047 355.516 179.861C354.612 179.622 353.873 179.382 353.301 179.143C352.742 178.89 352.263 178.504 351.864 177.985C351.465 177.466 351.266 176.775 351.266 175.91C351.266 175.112 351.465 174.413 351.864 173.814C352.263 173.216 352.822 172.757 353.541 172.437C354.259 172.118 355.091 171.958 356.035 171.958C357.379 171.958 358.477 172.298 359.328 172.976C360.193 173.641 360.672 174.559 360.765 175.73H358.25C358.21 175.225 357.971 174.792 357.532 174.433C357.093 174.074 356.514 173.894 355.796 173.894C355.144 173.894 354.612 174.061 354.199 174.393C353.787 174.726 353.581 175.205 353.581 175.83C353.581 176.256 353.707 176.608 353.96 176.888C354.226 177.154 354.558 177.367 354.958 177.526C355.357 177.686 355.902 177.859 356.594 178.045C357.512 178.298 358.257 178.551 358.829 178.804C359.414 179.056 359.907 179.449 360.306 179.981C360.718 180.5 360.925 181.198 360.925 182.076C360.925 182.782 360.732 183.447 360.346 184.072C359.973 184.697 359.421 185.203 358.689 185.589C357.971 185.961 357.119 186.148 356.135 186.148ZM372.37 172.138V173.994H368.678V186.008H366.403V173.994H362.691V172.138H372.37Z" fill="white"/>
<path d="M308.016 232.892H324.668V237.996H301.056V233.408L317.657 207.27H301.056V202.166H324.668V206.754L308.016 232.892ZM355.581 223.097C355.581 224.162 355.512 225.125 355.375 225.984H333.67C333.842 228.252 334.684 230.074 336.197 231.449C337.709 232.823 339.565 233.511 341.765 233.511C344.927 233.511 347.161 232.188 348.467 229.541H354.808C353.949 232.153 352.385 234.301 350.116 235.985C347.882 237.635 345.098 238.46 341.765 238.46C339.049 238.46 336.609 237.859 334.444 236.656C332.313 235.418 330.629 233.7 329.391 231.5C328.189 229.266 327.587 226.689 327.587 223.767C327.587 220.846 328.171 218.285 329.34 216.085C330.543 213.851 332.21 212.133 334.341 210.93C336.506 209.727 338.981 209.126 341.765 209.126C344.445 209.126 346.834 209.71 348.931 210.879C351.027 212.047 352.66 213.697 353.828 215.828C354.997 217.924 355.581 220.347 355.581 223.097ZM349.446 221.241C349.412 219.076 348.638 217.34 347.126 216.034C345.614 214.728 343.741 214.075 341.507 214.075C339.479 214.075 337.743 214.728 336.3 216.034C334.856 217.306 333.997 219.041 333.722 221.241H349.446ZM365.695 213.714C366.555 212.27 367.689 211.153 369.098 210.363C370.542 209.538 372.243 209.126 374.202 209.126V215.209H372.707C370.404 215.209 368.651 215.793 367.448 216.962C366.28 218.13 365.695 220.158 365.695 223.045V237.996H359.818V209.59H365.695V213.714ZM390.379 238.46C387.698 238.46 385.275 237.859 383.11 236.656C380.945 235.418 379.243 233.7 378.006 231.5C376.769 229.266 376.15 226.689 376.15 223.767C376.15 220.88 376.786 218.32 378.058 216.085C379.329 213.851 381.065 212.133 383.265 210.93C385.464 209.727 387.922 209.126 390.637 209.126C393.352 209.126 395.809 209.727 398.009 210.93C400.209 212.133 401.944 213.851 403.216 216.085C404.488 218.32 405.124 220.88 405.124 223.767C405.124 226.654 404.471 229.215 403.165 231.449C401.858 233.683 400.071 235.418 397.803 236.656C395.569 237.859 393.094 238.46 390.379 238.46ZM390.379 233.356C391.891 233.356 393.3 232.995 394.607 232.274C395.947 231.552 397.03 230.469 397.854 229.026C398.679 227.582 399.092 225.829 399.092 223.767C399.092 221.705 398.696 219.969 397.906 218.56C397.115 217.117 396.067 216.034 394.761 215.312C393.455 214.59 392.046 214.23 390.534 214.23C389.021 214.23 387.612 214.59 386.306 215.312C385.035 216.034 384.021 217.117 383.265 218.56C382.508 219.969 382.13 221.705 382.13 223.767C382.13 226.826 382.904 229.197 384.45 230.882C386.031 232.531 388.008 233.356 390.379 233.356ZM318.337 250.166V254.96H308.799V285.996H302.922V254.96H293.333V250.166H318.337ZM328.62 261.714C329.479 260.27 330.613 259.153 332.022 258.363C333.466 257.538 335.167 257.126 337.126 257.126V263.209H335.631C333.328 263.209 331.575 263.793 330.372 264.962C329.204 266.13 328.62 268.158 328.62 271.045V285.996H322.742V257.59H328.62V261.714ZM366.707 257.59V285.996H360.83V282.645C359.902 283.814 358.682 284.742 357.17 285.429C355.692 286.082 354.111 286.409 352.427 286.409C350.193 286.409 348.182 285.945 346.395 285.017C344.642 284.089 343.25 282.714 342.219 280.892C341.222 279.071 340.724 276.871 340.724 274.293V257.59H346.55V273.417C346.55 275.96 347.185 277.919 348.457 279.294C349.729 280.634 351.464 281.305 353.664 281.305C355.864 281.305 357.599 280.634 358.871 279.294C360.177 277.919 360.83 275.96 360.83 273.417V257.59H366.707ZM383.226 286.46C380.992 286.46 378.981 286.065 377.194 285.274C375.441 284.449 374.049 283.35 373.018 281.975C371.987 280.566 371.437 279.002 371.369 277.283H377.452C377.555 278.486 378.122 279.5 379.153 280.325C380.219 281.116 381.542 281.511 383.123 281.511C384.773 281.511 386.044 281.202 386.938 280.583C387.866 279.93 388.33 279.105 388.33 278.108C388.33 277.043 387.814 276.252 386.783 275.737C385.787 275.221 384.188 274.654 381.989 274.035C379.858 273.451 378.122 272.884 376.782 272.334C375.441 271.784 374.273 270.942 373.276 269.808C372.314 268.674 371.833 267.179 371.833 265.323C371.833 263.811 372.279 262.436 373.173 261.198C374.067 259.927 375.338 258.93 376.988 258.208C378.672 257.487 380.597 257.126 382.762 257.126C385.993 257.126 388.588 257.951 390.547 259.6C392.54 261.216 393.606 263.432 393.743 266.251H387.866C387.763 264.979 387.247 263.965 386.319 263.209C385.391 262.453 384.137 262.075 382.556 262.075C381.009 262.075 379.824 262.367 378.999 262.951C378.174 263.536 377.761 264.309 377.761 265.271C377.761 266.027 378.036 266.663 378.586 267.179C379.136 267.694 379.806 268.107 380.597 268.416C381.387 268.691 382.556 269.052 384.103 269.499C386.165 270.049 387.849 270.616 389.155 271.2C390.495 271.75 391.647 272.575 392.609 273.675C393.571 274.774 394.07 276.235 394.104 278.057C394.104 279.672 393.657 281.116 392.764 282.387C391.87 283.659 390.598 284.656 388.949 285.377C387.333 286.099 385.426 286.46 383.226 286.46ZM405.765 262.384V278.108C405.765 279.174 406.005 279.947 406.486 280.428C407.002 280.875 407.861 281.098 409.064 281.098H412.673V285.996H408.033C405.387 285.996 403.359 285.377 401.95 284.14C400.54 282.903 399.836 280.892 399.836 278.108V262.384H396.485V257.59H399.836V250.527H405.765V257.59H412.673V262.384H405.765Z" fill="#1C76FD"/>
<path d="M306.251 301.117V302.973H300.364V307.064H304.954V308.92H300.364V314.986H298.089V301.117H306.251ZM310.435 305.587C310.768 305.028 311.207 304.596 311.752 304.29C312.311 303.97 312.97 303.811 313.728 303.811V306.166H313.149C312.258 306.166 311.579 306.392 311.114 306.844C310.661 307.296 310.435 308.081 310.435 309.199V314.986H308.16V303.99H310.435V305.587ZM314.861 309.438C314.861 308.334 315.088 307.356 315.54 306.505C316.006 305.653 316.631 304.995 317.416 304.529C318.214 304.05 319.092 303.811 320.05 303.811C320.915 303.811 321.667 303.984 322.305 304.33C322.957 304.662 323.476 305.081 323.862 305.587V303.99H326.157V314.986H323.862V313.35C323.476 313.869 322.95 314.301 322.285 314.647C321.62 314.993 320.862 315.166 320.01 315.166C319.066 315.166 318.201 314.926 317.416 314.448C316.631 313.955 316.006 313.277 315.54 312.412C315.088 311.534 314.861 310.543 314.861 309.438ZM323.862 309.478C323.862 308.72 323.702 308.061 323.383 307.503C323.077 306.944 322.671 306.518 322.166 306.225C321.66 305.933 321.114 305.786 320.529 305.786C319.944 305.786 319.398 305.933 318.893 306.225C318.387 306.505 317.975 306.924 317.655 307.483C317.349 308.028 317.196 308.68 317.196 309.438C317.196 310.197 317.349 310.862 317.655 311.434C317.975 312.006 318.387 312.445 318.893 312.751C319.412 313.044 319.957 313.19 320.529 313.19C321.114 313.19 321.66 313.044 322.166 312.751C322.671 312.459 323.077 312.033 323.383 311.474C323.702 310.902 323.862 310.237 323.862 309.478ZM342.256 303.811C343.121 303.811 343.893 303.99 344.571 304.35C345.263 304.709 345.802 305.241 346.188 305.946C346.587 306.651 346.787 307.503 346.787 308.5V314.986H344.531V308.84C344.531 307.855 344.285 307.104 343.793 306.585C343.301 306.052 342.629 305.786 341.777 305.786C340.926 305.786 340.247 306.052 339.742 306.585C339.25 307.104 339.004 307.855 339.004 308.84V314.986H336.748V308.84C336.748 307.855 336.502 307.104 336.01 306.585C335.518 306.052 334.846 305.786 333.994 305.786C333.143 305.786 332.464 306.052 331.959 306.585C331.467 307.104 331.22 307.855 331.22 308.84V314.986H328.945V303.99H331.22V305.248C331.593 304.795 332.065 304.443 332.637 304.19C333.209 303.937 333.821 303.811 334.473 303.811C335.351 303.811 336.136 303.997 336.828 304.369C337.52 304.742 338.052 305.281 338.425 305.986C338.757 305.321 339.276 304.795 339.981 304.409C340.687 304.01 341.445 303.811 342.256 303.811ZM359.56 309.219C359.56 309.631 359.533 310.004 359.48 310.336H351.078C351.145 311.215 351.471 311.92 352.056 312.452C352.642 312.984 353.36 313.25 354.212 313.25C355.436 313.25 356.3 312.738 356.806 311.713H359.261C358.928 312.725 358.323 313.556 357.445 314.208C356.58 314.847 355.502 315.166 354.212 315.166C353.161 315.166 352.216 314.933 351.378 314.467C350.553 313.989 349.901 313.323 349.422 312.472C348.956 311.607 348.724 310.609 348.724 309.478C348.724 308.347 348.95 307.356 349.402 306.505C349.868 305.64 350.513 304.975 351.338 304.509C352.176 304.044 353.134 303.811 354.212 303.811C355.249 303.811 356.174 304.037 356.986 304.489C357.797 304.942 358.429 305.58 358.881 306.405C359.334 307.217 359.56 308.155 359.56 309.219ZM357.185 308.5C357.172 307.662 356.873 306.99 356.287 306.485C355.702 305.979 354.977 305.727 354.112 305.727C353.327 305.727 352.655 305.979 352.096 306.485C351.537 306.977 351.205 307.649 351.098 308.5H357.185ZM376.367 303.99L372.955 314.986H370.56L368.345 306.864L366.129 314.986H363.735L360.302 303.99H362.617L364.912 312.831L367.247 303.99H369.622L371.857 312.791L374.132 303.99H376.367ZM382.637 315.166C381.6 315.166 380.662 314.933 379.824 314.467C378.985 313.989 378.327 313.323 377.848 312.472C377.369 311.607 377.129 310.609 377.129 309.478C377.129 308.361 377.376 307.37 377.868 306.505C378.36 305.64 379.032 304.975 379.883 304.509C380.735 304.044 381.686 303.811 382.737 303.811C383.788 303.811 384.739 304.044 385.591 304.509C386.442 304.975 387.114 305.64 387.607 306.505C388.099 307.37 388.345 308.361 388.345 309.478C388.345 310.596 388.092 311.587 387.587 312.452C387.081 313.317 386.389 313.989 385.511 314.467C384.646 314.933 383.688 315.166 382.637 315.166ZM382.637 313.19C383.223 313.19 383.768 313.051 384.274 312.771C384.793 312.492 385.212 312.073 385.531 311.514C385.85 310.955 386.01 310.277 386.01 309.478C386.01 308.68 385.857 308.008 385.551 307.463C385.245 306.904 384.839 306.485 384.334 306.205C383.828 305.926 383.283 305.786 382.697 305.786C382.112 305.786 381.566 305.926 381.061 306.205C380.569 306.485 380.176 306.904 379.883 307.463C379.591 308.008 379.444 308.68 379.444 309.478C379.444 310.662 379.744 311.58 380.342 312.232C380.954 312.871 381.719 313.19 382.637 313.19ZM392.669 305.587C393.002 305.028 393.441 304.596 393.987 304.29C394.545 303.97 395.204 303.811 395.962 303.811V306.166H395.384C394.492 306.166 393.814 306.392 393.348 306.844C392.896 307.296 392.669 308.081 392.669 309.199V314.986H390.394V303.99H392.669V305.587ZM402.204 309.498L407.273 314.986H404.2L400.129 310.257V314.986H397.854V300.219H400.129V308.8L404.12 303.99H407.273L402.204 309.498Z" fill="white"/>
<path d="M519.244 173.647L522.499 176.012L522.206 176.417L522.613 176.712C522.752 176.813 522.888 176.912 523.022 177.01L523.315 176.605C524.587 177.53 525.657 178.313 526.565 179.014L526.262 179.408C526.539 179.622 526.801 179.827 527.048 180.026L527.361 179.638C528.631 180.663 529.532 181.535 530.214 182.486L529.81 182.778C529.903 182.908 529.992 183.04 530.077 183.174C530.185 183.343 530.288 183.515 530.387 183.689L530.819 183.443C531.645 184.902 532.168 186.511 532.357 188.177L531.863 188.233C531.886 188.432 531.903 188.632 531.916 188.832C531.926 188.99 531.931 189.149 531.932 189.31L532.431 189.307C532.438 190.477 532.221 191.712 531.797 193.288L531.314 193.158C531.232 193.464 531.142 193.785 531.043 194.121L531.52 194.262C531.196 195.362 530.791 196.624 530.306 198.119L529.831 197.966L529.675 198.447L529.52 198.926L529.994 199.079L528.751 202.905L528.276 202.752L527.965 203.709L528.44 203.863L527.197 207.689L526.722 207.535L526.411 208.492L526.886 208.646L525.643 212.472L525.168 212.318L524.857 213.275L525.332 213.43L524.089 217.257L523.613 217.102L523.303 218.059L523.778 218.213L522.534 222.039L522.06 221.885L521.749 222.842L522.224 222.995L520.98 226.823L520.505 226.668L520.194 227.625L520.67 227.779L519.426 231.605L518.951 231.451L518.641 232.408L519.115 232.562L517.872 236.39L517.396 236.234L517.086 237.191L517.562 237.346L516.317 241.172L515.843 241.019L515.532 241.975L516.007 242.128L514.764 245.956L514.289 245.802L513.978 246.758L514.453 246.912L513.209 250.738L512.734 250.585L512.424 251.541L512.898 251.694L511.655 255.521L511.181 255.368L510.869 256.324L511.345 256.479L510.102 260.306L509.626 260.151L509.315 261.107L509.79 261.262L508.547 265.088L508.072 264.935L507.761 265.891L508.236 266.046L506.993 269.872L506.518 269.718L506.207 270.674L506.682 270.828L505.438 274.654L504.964 274.501L504.652 275.457L505.128 275.612L503.885 279.438L503.409 279.284L503.099 280.24L503.573 280.395L502.33 284.221L501.855 284.067L501.544 285.024L502.02 285.179L500.776 289.005L500.301 288.851L499.99 289.808L500.466 289.962L499.222 293.787L498.747 293.634L498.437 294.591L498.911 294.745L497.668 298.571L497.192 298.417L496.882 299.374L497.357 299.528L496.114 303.354L495.639 303.2L495.328 304.157L495.803 304.311L494.56 308.138L494.084 307.983L493.773 308.94L494.249 309.095L493.006 312.921L492.53 312.767L492.22 313.724L492.694 313.877L491.451 317.704L490.976 317.55L490.665 318.507L491.141 318.661L489.897 322.487L489.422 322.333L489.111 323.29L489.586 323.443L488.343 327.271L487.868 327.116L487.557 328.073L488.032 328.228L486.789 332.055L486.313 331.899L486.003 332.856L486.479 333.011L485.234 336.837L484.76 336.683L484.448 337.64L484.924 337.794L483.681 341.621L483.205 341.466L482.895 342.423L483.37 342.577L482.126 346.403L481.651 346.25L481.34 347.206L481.815 347.36L480.572 351.188L480.097 351.033L479.786 351.989L480.262 352.144L479.018 355.97L478.543 355.816L478.231 356.772L478.707 356.927L477.464 360.754L476.988 360.6L476.678 361.556L477.153 361.71L475.909 365.536L475.435 365.383L475.123 366.339L475.599 366.494L474.355 370.32L473.88 370.166L473.569 371.122L474.045 371.277L472.802 375.104L472.326 374.949L472.016 375.905L472.49 376.061L471.247 379.887L470.771 379.732L470.461 380.688L470.937 380.844L469.693 384.67L469.218 384.516L469.062 384.994C469.01 385.157 468.957 385.317 468.906 385.475L469.381 385.63C468.895 387.125 468.479 388.384 468.094 389.464L467.626 389.298C467.508 389.628 467.394 389.94 467.28 390.236L467.746 390.414C467.163 391.939 466.612 393.066 465.918 394.009L465.518 393.713L465.224 394.09C465.096 394.244 464.964 394.395 464.829 394.543L465.195 394.879C464.063 396.115 462.695 397.11 461.17 397.805L460.963 397.352C460.872 397.393 460.781 397.433 460.688 397.473L460.41 397.587C460.263 397.645 460.114 397.7 459.962 397.75L460.118 398.223C459.007 398.592 457.765 398.767 456.135 398.851L456.109 398.353C455.793 398.369 455.46 398.381 455.11 398.391L455.123 398.888C453.977 398.92 452.651 398.925 451.079 398.926V398.427H450.07V398.927H446.047V398.427H445.041V398.927H441.018V398.427H440.012V398.927H435.988V398.427H434.982V398.927H430.959V398.427H429.953V398.927H425.93V398.427H424.924V398.927H420.899V398.427H419.894V398.927H415.87V398.427H414.864V398.927H410.841V398.427H409.835V398.927H405.812V398.427H404.806V398.927H400.782V398.427H399.776V398.927H395.753V398.427H394.747V398.927H390.724V398.427H389.718V398.927H385.694V398.427H384.688V398.927H380.665V398.427H379.659V398.927H375.636V398.427H374.629V398.927H370.605V398.427H369.6V398.927H365.576V398.427H364.57V398.927H360.547V398.427H359.541V398.927H355.518V398.427H354.512V398.927H350.488V398.427H349.482V398.927H345.459V398.427H344.453V398.927H340.43V398.427H339.424V398.927H335.4V398.427H334.395V398.927H330.371V398.427H329.365V398.927H325.341V398.427H324.335V398.927H320.312V398.427H319.306V398.927H315.282V398.427H314.276V398.927H310.253V398.427H309.247V398.927H305.224V398.427H304.218V398.927H300.194V398.427H299.188V398.927H295.165V398.427H294.159V398.927H290.136V398.427H289.13V398.927H285.106V398.427H284.101V398.927H280.076V398.427H279.07V398.927H275.047V398.427H274.041V398.927H270.018V398.427H269.012V398.927H264.988V398.427H263.982V398.927H259.959V398.427H258.953V398.927H254.93V398.427H253.921V398.926C252.348 398.925 251.023 398.92 249.876 398.888L249.89 398.391C249.54 398.381 249.207 398.369 248.891 398.353L248.864 398.851C247.234 398.767 245.992 398.592 244.881 398.223L245.038 397.75C244.886 397.7 244.737 397.645 244.59 397.587L244.312 397.473C244.219 397.433 244.128 397.393 244.037 397.352L243.829 397.805C242.304 397.11 240.935 396.115 239.804 394.879L240.171 394.543C240.036 394.395 239.904 394.244 239.776 394.09L239.482 393.713L239.081 394.009C238.387 393.066 237.836 391.939 237.253 390.414L237.72 390.236C237.606 389.94 237.492 389.628 237.374 389.298L236.905 389.464C236.52 388.384 236.104 387.125 235.618 385.63L236.094 385.475C236.043 385.317 235.99 385.157 235.938 384.994L235.782 384.516L235.306 384.67L234.062 380.844L234.539 380.688L234.229 379.732L233.753 379.887H233.752L232.509 376.061H232.51L232.984 375.905L232.674 374.949L232.197 375.104L230.954 371.277L231.431 371.122L231.12 370.166L230.645 370.32H230.644L229.4 366.493H229.401L229.877 366.339L229.565 365.383L229.09 365.536L227.846 361.71L228.322 361.556L228.012 360.6L227.535 360.754L226.292 356.927H226.293L226.769 356.772L226.457 355.816L225.981 355.97L224.737 352.144L225.214 351.989L224.903 351.033L224.427 351.188L223.184 347.36H223.185L223.66 347.206L223.349 346.249L222.873 346.403L221.629 342.577L222.105 342.423L221.795 341.466L221.318 341.621L220.075 337.794H220.076L220.552 337.64L220.24 336.683L219.765 336.837L218.521 333.011L218.997 332.856L218.687 331.899L218.21 332.055L216.967 328.228L217.443 328.073L217.132 327.116L216.657 327.271H216.656L215.413 323.443L215.889 323.29L215.578 322.333L215.102 322.487L213.858 318.661L214.335 318.507L214.024 317.55L213.549 317.704H213.548L212.305 313.877L212.78 313.724L212.47 312.767L211.993 312.921L210.75 309.095L211.227 308.94L210.916 307.983L210.44 308.138H210.439L209.196 304.311L209.672 304.157L209.361 303.2L208.885 303.354L207.642 299.528L208.118 299.374L207.808 298.417L207.332 298.571H207.331L206.088 294.745H206.089L206.563 294.591L206.253 293.634L205.777 293.787L204.533 289.962L205.01 289.808L204.699 288.851L204.223 289.005L202.979 285.179L203.456 285.024L203.145 284.067L202.669 284.221L201.426 280.395L201.901 280.24L201.591 279.284L201.114 279.438L199.871 275.612L200.348 275.457L200.036 274.501L199.561 274.654L198.317 270.828L198.793 270.674L198.482 269.718L198.006 269.872L196.763 266.046L197.239 265.891L196.928 264.935L196.452 265.088L195.209 261.262L195.685 261.107L195.374 260.151L194.897 260.306L193.654 256.479L194.131 256.324L193.819 255.368L193.344 255.521L192.101 251.694L192.576 251.541L192.266 250.585L191.79 250.738L190.546 246.912L191.022 246.758L190.711 245.802L190.235 245.956L188.992 242.128L189.468 241.975L189.157 241.018L188.682 241.172L187.438 237.346L187.914 237.191L187.604 236.234L187.127 236.39L185.884 232.562L186.359 232.408L186.049 231.451L185.573 231.605L184.329 227.779L184.806 227.625L184.495 226.668L184.019 226.823L182.775 222.995L183.251 222.842L182.94 221.885L182.465 222.039L181.221 218.213L181.697 218.059L181.387 217.102L180.91 217.256L179.667 213.43L180.143 213.275L179.832 212.318L179.356 212.472L178.113 208.646L178.589 208.492L178.278 207.535L177.802 207.689L176.559 203.863L177.035 203.709L176.724 202.752L176.248 202.905L175.005 199.079L175.48 198.926L175.325 198.447L175.169 197.966L174.693 198.119C174.208 196.624 173.803 195.362 173.479 194.262L173.957 194.121C173.858 193.785 173.768 193.464 173.686 193.158L173.202 193.288C172.778 191.713 172.561 190.477 172.568 189.307L173.068 189.31C173.069 189.149 173.074 188.99 173.084 188.832C173.097 188.632 173.114 188.432 173.137 188.233L172.642 188.177C172.831 186.511 173.354 184.902 174.18 183.443L174.613 183.689C174.663 183.602 174.713 183.516 174.765 183.43L174.923 183.174C175.008 183.04 175.097 182.908 175.19 182.778L174.785 182.486C175.467 181.535 176.368 180.663 177.638 179.638L177.952 180.026C178.199 179.827 178.461 179.622 178.738 179.408L178.434 179.014C179.342 178.313 180.412 177.53 181.684 176.605L181.978 177.01C182.112 176.912 182.248 176.813 182.387 176.712L182.794 176.417L182.5 176.012L185.755 173.647L186.049 174.052L186.863 173.46L186.569 173.056L189.824 170.69L190.118 171.096L190.932 170.504L190.638 170.1L193.893 167.734L194.187 168.14L195.001 167.548L194.707 167.144L194.706 167.143L197.962 164.778L198.256 165.183L199.069 164.592L198.775 164.188L202.03 161.821L202.031 161.822L202.324 162.227L203.139 161.636L202.845 161.231L202.844 161.23L206.1 158.866L206.394 159.271L207.207 158.68L206.913 158.274L210.168 155.909L210.169 155.91L210.463 156.314L211.276 155.723L210.982 155.318L214.236 152.953L214.237 152.954L214.531 153.358L215.345 152.767L215.051 152.362L218.307 149.997L218.601 150.402L219.414 149.811L219.12 149.406L222.375 147.041L222.669 147.445L223.482 146.854L223.188 146.45L226.444 144.085L226.738 144.489L227.552 143.898L227.258 143.494L227.257 143.493L230.513 141.129L230.807 141.533L231.62 140.942L231.326 140.537L234.581 138.172L234.582 138.173L234.876 138.577L235.689 137.986L235.396 137.581L238.649 135.216L238.65 135.217L238.944 135.621L239.758 135.029L239.465 134.625L242.72 132.26L243.014 132.665L243.827 132.073L243.533 131.669L246.788 129.304L247.082 129.708L247.896 129.117L247.603 128.713L247.602 128.712L250.857 126.348L251.151 126.752L251.965 126.161L251.671 125.757L251.67 125.756L254.926 123.392L255.22 123.796L256.034 123.205L255.74 122.801L255.739 122.8L258.994 120.435L258.995 120.436L259.289 120.84L260.103 120.249L259.809 119.844L263.063 117.479L263.357 117.884L264.172 117.292L263.878 116.888L267.133 114.522L267.427 114.928L268.24 114.336L267.946 113.932L271.201 111.566L271.495 111.972L272.31 111.38L272.016 110.976L272.015 110.975L275.271 108.61L275.564 109.015L276.378 108.424L276.084 108.02L279.339 105.653L279.34 105.654L279.633 106.059L280.447 105.468L280.153 105.063L280.152 105.062L283.407 102.697L283.408 102.698L283.702 103.103L284.516 102.512L284.222 102.106L287.477 99.7412L287.478 99.7422L287.771 100.146L288.585 99.5547L288.291 99.1504L291.545 96.7852L291.546 96.7861L291.84 97.1904L292.653 96.5986L292.359 96.1943L295.615 93.8291L295.909 94.2344L296.723 93.6426L296.429 93.2383L296.428 93.2373L299.684 90.873L299.978 91.2773L300.791 90.6865L300.497 90.2822L303.752 87.916L303.753 87.917L304.047 88.3213L304.86 87.7305L304.566 87.3262L304.565 87.3252L307.821 84.9609L308.115 85.3652L308.929 84.7744L308.636 84.3691L311.89 82.0039L311.891 82.0049L312.185 82.4092L312.998 81.8184L312.704 81.4131L315.958 79.0479L315.959 79.0488L316.253 79.4531L317.067 78.8613L316.773 78.457L316.772 78.4561L320.028 76.0918L320.322 76.4971L321.136 75.9053L320.842 75.501L324.097 73.1357L324.391 73.54L325.205 72.9492L324.911 72.5449L324.91 72.5439L328.166 70.1797L328.46 70.584L329.273 69.9932L328.979 69.5889L328.979 69.5879L332.234 67.2236L332.528 67.6279L333.343 67.0371L333.049 66.6328L333.048 66.6318L336.303 64.2666L336.304 64.2676L336.598 64.6719L337.411 64.0811L337.117 63.6758L340.371 61.3105L340.372 61.3115L340.666 61.7158L341.073 61.4199C341.212 61.3192 341.348 61.2204 341.482 61.123L341.188 60.7178C342.461 59.7937 343.537 59.0187 344.483 58.3711L344.765 58.7822C345.054 58.5845 345.33 58.3996 345.596 58.2266L345.323 57.8076C346.691 56.9168 347.799 56.3294 348.915 55.9746L349.066 56.4492L349.525 56.3174C349.72 56.2675 349.915 56.2226 350.111 56.1826L350.011 55.6943C351.653 55.3595 353.346 55.3596 354.988 55.6943L354.889 56.1826C355.085 56.2226 355.28 56.2675 355.475 56.3174C355.628 56.3568 355.781 56.4007 355.934 56.4492L356.084 55.9746C357.2 56.3293 358.308 56.9168 359.676 57.8076L359.404 58.2266C359.67 58.3996 359.946 58.5845 360.235 58.7822L360.516 58.3711C361.462 59.0187 362.538 59.7937 363.811 60.7178L363.518 61.123C363.652 61.2204 363.788 61.3192 363.927 61.4199L364.334 61.7158L364.628 61.3115V61.3105L367.882 63.6758L367.589 64.0811L368.402 64.6719L368.696 64.2676V64.2666L371.951 66.6318V66.6328L371.657 67.0371L372.472 67.6279L372.765 67.2236L376.021 69.5879V69.5889L375.727 69.9932L376.54 70.584L376.833 70.1797L380.089 72.5439V72.5449L379.795 72.9492L380.609 73.54L380.902 73.1357L384.157 75.501H384.158L383.864 75.9053L384.678 76.4971L384.971 76.0918L388.227 78.4561V78.457L387.933 78.8613L388.747 79.4531L389.041 79.0488V79.0479L392.295 81.4131L392.002 81.8184L392.815 82.4092L393.109 82.0049V82.0039L396.363 84.3691H396.364L396.071 84.7744L396.885 85.3652L397.178 84.9609L400.434 87.3252V87.3262L400.14 87.7305L400.953 88.3213L401.247 87.917V87.916L404.502 90.2822H404.503L404.209 90.6865L405.022 91.2773L405.315 90.873L408.571 93.2373V93.2383L408.277 93.6426L409.091 94.2344L409.384 93.8291L412.64 96.1943L412.347 96.5986L413.16 97.1904L413.454 96.7861V96.7852L416.708 99.1504H416.709L416.415 99.5547L417.229 100.146L417.522 99.7422V99.7412L420.777 102.106L420.484 102.512L421.298 103.103L421.592 102.698V102.697L424.847 105.062V105.063L424.553 105.468L425.367 106.059L425.66 105.654V105.653L428.915 108.02H428.916L428.622 108.424L429.436 109.015L429.729 108.61L432.984 110.975V110.976L432.69 111.38L433.505 111.972L433.798 111.566L437.053 113.932H437.054L436.76 114.336L437.573 114.928L437.866 114.522L441.121 116.888H441.122L440.828 117.292L441.643 117.884L441.936 117.479L445.19 119.844L444.897 120.249L445.711 120.84L446.005 120.436V120.435L449.26 122.8V122.801L448.966 123.205L449.78 123.796L450.073 123.392L453.329 125.756V125.757L453.035 126.161L453.849 126.752L454.142 126.348L457.397 128.712V128.713L457.104 129.117L457.918 129.708L458.211 129.304L461.466 131.669H461.467L461.173 132.073L461.986 132.665L462.279 132.26L465.534 134.625H465.535L465.241 135.029L466.056 135.621L466.35 135.217V135.216L469.604 137.581L469.311 137.986L470.124 138.577L470.418 138.173V138.172L473.672 140.537H473.673L473.38 140.942L474.193 141.533L474.486 141.129L477.742 143.493V143.494L477.448 143.898L478.262 144.489L478.555 144.085L481.811 146.45H481.812L481.518 146.854L482.331 147.445L482.624 147.041L485.879 149.406H485.88L485.586 149.811L486.399 150.402L486.692 149.997L489.948 152.362L489.655 152.767L490.469 153.358L490.763 152.954V152.953L494.017 155.318L493.724 155.723L494.537 156.314L494.831 155.91V155.909L498.086 158.274L497.793 158.68L498.606 159.271L498.899 158.866L502.155 161.23V161.231L501.861 161.636L502.676 162.227L502.969 161.822V161.821L506.224 164.188H506.225L505.931 164.592L506.744 165.183L507.037 164.778L510.293 167.143V167.144L509.999 167.548L510.813 168.14L511.106 167.734L514.361 170.1L514.068 170.504L514.882 171.096L515.175 170.69L518.43 173.056H518.431L518.137 173.46L518.951 174.052L519.244 173.647Z" stroke="#6C6E6F" stroke-dasharray="1 4"/>
<path d="M232.877 139.604C232.654 139.767 232.606 140.08 232.768 140.303C232.931 140.526 233.244 140.575 233.467 140.412L232.877 139.604ZM283.162 103.936C283.205 103.664 283.018 103.408 282.745 103.365L278.299 102.672C278.026 102.63 277.77 102.817 277.728 103.089C277.685 103.362 277.872 103.618 278.145 103.66L282.097 104.276L281.481 108.229C281.438 108.502 281.625 108.757 281.898 108.8C282.171 108.842 282.427 108.656 282.469 108.383L283.162 103.936ZM233.172 140.008L233.467 140.412L282.963 104.263L282.668 103.859L282.373 103.456L232.877 139.604L233.172 140.008Z" fill="#6C6E6F"/>
<path d="M214.948 322.151C215.033 322.413 215.315 322.557 215.577 322.472C215.84 322.387 215.984 322.105 215.899 321.843L214.948 322.151ZM196.766 263.242C196.521 263.117 196.219 263.214 196.094 263.46L194.047 267.468C193.921 267.714 194.019 268.015 194.265 268.14C194.511 268.266 194.812 268.168 194.938 267.922L196.757 264.36L200.319 266.18C200.565 266.305 200.866 266.208 200.992 265.962C201.118 265.716 201.02 265.415 200.774 265.289L196.766 263.242ZM215.423 321.997L215.899 321.843L197.015 263.533L196.539 263.688L196.063 263.842L214.948 322.151L215.423 321.997Z" fill="#6C6E6F"/>
<path d="M384.646 398.914C384.922 398.914 385.146 398.69 385.146 398.414C385.146 398.138 384.922 397.914 384.646 397.914V398.914ZM323.002 398.061C322.807 398.256 322.807 398.572 323.002 398.768L326.184 401.95C326.379 402.145 326.696 402.145 326.891 401.95C327.086 401.754 327.086 401.438 326.891 401.242L324.063 398.414L326.891 395.586C327.086 395.39 327.086 395.074 326.891 394.879C326.696 394.683 326.379 394.683 326.184 394.879L323.002 398.061ZM384.646 398.414V397.914H323.355V398.414V398.914H384.646V398.414Z" fill="#6C6E6F"/>
<path d="M509.995 260.572C510.08 260.309 509.936 260.027 509.673 259.942C509.411 259.857 509.129 260 509.044 260.263L509.995 260.572ZM490.166 318.946C490.291 319.192 490.593 319.29 490.839 319.164L494.847 317.119C495.093 316.993 495.191 316.692 495.065 316.446C494.94 316.2 494.638 316.103 494.392 316.228L490.829 318.046L489.012 314.483C488.886 314.237 488.585 314.139 488.339 314.265C488.093 314.39 487.995 314.692 488.121 314.938L490.166 318.946ZM509.519 260.417L509.044 260.263L490.136 318.565L490.611 318.719L491.087 318.873L509.995 260.572L509.519 260.417Z" fill="#6C6E6F"/>
<path d="M418.92 102.125C418.696 101.963 418.646 101.651 418.808 101.427C418.97 101.203 419.282 101.153 419.506 101.315L418.92 102.125ZM469.357 137.577C469.401 137.85 469.215 138.106 468.942 138.15L464.499 138.862C464.226 138.906 463.97 138.72 463.926 138.447C463.883 138.175 464.068 137.918 464.341 137.875L468.29 137.242L467.658 133.292C467.614 133.019 467.8 132.763 468.072 132.719C468.345 132.676 468.601 132.861 468.645 133.134L469.357 137.577ZM419.213 101.72L419.506 101.315L469.156 137.251L468.863 137.656L468.57 138.061L418.92 102.125L419.213 101.72Z" fill="#6C6E6F"/>
<rect x="142.6" y="157.1" width="68.801" height="68.801" rx="10.4005" fill="url(#paint2_linear_10157_94306)"/>
<rect x="142.6" y="157.1" width="68.801" height="68.801" rx="10.4005" stroke="url(#paint3_linear_10157_94306)" stroke-width="1.199"/>
<path d="M177 174C178.087 174 179.151 174.323 180.055 174.927C180.96 175.531 181.665 176.39 182.081 177.395C182.497 178.4 182.606 179.506 182.394 180.573C182.182 181.64 181.658 182.62 180.889 183.389C180.119 184.158 179.139 184.682 178.073 184.894C177.006 185.107 175.9 184.998 174.895 184.581C173.89 184.165 173.031 183.46 172.426 182.556C171.822 181.651 171.5 180.588 171.5 179.5C171.5 178.041 172.079 176.642 173.11 175.611C174.142 174.579 175.541 174 177 174ZM188.668 177.514C188.407 177.558 188.173 177.703 188.019 177.919C187.865 178.135 187.803 178.403 187.847 178.665C187.949 179.271 188 179.885 188 180.5C188.002 183.193 187.012 185.792 185.22 187.801C184.492 186.747 183.569 185.843 182.5 185.138C182.408 185.077 182.3 185.048 182.19 185.055C182.081 185.063 181.977 185.105 181.895 185.178C180.536 186.353 178.799 187 177.003 187C175.206 187 173.469 186.353 172.111 185.178C172.028 185.104 171.923 185.06 171.812 185.053C171.701 185.046 171.591 185.075 171.5 185.138C170.429 185.842 169.504 186.746 168.776 187.801C167.369 186.216 166.45 184.258 166.13 182.163C165.809 180.068 166.101 177.925 166.97 175.991C167.838 174.058 169.247 172.417 171.027 171.265C172.806 170.114 174.88 169.501 177 169.5C177.614 169.5 178.228 169.551 178.835 169.653C179.095 169.694 179.361 169.63 179.575 169.476C179.789 169.322 179.933 169.09 179.977 168.83C180.02 168.57 179.959 168.303 179.807 168.088C179.655 167.872 179.424 167.726 179.165 167.68C176.449 167.223 173.658 167.641 171.196 168.874C168.733 170.106 166.726 172.09 165.464 174.537C164.202 176.985 163.75 179.77 164.175 182.491C164.599 185.212 165.877 187.728 167.824 189.675C169.772 191.623 172.287 192.901 175.008 193.325C177.729 193.749 180.515 193.298 182.962 192.036C185.41 190.774 187.393 188.767 188.626 186.304C189.858 183.841 190.276 181.051 189.82 178.335C189.776 178.073 189.63 177.84 189.414 177.686C189.198 177.532 188.93 177.47 188.668 177.514Z" fill="white"/>
<path d="M190.659 169.583L185.66 174.585C185.567 174.678 185.456 174.752 185.335 174.802C185.214 174.853 185.084 174.879 184.952 174.879C184.821 174.879 184.691 174.853 184.569 174.802C184.448 174.752 184.338 174.678 184.245 174.585L181.535 171.875C181.442 171.782 181.369 171.672 181.318 171.55C181.268 171.429 181.242 171.299 181.242 171.167C181.242 171.036 181.268 170.906 181.318 170.785C181.369 170.663 181.442 170.553 181.535 170.46C181.628 170.367 181.738 170.293 181.86 170.243C181.981 170.193 182.111 170.167 182.243 170.167C182.374 170.167 182.504 170.193 182.626 170.243C182.747 170.293 182.857 170.367 182.95 170.46L184.952 172.464L189.244 168.168C189.431 167.98 189.686 167.875 189.951 167.875C190.216 167.875 190.471 167.98 190.659 168.168C190.846 168.356 190.952 168.61 190.952 168.876C190.952 169.141 190.846 169.395 190.659 169.583Z" fill="white"/>
<path d="M157.828 214.5L155.836 211.08H154.516V214.5H153.424V206.136H156.124C156.756 206.136 157.288 206.244 157.72 206.46C158.16 206.676 158.488 206.968 158.704 207.336C158.92 207.704 159.028 208.124 159.028 208.596C159.028 209.172 158.86 209.68 158.524 210.12C158.196 210.56 157.7 210.852 157.036 210.996L159.136 214.5H157.828ZM154.516 210.204H156.124C156.716 210.204 157.16 210.06 157.456 209.772C157.752 209.476 157.9 209.084 157.9 208.596C157.9 208.1 157.752 207.716 157.456 207.444C157.168 207.172 156.724 207.036 156.124 207.036H154.516V210.204ZM166.725 210.96C166.725 211.168 166.713 211.388 166.689 211.62H161.433C161.473 212.268 161.693 212.776 162.093 213.144C162.501 213.504 162.993 213.684 163.569 213.684C164.041 213.684 164.433 213.576 164.745 213.36C165.065 213.136 165.289 212.84 165.417 212.472H166.593C166.417 213.104 166.065 213.62 165.537 214.02C165.009 214.412 164.353 214.608 163.569 214.608C162.945 214.608 162.385 214.468 161.889 214.188C161.401 213.908 161.017 213.512 160.737 213C160.457 212.48 160.317 211.88 160.317 211.2C160.317 210.52 160.453 209.924 160.725 209.412C160.997 208.9 161.377 208.508 161.865 208.236C162.361 207.956 162.929 207.816 163.569 207.816C164.193 207.816 164.745 207.952 165.225 208.224C165.705 208.496 166.073 208.872 166.329 209.352C166.593 209.824 166.725 210.36 166.725 210.96ZM165.597 210.732C165.597 210.316 165.505 209.96 165.321 209.664C165.137 209.36 164.885 209.132 164.565 208.98C164.253 208.82 163.905 208.74 163.521 208.74C162.969 208.74 162.497 208.916 162.105 209.268C161.721 209.62 161.501 210.108 161.445 210.732H165.597ZM167.758 211.2C167.758 210.52 167.894 209.928 168.166 209.424C168.438 208.912 168.814 208.516 169.294 208.236C169.782 207.956 170.338 207.816 170.962 207.816C171.77 207.816 172.434 208.012 172.954 208.404C173.482 208.796 173.83 209.34 173.998 210.036H172.822C172.71 209.636 172.49 209.32 172.162 209.088C171.842 208.856 171.442 208.74 170.962 208.74C170.338 208.74 169.834 208.956 169.45 209.388C169.066 209.812 168.874 210.416 168.874 211.2C168.874 211.992 169.066 212.604 169.45 213.036C169.834 213.468 170.338 213.684 170.962 213.684C171.442 213.684 171.842 213.572 172.162 213.348C172.482 213.124 172.702 212.804 172.822 212.388H173.998C173.822 213.06 173.47 213.6 172.942 214.008C172.414 214.408 171.754 214.608 170.962 214.608C170.338 214.608 169.782 214.468 169.294 214.188C168.814 213.908 168.438 213.512 168.166 213C167.894 212.488 167.758 211.888 167.758 211.2ZM178.323 214.608C177.707 214.608 177.147 214.468 176.643 214.188C176.147 213.908 175.755 213.512 175.467 213C175.187 212.48 175.047 211.88 175.047 211.2C175.047 210.528 175.191 209.936 175.479 209.424C175.775 208.904 176.175 208.508 176.679 208.236C177.183 207.956 177.747 207.816 178.371 207.816C178.995 207.816 179.559 207.956 180.063 208.236C180.567 208.508 180.963 208.9 181.251 209.412C181.547 209.924 181.695 210.52 181.695 211.2C181.695 211.88 181.543 212.48 181.239 213C180.943 213.512 180.539 213.908 180.027 214.188C179.515 214.468 178.947 214.608 178.323 214.608ZM178.323 213.648C178.715 213.648 179.083 213.556 179.427 213.372C179.771 213.188 180.047 212.912 180.255 212.544C180.471 212.176 180.579 211.728 180.579 211.2C180.579 210.672 180.475 210.224 180.267 209.856C180.059 209.488 179.787 209.216 179.451 209.04C179.115 208.856 178.751 208.764 178.359 208.764C177.959 208.764 177.591 208.856 177.255 209.04C176.927 209.216 176.663 209.488 176.463 209.856C176.263 210.224 176.163 210.672 176.163 211.2C176.163 211.736 176.259 212.188 176.451 212.556C176.651 212.924 176.915 213.2 177.243 213.384C177.571 213.56 177.931 213.648 178.323 213.648ZM185.579 213.492L187.619 207.924H188.783L186.203 214.5H184.931L182.351 207.924H183.527L185.579 213.492ZM195.858 210.96C195.858 211.168 195.846 211.388 195.822 211.62H190.566C190.606 212.268 190.826 212.776 191.226 213.144C191.634 213.504 192.126 213.684 192.702 213.684C193.174 213.684 193.566 213.576 193.878 213.36C194.198 213.136 194.422 212.84 194.55 212.472H195.726C195.55 213.104 195.198 213.62 194.67 214.02C194.142 214.412 193.486 214.608 192.702 214.608C192.078 214.608 191.518 214.468 191.022 214.188C190.534 213.908 190.15 213.512 189.87 213C189.59 212.48 189.45 211.88 189.45 211.2C189.45 210.52 189.586 209.924 189.858 209.412C190.13 208.9 190.51 208.508 190.998 208.236C191.494 207.956 192.062 207.816 192.702 207.816C193.326 207.816 193.878 207.952 194.358 208.224C194.838 208.496 195.206 208.872 195.462 209.352C195.726 209.824 195.858 210.36 195.858 210.96ZM194.73 210.732C194.73 210.316 194.638 209.96 194.454 209.664C194.27 209.36 194.018 209.132 193.698 208.98C193.386 208.82 193.038 208.74 192.654 208.74C192.102 208.74 191.63 208.916 191.238 209.268C190.854 209.62 190.634 210.108 190.578 210.732H194.73ZM198.391 208.992C198.583 208.616 198.855 208.324 199.207 208.116C199.567 207.908 200.003 207.804 200.515 207.804V208.932H200.227C199.003 208.932 198.391 209.596 198.391 210.924V214.5H197.299V207.924H198.391V208.992Z" fill="#E2E2E2"/>
<rect x="319.6" y="39.0995" width="68.801" height="68.801" rx="10.4005" fill="url(#paint4_linear_10157_94306)"/>
<rect x="319.6" y="39.0995" width="68.801" height="68.801" rx="10.4005" stroke="url(#paint5_linear_10157_94306)" stroke-width="1.199"/>
<path d="M368.914 62.095C368.87 61.9963 367.811 59.6475 365.457 57.2937C362.321 54.1575 358.36 52.5 354 52.5C349.64 52.5 345.679 54.1575 342.542 57.2937C340.189 59.6475 339.125 62 339.086 62.095C339.029 62.2229 339 62.3613 339 62.5012C339 62.6412 339.029 62.7796 339.086 62.9075C339.13 63.0062 340.189 65.3538 342.542 67.7075C345.679 70.8425 349.64 72.5 354 72.5C358.36 72.5 362.321 70.8425 365.457 67.7075C367.811 65.3538 368.87 63.0062 368.914 62.9075C368.971 62.7796 369 62.6412 369 62.5012C369 62.3613 368.971 62.2229 368.914 62.095ZM354 67.5C353.011 67.5 352.044 67.2068 351.222 66.6573C350.4 66.1079 349.759 65.327 349.381 64.4134C349.002 63.4998 348.903 62.4945 349.096 61.5245C349.289 60.5546 349.765 59.6637 350.464 58.9645C351.164 58.2652 352.055 57.789 353.025 57.5961C353.994 57.4031 355 57.5022 355.913 57.8806C356.827 58.259 357.608 58.8999 358.157 59.7221C358.707 60.5444 359 61.5111 359 62.5C359 63.8261 358.473 65.0979 357.536 66.0355C356.598 66.9732 355.326 67.5 354 67.5Z" fill="white"/>
<path d="M333.516 88.136V96.5H332.424V88.136H333.516ZM334.969 93.188C334.969 92.516 335.105 91.928 335.377 91.424C335.649 90.912 336.021 90.516 336.493 90.236C336.973 89.956 337.509 89.816 338.101 89.816C338.613 89.816 339.089 89.936 339.529 90.176C339.969 90.408 340.305 90.716 340.537 91.1V87.62H341.641V96.5H340.537V95.264C340.321 95.656 340.001 95.98 339.577 96.236C339.153 96.484 338.657 96.608 338.089 96.608C337.505 96.608 336.973 96.464 336.493 96.176C336.021 95.888 335.649 95.484 335.377 94.964C335.105 94.444 334.969 93.852 334.969 93.188ZM340.537 93.2C340.537 92.704 340.437 92.272 340.237 91.904C340.037 91.536 339.765 91.256 339.421 91.064C339.085 90.864 338.713 90.764 338.305 90.764C337.897 90.764 337.525 90.86 337.189 91.052C336.853 91.244 336.585 91.524 336.385 91.892C336.185 92.26 336.085 92.692 336.085 93.188C336.085 93.692 336.185 94.132 336.385 94.508C336.585 94.876 336.853 95.16 337.189 95.36C337.525 95.552 337.897 95.648 338.305 95.648C338.713 95.648 339.085 95.552 339.421 95.36C339.765 95.16 340.037 94.876 340.237 94.508C340.437 94.132 340.537 93.696 340.537 93.2ZM349.487 92.96C349.487 93.168 349.475 93.388 349.451 93.62H344.195C344.235 94.268 344.455 94.776 344.855 95.144C345.263 95.504 345.755 95.684 346.331 95.684C346.803 95.684 347.195 95.576 347.507 95.36C347.827 95.136 348.051 94.84 348.179 94.472H349.355C349.179 95.104 348.827 95.62 348.299 96.02C347.771 96.412 347.115 96.608 346.331 96.608C345.707 96.608 345.147 96.468 344.651 96.188C344.163 95.908 343.779 95.512 343.499 95C343.219 94.48 343.079 93.88 343.079 93.2C343.079 92.52 343.215 91.924 343.487 91.412C343.759 90.9 344.139 90.508 344.627 90.236C345.123 89.956 345.691 89.816 346.331 89.816C346.955 89.816 347.507 89.952 347.987 90.224C348.467 90.496 348.835 90.872 349.091 91.352C349.355 91.824 349.487 92.36 349.487 92.96ZM348.359 92.732C348.359 92.316 348.267 91.96 348.083 91.664C347.899 91.36 347.647 91.132 347.327 90.98C347.015 90.82 346.667 90.74 346.283 90.74C345.731 90.74 345.259 90.916 344.867 91.268C344.483 91.62 344.263 92.108 344.207 92.732H348.359ZM354.132 89.804C354.932 89.804 355.58 90.048 356.076 90.536C356.572 91.016 356.82 91.712 356.82 92.624V96.5H355.74V92.78C355.74 92.124 355.576 91.624 355.248 91.28C354.92 90.928 354.472 90.752 353.904 90.752C353.328 90.752 352.868 90.932 352.524 91.292C352.188 91.652 352.02 92.176 352.02 92.864V96.5H350.928V89.924H352.02V90.86C352.236 90.524 352.528 90.264 352.896 90.08C353.272 89.896 353.684 89.804 354.132 89.804ZM359.936 90.824V94.7C359.936 95.02 360.004 95.248 360.14 95.384C360.276 95.512 360.512 95.576 360.848 95.576H361.652V96.5H360.668C360.06 96.5 359.604 96.36 359.3 96.08C358.996 95.8 358.844 95.34 358.844 94.7V90.824H357.992V89.924H358.844V88.268H359.936V89.924H361.652V90.824H359.936ZM363.539 88.856C363.331 88.856 363.155 88.784 363.011 88.64C362.867 88.496 362.795 88.32 362.795 88.112C362.795 87.904 362.867 87.728 363.011 87.584C363.155 87.44 363.331 87.368 363.539 87.368C363.739 87.368 363.907 87.44 364.043 87.584C364.187 87.728 364.259 87.904 364.259 88.112C364.259 88.32 364.187 88.496 364.043 88.64C363.907 88.784 363.739 88.856 363.539 88.856ZM364.067 89.924V96.5H362.975V89.924H364.067ZM368.604 90.824H367.224V96.5H366.132V90.824H365.28V89.924H366.132V89.456C366.132 88.72 366.32 88.184 366.696 87.848C367.08 87.504 367.692 87.332 368.532 87.332V88.244C368.052 88.244 367.712 88.34 367.512 88.532C367.32 88.716 367.224 89.024 367.224 89.456V89.924H368.604V90.824ZM375.541 89.924L371.581 99.596H370.453L371.749 96.428L369.097 89.924H370.309L372.373 95.252L374.413 89.924H375.541Z" fill="#E2E2E2"/>
<rect x="496.6" y="157.1" width="68.801" height="68.801" rx="10.4005" fill="url(#paint6_linear_10157_94306)"/>
<rect x="496.6" y="157.1" width="68.801" height="68.801" rx="10.4005" stroke="url(#paint7_linear_10157_94306)" stroke-width="1.199"/>
<path d="M541 168.5H521C520.47 168.5 519.961 168.711 519.586 169.086C519.211 169.461 519 169.97 519 170.5V177.846C519 189.048 528.477 192.764 530.375 193.395C530.78 193.533 531.22 193.533 531.625 193.395C533.525 192.764 543 189.048 543 177.846V170.5C543 169.97 542.789 169.461 542.414 169.086C542.039 168.711 541.53 168.5 541 168.5ZM536.708 177.208L529.708 184.208C529.615 184.3 529.504 184.374 529.383 184.425C529.262 184.475 529.131 184.501 529 184.501C528.869 184.501 528.738 184.475 528.617 184.425C528.496 184.374 528.385 184.3 528.292 184.208L525.292 181.208C525.105 181.02 524.999 180.765 524.999 180.5C524.999 180.235 525.105 179.98 525.292 179.792C525.48 179.605 525.735 179.499 526 179.499C526.265 179.499 526.52 179.605 526.708 179.792L529 182.085L535.292 175.792C535.385 175.7 535.496 175.626 535.617 175.576C535.738 175.525 535.869 175.499 536 175.499C536.131 175.499 536.262 175.525 536.383 175.576C536.504 175.626 536.615 175.7 536.708 175.792C536.8 175.885 536.874 175.996 536.924 176.117C536.975 176.238 537.001 176.369 537.001 176.5C537.001 176.631 536.975 176.762 536.924 176.883C536.874 177.004 536.8 177.115 536.708 177.208Z" fill="white"/>
<path d="M516.016 208.584C516.016 209.28 515.776 209.86 515.296 210.324C514.824 210.78 514.1 211.008 513.124 211.008H511.516V214.5H510.424V206.136H513.124C514.068 206.136 514.784 206.364 515.272 206.82C515.768 207.276 516.016 207.864 516.016 208.584ZM513.124 210.108C513.732 210.108 514.18 209.976 514.468 209.712C514.756 209.448 514.9 209.072 514.9 208.584C514.9 207.552 514.308 207.036 513.124 207.036H511.516V210.108H513.124ZM518.465 208.992C518.657 208.616 518.929 208.324 519.281 208.116C519.641 207.908 520.077 207.804 520.589 207.804V208.932H520.301C519.077 208.932 518.465 209.596 518.465 210.924V214.5H517.373V207.924H518.465V208.992ZM524.718 214.608C524.102 214.608 523.542 214.468 523.038 214.188C522.542 213.908 522.15 213.512 521.862 213C521.582 212.48 521.442 211.88 521.442 211.2C521.442 210.528 521.586 209.936 521.874 209.424C522.17 208.904 522.57 208.508 523.074 208.236C523.578 207.956 524.142 207.816 524.766 207.816C525.39 207.816 525.954 207.956 526.458 208.236C526.962 208.508 527.358 208.9 527.646 209.412C527.942 209.924 528.09 210.52 528.09 211.2C528.09 211.88 527.938 212.48 527.634 213C527.338 213.512 526.934 213.908 526.422 214.188C525.91 214.468 525.342 214.608 524.718 214.608ZM524.718 213.648C525.11 213.648 525.478 213.556 525.822 213.372C526.166 213.188 526.442 212.912 526.65 212.544C526.866 212.176 526.974 211.728 526.974 211.2C526.974 210.672 526.87 210.224 526.662 209.856C526.454 209.488 526.182 209.216 525.846 209.04C525.51 208.856 525.146 208.764 524.754 208.764C524.354 208.764 523.986 208.856 523.65 209.04C523.322 209.216 523.058 209.488 522.858 209.856C522.658 210.224 522.558 210.672 522.558 211.2C522.558 211.736 522.654 212.188 522.846 212.556C523.046 212.924 523.31 213.2 523.638 213.384C523.966 213.56 524.326 213.648 524.718 213.648ZM530.858 208.824V212.7C530.858 213.02 530.926 213.248 531.062 213.384C531.198 213.512 531.434 213.576 531.77 213.576H532.574V214.5H531.59C530.982 214.5 530.526 214.36 530.222 214.08C529.918 213.8 529.766 213.34 529.766 212.7V208.824H528.914V207.924H529.766V206.268H530.858V207.924H532.574V208.824H530.858ZM539.897 210.96C539.897 211.168 539.885 211.388 539.861 211.62H534.605C534.645 212.268 534.865 212.776 535.265 213.144C535.673 213.504 536.165 213.684 536.741 213.684C537.213 213.684 537.605 213.576 537.917 213.36C538.237 213.136 538.461 212.84 538.589 212.472H539.765C539.589 213.104 539.237 213.62 538.709 214.02C538.181 214.412 537.525 214.608 536.741 214.608C536.117 214.608 535.557 214.468 535.061 214.188C534.573 213.908 534.189 213.512 533.909 213C533.629 212.48 533.489 211.88 533.489 211.2C533.489 210.52 533.625 209.924 533.897 209.412C534.169 208.9 534.549 208.508 535.037 208.236C535.533 207.956 536.101 207.816 536.741 207.816C537.365 207.816 537.917 207.952 538.397 208.224C538.877 208.496 539.245 208.872 539.501 209.352C539.765 209.824 539.897 210.36 539.897 210.96ZM538.769 210.732C538.769 210.316 538.677 209.96 538.493 209.664C538.309 209.36 538.057 209.132 537.737 208.98C537.425 208.82 537.077 208.74 536.693 208.74C536.141 208.74 535.669 208.916 535.277 209.268C534.893 209.62 534.673 210.108 534.617 210.732H538.769ZM540.93 211.2C540.93 210.52 541.066 209.928 541.338 209.424C541.61 208.912 541.986 208.516 542.466 208.236C542.954 207.956 543.51 207.816 544.134 207.816C544.942 207.816 545.606 208.012 546.126 208.404C546.654 208.796 547.002 209.34 547.17 210.036H545.994C545.882 209.636 545.662 209.32 545.334 209.088C545.014 208.856 544.614 208.74 544.134 208.74C543.51 208.74 543.006 208.956 542.622 209.388C542.238 209.812 542.046 210.416 542.046 211.2C542.046 211.992 542.238 212.604 542.622 213.036C543.006 213.468 543.51 213.684 544.134 213.684C544.614 213.684 545.014 213.572 545.334 213.348C545.654 213.124 545.874 212.804 545.994 212.388H547.17C546.994 213.06 546.642 213.6 546.114 214.008C545.586 214.408 544.926 214.608 544.134 214.608C543.51 214.608 542.954 214.468 542.466 214.188C541.986 213.908 541.61 213.512 541.338 213C541.066 212.488 540.93 211.888 540.93 211.2ZM549.959 208.824V212.7C549.959 213.02 550.027 213.248 550.163 213.384C550.299 213.512 550.535 213.576 550.871 213.576H551.675V214.5H550.691C550.083 214.5 549.627 214.36 549.323 214.08C549.019 213.8 548.867 213.34 548.867 212.7V208.824H548.015V207.924H548.867V206.268H549.959V207.924H551.675V208.824H549.959Z" fill="#E2E2E2"/>
<rect x="429.6" y="359.1" width="68.801" height="68.801" rx="10.4005" fill="url(#paint8_linear_10157_94306)"/>
<rect x="429.6" y="359.1" width="68.801" height="68.801" rx="10.4005" stroke="url(#paint9_linear_10157_94306)" stroke-width="1.199"/>
<path d="M474 370.5C474.796 370.5 475.558 370.816 476.121 371.379C476.684 371.942 477 372.704 477 373.5V387.5C477 388.296 476.684 389.058 476.121 389.621C475.558 390.184 474.796 390.5 474 390.5H465V392.5H468C468.265 392.5 468.519 392.605 468.707 392.793C468.895 392.981 469 393.235 469 393.5C469 393.765 468.895 394.019 468.707 394.207C468.519 394.395 468.265 394.5 468 394.5H460C459.735 394.5 459.481 394.395 459.293 394.207C459.105 394.019 459 393.765 459 393.5C459 393.235 459.105 392.981 459.293 392.793C459.481 392.605 459.735 392.5 460 392.5H463V390.5H454C453.204 390.5 452.442 390.184 451.879 389.621C451.316 389.058 451 388.296 451 387.5V373.5C451 372.704 451.316 371.942 451.879 371.379C452.442 370.816 453.204 370.5 454 370.5H474ZM453 385.5V387.5C453 387.765 453.105 388.019 453.293 388.207C453.481 388.395 453.735 388.5 454 388.5H474C474.265 388.5 474.519 388.395 474.707 388.207C474.895 388.019 475 387.765 475 387.5V385.5H453ZM468.576 374.664C468.311 374.664 468.056 374.769 467.868 374.957L463.577 379.253L461.575 377.249C461.482 377.156 461.372 377.082 461.251 377.032C461.13 376.982 460.999 376.956 460.868 376.956C460.737 376.956 460.606 376.982 460.484 377.032C460.363 377.083 460.253 377.156 460.16 377.249C460.067 377.342 459.994 377.452 459.943 377.573C459.893 377.695 459.867 377.826 459.867 377.957C459.867 378.088 459.893 378.219 459.943 378.34C459.994 378.461 460.067 378.571 460.16 378.664L462.87 381.374C462.963 381.467 463.073 381.541 463.194 381.592C463.316 381.642 463.446 381.668 463.577 381.668C463.708 381.668 463.839 381.642 463.96 381.592C464.081 381.541 464.191 381.467 464.284 381.374L469.283 376.372C469.471 376.185 469.576 375.93 469.576 375.665C469.576 375.4 469.471 375.145 469.283 374.957C469.096 374.77 468.841 374.664 468.576 374.664Z" fill="white"/>
<path d="M447.528 408.136C448.44 408.136 449.228 408.308 449.892 408.652C450.564 408.988 451.076 409.472 451.428 410.104C451.788 410.736 451.968 411.48 451.968 412.336C451.968 413.192 451.788 413.936 451.428 414.568C451.076 415.192 450.564 415.672 449.892 416.008C449.228 416.336 448.44 416.5 447.528 416.5H444.924V408.136H447.528ZM447.528 415.6C448.608 415.6 449.432 415.316 450 414.748C450.568 414.172 450.852 413.368 450.852 412.336C450.852 411.296 450.564 410.484 449.988 409.9C449.42 409.316 448.6 409.024 447.528 409.024H446.016V415.6H447.528ZM459.408 412.96C459.408 413.168 459.396 413.388 459.372 413.62H454.116C454.156 414.268 454.376 414.776 454.776 415.144C455.184 415.504 455.676 415.684 456.252 415.684C456.724 415.684 457.116 415.576 457.428 415.36C457.748 415.136 457.972 414.84 458.1 414.472H459.276C459.1 415.104 458.748 415.62 458.22 416.02C457.692 416.412 457.036 416.608 456.252 416.608C455.628 416.608 455.068 416.468 454.572 416.188C454.084 415.908 453.7 415.512 453.42 415C453.14 414.48 453 413.88 453 413.2C453 412.52 453.136 411.924 453.408 411.412C453.68 410.9 454.06 410.508 454.548 410.236C455.044 409.956 455.612 409.816 456.252 409.816C456.876 409.816 457.428 409.952 457.908 410.224C458.388 410.496 458.756 410.872 459.012 411.352C459.276 411.824 459.408 412.36 459.408 412.96ZM458.28 412.732C458.28 412.316 458.188 411.96 458.004 411.664C457.82 411.36 457.568 411.132 457.248 410.98C456.936 410.82 456.588 410.74 456.204 410.74C455.652 410.74 455.18 410.916 454.788 411.268C454.404 411.62 454.184 412.108 454.128 412.732H458.28ZM462.182 410.824V414.7C462.182 415.02 462.25 415.248 462.386 415.384C462.522 415.512 462.758 415.576 463.094 415.576H463.898V416.5H462.914C462.306 416.5 461.85 416.36 461.546 416.08C461.242 415.8 461.09 415.34 461.09 414.7V410.824H460.238V409.924H461.09V408.268H462.182V409.924H463.898V410.824H462.182ZM471.221 412.96C471.221 413.168 471.209 413.388 471.185 413.62H465.929C465.969 414.268 466.189 414.776 466.589 415.144C466.997 415.504 467.489 415.684 468.065 415.684C468.537 415.684 468.929 415.576 469.241 415.36C469.561 415.136 469.785 414.84 469.913 414.472H471.089C470.913 415.104 470.561 415.62 470.033 416.02C469.505 416.412 468.849 416.608 468.065 416.608C467.441 416.608 466.881 416.468 466.385 416.188C465.897 415.908 465.513 415.512 465.233 415C464.953 414.48 464.813 413.88 464.813 413.2C464.813 412.52 464.949 411.924 465.221 411.412C465.493 410.9 465.873 410.508 466.361 410.236C466.857 409.956 467.425 409.816 468.065 409.816C468.689 409.816 469.241 409.952 469.721 410.224C470.201 410.496 470.569 410.872 470.825 411.352C471.089 411.824 471.221 412.36 471.221 412.96ZM470.093 412.732C470.093 412.316 470.001 411.96 469.817 411.664C469.633 411.36 469.381 411.132 469.061 410.98C468.749 410.82 468.401 410.74 468.017 410.74C467.465 410.74 466.993 410.916 466.601 411.268C466.217 411.62 465.997 412.108 465.941 412.732H470.093ZM472.254 413.2C472.254 412.52 472.39 411.928 472.662 411.424C472.934 410.912 473.31 410.516 473.79 410.236C474.278 409.956 474.834 409.816 475.458 409.816C476.266 409.816 476.93 410.012 477.45 410.404C477.978 410.796 478.326 411.34 478.494 412.036H477.318C477.206 411.636 476.986 411.32 476.658 411.088C476.338 410.856 475.938 410.74 475.458 410.74C474.834 410.74 474.33 410.956 473.946 411.388C473.562 411.812 473.37 412.416 473.37 413.2C473.37 413.992 473.562 414.604 473.946 415.036C474.33 415.468 474.834 415.684 475.458 415.684C475.938 415.684 476.338 415.572 476.658 415.348C476.978 415.124 477.198 414.804 477.318 414.388H478.494C478.318 415.06 477.966 415.6 477.438 416.008C476.91 416.408 476.25 416.608 475.458 416.608C474.834 416.608 474.278 416.468 473.79 416.188C473.31 415.908 472.934 415.512 472.662 415C472.39 414.488 472.254 413.888 472.254 413.2ZM481.283 410.824V414.7C481.283 415.02 481.351 415.248 481.487 415.384C481.623 415.512 481.859 415.576 482.195 415.576H482.999V416.5H482.015C481.407 416.5 480.951 416.36 480.647 416.08C480.343 415.8 480.191 415.34 480.191 414.7V410.824H479.339V409.924H480.191V408.268H481.283V409.924H482.999V410.824H481.283Z" fill="#E2E2E2"/>
<rect x="215.6" y="359.1" width="68.801" height="68.801" rx="10.4005" fill="url(#paint10_linear_10157_94306)"/>
<rect x="215.6" y="359.1" width="68.801" height="68.801" rx="10.4005" stroke="url(#paint11_linear_10157_94306)" stroke-width="1.199"/>
<path d="M263 378.5C263 377.97 262.789 377.461 262.414 377.086C262.039 376.711 261.53 376.5 261 376.5H257V372.5C257 371.97 256.789 371.461 256.414 371.086C256.039 370.711 255.53 370.5 255 370.5H239C238.47 370.5 237.961 370.711 237.586 371.086C237.211 371.461 237 371.97 237 372.5V388.5C237.001 388.688 237.054 388.872 237.155 389.031C237.255 389.19 237.399 389.318 237.568 389.399C237.738 389.48 237.927 389.512 238.114 389.49C238.301 389.469 238.478 389.395 238.625 389.278L243 385.75V389.5C243 390.03 243.211 390.539 243.586 390.914C243.961 391.289 244.47 391.5 245 391.5H256.699L261.375 395.278C261.552 395.421 261.772 395.499 262 395.5C262.265 395.5 262.52 395.395 262.707 395.207C262.895 395.02 263 394.765 263 394.5V378.5ZM257.681 389.722C257.504 389.579 257.284 389.501 257.056 389.5H245V385.5H255C255.53 385.5 256.039 385.289 256.414 384.914C256.789 384.539 257 384.03 257 383.5V378.5H261V392.406L257.681 389.722Z" fill="white"/>
<path d="M228.828 416.5L226.836 413.08H225.516V416.5H224.424V408.136H227.124C227.756 408.136 228.288 408.244 228.72 408.46C229.16 408.676 229.488 408.968 229.704 409.336C229.92 409.704 230.028 410.124 230.028 410.596C230.028 411.172 229.86 411.68 229.524 412.12C229.196 412.56 228.7 412.852 228.036 412.996L230.136 416.5H228.828ZM225.516 412.204H227.124C227.716 412.204 228.16 412.06 228.456 411.772C228.752 411.476 228.9 411.084 228.9 410.596C228.9 410.1 228.752 409.716 228.456 409.444C228.168 409.172 227.724 409.036 227.124 409.036H225.516V412.204ZM237.725 412.96C237.725 413.168 237.713 413.388 237.689 413.62H232.433C232.473 414.268 232.693 414.776 233.093 415.144C233.501 415.504 233.993 415.684 234.569 415.684C235.041 415.684 235.433 415.576 235.745 415.36C236.065 415.136 236.289 414.84 236.417 414.472H237.593C237.417 415.104 237.065 415.62 236.537 416.02C236.009 416.412 235.353 416.608 234.569 416.608C233.945 416.608 233.385 416.468 232.889 416.188C232.401 415.908 232.017 415.512 231.737 415C231.457 414.48 231.317 413.88 231.317 413.2C231.317 412.52 231.453 411.924 231.725 411.412C231.997 410.9 232.377 410.508 232.865 410.236C233.361 409.956 233.929 409.816 234.569 409.816C235.193 409.816 235.745 409.952 236.225 410.224C236.705 410.496 237.073 410.872 237.329 411.352C237.593 411.824 237.725 412.36 237.725 412.96ZM236.597 412.732C236.597 412.316 236.505 411.96 236.321 411.664C236.137 411.36 235.885 411.132 235.565 410.98C235.253 410.82 234.905 410.74 234.521 410.74C233.969 410.74 233.497 410.916 233.105 411.268C232.721 411.62 232.501 412.108 232.445 412.732H236.597ZM241.494 416.608C240.99 416.608 240.538 416.524 240.138 416.356C239.738 416.18 239.422 415.94 239.19 415.636C238.958 415.324 238.83 414.968 238.806 414.568H239.934C239.966 414.896 240.118 415.164 240.39 415.372C240.67 415.58 241.034 415.684 241.482 415.684C241.898 415.684 242.226 415.592 242.466 415.408C242.706 415.224 242.826 414.992 242.826 414.712C242.826 414.424 242.698 414.212 242.442 414.076C242.186 413.932 241.79 413.792 241.254 413.656C240.766 413.528 240.366 413.4 240.054 413.272C239.75 413.136 239.486 412.94 239.262 412.684C239.046 412.42 238.938 412.076 238.938 411.652C238.938 411.316 239.038 411.008 239.238 410.728C239.438 410.448 239.722 410.228 240.09 410.068C240.458 409.9 240.878 409.816 241.35 409.816C242.078 409.816 242.666 410 243.114 410.368C243.562 410.736 243.802 411.24 243.834 411.88H242.742C242.718 411.536 242.578 411.26 242.322 411.052C242.074 410.844 241.738 410.74 241.314 410.74C240.922 410.74 240.61 410.824 240.378 410.992C240.146 411.16 240.03 411.38 240.03 411.652C240.03 411.868 240.098 412.048 240.234 412.192C240.378 412.328 240.554 412.44 240.762 412.528C240.978 412.608 241.274 412.7 241.65 412.804C242.122 412.932 242.506 413.06 242.802 413.188C243.098 413.308 243.35 413.492 243.558 413.74C243.774 413.988 243.886 414.312 243.894 414.712C243.894 415.072 243.794 415.396 243.594 415.684C243.394 415.972 243.11 416.2 242.742 416.368C242.382 416.528 241.966 416.608 241.494 416.608ZM246.528 411.136C246.744 410.76 247.064 410.448 247.488 410.2C247.92 409.944 248.42 409.816 248.988 409.816C249.572 409.816 250.1 409.956 250.572 410.236C251.052 410.516 251.428 410.912 251.7 411.424C251.972 411.928 252.108 412.516 252.108 413.188C252.108 413.852 251.972 414.444 251.7 414.964C251.428 415.484 251.052 415.888 250.572 416.176C250.1 416.464 249.572 416.608 248.988 416.608C248.428 416.608 247.932 416.484 247.5 416.236C247.076 415.98 246.752 415.664 246.528 415.288V419.62H245.436V409.924H246.528V411.136ZM250.992 413.188C250.992 412.692 250.892 412.26 250.692 411.892C250.492 411.524 250.22 411.244 249.876 411.052C249.54 410.86 249.168 410.764 248.76 410.764C248.36 410.764 247.988 410.864 247.644 411.064C247.308 411.256 247.036 411.54 246.828 411.916C246.628 412.284 246.528 412.712 246.528 413.2C246.528 413.696 246.628 414.132 246.828 414.508C247.036 414.876 247.308 415.16 247.644 415.36C247.988 415.552 248.36 415.648 248.76 415.648C249.168 415.648 249.54 415.552 249.876 415.36C250.22 415.16 250.492 414.876 250.692 414.508C250.892 414.132 250.992 413.692 250.992 413.188ZM256.413 416.608C255.797 416.608 255.237 416.468 254.733 416.188C254.237 415.908 253.845 415.512 253.557 415C253.277 414.48 253.137 413.88 253.137 413.2C253.137 412.528 253.281 411.936 253.569 411.424C253.865 410.904 254.265 410.508 254.769 410.236C255.273 409.956 255.837 409.816 256.461 409.816C257.085 409.816 257.649 409.956 258.153 410.236C258.657 410.508 259.053 410.9 259.341 411.412C259.637 411.924 259.785 412.52 259.785 413.2C259.785 413.88 259.633 414.48 259.329 415C259.033 415.512 258.629 415.908 258.117 416.188C257.605 416.468 257.037 416.608 256.413 416.608ZM256.413 415.648C256.805 415.648 257.173 415.556 257.517 415.372C257.861 415.188 258.137 414.912 258.345 414.544C258.561 414.176 258.669 413.728 258.669 413.2C258.669 412.672 258.565 412.224 258.357 411.856C258.149 411.488 257.877 411.216 257.541 411.04C257.205 410.856 256.841 410.764 256.449 410.764C256.049 410.764 255.681 410.856 255.345 411.04C255.017 411.216 254.753 411.488 254.553 411.856C254.353 412.224 254.253 412.672 254.253 413.2C254.253 413.736 254.349 414.188 254.541 414.556C254.741 414.924 255.005 415.2 255.333 415.384C255.661 415.56 256.021 415.648 256.413 415.648ZM264.425 409.804C265.225 409.804 265.873 410.048 266.369 410.536C266.865 411.016 267.113 411.712 267.113 412.624V416.5H266.033V412.78C266.033 412.124 265.869 411.624 265.541 411.28C265.213 410.928 264.765 410.752 264.197 410.752C263.621 410.752 263.161 410.932 262.817 411.292C262.481 411.652 262.313 412.176 262.313 412.864V416.5H261.221V409.924H262.313V410.86C262.529 410.524 262.821 410.264 263.189 410.08C263.565 409.896 263.977 409.804 264.425 409.804ZM268.489 413.188C268.489 412.516 268.625 411.928 268.897 411.424C269.169 410.912 269.541 410.516 270.013 410.236C270.493 409.956 271.029 409.816 271.621 409.816C272.133 409.816 272.609 409.936 273.049 410.176C273.489 410.408 273.825 410.716 274.057 411.1V407.62H275.161V416.5H274.057V415.264C273.841 415.656 273.521 415.98 273.097 416.236C272.673 416.484 272.177 416.608 271.609 416.608C271.025 416.608 270.493 416.464 270.013 416.176C269.541 415.888 269.169 415.484 268.897 414.964C268.625 414.444 268.489 413.852 268.489 413.188ZM274.057 413.2C274.057 412.704 273.957 412.272 273.757 411.904C273.557 411.536 273.285 411.256 272.941 411.064C272.605 410.864 272.233 410.764 271.825 410.764C271.417 410.764 271.045 410.86 270.709 411.052C270.373 411.244 270.105 411.524 269.905 411.892C269.705 412.26 269.605 412.692 269.605 413.188C269.605 413.692 269.705 414.132 269.905 414.508C270.105 414.876 270.373 415.16 270.709 415.36C271.045 415.552 271.417 415.648 271.825 415.648C272.233 415.648 272.605 415.552 272.941 415.36C273.285 415.16 273.557 414.876 273.757 414.508C273.957 414.132 274.057 413.696 274.057 413.2Z" fill="#E2E2E2"/>
</g>
<rect x="0.5" y="0.5" width="707" height="469" rx="15.5" stroke="url(#paint12_linear_10157_94306)" stroke-opacity="0.47"/>
<defs>
<linearGradient id="paint0_linear_10157_94306" x1="354" y1="0" x2="354" y2="470" gradientUnits="userSpaceOnUse">
<stop stop-color="#161C20"/>
<stop offset="1" stop-color="#0A0D0F"/>
</linearGradient>
<radialGradient id="paint1_radial_10157_94306" cx="0" cy="0" r="1" gradientUnits="userSpaceOnUse" gradientTransform="translate(358.5 233.5) rotate(90) scale(244.5 438.479)">
<stop stop-color="#D9D9D9" stop-opacity="0.3"/>
<stop offset="1" stop-color="#737373"/>
</radialGradient>
<linearGradient id="paint2_linear_10157_94306" x1="177" y1="156.5" x2="177" y2="226.5" gradientUnits="userSpaceOnUse">
<stop stop-color="#161C20"/>
<stop offset="1" stop-color="#0A0D0F"/>
</linearGradient>
<linearGradient id="paint3_linear_10157_94306" x1="177" y1="191.477" x2="177" y2="226.5" gradientUnits="userSpaceOnUse">
<stop stop-color="#3B3D3F" stop-opacity="0.5"/>
<stop offset="1" stop-color="#3B3D3F" stop-opacity="0.89"/>
</linearGradient>
<linearGradient id="paint4_linear_10157_94306" x1="354" y1="38.5" x2="354" y2="108.5" gradientUnits="userSpaceOnUse">
<stop stop-color="#161C20"/>
<stop offset="1" stop-color="#0A0D0F"/>
</linearGradient>
<linearGradient id="paint5_linear_10157_94306" x1="354" y1="73.4765" x2="354" y2="108.5" gradientUnits="userSpaceOnUse">
<stop stop-color="#3B3D3F" stop-opacity="0.5"/>
<stop offset="1" stop-color="#3B3D3F" stop-opacity="0.89"/>
</linearGradient>
<linearGradient id="paint6_linear_10157_94306" x1="531" y1="156.5" x2="531" y2="226.5" gradientUnits="userSpaceOnUse">
<stop stop-color="#161C20"/>
<stop offset="1" stop-color="#0A0D0F"/>
</linearGradient>
<linearGradient id="paint7_linear_10157_94306" x1="531" y1="191.477" x2="531" y2="226.5" gradientUnits="userSpaceOnUse">
<stop stop-color="#3B3D3F" stop-opacity="0.5"/>
<stop offset="1" stop-color="#3B3D3F" stop-opacity="0.89"/>
</linearGradient>
<linearGradient id="paint8_linear_10157_94306" x1="464" y1="358.5" x2="464" y2="428.5" gradientUnits="userSpaceOnUse">
<stop stop-color="#161C20"/>
<stop offset="1" stop-color="#0A0D0F"/>
</linearGradient>
<linearGradient id="paint9_linear_10157_94306" x1="464" y1="393.477" x2="464" y2="428.5" gradientUnits="userSpaceOnUse">
<stop stop-color="#3B3D3F" stop-opacity="0.5"/>
<stop offset="1" stop-color="#3B3D3F" stop-opacity="0.89"/>
</linearGradient>
<linearGradient id="paint10_linear_10157_94306" x1="250" y1="358.5" x2="250" y2="428.5" gradientUnits="userSpaceOnUse">
<stop stop-color="#161C20"/>
<stop offset="1" stop-color="#0A0D0F"/>
</linearGradient>
<linearGradient id="paint11_linear_10157_94306" x1="250" y1="393.477" x2="250" y2="428.5" gradientUnits="userSpaceOnUse">
<stop stop-color="#3B3D3F" stop-opacity="0.5"/>
<stop offset="1" stop-color="#3B3D3F" stop-opacity="0.89"/>
</linearGradient>
<linearGradient id="paint12_linear_10157_94306" x1="354" y1="0" x2="354" y2="470" gradientUnits="userSpaceOnUse">
<stop stop-color="#3B3D3F" stop-opacity="0.4"/>
<stop offset="1" stop-color="#3B3D3F"/>
</linearGradient>
<clipPath id="clip0_10157_94306">
<rect width="708" height="470" rx="16" fill="white"/>
</clipPath>
</defs>
</svg>
