<svg width="335" height="293" viewBox="0 0 335 293" fill="none" xmlns="http://www.w3.org/2000/svg">
<g clip-path="url(#clip0_10157_98701)">
<rect x="0.5" width="334" height="292.873" rx="10" fill="url(#paint0_linear_10157_98701)"/>
<mask id="mask0_10157_98701" style="mask-type:alpha" maskUnits="userSpaceOnUse" x="0" y="-7" width="340" height="305">
<path d="M0.707031 -6.88281H339.989V297.807H0.707031V-6.88281Z" fill="url(#paint1_radial_10157_98701)"/>
</mask>
<g mask="url(#mask0_10157_98701)">
<path d="M24.8037 3.73633V297.233" stroke="#181E22" stroke-width="0.623134"/>
<path d="M66.5537 3.73633V297.233" stroke="#181E22" stroke-width="0.623134"/>
<path d="M108.304 3.73633V297.233" stroke="#181E22" stroke-width="0.623134"/>
<path d="M150.054 3.73633V297.233" stroke="#181E22" stroke-width="0.623134"/>
<path d="M191.804 3.73633V297.233" stroke="#181E22" stroke-width="0.623134"/>
<path d="M233.554 3.73633V297.233" stroke="#181E22" stroke-width="0.623134"/>
<path d="M275.304 3.73633V297.233" stroke="#181E22" stroke-width="0.623134"/>
<path d="M317.054 3.73633V297.233" stroke="#181E22" stroke-width="0.623134"/>
<rect x="-43.5854" y="10.1265" width="387.278" height="0.311567" fill="#2E2E38" stroke="#181E22" stroke-width="0.311567"/>
<rect x="-43.5854" y="35.6734" width="387.278" height="0.311567" fill="#2E2E38" stroke="#181E22" stroke-width="0.311567"/>
<rect x="-43.5854" y="61.2222" width="387.278" height="0.311567" fill="#2E2E38" stroke="#181E22" stroke-width="0.311567"/>
<rect x="-43.5854" y="86.771" width="387.278" height="0.311567" fill="#2E2E38" stroke="#181E22" stroke-width="0.311567"/>
<rect x="-43.5854" y="112.32" width="387.278" height="0.311567" fill="#2E2E38" stroke="#181E22" stroke-width="0.311567"/>
<rect x="-43.5854" y="137.869" width="387.278" height="0.311567" fill="#2E2E38" stroke="#181E22" stroke-width="0.311567"/>
<rect x="-43.5854" y="163.418" width="387.278" height="0.311567" fill="#2E2E38" stroke="#181E22" stroke-width="0.311567"/>
<rect x="-43.5854" y="188.964" width="387.278" height="0.311567" fill="#2E2E38" stroke="#181E22" stroke-width="0.311567"/>
<rect x="-43.5854" y="214.513" width="387.278" height="0.311567" fill="#2E2E38" stroke="#181E22" stroke-width="0.311567"/>
<rect x="-43.5854" y="240.062" width="387.278" height="0.311567" fill="#2E2E38" stroke="#181E22" stroke-width="0.311567"/>
<rect x="-43.5854" y="265.611" width="387.278" height="0.311567" fill="#2E2E38" stroke="#181E22" stroke-width="0.311567"/>
<rect x="-43.5854" y="291.16" width="387.278" height="0.311567" fill="#2E2E38" stroke="#181E22" stroke-width="0.311567"/>
</g>
<path d="M161.09 115.934H159.672L155.407 109.48V115.934H153.989V107.278H155.407L159.672 113.72V107.278H161.09V115.934ZM164.245 107.291V115.934H162.827V107.291H164.245ZM168.829 116.021C168.249 116.021 167.727 115.921 167.262 115.722C166.798 115.515 166.433 115.225 166.168 114.852C165.903 114.479 165.77 114.043 165.77 113.546H167.287C167.32 113.919 167.466 114.226 167.723 114.466C167.988 114.707 168.357 114.827 168.829 114.827C169.318 114.827 169.7 114.711 169.973 114.479C170.247 114.238 170.384 113.931 170.384 113.558C170.384 113.268 170.297 113.032 170.123 112.85C169.957 112.667 169.745 112.526 169.488 112.427C169.24 112.327 168.891 112.219 168.444 112.103C167.88 111.954 167.42 111.805 167.063 111.656C166.715 111.498 166.417 111.258 166.168 110.934C165.919 110.611 165.795 110.18 165.795 109.641C165.795 109.144 165.919 108.709 166.168 108.335C166.417 107.962 166.765 107.676 167.213 107.477C167.66 107.278 168.178 107.179 168.767 107.179C169.604 107.179 170.288 107.39 170.819 107.813C171.358 108.228 171.656 108.8 171.714 109.529H170.147C170.123 109.214 169.973 108.945 169.7 108.721C169.426 108.497 169.066 108.385 168.618 108.385C168.212 108.385 167.88 108.489 167.623 108.696C167.366 108.903 167.238 109.202 167.238 109.591C167.238 109.857 167.316 110.076 167.474 110.251C167.64 110.416 167.847 110.549 168.096 110.648C168.344 110.748 168.684 110.856 169.115 110.972C169.687 111.129 170.152 111.287 170.508 111.444C170.873 111.602 171.18 111.846 171.428 112.178C171.685 112.501 171.814 112.937 171.814 113.484C171.814 113.923 171.694 114.338 171.453 114.727C171.221 115.117 170.877 115.432 170.421 115.672C169.973 115.905 169.443 116.021 168.829 116.021ZM178.946 107.291V108.447H176.645V115.934H175.228V108.447H172.915V107.291H178.946Z" fill="white"/>
<path d="M138.845 144.863H149.221V148.043H134.508V145.184L144.852 128.896H134.508V125.716H149.221V128.575L138.845 144.863ZM168.484 138.759C168.484 139.423 168.441 140.022 168.356 140.558H154.831C154.938 141.971 155.463 143.106 156.405 143.963C157.348 144.82 158.504 145.248 159.875 145.248C161.845 145.248 163.237 144.424 164.051 142.774H168.002C167.467 144.402 166.493 145.741 165.079 146.79C163.687 147.818 161.952 148.332 159.875 148.332C158.183 148.332 156.662 147.957 155.313 147.208C153.985 146.437 152.936 145.366 152.165 143.995C151.415 142.603 151.04 140.997 151.04 139.176C151.04 137.356 151.404 135.76 152.133 134.39C152.882 132.998 153.921 131.927 155.249 131.177C156.598 130.428 158.14 130.053 159.875 130.053C161.545 130.053 163.034 130.417 164.34 131.145C165.647 131.873 166.664 132.901 167.392 134.229C168.12 135.536 168.484 137.045 168.484 138.759ZM164.661 137.602C164.64 136.253 164.158 135.171 163.216 134.358C162.273 133.544 161.106 133.137 159.714 133.137C158.451 133.137 157.369 133.544 156.469 134.358C155.57 135.15 155.035 136.232 154.863 137.602H164.661ZM174.787 132.912C175.322 132.012 176.029 131.316 176.907 130.824C177.807 130.31 178.867 130.053 180.088 130.053V133.844H179.156C177.721 133.844 176.629 134.208 175.879 134.936C175.151 135.664 174.787 136.928 174.787 138.727V148.043H171.125V130.342H174.787V132.912ZM190.168 148.332C188.498 148.332 186.988 147.957 185.638 147.208C184.289 146.437 183.229 145.366 182.458 143.995C181.687 142.603 181.302 140.997 181.302 139.176C181.302 137.377 181.698 135.782 182.49 134.39C183.283 132.998 184.364 131.927 185.735 131.177C187.106 130.428 188.637 130.053 190.329 130.053C192.021 130.053 193.552 130.428 194.923 131.177C196.293 131.927 197.375 132.998 198.167 134.39C198.96 135.782 199.356 137.377 199.356 139.176C199.356 140.975 198.949 142.571 198.135 143.963C197.321 145.355 196.208 146.437 194.794 147.208C193.402 147.957 191.86 148.332 190.168 148.332ZM190.168 145.152C191.11 145.152 191.989 144.927 192.802 144.477C193.638 144.027 194.312 143.353 194.826 142.453C195.34 141.554 195.597 140.461 195.597 139.176C195.597 137.891 195.351 136.81 194.858 135.932C194.366 135.032 193.713 134.358 192.899 133.908C192.085 133.458 191.207 133.233 190.265 133.233C189.322 133.233 188.444 133.458 187.63 133.908C186.838 134.358 186.206 135.032 185.735 135.932C185.264 136.81 185.028 137.891 185.028 139.176C185.028 141.082 185.51 142.56 186.474 143.61C187.459 144.638 188.69 145.152 190.168 145.152ZM145.276 155.716V158.704H139.333V178.043H135.671V158.704H129.695V155.716H145.276ZM151.684 162.912C152.219 162.012 152.926 161.316 153.804 160.824C154.703 160.31 155.764 160.053 156.984 160.053V163.844H156.053C154.618 163.844 153.526 164.208 152.776 164.936C152.048 165.664 151.684 166.928 151.684 168.727V178.043H148.021V160.342H151.684V162.912ZM175.417 160.342V178.043H171.755V175.955C171.177 176.683 170.417 177.261 169.474 177.69C168.553 178.097 167.568 178.3 166.519 178.3C165.127 178.3 163.874 178.011 162.76 177.433C161.668 176.854 160.8 175.998 160.158 174.863C159.537 173.727 159.226 172.357 159.226 170.751V160.342H162.856V170.204C162.856 171.789 163.253 173.01 164.045 173.867C164.838 174.702 165.919 175.12 167.29 175.12C168.66 175.12 169.742 174.702 170.534 173.867C171.348 173.01 171.755 171.789 171.755 170.204V160.342H175.417ZM185.711 178.332C184.319 178.332 183.066 178.086 181.952 177.593C180.86 177.079 179.993 176.394 179.35 175.537C178.708 174.659 178.365 173.685 178.322 172.614H182.113C182.177 173.363 182.53 173.995 183.173 174.509C183.837 175.002 184.661 175.248 185.647 175.248C186.675 175.248 187.467 175.055 188.024 174.67C188.602 174.263 188.891 173.749 188.891 173.128C188.891 172.464 188.57 171.971 187.928 171.65C187.306 171.329 186.311 170.975 184.94 170.59C183.612 170.226 182.53 169.872 181.695 169.53C180.86 169.187 180.132 168.662 179.511 167.956C178.911 167.249 178.611 166.317 178.611 165.161C178.611 164.218 178.89 163.362 179.446 162.591C180.003 161.798 180.796 161.177 181.824 160.727C182.873 160.278 184.072 160.053 185.422 160.053C187.435 160.053 189.052 160.567 190.273 161.595C191.515 162.601 192.179 163.983 192.264 165.739H188.602C188.538 164.947 188.217 164.315 187.638 163.844C187.06 163.372 186.278 163.137 185.293 163.137C184.329 163.137 183.591 163.319 183.077 163.683C182.563 164.047 182.306 164.529 182.306 165.129C182.306 165.6 182.477 165.996 182.82 166.317C183.162 166.638 183.58 166.895 184.072 167.088C184.565 167.26 185.293 167.484 186.257 167.763C187.542 168.106 188.591 168.459 189.405 168.823C190.241 169.166 190.958 169.68 191.558 170.365C192.157 171.05 192.468 171.961 192.489 173.096C192.489 174.102 192.211 175.002 191.654 175.794C191.097 176.587 190.305 177.208 189.277 177.657C188.27 178.107 187.082 178.332 185.711 178.332ZM199.755 163.33V173.128C199.755 173.792 199.905 174.274 200.205 174.573C200.526 174.852 201.062 174.991 201.811 174.991H204.06V178.043H201.169C199.52 178.043 198.256 177.657 197.378 176.886C196.5 176.115 196.061 174.863 196.061 173.128V163.33H193.973V160.342H196.061V155.941H199.755V160.342H204.06V163.33H199.755Z" fill="#1C76FD"/>
<path d="M137.745 187.51V188.666H134.077V191.215H136.937V192.372H134.077V196.152H132.659V187.51H137.745ZM140.352 190.295C140.56 189.947 140.833 189.678 141.173 189.487C141.521 189.288 141.932 189.188 142.404 189.188V190.656H142.044C141.488 190.656 141.065 190.797 140.775 191.079C140.493 191.36 140.352 191.85 140.352 192.546V196.152H138.935V189.3H140.352V190.295ZM143.11 192.695C143.11 192.007 143.251 191.398 143.533 190.867C143.823 190.337 144.213 189.926 144.702 189.636C145.2 189.338 145.747 189.188 146.344 189.188C146.882 189.188 147.351 189.296 147.749 189.512C148.155 189.719 148.478 189.98 148.719 190.295V189.3H150.149V196.152H148.719V195.133C148.478 195.456 148.151 195.725 147.736 195.941C147.322 196.156 146.849 196.264 146.319 196.264C145.73 196.264 145.191 196.115 144.702 195.817C144.213 195.51 143.823 195.087 143.533 194.548C143.251 194.001 143.11 193.383 143.11 192.695ZM148.719 192.72C148.719 192.248 148.619 191.837 148.42 191.489C148.23 191.141 147.977 190.876 147.662 190.693C147.347 190.511 147.007 190.42 146.642 190.42C146.277 190.42 145.937 190.511 145.622 190.693C145.307 190.867 145.05 191.128 144.851 191.477C144.661 191.816 144.565 192.223 144.565 192.695C144.565 193.168 144.661 193.582 144.851 193.939C145.05 194.295 145.307 194.569 145.622 194.76C145.946 194.942 146.286 195.033 146.642 195.033C147.007 195.033 147.347 194.942 147.662 194.76C147.977 194.577 148.23 194.312 148.42 193.964C148.619 193.607 148.719 193.193 148.719 192.72ZM160.181 189.188C160.72 189.188 161.201 189.3 161.624 189.524C162.055 189.748 162.391 190.08 162.631 190.519C162.88 190.958 163.004 191.489 163.004 192.111V196.152H161.599V192.322C161.599 191.709 161.445 191.24 161.139 190.917C160.832 190.585 160.413 190.42 159.883 190.42C159.352 190.42 158.929 190.585 158.614 190.917C158.307 191.24 158.154 191.709 158.154 192.322V196.152H156.749V192.322C156.749 191.709 156.596 191.24 156.289 190.917C155.982 190.585 155.563 190.42 155.033 190.42C154.502 190.42 154.079 190.585 153.764 190.917C153.458 191.24 153.304 191.709 153.304 192.322V196.152H151.887V189.3H153.304V190.084C153.536 189.802 153.831 189.582 154.187 189.425C154.544 189.267 154.925 189.188 155.331 189.188C155.878 189.188 156.368 189.304 156.799 189.537C157.23 189.769 157.561 190.104 157.793 190.544C158.001 190.129 158.324 189.802 158.763 189.561C159.203 189.313 159.675 189.188 160.181 189.188ZM170.964 192.558C170.964 192.815 170.947 193.048 170.914 193.255H165.678C165.72 193.802 165.923 194.241 166.288 194.573C166.653 194.905 167.1 195.07 167.631 195.07C168.394 195.07 168.932 194.751 169.247 194.113H170.777C170.57 194.743 170.193 195.261 169.645 195.667C169.106 196.065 168.435 196.264 167.631 196.264C166.976 196.264 166.387 196.119 165.865 195.829C165.351 195.531 164.945 195.116 164.646 194.585C164.356 194.047 164.211 193.425 164.211 192.72C164.211 192.015 164.352 191.398 164.634 190.867C164.924 190.328 165.326 189.914 165.84 189.624C166.362 189.333 166.959 189.188 167.631 189.188C168.277 189.188 168.854 189.329 169.359 189.611C169.865 189.893 170.259 190.291 170.541 190.805C170.823 191.311 170.964 191.895 170.964 192.558ZM169.484 192.111C169.475 191.588 169.289 191.17 168.924 190.855C168.559 190.54 168.108 190.382 167.569 190.382C167.079 190.382 166.661 190.54 166.313 190.855C165.964 191.162 165.757 191.58 165.691 192.111H169.484ZM181.437 189.3L179.31 196.152H177.818L176.438 191.091L175.057 196.152H173.565L171.426 189.3H172.869L174.299 194.809L175.754 189.3H177.233L178.626 194.784L180.044 189.3H181.437ZM185.344 196.264C184.697 196.264 184.113 196.119 183.59 195.829C183.068 195.531 182.658 195.116 182.359 194.585C182.061 194.047 181.912 193.425 181.912 192.72C181.912 192.024 182.065 191.406 182.372 190.867C182.678 190.328 183.097 189.914 183.628 189.624C184.158 189.333 184.751 189.188 185.406 189.188C186.061 189.188 186.654 189.333 187.184 189.624C187.715 189.914 188.134 190.328 188.44 190.867C188.747 191.406 188.9 192.024 188.9 192.72C188.9 193.417 188.743 194.034 188.428 194.573C188.113 195.112 187.682 195.531 187.135 195.829C186.596 196.119 185.999 196.264 185.344 196.264ZM185.344 195.033C185.709 195.033 186.049 194.946 186.364 194.772C186.687 194.598 186.948 194.337 187.147 193.989C187.346 193.64 187.445 193.218 187.445 192.72C187.445 192.223 187.35 191.804 187.159 191.464C186.969 191.116 186.716 190.855 186.401 190.681C186.086 190.507 185.746 190.42 185.381 190.42C185.016 190.42 184.676 190.507 184.361 190.681C184.055 190.855 183.81 191.116 183.628 191.464C183.445 191.804 183.354 192.223 183.354 192.72C183.354 193.458 183.541 194.03 183.914 194.436C184.295 194.834 184.772 195.033 185.344 195.033ZM191.595 190.295C191.802 189.947 192.076 189.678 192.416 189.487C192.764 189.288 193.174 189.188 193.647 189.188V190.656H193.286C192.731 190.656 192.308 190.797 192.018 191.079C191.736 191.36 191.595 191.85 191.595 192.546V196.152H190.178V189.3H191.595V190.295ZM197.537 192.733L200.695 196.152H198.78L196.243 193.205V196.152H194.826V186.95H196.243V192.297L198.731 189.3H200.695L197.537 192.733Z" fill="white"/>
<path d="M267.933 106.363L269.961 107.837H269.962L269.778 108.09L270.286 108.458L270.469 108.206V108.205L272.497 109.679V109.68L272.314 109.932L272.567 110.116C272.654 110.179 272.74 110.24 272.823 110.301L273.005 110.049C273.798 110.625 274.465 111.113 275.031 111.55L274.842 111.796C275.014 111.929 275.177 112.057 275.331 112.181L275.524 111.94C276.316 112.579 276.879 113.121 277.305 113.714L277.053 113.896C277.111 113.976 277.166 114.058 277.219 114.142C277.286 114.247 277.351 114.354 277.412 114.463L277.682 114.31C278.196 115.219 278.522 116.222 278.64 117.26L278.332 117.295C278.346 117.419 278.356 117.543 278.364 117.668C278.37 117.766 278.374 117.866 278.375 117.966L278.686 117.964C278.69 118.694 278.552 119.462 278.287 120.444L277.99 120.364C277.939 120.555 277.882 120.754 277.82 120.964L278.117 121.051C277.916 121.737 277.663 122.523 277.36 123.455L277.065 123.359L276.969 123.659L276.871 123.958L277.167 124.053L276.393 126.438L276.097 126.342L275.903 126.938L276.199 127.034L275.424 129.418L275.128 129.322L274.935 129.919L275.23 130.015L274.456 132.399L274.16 132.304L273.966 132.899L274.262 132.995L273.487 135.38L273.191 135.284L272.998 135.88L273.293 135.976L272.519 138.359L272.223 138.265L272.029 138.86L272.325 138.957L271.55 141.341L271.255 141.245L271.061 141.841L271.356 141.937L270.582 144.322L270.286 144.226L270.093 144.822L270.389 144.918L269.613 147.302L269.317 147.206L269.124 147.803L269.42 147.898L268.645 150.282L268.349 150.187L268.155 150.783L268.451 150.878L267.677 153.264L267.381 153.168L267.187 153.764L267.482 153.859L266.708 156.243L266.412 156.148L266.219 156.744L266.515 156.841L265.739 159.224L265.443 159.129L265.25 159.725L265.546 159.821L264.771 162.205L264.476 162.109L264.281 162.705L264.577 162.801L263.803 165.187L263.507 165.09L263.313 165.687L263.609 165.782L262.834 168.166L262.538 168.07L262.345 168.667L262.641 168.763L261.866 171.147L261.57 171.051L261.376 171.647L261.672 171.742L260.897 174.128L260.602 174.032L260.408 174.628L260.703 174.724L259.929 177.107L259.633 177.013L259.439 177.608L259.735 177.705L258.961 180.089L258.664 179.993L258.471 180.589L258.767 180.685L257.992 183.07L257.696 182.974L257.502 183.569L257.798 183.665L257.023 186.051L256.728 185.954L256.534 186.551L256.83 186.646L256.055 189.03L255.759 188.935L255.565 189.531L255.861 189.627L255.087 192.012L254.791 191.915L254.597 192.512L254.893 192.606L254.118 194.992L253.822 194.896L253.629 195.492L253.924 195.588L253.149 197.972L252.854 197.877L252.66 198.473L252.956 198.569L252.182 200.953L251.886 200.857L251.691 201.453L251.987 201.549L251.213 203.935L250.917 203.838L250.724 204.434L251.02 204.53L250.244 206.914L249.948 206.818L249.755 207.414L250.051 207.511L249.275 209.895L248.979 209.799L248.786 210.396L249.082 210.49L248.308 212.876L248.012 212.779L247.817 213.376L248.114 213.472L247.339 215.856L247.043 215.76L246.85 216.356L247.146 216.453L246.37 218.836L246.074 218.741L245.881 219.337L246.177 219.434L245.402 221.817L245.106 221.722L244.912 222.317L245.208 222.413L244.434 224.799L244.138 224.702L243.944 225.298L244.24 225.395L243.465 227.778L243.169 227.683L242.976 228.278L243.271 228.375L242.497 230.76L242.201 230.663L242.007 231.26L242.303 231.354L241.528 233.74L241.232 233.644L241.039 234.24L241.335 234.336L240.56 236.72L240.264 236.624L240.07 237.221L240.366 237.316L239.592 239.701L239.295 239.605L239.198 239.903C239.165 240.005 239.133 240.105 239.101 240.203L239.396 240.299C239.093 241.231 238.835 242.015 238.595 242.688L238.304 242.585C238.23 242.791 238.158 242.985 238.088 243.17L238.375 243.279C238.012 244.229 237.672 244.933 237.239 245.521L236.989 245.337L236.807 245.571C236.727 245.668 236.645 245.762 236.561 245.854L236.789 246.062C236.084 246.833 235.231 247.453 234.28 247.886L234.151 247.604C234.038 247.655 233.923 247.704 233.807 247.75C233.715 247.786 233.622 247.82 233.527 247.852L233.625 248.146C232.932 248.376 232.158 248.482 231.143 248.534L231.127 248.228C230.93 248.238 230.723 248.245 230.505 248.251L230.513 248.561C229.798 248.581 228.973 248.583 227.993 248.583V248.273H227.364V248.585H224.856V248.273H224.23V248.585H221.723V248.273H221.096V248.585H218.589V248.273H217.962V248.585H215.455V248.273H214.828V248.585H212.321V248.273H211.694V248.585H209.187V248.273H208.561V248.585H206.053V248.273H205.426V248.585H202.919V248.273H202.292V248.585H199.785V248.273H199.158V248.585H196.651V248.273H196.024V248.585H193.517V248.273H192.891V248.585H190.383V248.273H189.756V248.585H187.249V248.273H186.622V248.585H184.115V248.273H183.488V248.585H180.981V248.273H180.354V248.585H177.847V248.273H177.22V248.585H174.713V248.273H174.086V248.585H171.579V248.273H170.952V248.585H168.445V248.273H167.818V248.585H165.311V248.273H164.685V248.585H162.177V248.273H161.55V248.585H159.043V248.273H158.416V248.585H155.909V248.273H155.282V248.585H152.775V248.273H152.148V248.585H149.641V248.273H149.015V248.585H146.507V248.273H145.88V248.585H143.373V248.273H142.746V248.585H140.239V248.273H139.612V248.585H137.105V248.273H136.479V248.585H133.971V248.273H133.345V248.585H130.837V248.273H130.21V248.585H127.703V248.273H127.076V248.585H124.569V248.273H123.942V248.585H121.436V248.273H120.809V248.585H118.301V248.273H117.674V248.585H115.167V248.273H114.54V248.585H112.033V248.273H111.406V248.585H108.899V248.273H108.272V248.585H105.765V248.273H105.137V248.583C104.157 248.583 103.331 248.581 102.616 248.561L102.625 248.251C102.407 248.245 102.199 248.238 102.002 248.228L101.986 248.534C100.97 248.482 100.196 248.376 99.5039 248.146L99.6016 247.852C99.5069 247.82 99.414 247.786 99.3223 247.75L98.9775 247.604L98.8486 247.886C97.8979 247.453 97.0443 246.833 96.3389 246.062L96.5684 245.854C96.4842 245.762 96.402 245.668 96.3223 245.571L96.1396 245.337L95.8887 245.521C95.4561 244.933 95.1161 244.229 94.7529 243.279L95.041 243.17C94.9704 242.985 94.8985 242.791 94.8252 242.585L94.5332 242.688C94.2932 242.015 94.0363 241.23 93.7334 240.299L94.0283 240.203C93.9964 240.105 93.9637 240.005 93.9307 239.903L93.834 239.605L93.5371 239.7L92.7627 237.316L93.0586 237.221L92.8652 236.624L92.5693 236.72L91.7939 234.335L92.0908 234.24L91.8965 233.644L91.6006 233.739L90.8262 231.354L91.1221 231.26L90.9287 230.663L90.6318 230.759L89.8574 228.374L90.1533 228.278L89.96 227.683L89.6641 227.778L88.8887 225.394L89.1855 225.298L88.9912 224.702L88.6953 224.798L87.9209 222.413L88.2168 222.317L88.0234 221.722L87.7266 221.816L86.9521 219.433L87.248 219.337L87.0547 218.741L86.7578 218.837L85.9834 216.452L86.2803 216.356L86.0859 215.761L85.79 215.855L85.0146 213.471L85.3115 213.376L85.1182 212.779L84.8213 212.875L84.0469 210.49L84.3428 210.396L84.1494 209.799L83.8525 209.895L83.0781 207.51L83.374 207.415L83.1807 206.818L82.8848 206.914L82.1094 204.529L82.4062 204.434L82.2119 203.838L81.916 203.934L81.1406 201.55L81.4375 201.453L81.2441 200.857L80.9473 200.952L80.1729 198.568L80.4688 198.473L80.2754 197.877L79.9785 197.973L79.2041 195.588L79.501 195.492L79.3066 194.896L79.0107 194.991L78.2354 192.607L78.5322 192.512L78.3389 191.915L78.042 192.011L77.2666 189.627L77.5635 189.531L77.3701 188.935L77.0732 189.031L76.2988 186.646L76.5957 186.551L76.4014 185.954L76.1055 186.05L75.3301 183.665L75.627 183.569L75.4336 182.974L75.1367 183.069L74.3613 180.686L74.6582 180.589L74.4648 179.993L74.168 180.088L73.3936 177.704L73.6895 177.608L73.4961 177.013L73.1992 177.108L72.4248 174.724L72.7217 174.628L72.5273 174.032L72.2314 174.127L71.4561 171.743L71.7529 171.647L71.5596 171.051L71.2627 171.146L70.4873 168.763L70.7842 168.667L70.5908 168.07L70.2939 168.167L69.5195 165.781L69.8164 165.687L69.6221 165.09L69.3262 165.186L68.5508 162.802L68.8477 162.705L68.6543 162.109L68.3574 162.205L67.582 159.821L67.8789 159.725L67.6855 159.129L67.3887 159.224L66.6143 156.84L66.9111 156.744L66.7168 156.148L66.4199 156.244L65.6455 153.859L65.9424 153.764L65.749 153.168L65.4512 153.264L64.6768 150.879L64.9736 150.783L64.7803 150.187L64.4834 150.282L63.708 147.898L64.0049 147.803L63.8115 147.206L63.5146 147.303L62.7402 144.917L63.0371 144.822L62.8428 144.226L62.5459 144.322L61.7715 141.938H61.7725L62.0684 141.841L61.875 141.245L61.5781 141.341L60.8027 138.957L61.0996 138.86L60.9062 138.265L60.6104 138.36H60.6094L59.835 135.976L60.1318 135.88L59.9375 135.284L59.6406 135.38L58.8662 132.996H58.8672L59.1631 132.899L58.9697 132.304L58.6719 132.399L57.8975 130.015H57.8984L58.1943 129.919L58.001 129.322L57.7041 129.418L56.9287 127.034L57.2266 126.938L57.0322 126.342L56.7354 126.438L55.9609 124.053L56.2578 123.958L56.1611 123.659L56.0635 123.359L55.7676 123.455C55.465 122.523 55.2122 121.737 55.0107 121.051L55.3086 120.964C55.247 120.754 55.1901 120.555 55.1387 120.364L54.8408 120.444C54.5763 119.462 54.4388 118.693 54.4434 117.964L54.7539 117.966L54.7646 117.668C54.7725 117.543 54.7838 117.419 54.7979 117.295L54.4883 117.26C54.6062 116.222 54.9325 115.219 55.4473 114.31L55.7178 114.463C55.7792 114.355 55.8432 114.247 55.9102 114.142C55.963 114.058 56.0191 113.977 56.0771 113.896L55.8242 113.714C56.2493 113.121 56.8126 112.58 57.6035 111.941L57.7979 112.181C57.9514 112.057 58.1144 111.929 58.2871 111.796L58.0977 111.55C58.6638 111.113 59.3303 110.625 60.123 110.049L60.3066 110.301L60.5615 110.116L60.8154 109.932L60.6318 109.68L60.6309 109.679L62.6592 108.205L62.6602 108.206L62.8438 108.458L63.3506 108.09L63.167 107.837L65.1953 106.363L65.3789 106.616L65.8857 106.247L65.7031 105.995L65.7021 105.994L67.7305 104.521L67.7314 104.521L67.9141 104.773L68.4209 104.405L68.2383 104.153L68.2373 104.152L70.2656 102.679L70.2666 102.68L70.4502 102.932L70.957 102.563L70.7734 102.311L72.8018 100.837L72.9854 101.09L73.4922 100.721L73.3096 100.469L73.3086 100.468L75.3369 98.9941L75.3379 98.9951L75.5205 99.2471L76.0273 98.8789L75.8447 98.627L75.8438 98.626L77.8721 97.1523L77.873 97.1533L78.0557 97.4053L78.5635 97.0371L78.3799 96.7842L80.4082 95.3105L80.5918 95.5635L81.0986 95.1943L80.915 94.9424L80.9141 94.9414L82.9434 93.4678L82.9443 93.4688L83.127 93.7207L83.6338 93.3525L83.4512 93.1006L83.4502 93.0996L85.4785 91.626L85.4795 91.627L85.6621 91.8789L86.1699 91.5107L85.9863 91.2588L85.9854 91.2578L88.0146 89.7842L88.1982 90.0371L88.7051 89.668L88.5215 89.416L88.5205 89.415L90.5488 87.9414L90.5498 87.9424L90.7334 88.1943L91.2402 87.8262L91.0576 87.5742L91.0566 87.5732L93.085 86.0996L93.0859 86.1006L93.2686 86.3525L93.7764 85.9844L93.5928 85.7324L93.5918 85.7314L95.6211 84.2578L95.8047 84.5107L96.3115 84.1416L96.1279 83.8896L98.1562 82.416L98.3398 82.668L98.8467 82.2998L98.6641 82.0479L98.6631 82.0469L100.691 80.5732L100.692 80.5742L100.875 80.8262L101.382 80.458L101.199 80.2061L101.198 80.2051L103.228 78.7314L103.411 78.9844L103.918 78.6152L103.734 78.3633L105.763 76.8896L105.946 77.1416L106.453 76.7734L106.271 76.5215L106.27 76.5205L108.298 75.0469L108.299 75.0479L108.481 75.2998L108.988 74.9316L108.806 74.6797L108.805 74.6787L110.833 73.2051L110.834 73.2061L111.017 73.458L111.524 73.0889L111.341 72.8369L113.369 71.3633L113.553 71.6152L114.06 71.2471L113.876 70.9951L113.875 70.9941L115.904 69.5205L115.905 69.5215L116.088 69.7734L116.595 69.4053L116.412 69.1533L116.411 69.1523L118.439 67.6787L118.44 67.6797L118.623 67.9316L119.131 67.5625L118.947 67.3105L120.976 65.8369L121.159 66.0889L121.666 65.7207L121.482 65.4688L121.481 65.4678L123.51 63.9941L123.511 63.9951L123.694 64.2471L124.201 63.8789L124.019 63.627L124.018 63.626L126.046 62.1523L126.047 62.1533L126.229 62.4053L126.737 62.0361L126.554 61.7842L128.582 60.3105L128.766 60.5625L129.272 60.1943L129.089 59.9424L131.117 58.4688L131.301 58.7207L131.808 58.3525L131.625 58.1006L131.624 58.0996L133.652 56.626L133.653 56.627L133.836 56.8789L134.343 56.5098L134.16 56.2578L136.188 54.7842L136.371 55.0361L136.879 54.668L136.695 54.416L138.724 52.9424L138.907 53.1943L139.414 52.8262L139.231 52.5742L139.23 52.5732L141.259 51.0996L141.26 51.1006L141.442 51.3525L141.949 50.9834L141.767 50.7314L143.795 49.2578L143.978 49.5098L144.485 49.1416L144.302 48.8896L146.33 47.416L146.514 47.668L147.021 47.2998L146.837 47.0479L146.836 47.0469L148.864 45.5732L148.865 45.5742L149.049 45.8262L149.556 45.457L149.373 45.2051L151.401 43.7314L151.584 43.9834L152.092 43.6152L151.908 43.3633L153.937 41.8896L154.12 42.1416L154.627 41.7734L154.443 41.5215L154.442 41.5205L156.471 40.0469L156.472 40.0479L156.655 40.2998L157.162 39.9307L156.979 39.6787L159.008 38.2051L159.19 38.457L159.444 38.2734C159.531 38.2106 159.616 38.1486 159.699 38.0879L159.517 37.8359C160.309 37.2601 160.979 36.7766 161.569 36.373L161.744 36.6299C161.924 36.5066 162.097 36.3911 162.263 36.2832L162.095 36.0244C162.946 35.4696 163.635 35.1009 164.33 34.8799L164.425 35.1758L164.711 35.0938C164.832 35.0627 164.954 35.0347 165.076 35.0098L165.014 34.7051C166.037 34.4965 167.091 34.4967 168.114 34.7051L168.054 35.0098C168.176 35.0346 168.297 35.0627 168.418 35.0938C168.514 35.1183 168.609 35.1456 168.704 35.1758L168.798 34.8789C169.493 35.0999 170.182 35.4693 171.034 36.0244L170.866 36.2832C171.032 36.3911 171.205 36.5066 171.385 36.6299L171.559 36.373C172.149 36.7768 172.819 37.2607 173.612 37.8369L173.43 38.0879C173.513 38.1486 173.598 38.2107 173.685 38.2734L173.938 38.457L174.121 38.2051L176.149 39.6787L175.967 39.9307L176.474 40.2998L176.657 40.0479V40.0469L178.686 41.5205V41.5215L178.502 41.7734L179.01 42.1416L179.191 41.8896L181.22 43.3633H181.221L181.038 43.6152L181.545 43.9834L181.728 43.7314L183.756 45.2051L183.573 45.457L184.08 45.8262L184.264 45.5742V45.5732L186.292 47.0469V47.0479L186.108 47.2998L186.616 47.668L186.798 47.416L188.826 48.8896H188.827L188.645 49.1416L189.151 49.5098L189.333 49.2578L191.361 50.7314H191.362L191.18 50.9834L191.687 51.3525L191.87 51.1006V51.0996L193.898 52.5732V52.5742L193.715 52.8262L194.223 53.1943L194.404 52.9424L196.433 54.416H196.434L196.251 54.668L196.758 55.0361L196.939 54.7842L198.968 56.2578H198.969L198.786 56.5098L199.293 56.8789L199.477 56.627V56.626L201.505 58.0996V58.1006L201.321 58.3525L201.828 58.7207L202.011 58.4688L204.039 59.9424H204.04L203.856 60.1943L204.364 60.5625L204.546 60.3105L206.574 61.7842H206.575L206.393 62.0361L206.899 62.4053L207.083 62.1533V62.1523L209.111 63.626V63.627L208.928 63.8789L209.435 64.2471L209.618 63.9951V63.9941L211.646 65.4678V65.4688L211.463 65.7207L211.971 66.0889L212.152 65.8369L214.181 67.3105H214.182L213.999 67.5625L214.506 67.9316L214.688 67.6797V67.6787L216.718 69.1523V69.1533L216.534 69.4053L217.041 69.7734L217.225 69.5215V69.5205L219.253 70.9941V70.9951L219.069 71.2471L219.577 71.6152L219.759 71.3633L221.787 72.8369H221.788L221.605 73.0889L222.112 73.458L222.295 73.2061V73.2051L224.323 74.6787V74.6797L224.141 74.9316L224.647 75.2998L224.831 75.0479V75.0469L226.859 76.5205V76.5215L226.676 76.7734L227.183 77.1416L227.365 76.8896L229.394 78.3633H229.395L229.212 78.6152L229.719 78.9844L229.9 78.7314L231.93 80.2051V80.2061L231.747 80.458L232.254 80.8262L232.438 80.5742V80.5732L234.466 82.0469V82.0479L234.282 82.2998L234.789 82.668L234.972 82.416L237 83.8896H237.001L236.817 84.1416L237.325 84.5107L237.507 84.2578L239.536 85.7314V85.7324L239.354 85.9844L239.86 86.3525L240.044 86.1006V86.0996L242.072 87.5732V87.5742L241.889 87.8262L242.396 88.1943L242.579 87.9424V87.9414L244.607 89.415V89.416L244.424 89.668L244.932 90.0371L245.113 89.7842L247.143 91.2578V91.2588L246.96 91.5107L247.467 91.8789L247.649 91.627V91.626L249.679 93.0996V93.1006L249.495 93.3525L250.002 93.7207L250.186 93.4688V93.4678L252.214 94.9414V94.9424L252.03 95.1943L252.538 95.5635L252.72 95.3105L254.748 96.7842H254.749L254.566 97.0371L255.073 97.4053L255.256 97.1533V97.1523L257.284 98.626V98.627L257.102 98.8789L257.608 99.2471L257.792 98.9951V98.9941L259.82 100.468V100.469L259.637 100.721L260.144 101.09L260.326 100.837L262.354 102.311H262.355L262.173 102.563L262.68 102.932L262.862 102.68V102.679L264.891 104.152V104.153L264.708 104.405L265.215 104.773L265.398 104.521V104.521L267.427 105.994V105.995L267.243 106.247L267.75 106.616L267.933 106.363Z" stroke="#6C6E6F" stroke-width="0.623134" stroke-dasharray="0.62 2.49"/>
<path d="M92.0236 86.9927C91.8846 87.0942 91.8542 87.2891 91.9557 87.4281C92.0572 87.567 92.2521 87.5974 92.3911 87.4959L92.0236 86.9927ZM123.358 64.7667C123.384 64.5967 123.268 64.4374 123.098 64.4109L120.327 63.9791C120.157 63.9526 119.998 64.069 119.971 64.239C119.945 64.409 120.061 64.5683 120.231 64.5948L122.694 64.9786L122.31 67.4414C122.284 67.6115 122.4 67.7708 122.57 67.7973C122.74 67.8238 122.899 67.7074 122.926 67.5374L123.358 64.7667ZM92.2073 87.2443L92.3911 87.4959L123.234 64.9704L123.05 64.7188L122.866 64.4671L92.0236 86.9927L92.2073 87.2443Z" fill="#6C6E6F"/>
<path d="M80.8509 200.743C80.9039 200.907 81.0796 200.996 81.2433 200.943C81.407 200.89 81.4967 200.715 81.4437 200.551L80.8509 200.743ZM69.5216 164.035C69.3684 163.957 69.1807 164.018 69.1024 164.171L67.827 166.668C67.7487 166.821 67.8095 167.009 67.9627 167.087C68.116 167.165 68.3037 167.105 68.3819 166.951L69.5156 164.732L71.7354 165.865C71.8887 165.944 72.0763 165.883 72.1546 165.73C72.2329 165.576 72.1721 165.389 72.0189 165.31L69.5216 164.035ZM81.1473 200.647L81.4437 200.551L69.6763 164.217L69.3799 164.312L69.0835 164.408L80.8509 200.743L81.1473 200.647Z" fill="#6C6E6F"/>
<path d="M186.596 248.577C186.768 248.577 186.907 248.438 186.907 248.266C186.907 248.094 186.768 247.954 186.596 247.954V248.577ZM148.183 248.045C148.061 248.167 148.061 248.364 148.183 248.486L150.166 250.469C150.287 250.59 150.485 250.59 150.606 250.469C150.728 250.347 150.728 250.15 150.606 250.028L148.844 248.266L150.606 246.503C150.728 246.381 150.728 246.184 150.606 246.063C150.485 245.941 150.287 245.941 150.166 246.063L148.183 248.045ZM186.596 248.266V247.954H148.403V248.266V248.577H186.596V248.266Z" fill="#6C6E6F"/>
<path d="M264.704 162.372C264.758 162.208 264.668 162.033 264.504 161.979C264.341 161.926 264.165 162.016 264.112 162.18L264.704 162.372ZM252.348 198.747C252.427 198.9 252.614 198.961 252.768 198.883L255.265 197.609C255.419 197.53 255.479 197.343 255.401 197.189C255.323 197.036 255.135 196.975 254.982 197.054L252.762 198.186L251.629 195.966C251.551 195.813 251.363 195.752 251.21 195.83C251.057 195.908 250.996 196.096 251.074 196.249L252.348 198.747ZM264.408 162.276L264.112 162.18L252.33 198.509L252.626 198.605L252.922 198.702L264.704 162.372L264.408 162.276Z" fill="#6C6E6F"/>
<path d="M207.953 63.6406C207.813 63.5397 207.782 63.3449 207.883 63.2055C207.984 63.0661 208.179 63.0349 208.318 63.1358L207.953 63.6406ZM239.382 85.732C239.409 85.9019 239.293 86.0617 239.124 86.0889L236.355 86.5326C236.185 86.5598 236.025 86.4441 235.998 86.2742C235.971 86.1043 236.086 85.9445 236.256 85.9173L238.717 85.5229L238.323 83.0618C238.296 82.8919 238.411 82.732 238.581 82.7048C238.751 82.6776 238.911 82.7933 238.938 82.9632L239.382 85.732ZM208.135 63.3882L208.318 63.1358L239.257 85.5289L239.074 85.7812L238.892 86.0336L207.953 63.6406L208.135 63.3882Z" fill="#6C6E6F"/>
<rect x="35.7681" y="97.897" width="42.8723" height="42.8723" rx="6.48091" fill="url(#paint2_linear_10157_98701)"/>
<rect x="35.7681" y="97.897" width="42.8723" height="42.8723" rx="6.48091" stroke="url(#paint3_linear_10157_98701)" stroke-width="0.747141"/>
<path d="M57.2055 108.412C57.8833 108.412 58.5459 108.613 59.1096 108.989C59.6732 109.366 60.1124 109.901 60.3718 110.527C60.6312 111.154 60.6991 111.843 60.5669 112.508C60.4346 113.172 60.1082 113.783 59.6289 114.262C59.1496 114.742 58.5389 115.068 57.8741 115.2C57.2093 115.333 56.5202 115.265 55.8939 115.005C55.2677 114.746 54.7324 114.307 54.3558 113.743C53.9792 113.179 53.7782 112.517 53.7782 111.839C53.7782 110.93 54.1393 110.058 54.7821 109.416C55.4248 108.773 56.2965 108.412 57.2055 108.412ZM64.4767 110.601C64.3137 110.629 64.1682 110.719 64.0722 110.854C63.9763 110.988 63.9377 111.156 63.9649 111.319C64.0282 111.696 64.06 112.079 64.06 112.462C64.0614 114.14 63.4447 115.76 62.3276 117.012C61.8744 116.355 61.2989 115.791 60.6327 115.352C60.5758 115.314 60.5081 115.296 60.44 115.301C60.3719 115.305 60.3072 115.332 60.2557 115.377C59.4091 116.109 58.327 116.513 57.2074 116.513C56.0879 116.513 55.0058 116.109 54.1591 115.377C54.1074 115.331 54.0419 115.304 53.973 115.299C53.904 115.295 53.8355 115.313 53.7782 115.352C53.111 115.791 52.5347 116.354 52.081 117.012C51.2043 116.024 50.6318 114.804 50.4321 113.498C50.2325 112.193 50.4142 110.857 50.9556 109.653C51.4969 108.448 52.3747 107.425 53.4835 106.708C54.5923 105.99 55.8848 105.608 57.2055 105.608C57.5886 105.608 57.9711 105.639 58.3489 105.703C58.5112 105.728 58.677 105.689 58.8103 105.593C58.9436 105.497 59.0335 105.352 59.0606 105.19C59.0877 105.028 59.0498 104.862 58.955 104.728C58.8602 104.593 58.7163 104.502 58.5546 104.474C56.8623 104.189 55.1234 104.449 53.5888 105.217C52.0543 105.985 50.8035 107.221 50.0171 108.746C49.2308 110.272 48.9495 112.007 49.2138 113.703C49.4782 115.398 50.2746 116.966 51.488 118.18C52.7014 119.393 54.2691 120.189 55.9646 120.454C57.6602 120.718 59.3958 120.437 60.9211 119.65C62.4463 118.864 63.6822 117.613 64.4502 116.079C65.2183 114.544 65.4787 112.805 65.1941 111.113C65.1668 110.95 65.0759 110.805 64.9414 110.709C64.8068 110.613 64.6397 110.574 64.4767 110.601Z" fill="white"/>
<path d="M65.7163 105.66L62.6013 108.777C62.5434 108.835 62.4747 108.881 62.3991 108.912C62.3234 108.944 62.2423 108.96 62.1604 108.96C62.0785 108.96 61.9975 108.944 61.9218 108.912C61.8462 108.881 61.7774 108.835 61.7196 108.777L60.0312 107.088C59.9734 107.03 59.9274 106.962 59.8961 106.886C59.8648 106.81 59.8486 106.729 59.8486 106.647C59.8486 106.565 59.8648 106.484 59.8961 106.409C59.9274 106.333 59.9734 106.264 60.0312 106.207C60.0891 106.149 60.1579 106.103 60.2335 106.071C60.3092 106.04 60.3902 106.024 60.4721 106.024C60.554 106.024 60.6351 106.04 60.7107 106.071C60.7864 106.103 60.8551 106.149 60.913 106.207L62.1604 107.455L64.8345 104.778C64.9515 104.661 65.11 104.596 65.2754 104.596C65.4408 104.596 65.5993 104.661 65.7163 104.778C65.8332 104.895 65.8989 105.054 65.8989 105.219C65.8989 105.385 65.8332 105.543 65.7163 105.66Z" fill="white"/>
<path d="M45.0242 134.172L43.7829 132.041H42.9603V134.172H42.2799V128.96H43.9623C44.3562 128.96 44.6877 129.027 44.9569 129.162C45.231 129.296 45.4354 129.478 45.57 129.708C45.7046 129.937 45.7719 130.199 45.7719 130.493C45.7719 130.852 45.6672 131.168 45.4579 131.443C45.2535 131.717 44.9444 131.899 44.5306 131.988L45.8392 134.172H45.0242ZM42.9603 131.495H43.9623C44.3312 131.495 44.6079 131.405 44.7924 131.226C44.9768 131.041 45.069 130.797 45.069 130.493C45.069 130.184 44.9768 129.945 44.7924 129.775C44.6129 129.606 44.3362 129.521 43.9623 129.521H42.9603V131.495ZM50.5681 131.966C50.5681 132.096 50.5606 132.233 50.5456 132.377H47.2704C47.2953 132.781 47.4324 133.098 47.6817 133.327C47.9359 133.551 48.2425 133.663 48.6014 133.663C48.8956 133.663 49.1398 133.596 49.3342 133.462C49.5336 133.322 49.6732 133.137 49.753 132.908H50.4858C50.3761 133.302 50.1568 133.624 49.8278 133.873C49.4988 134.117 49.09 134.239 48.6014 134.239C48.2126 134.239 47.8636 134.152 47.5546 133.977C47.2505 133.803 47.0112 133.556 46.8367 133.237C46.6622 132.913 46.575 132.539 46.575 132.116C46.575 131.692 46.6598 131.32 46.8292 131.001C46.9987 130.682 47.2355 130.438 47.5396 130.269C47.8487 130.094 48.2026 130.007 48.6014 130.007C48.9903 130.007 49.3342 130.092 49.6333 130.261C49.9325 130.431 50.1618 130.665 50.3213 130.964C50.4858 131.258 50.5681 131.592 50.5681 131.966ZM49.8652 131.824C49.8652 131.565 49.8078 131.343 49.6932 131.158C49.5785 130.969 49.4215 130.827 49.2221 130.732C49.0277 130.632 48.8108 130.583 48.5715 130.583C48.2276 130.583 47.9334 130.692 47.6892 130.912C47.4499 131.131 47.3128 131.435 47.2779 131.824H49.8652ZM51.212 132.116C51.212 131.692 51.2967 131.323 51.4662 131.009C51.6357 130.69 51.87 130.443 52.1691 130.269C52.4732 130.094 52.8197 130.007 53.2085 130.007C53.712 130.007 54.1258 130.129 54.4498 130.373C54.7788 130.618 54.9957 130.957 55.1004 131.39H54.3676C54.2978 131.141 54.1607 130.944 53.9563 130.799C53.7569 130.655 53.5076 130.583 53.2085 130.583C52.8197 130.583 52.5056 130.717 52.2663 130.986C52.0271 131.251 51.9074 131.627 51.9074 132.116C51.9074 132.609 52.0271 132.99 52.2663 133.26C52.5056 133.529 52.8197 133.663 53.2085 133.663C53.5076 133.663 53.7569 133.594 53.9563 133.454C54.1557 133.314 54.2928 133.115 54.3676 132.856H55.1004C54.9907 133.275 54.7713 133.611 54.4423 133.865C54.1133 134.115 53.702 134.239 53.2085 134.239C52.8197 134.239 52.4732 134.152 52.1691 133.977C51.87 133.803 51.6357 133.556 51.4662 133.237C51.2967 132.918 51.212 132.544 51.212 132.116ZM57.7955 134.239C57.4116 134.239 57.0626 134.152 56.7486 133.977C56.4395 133.803 56.1952 133.556 56.0158 133.237C55.8413 132.913 55.7541 132.539 55.7541 132.116C55.7541 131.697 55.8438 131.328 56.0233 131.009C56.2077 130.685 56.457 130.438 56.771 130.269C57.0851 130.094 57.4365 130.007 57.8254 130.007C58.2142 130.007 58.5656 130.094 58.8797 130.269C59.1938 130.438 59.4405 130.682 59.62 131.001C59.8044 131.32 59.8967 131.692 59.8967 132.116C59.8967 132.539 59.8019 132.913 59.6125 133.237C59.4281 133.556 59.1763 133.803 58.8573 133.977C58.5382 134.152 58.1843 134.239 57.7955 134.239ZM57.7955 133.641C58.0397 133.641 58.269 133.584 58.4834 133.469C58.6978 133.354 58.8697 133.182 58.9993 132.953C59.1339 132.724 59.2012 132.445 59.2012 132.116C59.2012 131.787 59.1364 131.507 59.0068 131.278C58.8772 131.049 58.7077 130.879 58.4983 130.77C58.289 130.655 58.0622 130.598 57.8179 130.598C57.5686 130.598 57.3393 130.655 57.1299 130.77C56.9256 130.879 56.7611 131.049 56.6364 131.278C56.5118 131.507 56.4495 131.787 56.4495 132.116C56.4495 132.45 56.5093 132.731 56.6289 132.961C56.7536 133.19 56.9181 133.362 57.1225 133.476C57.3269 133.586 57.5512 133.641 57.7955 133.641ZM62.3168 133.544L63.588 130.074H64.3133L62.7056 134.172H61.913L60.3053 130.074H61.0381L62.3168 133.544ZM68.7217 131.966C68.7217 132.096 68.7142 132.233 68.6993 132.377H65.4241C65.449 132.781 65.5861 133.098 65.8353 133.327C66.0896 133.551 66.3962 133.663 66.7551 133.663C67.0492 133.663 67.2935 133.596 67.4879 133.462C67.6873 133.322 67.8269 133.137 67.9066 132.908H68.6395C68.5298 133.302 68.3104 133.624 67.9814 133.873C67.6524 134.117 67.2436 134.239 66.7551 134.239C66.3663 134.239 66.0173 134.152 65.7082 133.977C65.4041 133.803 65.1649 133.556 64.9904 133.237C64.8159 132.913 64.7287 132.539 64.7287 132.116C64.7287 131.692 64.8134 131.32 64.9829 131.001C65.1524 130.682 65.3892 130.438 65.6933 130.269C66.0023 130.094 66.3563 130.007 66.7551 130.007C67.1439 130.007 67.4879 130.092 67.787 130.261C68.0861 130.431 68.3154 130.665 68.4749 130.964C68.6395 131.258 68.7217 131.592 68.7217 131.966ZM68.0188 131.824C68.0188 131.565 67.9615 131.343 67.8468 131.158C67.7322 130.969 67.5751 130.827 67.3757 130.732C67.1813 130.632 66.9645 130.583 66.7252 130.583C66.3812 130.583 66.0871 130.692 65.8428 130.912C65.6035 131.131 65.4665 131.435 65.4316 131.824H68.0188ZM70.3004 130.74C70.42 130.505 70.5895 130.323 70.8088 130.194C71.0332 130.064 71.3048 129.999 71.6239 129.999V130.702H71.4444C70.6817 130.702 70.3004 131.116 70.3004 131.944V134.172H69.6199V130.074H70.3004V130.74Z" fill="#E2E2E2"/>
<rect x="146.063" y="24.3658" width="42.8723" height="42.8723" rx="6.48091" fill="url(#paint4_linear_10157_98701)"/>
<rect x="146.063" y="24.3658" width="42.8723" height="42.8723" rx="6.48091" stroke="url(#paint5_linear_10157_98701)" stroke-width="0.747141"/>
<path d="M176.793 38.6801C176.765 38.6186 176.106 37.155 174.639 35.6883C172.685 33.734 170.216 32.7012 167.499 32.7012C164.782 32.7012 162.314 33.734 160.36 35.6883C158.893 37.155 158.23 38.6209 158.206 38.6801C158.171 38.7598 158.152 38.8461 158.152 38.9333C158.152 39.0205 158.171 39.1067 158.206 39.1864C158.233 39.248 158.893 40.7108 160.36 42.1775C162.314 44.131 164.782 45.1639 167.499 45.1639C170.216 45.1639 172.685 44.131 174.639 42.1775C176.106 40.7108 176.765 39.248 176.793 39.1864C176.828 39.1067 176.846 39.0205 176.846 38.9333C176.846 38.8461 176.828 38.7598 176.793 38.6801ZM167.499 42.0482C166.883 42.0482 166.281 41.8655 165.768 41.5231C165.256 41.1807 164.857 40.6941 164.621 40.1248C164.385 39.5555 164.323 38.9291 164.444 38.3247C164.564 37.7203 164.861 37.1651 165.296 36.7294C165.732 36.2937 166.287 35.9969 166.892 35.8767C167.496 35.7565 168.122 35.8182 168.692 36.054C169.261 36.2898 169.748 36.6892 170.09 37.2015C170.432 37.7139 170.615 38.3163 170.615 38.9325C170.615 39.7588 170.287 40.5513 169.702 41.1356C169.118 41.7199 168.326 42.0482 167.499 42.0482Z" fill="white"/>
<path d="M154.755 55.4287V60.6406H154.075V55.4287H154.755ZM155.661 58.5768C155.661 58.1581 155.746 57.7917 155.915 57.4776C156.084 57.1586 156.316 56.9118 156.61 56.7373C156.91 56.5628 157.244 56.4756 157.612 56.4756C157.931 56.4756 158.228 56.5504 158.502 56.6999C158.776 56.8445 158.986 57.0364 159.13 57.2757V55.1072H159.818V60.6406H159.13V59.8704C158.996 60.1147 158.796 60.3166 158.532 60.4761C158.268 60.6307 157.959 60.7079 157.605 60.7079C157.241 60.7079 156.91 60.6182 156.61 60.4387C156.316 60.2593 156.084 60.0075 155.915 59.6835C155.746 59.3595 155.661 58.9906 155.661 58.5768ZM159.13 58.5843C159.13 58.2752 159.068 58.006 158.943 57.7767C158.819 57.5474 158.649 57.3729 158.435 57.2533C158.226 57.1286 157.994 57.0663 157.74 57.0663C157.485 57.0663 157.253 57.1261 157.044 57.2458C156.835 57.3654 156.668 57.5399 156.543 57.7692C156.418 57.9985 156.356 58.2677 156.356 58.5768C156.356 58.8909 156.418 59.165 156.543 59.3993C156.668 59.6287 156.835 59.8056 157.044 59.9303C157.253 60.0499 157.485 60.1097 157.74 60.1097C157.994 60.1097 158.226 60.0499 158.435 59.9303C158.649 59.8056 158.819 59.6287 158.943 59.3993C159.068 59.165 159.13 58.8934 159.13 58.5843ZM164.707 58.4347C164.707 58.5643 164.7 58.7014 164.685 58.846H161.409C161.434 59.2498 161.571 59.5663 161.821 59.7957C162.075 60.02 162.381 60.1321 162.74 60.1321C163.035 60.1321 163.279 60.0648 163.473 59.9303C163.673 59.7907 163.812 59.6062 163.892 59.3769H164.625C164.515 59.7707 164.296 60.0923 163.967 60.3415C163.638 60.5858 163.229 60.7079 162.74 60.7079C162.352 60.7079 162.003 60.6207 161.694 60.4462C161.389 60.2717 161.15 60.025 160.976 59.7059C160.801 59.3819 160.714 59.008 160.714 58.5843C160.714 58.1606 160.799 57.7892 160.968 57.4701C161.138 57.1511 161.375 56.9068 161.679 56.7373C161.988 56.5628 162.342 56.4756 162.74 56.4756C163.129 56.4756 163.473 56.5603 163.772 56.7298C164.071 56.8993 164.301 57.1336 164.46 57.4327C164.625 57.7268 164.707 58.0608 164.707 58.4347ZM164.004 58.2927C164.004 58.0334 163.947 57.8116 163.832 57.6271C163.717 57.4377 163.56 57.2956 163.361 57.2009C163.167 57.1012 162.95 57.0514 162.711 57.0514C162.367 57.0514 162.072 57.161 161.828 57.3804C161.589 57.5997 161.452 57.9038 161.417 58.2927H164.004ZM167.602 56.4681C168.1 56.4681 168.504 56.6202 168.813 56.9243C169.122 57.2234 169.277 57.6571 169.277 58.2254V60.6406H168.604V58.3226C168.604 57.9138 168.502 57.6022 168.297 57.3879C168.093 57.1685 167.814 57.0588 167.46 57.0588C167.101 57.0588 166.814 57.171 166.6 57.3953C166.39 57.6197 166.286 57.9462 166.286 58.3749V60.6406H165.605V56.5429H166.286V57.1261C166.42 56.9168 166.602 56.7548 166.832 56.6401C167.066 56.5254 167.323 56.4681 167.602 56.4681ZM171.218 57.1037V59.519C171.218 59.7184 171.261 59.8605 171.345 59.9452C171.43 60.025 171.577 60.0648 171.787 60.0648H172.288V60.6406H171.674C171.296 60.6406 171.011 60.5534 170.822 60.3789C170.633 60.2044 170.538 59.9178 170.538 59.519V57.1037H170.007V56.5429H170.538V55.511H171.218V56.5429H172.288V57.1037H171.218ZM173.463 55.8774C173.334 55.8774 173.224 55.8325 173.134 55.7428C173.045 55.6531 173 55.5434 173 55.4138C173 55.2842 173.045 55.1745 173.134 55.0848C173.224 54.995 173.334 54.9502 173.463 54.9502C173.588 54.9502 173.693 54.995 173.778 55.0848C173.867 55.1745 173.912 55.2842 173.912 55.4138C173.912 55.5434 173.867 55.6531 173.778 55.7428C173.693 55.8325 173.588 55.8774 173.463 55.8774ZM173.793 56.5429V60.6406H173.112V56.5429H173.793ZM176.62 57.1037H175.76V60.6406H175.079V57.1037H174.548V56.5429H175.079V56.2513C175.079 55.7926 175.197 55.4586 175.431 55.2493C175.67 55.0349 176.051 54.9277 176.575 54.9277V55.496C176.276 55.496 176.064 55.5558 175.939 55.6755C175.82 55.7901 175.76 55.9821 175.76 56.2513V56.5429H176.62V57.1037ZM180.943 56.5429L178.475 62.5698H177.772L178.58 60.5958L176.927 56.5429H177.682L178.968 59.863L180.24 56.5429H180.943Z" fill="#E2E2E2"/>
<rect x="256.358" y="97.897" width="42.8723" height="42.8723" rx="6.48091" fill="url(#paint6_linear_10157_98701)"/>
<rect x="256.358" y="97.897" width="42.8723" height="42.8723" rx="6.48091" stroke="url(#paint7_linear_10157_98701)" stroke-width="0.747141"/>
<path d="M284.026 104.986H271.564C271.233 104.986 270.916 105.118 270.682 105.351C270.449 105.585 270.317 105.902 270.317 106.233V110.81C270.317 117.79 276.223 120.106 277.406 120.499C277.658 120.585 277.932 120.585 278.184 120.499C279.368 120.106 285.273 117.79 285.273 110.81V106.233C285.273 105.902 285.141 105.585 284.908 105.351C284.674 105.118 284.357 104.986 284.026 104.986ZM281.352 110.412L276.99 114.774C276.932 114.832 276.863 114.878 276.787 114.909C276.712 114.941 276.631 114.957 276.549 114.957C276.467 114.957 276.386 114.941 276.31 114.909C276.234 114.878 276.166 114.832 276.108 114.774L274.238 112.905C274.122 112.788 274.056 112.629 274.056 112.464C274.056 112.299 274.122 112.14 274.238 112.023C274.355 111.906 274.514 111.84 274.679 111.84C274.845 111.84 275.003 111.906 275.12 112.023L276.549 113.452L280.47 109.531C280.528 109.473 280.596 109.427 280.672 109.395C280.748 109.364 280.829 109.348 280.911 109.348C280.993 109.348 281.074 109.364 281.149 109.395C281.225 109.427 281.294 109.473 281.352 109.531C281.409 109.588 281.455 109.657 281.487 109.733C281.518 109.808 281.534 109.89 281.534 109.971C281.534 110.053 281.518 110.134 281.487 110.21C281.455 110.286 281.409 110.354 281.352 110.412Z" fill="white"/>
<path d="M268.354 130.485C268.354 130.919 268.205 131.281 267.906 131.57C267.612 131.854 267.16 131.996 266.552 131.996H265.55V134.172H264.87V128.96H266.552C267.14 128.96 267.587 129.102 267.891 129.386C268.2 129.67 268.354 130.037 268.354 130.485ZM266.552 131.435C266.931 131.435 267.21 131.353 267.39 131.188C267.569 131.024 267.659 130.79 267.659 130.485C267.659 129.842 267.29 129.521 266.552 129.521H265.55V131.435H266.552ZM269.88 130.74C270 130.505 270.17 130.323 270.389 130.194C270.613 130.064 270.885 129.999 271.204 129.999V130.702H271.025C270.262 130.702 269.88 131.116 269.88 131.944V134.172H269.2V130.074H269.88V130.74ZM273.777 134.239C273.393 134.239 273.044 134.152 272.73 133.977C272.421 133.803 272.176 133.556 271.997 133.237C271.823 132.913 271.735 132.539 271.735 132.116C271.735 131.697 271.825 131.328 272.004 131.009C272.189 130.685 272.438 130.438 272.752 130.269C273.066 130.094 273.418 130.007 273.807 130.007C274.195 130.007 274.547 130.094 274.861 130.269C275.175 130.438 275.422 130.682 275.601 131.001C275.786 131.32 275.878 131.692 275.878 132.116C275.878 132.539 275.783 132.913 275.594 133.237C275.409 133.556 275.158 133.803 274.838 133.977C274.519 134.152 274.166 134.239 273.777 134.239ZM273.777 133.641C274.021 133.641 274.25 133.584 274.465 133.469C274.679 133.354 274.851 133.182 274.981 132.953C275.115 132.724 275.182 132.445 275.182 132.116C275.182 131.787 275.118 131.507 274.988 131.278C274.858 131.049 274.689 130.879 274.48 130.77C274.27 130.655 274.043 130.598 273.799 130.598C273.55 130.598 273.321 130.655 273.111 130.77C272.907 130.879 272.742 131.049 272.618 131.278C272.493 131.507 272.431 131.787 272.431 132.116C272.431 132.45 272.491 132.731 272.61 132.961C272.735 133.19 272.899 133.362 273.104 133.476C273.308 133.586 273.532 133.641 273.777 133.641ZM277.603 130.635V133.05C277.603 133.25 277.645 133.392 277.73 133.476C277.814 133.556 277.962 133.596 278.171 133.596H278.672V134.172H278.059C277.68 134.172 277.396 134.085 277.206 133.91C277.017 133.736 276.922 133.449 276.922 133.05V130.635H276.391V130.074H276.922V129.042H277.603V130.074H278.672V130.635H277.603ZM283.235 131.966C283.235 132.096 283.228 132.233 283.213 132.377H279.938C279.962 132.781 280.1 133.098 280.349 133.327C280.603 133.551 280.91 133.663 281.269 133.663C281.563 133.663 281.807 133.596 282.001 133.462C282.201 133.322 282.34 133.137 282.42 132.908H283.153C283.043 133.302 282.824 133.624 282.495 133.873C282.166 134.117 281.757 134.239 281.269 134.239C280.88 134.239 280.531 134.152 280.222 133.977C279.918 133.803 279.678 133.556 279.504 133.237C279.329 132.913 279.242 132.539 279.242 132.116C279.242 131.692 279.327 131.32 279.496 131.001C279.666 130.682 279.903 130.438 280.207 130.269C280.516 130.094 280.87 130.007 281.269 130.007C281.657 130.007 282.001 130.092 282.3 130.261C282.6 130.431 282.829 130.665 282.988 130.964C283.153 131.258 283.235 131.592 283.235 131.966ZM282.532 131.824C282.532 131.565 282.475 131.343 282.36 131.158C282.246 130.969 282.089 130.827 281.889 130.732C281.695 130.632 281.478 130.583 281.239 130.583C280.895 130.583 280.601 130.692 280.356 130.912C280.117 131.131 279.98 131.435 279.945 131.824H282.532ZM283.879 132.116C283.879 131.692 283.964 131.323 284.133 131.009C284.303 130.69 284.537 130.443 284.836 130.269C285.14 130.094 285.487 130.007 285.876 130.007C286.379 130.007 286.793 130.129 287.117 130.373C287.446 130.618 287.663 130.957 287.767 131.39H287.035C286.965 131.141 286.828 130.944 286.623 130.799C286.424 130.655 286.175 130.583 285.876 130.583C285.487 130.583 285.173 130.717 284.933 130.986C284.694 131.251 284.575 131.627 284.575 132.116C284.575 132.609 284.694 132.99 284.933 133.26C285.173 133.529 285.487 133.663 285.876 133.663C286.175 133.663 286.424 133.594 286.623 133.454C286.823 133.314 286.96 133.115 287.035 132.856H287.767C287.658 133.275 287.438 133.611 287.109 133.865C286.78 134.115 286.369 134.239 285.876 134.239C285.487 134.239 285.14 134.152 284.836 133.977C284.537 133.803 284.303 133.556 284.133 133.237C283.964 132.918 283.879 132.544 283.879 132.116ZM289.505 130.635V133.05C289.505 133.25 289.548 133.392 289.633 133.476C289.717 133.556 289.864 133.596 290.074 133.596H290.575V134.172H289.962C289.583 134.172 289.299 134.085 289.109 133.91C288.92 133.736 288.825 133.449 288.825 133.05V130.635H288.294V130.074H288.825V129.042H289.505V130.074H290.575V130.635H289.505Z" fill="#E2E2E2"/>
<rect x="214.608" y="223.768" width="42.8723" height="42.8723" rx="6.48091" fill="url(#paint8_linear_10157_98701)"/>
<rect x="214.608" y="223.768" width="42.8723" height="42.8723" rx="6.48091" stroke="url(#paint9_linear_10157_98701)" stroke-width="0.747141"/>
<path d="M242.277 230.854C242.773 230.854 243.249 231.051 243.6 231.401C243.95 231.752 244.146 232.227 244.146 232.723V241.447C244.146 241.943 243.95 242.418 243.6 242.769C243.249 243.119 242.773 243.316 242.277 243.316H236.669V244.562H238.539C238.704 244.563 238.863 244.628 238.979 244.745C239.096 244.862 239.162 245.02 239.162 245.186C239.162 245.351 239.096 245.509 238.979 245.626C238.863 245.743 238.704 245.808 238.539 245.809H233.554C233.388 245.809 233.23 245.743 233.113 245.626C232.996 245.509 232.931 245.351 232.931 245.186C232.931 245.02 232.996 244.862 233.113 244.745C233.23 244.628 233.389 244.562 233.554 244.562H235.423V243.316H229.814C229.319 243.316 228.844 243.119 228.493 242.769C228.143 242.418 227.945 241.943 227.945 241.447V232.723C227.945 232.227 228.143 231.752 228.493 231.401C228.844 231.051 229.319 230.854 229.814 230.854H242.277ZM229.191 240.2V241.447C229.192 241.612 229.257 241.771 229.374 241.888C229.491 242.004 229.649 242.07 229.814 242.07H242.277C242.442 242.07 242.601 242.004 242.718 241.888C242.835 241.771 242.9 241.612 242.9 241.447V240.2H229.191ZM238.897 233.447C238.732 233.447 238.574 233.513 238.457 233.63L235.782 236.307L234.535 235.058C234.477 235 234.409 234.954 234.333 234.923C234.257 234.892 234.176 234.875 234.094 234.875C234.012 234.875 233.931 234.892 233.855 234.923C233.78 234.954 233.711 235 233.653 235.058C233.595 235.116 233.55 235.185 233.519 235.261C233.487 235.336 233.471 235.417 233.471 235.499C233.471 235.581 233.487 235.662 233.519 235.737C233.55 235.813 233.596 235.882 233.653 235.939L235.342 237.629C235.4 237.687 235.468 237.732 235.544 237.764C235.62 237.795 235.7 237.811 235.782 237.812C235.864 237.812 235.946 237.795 236.021 237.764C236.097 237.732 236.166 237.687 236.224 237.629L239.338 234.512C239.455 234.395 239.521 234.236 239.521 234.07C239.52 233.905 239.455 233.747 239.338 233.63C239.221 233.513 239.063 233.447 238.897 233.447Z" fill="white"/>
<path d="M225.742 254.831C226.311 254.831 226.802 254.938 227.215 255.153C227.634 255.362 227.953 255.664 228.173 256.057C228.397 256.451 228.509 256.915 228.509 257.448C228.509 257.982 228.397 258.445 228.173 258.839C227.953 259.228 227.634 259.527 227.215 259.736C226.802 259.941 226.311 260.043 225.742 260.043H224.12V254.831H225.742ZM225.742 259.482C226.415 259.482 226.929 259.305 227.283 258.951C227.637 258.592 227.814 258.091 227.814 257.448C227.814 256.8 227.634 256.294 227.275 255.93C226.921 255.566 226.41 255.384 225.742 255.384H224.8V259.482H225.742ZM233.145 257.837C233.145 257.967 233.138 258.104 233.123 258.248H229.848C229.873 258.652 230.01 258.969 230.259 259.198C230.513 259.422 230.82 259.534 231.179 259.534C231.473 259.534 231.717 259.467 231.912 259.333C232.111 259.193 232.251 259.009 232.33 258.779H233.063C232.954 259.173 232.734 259.495 232.405 259.744C232.076 259.988 231.667 260.11 231.179 260.11C230.79 260.11 230.441 260.023 230.132 259.849C229.828 259.674 229.589 259.427 229.414 259.108C229.24 258.784 229.152 258.41 229.152 257.987C229.152 257.563 229.237 257.192 229.407 256.872C229.576 256.553 229.813 256.309 230.117 256.14C230.426 255.965 230.78 255.878 231.179 255.878C231.568 255.878 231.912 255.963 232.211 256.132C232.51 256.302 232.739 256.536 232.899 256.835C233.063 257.129 233.145 257.463 233.145 257.837ZM232.443 257.695C232.443 257.436 232.385 257.214 232.271 257.029C232.156 256.84 231.999 256.698 231.799 256.603C231.605 256.504 231.388 256.454 231.149 256.454C230.805 256.454 230.511 256.563 230.267 256.783C230.027 257.002 229.89 257.306 229.855 257.695H232.443ZM234.874 256.506V258.921C234.874 259.121 234.916 259.263 235.001 259.348C235.086 259.427 235.233 259.467 235.442 259.467H235.943V260.043H235.33C234.951 260.043 234.667 259.956 234.477 259.781C234.288 259.607 234.193 259.32 234.193 258.921V256.506H233.662V255.945H234.193V254.913H234.874V255.945H235.943V256.506H234.874ZM240.506 257.837C240.506 257.967 240.499 258.104 240.484 258.248H237.209C237.234 258.652 237.371 258.969 237.62 259.198C237.874 259.422 238.181 259.534 238.54 259.534C238.834 259.534 239.078 259.467 239.272 259.333C239.472 259.193 239.611 259.009 239.691 258.779H240.424C240.314 259.173 240.095 259.495 239.766 259.744C239.437 259.988 239.028 260.11 238.54 260.11C238.151 260.11 237.802 260.023 237.493 259.849C237.189 259.674 236.949 259.427 236.775 259.108C236.6 258.784 236.513 258.41 236.513 257.987C236.513 257.563 236.598 257.192 236.767 256.872C236.937 256.553 237.174 256.309 237.478 256.14C237.787 255.965 238.141 255.878 238.54 255.878C238.928 255.878 239.272 255.963 239.572 256.132C239.871 256.302 240.1 256.536 240.259 256.835C240.424 257.129 240.506 257.463 240.506 257.837ZM239.803 257.695C239.803 257.436 239.746 257.214 239.631 257.029C239.517 256.84 239.36 256.698 239.16 256.603C238.966 256.504 238.749 256.454 238.51 256.454C238.166 256.454 237.872 256.563 237.627 256.783C237.388 257.002 237.251 257.306 237.216 257.695H239.803ZM241.15 257.987C241.15 257.563 241.235 257.194 241.404 256.88C241.574 256.561 241.808 256.314 242.107 256.14C242.411 255.965 242.758 255.878 243.147 255.878C243.65 255.878 244.064 256 244.388 256.244C244.717 256.489 244.934 256.828 245.039 257.261H244.306C244.236 257.012 244.099 256.815 243.894 256.671C243.695 256.526 243.446 256.454 243.147 256.454C242.758 256.454 242.444 256.588 242.204 256.858C241.965 257.122 241.846 257.498 241.846 257.987C241.846 258.48 241.965 258.862 242.204 259.131C242.444 259.4 242.758 259.534 243.147 259.534C243.446 259.534 243.695 259.465 243.894 259.325C244.094 259.186 244.231 258.986 244.306 258.727H245.039C244.929 259.146 244.709 259.482 244.38 259.736C244.051 259.986 243.64 260.11 243.147 260.11C242.758 260.11 242.411 260.023 242.107 259.849C241.808 259.674 241.574 259.427 241.404 259.108C241.235 258.789 241.15 258.415 241.15 257.987ZM246.776 256.506V258.921C246.776 259.121 246.819 259.263 246.904 259.348C246.988 259.427 247.135 259.467 247.345 259.467H247.846V260.043H247.233C246.854 260.043 246.57 259.956 246.38 259.781C246.191 259.607 246.096 259.32 246.096 258.921V256.506H245.565V255.945H246.096V254.913H246.776V255.945H247.846V256.506H246.776Z" fill="#E2E2E2"/>
<rect x="81.2564" y="223.768" width="42.8723" height="42.8723" rx="6.48091" fill="url(#paint10_linear_10157_98701)"/>
<rect x="81.2564" y="223.768" width="42.8723" height="42.8723" rx="6.48091" stroke="url(#paint11_linear_10157_98701)" stroke-width="0.747141"/>
<path d="M110.793 235.839C110.793 235.508 110.662 235.191 110.428 234.957C110.195 234.724 109.878 234.592 109.547 234.592H107.054V232.1C107.054 231.769 106.923 231.452 106.689 231.219C106.456 230.985 106.139 230.854 105.808 230.854H95.8381C95.5075 230.854 95.1905 230.985 94.9568 231.219C94.7231 231.452 94.5918 231.769 94.5918 232.1V242.07C94.5922 242.187 94.6256 242.302 94.6882 242.401C94.7509 242.5 94.8402 242.579 94.946 242.63C95.0517 242.681 95.1696 242.7 95.2861 242.687C95.4025 242.674 95.5129 242.628 95.6044 242.554L98.3306 240.356V242.693C98.3306 243.024 98.4619 243.341 98.6956 243.574C98.9293 243.808 99.2463 243.939 99.5769 243.939H106.867L109.781 246.293C109.891 246.382 110.028 246.431 110.17 246.432C110.335 246.432 110.494 246.366 110.611 246.249C110.728 246.133 110.793 245.974 110.793 245.809V235.839ZM107.479 242.832C107.369 242.743 107.231 242.694 107.09 242.693H99.5769V240.201H105.808C106.139 240.201 106.456 240.069 106.689 239.836C106.923 239.602 107.054 239.285 107.054 238.954V235.839H109.547V244.504L107.479 242.832Z" fill="white"/>
<path d="M89.5124 260.043L88.2712 257.912H87.4486V260.043H86.7682V254.831H88.4506C88.8444 254.831 89.1759 254.898 89.4451 255.033C89.7193 255.168 89.9237 255.35 90.0583 255.579C90.1929 255.808 90.2602 256.07 90.2602 256.364C90.2602 256.723 90.1555 257.039 89.9461 257.314C89.7418 257.588 89.4327 257.77 89.0189 257.86L90.3275 260.043H89.5124ZM87.4486 257.366H88.4506C88.8195 257.366 89.0962 257.276 89.2806 257.097C89.4651 256.912 89.5573 256.668 89.5573 256.364C89.5573 256.055 89.4651 255.816 89.2806 255.646C89.1012 255.477 88.8245 255.392 88.4506 255.392H87.4486V257.366ZM95.0563 257.837C95.0563 257.967 95.0489 258.104 95.0339 258.248H91.7587C91.7836 258.652 91.9207 258.969 92.17 259.198C92.4242 259.422 92.7308 259.534 93.0897 259.534C93.3838 259.534 93.6281 259.467 93.8225 259.333C94.0219 259.193 94.1615 259.009 94.2413 258.779H94.9741C94.8644 259.173 94.6451 259.495 94.316 259.744C93.987 259.988 93.5783 260.11 93.0897 260.11C92.7009 260.11 92.3519 260.023 92.0429 259.849C91.7388 259.674 91.4995 259.427 91.325 259.108C91.1505 258.784 91.0633 258.41 91.0633 257.987C91.0633 257.563 91.148 257.192 91.3175 256.872C91.487 256.553 91.7238 256.309 92.0279 256.14C92.337 255.965 92.6909 255.878 93.0897 255.878C93.4786 255.878 93.8225 255.963 94.1216 256.132C94.4207 256.302 94.65 256.536 94.8096 256.835C94.9741 257.129 95.0563 257.463 95.0563 257.837ZM94.3534 257.695C94.3534 257.436 94.2961 257.214 94.1815 257.029C94.0668 256.84 93.9098 256.698 93.7104 256.603C93.5159 256.504 93.2991 256.454 93.0598 256.454C92.7158 256.454 92.4217 256.563 92.1775 256.783C91.9382 257.002 91.8011 257.306 91.7662 257.695H94.3534ZM97.4052 260.11C97.0911 260.11 96.8095 260.058 96.5602 259.953C96.311 259.844 96.114 259.694 95.9695 259.505C95.8249 259.31 95.7451 259.088 95.7302 258.839H96.4331C96.453 259.043 96.5477 259.21 96.7172 259.34C96.8917 259.47 97.1185 259.534 97.3977 259.534C97.6569 259.534 97.8613 259.477 98.0109 259.363C98.1604 259.248 98.2352 259.103 98.2352 258.929C98.2352 258.749 98.1554 258.617 97.9959 258.532C97.8364 258.443 97.5896 258.356 97.2556 258.271C96.9515 258.191 96.7023 258.111 96.5079 258.031C96.3184 257.947 96.1539 257.825 96.0143 257.665C95.8797 257.501 95.8124 257.286 95.8124 257.022C95.8124 256.813 95.8748 256.621 95.9994 256.446C96.124 256.272 96.301 256.135 96.5303 256.035C96.7596 255.93 97.0213 255.878 97.3154 255.878C97.7691 255.878 98.1355 255.993 98.4147 256.222C98.6938 256.451 98.8434 256.765 98.8633 257.164H98.1828C98.1679 256.95 98.0807 256.778 97.9211 256.648C97.7666 256.519 97.5572 256.454 97.293 256.454C97.0487 256.454 96.8543 256.506 96.7098 256.611C96.5652 256.715 96.4929 256.853 96.4929 257.022C96.4929 257.157 96.5353 257.269 96.62 257.359C96.7098 257.443 96.8194 257.513 96.949 257.568C97.0836 257.618 97.2681 257.675 97.5024 257.74C97.7965 257.82 98.0358 257.899 98.2202 257.979C98.4047 258.054 98.5617 258.169 98.6913 258.323C98.8259 258.478 98.8957 258.68 98.9007 258.929C98.9007 259.153 98.8384 259.355 98.7138 259.534C98.5891 259.714 98.4122 259.856 98.1828 259.961C97.9585 260.06 97.6993 260.11 97.4052 260.11ZM100.542 256.7C100.676 256.466 100.876 256.272 101.14 256.117C101.409 255.958 101.721 255.878 102.075 255.878C102.439 255.878 102.768 255.965 103.062 256.14C103.361 256.314 103.595 256.561 103.765 256.88C103.934 257.194 104.019 257.56 104.019 257.979C104.019 258.393 103.934 258.762 103.765 259.086C103.595 259.41 103.361 259.662 103.062 259.841C102.768 260.021 102.439 260.11 102.075 260.11C101.726 260.11 101.417 260.033 101.147 259.878C100.883 259.719 100.681 259.522 100.542 259.288V261.987H99.8613V255.945H100.542V256.7ZM103.323 257.979C103.323 257.67 103.261 257.401 103.136 257.172C103.012 256.942 102.842 256.768 102.628 256.648C102.419 256.528 102.187 256.469 101.933 256.469C101.683 256.469 101.452 256.531 101.237 256.656C101.028 256.775 100.858 256.952 100.729 257.187C100.604 257.416 100.542 257.683 100.542 257.987C100.542 258.296 100.604 258.567 100.729 258.802C100.858 259.031 101.028 259.208 101.237 259.333C101.452 259.452 101.683 259.512 101.933 259.512C102.187 259.512 102.419 259.452 102.628 259.333C102.842 259.208 103.012 259.031 103.136 258.802C103.261 258.567 103.323 258.293 103.323 257.979ZM106.702 260.11C106.318 260.11 105.969 260.023 105.655 259.849C105.346 259.674 105.101 259.427 104.922 259.108C104.748 258.784 104.66 258.41 104.66 257.987C104.66 257.568 104.75 257.199 104.929 256.88C105.114 256.556 105.363 256.309 105.677 256.14C105.991 255.965 106.343 255.878 106.732 255.878C107.12 255.878 107.472 255.965 107.786 256.14C108.1 256.309 108.347 256.553 108.526 256.872C108.711 257.192 108.803 257.563 108.803 257.987C108.803 258.41 108.708 258.784 108.519 259.108C108.334 259.427 108.083 259.674 107.763 259.849C107.444 260.023 107.09 260.11 106.702 260.11ZM106.702 259.512C106.946 259.512 107.175 259.455 107.39 259.34C107.604 259.225 107.776 259.053 107.906 258.824C108.04 258.595 108.107 258.316 108.107 257.987C108.107 257.658 108.043 257.378 107.913 257.149C107.783 256.92 107.614 256.75 107.405 256.641C107.195 256.526 106.968 256.469 106.724 256.469C106.475 256.469 106.246 256.526 106.036 256.641C105.832 256.75 105.667 256.92 105.543 257.149C105.418 257.378 105.356 257.658 105.356 257.987C105.356 258.321 105.416 258.602 105.535 258.832C105.66 259.061 105.824 259.233 106.029 259.348C106.233 259.457 106.457 259.512 106.702 259.512ZM111.694 255.87C112.193 255.87 112.596 256.023 112.905 256.327C113.215 256.626 113.369 257.059 113.369 257.628V260.043H112.696V257.725C112.696 257.316 112.594 257.005 112.389 256.79C112.185 256.571 111.906 256.461 111.552 256.461C111.193 256.461 110.906 256.573 110.692 256.798C110.483 257.022 110.378 257.349 110.378 257.777V260.043H109.698V255.945H110.378V256.528C110.513 256.319 110.695 256.157 110.924 256.042C111.158 255.928 111.415 255.87 111.694 255.87ZM114.226 257.979C114.226 257.56 114.311 257.194 114.481 256.88C114.65 256.561 114.882 256.314 115.176 256.14C115.475 255.965 115.809 255.878 116.178 255.878C116.497 255.878 116.794 255.953 117.068 256.102C117.342 256.247 117.551 256.439 117.696 256.678V254.51H118.384V260.043H117.696V259.273C117.561 259.517 117.362 259.719 117.098 259.878C116.834 260.033 116.524 260.11 116.171 260.11C115.807 260.11 115.475 260.021 115.176 259.841C114.882 259.662 114.65 259.41 114.481 259.086C114.311 258.762 114.226 258.393 114.226 257.979ZM117.696 257.987C117.696 257.678 117.634 257.408 117.509 257.179C117.384 256.95 117.215 256.775 117.001 256.656C116.791 256.531 116.559 256.469 116.305 256.469C116.051 256.469 115.819 256.528 115.61 256.648C115.4 256.768 115.233 256.942 115.109 257.172C114.984 257.401 114.922 257.67 114.922 257.979C114.922 258.293 114.984 258.567 115.109 258.802C115.233 259.031 115.4 259.208 115.61 259.333C115.819 259.452 116.051 259.512 116.305 259.512C116.559 259.512 116.791 259.452 117.001 259.333C117.215 259.208 117.384 259.031 117.509 258.802C117.634 258.567 117.696 258.296 117.696 257.987Z" fill="#E2E2E2"/>
</g>
<rect x="0.811567" y="0.311567" width="333.377" height="292.25" rx="9.68843" stroke="url(#paint12_linear_10157_98701)" stroke-opacity="0.47" stroke-width="0.623134"/>
<defs>
<linearGradient id="paint0_linear_10157_98701" x1="167.5" y1="0" x2="167.5" y2="292.873" gradientUnits="userSpaceOnUse">
<stop stop-color="#161C20"/>
<stop offset="1" stop-color="#0A0D0F"/>
</linearGradient>
<radialGradient id="paint1_radial_10157_98701" cx="0" cy="0" r="1" gradientUnits="userSpaceOnUse" gradientTransform="translate(170.348 145.462) rotate(90) scale(152.345 199.689)">
<stop stop-color="#D9D9D9" stop-opacity="0.3"/>
<stop offset="1" stop-color="#737373"/>
</radialGradient>
<linearGradient id="paint2_linear_10157_98701" x1="57.2042" y1="97.5234" x2="57.2042" y2="141.143" gradientUnits="userSpaceOnUse">
<stop stop-color="#161C20"/>
<stop offset="1" stop-color="#0A0D0F"/>
</linearGradient>
<linearGradient id="paint3_linear_10157_98701" x1="57.2042" y1="119.319" x2="57.2042" y2="141.143" gradientUnits="userSpaceOnUse">
<stop stop-color="#3B3D3F" stop-opacity="0.5"/>
<stop offset="1" stop-color="#3B3D3F" stop-opacity="0.89"/>
</linearGradient>
<linearGradient id="paint4_linear_10157_98701" x1="167.499" y1="23.9922" x2="167.499" y2="67.6116" gradientUnits="userSpaceOnUse">
<stop stop-color="#161C20"/>
<stop offset="1" stop-color="#0A0D0F"/>
</linearGradient>
<linearGradient id="paint5_linear_10157_98701" x1="167.499" y1="45.7873" x2="167.499" y2="67.6116" gradientUnits="userSpaceOnUse">
<stop stop-color="#3B3D3F" stop-opacity="0.5"/>
<stop offset="1" stop-color="#3B3D3F" stop-opacity="0.89"/>
</linearGradient>
<linearGradient id="paint6_linear_10157_98701" x1="277.794" y1="97.5234" x2="277.794" y2="141.143" gradientUnits="userSpaceOnUse">
<stop stop-color="#161C20"/>
<stop offset="1" stop-color="#0A0D0F"/>
</linearGradient>
<linearGradient id="paint7_linear_10157_98701" x1="277.794" y1="119.319" x2="277.794" y2="141.143" gradientUnits="userSpaceOnUse">
<stop stop-color="#3B3D3F" stop-opacity="0.5"/>
<stop offset="1" stop-color="#3B3D3F" stop-opacity="0.89"/>
</linearGradient>
<linearGradient id="paint8_linear_10157_98701" x1="236.044" y1="223.395" x2="236.044" y2="267.014" gradientUnits="userSpaceOnUse">
<stop stop-color="#161C20"/>
<stop offset="1" stop-color="#0A0D0F"/>
</linearGradient>
<linearGradient id="paint9_linear_10157_98701" x1="236.044" y1="245.19" x2="236.044" y2="267.014" gradientUnits="userSpaceOnUse">
<stop stop-color="#3B3D3F" stop-opacity="0.5"/>
<stop offset="1" stop-color="#3B3D3F" stop-opacity="0.89"/>
</linearGradient>
<linearGradient id="paint10_linear_10157_98701" x1="102.693" y1="223.395" x2="102.693" y2="267.014" gradientUnits="userSpaceOnUse">
<stop stop-color="#161C20"/>
<stop offset="1" stop-color="#0A0D0F"/>
</linearGradient>
<linearGradient id="paint11_linear_10157_98701" x1="102.693" y1="245.19" x2="102.693" y2="267.014" gradientUnits="userSpaceOnUse">
<stop stop-color="#3B3D3F" stop-opacity="0.5"/>
<stop offset="1" stop-color="#3B3D3F" stop-opacity="0.89"/>
</linearGradient>
<linearGradient id="paint12_linear_10157_98701" x1="167.5" y1="0" x2="167.5" y2="292.873" gradientUnits="userSpaceOnUse">
<stop stop-color="#3B3D3F" stop-opacity="0.4"/>
<stop offset="1" stop-color="#3B3D3F"/>
</linearGradient>
<clipPath id="clip0_10157_98701">
<rect x="0.5" width="334" height="292.873" rx="10" fill="white"/>
</clipPath>
</defs>
</svg>
