<svg width="25" height="25" viewBox="0 0 25 25" fill="none" xmlns="http://www.w3.org/2000/svg">
<path d="M21.5 15.8731H20.75V15.4981C20.75 14.8019 20.4734 14.1342 19.9812 13.6419C19.4889 13.1496 18.8212 12.8731 18.125 12.8731C17.4288 12.8731 16.7611 13.1496 16.2688 13.6419C15.7766 14.1342 15.5 14.8019 15.5 15.4981V15.8731H14.75C14.5511 15.8731 14.3603 15.9521 14.2197 16.0927C14.079 16.2334 14 16.4241 14 16.6231V20.3731C14 20.572 14.079 20.7627 14.2197 20.9034C14.3603 21.044 14.5511 21.1231 14.75 21.1231H21.5C21.6989 21.1231 21.8897 21.044 22.0303 20.9034C22.171 20.7627 22.25 20.572 22.25 20.3731V16.6231C22.25 16.4241 22.171 16.2334 22.0303 16.0927C21.8897 15.9521 21.6989 15.8731 21.5 15.8731ZM17 15.4981C17 15.1997 17.1185 14.9135 17.3295 14.7026C17.5405 14.4916 17.8266 14.3731 18.125 14.3731C18.4234 14.3731 18.7095 14.4916 18.9205 14.7026C19.1315 14.9135 19.25 15.1997 19.25 15.4981V15.8731H17V15.4981ZM20.75 19.6231H15.5V17.3731H20.75V19.6231ZM20.75 7.62305H12.8103L10.25 5.06274C10.1112 4.92285 9.94601 4.81194 9.76398 4.73645C9.58196 4.66097 9.38674 4.62242 9.18969 4.62305H4.25C3.85218 4.62305 3.47064 4.78109 3.18934 5.06239C2.90804 5.3437 2.75 5.72523 2.75 6.12305V19.6812C2.7505 20.0634 2.90257 20.4299 3.17286 20.7002C3.44316 20.9705 3.80962 21.1226 4.19188 21.1231H11.0525C11.2514 21.1231 11.4422 21.044 11.5828 20.9034C11.7235 20.7627 11.8025 20.572 11.8025 20.3731C11.8025 20.1741 11.7235 19.9834 11.5828 19.8427C11.4422 19.7021 11.2514 19.6231 11.0525 19.6231H4.25V9.12305H20.75V10.6231C20.75 10.822 20.829 11.0127 20.9697 11.1534C21.1103 11.294 21.3011 11.3731 21.5 11.3731C21.6989 11.3731 21.8897 11.294 22.0303 11.1534C22.171 11.0127 22.25 10.822 22.25 10.6231V9.12305C22.25 8.72523 22.092 8.3437 21.8107 8.06239C21.5294 7.78109 21.1478 7.62305 20.75 7.62305ZM9.18969 6.12305L10.6897 7.62305H4.25V6.12305H9.18969Z" fill="#FF5500"/>
</svg>
