<svg width="25" height="25" viewBox="0 0 25 25" fill="none" xmlns="http://www.w3.org/2000/svg">
<path d="M20 4.62305L12.9545 2.97909C12.6555 2.90933 12.3445 2.90933 12.0455 2.97909L5 4.62305C4.60218 4.62305 4.22064 4.78108 3.93934 5.06239C3.65804 5.34369 3.5 5.72522 3.5 6.12305V11.6337C3.5 20.0346 10.6081 22.8218 12.0312 23.2952C12.3352 23.3986 12.6648 23.3986 12.9688 23.2952C14.3938 22.8218 21.5 20.0346 21.5 11.6337V6.12305C21.5 5.72522 21.342 5.34369 21.0607 5.06239C20.7794 4.78108 20.3978 4.62305 20 4.62305ZM20 11.6346C20 18.9865 13.7797 21.4427 12.5 21.8702C11.2316 21.4474 5 18.993 5 11.6346V6.12305L12.0455 4.47909C12.3445 4.40933 12.6555 4.40933 12.9545 4.47909L20 6.12305V11.6346Z" fill="#FF5500"/>
<path d="M11.6598 16.3786L13.9458 13.173H10.4922L13.326 9.86719" stroke="#FF5500" stroke-width="1.5" stroke-miterlimit="10" stroke-linecap="round" stroke-linejoin="round"/>
</svg>
