<svg width="335" height="373" viewBox="0 0 335 373" fill="none" xmlns="http://www.w3.org/2000/svg">
<g opacity="0.3">
<path fill-rule="evenodd" clip-rule="evenodd" d="M114.106 26.4016C121.607 30.8541 130.333 32.2359 138.752 30.7005C155.437 28.551 167.53 46.8216 158.958 61.4079C150.692 76.1472 128.802 74.6117 122.372 59.1045C107.217 19.7995 51.1903 19.7995 35.8826 59.1045C29.6063 74.6117 7.56296 76.1472 -0.703306 61.4079C-9.12265 46.8216 2.97057 28.551 19.5031 30.7005C27.9225 32.2359 36.648 30.7006 44.149 26.4016C51.8026 22.1025 57.3135 15.3469 60.2223 7.20952C66.9578 -9.5259 91.297 -9.5259 98.0329 7.20952C100.941 15.1934 106.605 22.1025 114.106 26.4016ZM79.2041 47.5896C95.8897 47.5896 105.687 67.0887 95.4304 80.5997C89.9195 87.0484 86.8581 95.339 86.8581 104.091C86.8581 112.688 89.9195 120.98 95.4304 127.582C105.84 141.093 95.8897 160.746 79.2041 160.592C62.5185 160.592 52.7212 141.093 62.9778 127.582C68.4887 121.133 71.55 112.842 71.55 104.091C71.55 95.4929 68.4887 87.2019 62.9778 80.5997C52.5683 67.0887 62.5185 47.4362 79.2041 47.5896Z" fill="url(#paint0_linear_8985_208527)"/>
<path fill-rule="evenodd" clip-rule="evenodd" d="M170.717 135.252C162.243 130.243 152.385 128.688 142.874 130.416C124.024 132.834 110.363 112.28 120.047 95.8699C129.386 79.2883 154.115 81.0157 161.378 98.4613C178.499 142.679 241.793 142.679 259.086 98.4613C266.177 81.0157 291.079 79.2882 300.418 95.8699C309.929 112.28 296.267 132.834 277.59 130.416C268.079 128.688 258.222 130.416 249.748 135.252C241.101 140.089 234.876 147.689 231.589 156.843C223.98 175.67 196.484 175.67 188.875 156.843C185.589 147.861 179.19 140.089 170.717 135.252ZM210.146 111.416C191.296 111.416 180.228 89.4791 191.815 74.2791C198.04 67.0243 201.499 57.6975 201.499 47.8518C201.499 38.1793 198.04 28.8519 191.815 21.4245C180.055 6.22454 191.296 -15.885 210.146 -15.7119C228.995 -15.7119 240.063 6.22454 228.477 21.4245C222.251 28.6788 218.792 38.0062 218.792 47.8518C218.792 57.5244 222.251 66.8517 228.477 74.2791C240.236 89.4791 228.995 111.588 210.146 111.416Z" fill="#EBECEC"/>
<path fill-rule="evenodd" clip-rule="evenodd" d="M376.144 26.4016C383.645 30.8541 392.371 32.2359 400.79 30.7005C417.476 28.551 429.569 46.8216 420.997 61.4079C412.73 76.1472 390.84 74.6117 384.411 59.1045C369.256 19.7995 313.229 19.7995 297.921 59.1045C291.645 74.6117 269.602 76.1472 261.335 61.4079C252.916 46.8216 265.009 28.551 281.542 30.7005C289.961 32.2359 298.687 30.7006 306.188 26.4016C313.841 22.1025 319.352 15.3469 322.261 7.20952C328.996 -9.5259 353.336 -9.5259 360.071 7.20952C362.98 15.1934 368.644 22.1025 376.144 26.4016ZM341.243 47.5896C357.928 47.5896 367.725 67.0887 357.469 80.5997C351.958 87.0484 348.897 95.339 348.897 104.091C348.897 112.688 351.958 120.98 357.469 127.582C367.878 141.093 357.928 160.746 341.243 160.592C324.557 160.592 314.76 141.093 325.016 127.582C330.527 121.133 333.589 112.842 333.589 104.091C333.589 95.4929 330.527 87.2019 325.016 80.5997C314.607 67.0887 324.557 47.4362 341.243 47.5896Z" fill="#EBECEC"/>
</g>
<circle cx="167" cy="573.808" r="270.256" stroke="url(#paint1_radial_8985_208527)" stroke-opacity="0.6" stroke-width="204.653" stroke-dasharray="0.35 2.77"/>
<g filter="url(#filter0_d_8985_208527)">
<circle cx="167" cy="573.808" r="369.125" stroke="url(#paint2_linear_8985_208527)" stroke-width="6.91395" shape-rendering="crispEdges"/>
</g>
<circle cx="166.999" cy="574.003" r="369.495" stroke="#CECFCF" stroke-dasharray="0.69 1.38"/>
<rect x="36.1052" y="174.33" width="261.736" height="171.308" rx="25.6977" fill="#FDFDFD" stroke="#9D9E9F" stroke-dasharray="0.64 3.19"/>
<rect x="42.2327" y="180.562" width="249.481" height="158.842" rx="19.947" fill="#FEFEFE" stroke="#EBECEC"/>
<g filter="url(#filter1_i_8985_208527)">
<rect x="48.1226" y="186.718" width="237.827" height="146.901" rx="14.0573" fill="#F3F3F5"/>
</g>
<rect x="48.2823" y="186.878" width="237.507" height="146.582" rx="13.8975" stroke="url(#paint3_linear_8985_208527)" stroke-width="0.319484"/>
<g clip-path="url(#clip0_8985_208527)">
<rect x="51.947" y="190.617" width="229.72" height="138.768" rx="10.2235" fill="#FEFEFE"/>
<path d="M63.2908 238.569H268.635" stroke="#F5F5F5" stroke-width="0.638967"/>
<path d="M63.2908 251.429H268.635" stroke="#F5F5F5" stroke-width="0.638967"/>
<path d="M63.2908 264.289H268.635" stroke="#F5F5F5" stroke-width="0.638967"/>
<path d="M63.2908 277.149H268.635" stroke="#F5F5F5" stroke-width="0.638967"/>
<path d="M63.2908 290.009H268.635" stroke="#F5F5F5" stroke-width="0.638967"/>
<path d="M63.2908 302.869H268.635" stroke="#F5F5F5" stroke-width="0.638967"/>
<g filter="url(#filter2_d_8985_208527)">
<path d="M269.193 287.381L240.957 283.973C240.492 283.917 240.035 283.813 239.593 283.663L222.227 277.763C221.369 277.471 220.461 277.356 219.558 277.422L208.925 278.205C207.836 278.285 206.744 278.1 205.742 277.666L199.101 274.787C197.897 274.265 196.567 274.105 195.273 274.327L185.956 275.924C184.686 276.141 183.38 275.991 182.193 275.491L175.242 272.565C173.905 272.002 172.422 271.884 171.013 272.23L167.245 273.153L162.874 274.401C161.609 274.763 160.252 274.618 159.092 273.998V273.998C158.068 273.451 156.888 273.272 155.749 273.49L153.766 273.869C151.849 274.236 149.868 273.756 148.332 272.553L139.746 265.833C139.154 265.369 138.488 265.008 137.776 264.763L127.239 261.144C125.682 260.609 123.984 260.661 122.463 261.29L118.066 263.108C116.087 263.926 113.816 263.573 112.178 262.194L112.03 262.069C110.889 261.108 109.396 260.672 107.917 260.869V260.869C106.46 261.063 104.988 260.642 103.853 259.709L100.325 256.808C98.8201 255.57 96.8539 255.043 94.9314 255.361L92.767 255.719C91.6396 255.905 90.4832 255.803 89.4062 255.421L85.1044 253.895C84.4649 253.668 83.7948 253.539 83.1167 253.512L77.4621 253.285C76.7964 253.259 76.1426 253.1 75.5386 252.819L75.247 252.683C74.0669 252.134 72.703 252.141 71.5289 252.703V252.703C70.2814 253.301 68.8244 253.27 67.6033 252.62L63.4042 250.386" stroke="#1C76FD" stroke-width="0.958451" stroke-linecap="round" stroke-linejoin="round"/>
</g>
<path opacity="0.8" d="M67.3689 206.415C67.7225 206.481 68.0131 206.658 68.2408 206.946C68.4685 207.233 68.5823 207.563 68.5823 207.934C68.5823 208.27 68.4984 208.566 68.3307 208.824C68.1689 209.076 67.9322 209.274 67.6206 209.417C67.309 209.561 66.9405 209.633 66.5151 209.633H63.8096V203.359H66.3982C66.8237 203.359 67.1892 203.428 67.4948 203.566C67.8064 203.704 68.04 203.896 68.1958 204.141C68.3576 204.387 68.4385 204.666 68.4385 204.977C68.4385 205.343 68.3397 205.648 68.1419 205.894C67.9502 206.14 67.6925 206.313 67.3689 206.415ZM65.068 205.948H66.2185C66.5181 205.948 66.7488 205.882 66.9105 205.75C67.0723 205.612 67.1532 205.418 67.1532 205.166C67.1532 204.914 67.0723 204.72 66.9105 204.582C66.7488 204.444 66.5181 204.375 66.2185 204.375H65.068V205.948ZM66.3353 208.608C66.6409 208.608 66.8776 208.537 67.0454 208.393C67.2191 208.249 67.306 208.045 67.306 207.782C67.306 207.512 67.2161 207.302 67.0364 207.152C66.8566 206.997 66.6139 206.919 66.3083 206.919H65.068V208.608H66.3353ZM74.286 204.654V209.633H73.0187V209.004C72.8569 209.22 72.6442 209.39 72.3805 209.516C72.1229 209.636 71.8412 209.696 71.5356 209.696C71.1461 209.696 70.8016 209.615 70.502 209.453C70.2024 209.286 69.9657 209.043 69.7919 208.725C69.6242 208.402 69.5403 208.018 69.5403 207.575V204.654H70.7986V207.395C70.7986 207.79 70.8975 208.096 71.0952 208.312C71.293 208.522 71.5626 208.626 71.9041 208.626C72.2517 208.626 72.5243 208.522 72.7221 208.312C72.9198 208.096 73.0187 207.79 73.0187 207.395V204.654H74.286ZM75.204 207.125C75.204 206.622 75.3029 206.176 75.5006 205.786C75.7043 205.397 75.98 205.097 76.3275 204.887C76.675 204.678 77.0615 204.573 77.487 204.573C77.8105 204.573 78.1191 204.645 78.4127 204.788C78.7064 204.926 78.9401 205.112 79.1138 205.346V202.982H80.3901V209.633H79.1138V208.896C78.958 209.142 78.7393 209.339 78.4577 209.489C78.1761 209.639 77.8495 209.714 77.478 209.714C77.0585 209.714 76.675 209.606 76.3275 209.39C75.98 209.175 75.7043 208.872 75.5006 208.483C75.3029 208.087 75.204 207.635 75.204 207.125ZM79.1228 207.143C79.1228 206.838 79.0629 206.577 78.943 206.361C78.8232 206.14 78.6614 205.972 78.4577 205.858C78.254 205.738 78.0352 205.678 77.8016 205.678C77.5679 205.678 77.3521 205.735 77.1544 205.849C76.9567 205.963 76.7949 206.131 76.6691 206.352C76.5492 206.568 76.4893 206.826 76.4893 207.125C76.4893 207.425 76.5492 207.689 76.6691 207.916C76.7949 208.138 76.9567 208.309 77.1544 208.429C77.3581 208.548 77.5739 208.608 77.8016 208.608C78.0352 208.608 78.254 208.551 78.4577 208.438C78.6614 208.318 78.8232 208.15 78.943 207.934C79.0629 207.713 79.1228 207.449 79.1228 207.143ZM83.5695 204.573C83.9411 204.573 84.2676 204.648 84.5493 204.797C84.8309 204.941 85.0526 205.13 85.2144 205.364V204.654H86.4817V209.669C86.4817 210.13 86.3888 210.541 86.2031 210.9C86.0173 211.266 85.7387 211.554 85.3672 211.763C84.9957 211.979 84.5463 212.087 84.019 212.087C83.3119 212.087 82.7307 211.922 82.2753 211.592C81.8259 211.263 81.5712 210.813 81.5113 210.244H82.7606C82.8265 210.472 82.9673 210.652 83.1831 210.784C83.4048 210.921 83.6714 210.99 83.983 210.99C84.3485 210.99 84.6451 210.879 84.8728 210.658C85.1005 210.442 85.2144 210.112 85.2144 209.669V208.896C85.0526 209.13 84.8279 209.324 84.5403 209.48C84.2586 209.636 83.9351 209.714 83.5695 209.714C83.1501 209.714 82.7666 209.606 82.4191 209.39C82.0715 209.175 81.7959 208.872 81.5922 208.483C81.3944 208.087 81.2956 207.635 81.2956 207.125C81.2956 206.622 81.3944 206.176 81.5922 205.786C81.7959 205.397 82.0685 205.097 82.4101 204.887C82.7576 204.678 83.1441 204.573 83.5695 204.573ZM85.2144 207.143C85.2144 206.838 85.1545 206.577 85.0346 206.361C84.9148 206.14 84.753 205.972 84.5493 205.858C84.3455 205.738 84.1268 205.678 83.8931 205.678C83.6594 205.678 83.4437 205.735 83.246 205.849C83.0482 205.963 82.8865 206.131 82.7606 206.352C82.6408 206.568 82.5809 206.826 82.5809 207.125C82.5809 207.425 82.6408 207.689 82.7606 207.916C82.8865 208.138 83.0482 208.309 83.246 208.429C83.4497 208.548 83.6654 208.608 83.8931 208.608C84.1268 208.608 84.3455 208.551 84.5493 208.438C84.753 208.318 84.9148 208.15 85.0346 207.934C85.1545 207.713 85.2144 207.449 85.2144 207.143ZM92.3396 207.035C92.3396 207.215 92.3276 207.377 92.3036 207.521H88.6634C88.6934 207.88 88.8192 208.162 89.0409 208.366C89.2626 208.569 89.5353 208.671 89.8589 208.671C90.3262 208.671 90.6588 208.471 90.8565 208.069H92.2137C92.0699 208.548 91.7943 208.944 91.3868 209.256C90.9794 209.561 90.479 209.714 89.8858 209.714C89.4064 209.714 88.975 209.609 88.5915 209.399C88.214 209.184 87.9174 208.881 87.7017 208.492C87.492 208.102 87.3871 207.653 87.3871 207.143C87.3871 206.628 87.492 206.176 87.7017 205.786C87.9114 205.397 88.205 205.097 88.5825 204.887C88.96 204.678 89.3945 204.573 89.8858 204.573C90.3592 204.573 90.7816 204.675 91.1531 204.878C91.5306 205.082 91.8213 205.373 92.025 205.75C92.2347 206.122 92.3396 206.55 92.3396 207.035ZM91.0363 206.676C91.0303 206.352 90.9135 206.095 90.6858 205.903C90.4581 205.705 90.1794 205.606 89.8499 205.606C89.5383 205.606 89.2746 205.702 89.0589 205.894C88.8492 206.08 88.7204 206.34 88.6724 206.676H91.0363ZM94.7231 205.687V208.096C94.7231 208.264 94.7621 208.387 94.84 208.465C94.9239 208.537 95.0617 208.572 95.2534 208.572H95.8376V209.633H95.0467C93.9861 209.633 93.4558 209.118 93.4558 208.087V205.687H92.8626V204.654H93.4558V203.422H94.7231V204.654H95.8376V205.687H94.7231ZM101.797 209.696C101.209 209.696 100.67 209.558 100.179 209.283C99.6873 209.007 99.2979 208.626 99.0102 208.141C98.7226 207.65 98.5788 207.095 98.5788 206.478C98.5788 205.867 98.7226 205.319 99.0102 204.833C99.2979 204.342 99.6873 203.959 100.179 203.683C100.67 203.407 101.209 203.269 101.797 203.269C102.39 203.269 102.929 203.407 103.414 203.683C103.906 203.959 104.292 204.342 104.574 204.833C104.862 205.319 105.005 205.867 105.005 206.478C105.005 207.095 104.862 207.65 104.574 208.141C104.292 208.626 103.906 209.007 103.414 209.283C102.923 209.558 102.384 209.696 101.797 209.696ZM101.797 208.572C102.174 208.572 102.507 208.489 102.794 208.321C103.082 208.147 103.307 207.901 103.468 207.584C103.63 207.266 103.711 206.898 103.711 206.478C103.711 206.059 103.63 205.693 103.468 205.382C103.307 205.064 103.082 204.821 102.794 204.654C102.507 204.486 102.174 204.402 101.797 204.402C101.419 204.402 101.084 204.486 100.79 204.654C100.502 204.821 100.278 205.064 100.116 205.382C99.954 205.693 99.8731 206.059 99.8731 206.478C99.8731 206.898 99.954 207.266 100.116 207.584C100.278 207.901 100.502 208.147 100.79 208.321C101.084 208.489 101.419 208.572 101.797 208.572ZM107.2 205.373C107.362 205.145 107.583 204.956 107.865 204.806C108.153 204.651 108.479 204.573 108.845 204.573C109.27 204.573 109.654 204.678 109.995 204.887C110.343 205.097 110.615 205.397 110.813 205.786C111.017 206.17 111.119 206.616 111.119 207.125C111.119 207.635 111.017 208.087 110.813 208.483C110.615 208.872 110.343 209.175 109.995 209.39C109.654 209.606 109.27 209.714 108.845 209.714C108.479 209.714 108.156 209.639 107.874 209.489C107.598 209.339 107.374 209.151 107.2 208.923V212.006H105.941V204.654H107.2V205.373ZM109.833 207.125C109.833 206.826 109.77 206.568 109.645 206.352C109.525 206.131 109.363 205.963 109.159 205.849C108.962 205.735 108.746 205.678 108.512 205.678C108.284 205.678 108.069 205.738 107.865 205.858C107.667 205.972 107.505 206.14 107.38 206.361C107.26 206.583 107.2 206.844 107.2 207.143C107.2 207.443 107.26 207.704 107.38 207.925C107.505 208.147 107.667 208.318 107.865 208.438C108.069 208.551 108.284 208.608 108.512 208.608C108.746 208.608 108.962 208.548 109.159 208.429C109.363 208.309 109.525 208.138 109.645 207.916C109.77 207.695 109.833 207.431 109.833 207.125ZM113.498 205.687V208.096C113.498 208.264 113.537 208.387 113.615 208.465C113.699 208.537 113.837 208.572 114.028 208.572H114.613V209.633H113.822C112.761 209.633 112.231 209.118 112.231 208.087V205.687H111.638V204.654H112.231V203.422H113.498V204.654H114.613V205.687H113.498ZM116.156 204.06C115.934 204.06 115.748 203.992 115.599 203.854C115.455 203.71 115.383 203.533 115.383 203.323C115.383 203.114 115.455 202.94 115.599 202.802C115.748 202.658 115.934 202.586 116.156 202.586C116.378 202.586 116.56 202.658 116.704 202.802C116.854 202.94 116.929 203.114 116.929 203.323C116.929 203.533 116.854 203.71 116.704 203.854C116.56 203.992 116.378 204.06 116.156 204.06ZM116.776 204.654V209.633H115.518V204.654H116.776ZM124.203 204.582C124.814 204.582 125.306 204.77 125.677 205.148C126.055 205.519 126.243 206.041 126.243 206.712V209.633H124.985V206.883C124.985 206.493 124.886 206.197 124.688 205.993C124.491 205.783 124.221 205.678 123.88 205.678C123.538 205.678 123.265 205.783 123.062 205.993C122.864 206.197 122.765 206.493 122.765 206.883V209.633H121.507V206.883C121.507 206.493 121.408 206.197 121.21 205.993C121.012 205.783 120.743 205.678 120.401 205.678C120.054 205.678 119.778 205.783 119.574 205.993C119.377 206.197 119.278 206.493 119.278 206.883V209.633H118.019V204.654H119.278V205.256C119.439 205.046 119.646 204.881 119.898 204.761C120.155 204.642 120.437 204.582 120.743 204.582C121.132 204.582 121.48 204.666 121.785 204.833C122.091 204.995 122.328 205.229 122.495 205.534C122.657 205.247 122.891 205.016 123.196 204.842C123.508 204.669 123.844 204.582 124.203 204.582ZM128.076 204.06C127.854 204.06 127.668 203.992 127.518 203.854C127.375 203.71 127.303 203.533 127.303 203.323C127.303 203.114 127.375 202.94 127.518 202.802C127.668 202.658 127.854 202.586 128.076 202.586C128.297 202.586 128.48 202.658 128.624 202.802C128.774 202.94 128.849 203.114 128.849 203.323C128.849 203.533 128.774 203.71 128.624 203.854C128.48 203.992 128.297 204.06 128.076 204.06ZM128.696 204.654V209.633H127.438V204.654H128.696ZM131.09 208.599H133.31V209.633H129.66V208.617L131.836 205.687H129.669V204.654H133.283V205.669L131.09 208.599ZM133.96 207.125C133.96 206.622 134.059 206.176 134.257 205.786C134.461 205.397 134.733 205.097 135.075 204.887C135.422 204.678 135.809 204.573 136.234 204.573C136.606 204.573 136.929 204.648 137.205 204.797C137.487 204.947 137.711 205.136 137.879 205.364V204.654H139.147V209.633H137.879V208.905C137.717 209.139 137.493 209.333 137.205 209.489C136.923 209.639 136.597 209.714 136.225 209.714C135.806 209.714 135.422 209.606 135.075 209.39C134.733 209.175 134.461 208.872 134.257 208.483C134.059 208.087 133.96 207.635 133.96 207.125ZM137.879 207.143C137.879 206.838 137.819 206.577 137.699 206.361C137.58 206.14 137.418 205.972 137.214 205.858C137.01 205.738 136.792 205.678 136.558 205.678C136.324 205.678 136.109 205.735 135.911 205.849C135.713 205.963 135.551 206.131 135.425 206.352C135.306 206.568 135.246 206.826 135.246 207.125C135.246 207.425 135.306 207.689 135.425 207.916C135.551 208.138 135.713 208.309 135.911 208.429C136.115 208.548 136.33 208.608 136.558 208.608C136.792 208.608 137.01 208.551 137.214 208.438C137.418 208.318 137.58 208.15 137.699 207.934C137.819 207.713 137.879 207.449 137.879 207.143ZM141.841 205.687V208.096C141.841 208.264 141.88 208.387 141.957 208.465C142.041 208.537 142.179 208.572 142.371 208.572H142.955V209.633H142.164C141.104 209.633 140.573 209.118 140.573 208.087V205.687H139.98V204.654H140.573V203.422H141.841V204.654H142.955V205.687H141.841ZM144.498 204.06C144.277 204.06 144.091 203.992 143.941 203.854C143.797 203.71 143.725 203.533 143.725 203.323C143.725 203.114 143.797 202.94 143.941 202.802C144.091 202.658 144.277 202.586 144.498 202.586C144.72 202.586 144.903 202.658 145.047 202.802C145.196 202.94 145.271 203.114 145.271 203.323C145.271 203.533 145.196 203.71 145.047 203.854C144.903 203.992 144.72 204.06 144.498 204.06ZM145.119 204.654V209.633H143.86V204.654H145.119ZM148.573 209.714C148.093 209.714 147.662 209.609 147.279 209.399C146.895 209.184 146.592 208.881 146.371 208.492C146.155 208.102 146.047 207.653 146.047 207.143C146.047 206.634 146.158 206.185 146.38 205.795C146.607 205.406 146.916 205.106 147.306 204.896C147.695 204.681 148.129 204.573 148.609 204.573C149.088 204.573 149.523 204.681 149.912 204.896C150.302 205.106 150.607 205.406 150.829 205.795C151.057 206.185 151.17 206.634 151.17 207.143C151.17 207.653 151.054 208.102 150.82 208.492C150.592 208.881 150.281 209.184 149.885 209.399C149.496 209.609 149.058 209.714 148.573 209.714ZM148.573 208.617C148.801 208.617 149.013 208.563 149.211 208.456C149.415 208.342 149.577 208.174 149.696 207.952C149.816 207.731 149.876 207.461 149.876 207.143C149.876 206.67 149.75 206.307 149.499 206.056C149.253 205.798 148.95 205.669 148.591 205.669C148.231 205.669 147.929 205.798 147.683 206.056C147.443 206.307 147.323 206.67 147.323 207.143C147.323 207.617 147.44 207.982 147.674 208.24C147.914 208.492 148.213 208.617 148.573 208.617ZM154.853 204.582C155.446 204.582 155.925 204.77 156.291 205.148C156.656 205.519 156.839 206.041 156.839 206.712V209.633H155.581V206.883C155.581 206.487 155.482 206.185 155.284 205.975C155.086 205.759 154.817 205.651 154.475 205.651C154.128 205.651 153.852 205.759 153.648 205.975C153.451 206.185 153.352 206.487 153.352 206.883V209.633H152.093V204.654H153.352V205.274C153.52 205.058 153.732 204.89 153.99 204.77C154.254 204.645 154.541 204.582 154.853 204.582Z" fill="#0A0D0F"/>
<path opacity="0.8" d="M67.2466 221.73H64.7243L64.2597 223.016H63.4632L65.554 217.266H66.4252L68.5077 223.016H67.7112L67.2466 221.73ZM67.0308 221.116L65.9855 218.195L64.9401 221.116H67.0308ZM69.1368 220.734C69.1368 220.264 69.2308 219.855 69.4189 219.506C69.6069 219.152 69.8669 218.879 70.1988 218.685C70.5362 218.491 70.9206 218.395 71.352 218.395C71.9107 218.395 72.3697 218.53 72.7293 218.801C73.0943 219.072 73.3349 219.448 73.4511 219.929H72.638C72.5606 219.653 72.4085 219.434 72.1817 219.274C71.9604 219.114 71.6839 219.033 71.352 219.033C70.9206 219.033 70.5721 219.183 70.3066 219.481C70.0411 219.775 69.9084 220.192 69.9084 220.734C69.9084 221.282 70.0411 221.705 70.3066 222.004C70.5721 222.302 70.9206 222.452 71.352 222.452C71.6839 222.452 71.9604 222.374 72.1817 222.219C72.4029 222.065 72.555 221.843 72.638 221.556H73.4511C73.3294 222.02 73.086 222.394 72.721 222.676C72.3559 222.952 71.8996 223.091 71.352 223.091C70.9206 223.091 70.5362 222.994 70.1988 222.8C69.8669 222.607 69.6069 222.333 69.4189 221.979C69.2308 221.625 69.1368 221.21 69.1368 220.734ZM75.3794 219.092V221.771C75.3794 221.993 75.4264 222.15 75.5205 222.244C75.6145 222.333 75.7777 222.377 76.01 222.377H76.5659V223.016H75.8855C75.4652 223.016 75.1499 222.919 74.9397 222.725C74.7295 222.532 74.6244 222.214 74.6244 221.771V219.092H74.0354V218.469H74.6244V217.324H75.3794V218.469H76.5659V219.092H75.3794ZM81.5129 218.469V223.016H80.7579V222.344C80.614 222.576 80.4122 222.759 80.1522 222.891C79.8978 223.019 79.6157 223.082 79.3059 223.082C78.9519 223.082 78.6339 223.01 78.3518 222.867C78.0697 222.717 77.8457 222.496 77.6798 222.203C77.5194 221.91 77.4392 221.553 77.4392 221.133V218.469H78.1859V221.033C78.1859 221.481 78.2993 221.827 78.526 222.07C78.7528 222.308 79.0626 222.427 79.4553 222.427C79.859 222.427 80.1771 222.302 80.4094 222.053C80.6417 221.805 80.7579 221.442 80.7579 220.967V218.469H81.5129ZM82.5056 220.726C82.5056 220.261 82.5996 219.855 82.7876 219.506C82.9757 219.152 83.2329 218.879 83.5592 218.685C83.8911 218.491 84.2589 218.395 84.6627 218.395C85.0609 218.395 85.4066 218.48 85.6998 218.652C85.9929 218.823 86.2114 219.039 86.3552 219.299V218.469H87.1185V223.016H86.3552V222.17C86.2059 222.435 85.9819 222.656 85.6832 222.833C85.39 223.005 85.0471 223.091 84.6544 223.091C84.2506 223.091 83.8856 222.991 83.5592 222.792C83.2329 222.593 82.9757 222.313 82.7876 221.954C82.5996 221.594 82.5056 221.185 82.5056 220.726ZM86.3552 220.734C86.3552 220.391 86.2861 220.093 86.1478 219.838C86.0095 219.584 85.8215 219.39 85.5836 219.257C85.3513 219.119 85.0941 219.05 84.812 219.05C84.53 219.05 84.2728 219.116 84.0404 219.249C83.8081 219.382 83.6228 219.575 83.4846 219.83C83.3463 220.084 83.2771 220.383 83.2771 220.726C83.2771 221.074 83.3463 221.379 83.4846 221.639C83.6228 221.893 83.8081 222.089 84.0404 222.228C84.2728 222.36 84.53 222.427 84.812 222.427C85.0941 222.427 85.3513 222.36 85.5836 222.228C85.8215 222.089 86.0095 221.893 86.1478 221.639C86.2861 221.379 86.3552 221.077 86.3552 220.734ZM89.1494 216.876V223.016H88.3944V216.876H89.1494ZM94.3406 222.319L95.7511 218.469H96.5559L94.7721 223.016H93.8926L92.1088 218.469H92.9219L94.3406 222.319ZM98.9084 223.091C98.5599 223.091 98.2474 223.032 97.9709 222.916C97.6943 222.795 97.4758 222.629 97.3154 222.419C97.155 222.203 97.0665 221.957 97.0499 221.68H97.8298C97.8519 221.907 97.957 222.092 98.1451 222.236C98.3387 222.38 98.5904 222.452 98.9001 222.452C99.1877 222.452 99.4145 222.388 99.5804 222.261C99.7464 222.134 99.8293 221.973 99.8293 221.78C99.8293 221.581 99.7408 221.434 99.5638 221.34C99.3868 221.24 99.113 221.144 98.7425 221.05C98.4051 220.961 98.1285 220.873 97.9128 220.784C97.7026 220.69 97.5201 220.555 97.3652 220.378C97.2159 220.195 97.1412 219.957 97.1412 219.664C97.1412 219.432 97.2103 219.219 97.3486 219.025C97.4869 218.832 97.6832 218.679 97.9377 218.569C98.1921 218.453 98.4825 218.395 98.8088 218.395C99.3122 218.395 99.7187 218.522 100.028 218.776C100.338 219.031 100.504 219.379 100.526 219.822H99.7713C99.7547 219.584 99.6579 219.393 99.4809 219.249C99.3094 219.105 99.0771 219.033 98.7839 219.033C98.5129 219.033 98.2972 219.092 98.1368 219.208C97.9764 219.324 97.8962 219.476 97.8962 219.664C97.8962 219.813 97.9432 219.938 98.0372 220.037C98.1368 220.131 98.2585 220.209 98.4023 220.27C98.5516 220.325 98.7563 220.389 99.0162 220.46C99.3426 220.549 99.6081 220.637 99.8127 220.726C100.017 220.809 100.192 220.936 100.335 221.108C100.485 221.279 100.562 221.503 100.568 221.78C100.568 222.029 100.499 222.253 100.36 222.452C100.222 222.651 100.026 222.808 99.7713 222.925C99.5224 223.035 99.2347 223.091 98.9084 223.091ZM101.874 223.066C101.73 223.066 101.609 223.016 101.509 222.916C101.41 222.817 101.36 222.695 101.36 222.551C101.36 222.407 101.41 222.286 101.509 222.186C101.609 222.087 101.73 222.037 101.874 222.037C102.012 222.037 102.129 222.087 102.223 222.186C102.322 222.286 102.372 222.407 102.372 222.551C102.372 222.695 102.322 222.817 102.223 222.916C102.129 223.016 102.012 223.066 101.874 223.066ZM109.454 218.926C109.454 219.407 109.288 219.808 108.956 220.129C108.63 220.444 108.129 220.602 107.454 220.602H106.342V223.016H105.587V217.233H107.454C108.107 217.233 108.602 217.391 108.939 217.706C109.282 218.021 109.454 218.428 109.454 218.926ZM107.454 219.979C107.875 219.979 108.184 219.888 108.383 219.705C108.583 219.523 108.682 219.263 108.682 218.926C108.682 218.212 108.273 217.855 107.454 217.855H106.342V219.979H107.454ZM111.147 216.876V223.016H110.392V216.876H111.147ZM112.152 220.726C112.152 220.261 112.246 219.855 112.434 219.506C112.622 219.152 112.879 218.879 113.205 218.685C113.537 218.491 113.905 218.395 114.309 218.395C114.707 218.395 115.053 218.48 115.346 218.652C115.639 218.823 115.858 219.039 116.001 219.299V218.469H116.765V223.016H116.001V222.17C115.852 222.435 115.628 222.656 115.329 222.833C115.036 223.005 114.693 223.091 114.301 223.091C113.897 223.091 113.532 222.991 113.205 222.792C112.879 222.593 112.622 222.313 112.434 221.954C112.246 221.594 112.152 221.185 112.152 220.726ZM116.001 220.734C116.001 220.391 115.932 220.093 115.794 219.838C115.656 219.584 115.468 219.39 115.23 219.257C114.998 219.119 114.74 219.05 114.458 219.05C114.176 219.05 113.919 219.116 113.687 219.249C113.454 219.382 113.269 219.575 113.131 219.83C112.993 220.084 112.923 220.383 112.923 220.726C112.923 221.074 112.993 221.379 113.131 221.639C113.269 221.893 113.454 222.089 113.687 222.228C113.919 222.36 114.176 222.427 114.458 222.427C114.74 222.427 114.998 222.36 115.23 222.228C115.468 222.089 115.656 221.893 115.794 221.639C115.932 221.379 116.001 221.077 116.001 220.734ZM120.256 218.386C120.809 218.386 121.257 218.555 121.6 218.892C121.943 219.224 122.114 219.705 122.114 220.336V223.016H121.368V220.444C121.368 219.99 121.254 219.645 121.027 219.407C120.801 219.163 120.491 219.042 120.098 219.042C119.7 219.042 119.382 219.166 119.144 219.415C118.912 219.664 118.796 220.026 118.796 220.502V223.016H118.041V218.469H118.796V219.116C118.945 218.884 119.147 218.704 119.401 218.577C119.661 218.45 119.946 218.386 120.256 218.386ZM125.563 218.386C126.116 218.386 126.564 218.555 126.907 218.892C127.25 219.224 127.421 219.705 127.421 220.336V223.016H126.675V220.444C126.675 219.99 126.561 219.645 126.334 219.407C126.108 219.163 125.798 219.042 125.405 219.042C125.007 219.042 124.689 219.166 124.451 219.415C124.219 219.664 124.103 220.026 124.103 220.502V223.016H123.348V218.469H124.103V219.116C124.252 218.884 124.454 218.704 124.708 218.577C124.968 218.45 125.253 218.386 125.563 218.386ZM132.803 220.568C132.803 220.712 132.795 220.864 132.778 221.025H129.144C129.172 221.473 129.324 221.824 129.6 222.078C129.883 222.327 130.223 222.452 130.621 222.452C130.947 222.452 131.218 222.377 131.434 222.228C131.655 222.073 131.81 221.868 131.899 221.614H132.712C132.59 222.051 132.347 222.407 131.982 222.684C131.617 222.955 131.163 223.091 130.621 223.091C130.19 223.091 129.802 222.994 129.459 222.8C129.122 222.607 128.857 222.333 128.663 221.979C128.469 221.619 128.373 221.204 128.373 220.734C128.373 220.264 128.467 219.852 128.655 219.498C128.843 219.144 129.105 218.873 129.443 218.685C129.786 218.491 130.178 218.395 130.621 218.395C131.052 218.395 131.434 218.489 131.766 218.677C132.098 218.865 132.352 219.125 132.529 219.457C132.712 219.783 132.803 220.153 132.803 220.568ZM132.023 220.411C132.023 220.123 131.96 219.877 131.832 219.672C131.705 219.462 131.531 219.304 131.31 219.199C131.094 219.089 130.853 219.033 130.588 219.033C130.206 219.033 129.88 219.155 129.609 219.398C129.343 219.642 129.191 219.979 129.152 220.411H132.023ZM133.518 220.726C133.518 220.261 133.612 219.855 133.8 219.506C133.988 219.152 134.245 218.879 134.571 218.685C134.903 218.491 135.274 218.395 135.683 218.395C136.037 218.395 136.366 218.478 136.67 218.643C136.974 218.804 137.207 219.017 137.367 219.282V216.876H138.13V223.016H137.367V222.161C137.218 222.432 136.997 222.656 136.703 222.833C136.41 223.005 136.067 223.091 135.675 223.091C135.271 223.091 134.903 222.991 134.571 222.792C134.245 222.593 133.988 222.313 133.8 221.954C133.612 221.594 133.518 221.185 133.518 220.726ZM137.367 220.734C137.367 220.391 137.298 220.093 137.16 219.838C137.021 219.584 136.833 219.39 136.596 219.257C136.363 219.119 136.106 219.05 135.824 219.05C135.542 219.05 135.285 219.116 135.052 219.249C134.82 219.382 134.635 219.575 134.497 219.83C134.358 220.084 134.289 220.383 134.289 220.726C134.289 221.074 134.358 221.379 134.497 221.639C134.635 221.893 134.82 222.089 135.052 222.228C135.285 222.36 135.542 222.427 135.824 222.427C136.106 222.427 136.363 222.36 136.596 222.228C136.833 222.089 137.021 221.893 137.16 221.639C137.298 221.379 137.367 221.077 137.367 220.734Z" fill="#6C6E6F"/>
<rect x="205.007" y="202.947" width="63.7113" height="19.7556" rx="8.62606" fill="#FCFCFC"/>
<rect x="205.007" y="202.947" width="63.7113" height="19.7556" rx="8.62606" stroke="url(#paint4_linear_8985_208527)" stroke-width="0.638967"/>
<path opacity="0.8" d="M217.382 210.019V210.662H216.103V214.824H215.315V210.662H214.029V210.019H217.382ZM220.151 210.953C220.442 210.953 220.7 211.015 220.926 211.139C221.156 211.264 221.336 211.448 221.465 211.692C221.599 211.937 221.665 212.232 221.665 212.577V214.824H220.884V212.695C220.884 212.354 220.799 212.093 220.628 211.914C220.458 211.729 220.225 211.637 219.93 211.637C219.635 211.637 219.4 211.729 219.225 211.914C219.054 212.093 218.969 212.354 218.969 212.695V214.824H218.181V209.708H218.969V211.457C219.103 211.296 219.271 211.172 219.474 211.084C219.681 210.996 219.907 210.953 220.151 210.953ZM223.072 210.51C222.929 210.51 222.809 210.462 222.712 210.365C222.615 210.268 222.567 210.148 222.567 210.005C222.567 209.863 222.615 209.743 222.712 209.646C222.809 209.549 222.929 209.501 223.072 209.501C223.21 209.501 223.328 209.549 223.424 209.646C223.521 209.743 223.57 209.863 223.57 210.005C223.57 210.148 223.521 210.268 223.424 210.365C223.328 210.462 223.21 210.51 223.072 210.51ZM223.459 211.015V214.824H222.671V211.015H223.459ZM225.877 214.887C225.577 214.887 225.307 214.834 225.068 214.728C224.833 214.617 224.646 214.47 224.508 214.285C224.369 214.096 224.296 213.886 224.286 213.656H225.102C225.116 213.817 225.192 213.953 225.33 214.064C225.473 214.17 225.651 214.223 225.863 214.223C226.084 214.223 226.254 214.181 226.374 214.098C226.499 214.011 226.561 213.9 226.561 213.767C226.561 213.624 226.492 213.518 226.354 213.449C226.22 213.379 226.006 213.303 225.711 213.22C225.425 213.142 225.192 213.066 225.012 212.992C224.833 212.919 224.676 212.806 224.542 212.653C224.413 212.501 224.349 212.301 224.349 212.052C224.349 211.849 224.408 211.665 224.528 211.499C224.648 211.328 224.819 211.195 225.04 211.098C225.266 211.001 225.524 210.953 225.814 210.953C226.248 210.953 226.596 211.063 226.858 211.285C227.126 211.501 227.269 211.798 227.287 212.176H226.499C226.485 212.006 226.416 211.87 226.291 211.768C226.167 211.667 225.999 211.616 225.787 211.616C225.579 211.616 225.42 211.656 225.31 211.734C225.199 211.812 225.144 211.916 225.144 212.045C225.144 212.146 225.181 212.232 225.254 212.301C225.328 212.37 225.418 212.425 225.524 212.467C225.63 212.504 225.787 212.552 225.994 212.612C226.271 212.686 226.496 212.762 226.672 212.84C226.851 212.914 227.006 213.025 227.135 213.172C227.264 213.32 227.331 213.515 227.335 213.76C227.335 213.976 227.275 214.17 227.156 214.34C227.036 214.511 226.865 214.645 226.644 214.741C226.427 214.838 226.172 214.887 225.877 214.887ZM235.044 210.019V214.824H234.256V211.533L232.79 214.824H232.244L230.771 211.533V214.824H229.983V210.019H230.833L232.52 213.787L234.201 210.019H235.044ZM237.732 214.887C237.373 214.887 237.048 214.806 236.758 214.645C236.467 214.479 236.239 214.248 236.073 213.953C235.907 213.654 235.824 213.308 235.824 212.916C235.824 212.529 235.909 212.186 236.08 211.886C236.251 211.586 236.483 211.356 236.778 211.195C237.073 211.033 237.403 210.953 237.767 210.953C238.131 210.953 238.461 211.033 238.756 211.195C239.051 211.356 239.283 211.586 239.454 211.886C239.625 212.186 239.71 212.529 239.71 212.916C239.71 213.303 239.622 213.647 239.447 213.946C239.272 214.246 239.032 214.479 238.728 214.645C238.428 214.806 238.097 214.887 237.732 214.887ZM237.732 214.202C237.935 214.202 238.124 214.154 238.299 214.057C238.479 213.96 238.624 213.815 238.735 213.621C238.846 213.428 238.901 213.193 238.901 212.916C238.901 212.64 238.848 212.407 238.742 212.218C238.636 212.024 238.495 211.879 238.32 211.782C238.145 211.686 237.956 211.637 237.753 211.637C237.55 211.637 237.361 211.686 237.186 211.782C237.016 211.879 236.88 212.024 236.778 212.218C236.677 212.407 236.626 212.64 236.626 212.916C236.626 213.326 236.73 213.644 236.937 213.87C237.149 214.092 237.414 214.202 237.732 214.202ZM242.411 210.953C242.711 210.953 242.978 211.015 243.213 211.139C243.453 211.264 243.639 211.448 243.773 211.692C243.907 211.937 243.974 212.232 243.974 212.577V214.824H243.192V212.695C243.192 212.354 243.107 212.093 242.937 211.914C242.766 211.729 242.533 211.637 242.238 211.637C241.943 211.637 241.708 211.729 241.533 211.914C241.362 212.093 241.277 212.354 241.277 212.695V214.824H240.489V211.015H241.277V211.45C241.406 211.294 241.57 211.172 241.768 211.084C241.971 210.996 242.185 210.953 242.411 210.953ZM245.899 211.658V213.767C245.899 213.91 245.931 214.013 245.995 214.078C246.064 214.138 246.18 214.168 246.341 214.168H246.825V214.824H246.203C245.848 214.824 245.576 214.741 245.387 214.576C245.198 214.41 245.103 214.14 245.103 213.767V211.658H244.654V211.015H245.103V210.068H245.899V211.015H246.825V211.658H245.899ZM249.522 210.953C249.812 210.953 250.07 211.015 250.296 211.139C250.527 211.264 250.707 211.448 250.836 211.692C250.969 211.937 251.036 212.232 251.036 212.577V214.824H250.255V212.695C250.255 212.354 250.17 212.093 249.999 211.914C249.828 211.729 249.596 211.637 249.301 211.637C249.006 211.637 248.771 211.729 248.595 211.914C248.425 212.093 248.34 212.354 248.34 212.695V214.824H247.551V209.708H248.34V211.457C248.473 211.296 248.642 211.172 248.844 211.084C249.052 210.996 249.278 210.953 249.522 210.953Z" fill="#6C6E6F"/>
<path d="M260.202 211.954L258.913 213.243C258.664 213.493 258.259 213.493 258.009 213.243L256.72 211.954" fill="#6C6E6F"/>
<g filter="url(#filter3_d_8985_208527)">
<path d="M269.193 238.432L242.053 245.57C240.496 245.979 239.136 246.932 238.218 248.255L236.399 250.881C234.463 253.673 230.755 254.594 227.738 253.031L225.049 251.638C222.582 250.36 219.584 250.723 217.493 252.552L211.247 258.016C209.172 259.831 206.204 260.204 203.746 258.959L202.326 258.24C199.476 256.797 196.005 257.547 194.005 260.038L188.892 266.408C186.939 268.84 183.575 269.62 180.752 268.294L175.239 265.706C174.111 265.176 172.858 264.969 171.62 265.107L170.068 265.28C167.944 265.516 165.849 264.631 164.539 262.942V262.942C162.681 260.547 159.352 259.867 156.704 261.342L155.266 262.144C154.72 262.447 154.135 262.674 153.527 262.817L148.798 263.931C147.505 264.235 146.33 264.914 145.421 265.883L135.28 276.685C134.835 277.158 134.325 277.565 133.765 277.892L129.408 280.441C127.021 281.836 124.025 281.637 121.845 279.938L119.63 278.213C117.44 276.507 114.255 277.065 112.775 279.414L112.266 280.222C111.488 281.456 110.005 282.051 108.59 281.697V281.697C107.257 281.363 105.855 281.87 105.044 282.979L102.033 287.1C100.295 289.479 96.8641 289.791 94.7251 287.766V287.766C93.0678 286.197 90.5452 285.983 88.6477 287.251L86.5019 288.686C85.5345 289.332 84.4167 289.718 83.2565 289.805L78.493 290.165C77.776 290.219 77.096 290.505 76.5555 290.979L76.2035 291.288C75.1393 292.222 73.5447 292.21 72.4937 291.262V291.262C71.3896 290.266 69.6985 290.311 68.6484 291.363L64.4203 295.602" stroke="#FF5500" stroke-width="0.958451" stroke-linecap="round" stroke-linejoin="round"/>
</g>
<path d="M64.5182 313.713V309.931L63.6195 310.218V309.807L64.693 309.345H65.0487V313.713H64.5182ZM67.5813 313.788C67.2193 313.788 66.9072 313.695 66.6451 313.507C66.3872 313.316 66.1875 313.052 66.046 312.715C65.9045 312.374 65.8338 311.978 65.8338 311.529C65.8338 311.08 65.9045 310.687 66.046 310.35C66.1875 310.008 66.3872 309.744 66.6451 309.557C66.9072 309.366 67.2193 309.27 67.5813 309.27C67.9432 309.27 68.2532 309.366 68.5112 309.557C68.7691 309.744 68.9668 310.008 69.1041 310.35C69.2455 310.687 69.3163 311.08 69.3163 311.529C69.3163 311.978 69.2455 312.374 69.1041 312.715C68.9668 313.052 68.7691 313.316 68.5112 313.507C68.2532 313.695 67.9432 313.788 67.5813 313.788ZM67.5813 313.326C67.8101 313.326 68.014 313.256 68.1929 313.114C68.3718 312.969 68.5133 312.763 68.6173 312.496C68.7254 312.226 68.7795 311.904 68.7795 311.529C68.7795 311.15 68.7254 310.828 68.6173 310.562C68.5133 310.295 68.3718 310.092 68.1929 309.95C68.014 309.809 67.8101 309.738 67.5813 309.738C67.3483 309.738 67.1402 309.809 66.9572 309.95C66.7741 310.092 66.6306 310.295 66.5266 310.562C66.4225 310.828 66.3705 311.15 66.3705 311.529C66.3705 311.904 66.4225 312.226 66.5266 312.496C66.6306 312.763 66.7741 312.969 66.9572 313.114C67.1402 313.256 67.3483 313.326 67.5813 313.326Z" fill="#9D9E9F"/>
<path d="M97.8463 313.713V309.931L96.9476 310.218V309.807L98.021 309.345H98.3767V313.713H97.8463ZM100.778 313.788C100.487 313.788 100.233 313.736 100.017 313.632C99.8046 313.528 99.6361 313.389 99.5113 313.214C99.3907 313.035 99.3158 312.831 99.2866 312.602H99.7984C99.8442 312.819 99.9503 312.996 100.117 313.133C100.287 313.27 100.51 313.339 100.784 313.339C100.988 313.339 101.161 313.293 101.302 313.202C101.448 313.106 101.56 312.977 101.639 312.815C101.719 312.648 101.758 312.463 101.758 312.259C101.758 312.055 101.719 311.876 101.639 311.723C101.565 311.564 101.456 311.442 101.315 311.354C101.173 311.263 101.007 311.217 100.816 311.217C100.587 311.217 100.391 311.263 100.229 311.354C100.071 311.446 99.9482 311.558 99.8608 311.691H99.3428L99.6736 309.345H102.02V309.8H100.079L99.8546 311.167C99.9586 311.051 100.096 310.957 100.266 310.886C100.441 310.811 100.643 310.774 100.872 310.774C101.084 310.774 101.275 310.811 101.446 310.886C101.617 310.961 101.762 311.067 101.883 311.205C102.008 311.338 102.101 311.494 102.164 311.673C102.23 311.851 102.264 312.045 102.264 312.253C102.264 312.461 102.228 312.659 102.157 312.846C102.091 313.029 101.993 313.191 101.864 313.333C101.739 313.474 101.585 313.586 101.402 313.67C101.219 313.749 101.011 313.788 100.778 313.788Z" fill="#9D9E9F"/>
<path d="M129.405 313.713V313.345C129.713 313.112 130.004 312.877 130.279 312.64C130.554 312.403 130.797 312.168 131.009 311.935C131.221 311.698 131.388 311.467 131.508 311.242C131.629 311.017 131.689 310.801 131.689 310.593C131.689 310.439 131.66 310.297 131.602 310.169C131.548 310.035 131.459 309.927 131.334 309.844C131.213 309.761 131.049 309.719 130.841 309.719C130.641 309.719 130.475 309.763 130.341 309.85C130.208 309.933 130.108 310.046 130.042 310.187C129.975 310.325 129.942 310.476 129.942 310.643H129.436C129.441 310.356 129.503 310.11 129.624 309.906C129.744 309.698 129.911 309.54 130.123 309.432C130.335 309.324 130.576 309.27 130.847 309.27C131.113 309.27 131.348 309.32 131.552 309.42C131.756 309.515 131.916 309.661 132.033 309.856C132.153 310.048 132.214 310.287 132.214 310.574C132.214 310.778 132.17 310.982 132.083 311.186C131.999 311.39 131.885 311.589 131.739 311.785C131.594 311.976 131.431 312.161 131.253 312.34C131.078 312.519 130.897 312.688 130.71 312.846C130.522 313.004 130.346 313.148 130.179 313.277H132.363V313.713H129.405ZM134.667 313.788C134.305 313.788 133.993 313.695 133.731 313.507C133.473 313.316 133.273 313.052 133.132 312.715C132.99 312.374 132.92 311.978 132.92 311.529C132.92 311.08 132.99 310.687 133.132 310.35C133.273 310.008 133.473 309.744 133.731 309.557C133.993 309.366 134.305 309.27 134.667 309.27C135.029 309.27 135.339 309.366 135.597 309.557C135.855 309.744 136.052 310.008 136.19 310.35C136.331 310.687 136.402 311.08 136.402 311.529C136.402 311.978 136.331 312.374 136.19 312.715C136.052 313.052 135.855 313.316 135.597 313.507C135.339 313.695 135.029 313.788 134.667 313.788ZM134.667 313.326C134.896 313.326 135.1 313.256 135.279 313.114C135.458 312.969 135.599 312.763 135.703 312.496C135.811 312.226 135.865 311.904 135.865 311.529C135.865 311.15 135.811 310.828 135.703 310.562C135.599 310.295 135.458 310.092 135.279 309.95C135.1 309.809 134.896 309.738 134.667 309.738C134.434 309.738 134.226 309.809 134.043 309.95C133.86 310.092 133.716 310.295 133.612 310.562C133.508 310.828 133.456 311.15 133.456 311.529C133.456 311.904 133.508 312.226 133.612 312.496C133.716 312.763 133.86 312.969 134.043 313.114C134.226 313.256 134.434 313.326 134.667 313.326Z" fill="#9D9E9F"/>
<path d="M162.703 313.713V313.345C163.011 313.112 163.302 312.877 163.577 312.64C163.851 312.403 164.095 312.168 164.307 311.935C164.519 311.698 164.686 311.467 164.806 311.242C164.927 311.017 164.987 310.801 164.987 310.593C164.987 310.439 164.958 310.297 164.9 310.169C164.846 310.035 164.756 309.927 164.631 309.844C164.511 309.761 164.346 309.719 164.138 309.719C163.939 309.719 163.772 309.763 163.639 309.85C163.506 309.933 163.406 310.046 163.34 310.187C163.273 310.325 163.24 310.476 163.24 310.643H162.734C162.738 310.356 162.801 310.11 162.921 309.906C163.042 309.698 163.209 309.54 163.421 309.432C163.633 309.324 163.874 309.27 164.145 309.27C164.411 309.27 164.646 309.32 164.85 309.42C165.054 309.515 165.214 309.661 165.33 309.856C165.451 310.048 165.511 310.287 165.511 310.574C165.511 310.778 165.468 310.982 165.38 311.186C165.297 311.39 165.183 311.589 165.037 311.785C164.892 311.976 164.729 312.161 164.55 312.34C164.376 312.519 164.195 312.688 164.007 312.846C163.82 313.004 163.643 313.148 163.477 313.277H165.661V313.713H162.703ZM167.895 313.788C167.603 313.788 167.35 313.736 167.133 313.632C166.921 313.528 166.753 313.389 166.628 313.214C166.507 313.035 166.432 312.831 166.403 312.602H166.915C166.961 312.819 167.067 312.996 167.233 313.133C167.404 313.27 167.626 313.339 167.901 313.339C168.105 313.339 168.277 313.293 168.419 313.202C168.565 313.106 168.677 312.977 168.756 312.815C168.835 312.648 168.874 312.463 168.874 312.259C168.874 312.055 168.835 311.876 168.756 311.723C168.681 311.564 168.573 311.442 168.431 311.354C168.29 311.263 168.124 311.217 167.932 311.217C167.703 311.217 167.508 311.263 167.345 311.354C167.187 311.446 167.065 311.558 166.977 311.691H166.459L166.79 309.345H169.137V309.8H167.196L166.971 311.167C167.075 311.051 167.212 310.957 167.383 310.886C167.558 310.811 167.759 310.774 167.988 310.774C168.2 310.774 168.392 310.811 168.562 310.886C168.733 310.961 168.879 311.067 168.999 311.205C169.124 311.338 169.218 311.494 169.28 311.673C169.347 311.851 169.38 312.045 169.38 312.253C169.38 312.461 169.345 312.659 169.274 312.846C169.207 313.029 169.11 313.191 168.981 313.333C168.856 313.474 168.702 313.586 168.519 313.67C168.336 313.749 168.128 313.788 167.895 313.788Z" fill="#9D9E9F"/>
<path d="M197.141 313.788C196.862 313.788 196.608 313.738 196.38 313.638C196.155 313.534 195.976 313.381 195.843 313.177C195.71 312.973 195.639 312.719 195.631 312.415H196.161C196.165 312.582 196.205 312.736 196.28 312.877C196.359 313.014 196.471 313.125 196.617 313.208C196.762 313.291 196.937 313.333 197.141 313.333C197.345 313.333 197.515 313.293 197.653 313.214C197.79 313.135 197.894 313.031 197.965 312.902C198.035 312.769 198.071 312.621 198.071 312.459C198.071 312.263 198.021 312.105 197.921 311.985C197.825 311.86 197.694 311.768 197.528 311.71C197.366 311.648 197.187 311.616 196.991 311.616H196.667V311.173H196.991C197.287 311.173 197.517 311.107 197.684 310.974C197.854 310.836 197.94 310.647 197.94 310.406C197.94 310.21 197.873 310.048 197.74 309.919C197.607 309.79 197.407 309.725 197.141 309.725C196.879 309.725 196.673 309.796 196.523 309.938C196.373 310.079 196.288 310.26 196.267 310.481H195.737C195.749 310.243 195.814 310.033 195.93 309.85C196.051 309.667 196.213 309.526 196.417 309.426C196.625 309.322 196.866 309.27 197.141 309.27C197.432 309.27 197.676 309.32 197.871 309.42C198.071 309.519 198.221 309.653 198.32 309.819C198.42 309.985 198.47 310.171 198.47 310.374C198.47 310.524 198.441 310.668 198.383 310.805C198.329 310.942 198.246 311.061 198.133 311.161C198.021 311.261 197.877 311.331 197.703 311.373C197.873 311.406 198.025 311.471 198.158 311.566C198.296 311.662 198.404 311.785 198.483 311.935C198.562 312.084 198.601 312.259 198.601 312.459C198.601 312.696 198.545 312.917 198.433 313.12C198.325 313.32 198.162 313.482 197.946 313.607C197.73 313.728 197.461 313.788 197.141 313.788ZM201.071 313.788C200.709 313.788 200.397 313.695 200.134 313.507C199.876 313.316 199.677 313.052 199.535 312.715C199.394 312.374 199.323 311.978 199.323 311.529C199.323 311.08 199.394 310.687 199.535 310.35C199.677 310.008 199.876 309.744 200.134 309.557C200.397 309.366 200.709 309.27 201.071 309.27C201.433 309.27 201.743 309.366 202 309.557C202.258 309.744 202.456 310.008 202.593 310.35C202.735 310.687 202.806 311.08 202.806 311.529C202.806 311.978 202.735 312.374 202.593 312.715C202.456 313.052 202.258 313.316 202 313.507C201.743 313.695 201.433 313.788 201.071 313.788ZM201.071 313.326C201.299 313.326 201.503 313.256 201.682 313.114C201.861 312.969 202.003 312.763 202.107 312.496C202.215 312.226 202.269 311.904 202.269 311.529C202.269 311.15 202.215 310.828 202.107 310.562C202.003 310.295 201.861 310.092 201.682 309.95C201.503 309.809 201.299 309.738 201.071 309.738C200.838 309.738 200.63 309.809 200.446 309.95C200.263 310.092 200.12 310.295 200.016 310.562C199.912 310.828 199.86 311.15 199.86 311.529C199.86 311.904 199.912 312.226 200.016 312.496C200.12 312.763 200.263 312.969 200.446 313.114C200.63 313.256 200.838 313.326 201.071 313.326Z" fill="#9D9E9F"/>
<path d="M230.486 313.788C230.124 313.788 229.812 313.695 229.55 313.507C229.292 313.316 229.092 313.052 228.951 312.715C228.809 312.374 228.738 311.978 228.738 311.529C228.738 311.08 228.809 310.687 228.951 310.35C229.092 310.008 229.292 309.744 229.55 309.557C229.812 309.366 230.124 309.27 230.486 309.27C230.848 309.27 231.158 309.366 231.416 309.557C231.674 309.744 231.871 310.008 232.009 310.35C232.15 310.687 232.221 311.08 232.221 311.529C232.221 311.978 232.15 312.374 232.009 312.715C231.871 313.052 231.674 313.316 231.416 313.507C231.158 313.695 230.848 313.788 230.486 313.788ZM230.486 313.326C230.715 313.326 230.919 313.256 231.097 313.114C231.276 312.969 231.418 312.763 231.522 312.496C231.63 312.226 231.684 311.904 231.684 311.529C231.684 311.15 231.63 310.828 231.522 310.562C231.418 310.295 231.276 310.092 231.097 309.95C230.919 309.809 230.715 309.738 230.486 309.738C230.253 309.738 230.045 309.809 229.862 309.95C229.679 310.092 229.535 310.295 229.431 310.562C229.327 310.828 229.275 311.15 229.275 311.529C229.275 311.904 229.327 312.226 229.431 312.496C229.535 312.763 229.679 312.969 229.862 313.114C230.045 313.256 230.253 313.326 230.486 313.326ZM234.45 313.788C234.159 313.788 233.905 313.736 233.689 313.632C233.477 313.528 233.308 313.389 233.183 313.214C233.063 313.035 232.988 312.831 232.959 312.602H233.471C233.516 312.819 233.622 312.996 233.789 313.133C233.959 313.27 234.182 313.339 234.457 313.339C234.661 313.339 234.833 313.293 234.975 313.202C235.12 313.106 235.233 312.977 235.312 312.815C235.391 312.648 235.43 312.463 235.43 312.259C235.43 312.055 235.391 311.876 235.312 311.723C235.237 311.564 235.129 311.442 234.987 311.354C234.846 311.263 234.679 311.217 234.488 311.217C234.259 311.217 234.063 311.263 233.901 311.354C233.743 311.446 233.62 311.558 233.533 311.691H233.015L233.346 309.345H235.692V309.8H233.751L233.527 311.167C233.631 311.051 233.768 310.957 233.939 310.886C234.113 310.811 234.315 310.774 234.544 310.774C234.756 310.774 234.948 310.811 235.118 310.886C235.289 310.961 235.434 311.067 235.555 311.205C235.68 311.338 235.773 311.494 235.836 311.673C235.902 311.851 235.936 312.045 235.936 312.253C235.936 312.461 235.9 312.659 235.83 312.846C235.763 313.029 235.665 313.191 235.536 313.333C235.412 313.474 235.258 313.586 235.074 313.67C234.891 313.749 234.683 313.788 234.45 313.788Z" fill="#9D9E9F"/>
<path d="M263.555 313.713V309.931L262.656 310.218V309.807L263.729 309.345H264.085V313.713H263.555ZM266.618 313.788C266.256 313.788 265.944 313.695 265.682 313.507C265.424 313.316 265.224 313.052 265.082 312.715C264.941 312.374 264.87 311.978 264.87 311.529C264.87 311.08 264.941 310.687 265.082 310.35C265.224 310.008 265.424 309.744 265.682 309.557C265.944 309.366 266.256 309.27 266.618 309.27C266.98 309.27 267.29 309.366 267.548 309.557C267.806 309.744 268.003 310.008 268.14 310.35C268.282 310.687 268.353 311.08 268.353 311.529C268.353 311.978 268.282 312.374 268.14 312.715C268.003 313.052 267.806 313.316 267.548 313.507C267.29 313.695 266.98 313.788 266.618 313.788ZM266.618 313.326C266.846 313.326 267.05 313.256 267.229 313.114C267.408 312.969 267.55 312.763 267.654 312.496C267.762 312.226 267.816 311.904 267.816 311.529C267.816 311.15 267.762 310.828 267.654 310.562C267.55 310.295 267.408 310.092 267.229 309.95C267.05 309.809 266.846 309.738 266.618 309.738C266.385 309.738 266.177 309.809 265.994 309.95C265.81 310.092 265.667 310.295 265.563 310.562C265.459 310.828 265.407 311.15 265.407 311.529C265.407 311.904 265.459 312.226 265.563 312.496C265.667 312.763 265.81 312.969 265.994 313.114C266.177 313.256 266.385 313.326 266.618 313.326Z" fill="#9D9E9F"/>
<circle cx="166.547" cy="264.159" r="2.01929" fill="white" stroke="#FF5500" stroke-width="0.638967"/>
<circle cx="125.938" cy="281.313" r="2.07891" fill="white" stroke="#FF5500" stroke-width="0.519729"/>
<circle cx="143.21" cy="268.836" r="2.39661" fill="white" stroke="#FF5500" stroke-width="1.27793"/>
<circle cx="99.3168" cy="256.117" r="2.01929" fill="white" stroke="#1C76FD" stroke-width="0.638967"/>
<circle cx="199.81" cy="274.727" r="2.01929" fill="white" stroke="#1C76FD" stroke-width="0.638967"/>
<circle cx="233.592" cy="281.313" r="2.01929" fill="white" stroke="#1C76FD" stroke-width="0.638967"/>
<circle cx="98.8466" cy="288.299" r="2.01929" fill="white" stroke="#FF5500" stroke-width="0.638967"/>
<circle cx="199.81" cy="258.442" r="2.01929" fill="white" stroke="#FF5500" stroke-width="0.638967"/>
<circle cx="233.592" cy="252.725" r="2.01929" fill="white" stroke="#FF5500" stroke-width="0.638967"/>
</g>
<rect x="52.347" y="191.017" width="228.92" height="137.968" rx="9.82348" stroke="#EBECEC" stroke-width="0.8"/>
<rect x="10.4062" y="244.684" width="46.4605" height="42.5106" rx="11.9451" fill="#FCFCFC" stroke="#E2E2E2"/>
<g filter="url(#filter4_d_8985_208527)">
<rect x="13.002" y="247.021" width="41.2696" height="37.835" rx="9.67953" fill="#FCFCFC"/>
<rect x="13.502" y="247.521" width="40.2696" height="36.835" rx="9.17953" stroke="url(#paint5_linear_8985_208527)"/>
</g>
<g filter="url(#filter5_ii_8985_208527)">
<path fill-rule="evenodd" clip-rule="evenodd" d="M33.682 258.629C33.8729 258.629 34.0277 258.784 34.0277 258.975V261.297H38.5691H39.1655C39.3564 261.297 39.5112 261.452 39.5112 261.643C39.5112 261.834 39.3564 261.989 39.1655 261.989H39.1018L41.1984 266.689H41.5741C41.5741 267.484 41.2583 268.247 40.6962 268.809C40.134 269.371 39.3715 269.687 38.5765 269.687C37.7815 269.687 37.019 269.371 36.4568 268.809C35.8947 268.247 35.5788 267.484 35.5788 266.689H35.9132L38.0339 261.989H34.0277V272.557H37.0818C37.2727 272.557 37.4275 272.712 37.4275 272.903C37.4275 273.094 37.2727 273.249 37.0818 273.249H33.682H30.2821C30.0912 273.249 29.9364 273.094 29.9364 272.903C29.9364 272.712 30.0912 272.557 30.2821 272.557H33.3363V261.989H29.2952L31.3668 266.689H31.6948C31.6948 267.484 31.3789 268.247 30.8168 268.809C30.2546 269.371 29.4921 269.687 28.6971 269.687C27.9021 269.687 27.1396 269.371 26.5775 268.809C26.0153 268.247 25.6995 267.484 25.6995 266.689H26.0816L28.2272 261.989H28.1252C27.9342 261.989 27.7795 261.834 27.7795 261.643C27.7795 261.452 27.9342 261.297 28.1252 261.297H28.765H33.3363V258.975C33.3363 258.784 33.491 258.629 33.682 258.629ZM28.7595 262.488L26.8436 266.685H30.6093L28.7595 262.488ZM38.5673 262.488L36.6737 266.685H40.4394L38.5673 262.488Z" fill="#6C6E6F"/>
</g>
<path d="M140.365 268.873L57.5 268.873" stroke="#3B3D3F" stroke-dasharray="0.69 1.38"/>
<defs>
<filter id="filter0_d_8985_208527" x="-208.348" y="199.151" width="750.696" height="750.696" filterUnits="userSpaceOnUse" color-interpolation-filters="sRGB">
<feFlood flood-opacity="0" result="BackgroundImageFix"/>
<feColorMatrix in="SourceAlpha" type="matrix" values="0 0 0 0 0 0 0 0 0 0 0 0 0 0 0 0 0 0 127 0" result="hardAlpha"/>
<feOffset dy="0.691395"/>
<feGaussianBlur stdDeviation="1.38279"/>
<feComposite in2="hardAlpha" operator="out"/>
<feColorMatrix type="matrix" values="0 0 0 0 0 0 0 0 0 0 0 0 0 0 0 0 0 0 0.15 0"/>
<feBlend mode="normal" in2="BackgroundImageFix" result="effect1_dropShadow_8985_208527"/>
<feBlend mode="normal" in="SourceGraphic" in2="effect1_dropShadow_8985_208527" result="shape"/>
</filter>
<filter id="filter1_i_8985_208527" x="48.1226" y="186.718" width="237.827" height="147.54" filterUnits="userSpaceOnUse" color-interpolation-filters="sRGB">
<feFlood flood-opacity="0" result="BackgroundImageFix"/>
<feBlend mode="normal" in="SourceGraphic" in2="BackgroundImageFix" result="shape"/>
<feColorMatrix in="SourceAlpha" type="matrix" values="0 0 0 0 0 0 0 0 0 0 0 0 0 0 0 0 0 0 127 0" result="hardAlpha"/>
<feOffset dy="0.638967"/>
<feGaussianBlur stdDeviation="0.958451"/>
<feComposite in2="hardAlpha" operator="arithmetic" k2="-1" k3="1"/>
<feColorMatrix type="matrix" values="0 0 0 0 0 0 0 0 0 0 0 0 0 0 0 0 0 0 0.15 0"/>
<feBlend mode="normal" in2="shape" result="effect1_innerShadow_8985_208527"/>
</filter>
<filter id="filter2_d_8985_208527" x="60.3689" y="249.425" width="211.86" height="43.0655" filterUnits="userSpaceOnUse" color-interpolation-filters="sRGB">
<feFlood flood-opacity="0" result="BackgroundImageFix"/>
<feColorMatrix in="SourceAlpha" type="matrix" values="0 0 0 0 0 0 0 0 0 0 0 0 0 0 0 0 0 0 127 0" result="hardAlpha"/>
<feOffset dy="2.07418"/>
<feGaussianBlur stdDeviation="1.27793"/>
<feComposite in2="hardAlpha" operator="out"/>
<feColorMatrix type="matrix" values="0 0 0 0 0.504846 0 0 0 0 0.521754 0 0 0 0 0.530208 0 0 0 0.5 0"/>
<feBlend mode="normal" in2="BackgroundImageFix" result="effect1_dropShadow_8985_208527"/>
<feBlend mode="normal" in="SourceGraphic" in2="effect1_dropShadow_8985_208527" result="shape"/>
</filter>
<filter id="filter3_d_8985_208527" x="61.3853" y="237.471" width="210.843" height="63.2405" filterUnits="userSpaceOnUse" color-interpolation-filters="sRGB">
<feFlood flood-opacity="0" result="BackgroundImageFix"/>
<feColorMatrix in="SourceAlpha" type="matrix" values="0 0 0 0 0 0 0 0 0 0 0 0 0 0 0 0 0 0 127 0" result="hardAlpha"/>
<feOffset dy="2.07418"/>
<feGaussianBlur stdDeviation="1.27793"/>
<feComposite in2="hardAlpha" operator="out"/>
<feColorMatrix type="matrix" values="0 0 0 0 0.504846 0 0 0 0 0.521754 0 0 0 0 0.530208 0 0 0 0.5 0"/>
<feBlend mode="normal" in2="BackgroundImageFix" result="effect1_dropShadow_8985_208527"/>
<feBlend mode="normal" in="SourceGraphic" in2="effect1_dropShadow_8985_208527" result="shape"/>
</filter>
<filter id="filter4_d_8985_208527" x="8.43875" y="244.532" width="50.3959" height="46.9614" filterUnits="userSpaceOnUse" color-interpolation-filters="sRGB">
<feFlood flood-opacity="0" result="BackgroundImageFix"/>
<feColorMatrix in="SourceAlpha" type="matrix" values="0 0 0 0 0 0 0 0 0 0 0 0 0 0 0 0 0 0 127 0" result="hardAlpha"/>
<feOffset dy="2.07418"/>
<feGaussianBlur stdDeviation="2.2816"/>
<feComposite in2="hardAlpha" operator="out"/>
<feColorMatrix type="matrix" values="0 0 0 0 0 0 0 0 0 0 0 0 0 0 0 0 0 0 0.06 0"/>
<feBlend mode="normal" in2="BackgroundImageFix" result="effect1_dropShadow_8985_208527"/>
<feBlend mode="normal" in="SourceGraphic" in2="effect1_dropShadow_8985_208527" result="shape"/>
</filter>
<filter id="filter5_ii_8985_208527" x="25.6995" y="258.629" width="15.8748" height="15.7842" filterUnits="userSpaceOnUse" color-interpolation-filters="sRGB">
<feFlood flood-opacity="0" result="BackgroundImageFix"/>
<feBlend mode="normal" in="SourceGraphic" in2="BackgroundImageFix" result="shape"/>
<feColorMatrix in="SourceAlpha" type="matrix" values="0 0 0 0 0 0 0 0 0 0 0 0 0 0 0 0 0 0 127 0" result="hardAlpha"/>
<feOffset dy="0.388108"/>
<feGaussianBlur stdDeviation="0.194054"/>
<feComposite in2="hardAlpha" operator="arithmetic" k2="-1" k3="1"/>
<feColorMatrix type="matrix" values="0 0 0 0 0 0 0 0 0 0 0 0 0 0 0 0 0 0 0.35 0"/>
<feBlend mode="normal" in2="shape" result="effect1_innerShadow_8985_208527"/>
<feColorMatrix in="SourceAlpha" type="matrix" values="0 0 0 0 0 0 0 0 0 0 0 0 0 0 0 0 0 0 127 0" result="hardAlpha"/>
<feOffset dy="1.16432"/>
<feGaussianBlur stdDeviation="0.776216"/>
<feComposite in2="hardAlpha" operator="arithmetic" k2="-1" k3="1"/>
<feColorMatrix type="matrix" values="0 0 0 0 0 0 0 0 0 0 0 0 0 0 0 0 0 0 0.25 0"/>
<feBlend mode="normal" in2="effect1_innerShadow_8985_208527" result="effect2_innerShadow_8985_208527"/>
</filter>
<linearGradient id="paint0_linear_8985_208527" x1="168.078" y1="82.6252" x2="-19.8267" y2="46.5672" gradientUnits="userSpaceOnUse">
<stop stop-color="#EBECEC"/>
<stop offset="1" stop-color="#EBECEC" stop-opacity="0"/>
</linearGradient>
<radialGradient id="paint1_radial_8985_208527" cx="0" cy="0" r="1" gradientUnits="userSpaceOnUse" gradientTransform="translate(167 573.808) rotate(90) scale(372.582)">
<stop stop-color="#CECFCF"/>
<stop offset="1" stop-color="#CECFCF"/>
</radialGradient>
<linearGradient id="paint2_linear_8985_208527" x1="167" y1="201.226" x2="167" y2="946.39" gradientUnits="userSpaceOnUse">
<stop stop-color="white"/>
<stop offset="1" stop-color="#F5F6F7"/>
</linearGradient>
<linearGradient id="paint3_linear_8985_208527" x1="167.036" y1="186.718" x2="167.036" y2="333.62" gradientUnits="userSpaceOnUse">
<stop stop-color="white" stop-opacity="0"/>
<stop offset="1" stop-color="white"/>
</linearGradient>
<linearGradient id="paint4_linear_8985_208527" x1="236.863" y1="223.022" x2="236.863" y2="202.627" gradientUnits="userSpaceOnUse">
<stop stop-color="#E2E2E2"/>
<stop offset="1" stop-color="#E2E2E2"/>
</linearGradient>
<linearGradient id="paint5_linear_8985_208527" x1="33.6367" y1="284.856" x2="33.6367" y2="247.021" gradientUnits="userSpaceOnUse">
<stop stop-color="#E2E2E2"/>
<stop offset="1" stop-color="#E2E2E2"/>
</linearGradient>
<clipPath id="clip0_8985_208527">
<rect x="51.947" y="190.617" width="229.72" height="138.768" rx="10.2235" fill="white"/>
</clipPath>
</defs>
</svg>
